mtllib wellness_terminal_display.mtl
usemtl baked
v 0.030500 0.240000 0.380000
v 0.055500 0.240000 0.380000
v 0.030500 -0.240000 0.380000
v 0.055500 0.240000 0.380000
v 0.055500 -0.240000 0.380000
v 0.030500 -0.240000 0.380000
v 0.055500 0.240000 -0.380000
v 0.030500 0.240000 -0.380000
v 0.055500 -0.240000 -0.380000
v 0.030500 0.240000 -0.380000
v 0.030500 -0.240000 -0.380000
v 0.055500 -0.240000 -0.380000
v 0.055500 0.240000 0.380000
v 0.055500 0.240000 -0.380000
v 0.055500 -0.240000 0.380000
v 0.055500 0.240000 -0.380000
v 0.055500 -0.240000 -0.380000
v 0.055500 -0.240000 0.380000
v 0.030500 0.240000 -0.380000
v 0.030500 0.240000 0.380000
v 0.030500 -0.240000 -0.380000
v 0.030500 0.240000 0.380000
v 0.030500 -0.240000 0.380000
v 0.030500 -0.240000 -0.380000
v 0.055500 0.240000 0.380000
v 0.030500 0.240000 0.380000
v 0.055500 0.240000 -0.380000
v 0.030500 0.240000 0.380000
v 0.030500 0.240000 -0.380000
v 0.055500 0.240000 -0.380000
v 0.030500 -0.240000 0.380000
v 0.055500 -0.240000 0.380000
v 0.030500 -0.240000 -0.380000
v 0.055500 -0.240000 0.380000
v 0.055500 -0.240000 -0.380000
v 0.030500 -0.240000 -0.380000
vt 0.200000 0.968750
vt 0.187500 0.968750
vt 0.200000 0.728750
vt 0.187500 0.968750
vt 0.187500 0.728750
vt 0.200000 0.728750
vt 0.278125 0.968750
vt 0.265625 0.968750
vt 0.278125 0.728750
vt 0.265625 0.968750
vt 0.265625 0.728750
vt 0.278125 0.728750
vt 0.723750 0.968750
vt 0.343750 0.968750
vt 0.723750 0.728750
vt 0.343750 0.968750
vt 0.343750 0.728750
vt 0.723750 0.728750
vt 0.411250 0.515625
vt 0.031250 0.515625
vt 0.411250 0.275625
vt 0.031250 0.515625
vt 0.031250 0.275625
vt 0.411250 0.275625
vt 0.043750 0.968750
vt 0.031250 0.968750
vt 0.043750 0.588750
vt 0.031250 0.968750
vt 0.031250 0.588750
vt 0.043750 0.588750
vt 0.109375 0.588750
vt 0.121875 0.588750
vt 0.109375 0.968750
vt 0.121875 0.588750
vt 0.121875 0.968750
vt 0.109375 0.968750
f 1/1 2/2 3/3
f 4/4 5/5 6/6
f 7/7 8/8 9/9
f 10/10 11/11 12/12
f 13/13 14/14 15/15
f 16/16 17/17 18/18
f 19/19 20/20 21/21
f 22/22 23/23 24/24
f 25/25 26/26 27/27
f 28/28 29/29 30/30
f 31/31 32/32 33/33
f 34/34 35/35 36/36
