mtllib wellness_terminal_housing.mtl
usemtl baked
v -0.030000 0.290000 0.440000
v 0.030000 0.290000 0.440000
v -0.030000 -0.290000 0.440000
v 0.030000 0.290000 0.440000
v 0.030000 -0.290000 0.440000
v -0.030000 -0.290000 0.440000
v 0.030000 0.290000 -0.440000
v -0.030000 0.290000 -0.440000
v 0.030000 -0.290000 -0.440000
v -0.030000 0.290000 -0.440000
v -0.030000 -0.290000 -0.440000
v 0.030000 -0.290000 -0.440000
v 0.030000 0.290000 0.440000
v 0.030000 0.290000 -0.440000
v 0.030000 -0.290000 0.440000
v 0.030000 0.290000 -0.440000
v 0.030000 -0.290000 -0.440000
v 0.030000 -0.290000 0.440000
v -0.030000 0.290000 -0.440000
v -0.030000 0.290000 0.440000
v -0.030000 -0.290000 -0.440000
v -0.030000 0.290000 0.440000
v -0.030000 -0.290000 0.440000
v -0.030000 -0.290000 -0.440000
v 0.030000 0.290000 0.440000
v -0.030000 0.290000 0.440000
v 0.030000 0.290000 -0.440000
v -0.030000 0.290000 0.440000
v -0.030000 0.290000 -0.440000
v 0.030000 0.290000 -0.440000
v -0.030000 -0.290000 0.440000
v 0.030000 -0.290000 0.440000
v -0.030000 -0.290000 -0.440000
v 0.030000 -0.290000 0.440000
v 0.030000 -0.290000 -0.440000
v -0.030000 -0.290000 -0.440000
vt 0.124375 0.968750
vt 0.109375 0.968750
vt 0.124375 0.678750
vt 0.109375 0.968750
vt 0.109375 0.678750
vt 0.124375 0.678750
vt 0.171250 0.968750
vt 0.156250 0.968750
vt 0.171250 0.678750
vt 0.156250 0.968750
vt 0.156250 0.678750
vt 0.171250 0.678750
vt 0.423125 0.968750
vt 0.203125 0.968750
vt 0.423125 0.678750
vt 0.203125 0.968750
vt 0.203125 0.678750
vt 0.423125 0.678750
vt 0.680938 0.968750
vt 0.460938 0.968750
vt 0.680938 0.678750
vt 0.460938 0.968750
vt 0.460938 0.678750
vt 0.680938 0.678750
vt 0.030625 0.968750
vt 0.015625 0.968750
vt 0.030625 0.528750
vt 0.015625 0.968750
vt 0.015625 0.528750
vt 0.030625 0.528750
vt 0.062500 0.528750
vt 0.077500 0.528750
vt 0.062500 0.968750
vt 0.077500 0.528750
vt 0.077500 0.968750
vt 0.062500 0.968750
f 1/1 2/2 3/3
f 4/4 5/5 6/6
f 7/7 8/8 9/9
f 10/10 11/11 12/12
f 13/13 14/14 15/15
f 16/16 17/17 18/18
f 19/19 20/20 21/21
f 22/22 23/23 24/24
f 25/25 26/26 27/27
f 28/28 29/29 30/30
f 31/31 32/32 33/33
f 34/34 35/35 36/36
