# Blender 5.1.1
# www.blender.org
o WateringCan
v 0.130000 0.000000 0.000000
v 0.091924 0.000000 -0.091924
v 0.000000 0.000000 -0.130000
v -0.091924 0.000000 -0.091924
v -0.130000 0.000000 -0.000000
v -0.091924 0.000000 0.091924
v -0.000000 0.000000 0.130000
v 0.091924 0.000000 0.091924
v 0.105000 0.220000 0.000000
v 0.074246 0.220000 -0.074246
v 0.000000 0.220000 -0.105000
v -0.074246 0.220000 -0.074246
v -0.105000 0.220000 -0.000000
v -0.074246 0.220000 0.074246
v -0.000000 0.220000 0.105000
v 0.074246 0.220000 0.074246
v 0.055000 0.210000 0.000000
v 0.038891 0.210000 -0.038891
v 0.000000 0.210000 -0.055000
v -0.038891 0.210000 -0.038891
v -0.055000 0.210000 -0.000000
v -0.038891 0.210000 0.038891
v -0.000000 0.210000 0.055000
v 0.038891 0.210000 0.038891
v 0.055000 0.222000 0.000000
v 0.038891 0.222000 -0.038891
v 0.000000 0.222000 -0.055000
v -0.038891 0.222000 -0.038891
v -0.055000 0.222000 -0.000000
v -0.038891 0.222000 0.038891
v -0.000000 0.222000 0.055000
v 0.038891 0.222000 0.038891
v 0.117373 0.105683 0.022500
v 0.091562 0.142545 0.022500
v 0.117373 0.105683 -0.022500
v 0.091562 0.142545 -0.022500
v 0.248438 0.197455 0.022500
v 0.222627 0.234317 0.022500
v 0.248438 0.197455 -0.022500
v 0.222627 0.234317 -0.022500
v 0.210000 0.235000 0.030000
v 0.210000 0.255000 0.030000
v 0.210000 0.235000 -0.030000
v 0.210000 0.255000 -0.030000
v 0.260000 0.235000 0.030000
v 0.260000 0.255000 0.030000
v 0.260000 0.235000 -0.030000
v 0.260000 0.255000 -0.030000
v -0.170000 0.242500 0.017500
v -0.170000 0.277500 0.017500
v -0.170000 0.242500 -0.017500
v -0.170000 0.277500 -0.017500
v -0.030000 0.242500 0.017500
v -0.030000 0.277500 0.017500
v -0.030000 0.242500 -0.017500
v -0.030000 0.277500 -0.017500
v -0.177500 0.130000 0.017500
v -0.177500 0.250000 0.017500
v -0.177500 0.130000 -0.017500
v -0.177500 0.250000 -0.017500
v -0.142500 0.130000 0.017500
v -0.142500 0.250000 0.017500
v -0.142500 0.130000 -0.017500
v -0.142500 0.250000 -0.017500
vn 0.9188 0.1044 -0.3806
vn 0.3806 0.1044 -0.9188
vn -0.3806 0.1044 -0.9188
vn -0.9188 0.1044 -0.3806
vn -0.9188 0.1044 0.3806
vn -0.3806 0.1044 0.9188
vn 0.3806 0.1044 0.9188
vn 0.9188 0.1044 0.3806
vn -0.0000 -1.0000 -0.0000
vn 0.9239 -0.0000 -0.3827
vn 0.3827 -0.0000 -0.9239
vn -0.3827 -0.0000 -0.9239
vn -0.9239 -0.0000 -0.3827
vn -0.9239 -0.0000 0.3827
vn -0.3827 -0.0000 0.9239
vn 0.3827 -0.0000 0.9239
vn 0.9239 -0.0000 0.3827
vn -0.0000 1.0000 -0.0000
vn -0.5736 0.8192 -0.0000
vn 0.5736 -0.8192 -0.0000
vn 0.8192 0.5736 -0.0000
vn -0.8192 -0.5736 -0.0000
vn -0.0000 -0.0000 -1.0000
vn -0.0000 -0.0000 1.0000
vn 1.0000 -0.0000 -0.0000
vn -1.0000 -0.0000 -0.0000
vt 0.197105 0.070312
vt 0.195312 0.039062
vt 0.287615 0.039062
vt 0.289062 0.064303
vt 0.429688 0.039062
vt 0.427895 0.070312
vt 0.335938 0.064303
vt 0.337385 0.039062
vt 0.478355 0.070312
vt 0.476562 0.039062
vt 0.568865 0.039062
vt 0.570312 0.064303
vt 0.710938 0.039062
vt 0.709145 0.070312
vt 0.617188 0.064303
vt 0.618635 0.039062
vt 0.759605 0.070312
vt 0.757812 0.039062
vt 0.850115 0.039062
vt 0.851562 0.064303
vt 0.132812 0.195312
vt 0.131020 0.226562
vt 0.039062 0.220553
vt 0.040510 0.195312
vt 0.181480 0.226562
vt 0.179688 0.195312
vt 0.271990 0.195312
vt 0.273438 0.220553
vt 0.414062 0.195312
vt 0.412270 0.226562
vt 0.320312 0.220553
vt 0.321760 0.195312
vt 0.071098 0.039062
vt 0.116402 0.039062
vt 0.148438 0.071098
vt 0.148438 0.116402
vt 0.116402 0.148438
vt 0.071098 0.148438
vt 0.039062 0.116402
vt 0.039062 0.071098
vt 0.460938 0.195312
vt 0.492188 0.195312
vt 0.492188 0.226562
vt 0.460938 0.226562
vt 0.539062 0.195312
vt 0.570312 0.195312
vt 0.570312 0.226562
vt 0.539062 0.226562
vt 0.617188 0.195312
vt 0.648438 0.195312
vt 0.648438 0.226562
vt 0.617188 0.226562
vt 0.695312 0.195312
vt 0.726562 0.195312
vt 0.726562 0.226562
vt 0.695312 0.226562
vt 0.773438 0.195312
vt 0.804688 0.195312
vt 0.804688 0.226562
vt 0.773438 0.226562
vt 0.851562 0.195312
vt 0.882812 0.195312
vt 0.882812 0.226562
vt 0.851562 0.226562
vt 0.929688 0.195312
vt 0.960938 0.195312
vt 0.960938 0.226562
vt 0.929688 0.226562
vt 0.039062 0.273438
vt 0.070312 0.273438
vt 0.070312 0.304688
vt 0.039062 0.304688
vt 0.126340 0.273438
vt 0.139285 0.273438
vt 0.148438 0.282590
vt 0.148438 0.295535
vt 0.139285 0.304688
vt 0.126340 0.304688
vt 0.117188 0.295535
vt 0.117188 0.282590
vt 0.204465 0.273438
vt 0.217410 0.273438
vt 0.226562 0.282590
vt 0.226562 0.295535
vt 0.217410 0.304688
vt 0.204465 0.304688
vt 0.195312 0.295535
vt 0.195312 0.282590
vt 0.273438 0.273438
vt 0.335938 0.273438
vt 0.335938 0.304688
vt 0.273438 0.304688
vt 0.382812 0.273438
vt 0.445312 0.273438
vt 0.445312 0.304688
vt 0.382812 0.304688
vt 0.492188 0.273438
vt 0.523438 0.273438
vt 0.523438 0.304688
vt 0.492188 0.304688
vt 0.570312 0.304688
vt 0.570312 0.273438
vt 0.601562 0.273438
vt 0.601562 0.304688
vt 0.648438 0.273438
vt 0.710938 0.273438
vt 0.710938 0.304688
vt 0.648438 0.304688
vt 0.757812 0.273438
vt 0.820312 0.273438
vt 0.820312 0.304688
vt 0.757812 0.304688
vt 0.867188 0.304688
vt 0.867188 0.273438
vt 0.898438 0.273438
vt 0.898438 0.304688
vt 0.039062 0.382812
vt 0.039062 0.351562
vt 0.070312 0.351562
vt 0.070312 0.382812
vt 0.117188 0.351562
vt 0.148438 0.351562
vt 0.148438 0.382812
vt 0.117188 0.382812
vt 0.195312 0.351562
vt 0.226562 0.351562
vt 0.226562 0.382812
vt 0.195312 0.382812
vt 0.273438 0.351562
vt 0.304688 0.351562
vt 0.304688 0.382812
vt 0.273438 0.382812
vt 0.351562 0.351562
vt 0.382812 0.351562
vt 0.382812 0.382812
vt 0.351562 0.382812
vt 0.429688 0.351562
vt 0.476562 0.351562
vt 0.476562 0.382812
vt 0.429688 0.382812
vt 0.523438 0.351562
vt 0.570312 0.351562
vt 0.570312 0.382812
vt 0.523438 0.382812
vt 0.617188 0.351562
vt 0.648438 0.351562
vt 0.648438 0.382812
vt 0.617188 0.382812
vt 0.695312 0.351562
vt 0.726562 0.351562
vt 0.726562 0.382812
vt 0.695312 0.382812
vt 0.773438 0.351562
vt 0.820312 0.351562
vt 0.820312 0.382812
vt 0.773438 0.382812
vt 0.867188 0.351562
vt 0.914062 0.351562
vt 0.914062 0.382812
vt 0.867188 0.382812
vt 0.039062 0.460938
vt 0.039062 0.429688
vt 0.070312 0.429688
vt 0.070312 0.460938
vt 0.117188 0.460938
vt 0.117188 0.429688
vt 0.148438 0.429688
vt 0.148438 0.460938
vt 0.195312 0.460938
vt 0.195312 0.429688
vt 0.242188 0.429688
vt 0.242188 0.460938
vt 0.289062 0.460938
vt 0.289062 0.429688
vt 0.335938 0.429688
vt 0.335938 0.460938
vt 0.382812 0.460938
vt 0.382812 0.429688
vt 0.429688 0.429688
vt 0.429688 0.460938
vt 0.476562 0.460938
vt 0.476562 0.429688
vt 0.523438 0.429688
vt 0.523438 0.460938
s 0
f 1/1/1 2/2/1 10/3/1 9/4/1
f 2/5/2 3/6/2 11/7/2 10/8/2
f 3/9/3 4/10/3 12/11/3 11/12/3
f 4/13/4 5/14/4 13/15/4 12/16/4
f 5/17/5 6/18/5 14/19/5 13/20/5
f 6/21/6 7/22/6 15/23/6 14/24/6
f 7/25/7 8/26/7 16/27/7 15/28/7
f 8/29/8 1/30/8 9/31/8 16/32/8
f 1/33/9 8/34/9 7/35/9 6/36/9 5/37/9 4/38/9 3/39/9 2/40/9
f 17/41/10 18/42/10 26/43/10 25/44/10
f 18/45/11 19/46/11 27/47/11 26/48/11
f 19/49/12 20/50/12 28/51/12 27/52/12
f 20/53/13 21/54/13 29/55/13 28/56/13
f 21/57/14 22/58/14 30/59/14 29/60/14
f 22/61/15 23/62/15 31/63/15 30/64/15
f 23/65/16 24/66/16 32/67/16 31/68/16
f 24/69/17 17/70/17 25/71/17 32/72/17
f 32/73/18 25/74/18 26/75/18 27/76/18 28/77/18 29/78/18 30/79/18 31/80/18
f 17/81/9 24/82/9 23/83/9 22/84/9 21/85/9 20/86/9 19/87/9 18/88/9
f 34/89/19 38/90/19 40/91/19 36/92/19
f 35/93/20 39/94/20 37/95/20 33/96/20
f 37/97/21 39/98/21 40/99/21 38/100/21
f 35/101/22 33/102/22 34/103/22 36/104/22
f 39/105/23 35/106/23 36/107/23 40/108/23
f 33/109/24 37/110/24 38/111/24 34/112/24
f 42/113/18 46/114/18 48/115/18 44/116/18
f 43/117/9 47/118/9 45/119/9 41/120/9
f 45/121/25 47/122/25 48/123/25 46/124/25
f 43/125/26 41/126/26 42/127/26 44/128/26
f 47/129/23 43/130/23 44/131/23 48/132/23
f 41/133/24 45/134/24 46/135/24 42/136/24
f 50/137/18 54/138/18 56/139/18 52/140/18
f 51/141/9 55/142/9 53/143/9 49/144/9
f 53/145/25 55/146/25 56/147/25 54/148/25
f 51/149/26 49/150/26 50/151/26 52/152/26
f 55/153/23 51/154/23 52/155/23 56/156/23
f 49/157/24 53/158/24 54/159/24 50/160/24
f 58/161/18 62/162/18 64/163/18 60/164/18
f 59/165/9 63/166/9 61/167/9 57/168/9
f 61/169/25 63/170/25 64/171/25 62/172/25
f 59/173/26 57/174/26 58/175/26 60/176/26
f 63/177/23 59/178/23 60/179/23 64/180/23
f 57/181/24 61/182/24 62/183/24 58/184/24
