{
	"asset":{
		"generator":"Khronos glTF Blender I/O v5.1.19",
		"version":"2.0"
	},
	"extensionsUsed":[
		"KHR_materials_emissive_strength"
	],
	"scene":0,
	"scenes":[
		{
			"name":"Scene",
			"nodes":[
				0,
				1,
				2,
				3,
				4,
				5,
				6,
				7
			]
		}
	],
	"nodes":[
		{
			"mesh":0,
			"name":"AghoraMarketGate"
		},
		{
			"mesh":1,
			"name":"AghoraStallAwning",
			"translation":[
				3.4000000953674316,
				0,
				0
			]
		},
		{
			"mesh":2,
			"name":"AghoraSignAghoraExchange",
			"translation":[
				6.800000190734863,
				0,
				0
			]
		},
		{
			"mesh":3,
			"name":"AghoraSignLotusTeahouse",
			"translation":[
				10.199999809265137,
				0,
				0
			]
		},
		{
			"mesh":4,
			"name":"AghoraSignVeilweaveSilks",
			"translation":[
				13.600000381469727,
				0,
				0
			]
		},
		{
			"mesh":5,
			"name":"AghoraSignSensationSelected",
			"translation":[
				17,
				0,
				0
			]
		},
		{
			"mesh":6,
			"name":"AghoraSignBlissBrew",
			"translation":[
				20.399999618530273,
				0,
				0
			]
		},
		{
			"mesh":7,
			"name":"AghoraSignExperienceEverything",
			"translation":[
				23.799999237060547,
				0,
				0
			]
		}
	],
	"materials":[
		{
			"alphaMode":"MASK",
			"doubleSided":true,
			"emissiveFactor":[
				1,
				1,
				1
			],
			"emissiveTexture":{
				"index":0
			},
			"extensions":{
				"KHR_materials_emissive_strength":{
					"emissiveStrength":2.5999999046325684
				}
			},
			"name":"AghoraMarketGateTex",
			"pbrMetallicRoughness":{
				"baseColorTexture":{
					"index":1
				},
				"metallicFactor":0,
				"roughnessFactor":0.8999999761581421
			}
		},
		{
			"alphaMode":"MASK",
			"doubleSided":true,
			"name":"AghoraStallAwningTex",
			"pbrMetallicRoughness":{
				"baseColorTexture":{
					"index":2
				},
				"metallicFactor":0,
				"roughnessFactor":0.8999999761581421
			}
		},
		{
			"alphaMode":"MASK",
			"doubleSided":true,
			"emissiveFactor":[
				1,
				1,
				1
			],
			"emissiveTexture":{
				"index":3
			},
			"extensions":{
				"KHR_materials_emissive_strength":{
					"emissiveStrength":3
				}
			},
			"name":"AghoraSignAghoraExchangeTex",
			"pbrMetallicRoughness":{
				"baseColorTexture":{
					"index":4
				},
				"metallicFactor":0,
				"roughnessFactor":0.8999999761581421
			}
		},
		{
			"alphaMode":"MASK",
			"doubleSided":true,
			"emissiveFactor":[
				1,
				1,
				1
			],
			"emissiveTexture":{
				"index":5
			},
			"extensions":{
				"KHR_materials_emissive_strength":{
					"emissiveStrength":3
				}
			},
			"name":"AghoraSignLotusTeahouseTex",
			"pbrMetallicRoughness":{
				"baseColorTexture":{
					"index":6
				},
				"metallicFactor":0,
				"roughnessFactor":0.8999999761581421
			}
		},
		{
			"alphaMode":"MASK",
			"doubleSided":true,
			"emissiveFactor":[
				1,
				1,
				1
			],
			"emissiveTexture":{
				"index":7
			},
			"extensions":{
				"KHR_materials_emissive_strength":{
					"emissiveStrength":3
				}
			},
			"name":"AghoraSignVeilweaveSilksTex",
			"pbrMetallicRoughness":{
				"baseColorTexture":{
					"index":8
				},
				"metallicFactor":0,
				"roughnessFactor":0.8999999761581421
			}
		},
		{
			"alphaMode":"MASK",
			"doubleSided":true,
			"emissiveFactor":[
				1,
				1,
				1
			],
			"emissiveTexture":{
				"index":9
			},
			"extensions":{
				"KHR_materials_emissive_strength":{
					"emissiveStrength":3
				}
			},
			"name":"AghoraSignSensationSelectedTex",
			"pbrMetallicRoughness":{
				"baseColorTexture":{
					"index":10
				},
				"metallicFactor":0,
				"roughnessFactor":0.8999999761581421
			}
		},
		{
			"alphaMode":"MASK",
			"doubleSided":true,
			"emissiveFactor":[
				1,
				1,
				1
			],
			"emissiveTexture":{
				"index":11
			},
			"extensions":{
				"KHR_materials_emissive_strength":{
					"emissiveStrength":3
				}
			},
			"name":"AghoraSignBlissBrewTex",
			"pbrMetallicRoughness":{
				"baseColorTexture":{
					"index":12
				},
				"metallicFactor":0,
				"roughnessFactor":0.8999999761581421
			}
		},
		{
			"alphaMode":"MASK",
			"doubleSided":true,
			"emissiveFactor":[
				1,
				1,
				1
			],
			"emissiveTexture":{
				"index":13
			},
			"extensions":{
				"KHR_materials_emissive_strength":{
					"emissiveStrength":3
				}
			},
			"name":"AghoraSignExperienceEverythingTex",
			"pbrMetallicRoughness":{
				"baseColorTexture":{
					"index":14
				},
				"metallicFactor":0,
				"roughnessFactor":0.8999999761581421
			}
		}
	],
	"meshes":[
		{
			"name":"AghoraMarketGate",
			"primitives":[
				{
					"attributes":{
						"POSITION":0,
						"NORMAL":1,
						"TEXCOORD_0":2
					},
					"indices":3,
					"material":0
				}
			]
		},
		{
			"name":"AghoraStallAwning",
			"primitives":[
				{
					"attributes":{
						"POSITION":4,
						"NORMAL":5,
						"TEXCOORD_0":6
					},
					"indices":7,
					"material":1
				}
			]
		},
		{
			"name":"AghoraSignAghoraExchange",
			"primitives":[
				{
					"attributes":{
						"POSITION":8,
						"NORMAL":9,
						"TEXCOORD_0":10
					},
					"indices":11,
					"material":2
				}
			]
		},
		{
			"name":"AghoraSignLotusTeahouse",
			"primitives":[
				{
					"attributes":{
						"POSITION":12,
						"NORMAL":13,
						"TEXCOORD_0":14
					},
					"indices":11,
					"material":3
				}
			]
		},
		{
			"name":"AghoraSignVeilweaveSilks",
			"primitives":[
				{
					"attributes":{
						"POSITION":15,
						"NORMAL":16,
						"TEXCOORD_0":17
					},
					"indices":11,
					"material":4
				}
			]
		},
		{
			"name":"AghoraSignSensationSelected",
			"primitives":[
				{
					"attributes":{
						"POSITION":18,
						"NORMAL":19,
						"TEXCOORD_0":20
					},
					"indices":11,
					"material":5
				}
			]
		},
		{
			"name":"AghoraSignBlissBrew",
			"primitives":[
				{
					"attributes":{
						"POSITION":21,
						"NORMAL":22,
						"TEXCOORD_0":23
					},
					"indices":11,
					"material":6
				}
			]
		},
		{
			"name":"AghoraSignExperienceEverything",
			"primitives":[
				{
					"attributes":{
						"POSITION":24,
						"NORMAL":25,
						"TEXCOORD_0":26
					},
					"indices":11,
					"material":7
				}
			]
		}
	],
	"textures":[
		{
			"sampler":0,
			"source":0
		},
		{
			"sampler":0,
			"source":1
		},
		{
			"sampler":0,
			"source":2
		},
		{
			"sampler":0,
			"source":3
		},
		{
			"sampler":0,
			"source":4
		},
		{
			"sampler":0,
			"source":5
		},
		{
			"sampler":0,
			"source":6
		},
		{
			"sampler":0,
			"source":7
		},
		{
			"sampler":0,
			"source":8
		},
		{
			"sampler":0,
			"source":9
		},
		{
			"sampler":0,
			"source":10
		},
		{
			"sampler":0,
			"source":11
		},
		{
			"sampler":0,
			"source":12
		},
		{
			"sampler":0,
			"source":13
		},
		{
			"sampler":0,
			"source":14
		}
	],
	"images":[
		{
			"mimeType":"image/png",
			"name":"AghoraMarketGate_emissive",
			"uri":"AghoraMarketGate_emissive.png"
		},
		{
			"mimeType":"image/png",
			"name":"AghoraMarketGate_tex",
			"uri":"AghoraMarketGate_tex.png"
		},
		{
			"mimeType":"image/png",
			"name":"AghoraStallAwning_tex",
			"uri":"AghoraStallAwning_tex.png"
		},
		{
			"mimeType":"image/png",
			"name":"AghoraSignAghoraExchange_emissive",
			"uri":"AghoraSignAghoraExchange_emissive.png"
		},
		{
			"mimeType":"image/png",
			"name":"AghoraSignAghoraExchange_tex",
			"uri":"AghoraSignAghoraExchange_tex.png"
		},
		{
			"mimeType":"image/png",
			"name":"AghoraSignLotusTeahouse_emissive",
			"uri":"AghoraSignLotusTeahouse_emissive.png"
		},
		{
			"mimeType":"image/png",
			"name":"AghoraSignLotusTeahouse_tex",
			"uri":"AghoraSignLotusTeahouse_tex.png"
		},
		{
			"mimeType":"image/png",
			"name":"AghoraSignVeilweaveSilks_emissive",
			"uri":"AghoraSignVeilweaveSilks_emissive.png"
		},
		{
			"mimeType":"image/png",
			"name":"AghoraSignVeilweaveSilks_tex",
			"uri":"AghoraSignVeilweaveSilks_tex.png"
		},
		{
			"mimeType":"image/png",
			"name":"AghoraSignSensationSelected_emissive",
			"uri":"AghoraSignSensationSelected_emissive.png"
		},
		{
			"mimeType":"image/png",
			"name":"AghoraSignSensationSelected_tex",
			"uri":"AghoraSignSensationSelected_tex.png"
		},
		{
			"mimeType":"image/png",
			"name":"AghoraSignBlissBrew_emissive",
			"uri":"AghoraSignBlissBrew_emissive.png"
		},
		{
			"mimeType":"image/png",
			"name":"AghoraSignBlissBrew_tex",
			"uri":"AghoraSignBlissBrew_tex.png"
		},
		{
			"mimeType":"image/png",
			"name":"AghoraSignExperienceEverything_emissive",
			"uri":"AghoraSignExperienceEverything_emissive.png"
		},
		{
			"mimeType":"image/png",
			"name":"AghoraSignExperienceEverything_tex",
			"uri":"AghoraSignExperienceEverything_tex.png"
		}
	],
	"accessors":[
		{
			"bufferView":0,
			"componentType":5126,
			"count":640,
			"max":[
				1.7389999628067017,
				2.8570001125335693,
				0.25999999046325684
			],
			"min":[
				-1.7389999628067017,
				0,
				-0.25999999046325684
			],
			"type":"VEC3"
		},
		{
			"bufferView":1,
			"componentType":5126,
			"count":640,
			"type":"VEC3"
		},
		{
			"bufferView":2,
			"componentType":5126,
			"count":640,
			"type":"VEC2"
		},
		{
			"bufferView":3,
			"componentType":5123,
			"count":1038,
			"type":"SCALAR"
		},
		{
			"bufferView":4,
			"componentType":5126,
			"count":184,
			"max":[
				0.6499999761581421,
				0.699999988079071,
				0.7300000190734863
			],
			"min":[
				-0.6499999761581421,
				0,
				-0.03500000014901161
			],
			"type":"VEC3"
		},
		{
			"bufferView":5,
			"componentType":5126,
			"count":184,
			"type":"VEC3"
		},
		{
			"bufferView":6,
			"componentType":5126,
			"count":184,
			"type":"VEC2"
		},
		{
			"bufferView":7,
			"componentType":5123,
			"count":282,
			"type":"SCALAR"
		},
		{
			"bufferView":8,
			"componentType":5126,
			"count":100,
			"max":[
				0.4399999976158142,
				0.2856000065803528,
				0.05700000002980232
			],
			"min":[
				-0.4399999976158142,
				-0.20999999344348907,
				-0.30957266688346863
			],
			"type":"VEC3"
		},
		{
			"bufferView":9,
			"componentType":5126,
			"count":100,
			"type":"VEC3"
		},
		{
			"bufferView":10,
			"componentType":5126,
			"count":100,
			"type":"VEC2"
		},
		{
			"bufferView":11,
			"componentType":5123,
			"count":150,
			"type":"SCALAR"
		},
		{
			"bufferView":12,
			"componentType":5126,
			"count":100,
			"max":[
				0.4399999976158142,
				0.2856000065803528,
				0.05700000002980232
			],
			"min":[
				-0.4399999976158142,
				-0.20999999344348907,
				-0.30957266688346863
			],
			"type":"VEC3"
		},
		{
			"bufferView":13,
			"componentType":5126,
			"count":100,
			"type":"VEC3"
		},
		{
			"bufferView":14,
			"componentType":5126,
			"count":100,
			"type":"VEC2"
		},
		{
			"bufferView":15,
			"componentType":5126,
			"count":100,
			"max":[
				0.4399999976158142,
				0.2856000065803528,
				0.05700000002980232
			],
			"min":[
				-0.4399999976158142,
				-0.20999999344348907,
				-0.30957266688346863
			],
			"type":"VEC3"
		},
		{
			"bufferView":16,
			"componentType":5126,
			"count":100,
			"type":"VEC3"
		},
		{
			"bufferView":17,
			"componentType":5126,
			"count":100,
			"type":"VEC2"
		},
		{
			"bufferView":18,
			"componentType":5126,
			"count":100,
			"max":[
				0.4399999976158142,
				0.2856000065803528,
				0.05700000002980232
			],
			"min":[
				-0.4399999976158142,
				-0.20999999344348907,
				-0.30957266688346863
			],
			"type":"VEC3"
		},
		{
			"bufferView":19,
			"componentType":5126,
			"count":100,
			"type":"VEC3"
		},
		{
			"bufferView":20,
			"componentType":5126,
			"count":100,
			"type":"VEC2"
		},
		{
			"bufferView":21,
			"componentType":5126,
			"count":100,
			"max":[
				0.4399999976158142,
				0.2856000065803528,
				0.05700000002980232
			],
			"min":[
				-0.4399999976158142,
				-0.20999999344348907,
				-0.30957266688346863
			],
			"type":"VEC3"
		},
		{
			"bufferView":22,
			"componentType":5126,
			"count":100,
			"type":"VEC3"
		},
		{
			"bufferView":23,
			"componentType":5126,
			"count":100,
			"type":"VEC2"
		},
		{
			"bufferView":24,
			"componentType":5126,
			"count":100,
			"max":[
				0.4399999976158142,
				0.2856000065803528,
				0.05700000002980232
			],
			"min":[
				-0.4399999976158142,
				-0.20999999344348907,
				-0.30957266688346863
			],
			"type":"VEC3"
		},
		{
			"bufferView":25,
			"componentType":5126,
			"count":100,
			"type":"VEC3"
		},
		{
			"bufferView":26,
			"componentType":5126,
			"count":100,
			"type":"VEC2"
		}
	],
	"bufferViews":[
		{
			"buffer":0,
			"byteLength":7680,
			"byteOffset":0,
			"target":34962
		},
		{
			"buffer":0,
			"byteLength":7680,
			"byteOffset":7680,
			"target":34962
		},
		{
			"buffer":0,
			"byteLength":5120,
			"byteOffset":15360,
			"target":34962
		},
		{
			"buffer":0,
			"byteLength":2076,
			"byteOffset":20480,
			"target":34963
		},
		{
			"buffer":0,
			"byteLength":2208,
			"byteOffset":22556,
			"target":34962
		},
		{
			"buffer":0,
			"byteLength":2208,
			"byteOffset":24764,
			"target":34962
		},
		{
			"buffer":0,
			"byteLength":1472,
			"byteOffset":26972,
			"target":34962
		},
		{
			"buffer":0,
			"byteLength":564,
			"byteOffset":28444,
			"target":34963
		},
		{
			"buffer":0,
			"byteLength":1200,
			"byteOffset":29008,
			"target":34962
		},
		{
			"buffer":0,
			"byteLength":1200,
			"byteOffset":30208,
			"target":34962
		},
		{
			"buffer":0,
			"byteLength":800,
			"byteOffset":31408,
			"target":34962
		},
		{
			"buffer":0,
			"byteLength":300,
			"byteOffset":32208,
			"target":34963
		},
		{
			"buffer":0,
			"byteLength":1200,
			"byteOffset":32508,
			"target":34962
		},
		{
			"buffer":0,
			"byteLength":1200,
			"byteOffset":33708,
			"target":34962
		},
		{
			"buffer":0,
			"byteLength":800,
			"byteOffset":34908,
			"target":34962
		},
		{
			"buffer":0,
			"byteLength":1200,
			"byteOffset":35708,
			"target":34962
		},
		{
			"buffer":0,
			"byteLength":1200,
			"byteOffset":36908,
			"target":34962
		},
		{
			"buffer":0,
			"byteLength":800,
			"byteOffset":38108,
			"target":34962
		},
		{
			"buffer":0,
			"byteLength":1200,
			"byteOffset":38908,
			"target":34962
		},
		{
			"buffer":0,
			"byteLength":1200,
			"byteOffset":40108,
			"target":34962
		},
		{
			"buffer":0,
			"byteLength":800,
			"byteOffset":41308,
			"target":34962
		},
		{
			"buffer":0,
			"byteLength":1200,
			"byteOffset":42108,
			"target":34962
		},
		{
			"buffer":0,
			"byteLength":1200,
			"byteOffset":43308,
			"target":34962
		},
		{
			"buffer":0,
			"byteLength":800,
			"byteOffset":44508,
			"target":34962
		},
		{
			"buffer":0,
			"byteLength":1200,
			"byteOffset":45308,
			"target":34962
		},
		{
			"buffer":0,
			"byteLength":1200,
			"byteOffset":46508,
			"target":34962
		},
		{
			"buffer":0,
			"byteLength":800,
			"byteOffset":47708,
			"target":34962
		}
	],
	"samplers":[
		{
			"magFilter":9728,
			"minFilter":9984
		}
	],
	"buffers":[
		{
			"byteLength":48508,
			"uri":"aghora_pieces.bin"
		}
	]
}
