{
	"asset":{
		"generator":"Khronos glTF Blender I/O v5.1.19",
		"version":"2.0"
	},
	"scene":0,
	"scenes":[
		{
			"name":"Scene",
			"nodes":[
				0,
				1,
				2,
				3,
				4,
				5
			]
		}
	],
	"nodes":[
		{
			"mesh":0,
			"name":"ColumnTree"
		},
		{
			"mesh":1,
			"name":"ColumnMushroom",
			"translation":[
				2.4000000953674316,
				0,
				0
			]
		},
		{
			"mesh":2,
			"name":"ColumnLoadPier",
			"translation":[
				4.800000190734863,
				0,
				0
			]
		},
		{
			"mesh":3,
			"name":"ColumnButtressFin",
			"translation":[
				7.199999809265137,
				0,
				0
			]
		},
		{
			"mesh":4,
			"name":"ColumnVineWall",
			"translation":[
				9.600000381469727,
				0,
				0
			]
		},
		{
			"mesh":5,
			"name":"ColumnStrutConduit",
			"translation":[
				12,
				0,
				0
			]
		}
	],
	"materials":[
		{
			"doubleSided":true,
			"name":"ColumnTreeTex",
			"pbrMetallicRoughness":{
				"baseColorTexture":{
					"index":0
				},
				"metallicFactor":0,
				"roughnessFactor":0.8999999761581421
			}
		},
		{
			"alphaMode":"MASK",
			"doubleSided":true,
			"name":"ColumnMushroomTex",
			"pbrMetallicRoughness":{
				"baseColorTexture":{
					"index":1
				},
				"metallicFactor":0,
				"roughnessFactor":0.8999999761581421
			}
		},
		{
			"doubleSided":true,
			"name":"ColumnLoadPierTex",
			"pbrMetallicRoughness":{
				"baseColorTexture":{
					"index":2
				},
				"metallicFactor":0,
				"roughnessFactor":0.8999999761581421
			}
		},
		{
			"doubleSided":true,
			"name":"ColumnButtressFinTex",
			"pbrMetallicRoughness":{
				"baseColorTexture":{
					"index":3
				},
				"metallicFactor":0,
				"roughnessFactor":0.8999999761581421
			}
		},
		{
			"alphaMode":"MASK",
			"doubleSided":true,
			"name":"ColumnVineWallTex",
			"pbrMetallicRoughness":{
				"baseColorTexture":{
					"index":4
				},
				"metallicFactor":0,
				"roughnessFactor":0.8999999761581421
			}
		},
		{
			"doubleSided":true,
			"name":"ColumnStrutConduitTex",
			"pbrMetallicRoughness":{
				"baseColorTexture":{
					"index":5
				},
				"metallicFactor":0,
				"roughnessFactor":0.8999999761581421
			}
		}
	],
	"meshes":[
		{
			"name":"ColumnTree",
			"primitives":[
				{
					"attributes":{
						"POSITION":0,
						"NORMAL":1,
						"TEXCOORD_0":2
					},
					"indices":3,
					"material":0
				}
			]
		},
		{
			"name":"ColumnMushroom",
			"primitives":[
				{
					"attributes":{
						"POSITION":4,
						"NORMAL":5,
						"TEXCOORD_0":6
					},
					"indices":7,
					"material":1
				}
			]
		},
		{
			"name":"ColumnLoadPier",
			"primitives":[
				{
					"attributes":{
						"POSITION":8,
						"NORMAL":9,
						"TEXCOORD_0":10
					},
					"indices":11,
					"material":2
				}
			]
		},
		{
			"name":"ColumnButtressFin",
			"primitives":[
				{
					"attributes":{
						"POSITION":12,
						"NORMAL":13,
						"TEXCOORD_0":14
					},
					"indices":15,
					"material":3
				}
			]
		},
		{
			"name":"ColumnVineWall",
			"primitives":[
				{
					"attributes":{
						"POSITION":16,
						"NORMAL":17,
						"TEXCOORD_0":18
					},
					"indices":19,
					"material":4
				}
			]
		},
		{
			"name":"ColumnStrutConduit",
			"primitives":[
				{
					"attributes":{
						"POSITION":20,
						"NORMAL":21,
						"TEXCOORD_0":22
					},
					"indices":23,
					"material":5
				}
			]
		}
	],
	"textures":[
		{
			"sampler":0,
			"source":0
		},
		{
			"sampler":0,
			"source":1
		},
		{
			"sampler":0,
			"source":2
		},
		{
			"sampler":0,
			"source":3
		},
		{
			"sampler":0,
			"source":4
		},
		{
			"sampler":0,
			"source":5
		}
	],
	"images":[
		{
			"mimeType":"image/png",
			"name":"ColumnTree_tex",
			"uri":"ColumnTree_tex.png"
		},
		{
			"mimeType":"image/png",
			"name":"ColumnMushroom_tex",
			"uri":"ColumnMushroom_tex.png"
		},
		{
			"mimeType":"image/png",
			"name":"ColumnLoadPier_tex",
			"uri":"ColumnLoadPier_tex.png"
		},
		{
			"mimeType":"image/png",
			"name":"ColumnButtressFin_tex",
			"uri":"ColumnButtressFin_tex.png"
		},
		{
			"mimeType":"image/png",
			"name":"ColumnVineWall_tex",
			"uri":"ColumnVineWall_tex.png"
		},
		{
			"mimeType":"image/png",
			"name":"ColumnStrutConduit_tex",
			"uri":"ColumnStrutConduit_tex.png"
		}
	],
	"accessors":[
		{
			"bufferView":0,
			"componentType":5126,
			"count":796,
			"max":[
				0.45318710803985596,
				3.684000015258789,
				0.369880348443985
			],
			"min":[
				-0.45318710803985596,
				0,
				-0.369880348443985
			],
			"type":"VEC3"
		},
		{
			"bufferView":1,
			"componentType":5126,
			"count":796,
			"type":"VEC3"
		},
		{
			"bufferView":2,
			"componentType":5126,
			"count":796,
			"type":"VEC2"
		},
		{
			"bufferView":3,
			"componentType":5123,
			"count":1356,
			"type":"SCALAR"
		},
		{
			"bufferView":4,
			"componentType":5126,
			"count":510,
			"max":[
				0.6240000128746033,
				3.0820000171661377,
				0.6083550453186035
			],
			"min":[
				-0.6240000128746033,
				0,
				-0.6083550453186035
			],
			"type":"VEC3"
		},
		{
			"bufferView":5,
			"componentType":5126,
			"count":510,
			"type":"VEC3"
		},
		{
			"bufferView":6,
			"componentType":5126,
			"count":510,
			"type":"VEC2"
		},
		{
			"bufferView":7,
			"componentType":5123,
			"count":834,
			"type":"SCALAR"
		},
		{
			"bufferView":8,
			"componentType":5126,
			"count":296,
			"max":[
				0.27300000190734863,
				3.1429998874664307,
				0.27300000190734863
			],
			"min":[
				-0.27300000190734863,
				0,
				-0.27300000190734863
			],
			"type":"VEC3"
		},
		{
			"bufferView":9,
			"componentType":5126,
			"count":296,
			"type":"VEC3"
		},
		{
			"bufferView":10,
			"componentType":5126,
			"count":296,
			"type":"VEC2"
		},
		{
			"bufferView":11,
			"componentType":5123,
			"count":450,
			"type":"SCALAR"
		},
		{
			"bufferView":12,
			"componentType":5126,
			"count":318,
			"max":[
				0.4000000059604645,
				3.2119998931884766,
				0.31200000643730164
			],
			"min":[
				-0.4000000059604645,
				0,
				-0.31200000643730164
			],
			"type":"VEC3"
		},
		{
			"bufferView":13,
			"componentType":5126,
			"count":318,
			"type":"VEC3"
		},
		{
			"bufferView":14,
			"componentType":5126,
			"count":318,
			"type":"VEC2"
		},
		{
			"bufferView":15,
			"componentType":5123,
			"count":492,
			"type":"SCALAR"
		},
		{
			"bufferView":16,
			"componentType":5126,
			"count":76,
			"max":[
				0.6399999856948853,
				2.99399995803833,
				0.10999999940395355
			],
			"min":[
				-0.6399999856948853,
				0,
				-0.10999999940395355
			],
			"type":"VEC3"
		},
		{
			"bufferView":17,
			"componentType":5126,
			"count":76,
			"type":"VEC3"
		},
		{
			"bufferView":18,
			"componentType":5126,
			"count":76,
			"type":"VEC2"
		},
		{
			"bufferView":19,
			"componentType":5123,
			"count":114,
			"type":"SCALAR"
		},
		{
			"bufferView":20,
			"componentType":5126,
			"count":264,
			"max":[
				0.5519999861717224,
				3.0320000648498535,
				0.2759999632835388
			],
			"min":[
				-0.5519999861717224,
				0,
				-0.2759999632835388
			],
			"type":"VEC3"
		},
		{
			"bufferView":21,
			"componentType":5126,
			"count":264,
			"type":"VEC3"
		},
		{
			"bufferView":22,
			"componentType":5126,
			"count":264,
			"type":"VEC2"
		},
		{
			"bufferView":23,
			"componentType":5123,
			"count":444,
			"type":"SCALAR"
		}
	],
	"bufferViews":[
		{
			"buffer":0,
			"byteLength":9552,
			"byteOffset":0,
			"target":34962
		},
		{
			"buffer":0,
			"byteLength":9552,
			"byteOffset":9552,
			"target":34962
		},
		{
			"buffer":0,
			"byteLength":6368,
			"byteOffset":19104,
			"target":34962
		},
		{
			"buffer":0,
			"byteLength":2712,
			"byteOffset":25472,
			"target":34963
		},
		{
			"buffer":0,
			"byteLength":6120,
			"byteOffset":28184,
			"target":34962
		},
		{
			"buffer":0,
			"byteLength":6120,
			"byteOffset":34304,
			"target":34962
		},
		{
			"buffer":0,
			"byteLength":4080,
			"byteOffset":40424,
			"target":34962
		},
		{
			"buffer":0,
			"byteLength":1668,
			"byteOffset":44504,
			"target":34963
		},
		{
			"buffer":0,
			"byteLength":3552,
			"byteOffset":46172,
			"target":34962
		},
		{
			"buffer":0,
			"byteLength":3552,
			"byteOffset":49724,
			"target":34962
		},
		{
			"buffer":0,
			"byteLength":2368,
			"byteOffset":53276,
			"target":34962
		},
		{
			"buffer":0,
			"byteLength":900,
			"byteOffset":55644,
			"target":34963
		},
		{
			"buffer":0,
			"byteLength":3816,
			"byteOffset":56544,
			"target":34962
		},
		{
			"buffer":0,
			"byteLength":3816,
			"byteOffset":60360,
			"target":34962
		},
		{
			"buffer":0,
			"byteLength":2544,
			"byteOffset":64176,
			"target":34962
		},
		{
			"buffer":0,
			"byteLength":984,
			"byteOffset":66720,
			"target":34963
		},
		{
			"buffer":0,
			"byteLength":912,
			"byteOffset":67704,
			"target":34962
		},
		{
			"buffer":0,
			"byteLength":912,
			"byteOffset":68616,
			"target":34962
		},
		{
			"buffer":0,
			"byteLength":608,
			"byteOffset":69528,
			"target":34962
		},
		{
			"buffer":0,
			"byteLength":228,
			"byteOffset":70136,
			"target":34963
		},
		{
			"buffer":0,
			"byteLength":3168,
			"byteOffset":70364,
			"target":34962
		},
		{
			"buffer":0,
			"byteLength":3168,
			"byteOffset":73532,
			"target":34962
		},
		{
			"buffer":0,
			"byteLength":2112,
			"byteOffset":76700,
			"target":34962
		},
		{
			"buffer":0,
			"byteLength":888,
			"byteOffset":78812,
			"target":34963
		}
	],
	"samplers":[
		{
			"magFilter":9728,
			"minFilter":9984
		}
	],
	"buffers":[
		{
			"byteLength":79700,
			"uri":"column_pieces.bin"
		}
	]
}
