{
	"asset":{
		"generator":"Khronos glTF Blender I/O v5.1.19",
		"version":"2.0"
	},
	"scene":0,
	"scenes":[
		{
			"name":"Scene",
			"nodes":[
				14
			]
		}
	],
	"nodes":[
		{
			"name":"frame_0"
		},
		{
			"name":"petal0_0",
			"rotation":[
				-0.5,
				0.5,
				0.5,
				0.5
			],
			"translation":[
				0.5720000267028809,
				1.024999976158142,
				0
			]
		},
		{
			"name":"petal1_0",
			"rotation":[
				-0.7499999403953552,
				0.43301278352737427,
				0.43301281332969666,
				0.2500000298023224
			],
			"scale":[
				1,
				1.0000001192092896,
				1
			],
			"translation":[
				0.49536654353141785,
				1.3109999895095825,
				0
			]
		},
		{
			"name":"petal2_0",
			"rotation":[
				-0.9330127239227295,
				0.25,
				0.25,
				0.06698725372552872
			],
			"scale":[
				1,
				1.0000001192092896,
				1
			],
			"translation":[
				0.28600001335144043,
				1.5203665494918823,
				0
			]
		},
		{
			"name":"petal3_0",
			"rotation":[
				1,
				-3.0616171314629196e-17,
				-3.0616171314629196e-17,
				0
			],
			"translation":[
				3.5024898395749025e-17,
				1.597000002861023,
				0
			]
		},
		{
			"name":"petal4_0",
			"rotation":[
				-0.9330127239227295,
				-0.25,
				-0.25,
				0.06698725372552872
			],
			"scale":[
				1,
				1.0000001192092896,
				1
			],
			"translation":[
				-0.28600001335144043,
				1.5203665494918823,
				0
			]
		},
		{
			"name":"petal5_0",
			"rotation":[
				-0.7499999403953552,
				-0.43301278352737427,
				-0.43301281332969666,
				0.2500000298023224
			],
			"scale":[
				1,
				1.0000001192092896,
				1
			],
			"translation":[
				-0.49536654353141785,
				1.3109999895095825,
				0
			]
		},
		{
			"name":"petal6_0",
			"rotation":[
				-0.5,
				-0.5,
				-0.5,
				0.5
			],
			"translation":[
				-0.5720000267028809,
				1.024999976158142,
				0
			]
		},
		{
			"name":"petal7_0",
			"rotation":[
				-0.2500000298023224,
				-0.43301281332969666,
				-0.43301278352737427,
				0.7499999403953552
			],
			"scale":[
				1,
				1.0000001192092896,
				1
			],
			"translation":[
				-0.49536654353141785,
				0.7390000224113464,
				0
			]
		},
		{
			"name":"petal8_0",
			"rotation":[
				-0.0669872984290123,
				-0.25,
				-0.25,
				0.9330127239227295
			],
			"translation":[
				-0.28600001335144043,
				0.5296334624290466,
				0
			]
		},
		{
			"name":"petal9_0",
			"rotation":[
				0,
				-9.184850732644269e-17,
				-9.184850732644269e-17,
				1
			],
			"translation":[
				-1.0507469518724707e-16,
				0.453000009059906,
				0
			]
		},
		{
			"name":"petal10_0",
			"rotation":[
				-0.0669872984290123,
				0.25,
				0.25,
				0.9330127239227295
			],
			"translation":[
				0.28600001335144043,
				0.5296334624290466,
				0
			]
		},
		{
			"name":"petal11_0",
			"rotation":[
				-0.2500000298023224,
				0.43301281332969666,
				0.43301278352737427,
				0.7499999403953552
			],
			"scale":[
				1,
				1.0000001192092896,
				1
			],
			"translation":[
				0.49536654353141785,
				0.7390000224113464,
				0
			]
		},
		{
			"mesh":0,
			"name":"DoorIrisPore",
			"skin":0
		},
		{
			"children":[
				13,
				0,
				1,
				2,
				3,
				4,
				5,
				6,
				7,
				8,
				9,
				10,
				11,
				12
			],
			"name":"DoorIris_Armature"
		}
	],
	"animations":[
		{
			"channels":[
				{
					"sampler":0,
					"target":{
						"node":0,
						"path":"translation"
					}
				},
				{
					"sampler":1,
					"target":{
						"node":0,
						"path":"rotation"
					}
				},
				{
					"sampler":2,
					"target":{
						"node":0,
						"path":"scale"
					}
				},
				{
					"sampler":3,
					"target":{
						"node":1,
						"path":"translation"
					}
				},
				{
					"sampler":4,
					"target":{
						"node":1,
						"path":"rotation"
					}
				},
				{
					"sampler":5,
					"target":{
						"node":1,
						"path":"scale"
					}
				},
				{
					"sampler":6,
					"target":{
						"node":2,
						"path":"translation"
					}
				},
				{
					"sampler":7,
					"target":{
						"node":2,
						"path":"rotation"
					}
				},
				{
					"sampler":8,
					"target":{
						"node":2,
						"path":"scale"
					}
				},
				{
					"sampler":9,
					"target":{
						"node":3,
						"path":"translation"
					}
				},
				{
					"sampler":10,
					"target":{
						"node":3,
						"path":"rotation"
					}
				},
				{
					"sampler":11,
					"target":{
						"node":3,
						"path":"scale"
					}
				},
				{
					"sampler":12,
					"target":{
						"node":4,
						"path":"translation"
					}
				},
				{
					"sampler":13,
					"target":{
						"node":4,
						"path":"rotation"
					}
				},
				{
					"sampler":14,
					"target":{
						"node":4,
						"path":"scale"
					}
				},
				{
					"sampler":15,
					"target":{
						"node":5,
						"path":"translation"
					}
				},
				{
					"sampler":16,
					"target":{
						"node":5,
						"path":"rotation"
					}
				},
				{
					"sampler":17,
					"target":{
						"node":5,
						"path":"scale"
					}
				},
				{
					"sampler":18,
					"target":{
						"node":6,
						"path":"translation"
					}
				},
				{
					"sampler":19,
					"target":{
						"node":6,
						"path":"rotation"
					}
				},
				{
					"sampler":20,
					"target":{
						"node":6,
						"path":"scale"
					}
				},
				{
					"sampler":21,
					"target":{
						"node":7,
						"path":"translation"
					}
				},
				{
					"sampler":22,
					"target":{
						"node":7,
						"path":"rotation"
					}
				},
				{
					"sampler":23,
					"target":{
						"node":7,
						"path":"scale"
					}
				},
				{
					"sampler":24,
					"target":{
						"node":8,
						"path":"translation"
					}
				},
				{
					"sampler":25,
					"target":{
						"node":8,
						"path":"rotation"
					}
				},
				{
					"sampler":26,
					"target":{
						"node":8,
						"path":"scale"
					}
				},
				{
					"sampler":27,
					"target":{
						"node":9,
						"path":"translation"
					}
				},
				{
					"sampler":28,
					"target":{
						"node":9,
						"path":"rotation"
					}
				},
				{
					"sampler":29,
					"target":{
						"node":9,
						"path":"scale"
					}
				},
				{
					"sampler":30,
					"target":{
						"node":10,
						"path":"translation"
					}
				},
				{
					"sampler":31,
					"target":{
						"node":10,
						"path":"rotation"
					}
				},
				{
					"sampler":32,
					"target":{
						"node":10,
						"path":"scale"
					}
				},
				{
					"sampler":33,
					"target":{
						"node":11,
						"path":"translation"
					}
				},
				{
					"sampler":34,
					"target":{
						"node":11,
						"path":"rotation"
					}
				},
				{
					"sampler":35,
					"target":{
						"node":11,
						"path":"scale"
					}
				},
				{
					"sampler":36,
					"target":{
						"node":12,
						"path":"translation"
					}
				},
				{
					"sampler":37,
					"target":{
						"node":12,
						"path":"rotation"
					}
				},
				{
					"sampler":38,
					"target":{
						"node":12,
						"path":"scale"
					}
				}
			],
			"name":"iris_dilate",
			"samplers":[
				{
					"input":7,
					"interpolation":"STEP",
					"output":8
				},
				{
					"input":7,
					"interpolation":"STEP",
					"output":9
				},
				{
					"input":7,
					"interpolation":"STEP",
					"output":10
				},
				{
					"input":7,
					"interpolation":"STEP",
					"output":11
				},
				{
					"input":12,
					"interpolation":"LINEAR",
					"output":13
				},
				{
					"input":7,
					"interpolation":"STEP",
					"output":10
				},
				{
					"input":7,
					"interpolation":"STEP",
					"output":14
				},
				{
					"input":12,
					"interpolation":"LINEAR",
					"output":15
				},
				{
					"input":7,
					"interpolation":"STEP",
					"output":16
				},
				{
					"input":7,
					"interpolation":"STEP",
					"output":17
				},
				{
					"input":12,
					"interpolation":"LINEAR",
					"output":18
				},
				{
					"input":7,
					"interpolation":"STEP",
					"output":19
				},
				{
					"input":7,
					"interpolation":"STEP",
					"output":20
				},
				{
					"input":12,
					"interpolation":"LINEAR",
					"output":21
				},
				{
					"input":7,
					"interpolation":"STEP",
					"output":10
				},
				{
					"input":7,
					"interpolation":"STEP",
					"output":22
				},
				{
					"input":12,
					"interpolation":"LINEAR",
					"output":23
				},
				{
					"input":7,
					"interpolation":"STEP",
					"output":16
				},
				{
					"input":7,
					"interpolation":"STEP",
					"output":24
				},
				{
					"input":12,
					"interpolation":"LINEAR",
					"output":25
				},
				{
					"input":7,
					"interpolation":"STEP",
					"output":16
				},
				{
					"input":7,
					"interpolation":"STEP",
					"output":26
				},
				{
					"input":12,
					"interpolation":"LINEAR",
					"output":27
				},
				{
					"input":7,
					"interpolation":"STEP",
					"output":10
				},
				{
					"input":7,
					"interpolation":"STEP",
					"output":28
				},
				{
					"input":12,
					"interpolation":"LINEAR",
					"output":29
				},
				{
					"input":7,
					"interpolation":"STEP",
					"output":16
				},
				{
					"input":7,
					"interpolation":"STEP",
					"output":30
				},
				{
					"input":12,
					"interpolation":"LINEAR",
					"output":31
				},
				{
					"input":7,
					"interpolation":"STEP",
					"output":10
				},
				{
					"input":7,
					"interpolation":"STEP",
					"output":32
				},
				{
					"input":12,
					"interpolation":"LINEAR",
					"output":33
				},
				{
					"input":7,
					"interpolation":"STEP",
					"output":10
				},
				{
					"input":7,
					"interpolation":"STEP",
					"output":34
				},
				{
					"input":12,
					"interpolation":"LINEAR",
					"output":35
				},
				{
					"input":7,
					"interpolation":"STEP",
					"output":36
				},
				{
					"input":7,
					"interpolation":"STEP",
					"output":37
				},
				{
					"input":12,
					"interpolation":"LINEAR",
					"output":38
				},
				{
					"input":7,
					"interpolation":"STEP",
					"output":16
				}
			]
		},
		{
			"channels":[
				{
					"sampler":0,
					"target":{
						"node":0,
						"path":"translation"
					}
				},
				{
					"sampler":1,
					"target":{
						"node":0,
						"path":"rotation"
					}
				},
				{
					"sampler":2,
					"target":{
						"node":0,
						"path":"scale"
					}
				},
				{
					"sampler":3,
					"target":{
						"node":1,
						"path":"translation"
					}
				},
				{
					"sampler":4,
					"target":{
						"node":1,
						"path":"rotation"
					}
				},
				{
					"sampler":5,
					"target":{
						"node":1,
						"path":"scale"
					}
				},
				{
					"sampler":6,
					"target":{
						"node":2,
						"path":"translation"
					}
				},
				{
					"sampler":7,
					"target":{
						"node":2,
						"path":"rotation"
					}
				},
				{
					"sampler":8,
					"target":{
						"node":2,
						"path":"scale"
					}
				},
				{
					"sampler":9,
					"target":{
						"node":3,
						"path":"translation"
					}
				},
				{
					"sampler":10,
					"target":{
						"node":3,
						"path":"rotation"
					}
				},
				{
					"sampler":11,
					"target":{
						"node":3,
						"path":"scale"
					}
				},
				{
					"sampler":12,
					"target":{
						"node":4,
						"path":"translation"
					}
				},
				{
					"sampler":13,
					"target":{
						"node":4,
						"path":"rotation"
					}
				},
				{
					"sampler":14,
					"target":{
						"node":4,
						"path":"scale"
					}
				},
				{
					"sampler":15,
					"target":{
						"node":5,
						"path":"translation"
					}
				},
				{
					"sampler":16,
					"target":{
						"node":5,
						"path":"rotation"
					}
				},
				{
					"sampler":17,
					"target":{
						"node":5,
						"path":"scale"
					}
				},
				{
					"sampler":18,
					"target":{
						"node":6,
						"path":"translation"
					}
				},
				{
					"sampler":19,
					"target":{
						"node":6,
						"path":"rotation"
					}
				},
				{
					"sampler":20,
					"target":{
						"node":6,
						"path":"scale"
					}
				},
				{
					"sampler":21,
					"target":{
						"node":7,
						"path":"translation"
					}
				},
				{
					"sampler":22,
					"target":{
						"node":7,
						"path":"rotation"
					}
				},
				{
					"sampler":23,
					"target":{
						"node":7,
						"path":"scale"
					}
				},
				{
					"sampler":24,
					"target":{
						"node":8,
						"path":"translation"
					}
				},
				{
					"sampler":25,
					"target":{
						"node":8,
						"path":"rotation"
					}
				},
				{
					"sampler":26,
					"target":{
						"node":8,
						"path":"scale"
					}
				},
				{
					"sampler":27,
					"target":{
						"node":9,
						"path":"translation"
					}
				},
				{
					"sampler":28,
					"target":{
						"node":9,
						"path":"rotation"
					}
				},
				{
					"sampler":29,
					"target":{
						"node":9,
						"path":"scale"
					}
				},
				{
					"sampler":30,
					"target":{
						"node":10,
						"path":"translation"
					}
				},
				{
					"sampler":31,
					"target":{
						"node":10,
						"path":"rotation"
					}
				},
				{
					"sampler":32,
					"target":{
						"node":10,
						"path":"scale"
					}
				},
				{
					"sampler":33,
					"target":{
						"node":11,
						"path":"translation"
					}
				},
				{
					"sampler":34,
					"target":{
						"node":11,
						"path":"rotation"
					}
				},
				{
					"sampler":35,
					"target":{
						"node":11,
						"path":"scale"
					}
				},
				{
					"sampler":36,
					"target":{
						"node":12,
						"path":"translation"
					}
				},
				{
					"sampler":37,
					"target":{
						"node":12,
						"path":"rotation"
					}
				},
				{
					"sampler":38,
					"target":{
						"node":12,
						"path":"scale"
					}
				}
			],
			"name":"iris_close",
			"samplers":[
				{
					"input":39,
					"interpolation":"STEP",
					"output":8
				},
				{
					"input":39,
					"interpolation":"STEP",
					"output":9
				},
				{
					"input":39,
					"interpolation":"STEP",
					"output":10
				},
				{
					"input":39,
					"interpolation":"STEP",
					"output":11
				},
				{
					"input":40,
					"interpolation":"LINEAR",
					"output":41
				},
				{
					"input":39,
					"interpolation":"STEP",
					"output":10
				},
				{
					"input":39,
					"interpolation":"STEP",
					"output":14
				},
				{
					"input":40,
					"interpolation":"LINEAR",
					"output":42
				},
				{
					"input":39,
					"interpolation":"STEP",
					"output":16
				},
				{
					"input":39,
					"interpolation":"STEP",
					"output":17
				},
				{
					"input":40,
					"interpolation":"LINEAR",
					"output":43
				},
				{
					"input":39,
					"interpolation":"STEP",
					"output":44
				},
				{
					"input":39,
					"interpolation":"STEP",
					"output":20
				},
				{
					"input":40,
					"interpolation":"LINEAR",
					"output":45
				},
				{
					"input":39,
					"interpolation":"STEP",
					"output":10
				},
				{
					"input":39,
					"interpolation":"STEP",
					"output":22
				},
				{
					"input":40,
					"interpolation":"LINEAR",
					"output":46
				},
				{
					"input":39,
					"interpolation":"STEP",
					"output":16
				},
				{
					"input":39,
					"interpolation":"STEP",
					"output":24
				},
				{
					"input":40,
					"interpolation":"LINEAR",
					"output":47
				},
				{
					"input":39,
					"interpolation":"STEP",
					"output":16
				},
				{
					"input":39,
					"interpolation":"STEP",
					"output":26
				},
				{
					"input":40,
					"interpolation":"LINEAR",
					"output":48
				},
				{
					"input":39,
					"interpolation":"STEP",
					"output":10
				},
				{
					"input":39,
					"interpolation":"STEP",
					"output":28
				},
				{
					"input":40,
					"interpolation":"LINEAR",
					"output":49
				},
				{
					"input":39,
					"interpolation":"STEP",
					"output":16
				},
				{
					"input":39,
					"interpolation":"STEP",
					"output":30
				},
				{
					"input":40,
					"interpolation":"LINEAR",
					"output":50
				},
				{
					"input":39,
					"interpolation":"STEP",
					"output":10
				},
				{
					"input":39,
					"interpolation":"STEP",
					"output":32
				},
				{
					"input":40,
					"interpolation":"LINEAR",
					"output":51
				},
				{
					"input":39,
					"interpolation":"STEP",
					"output":10
				},
				{
					"input":39,
					"interpolation":"STEP",
					"output":34
				},
				{
					"input":40,
					"interpolation":"LINEAR",
					"output":52
				},
				{
					"input":39,
					"interpolation":"STEP",
					"output":53
				},
				{
					"input":39,
					"interpolation":"STEP",
					"output":37
				},
				{
					"input":40,
					"interpolation":"LINEAR",
					"output":54
				},
				{
					"input":39,
					"interpolation":"STEP",
					"output":16
				}
			]
		}
	],
	"materials":[
		{
			"alphaMode":"MASK",
			"doubleSided":true,
			"name":"DoorIrisPoreTex",
			"pbrMetallicRoughness":{
				"baseColorTexture":{
					"index":0
				},
				"metallicFactor":0,
				"roughnessFactor":0.8999999761581421
			}
		}
	],
	"meshes":[
		{
			"name":"DoorIrisPore",
			"primitives":[
				{
					"attributes":{
						"POSITION":0,
						"NORMAL":1,
						"TEXCOORD_0":2,
						"JOINTS_0":3,
						"WEIGHTS_0":4
					},
					"indices":5,
					"material":0
				}
			]
		}
	],
	"textures":[
		{
			"sampler":0,
			"source":0
		}
	],
	"images":[
		{
			"mimeType":"image/png",
			"name":"DoorIrisPore_tex",
			"uri":"DoorIrisPore_tex.png"
		}
	],
	"skins":[
		{
			"inverseBindMatrices":6,
			"joints":[
				0,
				1,
				2,
				3,
				4,
				5,
				6,
				7,
				8,
				9,
				10,
				11,
				12
			],
			"name":"DoorIris_Armature"
		}
	],
	"accessors":[
		{
			"bufferView":0,
			"componentType":5126,
			"count":156,
			"max":[
				0.7699999809265137,
				2.2699999809265137,
				0.2070000022649765
			],
			"min":[
				-0.7699999809265137,
				-0.11999999731779099,
				-0.17000000178813934
			],
			"type":"VEC3"
		},
		{
			"bufferView":1,
			"componentType":5126,
			"count":156,
			"type":"VEC3"
		},
		{
			"bufferView":2,
			"componentType":5126,
			"count":156,
			"type":"VEC2"
		},
		{
			"bufferView":3,
			"componentType":5121,
			"count":156,
			"type":"VEC4"
		},
		{
			"bufferView":4,
			"componentType":5126,
			"count":156,
			"type":"VEC4"
		},
		{
			"bufferView":5,
			"componentType":5123,
			"count":234,
			"type":"SCALAR"
		},
		{
			"bufferView":6,
			"componentType":5126,
			"count":13,
			"type":"MAT4"
		},
		{
			"bufferView":7,
			"componentType":5126,
			"count":2,
			"max":[
				1.0833333333333333
			],
			"min":[
				0.041666666666666664
			],
			"type":"SCALAR"
		},
		{
			"bufferView":8,
			"componentType":5126,
			"count":2,
			"type":"VEC3"
		},
		{
			"bufferView":9,
			"componentType":5126,
			"count":2,
			"type":"VEC4"
		},
		{
			"bufferView":10,
			"componentType":5126,
			"count":2,
			"type":"VEC3"
		},
		{
			"bufferView":11,
			"componentType":5126,
			"count":2,
			"type":"VEC3"
		},
		{
			"bufferView":12,
			"componentType":5126,
			"count":26,
			"max":[
				1.0833333333333333
			],
			"min":[
				0.041666666666666664
			],
			"type":"SCALAR"
		},
		{
			"bufferView":13,
			"componentType":5126,
			"count":26,
			"type":"VEC4"
		},
		{
			"bufferView":14,
			"componentType":5126,
			"count":2,
			"type":"VEC3"
		},
		{
			"bufferView":15,
			"componentType":5126,
			"count":26,
			"type":"VEC4"
		},
		{
			"bufferView":16,
			"componentType":5126,
			"count":2,
			"type":"VEC3"
		},
		{
			"bufferView":17,
			"componentType":5126,
			"count":2,
			"type":"VEC3"
		},
		{
			"bufferView":18,
			"componentType":5126,
			"count":26,
			"type":"VEC4"
		},
		{
			"bufferView":19,
			"componentType":5126,
			"count":2,
			"type":"VEC3"
		},
		{
			"bufferView":20,
			"componentType":5126,
			"count":2,
			"type":"VEC3"
		},
		{
			"bufferView":21,
			"componentType":5126,
			"count":26,
			"type":"VEC4"
		},
		{
			"bufferView":22,
			"componentType":5126,
			"count":2,
			"type":"VEC3"
		},
		{
			"bufferView":23,
			"componentType":5126,
			"count":26,
			"type":"VEC4"
		},
		{
			"bufferView":24,
			"componentType":5126,
			"count":2,
			"type":"VEC3"
		},
		{
			"bufferView":25,
			"componentType":5126,
			"count":26,
			"type":"VEC4"
		},
		{
			"bufferView":26,
			"componentType":5126,
			"count":2,
			"type":"VEC3"
		},
		{
			"bufferView":27,
			"componentType":5126,
			"count":26,
			"type":"VEC4"
		},
		{
			"bufferView":28,
			"componentType":5126,
			"count":2,
			"type":"VEC3"
		},
		{
			"bufferView":29,
			"componentType":5126,
			"count":26,
			"type":"VEC4"
		},
		{
			"bufferView":30,
			"componentType":5126,
			"count":2,
			"type":"VEC3"
		},
		{
			"bufferView":31,
			"componentType":5126,
			"count":26,
			"type":"VEC4"
		},
		{
			"bufferView":32,
			"componentType":5126,
			"count":2,
			"type":"VEC3"
		},
		{
			"bufferView":33,
			"componentType":5126,
			"count":26,
			"type":"VEC4"
		},
		{
			"bufferView":34,
			"componentType":5126,
			"count":2,
			"type":"VEC3"
		},
		{
			"bufferView":35,
			"componentType":5126,
			"count":26,
			"type":"VEC4"
		},
		{
			"bufferView":36,
			"componentType":5126,
			"count":2,
			"type":"VEC3"
		},
		{
			"bufferView":37,
			"componentType":5126,
			"count":2,
			"type":"VEC3"
		},
		{
			"bufferView":38,
			"componentType":5126,
			"count":26,
			"type":"VEC4"
		},
		{
			"bufferView":39,
			"componentType":5126,
			"count":2,
			"max":[
				1.2916666666666667
			],
			"min":[
				0.041666666666666664
			],
			"type":"SCALAR"
		},
		{
			"bufferView":40,
			"componentType":5126,
			"count":31,
			"max":[
				1.2916666666666667
			],
			"min":[
				0.041666666666666664
			],
			"type":"SCALAR"
		},
		{
			"bufferView":41,
			"componentType":5126,
			"count":31,
			"type":"VEC4"
		},
		{
			"bufferView":42,
			"componentType":5126,
			"count":31,
			"type":"VEC4"
		},
		{
			"bufferView":43,
			"componentType":5126,
			"count":31,
			"type":"VEC4"
		},
		{
			"bufferView":44,
			"componentType":5126,
			"count":2,
			"type":"VEC3"
		},
		{
			"bufferView":45,
			"componentType":5126,
			"count":31,
			"type":"VEC4"
		},
		{
			"bufferView":46,
			"componentType":5126,
			"count":31,
			"type":"VEC4"
		},
		{
			"bufferView":47,
			"componentType":5126,
			"count":31,
			"type":"VEC4"
		},
		{
			"bufferView":48,
			"componentType":5126,
			"count":31,
			"type":"VEC4"
		},
		{
			"bufferView":49,
			"componentType":5126,
			"count":31,
			"type":"VEC4"
		},
		{
			"bufferView":50,
			"componentType":5126,
			"count":31,
			"type":"VEC4"
		},
		{
			"bufferView":51,
			"componentType":5126,
			"count":31,
			"type":"VEC4"
		},
		{
			"bufferView":52,
			"componentType":5126,
			"count":31,
			"type":"VEC4"
		},
		{
			"bufferView":53,
			"componentType":5126,
			"count":2,
			"type":"VEC3"
		},
		{
			"bufferView":54,
			"componentType":5126,
			"count":31,
			"type":"VEC4"
		}
	],
	"bufferViews":[
		{
			"buffer":0,
			"byteLength":1872,
			"byteOffset":0,
			"target":34962
		},
		{
			"buffer":0,
			"byteLength":1872,
			"byteOffset":1872,
			"target":34962
		},
		{
			"buffer":0,
			"byteLength":1248,
			"byteOffset":3744,
			"target":34962
		},
		{
			"buffer":0,
			"byteLength":624,
			"byteOffset":4992,
			"target":34962
		},
		{
			"buffer":0,
			"byteLength":2496,
			"byteOffset":5616,
			"target":34962
		},
		{
			"buffer":0,
			"byteLength":468,
			"byteOffset":8112,
			"target":34963
		},
		{
			"buffer":0,
			"byteLength":832,
			"byteOffset":8580
		},
		{
			"buffer":0,
			"byteLength":8,
			"byteOffset":9412
		},
		{
			"buffer":0,
			"byteLength":24,
			"byteOffset":9420
		},
		{
			"buffer":0,
			"byteLength":32,
			"byteOffset":9444
		},
		{
			"buffer":0,
			"byteLength":24,
			"byteOffset":9476
		},
		{
			"buffer":0,
			"byteLength":24,
			"byteOffset":9500
		},
		{
			"buffer":0,
			"byteLength":104,
			"byteOffset":9524
		},
		{
			"buffer":0,
			"byteLength":416,
			"byteOffset":9628
		},
		{
			"buffer":0,
			"byteLength":24,
			"byteOffset":10044
		},
		{
			"buffer":0,
			"byteLength":416,
			"byteOffset":10068
		},
		{
			"buffer":0,
			"byteLength":24,
			"byteOffset":10484
		},
		{
			"buffer":0,
			"byteLength":24,
			"byteOffset":10508
		},
		{
			"buffer":0,
			"byteLength":416,
			"byteOffset":10532
		},
		{
			"buffer":0,
			"byteLength":24,
			"byteOffset":10948
		},
		{
			"buffer":0,
			"byteLength":24,
			"byteOffset":10972
		},
		{
			"buffer":0,
			"byteLength":416,
			"byteOffset":10996
		},
		{
			"buffer":0,
			"byteLength":24,
			"byteOffset":11412
		},
		{
			"buffer":0,
			"byteLength":416,
			"byteOffset":11436
		},
		{
			"buffer":0,
			"byteLength":24,
			"byteOffset":11852
		},
		{
			"buffer":0,
			"byteLength":416,
			"byteOffset":11876
		},
		{
			"buffer":0,
			"byteLength":24,
			"byteOffset":12292
		},
		{
			"buffer":0,
			"byteLength":416,
			"byteOffset":12316
		},
		{
			"buffer":0,
			"byteLength":24,
			"byteOffset":12732
		},
		{
			"buffer":0,
			"byteLength":416,
			"byteOffset":12756
		},
		{
			"buffer":0,
			"byteLength":24,
			"byteOffset":13172
		},
		{
			"buffer":0,
			"byteLength":416,
			"byteOffset":13196
		},
		{
			"buffer":0,
			"byteLength":24,
			"byteOffset":13612
		},
		{
			"buffer":0,
			"byteLength":416,
			"byteOffset":13636
		},
		{
			"buffer":0,
			"byteLength":24,
			"byteOffset":14052
		},
		{
			"buffer":0,
			"byteLength":416,
			"byteOffset":14076
		},
		{
			"buffer":0,
			"byteLength":24,
			"byteOffset":14492
		},
		{
			"buffer":0,
			"byteLength":24,
			"byteOffset":14516
		},
		{
			"buffer":0,
			"byteLength":416,
			"byteOffset":14540
		},
		{
			"buffer":0,
			"byteLength":8,
			"byteOffset":14956
		},
		{
			"buffer":0,
			"byteLength":124,
			"byteOffset":14964
		},
		{
			"buffer":0,
			"byteLength":496,
			"byteOffset":15088
		},
		{
			"buffer":0,
			"byteLength":496,
			"byteOffset":15584
		},
		{
			"buffer":0,
			"byteLength":496,
			"byteOffset":16080
		},
		{
			"buffer":0,
			"byteLength":24,
			"byteOffset":16576
		},
		{
			"buffer":0,
			"byteLength":496,
			"byteOffset":16600
		},
		{
			"buffer":0,
			"byteLength":496,
			"byteOffset":17096
		},
		{
			"buffer":0,
			"byteLength":496,
			"byteOffset":17592
		},
		{
			"buffer":0,
			"byteLength":496,
			"byteOffset":18088
		},
		{
			"buffer":0,
			"byteLength":496,
			"byteOffset":18584
		},
		{
			"buffer":0,
			"byteLength":496,
			"byteOffset":19080
		},
		{
			"buffer":0,
			"byteLength":496,
			"byteOffset":19576
		},
		{
			"buffer":0,
			"byteLength":496,
			"byteOffset":20072
		},
		{
			"buffer":0,
			"byteLength":24,
			"byteOffset":20568
		},
		{
			"buffer":0,
			"byteLength":496,
			"byteOffset":20592
		}
	],
	"samplers":[
		{
			"magFilter":9728,
			"minFilter":9984
		}
	],
	"buffers":[
		{
			"byteLength":21088,
			"uri":"door_iris_pore.bin"
		}
	]
}
