{
	"asset":{
		"generator":"Khronos glTF Blender I/O v5.1.19",
		"version":"2.0"
	},
	"extensionsUsed":[
		"KHR_materials_emissive_strength"
	],
	"scene":0,
	"scenes":[
		{
			"name":"Scene",
			"nodes":[
				3
			]
		}
	],
	"nodes":[
		{
			"name":"frame_0"
		},
		{
			"name":"toll_0",
			"translation":[
				0,
				0.8610000014305115,
				0
			]
		},
		{
			"mesh":0,
			"name":"DoorTollGate",
			"skin":0
		},
		{
			"children":[
				2,
				0,
				1
			],
			"name":"DoorToll_Armature"
		}
	],
	"animations":[
		{
			"channels":[
				{
					"sampler":0,
					"target":{
						"node":0,
						"path":"translation"
					}
				},
				{
					"sampler":1,
					"target":{
						"node":0,
						"path":"rotation"
					}
				},
				{
					"sampler":2,
					"target":{
						"node":0,
						"path":"scale"
					}
				},
				{
					"sampler":3,
					"target":{
						"node":1,
						"path":"translation"
					}
				},
				{
					"sampler":4,
					"target":{
						"node":1,
						"path":"rotation"
					}
				},
				{
					"sampler":5,
					"target":{
						"node":1,
						"path":"scale"
					}
				}
			],
			"name":"toll_admit",
			"samplers":[
				{
					"input":7,
					"interpolation":"STEP",
					"output":8
				},
				{
					"input":7,
					"interpolation":"STEP",
					"output":9
				},
				{
					"input":7,
					"interpolation":"STEP",
					"output":10
				},
				{
					"input":7,
					"interpolation":"STEP",
					"output":11
				},
				{
					"input":12,
					"interpolation":"LINEAR",
					"output":13
				},
				{
					"input":7,
					"interpolation":"STEP",
					"output":10
				}
			]
		}
	],
	"materials":[
		{
			"alphaMode":"MASK",
			"doubleSided":true,
			"emissiveFactor":[
				1,
				1,
				1
			],
			"emissiveTexture":{
				"index":0
			},
			"extensions":{
				"KHR_materials_emissive_strength":{
					"emissiveStrength":2.4000000953674316
				}
			},
			"name":"DoorTollGateTex",
			"pbrMetallicRoughness":{
				"baseColorTexture":{
					"index":1
				},
				"metallicFactor":0,
				"roughnessFactor":0.8999999761581421
			}
		}
	],
	"meshes":[
		{
			"name":"DoorTollGate",
			"primitives":[
				{
					"attributes":{
						"POSITION":0,
						"NORMAL":1,
						"TEXCOORD_0":2,
						"JOINTS_0":3,
						"WEIGHTS_0":4
					},
					"indices":5,
					"material":0
				}
			]
		}
	],
	"textures":[
		{
			"sampler":0,
			"source":0
		},
		{
			"sampler":0,
			"source":1
		}
	],
	"images":[
		{
			"mimeType":"image/png",
			"name":"DoorTollGate_emissive",
			"uri":"DoorTollGate_emissive.png"
		},
		{
			"mimeType":"image/png",
			"name":"DoorTollGate_tex",
			"uri":"DoorTollGate_tex.png"
		}
	],
	"skins":[
		{
			"inverseBindMatrices":6,
			"joints":[
				0,
				1
			],
			"name":"DoorToll_Armature"
		}
	],
	"accessors":[
		{
			"bufferView":0,
			"componentType":5126,
			"count":274,
			"max":[
				0.7699999809265137,
				2.2699999809265137,
				0.39505115151405334
			],
			"min":[
				-0.7699999809265137,
				-0.11999999731779099,
				-0.3923773765563965
			],
			"type":"VEC3"
		},
		{
			"bufferView":1,
			"componentType":5126,
			"count":274,
			"type":"VEC3"
		},
		{
			"bufferView":2,
			"componentType":5126,
			"count":274,
			"type":"VEC2"
		},
		{
			"bufferView":3,
			"componentType":5121,
			"count":274,
			"type":"VEC4"
		},
		{
			"bufferView":4,
			"componentType":5126,
			"count":274,
			"type":"VEC4"
		},
		{
			"bufferView":5,
			"componentType":5123,
			"count":432,
			"type":"SCALAR"
		},
		{
			"bufferView":6,
			"componentType":5126,
			"count":2,
			"type":"MAT4"
		},
		{
			"bufferView":7,
			"componentType":5126,
			"count":2,
			"max":[
				1.2083333333333333
			],
			"min":[
				0.041666666666666664
			],
			"type":"SCALAR"
		},
		{
			"bufferView":8,
			"componentType":5126,
			"count":2,
			"type":"VEC3"
		},
		{
			"bufferView":9,
			"componentType":5126,
			"count":2,
			"type":"VEC4"
		},
		{
			"bufferView":10,
			"componentType":5126,
			"count":2,
			"type":"VEC3"
		},
		{
			"bufferView":11,
			"componentType":5126,
			"count":2,
			"type":"VEC3"
		},
		{
			"bufferView":12,
			"componentType":5126,
			"count":29,
			"max":[
				1.2083333333333333
			],
			"min":[
				0.041666666666666664
			],
			"type":"SCALAR"
		},
		{
			"bufferView":13,
			"componentType":5126,
			"count":29,
			"type":"VEC4"
		}
	],
	"bufferViews":[
		{
			"buffer":0,
			"byteLength":3288,
			"byteOffset":0,
			"target":34962
		},
		{
			"buffer":0,
			"byteLength":3288,
			"byteOffset":3288,
			"target":34962
		},
		{
			"buffer":0,
			"byteLength":2192,
			"byteOffset":6576,
			"target":34962
		},
		{
			"buffer":0,
			"byteLength":1096,
			"byteOffset":8768,
			"target":34962
		},
		{
			"buffer":0,
			"byteLength":4384,
			"byteOffset":9864,
			"target":34962
		},
		{
			"buffer":0,
			"byteLength":864,
			"byteOffset":14248,
			"target":34963
		},
		{
			"buffer":0,
			"byteLength":128,
			"byteOffset":15112
		},
		{
			"buffer":0,
			"byteLength":8,
			"byteOffset":15240
		},
		{
			"buffer":0,
			"byteLength":24,
			"byteOffset":15248
		},
		{
			"buffer":0,
			"byteLength":32,
			"byteOffset":15272
		},
		{
			"buffer":0,
			"byteLength":24,
			"byteOffset":15304
		},
		{
			"buffer":0,
			"byteLength":24,
			"byteOffset":15328
		},
		{
			"buffer":0,
			"byteLength":116,
			"byteOffset":15352
		},
		{
			"buffer":0,
			"byteLength":464,
			"byteOffset":15468
		}
	],
	"samplers":[
		{
			"magFilter":9728,
			"minFilter":9984
		}
	],
	"buffers":[
		{
			"byteLength":15932,
			"uri":"door_toll_gate.bin"
		}
	]
}
