{
	"asset":{
		"generator":"Khronos glTF Blender I/O v5.1.19",
		"version":"2.0"
	},
	"scene":0,
	"scenes":[
		{
			"name":"Scene",
			"nodes":[
				3
			]
		}
	],
	"nodes":[
		{
			"name":"frame_0"
		},
		{
			"name":"bulk_0",
			"rotation":[
				0,
				0.7071067690849304,
				0.7071067690849304,
				0
			],
			"translation":[
				0,
				1.024999976158142,
				0
			]
		},
		{
			"mesh":0,
			"name":"DoorBlastBulkhead",
			"skin":0
		},
		{
			"children":[
				2,
				0,
				1
			],
			"name":"DoorBulk_Armature"
		}
	],
	"animations":[
		{
			"channels":[
				{
					"sampler":0,
					"target":{
						"node":0,
						"path":"translation"
					}
				},
				{
					"sampler":1,
					"target":{
						"node":0,
						"path":"rotation"
					}
				},
				{
					"sampler":2,
					"target":{
						"node":0,
						"path":"scale"
					}
				},
				{
					"sampler":3,
					"target":{
						"node":1,
						"path":"translation"
					}
				},
				{
					"sampler":4,
					"target":{
						"node":1,
						"path":"rotation"
					}
				},
				{
					"sampler":5,
					"target":{
						"node":1,
						"path":"scale"
					}
				}
			],
			"name":"bulk_unseal",
			"samplers":[
				{
					"input":7,
					"interpolation":"STEP",
					"output":8
				},
				{
					"input":7,
					"interpolation":"STEP",
					"output":9
				},
				{
					"input":7,
					"interpolation":"STEP",
					"output":10
				},
				{
					"input":7,
					"interpolation":"STEP",
					"output":11
				},
				{
					"input":12,
					"interpolation":"LINEAR",
					"output":13
				},
				{
					"input":7,
					"interpolation":"STEP",
					"output":10
				}
			]
		},
		{
			"channels":[
				{
					"sampler":0,
					"target":{
						"node":0,
						"path":"translation"
					}
				},
				{
					"sampler":1,
					"target":{
						"node":0,
						"path":"rotation"
					}
				},
				{
					"sampler":2,
					"target":{
						"node":0,
						"path":"scale"
					}
				},
				{
					"sampler":3,
					"target":{
						"node":1,
						"path":"translation"
					}
				},
				{
					"sampler":4,
					"target":{
						"node":1,
						"path":"rotation"
					}
				},
				{
					"sampler":5,
					"target":{
						"node":1,
						"path":"scale"
					}
				}
			],
			"name":"bulk_seal",
			"samplers":[
				{
					"input":14,
					"interpolation":"STEP",
					"output":8
				},
				{
					"input":14,
					"interpolation":"STEP",
					"output":9
				},
				{
					"input":14,
					"interpolation":"STEP",
					"output":10
				},
				{
					"input":14,
					"interpolation":"STEP",
					"output":11
				},
				{
					"input":15,
					"interpolation":"LINEAR",
					"output":16
				},
				{
					"input":14,
					"interpolation":"STEP",
					"output":10
				}
			]
		}
	],
	"materials":[
		{
			"alphaMode":"MASK",
			"doubleSided":true,
			"name":"DoorBlastBulkheadTex",
			"pbrMetallicRoughness":{
				"baseColorTexture":{
					"index":0
				},
				"metallicFactor":0,
				"roughnessFactor":0.8999999761581421
			}
		}
	],
	"meshes":[
		{
			"name":"DoorBlastBulkhead",
			"primitives":[
				{
					"attributes":{
						"POSITION":0,
						"NORMAL":1,
						"TEXCOORD_0":2,
						"JOINTS_0":3,
						"WEIGHTS_0":4
					},
					"indices":5,
					"material":0
				}
			]
		}
	],
	"textures":[
		{
			"sampler":0,
			"source":0
		}
	],
	"images":[
		{
			"mimeType":"image/png",
			"name":"DoorBlastBulkhead_tex",
			"uri":"DoorBlastBulkhead_tex.png"
		}
	],
	"skins":[
		{
			"inverseBindMatrices":6,
			"joints":[
				0,
				1
			],
			"name":"DoorBulk_Armature"
		}
	],
	"accessors":[
		{
			"bufferView":0,
			"componentType":5126,
			"count":428,
			"max":[
				0.7699999809265137,
				2.2699999809265137,
				0.17000000178813934
			],
			"min":[
				-0.7699999809265137,
				-0.11999999731779099,
				-0.17000000178813934
			],
			"type":"VEC3"
		},
		{
			"bufferView":1,
			"componentType":5126,
			"count":428,
			"type":"VEC3"
		},
		{
			"bufferView":2,
			"componentType":5126,
			"count":428,
			"type":"VEC2"
		},
		{
			"bufferView":3,
			"componentType":5121,
			"count":428,
			"type":"VEC4"
		},
		{
			"bufferView":4,
			"componentType":5126,
			"count":428,
			"type":"VEC4"
		},
		{
			"bufferView":5,
			"componentType":5123,
			"count":732,
			"type":"SCALAR"
		},
		{
			"bufferView":6,
			"componentType":5126,
			"count":2,
			"type":"MAT4"
		},
		{
			"bufferView":7,
			"componentType":5126,
			"count":2,
			"max":[
				2
			],
			"min":[
				0.041666666666666664
			],
			"type":"SCALAR"
		},
		{
			"bufferView":8,
			"componentType":5126,
			"count":2,
			"type":"VEC3"
		},
		{
			"bufferView":9,
			"componentType":5126,
			"count":2,
			"type":"VEC4"
		},
		{
			"bufferView":10,
			"componentType":5126,
			"count":2,
			"type":"VEC3"
		},
		{
			"bufferView":11,
			"componentType":5126,
			"count":2,
			"type":"VEC3"
		},
		{
			"bufferView":12,
			"componentType":5126,
			"count":48,
			"max":[
				2
			],
			"min":[
				0.041666666666666664
			],
			"type":"SCALAR"
		},
		{
			"bufferView":13,
			"componentType":5126,
			"count":48,
			"type":"VEC4"
		},
		{
			"bufferView":14,
			"componentType":5126,
			"count":2,
			"max":[
				2.2083333333333335
			],
			"min":[
				0.041666666666666664
			],
			"type":"SCALAR"
		},
		{
			"bufferView":15,
			"componentType":5126,
			"count":53,
			"max":[
				2.2083333333333335
			],
			"min":[
				0.041666666666666664
			],
			"type":"SCALAR"
		},
		{
			"bufferView":16,
			"componentType":5126,
			"count":53,
			"type":"VEC4"
		}
	],
	"bufferViews":[
		{
			"buffer":0,
			"byteLength":5136,
			"byteOffset":0,
			"target":34962
		},
		{
			"buffer":0,
			"byteLength":5136,
			"byteOffset":5136,
			"target":34962
		},
		{
			"buffer":0,
			"byteLength":3424,
			"byteOffset":10272,
			"target":34962
		},
		{
			"buffer":0,
			"byteLength":1712,
			"byteOffset":13696,
			"target":34962
		},
		{
			"buffer":0,
			"byteLength":6848,
			"byteOffset":15408,
			"target":34962
		},
		{
			"buffer":0,
			"byteLength":1464,
			"byteOffset":22256,
			"target":34963
		},
		{
			"buffer":0,
			"byteLength":128,
			"byteOffset":23720
		},
		{
			"buffer":0,
			"byteLength":8,
			"byteOffset":23848
		},
		{
			"buffer":0,
			"byteLength":24,
			"byteOffset":23856
		},
		{
			"buffer":0,
			"byteLength":32,
			"byteOffset":23880
		},
		{
			"buffer":0,
			"byteLength":24,
			"byteOffset":23912
		},
		{
			"buffer":0,
			"byteLength":24,
			"byteOffset":23936
		},
		{
			"buffer":0,
			"byteLength":192,
			"byteOffset":23960
		},
		{
			"buffer":0,
			"byteLength":768,
			"byteOffset":24152
		},
		{
			"buffer":0,
			"byteLength":8,
			"byteOffset":24920
		},
		{
			"buffer":0,
			"byteLength":212,
			"byteOffset":24928
		},
		{
			"buffer":0,
			"byteLength":848,
			"byteOffset":25140
		}
	],
	"samplers":[
		{
			"magFilter":9728,
			"minFilter":9984
		}
	],
	"buffers":[
		{
			"byteLength":25988,
			"uri":"door_blast_bulkhead.bin"
		}
	]
}
