{
	"asset":{
		"generator":"Khronos glTF Blender I/O v5.1.19",
		"version":"2.0"
	},
	"extensionsUsed":[
		"KHR_materials_emissive_strength"
	],
	"scene":0,
	"scenes":[
		{
			"name":"Scene",
			"nodes":[
				3
			]
		}
	],
	"nodes":[
		{
			"name":"frame_0"
		},
		{
			"name":"slab_0"
		},
		{
			"mesh":0,
			"name":"DoorSlab",
			"skin":0
		},
		{
			"children":[
				2,
				0,
				1
			],
			"name":"DoorSlab_Armature"
		}
	],
	"animations":[
		{
			"channels":[
				{
					"sampler":0,
					"target":{
						"node":0,
						"path":"translation"
					}
				},
				{
					"sampler":1,
					"target":{
						"node":0,
						"path":"rotation"
					}
				},
				{
					"sampler":2,
					"target":{
						"node":0,
						"path":"scale"
					}
				},
				{
					"sampler":3,
					"target":{
						"node":1,
						"path":"translation"
					}
				},
				{
					"sampler":4,
					"target":{
						"node":1,
						"path":"rotation"
					}
				},
				{
					"sampler":5,
					"target":{
						"node":1,
						"path":"scale"
					}
				}
			],
			"name":"slab_cycle_open",
			"samplers":[
				{
					"input":7,
					"interpolation":"STEP",
					"output":8
				},
				{
					"input":7,
					"interpolation":"STEP",
					"output":9
				},
				{
					"input":7,
					"interpolation":"STEP",
					"output":10
				},
				{
					"input":7,
					"interpolation":"STEP",
					"output":8
				},
				{
					"input":7,
					"interpolation":"STEP",
					"output":9
				},
				{
					"input":11,
					"interpolation":"LINEAR",
					"output":12
				}
			]
		},
		{
			"channels":[
				{
					"sampler":0,
					"target":{
						"node":0,
						"path":"translation"
					}
				},
				{
					"sampler":1,
					"target":{
						"node":0,
						"path":"rotation"
					}
				},
				{
					"sampler":2,
					"target":{
						"node":0,
						"path":"scale"
					}
				},
				{
					"sampler":3,
					"target":{
						"node":1,
						"path":"translation"
					}
				},
				{
					"sampler":4,
					"target":{
						"node":1,
						"path":"rotation"
					}
				},
				{
					"sampler":5,
					"target":{
						"node":1,
						"path":"scale"
					}
				}
			],
			"name":"slab_cycle_shut",
			"samplers":[
				{
					"input":13,
					"interpolation":"STEP",
					"output":8
				},
				{
					"input":13,
					"interpolation":"STEP",
					"output":9
				},
				{
					"input":13,
					"interpolation":"STEP",
					"output":10
				},
				{
					"input":13,
					"interpolation":"STEP",
					"output":8
				},
				{
					"input":13,
					"interpolation":"STEP",
					"output":9
				},
				{
					"input":14,
					"interpolation":"LINEAR",
					"output":15
				}
			]
		}
	],
	"materials":[
		{
			"alphaMode":"MASK",
			"doubleSided":true,
			"emissiveFactor":[
				1,
				1,
				1
			],
			"emissiveTexture":{
				"index":0
			},
			"extensions":{
				"KHR_materials_emissive_strength":{
					"emissiveStrength":2.4000000953674316
				}
			},
			"name":"DoorSlabTex",
			"pbrMetallicRoughness":{
				"baseColorTexture":{
					"index":1
				},
				"metallicFactor":0,
				"roughnessFactor":0.8999999761581421
			}
		}
	],
	"meshes":[
		{
			"name":"DoorSlab",
			"primitives":[
				{
					"attributes":{
						"POSITION":0,
						"NORMAL":1,
						"TEXCOORD_0":2,
						"JOINTS_0":3,
						"WEIGHTS_0":4
					},
					"indices":5,
					"material":0
				}
			]
		}
	],
	"textures":[
		{
			"sampler":0,
			"source":0
		},
		{
			"sampler":0,
			"source":1
		}
	],
	"images":[
		{
			"mimeType":"image/png",
			"name":"DoorSlab_emissive",
			"uri":"DoorSlab_emissive.png"
		},
		{
			"mimeType":"image/png",
			"name":"DoorSlab_tex",
			"uri":"DoorSlab_tex.png"
		}
	],
	"skins":[
		{
			"inverseBindMatrices":6,
			"joints":[
				0,
				1
			],
			"name":"DoorSlab_Armature"
		}
	],
	"accessors":[
		{
			"bufferView":0,
			"componentType":5126,
			"count":164,
			"max":[
				0.7699999809265137,
				2.2699999809265137,
				0.17000000178813934
			],
			"min":[
				-0.7699999809265137,
				-0.11999999731779099,
				-0.17000000178813934
			],
			"type":"VEC3"
		},
		{
			"bufferView":1,
			"componentType":5126,
			"count":164,
			"type":"VEC3"
		},
		{
			"bufferView":2,
			"componentType":5126,
			"count":164,
			"type":"VEC2"
		},
		{
			"bufferView":3,
			"componentType":5121,
			"count":164,
			"type":"VEC4"
		},
		{
			"bufferView":4,
			"componentType":5126,
			"count":164,
			"type":"VEC4"
		},
		{
			"bufferView":5,
			"componentType":5123,
			"count":246,
			"type":"SCALAR"
		},
		{
			"bufferView":6,
			"componentType":5126,
			"count":2,
			"type":"MAT4"
		},
		{
			"bufferView":7,
			"componentType":5126,
			"count":2,
			"max":[
				1.4166666666666667
			],
			"min":[
				0.041666666666666664
			],
			"type":"SCALAR"
		},
		{
			"bufferView":8,
			"componentType":5126,
			"count":2,
			"type":"VEC3"
		},
		{
			"bufferView":9,
			"componentType":5126,
			"count":2,
			"type":"VEC4"
		},
		{
			"bufferView":10,
			"componentType":5126,
			"count":2,
			"type":"VEC3"
		},
		{
			"bufferView":11,
			"componentType":5126,
			"count":34,
			"max":[
				1.4166666666666667
			],
			"min":[
				0.041666666666666664
			],
			"type":"SCALAR"
		},
		{
			"bufferView":12,
			"componentType":5126,
			"count":34,
			"type":"VEC3"
		},
		{
			"bufferView":13,
			"componentType":5126,
			"count":2,
			"max":[
				1.5833333333333333
			],
			"min":[
				0.041666666666666664
			],
			"type":"SCALAR"
		},
		{
			"bufferView":14,
			"componentType":5126,
			"count":38,
			"max":[
				1.5833333333333333
			],
			"min":[
				0.041666666666666664
			],
			"type":"SCALAR"
		},
		{
			"bufferView":15,
			"componentType":5126,
			"count":38,
			"type":"VEC3"
		}
	],
	"bufferViews":[
		{
			"buffer":0,
			"byteLength":1968,
			"byteOffset":0,
			"target":34962
		},
		{
			"buffer":0,
			"byteLength":1968,
			"byteOffset":1968,
			"target":34962
		},
		{
			"buffer":0,
			"byteLength":1312,
			"byteOffset":3936,
			"target":34962
		},
		{
			"buffer":0,
			"byteLength":656,
			"byteOffset":5248,
			"target":34962
		},
		{
			"buffer":0,
			"byteLength":2624,
			"byteOffset":5904,
			"target":34962
		},
		{
			"buffer":0,
			"byteLength":492,
			"byteOffset":8528,
			"target":34963
		},
		{
			"buffer":0,
			"byteLength":128,
			"byteOffset":9020
		},
		{
			"buffer":0,
			"byteLength":8,
			"byteOffset":9148
		},
		{
			"buffer":0,
			"byteLength":24,
			"byteOffset":9156
		},
		{
			"buffer":0,
			"byteLength":32,
			"byteOffset":9180
		},
		{
			"buffer":0,
			"byteLength":24,
			"byteOffset":9212
		},
		{
			"buffer":0,
			"byteLength":136,
			"byteOffset":9236
		},
		{
			"buffer":0,
			"byteLength":408,
			"byteOffset":9372
		},
		{
			"buffer":0,
			"byteLength":8,
			"byteOffset":9780
		},
		{
			"buffer":0,
			"byteLength":152,
			"byteOffset":9788
		},
		{
			"buffer":0,
			"byteLength":456,
			"byteOffset":9940
		}
	],
	"samplers":[
		{
			"magFilter":9728,
			"minFilter":9984
		}
	],
	"buffers":[
		{
			"byteLength":10396,
			"uri":"door_slab_door.bin"
		}
	]
}
