{
	"asset":{
		"generator":"Khronos glTF Blender I/O v5.1.19",
		"version":"2.0"
	},
	"extensionsUsed":[
		"KHR_materials_emissive_strength"
	],
	"scene":0,
	"scenes":[
		{
			"name":"Scene",
			"nodes":[
				0,
				1,
				2,
				3,
				4,
				5,
				6
			]
		}
	],
	"nodes":[
		{
			"mesh":0,
			"name":"ProjMembraneAwning"
		},
		{
			"mesh":1,
			"name":"ProjSlatCanopy",
			"translation":[
				2.5999999046325684,
				0,
				0
			]
		},
		{
			"mesh":2,
			"name":"ProjBalconySlab",
			"translation":[
				5.199999809265137,
				0,
				0
			]
		},
		{
			"mesh":3,
			"name":"ProjSignBracket",
			"translation":[
				7.800000190734863,
				0,
				0
			]
		},
		{
			"mesh":4,
			"name":"ProjNoStandLedge",
			"translation":[
				10.399999618530273,
				0,
				0
			]
		},
		{
			"mesh":5,
			"name":"ProjEntryHood",
			"translation":[
				13,
				0,
				0
			]
		},
		{
			"mesh":6,
			"name":"ProjTransitViaduct",
			"translation":[
				15.600000381469727,
				0,
				0
			]
		}
	],
	"materials":[
		{
			"alphaMode":"MASK",
			"doubleSided":true,
			"name":"ProjMembraneAwningTex",
			"pbrMetallicRoughness":{
				"baseColorTexture":{
					"index":0
				},
				"metallicFactor":0,
				"roughnessFactor":0.8999999761581421
			}
		},
		{
			"alphaMode":"MASK",
			"doubleSided":true,
			"name":"ProjSlatCanopyTex",
			"pbrMetallicRoughness":{
				"baseColorTexture":{
					"index":1
				},
				"metallicFactor":0,
				"roughnessFactor":0.8999999761581421
			}
		},
		{
			"alphaMode":"MASK",
			"doubleSided":true,
			"name":"ProjBalconySlabTex",
			"pbrMetallicRoughness":{
				"baseColorTexture":{
					"index":2
				},
				"metallicFactor":0,
				"roughnessFactor":0.8999999761581421
			}
		},
		{
			"alphaMode":"MASK",
			"doubleSided":true,
			"emissiveFactor":[
				1,
				1,
				1
			],
			"emissiveTexture":{
				"index":3
			},
			"extensions":{
				"KHR_materials_emissive_strength":{
					"emissiveStrength":2.5999999046325684
				}
			},
			"name":"ProjSignBracketTex",
			"pbrMetallicRoughness":{
				"baseColorTexture":{
					"index":4
				},
				"metallicFactor":0,
				"roughnessFactor":0.8999999761581421
			}
		},
		{
			"alphaMode":"MASK",
			"doubleSided":true,
			"name":"ProjNoStandLedgeTex",
			"pbrMetallicRoughness":{
				"baseColorTexture":{
					"index":5
				},
				"metallicFactor":0,
				"roughnessFactor":0.8999999761581421
			}
		},
		{
			"doubleSided":true,
			"name":"ProjEntryHoodTex",
			"pbrMetallicRoughness":{
				"baseColorTexture":{
					"index":6
				},
				"metallicFactor":0,
				"roughnessFactor":0.8999999761581421
			}
		},
		{
			"alphaMode":"MASK",
			"doubleSided":true,
			"emissiveFactor":[
				1,
				1,
				1
			],
			"emissiveTexture":{
				"index":7
			},
			"extensions":{
				"KHR_materials_emissive_strength":{
					"emissiveStrength":2
				}
			},
			"name":"ProjTransitViaductTex",
			"pbrMetallicRoughness":{
				"baseColorTexture":{
					"index":8
				},
				"metallicFactor":0,
				"roughnessFactor":0.8999999761581421
			}
		}
	],
	"meshes":[
		{
			"name":"ProjMembraneAwning",
			"primitives":[
				{
					"attributes":{
						"POSITION":0,
						"NORMAL":1,
						"TEXCOORD_0":2
					},
					"indices":3,
					"material":0
				}
			]
		},
		{
			"name":"ProjSlatCanopy",
			"primitives":[
				{
					"attributes":{
						"POSITION":4,
						"NORMAL":5,
						"TEXCOORD_0":6
					},
					"indices":7,
					"material":1
				}
			]
		},
		{
			"name":"ProjBalconySlab",
			"primitives":[
				{
					"attributes":{
						"POSITION":8,
						"NORMAL":9,
						"TEXCOORD_0":10
					},
					"indices":11,
					"material":2
				}
			]
		},
		{
			"name":"ProjSignBracket",
			"primitives":[
				{
					"attributes":{
						"POSITION":12,
						"NORMAL":13,
						"TEXCOORD_0":14
					},
					"indices":15,
					"material":3
				}
			]
		},
		{
			"name":"ProjNoStandLedge",
			"primitives":[
				{
					"attributes":{
						"POSITION":16,
						"NORMAL":17,
						"TEXCOORD_0":18
					},
					"indices":19,
					"material":4
				}
			]
		},
		{
			"name":"ProjEntryHood",
			"primitives":[
				{
					"attributes":{
						"POSITION":20,
						"NORMAL":21,
						"TEXCOORD_0":22
					},
					"indices":23,
					"material":5
				}
			]
		},
		{
			"name":"ProjTransitViaduct",
			"primitives":[
				{
					"attributes":{
						"POSITION":24,
						"NORMAL":25,
						"TEXCOORD_0":26
					},
					"indices":27,
					"material":6
				}
			]
		}
	],
	"textures":[
		{
			"sampler":0,
			"source":0
		},
		{
			"sampler":0,
			"source":1
		},
		{
			"sampler":0,
			"source":2
		},
		{
			"sampler":0,
			"source":3
		},
		{
			"sampler":0,
			"source":4
		},
		{
			"sampler":0,
			"source":5
		},
		{
			"sampler":0,
			"source":6
		},
		{
			"sampler":0,
			"source":7
		},
		{
			"sampler":0,
			"source":8
		}
	],
	"images":[
		{
			"mimeType":"image/png",
			"name":"ProjMembraneAwning_tex",
			"uri":"ProjMembraneAwning_tex.png"
		},
		{
			"mimeType":"image/png",
			"name":"ProjSlatCanopy_tex",
			"uri":"ProjSlatCanopy_tex.png"
		},
		{
			"mimeType":"image/png",
			"name":"ProjBalconySlab_tex",
			"uri":"ProjBalconySlab_tex.png"
		},
		{
			"mimeType":"image/png",
			"name":"ProjSignBracket_emissive",
			"uri":"ProjSignBracket_emissive.png"
		},
		{
			"mimeType":"image/png",
			"name":"ProjSignBracket_tex",
			"uri":"ProjSignBracket_tex.png"
		},
		{
			"mimeType":"image/png",
			"name":"ProjNoStandLedge_tex",
			"uri":"ProjNoStandLedge_tex.png"
		},
		{
			"mimeType":"image/png",
			"name":"ProjEntryHood_tex",
			"uri":"ProjEntryHood_tex.png"
		},
		{
			"mimeType":"image/png",
			"name":"ProjTransitViaduct_emissive",
			"uri":"ProjTransitViaduct_emissive.png"
		},
		{
			"mimeType":"image/png",
			"name":"ProjTransitViaduct_tex",
			"uri":"ProjTransitViaduct_tex.png"
		}
	],
	"accessors":[
		{
			"bufferView":0,
			"componentType":5126,
			"count":60,
			"max":[
				0.7699999809265137,
				0.4050000011920929,
				0.699999988079071
			],
			"min":[
				-0.7699999809265137,
				-0.3100000023841858,
				-0.05000000074505806
			],
			"type":"VEC3"
		},
		{
			"bufferView":1,
			"componentType":5126,
			"count":60,
			"type":"VEC3"
		},
		{
			"bufferView":2,
			"componentType":5126,
			"count":60,
			"type":"VEC2"
		},
		{
			"bufferView":3,
			"componentType":5123,
			"count":90,
			"type":"SCALAR"
		},
		{
			"bufferView":4,
			"componentType":5126,
			"count":84,
			"max":[
				0.7699999809265137,
				0.3449999988079071,
				0.6949999928474426
			],
			"min":[
				-0.7699999809265137,
				-0.3100000023841858,
				-0.05000000074505806
			],
			"type":"VEC3"
		},
		{
			"bufferView":5,
			"componentType":5126,
			"count":84,
			"type":"VEC3"
		},
		{
			"bufferView":6,
			"componentType":5126,
			"count":84,
			"type":"VEC2"
		},
		{
			"bufferView":7,
			"componentType":5123,
			"count":126,
			"type":"SCALAR"
		},
		{
			"bufferView":8,
			"componentType":5126,
			"count":132,
			"max":[
				0.8100000023841858,
				0.47999998927116394,
				0.7649999856948853
			],
			"min":[
				-0.8100000023841858,
				-0.4300000071525574,
				-0.019999999552965164
			],
			"type":"VEC3"
		},
		{
			"bufferView":9,
			"componentType":5126,
			"count":132,
			"type":"VEC3"
		},
		{
			"bufferView":10,
			"componentType":5126,
			"count":132,
			"type":"VEC2"
		},
		{
			"bufferView":11,
			"componentType":5123,
			"count":198,
			"type":"SCALAR"
		},
		{
			"bufferView":12,
			"componentType":5126,
			"count":104,
			"max":[
				0.6200000047683716,
				0.6100000143051147,
				0.06499999761581421
			],
			"min":[
				-0.3100000023841858,
				-0.2199999988079071,
				-0.02500000037252903
			],
			"type":"VEC3"
		},
		{
			"bufferView":13,
			"componentType":5126,
			"count":104,
			"type":"VEC3"
		},
		{
			"bufferView":14,
			"componentType":5126,
			"count":104,
			"type":"VEC2"
		},
		{
			"bufferView":15,
			"componentType":5123,
			"count":156,
			"type":"SCALAR"
		},
		{
			"bufferView":16,
			"componentType":5126,
			"count":172,
			"max":[
				0.46000000834465027,
				0.4350000023841858,
				0.5249999761581421
			],
			"min":[
				-0.46000000834465027,
				-0.3100000023841858,
				-0.03999999910593033
			],
			"type":"VEC3"
		},
		{
			"bufferView":17,
			"componentType":5126,
			"count":172,
			"type":"VEC3"
		},
		{
			"bufferView":18,
			"componentType":5126,
			"count":172,
			"type":"VEC2"
		},
		{
			"bufferView":19,
			"componentType":5123,
			"count":258,
			"type":"SCALAR"
		},
		{
			"bufferView":20,
			"componentType":5126,
			"count":504,
			"max":[
				0.5199999809265137,
				2.3295722007751465,
				0.4895721971988678
			],
			"min":[
				-0.5199999809265137,
				0,
				-0.10999999940395355
			],
			"type":"VEC3"
		},
		{
			"bufferView":21,
			"componentType":5126,
			"count":504,
			"type":"VEC3"
		},
		{
			"bufferView":22,
			"componentType":5126,
			"count":504,
			"type":"VEC2"
		},
		{
			"bufferView":23,
			"componentType":5123,
			"count":756,
			"type":"SCALAR"
		},
		{
			"bufferView":24,
			"componentType":5126,
			"count":184,
			"max":[
				1.1799999475479126,
				2.5350000858306885,
				0.3400000035762787
			],
			"min":[
				-1.1799999475479126,
				0,
				-0.3400000035762787
			],
			"type":"VEC3"
		},
		{
			"bufferView":25,
			"componentType":5126,
			"count":184,
			"type":"VEC3"
		},
		{
			"bufferView":26,
			"componentType":5126,
			"count":184,
			"type":"VEC2"
		},
		{
			"bufferView":27,
			"componentType":5123,
			"count":294,
			"type":"SCALAR"
		}
	],
	"bufferViews":[
		{
			"buffer":0,
			"byteLength":720,
			"byteOffset":0,
			"target":34962
		},
		{
			"buffer":0,
			"byteLength":720,
			"byteOffset":720,
			"target":34962
		},
		{
			"buffer":0,
			"byteLength":480,
			"byteOffset":1440,
			"target":34962
		},
		{
			"buffer":0,
			"byteLength":180,
			"byteOffset":1920,
			"target":34963
		},
		{
			"buffer":0,
			"byteLength":1008,
			"byteOffset":2100,
			"target":34962
		},
		{
			"buffer":0,
			"byteLength":1008,
			"byteOffset":3108,
			"target":34962
		},
		{
			"buffer":0,
			"byteLength":672,
			"byteOffset":4116,
			"target":34962
		},
		{
			"buffer":0,
			"byteLength":252,
			"byteOffset":4788,
			"target":34963
		},
		{
			"buffer":0,
			"byteLength":1584,
			"byteOffset":5040,
			"target":34962
		},
		{
			"buffer":0,
			"byteLength":1584,
			"byteOffset":6624,
			"target":34962
		},
		{
			"buffer":0,
			"byteLength":1056,
			"byteOffset":8208,
			"target":34962
		},
		{
			"buffer":0,
			"byteLength":396,
			"byteOffset":9264,
			"target":34963
		},
		{
			"buffer":0,
			"byteLength":1248,
			"byteOffset":9660,
			"target":34962
		},
		{
			"buffer":0,
			"byteLength":1248,
			"byteOffset":10908,
			"target":34962
		},
		{
			"buffer":0,
			"byteLength":832,
			"byteOffset":12156,
			"target":34962
		},
		{
			"buffer":0,
			"byteLength":312,
			"byteOffset":12988,
			"target":34963
		},
		{
			"buffer":0,
			"byteLength":2064,
			"byteOffset":13300,
			"target":34962
		},
		{
			"buffer":0,
			"byteLength":2064,
			"byteOffset":15364,
			"target":34962
		},
		{
			"buffer":0,
			"byteLength":1376,
			"byteOffset":17428,
			"target":34962
		},
		{
			"buffer":0,
			"byteLength":516,
			"byteOffset":18804,
			"target":34963
		},
		{
			"buffer":0,
			"byteLength":6048,
			"byteOffset":19320,
			"target":34962
		},
		{
			"buffer":0,
			"byteLength":6048,
			"byteOffset":25368,
			"target":34962
		},
		{
			"buffer":0,
			"byteLength":4032,
			"byteOffset":31416,
			"target":34962
		},
		{
			"buffer":0,
			"byteLength":1512,
			"byteOffset":35448,
			"target":34963
		},
		{
			"buffer":0,
			"byteLength":2208,
			"byteOffset":36960,
			"target":34962
		},
		{
			"buffer":0,
			"byteLength":2208,
			"byteOffset":39168,
			"target":34962
		},
		{
			"buffer":0,
			"byteLength":1472,
			"byteOffset":41376,
			"target":34962
		},
		{
			"buffer":0,
			"byteLength":588,
			"byteOffset":42848,
			"target":34963
		}
	],
	"samplers":[
		{
			"magFilter":9728,
			"minFilter":9984
		}
	],
	"buffers":[
		{
			"byteLength":43436,
			"uri":"projection_pieces.bin"
		}
	]
}
