{
	"asset":{
		"generator":"Khronos glTF Blender I/O v5.1.19",
		"version":"2.0"
	},
	"extensionsUsed":[
		"KHR_materials_emissive_strength"
	],
	"scene":0,
	"scenes":[
		{
			"name":"Scene",
			"nodes":[
				0,
				1,
				2,
				3
			]
		}
	],
	"nodes":[
		{
			"mesh":0,
			"name":"SignformWallPlaque"
		},
		{
			"mesh":1,
			"name":"SignformArchBanner",
			"translation":[
				2.5999999046325684,
				0,
				0
			]
		},
		{
			"mesh":2,
			"name":"SignformHangingOval",
			"translation":[
				5.199999809265137,
				0,
				0
			]
		},
		{
			"mesh":3,
			"name":"SignformMonument",
			"translation":[
				7.800000190734863,
				0,
				0
			]
		}
	],
	"materials":[
		{
			"alphaMode":"MASK",
			"doubleSided":true,
			"name":"SignformWallPlaqueTex",
			"pbrMetallicRoughness":{
				"baseColorTexture":{
					"index":0
				},
				"metallicFactor":0,
				"roughnessFactor":0.8999999761581421
			}
		},
		{
			"alphaMode":"MASK",
			"doubleSided":true,
			"emissiveFactor":[
				1,
				1,
				1
			],
			"emissiveTexture":{
				"index":1
			},
			"extensions":{
				"KHR_materials_emissive_strength":{
					"emissiveStrength":2.4000000953674316
				}
			},
			"name":"SignformArchBannerTex",
			"pbrMetallicRoughness":{
				"baseColorTexture":{
					"index":2
				},
				"metallicFactor":0,
				"roughnessFactor":0.8999999761581421
			}
		},
		{
			"alphaMode":"MASK",
			"doubleSided":true,
			"name":"SignformHangingOvalTex",
			"pbrMetallicRoughness":{
				"baseColorTexture":{
					"index":3
				},
				"metallicFactor":0,
				"roughnessFactor":0.8999999761581421
			}
		},
		{
			"alphaMode":"MASK",
			"doubleSided":true,
			"name":"SignformMonumentTex",
			"pbrMetallicRoughness":{
				"baseColorTexture":{
					"index":4
				},
				"metallicFactor":0,
				"roughnessFactor":0.8999999761581421
			}
		}
	],
	"meshes":[
		{
			"name":"SignformWallPlaque",
			"primitives":[
				{
					"attributes":{
						"POSITION":0,
						"NORMAL":1,
						"TEXCOORD_0":2
					},
					"indices":3,
					"material":0
				}
			]
		},
		{
			"name":"SignformArchBanner",
			"primitives":[
				{
					"attributes":{
						"POSITION":4,
						"NORMAL":5,
						"TEXCOORD_0":6
					},
					"indices":7,
					"material":1
				}
			]
		},
		{
			"name":"SignformHangingOval",
			"primitives":[
				{
					"attributes":{
						"POSITION":8,
						"NORMAL":9,
						"TEXCOORD_0":10
					},
					"indices":11,
					"material":2
				}
			]
		},
		{
			"name":"SignformMonument",
			"primitives":[
				{
					"attributes":{
						"POSITION":12,
						"NORMAL":13,
						"TEXCOORD_0":14
					},
					"indices":15,
					"material":3
				}
			]
		}
	],
	"textures":[
		{
			"sampler":0,
			"source":0
		},
		{
			"sampler":0,
			"source":1
		},
		{
			"sampler":0,
			"source":2
		},
		{
			"sampler":0,
			"source":3
		},
		{
			"sampler":0,
			"source":4
		}
	],
	"images":[
		{
			"mimeType":"image/png",
			"name":"SignformWallPlaque_tex",
			"uri":"SignformWallPlaque_tex.png"
		},
		{
			"mimeType":"image/png",
			"name":"SignformArchBanner_emissive",
			"uri":"SignformArchBanner_emissive.png"
		},
		{
			"mimeType":"image/png",
			"name":"SignformArchBanner_tex",
			"uri":"SignformArchBanner_tex.png"
		},
		{
			"mimeType":"image/png",
			"name":"SignformHangingOval_tex",
			"uri":"SignformHangingOval_tex.png"
		},
		{
			"mimeType":"image/png",
			"name":"SignformMonument_tex",
			"uri":"SignformMonument_tex.png"
		}
	],
	"accessors":[
		{
			"bufferView":0,
			"componentType":5126,
			"count":148,
			"max":[
				0.41999998688697815,
				0.5099999904632568,
				0.07199999690055847
			],
			"min":[
				-0.41999998688697815,
				-0.5099999904632568,
				-0.04500000178813934
			],
			"type":"VEC3"
		},
		{
			"bufferView":1,
			"componentType":5126,
			"count":148,
			"type":"VEC3"
		},
		{
			"bufferView":2,
			"componentType":5126,
			"count":148,
			"type":"VEC2"
		},
		{
			"bufferView":3,
			"componentType":5123,
			"count":222,
			"type":"SCALAR"
		},
		{
			"bufferView":4,
			"componentType":5126,
			"count":340,
			"max":[
				1,
				1.941475510597229,
				0.14000000059604645
			],
			"min":[
				-1,
				0,
				-0.14000000059604645
			],
			"type":"VEC3"
		},
		{
			"bufferView":5,
			"componentType":5126,
			"count":340,
			"type":"VEC3"
		},
		{
			"bufferView":6,
			"componentType":5126,
			"count":340,
			"type":"VEC2"
		},
		{
			"bufferView":7,
			"componentType":5123,
			"count":510,
			"type":"SCALAR"
		},
		{
			"bufferView":8,
			"componentType":5126,
			"count":148,
			"max":[
				0.550000011920929,
				1.0399999618530273,
				0.07999999821186066
			],
			"min":[
				-0.6000000238418579,
				0,
				-0.07999999821186066
			],
			"type":"VEC3"
		},
		{
			"bufferView":9,
			"componentType":5126,
			"count":148,
			"type":"VEC3"
		},
		{
			"bufferView":10,
			"componentType":5126,
			"count":148,
			"type":"VEC2"
		},
		{
			"bufferView":11,
			"componentType":5123,
			"count":222,
			"type":"SCALAR"
		},
		{
			"bufferView":12,
			"componentType":5126,
			"count":220,
			"max":[
				0.6100000143051147,
				1.784999966621399,
				0.3100000023841858
			],
			"min":[
				-0.6100000143051147,
				0,
				-0.07999999821186066
			],
			"type":"VEC3"
		},
		{
			"bufferView":13,
			"componentType":5126,
			"count":220,
			"type":"VEC3"
		},
		{
			"bufferView":14,
			"componentType":5126,
			"count":220,
			"type":"VEC2"
		},
		{
			"bufferView":15,
			"componentType":5123,
			"count":330,
			"type":"SCALAR"
		}
	],
	"bufferViews":[
		{
			"buffer":0,
			"byteLength":1776,
			"byteOffset":0,
			"target":34962
		},
		{
			"buffer":0,
			"byteLength":1776,
			"byteOffset":1776,
			"target":34962
		},
		{
			"buffer":0,
			"byteLength":1184,
			"byteOffset":3552,
			"target":34962
		},
		{
			"buffer":0,
			"byteLength":444,
			"byteOffset":4736,
			"target":34963
		},
		{
			"buffer":0,
			"byteLength":4080,
			"byteOffset":5180,
			"target":34962
		},
		{
			"buffer":0,
			"byteLength":4080,
			"byteOffset":9260,
			"target":34962
		},
		{
			"buffer":0,
			"byteLength":2720,
			"byteOffset":13340,
			"target":34962
		},
		{
			"buffer":0,
			"byteLength":1020,
			"byteOffset":16060,
			"target":34963
		},
		{
			"buffer":0,
			"byteLength":1776,
			"byteOffset":17080,
			"target":34962
		},
		{
			"buffer":0,
			"byteLength":1776,
			"byteOffset":18856,
			"target":34962
		},
		{
			"buffer":0,
			"byteLength":1184,
			"byteOffset":20632,
			"target":34962
		},
		{
			"buffer":0,
			"byteLength":444,
			"byteOffset":21816,
			"target":34963
		},
		{
			"buffer":0,
			"byteLength":2640,
			"byteOffset":22260,
			"target":34962
		},
		{
			"buffer":0,
			"byteLength":2640,
			"byteOffset":24900,
			"target":34962
		},
		{
			"buffer":0,
			"byteLength":1760,
			"byteOffset":27540,
			"target":34962
		},
		{
			"buffer":0,
			"byteLength":660,
			"byteOffset":29300,
			"target":34963
		}
	],
	"samplers":[
		{
			"magFilter":9728,
			"minFilter":9984
		}
	],
	"buffers":[
		{
			"byteLength":29960,
			"uri":"signform_pieces.bin"
		}
	]
}
