{
	"asset":{
		"generator":"Khronos glTF Blender I/O v5.1.19",
		"version":"2.0"
	},
	"extensionsUsed":[
		"KHR_materials_emissive_strength"
	],
	"scene":0,
	"scenes":[
		{
			"name":"Scene",
			"nodes":[
				0,
				1,
				2,
				3,
				4
			]
		}
	],
	"nodes":[
		{
			"mesh":0,
			"name":"SignPlacards"
		},
		{
			"mesh":1,
			"name":"SignSectorDesignator",
			"translation":[
				2.5999999046325684,
				0,
				0
			]
		},
		{
			"mesh":2,
			"name":"SignStatusBoard",
			"translation":[
				5.199999809265137,
				0,
				0
			]
		},
		{
			"mesh":3,
			"name":"SignTollProjection",
			"translation":[
				7.800000190734863,
				0,
				0
			]
		},
		{
			"mesh":4,
			"name":"SignDistrictEmblems",
			"translation":[
				10.399999618530273,
				0,
				0
			]
		}
	],
	"materials":[
		{
			"alphaMode":"MASK",
			"doubleSided":true,
			"name":"SignPlacardsTex",
			"pbrMetallicRoughness":{
				"baseColorTexture":{
					"index":0
				},
				"metallicFactor":0,
				"roughnessFactor":0.8999999761581421
			}
		},
		{
			"alphaMode":"MASK",
			"doubleSided":true,
			"name":"SignSectorDesignatorTex",
			"pbrMetallicRoughness":{
				"baseColorTexture":{
					"index":1
				},
				"metallicFactor":0,
				"roughnessFactor":0.8999999761581421
			}
		},
		{
			"alphaMode":"MASK",
			"doubleSided":true,
			"emissiveFactor":[
				1,
				1,
				1
			],
			"emissiveTexture":{
				"index":2
			},
			"extensions":{
				"KHR_materials_emissive_strength":{
					"emissiveStrength":2.200000047683716
				}
			},
			"name":"SignStatusBoardTex",
			"pbrMetallicRoughness":{
				"baseColorTexture":{
					"index":3
				},
				"metallicFactor":0,
				"roughnessFactor":0.8999999761581421
			}
		},
		{
			"alphaMode":"MASK",
			"doubleSided":true,
			"emissiveFactor":[
				1,
				1,
				1
			],
			"emissiveTexture":{
				"index":4
			},
			"extensions":{
				"KHR_materials_emissive_strength":{
					"emissiveStrength":3
				}
			},
			"name":"SignTollProjectionTex",
			"pbrMetallicRoughness":{
				"baseColorTexture":{
					"index":5
				},
				"metallicFactor":0,
				"roughnessFactor":0.8999999761581421
			}
		},
		{
			"alphaMode":"MASK",
			"doubleSided":true,
			"name":"SignDistrictEmblemsTex",
			"pbrMetallicRoughness":{
				"baseColorTexture":{
					"index":6
				},
				"metallicFactor":0,
				"roughnessFactor":0.8999999761581421
			}
		}
	],
	"meshes":[
		{
			"name":"SignPlacards",
			"primitives":[
				{
					"attributes":{
						"POSITION":0,
						"NORMAL":1,
						"TEXCOORD_0":2
					},
					"indices":3,
					"material":0
				}
			]
		},
		{
			"name":"SignSectorDesignator",
			"primitives":[
				{
					"attributes":{
						"POSITION":4,
						"NORMAL":5,
						"TEXCOORD_0":6
					},
					"indices":7,
					"material":1
				}
			]
		},
		{
			"name":"SignStatusBoard",
			"primitives":[
				{
					"attributes":{
						"POSITION":8,
						"NORMAL":9,
						"TEXCOORD_0":10
					},
					"indices":11,
					"material":2
				}
			]
		},
		{
			"name":"SignTollProjection",
			"primitives":[
				{
					"attributes":{
						"POSITION":12,
						"NORMAL":13,
						"TEXCOORD_0":14
					},
					"indices":15,
					"material":3
				}
			]
		},
		{
			"name":"SignDistrictEmblems",
			"primitives":[
				{
					"attributes":{
						"POSITION":16,
						"NORMAL":17,
						"TEXCOORD_0":18
					},
					"indices":7,
					"material":4
				}
			]
		}
	],
	"textures":[
		{
			"sampler":0,
			"source":0
		},
		{
			"sampler":0,
			"source":1
		},
		{
			"sampler":0,
			"source":2
		},
		{
			"sampler":0,
			"source":3
		},
		{
			"sampler":0,
			"source":4
		},
		{
			"sampler":0,
			"source":5
		},
		{
			"sampler":0,
			"source":6
		}
	],
	"images":[
		{
			"mimeType":"image/png",
			"name":"SignPlacards_tex",
			"uri":"SignPlacards_tex.png"
		},
		{
			"mimeType":"image/png",
			"name":"SignSectorDesignator_tex",
			"uri":"SignSectorDesignator_tex.png"
		},
		{
			"mimeType":"image/png",
			"name":"SignStatusBoard_emissive",
			"uri":"SignStatusBoard_emissive.png"
		},
		{
			"mimeType":"image/png",
			"name":"SignStatusBoard_tex",
			"uri":"SignStatusBoard_tex.png"
		},
		{
			"mimeType":"image/png",
			"name":"SignTollProjection_emissive",
			"uri":"SignTollProjection_emissive.png"
		},
		{
			"mimeType":"image/png",
			"name":"SignTollProjection_tex",
			"uri":"SignTollProjection_tex.png"
		},
		{
			"mimeType":"image/png",
			"name":"SignDistrictEmblems_tex",
			"uri":"SignDistrictEmblems_tex.png"
		}
	],
	"accessors":[
		{
			"bufferView":0,
			"componentType":5126,
			"count":112,
			"max":[
				2.4700000286102295,
				0.20999999344348907,
				0.03700000047683716
			],
			"min":[
				-0.3100000023841858,
				-0.20999999344348907,
				-0.02500000037252903
			],
			"type":"VEC3"
		},
		{
			"bufferView":1,
			"componentType":5126,
			"count":112,
			"type":"VEC3"
		},
		{
			"bufferView":2,
			"componentType":5126,
			"count":112,
			"type":"VEC2"
		},
		{
			"bufferView":3,
			"componentType":5123,
			"count":168,
			"type":"SCALAR"
		},
		{
			"bufferView":4,
			"componentType":5126,
			"count":28,
			"max":[
				0.3100000023841858,
				0.46000000834465027,
				0.04699999839067459
			],
			"min":[
				-0.3100000023841858,
				-0.46000000834465027,
				-0.03500000014901161
			],
			"type":"VEC3"
		},
		{
			"bufferView":5,
			"componentType":5126,
			"count":28,
			"type":"VEC3"
		},
		{
			"bufferView":6,
			"componentType":5126,
			"count":28,
			"type":"VEC2"
		},
		{
			"bufferView":7,
			"componentType":5123,
			"count":42,
			"type":"SCALAR"
		},
		{
			"bufferView":8,
			"componentType":5126,
			"count":148,
			"max":[
				0.5249999761581421,
				0.6000000238418579,
				0.06199999898672104
			],
			"min":[
				-0.5249999761581421,
				-0.6000000238418579,
				-0.04500000178813934
			],
			"type":"VEC3"
		},
		{
			"bufferView":9,
			"componentType":5126,
			"count":148,
			"type":"VEC3"
		},
		{
			"bufferView":10,
			"componentType":5126,
			"count":148,
			"type":"VEC2"
		},
		{
			"bufferView":11,
			"componentType":5123,
			"count":222,
			"type":"SCALAR"
		},
		{
			"bufferView":12,
			"componentType":5126,
			"count":4,
			"max":[
				0.4300000071525574,
				0,
				0.574999988079071
			],
			"min":[
				-0.4300000071525574,
				0,
				-0.574999988079071
			],
			"type":"VEC3"
		},
		{
			"bufferView":13,
			"componentType":5126,
			"count":4,
			"type":"VEC3"
		},
		{
			"bufferView":14,
			"componentType":5126,
			"count":4,
			"type":"VEC2"
		},
		{
			"bufferView":15,
			"componentType":5123,
			"count":6,
			"type":"SCALAR"
		},
		{
			"bufferView":16,
			"componentType":5126,
			"count":28,
			"max":[
				0.6800000071525574,
				0.2199999988079071,
				0.04699999839067459
			],
			"min":[
				-0.6800000071525574,
				-0.2199999988079071,
				-0.03500000014901161
			],
			"type":"VEC3"
		},
		{
			"bufferView":17,
			"componentType":5126,
			"count":28,
			"type":"VEC3"
		},
		{
			"bufferView":18,
			"componentType":5126,
			"count":28,
			"type":"VEC2"
		}
	],
	"bufferViews":[
		{
			"buffer":0,
			"byteLength":1344,
			"byteOffset":0,
			"target":34962
		},
		{
			"buffer":0,
			"byteLength":1344,
			"byteOffset":1344,
			"target":34962
		},
		{
			"buffer":0,
			"byteLength":896,
			"byteOffset":2688,
			"target":34962
		},
		{
			"buffer":0,
			"byteLength":336,
			"byteOffset":3584,
			"target":34963
		},
		{
			"buffer":0,
			"byteLength":336,
			"byteOffset":3920,
			"target":34962
		},
		{
			"buffer":0,
			"byteLength":336,
			"byteOffset":4256,
			"target":34962
		},
		{
			"buffer":0,
			"byteLength":224,
			"byteOffset":4592,
			"target":34962
		},
		{
			"buffer":0,
			"byteLength":84,
			"byteOffset":4816,
			"target":34963
		},
		{
			"buffer":0,
			"byteLength":1776,
			"byteOffset":4900,
			"target":34962
		},
		{
			"buffer":0,
			"byteLength":1776,
			"byteOffset":6676,
			"target":34962
		},
		{
			"buffer":0,
			"byteLength":1184,
			"byteOffset":8452,
			"target":34962
		},
		{
			"buffer":0,
			"byteLength":444,
			"byteOffset":9636,
			"target":34963
		},
		{
			"buffer":0,
			"byteLength":48,
			"byteOffset":10080,
			"target":34962
		},
		{
			"buffer":0,
			"byteLength":48,
			"byteOffset":10128,
			"target":34962
		},
		{
			"buffer":0,
			"byteLength":32,
			"byteOffset":10176,
			"target":34962
		},
		{
			"buffer":0,
			"byteLength":12,
			"byteOffset":10208,
			"target":34963
		},
		{
			"buffer":0,
			"byteLength":336,
			"byteOffset":10220,
			"target":34962
		},
		{
			"buffer":0,
			"byteLength":336,
			"byteOffset":10556,
			"target":34962
		},
		{
			"buffer":0,
			"byteLength":224,
			"byteOffset":10892,
			"target":34962
		}
	],
	"samplers":[
		{
			"magFilter":9728,
			"minFilter":9984
		}
	],
	"buffers":[
		{
			"byteLength":11116,
			"uri":"signage_pieces.bin"
		}
	]
}
