{
	"asset":{
		"generator":"Khronos glTF Blender I/O v5.1.19",
		"version":"2.0"
	},
	"scene":0,
	"scenes":[
		{
			"name":"Scene",
			"nodes":[
				0,
				1,
				2,
				3,
				4,
				5,
				6,
				7
			]
		}
	],
	"nodes":[
		{
			"mesh":0,
			"name":"WindowRoseAperture"
		},
		{
			"mesh":1,
			"name":"WindowRoseVent",
			"translation":[
				1.899999976158142,
				0,
				0
			]
		},
		{
			"mesh":2,
			"name":"WindowMembranePore",
			"translation":[
				3.799999952316284,
				0,
				0
			]
		},
		{
			"mesh":3,
			"name":"WindowCapillarySlits",
			"translation":[
				5.699999809265137,
				0,
				0
			]
		},
		{
			"mesh":4,
			"name":"WindowBalconyBay",
			"translation":[
				7.599999904632568,
				0,
				0
			]
		},
		{
			"mesh":5,
			"name":"WindowDrawerBand",
			"translation":[
				9.5,
				0,
				0
			]
		},
		{
			"mesh":6,
			"name":"WindowRollingShutter",
			"translation":[
				11.399999618530273,
				0,
				0
			]
		},
		{
			"mesh":7,
			"name":"WindowHoneycombCell",
			"translation":[
				13.300000190734863,
				0,
				0
			]
		}
	],
	"materials":[
		{
			"alphaMode":"MASK",
			"doubleSided":true,
			"name":"WindowRoseApertureTex",
			"pbrMetallicRoughness":{
				"baseColorTexture":{
					"index":0
				},
				"metallicFactor":0,
				"roughnessFactor":0.8999999761581421
			}
		},
		{
			"alphaMode":"MASK",
			"doubleSided":true,
			"name":"WindowRoseVentTex",
			"pbrMetallicRoughness":{
				"baseColorTexture":{
					"index":1
				},
				"metallicFactor":0,
				"roughnessFactor":0.8999999761581421
			}
		},
		{
			"alphaMode":"MASK",
			"doubleSided":true,
			"name":"WindowMembranePoreTex",
			"pbrMetallicRoughness":{
				"baseColorTexture":{
					"index":2
				},
				"metallicFactor":0,
				"roughnessFactor":0.8999999761581421
			}
		},
		{
			"alphaMode":"MASK",
			"doubleSided":true,
			"name":"WindowCapillarySlitsTex",
			"pbrMetallicRoughness":{
				"baseColorTexture":{
					"index":3
				},
				"metallicFactor":0,
				"roughnessFactor":0.8999999761581421
			}
		},
		{
			"alphaMode":"MASK",
			"doubleSided":true,
			"name":"WindowBalconyBayTex",
			"pbrMetallicRoughness":{
				"baseColorTexture":{
					"index":4
				},
				"metallicFactor":0,
				"roughnessFactor":0.8999999761581421
			}
		},
		{
			"alphaMode":"MASK",
			"doubleSided":true,
			"name":"WindowDrawerBandTex",
			"pbrMetallicRoughness":{
				"baseColorTexture":{
					"index":5
				},
				"metallicFactor":0,
				"roughnessFactor":0.8999999761581421
			}
		},
		{
			"alphaMode":"MASK",
			"doubleSided":true,
			"name":"WindowRollingShutterTex",
			"pbrMetallicRoughness":{
				"baseColorTexture":{
					"index":6
				},
				"metallicFactor":0,
				"roughnessFactor":0.8999999761581421
			}
		},
		{
			"alphaMode":"MASK",
			"doubleSided":true,
			"name":"WindowHoneycombCellTex",
			"pbrMetallicRoughness":{
				"baseColorTexture":{
					"index":7
				},
				"metallicFactor":0,
				"roughnessFactor":0.8999999761581421
			}
		}
	],
	"meshes":[
		{
			"name":"WindowRoseAperture",
			"primitives":[
				{
					"attributes":{
						"POSITION":0,
						"NORMAL":1,
						"TEXCOORD_0":2
					},
					"indices":3,
					"material":0
				}
			]
		},
		{
			"name":"WindowRoseVent",
			"primitives":[
				{
					"attributes":{
						"POSITION":4,
						"NORMAL":5,
						"TEXCOORD_0":6
					},
					"indices":7,
					"material":1
				}
			]
		},
		{
			"name":"WindowMembranePore",
			"primitives":[
				{
					"attributes":{
						"POSITION":8,
						"NORMAL":9,
						"TEXCOORD_0":10
					},
					"indices":11,
					"material":2
				}
			]
		},
		{
			"name":"WindowCapillarySlits",
			"primitives":[
				{
					"attributes":{
						"POSITION":12,
						"NORMAL":13,
						"TEXCOORD_0":14
					},
					"indices":15,
					"material":3
				}
			]
		},
		{
			"name":"WindowBalconyBay",
			"primitives":[
				{
					"attributes":{
						"POSITION":16,
						"NORMAL":17,
						"TEXCOORD_0":18
					},
					"indices":19,
					"material":4
				}
			]
		},
		{
			"name":"WindowDrawerBand",
			"primitives":[
				{
					"attributes":{
						"POSITION":20,
						"NORMAL":21,
						"TEXCOORD_0":22
					},
					"indices":23,
					"material":5
				}
			]
		},
		{
			"name":"WindowRollingShutter",
			"primitives":[
				{
					"attributes":{
						"POSITION":24,
						"NORMAL":25,
						"TEXCOORD_0":26
					},
					"indices":27,
					"material":6
				}
			]
		},
		{
			"name":"WindowHoneycombCell",
			"primitives":[
				{
					"attributes":{
						"POSITION":28,
						"NORMAL":29,
						"TEXCOORD_0":30
					},
					"indices":31,
					"material":7
				}
			]
		}
	],
	"textures":[
		{
			"sampler":0,
			"source":0
		},
		{
			"sampler":0,
			"source":1
		},
		{
			"sampler":0,
			"source":2
		},
		{
			"sampler":0,
			"source":3
		},
		{
			"sampler":0,
			"source":4
		},
		{
			"sampler":0,
			"source":5
		},
		{
			"sampler":0,
			"source":6
		},
		{
			"sampler":0,
			"source":7
		}
	],
	"images":[
		{
			"mimeType":"image/png",
			"name":"WindowRoseAperture_tex",
			"uri":"WindowRoseAperture_tex.png"
		},
		{
			"mimeType":"image/png",
			"name":"WindowRoseVent_tex",
			"uri":"WindowRoseVent_tex.png"
		},
		{
			"mimeType":"image/png",
			"name":"WindowMembranePore_tex",
			"uri":"WindowMembranePore_tex.png"
		},
		{
			"mimeType":"image/png",
			"name":"WindowCapillarySlits_tex",
			"uri":"WindowCapillarySlits_tex.png"
		},
		{
			"mimeType":"image/png",
			"name":"WindowBalconyBay_tex",
			"uri":"WindowBalconyBay_tex.png"
		},
		{
			"mimeType":"image/png",
			"name":"WindowDrawerBand_tex",
			"uri":"WindowDrawerBand_tex.png"
		},
		{
			"mimeType":"image/png",
			"name":"WindowRollingShutter_tex",
			"uri":"WindowRollingShutter_tex.png"
		},
		{
			"mimeType":"image/png",
			"name":"WindowHoneycombCell_tex",
			"uri":"WindowHoneycombCell_tex.png"
		}
	],
	"accessors":[
		{
			"bufferView":0,
			"componentType":5126,
			"count":1096,
			"max":[
				0.6633999943733215,
				0.7148000001907349,
				0.07500000298023224
			],
			"min":[
				-0.6633999943733215,
				-0.7368000149726868,
				-0.11999999731779099
			],
			"type":"VEC3"
		},
		{
			"bufferView":1,
			"componentType":5126,
			"count":1096,
			"type":"VEC3"
		},
		{
			"bufferView":2,
			"componentType":5126,
			"count":1096,
			"type":"VEC2"
		},
		{
			"bufferView":3,
			"componentType":5123,
			"count":2130,
			"type":"SCALAR"
		},
		{
			"bufferView":4,
			"componentType":5126,
			"count":272,
			"max":[
				0.25999999046325684,
				0.25999999046325684,
				0
			],
			"min":[
				-0.25999999046325684,
				-0.48100000619888306,
				-0.09000000357627869
			],
			"type":"VEC3"
		},
		{
			"bufferView":5,
			"componentType":5126,
			"count":272,
			"type":"VEC3"
		},
		{
			"bufferView":6,
			"componentType":5126,
			"count":272,
			"type":"VEC2"
		},
		{
			"bufferView":7,
			"componentType":5123,
			"count":522,
			"type":"SCALAR"
		},
		{
			"bufferView":8,
			"componentType":5126,
			"count":512,
			"max":[
				0.4648538827896118,
				0.4708787202835083,
				0.04500000178813934
			],
			"min":[
				-0.4648538827896118,
				-0.4708787202835083,
				-0.11999999731779099
			],
			"type":"VEC3"
		},
		{
			"bufferView":9,
			"componentType":5126,
			"count":512,
			"type":"VEC3"
		},
		{
			"bufferView":10,
			"componentType":5126,
			"count":512,
			"type":"VEC2"
		},
		{
			"bufferView":11,
			"componentType":5123,
			"count":894,
			"type":"SCALAR"
		},
		{
			"bufferView":12,
			"componentType":5126,
			"count":104,
			"max":[
				0.2150000035762787,
				0.625,
				0.07000000029802322
			],
			"min":[
				-0.2150000035762787,
				-0.7110000252723694,
				-0.07000000029802322
			],
			"type":"VEC3"
		},
		{
			"bufferView":13,
			"componentType":5126,
			"count":104,
			"type":"VEC3"
		},
		{
			"bufferView":14,
			"componentType":5126,
			"count":104,
			"type":"VEC2"
		},
		{
			"bufferView":15,
			"componentType":5123,
			"count":156,
			"type":"SCALAR"
		},
		{
			"bufferView":16,
			"componentType":5126,
			"count":268,
			"max":[
				0.3472000062465668,
				0.609499990940094,
				0.3472000062465668
			],
			"min":[
				-0.3472000062465668,
				-0.9549999833106995,
				-0.3472000062465668
			],
			"type":"VEC3"
		},
		{
			"bufferView":17,
			"componentType":5126,
			"count":268,
			"type":"VEC3"
		},
		{
			"bufferView":18,
			"componentType":5126,
			"count":268,
			"type":"VEC2"
		},
		{
			"bufferView":19,
			"componentType":5123,
			"count":426,
			"type":"SCALAR"
		},
		{
			"bufferView":20,
			"componentType":5126,
			"count":76,
			"max":[
				0.5979999899864197,
				0.4562000036239624,
				0.0860000029206276
			],
			"min":[
				-0.5979999899864197,
				-0.4562000036239624,
				-0.10999999940395355
			],
			"type":"VEC3"
		},
		{
			"bufferView":21,
			"componentType":5126,
			"count":76,
			"type":"VEC3"
		},
		{
			"bufferView":22,
			"componentType":5126,
			"count":76,
			"type":"VEC2"
		},
		{
			"bufferView":23,
			"componentType":5123,
			"count":114,
			"type":"SCALAR"
		},
		{
			"bufferView":24,
			"componentType":5126,
			"count":128,
			"max":[
				0.3630000054836273,
				0.6359999775886536,
				0.0820000022649765
			],
			"min":[
				-0.3630000054836273,
				-0.6880000233650208,
				-0.10999999940395355
			],
			"type":"VEC3"
		},
		{
			"bufferView":25,
			"componentType":5126,
			"count":128,
			"type":"VEC3"
		},
		{
			"bufferView":26,
			"componentType":5126,
			"count":128,
			"type":"VEC2"
		},
		{
			"bufferView":27,
			"componentType":5123,
			"count":192,
			"type":"SCALAR"
		},
		{
			"bufferView":28,
			"componentType":5126,
			"count":176,
			"max":[
				0.41999998688697815,
				0.41999998688697815,
				0.335999995470047
			],
			"min":[
				-0.41999998688697815,
				-0.6949999928474426,
				-0.335999995470047
			],
			"type":"VEC3"
		},
		{
			"bufferView":29,
			"componentType":5126,
			"count":176,
			"type":"VEC3"
		},
		{
			"bufferView":30,
			"componentType":5126,
			"count":176,
			"type":"VEC2"
		},
		{
			"bufferView":31,
			"componentType":5123,
			"count":318,
			"type":"SCALAR"
		}
	],
	"bufferViews":[
		{
			"buffer":0,
			"byteLength":13152,
			"byteOffset":0,
			"target":34962
		},
		{
			"buffer":0,
			"byteLength":13152,
			"byteOffset":13152,
			"target":34962
		},
		{
			"buffer":0,
			"byteLength":8768,
			"byteOffset":26304,
			"target":34962
		},
		{
			"buffer":0,
			"byteLength":4260,
			"byteOffset":35072,
			"target":34963
		},
		{
			"buffer":0,
			"byteLength":3264,
			"byteOffset":39332,
			"target":34962
		},
		{
			"buffer":0,
			"byteLength":3264,
			"byteOffset":42596,
			"target":34962
		},
		{
			"buffer":0,
			"byteLength":2176,
			"byteOffset":45860,
			"target":34962
		},
		{
			"buffer":0,
			"byteLength":1044,
			"byteOffset":48036,
			"target":34963
		},
		{
			"buffer":0,
			"byteLength":6144,
			"byteOffset":49080,
			"target":34962
		},
		{
			"buffer":0,
			"byteLength":6144,
			"byteOffset":55224,
			"target":34962
		},
		{
			"buffer":0,
			"byteLength":4096,
			"byteOffset":61368,
			"target":34962
		},
		{
			"buffer":0,
			"byteLength":1788,
			"byteOffset":65464,
			"target":34963
		},
		{
			"buffer":0,
			"byteLength":1248,
			"byteOffset":67252,
			"target":34962
		},
		{
			"buffer":0,
			"byteLength":1248,
			"byteOffset":68500,
			"target":34962
		},
		{
			"buffer":0,
			"byteLength":832,
			"byteOffset":69748,
			"target":34962
		},
		{
			"buffer":0,
			"byteLength":312,
			"byteOffset":70580,
			"target":34963
		},
		{
			"buffer":0,
			"byteLength":3216,
			"byteOffset":70892,
			"target":34962
		},
		{
			"buffer":0,
			"byteLength":3216,
			"byteOffset":74108,
			"target":34962
		},
		{
			"buffer":0,
			"byteLength":2144,
			"byteOffset":77324,
			"target":34962
		},
		{
			"buffer":0,
			"byteLength":852,
			"byteOffset":79468,
			"target":34963
		},
		{
			"buffer":0,
			"byteLength":912,
			"byteOffset":80320,
			"target":34962
		},
		{
			"buffer":0,
			"byteLength":912,
			"byteOffset":81232,
			"target":34962
		},
		{
			"buffer":0,
			"byteLength":608,
			"byteOffset":82144,
			"target":34962
		},
		{
			"buffer":0,
			"byteLength":228,
			"byteOffset":82752,
			"target":34963
		},
		{
			"buffer":0,
			"byteLength":1536,
			"byteOffset":82980,
			"target":34962
		},
		{
			"buffer":0,
			"byteLength":1536,
			"byteOffset":84516,
			"target":34962
		},
		{
			"buffer":0,
			"byteLength":1024,
			"byteOffset":86052,
			"target":34962
		},
		{
			"buffer":0,
			"byteLength":384,
			"byteOffset":87076,
			"target":34963
		},
		{
			"buffer":0,
			"byteLength":2112,
			"byteOffset":87460,
			"target":34962
		},
		{
			"buffer":0,
			"byteLength":2112,
			"byteOffset":89572,
			"target":34962
		},
		{
			"buffer":0,
			"byteLength":1408,
			"byteOffset":91684,
			"target":34962
		},
		{
			"buffer":0,
			"byteLength":636,
			"byteOffset":93092,
			"target":34963
		}
	],
	"samplers":[
		{
			"magFilter":9728,
			"minFilter":9984
		}
	],
	"buffers":[
		{
			"byteLength":93728,
			"uri":"window_pieces.bin"
		}
	]
}
