mtllib logbook_console_display.mtl
usemtl baked
v -0.225000 0.325000 0.240000
v 0.225000 0.325000 0.240000
v -0.225000 -0.125000 0.240000
v 0.225000 0.325000 0.240000
v 0.225000 -0.125000 0.240000
v -0.225000 -0.125000 0.240000
v 0.225000 0.325000 0.200000
v -0.225000 0.325000 0.200000
v 0.225000 -0.125000 0.200000
v -0.225000 0.325000 0.200000
v -0.225000 -0.125000 0.200000
v 0.225000 -0.125000 0.200000
v 0.225000 0.325000 0.240000
v 0.225000 0.325000 0.200000
v 0.225000 -0.125000 0.240000
v 0.225000 0.325000 0.200000
v 0.225000 -0.125000 0.200000
v 0.225000 -0.125000 0.240000
v -0.225000 0.325000 0.200000
v -0.225000 0.325000 0.240000
v -0.225000 -0.125000 0.200000
v -0.225000 0.325000 0.240000
v -0.225000 -0.125000 0.240000
v -0.225000 -0.125000 0.200000
v 0.225000 0.325000 0.240000
v -0.225000 0.325000 0.240000
v 0.225000 0.325000 0.200000
v -0.225000 0.325000 0.240000
v -0.225000 0.325000 0.200000
v 0.225000 0.325000 0.200000
v -0.225000 -0.125000 0.240000
v 0.225000 -0.125000 0.240000
v -0.225000 -0.125000 0.200000
v 0.225000 -0.125000 0.240000
v 0.225000 -0.125000 0.200000
v -0.225000 -0.125000 0.200000
vt 0.256250 0.968750
vt 0.031250 0.968750
vt 0.256250 0.743750
vt 0.031250 0.968750
vt 0.031250 0.743750
vt 0.256250 0.743750
vt 0.553125 0.968750
vt 0.328125 0.968750
vt 0.553125 0.743750
vt 0.328125 0.968750
vt 0.328125 0.743750
vt 0.553125 0.743750
vt 0.645000 0.968750
vt 0.625000 0.968750
vt 0.645000 0.743750
vt 0.625000 0.968750
vt 0.625000 0.743750
vt 0.645000 0.743750
vt 0.738750 0.968750
vt 0.718750 0.968750
vt 0.738750 0.743750
vt 0.718750 0.968750
vt 0.718750 0.743750
vt 0.738750 0.743750
vt 0.256250 0.671875
vt 0.031250 0.671875
vt 0.256250 0.651875
vt 0.031250 0.671875
vt 0.031250 0.651875
vt 0.256250 0.651875
vt 0.328125 0.651875
vt 0.553125 0.651875
vt 0.328125 0.671875
vt 0.553125 0.651875
vt 0.553125 0.671875
vt 0.328125 0.671875
f 1/1 2/2 3/3
f 4/4 5/5 6/6
f 7/7 8/8 9/9
f 10/10 11/11 12/12
f 13/13 14/14 15/15
f 16/16 17/17 18/18
f 19/19 20/20 21/21
f 22/22 23/23 24/24
f 25/25 26/26 27/27
f 28/28 29/29 30/30
f 31/31 32/32 33/33
f 34/34 35/35 36/36
