# Blender 5.1.1
# www.blender.org
o LogbookHousing
v -0.275000 -0.500000 0.200000
v -0.275000 0.500000 0.200000
v -0.275000 -0.500000 -0.200000
v -0.275000 0.500000 -0.200000
v 0.275000 -0.500000 0.200000
v 0.275000 0.500000 0.200000
v 0.275000 -0.500000 -0.200000
v 0.275000 0.500000 -0.200000
v -0.310000 0.500000 0.250000
v -0.310000 0.550000 0.250000
v -0.310000 0.500000 -0.250000
v -0.310000 0.550000 -0.250000
v 0.310000 0.500000 0.250000
v 0.310000 0.550000 0.250000
v 0.310000 0.500000 -0.250000
v 0.310000 0.550000 -0.250000
v -0.310000 -0.500000 0.270000
v -0.310000 -0.440000 0.270000
v -0.310000 -0.500000 -0.270000
v -0.310000 -0.440000 -0.270000
v 0.350000 -0.500000 0.270000
v 0.350000 -0.440000 0.270000
v 0.350000 -0.500000 -0.270000
v 0.350000 -0.440000 -0.270000
v 0.071228 0.559108 0.230000
v -0.058559 0.958551 0.230000
v 0.071228 0.559108 -0.230000
v -0.058559 0.958551 -0.230000
v 0.147313 0.583829 0.230000
v 0.017526 0.983273 0.230000
v 0.147313 0.583829 -0.230000
v 0.017526 0.983273 -0.230000
vn -0.0000 1.0000 -0.0000
vn -0.0000 -1.0000 -0.0000
vn 1.0000 -0.0000 -0.0000
vn -1.0000 -0.0000 -0.0000
vn -0.0000 -0.0000 -1.0000
vn -0.0000 -0.0000 1.0000
vn -0.3090 0.9511 -0.0000
vn 0.3090 -0.9511 -0.0000
vn 0.9511 0.3090 -0.0000
vn -0.9511 -0.3090 -0.0000
vt 0.363281 0.175781
vt 0.496094 0.175781
vt 0.496094 0.269531
vt 0.363281 0.269531
vt 0.519531 0.175781
vt 0.652344 0.175781
vt 0.652344 0.269531
vt 0.519531 0.269531
vt 0.675781 0.269531
vt 0.675781 0.175781
vt 0.917969 0.175781
vt 0.917969 0.269531
vt 0.019531 0.410156
vt 0.019531 0.316406
vt 0.261719 0.316406
vt 0.261719 0.410156
vt 0.019531 0.152344
vt 0.019531 0.019531
vt 0.261719 0.019531
vt 0.261719 0.152344
vt 0.285156 0.152344
vt 0.285156 0.019531
vt 0.527344 0.019531
vt 0.527344 0.152344
vt 0.019531 0.175781
vt 0.167969 0.175781
vt 0.167969 0.292969
vt 0.019531 0.292969
vt 0.191406 0.175781
vt 0.339844 0.175781
vt 0.339844 0.292969
vt 0.191406 0.292969
vt 0.550781 0.316406
vt 0.667969 0.316406
vt 0.667969 0.332031
vt 0.550781 0.332031
vt 0.691406 0.316406
vt 0.808594 0.316406
vt 0.808594 0.332031
vt 0.691406 0.332031
vt 0.832031 0.316406
vt 0.980469 0.316406
vt 0.980469 0.332031
vt 0.832031 0.332031
vt 0.019531 0.433594
vt 0.167969 0.433594
vt 0.167969 0.449219
vt 0.019531 0.449219
vt 0.550781 0.019531
vt 0.707031 0.019531
vt 0.707031 0.144531
vt 0.550781 0.144531
vt 0.730469 0.019531
vt 0.886719 0.019531
vt 0.886719 0.144531
vt 0.730469 0.144531
vt 0.191406 0.433594
vt 0.316406 0.433594
vt 0.316406 0.449219
vt 0.191406 0.449219
vt 0.339844 0.433594
vt 0.464844 0.433594
vt 0.464844 0.449219
vt 0.339844 0.449219
vt 0.488281 0.433594
vt 0.644531 0.433594
vt 0.644531 0.449219
vt 0.488281 0.449219
vt 0.667969 0.433594
vt 0.824219 0.433594
vt 0.824219 0.449219
vt 0.667969 0.449219
vt 0.847656 0.449219
vt 0.847656 0.433594
vt 0.957031 0.433594
vt 0.957031 0.449219
vt 0.019531 0.488281
vt 0.019531 0.472656
vt 0.128906 0.472656
vt 0.128906 0.488281
vt 0.285156 0.316406
vt 0.394531 0.316406
vt 0.394531 0.410156
vt 0.285156 0.410156
vt 0.417969 0.316406
vt 0.527344 0.316406
vt 0.527344 0.410156
vt 0.417969 0.410156
vt 0.152344 0.488281
vt 0.152344 0.472656
vt 0.246094 0.472656
vt 0.246094 0.488281
vt 0.269531 0.488281
vt 0.269531 0.472656
vt 0.363281 0.472656
vt 0.363281 0.488281
s 0
f 2/1/1 6/2/1 8/3/1 4/4/1
f 3/5/2 7/6/2 5/7/2 1/8/2
f 5/9/3 7/10/3 8/11/3 6/12/3
f 3/13/4 1/14/4 2/15/4 4/16/4
f 7/17/5 3/18/5 4/19/5 8/20/5
f 1/21/6 5/22/6 6/23/6 2/24/6
f 10/25/1 14/26/1 16/27/1 12/28/1
f 11/29/2 15/30/2 13/31/2 9/32/2
f 13/33/3 15/34/3 16/35/3 14/36/3
f 11/37/4 9/38/4 10/39/4 12/40/4
f 15/41/5 11/42/5 12/43/5 16/44/5
f 9/45/6 13/46/6 14/47/6 10/48/6
f 18/49/1 22/50/1 24/51/1 20/52/1
f 19/53/2 23/54/2 21/55/2 17/56/2
f 21/57/3 23/58/3 24/59/3 22/60/3
f 19/61/4 17/62/4 18/63/4 20/64/4
f 23/65/5 19/66/5 20/67/5 24/68/5
f 17/69/6 21/70/6 22/71/6 18/72/6
f 26/73/7 30/74/7 32/75/7 28/76/7
f 27/77/8 31/78/8 29/79/8 25/80/8
f 29/81/9 31/82/9 32/83/9 30/84/9
f 27/85/10 25/86/10 26/87/10 28/88/10
f 31/89/5 27/90/5 28/91/5 32/92/5
f 25/93/6 29/94/6 30/95/6 26/96/6
