mtllib cleanstreets_toll_pavilion_fixtures.mtl
usemtl baked
v -2.900000 4.510000 3.070000
v 2.900000 4.510000 3.070000
v -2.900000 3.730000 3.070000
v 2.900000 4.510000 3.070000
v 2.900000 3.730000 3.070000
v -2.900000 3.730000 3.070000
v 2.900000 4.510000 2.950000
v -2.900000 4.510000 2.950000
v 2.900000 3.730000 2.950000
v -2.900000 4.510000 2.950000
v -2.900000 3.730000 2.950000
v 2.900000 3.730000 2.950000
v 2.900000 4.510000 3.070000
v 2.900000 4.510000 2.950000
v 2.900000 3.730000 3.070000
v 2.900000 4.510000 2.950000
v 2.900000 3.730000 2.950000
v 2.900000 3.730000 3.070000
v -2.900000 4.510000 2.950000
v -2.900000 4.510000 3.070000
v -2.900000 3.730000 2.950000
v -2.900000 4.510000 3.070000
v -2.900000 3.730000 3.070000
v -2.900000 3.730000 2.950000
v 2.900000 4.510000 3.070000
v -2.900000 4.510000 3.070000
v 2.900000 4.510000 2.950000
v -2.900000 4.510000 3.070000
v -2.900000 4.510000 2.950000
v 2.900000 4.510000 2.950000
v -2.900000 3.730000 3.070000
v 2.900000 3.730000 3.070000
v -2.900000 3.730000 2.950000
v 2.900000 3.730000 3.070000
v 2.900000 3.730000 2.950000
v -2.900000 3.730000 2.950000
v -2.340000 1.811599 1.885297
v -2.160000 1.811599 1.885297
v -2.340000 0.313474 1.810329
v -2.160000 1.811599 1.885297
v -2.160000 0.313474 1.810329
v -2.340000 0.313474 1.810329
v -2.160000 1.986526 -1.610329
v -2.340000 1.986526 -1.610329
v -2.160000 0.488401 -1.685297
v -2.340000 1.986526 -1.610329
v -2.340000 0.488401 -1.685297
v -2.160000 0.488401 -1.685297
v -2.160000 1.811599 1.885297
v -2.160000 1.986526 -1.610329
v -2.160000 0.313474 1.810329
v -2.160000 1.986526 -1.610329
v -2.160000 0.488401 -1.685297
v -2.160000 0.313474 1.810329
v -2.340000 1.986526 -1.610329
v -2.340000 1.811599 1.885297
v -2.340000 0.488401 -1.685297
v -2.340000 1.811599 1.885297
v -2.340000 0.313474 1.810329
v -2.340000 0.488401 -1.685297
v -2.160000 1.811599 1.885297
v -2.340000 1.811599 1.885297
v -2.160000 1.986526 -1.610329
v -2.340000 1.811599 1.885297
v -2.340000 1.986526 -1.610329
v -2.160000 1.986526 -1.610329
v -2.340000 0.313474 1.810329
v -2.160000 0.313474 1.810329
v -2.340000 0.488401 -1.685297
v -2.160000 0.313474 1.810329
v -2.160000 0.488401 -1.685297
v -2.340000 0.488401 -1.685297
v -0.840000 1.811599 1.885297
v -0.660000 1.811599 1.885297
v -0.840000 0.313474 1.810329
v -0.660000 1.811599 1.885297
v -0.660000 0.313474 1.810329
v -0.840000 0.313474 1.810329
v -0.660000 1.986526 -1.610329
v -0.840000 1.986526 -1.610329
v -0.660000 0.488401 -1.685297
v -0.840000 1.986526 -1.610329
v -0.840000 0.488401 -1.685297
v -0.660000 0.488401 -1.685297
v -0.660000 1.811599 1.885297
v -0.660000 1.986526 -1.610329
v -0.660000 0.313474 1.810329
v -0.660000 1.986526 -1.610329
v -0.660000 0.488401 -1.685297
v -0.660000 0.313474 1.810329
v -0.840000 1.986526 -1.610329
v -0.840000 1.811599 1.885297
v -0.840000 0.488401 -1.685297
v -0.840000 1.811599 1.885297
v -0.840000 0.313474 1.810329
v -0.840000 0.488401 -1.685297
v -0.660000 1.811599 1.885297
v -0.840000 1.811599 1.885297
v -0.660000 1.986526 -1.610329
v -0.840000 1.811599 1.885297
v -0.840000 1.986526 -1.610329
v -0.660000 1.986526 -1.610329
v -0.840000 0.313474 1.810329
v -0.660000 0.313474 1.810329
v -0.840000 0.488401 -1.685297
v -0.660000 0.313474 1.810329
v -0.660000 0.488401 -1.685297
v -0.840000 0.488401 -1.685297
v 0.660000 1.811599 1.885297
v 0.840000 1.811599 1.885297
v 0.660000 0.313474 1.810329
v 0.840000 1.811599 1.885297
v 0.840000 0.313474 1.810329
v 0.660000 0.313474 1.810329
v 0.840000 1.986526 -1.610329
v 0.660000 1.986526 -1.610329
v 0.840000 0.488401 -1.685297
v 0.660000 1.986526 -1.610329
v 0.660000 0.488401 -1.685297
v 0.840000 0.488401 -1.685297
v 0.840000 1.811599 1.885297
v 0.840000 1.986526 -1.610329
v 0.840000 0.313474 1.810329
v 0.840000 1.986526 -1.610329
v 0.840000 0.488401 -1.685297
v 0.840000 0.313474 1.810329
v 0.660000 1.986526 -1.610329
v 0.660000 1.811599 1.885297
v 0.660000 0.488401 -1.685297
v 0.660000 1.811599 1.885297
v 0.660000 0.313474 1.810329
v 0.660000 0.488401 -1.685297
v 0.840000 1.811599 1.885297
v 0.660000 1.811599 1.885297
v 0.840000 1.986526 -1.610329
v 0.660000 1.811599 1.885297
v 0.660000 1.986526 -1.610329
v 0.840000 1.986526 -1.610329
v 0.660000 0.313474 1.810329
v 0.840000 0.313474 1.810329
v 0.660000 0.488401 -1.685297
v 0.840000 0.313474 1.810329
v 0.840000 0.488401 -1.685297
v 0.660000 0.488401 -1.685297
v 2.160000 1.811599 1.885297
v 2.340000 1.811599 1.885297
v 2.160000 0.313474 1.810329
v 2.340000 1.811599 1.885297
v 2.340000 0.313474 1.810329
v 2.160000 0.313474 1.810329
v 2.340000 1.986526 -1.610329
v 2.160000 1.986526 -1.610329
v 2.340000 0.488401 -1.685297
v 2.160000 1.986526 -1.610329
v 2.160000 0.488401 -1.685297
v 2.340000 0.488401 -1.685297
v 2.340000 1.811599 1.885297
v 2.340000 1.986526 -1.610329
v 2.340000 0.313474 1.810329
v 2.340000 1.986526 -1.610329
v 2.340000 0.488401 -1.685297
v 2.340000 0.313474 1.810329
v 2.160000 1.986526 -1.610329
v 2.160000 1.811599 1.885297
v 2.160000 0.488401 -1.685297
v 2.160000 1.811599 1.885297
v 2.160000 0.313474 1.810329
v 2.160000 0.488401 -1.685297
v 2.340000 1.811599 1.885297
v 2.160000 1.811599 1.885297
v 2.340000 1.986526 -1.610329
v 2.160000 1.811599 1.885297
v 2.160000 1.986526 -1.610329
v 2.340000 1.986526 -1.610329
v 2.160000 0.313474 1.810329
v 2.340000 0.313474 1.810329
v 2.160000 0.488401 -1.685297
v 2.340000 0.313474 1.810329
v 2.340000 0.488401 -1.685297
v 2.160000 0.488401 -1.685297
v -3.963224 1.182718 3.840529
v -1.980863 0.532801 3.600007
v -4.013455 1.014616 3.880762
v -1.980863 0.532801 3.600007
v -2.031094 0.364699 3.640239
v -4.013455 1.014616 3.880762
v -2.086545 0.425384 3.019238
v -4.068906 1.075301 3.259761
v -2.136776 0.257282 3.059471
v -4.068906 1.075301 3.259761
v -4.119137 0.907199 3.299993
v -2.136776 0.257282 3.059471
v -1.980863 0.532801 3.600007
v -2.086545 0.425384 3.019238
v -2.031094 0.364699 3.640239
v -2.086545 0.425384 3.019238
v -2.136776 0.257282 3.059471
v -2.031094 0.364699 3.640239
v -4.068906 1.075301 3.259761
v -3.963224 1.182718 3.840529
v -4.119137 0.907199 3.299993
v -3.963224 1.182718 3.840529
v -4.013455 1.014616 3.880762
v -4.119137 0.907199 3.299993
v -1.980863 0.532801 3.600007
v -3.963224 1.182718 3.840529
v -2.086545 0.425384 3.019238
v -3.963224 1.182718 3.840529
v -4.068906 1.075301 3.259761
v -2.086545 0.425384 3.019238
v -4.013455 1.014616 3.880762
v -2.031094 0.364699 3.640239
v -4.119137 0.907199 3.299993
v -2.031094 0.364699 3.640239
v -2.136776 0.257282 3.059471
v -4.119137 0.907199 3.299993
v 1.628077 0.532801 3.678596
v 3.605232 1.182718 3.958715
v 1.677493 0.364699 3.719825
v 3.605232 1.182718 3.958715
v 3.654648 1.014616 3.999943
v 1.677493 0.364699 3.719825
v 3.722507 1.075301 3.380175
v 1.745352 0.425384 3.100057
v 3.771924 0.907199 3.421404
v 1.745352 0.425384 3.100057
v 1.794769 0.257282 3.141285
v 3.771924 0.907199 3.421404
v 3.605232 1.182718 3.958715
v 3.722507 1.075301 3.380175
v 3.654648 1.014616 3.999943
v 3.722507 1.075301 3.380175
v 3.771924 0.907199 3.421404
v 3.654648 1.014616 3.999943
v 1.745352 0.425384 3.100057
v 1.628077 0.532801 3.678596
v 1.794769 0.257282 3.141285
v 1.628077 0.532801 3.678596
v 1.677493 0.364699 3.719825
v 1.794769 0.257282 3.141285
v 3.605232 1.182718 3.958715
v 1.628077 0.532801 3.678596
v 3.722507 1.075301 3.380175
v 1.628077 0.532801 3.678596
v 1.745352 0.425384 3.100057
v 3.722507 1.075301 3.380175
v 1.677493 0.364699 3.719825
v 3.654648 1.014616 3.999943
v 1.794769 0.257282 3.141285
v 3.654648 1.014616 3.999943
v 3.771924 0.907199 3.421404
v 1.794769 0.257282 3.141285
v 4.034600 1.755000 1.312519
v 4.779207 1.755000 1.402303
v 4.034600 0.205000 1.312519
v 4.779207 1.755000 1.402303
v 4.779207 0.205000 1.402303
v 4.034600 0.205000 1.312519
v 4.865399 1.755000 0.687481
v 4.120793 1.755000 0.597697
v 4.865399 0.205000 0.687481
v 4.120793 1.755000 0.597697
v 4.120793 0.205000 0.597697
v 4.865399 0.205000 0.687481
v 4.779207 1.755000 1.402303
v 4.865399 1.755000 0.687481
v 4.779207 0.205000 1.402303
v 4.865399 1.755000 0.687481
v 4.865399 0.205000 0.687481
v 4.779207 0.205000 1.402303
v 4.120793 1.755000 0.597697
v 4.034600 1.755000 1.312519
v 4.120793 0.205000 0.597697
v 4.034600 1.755000 1.312519
v 4.034600 0.205000 1.312519
v 4.120793 0.205000 0.597697
v 4.779207 1.755000 1.402303
v 4.034600 1.755000 1.312519
v 4.865399 1.755000 0.687481
v 4.034600 1.755000 1.312519
v 4.120793 1.755000 0.597697
v 4.865399 1.755000 0.687481
v 4.034600 0.205000 1.312519
v 4.779207 0.205000 1.402303
v 4.120793 0.205000 0.597697
v 4.779207 0.205000 1.402303
v 4.865399 0.205000 0.687481
v 4.120793 0.205000 0.597697
vt 0.737500 0.482422
vt 0.375000 0.482422
vt 0.737500 0.433672
vt 0.375000 0.482422
vt 0.375000 0.433672
vt 0.737500 0.433672
vt 0.366406 0.482422
vt 0.003906 0.482422
vt 0.366406 0.433672
vt 0.003906 0.482422
vt 0.003906 0.433672
vt 0.366406 0.433672
vt 0.968437 0.542969
vt 0.960938 0.542969
vt 0.968437 0.494219
vt 0.960938 0.542969
vt 0.960938 0.494219
vt 0.968437 0.494219
vt 0.952812 0.542969
vt 0.945313 0.542969
vt 0.952812 0.494219
vt 0.945313 0.542969
vt 0.945313 0.494219
vt 0.952812 0.494219
vt 0.737500 0.425781
vt 0.375000 0.425781
vt 0.737500 0.418281
vt 0.375000 0.425781
vt 0.375000 0.418281
vt 0.737500 0.418281
vt 0.003906 0.418281
vt 0.366406 0.418281
vt 0.003906 0.425781
vt 0.366406 0.418281
vt 0.366406 0.425781
vt 0.003906 0.425781
vt 0.560078 0.656250
vt 0.548828 0.656250
vt 0.560078 0.562617
vt 0.548828 0.656250
vt 0.548828 0.562617
vt 0.560078 0.562617
vt 0.540547 0.656250
vt 0.529297 0.656250
vt 0.540547 0.562617
vt 0.529297 0.656250
vt 0.529297 0.562617
vt 0.540547 0.562617
vt 0.227068 0.645317
vt 0.008592 0.656250
vt 0.222383 0.551684
vt 0.008592 0.656250
vt 0.003906 0.562617
vt 0.222383 0.551684
vt 0.919649 0.769531
vt 0.701172 0.758598
vt 0.924334 0.675898
vt 0.701172 0.758598
vt 0.705857 0.664965
vt 0.924334 0.675898
vt 0.132344 0.996094
vt 0.121094 0.996094
vt 0.132344 0.777617
vt 0.121094 0.996094
vt 0.121094 0.777617
vt 0.132344 0.777617
vt 0.140625 0.777617
vt 0.151875 0.777617
vt 0.140625 0.996094
vt 0.151875 0.777617
vt 0.151875 0.996094
vt 0.140625 0.996094
vt 0.481953 0.656250
vt 0.470703 0.656250
vt 0.481953 0.562617
vt 0.470703 0.656250
vt 0.470703 0.562617
vt 0.481953 0.562617
vt 0.462422 0.656250
vt 0.451172 0.656250
vt 0.462422 0.562617
vt 0.451172 0.656250
vt 0.451172 0.562617
vt 0.462422 0.562617
vt 0.691912 0.758598
vt 0.473436 0.769531
vt 0.687227 0.664965
vt 0.473436 0.769531
vt 0.468750 0.675898
vt 0.687227 0.664965
vt 0.454805 0.769531
vt 0.236328 0.758598
vt 0.459490 0.675898
vt 0.236328 0.758598
vt 0.241014 0.664965
vt 0.459490 0.675898
vt 0.112813 0.996094
vt 0.101563 0.996094
vt 0.112813 0.777617
vt 0.101563 0.996094
vt 0.101563 0.777617
vt 0.112813 0.777617
vt 0.082031 0.777617
vt 0.093281 0.777617
vt 0.082031 0.996094
vt 0.093281 0.777617
vt 0.093281 0.996094
vt 0.082031 0.996094
vt 0.501484 0.656250
vt 0.490234 0.656250
vt 0.501484 0.562617
vt 0.490234 0.656250
vt 0.490234 0.562617
vt 0.501484 0.562617
vt 0.521016 0.656250
vt 0.509766 0.656250
vt 0.521016 0.562617
vt 0.509766 0.656250
vt 0.509766 0.562617
vt 0.521016 0.562617
vt 0.227068 0.758598
vt 0.008592 0.769531
vt 0.222383 0.664965
vt 0.008592 0.769531
vt 0.003906 0.675898
vt 0.222383 0.664965
vt 0.843477 0.996094
vt 0.625000 0.985161
vt 0.848162 0.902461
vt 0.625000 0.985161
vt 0.629686 0.891528
vt 0.848162 0.902461
vt 0.073750 0.996094
vt 0.062500 0.996094
vt 0.073750 0.777617
vt 0.062500 0.996094
vt 0.062500 0.777617
vt 0.073750 0.777617
vt 0.042969 0.777617
vt 0.054219 0.777617
vt 0.042969 0.996094
vt 0.054219 0.777617
vt 0.054219 0.996094
vt 0.042969 0.996094
vt 0.579609 0.656250
vt 0.568359 0.656250
vt 0.579609 0.562617
vt 0.568359 0.656250
vt 0.568359 0.562617
vt 0.579609 0.562617
vt 0.599141 0.656250
vt 0.587891 0.656250
vt 0.599141 0.562617
vt 0.587891 0.656250
vt 0.587891 0.562617
vt 0.599141 0.562617
vt 0.615740 0.985161
vt 0.397264 0.996094
vt 0.611055 0.891528
vt 0.397264 0.996094
vt 0.392578 0.902461
vt 0.611055 0.891528
vt 0.378633 0.996094
vt 0.160156 0.985161
vt 0.383318 0.902461
vt 0.160156 0.985161
vt 0.164842 0.891528
vt 0.383318 0.902461
vt 0.034687 0.996094
vt 0.023438 0.996094
vt 0.034687 0.777617
vt 0.023438 0.996094
vt 0.023438 0.777617
vt 0.034687 0.777617
vt 0.003906 0.777617
vt 0.015156 0.777617
vt 0.003906 0.996094
vt 0.015156 0.777617
vt 0.015156 0.996094
vt 0.003906 0.996094
vt 0.811398 0.542969
vt 0.687500 0.502349
vt 0.814537 0.532462
vt 0.687500 0.502349
vt 0.690639 0.491843
vt 0.814537 0.532462
vt 0.677818 0.502349
vt 0.553921 0.542969
vt 0.674679 0.491843
vt 0.553921 0.542969
vt 0.550781 0.532462
vt 0.674679 0.491843
vt 0.923017 0.482422
vt 0.886719 0.475708
vt 0.925531 0.471915
vt 0.886719 0.475708
vt 0.889233 0.465202
vt 0.925531 0.471915
vt 0.878656 0.475708
vt 0.842358 0.482422
vt 0.876142 0.465202
vt 0.842358 0.482422
vt 0.839844 0.471915
vt 0.876142 0.465202
vt 0.273081 0.527936
vt 0.149183 0.542969
vt 0.266476 0.491638
vt 0.149183 0.542969
vt 0.142578 0.506671
vt 0.266476 0.491638
vt 0.010511 0.491638
vt 0.134409 0.506671
vt 0.003906 0.527936
vt 0.134409 0.506671
vt 0.127804 0.542969
vt 0.003906 0.527936
vt 0.407911 0.502349
vt 0.284339 0.542969
vt 0.404822 0.491843
vt 0.284339 0.542969
vt 0.281250 0.532462
vt 0.404822 0.491843
vt 0.539588 0.542969
vt 0.416016 0.502349
vt 0.542676 0.532462
vt 0.416016 0.502349
vt 0.419104 0.491843
vt 0.542676 0.532462
vt 0.782252 0.482422
vt 0.746094 0.475708
vt 0.784829 0.471915
vt 0.746094 0.475708
vt 0.748671 0.465202
vt 0.784829 0.471915
vt 0.831704 0.475708
vt 0.795546 0.482422
vt 0.829127 0.465202
vt 0.795546 0.482422
vt 0.792969 0.471915
vt 0.829127 0.465202
vt 0.871619 0.656250
vt 0.748047 0.638743
vt 0.878949 0.620091
vt 0.748047 0.638743
vt 0.755377 0.602584
vt 0.878949 0.620091
vt 0.607422 0.620091
vt 0.730994 0.602584
vt 0.614752 0.656250
vt 0.730994 0.602584
vt 0.738324 0.638743
vt 0.614752 0.656250
vt 0.282866 0.656250
vt 0.236328 0.656250
vt 0.282866 0.559375
vt 0.236328 0.656250
vt 0.236328 0.559375
vt 0.282866 0.559375
vt 0.337554 0.656250
vt 0.291016 0.656250
vt 0.337554 0.559375
vt 0.291016 0.656250
vt 0.291016 0.559375
vt 0.337554 0.559375
vt 0.390380 0.656250
vt 0.345703 0.656250
vt 0.390380 0.559375
vt 0.345703 0.656250
vt 0.345703 0.559375
vt 0.390380 0.559375
vt 0.443114 0.656250
vt 0.398438 0.656250
vt 0.443114 0.559375
vt 0.398438 0.656250
vt 0.398438 0.559375
vt 0.443114 0.559375
vt 0.870757 0.542969
vt 0.824219 0.537357
vt 0.876144 0.498292
vt 0.824219 0.537357
vt 0.829606 0.492681
vt 0.876144 0.498292
vt 0.884766 0.498292
vt 0.931304 0.492681
vt 0.890153 0.542969
vt 0.931304 0.492681
vt 0.936691 0.537357
vt 0.890153 0.542969
f 1/1 2/2 3/3
f 4/4 5/5 6/6
f 7/7 8/8 9/9
f 10/10 11/11 12/12
f 13/13 14/14 15/15
f 16/16 17/17 18/18
f 19/19 20/20 21/21
f 22/22 23/23 24/24
f 25/25 26/26 27/27
f 28/28 29/29 30/30
f 31/31 32/32 33/33
f 34/34 35/35 36/36
f 37/37 38/38 39/39
f 40/40 41/41 42/42
f 43/43 44/44 45/45
f 46/46 47/47 48/48
f 49/49 50/50 51/51
f 52/52 53/53 54/54
f 55/55 56/56 57/57
f 58/58 59/59 60/60
f 61/61 62/62 63/63
f 64/64 65/65 66/66
f 67/67 68/68 69/69
f 70/70 71/71 72/72
f 73/73 74/74 75/75
f 76/76 77/77 78/78
f 79/79 80/80 81/81
f 82/82 83/83 84/84
f 85/85 86/86 87/87
f 88/88 89/89 90/90
f 91/91 92/92 93/93
f 94/94 95/95 96/96
f 97/97 98/98 99/99
f 100/100 101/101 102/102
f 103/103 104/104 105/105
f 106/106 107/107 108/108
f 109/109 110/110 111/111
f 112/112 113/113 114/114
f 115/115 116/116 117/117
f 118/118 119/119 120/120
f 121/121 122/122 123/123
f 124/124 125/125 126/126
f 127/127 128/128 129/129
f 130/130 131/131 132/132
f 133/133 134/134 135/135
f 136/136 137/137 138/138
f 139/139 140/140 141/141
f 142/142 143/143 144/144
f 145/145 146/146 147/147
f 148/148 149/149 150/150
f 151/151 152/152 153/153
f 154/154 155/155 156/156
f 157/157 158/158 159/159
f 160/160 161/161 162/162
f 163/163 164/164 165/165
f 166/166 167/167 168/168
f 169/169 170/170 171/171
f 172/172 173/173 174/174
f 175/175 176/176 177/177
f 178/178 179/179 180/180
f 181/181 182/182 183/183
f 184/184 185/185 186/186
f 187/187 188/188 189/189
f 190/190 191/191 192/192
f 193/193 194/194 195/195
f 196/196 197/197 198/198
f 199/199 200/200 201/201
f 202/202 203/203 204/204
f 205/205 206/206 207/207
f 208/208 209/209 210/210
f 211/211 212/212 213/213
f 214/214 215/215 216/216
f 217/217 218/218 219/219
f 220/220 221/221 222/222
f 223/223 224/224 225/225
f 226/226 227/227 228/228
f 229/229 230/230 231/231
f 232/232 233/233 234/234
f 235/235 236/236 237/237
f 238/238 239/239 240/240
f 241/241 242/242 243/243
f 244/244 245/245 246/246
f 247/247 248/248 249/249
f 250/250 251/251 252/252
f 253/253 254/254 255/255
f 256/256 257/257 258/258
f 259/259 260/260 261/261
f 262/262 263/263 264/264
f 265/265 266/266 267/267
f 268/268 269/269 270/270
f 271/271 272/272 273/273
f 274/274 275/275 276/276
f 277/277 278/278 279/279
f 280/280 281/281 282/282
f 283/283 284/284 285/285
f 286/286 287/287 288/288
