mtllib cleanstreets_toll_pavilion_screen.mtl
usemtl baked
v 4.138733 1.410000 1.366089
v 4.615282 1.410000 1.423551
v 4.138733 0.990000 1.366089
v 4.615282 1.410000 1.423551
v 4.615282 0.990000 1.423551
v 4.138733 0.990000 1.366089
v 4.621267 1.410000 1.373911
v 4.144719 1.410000 1.316449
v 4.621267 0.990000 1.373911
v 4.144719 1.410000 1.316449
v 4.144719 0.990000 1.316449
v 4.621267 0.990000 1.373911
v 4.615282 1.410000 1.423551
v 4.621267 1.410000 1.373911
v 4.615282 0.990000 1.423551
v 4.621267 1.410000 1.373911
v 4.621267 0.990000 1.373911
v 4.615282 0.990000 1.423551
v 4.144719 1.410000 1.316449
v 4.138733 1.410000 1.366089
v 4.144719 0.990000 1.316449
v 4.138733 1.410000 1.366089
v 4.138733 0.990000 1.366089
v 4.144719 0.990000 1.316449
v 4.615282 1.410000 1.423551
v 4.138733 1.410000 1.366089
v 4.621267 1.410000 1.373911
v 4.138733 1.410000 1.366089
v 4.144719 1.410000 1.316449
v 4.621267 1.410000 1.373911
v 4.138733 0.990000 1.366089
v 4.615282 0.990000 1.423551
v 4.144719 0.990000 1.316449
v 4.615282 0.990000 1.423551
v 4.621267 0.990000 1.373911
v 4.144719 0.990000 1.316449
vt 0.269524 0.968750
vt 0.031250 0.968750
vt 0.269524 0.758750
vt 0.031250 0.968750
vt 0.031250 0.758750
vt 0.269524 0.758750
vt 0.582024 0.968750
vt 0.343750 0.968750
vt 0.582024 0.758750
vt 0.343750 0.968750
vt 0.343750 0.758750
vt 0.582024 0.758750
vt 0.681070 0.968750
vt 0.656250 0.968750
vt 0.681070 0.758750
vt 0.656250 0.968750
vt 0.656250 0.758750
vt 0.681070 0.758750
vt 0.774820 0.968750
vt 0.750000 0.968750
vt 0.774820 0.758750
vt 0.750000 0.968750
vt 0.750000 0.758750
vt 0.774820 0.758750
vt 0.269524 0.687500
vt 0.031250 0.658769
vt 0.272517 0.662680
vt 0.031250 0.658769
vt 0.034243 0.633949
vt 0.272517 0.662680
vt 0.343750 0.662680
vt 0.582024 0.633949
vt 0.346743 0.687500
vt 0.582024 0.633949
vt 0.585017 0.658769
vt 0.346743 0.687500
f 1/1 2/2 3/3
f 4/4 5/5 6/6
f 7/7 8/8 9/9
f 10/10 11/11 12/12
f 13/13 14/14 15/15
f 16/16 17/17 18/18
f 19/19 20/20 21/21
f 22/22 23/23 24/24
f 25/25 26/26 27/27
f 28/28 29/29 30/30
f 31/31 32/32 33/33
f 34/34 35/35 36/36
