{
	"asset":{
		"generator":"Khronos glTF Blender I/O v5.1.19",
		"version":"2.0"
	},
	"extensionsUsed":[
		"KHR_materials_emissive_strength"
	],
	"scene":0,
	"scenes":[
		{
			"name":"Scene",
			"nodes":[
				15
			]
		}
	],
	"nodes":[
		{
			"name":"root3_0",
			"rotation":[
				2.1073422118433882e-08,
				-0.7066230177879333,
				-0.7071068286895752,
				0.026149751618504524
			],
			"scale":[
				0.9999998807907104,
				0.9999997615814209,
				0.9999999403953552
			],
			"translation":[
				7.38932470767395e-09,
				-1.3154931366443634e-07,
				3.2378633108010035e-10
			]
		},
		{
			"name":"flash_0",
			"rotation":[
				0.00034202454844489694,
				0.01849064789712429,
				0.01849064789712429,
				0.9996579885482788
			],
			"scale":[
				0.0010000001639127731,
				0.0009999999310821295,
				0.0010000001639127731
			],
			"translation":[
				-0.009425651282072067,
				0.1798764318227768,
				-0.07470253854990005
			]
		},
		{
			"children":[
				0,
				1
			],
			"name":"vine_8",
			"rotation":[
				0.006181655451655388,
				0.062200888991355896,
				0.06201472878456116,
				0.9961159825325012
			],
			"scale":[
				1,
				1.0000001192092896,
				0.9999999403953552
			],
			"translation":[
				-2.5819624216438797e-10,
				0.3377401828765869,
				-2.513996566477772e-09
			]
		},
		{
			"children":[
				2
			],
			"name":"vine_7",
			"rotation":[
				0.00021113152615725994,
				0.0013009401736781001,
				0.0012836700771003962,
				0.9999983310699463
			],
			"scale":[
				1,
				1,
				0.9999999403953552
			],
			"translation":[
				-2.9465519801874507e-08,
				0.33788466453552246,
				-1.0972771580242124e-09
			]
		},
		{
			"name":"root2_0",
			"rotation":[
				-2.6341780312577612e-08,
				-0.6975823640823364,
				-0.7071067690849304,
				0.11566716432571411
			],
			"scale":[
				1,
				1.000000238418579,
				1.0000001192092896
			],
			"translation":[
				-2.225309536640907e-08,
				1.5273690223693848e-07,
				-3.363938017031387e-10
			]
		},
		{
			"children":[
				3,
				4
			],
			"name":"vine_6",
			"rotation":[
				-0.006273180712014437,
				-0.06052234023809433,
				-0.06030850112438202,
				0.9963235855102539
			],
			"scale":[
				0.9999999403953552,
				1.0000001192092896,
				1
			],
			"translation":[
				-3.7388541151983645e-09,
				0.3336413502693176,
				1.5022638688577672e-10
			]
		},
		{
			"children":[
				5
			],
			"name":"vine_5",
			"rotation":[
				0.002664553467184305,
				-0.07711951434612274,
				-0.07730531692504883,
				0.9940168261528015
			],
			"translation":[
				-1.4796524894222784e-08,
				0.3354305922985077,
				5.551115123125783e-17
			]
		},
		{
			"name":"root1_0",
			"rotation":[
				-3.4459766595773544e-08,
				0.7026857733726501,
				0.7071067690849304,
				0.07894819974899292
			],
			"scale":[
				0.9999999403953552,
				1.0000004768371582,
				1
			],
			"translation":[
				-1.2940412297268722e-08,
				4.190951585769653e-09,
				-1.1060137250495927e-09
			]
		},
		{
			"children":[
				6,
				7
			],
			"name":"vine_4",
			"rotation":[
				0.005013553891330957,
				-0.03437475487589836,
				-0.034027762711048126,
				0.998816967010498
			],
			"translation":[
				3.166496753692627e-08,
				0.3388497531414032,
				4.6566128730773926e-09
			]
		},
		{
			"children":[
				8
			],
			"name":"vine_3",
			"rotation":[
				-0.004879539366811514,
				0.03318971022963524,
				0.0328475758433342,
				0.9988972544670105
			],
			"scale":[
				0.9999998807907104,
				0.9999999403953552,
				1
			],
			"translation":[
				3.725290298461914e-09,
				0.33552107214927673,
				-1.734723475976807e-17
			]
		},
		{
			"name":"root0_0",
			"rotation":[
				2.3707601215505747e-08,
				0.7024961709976196,
				0.7071067690849304,
				0.0806172639131546
			],
			"scale":[
				1,
				0.9999997615814209,
				0.9999999403953552
			],
			"translation":[
				-7.446259164822777e-09,
				-7.031485438346863e-08,
				-5.033190531023024e-10
			]
		},
		{
			"children":[
				9,
				10
			],
			"name":"vine_2",
			"rotation":[
				-0.0028604872059077024,
				0.07681778073310852,
				0.0769936591386795,
				0.9940637946128845
			],
			"scale":[
				0.9999999403953552,
				0.9999999403953552,
				1
			],
			"translation":[
				5.587935447692871e-09,
				0.3336000144481659,
				-2.3283067140944524e-10
			]
		},
		{
			"children":[
				11
			],
			"name":"vine_1",
			"rotation":[
				0.006230975966900587,
				0.06137009337544441,
				0.06116990000009537,
				0.9962193965911865
			],
			"scale":[
				1,
				0.9999998807907104,
				0.9999998807907104
			],
			"translation":[
				0,
				0.33781319856643677,
				-1.9081958235744878e-17
			]
		},
		{
			"children":[
				12
			],
			"name":"vine_0",
			"rotation":[
				-0.006630680989474058,
				-0.0811585858464241,
				-0.0811585858464241,
				0.9933693408966064
			]
		},
		{
			"mesh":0,
			"name":"ClimbvineRigged",
			"skin":0
		},
		{
			"children":[
				14,
				13
			],
			"name":"Climbvine_Armature"
		}
	],
	"animations":[
		{
			"channels":[
				{
					"sampler":0,
					"target":{
						"node":13,
						"path":"translation"
					}
				},
				{
					"sampler":1,
					"target":{
						"node":13,
						"path":"rotation"
					}
				},
				{
					"sampler":2,
					"target":{
						"node":13,
						"path":"scale"
					}
				},
				{
					"sampler":3,
					"target":{
						"node":12,
						"path":"translation"
					}
				},
				{
					"sampler":4,
					"target":{
						"node":12,
						"path":"rotation"
					}
				},
				{
					"sampler":5,
					"target":{
						"node":12,
						"path":"scale"
					}
				},
				{
					"sampler":6,
					"target":{
						"node":11,
						"path":"translation"
					}
				},
				{
					"sampler":7,
					"target":{
						"node":11,
						"path":"rotation"
					}
				},
				{
					"sampler":8,
					"target":{
						"node":11,
						"path":"scale"
					}
				},
				{
					"sampler":9,
					"target":{
						"node":9,
						"path":"translation"
					}
				},
				{
					"sampler":10,
					"target":{
						"node":9,
						"path":"rotation"
					}
				},
				{
					"sampler":11,
					"target":{
						"node":9,
						"path":"scale"
					}
				},
				{
					"sampler":12,
					"target":{
						"node":8,
						"path":"translation"
					}
				},
				{
					"sampler":13,
					"target":{
						"node":8,
						"path":"rotation"
					}
				},
				{
					"sampler":14,
					"target":{
						"node":8,
						"path":"scale"
					}
				},
				{
					"sampler":15,
					"target":{
						"node":6,
						"path":"translation"
					}
				},
				{
					"sampler":16,
					"target":{
						"node":6,
						"path":"rotation"
					}
				},
				{
					"sampler":17,
					"target":{
						"node":6,
						"path":"scale"
					}
				},
				{
					"sampler":18,
					"target":{
						"node":5,
						"path":"translation"
					}
				},
				{
					"sampler":19,
					"target":{
						"node":5,
						"path":"rotation"
					}
				},
				{
					"sampler":20,
					"target":{
						"node":5,
						"path":"scale"
					}
				},
				{
					"sampler":21,
					"target":{
						"node":3,
						"path":"translation"
					}
				},
				{
					"sampler":22,
					"target":{
						"node":3,
						"path":"rotation"
					}
				},
				{
					"sampler":23,
					"target":{
						"node":3,
						"path":"scale"
					}
				},
				{
					"sampler":24,
					"target":{
						"node":2,
						"path":"translation"
					}
				},
				{
					"sampler":25,
					"target":{
						"node":2,
						"path":"rotation"
					}
				},
				{
					"sampler":26,
					"target":{
						"node":2,
						"path":"scale"
					}
				},
				{
					"sampler":27,
					"target":{
						"node":0,
						"path":"translation"
					}
				},
				{
					"sampler":28,
					"target":{
						"node":0,
						"path":"rotation"
					}
				},
				{
					"sampler":29,
					"target":{
						"node":0,
						"path":"scale"
					}
				},
				{
					"sampler":30,
					"target":{
						"node":1,
						"path":"translation"
					}
				},
				{
					"sampler":31,
					"target":{
						"node":1,
						"path":"rotation"
					}
				},
				{
					"sampler":32,
					"target":{
						"node":1,
						"path":"scale"
					}
				},
				{
					"sampler":33,
					"target":{
						"node":4,
						"path":"translation"
					}
				},
				{
					"sampler":34,
					"target":{
						"node":4,
						"path":"rotation"
					}
				},
				{
					"sampler":35,
					"target":{
						"node":4,
						"path":"scale"
					}
				},
				{
					"sampler":36,
					"target":{
						"node":7,
						"path":"translation"
					}
				},
				{
					"sampler":37,
					"target":{
						"node":7,
						"path":"rotation"
					}
				},
				{
					"sampler":38,
					"target":{
						"node":7,
						"path":"scale"
					}
				},
				{
					"sampler":39,
					"target":{
						"node":10,
						"path":"translation"
					}
				},
				{
					"sampler":40,
					"target":{
						"node":10,
						"path":"rotation"
					}
				},
				{
					"sampler":41,
					"target":{
						"node":10,
						"path":"scale"
					}
				}
			],
			"name":"climbvine_tend",
			"samplers":[
				{
					"input":7,
					"interpolation":"STEP",
					"output":8
				},
				{
					"input":7,
					"interpolation":"STEP",
					"output":9
				},
				{
					"input":7,
					"interpolation":"STEP",
					"output":10
				},
				{
					"input":7,
					"interpolation":"STEP",
					"output":11
				},
				{
					"input":7,
					"interpolation":"STEP",
					"output":12
				},
				{
					"input":7,
					"interpolation":"STEP",
					"output":13
				},
				{
					"input":7,
					"interpolation":"STEP",
					"output":14
				},
				{
					"input":7,
					"interpolation":"STEP",
					"output":15
				},
				{
					"input":7,
					"interpolation":"STEP",
					"output":16
				},
				{
					"input":7,
					"interpolation":"STEP",
					"output":17
				},
				{
					"input":7,
					"interpolation":"STEP",
					"output":18
				},
				{
					"input":7,
					"interpolation":"STEP",
					"output":19
				},
				{
					"input":7,
					"interpolation":"STEP",
					"output":20
				},
				{
					"input":7,
					"interpolation":"STEP",
					"output":21
				},
				{
					"input":7,
					"interpolation":"STEP",
					"output":22
				},
				{
					"input":7,
					"interpolation":"STEP",
					"output":23
				},
				{
					"input":7,
					"interpolation":"STEP",
					"output":24
				},
				{
					"input":7,
					"interpolation":"STEP",
					"output":25
				},
				{
					"input":7,
					"interpolation":"STEP",
					"output":26
				},
				{
					"input":7,
					"interpolation":"STEP",
					"output":27
				},
				{
					"input":7,
					"interpolation":"STEP",
					"output":28
				},
				{
					"input":7,
					"interpolation":"STEP",
					"output":29
				},
				{
					"input":7,
					"interpolation":"STEP",
					"output":30
				},
				{
					"input":7,
					"interpolation":"STEP",
					"output":31
				},
				{
					"input":7,
					"interpolation":"STEP",
					"output":32
				},
				{
					"input":7,
					"interpolation":"STEP",
					"output":33
				},
				{
					"input":34,
					"interpolation":"LINEAR",
					"output":35
				},
				{
					"input":7,
					"interpolation":"STEP",
					"output":36
				},
				{
					"input":7,
					"interpolation":"STEP",
					"output":37
				},
				{
					"input":34,
					"interpolation":"LINEAR",
					"output":38
				},
				{
					"input":7,
					"interpolation":"STEP",
					"output":39
				},
				{
					"input":7,
					"interpolation":"STEP",
					"output":40
				},
				{
					"input":34,
					"interpolation":"LINEAR",
					"output":41
				},
				{
					"input":7,
					"interpolation":"STEP",
					"output":42
				},
				{
					"input":7,
					"interpolation":"STEP",
					"output":43
				},
				{
					"input":7,
					"interpolation":"STEP",
					"output":44
				},
				{
					"input":7,
					"interpolation":"STEP",
					"output":45
				},
				{
					"input":7,
					"interpolation":"STEP",
					"output":46
				},
				{
					"input":7,
					"interpolation":"STEP",
					"output":47
				},
				{
					"input":7,
					"interpolation":"STEP",
					"output":48
				},
				{
					"input":7,
					"interpolation":"STEP",
					"output":49
				},
				{
					"input":7,
					"interpolation":"STEP",
					"output":50
				}
			]
		},
		{
			"channels":[
				{
					"sampler":0,
					"target":{
						"node":13,
						"path":"translation"
					}
				},
				{
					"sampler":1,
					"target":{
						"node":13,
						"path":"rotation"
					}
				},
				{
					"sampler":2,
					"target":{
						"node":13,
						"path":"scale"
					}
				},
				{
					"sampler":3,
					"target":{
						"node":12,
						"path":"translation"
					}
				},
				{
					"sampler":4,
					"target":{
						"node":12,
						"path":"rotation"
					}
				},
				{
					"sampler":5,
					"target":{
						"node":12,
						"path":"scale"
					}
				},
				{
					"sampler":6,
					"target":{
						"node":11,
						"path":"translation"
					}
				},
				{
					"sampler":7,
					"target":{
						"node":11,
						"path":"rotation"
					}
				},
				{
					"sampler":8,
					"target":{
						"node":11,
						"path":"scale"
					}
				},
				{
					"sampler":9,
					"target":{
						"node":9,
						"path":"translation"
					}
				},
				{
					"sampler":10,
					"target":{
						"node":9,
						"path":"rotation"
					}
				},
				{
					"sampler":11,
					"target":{
						"node":9,
						"path":"scale"
					}
				},
				{
					"sampler":12,
					"target":{
						"node":8,
						"path":"translation"
					}
				},
				{
					"sampler":13,
					"target":{
						"node":8,
						"path":"rotation"
					}
				},
				{
					"sampler":14,
					"target":{
						"node":8,
						"path":"scale"
					}
				},
				{
					"sampler":15,
					"target":{
						"node":6,
						"path":"translation"
					}
				},
				{
					"sampler":16,
					"target":{
						"node":6,
						"path":"rotation"
					}
				},
				{
					"sampler":17,
					"target":{
						"node":6,
						"path":"scale"
					}
				},
				{
					"sampler":18,
					"target":{
						"node":5,
						"path":"translation"
					}
				},
				{
					"sampler":19,
					"target":{
						"node":5,
						"path":"rotation"
					}
				},
				{
					"sampler":20,
					"target":{
						"node":5,
						"path":"scale"
					}
				},
				{
					"sampler":21,
					"target":{
						"node":3,
						"path":"translation"
					}
				},
				{
					"sampler":22,
					"target":{
						"node":3,
						"path":"rotation"
					}
				},
				{
					"sampler":23,
					"target":{
						"node":3,
						"path":"scale"
					}
				},
				{
					"sampler":24,
					"target":{
						"node":2,
						"path":"translation"
					}
				},
				{
					"sampler":25,
					"target":{
						"node":2,
						"path":"rotation"
					}
				},
				{
					"sampler":26,
					"target":{
						"node":2,
						"path":"scale"
					}
				},
				{
					"sampler":27,
					"target":{
						"node":0,
						"path":"translation"
					}
				},
				{
					"sampler":28,
					"target":{
						"node":0,
						"path":"rotation"
					}
				},
				{
					"sampler":29,
					"target":{
						"node":0,
						"path":"scale"
					}
				},
				{
					"sampler":30,
					"target":{
						"node":1,
						"path":"translation"
					}
				},
				{
					"sampler":31,
					"target":{
						"node":1,
						"path":"rotation"
					}
				},
				{
					"sampler":32,
					"target":{
						"node":1,
						"path":"scale"
					}
				},
				{
					"sampler":33,
					"target":{
						"node":4,
						"path":"translation"
					}
				},
				{
					"sampler":34,
					"target":{
						"node":4,
						"path":"rotation"
					}
				},
				{
					"sampler":35,
					"target":{
						"node":4,
						"path":"scale"
					}
				},
				{
					"sampler":36,
					"target":{
						"node":7,
						"path":"translation"
					}
				},
				{
					"sampler":37,
					"target":{
						"node":7,
						"path":"rotation"
					}
				},
				{
					"sampler":38,
					"target":{
						"node":7,
						"path":"scale"
					}
				},
				{
					"sampler":39,
					"target":{
						"node":10,
						"path":"translation"
					}
				},
				{
					"sampler":40,
					"target":{
						"node":10,
						"path":"rotation"
					}
				},
				{
					"sampler":41,
					"target":{
						"node":10,
						"path":"scale"
					}
				}
			],
			"name":"climbvine_harvest",
			"samplers":[
				{
					"input":51,
					"interpolation":"STEP",
					"output":8
				},
				{
					"input":51,
					"interpolation":"STEP",
					"output":9
				},
				{
					"input":51,
					"interpolation":"STEP",
					"output":10
				},
				{
					"input":51,
					"interpolation":"STEP",
					"output":11
				},
				{
					"input":51,
					"interpolation":"STEP",
					"output":12
				},
				{
					"input":51,
					"interpolation":"STEP",
					"output":13
				},
				{
					"input":51,
					"interpolation":"STEP",
					"output":14
				},
				{
					"input":51,
					"interpolation":"STEP",
					"output":15
				},
				{
					"input":51,
					"interpolation":"STEP",
					"output":16
				},
				{
					"input":51,
					"interpolation":"STEP",
					"output":17
				},
				{
					"input":51,
					"interpolation":"STEP",
					"output":18
				},
				{
					"input":51,
					"interpolation":"STEP",
					"output":19
				},
				{
					"input":51,
					"interpolation":"STEP",
					"output":20
				},
				{
					"input":51,
					"interpolation":"STEP",
					"output":21
				},
				{
					"input":51,
					"interpolation":"STEP",
					"output":22
				},
				{
					"input":51,
					"interpolation":"STEP",
					"output":23
				},
				{
					"input":51,
					"interpolation":"STEP",
					"output":24
				},
				{
					"input":51,
					"interpolation":"STEP",
					"output":25
				},
				{
					"input":51,
					"interpolation":"STEP",
					"output":26
				},
				{
					"input":51,
					"interpolation":"STEP",
					"output":27
				},
				{
					"input":51,
					"interpolation":"STEP",
					"output":28
				},
				{
					"input":51,
					"interpolation":"STEP",
					"output":29
				},
				{
					"input":51,
					"interpolation":"STEP",
					"output":30
				},
				{
					"input":51,
					"interpolation":"STEP",
					"output":31
				},
				{
					"input":51,
					"interpolation":"STEP",
					"output":32
				},
				{
					"input":51,
					"interpolation":"STEP",
					"output":33
				},
				{
					"input":52,
					"interpolation":"LINEAR",
					"output":53
				},
				{
					"input":51,
					"interpolation":"STEP",
					"output":54
				},
				{
					"input":51,
					"interpolation":"STEP",
					"output":55
				},
				{
					"input":51,
					"interpolation":"STEP",
					"output":56
				},
				{
					"input":51,
					"interpolation":"STEP",
					"output":57
				},
				{
					"input":51,
					"interpolation":"STEP",
					"output":58
				},
				{
					"input":51,
					"interpolation":"STEP",
					"output":59
				},
				{
					"input":51,
					"interpolation":"STEP",
					"output":42
				},
				{
					"input":51,
					"interpolation":"STEP",
					"output":43
				},
				{
					"input":51,
					"interpolation":"STEP",
					"output":44
				},
				{
					"input":51,
					"interpolation":"STEP",
					"output":45
				},
				{
					"input":51,
					"interpolation":"STEP",
					"output":46
				},
				{
					"input":51,
					"interpolation":"STEP",
					"output":47
				},
				{
					"input":51,
					"interpolation":"STEP",
					"output":48
				},
				{
					"input":51,
					"interpolation":"STEP",
					"output":49
				},
				{
					"input":51,
					"interpolation":"STEP",
					"output":50
				}
			]
		},
		{
			"channels":[
				{
					"sampler":0,
					"target":{
						"node":13,
						"path":"translation"
					}
				},
				{
					"sampler":1,
					"target":{
						"node":13,
						"path":"rotation"
					}
				},
				{
					"sampler":2,
					"target":{
						"node":13,
						"path":"scale"
					}
				},
				{
					"sampler":3,
					"target":{
						"node":12,
						"path":"translation"
					}
				},
				{
					"sampler":4,
					"target":{
						"node":12,
						"path":"rotation"
					}
				},
				{
					"sampler":5,
					"target":{
						"node":12,
						"path":"scale"
					}
				},
				{
					"sampler":6,
					"target":{
						"node":11,
						"path":"translation"
					}
				},
				{
					"sampler":7,
					"target":{
						"node":11,
						"path":"rotation"
					}
				},
				{
					"sampler":8,
					"target":{
						"node":11,
						"path":"scale"
					}
				},
				{
					"sampler":9,
					"target":{
						"node":9,
						"path":"translation"
					}
				},
				{
					"sampler":10,
					"target":{
						"node":9,
						"path":"rotation"
					}
				},
				{
					"sampler":11,
					"target":{
						"node":9,
						"path":"scale"
					}
				},
				{
					"sampler":12,
					"target":{
						"node":8,
						"path":"translation"
					}
				},
				{
					"sampler":13,
					"target":{
						"node":8,
						"path":"rotation"
					}
				},
				{
					"sampler":14,
					"target":{
						"node":8,
						"path":"scale"
					}
				},
				{
					"sampler":15,
					"target":{
						"node":6,
						"path":"translation"
					}
				},
				{
					"sampler":16,
					"target":{
						"node":6,
						"path":"rotation"
					}
				},
				{
					"sampler":17,
					"target":{
						"node":6,
						"path":"scale"
					}
				},
				{
					"sampler":18,
					"target":{
						"node":5,
						"path":"translation"
					}
				},
				{
					"sampler":19,
					"target":{
						"node":5,
						"path":"rotation"
					}
				},
				{
					"sampler":20,
					"target":{
						"node":5,
						"path":"scale"
					}
				},
				{
					"sampler":21,
					"target":{
						"node":3,
						"path":"translation"
					}
				},
				{
					"sampler":22,
					"target":{
						"node":3,
						"path":"rotation"
					}
				},
				{
					"sampler":23,
					"target":{
						"node":3,
						"path":"scale"
					}
				},
				{
					"sampler":24,
					"target":{
						"node":2,
						"path":"translation"
					}
				},
				{
					"sampler":25,
					"target":{
						"node":2,
						"path":"rotation"
					}
				},
				{
					"sampler":26,
					"target":{
						"node":2,
						"path":"scale"
					}
				},
				{
					"sampler":27,
					"target":{
						"node":0,
						"path":"translation"
					}
				},
				{
					"sampler":28,
					"target":{
						"node":0,
						"path":"rotation"
					}
				},
				{
					"sampler":29,
					"target":{
						"node":0,
						"path":"scale"
					}
				},
				{
					"sampler":30,
					"target":{
						"node":1,
						"path":"translation"
					}
				},
				{
					"sampler":31,
					"target":{
						"node":1,
						"path":"rotation"
					}
				},
				{
					"sampler":32,
					"target":{
						"node":1,
						"path":"scale"
					}
				},
				{
					"sampler":33,
					"target":{
						"node":4,
						"path":"translation"
					}
				},
				{
					"sampler":34,
					"target":{
						"node":4,
						"path":"rotation"
					}
				},
				{
					"sampler":35,
					"target":{
						"node":4,
						"path":"scale"
					}
				},
				{
					"sampler":36,
					"target":{
						"node":7,
						"path":"translation"
					}
				},
				{
					"sampler":37,
					"target":{
						"node":7,
						"path":"rotation"
					}
				},
				{
					"sampler":38,
					"target":{
						"node":7,
						"path":"scale"
					}
				},
				{
					"sampler":39,
					"target":{
						"node":10,
						"path":"translation"
					}
				},
				{
					"sampler":40,
					"target":{
						"node":10,
						"path":"rotation"
					}
				},
				{
					"sampler":41,
					"target":{
						"node":10,
						"path":"scale"
					}
				}
			],
			"name":"climbvine_wither",
			"samplers":[
				{
					"input":60,
					"interpolation":"STEP",
					"output":8
				},
				{
					"input":61,
					"interpolation":"LINEAR",
					"output":62
				},
				{
					"input":60,
					"interpolation":"STEP",
					"output":63
				},
				{
					"input":60,
					"interpolation":"STEP",
					"output":64
				},
				{
					"input":60,
					"interpolation":"STEP",
					"output":65
				},
				{
					"input":61,
					"interpolation":"LINEAR",
					"output":66
				},
				{
					"input":60,
					"interpolation":"STEP",
					"output":67
				},
				{
					"input":60,
					"interpolation":"STEP",
					"output":68
				},
				{
					"input":61,
					"interpolation":"LINEAR",
					"output":69
				},
				{
					"input":60,
					"interpolation":"STEP",
					"output":70
				},
				{
					"input":60,
					"interpolation":"STEP",
					"output":71
				},
				{
					"input":61,
					"interpolation":"LINEAR",
					"output":72
				},
				{
					"input":60,
					"interpolation":"STEP",
					"output":73
				},
				{
					"input":60,
					"interpolation":"STEP",
					"output":74
				},
				{
					"input":61,
					"interpolation":"LINEAR",
					"output":75
				},
				{
					"input":60,
					"interpolation":"STEP",
					"output":76
				},
				{
					"input":60,
					"interpolation":"STEP",
					"output":77
				},
				{
					"input":61,
					"interpolation":"LINEAR",
					"output":78
				},
				{
					"input":60,
					"interpolation":"STEP",
					"output":79
				},
				{
					"input":60,
					"interpolation":"STEP",
					"output":80
				},
				{
					"input":61,
					"interpolation":"LINEAR",
					"output":81
				},
				{
					"input":60,
					"interpolation":"STEP",
					"output":82
				},
				{
					"input":60,
					"interpolation":"STEP",
					"output":83
				},
				{
					"input":61,
					"interpolation":"LINEAR",
					"output":84
				},
				{
					"input":60,
					"interpolation":"STEP",
					"output":85
				},
				{
					"input":60,
					"interpolation":"STEP",
					"output":86
				},
				{
					"input":61,
					"interpolation":"LINEAR",
					"output":87
				},
				{
					"input":60,
					"interpolation":"STEP",
					"output":88
				},
				{
					"input":61,
					"interpolation":"LINEAR",
					"output":89
				},
				{
					"input":60,
					"interpolation":"STEP",
					"output":90
				},
				{
					"input":60,
					"interpolation":"STEP",
					"output":91
				},
				{
					"input":60,
					"interpolation":"STEP",
					"output":92
				},
				{
					"input":60,
					"interpolation":"STEP",
					"output":93
				},
				{
					"input":60,
					"interpolation":"STEP",
					"output":94
				},
				{
					"input":61,
					"interpolation":"LINEAR",
					"output":95
				},
				{
					"input":60,
					"interpolation":"STEP",
					"output":96
				},
				{
					"input":60,
					"interpolation":"STEP",
					"output":97
				},
				{
					"input":61,
					"interpolation":"LINEAR",
					"output":98
				},
				{
					"input":60,
					"interpolation":"STEP",
					"output":99
				},
				{
					"input":60,
					"interpolation":"STEP",
					"output":100
				},
				{
					"input":61,
					"interpolation":"LINEAR",
					"output":101
				},
				{
					"input":60,
					"interpolation":"STEP",
					"output":102
				}
			]
		}
	],
	"materials":[
		{
			"alphaMode":"MASK",
			"doubleSided":true,
			"emissiveFactor":[
				1,
				1,
				1
			],
			"emissiveTexture":{
				"index":0
			},
			"extensions":{
				"KHR_materials_emissive_strength":{
					"emissiveStrength":3.4000000953674316
				}
			},
			"name":"ClimbvineRiggedTex",
			"pbrMetallicRoughness":{
				"baseColorTexture":{
					"index":1
				},
				"metallicFactor":0,
				"roughnessFactor":0.8999999761581421
			}
		}
	],
	"meshes":[
		{
			"name":"ClimbvineRigged",
			"primitives":[
				{
					"attributes":{
						"POSITION":0,
						"NORMAL":1,
						"TEXCOORD_0":2,
						"JOINTS_0":3,
						"WEIGHTS_0":4
					},
					"indices":5,
					"material":0
				}
			]
		}
	],
	"textures":[
		{
			"sampler":0,
			"source":0
		},
		{
			"sampler":0,
			"source":1
		}
	],
	"images":[
		{
			"mimeType":"image/png",
			"name":"ClimbvineRigged_emissive",
			"uri":"ClimbvineRigged_emissive.png"
		},
		{
			"mimeType":"image/png",
			"name":"ClimbvineRigged_tex",
			"uri":"ClimbvineRigged_tex.png"
		}
	],
	"skins":[
		{
			"inverseBindMatrices":6,
			"joints":[
				13,
				12,
				11,
				9,
				8,
				6,
				5,
				3,
				2,
				0,
				1,
				4,
				7,
				10
			],
			"name":"Climbvine_Armature"
		}
	],
	"accessors":[
		{
			"bufferView":0,
			"componentType":5126,
			"count":356,
			"max":[
				0.3330061137676239,
				3.0466666221618652,
				0.06626666337251663
			],
			"min":[
				-0.28961315751075745,
				-0.00811585783958435,
				-0.07500000298023224
			],
			"type":"VEC3"
		},
		{
			"bufferView":1,
			"componentType":5126,
			"count":356,
			"type":"VEC3"
		},
		{
			"bufferView":2,
			"componentType":5126,
			"count":356,
			"type":"VEC2"
		},
		{
			"bufferView":3,
			"componentType":5121,
			"count":356,
			"type":"VEC4"
		},
		{
			"bufferView":4,
			"componentType":5126,
			"count":356,
			"type":"VEC4"
		},
		{
			"bufferView":5,
			"componentType":5123,
			"count":546,
			"type":"SCALAR"
		},
		{
			"bufferView":6,
			"componentType":5126,
			"count":14,
			"type":"MAT4"
		},
		{
			"bufferView":7,
			"componentType":5126,
			"count":2,
			"max":[
				7
			],
			"min":[
				0.041666666666666664
			],
			"type":"SCALAR"
		},
		{
			"bufferView":8,
			"componentType":5126,
			"count":2,
			"type":"VEC3"
		},
		{
			"bufferView":9,
			"componentType":5126,
			"count":2,
			"type":"VEC4"
		},
		{
			"bufferView":10,
			"componentType":5126,
			"count":2,
			"type":"VEC3"
		},
		{
			"bufferView":11,
			"componentType":5126,
			"count":2,
			"type":"VEC3"
		},
		{
			"bufferView":12,
			"componentType":5126,
			"count":2,
			"type":"VEC4"
		},
		{
			"bufferView":13,
			"componentType":5126,
			"count":2,
			"type":"VEC3"
		},
		{
			"bufferView":14,
			"componentType":5126,
			"count":2,
			"type":"VEC3"
		},
		{
			"bufferView":15,
			"componentType":5126,
			"count":2,
			"type":"VEC4"
		},
		{
			"bufferView":16,
			"componentType":5126,
			"count":2,
			"type":"VEC3"
		},
		{
			"bufferView":17,
			"componentType":5126,
			"count":2,
			"type":"VEC3"
		},
		{
			"bufferView":18,
			"componentType":5126,
			"count":2,
			"type":"VEC4"
		},
		{
			"bufferView":19,
			"componentType":5126,
			"count":2,
			"type":"VEC3"
		},
		{
			"bufferView":20,
			"componentType":5126,
			"count":2,
			"type":"VEC3"
		},
		{
			"bufferView":21,
			"componentType":5126,
			"count":2,
			"type":"VEC4"
		},
		{
			"bufferView":22,
			"componentType":5126,
			"count":2,
			"type":"VEC3"
		},
		{
			"bufferView":23,
			"componentType":5126,
			"count":2,
			"type":"VEC3"
		},
		{
			"bufferView":24,
			"componentType":5126,
			"count":2,
			"type":"VEC4"
		},
		{
			"bufferView":25,
			"componentType":5126,
			"count":2,
			"type":"VEC3"
		},
		{
			"bufferView":26,
			"componentType":5126,
			"count":2,
			"type":"VEC3"
		},
		{
			"bufferView":27,
			"componentType":5126,
			"count":2,
			"type":"VEC4"
		},
		{
			"bufferView":28,
			"componentType":5126,
			"count":2,
			"type":"VEC3"
		},
		{
			"bufferView":29,
			"componentType":5126,
			"count":2,
			"type":"VEC3"
		},
		{
			"bufferView":30,
			"componentType":5126,
			"count":2,
			"type":"VEC4"
		},
		{
			"bufferView":31,
			"componentType":5126,
			"count":2,
			"type":"VEC3"
		},
		{
			"bufferView":32,
			"componentType":5126,
			"count":2,
			"type":"VEC3"
		},
		{
			"bufferView":33,
			"componentType":5126,
			"count":2,
			"type":"VEC4"
		},
		{
			"bufferView":34,
			"componentType":5126,
			"count":168,
			"max":[
				7
			],
			"min":[
				0.041666666666666664
			],
			"type":"SCALAR"
		},
		{
			"bufferView":35,
			"componentType":5126,
			"count":168,
			"type":"VEC3"
		},
		{
			"bufferView":36,
			"componentType":5126,
			"count":2,
			"type":"VEC3"
		},
		{
			"bufferView":37,
			"componentType":5126,
			"count":2,
			"type":"VEC4"
		},
		{
			"bufferView":38,
			"componentType":5126,
			"count":168,
			"type":"VEC3"
		},
		{
			"bufferView":39,
			"componentType":5126,
			"count":2,
			"type":"VEC3"
		},
		{
			"bufferView":40,
			"componentType":5126,
			"count":2,
			"type":"VEC4"
		},
		{
			"bufferView":41,
			"componentType":5126,
			"count":168,
			"type":"VEC3"
		},
		{
			"bufferView":42,
			"componentType":5126,
			"count":2,
			"type":"VEC3"
		},
		{
			"bufferView":43,
			"componentType":5126,
			"count":2,
			"type":"VEC4"
		},
		{
			"bufferView":44,
			"componentType":5126,
			"count":2,
			"type":"VEC3"
		},
		{
			"bufferView":45,
			"componentType":5126,
			"count":2,
			"type":"VEC3"
		},
		{
			"bufferView":46,
			"componentType":5126,
			"count":2,
			"type":"VEC4"
		},
		{
			"bufferView":47,
			"componentType":5126,
			"count":2,
			"type":"VEC3"
		},
		{
			"bufferView":48,
			"componentType":5126,
			"count":2,
			"type":"VEC3"
		},
		{
			"bufferView":49,
			"componentType":5126,
			"count":2,
			"type":"VEC4"
		},
		{
			"bufferView":50,
			"componentType":5126,
			"count":2,
			"type":"VEC3"
		},
		{
			"bufferView":51,
			"componentType":5126,
			"count":2,
			"max":[
				0.7083333333333334
			],
			"min":[
				0.041666666666666664
			],
			"type":"SCALAR"
		},
		{
			"bufferView":52,
			"componentType":5126,
			"count":17,
			"max":[
				0.7083333333333334
			],
			"min":[
				0.041666666666666664
			],
			"type":"SCALAR"
		},
		{
			"bufferView":53,
			"componentType":5126,
			"count":17,
			"type":"VEC3"
		},
		{
			"bufferView":54,
			"componentType":5126,
			"count":2,
			"type":"VEC3"
		},
		{
			"bufferView":55,
			"componentType":5126,
			"count":2,
			"type":"VEC4"
		},
		{
			"bufferView":56,
			"componentType":5126,
			"count":2,
			"type":"VEC3"
		},
		{
			"bufferView":57,
			"componentType":5126,
			"count":2,
			"type":"VEC3"
		},
		{
			"bufferView":58,
			"componentType":5126,
			"count":2,
			"type":"VEC4"
		},
		{
			"bufferView":59,
			"componentType":5126,
			"count":2,
			"type":"VEC3"
		},
		{
			"bufferView":60,
			"componentType":5126,
			"count":2,
			"max":[
				2.4166666666666665
			],
			"min":[
				0.041666666666666664
			],
			"type":"SCALAR"
		},
		{
			"bufferView":61,
			"componentType":5126,
			"count":58,
			"max":[
				2.4166666666666665
			],
			"min":[
				0.041666666666666664
			],
			"type":"SCALAR"
		},
		{
			"bufferView":62,
			"componentType":5126,
			"count":58,
			"type":"VEC4"
		},
		{
			"bufferView":63,
			"componentType":5126,
			"count":2,
			"type":"VEC3"
		},
		{
			"bufferView":64,
			"componentType":5126,
			"count":2,
			"type":"VEC3"
		},
		{
			"bufferView":65,
			"componentType":5126,
			"count":2,
			"type":"VEC4"
		},
		{
			"bufferView":66,
			"componentType":5126,
			"count":58,
			"type":"VEC3"
		},
		{
			"bufferView":67,
			"componentType":5126,
			"count":2,
			"type":"VEC3"
		},
		{
			"bufferView":68,
			"componentType":5126,
			"count":2,
			"type":"VEC4"
		},
		{
			"bufferView":69,
			"componentType":5126,
			"count":58,
			"type":"VEC3"
		},
		{
			"bufferView":70,
			"componentType":5126,
			"count":2,
			"type":"VEC3"
		},
		{
			"bufferView":71,
			"componentType":5126,
			"count":2,
			"type":"VEC4"
		},
		{
			"bufferView":72,
			"componentType":5126,
			"count":58,
			"type":"VEC3"
		},
		{
			"bufferView":73,
			"componentType":5126,
			"count":2,
			"type":"VEC3"
		},
		{
			"bufferView":74,
			"componentType":5126,
			"count":2,
			"type":"VEC4"
		},
		{
			"bufferView":75,
			"componentType":5126,
			"count":58,
			"type":"VEC3"
		},
		{
			"bufferView":76,
			"componentType":5126,
			"count":2,
			"type":"VEC3"
		},
		{
			"bufferView":77,
			"componentType":5126,
			"count":2,
			"type":"VEC4"
		},
		{
			"bufferView":78,
			"componentType":5126,
			"count":58,
			"type":"VEC3"
		},
		{
			"bufferView":79,
			"componentType":5126,
			"count":2,
			"type":"VEC3"
		},
		{
			"bufferView":80,
			"componentType":5126,
			"count":2,
			"type":"VEC4"
		},
		{
			"bufferView":81,
			"componentType":5126,
			"count":58,
			"type":"VEC3"
		},
		{
			"bufferView":82,
			"componentType":5126,
			"count":2,
			"type":"VEC3"
		},
		{
			"bufferView":83,
			"componentType":5126,
			"count":2,
			"type":"VEC4"
		},
		{
			"bufferView":84,
			"componentType":5126,
			"count":58,
			"type":"VEC3"
		},
		{
			"bufferView":85,
			"componentType":5126,
			"count":2,
			"type":"VEC3"
		},
		{
			"bufferView":86,
			"componentType":5126,
			"count":2,
			"type":"VEC4"
		},
		{
			"bufferView":87,
			"componentType":5126,
			"count":58,
			"type":"VEC3"
		},
		{
			"bufferView":88,
			"componentType":5126,
			"count":2,
			"type":"VEC3"
		},
		{
			"bufferView":89,
			"componentType":5126,
			"count":58,
			"type":"VEC4"
		},
		{
			"bufferView":90,
			"componentType":5126,
			"count":2,
			"type":"VEC3"
		},
		{
			"bufferView":91,
			"componentType":5126,
			"count":2,
			"type":"VEC3"
		},
		{
			"bufferView":92,
			"componentType":5126,
			"count":2,
			"type":"VEC4"
		},
		{
			"bufferView":93,
			"componentType":5126,
			"count":2,
			"type":"VEC3"
		},
		{
			"bufferView":94,
			"componentType":5126,
			"count":2,
			"type":"VEC3"
		},
		{
			"bufferView":95,
			"componentType":5126,
			"count":58,
			"type":"VEC4"
		},
		{
			"bufferView":96,
			"componentType":5126,
			"count":2,
			"type":"VEC3"
		},
		{
			"bufferView":97,
			"componentType":5126,
			"count":2,
			"type":"VEC3"
		},
		{
			"bufferView":98,
			"componentType":5126,
			"count":58,
			"type":"VEC4"
		},
		{
			"bufferView":99,
			"componentType":5126,
			"count":2,
			"type":"VEC3"
		},
		{
			"bufferView":100,
			"componentType":5126,
			"count":2,
			"type":"VEC3"
		},
		{
			"bufferView":101,
			"componentType":5126,
			"count":58,
			"type":"VEC4"
		},
		{
			"bufferView":102,
			"componentType":5126,
			"count":2,
			"type":"VEC3"
		}
	],
	"bufferViews":[
		{
			"buffer":0,
			"byteLength":4272,
			"byteOffset":0,
			"target":34962
		},
		{
			"buffer":0,
			"byteLength":4272,
			"byteOffset":4272,
			"target":34962
		},
		{
			"buffer":0,
			"byteLength":2848,
			"byteOffset":8544,
			"target":34962
		},
		{
			"buffer":0,
			"byteLength":1424,
			"byteOffset":11392,
			"target":34962
		},
		{
			"buffer":0,
			"byteLength":5696,
			"byteOffset":12816,
			"target":34962
		},
		{
			"buffer":0,
			"byteLength":1092,
			"byteOffset":18512,
			"target":34963
		},
		{
			"buffer":0,
			"byteLength":896,
			"byteOffset":19604
		},
		{
			"buffer":0,
			"byteLength":8,
			"byteOffset":20500
		},
		{
			"buffer":0,
			"byteLength":24,
			"byteOffset":20508
		},
		{
			"buffer":0,
			"byteLength":32,
			"byteOffset":20532
		},
		{
			"buffer":0,
			"byteLength":24,
			"byteOffset":20564
		},
		{
			"buffer":0,
			"byteLength":24,
			"byteOffset":20588
		},
		{
			"buffer":0,
			"byteLength":32,
			"byteOffset":20612
		},
		{
			"buffer":0,
			"byteLength":24,
			"byteOffset":20644
		},
		{
			"buffer":0,
			"byteLength":24,
			"byteOffset":20668
		},
		{
			"buffer":0,
			"byteLength":32,
			"byteOffset":20692
		},
		{
			"buffer":0,
			"byteLength":24,
			"byteOffset":20724
		},
		{
			"buffer":0,
			"byteLength":24,
			"byteOffset":20748
		},
		{
			"buffer":0,
			"byteLength":32,
			"byteOffset":20772
		},
		{
			"buffer":0,
			"byteLength":24,
			"byteOffset":20804
		},
		{
			"buffer":0,
			"byteLength":24,
			"byteOffset":20828
		},
		{
			"buffer":0,
			"byteLength":32,
			"byteOffset":20852
		},
		{
			"buffer":0,
			"byteLength":24,
			"byteOffset":20884
		},
		{
			"buffer":0,
			"byteLength":24,
			"byteOffset":20908
		},
		{
			"buffer":0,
			"byteLength":32,
			"byteOffset":20932
		},
		{
			"buffer":0,
			"byteLength":24,
			"byteOffset":20964
		},
		{
			"buffer":0,
			"byteLength":24,
			"byteOffset":20988
		},
		{
			"buffer":0,
			"byteLength":32,
			"byteOffset":21012
		},
		{
			"buffer":0,
			"byteLength":24,
			"byteOffset":21044
		},
		{
			"buffer":0,
			"byteLength":24,
			"byteOffset":21068
		},
		{
			"buffer":0,
			"byteLength":32,
			"byteOffset":21092
		},
		{
			"buffer":0,
			"byteLength":24,
			"byteOffset":21124
		},
		{
			"buffer":0,
			"byteLength":24,
			"byteOffset":21148
		},
		{
			"buffer":0,
			"byteLength":32,
			"byteOffset":21172
		},
		{
			"buffer":0,
			"byteLength":672,
			"byteOffset":21204
		},
		{
			"buffer":0,
			"byteLength":2016,
			"byteOffset":21876
		},
		{
			"buffer":0,
			"byteLength":24,
			"byteOffset":23892
		},
		{
			"buffer":0,
			"byteLength":32,
			"byteOffset":23916
		},
		{
			"buffer":0,
			"byteLength":2016,
			"byteOffset":23948
		},
		{
			"buffer":0,
			"byteLength":24,
			"byteOffset":25964
		},
		{
			"buffer":0,
			"byteLength":32,
			"byteOffset":25988
		},
		{
			"buffer":0,
			"byteLength":2016,
			"byteOffset":26020
		},
		{
			"buffer":0,
			"byteLength":24,
			"byteOffset":28036
		},
		{
			"buffer":0,
			"byteLength":32,
			"byteOffset":28060
		},
		{
			"buffer":0,
			"byteLength":24,
			"byteOffset":28092
		},
		{
			"buffer":0,
			"byteLength":24,
			"byteOffset":28116
		},
		{
			"buffer":0,
			"byteLength":32,
			"byteOffset":28140
		},
		{
			"buffer":0,
			"byteLength":24,
			"byteOffset":28172
		},
		{
			"buffer":0,
			"byteLength":24,
			"byteOffset":28196
		},
		{
			"buffer":0,
			"byteLength":32,
			"byteOffset":28220
		},
		{
			"buffer":0,
			"byteLength":24,
			"byteOffset":28252
		},
		{
			"buffer":0,
			"byteLength":8,
			"byteOffset":28276
		},
		{
			"buffer":0,
			"byteLength":68,
			"byteOffset":28284
		},
		{
			"buffer":0,
			"byteLength":204,
			"byteOffset":28352
		},
		{
			"buffer":0,
			"byteLength":24,
			"byteOffset":28556
		},
		{
			"buffer":0,
			"byteLength":32,
			"byteOffset":28580
		},
		{
			"buffer":0,
			"byteLength":24,
			"byteOffset":28612
		},
		{
			"buffer":0,
			"byteLength":24,
			"byteOffset":28636
		},
		{
			"buffer":0,
			"byteLength":32,
			"byteOffset":28660
		},
		{
			"buffer":0,
			"byteLength":24,
			"byteOffset":28692
		},
		{
			"buffer":0,
			"byteLength":8,
			"byteOffset":28716
		},
		{
			"buffer":0,
			"byteLength":232,
			"byteOffset":28724
		},
		{
			"buffer":0,
			"byteLength":928,
			"byteOffset":28956
		},
		{
			"buffer":0,
			"byteLength":24,
			"byteOffset":29884
		},
		{
			"buffer":0,
			"byteLength":24,
			"byteOffset":29908
		},
		{
			"buffer":0,
			"byteLength":32,
			"byteOffset":29932
		},
		{
			"buffer":0,
			"byteLength":696,
			"byteOffset":29964
		},
		{
			"buffer":0,
			"byteLength":24,
			"byteOffset":30660
		},
		{
			"buffer":0,
			"byteLength":32,
			"byteOffset":30684
		},
		{
			"buffer":0,
			"byteLength":696,
			"byteOffset":30716
		},
		{
			"buffer":0,
			"byteLength":24,
			"byteOffset":31412
		},
		{
			"buffer":0,
			"byteLength":32,
			"byteOffset":31436
		},
		{
			"buffer":0,
			"byteLength":696,
			"byteOffset":31468
		},
		{
			"buffer":0,
			"byteLength":24,
			"byteOffset":32164
		},
		{
			"buffer":0,
			"byteLength":32,
			"byteOffset":32188
		},
		{
			"buffer":0,
			"byteLength":696,
			"byteOffset":32220
		},
		{
			"buffer":0,
			"byteLength":24,
			"byteOffset":32916
		},
		{
			"buffer":0,
			"byteLength":32,
			"byteOffset":32940
		},
		{
			"buffer":0,
			"byteLength":696,
			"byteOffset":32972
		},
		{
			"buffer":0,
			"byteLength":24,
			"byteOffset":33668
		},
		{
			"buffer":0,
			"byteLength":32,
			"byteOffset":33692
		},
		{
			"buffer":0,
			"byteLength":696,
			"byteOffset":33724
		},
		{
			"buffer":0,
			"byteLength":24,
			"byteOffset":34420
		},
		{
			"buffer":0,
			"byteLength":32,
			"byteOffset":34444
		},
		{
			"buffer":0,
			"byteLength":696,
			"byteOffset":34476
		},
		{
			"buffer":0,
			"byteLength":24,
			"byteOffset":35172
		},
		{
			"buffer":0,
			"byteLength":32,
			"byteOffset":35196
		},
		{
			"buffer":0,
			"byteLength":696,
			"byteOffset":35228
		},
		{
			"buffer":0,
			"byteLength":24,
			"byteOffset":35924
		},
		{
			"buffer":0,
			"byteLength":928,
			"byteOffset":35948
		},
		{
			"buffer":0,
			"byteLength":24,
			"byteOffset":36876
		},
		{
			"buffer":0,
			"byteLength":24,
			"byteOffset":36900
		},
		{
			"buffer":0,
			"byteLength":32,
			"byteOffset":36924
		},
		{
			"buffer":0,
			"byteLength":24,
			"byteOffset":36956
		},
		{
			"buffer":0,
			"byteLength":24,
			"byteOffset":36980
		},
		{
			"buffer":0,
			"byteLength":928,
			"byteOffset":37004
		},
		{
			"buffer":0,
			"byteLength":24,
			"byteOffset":37932
		},
		{
			"buffer":0,
			"byteLength":24,
			"byteOffset":37956
		},
		{
			"buffer":0,
			"byteLength":928,
			"byteOffset":37980
		},
		{
			"buffer":0,
			"byteLength":24,
			"byteOffset":38908
		},
		{
			"buffer":0,
			"byteLength":24,
			"byteOffset":38932
		},
		{
			"buffer":0,
			"byteLength":928,
			"byteOffset":38956
		},
		{
			"buffer":0,
			"byteLength":24,
			"byteOffset":39884
		}
	],
	"samplers":[
		{
			"magFilter":9728,
			"minFilter":9984
		}
	],
	"buffers":[
		{
			"byteLength":39908,
			"uri":"flora_climbvine.bin"
		}
	]
}
