{
	"asset":{
		"generator":"Khronos glTF Blender I/O v5.1.19",
		"version":"2.0"
	},
	"extensionsUsed":[
		"KHR_materials_emissive_strength"
	],
	"scene":0,
	"scenes":[
		{
			"name":"Scene",
			"nodes":[
				9
			]
		}
	],
	"nodes":[
		{
			"name":"tuft0_0",
			"scale":[
				1,
				0.9999999403953552,
				1
			],
			"translation":[
				-0.23999999463558197,
				0,
				0.14000000059604645
			]
		},
		{
			"name":"tuft1_0",
			"scale":[
				1,
				0.9999999403953552,
				1
			],
			"translation":[
				0.20000000298023224,
				0,
				0.18000000715255737
			]
		},
		{
			"name":"tuft2_0",
			"scale":[
				1,
				0.9999999403953552,
				1
			],
			"translation":[
				0.25999999046325684,
				0,
				-0.12999999523162842
			]
		},
		{
			"name":"tuft3_0",
			"scale":[
				1,
				0.9999999403953552,
				1
			],
			"translation":[
				-0.10000000149011612,
				0,
				-0.20000000298023224
			]
		},
		{
			"name":"tuft4_0",
			"scale":[
				1,
				0.9999999403953552,
				1
			],
			"translation":[
				-0.30000001192092896,
				0,
				-0.05000000074505806
			]
		},
		{
			"name":"tuft5_0",
			"scale":[
				1,
				0.9999999403953552,
				1
			],
			"translation":[
				0.05999999865889549,
				0,
				0.019999999552965164
			]
		},
		{
			"name":"scflash_0",
			"scale":[
				0.0010000000474974513,
				0.0009999999310821295,
				0.0010000000474974513
			],
			"translation":[
				0,
				0.057999998331069946,
				0
			]
		},
		{
			"children":[
				0,
				1,
				2,
				3,
				4,
				5,
				6
			],
			"name":"patch_0",
			"translation":[
				0,
				0.012000000104308128,
				0
			]
		},
		{
			"mesh":0,
			"name":"ScarpetRigged",
			"skin":0
		},
		{
			"children":[
				8,
				7
			],
			"name":"Scarpet_Armature"
		}
	],
	"animations":[
		{
			"channels":[
				{
					"sampler":0,
					"target":{
						"node":7,
						"path":"translation"
					}
				},
				{
					"sampler":1,
					"target":{
						"node":7,
						"path":"rotation"
					}
				},
				{
					"sampler":2,
					"target":{
						"node":7,
						"path":"scale"
					}
				},
				{
					"sampler":3,
					"target":{
						"node":0,
						"path":"translation"
					}
				},
				{
					"sampler":4,
					"target":{
						"node":0,
						"path":"rotation"
					}
				},
				{
					"sampler":5,
					"target":{
						"node":0,
						"path":"scale"
					}
				},
				{
					"sampler":6,
					"target":{
						"node":1,
						"path":"translation"
					}
				},
				{
					"sampler":7,
					"target":{
						"node":1,
						"path":"rotation"
					}
				},
				{
					"sampler":8,
					"target":{
						"node":1,
						"path":"scale"
					}
				},
				{
					"sampler":9,
					"target":{
						"node":2,
						"path":"translation"
					}
				},
				{
					"sampler":10,
					"target":{
						"node":2,
						"path":"rotation"
					}
				},
				{
					"sampler":11,
					"target":{
						"node":2,
						"path":"scale"
					}
				},
				{
					"sampler":12,
					"target":{
						"node":3,
						"path":"translation"
					}
				},
				{
					"sampler":13,
					"target":{
						"node":3,
						"path":"rotation"
					}
				},
				{
					"sampler":14,
					"target":{
						"node":3,
						"path":"scale"
					}
				},
				{
					"sampler":15,
					"target":{
						"node":4,
						"path":"translation"
					}
				},
				{
					"sampler":16,
					"target":{
						"node":4,
						"path":"rotation"
					}
				},
				{
					"sampler":17,
					"target":{
						"node":4,
						"path":"scale"
					}
				},
				{
					"sampler":18,
					"target":{
						"node":5,
						"path":"translation"
					}
				},
				{
					"sampler":19,
					"target":{
						"node":5,
						"path":"rotation"
					}
				},
				{
					"sampler":20,
					"target":{
						"node":5,
						"path":"scale"
					}
				},
				{
					"sampler":21,
					"target":{
						"node":6,
						"path":"translation"
					}
				},
				{
					"sampler":22,
					"target":{
						"node":6,
						"path":"rotation"
					}
				},
				{
					"sampler":23,
					"target":{
						"node":6,
						"path":"scale"
					}
				}
			],
			"name":"scarpet_tend",
			"samplers":[
				{
					"input":7,
					"interpolation":"STEP",
					"output":8
				},
				{
					"input":7,
					"interpolation":"STEP",
					"output":9
				},
				{
					"input":10,
					"interpolation":"LINEAR",
					"output":11
				},
				{
					"input":7,
					"interpolation":"STEP",
					"output":12
				},
				{
					"input":7,
					"interpolation":"STEP",
					"output":9
				},
				{
					"input":7,
					"interpolation":"STEP",
					"output":13
				},
				{
					"input":7,
					"interpolation":"STEP",
					"output":14
				},
				{
					"input":7,
					"interpolation":"STEP",
					"output":9
				},
				{
					"input":7,
					"interpolation":"STEP",
					"output":13
				},
				{
					"input":7,
					"interpolation":"STEP",
					"output":15
				},
				{
					"input":7,
					"interpolation":"STEP",
					"output":9
				},
				{
					"input":7,
					"interpolation":"STEP",
					"output":13
				},
				{
					"input":7,
					"interpolation":"STEP",
					"output":16
				},
				{
					"input":7,
					"interpolation":"STEP",
					"output":9
				},
				{
					"input":7,
					"interpolation":"STEP",
					"output":13
				},
				{
					"input":7,
					"interpolation":"STEP",
					"output":17
				},
				{
					"input":7,
					"interpolation":"STEP",
					"output":9
				},
				{
					"input":7,
					"interpolation":"STEP",
					"output":13
				},
				{
					"input":7,
					"interpolation":"STEP",
					"output":18
				},
				{
					"input":7,
					"interpolation":"STEP",
					"output":9
				},
				{
					"input":7,
					"interpolation":"STEP",
					"output":13
				},
				{
					"input":7,
					"interpolation":"STEP",
					"output":19
				},
				{
					"input":7,
					"interpolation":"STEP",
					"output":9
				},
				{
					"input":10,
					"interpolation":"LINEAR",
					"output":20
				}
			]
		},
		{
			"channels":[
				{
					"sampler":0,
					"target":{
						"node":7,
						"path":"translation"
					}
				},
				{
					"sampler":1,
					"target":{
						"node":7,
						"path":"rotation"
					}
				},
				{
					"sampler":2,
					"target":{
						"node":7,
						"path":"scale"
					}
				},
				{
					"sampler":3,
					"target":{
						"node":0,
						"path":"translation"
					}
				},
				{
					"sampler":4,
					"target":{
						"node":0,
						"path":"rotation"
					}
				},
				{
					"sampler":5,
					"target":{
						"node":0,
						"path":"scale"
					}
				},
				{
					"sampler":6,
					"target":{
						"node":1,
						"path":"translation"
					}
				},
				{
					"sampler":7,
					"target":{
						"node":1,
						"path":"rotation"
					}
				},
				{
					"sampler":8,
					"target":{
						"node":1,
						"path":"scale"
					}
				},
				{
					"sampler":9,
					"target":{
						"node":2,
						"path":"translation"
					}
				},
				{
					"sampler":10,
					"target":{
						"node":2,
						"path":"rotation"
					}
				},
				{
					"sampler":11,
					"target":{
						"node":2,
						"path":"scale"
					}
				},
				{
					"sampler":12,
					"target":{
						"node":3,
						"path":"translation"
					}
				},
				{
					"sampler":13,
					"target":{
						"node":3,
						"path":"rotation"
					}
				},
				{
					"sampler":14,
					"target":{
						"node":3,
						"path":"scale"
					}
				},
				{
					"sampler":15,
					"target":{
						"node":4,
						"path":"translation"
					}
				},
				{
					"sampler":16,
					"target":{
						"node":4,
						"path":"rotation"
					}
				},
				{
					"sampler":17,
					"target":{
						"node":4,
						"path":"scale"
					}
				},
				{
					"sampler":18,
					"target":{
						"node":5,
						"path":"translation"
					}
				},
				{
					"sampler":19,
					"target":{
						"node":5,
						"path":"rotation"
					}
				},
				{
					"sampler":20,
					"target":{
						"node":5,
						"path":"scale"
					}
				},
				{
					"sampler":21,
					"target":{
						"node":6,
						"path":"translation"
					}
				},
				{
					"sampler":22,
					"target":{
						"node":6,
						"path":"rotation"
					}
				},
				{
					"sampler":23,
					"target":{
						"node":6,
						"path":"scale"
					}
				}
			],
			"name":"scarpet_wither",
			"samplers":[
				{
					"input":21,
					"interpolation":"STEP",
					"output":8
				},
				{
					"input":21,
					"interpolation":"STEP",
					"output":9
				},
				{
					"input":22,
					"interpolation":"LINEAR",
					"output":23
				},
				{
					"input":21,
					"interpolation":"STEP",
					"output":24
				},
				{
					"input":21,
					"interpolation":"STEP",
					"output":9
				},
				{
					"input":21,
					"interpolation":"STEP",
					"output":25
				},
				{
					"input":21,
					"interpolation":"STEP",
					"output":26
				},
				{
					"input":21,
					"interpolation":"STEP",
					"output":9
				},
				{
					"input":21,
					"interpolation":"STEP",
					"output":25
				},
				{
					"input":21,
					"interpolation":"STEP",
					"output":27
				},
				{
					"input":21,
					"interpolation":"STEP",
					"output":9
				},
				{
					"input":21,
					"interpolation":"STEP",
					"output":25
				},
				{
					"input":21,
					"interpolation":"STEP",
					"output":28
				},
				{
					"input":21,
					"interpolation":"STEP",
					"output":9
				},
				{
					"input":21,
					"interpolation":"STEP",
					"output":25
				},
				{
					"input":21,
					"interpolation":"STEP",
					"output":29
				},
				{
					"input":21,
					"interpolation":"STEP",
					"output":9
				},
				{
					"input":21,
					"interpolation":"STEP",
					"output":25
				},
				{
					"input":21,
					"interpolation":"STEP",
					"output":30
				},
				{
					"input":21,
					"interpolation":"STEP",
					"output":9
				},
				{
					"input":21,
					"interpolation":"STEP",
					"output":25
				},
				{
					"input":21,
					"interpolation":"STEP",
					"output":31
				},
				{
					"input":21,
					"interpolation":"STEP",
					"output":9
				},
				{
					"input":21,
					"interpolation":"STEP",
					"output":32
				}
			]
		}
	],
	"materials":[
		{
			"alphaMode":"MASK",
			"doubleSided":true,
			"emissiveFactor":[
				1,
				1,
				1
			],
			"emissiveTexture":{
				"index":0
			},
			"extensions":{
				"KHR_materials_emissive_strength":{
					"emissiveStrength":3
				}
			},
			"name":"ScarpetRiggedTex",
			"pbrMetallicRoughness":{
				"baseColorTexture":{
					"index":1
				},
				"metallicFactor":0,
				"roughnessFactor":0.8999999761581421
			}
		}
	],
	"meshes":[
		{
			"name":"ScarpetRigged",
			"primitives":[
				{
					"attributes":{
						"POSITION":0,
						"NORMAL":1,
						"TEXCOORD_0":2,
						"JOINTS_0":3,
						"WEIGHTS_0":4
					},
					"indices":5,
					"material":0
				}
			]
		}
	],
	"textures":[
		{
			"sampler":0,
			"source":0
		},
		{
			"sampler":0,
			"source":1
		}
	],
	"images":[
		{
			"mimeType":"image/png",
			"name":"ScarpetRigged_emissive",
			"uri":"ScarpetRigged_emissive.png"
		},
		{
			"mimeType":"image/png",
			"name":"ScarpetRigged_tex",
			"uri":"ScarpetRigged_tex.png"
		}
	],
	"skins":[
		{
			"inverseBindMatrices":6,
			"joints":[
				7,
				0,
				1,
				2,
				3,
				4,
				5,
				6
			],
			"name":"Scarpet_Armature"
		}
	],
	"accessors":[
		{
			"bufferView":0,
			"componentType":5126,
			"count":32,
			"max":[
				0.8500000238418579,
				0.09000000357627869,
				0.75
			],
			"min":[
				-0.8500000238418579,
				-1.7881393032936899e-09,
				-0.75
			],
			"type":"VEC3"
		},
		{
			"bufferView":1,
			"componentType":5126,
			"count":32,
			"type":"VEC3"
		},
		{
			"bufferView":2,
			"componentType":5126,
			"count":32,
			"type":"VEC2"
		},
		{
			"bufferView":3,
			"componentType":5121,
			"count":32,
			"type":"VEC4"
		},
		{
			"bufferView":4,
			"componentType":5126,
			"count":32,
			"type":"VEC4"
		},
		{
			"bufferView":5,
			"componentType":5123,
			"count":48,
			"type":"SCALAR"
		},
		{
			"bufferView":6,
			"componentType":5126,
			"count":8,
			"type":"MAT4"
		},
		{
			"bufferView":7,
			"componentType":5126,
			"count":2,
			"max":[
				8.416666666666666
			],
			"min":[
				0.041666666666666664
			],
			"type":"SCALAR"
		},
		{
			"bufferView":8,
			"componentType":5126,
			"count":2,
			"type":"VEC3"
		},
		{
			"bufferView":9,
			"componentType":5126,
			"count":2,
			"type":"VEC4"
		},
		{
			"bufferView":10,
			"componentType":5126,
			"count":202,
			"max":[
				8.416666666666666
			],
			"min":[
				0.041666666666666664
			],
			"type":"SCALAR"
		},
		{
			"bufferView":11,
			"componentType":5126,
			"count":202,
			"type":"VEC3"
		},
		{
			"bufferView":12,
			"componentType":5126,
			"count":2,
			"type":"VEC3"
		},
		{
			"bufferView":13,
			"componentType":5126,
			"count":2,
			"type":"VEC3"
		},
		{
			"bufferView":14,
			"componentType":5126,
			"count":2,
			"type":"VEC3"
		},
		{
			"bufferView":15,
			"componentType":5126,
			"count":2,
			"type":"VEC3"
		},
		{
			"bufferView":16,
			"componentType":5126,
			"count":2,
			"type":"VEC3"
		},
		{
			"bufferView":17,
			"componentType":5126,
			"count":2,
			"type":"VEC3"
		},
		{
			"bufferView":18,
			"componentType":5126,
			"count":2,
			"type":"VEC3"
		},
		{
			"bufferView":19,
			"componentType":5126,
			"count":2,
			"type":"VEC3"
		},
		{
			"bufferView":20,
			"componentType":5126,
			"count":202,
			"type":"VEC3"
		},
		{
			"bufferView":21,
			"componentType":5126,
			"count":2,
			"max":[
				3.2083333333333335
			],
			"min":[
				0.041666666666666664
			],
			"type":"SCALAR"
		},
		{
			"bufferView":22,
			"componentType":5126,
			"count":77,
			"max":[
				3.2083333333333335
			],
			"min":[
				0.041666666666666664
			],
			"type":"SCALAR"
		},
		{
			"bufferView":23,
			"componentType":5126,
			"count":77,
			"type":"VEC3"
		},
		{
			"bufferView":24,
			"componentType":5126,
			"count":2,
			"type":"VEC3"
		},
		{
			"bufferView":25,
			"componentType":5126,
			"count":2,
			"type":"VEC3"
		},
		{
			"bufferView":26,
			"componentType":5126,
			"count":2,
			"type":"VEC3"
		},
		{
			"bufferView":27,
			"componentType":5126,
			"count":2,
			"type":"VEC3"
		},
		{
			"bufferView":28,
			"componentType":5126,
			"count":2,
			"type":"VEC3"
		},
		{
			"bufferView":29,
			"componentType":5126,
			"count":2,
			"type":"VEC3"
		},
		{
			"bufferView":30,
			"componentType":5126,
			"count":2,
			"type":"VEC3"
		},
		{
			"bufferView":31,
			"componentType":5126,
			"count":2,
			"type":"VEC3"
		},
		{
			"bufferView":32,
			"componentType":5126,
			"count":2,
			"type":"VEC3"
		}
	],
	"bufferViews":[
		{
			"buffer":0,
			"byteLength":384,
			"byteOffset":0,
			"target":34962
		},
		{
			"buffer":0,
			"byteLength":384,
			"byteOffset":384,
			"target":34962
		},
		{
			"buffer":0,
			"byteLength":256,
			"byteOffset":768,
			"target":34962
		},
		{
			"buffer":0,
			"byteLength":128,
			"byteOffset":1024,
			"target":34962
		},
		{
			"buffer":0,
			"byteLength":512,
			"byteOffset":1152,
			"target":34962
		},
		{
			"buffer":0,
			"byteLength":96,
			"byteOffset":1664,
			"target":34963
		},
		{
			"buffer":0,
			"byteLength":512,
			"byteOffset":1760
		},
		{
			"buffer":0,
			"byteLength":8,
			"byteOffset":2272
		},
		{
			"buffer":0,
			"byteLength":24,
			"byteOffset":2280
		},
		{
			"buffer":0,
			"byteLength":32,
			"byteOffset":2304
		},
		{
			"buffer":0,
			"byteLength":808,
			"byteOffset":2336
		},
		{
			"buffer":0,
			"byteLength":2424,
			"byteOffset":3144
		},
		{
			"buffer":0,
			"byteLength":24,
			"byteOffset":5568
		},
		{
			"buffer":0,
			"byteLength":24,
			"byteOffset":5592
		},
		{
			"buffer":0,
			"byteLength":24,
			"byteOffset":5616
		},
		{
			"buffer":0,
			"byteLength":24,
			"byteOffset":5640
		},
		{
			"buffer":0,
			"byteLength":24,
			"byteOffset":5664
		},
		{
			"buffer":0,
			"byteLength":24,
			"byteOffset":5688
		},
		{
			"buffer":0,
			"byteLength":24,
			"byteOffset":5712
		},
		{
			"buffer":0,
			"byteLength":24,
			"byteOffset":5736
		},
		{
			"buffer":0,
			"byteLength":2424,
			"byteOffset":5760
		},
		{
			"buffer":0,
			"byteLength":8,
			"byteOffset":8184
		},
		{
			"buffer":0,
			"byteLength":308,
			"byteOffset":8192
		},
		{
			"buffer":0,
			"byteLength":924,
			"byteOffset":8500
		},
		{
			"buffer":0,
			"byteLength":24,
			"byteOffset":9424
		},
		{
			"buffer":0,
			"byteLength":24,
			"byteOffset":9448
		},
		{
			"buffer":0,
			"byteLength":24,
			"byteOffset":9472
		},
		{
			"buffer":0,
			"byteLength":24,
			"byteOffset":9496
		},
		{
			"buffer":0,
			"byteLength":24,
			"byteOffset":9520
		},
		{
			"buffer":0,
			"byteLength":24,
			"byteOffset":9544
		},
		{
			"buffer":0,
			"byteLength":24,
			"byteOffset":9568
		},
		{
			"buffer":0,
			"byteLength":24,
			"byteOffset":9592
		},
		{
			"buffer":0,
			"byteLength":24,
			"byteOffset":9616
		}
	],
	"samplers":[
		{
			"magFilter":9728,
			"minFilter":9984
		}
	],
	"buffers":[
		{
			"byteLength":9640,
			"uri":"flora_scarpet.bin"
		}
	]
}
