{
	"asset":{
		"generator":"Khronos glTF Blender I/O v5.1.19",
		"version":"2.0"
	},
	"extensionsUsed":[
		"KHR_materials_emissive_strength"
	],
	"scene":0,
	"scenes":[
		{
			"name":"Scene",
			"nodes":[
				6
			]
		}
	],
	"nodes":[
		{
			"name":"rachis_3",
			"rotation":[
				-1.0918784085699965e-22,
				3.552713678800501e-15,
				-7.66071660302263e-23,
				1
			],
			"translation":[
				3.6225139633691143e-23,
				0.08500000834465027,
				-3.393366310597824e-30
			]
		},
		{
			"children":[
				0
			],
			"name":"rachis_2",
			"rotation":[
				-3.552713678800501e-15,
				-7.105427357601002e-15,
				-2.107183666792e-22,
				1
			],
			"translation":[
				2.5116958879889752e-23,
				0.08499999344348907,
				-8.881784197001252e-16
			]
		},
		{
			"children":[
				1
			],
			"name":"rachis_1",
			"rotation":[
				7.105427357601002e-15,
				7.105427357601002e-15,
				5.952072912395231e-22,
				1
			],
			"translation":[
				-1.941175904115035e-23,
				0.08500000834465027,
				4.440892098500626e-16
			]
		},
		{
			"name":"hsflash_0",
			"rotation":[
				-1.0662873821513924e-22,
				-1.0662873821513924e-22,
				3.308722197776621e-22,
				1
			],
			"scale":[
				0.0010000000474974513,
				0.0010000000474974513,
				0.0010000000474974513
			],
			"translation":[
				3.352780016224342e-23,
				0.15299999713897705,
				-4.440892098500626e-16
			]
		},
		{
			"children":[
				2,
				3
			],
			"name":"rachis_0",
			"rotation":[
				-0.4999999403953552,
				-0.5,
				-0.5,
				0.5000000596046448
			],
			"translation":[
				0.05000000074505806,
				3.774895063202166e-09,
				0
			]
		},
		{
			"mesh":0,
			"name":"SampleRigged",
			"skin":0
		},
		{
			"children":[
				5,
				4
			],
			"name":"Sample_Armature"
		}
	],
	"animations":[
		{
			"channels":[
				{
					"sampler":0,
					"target":{
						"node":4,
						"path":"translation"
					}
				},
				{
					"sampler":1,
					"target":{
						"node":4,
						"path":"rotation"
					}
				},
				{
					"sampler":2,
					"target":{
						"node":4,
						"path":"scale"
					}
				},
				{
					"sampler":3,
					"target":{
						"node":2,
						"path":"translation"
					}
				},
				{
					"sampler":4,
					"target":{
						"node":2,
						"path":"rotation"
					}
				},
				{
					"sampler":5,
					"target":{
						"node":2,
						"path":"scale"
					}
				},
				{
					"sampler":6,
					"target":{
						"node":1,
						"path":"translation"
					}
				},
				{
					"sampler":7,
					"target":{
						"node":1,
						"path":"rotation"
					}
				},
				{
					"sampler":8,
					"target":{
						"node":1,
						"path":"scale"
					}
				},
				{
					"sampler":9,
					"target":{
						"node":0,
						"path":"translation"
					}
				},
				{
					"sampler":10,
					"target":{
						"node":0,
						"path":"rotation"
					}
				},
				{
					"sampler":11,
					"target":{
						"node":0,
						"path":"scale"
					}
				},
				{
					"sampler":12,
					"target":{
						"node":3,
						"path":"translation"
					}
				},
				{
					"sampler":13,
					"target":{
						"node":3,
						"path":"rotation"
					}
				},
				{
					"sampler":14,
					"target":{
						"node":3,
						"path":"scale"
					}
				}
			],
			"name":"sample_fire",
			"samplers":[
				{
					"input":7,
					"interpolation":"STEP",
					"output":8
				},
				{
					"input":9,
					"interpolation":"LINEAR",
					"output":10
				},
				{
					"input":7,
					"interpolation":"STEP",
					"output":11
				},
				{
					"input":7,
					"interpolation":"STEP",
					"output":12
				},
				{
					"input":9,
					"interpolation":"LINEAR",
					"output":13
				},
				{
					"input":7,
					"interpolation":"STEP",
					"output":11
				},
				{
					"input":7,
					"interpolation":"STEP",
					"output":14
				},
				{
					"input":9,
					"interpolation":"LINEAR",
					"output":15
				},
				{
					"input":7,
					"interpolation":"STEP",
					"output":11
				},
				{
					"input":7,
					"interpolation":"STEP",
					"output":16
				},
				{
					"input":9,
					"interpolation":"LINEAR",
					"output":17
				},
				{
					"input":7,
					"interpolation":"STEP",
					"output":11
				},
				{
					"input":7,
					"interpolation":"STEP",
					"output":18
				},
				{
					"input":7,
					"interpolation":"STEP",
					"output":19
				},
				{
					"input":9,
					"interpolation":"LINEAR",
					"output":20
				}
			]
		},
		{
			"channels":[
				{
					"sampler":0,
					"target":{
						"node":4,
						"path":"translation"
					}
				},
				{
					"sampler":1,
					"target":{
						"node":4,
						"path":"rotation"
					}
				},
				{
					"sampler":2,
					"target":{
						"node":4,
						"path":"scale"
					}
				},
				{
					"sampler":3,
					"target":{
						"node":2,
						"path":"translation"
					}
				},
				{
					"sampler":4,
					"target":{
						"node":2,
						"path":"rotation"
					}
				},
				{
					"sampler":5,
					"target":{
						"node":2,
						"path":"scale"
					}
				},
				{
					"sampler":6,
					"target":{
						"node":1,
						"path":"translation"
					}
				},
				{
					"sampler":7,
					"target":{
						"node":1,
						"path":"rotation"
					}
				},
				{
					"sampler":8,
					"target":{
						"node":1,
						"path":"scale"
					}
				},
				{
					"sampler":9,
					"target":{
						"node":0,
						"path":"translation"
					}
				},
				{
					"sampler":10,
					"target":{
						"node":0,
						"path":"rotation"
					}
				},
				{
					"sampler":11,
					"target":{
						"node":0,
						"path":"scale"
					}
				},
				{
					"sampler":12,
					"target":{
						"node":3,
						"path":"translation"
					}
				},
				{
					"sampler":13,
					"target":{
						"node":3,
						"path":"rotation"
					}
				},
				{
					"sampler":14,
					"target":{
						"node":3,
						"path":"scale"
					}
				}
			],
			"name":"sample_spent",
			"samplers":[
				{
					"input":21,
					"interpolation":"STEP",
					"output":8
				},
				{
					"input":21,
					"interpolation":"STEP",
					"output":22
				},
				{
					"input":21,
					"interpolation":"STEP",
					"output":11
				},
				{
					"input":21,
					"interpolation":"STEP",
					"output":23
				},
				{
					"input":21,
					"interpolation":"STEP",
					"output":24
				},
				{
					"input":21,
					"interpolation":"STEP",
					"output":11
				},
				{
					"input":21,
					"interpolation":"STEP",
					"output":25
				},
				{
					"input":21,
					"interpolation":"STEP",
					"output":26
				},
				{
					"input":21,
					"interpolation":"STEP",
					"output":11
				},
				{
					"input":21,
					"interpolation":"STEP",
					"output":27
				},
				{
					"input":21,
					"interpolation":"STEP",
					"output":28
				},
				{
					"input":21,
					"interpolation":"STEP",
					"output":11
				},
				{
					"input":21,
					"interpolation":"STEP",
					"output":29
				},
				{
					"input":21,
					"interpolation":"STEP",
					"output":30
				},
				{
					"input":21,
					"interpolation":"STEP",
					"output":31
				}
			]
		}
	],
	"materials":[
		{
			"alphaMode":"MASK",
			"doubleSided":true,
			"emissiveFactor":[
				1,
				1,
				1
			],
			"emissiveTexture":{
				"index":0
			},
			"extensions":{
				"KHR_materials_emissive_strength":{
					"emissiveStrength":3.5999999046325684
				}
			},
			"name":"SampleRiggedTex",
			"pbrMetallicRoughness":{
				"baseColorTexture":{
					"index":1
				},
				"metallicFactor":0,
				"roughnessFactor":0.8999999761581421
			}
		}
	],
	"meshes":[
		{
			"name":"SampleRigged",
			"primitives":[
				{
					"attributes":{
						"POSITION":0,
						"NORMAL":1,
						"TEXCOORD_0":2,
						"JOINTS_0":3,
						"WEIGHTS_0":4
					},
					"indices":5,
					"material":0
				}
			]
		}
	],
	"textures":[
		{
			"sampler":0,
			"source":0
		},
		{
			"sampler":0,
			"source":1
		}
	],
	"images":[
		{
			"mimeType":"image/png",
			"name":"SampleRigged_emissive",
			"uri":"SampleRigged_emissive.png"
		},
		{
			"mimeType":"image/png",
			"name":"SampleRigged_tex",
			"uri":"SampleRigged_tex.png"
		}
	],
	"skins":[
		{
			"inverseBindMatrices":6,
			"joints":[
				4,
				2,
				1,
				0,
				3
			],
			"name":"Sample_Armature"
		}
	],
	"accessors":[
		{
			"bufferView":0,
			"componentType":5126,
			"count":54,
			"max":[
				0.39000001549720764,
				0.15000003576278687,
				0.15000000596046448
			],
			"min":[
				-1.0569706221374986e-09,
				-0.15000000596046448,
				-0.15000000596046448
			],
			"type":"VEC3"
		},
		{
			"bufferView":1,
			"componentType":5126,
			"count":54,
			"type":"VEC3"
		},
		{
			"bufferView":2,
			"componentType":5126,
			"count":54,
			"type":"VEC2"
		},
		{
			"bufferView":3,
			"componentType":5121,
			"count":54,
			"type":"VEC4"
		},
		{
			"bufferView":4,
			"componentType":5126,
			"count":54,
			"type":"VEC4"
		},
		{
			"bufferView":5,
			"componentType":5123,
			"count":96,
			"type":"SCALAR"
		},
		{
			"bufferView":6,
			"componentType":5126,
			"count":5,
			"type":"MAT4"
		},
		{
			"bufferView":7,
			"componentType":5126,
			"count":2,
			"max":[
				0.7083333333333334
			],
			"min":[
				0.041666666666666664
			],
			"type":"SCALAR"
		},
		{
			"bufferView":8,
			"componentType":5126,
			"count":2,
			"type":"VEC3"
		},
		{
			"bufferView":9,
			"componentType":5126,
			"count":17,
			"max":[
				0.7083333333333334
			],
			"min":[
				0.041666666666666664
			],
			"type":"SCALAR"
		},
		{
			"bufferView":10,
			"componentType":5126,
			"count":17,
			"type":"VEC4"
		},
		{
			"bufferView":11,
			"componentType":5126,
			"count":2,
			"type":"VEC3"
		},
		{
			"bufferView":12,
			"componentType":5126,
			"count":2,
			"type":"VEC3"
		},
		{
			"bufferView":13,
			"componentType":5126,
			"count":17,
			"type":"VEC4"
		},
		{
			"bufferView":14,
			"componentType":5126,
			"count":2,
			"type":"VEC3"
		},
		{
			"bufferView":15,
			"componentType":5126,
			"count":17,
			"type":"VEC4"
		},
		{
			"bufferView":16,
			"componentType":5126,
			"count":2,
			"type":"VEC3"
		},
		{
			"bufferView":17,
			"componentType":5126,
			"count":17,
			"type":"VEC4"
		},
		{
			"bufferView":18,
			"componentType":5126,
			"count":2,
			"type":"VEC3"
		},
		{
			"bufferView":19,
			"componentType":5126,
			"count":2,
			"type":"VEC4"
		},
		{
			"bufferView":20,
			"componentType":5126,
			"count":17,
			"type":"VEC3"
		},
		{
			"bufferView":21,
			"componentType":5126,
			"count":2,
			"max":[
				1.4166666666666667
			],
			"min":[
				0.041666666666666664
			],
			"type":"SCALAR"
		},
		{
			"bufferView":22,
			"componentType":5126,
			"count":2,
			"type":"VEC4"
		},
		{
			"bufferView":23,
			"componentType":5126,
			"count":2,
			"type":"VEC3"
		},
		{
			"bufferView":24,
			"componentType":5126,
			"count":2,
			"type":"VEC4"
		},
		{
			"bufferView":25,
			"componentType":5126,
			"count":2,
			"type":"VEC3"
		},
		{
			"bufferView":26,
			"componentType":5126,
			"count":2,
			"type":"VEC4"
		},
		{
			"bufferView":27,
			"componentType":5126,
			"count":2,
			"type":"VEC3"
		},
		{
			"bufferView":28,
			"componentType":5126,
			"count":2,
			"type":"VEC4"
		},
		{
			"bufferView":29,
			"componentType":5126,
			"count":2,
			"type":"VEC3"
		},
		{
			"bufferView":30,
			"componentType":5126,
			"count":2,
			"type":"VEC4"
		},
		{
			"bufferView":31,
			"componentType":5126,
			"count":2,
			"type":"VEC3"
		}
	],
	"bufferViews":[
		{
			"buffer":0,
			"byteLength":648,
			"byteOffset":0,
			"target":34962
		},
		{
			"buffer":0,
			"byteLength":648,
			"byteOffset":648,
			"target":34962
		},
		{
			"buffer":0,
			"byteLength":432,
			"byteOffset":1296,
			"target":34962
		},
		{
			"buffer":0,
			"byteLength":216,
			"byteOffset":1728,
			"target":34962
		},
		{
			"buffer":0,
			"byteLength":864,
			"byteOffset":1944,
			"target":34962
		},
		{
			"buffer":0,
			"byteLength":192,
			"byteOffset":2808,
			"target":34963
		},
		{
			"buffer":0,
			"byteLength":320,
			"byteOffset":3000
		},
		{
			"buffer":0,
			"byteLength":8,
			"byteOffset":3320
		},
		{
			"buffer":0,
			"byteLength":24,
			"byteOffset":3328
		},
		{
			"buffer":0,
			"byteLength":68,
			"byteOffset":3352
		},
		{
			"buffer":0,
			"byteLength":272,
			"byteOffset":3420
		},
		{
			"buffer":0,
			"byteLength":24,
			"byteOffset":3692
		},
		{
			"buffer":0,
			"byteLength":24,
			"byteOffset":3716
		},
		{
			"buffer":0,
			"byteLength":272,
			"byteOffset":3740
		},
		{
			"buffer":0,
			"byteLength":24,
			"byteOffset":4012
		},
		{
			"buffer":0,
			"byteLength":272,
			"byteOffset":4036
		},
		{
			"buffer":0,
			"byteLength":24,
			"byteOffset":4308
		},
		{
			"buffer":0,
			"byteLength":272,
			"byteOffset":4332
		},
		{
			"buffer":0,
			"byteLength":24,
			"byteOffset":4604
		},
		{
			"buffer":0,
			"byteLength":32,
			"byteOffset":4628
		},
		{
			"buffer":0,
			"byteLength":204,
			"byteOffset":4660
		},
		{
			"buffer":0,
			"byteLength":8,
			"byteOffset":4864
		},
		{
			"buffer":0,
			"byteLength":32,
			"byteOffset":4872
		},
		{
			"buffer":0,
			"byteLength":24,
			"byteOffset":4904
		},
		{
			"buffer":0,
			"byteLength":32,
			"byteOffset":4928
		},
		{
			"buffer":0,
			"byteLength":24,
			"byteOffset":4960
		},
		{
			"buffer":0,
			"byteLength":32,
			"byteOffset":4984
		},
		{
			"buffer":0,
			"byteLength":24,
			"byteOffset":5016
		},
		{
			"buffer":0,
			"byteLength":32,
			"byteOffset":5040
		},
		{
			"buffer":0,
			"byteLength":24,
			"byteOffset":5072
		},
		{
			"buffer":0,
			"byteLength":32,
			"byteOffset":5096
		},
		{
			"buffer":0,
			"byteLength":24,
			"byteOffset":5128
		}
	],
	"samplers":[
		{
			"magFilter":9728,
			"minFilter":9984
		}
	],
	"buffers":[
		{
			"byteLength":5152,
			"uri":"flora_sample.bin"
		}
	]
}
