{
	"asset":{
		"generator":"Khronos glTF Blender I/O v5.1.19",
		"version":"2.0"
	},
	"extensionsUsed":[
		"KHR_materials_emissive_strength"
	],
	"scene":0,
	"scenes":[
		{
			"name":"Scene",
			"nodes":[
				6
			]
		}
	],
	"nodes":[
		{
			"name":"seal_0",
			"scale":[
				1,
				0.9999999403953552,
				1
			],
			"translation":[
				0.04500000178813934,
				0.054999999701976776,
				0
			]
		},
		{
			"name":"puff0_0",
			"scale":[
				0.0010000000474974513,
				0.0010000000474974513,
				0.0010000000474974513
			],
			"translation":[
				0.05000000074505806,
				0.1599999964237213,
				0
			]
		},
		{
			"name":"puff1_0",
			"scale":[
				0.0010000000474974513,
				0.0010000000474974513,
				0.0010000000474974513
			],
			"translation":[
				0.06499999761581421,
				0.23499999940395355,
				0
			]
		},
		{
			"name":"puff2_0",
			"scale":[
				0.0010000000474974513,
				0.0010000000474974513,
				0.0010000000474974513
			],
			"translation":[
				0.07999999821186066,
				0.3100000023841858,
				0
			]
		},
		{
			"children":[
				0,
				1,
				2,
				3
			],
			"name":"pod_0"
		},
		{
			"mesh":0,
			"name":"GasPodRigged",
			"skin":0
		},
		{
			"children":[
				5,
				4
			],
			"name":"GasPod_Armature"
		}
	],
	"animations":[
		{
			"channels":[
				{
					"sampler":0,
					"target":{
						"node":4,
						"path":"translation"
					}
				},
				{
					"sampler":1,
					"target":{
						"node":4,
						"path":"rotation"
					}
				},
				{
					"sampler":2,
					"target":{
						"node":4,
						"path":"scale"
					}
				},
				{
					"sampler":3,
					"target":{
						"node":0,
						"path":"translation"
					}
				},
				{
					"sampler":4,
					"target":{
						"node":0,
						"path":"rotation"
					}
				},
				{
					"sampler":5,
					"target":{
						"node":0,
						"path":"scale"
					}
				},
				{
					"sampler":6,
					"target":{
						"node":1,
						"path":"translation"
					}
				},
				{
					"sampler":7,
					"target":{
						"node":1,
						"path":"rotation"
					}
				},
				{
					"sampler":8,
					"target":{
						"node":1,
						"path":"scale"
					}
				},
				{
					"sampler":9,
					"target":{
						"node":2,
						"path":"translation"
					}
				},
				{
					"sampler":10,
					"target":{
						"node":2,
						"path":"rotation"
					}
				},
				{
					"sampler":11,
					"target":{
						"node":2,
						"path":"scale"
					}
				},
				{
					"sampler":12,
					"target":{
						"node":3,
						"path":"translation"
					}
				},
				{
					"sampler":13,
					"target":{
						"node":3,
						"path":"rotation"
					}
				},
				{
					"sampler":14,
					"target":{
						"node":3,
						"path":"scale"
					}
				}
			],
			"name":"gaspod_emit",
			"samplers":[
				{
					"input":7,
					"interpolation":"STEP",
					"output":8
				},
				{
					"input":7,
					"interpolation":"STEP",
					"output":9
				},
				{
					"input":7,
					"interpolation":"STEP",
					"output":10
				},
				{
					"input":7,
					"interpolation":"STEP",
					"output":11
				},
				{
					"input":7,
					"interpolation":"STEP",
					"output":9
				},
				{
					"input":7,
					"interpolation":"STEP",
					"output":12
				},
				{
					"input":7,
					"interpolation":"STEP",
					"output":13
				},
				{
					"input":7,
					"interpolation":"STEP",
					"output":9
				},
				{
					"input":14,
					"interpolation":"LINEAR",
					"output":15
				},
				{
					"input":7,
					"interpolation":"STEP",
					"output":16
				},
				{
					"input":7,
					"interpolation":"STEP",
					"output":9
				},
				{
					"input":14,
					"interpolation":"LINEAR",
					"output":17
				},
				{
					"input":7,
					"interpolation":"STEP",
					"output":18
				},
				{
					"input":7,
					"interpolation":"STEP",
					"output":9
				},
				{
					"input":14,
					"interpolation":"LINEAR",
					"output":19
				}
			]
		},
		{
			"channels":[
				{
					"sampler":0,
					"target":{
						"node":4,
						"path":"translation"
					}
				},
				{
					"sampler":1,
					"target":{
						"node":4,
						"path":"rotation"
					}
				},
				{
					"sampler":2,
					"target":{
						"node":4,
						"path":"scale"
					}
				},
				{
					"sampler":3,
					"target":{
						"node":0,
						"path":"translation"
					}
				},
				{
					"sampler":4,
					"target":{
						"node":0,
						"path":"rotation"
					}
				},
				{
					"sampler":5,
					"target":{
						"node":0,
						"path":"scale"
					}
				},
				{
					"sampler":6,
					"target":{
						"node":1,
						"path":"translation"
					}
				},
				{
					"sampler":7,
					"target":{
						"node":1,
						"path":"rotation"
					}
				},
				{
					"sampler":8,
					"target":{
						"node":1,
						"path":"scale"
					}
				},
				{
					"sampler":9,
					"target":{
						"node":2,
						"path":"translation"
					}
				},
				{
					"sampler":10,
					"target":{
						"node":2,
						"path":"rotation"
					}
				},
				{
					"sampler":11,
					"target":{
						"node":2,
						"path":"scale"
					}
				},
				{
					"sampler":12,
					"target":{
						"node":3,
						"path":"translation"
					}
				},
				{
					"sampler":13,
					"target":{
						"node":3,
						"path":"rotation"
					}
				},
				{
					"sampler":14,
					"target":{
						"node":3,
						"path":"scale"
					}
				}
			],
			"name":"gaspod_spend",
			"samplers":[
				{
					"input":20,
					"interpolation":"STEP",
					"output":8
				},
				{
					"input":20,
					"interpolation":"STEP",
					"output":9
				},
				{
					"input":20,
					"interpolation":"STEP",
					"output":10
				},
				{
					"input":20,
					"interpolation":"STEP",
					"output":11
				},
				{
					"input":20,
					"interpolation":"STEP",
					"output":9
				},
				{
					"input":21,
					"interpolation":"LINEAR",
					"output":22
				},
				{
					"input":20,
					"interpolation":"STEP",
					"output":13
				},
				{
					"input":20,
					"interpolation":"STEP",
					"output":9
				},
				{
					"input":20,
					"interpolation":"STEP",
					"output":23
				},
				{
					"input":20,
					"interpolation":"STEP",
					"output":16
				},
				{
					"input":20,
					"interpolation":"STEP",
					"output":9
				},
				{
					"input":20,
					"interpolation":"STEP",
					"output":23
				},
				{
					"input":20,
					"interpolation":"STEP",
					"output":18
				},
				{
					"input":20,
					"interpolation":"STEP",
					"output":9
				},
				{
					"input":20,
					"interpolation":"STEP",
					"output":23
				}
			]
		}
	],
	"materials":[
		{
			"alphaMode":"MASK",
			"doubleSided":true,
			"emissiveFactor":[
				1,
				1,
				1
			],
			"emissiveTexture":{
				"index":0
			},
			"extensions":{
				"KHR_materials_emissive_strength":{
					"emissiveStrength":1.5
				}
			},
			"name":"GasPodRiggedTex",
			"pbrMetallicRoughness":{
				"baseColorTexture":{
					"index":1
				},
				"metallicFactor":0,
				"roughnessFactor":0.8999999761581421
			}
		}
	],
	"meshes":[
		{
			"name":"GasPodRigged",
			"primitives":[
				{
					"attributes":{
						"POSITION":0,
						"NORMAL":1,
						"TEXCOORD_0":2,
						"JOINTS_0":3,
						"WEIGHTS_0":4
					},
					"indices":5,
					"material":0
				}
			]
		}
	],
	"textures":[
		{
			"sampler":0,
			"source":0
		},
		{
			"sampler":0,
			"source":1
		}
	],
	"images":[
		{
			"mimeType":"image/png",
			"name":"GasPodRigged_emissive",
			"uri":"GasPodRigged_emissive.png"
		},
		{
			"mimeType":"image/png",
			"name":"GasPodRigged_tex",
			"uri":"GasPodRigged_tex.png"
		}
	],
	"skins":[
		{
			"inverseBindMatrices":6,
			"joints":[
				4,
				0,
				1,
				2,
				3
			],
			"name":"GasPod_Armature"
		}
	],
	"accessors":[
		{
			"bufferView":0,
			"componentType":5126,
			"count":264,
			"max":[
				0.13950000703334808,
				0.3695000112056732,
				0.0494549386203289
			],
			"min":[
				-0.052000001072883606,
				0,
				-0.0494549386203289
			],
			"type":"VEC3"
		},
		{
			"bufferView":1,
			"componentType":5126,
			"count":264,
			"type":"VEC3"
		},
		{
			"bufferView":2,
			"componentType":5126,
			"count":264,
			"type":"VEC2"
		},
		{
			"bufferView":3,
			"componentType":5121,
			"count":264,
			"type":"VEC4"
		},
		{
			"bufferView":4,
			"componentType":5126,
			"count":264,
			"type":"VEC4"
		},
		{
			"bufferView":5,
			"componentType":5123,
			"count":462,
			"type":"SCALAR"
		},
		{
			"bufferView":6,
			"componentType":5126,
			"count":5,
			"type":"MAT4"
		},
		{
			"bufferView":7,
			"componentType":5126,
			"count":2,
			"max":[
				1.8333333333333333
			],
			"min":[
				0.041666666666666664
			],
			"type":"SCALAR"
		},
		{
			"bufferView":8,
			"componentType":5126,
			"count":2,
			"type":"VEC3"
		},
		{
			"bufferView":9,
			"componentType":5126,
			"count":2,
			"type":"VEC4"
		},
		{
			"bufferView":10,
			"componentType":5126,
			"count":2,
			"type":"VEC3"
		},
		{
			"bufferView":11,
			"componentType":5126,
			"count":2,
			"type":"VEC3"
		},
		{
			"bufferView":12,
			"componentType":5126,
			"count":2,
			"type":"VEC3"
		},
		{
			"bufferView":13,
			"componentType":5126,
			"count":2,
			"type":"VEC3"
		},
		{
			"bufferView":14,
			"componentType":5126,
			"count":44,
			"max":[
				1.8333333333333333
			],
			"min":[
				0.041666666666666664
			],
			"type":"SCALAR"
		},
		{
			"bufferView":15,
			"componentType":5126,
			"count":44,
			"type":"VEC3"
		},
		{
			"bufferView":16,
			"componentType":5126,
			"count":2,
			"type":"VEC3"
		},
		{
			"bufferView":17,
			"componentType":5126,
			"count":44,
			"type":"VEC3"
		},
		{
			"bufferView":18,
			"componentType":5126,
			"count":2,
			"type":"VEC3"
		},
		{
			"bufferView":19,
			"componentType":5126,
			"count":44,
			"type":"VEC3"
		},
		{
			"bufferView":20,
			"componentType":5126,
			"count":2,
			"max":[
				1.0833333333333333
			],
			"min":[
				0.041666666666666664
			],
			"type":"SCALAR"
		},
		{
			"bufferView":21,
			"componentType":5126,
			"count":26,
			"max":[
				1.0833333333333333
			],
			"min":[
				0.041666666666666664
			],
			"type":"SCALAR"
		},
		{
			"bufferView":22,
			"componentType":5126,
			"count":26,
			"type":"VEC3"
		},
		{
			"bufferView":23,
			"componentType":5126,
			"count":2,
			"type":"VEC3"
		}
	],
	"bufferViews":[
		{
			"buffer":0,
			"byteLength":3168,
			"byteOffset":0,
			"target":34962
		},
		{
			"buffer":0,
			"byteLength":3168,
			"byteOffset":3168,
			"target":34962
		},
		{
			"buffer":0,
			"byteLength":2112,
			"byteOffset":6336,
			"target":34962
		},
		{
			"buffer":0,
			"byteLength":1056,
			"byteOffset":8448,
			"target":34962
		},
		{
			"buffer":0,
			"byteLength":4224,
			"byteOffset":9504,
			"target":34962
		},
		{
			"buffer":0,
			"byteLength":924,
			"byteOffset":13728,
			"target":34963
		},
		{
			"buffer":0,
			"byteLength":320,
			"byteOffset":14652
		},
		{
			"buffer":0,
			"byteLength":8,
			"byteOffset":14972
		},
		{
			"buffer":0,
			"byteLength":24,
			"byteOffset":14980
		},
		{
			"buffer":0,
			"byteLength":32,
			"byteOffset":15004
		},
		{
			"buffer":0,
			"byteLength":24,
			"byteOffset":15036
		},
		{
			"buffer":0,
			"byteLength":24,
			"byteOffset":15060
		},
		{
			"buffer":0,
			"byteLength":24,
			"byteOffset":15084
		},
		{
			"buffer":0,
			"byteLength":24,
			"byteOffset":15108
		},
		{
			"buffer":0,
			"byteLength":176,
			"byteOffset":15132
		},
		{
			"buffer":0,
			"byteLength":528,
			"byteOffset":15308
		},
		{
			"buffer":0,
			"byteLength":24,
			"byteOffset":15836
		},
		{
			"buffer":0,
			"byteLength":528,
			"byteOffset":15860
		},
		{
			"buffer":0,
			"byteLength":24,
			"byteOffset":16388
		},
		{
			"buffer":0,
			"byteLength":528,
			"byteOffset":16412
		},
		{
			"buffer":0,
			"byteLength":8,
			"byteOffset":16940
		},
		{
			"buffer":0,
			"byteLength":104,
			"byteOffset":16948
		},
		{
			"buffer":0,
			"byteLength":312,
			"byteOffset":17052
		},
		{
			"buffer":0,
			"byteLength":24,
			"byteOffset":17364
		}
	],
	"samplers":[
		{
			"magFilter":9728,
			"minFilter":9984
		}
	],
	"buffers":[
		{
			"byteLength":17388,
			"uri":"flora_gaspod.bin"
		}
	]
}
