{
	"asset":{
		"generator":"Khronos glTF Blender I/O v5.1.19",
		"version":"2.0"
	},
	"scene":0,
	"scenes":[
		{
			"name":"Scene",
			"nodes":[
				8
			]
		}
	],
	"nodes":[
		{
			"name":"vine_6",
			"rotation":[
				-1.2286712649362506e-14,
				-1.0276159670375914e-14,
				0.10977829992771149,
				0.9939561486244202
			],
			"translation":[
				9.313220417084267e-09,
				0.1785714477300644,
				4.4408925220171e-15
			]
		},
		{
			"children":[
				0
			],
			"name":"vine_5",
			"rotation":[
				-2.00481327197776e-15,
				2.227570655127906e-15,
				-0.07991468906402588,
				0.9968017339706421
			],
			"scale":[
				0.9999999403953552,
				0.9999999403953552,
				1
			],
			"translation":[
				-7.450584149637507e-09,
				0.1785714030265808,
				6.661339841816834e-15
			]
		},
		{
			"children":[
				1
			],
			"name":"vine_4",
			"rotation":[
				2.2339479661877834e-15,
				2.2339479661877834e-15,
				0.10977830737829208,
				0.9939561486244202
			],
			"scale":[
				0.9999999403953552,
				0.9999999403953552,
				1
			],
			"translation":[
				7.4505766001209395e-09,
				0.1785714328289032,
				-6.439293542825908e-15
			]
		},
		{
			"children":[
				2
			],
			"name":"vine_3",
			"rotation":[
				-5.1234117656403545e-15,
				-4.232383927105666e-15,
				-0.07991468906402588,
				0.9968017339706421
			],
			"scale":[
				0.9999998807907104,
				0.9999998807907104,
				1
			],
			"translation":[
				1.1175868230850483e-08,
				0.17857137322425842,
				-1.7763564158837768e-15
			]
		},
		{
			"children":[
				3
			],
			"name":"vine_2",
			"rotation":[
				4.9146850597450026e-15,
				3.1275268562013653e-15,
				0.10977829247713089,
				0.9939561486244202
			],
			"translation":[
				-1.8626473696770063e-09,
				0.1785714477300644,
				2.22044626100855e-15
			]
		},
		{
			"children":[
				4
			],
			"name":"vine_1",
			"rotation":[
				6.682712494779309e-16,
				2.116191963552833e-15,
				-0.07991469651460648,
				0.9968017339706421
			],
			"scale":[
				0.9999999403953552,
				0.9999999403953552,
				1
			],
			"translation":[
				-9.208971848701907e-16,
				0.1785714328289032,
				-8.881784197001252e-16
			]
		},
		{
			"children":[
				5
			],
			"name":"vine_0",
			"rotation":[
				-0.5518671274185181,
				-0.44208893179893494,
				-0.44208893179893494,
				0.5518672466278076
			],
			"scale":[
				0.9999999403953552,
				0.9999999403953552,
				1
			]
		},
		{
			"mesh":0,
			"name":"VineCutRigged",
			"skin":0
		},
		{
			"children":[
				7,
				6
			],
			"name":"VineCut_Armature"
		}
	],
	"animations":[
		{
			"channels":[
				{
					"sampler":0,
					"target":{
						"node":6,
						"path":"translation"
					}
				},
				{
					"sampler":1,
					"target":{
						"node":6,
						"path":"rotation"
					}
				},
				{
					"sampler":2,
					"target":{
						"node":6,
						"path":"scale"
					}
				},
				{
					"sampler":3,
					"target":{
						"node":5,
						"path":"translation"
					}
				},
				{
					"sampler":4,
					"target":{
						"node":5,
						"path":"rotation"
					}
				},
				{
					"sampler":5,
					"target":{
						"node":5,
						"path":"scale"
					}
				},
				{
					"sampler":6,
					"target":{
						"node":4,
						"path":"translation"
					}
				},
				{
					"sampler":7,
					"target":{
						"node":4,
						"path":"rotation"
					}
				},
				{
					"sampler":8,
					"target":{
						"node":4,
						"path":"scale"
					}
				},
				{
					"sampler":9,
					"target":{
						"node":3,
						"path":"translation"
					}
				},
				{
					"sampler":10,
					"target":{
						"node":3,
						"path":"rotation"
					}
				},
				{
					"sampler":11,
					"target":{
						"node":3,
						"path":"scale"
					}
				},
				{
					"sampler":12,
					"target":{
						"node":2,
						"path":"translation"
					}
				},
				{
					"sampler":13,
					"target":{
						"node":2,
						"path":"rotation"
					}
				},
				{
					"sampler":14,
					"target":{
						"node":2,
						"path":"scale"
					}
				},
				{
					"sampler":15,
					"target":{
						"node":1,
						"path":"translation"
					}
				},
				{
					"sampler":16,
					"target":{
						"node":1,
						"path":"rotation"
					}
				},
				{
					"sampler":17,
					"target":{
						"node":1,
						"path":"scale"
					}
				},
				{
					"sampler":18,
					"target":{
						"node":0,
						"path":"translation"
					}
				},
				{
					"sampler":19,
					"target":{
						"node":0,
						"path":"rotation"
					}
				},
				{
					"sampler":20,
					"target":{
						"node":0,
						"path":"scale"
					}
				}
			],
			"name":"vinecut_sling",
			"samplers":[
				{
					"input":7,
					"interpolation":"STEP",
					"output":8
				},
				{
					"input":9,
					"interpolation":"LINEAR",
					"output":10
				},
				{
					"input":7,
					"interpolation":"STEP",
					"output":11
				},
				{
					"input":7,
					"interpolation":"STEP",
					"output":12
				},
				{
					"input":9,
					"interpolation":"LINEAR",
					"output":13
				},
				{
					"input":7,
					"interpolation":"STEP",
					"output":14
				},
				{
					"input":7,
					"interpolation":"STEP",
					"output":15
				},
				{
					"input":9,
					"interpolation":"LINEAR",
					"output":16
				},
				{
					"input":7,
					"interpolation":"STEP",
					"output":17
				},
				{
					"input":7,
					"interpolation":"STEP",
					"output":18
				},
				{
					"input":9,
					"interpolation":"LINEAR",
					"output":19
				},
				{
					"input":7,
					"interpolation":"STEP",
					"output":20
				},
				{
					"input":7,
					"interpolation":"STEP",
					"output":21
				},
				{
					"input":9,
					"interpolation":"LINEAR",
					"output":22
				},
				{
					"input":7,
					"interpolation":"STEP",
					"output":23
				},
				{
					"input":7,
					"interpolation":"STEP",
					"output":24
				},
				{
					"input":9,
					"interpolation":"LINEAR",
					"output":25
				},
				{
					"input":7,
					"interpolation":"STEP",
					"output":26
				},
				{
					"input":7,
					"interpolation":"STEP",
					"output":27
				},
				{
					"input":9,
					"interpolation":"LINEAR",
					"output":28
				},
				{
					"input":7,
					"interpolation":"STEP",
					"output":29
				}
			]
		},
		{
			"channels":[
				{
					"sampler":0,
					"target":{
						"node":6,
						"path":"translation"
					}
				},
				{
					"sampler":1,
					"target":{
						"node":6,
						"path":"rotation"
					}
				},
				{
					"sampler":2,
					"target":{
						"node":6,
						"path":"scale"
					}
				},
				{
					"sampler":3,
					"target":{
						"node":5,
						"path":"translation"
					}
				},
				{
					"sampler":4,
					"target":{
						"node":5,
						"path":"rotation"
					}
				},
				{
					"sampler":5,
					"target":{
						"node":5,
						"path":"scale"
					}
				},
				{
					"sampler":6,
					"target":{
						"node":4,
						"path":"translation"
					}
				},
				{
					"sampler":7,
					"target":{
						"node":4,
						"path":"rotation"
					}
				},
				{
					"sampler":8,
					"target":{
						"node":4,
						"path":"scale"
					}
				},
				{
					"sampler":9,
					"target":{
						"node":3,
						"path":"translation"
					}
				},
				{
					"sampler":10,
					"target":{
						"node":3,
						"path":"rotation"
					}
				},
				{
					"sampler":11,
					"target":{
						"node":3,
						"path":"scale"
					}
				},
				{
					"sampler":12,
					"target":{
						"node":2,
						"path":"translation"
					}
				},
				{
					"sampler":13,
					"target":{
						"node":2,
						"path":"rotation"
					}
				},
				{
					"sampler":14,
					"target":{
						"node":2,
						"path":"scale"
					}
				},
				{
					"sampler":15,
					"target":{
						"node":1,
						"path":"translation"
					}
				},
				{
					"sampler":16,
					"target":{
						"node":1,
						"path":"rotation"
					}
				},
				{
					"sampler":17,
					"target":{
						"node":1,
						"path":"scale"
					}
				},
				{
					"sampler":18,
					"target":{
						"node":0,
						"path":"translation"
					}
				},
				{
					"sampler":19,
					"target":{
						"node":0,
						"path":"rotation"
					}
				},
				{
					"sampler":20,
					"target":{
						"node":0,
						"path":"scale"
					}
				}
			],
			"name":"vinecut_gather",
			"samplers":[
				{
					"input":30,
					"interpolation":"STEP",
					"output":8
				},
				{
					"input":31,
					"interpolation":"LINEAR",
					"output":32
				},
				{
					"input":30,
					"interpolation":"STEP",
					"output":33
				},
				{
					"input":30,
					"interpolation":"STEP",
					"output":34
				},
				{
					"input":31,
					"interpolation":"LINEAR",
					"output":35
				},
				{
					"input":30,
					"interpolation":"STEP",
					"output":36
				},
				{
					"input":30,
					"interpolation":"STEP",
					"output":37
				},
				{
					"input":31,
					"interpolation":"LINEAR",
					"output":38
				},
				{
					"input":30,
					"interpolation":"STEP",
					"output":39
				},
				{
					"input":30,
					"interpolation":"STEP",
					"output":40
				},
				{
					"input":31,
					"interpolation":"LINEAR",
					"output":41
				},
				{
					"input":30,
					"interpolation":"STEP",
					"output":42
				},
				{
					"input":30,
					"interpolation":"STEP",
					"output":43
				},
				{
					"input":31,
					"interpolation":"LINEAR",
					"output":44
				},
				{
					"input":30,
					"interpolation":"STEP",
					"output":45
				},
				{
					"input":30,
					"interpolation":"STEP",
					"output":46
				},
				{
					"input":31,
					"interpolation":"LINEAR",
					"output":47
				},
				{
					"input":30,
					"interpolation":"STEP",
					"output":48
				},
				{
					"input":30,
					"interpolation":"STEP",
					"output":49
				},
				{
					"input":31,
					"interpolation":"LINEAR",
					"output":50
				},
				{
					"input":30,
					"interpolation":"STEP",
					"output":51
				}
			]
		}
	],
	"materials":[
		{
			"doubleSided":true,
			"name":"VineCutRiggedTex",
			"pbrMetallicRoughness":{
				"baseColorTexture":{
					"index":0
				},
				"metallicFactor":0,
				"roughnessFactor":0.8999999761581421
			}
		}
	],
	"meshes":[
		{
			"name":"VineCutRigged",
			"primitives":[
				{
					"attributes":{
						"POSITION":0,
						"NORMAL":1,
						"TEXCOORD_0":2,
						"JOINTS_0":3,
						"WEIGHTS_0":4
					},
					"indices":5,
					"material":0
				}
			]
		}
	],
	"textures":[
		{
			"sampler":0,
			"source":0
		}
	],
	"images":[
		{
			"mimeType":"image/png",
			"name":"VineCutRigged_tex",
			"uri":"VineCutRigged_tex.png"
		}
	],
	"skins":[
		{
			"inverseBindMatrices":6,
			"joints":[
				6,
				5,
				4,
				3,
				2,
				1,
				0
			],
			"name":"VineCut_Armature"
		}
	],
	"accessors":[
		{
			"bufferView":0,
			"componentType":5126,
			"count":568,
			"max":[
				1.2649999856948853,
				0.06382012367248535,
				0.06300000101327896
			],
			"min":[
				-3.1709117553901933e-09,
				-0.06392806768417358,
				-0.06469910591840744
			],
			"type":"VEC3"
		},
		{
			"bufferView":1,
			"componentType":5126,
			"count":568,
			"type":"VEC3"
		},
		{
			"bufferView":2,
			"componentType":5126,
			"count":568,
			"type":"VEC2"
		},
		{
			"bufferView":3,
			"componentType":5121,
			"count":568,
			"type":"VEC4"
		},
		{
			"bufferView":4,
			"componentType":5126,
			"count":568,
			"type":"VEC4"
		},
		{
			"bufferView":5,
			"componentType":5123,
			"count":870,
			"type":"SCALAR"
		},
		{
			"bufferView":6,
			"componentType":5126,
			"count":7,
			"type":"MAT4"
		},
		{
			"bufferView":7,
			"componentType":5126,
			"count":2,
			"max":[
				1.0833333333333333
			],
			"min":[
				0.041666666666666664
			],
			"type":"SCALAR"
		},
		{
			"bufferView":8,
			"componentType":5126,
			"count":2,
			"type":"VEC3"
		},
		{
			"bufferView":9,
			"componentType":5126,
			"count":26,
			"max":[
				1.0833333333333333
			],
			"min":[
				0.041666666666666664
			],
			"type":"SCALAR"
		},
		{
			"bufferView":10,
			"componentType":5126,
			"count":26,
			"type":"VEC4"
		},
		{
			"bufferView":11,
			"componentType":5126,
			"count":2,
			"type":"VEC3"
		},
		{
			"bufferView":12,
			"componentType":5126,
			"count":2,
			"type":"VEC3"
		},
		{
			"bufferView":13,
			"componentType":5126,
			"count":26,
			"type":"VEC4"
		},
		{
			"bufferView":14,
			"componentType":5126,
			"count":2,
			"type":"VEC3"
		},
		{
			"bufferView":15,
			"componentType":5126,
			"count":2,
			"type":"VEC3"
		},
		{
			"bufferView":16,
			"componentType":5126,
			"count":26,
			"type":"VEC4"
		},
		{
			"bufferView":17,
			"componentType":5126,
			"count":2,
			"type":"VEC3"
		},
		{
			"bufferView":18,
			"componentType":5126,
			"count":2,
			"type":"VEC3"
		},
		{
			"bufferView":19,
			"componentType":5126,
			"count":26,
			"type":"VEC4"
		},
		{
			"bufferView":20,
			"componentType":5126,
			"count":2,
			"type":"VEC3"
		},
		{
			"bufferView":21,
			"componentType":5126,
			"count":2,
			"type":"VEC3"
		},
		{
			"bufferView":22,
			"componentType":5126,
			"count":26,
			"type":"VEC4"
		},
		{
			"bufferView":23,
			"componentType":5126,
			"count":2,
			"type":"VEC3"
		},
		{
			"bufferView":24,
			"componentType":5126,
			"count":2,
			"type":"VEC3"
		},
		{
			"bufferView":25,
			"componentType":5126,
			"count":26,
			"type":"VEC4"
		},
		{
			"bufferView":26,
			"componentType":5126,
			"count":2,
			"type":"VEC3"
		},
		{
			"bufferView":27,
			"componentType":5126,
			"count":2,
			"type":"VEC3"
		},
		{
			"bufferView":28,
			"componentType":5126,
			"count":26,
			"type":"VEC4"
		},
		{
			"bufferView":29,
			"componentType":5126,
			"count":2,
			"type":"VEC3"
		},
		{
			"bufferView":30,
			"componentType":5126,
			"count":2,
			"max":[
				0.9166666666666666
			],
			"min":[
				0.041666666666666664
			],
			"type":"SCALAR"
		},
		{
			"bufferView":31,
			"componentType":5126,
			"count":22,
			"max":[
				0.9166666666666666
			],
			"min":[
				0.041666666666666664
			],
			"type":"SCALAR"
		},
		{
			"bufferView":32,
			"componentType":5126,
			"count":22,
			"type":"VEC4"
		},
		{
			"bufferView":33,
			"componentType":5126,
			"count":2,
			"type":"VEC3"
		},
		{
			"bufferView":34,
			"componentType":5126,
			"count":2,
			"type":"VEC3"
		},
		{
			"bufferView":35,
			"componentType":5126,
			"count":22,
			"type":"VEC4"
		},
		{
			"bufferView":36,
			"componentType":5126,
			"count":2,
			"type":"VEC3"
		},
		{
			"bufferView":37,
			"componentType":5126,
			"count":2,
			"type":"VEC3"
		},
		{
			"bufferView":38,
			"componentType":5126,
			"count":22,
			"type":"VEC4"
		},
		{
			"bufferView":39,
			"componentType":5126,
			"count":2,
			"type":"VEC3"
		},
		{
			"bufferView":40,
			"componentType":5126,
			"count":2,
			"type":"VEC3"
		},
		{
			"bufferView":41,
			"componentType":5126,
			"count":22,
			"type":"VEC4"
		},
		{
			"bufferView":42,
			"componentType":5126,
			"count":2,
			"type":"VEC3"
		},
		{
			"bufferView":43,
			"componentType":5126,
			"count":2,
			"type":"VEC3"
		},
		{
			"bufferView":44,
			"componentType":5126,
			"count":22,
			"type":"VEC4"
		},
		{
			"bufferView":45,
			"componentType":5126,
			"count":2,
			"type":"VEC3"
		},
		{
			"bufferView":46,
			"componentType":5126,
			"count":2,
			"type":"VEC3"
		},
		{
			"bufferView":47,
			"componentType":5126,
			"count":22,
			"type":"VEC4"
		},
		{
			"bufferView":48,
			"componentType":5126,
			"count":2,
			"type":"VEC3"
		},
		{
			"bufferView":49,
			"componentType":5126,
			"count":2,
			"type":"VEC3"
		},
		{
			"bufferView":50,
			"componentType":5126,
			"count":22,
			"type":"VEC4"
		},
		{
			"bufferView":51,
			"componentType":5126,
			"count":2,
			"type":"VEC3"
		}
	],
	"bufferViews":[
		{
			"buffer":0,
			"byteLength":6816,
			"byteOffset":0,
			"target":34962
		},
		{
			"buffer":0,
			"byteLength":6816,
			"byteOffset":6816,
			"target":34962
		},
		{
			"buffer":0,
			"byteLength":4544,
			"byteOffset":13632,
			"target":34962
		},
		{
			"buffer":0,
			"byteLength":2272,
			"byteOffset":18176,
			"target":34962
		},
		{
			"buffer":0,
			"byteLength":9088,
			"byteOffset":20448,
			"target":34962
		},
		{
			"buffer":0,
			"byteLength":1740,
			"byteOffset":29536,
			"target":34963
		},
		{
			"buffer":0,
			"byteLength":448,
			"byteOffset":31276
		},
		{
			"buffer":0,
			"byteLength":8,
			"byteOffset":31724
		},
		{
			"buffer":0,
			"byteLength":24,
			"byteOffset":31732
		},
		{
			"buffer":0,
			"byteLength":104,
			"byteOffset":31756
		},
		{
			"buffer":0,
			"byteLength":416,
			"byteOffset":31860
		},
		{
			"buffer":0,
			"byteLength":24,
			"byteOffset":32276
		},
		{
			"buffer":0,
			"byteLength":24,
			"byteOffset":32300
		},
		{
			"buffer":0,
			"byteLength":416,
			"byteOffset":32324
		},
		{
			"buffer":0,
			"byteLength":24,
			"byteOffset":32740
		},
		{
			"buffer":0,
			"byteLength":24,
			"byteOffset":32764
		},
		{
			"buffer":0,
			"byteLength":416,
			"byteOffset":32788
		},
		{
			"buffer":0,
			"byteLength":24,
			"byteOffset":33204
		},
		{
			"buffer":0,
			"byteLength":24,
			"byteOffset":33228
		},
		{
			"buffer":0,
			"byteLength":416,
			"byteOffset":33252
		},
		{
			"buffer":0,
			"byteLength":24,
			"byteOffset":33668
		},
		{
			"buffer":0,
			"byteLength":24,
			"byteOffset":33692
		},
		{
			"buffer":0,
			"byteLength":416,
			"byteOffset":33716
		},
		{
			"buffer":0,
			"byteLength":24,
			"byteOffset":34132
		},
		{
			"buffer":0,
			"byteLength":24,
			"byteOffset":34156
		},
		{
			"buffer":0,
			"byteLength":416,
			"byteOffset":34180
		},
		{
			"buffer":0,
			"byteLength":24,
			"byteOffset":34596
		},
		{
			"buffer":0,
			"byteLength":24,
			"byteOffset":34620
		},
		{
			"buffer":0,
			"byteLength":416,
			"byteOffset":34644
		},
		{
			"buffer":0,
			"byteLength":24,
			"byteOffset":35060
		},
		{
			"buffer":0,
			"byteLength":8,
			"byteOffset":35084
		},
		{
			"buffer":0,
			"byteLength":88,
			"byteOffset":35092
		},
		{
			"buffer":0,
			"byteLength":352,
			"byteOffset":35180
		},
		{
			"buffer":0,
			"byteLength":24,
			"byteOffset":35532
		},
		{
			"buffer":0,
			"byteLength":24,
			"byteOffset":35556
		},
		{
			"buffer":0,
			"byteLength":352,
			"byteOffset":35580
		},
		{
			"buffer":0,
			"byteLength":24,
			"byteOffset":35932
		},
		{
			"buffer":0,
			"byteLength":24,
			"byteOffset":35956
		},
		{
			"buffer":0,
			"byteLength":352,
			"byteOffset":35980
		},
		{
			"buffer":0,
			"byteLength":24,
			"byteOffset":36332
		},
		{
			"buffer":0,
			"byteLength":24,
			"byteOffset":36356
		},
		{
			"buffer":0,
			"byteLength":352,
			"byteOffset":36380
		},
		{
			"buffer":0,
			"byteLength":24,
			"byteOffset":36732
		},
		{
			"buffer":0,
			"byteLength":24,
			"byteOffset":36756
		},
		{
			"buffer":0,
			"byteLength":352,
			"byteOffset":36780
		},
		{
			"buffer":0,
			"byteLength":24,
			"byteOffset":37132
		},
		{
			"buffer":0,
			"byteLength":24,
			"byteOffset":37156
		},
		{
			"buffer":0,
			"byteLength":352,
			"byteOffset":37180
		},
		{
			"buffer":0,
			"byteLength":24,
			"byteOffset":37532
		},
		{
			"buffer":0,
			"byteLength":24,
			"byteOffset":37556
		},
		{
			"buffer":0,
			"byteLength":352,
			"byteOffset":37580
		},
		{
			"buffer":0,
			"byteLength":24,
			"byteOffset":37932
		}
	],
	"samplers":[
		{
			"magFilter":9728,
			"minFilter":9984
		}
	],
	"buffers":[
		{
			"byteLength":37956,
			"uri":"flora_vinecut.bin"
		}
	]
}
