{
	"asset":{
		"generator":"Khronos glTF Blender I/O v5.1.19",
		"version":"2.0"
	},
	"extensionsUsed":[
		"KHR_materials_emissive_strength"
	],
	"scene":0,
	"scenes":[
		{
			"name":"Scene",
			"nodes":[
				30
			]
		}
	],
	"nodes":[
		{
			"name":"frond0_3",
			"rotation":[
				7.4505797087454084e-09,
				-4.0745362639427185e-09,
				-2.852175384759903e-09,
				1
			],
			"scale":[
				1,
				1.0000001192092896,
				1.0000001192092896
			],
			"translation":[
				-6.984919309616089e-10,
				0.17500002682209015,
				-3.6088749766349792e-09
			]
		},
		{
			"children":[
				0
			],
			"name":"frond0_2",
			"rotation":[
				-7.479683539202142e-09,
				1.1641531072470457e-09,
				1.338776089987448e-09,
				1
			],
			"scale":[
				1,
				1.0000001192092896,
				1.0000001192092896
			],
			"translation":[
				-9.313225746154785e-10,
				0.17500002682209015,
				8.294591680169106e-10
			]
		},
		{
			"children":[
				1
			],
			"name":"frond0_1",
			"rotation":[
				-3.7252898543727042e-09,
				-1.7462301049597784e-10,
				1.222360768160513e-09,
				1
			],
			"scale":[
				1,
				1.0000001192092896,
				1.0000001192092896
			],
			"translation":[
				-2.9103830456733704e-10,
				0.17500002682209015,
				1.57160684466362e-09
			]
		},
		{
			"children":[
				2
			],
			"name":"frond0_0",
			"rotation":[
				-0.04856806620955467,
				-0.01179241482168436,
				-0.01179241482168436,
				0.9986806511878967
			],
			"translation":[
				0,
				0.05999999865889549,
				0
			]
		},
		{
			"name":"frond1_3",
			"rotation":[
				-9.313225746154785e-10,
				-4.936009645462036e-08,
				-3.91155481338501e-08,
				1
			],
			"translation":[
				9.313225746154785e-09,
				0.15000000596046448,
				1.862645149230957e-09
			]
		},
		{
			"children":[
				4
			],
			"name":"frond1_2",
			"rotation":[
				7.450580596923828e-09,
				1.30385160446167e-08,
				1.1175870895385742e-08,
				1
			],
			"translation":[
				-3.725290298461914e-09,
				0.14999999105930328,
				2.7939677238464355e-09
			]
		},
		{
			"children":[
				5
			],
			"name":"frond1_1",
			"rotation":[
				3.725290298461914e-09,
				-1.862645149230957e-09,
				1.0244548320770264e-08,
				1
			],
			"translation":[
				-9.313225746154785e-10,
				0.15000000596046448,
				1.862645149230957e-09
			]
		},
		{
			"children":[
				6
			],
			"name":"frond1_0",
			"rotation":[
				-0.07810965180397034,
				-0.1273995190858841,
				-0.1273995339870453,
				0.9805293083190918
			],
			"scale":[
				0.9999999403953552,
				0.9999999403953552,
				0.9999999403953552
			],
			"translation":[
				0,
				0.05999999865889549,
				0
			]
		},
		{
			"name":"frond2_3",
			"rotation":[
				-3.259629011154175e-08,
				1.257285475730896e-08,
				2.7939677238464355e-08,
				1
			],
			"translation":[
				-9.313225746154785e-09,
				0.13750001788139343,
				1.3969838619232178e-09
			]
		},
		{
			"children":[
				8
			],
			"name":"frond2_2",
			"rotation":[
				2.0489096641540527e-08,
				-2.8405338525772095e-08,
				-1.4901161193847656e-08,
				1
			],
			"translation":[
				-1.862645149230957e-09,
				0.13750001788139343,
				-4.656612873077393e-10
			]
		},
		{
			"children":[
				9
			],
			"name":"frond2_1",
			"rotation":[
				6.51925802230835e-09,
				3.259629011154175e-09,
				1.862645149230957e-09,
				1
			],
			"translation":[
				-5.587935447692871e-09,
				0.13750001788139343,
				-1.6298145055770874e-09
			]
		},
		{
			"children":[
				10
			],
			"name":"frond2_0",
			"rotation":[
				0.053715985268354416,
				-0.17078107595443726,
				-0.17078107595443726,
				0.9689077734947205
			],
			"scale":[
				1,
				0.9999999403953552,
				0.9999999403953552
			],
			"translation":[
				0,
				0.05999999865889549,
				0
			]
		},
		{
			"name":"frond3_3",
			"rotation":[
				-5.937182123716411e-08,
				3.073364496231079e-08,
				2.7939679014821195e-08,
				1
			],
			"scale":[
				1,
				0.9999999403953552,
				0.9999999403953552
			],
			"translation":[
				4.6566128730773926e-09,
				0.12499988079071045,
				1.0477378964424133e-08
			]
		},
		{
			"children":[
				12
			],
			"name":"frond3_2",
			"rotation":[
				7.427296822015705e-08,
				-1.6763802790364934e-08,
				-2.561136724921198e-08,
				1
			],
			"scale":[
				1.0000001192092896,
				1.0000001192092896,
				1.0000001192092896
			],
			"translation":[
				-3.259629011154175e-09,
				0.1250000149011612,
				-5.122274160385132e-09
			]
		},
		{
			"children":[
				13
			],
			"name":"frond3_1",
			"rotation":[
				-5.215406062575312e-08,
				6.51925757821914e-09,
				1.257285475730896e-08,
				1
			],
			"scale":[
				1,
				1,
				1.0000001192092896
			],
			"translation":[
				0,
				0.125,
				-2.7939677238464355e-09
			]
		},
		{
			"children":[
				14
			],
			"name":"frond3_0",
			"rotation":[
				0.1929871141910553,
				-0.047175198793411255,
				-0.04717520624399185,
				0.9789305329322815
			],
			"scale":[
				1,
				1,
				1.0000001192092896
			],
			"translation":[
				0,
				0.05999999865889549,
				0
			]
		},
		{
			"name":"frond4_3",
			"rotation":[
				-1.303851515643828e-08,
				3.259629011154175e-08,
				3.4458935260772705e-08,
				1
			],
			"scale":[
				1,
				1.0000001192092896,
				1
			],
			"translation":[
				-3.725290298461914e-09,
				0.14500004053115845,
				-9.313225746154785e-10
			]
		},
		{
			"children":[
				16
			],
			"name":"frond4_2",
			"rotation":[
				0,
				-3.073364496231079e-08,
				-3.073364496231079e-08,
				1
			],
			"scale":[
				1,
				1.0000001192092896,
				1.0000001192092896
			],
			"translation":[
				-1.862645149230957e-09,
				0.14500002562999725,
				9.313225746154785e-10
			]
		},
		{
			"children":[
				17
			],
			"name":"frond4_1",
			"rotation":[
				9.313223525708736e-10,
				-5.587934559514451e-09,
				-7.4505797087454084e-09,
				1
			],
			"scale":[
				1.0000001192092896,
				1.0000001192092896,
				1.0000001192092896
			],
			"translation":[
				1.862645149230957e-09,
				0.14500001072883606,
				-2.7939677238464355e-09
			]
		},
		{
			"children":[
				18
			],
			"name":"frond4_0",
			"rotation":[
				0.11340919137001038,
				0.12554292380809784,
				0.12554292380809784,
				0.9775562882423401
			],
			"translation":[
				0,
				0.05999999865889549,
				0
			]
		},
		{
			"name":"frond5_3",
			"rotation":[
				-1.0943040251731873e-08,
				3.864988684654236e-08,
				3.8242433220148087e-08,
				1
			],
			"translation":[
				4.6566128730773926e-09,
				0.1600000411272049,
				9.313225746154785e-10
			]
		},
		{
			"children":[
				20
			],
			"name":"frond5_2",
			"rotation":[
				2.561137080192566e-09,
				-1.816079020500183e-08,
				-2.200249582529068e-08,
				1
			],
			"translation":[
				3.3760443329811096e-09,
				0.1599999964237213,
				1.3969838619232178e-09
			]
		},
		{
			"children":[
				21
			],
			"name":"frond5_1",
			"rotation":[
				-2.7939677238464355e-09,
				-3.259629011154175e-09,
				-3.725290298461914e-09,
				1
			],
			"translation":[
				2.0372681319713593e-09,
				0.1599999964237213,
				1.3969838619232178e-09
			]
		},
		{
			"children":[
				22
			],
			"name":"frond5_0",
			"rotation":[
				-0.02153458632528782,
				0.12783299386501312,
				0.12783299386501312,
				0.9832872152328491
			],
			"scale":[
				1,
				0.9999999403953552,
				0.9999999403953552
			],
			"translation":[
				0,
				0.05999999865889549,
				0
			]
		},
		{
			"name":"frond6_3",
			"rotation":[
				8.009374141693115e-08,
				-3.5390257835388184e-08,
				-3.91155481338501e-08,
				1
			],
			"scale":[
				1,
				0.9999999403953552,
				1
			],
			"translation":[
				-1.862645149230957e-09,
				0.07499996572732925,
				8.381903171539307e-09
			]
		},
		{
			"children":[
				24
			],
			"name":"frond6_2",
			"rotation":[
				-4.6566135836201283e-08,
				2.0489098417897367e-08,
				3.725291186640334e-09,
				1
			],
			"scale":[
				0.9999999403953552,
				0.9999998211860657,
				0.9999998807907104
			],
			"translation":[
				-9.313225746154785e-10,
				0.07499996572732925,
				2.7939677238464355e-09
			]
		},
		{
			"children":[
				25
			],
			"name":"frond6_1",
			"rotation":[
				1.3969842171945857e-08,
				-7.450582373280668e-09,
				3.725291186640334e-09,
				1
			],
			"scale":[
				0.9999998807907104,
				0.9999998211860657,
				0.9999998211860657
			],
			"translation":[
				0,
				0.07499998807907104,
				2.3283064365386963e-09
			]
		},
		{
			"children":[
				26
			],
			"name":"frond6_0",
			"rotation":[
				-0.21985457837581635,
				0.13324551284313202,
				0.13324551284313202,
				0.9571599960327148
			],
			"scale":[
				0.9999999403953552,
				1,
				1
			],
			"translation":[
				0,
				0.05999999865889549,
				0
			]
		},
		{
			"name":"sfflash_0",
			"translation":[
				0,
				0.3799999952316284,
				0
			]
		},
		{
			"mesh":0,
			"name":"SeefernRigged",
			"skin":0
		},
		{
			"children":[
				29,
				3,
				7,
				11,
				15,
				19,
				23,
				27,
				28
			],
			"name":"Seefern_Armature"
		}
	],
	"animations":[
		{
			"channels":[
				{
					"sampler":0,
					"target":{
						"node":3,
						"path":"translation"
					}
				},
				{
					"sampler":1,
					"target":{
						"node":3,
						"path":"rotation"
					}
				},
				{
					"sampler":2,
					"target":{
						"node":3,
						"path":"scale"
					}
				},
				{
					"sampler":3,
					"target":{
						"node":2,
						"path":"translation"
					}
				},
				{
					"sampler":4,
					"target":{
						"node":2,
						"path":"rotation"
					}
				},
				{
					"sampler":5,
					"target":{
						"node":2,
						"path":"scale"
					}
				},
				{
					"sampler":6,
					"target":{
						"node":1,
						"path":"translation"
					}
				},
				{
					"sampler":7,
					"target":{
						"node":1,
						"path":"rotation"
					}
				},
				{
					"sampler":8,
					"target":{
						"node":1,
						"path":"scale"
					}
				},
				{
					"sampler":9,
					"target":{
						"node":0,
						"path":"translation"
					}
				},
				{
					"sampler":10,
					"target":{
						"node":0,
						"path":"rotation"
					}
				},
				{
					"sampler":11,
					"target":{
						"node":0,
						"path":"scale"
					}
				},
				{
					"sampler":12,
					"target":{
						"node":7,
						"path":"translation"
					}
				},
				{
					"sampler":13,
					"target":{
						"node":7,
						"path":"rotation"
					}
				},
				{
					"sampler":14,
					"target":{
						"node":7,
						"path":"scale"
					}
				},
				{
					"sampler":15,
					"target":{
						"node":6,
						"path":"translation"
					}
				},
				{
					"sampler":16,
					"target":{
						"node":6,
						"path":"rotation"
					}
				},
				{
					"sampler":17,
					"target":{
						"node":6,
						"path":"scale"
					}
				},
				{
					"sampler":18,
					"target":{
						"node":5,
						"path":"translation"
					}
				},
				{
					"sampler":19,
					"target":{
						"node":5,
						"path":"rotation"
					}
				},
				{
					"sampler":20,
					"target":{
						"node":5,
						"path":"scale"
					}
				},
				{
					"sampler":21,
					"target":{
						"node":4,
						"path":"translation"
					}
				},
				{
					"sampler":22,
					"target":{
						"node":4,
						"path":"rotation"
					}
				},
				{
					"sampler":23,
					"target":{
						"node":4,
						"path":"scale"
					}
				},
				{
					"sampler":24,
					"target":{
						"node":11,
						"path":"translation"
					}
				},
				{
					"sampler":25,
					"target":{
						"node":11,
						"path":"rotation"
					}
				},
				{
					"sampler":26,
					"target":{
						"node":11,
						"path":"scale"
					}
				},
				{
					"sampler":27,
					"target":{
						"node":10,
						"path":"translation"
					}
				},
				{
					"sampler":28,
					"target":{
						"node":10,
						"path":"rotation"
					}
				},
				{
					"sampler":29,
					"target":{
						"node":10,
						"path":"scale"
					}
				},
				{
					"sampler":30,
					"target":{
						"node":9,
						"path":"translation"
					}
				},
				{
					"sampler":31,
					"target":{
						"node":9,
						"path":"rotation"
					}
				},
				{
					"sampler":32,
					"target":{
						"node":9,
						"path":"scale"
					}
				},
				{
					"sampler":33,
					"target":{
						"node":8,
						"path":"translation"
					}
				},
				{
					"sampler":34,
					"target":{
						"node":8,
						"path":"rotation"
					}
				},
				{
					"sampler":35,
					"target":{
						"node":8,
						"path":"scale"
					}
				},
				{
					"sampler":36,
					"target":{
						"node":15,
						"path":"translation"
					}
				},
				{
					"sampler":37,
					"target":{
						"node":15,
						"path":"rotation"
					}
				},
				{
					"sampler":38,
					"target":{
						"node":15,
						"path":"scale"
					}
				},
				{
					"sampler":39,
					"target":{
						"node":14,
						"path":"translation"
					}
				},
				{
					"sampler":40,
					"target":{
						"node":14,
						"path":"rotation"
					}
				},
				{
					"sampler":41,
					"target":{
						"node":14,
						"path":"scale"
					}
				},
				{
					"sampler":42,
					"target":{
						"node":13,
						"path":"translation"
					}
				},
				{
					"sampler":43,
					"target":{
						"node":13,
						"path":"rotation"
					}
				},
				{
					"sampler":44,
					"target":{
						"node":13,
						"path":"scale"
					}
				},
				{
					"sampler":45,
					"target":{
						"node":12,
						"path":"translation"
					}
				},
				{
					"sampler":46,
					"target":{
						"node":12,
						"path":"rotation"
					}
				},
				{
					"sampler":47,
					"target":{
						"node":12,
						"path":"scale"
					}
				},
				{
					"sampler":48,
					"target":{
						"node":19,
						"path":"translation"
					}
				},
				{
					"sampler":49,
					"target":{
						"node":19,
						"path":"rotation"
					}
				},
				{
					"sampler":50,
					"target":{
						"node":19,
						"path":"scale"
					}
				},
				{
					"sampler":51,
					"target":{
						"node":18,
						"path":"translation"
					}
				},
				{
					"sampler":52,
					"target":{
						"node":18,
						"path":"rotation"
					}
				},
				{
					"sampler":53,
					"target":{
						"node":18,
						"path":"scale"
					}
				},
				{
					"sampler":54,
					"target":{
						"node":17,
						"path":"translation"
					}
				},
				{
					"sampler":55,
					"target":{
						"node":17,
						"path":"rotation"
					}
				},
				{
					"sampler":56,
					"target":{
						"node":17,
						"path":"scale"
					}
				},
				{
					"sampler":57,
					"target":{
						"node":16,
						"path":"translation"
					}
				},
				{
					"sampler":58,
					"target":{
						"node":16,
						"path":"rotation"
					}
				},
				{
					"sampler":59,
					"target":{
						"node":16,
						"path":"scale"
					}
				},
				{
					"sampler":60,
					"target":{
						"node":23,
						"path":"translation"
					}
				},
				{
					"sampler":61,
					"target":{
						"node":23,
						"path":"rotation"
					}
				},
				{
					"sampler":62,
					"target":{
						"node":23,
						"path":"scale"
					}
				},
				{
					"sampler":63,
					"target":{
						"node":22,
						"path":"translation"
					}
				},
				{
					"sampler":64,
					"target":{
						"node":22,
						"path":"rotation"
					}
				},
				{
					"sampler":65,
					"target":{
						"node":22,
						"path":"scale"
					}
				},
				{
					"sampler":66,
					"target":{
						"node":21,
						"path":"translation"
					}
				},
				{
					"sampler":67,
					"target":{
						"node":21,
						"path":"rotation"
					}
				},
				{
					"sampler":68,
					"target":{
						"node":21,
						"path":"scale"
					}
				},
				{
					"sampler":69,
					"target":{
						"node":20,
						"path":"translation"
					}
				},
				{
					"sampler":70,
					"target":{
						"node":20,
						"path":"rotation"
					}
				},
				{
					"sampler":71,
					"target":{
						"node":20,
						"path":"scale"
					}
				},
				{
					"sampler":72,
					"target":{
						"node":27,
						"path":"translation"
					}
				},
				{
					"sampler":73,
					"target":{
						"node":27,
						"path":"rotation"
					}
				},
				{
					"sampler":74,
					"target":{
						"node":27,
						"path":"scale"
					}
				},
				{
					"sampler":75,
					"target":{
						"node":26,
						"path":"translation"
					}
				},
				{
					"sampler":76,
					"target":{
						"node":26,
						"path":"rotation"
					}
				},
				{
					"sampler":77,
					"target":{
						"node":26,
						"path":"scale"
					}
				},
				{
					"sampler":78,
					"target":{
						"node":25,
						"path":"translation"
					}
				},
				{
					"sampler":79,
					"target":{
						"node":25,
						"path":"rotation"
					}
				},
				{
					"sampler":80,
					"target":{
						"node":25,
						"path":"scale"
					}
				},
				{
					"sampler":81,
					"target":{
						"node":24,
						"path":"translation"
					}
				},
				{
					"sampler":82,
					"target":{
						"node":24,
						"path":"rotation"
					}
				},
				{
					"sampler":83,
					"target":{
						"node":24,
						"path":"scale"
					}
				},
				{
					"sampler":84,
					"target":{
						"node":28,
						"path":"translation"
					}
				},
				{
					"sampler":85,
					"target":{
						"node":28,
						"path":"rotation"
					}
				},
				{
					"sampler":86,
					"target":{
						"node":28,
						"path":"scale"
					}
				}
			],
			"name":"seefern_tend",
			"samplers":[
				{
					"input":7,
					"interpolation":"STEP",
					"output":8
				},
				{
					"input":9,
					"interpolation":"LINEAR",
					"output":10
				},
				{
					"input":7,
					"interpolation":"STEP",
					"output":11
				},
				{
					"input":7,
					"interpolation":"STEP",
					"output":12
				},
				{
					"input":9,
					"interpolation":"LINEAR",
					"output":13
				},
				{
					"input":7,
					"interpolation":"STEP",
					"output":14
				},
				{
					"input":7,
					"interpolation":"STEP",
					"output":15
				},
				{
					"input":9,
					"interpolation":"LINEAR",
					"output":16
				},
				{
					"input":7,
					"interpolation":"STEP",
					"output":17
				},
				{
					"input":7,
					"interpolation":"STEP",
					"output":18
				},
				{
					"input":9,
					"interpolation":"LINEAR",
					"output":19
				},
				{
					"input":7,
					"interpolation":"STEP",
					"output":11
				},
				{
					"input":7,
					"interpolation":"STEP",
					"output":20
				},
				{
					"input":9,
					"interpolation":"LINEAR",
					"output":21
				},
				{
					"input":7,
					"interpolation":"STEP",
					"output":22
				},
				{
					"input":7,
					"interpolation":"STEP",
					"output":23
				},
				{
					"input":9,
					"interpolation":"LINEAR",
					"output":24
				},
				{
					"input":7,
					"interpolation":"STEP",
					"output":25
				},
				{
					"input":7,
					"interpolation":"STEP",
					"output":26
				},
				{
					"input":9,
					"interpolation":"LINEAR",
					"output":27
				},
				{
					"input":7,
					"interpolation":"STEP",
					"output":28
				},
				{
					"input":7,
					"interpolation":"STEP",
					"output":29
				},
				{
					"input":9,
					"interpolation":"LINEAR",
					"output":30
				},
				{
					"input":7,
					"interpolation":"STEP",
					"output":31
				},
				{
					"input":7,
					"interpolation":"STEP",
					"output":32
				},
				{
					"input":9,
					"interpolation":"LINEAR",
					"output":33
				},
				{
					"input":7,
					"interpolation":"STEP",
					"output":34
				},
				{
					"input":7,
					"interpolation":"STEP",
					"output":35
				},
				{
					"input":9,
					"interpolation":"LINEAR",
					"output":36
				},
				{
					"input":7,
					"interpolation":"STEP",
					"output":25
				},
				{
					"input":7,
					"interpolation":"STEP",
					"output":37
				},
				{
					"input":9,
					"interpolation":"LINEAR",
					"output":38
				},
				{
					"input":7,
					"interpolation":"STEP",
					"output":39
				},
				{
					"input":7,
					"interpolation":"STEP",
					"output":40
				},
				{
					"input":9,
					"interpolation":"LINEAR",
					"output":41
				},
				{
					"input":7,
					"interpolation":"STEP",
					"output":42
				},
				{
					"input":7,
					"interpolation":"STEP",
					"output":43
				},
				{
					"input":9,
					"interpolation":"LINEAR",
					"output":44
				},
				{
					"input":7,
					"interpolation":"STEP",
					"output":45
				},
				{
					"input":7,
					"interpolation":"STEP",
					"output":46
				},
				{
					"input":9,
					"interpolation":"LINEAR",
					"output":47
				},
				{
					"input":7,
					"interpolation":"STEP",
					"output":48
				},
				{
					"input":7,
					"interpolation":"STEP",
					"output":49
				},
				{
					"input":9,
					"interpolation":"LINEAR",
					"output":50
				},
				{
					"input":7,
					"interpolation":"STEP",
					"output":51
				},
				{
					"input":7,
					"interpolation":"STEP",
					"output":52
				},
				{
					"input":9,
					"interpolation":"LINEAR",
					"output":53
				},
				{
					"input":7,
					"interpolation":"STEP",
					"output":54
				},
				{
					"input":7,
					"interpolation":"STEP",
					"output":55
				},
				{
					"input":9,
					"interpolation":"LINEAR",
					"output":56
				},
				{
					"input":7,
					"interpolation":"STEP",
					"output":11
				},
				{
					"input":7,
					"interpolation":"STEP",
					"output":57
				},
				{
					"input":9,
					"interpolation":"LINEAR",
					"output":58
				},
				{
					"input":7,
					"interpolation":"STEP",
					"output":25
				},
				{
					"input":7,
					"interpolation":"STEP",
					"output":59
				},
				{
					"input":9,
					"interpolation":"LINEAR",
					"output":60
				},
				{
					"input":7,
					"interpolation":"STEP",
					"output":61
				},
				{
					"input":7,
					"interpolation":"STEP",
					"output":62
				},
				{
					"input":9,
					"interpolation":"LINEAR",
					"output":63
				},
				{
					"input":7,
					"interpolation":"STEP",
					"output":64
				},
				{
					"input":7,
					"interpolation":"STEP",
					"output":65
				},
				{
					"input":9,
					"interpolation":"LINEAR",
					"output":66
				},
				{
					"input":7,
					"interpolation":"STEP",
					"output":34
				},
				{
					"input":7,
					"interpolation":"STEP",
					"output":67
				},
				{
					"input":9,
					"interpolation":"LINEAR",
					"output":68
				},
				{
					"input":7,
					"interpolation":"STEP",
					"output":25
				},
				{
					"input":7,
					"interpolation":"STEP",
					"output":69
				},
				{
					"input":9,
					"interpolation":"LINEAR",
					"output":70
				},
				{
					"input":7,
					"interpolation":"STEP",
					"output":25
				},
				{
					"input":7,
					"interpolation":"STEP",
					"output":71
				},
				{
					"input":9,
					"interpolation":"LINEAR",
					"output":72
				},
				{
					"input":7,
					"interpolation":"STEP",
					"output":73
				},
				{
					"input":7,
					"interpolation":"STEP",
					"output":74
				},
				{
					"input":9,
					"interpolation":"LINEAR",
					"output":75
				},
				{
					"input":7,
					"interpolation":"STEP",
					"output":76
				},
				{
					"input":7,
					"interpolation":"STEP",
					"output":77
				},
				{
					"input":9,
					"interpolation":"LINEAR",
					"output":78
				},
				{
					"input":7,
					"interpolation":"STEP",
					"output":79
				},
				{
					"input":7,
					"interpolation":"STEP",
					"output":80
				},
				{
					"input":9,
					"interpolation":"LINEAR",
					"output":81
				},
				{
					"input":7,
					"interpolation":"STEP",
					"output":82
				},
				{
					"input":7,
					"interpolation":"STEP",
					"output":83
				},
				{
					"input":9,
					"interpolation":"LINEAR",
					"output":84
				},
				{
					"input":7,
					"interpolation":"STEP",
					"output":85
				},
				{
					"input":7,
					"interpolation":"STEP",
					"output":86
				},
				{
					"input":7,
					"interpolation":"STEP",
					"output":87
				},
				{
					"input":9,
					"interpolation":"LINEAR",
					"output":88
				}
			]
		},
		{
			"channels":[
				{
					"sampler":0,
					"target":{
						"node":3,
						"path":"translation"
					}
				},
				{
					"sampler":1,
					"target":{
						"node":3,
						"path":"rotation"
					}
				},
				{
					"sampler":2,
					"target":{
						"node":3,
						"path":"scale"
					}
				},
				{
					"sampler":3,
					"target":{
						"node":2,
						"path":"translation"
					}
				},
				{
					"sampler":4,
					"target":{
						"node":2,
						"path":"rotation"
					}
				},
				{
					"sampler":5,
					"target":{
						"node":2,
						"path":"scale"
					}
				},
				{
					"sampler":6,
					"target":{
						"node":1,
						"path":"translation"
					}
				},
				{
					"sampler":7,
					"target":{
						"node":1,
						"path":"rotation"
					}
				},
				{
					"sampler":8,
					"target":{
						"node":1,
						"path":"scale"
					}
				},
				{
					"sampler":9,
					"target":{
						"node":0,
						"path":"translation"
					}
				},
				{
					"sampler":10,
					"target":{
						"node":0,
						"path":"rotation"
					}
				},
				{
					"sampler":11,
					"target":{
						"node":0,
						"path":"scale"
					}
				},
				{
					"sampler":12,
					"target":{
						"node":7,
						"path":"translation"
					}
				},
				{
					"sampler":13,
					"target":{
						"node":7,
						"path":"rotation"
					}
				},
				{
					"sampler":14,
					"target":{
						"node":7,
						"path":"scale"
					}
				},
				{
					"sampler":15,
					"target":{
						"node":6,
						"path":"translation"
					}
				},
				{
					"sampler":16,
					"target":{
						"node":6,
						"path":"rotation"
					}
				},
				{
					"sampler":17,
					"target":{
						"node":6,
						"path":"scale"
					}
				},
				{
					"sampler":18,
					"target":{
						"node":5,
						"path":"translation"
					}
				},
				{
					"sampler":19,
					"target":{
						"node":5,
						"path":"rotation"
					}
				},
				{
					"sampler":20,
					"target":{
						"node":5,
						"path":"scale"
					}
				},
				{
					"sampler":21,
					"target":{
						"node":4,
						"path":"translation"
					}
				},
				{
					"sampler":22,
					"target":{
						"node":4,
						"path":"rotation"
					}
				},
				{
					"sampler":23,
					"target":{
						"node":4,
						"path":"scale"
					}
				},
				{
					"sampler":24,
					"target":{
						"node":11,
						"path":"translation"
					}
				},
				{
					"sampler":25,
					"target":{
						"node":11,
						"path":"rotation"
					}
				},
				{
					"sampler":26,
					"target":{
						"node":11,
						"path":"scale"
					}
				},
				{
					"sampler":27,
					"target":{
						"node":10,
						"path":"translation"
					}
				},
				{
					"sampler":28,
					"target":{
						"node":10,
						"path":"rotation"
					}
				},
				{
					"sampler":29,
					"target":{
						"node":10,
						"path":"scale"
					}
				},
				{
					"sampler":30,
					"target":{
						"node":9,
						"path":"translation"
					}
				},
				{
					"sampler":31,
					"target":{
						"node":9,
						"path":"rotation"
					}
				},
				{
					"sampler":32,
					"target":{
						"node":9,
						"path":"scale"
					}
				},
				{
					"sampler":33,
					"target":{
						"node":8,
						"path":"translation"
					}
				},
				{
					"sampler":34,
					"target":{
						"node":8,
						"path":"rotation"
					}
				},
				{
					"sampler":35,
					"target":{
						"node":8,
						"path":"scale"
					}
				},
				{
					"sampler":36,
					"target":{
						"node":15,
						"path":"translation"
					}
				},
				{
					"sampler":37,
					"target":{
						"node":15,
						"path":"rotation"
					}
				},
				{
					"sampler":38,
					"target":{
						"node":15,
						"path":"scale"
					}
				},
				{
					"sampler":39,
					"target":{
						"node":14,
						"path":"translation"
					}
				},
				{
					"sampler":40,
					"target":{
						"node":14,
						"path":"rotation"
					}
				},
				{
					"sampler":41,
					"target":{
						"node":14,
						"path":"scale"
					}
				},
				{
					"sampler":42,
					"target":{
						"node":13,
						"path":"translation"
					}
				},
				{
					"sampler":43,
					"target":{
						"node":13,
						"path":"rotation"
					}
				},
				{
					"sampler":44,
					"target":{
						"node":13,
						"path":"scale"
					}
				},
				{
					"sampler":45,
					"target":{
						"node":12,
						"path":"translation"
					}
				},
				{
					"sampler":46,
					"target":{
						"node":12,
						"path":"rotation"
					}
				},
				{
					"sampler":47,
					"target":{
						"node":12,
						"path":"scale"
					}
				},
				{
					"sampler":48,
					"target":{
						"node":19,
						"path":"translation"
					}
				},
				{
					"sampler":49,
					"target":{
						"node":19,
						"path":"rotation"
					}
				},
				{
					"sampler":50,
					"target":{
						"node":19,
						"path":"scale"
					}
				},
				{
					"sampler":51,
					"target":{
						"node":18,
						"path":"translation"
					}
				},
				{
					"sampler":52,
					"target":{
						"node":18,
						"path":"rotation"
					}
				},
				{
					"sampler":53,
					"target":{
						"node":18,
						"path":"scale"
					}
				},
				{
					"sampler":54,
					"target":{
						"node":17,
						"path":"translation"
					}
				},
				{
					"sampler":55,
					"target":{
						"node":17,
						"path":"rotation"
					}
				},
				{
					"sampler":56,
					"target":{
						"node":17,
						"path":"scale"
					}
				},
				{
					"sampler":57,
					"target":{
						"node":16,
						"path":"translation"
					}
				},
				{
					"sampler":58,
					"target":{
						"node":16,
						"path":"rotation"
					}
				},
				{
					"sampler":59,
					"target":{
						"node":16,
						"path":"scale"
					}
				},
				{
					"sampler":60,
					"target":{
						"node":23,
						"path":"translation"
					}
				},
				{
					"sampler":61,
					"target":{
						"node":23,
						"path":"rotation"
					}
				},
				{
					"sampler":62,
					"target":{
						"node":23,
						"path":"scale"
					}
				},
				{
					"sampler":63,
					"target":{
						"node":22,
						"path":"translation"
					}
				},
				{
					"sampler":64,
					"target":{
						"node":22,
						"path":"rotation"
					}
				},
				{
					"sampler":65,
					"target":{
						"node":22,
						"path":"scale"
					}
				},
				{
					"sampler":66,
					"target":{
						"node":21,
						"path":"translation"
					}
				},
				{
					"sampler":67,
					"target":{
						"node":21,
						"path":"rotation"
					}
				},
				{
					"sampler":68,
					"target":{
						"node":21,
						"path":"scale"
					}
				},
				{
					"sampler":69,
					"target":{
						"node":20,
						"path":"translation"
					}
				},
				{
					"sampler":70,
					"target":{
						"node":20,
						"path":"rotation"
					}
				},
				{
					"sampler":71,
					"target":{
						"node":20,
						"path":"scale"
					}
				},
				{
					"sampler":72,
					"target":{
						"node":27,
						"path":"translation"
					}
				},
				{
					"sampler":73,
					"target":{
						"node":27,
						"path":"rotation"
					}
				},
				{
					"sampler":74,
					"target":{
						"node":27,
						"path":"scale"
					}
				},
				{
					"sampler":75,
					"target":{
						"node":26,
						"path":"translation"
					}
				},
				{
					"sampler":76,
					"target":{
						"node":26,
						"path":"rotation"
					}
				},
				{
					"sampler":77,
					"target":{
						"node":26,
						"path":"scale"
					}
				},
				{
					"sampler":78,
					"target":{
						"node":25,
						"path":"translation"
					}
				},
				{
					"sampler":79,
					"target":{
						"node":25,
						"path":"rotation"
					}
				},
				{
					"sampler":80,
					"target":{
						"node":25,
						"path":"scale"
					}
				},
				{
					"sampler":81,
					"target":{
						"node":24,
						"path":"translation"
					}
				},
				{
					"sampler":82,
					"target":{
						"node":24,
						"path":"rotation"
					}
				},
				{
					"sampler":83,
					"target":{
						"node":24,
						"path":"scale"
					}
				},
				{
					"sampler":84,
					"target":{
						"node":28,
						"path":"translation"
					}
				},
				{
					"sampler":85,
					"target":{
						"node":28,
						"path":"rotation"
					}
				},
				{
					"sampler":86,
					"target":{
						"node":28,
						"path":"scale"
					}
				}
			],
			"name":"seefern_wilt",
			"samplers":[
				{
					"input":89,
					"interpolation":"STEP",
					"output":8
				},
				{
					"input":90,
					"interpolation":"LINEAR",
					"output":91
				},
				{
					"input":89,
					"interpolation":"STEP",
					"output":11
				},
				{
					"input":89,
					"interpolation":"STEP",
					"output":92
				},
				{
					"input":90,
					"interpolation":"LINEAR",
					"output":93
				},
				{
					"input":89,
					"interpolation":"STEP",
					"output":94
				},
				{
					"input":89,
					"interpolation":"STEP",
					"output":95
				},
				{
					"input":90,
					"interpolation":"LINEAR",
					"output":96
				},
				{
					"input":89,
					"interpolation":"STEP",
					"output":97
				},
				{
					"input":89,
					"interpolation":"STEP",
					"output":98
				},
				{
					"input":90,
					"interpolation":"LINEAR",
					"output":99
				},
				{
					"input":89,
					"interpolation":"STEP",
					"output":14
				},
				{
					"input":89,
					"interpolation":"STEP",
					"output":20
				},
				{
					"input":90,
					"interpolation":"LINEAR",
					"output":100
				},
				{
					"input":89,
					"interpolation":"STEP",
					"output":101
				},
				{
					"input":89,
					"interpolation":"STEP",
					"output":102
				},
				{
					"input":90,
					"interpolation":"LINEAR",
					"output":103
				},
				{
					"input":89,
					"interpolation":"STEP",
					"output":104
				},
				{
					"input":89,
					"interpolation":"STEP",
					"output":105
				},
				{
					"input":90,
					"interpolation":"LINEAR",
					"output":106
				},
				{
					"input":89,
					"interpolation":"STEP",
					"output":25
				},
				{
					"input":89,
					"interpolation":"STEP",
					"output":107
				},
				{
					"input":90,
					"interpolation":"LINEAR",
					"output":108
				},
				{
					"input":89,
					"interpolation":"STEP",
					"output":54
				},
				{
					"input":89,
					"interpolation":"STEP",
					"output":32
				},
				{
					"input":90,
					"interpolation":"LINEAR",
					"output":109
				},
				{
					"input":89,
					"interpolation":"STEP",
					"output":34
				},
				{
					"input":89,
					"interpolation":"STEP",
					"output":110
				},
				{
					"input":90,
					"interpolation":"LINEAR",
					"output":111
				},
				{
					"input":89,
					"interpolation":"STEP",
					"output":25
				},
				{
					"input":89,
					"interpolation":"STEP",
					"output":112
				},
				{
					"input":90,
					"interpolation":"LINEAR",
					"output":113
				},
				{
					"input":89,
					"interpolation":"STEP",
					"output":114
				},
				{
					"input":89,
					"interpolation":"STEP",
					"output":115
				},
				{
					"input":90,
					"interpolation":"LINEAR",
					"output":116
				},
				{
					"input":89,
					"interpolation":"STEP",
					"output":28
				},
				{
					"input":89,
					"interpolation":"STEP",
					"output":43
				},
				{
					"input":90,
					"interpolation":"LINEAR",
					"output":117
				},
				{
					"input":89,
					"interpolation":"STEP",
					"output":118
				},
				{
					"input":89,
					"interpolation":"STEP",
					"output":119
				},
				{
					"input":90,
					"interpolation":"LINEAR",
					"output":120
				},
				{
					"input":89,
					"interpolation":"STEP",
					"output":121
				},
				{
					"input":89,
					"interpolation":"STEP",
					"output":122
				},
				{
					"input":90,
					"interpolation":"LINEAR",
					"output":123
				},
				{
					"input":89,
					"interpolation":"STEP",
					"output":124
				},
				{
					"input":89,
					"interpolation":"STEP",
					"output":125
				},
				{
					"input":90,
					"interpolation":"LINEAR",
					"output":126
				},
				{
					"input":89,
					"interpolation":"STEP",
					"output":25
				},
				{
					"input":89,
					"interpolation":"STEP",
					"output":55
				},
				{
					"input":90,
					"interpolation":"LINEAR",
					"output":127
				},
				{
					"input":89,
					"interpolation":"STEP",
					"output":11
				},
				{
					"input":89,
					"interpolation":"STEP",
					"output":128
				},
				{
					"input":90,
					"interpolation":"LINEAR",
					"output":129
				},
				{
					"input":89,
					"interpolation":"STEP",
					"output":25
				},
				{
					"input":89,
					"interpolation":"STEP",
					"output":130
				},
				{
					"input":90,
					"interpolation":"LINEAR",
					"output":131
				},
				{
					"input":89,
					"interpolation":"STEP",
					"output":132
				},
				{
					"input":89,
					"interpolation":"STEP",
					"output":133
				},
				{
					"input":90,
					"interpolation":"LINEAR",
					"output":134
				},
				{
					"input":89,
					"interpolation":"STEP",
					"output":135
				},
				{
					"input":89,
					"interpolation":"STEP",
					"output":65
				},
				{
					"input":90,
					"interpolation":"LINEAR",
					"output":136
				},
				{
					"input":89,
					"interpolation":"STEP",
					"output":34
				},
				{
					"input":89,
					"interpolation":"STEP",
					"output":137
				},
				{
					"input":90,
					"interpolation":"LINEAR",
					"output":138
				},
				{
					"input":89,
					"interpolation":"STEP",
					"output":139
				},
				{
					"input":89,
					"interpolation":"STEP",
					"output":140
				},
				{
					"input":90,
					"interpolation":"LINEAR",
					"output":141
				},
				{
					"input":89,
					"interpolation":"STEP",
					"output":25
				},
				{
					"input":89,
					"interpolation":"STEP",
					"output":142
				},
				{
					"input":90,
					"interpolation":"LINEAR",
					"output":143
				},
				{
					"input":89,
					"interpolation":"STEP",
					"output":54
				},
				{
					"input":89,
					"interpolation":"STEP",
					"output":74
				},
				{
					"input":90,
					"interpolation":"LINEAR",
					"output":144
				},
				{
					"input":89,
					"interpolation":"STEP",
					"output":76
				},
				{
					"input":89,
					"interpolation":"STEP",
					"output":145
				},
				{
					"input":90,
					"interpolation":"LINEAR",
					"output":146
				},
				{
					"input":89,
					"interpolation":"STEP",
					"output":147
				},
				{
					"input":89,
					"interpolation":"STEP",
					"output":148
				},
				{
					"input":90,
					"interpolation":"LINEAR",
					"output":149
				},
				{
					"input":89,
					"interpolation":"STEP",
					"output":82
				},
				{
					"input":89,
					"interpolation":"STEP",
					"output":150
				},
				{
					"input":90,
					"interpolation":"LINEAR",
					"output":151
				},
				{
					"input":89,
					"interpolation":"STEP",
					"output":152
				},
				{
					"input":89,
					"interpolation":"STEP",
					"output":86
				},
				{
					"input":89,
					"interpolation":"STEP",
					"output":87
				},
				{
					"input":89,
					"interpolation":"STEP",
					"output":153
				}
			]
		}
	],
	"materials":[
		{
			"alphaMode":"MASK",
			"doubleSided":true,
			"emissiveFactor":[
				1,
				1,
				1
			],
			"emissiveTexture":{
				"index":0
			},
			"extensions":{
				"KHR_materials_emissive_strength":{
					"emissiveStrength":4
				}
			},
			"name":"SeefernRiggedTex",
			"pbrMetallicRoughness":{
				"baseColorTexture":{
					"index":1
				},
				"metallicFactor":0,
				"roughnessFactor":0.8999999761581421
			}
		}
	],
	"meshes":[
		{
			"name":"SeefernRigged",
			"primitives":[
				{
					"attributes":{
						"POSITION":0,
						"NORMAL":1,
						"TEXCOORD_0":2,
						"JOINTS_0":3,
						"WEIGHTS_0":4
					},
					"indices":5,
					"material":0
				}
			]
		}
	],
	"textures":[
		{
			"sampler":0,
			"source":0
		},
		{
			"sampler":0,
			"source":1
		}
	],
	"images":[
		{
			"mimeType":"image/png",
			"name":"SeefernRigged_emissive",
			"uri":"SeefernRigged_emissive.png"
		},
		{
			"mimeType":"image/png",
			"name":"SeefernRigged_tex",
			"uri":"SeefernRigged_tex.png"
		}
	],
	"skins":[
		{
			"inverseBindMatrices":6,
			"joints":[
				3,
				2,
				1,
				0,
				7,
				6,
				5,
				4,
				11,
				10,
				9,
				8,
				15,
				14,
				13,
				12,
				19,
				18,
				17,
				16,
				23,
				22,
				21,
				20,
				27,
				26,
				25,
				24,
				28
			],
			"name":"Seefern_Armature"
		}
	],
	"accessors":[
		{
			"bufferView":0,
			"componentType":5126,
			"count":132,
			"max":[
				0.30000001192092896,
				0.7565029263496399,
				0.2954423129558563
			],
			"min":[
				-0.2819077968597412,
				0,
				-0.2954423129558563
			],
			"type":"VEC3"
		},
		{
			"bufferView":1,
			"componentType":5126,
			"count":132,
			"type":"VEC3"
		},
		{
			"bufferView":2,
			"componentType":5126,
			"count":132,
			"type":"VEC2"
		},
		{
			"bufferView":3,
			"componentType":5121,
			"count":132,
			"type":"VEC4"
		},
		{
			"bufferView":4,
			"componentType":5126,
			"count":132,
			"type":"VEC4"
		},
		{
			"bufferView":5,
			"componentType":5123,
			"count":276,
			"type":"SCALAR"
		},
		{
			"bufferView":6,
			"componentType":5126,
			"count":29,
			"type":"MAT4"
		},
		{
			"bufferView":7,
			"componentType":5126,
			"count":2,
			"max":[
				3.0833333333333335
			],
			"min":[
				0.041666666666666664
			],
			"type":"SCALAR"
		},
		{
			"bufferView":8,
			"componentType":5126,
			"count":2,
			"type":"VEC3"
		},
		{
			"bufferView":9,
			"componentType":5126,
			"count":74,
			"max":[
				3.0833333333333335
			],
			"min":[
				0.041666666666666664
			],
			"type":"SCALAR"
		},
		{
			"bufferView":10,
			"componentType":5126,
			"count":74,
			"type":"VEC4"
		},
		{
			"bufferView":11,
			"componentType":5126,
			"count":2,
			"type":"VEC3"
		},
		{
			"bufferView":12,
			"componentType":5126,
			"count":2,
			"type":"VEC3"
		},
		{
			"bufferView":13,
			"componentType":5126,
			"count":74,
			"type":"VEC4"
		},
		{
			"bufferView":14,
			"componentType":5126,
			"count":2,
			"type":"VEC3"
		},
		{
			"bufferView":15,
			"componentType":5126,
			"count":2,
			"type":"VEC3"
		},
		{
			"bufferView":16,
			"componentType":5126,
			"count":74,
			"type":"VEC4"
		},
		{
			"bufferView":17,
			"componentType":5126,
			"count":2,
			"type":"VEC3"
		},
		{
			"bufferView":18,
			"componentType":5126,
			"count":2,
			"type":"VEC3"
		},
		{
			"bufferView":19,
			"componentType":5126,
			"count":74,
			"type":"VEC4"
		},
		{
			"bufferView":20,
			"componentType":5126,
			"count":2,
			"type":"VEC3"
		},
		{
			"bufferView":21,
			"componentType":5126,
			"count":74,
			"type":"VEC4"
		},
		{
			"bufferView":22,
			"componentType":5126,
			"count":2,
			"type":"VEC3"
		},
		{
			"bufferView":23,
			"componentType":5126,
			"count":2,
			"type":"VEC3"
		},
		{
			"bufferView":24,
			"componentType":5126,
			"count":74,
			"type":"VEC4"
		},
		{
			"bufferView":25,
			"componentType":5126,
			"count":2,
			"type":"VEC3"
		},
		{
			"bufferView":26,
			"componentType":5126,
			"count":2,
			"type":"VEC3"
		},
		{
			"bufferView":27,
			"componentType":5126,
			"count":74,
			"type":"VEC4"
		},
		{
			"bufferView":28,
			"componentType":5126,
			"count":2,
			"type":"VEC3"
		},
		{
			"bufferView":29,
			"componentType":5126,
			"count":2,
			"type":"VEC3"
		},
		{
			"bufferView":30,
			"componentType":5126,
			"count":74,
			"type":"VEC4"
		},
		{
			"bufferView":31,
			"componentType":5126,
			"count":2,
			"type":"VEC3"
		},
		{
			"bufferView":32,
			"componentType":5126,
			"count":2,
			"type":"VEC3"
		},
		{
			"bufferView":33,
			"componentType":5126,
			"count":74,
			"type":"VEC4"
		},
		{
			"bufferView":34,
			"componentType":5126,
			"count":2,
			"type":"VEC3"
		},
		{
			"bufferView":35,
			"componentType":5126,
			"count":2,
			"type":"VEC3"
		},
		{
			"bufferView":36,
			"componentType":5126,
			"count":74,
			"type":"VEC4"
		},
		{
			"bufferView":37,
			"componentType":5126,
			"count":2,
			"type":"VEC3"
		},
		{
			"bufferView":38,
			"componentType":5126,
			"count":74,
			"type":"VEC4"
		},
		{
			"bufferView":39,
			"componentType":5126,
			"count":2,
			"type":"VEC3"
		},
		{
			"bufferView":40,
			"componentType":5126,
			"count":2,
			"type":"VEC3"
		},
		{
			"bufferView":41,
			"componentType":5126,
			"count":74,
			"type":"VEC4"
		},
		{
			"bufferView":42,
			"componentType":5126,
			"count":2,
			"type":"VEC3"
		},
		{
			"bufferView":43,
			"componentType":5126,
			"count":2,
			"type":"VEC3"
		},
		{
			"bufferView":44,
			"componentType":5126,
			"count":74,
			"type":"VEC4"
		},
		{
			"bufferView":45,
			"componentType":5126,
			"count":2,
			"type":"VEC3"
		},
		{
			"bufferView":46,
			"componentType":5126,
			"count":2,
			"type":"VEC3"
		},
		{
			"bufferView":47,
			"componentType":5126,
			"count":74,
			"type":"VEC4"
		},
		{
			"bufferView":48,
			"componentType":5126,
			"count":2,
			"type":"VEC3"
		},
		{
			"bufferView":49,
			"componentType":5126,
			"count":2,
			"type":"VEC3"
		},
		{
			"bufferView":50,
			"componentType":5126,
			"count":74,
			"type":"VEC4"
		},
		{
			"bufferView":51,
			"componentType":5126,
			"count":2,
			"type":"VEC3"
		},
		{
			"bufferView":52,
			"componentType":5126,
			"count":2,
			"type":"VEC3"
		},
		{
			"bufferView":53,
			"componentType":5126,
			"count":74,
			"type":"VEC4"
		},
		{
			"bufferView":54,
			"componentType":5126,
			"count":2,
			"type":"VEC3"
		},
		{
			"bufferView":55,
			"componentType":5126,
			"count":2,
			"type":"VEC3"
		},
		{
			"bufferView":56,
			"componentType":5126,
			"count":74,
			"type":"VEC4"
		},
		{
			"bufferView":57,
			"componentType":5126,
			"count":2,
			"type":"VEC3"
		},
		{
			"bufferView":58,
			"componentType":5126,
			"count":74,
			"type":"VEC4"
		},
		{
			"bufferView":59,
			"componentType":5126,
			"count":2,
			"type":"VEC3"
		},
		{
			"bufferView":60,
			"componentType":5126,
			"count":74,
			"type":"VEC4"
		},
		{
			"bufferView":61,
			"componentType":5126,
			"count":2,
			"type":"VEC3"
		},
		{
			"bufferView":62,
			"componentType":5126,
			"count":2,
			"type":"VEC3"
		},
		{
			"bufferView":63,
			"componentType":5126,
			"count":74,
			"type":"VEC4"
		},
		{
			"bufferView":64,
			"componentType":5126,
			"count":2,
			"type":"VEC3"
		},
		{
			"bufferView":65,
			"componentType":5126,
			"count":2,
			"type":"VEC3"
		},
		{
			"bufferView":66,
			"componentType":5126,
			"count":74,
			"type":"VEC4"
		},
		{
			"bufferView":67,
			"componentType":5126,
			"count":2,
			"type":"VEC3"
		},
		{
			"bufferView":68,
			"componentType":5126,
			"count":74,
			"type":"VEC4"
		},
		{
			"bufferView":69,
			"componentType":5126,
			"count":2,
			"type":"VEC3"
		},
		{
			"bufferView":70,
			"componentType":5126,
			"count":74,
			"type":"VEC4"
		},
		{
			"bufferView":71,
			"componentType":5126,
			"count":2,
			"type":"VEC3"
		},
		{
			"bufferView":72,
			"componentType":5126,
			"count":74,
			"type":"VEC4"
		},
		{
			"bufferView":73,
			"componentType":5126,
			"count":2,
			"type":"VEC3"
		},
		{
			"bufferView":74,
			"componentType":5126,
			"count":2,
			"type":"VEC3"
		},
		{
			"bufferView":75,
			"componentType":5126,
			"count":74,
			"type":"VEC4"
		},
		{
			"bufferView":76,
			"componentType":5126,
			"count":2,
			"type":"VEC3"
		},
		{
			"bufferView":77,
			"componentType":5126,
			"count":2,
			"type":"VEC3"
		},
		{
			"bufferView":78,
			"componentType":5126,
			"count":74,
			"type":"VEC4"
		},
		{
			"bufferView":79,
			"componentType":5126,
			"count":2,
			"type":"VEC3"
		},
		{
			"bufferView":80,
			"componentType":5126,
			"count":2,
			"type":"VEC3"
		},
		{
			"bufferView":81,
			"componentType":5126,
			"count":74,
			"type":"VEC4"
		},
		{
			"bufferView":82,
			"componentType":5126,
			"count":2,
			"type":"VEC3"
		},
		{
			"bufferView":83,
			"componentType":5126,
			"count":2,
			"type":"VEC3"
		},
		{
			"bufferView":84,
			"componentType":5126,
			"count":74,
			"type":"VEC4"
		},
		{
			"bufferView":85,
			"componentType":5126,
			"count":2,
			"type":"VEC3"
		},
		{
			"bufferView":86,
			"componentType":5126,
			"count":2,
			"type":"VEC3"
		},
		{
			"bufferView":87,
			"componentType":5126,
			"count":2,
			"type":"VEC4"
		},
		{
			"bufferView":88,
			"componentType":5126,
			"count":74,
			"type":"VEC3"
		},
		{
			"bufferView":89,
			"componentType":5126,
			"count":2,
			"max":[
				2.2083333333333335
			],
			"min":[
				0.041666666666666664
			],
			"type":"SCALAR"
		},
		{
			"bufferView":90,
			"componentType":5126,
			"count":53,
			"max":[
				2.2083333333333335
			],
			"min":[
				0.041666666666666664
			],
			"type":"SCALAR"
		},
		{
			"bufferView":91,
			"componentType":5126,
			"count":53,
			"type":"VEC4"
		},
		{
			"bufferView":92,
			"componentType":5126,
			"count":2,
			"type":"VEC3"
		},
		{
			"bufferView":93,
			"componentType":5126,
			"count":53,
			"type":"VEC4"
		},
		{
			"bufferView":94,
			"componentType":5126,
			"count":2,
			"type":"VEC3"
		},
		{
			"bufferView":95,
			"componentType":5126,
			"count":2,
			"type":"VEC3"
		},
		{
			"bufferView":96,
			"componentType":5126,
			"count":53,
			"type":"VEC4"
		},
		{
			"bufferView":97,
			"componentType":5126,
			"count":2,
			"type":"VEC3"
		},
		{
			"bufferView":98,
			"componentType":5126,
			"count":2,
			"type":"VEC3"
		},
		{
			"bufferView":99,
			"componentType":5126,
			"count":53,
			"type":"VEC4"
		},
		{
			"bufferView":100,
			"componentType":5126,
			"count":53,
			"type":"VEC4"
		},
		{
			"bufferView":101,
			"componentType":5126,
			"count":2,
			"type":"VEC3"
		},
		{
			"bufferView":102,
			"componentType":5126,
			"count":2,
			"type":"VEC3"
		},
		{
			"bufferView":103,
			"componentType":5126,
			"count":53,
			"type":"VEC4"
		},
		{
			"bufferView":104,
			"componentType":5126,
			"count":2,
			"type":"VEC3"
		},
		{
			"bufferView":105,
			"componentType":5126,
			"count":2,
			"type":"VEC3"
		},
		{
			"bufferView":106,
			"componentType":5126,
			"count":53,
			"type":"VEC4"
		},
		{
			"bufferView":107,
			"componentType":5126,
			"count":2,
			"type":"VEC3"
		},
		{
			"bufferView":108,
			"componentType":5126,
			"count":53,
			"type":"VEC4"
		},
		{
			"bufferView":109,
			"componentType":5126,
			"count":53,
			"type":"VEC4"
		},
		{
			"bufferView":110,
			"componentType":5126,
			"count":2,
			"type":"VEC3"
		},
		{
			"bufferView":111,
			"componentType":5126,
			"count":53,
			"type":"VEC4"
		},
		{
			"bufferView":112,
			"componentType":5126,
			"count":2,
			"type":"VEC3"
		},
		{
			"bufferView":113,
			"componentType":5126,
			"count":53,
			"type":"VEC4"
		},
		{
			"bufferView":114,
			"componentType":5126,
			"count":2,
			"type":"VEC3"
		},
		{
			"bufferView":115,
			"componentType":5126,
			"count":2,
			"type":"VEC3"
		},
		{
			"bufferView":116,
			"componentType":5126,
			"count":53,
			"type":"VEC4"
		},
		{
			"bufferView":117,
			"componentType":5126,
			"count":53,
			"type":"VEC4"
		},
		{
			"bufferView":118,
			"componentType":5126,
			"count":2,
			"type":"VEC3"
		},
		{
			"bufferView":119,
			"componentType":5126,
			"count":2,
			"type":"VEC3"
		},
		{
			"bufferView":120,
			"componentType":5126,
			"count":53,
			"type":"VEC4"
		},
		{
			"bufferView":121,
			"componentType":5126,
			"count":2,
			"type":"VEC3"
		},
		{
			"bufferView":122,
			"componentType":5126,
			"count":2,
			"type":"VEC3"
		},
		{
			"bufferView":123,
			"componentType":5126,
			"count":53,
			"type":"VEC4"
		},
		{
			"bufferView":124,
			"componentType":5126,
			"count":2,
			"type":"VEC3"
		},
		{
			"bufferView":125,
			"componentType":5126,
			"count":2,
			"type":"VEC3"
		},
		{
			"bufferView":126,
			"componentType":5126,
			"count":53,
			"type":"VEC4"
		},
		{
			"bufferView":127,
			"componentType":5126,
			"count":53,
			"type":"VEC4"
		},
		{
			"bufferView":128,
			"componentType":5126,
			"count":2,
			"type":"VEC3"
		},
		{
			"bufferView":129,
			"componentType":5126,
			"count":53,
			"type":"VEC4"
		},
		{
			"bufferView":130,
			"componentType":5126,
			"count":2,
			"type":"VEC3"
		},
		{
			"bufferView":131,
			"componentType":5126,
			"count":53,
			"type":"VEC4"
		},
		{
			"bufferView":132,
			"componentType":5126,
			"count":2,
			"type":"VEC3"
		},
		{
			"bufferView":133,
			"componentType":5126,
			"count":2,
			"type":"VEC3"
		},
		{
			"bufferView":134,
			"componentType":5126,
			"count":53,
			"type":"VEC4"
		},
		{
			"bufferView":135,
			"componentType":5126,
			"count":2,
			"type":"VEC3"
		},
		{
			"bufferView":136,
			"componentType":5126,
			"count":53,
			"type":"VEC4"
		},
		{
			"bufferView":137,
			"componentType":5126,
			"count":2,
			"type":"VEC3"
		},
		{
			"bufferView":138,
			"componentType":5126,
			"count":53,
			"type":"VEC4"
		},
		{
			"bufferView":139,
			"componentType":5126,
			"count":2,
			"type":"VEC3"
		},
		{
			"bufferView":140,
			"componentType":5126,
			"count":2,
			"type":"VEC3"
		},
		{
			"bufferView":141,
			"componentType":5126,
			"count":53,
			"type":"VEC4"
		},
		{
			"bufferView":142,
			"componentType":5126,
			"count":2,
			"type":"VEC3"
		},
		{
			"bufferView":143,
			"componentType":5126,
			"count":53,
			"type":"VEC4"
		},
		{
			"bufferView":144,
			"componentType":5126,
			"count":53,
			"type":"VEC4"
		},
		{
			"bufferView":145,
			"componentType":5126,
			"count":2,
			"type":"VEC3"
		},
		{
			"bufferView":146,
			"componentType":5126,
			"count":53,
			"type":"VEC4"
		},
		{
			"bufferView":147,
			"componentType":5126,
			"count":2,
			"type":"VEC3"
		},
		{
			"bufferView":148,
			"componentType":5126,
			"count":2,
			"type":"VEC3"
		},
		{
			"bufferView":149,
			"componentType":5126,
			"count":53,
			"type":"VEC4"
		},
		{
			"bufferView":150,
			"componentType":5126,
			"count":2,
			"type":"VEC3"
		},
		{
			"bufferView":151,
			"componentType":5126,
			"count":53,
			"type":"VEC4"
		},
		{
			"bufferView":152,
			"componentType":5126,
			"count":2,
			"type":"VEC3"
		},
		{
			"bufferView":153,
			"componentType":5126,
			"count":2,
			"type":"VEC3"
		}
	],
	"bufferViews":[
		{
			"buffer":0,
			"byteLength":1584,
			"byteOffset":0,
			"target":34962
		},
		{
			"buffer":0,
			"byteLength":1584,
			"byteOffset":1584,
			"target":34962
		},
		{
			"buffer":0,
			"byteLength":1056,
			"byteOffset":3168,
			"target":34962
		},
		{
			"buffer":0,
			"byteLength":528,
			"byteOffset":4224,
			"target":34962
		},
		{
			"buffer":0,
			"byteLength":2112,
			"byteOffset":4752,
			"target":34962
		},
		{
			"buffer":0,
			"byteLength":552,
			"byteOffset":6864,
			"target":34963
		},
		{
			"buffer":0,
			"byteLength":1856,
			"byteOffset":7416
		},
		{
			"buffer":0,
			"byteLength":8,
			"byteOffset":9272
		},
		{
			"buffer":0,
			"byteLength":24,
			"byteOffset":9280
		},
		{
			"buffer":0,
			"byteLength":296,
			"byteOffset":9304
		},
		{
			"buffer":0,
			"byteLength":1184,
			"byteOffset":9600
		},
		{
			"buffer":0,
			"byteLength":24,
			"byteOffset":10784
		},
		{
			"buffer":0,
			"byteLength":24,
			"byteOffset":10808
		},
		{
			"buffer":0,
			"byteLength":1184,
			"byteOffset":10832
		},
		{
			"buffer":0,
			"byteLength":24,
			"byteOffset":12016
		},
		{
			"buffer":0,
			"byteLength":24,
			"byteOffset":12040
		},
		{
			"buffer":0,
			"byteLength":1184,
			"byteOffset":12064
		},
		{
			"buffer":0,
			"byteLength":24,
			"byteOffset":13248
		},
		{
			"buffer":0,
			"byteLength":24,
			"byteOffset":13272
		},
		{
			"buffer":0,
			"byteLength":1184,
			"byteOffset":13296
		},
		{
			"buffer":0,
			"byteLength":24,
			"byteOffset":14480
		},
		{
			"buffer":0,
			"byteLength":1184,
			"byteOffset":14504
		},
		{
			"buffer":0,
			"byteLength":24,
			"byteOffset":15688
		},
		{
			"buffer":0,
			"byteLength":24,
			"byteOffset":15712
		},
		{
			"buffer":0,
			"byteLength":1184,
			"byteOffset":15736
		},
		{
			"buffer":0,
			"byteLength":24,
			"byteOffset":16920
		},
		{
			"buffer":0,
			"byteLength":24,
			"byteOffset":16944
		},
		{
			"buffer":0,
			"byteLength":1184,
			"byteOffset":16968
		},
		{
			"buffer":0,
			"byteLength":24,
			"byteOffset":18152
		},
		{
			"buffer":0,
			"byteLength":24,
			"byteOffset":18176
		},
		{
			"buffer":0,
			"byteLength":1184,
			"byteOffset":18200
		},
		{
			"buffer":0,
			"byteLength":24,
			"byteOffset":19384
		},
		{
			"buffer":0,
			"byteLength":24,
			"byteOffset":19408
		},
		{
			"buffer":0,
			"byteLength":1184,
			"byteOffset":19432
		},
		{
			"buffer":0,
			"byteLength":24,
			"byteOffset":20616
		},
		{
			"buffer":0,
			"byteLength":24,
			"byteOffset":20640
		},
		{
			"buffer":0,
			"byteLength":1184,
			"byteOffset":20664
		},
		{
			"buffer":0,
			"byteLength":24,
			"byteOffset":21848
		},
		{
			"buffer":0,
			"byteLength":1184,
			"byteOffset":21872
		},
		{
			"buffer":0,
			"byteLength":24,
			"byteOffset":23056
		},
		{
			"buffer":0,
			"byteLength":24,
			"byteOffset":23080
		},
		{
			"buffer":0,
			"byteLength":1184,
			"byteOffset":23104
		},
		{
			"buffer":0,
			"byteLength":24,
			"byteOffset":24288
		},
		{
			"buffer":0,
			"byteLength":24,
			"byteOffset":24312
		},
		{
			"buffer":0,
			"byteLength":1184,
			"byteOffset":24336
		},
		{
			"buffer":0,
			"byteLength":24,
			"byteOffset":25520
		},
		{
			"buffer":0,
			"byteLength":24,
			"byteOffset":25544
		},
		{
			"buffer":0,
			"byteLength":1184,
			"byteOffset":25568
		},
		{
			"buffer":0,
			"byteLength":24,
			"byteOffset":26752
		},
		{
			"buffer":0,
			"byteLength":24,
			"byteOffset":26776
		},
		{
			"buffer":0,
			"byteLength":1184,
			"byteOffset":26800
		},
		{
			"buffer":0,
			"byteLength":24,
			"byteOffset":27984
		},
		{
			"buffer":0,
			"byteLength":24,
			"byteOffset":28008
		},
		{
			"buffer":0,
			"byteLength":1184,
			"byteOffset":28032
		},
		{
			"buffer":0,
			"byteLength":24,
			"byteOffset":29216
		},
		{
			"buffer":0,
			"byteLength":24,
			"byteOffset":29240
		},
		{
			"buffer":0,
			"byteLength":1184,
			"byteOffset":29264
		},
		{
			"buffer":0,
			"byteLength":24,
			"byteOffset":30448
		},
		{
			"buffer":0,
			"byteLength":1184,
			"byteOffset":30472
		},
		{
			"buffer":0,
			"byteLength":24,
			"byteOffset":31656
		},
		{
			"buffer":0,
			"byteLength":1184,
			"byteOffset":31680
		},
		{
			"buffer":0,
			"byteLength":24,
			"byteOffset":32864
		},
		{
			"buffer":0,
			"byteLength":24,
			"byteOffset":32888
		},
		{
			"buffer":0,
			"byteLength":1184,
			"byteOffset":32912
		},
		{
			"buffer":0,
			"byteLength":24,
			"byteOffset":34096
		},
		{
			"buffer":0,
			"byteLength":24,
			"byteOffset":34120
		},
		{
			"buffer":0,
			"byteLength":1184,
			"byteOffset":34144
		},
		{
			"buffer":0,
			"byteLength":24,
			"byteOffset":35328
		},
		{
			"buffer":0,
			"byteLength":1184,
			"byteOffset":35352
		},
		{
			"buffer":0,
			"byteLength":24,
			"byteOffset":36536
		},
		{
			"buffer":0,
			"byteLength":1184,
			"byteOffset":36560
		},
		{
			"buffer":0,
			"byteLength":24,
			"byteOffset":37744
		},
		{
			"buffer":0,
			"byteLength":1184,
			"byteOffset":37768
		},
		{
			"buffer":0,
			"byteLength":24,
			"byteOffset":38952
		},
		{
			"buffer":0,
			"byteLength":24,
			"byteOffset":38976
		},
		{
			"buffer":0,
			"byteLength":1184,
			"byteOffset":39000
		},
		{
			"buffer":0,
			"byteLength":24,
			"byteOffset":40184
		},
		{
			"buffer":0,
			"byteLength":24,
			"byteOffset":40208
		},
		{
			"buffer":0,
			"byteLength":1184,
			"byteOffset":40232
		},
		{
			"buffer":0,
			"byteLength":24,
			"byteOffset":41416
		},
		{
			"buffer":0,
			"byteLength":24,
			"byteOffset":41440
		},
		{
			"buffer":0,
			"byteLength":1184,
			"byteOffset":41464
		},
		{
			"buffer":0,
			"byteLength":24,
			"byteOffset":42648
		},
		{
			"buffer":0,
			"byteLength":24,
			"byteOffset":42672
		},
		{
			"buffer":0,
			"byteLength":1184,
			"byteOffset":42696
		},
		{
			"buffer":0,
			"byteLength":24,
			"byteOffset":43880
		},
		{
			"buffer":0,
			"byteLength":24,
			"byteOffset":43904
		},
		{
			"buffer":0,
			"byteLength":32,
			"byteOffset":43928
		},
		{
			"buffer":0,
			"byteLength":888,
			"byteOffset":43960
		},
		{
			"buffer":0,
			"byteLength":8,
			"byteOffset":44848
		},
		{
			"buffer":0,
			"byteLength":212,
			"byteOffset":44856
		},
		{
			"buffer":0,
			"byteLength":848,
			"byteOffset":45068
		},
		{
			"buffer":0,
			"byteLength":24,
			"byteOffset":45916
		},
		{
			"buffer":0,
			"byteLength":848,
			"byteOffset":45940
		},
		{
			"buffer":0,
			"byteLength":24,
			"byteOffset":46788
		},
		{
			"buffer":0,
			"byteLength":24,
			"byteOffset":46812
		},
		{
			"buffer":0,
			"byteLength":848,
			"byteOffset":46836
		},
		{
			"buffer":0,
			"byteLength":24,
			"byteOffset":47684
		},
		{
			"buffer":0,
			"byteLength":24,
			"byteOffset":47708
		},
		{
			"buffer":0,
			"byteLength":848,
			"byteOffset":47732
		},
		{
			"buffer":0,
			"byteLength":848,
			"byteOffset":48580
		},
		{
			"buffer":0,
			"byteLength":24,
			"byteOffset":49428
		},
		{
			"buffer":0,
			"byteLength":24,
			"byteOffset":49452
		},
		{
			"buffer":0,
			"byteLength":848,
			"byteOffset":49476
		},
		{
			"buffer":0,
			"byteLength":24,
			"byteOffset":50324
		},
		{
			"buffer":0,
			"byteLength":24,
			"byteOffset":50348
		},
		{
			"buffer":0,
			"byteLength":848,
			"byteOffset":50372
		},
		{
			"buffer":0,
			"byteLength":24,
			"byteOffset":51220
		},
		{
			"buffer":0,
			"byteLength":848,
			"byteOffset":51244
		},
		{
			"buffer":0,
			"byteLength":848,
			"byteOffset":52092
		},
		{
			"buffer":0,
			"byteLength":24,
			"byteOffset":52940
		},
		{
			"buffer":0,
			"byteLength":848,
			"byteOffset":52964
		},
		{
			"buffer":0,
			"byteLength":24,
			"byteOffset":53812
		},
		{
			"buffer":0,
			"byteLength":848,
			"byteOffset":53836
		},
		{
			"buffer":0,
			"byteLength":24,
			"byteOffset":54684
		},
		{
			"buffer":0,
			"byteLength":24,
			"byteOffset":54708
		},
		{
			"buffer":0,
			"byteLength":848,
			"byteOffset":54732
		},
		{
			"buffer":0,
			"byteLength":848,
			"byteOffset":55580
		},
		{
			"buffer":0,
			"byteLength":24,
			"byteOffset":56428
		},
		{
			"buffer":0,
			"byteLength":24,
			"byteOffset":56452
		},
		{
			"buffer":0,
			"byteLength":848,
			"byteOffset":56476
		},
		{
			"buffer":0,
			"byteLength":24,
			"byteOffset":57324
		},
		{
			"buffer":0,
			"byteLength":24,
			"byteOffset":57348
		},
		{
			"buffer":0,
			"byteLength":848,
			"byteOffset":57372
		},
		{
			"buffer":0,
			"byteLength":24,
			"byteOffset":58220
		},
		{
			"buffer":0,
			"byteLength":24,
			"byteOffset":58244
		},
		{
			"buffer":0,
			"byteLength":848,
			"byteOffset":58268
		},
		{
			"buffer":0,
			"byteLength":848,
			"byteOffset":59116
		},
		{
			"buffer":0,
			"byteLength":24,
			"byteOffset":59964
		},
		{
			"buffer":0,
			"byteLength":848,
			"byteOffset":59988
		},
		{
			"buffer":0,
			"byteLength":24,
			"byteOffset":60836
		},
		{
			"buffer":0,
			"byteLength":848,
			"byteOffset":60860
		},
		{
			"buffer":0,
			"byteLength":24,
			"byteOffset":61708
		},
		{
			"buffer":0,
			"byteLength":24,
			"byteOffset":61732
		},
		{
			"buffer":0,
			"byteLength":848,
			"byteOffset":61756
		},
		{
			"buffer":0,
			"byteLength":24,
			"byteOffset":62604
		},
		{
			"buffer":0,
			"byteLength":848,
			"byteOffset":62628
		},
		{
			"buffer":0,
			"byteLength":24,
			"byteOffset":63476
		},
		{
			"buffer":0,
			"byteLength":848,
			"byteOffset":63500
		},
		{
			"buffer":0,
			"byteLength":24,
			"byteOffset":64348
		},
		{
			"buffer":0,
			"byteLength":24,
			"byteOffset":64372
		},
		{
			"buffer":0,
			"byteLength":848,
			"byteOffset":64396
		},
		{
			"buffer":0,
			"byteLength":24,
			"byteOffset":65244
		},
		{
			"buffer":0,
			"byteLength":848,
			"byteOffset":65268
		},
		{
			"buffer":0,
			"byteLength":848,
			"byteOffset":66116
		},
		{
			"buffer":0,
			"byteLength":24,
			"byteOffset":66964
		},
		{
			"buffer":0,
			"byteLength":848,
			"byteOffset":66988
		},
		{
			"buffer":0,
			"byteLength":24,
			"byteOffset":67836
		},
		{
			"buffer":0,
			"byteLength":24,
			"byteOffset":67860
		},
		{
			"buffer":0,
			"byteLength":848,
			"byteOffset":67884
		},
		{
			"buffer":0,
			"byteLength":24,
			"byteOffset":68732
		},
		{
			"buffer":0,
			"byteLength":848,
			"byteOffset":68756
		},
		{
			"buffer":0,
			"byteLength":24,
			"byteOffset":69604
		},
		{
			"buffer":0,
			"byteLength":24,
			"byteOffset":69628
		}
	],
	"samplers":[
		{
			"magFilter":9728,
			"minFilter":9984
		}
	],
	"buffers":[
		{
			"byteLength":69652,
			"uri":"flora_seefern.bin"
		}
	]
}
