# Blender 5.1.1
# www.blender.org
mtllib bead_statue.mtl
o Pedestal
v 0.850000 0.000000 0.000000
v 0.736122 0.000000 -0.425000
v 0.425000 0.000000 -0.736122
v 0.000000 0.000000 -0.850000
v -0.425000 0.000000 -0.736122
v -0.736122 0.000000 -0.425000
v -0.850000 0.000000 -0.000000
v -0.736122 0.000000 0.425000
v -0.425000 0.000000 0.736122
v -0.000000 0.000000 0.850000
v 0.425000 0.000000 0.736122
v 0.736122 0.000000 0.425000
v 0.850000 0.050000 0.000000
v 0.736122 0.050000 -0.425000
v 0.425000 0.050000 -0.736122
v 0.000000 0.050000 -0.850000
v -0.425000 0.050000 -0.736122
v -0.736122 0.050000 -0.425000
v -0.850000 0.050000 -0.000000
v -0.736122 0.050000 0.425000
v -0.425000 0.050000 0.736122
v -0.000000 0.050000 0.850000
v 0.425000 0.050000 0.736122
v 0.736122 0.050000 0.425000
v 0.780000 0.050000 0.000000
v 0.675500 0.050000 -0.390000
v 0.390000 0.050000 -0.675500
v 0.000000 0.050000 -0.780000
v -0.390000 0.050000 -0.675500
v -0.675500 0.050000 -0.390000
v -0.780000 0.050000 -0.000000
v -0.675500 0.050000 0.390000
v -0.390000 0.050000 0.675500
v -0.000000 0.050000 0.780000
v 0.390000 0.050000 0.675500
v 0.675500 0.050000 0.390000
v 0.780000 0.100000 0.000000
v 0.675500 0.100000 -0.390000
v 0.390000 0.100000 -0.675500
v 0.000000 0.100000 -0.780000
v -0.390000 0.100000 -0.675500
v -0.675500 0.100000 -0.390000
v -0.780000 0.100000 -0.000000
v -0.675500 0.100000 0.390000
v -0.390000 0.100000 0.675500
v -0.000000 0.100000 0.780000
v 0.390000 0.100000 0.675500
v 0.675500 0.100000 0.390000
v 0.720000 0.120000 0.000000
v 0.623538 0.120000 -0.360000
v 0.360000 0.120000 -0.623538
v 0.000000 0.120000 -0.720000
v -0.360000 0.120000 -0.623538
v -0.623538 0.120000 -0.360000
v -0.720000 0.120000 -0.000000
v -0.623538 0.120000 0.360000
v -0.360000 0.120000 0.623538
v -0.000000 0.120000 0.720000
v 0.360000 0.120000 0.623538
v 0.623538 0.120000 0.360000
v 0.720000 0.550000 0.000000
v 0.623538 0.550000 -0.360000
v 0.360000 0.550000 -0.623538
v 0.000000 0.550000 -0.720000
v -0.360000 0.550000 -0.623538
v -0.623538 0.550000 -0.360000
v -0.720000 0.550000 -0.000000
v -0.623538 0.550000 0.360000
v -0.360000 0.550000 0.623538
v -0.000000 0.550000 0.720000
v 0.360000 0.550000 0.623538
v 0.623538 0.550000 0.360000
v 0.780000 0.580000 0.000000
v 0.675500 0.580000 -0.390000
v 0.390000 0.580000 -0.675500
v 0.000000 0.580000 -0.780000
v -0.390000 0.580000 -0.675500
v -0.675500 0.580000 -0.390000
v -0.780000 0.580000 -0.000000
v -0.675500 0.580000 0.390000
v -0.390000 0.580000 0.675500
v -0.000000 0.580000 0.780000
v 0.390000 0.580000 0.675500
v 0.675500 0.580000 0.390000
v 0.780000 0.650000 0.000000
v 0.675500 0.650000 -0.390000
v 0.390000 0.650000 -0.675500
v 0.000000 0.650000 -0.780000
v -0.390000 0.650000 -0.675500
v -0.675500 0.650000 -0.390000
v -0.780000 0.650000 -0.000000
v -0.675500 0.650000 0.390000
v -0.390000 0.650000 0.675500
v -0.000000 0.650000 0.780000
v 0.390000 0.650000 0.675500
v 0.675500 0.650000 0.390000
v 0.740000 0.680000 0.000000
v 0.640859 0.680000 -0.370000
v 0.370000 0.680000 -0.640859
v 0.000000 0.680000 -0.740000
v -0.370000 0.680000 -0.640859
v -0.640859 0.680000 -0.370000
v -0.740000 0.680000 -0.000000
v -0.640859 0.680000 0.370000
v -0.370000 0.680000 0.640859
v -0.000000 0.680000 0.740000
v 0.370000 0.680000 0.640859
v 0.640859 0.680000 0.370000
vn 0.9659 -0.0000 -0.2588
vn 0.7071 -0.0000 -0.7071
vn 0.2588 -0.0000 -0.9659
vn -0.2588 -0.0000 -0.9659
vn -0.7071 -0.0000 -0.7071
vn -0.9659 -0.0000 -0.2588
vn -0.9659 -0.0000 0.2588
vn -0.7071 -0.0000 0.7071
vn -0.2588 -0.0000 0.9659
vn 0.2588 -0.0000 0.9659
vn 0.7071 -0.0000 0.7071
vn 0.9659 -0.0000 0.2588
vn -0.0000 1.0000 -0.0000
vn 0.3151 0.9453 -0.0844
vn 0.2307 0.9453 -0.2307
vn 0.0844 0.9453 -0.3151
vn -0.0844 0.9453 -0.3151
vn -0.2307 0.9453 -0.2307
vn -0.3151 0.9453 -0.0844
vn -0.3151 0.9453 0.0844
vn -0.2307 0.9453 0.2307
vn -0.0844 0.9453 0.3151
vn 0.0844 0.9453 0.3151
vn 0.2307 0.9453 0.2307
vn 0.3151 0.9453 0.0844
vn 0.4440 -0.8881 -0.1190
vn 0.3251 -0.8881 -0.3251
vn 0.1190 -0.8881 -0.4440
vn -0.1190 -0.8881 -0.4440
vn -0.3251 -0.8881 -0.3251
vn -0.4440 -0.8881 -0.1190
vn -0.4440 -0.8881 0.1190
vn -0.3251 -0.8881 0.3251
vn -0.1190 -0.8881 0.4440
vn 0.1190 -0.8881 0.4440
vn 0.3251 -0.8881 0.3251
vn 0.4440 -0.8881 0.1190
vn 0.5924 0.7899 -0.1587
vn 0.4337 0.7899 -0.4337
vn 0.1587 0.7899 -0.5924
vn -0.1587 0.7899 -0.5924
vn -0.4337 0.7899 -0.4337
vn -0.5924 0.7899 -0.1587
vn -0.5924 0.7899 0.1587
vn -0.4337 0.7899 0.4337
vn -0.1587 0.7899 0.5924
vn 0.1587 0.7899 0.5924
vn 0.4337 0.7899 0.4337
vn 0.5924 0.7899 0.1587
vn -0.0000 -1.0000 -0.0000
vt 0.000000 0.000000
vt 0.255000 0.000000
vt 0.255000 0.030000
vt 0.000000 0.030000
vt 0.441673 0.000000
vt 0.441673 0.030000
vt 0.000000 0.000000
vt 0.000000 0.030000
vt -0.255000 0.000000
vt -0.255000 0.030000
vt 0.000000 0.000000
vt 0.000000 0.030000
vt -0.441673 0.000000
vt -0.441673 0.030000
vt -0.000000 0.000000
vt -0.000000 0.030000
vt 0.510000 0.000000
vt 0.441673 0.255000
vt 0.405300 0.234000
vt 0.468000 0.000000
vt 0.255000 0.441673
vt 0.234000 0.405300
vt 0.000000 0.510000
vt 0.000000 0.468000
vt -0.255000 0.441673
vt -0.234000 0.405300
vt -0.441673 0.255000
vt -0.405300 0.234000
vt -0.510000 0.000000
vt -0.468000 0.000000
vt -0.441673 -0.255000
vt -0.405300 -0.234000
vt -0.255000 -0.441673
vt -0.234000 -0.405300
vt -0.000000 -0.510000
vt -0.000000 -0.468000
vt 0.255000 -0.441673
vt 0.234000 -0.405300
vt 0.441673 -0.255000
vt 0.405300 -0.234000
vt 0.234000 0.030000
vt 0.234000 0.060000
vt 0.000000 0.060000
vt 0.405300 0.030000
vt 0.405300 0.060000
vt 0.000000 0.030000
vt 0.000000 0.060000
vt -0.234000 0.030000
vt -0.234000 0.060000
vt 0.000000 0.030000
vt 0.000000 0.060000
vt -0.405300 0.030000
vt -0.405300 0.060000
vt -0.000000 0.030000
vt -0.000000 0.060000
vt 0.374123 0.216000
vt 0.432000 0.000000
vt 0.216000 0.374123
vt 0.000000 0.432000
vt -0.216000 0.374123
vt -0.374123 0.216000
vt -0.432000 0.000000
vt -0.374123 -0.216000
vt -0.216000 -0.374123
vt -0.000000 -0.432000
vt 0.216000 -0.374123
vt 0.374123 -0.216000
vt 0.000000 0.072000
vt 0.216000 0.072000
vt 0.216000 0.330000
vt 0.000000 0.330000
vt 0.374123 0.072000
vt 0.374123 0.330000
vt 0.000000 0.072000
vt 0.000000 0.330000
vt -0.216000 0.072000
vt -0.216000 0.330000
vt 0.000000 0.072000
vt 0.000000 0.330000
vt -0.374123 0.072000
vt -0.374123 0.330000
vt -0.000000 0.072000
vt -0.000000 0.330000
vt 0.000000 0.348000
vt 0.234000 0.348000
vt 0.234000 0.390000
vt 0.000000 0.390000
vt 0.405300 0.348000
vt 0.405300 0.390000
vt 0.000000 0.348000
vt 0.000000 0.390000
vt -0.234000 0.348000
vt -0.234000 0.390000
vt 0.000000 0.348000
vt 0.000000 0.390000
vt -0.405300 0.348000
vt -0.405300 0.390000
vt -0.000000 0.348000
vt -0.000000 0.390000
vt 0.384515 0.222000
vt 0.444000 0.000000
vt 0.222000 0.384515
vt 0.000000 0.444000
vt -0.222000 0.384515
vt -0.384515 0.222000
vt -0.444000 0.000000
vt -0.384515 -0.222000
vt -0.222000 -0.384515
vt -0.000000 -0.444000
vt 0.222000 -0.384515
vt 0.384515 -0.222000
s 0
usemtl PedestalMat
f 1/1/1 2/2/1 14/3/1 13/4/1
f 2/2/2 3/5/2 15/6/2 14/3/2
f 3/2/3 4/7/3 16/8/3 15/3/3
f 4/7/4 5/9/4 17/10/4 16/8/4
f 5/5/5 6/2/5 18/3/5 17/6/5
f 6/2/6 7/11/6 19/12/6 18/3/6
f 7/11/7 8/9/7 20/10/7 19/12/7
f 8/9/8 9/13/8 21/14/8 20/10/8
f 9/9/9 10/15/9 22/16/9 21/10/9
f 10/15/10 11/2/10 23/3/10 22/16/10
f 11/13/11 12/9/11 24/10/11 23/14/11
f 12/9/12 1/1/12 13/4/12 24/10/12
f 13/17/13 14/18/13 26/19/13 25/20/13
f 14/18/13 15/21/13 27/22/13 26/19/13
f 15/21/13 16/23/13 28/24/13 27/22/13
f 16/23/13 17/25/13 29/26/13 28/24/13
f 17/25/13 18/27/13 30/28/13 29/26/13
f 18/27/13 19/29/13 31/30/13 30/28/13
f 19/29/13 20/31/13 32/32/13 31/30/13
f 20/31/13 21/33/13 33/34/13 32/32/13
f 21/33/13 22/35/13 34/36/13 33/34/13
f 22/35/13 23/37/13 35/38/13 34/36/13
f 23/37/13 24/39/13 36/40/13 35/38/13
f 24/39/13 13/17/13 25/20/13 36/40/13
f 25/4/1 26/41/1 38/42/1 37/43/1
f 26/41/2 27/44/2 39/45/2 38/42/2
f 27/41/3 28/46/3 40/47/3 39/42/3
f 28/46/4 29/48/4 41/49/4 40/47/4
f 29/44/5 30/41/5 42/42/5 41/45/5
f 30/41/6 31/50/6 43/51/6 42/42/6
f 31/50/7 32/48/7 44/49/7 43/51/7
f 32/48/8 33/52/8 45/53/8 44/49/8
f 33/48/9 34/54/9 46/55/9 45/49/9
f 34/54/10 35/41/10 47/42/10 46/55/10
f 35/52/11 36/48/11 48/49/11 47/53/11
f 36/48/12 25/4/12 37/43/12 48/49/12
f 37/20/14 38/19/14 50/56/14 49/57/14
f 38/19/15 39/22/15 51/58/15 50/56/15
f 39/22/16 40/24/16 52/59/16 51/58/16
f 40/24/17 41/26/17 53/60/17 52/59/17
f 41/26/18 42/28/18 54/61/18 53/60/18
f 42/28/19 43/30/19 55/62/19 54/61/19
f 43/30/20 44/32/20 56/63/20 55/62/20
f 44/32/21 45/34/21 57/64/21 56/63/21
f 45/34/22 46/36/22 58/65/22 57/64/22
f 46/36/23 47/38/23 59/66/23 58/65/23
f 47/38/24 48/40/24 60/67/24 59/66/24
f 48/40/25 37/20/25 49/57/25 60/67/25
f 49/68/1 50/69/1 62/70/1 61/71/1
f 50/69/2 51/72/2 63/73/2 62/70/2
f 51/69/3 52/74/3 64/75/3 63/70/3
f 52/74/4 53/76/4 65/77/4 64/75/4
f 53/72/5 54/69/5 66/70/5 65/73/5
f 54/69/6 55/78/6 67/79/6 66/70/6
f 55/78/7 56/76/7 68/77/7 67/79/7
f 56/76/8 57/80/8 69/81/8 68/77/8
f 57/76/9 58/82/9 70/83/9 69/77/9
f 58/82/10 59/69/10 71/70/10 70/83/10
f 59/80/11 60/76/11 72/77/11 71/81/11
f 60/76/12 49/68/12 61/71/12 72/77/12
f 61/57/26 62/56/26 74/19/26 73/20/26
f 62/56/27 63/58/27 75/22/27 74/19/27
f 63/58/28 64/59/28 76/24/28 75/22/28
f 64/59/29 65/60/29 77/26/29 76/24/29
f 65/60/30 66/61/30 78/28/30 77/26/30
f 66/61/31 67/62/31 79/30/31 78/28/31
f 67/62/32 68/63/32 80/32/32 79/30/32
f 68/63/33 69/64/33 81/34/33 80/32/33
f 69/64/34 70/65/34 82/36/34 81/34/34
f 70/65/35 71/66/35 83/38/35 82/36/35
f 71/66/36 72/67/36 84/40/36 83/38/36
f 72/67/37 61/57/37 73/20/37 84/40/37
f 73/84/1 74/85/1 86/86/1 85/87/1
f 74/85/2 75/88/2 87/89/2 86/86/2
f 75/85/3 76/90/3 88/91/3 87/86/3
f 76/90/4 77/92/4 89/93/4 88/91/4
f 77/88/5 78/85/5 90/86/5 89/89/5
f 78/85/6 79/94/6 91/95/6 90/86/6
f 79/94/7 80/92/7 92/93/7 91/95/7
f 80/92/8 81/96/8 93/97/8 92/93/8
f 81/92/9 82/98/9 94/99/9 93/93/9
f 82/98/10 83/85/10 95/86/10 94/99/10
f 83/96/11 84/92/11 96/93/11 95/97/11
f 84/92/12 73/84/12 85/87/12 96/93/12
f 85/20/38 86/19/38 98/100/38 97/101/38
f 86/19/39 87/22/39 99/102/39 98/100/39
f 87/22/40 88/24/40 100/103/40 99/102/40
f 88/24/41 89/26/41 101/104/41 100/103/41
f 89/26/42 90/28/42 102/105/42 101/104/42
f 90/28/43 91/30/43 103/106/43 102/105/43
f 91/30/44 92/32/44 104/107/44 103/106/44
f 92/32/45 93/34/45 105/108/45 104/107/45
f 93/34/46 94/36/46 106/109/46 105/108/46
f 94/36/47 95/38/47 107/110/47 106/109/47
f 95/38/48 96/40/48 108/111/48 107/110/48
f 96/40/49 85/20/49 97/101/49 108/111/49
f 12/39/50 11/37/50 10/35/50 9/33/50 8/31/50 7/29/50 6/27/50 5/25/50 4/23/50 3/21/50 2/18/50 1/17/50
f 97/101/13 98/100/13 99/102/13 100/103/13 101/104/13 102/105/13 103/106/13 104/107/13 105/108/13 106/109/13 107/110/13 108/111/13
o PedestalTop
v 0.740000 0.700000 0.000000
v 0.640859 0.700000 -0.370000
v 0.370000 0.700000 -0.640859
v 0.000000 0.700000 -0.740000
v -0.370000 0.700000 -0.640859
v -0.640859 0.700000 -0.370000
v -0.740000 0.700000 -0.000000
v -0.640859 0.700000 0.370000
v -0.370000 0.700000 0.640859
v -0.000000 0.700000 0.740000
v 0.370000 0.700000 0.640859
v 0.640859 0.700000 0.370000
v 0.000000 0.700000 0.000000
vn -0.0000 1.0000 -0.0000
vt 0.000000 0.000000
vt 0.444000 0.000000
vt 0.384515 0.222000
vt 0.222000 0.384515
vt 0.000000 0.444000
vt -0.222000 0.384515
vt -0.384515 0.222000
vt -0.444000 0.000000
vt -0.384515 -0.222000
vt -0.222000 -0.384515
vt -0.000000 -0.444000
vt 0.222000 -0.384515
vt 0.384515 -0.222000
s 0
usemtl PedestalTopMat
f 121/112/51 109/113/51 110/114/51
f 121/112/51 110/114/51 111/115/51
f 121/112/51 111/115/51 112/116/51
f 121/112/51 112/116/51 113/117/51
f 121/112/51 113/117/51 114/118/51
f 121/112/51 114/118/51 115/119/51
f 121/112/51 115/119/51 116/120/51
f 121/112/51 116/120/51 117/121/51
f 121/112/51 117/121/51 118/122/51
f 121/112/51 118/122/51 119/123/51
f 121/112/51 119/123/51 120/124/51
f 121/112/51 120/124/51 109/113/51
o PedestalRimGlow
v 0.740000 0.685000 0.000000
v 0.640859 0.685000 -0.370000
v 0.370000 0.685000 -0.640859
v 0.000000 0.685000 -0.740000
v -0.370000 0.685000 -0.640859
v -0.640859 0.685000 -0.370000
v -0.740000 0.685000 -0.000000
v -0.640859 0.685000 0.370000
v -0.370000 0.685000 0.640859
v -0.000000 0.685000 0.740000
v 0.370000 0.685000 0.640859
v 0.640859 0.685000 0.370000
v 0.760000 0.690000 0.000000
v 0.658179 0.690000 -0.380000
v 0.380000 0.690000 -0.658179
v 0.000000 0.690000 -0.760000
v -0.380000 0.690000 -0.658179
v -0.658179 0.690000 -0.380000
v -0.760000 0.690000 -0.000000
v -0.658179 0.690000 0.380000
v -0.380000 0.690000 0.658179
v -0.000000 0.690000 0.760000
v 0.380000 0.690000 0.658179
v 0.658179 0.690000 0.380000
v 0.760000 0.710000 0.000000
v 0.658179 0.710000 -0.380000
v 0.380000 0.710000 -0.658179
v 0.000000 0.710000 -0.760000
v -0.380000 0.710000 -0.658179
v -0.658179 0.710000 -0.380000
v -0.760000 0.710000 -0.000000
v -0.658179 0.710000 0.380000
v -0.380000 0.710000 0.658179
v -0.000000 0.710000 0.760000
v 0.380000 0.710000 0.658179
v 0.658179 0.710000 0.380000
v 0.740000 0.715000 0.000000
v 0.640859 0.715000 -0.370000
v 0.370000 0.715000 -0.640859
v 0.000000 0.715000 -0.740000
v -0.370000 0.715000 -0.640859
v -0.640859 0.715000 -0.370000
v -0.740000 0.715000 -0.000000
v -0.640859 0.715000 0.370000
v -0.370000 0.715000 0.640859
v -0.000000 0.715000 0.740000
v 0.370000 0.715000 0.640859
v 0.640859 0.715000 0.370000
vn 0.2420 -0.9681 -0.0649
vn 0.1772 -0.9681 -0.1772
vn 0.0648 -0.9681 -0.2420
vn -0.0648 -0.9681 -0.2420
vn -0.1772 -0.9681 -0.1772
vn -0.2420 -0.9681 -0.0649
vn -0.2420 -0.9681 0.0649
vn -0.1772 -0.9681 0.1772
vn -0.0648 -0.9681 0.2420
vn 0.0648 -0.9681 0.2420
vn 0.1772 -0.9681 0.1772
vn 0.2420 -0.9681 0.0649
vn 0.9659 -0.0000 -0.2588
vn 0.7071 -0.0000 -0.7071
vn 0.2588 -0.0000 -0.9659
vn -0.2588 -0.0000 -0.9659
vn -0.7071 -0.0000 -0.7071
vn -0.9659 -0.0000 -0.2588
vn -0.9659 -0.0000 0.2588
vn -0.7071 -0.0000 0.7071
vn -0.2588 -0.0000 0.9659
vn 0.2588 -0.0000 0.9659
vn 0.7071 -0.0000 0.7071
vn 0.9659 -0.0000 0.2588
vn 0.2420 0.9681 -0.0649
vn 0.1772 0.9681 -0.1772
vn 0.0649 0.9681 -0.2420
vn -0.0649 0.9681 -0.2420
vn -0.1772 0.9681 -0.1772
vn -0.2420 0.9681 -0.0649
vn -0.2420 0.9681 0.0649
vn -0.1772 0.9681 0.1772
vn -0.0649 0.9681 0.2420
vn 0.0649 0.9681 0.2420
vn 0.1772 0.9681 0.1772
vn 0.2420 0.9681 0.0649
vn -0.0000 -1.0000 -0.0000
vn -0.0000 1.0000 -0.0000
vt 0.444000 0.000000
vt 0.384515 0.222000
vt 0.394908 0.228000
vt 0.456000 0.000000
vt 0.222000 0.384515
vt 0.228000 0.394908
vt 0.000000 0.444000
vt 0.000000 0.456000
vt -0.222000 0.384515
vt -0.228000 0.394908
vt -0.384515 0.222000
vt -0.394908 0.228000
vt -0.444000 0.000000
vt -0.456000 0.000000
vt -0.384515 -0.222000
vt -0.394908 -0.228000
vt -0.222000 -0.384515
vt -0.228000 -0.394908
vt -0.000000 -0.444000
vt -0.000000 -0.456000
vt 0.222000 -0.384515
vt 0.228000 -0.394908
vt 0.384515 -0.222000
vt 0.394908 -0.228000
vt 0.000000 0.414000
vt 0.228000 0.414000
vt 0.228000 0.426000
vt 0.000000 0.426000
vt 0.394908 0.414000
vt 0.394908 0.426000
vt 0.000000 0.414000
vt 0.000000 0.426000
vt -0.228000 0.414000
vt -0.228000 0.426000
vt 0.000000 0.414000
vt 0.000000 0.426000
vt -0.394908 0.414000
vt -0.394908 0.426000
vt -0.000000 0.414000
vt -0.000000 0.426000
s 0
usemtl BeamMat
f 122/125/52 123/126/52 135/127/52 134/128/52
f 123/126/53 124/129/53 136/130/53 135/127/53
f 124/129/54 125/131/54 137/132/54 136/130/54
f 125/131/55 126/133/55 138/134/55 137/132/55
f 126/133/56 127/135/56 139/136/56 138/134/56
f 127/135/57 128/137/57 140/138/57 139/136/57
f 128/137/58 129/139/58 141/140/58 140/138/58
f 129/139/59 130/141/59 142/142/59 141/140/59
f 130/141/60 131/143/60 143/144/60 142/142/60
f 131/143/61 132/145/61 144/146/61 143/144/61
f 132/145/62 133/147/62 145/148/62 144/146/62
f 133/147/63 122/125/63 134/128/63 145/148/63
f 134/149/64 135/150/64 147/151/64 146/152/64
f 135/150/65 136/153/65 148/154/65 147/151/65
f 136/150/66 137/155/66 149/156/66 148/151/66
f 137/155/67 138/157/67 150/158/67 149/156/67
f 138/153/68 139/150/68 151/151/68 150/154/68
f 139/150/69 140/159/69 152/160/69 151/151/69
f 140/159/70 141/157/70 153/158/70 152/160/70
f 141/157/71 142/161/71 154/162/71 153/158/71
f 142/157/72 143/163/72 155/164/72 154/158/72
f 143/163/73 144/150/73 156/151/73 155/164/73
f 144/161/74 145/157/74 157/158/74 156/162/74
f 145/157/75 134/149/75 146/152/75 157/158/75
f 146/128/76 147/127/76 159/126/76 158/125/76
f 147/127/77 148/130/77 160/129/77 159/126/77
f 148/130/78 149/132/78 161/131/78 160/129/78
f 149/132/79 150/134/79 162/133/79 161/131/79
f 150/134/80 151/136/80 163/135/80 162/133/80
f 151/136/81 152/138/81 164/137/81 163/135/81
f 152/138/82 153/140/82 165/139/82 164/137/82
f 153/140/83 154/142/83 166/141/83 165/139/83
f 154/142/84 155/144/84 167/143/84 166/141/84
f 155/144/85 156/146/85 168/145/85 167/143/85
f 156/146/86 157/148/86 169/147/86 168/145/86
f 157/148/87 146/128/87 158/125/87 169/147/87
f 133/147/88 132/145/88 131/143/88 130/141/88 129/139/88 128/137/88 127/135/88 126/133/88 125/131/88 124/129/88 123/126/88 122/125/88
f 158/125/89 159/126/89 160/129/89 161/131/89 162/133/89 163/135/89 164/137/89 165/139/89 166/141/89 167/143/89 168/145/89 169/147/89
o Bead_Top
v -0.075056 1.940303 0.075056
v -0.075056 2.090415 0.075056
v -0.075056 1.940303 -0.075056
v -0.075056 2.090415 -0.075056
v 0.075056 1.940303 0.075056
v 0.075056 2.090415 0.075056
v 0.075056 1.940303 -0.075056
v 0.075056 2.090415 -0.075056
v -0.089472 1.925887 -0.029824
v -0.089472 1.925887 0.029824
v -0.089472 1.985535 0.089472
v -0.089472 2.045183 0.089472
v -0.089472 2.104831 0.029824
v -0.089472 2.104831 -0.029824
v -0.089472 2.045183 -0.089472
v -0.089472 1.985535 -0.089472
v 0.029824 1.925887 -0.089472
v -0.029824 1.925887 -0.089472
v -0.029824 2.104831 -0.089472
v 0.029824 2.104831 -0.089472
v 0.089472 2.045183 -0.089472
v 0.089472 1.985535 -0.089472
v 0.089472 1.925887 0.029824
v 0.089472 1.925887 -0.029824
v 0.089472 2.104831 -0.029824
v 0.089472 2.104831 0.029824
v 0.089472 2.045183 0.089472
v 0.089472 1.985535 0.089472
v -0.029824 1.925887 0.089472
v 0.029824 1.925887 0.089472
v 0.029824 2.104831 0.089472
v -0.029824 2.104831 0.089472
v 0.039196 2.132948 -0.039196
v 0.039196 2.132948 0.039196
v -0.039196 2.132948 -0.039196
v -0.039196 2.132948 0.039196
v -0.039196 1.897769 -0.039196
v -0.039196 1.897769 0.039196
v 0.039196 1.897769 -0.039196
v 0.039196 1.897769 0.039196
v 0.039196 1.976162 0.117589
v -0.039196 1.976162 0.117589
v 0.039196 2.054555 0.117589
v -0.039196 2.054555 0.117589
v 0.117589 1.976162 -0.039196
v 0.117589 1.976162 0.039196
v 0.117589 2.054555 -0.039196
v 0.117589 2.054555 0.039196
v -0.039196 1.976162 -0.117589
v 0.039196 1.976162 -0.117589
v -0.039196 2.054555 -0.117589
v 0.039196 2.054555 -0.117589
v -0.117589 1.976162 0.039196
v -0.117589 1.976162 -0.039196
v -0.117589 2.054555 0.039196
v -0.117589 2.054555 -0.039196
vn -0.7662 0.4544 -0.4544
vn 0.4544 0.4544 -0.7662
vn 0.7662 0.4544 0.4544
vn -0.4544 0.4544 0.7662
vn 0.4544 -0.7662 0.4544
vn -0.4544 0.7662 0.4544
vn 0.4544 0.7662 0.4544
vn -0.0000 0.8728 0.4881
vn 0.4544 0.7662 -0.4544
vn 0.4881 0.8728 -0.0000
vn -0.0000 0.8728 -0.4881
vn -0.0000 1.0000 -0.0000
vn -0.4544 0.7662 -0.4544
vn -0.4881 0.8728 -0.0000
vn -0.4544 -0.7662 0.4544
vn -0.0000 -0.8728 0.4881
vn -0.4544 -0.7662 -0.4544
vn -0.4881 -0.8728 -0.0000
vn -0.0000 -0.8728 -0.4881
vn -0.0000 -1.0000 -0.0000
vn 0.4544 -0.7662 -0.4544
vn 0.4881 -0.8728 -0.0000
vn -0.4544 -0.4544 0.7662
vn -0.4881 -0.0000 0.8728
vn 0.4544 -0.4544 0.7662
vn -0.0000 -0.4881 0.8728
vn 0.4881 -0.0000 0.8728
vn -0.0000 -0.0000 1.0000
vn 0.4544 0.4544 0.7662
vn -0.0000 0.4881 0.8728
vn 0.7662 -0.4544 0.4544
vn 0.8728 -0.0000 0.4881
vn 0.7662 -0.4544 -0.4544
vn 0.8728 -0.4881 -0.0000
vn 0.8728 -0.0000 -0.4881
vn 1.0000 -0.0000 -0.0000
vn 0.7662 0.4544 -0.4544
vn 0.8728 0.4881 -0.0000
vn 0.4544 -0.4544 -0.7662
vn 0.4881 -0.0000 -0.8728
vn -0.4544 -0.4544 -0.7662
vn -0.0000 -0.4881 -0.8728
vn -0.4881 -0.0000 -0.8728
vn -0.0000 -0.0000 -1.0000
vn -0.4544 0.4544 -0.7662
vn -0.0000 0.4881 -0.8728
vn -0.7662 -0.4544 -0.4544
vn -0.8728 -0.0000 -0.4881
vn -0.7662 -0.4544 0.4544
vn -0.8728 -0.4881 -0.0000
vn -0.8728 -0.0000 0.4881
vn -1.0000 -0.0000 -0.0000
vn -0.7662 0.4544 0.4544
vn -0.8728 0.4881 -0.0000
vt 0.541667 0.166667
vt 0.625000 0.166667
vt 0.625000 0.250000
vt 0.541667 0.250000
vt 0.541667 0.416667
vt 0.625000 0.416667
vt 0.625000 0.500000
vt 0.541667 0.500000
vt 0.541667 0.666667
vt 0.625000 0.666667
vt 0.625000 0.750000
vt 0.541667 0.750000
vt 0.541667 0.916667
vt 0.625000 0.916667
vt 0.625000 1.000000
vt 0.541667 1.000000
vt 0.291667 0.666667
vt 0.375000 0.666667
vt 0.375000 0.750000
vt 0.291667 0.750000
vt 0.791667 0.666667
vt 0.875000 0.666667
vt 0.875000 0.750000
vt 0.791667 0.750000
vt 0.708333 0.666667
vt 0.708333 0.750000
vt 0.708333 0.500000
vt 0.708333 0.583333
vt 0.625000 0.583333
vt 0.791667 0.500000
vt 0.791667 0.583333
vt 0.875000 0.500000
vt 0.875000 0.583333
vt 0.125000 0.666667
vt 0.208333 0.666667
vt 0.208333 0.750000
vt 0.125000 0.750000
vt 0.125000 0.500000
vt 0.208333 0.500000
vt 0.208333 0.583333
vt 0.125000 0.583333
vt 0.291667 0.500000
vt 0.291667 0.583333
vt 0.375000 0.500000
vt 0.375000 0.583333
vt 0.375000 0.916667
vt 0.458333 0.916667
vt 0.458333 1.000000
vt 0.375000 1.000000
vt 0.458333 0.750000
vt 0.458333 0.833333
vt 0.375000 0.833333
vt 0.541667 0.833333
vt 0.625000 0.833333
vt 0.458333 0.666667
vt 0.458333 0.500000
vt 0.458333 0.583333
vt 0.541667 0.583333
vt 0.375000 0.416667
vt 0.458333 0.416667
vt 0.375000 0.250000
vt 0.458333 0.250000
vt 0.458333 0.333333
vt 0.375000 0.333333
vt 0.541667 0.333333
vt 0.625000 0.333333
vt 0.375000 0.166667
vt 0.458333 0.166667
vt 0.375000 0.000000
vt 0.458333 0.000000
vt 0.458333 0.083333
vt 0.375000 0.083333
vt 0.541667 0.000000
vt 0.541667 0.083333
vt 0.625000 0.000000
vt 0.625000 0.083333
s 0
usemtl BeadWhite
f 225/165/90 183/166/90 173/167/90 184/168/90
f 221/169/91 189/170/91 177/171/91 190/172/91
f 217/173/92 195/174/92 175/175/92 196/176/92
f 213/177/93 201/178/93 171/179/93 181/180/93
f 209/181/94 192/182/94 174/183/94 199/184/94
f 205/185/95 182/186/95 171/187/95 201/188/95
f 195/174/96 203/189/96 200/190/96 175/175/96
f 203/189/97 205/185/97 201/188/97 200/190/97
f 177/171/98 189/191/98 202/192/98 194/193/98
f 194/193/99 202/192/99 203/189/99 195/174/99
f 189/191/100 188/194/100 204/195/100 202/192/100
f 202/192/101 204/195/101 205/185/101 203/189/101
f 188/194/102 173/196/102 183/197/102 204/195/102
f 204/195/103 183/197/103 182/186/103 205/185/103
f 179/198/104 207/199/104 198/200/104 170/201/104
f 207/199/105 209/181/105 199/184/105 198/200/105
f 172/202/106 187/203/106 206/204/106 178/205/106
f 178/205/107 206/204/107 207/199/107 179/198/107
f 187/203/108 186/206/108 208/207/108 206/204/108
f 206/204/109 208/207/109 209/181/109 207/199/109
f 186/206/110 176/208/110 193/209/110 208/207/110
f 208/207/111 193/209/111 192/182/111 209/181/111
f 198/210/112 211/211/112 180/212/112 170/213/112
f 211/211/113 213/177/113 181/180/113 180/212/113
f 174/183/114 197/214/114 210/215/114 199/216/114
f 199/216/115 210/215/115 211/211/115 198/210/115
f 197/214/116 196/176/116 212/217/116 210/215/116
f 210/215/117 212/217/117 213/177/117 211/211/117
f 196/176/118 175/175/118 200/218/118 212/217/118
f 212/217/119 200/218/119 201/178/119 213/177/119
f 192/182/120 215/219/120 197/214/120 174/183/120
f 215/219/121 217/173/121 196/176/121 197/214/121
f 176/208/122 191/220/122 214/221/122 193/209/122
f 193/209/123 214/221/123 215/219/123 192/182/123
f 191/220/124 190/172/124 216/222/124 214/221/124
f 214/221/125 216/222/125 217/173/125 215/219/125
f 190/172/126 177/171/126 194/193/126 216/222/126
f 216/222/127 194/193/127 195/174/127 217/173/127
f 186/223/128 219/224/128 191/220/128 176/208/128
f 219/224/129 221/169/129 190/172/129 191/220/129
f 172/225/130 185/226/130 218/227/130 187/228/130
f 187/228/131 218/227/131 219/224/131 186/223/131
f 185/226/132 184/168/132 220/229/132 218/227/132
f 218/227/133 220/229/133 221/169/133 219/224/133
f 184/168/134 173/167/134 188/230/134 220/229/134
f 220/229/135 188/230/135 189/170/135 221/169/135
f 178/231/136 223/232/136 185/226/136 172/225/136
f 223/232/137 225/165/137 184/168/137 185/226/137
f 170/233/138 180/234/138 222/235/138 179/236/138
f 179/236/139 222/235/139 223/232/139 178/231/139
f 180/234/140 181/237/140 224/238/140 222/235/140
f 222/235/141 224/238/141 225/165/141 223/232/141
f 181/237/142 171/239/142 182/240/142 224/238/142
f 224/238/143 182/240/143 183/166/143 225/165/143
o Bead_Bot
v -0.075056 0.974944 0.075056
v -0.075056 1.125055 0.075056
v -0.075056 0.974944 -0.075056
v -0.075056 1.125055 -0.075056
v 0.075056 0.974944 0.075056
v 0.075056 1.125055 0.075056
v 0.075056 0.974944 -0.075056
v 0.075056 1.125055 -0.075056
v -0.089472 0.960528 -0.029824
v -0.089472 0.960528 0.029824
v -0.089472 1.020176 0.089472
v -0.089472 1.079824 0.089472
v -0.089472 1.139472 0.029824
v -0.089472 1.139472 -0.029824
v -0.089472 1.079824 -0.089472
v -0.089472 1.020176 -0.089472
v 0.029824 0.960528 -0.089472
v -0.029824 0.960528 -0.089472
v -0.029824 1.139472 -0.089472
v 0.029824 1.139472 -0.089472
v 0.089472 1.079824 -0.089472
v 0.089472 1.020176 -0.089472
v 0.089472 0.960528 0.029824
v 0.089472 0.960528 -0.029824
v 0.089472 1.139472 -0.029824
v 0.089472 1.139472 0.029824
v 0.089472 1.079824 0.089472
v 0.089472 1.020176 0.089472
v -0.029824 0.960528 0.089472
v 0.029824 0.960528 0.089472
v 0.029824 1.139472 0.089472
v -0.029824 1.139472 0.089472
v 0.039196 1.167589 -0.039196
v 0.039196 1.167589 0.039196
v -0.039196 1.167589 -0.039196
v -0.039196 1.167589 0.039196
v -0.039196 0.932411 -0.039196
v -0.039196 0.932411 0.039196
v 0.039196 0.932411 -0.039196
v 0.039196 0.932411 0.039196
v 0.039196 1.010803 0.117589
v -0.039196 1.010803 0.117589
v 0.039196 1.089196 0.117589
v -0.039196 1.089196 0.117589
v 0.117589 1.010803 -0.039196
v 0.117589 1.010803 0.039196
v 0.117589 1.089196 -0.039196
v 0.117589 1.089196 0.039196
v -0.039196 1.010803 -0.117589
v 0.039196 1.010803 -0.117589
v -0.039196 1.089196 -0.117589
v 0.039196 1.089196 -0.117589
v -0.117589 1.010803 0.039196
v -0.117589 1.010803 -0.039196
v -0.117589 1.089196 0.039196
v -0.117589 1.089196 -0.039196
vn -0.7662 0.4544 -0.4544
vn 0.4544 0.4544 -0.7662
vn 0.7662 0.4544 0.4544
vn -0.4544 0.4544 0.7662
vn 0.4544 -0.7662 0.4544
vn -0.4544 0.7662 0.4544
vn 0.4544 0.7662 0.4544
vn -0.0000 0.8728 0.4881
vn 0.4544 0.7662 -0.4544
vn 0.4881 0.8728 -0.0000
vn -0.0000 0.8728 -0.4881
vn -0.0000 1.0000 -0.0000
vn -0.4544 0.7662 -0.4544
vn -0.4881 0.8728 -0.0000
vn -0.4544 -0.7662 0.4544
vn -0.0000 -0.8728 0.4881
vn -0.4544 -0.7662 -0.4544
vn -0.4881 -0.8728 -0.0000
vn -0.0000 -0.8728 -0.4881
vn -0.0000 -1.0000 -0.0000
vn 0.4544 -0.7662 -0.4544
vn 0.4881 -0.8728 -0.0000
vn -0.4544 -0.4544 0.7662
vn -0.4881 -0.0000 0.8728
vn 0.4544 -0.4544 0.7662
vn -0.0000 -0.4881 0.8728
vn 0.4881 -0.0000 0.8728
vn -0.0000 -0.0000 1.0000
vn 0.4544 0.4544 0.7662
vn -0.0000 0.4881 0.8728
vn 0.7662 -0.4544 0.4544
vn 0.8728 -0.0000 0.4881
vn 0.7662 -0.4544 -0.4544
vn 0.8728 -0.4881 -0.0000
vn 0.8728 -0.0000 -0.4881
vn 1.0000 -0.0000 -0.0000
vn 0.7662 0.4544 -0.4544
vn 0.8728 0.4881 -0.0000
vn 0.4544 -0.4544 -0.7662
vn 0.4881 -0.0000 -0.8728
vn -0.4544 -0.4544 -0.7662
vn -0.0000 -0.4881 -0.8728
vn -0.4881 -0.0000 -0.8728
vn -0.0000 -0.0000 -1.0000
vn -0.4544 0.4544 -0.7662
vn -0.0000 0.4881 -0.8728
vn -0.7662 -0.4544 -0.4544
vn -0.8728 -0.0000 -0.4881
vn -0.7662 -0.4544 0.4544
vn -0.8728 -0.4881 -0.0000
vn -0.8728 -0.0000 0.4881
vn -1.0000 -0.0000 -0.0000
vn -0.7662 0.4544 0.4544
vn -0.8728 0.4881 -0.0000
vt 0.541667 0.166667
vt 0.625000 0.166667
vt 0.625000 0.250000
vt 0.541667 0.250000
vt 0.541667 0.416667
vt 0.625000 0.416667
vt 0.625000 0.500000
vt 0.541667 0.500000
vt 0.541667 0.666667
vt 0.625000 0.666667
vt 0.625000 0.750000
vt 0.541667 0.750000
vt 0.541667 0.916667
vt 0.625000 0.916667
vt 0.625000 1.000000
vt 0.541667 1.000000
vt 0.291667 0.666667
vt 0.375000 0.666667
vt 0.375000 0.750000
vt 0.291667 0.750000
vt 0.791667 0.666667
vt 0.875000 0.666667
vt 0.875000 0.750000
vt 0.791667 0.750000
vt 0.708333 0.666667
vt 0.708333 0.750000
vt 0.708333 0.500000
vt 0.708333 0.583333
vt 0.625000 0.583333
vt 0.791667 0.500000
vt 0.791667 0.583333
vt 0.875000 0.500000
vt 0.875000 0.583333
vt 0.125000 0.666667
vt 0.208333 0.666667
vt 0.208333 0.750000
vt 0.125000 0.750000
vt 0.125000 0.500000
vt 0.208333 0.500000
vt 0.208333 0.583333
vt 0.125000 0.583333
vt 0.291667 0.500000
vt 0.291667 0.583333
vt 0.375000 0.500000
vt 0.375000 0.583333
vt 0.375000 0.916667
vt 0.458333 0.916667
vt 0.458333 1.000000
vt 0.375000 1.000000
vt 0.458333 0.750000
vt 0.458333 0.833333
vt 0.375000 0.833333
vt 0.541667 0.833333
vt 0.625000 0.833333
vt 0.458333 0.666667
vt 0.458333 0.500000
vt 0.458333 0.583333
vt 0.541667 0.583333
vt 0.375000 0.416667
vt 0.458333 0.416667
vt 0.375000 0.250000
vt 0.458333 0.250000
vt 0.458333 0.333333
vt 0.375000 0.333333
vt 0.541667 0.333333
vt 0.625000 0.333333
vt 0.375000 0.166667
vt 0.458333 0.166667
vt 0.375000 0.000000
vt 0.458333 0.000000
vt 0.458333 0.083333
vt 0.375000 0.083333
vt 0.541667 0.000000
vt 0.541667 0.083333
vt 0.625000 0.000000
vt 0.625000 0.083333
s 0
usemtl BeadWhite
f 281/241/144 239/242/144 229/243/144 240/244/144
f 277/245/145 245/246/145 233/247/145 246/248/145
f 273/249/146 251/250/146 231/251/146 252/252/146
f 269/253/147 257/254/147 227/255/147 237/256/147
f 265/257/148 248/258/148 230/259/148 255/260/148
f 261/261/149 238/262/149 227/263/149 257/264/149
f 251/250/150 259/265/150 256/266/150 231/251/150
f 259/265/151 261/261/151 257/264/151 256/266/151
f 233/247/152 245/267/152 258/268/152 250/269/152
f 250/269/153 258/268/153 259/265/153 251/250/153
f 245/267/154 244/270/154 260/271/154 258/268/154
f 258/268/155 260/271/155 261/261/155 259/265/155
f 244/270/156 229/272/156 239/273/156 260/271/156
f 260/271/157 239/273/157 238/262/157 261/261/157
f 235/274/158 263/275/158 254/276/158 226/277/158
f 263/275/159 265/257/159 255/260/159 254/276/159
f 228/278/160 243/279/160 262/280/160 234/281/160
f 234/281/161 262/280/161 263/275/161 235/274/161
f 243/279/162 242/282/162 264/283/162 262/280/162
f 262/280/163 264/283/163 265/257/163 263/275/163
f 242/282/164 232/284/164 249/285/164 264/283/164
f 264/283/165 249/285/165 248/258/165 265/257/165
f 254/286/166 267/287/166 236/288/166 226/289/166
f 267/287/167 269/253/167 237/256/167 236/288/167
f 230/259/168 253/290/168 266/291/168 255/292/168
f 255/292/169 266/291/169 267/287/169 254/286/169
f 253/290/170 252/252/170 268/293/170 266/291/170
f 266/291/171 268/293/171 269/253/171 267/287/171
f 252/252/172 231/251/172 256/294/172 268/293/172
f 268/293/173 256/294/173 257/254/173 269/253/173
f 248/258/174 271/295/174 253/290/174 230/259/174
f 271/295/175 273/249/175 252/252/175 253/290/175
f 232/284/176 247/296/176 270/297/176 249/285/176
f 249/285/177 270/297/177 271/295/177 248/258/177
f 247/296/178 246/248/178 272/298/178 270/297/178
f 270/297/179 272/298/179 273/249/179 271/295/179
f 246/248/180 233/247/180 250/269/180 272/298/180
f 272/298/181 250/269/181 251/250/181 273/249/181
f 242/299/182 275/300/182 247/296/182 232/284/182
f 275/300/183 277/245/183 246/248/183 247/296/183
f 228/301/184 241/302/184 274/303/184 243/304/184
f 243/304/185 274/303/185 275/300/185 242/299/185
f 241/302/186 240/244/186 276/305/186 274/303/186
f 274/303/187 276/305/187 277/245/187 275/300/187
f 240/244/188 229/243/188 244/306/188 276/305/188
f 276/305/189 244/306/189 245/246/189 277/245/189
f 234/307/190 279/308/190 241/302/190 228/301/190
f 279/308/191 281/241/191 240/244/191 241/302/191
f 226/309/192 236/310/192 278/311/192 235/312/192
f 235/312/193 278/311/193 279/308/193 234/307/193
f 236/310/194 237/313/194 280/314/194 278/311/194
f 278/311/195 280/314/195 281/241/195 279/308/195
f 237/313/196 227/315/196 238/316/196 280/314/196
f 280/314/197 238/316/197 239/242/197 281/241/197
o Bead_E0
v 0.424944 1.509585 0.075056
v 0.424944 1.659696 0.075056
v 0.424944 1.509585 -0.075056
v 0.424944 1.659696 -0.075056
v 0.575056 1.509585 0.075056
v 0.575056 1.659696 0.075056
v 0.575056 1.509585 -0.075056
v 0.575056 1.659696 -0.075056
v 0.410528 1.495169 -0.029824
v 0.410528 1.495169 0.029824
v 0.410528 1.554817 0.089472
v 0.410528 1.614465 0.089472
v 0.410528 1.674113 0.029824
v 0.410528 1.674113 -0.029824
v 0.410528 1.614465 -0.089472
v 0.410528 1.554817 -0.089472
v 0.529824 1.495169 -0.089472
v 0.470176 1.495169 -0.089472
v 0.470176 1.674113 -0.089472
v 0.529824 1.674113 -0.089472
v 0.589472 1.614465 -0.089472
v 0.589472 1.554817 -0.089472
v 0.589472 1.495169 0.029824
v 0.589472 1.495169 -0.029824
v 0.589472 1.674113 -0.029824
v 0.589472 1.674113 0.029824
v 0.589472 1.614465 0.089472
v 0.589472 1.554817 0.089472
v 0.470176 1.495169 0.089472
v 0.529824 1.495169 0.089472
v 0.529824 1.674113 0.089472
v 0.470176 1.674113 0.089472
v 0.539196 1.702230 -0.039196
v 0.539196 1.702230 0.039196
v 0.460804 1.702230 -0.039196
v 0.460804 1.702230 0.039196
v 0.460804 1.467052 -0.039196
v 0.460804 1.467052 0.039196
v 0.539196 1.467052 -0.039196
v 0.539196 1.467052 0.039196
v 0.539196 1.545444 0.117589
v 0.460804 1.545444 0.117589
v 0.539196 1.623837 0.117589
v 0.460804 1.623837 0.117589
v 0.617589 1.545444 -0.039196
v 0.617589 1.545444 0.039196
v 0.617589 1.623837 -0.039196
v 0.617589 1.623837 0.039196
v 0.460804 1.545444 -0.117589
v 0.539196 1.545444 -0.117589
v 0.460804 1.623837 -0.117589
v 0.539196 1.623837 -0.117589
v 0.382411 1.545444 0.039196
v 0.382411 1.545444 -0.039196
v 0.382411 1.623837 0.039196
v 0.382411 1.623837 -0.039196
vn -0.7662 0.4544 -0.4544
vn 0.4544 0.4544 -0.7662
vn 0.7662 0.4544 0.4544
vn -0.4544 0.4544 0.7662
vn 0.4544 -0.7662 0.4544
vn -0.4544 0.7662 0.4544
vn 0.4544 0.7662 0.4544
vn -0.0000 0.8728 0.4881
vn 0.4544 0.7662 -0.4544
vn 0.4881 0.8728 -0.0000
vn -0.0000 0.8728 -0.4881
vn -0.0000 1.0000 -0.0000
vn -0.4544 0.7662 -0.4544
vn -0.4881 0.8728 -0.0000
vn -0.4544 -0.7662 0.4544
vn -0.0000 -0.8728 0.4881
vn -0.4544 -0.7662 -0.4544
vn -0.4881 -0.8728 -0.0000
vn -0.0000 -0.8728 -0.4881
vn -0.0000 -1.0000 -0.0000
vn 0.4544 -0.7662 -0.4544
vn 0.4881 -0.8728 -0.0000
vn -0.4544 -0.4544 0.7662
vn -0.4881 -0.0000 0.8728
vn 0.4544 -0.4544 0.7662
vn -0.0000 -0.4881 0.8728
vn 0.4881 -0.0000 0.8728
vn -0.0000 -0.0000 1.0000
vn 0.4544 0.4544 0.7662
vn -0.0000 0.4881 0.8728
vn 0.7662 -0.4544 0.4544
vn 0.8728 -0.0000 0.4881
vn 0.7662 -0.4544 -0.4544
vn 0.8728 -0.4881 -0.0000
vn 0.8728 -0.0000 -0.4881
vn 1.0000 -0.0000 -0.0000
vn 0.7662 0.4544 -0.4544
vn 0.8728 0.4881 -0.0000
vn 0.4544 -0.4544 -0.7662
vn 0.4881 -0.0000 -0.8728
vn -0.4544 -0.4544 -0.7662
vn -0.0000 -0.4881 -0.8728
vn -0.4881 -0.0000 -0.8728
vn -0.0000 -0.0000 -1.0000
vn -0.4544 0.4544 -0.7662
vn -0.0000 0.4881 -0.8728
vn -0.7662 -0.4544 -0.4544
vn -0.8728 -0.0000 -0.4881
vn -0.7662 -0.4544 0.4544
vn -0.8728 -0.4881 -0.0000
vn -0.8728 -0.0000 0.4881
vn -1.0000 -0.0000 -0.0000
vn -0.7662 0.4544 0.4544
vn -0.8728 0.4881 -0.0000
vt 0.541667 0.166667
vt 0.625000 0.166667
vt 0.625000 0.250000
vt 0.541667 0.250000
vt 0.541667 0.416667
vt 0.625000 0.416667
vt 0.625000 0.500000
vt 0.541667 0.500000
vt 0.541667 0.666667
vt 0.625000 0.666667
vt 0.625000 0.750000
vt 0.541667 0.750000
vt 0.541667 0.916667
vt 0.625000 0.916667
vt 0.625000 1.000000
vt 0.541667 1.000000
vt 0.291667 0.666667
vt 0.375000 0.666667
vt 0.375000 0.750000
vt 0.291667 0.750000
vt 0.791667 0.666667
vt 0.875000 0.666667
vt 0.875000 0.750000
vt 0.791667 0.750000
vt 0.708333 0.666667
vt 0.708333 0.750000
vt 0.708333 0.500000
vt 0.708333 0.583333
vt 0.625000 0.583333
vt 0.791667 0.500000
vt 0.791667 0.583333
vt 0.875000 0.500000
vt 0.875000 0.583333
vt 0.125000 0.666667
vt 0.208333 0.666667
vt 0.208333 0.750000
vt 0.125000 0.750000
vt 0.125000 0.500000
vt 0.208333 0.500000
vt 0.208333 0.583333
vt 0.125000 0.583333
vt 0.291667 0.500000
vt 0.291667 0.583333
vt 0.375000 0.500000
vt 0.375000 0.583333
vt 0.375000 0.916667
vt 0.458333 0.916667
vt 0.458333 1.000000
vt 0.375000 1.000000
vt 0.458333 0.750000
vt 0.458333 0.833333
vt 0.375000 0.833333
vt 0.541667 0.833333
vt 0.625000 0.833333
vt 0.458333 0.666667
vt 0.458333 0.500000
vt 0.458333 0.583333
vt 0.541667 0.583333
vt 0.375000 0.416667
vt 0.458333 0.416667
vt 0.375000 0.250000
vt 0.458333 0.250000
vt 0.458333 0.333333
vt 0.375000 0.333333
vt 0.541667 0.333333
vt 0.625000 0.333333
vt 0.375000 0.166667
vt 0.458333 0.166667
vt 0.375000 0.000000
vt 0.458333 0.000000
vt 0.458333 0.083333
vt 0.375000 0.083333
vt 0.541667 0.000000
vt 0.541667 0.083333
vt 0.625000 0.000000
vt 0.625000 0.083333
s 0
usemtl BeadCyan
f 337/317/198 295/318/198 285/319/198 296/320/198
f 333/321/199 301/322/199 289/323/199 302/324/199
f 329/325/200 307/326/200 287/327/200 308/328/200
f 325/329/201 313/330/201 283/331/201 293/332/201
f 321/333/202 304/334/202 286/335/202 311/336/202
f 317/337/203 294/338/203 283/339/203 313/340/203
f 307/326/204 315/341/204 312/342/204 287/327/204
f 315/341/205 317/337/205 313/340/205 312/342/205
f 289/323/206 301/343/206 314/344/206 306/345/206
f 306/345/207 314/344/207 315/341/207 307/326/207
f 301/343/208 300/346/208 316/347/208 314/344/208
f 314/344/209 316/347/209 317/337/209 315/341/209
f 300/346/210 285/348/210 295/349/210 316/347/210
f 316/347/211 295/349/211 294/338/211 317/337/211
f 291/350/212 319/351/212 310/352/212 282/353/212
f 319/351/213 321/333/213 311/336/213 310/352/213
f 284/354/214 299/355/214 318/356/214 290/357/214
f 290/357/215 318/356/215 319/351/215 291/350/215
f 299/355/216 298/358/216 320/359/216 318/356/216
f 318/356/217 320/359/217 321/333/217 319/351/217
f 298/358/218 288/360/218 305/361/218 320/359/218
f 320/359/219 305/361/219 304/334/219 321/333/219
f 310/362/220 323/363/220 292/364/220 282/365/220
f 323/363/221 325/329/221 293/332/221 292/364/221
f 286/335/222 309/366/222 322/367/222 311/368/222
f 311/368/223 322/367/223 323/363/223 310/362/223
f 309/366/224 308/328/224 324/369/224 322/367/224
f 322/367/225 324/369/225 325/329/225 323/363/225
f 308/328/226 287/327/226 312/370/226 324/369/226
f 324/369/227 312/370/227 313/330/227 325/329/227
f 304/334/228 327/371/228 309/366/228 286/335/228
f 327/371/229 329/325/229 308/328/229 309/366/229
f 288/360/230 303/372/230 326/373/230 305/361/230
f 305/361/231 326/373/231 327/371/231 304/334/231
f 303/372/232 302/324/232 328/374/232 326/373/232
f 326/373/233 328/374/233 329/325/233 327/371/233
f 302/324/234 289/323/234 306/345/234 328/374/234
f 328/374/235 306/345/235 307/326/235 329/325/235
f 298/375/236 331/376/236 303/372/236 288/360/236
f 331/376/237 333/321/237 302/324/237 303/372/237
f 284/377/238 297/378/238 330/379/238 299/380/238
f 299/380/239 330/379/239 331/376/239 298/375/239
f 297/378/240 296/320/240 332/381/240 330/379/240
f 330/379/241 332/381/241 333/321/241 331/376/241
f 296/320/242 285/319/242 300/382/242 332/381/242
f 332/381/243 300/382/243 301/322/243 333/321/243
f 290/383/244 335/384/244 297/378/244 284/377/244
f 335/384/245 337/317/245 296/320/245 297/378/245
f 282/385/246 292/386/246 334/387/246 291/388/246
f 291/388/247 334/387/247 335/384/247 290/383/247
f 292/386/248 293/389/248 336/390/248 334/387/248
f 334/387/249 336/390/249 337/317/249 335/384/249
f 293/389/250 283/391/250 294/392/250 336/390/250
f 336/390/251 294/392/251 295/318/251 337/317/251
o Bead_E1
v -0.075056 1.509585 -0.424944
v -0.075056 1.659696 -0.424944
v -0.075056 1.509585 -0.575056
v -0.075056 1.659696 -0.575056
v 0.075056 1.509585 -0.424944
v 0.075056 1.659696 -0.424944
v 0.075056 1.509585 -0.575056
v 0.075056 1.659696 -0.575056
v -0.089472 1.495169 -0.529824
v -0.089472 1.495169 -0.470176
v -0.089472 1.554817 -0.410528
v -0.089472 1.614465 -0.410528
v -0.089472 1.674113 -0.470176
v -0.089472 1.674113 -0.529824
v -0.089472 1.614465 -0.589472
v -0.089472 1.554817 -0.589472
v 0.029824 1.495169 -0.589472
v -0.029824 1.495169 -0.589472
v -0.029824 1.674113 -0.589472
v 0.029824 1.674113 -0.589472
v 0.089472 1.614465 -0.589472
v 0.089472 1.554817 -0.589472
v 0.089472 1.495169 -0.470176
v 0.089472 1.495169 -0.529824
v 0.089472 1.674113 -0.529824
v 0.089472 1.674113 -0.470176
v 0.089472 1.614465 -0.410528
v 0.089472 1.554817 -0.410528
v -0.029824 1.495169 -0.410528
v 0.029824 1.495169 -0.410528
v 0.029824 1.674113 -0.410528
v -0.029824 1.674113 -0.410528
v 0.039196 1.702230 -0.539196
v 0.039196 1.702230 -0.460804
v -0.039196 1.702230 -0.539196
v -0.039196 1.702230 -0.460804
v -0.039196 1.467052 -0.539196
v -0.039196 1.467052 -0.460804
v 0.039196 1.467052 -0.539196
v 0.039196 1.467052 -0.460804
v 0.039196 1.545444 -0.382411
v -0.039196 1.545444 -0.382411
v 0.039196 1.623837 -0.382411
v -0.039196 1.623837 -0.382411
v 0.117589 1.545444 -0.539196
v 0.117589 1.545444 -0.460804
v 0.117589 1.623837 -0.539196
v 0.117589 1.623837 -0.460804
v -0.039196 1.545444 -0.617589
v 0.039196 1.545444 -0.617589
v -0.039196 1.623837 -0.617589
v 0.039196 1.623837 -0.617589
v -0.117589 1.545444 -0.460804
v -0.117589 1.545444 -0.539196
v -0.117589 1.623837 -0.460804
v -0.117589 1.623837 -0.539196
vn -0.7662 0.4544 -0.4544
vn 0.4544 0.4544 -0.7662
vn 0.7662 0.4544 0.4544
vn -0.4544 0.4544 0.7662
vn 0.4544 -0.7662 0.4544
vn -0.4544 0.7662 0.4544
vn 0.4544 0.7662 0.4544
vn -0.0000 0.8728 0.4881
vn 0.4544 0.7662 -0.4544
vn 0.4881 0.8728 -0.0000
vn -0.0000 0.8728 -0.4881
vn -0.0000 1.0000 -0.0000
vn -0.4544 0.7662 -0.4544
vn -0.4881 0.8728 -0.0000
vn -0.4544 -0.7662 0.4544
vn -0.0000 -0.8728 0.4881
vn -0.4544 -0.7662 -0.4544
vn -0.4881 -0.8728 -0.0000
vn -0.0000 -0.8728 -0.4881
vn -0.0000 -1.0000 -0.0000
vn 0.4544 -0.7662 -0.4544
vn 0.4881 -0.8728 -0.0000
vn -0.4544 -0.4544 0.7662
vn -0.4881 -0.0000 0.8728
vn 0.4544 -0.4544 0.7662
vn -0.0000 -0.4881 0.8728
vn 0.4881 -0.0000 0.8728
vn -0.0000 -0.0000 1.0000
vn 0.4544 0.4544 0.7662
vn -0.0000 0.4881 0.8728
vn 0.7662 -0.4544 0.4544
vn 0.8728 -0.0000 0.4881
vn 0.7662 -0.4544 -0.4544
vn 0.8728 -0.4881 -0.0000
vn 0.8728 -0.0000 -0.4881
vn 1.0000 -0.0000 -0.0000
vn 0.7662 0.4544 -0.4544
vn 0.8728 0.4881 -0.0000
vn 0.4544 -0.4544 -0.7662
vn 0.4881 -0.0000 -0.8728
vn -0.4544 -0.4544 -0.7662
vn -0.0000 -0.4881 -0.8728
vn -0.4881 -0.0000 -0.8728
vn -0.0000 -0.0000 -1.0000
vn -0.4544 0.4544 -0.7662
vn -0.0000 0.4881 -0.8728
vn -0.7662 -0.4544 -0.4544
vn -0.8728 -0.0000 -0.4881
vn -0.7662 -0.4544 0.4544
vn -0.8728 -0.4881 -0.0000
vn -0.8728 -0.0000 0.4881
vn -1.0000 -0.0000 -0.0000
vn -0.7662 0.4544 0.4544
vn -0.8728 0.4881 -0.0000
vt 0.541667 0.166667
vt 0.625000 0.166667
vt 0.625000 0.250000
vt 0.541667 0.250000
vt 0.541667 0.416667
vt 0.625000 0.416667
vt 0.625000 0.500000
vt 0.541667 0.500000
vt 0.541667 0.666667
vt 0.625000 0.666667
vt 0.625000 0.750000
vt 0.541667 0.750000
vt 0.541667 0.916667
vt 0.625000 0.916667
vt 0.625000 1.000000
vt 0.541667 1.000000
vt 0.291667 0.666667
vt 0.375000 0.666667
vt 0.375000 0.750000
vt 0.291667 0.750000
vt 0.791667 0.666667
vt 0.875000 0.666667
vt 0.875000 0.750000
vt 0.791667 0.750000
vt 0.708333 0.666667
vt 0.708333 0.750000
vt 0.708333 0.500000
vt 0.708333 0.583333
vt 0.625000 0.583333
vt 0.791667 0.500000
vt 0.791667 0.583333
vt 0.875000 0.500000
vt 0.875000 0.583333
vt 0.125000 0.666667
vt 0.208333 0.666667
vt 0.208333 0.750000
vt 0.125000 0.750000
vt 0.125000 0.500000
vt 0.208333 0.500000
vt 0.208333 0.583333
vt 0.125000 0.583333
vt 0.291667 0.500000
vt 0.291667 0.583333
vt 0.375000 0.500000
vt 0.375000 0.583333
vt 0.375000 0.916667
vt 0.458333 0.916667
vt 0.458333 1.000000
vt 0.375000 1.000000
vt 0.458333 0.750000
vt 0.458333 0.833333
vt 0.375000 0.833333
vt 0.541667 0.833333
vt 0.625000 0.833333
vt 0.458333 0.666667
vt 0.458333 0.500000
vt 0.458333 0.583333
vt 0.541667 0.583333
vt 0.375000 0.416667
vt 0.458333 0.416667
vt 0.375000 0.250000
vt 0.458333 0.250000
vt 0.458333 0.333333
vt 0.375000 0.333333
vt 0.541667 0.333333
vt 0.625000 0.333333
vt 0.375000 0.166667
vt 0.458333 0.166667
vt 0.375000 0.000000
vt 0.458333 0.000000
vt 0.458333 0.083333
vt 0.375000 0.083333
vt 0.541667 0.000000
vt 0.541667 0.083333
vt 0.625000 0.000000
vt 0.625000 0.083333
s 0
usemtl BeadMagenta
f 393/393/252 351/394/252 341/395/252 352/396/252
f 389/397/253 357/398/253 345/399/253 358/400/253
f 385/401/254 363/402/254 343/403/254 364/404/254
f 381/405/255 369/406/255 339/407/255 349/408/255
f 377/409/256 360/410/256 342/411/256 367/412/256
f 373/413/257 350/414/257 339/415/257 369/416/257
f 363/402/258 371/417/258 368/418/258 343/403/258
f 371/417/259 373/413/259 369/416/259 368/418/259
f 345/399/260 357/419/260 370/420/260 362/421/260
f 362/421/261 370/420/261 371/417/261 363/402/261
f 357/419/262 356/422/262 372/423/262 370/420/262
f 370/420/263 372/423/263 373/413/263 371/417/263
f 356/422/264 341/424/264 351/425/264 372/423/264
f 372/423/265 351/425/265 350/414/265 373/413/265
f 347/426/266 375/427/266 366/428/266 338/429/266
f 375/427/267 377/409/267 367/412/267 366/428/267
f 340/430/268 355/431/268 374/432/268 346/433/268
f 346/433/269 374/432/269 375/427/269 347/426/269
f 355/431/270 354/434/270 376/435/270 374/432/270
f 374/432/271 376/435/271 377/409/271 375/427/271
f 354/434/272 344/436/272 361/437/272 376/435/272
f 376/435/273 361/437/273 360/410/273 377/409/273
f 366/438/274 379/439/274 348/440/274 338/441/274
f 379/439/275 381/405/275 349/408/275 348/440/275
f 342/411/276 365/442/276 378/443/276 367/444/276
f 367/444/277 378/443/277 379/439/277 366/438/277
f 365/442/278 364/404/278 380/445/278 378/443/278
f 378/443/279 380/445/279 381/405/279 379/439/279
f 364/404/280 343/403/280 368/446/280 380/445/280
f 380/445/281 368/446/281 369/406/281 381/405/281
f 360/410/282 383/447/282 365/442/282 342/411/282
f 383/447/283 385/401/283 364/404/283 365/442/283
f 344/436/284 359/448/284 382/449/284 361/437/284
f 361/437/285 382/449/285 383/447/285 360/410/285
f 359/448/286 358/400/286 384/450/286 382/449/286
f 382/449/287 384/450/287 385/401/287 383/447/287
f 358/400/288 345/399/288 362/421/288 384/450/288
f 384/450/289 362/421/289 363/402/289 385/401/289
f 354/451/290 387/452/290 359/448/290 344/436/290
f 387/452/291 389/397/291 358/400/291 359/448/291
f 340/453/292 353/454/292 386/455/292 355/456/292
f 355/456/293 386/455/293 387/452/293 354/451/293
f 353/454/294 352/396/294 388/457/294 386/455/294
f 386/455/295 388/457/295 389/397/295 387/452/295
f 352/396/296 341/395/296 356/458/296 388/457/296
f 388/457/297 356/458/297 357/398/297 389/397/297
f 346/459/298 391/460/298 353/454/298 340/453/298
f 391/460/299 393/393/299 352/396/299 353/454/299
f 338/461/300 348/462/300 390/463/300 347/464/300
f 347/464/301 390/463/301 391/460/301 346/459/301
f 348/462/302 349/465/302 392/466/302 390/463/302
f 390/463/303 392/466/303 393/393/303 391/460/303
f 349/465/304 339/467/304 350/468/304 392/466/304
f 392/466/305 350/468/305 351/394/305 393/393/305
o Bead_E2
v -0.575056 1.474944 0.075056
v -0.575056 1.625055 0.075056
v -0.575056 1.474944 -0.075056
v -0.575056 1.625055 -0.075056
v -0.424944 1.474944 0.075056
v -0.424944 1.625055 0.075056
v -0.424944 1.474944 -0.075056
v -0.424944 1.625055 -0.075056
v -0.589472 1.460528 -0.029824
v -0.589472 1.460528 0.029824
v -0.589472 1.520176 0.089472
v -0.589472 1.579824 0.089472
v -0.589472 1.639472 0.029824
v -0.589472 1.639472 -0.029824
v -0.589472 1.579824 -0.089472
v -0.589472 1.520176 -0.089472
v -0.470176 1.460528 -0.089472
v -0.529824 1.460528 -0.089472
v -0.529824 1.639472 -0.089472
v -0.470176 1.639472 -0.089472
v -0.410528 1.579824 -0.089472
v -0.410528 1.520176 -0.089472
v -0.410528 1.460528 0.029824
v -0.410528 1.460528 -0.029824
v -0.410528 1.639472 -0.029824
v -0.410528 1.639472 0.029824
v -0.410528 1.579824 0.089472
v -0.410528 1.520176 0.089472
v -0.529824 1.460528 0.089472
v -0.470176 1.460528 0.089472
v -0.470176 1.639472 0.089472
v -0.529824 1.639472 0.089472
v -0.460804 1.667589 -0.039196
v -0.460804 1.667589 0.039196
v -0.539196 1.667589 -0.039196
v -0.539196 1.667589 0.039196
v -0.539196 1.432410 -0.039196
v -0.539196 1.432410 0.039196
v -0.460804 1.432410 -0.039196
v -0.460804 1.432410 0.039196
v -0.460804 1.510803 0.117589
v -0.539196 1.510803 0.117589
v -0.460804 1.589196 0.117589
v -0.539196 1.589196 0.117589
v -0.382411 1.510803 -0.039196
v -0.382411 1.510803 0.039196
v -0.382411 1.589196 -0.039196
v -0.382411 1.589196 0.039196
v -0.539196 1.510803 -0.117589
v -0.460804 1.510803 -0.117589
v -0.539196 1.589196 -0.117589
v -0.460804 1.589196 -0.117589
v -0.617589 1.510803 0.039196
v -0.617589 1.510803 -0.039196
v -0.617589 1.589196 0.039196
v -0.617589 1.589196 -0.039196
vn -0.7662 0.4544 -0.4544
vn 0.4544 0.4544 -0.7662
vn 0.7662 0.4544 0.4544
vn -0.4544 0.4544 0.7662
vn 0.4544 -0.7662 0.4544
vn -0.4544 0.7662 0.4544
vn 0.4544 0.7662 0.4544
vn -0.0000 0.8728 0.4881
vn 0.4544 0.7662 -0.4544
vn 0.4881 0.8728 -0.0000
vn -0.0000 0.8728 -0.4881
vn -0.0000 1.0000 -0.0000
vn -0.4544 0.7662 -0.4544
vn -0.4881 0.8728 -0.0000
vn -0.4544 -0.7662 0.4544
vn -0.0000 -0.8728 0.4881
vn -0.4544 -0.7662 -0.4544
vn -0.4881 -0.8728 -0.0000
vn -0.0000 -0.8728 -0.4881
vn -0.0000 -1.0000 -0.0000
vn 0.4544 -0.7662 -0.4544
vn 0.4881 -0.8728 -0.0000
vn -0.4544 -0.4544 0.7662
vn -0.4881 -0.0000 0.8728
vn 0.4544 -0.4544 0.7662
vn -0.0000 -0.4881 0.8728
vn 0.4881 -0.0000 0.8728
vn -0.0000 -0.0000 1.0000
vn 0.4544 0.4544 0.7662
vn -0.0000 0.4881 0.8728
vn 0.7662 -0.4544 0.4544
vn 0.8728 -0.0000 0.4881
vn 0.7662 -0.4544 -0.4544
vn 0.8728 -0.4881 -0.0000
vn 0.8728 -0.0000 -0.4881
vn 1.0000 -0.0000 -0.0000
vn 0.7662 0.4544 -0.4544
vn 0.8728 0.4881 -0.0000
vn 0.4544 -0.4544 -0.7662
vn 0.4881 -0.0000 -0.8728
vn -0.4544 -0.4544 -0.7662
vn -0.0000 -0.4881 -0.8728
vn -0.4881 -0.0000 -0.8728
vn -0.0000 -0.0000 -1.0000
vn -0.4544 0.4544 -0.7662
vn -0.0000 0.4881 -0.8728
vn -0.7662 -0.4544 -0.4544
vn -0.8728 -0.0000 -0.4881
vn -0.7662 -0.4544 0.4544
vn -0.8728 -0.4881 -0.0000
vn -0.8728 -0.0000 0.4881
vn -1.0000 -0.0000 -0.0000
vn -0.7662 0.4544 0.4544
vn -0.8728 0.4881 -0.0000
vt 0.541667 0.166667
vt 0.625000 0.166667
vt 0.625000 0.250000
vt 0.541667 0.250000
vt 0.541667 0.416667
vt 0.625000 0.416667
vt 0.625000 0.500000
vt 0.541667 0.500000
vt 0.541667 0.666667
vt 0.625000 0.666667
vt 0.625000 0.750000
vt 0.541667 0.750000
vt 0.541667 0.916667
vt 0.625000 0.916667
vt 0.625000 1.000000
vt 0.541667 1.000000
vt 0.291667 0.666667
vt 0.375000 0.666667
vt 0.375000 0.750000
vt 0.291667 0.750000
vt 0.791667 0.666667
vt 0.875000 0.666667
vt 0.875000 0.750000
vt 0.791667 0.750000
vt 0.708333 0.666667
vt 0.708333 0.750000
vt 0.708333 0.500000
vt 0.708333 0.583333
vt 0.625000 0.583333
vt 0.791667 0.500000
vt 0.791667 0.583333
vt 0.875000 0.500000
vt 0.875000 0.583333
vt 0.125000 0.666667
vt 0.208333 0.666667
vt 0.208333 0.750000
vt 0.125000 0.750000
vt 0.125000 0.500000
vt 0.208333 0.500000
vt 0.208333 0.583333
vt 0.125000 0.583333
vt 0.291667 0.500000
vt 0.291667 0.583333
vt 0.375000 0.500000
vt 0.375000 0.583333
vt 0.375000 0.916667
vt 0.458333 0.916667
vt 0.458333 1.000000
vt 0.375000 1.000000
vt 0.458333 0.750000
vt 0.458333 0.833333
vt 0.375000 0.833333
vt 0.541667 0.833333
vt 0.625000 0.833333
vt 0.458333 0.666667
vt 0.458333 0.500000
vt 0.458333 0.583333
vt 0.541667 0.583333
vt 0.375000 0.416667
vt 0.458333 0.416667
vt 0.375000 0.250000
vt 0.458333 0.250000
vt 0.458333 0.333333
vt 0.375000 0.333333
vt 0.541667 0.333333
vt 0.625000 0.333333
vt 0.375000 0.166667
vt 0.458333 0.166667
vt 0.375000 0.000000
vt 0.458333 0.000000
vt 0.458333 0.083333
vt 0.375000 0.083333
vt 0.541667 0.000000
vt 0.541667 0.083333
vt 0.625000 0.000000
vt 0.625000 0.083333
s 0
usemtl BeadCyan
f 449/469/306 407/470/306 397/471/306 408/472/306
f 445/473/307 413/474/307 401/475/307 414/476/307
f 441/477/308 419/478/308 399/479/308 420/480/308
f 437/481/309 425/482/309 395/483/309 405/484/309
f 433/485/310 416/486/310 398/487/310 423/488/310
f 429/489/311 406/490/311 395/491/311 425/492/311
f 419/478/312 427/493/312 424/494/312 399/479/312
f 427/493/313 429/489/313 425/492/313 424/494/313
f 401/475/314 413/495/314 426/496/314 418/497/314
f 418/497/315 426/496/315 427/493/315 419/478/315
f 413/495/316 412/498/316 428/499/316 426/496/316
f 426/496/317 428/499/317 429/489/317 427/493/317
f 412/498/318 397/500/318 407/501/318 428/499/318
f 428/499/319 407/501/319 406/490/319 429/489/319
f 403/502/320 431/503/320 422/504/320 394/505/320
f 431/503/321 433/485/321 423/488/321 422/504/321
f 396/506/322 411/507/322 430/508/322 402/509/322
f 402/509/323 430/508/323 431/503/323 403/502/323
f 411/507/324 410/510/324 432/511/324 430/508/324
f 430/508/325 432/511/325 433/485/325 431/503/325
f 410/510/326 400/512/326 417/513/326 432/511/326
f 432/511/327 417/513/327 416/486/327 433/485/327
f 422/514/328 435/515/328 404/516/328 394/517/328
f 435/515/329 437/481/329 405/484/329 404/516/329
f 398/487/330 421/518/330 434/519/330 423/520/330
f 423/520/331 434/519/331 435/515/331 422/514/331
f 421/518/332 420/480/332 436/521/332 434/519/332
f 434/519/333 436/521/333 437/481/333 435/515/333
f 420/480/334 399/479/334 424/522/334 436/521/334
f 436/521/335 424/522/335 425/482/335 437/481/335
f 416/486/336 439/523/336 421/518/336 398/487/336
f 439/523/337 441/477/337 420/480/337 421/518/337
f 400/512/338 415/524/338 438/525/338 417/513/338
f 417/513/339 438/525/339 439/523/339 416/486/339
f 415/524/340 414/476/340 440/526/340 438/525/340
f 438/525/341 440/526/341 441/477/341 439/523/341
f 414/476/342 401/475/342 418/497/342 440/526/342
f 440/526/343 418/497/343 419/478/343 441/477/343
f 410/527/344 443/528/344 415/524/344 400/512/344
f 443/528/345 445/473/345 414/476/345 415/524/345
f 396/529/346 409/530/346 442/531/346 411/532/346
f 411/532/347 442/531/347 443/528/347 410/527/347
f 409/530/348 408/472/348 444/533/348 442/531/348
f 442/531/349 444/533/349 445/473/349 443/528/349
f 408/472/350 397/471/350 412/534/350 444/533/350
f 444/533/351 412/534/351 413/474/351 445/473/351
f 402/535/352 447/536/352 409/530/352 396/529/352
f 447/536/353 449/469/353 408/472/353 409/530/353
f 394/537/354 404/538/354 446/539/354 403/540/354
f 403/540/355 446/539/355 447/536/355 402/535/355
f 404/538/356 405/541/356 448/542/356 446/539/356
f 446/539/357 448/542/357 449/469/357 447/536/357
f 405/541/358 395/543/358 406/544/358 448/542/358
f 448/542/359 406/544/359 407/470/359 449/469/359
o Bead_E3
v -0.075056 1.440303 0.575056
v -0.075056 1.590414 0.575056
v -0.075056 1.440303 0.424944
v -0.075056 1.590414 0.424944
v 0.075056 1.440303 0.575056
v 0.075056 1.590414 0.575056
v 0.075056 1.440303 0.424944
v 0.075056 1.590414 0.424944
v -0.089472 1.425887 0.470176
v -0.089472 1.425887 0.529824
v -0.089472 1.485535 0.589472
v -0.089472 1.545183 0.589472
v -0.089472 1.604831 0.529824
v -0.089472 1.604831 0.470176
v -0.089472 1.545183 0.410528
v -0.089472 1.485535 0.410528
v 0.029824 1.425887 0.410528
v -0.029824 1.425887 0.410528
v -0.029824 1.604831 0.410528
v 0.029824 1.604831 0.410528
v 0.089472 1.545183 0.410528
v 0.089472 1.485535 0.410528
v 0.089472 1.425887 0.529824
v 0.089472 1.425887 0.470176
v 0.089472 1.604831 0.470176
v 0.089472 1.604831 0.529824
v 0.089472 1.545183 0.589472
v 0.089472 1.485535 0.589472
v -0.029824 1.425887 0.589472
v 0.029824 1.425887 0.589472
v 0.029824 1.604831 0.589472
v -0.029824 1.604831 0.589472
v 0.039196 1.632948 0.460804
v 0.039196 1.632948 0.539196
v -0.039196 1.632948 0.460804
v -0.039196 1.632948 0.539196
v -0.039196 1.397769 0.460804
v -0.039196 1.397769 0.539196
v 0.039196 1.397769 0.460804
v 0.039196 1.397769 0.539196
v 0.039196 1.476162 0.617589
v -0.039196 1.476162 0.617589
v 0.039196 1.554555 0.617589
v -0.039196 1.554555 0.617589
v 0.117589 1.476162 0.460804
v 0.117589 1.476162 0.539196
v 0.117589 1.554555 0.460804
v 0.117589 1.554555 0.539196
v -0.039196 1.476162 0.382411
v 0.039196 1.476162 0.382411
v -0.039196 1.554555 0.382411
v 0.039196 1.554555 0.382411
v -0.117589 1.476162 0.539196
v -0.117589 1.476162 0.460804
v -0.117589 1.554555 0.539196
v -0.117589 1.554555 0.460804
vn -0.7662 0.4544 -0.4544
vn 0.4544 0.4544 -0.7662
vn 0.7662 0.4544 0.4544
vn -0.4544 0.4544 0.7662
vn 0.4544 -0.7662 0.4544
vn -0.4544 0.7662 0.4544
vn 0.4544 0.7662 0.4544
vn -0.0000 0.8728 0.4881
vn 0.4544 0.7662 -0.4544
vn 0.4881 0.8728 -0.0000
vn -0.0000 0.8728 -0.4881
vn -0.0000 1.0000 -0.0000
vn -0.4544 0.7662 -0.4544
vn -0.4881 0.8728 -0.0000
vn -0.4544 -0.7662 0.4544
vn -0.0000 -0.8728 0.4881
vn -0.4544 -0.7662 -0.4544
vn -0.4881 -0.8728 -0.0000
vn -0.0000 -0.8728 -0.4881
vn -0.0000 -1.0000 -0.0000
vn 0.4544 -0.7662 -0.4544
vn 0.4881 -0.8728 -0.0000
vn -0.4544 -0.4544 0.7662
vn -0.4881 -0.0000 0.8728
vn 0.4544 -0.4544 0.7662
vn -0.0000 -0.4881 0.8728
vn 0.4881 -0.0000 0.8728
vn -0.0000 -0.0000 1.0000
vn 0.4544 0.4544 0.7662
vn -0.0000 0.4881 0.8728
vn 0.7662 -0.4544 0.4544
vn 0.8728 -0.0000 0.4881
vn 0.7662 -0.4544 -0.4544
vn 0.8728 -0.4881 -0.0000
vn 0.8728 -0.0000 -0.4881
vn 1.0000 -0.0000 -0.0000
vn 0.7662 0.4544 -0.4544
vn 0.8728 0.4881 -0.0000
vn 0.4544 -0.4544 -0.7662
vn 0.4881 -0.0000 -0.8728
vn -0.4544 -0.4544 -0.7662
vn -0.0000 -0.4881 -0.8728
vn -0.4881 -0.0000 -0.8728
vn -0.0000 -0.0000 -1.0000
vn -0.4544 0.4544 -0.7662
vn -0.0000 0.4881 -0.8728
vn -0.7662 -0.4544 -0.4544
vn -0.8728 -0.0000 -0.4881
vn -0.7662 -0.4544 0.4544
vn -0.8728 -0.4881 -0.0000
vn -0.8728 -0.0000 0.4881
vn -1.0000 -0.0000 -0.0000
vn -0.7662 0.4544 0.4544
vn -0.8728 0.4881 -0.0000
vt 0.541667 0.166667
vt 0.625000 0.166667
vt 0.625000 0.250000
vt 0.541667 0.250000
vt 0.541667 0.416667
vt 0.625000 0.416667
vt 0.625000 0.500000
vt 0.541667 0.500000
vt 0.541667 0.666667
vt 0.625000 0.666667
vt 0.625000 0.750000
vt 0.541667 0.750000
vt 0.541667 0.916667
vt 0.625000 0.916667
vt 0.625000 1.000000
vt 0.541667 1.000000
vt 0.291667 0.666667
vt 0.375000 0.666667
vt 0.375000 0.750000
vt 0.291667 0.750000
vt 0.791667 0.666667
vt 0.875000 0.666667
vt 0.875000 0.750000
vt 0.791667 0.750000
vt 0.708333 0.666667
vt 0.708333 0.750000
vt 0.708333 0.500000
vt 0.708333 0.583333
vt 0.625000 0.583333
vt 0.791667 0.500000
vt 0.791667 0.583333
vt 0.875000 0.500000
vt 0.875000 0.583333
vt 0.125000 0.666667
vt 0.208333 0.666667
vt 0.208333 0.750000
vt 0.125000 0.750000
vt 0.125000 0.500000
vt 0.208333 0.500000
vt 0.208333 0.583333
vt 0.125000 0.583333
vt 0.291667 0.500000
vt 0.291667 0.583333
vt 0.375000 0.500000
vt 0.375000 0.583333
vt 0.375000 0.916667
vt 0.458333 0.916667
vt 0.458333 1.000000
vt 0.375000 1.000000
vt 0.458333 0.750000
vt 0.458333 0.833333
vt 0.375000 0.833333
vt 0.541667 0.833333
vt 0.625000 0.833333
vt 0.458333 0.666667
vt 0.458333 0.500000
vt 0.458333 0.583333
vt 0.541667 0.583333
vt 0.375000 0.416667
vt 0.458333 0.416667
vt 0.375000 0.250000
vt 0.458333 0.250000
vt 0.458333 0.333333
vt 0.375000 0.333333
vt 0.541667 0.333333
vt 0.625000 0.333333
vt 0.375000 0.166667
vt 0.458333 0.166667
vt 0.375000 0.000000
vt 0.458333 0.000000
vt 0.458333 0.083333
vt 0.375000 0.083333
vt 0.541667 0.000000
vt 0.541667 0.083333
vt 0.625000 0.000000
vt 0.625000 0.083333
s 0
usemtl BeadMagenta
f 505/545/360 463/546/360 453/547/360 464/548/360
f 501/549/361 469/550/361 457/551/361 470/552/361
f 497/553/362 475/554/362 455/555/362 476/556/362
f 493/557/363 481/558/363 451/559/363 461/560/363
f 489/561/364 472/562/364 454/563/364 479/564/364
f 485/565/365 462/566/365 451/567/365 481/568/365
f 475/554/366 483/569/366 480/570/366 455/555/366
f 483/569/367 485/565/367 481/568/367 480/570/367
f 457/551/368 469/571/368 482/572/368 474/573/368
f 474/573/369 482/572/369 483/569/369 475/554/369
f 469/571/370 468/574/370 484/575/370 482/572/370
f 482/572/371 484/575/371 485/565/371 483/569/371
f 468/574/372 453/576/372 463/577/372 484/575/372
f 484/575/373 463/577/373 462/566/373 485/565/373
f 459/578/374 487/579/374 478/580/374 450/581/374
f 487/579/375 489/561/375 479/564/375 478/580/375
f 452/582/376 467/583/376 486/584/376 458/585/376
f 458/585/377 486/584/377 487/579/377 459/578/377
f 467/583/378 466/586/378 488/587/378 486/584/378
f 486/584/379 488/587/379 489/561/379 487/579/379
f 466/586/380 456/588/380 473/589/380 488/587/380
f 488/587/381 473/589/381 472/562/381 489/561/381
f 478/590/382 491/591/382 460/592/382 450/593/382
f 491/591/383 493/557/383 461/560/383 460/592/383
f 454/563/384 477/594/384 490/595/384 479/596/384
f 479/596/385 490/595/385 491/591/385 478/590/385
f 477/594/386 476/556/386 492/597/386 490/595/386
f 490/595/387 492/597/387 493/557/387 491/591/387
f 476/556/388 455/555/388 480/598/388 492/597/388
f 492/597/389 480/598/389 481/558/389 493/557/389
f 472/562/390 495/599/390 477/594/390 454/563/390
f 495/599/391 497/553/391 476/556/391 477/594/391
f 456/588/392 471/600/392 494/601/392 473/589/392
f 473/589/393 494/601/393 495/599/393 472/562/393
f 471/600/394 470/552/394 496/602/394 494/601/394
f 494/601/395 496/602/395 497/553/395 495/599/395
f 470/552/396 457/551/396 474/573/396 496/602/396
f 496/602/397 474/573/397 475/554/397 497/553/397
f 466/603/398 499/604/398 471/600/398 456/588/398
f 499/604/399 501/549/399 470/552/399 471/600/399
f 452/605/400 465/606/400 498/607/400 467/608/400
f 467/608/401 498/607/401 499/604/401 466/603/401
f 465/606/402 464/548/402 500/609/402 498/607/402
f 498/607/403 500/609/403 501/549/403 499/604/403
f 464/548/404 453/547/404 468/610/404 500/609/404
f 500/609/405 468/610/405 469/550/405 501/549/405
f 458/611/406 503/612/406 465/606/406 452/605/406
f 503/612/407 505/545/407 464/548/407 465/606/407
f 450/613/408 460/614/408 502/615/408 459/616/408
f 459/616/409 502/615/409 503/612/409 458/611/409
f 460/614/410 461/617/410 504/618/410 502/615/410
f 502/615/411 504/618/411 505/545/411 503/612/411
f 461/617/412 451/619/412 462/620/412 504/618/412
f 504/618/413 462/620/413 463/546/413 505/545/413
o Beam_Top_E0
v 0.006000 2.056000 0.008485
v 0.008196 2.058196 -0.003106
v 0.002196 2.052196 -0.011591
v -0.006000 2.044000 -0.008485
v -0.008196 2.041804 0.003106
v -0.002196 2.047804 0.011591
v 0.506000 1.556000 0.008485
v 0.508196 1.558196 -0.003106
v 0.502196 1.552196 -0.011591
v 0.494000 1.544000 -0.008485
v 0.491804 1.541804 0.003106
v 0.497804 1.547804 0.011591
vn 0.6830 0.6830 0.2588
vn 0.5000 0.5000 -0.7071
vn -0.1830 -0.1830 -0.9659
vn -0.6830 -0.6830 -0.2588
vn -0.5000 -0.5000 0.7071
vn 0.1830 0.1830 0.9659
vn -0.7071 0.7071 -0.0000
vn 0.7071 -0.7071 -0.0000
s 0
usemtl BeamMat
f 506//414 512//414 513//414 507//414
f 507//415 513//415 514//415 508//415
f 508//416 514//416 515//416 509//416
f 509//417 515//417 516//417 510//417
f 510//418 516//418 517//418 511//418
f 511//419 517//419 512//419 506//419
f 511//420 506//420 507//420 508//420 509//420 510//420
f 512//421 517//421 516//421 515//421 514//421 513//421
o Beam_Top_E1
v 0.012000 2.050000 0.000000
v 0.006000 2.057348 -0.007348
v -0.006000 2.057348 -0.007348
v -0.012000 2.050000 -0.000000
v -0.006000 2.042651 0.007348
v 0.006000 2.042651 0.007348
v 0.012000 1.550000 -0.500000
v 0.006000 1.557348 -0.507348
v -0.006000 1.557348 -0.507348
v -0.012000 1.550000 -0.500000
v -0.006000 1.542652 -0.492652
v 0.006000 1.542652 -0.492652
vn 0.8660 0.3536 -0.3536
vn -0.0000 0.7071 -0.7071
vn -0.8660 0.3536 -0.3536
vn -0.8660 -0.3536 0.3536
vn -0.0000 -0.7071 0.7071
vn 0.8660 -0.3536 0.3536
vn -0.0000 0.7071 0.7071
vn -0.0000 -0.7071 -0.7071
s 0
usemtl BeamMat
f 518//422 524//422 525//422 519//422
f 519//423 525//423 526//423 520//423
f 520//424 526//424 527//424 521//424
f 521//425 527//425 528//425 522//425
f 522//426 528//426 529//426 523//426
f 523//427 529//427 524//427 518//427
f 523//428 518//428 519//428 520//428 521//428 522//428
f 524//429 529//429 528//429 527//429 526//429 525//429
o Beam_Top_E2
v 0.006000 2.044000 -0.008485
v -0.002196 2.052196 -0.011591
v -0.008196 2.058196 -0.003106
v -0.006000 2.056000 0.008485
v 0.002196 2.047804 0.011591
v 0.008196 2.041804 0.003106
v -0.494000 1.544000 -0.008485
v -0.502196 1.552196 -0.011591
v -0.508196 1.558196 -0.003106
v -0.506000 1.556000 0.008485
v -0.497804 1.547804 0.011591
v -0.491804 1.541804 0.003106
vn 0.1830 -0.1830 -0.9659
vn -0.5000 0.5000 -0.7071
vn -0.6830 0.6830 0.2588
vn -0.1830 0.1830 0.9659
vn 0.5000 -0.5000 0.7071
vn 0.6830 -0.6830 -0.2588
vn 0.7071 0.7071 -0.0000
vn -0.7071 -0.7071 -0.0000
s 0
usemtl BeamMat
f 530//430 536//430 537//430 531//430
f 531//431 537//431 538//431 532//431
f 532//432 538//432 539//432 533//432
f 533//433 539//433 540//433 534//433
f 534//434 540//434 541//434 535//434
f 535//435 541//435 536//435 530//435
f 535//436 530//436 531//436 532//436 533//436 534//436
f 536//437 541//437 540//437 539//437 538//437 537//437
o Beam_Top_E3
v 0.012000 2.050000 0.000000
v 0.006000 2.042651 -0.007348
v -0.006000 2.042651 -0.007348
v -0.012000 2.050000 -0.000000
v -0.006000 2.057348 0.007348
v 0.006000 2.057348 0.007348
v 0.012000 1.550000 0.500000
v 0.006000 1.542651 0.492652
v -0.006000 1.542651 0.492652
v -0.012000 1.550000 0.500000
v -0.006000 1.557348 0.507349
v 0.006000 1.557348 0.507349
vn 0.8660 -0.3536 -0.3536
vn -0.0000 -0.7071 -0.7071
vn -0.8660 -0.3536 -0.3536
vn -0.8660 0.3536 0.3536
vn -0.0000 0.7071 0.7071
vn 0.8660 0.3536 0.3536
vn -0.0000 0.7071 -0.7071
vn -0.0000 -0.7071 0.7071
s 0
usemtl BeamMat
f 542//438 548//438 549//438 543//438
f 543//439 549//439 550//439 544//439
f 544//440 550//440 551//440 545//440
f 545//441 551//441 552//441 546//441
f 546//442 552//442 553//442 547//442
f 547//443 553//443 548//443 542//443
f 547//444 542//444 543//444 544//444 545//444 546//444
f 548//445 553//445 552//445 551//445 550//445 549//445
o Beam_Bot_E0
v 0.006000 1.044000 0.008485
v -0.002196 1.052196 0.011591
v -0.008196 1.058196 0.003106
v -0.006000 1.056000 -0.008485
v 0.002196 1.047804 -0.011591
v 0.008196 1.041804 -0.003106
v 0.506000 1.544000 0.008485
v 0.497804 1.552196 0.011591
v 0.491804 1.558196 0.003106
v 0.494000 1.556000 -0.008485
v 0.502196 1.547804 -0.011591
v 0.508196 1.541804 -0.003106
vn 0.1830 -0.1830 0.9659
vn -0.5000 0.5000 0.7071
vn -0.6830 0.6830 -0.2588
vn -0.1830 0.1830 -0.9659
vn 0.5000 -0.5000 -0.7071
vn 0.6830 -0.6830 0.2588
vn -0.7071 -0.7071 -0.0000
vn 0.7071 0.7071 -0.0000
s 0
usemtl BeamMat
f 554//446 560//446 561//446 555//446
f 555//447 561//447 562//447 556//447
f 556//448 562//448 563//448 557//448
f 557//449 563//449 564//449 558//449
f 558//450 564//450 565//450 559//450
f 559//451 565//451 560//451 554//451
f 559//452 554//452 555//452 556//452 557//452 558//452
f 560//453 565//453 564//453 563//453 562//453 561//453
o Beam_Bot_E1
v 0.012000 1.050000 0.000000
v 0.006000 1.057348 0.007348
v -0.006000 1.057348 0.007348
v -0.012000 1.050000 0.000000
v -0.006000 1.042652 -0.007348
v 0.006000 1.042652 -0.007348
v 0.012000 1.550000 -0.500000
v 0.006000 1.557348 -0.492652
v -0.006000 1.557348 -0.492652
v -0.012000 1.550000 -0.500000
v -0.006000 1.542651 -0.507348
v 0.006000 1.542651 -0.507348
vn 0.8660 0.3536 0.3536
vn -0.0000 0.7071 0.7071
vn -0.8660 0.3536 0.3536
vn -0.8660 -0.3536 -0.3536
vn -0.0000 -0.7071 -0.7071
vn 0.8660 -0.3536 -0.3536
vn -0.0000 -0.7071 0.7071
vn -0.0000 0.7071 -0.7071
s 0
usemtl BeamMat
f 566//454 572//454 573//454 567//454
f 567//455 573//455 574//455 568//455
f 568//456 574//456 575//456 569//456
f 569//457 575//457 576//457 570//457
f 570//458 576//458 577//458 571//458
f 571//459 577//459 572//459 566//459
f 571//460 566//460 567//460 568//460 569//460 570//460
f 572//461 577//461 576//461 575//461 574//461 573//461
o Beam_Bot_E2
v 0.006000 1.056000 -0.008485
v 0.008196 1.058196 0.003106
v 0.002196 1.052196 0.011591
v -0.006000 1.044000 0.008485
v -0.008196 1.041804 -0.003106
v -0.002196 1.047804 -0.011591
v -0.494000 1.556000 -0.008485
v -0.491804 1.558196 0.003106
v -0.497804 1.552196 0.011591
v -0.506000 1.544000 0.008485
v -0.508196 1.541804 -0.003106
v -0.502196 1.547804 -0.011591
vn 0.6830 0.6830 -0.2588
vn 0.5000 0.5000 0.7071
vn -0.1830 -0.1830 0.9659
vn -0.6830 -0.6830 0.2588
vn -0.5000 -0.5000 -0.7071
vn 0.1830 0.1830 -0.9659
vn 0.7071 -0.7071 -0.0000
vn -0.7071 0.7071 -0.0000
s 0
usemtl BeamMat
f 578//462 584//462 585//462 579//462
f 579//463 585//463 586//463 580//463
f 580//464 586//464 587//464 581//464
f 581//465 587//465 588//465 582//465
f 582//466 588//466 589//466 583//466
f 583//467 589//467 584//467 578//467
f 583//468 578//468 579//468 580//468 581//468 582//468
f 584//469 589//469 588//469 587//469 586//469 585//469
o Beam_Bot_E3
v 0.012000 1.050000 0.000000
v 0.006000 1.042652 0.007348
v -0.006000 1.042652 0.007348
v -0.012000 1.050000 0.000000
v -0.006000 1.057348 -0.007348
v 0.006000 1.057348 -0.007348
v 0.012000 1.550000 0.500000
v 0.006000 1.542652 0.507349
v -0.006000 1.542652 0.507349
v -0.012000 1.550000 0.500000
v -0.006000 1.557348 0.492652
v 0.006000 1.557348 0.492652
vn 0.8660 -0.3536 0.3536
vn -0.0000 -0.7071 0.7071
vn -0.8660 -0.3536 0.3536
vn -0.8660 0.3536 -0.3536
vn -0.0000 0.7071 -0.7071
vn 0.8660 0.3536 -0.3536
vn -0.0000 -0.7071 -0.7071
vn -0.0000 0.7071 0.7071
s 0
usemtl BeamMat
f 590//470 596//470 597//470 591//470
f 591//471 597//471 598//471 592//471
f 592//472 598//472 599//472 593//472
f 593//473 599//473 600//473 594//473
f 594//474 600//474 601//474 595//474
f 595//475 601//475 596//475 590//475
f 595//476 590//476 591//476 592//476 593//476 594//476
f 596//477 601//477 600//477 599//477 598//477 597//477
o Beam_E0_E1
v 0.508485 1.550000 -0.008485
v 0.504243 1.560392 -0.004243
v 0.495757 1.560392 0.004243
v 0.491515 1.550000 0.008485
v 0.495757 1.539608 0.004243
v 0.504243 1.539608 -0.004243
v 0.008485 1.550000 -0.508485
v 0.004243 1.560392 -0.504243
v -0.004243 1.560392 -0.495757
v -0.008485 1.550000 -0.491515
v -0.004243 1.539608 -0.495757
v 0.004243 1.539608 -0.504243
vn 0.6124 0.5000 -0.6124
vn -0.0000 1.0000 -0.0000
vn -0.6124 0.5000 0.6124
vn -0.6124 -0.5000 0.6124
vn -0.0000 -1.0000 -0.0000
vn 0.6124 -0.5000 -0.6124
vn 0.7071 -0.0000 0.7071
vn -0.7071 -0.0000 -0.7071
s 0
usemtl BeamMat
f 602//478 608//478 609//478 603//478
f 603//479 609//479 610//479 604//479
f 604//480 610//480 611//480 605//480
f 605//481 611//481 612//481 606//481
f 606//482 612//482 613//482 607//482
f 607//483 613//483 608//483 602//483
f 607//484 602//484 603//484 604//484 605//484 606//484
f 608//485 613//485 612//485 611//485 610//485 609//485
o Beam_E1_E2
v -0.008485 1.550000 -0.508485
v -0.004243 1.560392 -0.504243
v 0.004243 1.560392 -0.495757
v 0.008485 1.550000 -0.491515
v 0.004243 1.539608 -0.495757
v -0.004243 1.539608 -0.504243
v -0.508485 1.550000 -0.008485
v -0.504243 1.560392 -0.004243
v -0.495757 1.560392 0.004243
v -0.491515 1.550000 0.008485
v -0.495757 1.539608 0.004243
v -0.504243 1.539608 -0.004243
vn -0.6124 0.5000 -0.6124
vn -0.0000 1.0000 -0.0000
vn 0.6124 0.5000 0.6124
vn 0.6124 -0.5000 0.6124
vn -0.0000 -1.0000 -0.0000
vn -0.6124 -0.5000 -0.6124
vn 0.7071 -0.0000 -0.7071
vn -0.7071 -0.0000 0.7071
s 0
usemtl BeamMat
f 614//486 620//486 621//486 615//486
f 615//487 621//487 622//487 616//487
f 616//488 622//488 623//488 617//488
f 617//489 623//489 624//489 618//489
f 618//490 624//490 625//490 619//490
f 619//491 625//491 620//491 614//491
f 619//492 614//492 615//492 616//492 617//492 618//492
f 620//493 625//493 624//493 623//493 622//493 621//493
o Beam_E2_E3
v -0.508485 1.550000 0.008485
v -0.504243 1.560392 0.004243
v -0.495757 1.560392 -0.004243
v -0.491515 1.550000 -0.008485
v -0.495757 1.539608 -0.004243
v -0.504243 1.539608 0.004243
v -0.008485 1.550000 0.508485
v -0.004243 1.560392 0.504243
v 0.004243 1.560392 0.495757
v 0.008485 1.550000 0.491515
v 0.004243 1.539608 0.495757
v -0.004243 1.539608 0.504243
vn -0.6124 0.5000 0.6124
vn -0.0000 1.0000 -0.0000
vn 0.6124 0.5000 -0.6124
vn 0.6124 -0.5000 -0.6124
vn -0.0000 -1.0000 -0.0000
vn -0.6124 -0.5000 0.6124
vn -0.7071 -0.0000 -0.7071
vn 0.7071 -0.0000 0.7071
s 0
usemtl BeamMat
f 626//494 632//494 633//494 627//494
f 627//495 633//495 634//495 628//495
f 628//496 634//496 635//496 629//496
f 629//497 635//497 636//497 630//497
f 630//498 636//498 637//498 631//498
f 631//499 637//499 632//499 626//499
f 631//500 626//500 627//500 628//500 629//500 630//500
f 632//501 637//501 636//501 635//501 634//501 633//501
o Beam_E3_E0
v 0.008485 1.550000 0.508485
v 0.004243 1.560392 0.504243
v -0.004243 1.560392 0.495757
v -0.008485 1.550000 0.491515
v -0.004243 1.539608 0.495757
v 0.004243 1.539608 0.504243
v 0.508485 1.550000 0.008485
v 0.504243 1.560392 0.004243
v 0.495757 1.560392 -0.004243
v 0.491515 1.550000 -0.008485
v 0.495757 1.539608 -0.004243
v 0.504243 1.539608 0.004243
vn 0.6124 0.5000 0.6124
vn -0.0000 1.0000 -0.0000
vn -0.6124 0.5000 -0.6124
vn -0.6124 -0.5000 -0.6124
vn -0.0000 -1.0000 -0.0000
vn 0.6124 -0.5000 0.6124
vn -0.7071 -0.0000 0.7071
vn 0.7071 -0.0000 -0.7071
s 0
usemtl BeamMat
f 638//502 644//502 645//502 639//502
f 639//503 645//503 646//503 640//503
f 640//504 646//504 647//504 641//504
f 641//505 647//505 648//505 642//505
f 642//506 648//506 649//506 643//506
f 643//507 649//507 644//507 638//507
f 643//508 638//508 639//508 640//508 641//508 642//508
f 644//509 649//509 648//509 647//509 646//509 645//509
