# Blender 5.1.1
# www.blender.org
mtllib futuristic_floating_chair.mtl
o PuckBase
v 0.650000 0.000000 0.000000
v 0.562917 0.000000 -0.325000
v 0.325000 0.000000 -0.562917
v 0.000000 0.000000 -0.650000
v -0.325000 0.000000 -0.562917
v -0.562917 0.000000 -0.325000
v -0.650000 0.000000 -0.000000
v -0.562917 0.000000 0.325000
v -0.325000 0.000000 0.562917
v -0.000000 0.000000 0.650000
v 0.325000 0.000000 0.562917
v 0.562917 0.000000 0.325000
v 0.650000 0.040000 0.000000
v 0.562917 0.040000 -0.325000
v 0.325000 0.040000 -0.562917
v 0.000000 0.040000 -0.650000
v -0.325000 0.040000 -0.562917
v -0.562917 0.040000 -0.325000
v -0.650000 0.040000 -0.000000
v -0.562917 0.040000 0.325000
v -0.325000 0.040000 0.562917
v -0.000000 0.040000 0.650000
v 0.325000 0.040000 0.562917
v 0.562917 0.040000 0.325000
v 0.620000 0.080000 0.000000
v 0.536936 0.080000 -0.310000
v 0.310000 0.080000 -0.536936
v 0.000000 0.080000 -0.620000
v -0.310000 0.080000 -0.536936
v -0.536936 0.080000 -0.310000
v -0.620000 0.080000 -0.000000
v -0.536936 0.080000 0.310000
v -0.310000 0.080000 0.536936
v -0.000000 0.080000 0.620000
v 0.310000 0.080000 0.536936
v 0.536936 0.080000 0.310000
v 0.550000 0.140000 0.000000
v 0.476314 0.140000 -0.275000
v 0.275000 0.140000 -0.476314
v 0.000000 0.140000 -0.550000
v -0.275000 0.140000 -0.476314
v -0.476314 0.140000 -0.275000
v -0.550000 0.140000 -0.000000
v -0.476314 0.140000 0.275000
v -0.275000 0.140000 0.476314
v -0.000000 0.140000 0.550000
v 0.275000 0.140000 0.476314
v 0.476314 0.140000 0.275000
v 0.500000 0.160000 0.000000
v 0.433013 0.160000 -0.250000
v 0.250000 0.160000 -0.433013
v 0.000000 0.160000 -0.500000
v -0.250000 0.160000 -0.433013
v -0.433013 0.160000 -0.250000
v -0.500000 0.160000 -0.000000
v -0.433013 0.160000 0.250000
v -0.250000 0.160000 0.433013
v -0.000000 0.160000 0.500000
v 0.250000 0.160000 0.433013
v 0.433013 0.160000 0.250000
vn 0.9659 -0.0000 -0.2588
vn 0.7071 -0.0000 -0.7071
vn 0.2588 -0.0000 -0.9659
vn -0.2588 -0.0000 -0.9659
vn -0.7071 -0.0000 -0.7071
vn -0.9659 -0.0000 -0.2588
vn -0.9659 -0.0000 0.2588
vn -0.7071 -0.0000 0.7071
vn -0.2588 -0.0000 0.9659
vn 0.2588 -0.0000 0.9659
vn 0.7071 -0.0000 0.7071
vn 0.9659 -0.0000 0.2588
vn 0.7822 0.5867 -0.2096
vn 0.5726 0.5867 -0.5726
vn 0.2096 0.5867 -0.7822
vn -0.2096 0.5867 -0.7822
vn -0.5726 0.5867 -0.5726
vn -0.7822 0.5867 -0.2096
vn -0.7822 0.5867 0.2096
vn -0.5726 0.5867 0.5726
vn -0.2096 0.5867 0.7822
vn 0.2096 0.5867 0.7822
vn 0.5726 0.5867 0.5726
vn 0.7822 0.5867 0.2096
vn 0.6411 0.7480 -0.1718
vn 0.4693 0.7480 -0.4693
vn 0.1718 0.7480 -0.6411
vn -0.1718 0.7480 -0.6411
vn -0.4693 0.7480 -0.4693
vn -0.6411 0.7480 -0.1718
vn -0.6411 0.7480 0.1718
vn -0.4693 0.7480 0.4693
vn -0.1718 0.7480 0.6411
vn 0.1718 0.7480 0.6411
vn 0.4693 0.7480 0.4693
vn 0.6411 0.7480 0.1718
vn 0.3696 0.9239 -0.0990
vn 0.2705 0.9239 -0.2705
vn 0.0990 0.9239 -0.3696
vn -0.0990 0.9239 -0.3696
vn -0.2705 0.9239 -0.2705
vn -0.3696 0.9239 -0.0990
vn -0.3696 0.9239 0.0990
vn -0.2705 0.9239 0.2705
vn -0.0990 0.9239 0.3696
vn 0.0990 0.9239 0.3696
vn 0.2705 0.9239 0.2705
vn 0.3696 0.9239 0.0990
vn -0.0000 -1.0000 -0.0000
vn -0.0000 1.0000 -0.0000
vt 0.500000 0.438462
vt 0.750000 0.438462
vt 0.750000 0.469231
vt 0.500000 0.469231
vt 0.933013 0.438462
vt 0.933013 0.469231
vt 0.250000 0.438462
vt 0.250000 0.469231
vt 0.066987 0.438462
vt 0.066987 0.469231
vt 0.738461 0.500000
vt 0.500000 0.500000
vt 0.933013 0.750000
vt 0.750000 0.933013
vt 0.738461 0.913028
vt 0.913028 0.738461
vt 0.261538 0.500000
vt 0.250000 0.933013
vt 0.066987 0.750000
vt 0.086972 0.738461
vt 0.261538 0.913028
vt 0.066987 0.250000
vt 0.250000 0.066987
vt 0.261538 0.086972
vt 0.086972 0.261538
vt 0.750000 0.066987
vt 0.933013 0.250000
vt 0.913028 0.261538
vt 0.738461 0.086972
vt 0.976923 0.500000
vt 0.866395 0.711538
vt 0.923077 0.500000
vt 0.711538 0.866395
vt 0.500000 0.976923
vt 0.500000 0.923077
vt 0.288462 0.866395
vt 0.133605 0.711538
vt 0.023077 0.500000
vt 0.076923 0.500000
vt 0.133605 0.288462
vt 0.288462 0.133605
vt 0.500000 0.023077
vt 0.500000 0.076923
vt 0.711538 0.133605
vt 0.866395 0.288462
vt 0.833087 0.692308
vt 0.884615 0.500000
vt 0.692308 0.833087
vt 0.500000 0.884615
vt 0.307692 0.833087
vt 0.166913 0.692308
vt 0.115385 0.500000
vt 0.166913 0.307692
vt 0.307692 0.166913
vt 0.500000 0.115385
vt 0.692308 0.166913
vt 0.833087 0.307692
vt 0.500000 0.000000
vt 0.000000 0.500000
vt 0.500000 1.000000
vt 1.000000 0.500000
s 0
usemtl Mat_PuckBase_Baked
f 1/1/1 2/2/1 14/3/1 13/4/1
f 2/5/2 3/2/2 15/3/2 14/6/2
f 3/2/3 4/1/3 16/4/3 15/3/3
f 4/1/4 5/7/4 17/8/4 16/4/4
f 5/7/5 6/9/5 18/10/5 17/8/5
f 6/2/6 7/1/6 19/4/6 18/3/6
f 7/1/7 8/7/7 20/8/7 19/4/7
f 8/9/8 9/7/8 21/8/8 20/10/8
f 9/7/9 10/1/9 22/4/9 21/8/9
f 10/1/10 11/2/10 23/3/10 22/4/10
f 11/2/11 12/5/11 24/6/11 23/3/11
f 12/7/12 1/1/12 13/4/12 24/8/12
f 13/4/13 14/3/13 26/11/13 25/12/13
f 14/13/14 15/14/14 27/15/14 26/16/14
f 15/3/15 16/4/15 28/12/15 27/11/15
f 16/4/16 17/8/16 29/17/16 28/12/16
f 17/18/17 18/19/17 30/20/17 29/21/17
f 18/3/18 19/4/18 31/12/18 30/11/18
f 19/4/19 20/8/19 32/17/19 31/12/19
f 20/22/20 21/23/20 33/24/20 32/25/20
f 21/8/21 22/4/21 34/12/21 33/17/21
f 22/4/22 23/3/22 35/11/22 34/12/22
f 23/26/23 24/27/23 36/28/23 35/29/23
f 24/8/24 13/4/24 25/12/24 36/17/24
f 25/30/25 26/16/25 38/31/25 37/32/25
f 26/16/26 27/15/26 39/33/26 38/31/26
f 27/15/27 28/34/27 40/35/27 39/33/27
f 28/34/28 29/21/28 41/36/28 40/35/28
f 29/21/29 30/20/29 42/37/29 41/36/29
f 30/20/30 31/38/30 43/39/30 42/37/30
f 31/38/31 32/25/31 44/40/31 43/39/31
f 32/25/32 33/24/32 45/41/32 44/40/32
f 33/24/33 34/42/33 46/43/33 45/41/33
f 34/42/34 35/29/34 47/44/34 46/43/34
f 35/29/35 36/28/35 48/45/35 47/44/35
f 36/28/36 25/30/36 37/32/36 48/45/36
f 37/32/37 38/31/37 50/46/37 49/47/37
f 38/31/38 39/33/38 51/48/38 50/46/38
f 39/33/39 40/35/39 52/49/39 51/48/39
f 40/35/40 41/36/40 53/50/40 52/49/40
f 41/36/41 42/37/41 54/51/41 53/50/41
f 42/37/42 43/39/42 55/52/42 54/51/42
f 43/39/43 44/40/43 56/53/43 55/52/43
f 44/40/44 45/41/44 57/54/44 56/53/44
f 45/41/45 46/43/45 58/55/45 57/54/45
f 46/43/46 47/44/46 59/56/46 58/55/46
f 47/44/47 48/45/47 60/57/47 59/56/47
f 48/45/48 37/32/48 49/47/48 60/57/48
f 12/27/49 11/26/49 10/58/49 9/23/49 8/22/49 7/59/49 6/19/49 5/18/49 4/60/49 3/14/49 2/13/49 1/61/49
f 49/47/50 50/46/50 51/48/50 52/49/50 53/50/50 54/51/50 55/52/50 56/53/50 57/54/50 58/55/50 59/56/50 60/57/50
o PuckGlowRim
v 0.660000 0.000000 0.000000
v 0.571577 0.000000 -0.330000
v 0.330000 0.000000 -0.571577
v 0.000000 0.000000 -0.660000
v -0.330000 0.000000 -0.571577
v -0.571577 0.000000 -0.330000
v -0.660000 0.000000 -0.000000
v -0.571577 0.000000 0.330000
v -0.330000 0.000000 0.571577
v -0.000000 0.000000 0.660000
v 0.330000 0.000000 0.571577
v 0.571577 0.000000 0.330000
v 0.680000 0.005000 0.000000
v 0.588897 0.005000 -0.340000
v 0.340000 0.005000 -0.588897
v 0.000000 0.005000 -0.680000
v -0.340000 0.005000 -0.588897
v -0.588897 0.005000 -0.340000
v -0.680000 0.005000 -0.000000
v -0.588897 0.005000 0.340000
v -0.340000 0.005000 0.588897
v -0.000000 0.005000 0.680000
v 0.340000 0.005000 0.588897
v 0.588897 0.005000 0.340000
v 0.680000 0.040000 0.000000
v 0.588897 0.040000 -0.340000
v 0.340000 0.040000 -0.588897
v 0.000000 0.040000 -0.680000
v -0.340000 0.040000 -0.588897
v -0.588897 0.040000 -0.340000
v -0.680000 0.040000 -0.000000
v -0.588897 0.040000 0.340000
v -0.340000 0.040000 0.588897
v -0.000000 0.040000 0.680000
v 0.340000 0.040000 0.588897
v 0.588897 0.040000 0.340000
v 0.660000 0.045000 0.000000
v 0.571577 0.045000 -0.330000
v 0.330000 0.045000 -0.571577
v 0.000000 0.045000 -0.660000
v -0.330000 0.045000 -0.571577
v -0.571577 0.045000 -0.330000
v -0.660000 0.045000 -0.000000
v -0.571577 0.045000 0.330000
v -0.330000 0.045000 0.571577
v -0.000000 0.045000 0.660000
v 0.330000 0.045000 0.571577
v 0.571577 0.045000 0.330000
v 0.660000 0.000000 0.000000
v 0.571577 0.000000 -0.330000
v 0.330000 0.000000 -0.571577
v 0.000000 0.000000 -0.660000
v -0.330000 0.000000 -0.571577
v -0.571577 0.000000 -0.330000
v -0.660000 0.000000 -0.000000
v -0.571577 0.000000 0.330000
v -0.330000 0.000000 0.571577
v -0.000000 0.000000 0.660000
v 0.330000 0.000000 0.571577
v 0.571577 0.000000 0.330000
vn 0.2420 -0.9681 -0.0649
vn 0.1772 -0.9681 -0.1772
vn 0.0649 -0.9681 -0.2420
vn -0.0649 -0.9681 -0.2420
vn -0.1772 -0.9681 -0.1772
vn -0.2420 -0.9681 -0.0649
vn -0.2420 -0.9681 0.0649
vn -0.1772 -0.9681 0.1772
vn -0.0649 -0.9681 0.2420
vn 0.0649 -0.9681 0.2420
vn 0.1772 -0.9681 0.1772
vn 0.2420 -0.9681 0.0649
vn 0.9659 -0.0000 -0.2588
vn 0.7071 -0.0000 -0.7071
vn 0.2588 -0.0000 -0.9659
vn -0.2588 -0.0000 -0.9659
vn -0.7071 -0.0000 -0.7071
vn -0.9659 -0.0000 -0.2588
vn -0.9659 -0.0000 0.2588
vn -0.7071 -0.0000 0.7071
vn -0.2588 -0.0000 0.9659
vn 0.2588 -0.0000 0.9659
vn 0.7071 -0.0000 0.7071
vn 0.9659 -0.0000 0.2588
vn 0.2420 0.9681 -0.0649
vn 0.1772 0.9681 -0.1772
vn 0.0649 0.9681 -0.2420
vn -0.0649 0.9681 -0.2420
vn -0.1772 0.9681 -0.1772
vn -0.2420 0.9681 -0.0649
vn -0.2420 0.9681 0.0649
vn -0.1772 0.9681 0.1772
vn -0.0649 0.9681 0.2420
vn 0.0649 0.9681 0.2420
vn 0.1772 0.9681 0.1772
vn 0.2420 0.9681 0.0649
vn -0.0000 -1.0000 -0.0000
vn -0.0000 1.0000 -0.0000
vt 0.062500 0.812500
s 0
usemtl Mat_Emit
f 61/62/51 62/62/51 74/62/51 73/62/51
f 62/62/52 63/62/52 75/62/52 74/62/52
f 63/62/53 64/62/53 76/62/53 75/62/53
f 64/62/54 65/62/54 77/62/54 76/62/54
f 65/62/55 66/62/55 78/62/55 77/62/55
f 66/62/56 67/62/56 79/62/56 78/62/56
f 67/62/57 68/62/57 80/62/57 79/62/57
f 68/62/58 69/62/58 81/62/58 80/62/58
f 69/62/59 70/62/59 82/62/59 81/62/59
f 70/62/60 71/62/60 83/62/60 82/62/60
f 71/62/61 72/62/61 84/62/61 83/62/61
f 72/62/62 61/62/62 73/62/62 84/62/62
f 73/62/63 74/62/63 86/62/63 85/62/63
f 74/62/64 75/62/64 87/62/64 86/62/64
f 75/62/65 76/62/65 88/62/65 87/62/65
f 76/62/66 77/62/66 89/62/66 88/62/66
f 77/62/67 78/62/67 90/62/67 89/62/67
f 78/62/68 79/62/68 91/62/68 90/62/68
f 79/62/69 80/62/69 92/62/69 91/62/69
f 80/62/70 81/62/70 93/62/70 92/62/70
f 81/62/71 82/62/71 94/62/71 93/62/71
f 82/62/72 83/62/72 95/62/72 94/62/72
f 83/62/73 84/62/73 96/62/73 95/62/73
f 84/62/74 73/62/74 85/62/74 96/62/74
f 85/62/75 86/62/75 98/62/75 97/62/75
f 86/62/76 87/62/76 99/62/76 98/62/76
f 87/62/77 88/62/77 100/62/77 99/62/77
f 88/62/78 89/62/78 101/62/78 100/62/78
f 89/62/79 90/62/79 102/62/79 101/62/79
f 90/62/80 91/62/80 103/62/80 102/62/80
f 91/62/81 92/62/81 104/62/81 103/62/81
f 92/62/82 93/62/82 105/62/82 104/62/82
f 93/62/83 94/62/83 106/62/83 105/62/83
f 94/62/84 95/62/84 107/62/84 106/62/84
f 95/62/85 96/62/85 108/62/85 107/62/85
f 96/62/86 85/62/86 97/62/86 108/62/86
f 97/62/69 98/62/69 110/62/69 109/62/69
f 98/62/70 99/62/70 111/62/70 110/62/70
f 99/62/71 100/62/71 112/62/71 111/62/71
f 100/62/72 101/62/72 113/62/72 112/62/72
f 101/62/73 102/62/73 114/62/73 113/62/73
f 102/62/74 103/62/74 115/62/74 114/62/74
f 103/62/63 104/62/63 116/62/63 115/62/63
f 104/62/64 105/62/64 117/62/64 116/62/64
f 105/62/65 106/62/65 118/62/65 117/62/65
f 106/62/66 107/62/66 119/62/66 118/62/66
f 107/62/67 108/62/67 120/62/67 119/62/67
f 108/62/68 97/62/68 109/62/68 120/62/68
f 72/62/87 71/62/87 70/62/87 69/62/87 68/62/87 67/62/87 66/62/87 65/62/87 64/62/87 63/62/87 62/62/87 61/62/87
f 109/62/88 110/62/88 111/62/88 112/62/88 113/62/88 114/62/88 115/62/88 116/62/88 117/62/88 118/62/88 119/62/88 120/62/88
o PuckTopRing
v 0.450000 0.155000 0.000000
v 0.389711 0.155000 -0.225000
v 0.225000 0.155000 -0.389711
v 0.000000 0.155000 -0.450000
v -0.225000 0.155000 -0.389711
v -0.389711 0.155000 -0.225000
v -0.450000 0.155000 -0.000000
v -0.389711 0.155000 0.225000
v -0.225000 0.155000 0.389711
v -0.000000 0.155000 0.450000
v 0.225000 0.155000 0.389711
v 0.389711 0.155000 0.225000
v 0.500000 0.155000 0.000000
v 0.433013 0.155000 -0.250000
v 0.250000 0.155000 -0.433013
v 0.000000 0.155000 -0.500000
v -0.250000 0.155000 -0.433013
v -0.433013 0.155000 -0.250000
v -0.500000 0.155000 -0.000000
v -0.433013 0.155000 0.250000
v -0.250000 0.155000 0.433013
v -0.000000 0.155000 0.500000
v 0.250000 0.155000 0.433013
v 0.433013 0.155000 0.250000
v 0.500000 0.165000 0.000000
v 0.433013 0.165000 -0.250000
v 0.250000 0.165000 -0.433013
v 0.000000 0.165000 -0.500000
v -0.250000 0.165000 -0.433013
v -0.433013 0.165000 -0.250000
v -0.500000 0.165000 -0.000000
v -0.433013 0.165000 0.250000
v -0.250000 0.165000 0.433013
v -0.000000 0.165000 0.500000
v 0.250000 0.165000 0.433013
v 0.433013 0.165000 0.250000
v 0.450000 0.165000 0.000000
v 0.389711 0.165000 -0.225000
v 0.225000 0.165000 -0.389711
v 0.000000 0.165000 -0.450000
v -0.225000 0.165000 -0.389711
v -0.389711 0.165000 -0.225000
v -0.450000 0.165000 -0.000000
v -0.389711 0.165000 0.225000
v -0.225000 0.165000 0.389711
v -0.000000 0.165000 0.450000
v 0.225000 0.165000 0.389711
v 0.389711 0.165000 0.225000
vn -0.0000 -1.0000 -0.0000
vn 0.9659 -0.0000 -0.2588
vn 0.7071 -0.0000 -0.7071
vn 0.2588 -0.0000 -0.9659
vn -0.2588 -0.0000 -0.9659
vn -0.7071 -0.0000 -0.7071
vn -0.9659 -0.0000 -0.2588
vn -0.9659 -0.0000 0.2588
vn -0.7071 -0.0000 0.7071
vn -0.2588 -0.0000 0.9659
vn 0.2588 -0.0000 0.9659
vn 0.7071 -0.0000 0.7071
vn 0.9659 -0.0000 0.2588
vn -0.0000 1.0000 -0.0000
vt 0.950000 0.500000
vt 0.889711 0.725000
vt 0.933013 0.750000
vt 1.000000 0.500000
vt 0.725000 0.889711
vt 0.750000 0.933013
vt 0.500000 0.950000
vt 0.500000 1.000000
vt 0.275000 0.889711
vt 0.250000 0.933013
vt 0.110289 0.725000
vt 0.066987 0.750000
vt 0.050000 0.500000
vt 0.000000 0.500000
vt 0.110289 0.275000
vt 0.066987 0.250000
vt 0.275000 0.110289
vt 0.250000 0.066987
vt 0.500000 0.050000
vt 0.500000 0.000000
vt 0.725000 0.110289
vt 0.750000 0.066987
vt 0.889711 0.275000
vt 0.933013 0.250000
vt 0.500000 0.495000
vt 0.750000 0.495000
vt 0.750000 0.505000
vt 0.500000 0.505000
vt 0.933013 0.495000
vt 0.933013 0.505000
vt 0.250000 0.495000
vt 0.250000 0.505000
vt 0.066987 0.495000
vt 0.066987 0.505000
s 0
usemtl Mat_PuckTopRing_Baked
f 121/63/89 122/64/89 134/65/89 133/66/89
f 122/64/89 123/67/89 135/68/89 134/65/89
f 123/67/89 124/69/89 136/70/89 135/68/89
f 124/69/89 125/71/89 137/72/89 136/70/89
f 125/71/89 126/73/89 138/74/89 137/72/89
f 126/73/89 127/75/89 139/76/89 138/74/89
f 127/75/89 128/77/89 140/78/89 139/76/89
f 128/77/89 129/79/89 141/80/89 140/78/89
f 129/79/89 130/81/89 142/82/89 141/80/89
f 130/81/89 131/83/89 143/84/89 142/82/89
f 131/83/89 132/85/89 144/86/89 143/84/89
f 132/85/89 121/63/89 133/66/89 144/86/89
f 133/87/90 134/88/90 146/89/90 145/90/90
f 134/91/91 135/88/91 147/89/91 146/92/91
f 135/88/92 136/87/92 148/90/92 147/89/92
f 136/87/93 137/93/93 149/94/93 148/90/93
f 137/93/94 138/95/94 150/96/94 149/94/94
f 138/88/95 139/87/95 151/90/95 150/89/95
f 139/87/96 140/93/96 152/94/96 151/90/96
f 140/95/97 141/93/97 153/94/97 152/96/97
f 141/93/98 142/87/98 154/90/98 153/94/98
f 142/87/99 143/88/99 155/89/99 154/90/99
f 143/88/100 144/91/100 156/92/100 155/89/100
f 144/93/101 133/87/101 145/90/101 156/94/101
f 145/66/102 146/65/102 158/64/102 157/63/102
f 146/65/102 147/68/102 159/67/102 158/64/102
f 147/68/102 148/70/102 160/69/102 159/67/102
f 148/70/102 149/72/102 161/71/102 160/69/102
f 149/72/102 150/74/102 162/73/102 161/71/102
f 150/74/102 151/76/102 163/75/102 162/73/102
f 151/76/102 152/78/102 164/77/102 163/75/102
f 152/78/102 153/80/102 165/79/102 164/77/102
f 153/80/102 154/82/102 166/81/102 165/79/102
f 154/82/102 155/84/102 167/83/102 166/81/102
f 155/84/102 156/86/102 168/85/102 167/83/102
f 156/86/102 145/66/102 157/63/102 168/85/102
f 132/85/89 131/83/89 130/81/89 129/79/89 128/77/89 127/75/89 126/73/89 125/71/89 124/69/89 123/67/89 122/64/89 121/63/89
f 157/63/102 158/64/102 159/67/102 160/69/102 161/71/102 162/73/102 163/75/102 164/77/102 165/79/102 166/81/102 167/83/102 168/85/102
o SupportPost
v 0.180000 0.160000 0.000000
v 0.127279 0.160000 -0.127279
v 0.000000 0.160000 -0.180000
v -0.127279 0.160000 -0.127279
v -0.180000 0.160000 -0.000000
v -0.127279 0.160000 0.127279
v -0.000000 0.160000 0.180000
v 0.127279 0.160000 0.127279
v 0.150000 0.300000 0.000000
v 0.106066 0.300000 -0.106066
v 0.000000 0.300000 -0.150000
v -0.106066 0.300000 -0.106066
v -0.150000 0.300000 -0.000000
v -0.106066 0.300000 0.106066
v -0.000000 0.300000 0.150000
v 0.106066 0.300000 0.106066
v 0.130000 0.600000 0.000000
v 0.091924 0.600000 -0.091924
v 0.000000 0.600000 -0.130000
v -0.091924 0.600000 -0.091924
v -0.130000 0.600000 -0.000000
v -0.091924 0.600000 0.091924
v -0.000000 0.600000 0.130000
v 0.091924 0.600000 0.091924
v 0.160000 0.780000 0.000000
v 0.113137 0.780000 -0.113137
v 0.000000 0.780000 -0.160000
v -0.113137 0.780000 -0.113137
v -0.160000 0.780000 -0.000000
v -0.113137 0.780000 0.113137
v -0.000000 0.780000 0.160000
v 0.113137 0.780000 0.113137
vn 0.9063 0.1942 -0.3754
vn 0.3754 0.1942 -0.9063
vn -0.3754 0.1942 -0.9063
vn -0.9063 0.1942 -0.3754
vn -0.9063 0.1942 0.3754
vn -0.3754 0.1942 0.9063
vn 0.3754 0.1942 0.9063
vn 0.9063 0.1942 0.3754
vn 0.9221 0.0615 -0.3820
vn 0.3820 0.0615 -0.9221
vn -0.3820 0.0615 -0.9221
vn -0.9221 0.0615 -0.3820
vn -0.9221 0.0615 0.3820
vn -0.3820 0.0615 0.9221
vn 0.3820 0.0615 0.9221
vn 0.9221 0.0615 0.3820
vn 0.9131 -0.1522 -0.3782
vn 0.3782 -0.1522 -0.9131
vn -0.3782 -0.1522 -0.9131
vn -0.9131 -0.1522 -0.3782
vn -0.9131 -0.1522 0.3782
vn -0.3782 -0.1522 0.9131
vn 0.3782 -0.1522 0.9131
vn 0.9131 -0.1522 0.3782
vn -0.0000 -1.0000 -0.0000
vn -0.0000 1.0000 -0.0000
vt 0.290323 0.000000
vt 0.495612 0.000000
vt 0.461397 0.225806
vt 0.290323 0.225806
vt 0.085034 0.000000
vt 0.119248 0.225806
vt 0.438587 0.709678
vt 0.290323 0.709678
vt 0.142058 0.709678
vt 0.472802 1.000000
vt 0.290323 1.000000
vt 0.107843 1.000000
vt 0.495612 0.294711
vt 0.290323 0.209677
vt 0.085034 0.294711
vt 0.000000 0.500000
vt 0.085034 0.705289
vt 0.290323 0.790323
vt 0.495612 0.705289
vt 0.580645 0.500000
vt 0.548387 0.500000
vt 0.472802 0.682479
vt 0.290323 0.758065
vt 0.107843 0.682479
vt 0.032258 0.500000
vt 0.107843 0.317521
vt 0.290323 0.241935
vt 0.472802 0.317521
s 0
usemtl Mat_SupportPost_Baked
f 169/97/103 170/98/103 178/99/103 177/100/103
f 170/98/104 171/97/104 179/100/104 178/99/104
f 171/97/105 172/101/105 180/102/105 179/100/105
f 172/98/106 173/97/106 181/100/106 180/99/106
f 173/97/107 174/101/107 182/102/107 181/100/107
f 174/101/108 175/97/108 183/100/108 182/102/108
f 175/97/109 176/98/109 184/99/109 183/100/109
f 176/101/110 169/97/110 177/100/110 184/102/110
f 177/100/111 178/99/111 186/103/111 185/104/111
f 178/99/112 179/100/112 187/104/112 186/103/112
f 179/100/113 180/102/113 188/105/113 187/104/113
f 180/99/114 181/100/114 189/104/114 188/103/114
f 181/100/115 182/102/115 190/105/115 189/104/115
f 182/102/116 183/100/116 191/104/116 190/105/116
f 183/100/117 184/99/117 192/103/117 191/104/117
f 184/102/118 177/100/118 185/104/118 192/105/118
f 185/104/119 186/103/119 194/106/119 193/107/119
f 186/103/120 187/104/120 195/107/120 194/106/120
f 187/104/121 188/105/121 196/108/121 195/107/121
f 188/103/122 189/104/122 197/107/122 196/106/122
f 189/104/123 190/105/123 198/108/123 197/107/123
f 190/105/124 191/104/124 199/107/124 198/108/124
f 191/104/125 192/103/125 200/106/125 199/107/125
f 192/105/126 185/104/126 193/107/126 200/108/126
f 176/109/127 175/110/127 174/111/127 173/112/127 172/113/127 171/114/127 170/115/127 169/116/127
f 193/117/128 194/118/128 195/119/128 196/120/128 197/121/128 198/122/128 199/123/128 200/124/128
o PostGlow
v 0.135000 0.420000 0.000000
v 0.095459 0.420000 -0.095459
v 0.000000 0.420000 -0.135000
v -0.095459 0.420000 -0.095459
v -0.135000 0.420000 -0.000000
v -0.095459 0.420000 0.095459
v -0.000000 0.420000 0.135000
v 0.095459 0.420000 0.095459
v 0.150000 0.430000 0.000000
v 0.106066 0.430000 -0.106066
v 0.000000 0.430000 -0.150000
v -0.106066 0.430000 -0.106066
v -0.150000 0.430000 -0.000000
v -0.106066 0.430000 0.106066
v -0.000000 0.430000 0.150000
v 0.106066 0.430000 0.106066
v 0.150000 0.460000 0.000000
v 0.106066 0.460000 -0.106066
v 0.000000 0.460000 -0.150000
v -0.106066 0.460000 -0.106066
v -0.150000 0.460000 -0.000000
v -0.106066 0.460000 0.106066
v -0.000000 0.460000 0.150000
v 0.106066 0.460000 0.106066
v 0.135000 0.470000 0.000000
v 0.095459 0.470000 -0.095459
v 0.000000 0.470000 -0.135000
v -0.095459 0.470000 -0.095459
v -0.135000 0.470000 -0.000000
v -0.095459 0.470000 0.095459
v -0.000000 0.470000 0.135000
v 0.095459 0.470000 0.095459
vn 0.5406 -0.8109 -0.2239
vn 0.2239 -0.8109 -0.5406
vn -0.2239 -0.8109 -0.5406
vn -0.5406 -0.8109 -0.2239
vn -0.5406 -0.8109 0.2239
vn -0.2239 -0.8109 0.5406
vn 0.2239 -0.8109 0.5406
vn 0.5406 -0.8109 0.2239
vn 0.9239 -0.0000 -0.3827
vn 0.3827 -0.0000 -0.9239
vn -0.3827 -0.0000 -0.9239
vn -0.9239 -0.0000 -0.3827
vn -0.9239 -0.0000 0.3827
vn -0.3827 -0.0000 0.9239
vn 0.3827 -0.0000 0.9239
vn 0.9239 -0.0000 0.3827
vn 0.5406 0.8109 -0.2239
vn 0.2239 0.8109 -0.5406
vn -0.2239 0.8109 -0.5406
vn -0.5406 0.8109 -0.2239
vn -0.5406 0.8109 0.2239
vn -0.2239 0.8109 0.5406
vn 0.2239 0.8109 0.5406
vn 0.5406 0.8109 0.2239
vn -0.0000 -1.0000 -0.0000
vn -0.0000 1.0000 -0.0000
vt 0.062500 0.812500
s 0
usemtl Mat_Emit
f 201/125/129 202/125/129 210/125/129 209/125/129
f 202/125/130 203/125/130 211/125/130 210/125/130
f 203/125/131 204/125/131 212/125/131 211/125/131
f 204/125/132 205/125/132 213/125/132 212/125/132
f 205/125/133 206/125/133 214/125/133 213/125/133
f 206/125/134 207/125/134 215/125/134 214/125/134
f 207/125/135 208/125/135 216/125/135 215/125/135
f 208/125/136 201/125/136 209/125/136 216/125/136
f 209/125/137 210/125/137 218/125/137 217/125/137
f 210/125/138 211/125/138 219/125/138 218/125/138
f 211/125/139 212/125/139 220/125/139 219/125/139
f 212/125/140 213/125/140 221/125/140 220/125/140
f 213/125/141 214/125/141 222/125/141 221/125/141
f 214/125/142 215/125/142 223/125/142 222/125/142
f 215/125/143 216/125/143 224/125/143 223/125/143
f 216/125/144 209/125/144 217/125/144 224/125/144
f 217/125/145 218/125/145 226/125/145 225/125/145
f 218/125/146 219/125/146 227/125/146 226/125/146
f 219/125/147 220/125/147 228/125/147 227/125/147
f 220/125/148 221/125/148 229/125/148 228/125/148
f 221/125/149 222/125/149 230/125/149 229/125/149
f 222/125/150 223/125/150 231/125/150 230/125/150
f 223/125/151 224/125/151 232/125/151 231/125/151
f 224/125/152 217/125/152 225/125/152 232/125/152
f 208/125/153 207/125/153 206/125/153 205/125/153 204/125/153 203/125/153 202/125/153 201/125/153
f 225/125/154 226/125/154 227/125/154 228/125/154 229/125/154 230/125/154 231/125/154 232/125/154
o SeatShell
v 0.220000 0.780000 0.000000
v 0.190526 0.780000 -0.101200
v 0.110000 0.780000 -0.175284
v 0.000000 0.780000 -0.202400
v -0.110000 0.780000 -0.175284
v -0.190526 0.780000 -0.101200
v -0.220000 0.780000 -0.000000
v -0.190526 0.780000 0.101200
v -0.110000 0.780000 0.175284
v -0.000000 0.780000 0.202400
v 0.110000 0.780000 0.175284
v 0.190526 0.780000 0.101200
v 0.400000 0.820000 0.000000
v 0.346410 0.820000 -0.184000
v 0.200000 0.820000 -0.318697
v 0.000000 0.820000 -0.368000
v -0.200000 0.820000 -0.318697
v -0.346410 0.820000 -0.184000
v -0.400000 0.820000 -0.000000
v -0.346410 0.820000 0.184000
v -0.200000 0.820000 0.318697
v -0.000000 0.820000 0.368000
v 0.200000 0.820000 0.318697
v 0.346410 0.820000 0.184000
v 0.550000 0.880000 0.000000
v 0.476314 0.880000 -0.253000
v 0.275000 0.880000 -0.438209
v 0.000000 0.880000 -0.506000
v -0.275000 0.880000 -0.438209
v -0.476314 0.880000 -0.253000
v -0.550000 0.880000 -0.000000
v -0.476314 0.880000 0.253000
v -0.275000 0.880000 0.438209
v -0.000000 0.880000 0.506000
v 0.275000 0.880000 0.438209
v 0.476314 0.880000 0.253000
v 0.620000 0.940000 0.000000
v 0.536936 0.940000 -0.285200
v 0.310000 0.940000 -0.493981
v 0.000000 0.940000 -0.570400
v -0.310000 0.940000 -0.493981
v -0.536936 0.940000 -0.285200
v -0.620000 0.940000 -0.000000
v -0.536936 0.940000 0.285200
v -0.310000 0.940000 0.493981
v -0.000000 0.940000 0.570400
v 0.310000 0.940000 0.493981
v 0.536936 0.940000 0.285200
v 0.600000 1.000000 0.000000
v 0.519615 1.000000 -0.276000
v 0.300000 1.000000 -0.478046
v 0.000000 1.000000 -0.552000
v -0.300000 1.000000 -0.478046
v -0.519615 1.000000 -0.276000
v -0.600000 1.000000 -0.000000
v -0.519615 1.000000 0.276000
v -0.300000 1.000000 0.478046
v -0.000000 1.000000 0.552000
v 0.300000 1.000000 0.478046
v 0.519615 1.000000 0.276000
v 0.560000 1.020000 0.000000
v 0.484974 1.020000 -0.257600
v 0.280000 1.020000 -0.446176
v 0.000000 1.020000 -0.515200
v -0.280000 1.020000 -0.446176
v -0.484974 1.020000 -0.257600
v -0.560000 1.020000 -0.000000
v -0.484974 1.020000 0.257600
v -0.280000 1.020000 0.446176
v -0.000000 1.020000 0.515200
v 0.280000 1.020000 0.446176
v 0.484974 1.020000 0.257600
vn 0.2165 -0.9742 -0.0631
vn 0.1582 -0.9723 -0.1719
vn 0.0578 -0.9704 -0.2344
vn -0.0578 -0.9704 -0.2344
vn -0.1582 -0.9723 -0.1719
vn -0.2165 -0.9742 -0.0631
vn -0.2165 -0.9742 0.0631
vn -0.1582 -0.9723 0.1719
vn -0.0578 -0.9704 0.2344
vn 0.0578 -0.9704 0.2344
vn 0.1582 -0.9723 0.1719
vn 0.2165 -0.9742 0.0631
vn 0.3692 -0.9231 -0.1075
vn 0.2688 -0.9178 -0.2921
vn 0.0978 -0.9127 -0.3968
vn -0.0978 -0.9127 -0.3968
vn -0.2688 -0.9178 -0.2921
vn -0.3692 -0.9231 -0.1075
vn -0.3692 -0.9231 0.1075
vn -0.2688 -0.9178 0.2921
vn -0.0978 -0.9127 0.3968
vn 0.0978 -0.9127 0.3968
vn 0.2688 -0.9178 0.2921
vn 0.3692 -0.9231 0.1075
vn 0.6394 -0.7460 -0.1862
vn 0.4602 -0.7335 -0.5002
vn 0.1657 -0.7215 -0.6722
vn -0.1657 -0.7215 -0.6722
vn -0.4602 -0.7335 -0.5002
vn -0.6394 -0.7460 -0.1862
vn -0.6394 -0.7460 0.1862
vn -0.4602 -0.7335 0.5002
vn -0.1657 -0.7215 0.6722
vn 0.1657 -0.7215 0.6722
vn 0.4602 -0.7335 0.5002
vn 0.6394 -0.7460 0.1862
vn 0.9144 0.3048 -0.2663
vn 0.6470 0.2946 -0.7033
vn 0.2294 0.2854 -0.9306
vn -0.2294 0.2854 -0.9306
vn -0.6470 0.2946 -0.7033
vn -0.9144 0.3048 -0.2663
vn -0.9144 0.3048 0.2663
vn -0.6470 0.2946 0.7033
vn -0.2294 0.2854 0.9306
vn 0.2294 0.2854 0.9306
vn 0.6470 0.2946 0.7033
vn 0.9144 0.3048 0.2663
vn 0.4435 0.8869 -0.1292
vn 0.3220 0.8797 -0.3500
vn 0.1169 0.8726 -0.4742
vn -0.1169 0.8726 -0.4742
vn -0.3220 0.8797 -0.3500
vn -0.4435 0.8869 -0.1292
vn -0.4435 0.8869 0.1292
vn -0.3220 0.8797 0.3500
vn -0.1169 0.8726 0.4742
vn 0.1169 0.8726 0.4742
vn 0.3220 0.8797 0.3500
vn 0.4435 0.8869 0.1292
vn -0.0000 -1.0000 -0.0000
vn -0.0000 1.0000 -0.0000
vt 0.677419 0.460000
vt 0.653650 0.541613
vt 0.779363 0.608387
vt 0.822581 0.460000
vt 0.588710 0.601358
vt 0.661290 0.717014
vt 0.500000 0.623226
vt 0.500000 0.756774
vt 0.411290 0.601358
vt 0.338710 0.717014
vt 0.346350 0.541613
vt 0.220637 0.608387
vt 0.322581 0.460000
vt 0.177419 0.460000
vt 0.346350 0.378387
vt 0.220637 0.311613
vt 0.411290 0.318642
vt 0.338710 0.202986
vt 0.500000 0.296774
vt 0.500000 0.163226
vt 0.588710 0.318642
vt 0.661290 0.202986
vt 0.653650 0.378387
vt 0.779363 0.311613
vt 0.884124 0.664032
vt 0.943548 0.460000
vt 0.721774 0.813394
vt 0.500000 0.868065
vt 0.278226 0.813394
vt 0.115876 0.664032
vt 0.056452 0.460000
vt 0.115876 0.255968
vt 0.278226 0.106606
vt 0.500000 0.051935
vt 0.721774 0.106606
vt 0.884124 0.255968
vt 0.933013 0.690000
vt 1.000000 0.460000
vt 0.750000 0.858372
vt 0.500000 0.920000
vt 0.250000 0.858372
vt 0.066987 0.690000
vt 0.000000 0.460000
vt 0.066987 0.230000
vt 0.250000 0.061628
vt 0.500000 0.000000
vt 0.750000 0.061628
vt 0.933013 0.230000
vt 0.500000 0.492258
vt 0.730000 0.492258
vt 0.722581 0.540645
vt 0.500000 0.540645
vt 0.933013 0.492258
vt 0.750000 0.492258
vt 0.741935 0.540645
vt 0.919044 0.540645
vt 0.250000 0.492258
vt 0.258065 0.540645
vt 0.066987 0.492258
vt 0.080955 0.540645
vt 0.270000 0.492258
vt 0.277419 0.540645
vt 0.983871 0.460000
vt 0.919044 0.682581
vt 0.891108 0.667742
vt 0.951613 0.460000
vt 0.741935 0.845521
vt 0.725806 0.819820
vt 0.500000 0.905161
vt 0.500000 0.875484
vt 0.258065 0.845521
vt 0.274194 0.819820
vt 0.080955 0.682581
vt 0.108892 0.667742
vt 0.016129 0.460000
vt 0.048387 0.460000
vt 0.080955 0.237419
vt 0.108892 0.252258
vt 0.258065 0.074479
vt 0.274194 0.100180
vt 0.500000 0.014839
vt 0.500000 0.044516
vt 0.741935 0.074479
vt 0.725806 0.100180
vt 0.919044 0.237419
vt 0.891108 0.252258
s 0
usemtl Mat_SeatShell_Baked
f 233/126/155 234/127/155 246/128/155 245/129/155
f 234/127/156 235/130/156 247/131/156 246/128/156
f 235/130/157 236/132/157 248/133/157 247/131/157
f 236/132/158 237/134/158 249/135/158 248/133/158
f 237/134/159 238/136/159 250/137/159 249/135/159
f 238/136/160 239/138/160 251/139/160 250/137/160
f 239/138/161 240/140/161 252/141/161 251/139/161
f 240/140/162 241/142/162 253/143/162 252/141/162
f 241/142/163 242/144/163 254/145/163 253/143/163
f 242/144/164 243/146/164 255/147/164 254/145/164
f 243/146/165 244/148/165 256/149/165 255/147/165
f 244/148/166 233/126/166 245/129/166 256/149/166
f 245/129/167 246/128/167 258/150/167 257/151/167
f 246/128/168 247/131/168 259/152/168 258/150/168
f 247/131/169 248/133/169 260/153/169 259/152/169
f 248/133/170 249/135/170 261/154/170 260/153/170
f 249/135/171 250/137/171 262/155/171 261/154/171
f 250/137/172 251/139/172 263/156/172 262/155/172
f 251/139/173 252/141/173 264/157/173 263/156/173
f 252/141/174 253/143/174 265/158/174 264/157/174
f 253/143/175 254/145/175 266/159/175 265/158/175
f 254/145/176 255/147/176 267/160/176 266/159/176
f 255/147/177 256/149/177 268/161/177 267/160/177
f 256/149/178 245/129/178 257/151/178 268/161/178
f 257/151/179 258/150/179 270/162/179 269/163/179
f 258/150/180 259/152/180 271/164/180 270/162/180
f 259/152/181 260/153/181 272/165/181 271/164/181
f 260/153/182 261/154/182 273/166/182 272/165/182
f 261/154/183 262/155/183 274/167/183 273/166/183
f 262/155/184 263/156/184 275/168/184 274/167/184
f 263/156/185 264/157/185 276/169/185 275/168/185
f 264/157/186 265/158/186 277/170/186 276/169/186
f 265/158/187 266/159/187 278/171/187 277/170/187
f 266/159/188 267/160/188 279/172/188 278/171/188
f 267/160/189 268/161/189 280/173/189 279/172/189
f 268/161/190 257/151/190 269/163/190 280/173/190
f 269/174/191 270/175/191 282/176/191 281/177/191
f 270/178/192 271/179/192 283/180/192 282/181/192
f 271/179/193 272/174/193 284/177/193 283/180/193
f 272/174/194 273/182/194 285/183/194 284/177/194
f 273/182/195 274/184/195 286/185/195 285/183/195
f 274/175/196 275/174/196 287/177/196 286/176/196
f 275/174/197 276/186/197 288/187/197 287/177/197
f 276/184/198 277/182/198 289/183/198 288/185/198
f 277/182/199 278/174/199 290/177/199 289/183/199
f 278/174/200 279/179/200 291/180/200 290/177/200
f 279/179/201 280/178/201 292/181/201 291/180/201
f 280/186/202 269/174/202 281/177/202 292/187/202
f 281/188/203 282/189/203 294/190/203 293/191/203
f 282/189/204 283/192/204 295/193/204 294/190/204
f 283/192/205 284/194/205 296/195/205 295/193/205
f 284/194/206 285/196/206 297/197/206 296/195/206
f 285/196/207 286/198/207 298/199/207 297/197/207
f 286/198/208 287/200/208 299/201/208 298/199/208
f 287/200/209 288/202/209 300/203/209 299/201/209
f 288/202/210 289/204/210 301/205/210 300/203/210
f 289/204/211 290/206/211 302/207/211 301/205/211
f 290/206/212 291/208/212 303/209/212 302/207/212
f 291/208/213 292/210/213 304/211/213 303/209/213
f 292/210/214 281/188/214 293/191/214 304/211/214
f 244/148/215 243/146/215 242/144/215 241/142/215 240/140/215 239/138/215 238/136/215 237/134/215 236/132/215 235/130/215 234/127/215 233/126/215
f 293/191/216 294/190/216 295/193/216 296/195/216 297/197/216 298/199/216 299/201/216 300/203/216 301/205/216 302/207/216 303/209/216 304/211/216
o ArmTube_-1
v -0.588935 0.930000 -0.138846
v -0.601766 0.911692 -0.103179
v -0.584273 0.904108 -0.065649
v -0.546703 0.911692 -0.048242
v -0.511065 0.930000 -0.061154
v -0.498234 0.948308 -0.096821
v -0.515727 0.955892 -0.134351
v -0.553297 0.948308 -0.151758
v -0.610822 0.973659 -0.116013
v -0.617728 0.954205 -0.079327
v -0.594599 0.946147 -0.045091
v -0.554983 0.954205 -0.033359
v -0.522086 0.973659 -0.051005
v -0.515179 0.993113 -0.087691
v -0.538309 1.001171 -0.121927
v -0.577925 0.993113 -0.133658
v -0.629232 1.011999 -0.081779
v -0.625697 0.989277 -0.046520
v -0.594218 0.979865 -0.020205
v -0.553235 0.989277 -0.018248
v -0.526756 1.011999 -0.041797
v -0.530291 1.034721 -0.077056
v -0.561770 1.044132 -0.103372
v -0.602753 1.034721 -0.105328
v -0.639227 1.045154 -0.045656
v -0.628609 1.018609 -0.014759
v -0.592540 1.007613 0.003953
v -0.552149 1.018609 -0.000481
v -0.531096 1.045154 -0.025463
v -0.541714 1.071699 -0.056360
v -0.577783 1.082695 -0.075072
v -0.618174 1.071699 -0.070639
v -0.643419 1.073261 -0.008488
v -0.628644 1.043068 0.016852
v -0.590352 1.030562 0.029072
v -0.550974 1.043068 0.021014
v -0.533576 1.073261 -0.002602
v -0.548351 1.103454 -0.027942
v -0.586642 1.115960 -0.040162
v -0.626021 1.103454 -0.032104
v -0.643501 1.096454 0.029669
v -0.626621 1.063207 0.049207
v -0.587435 1.049436 0.056050
v -0.548898 1.063207 0.046190
v -0.533584 1.096454 0.025402
v -0.550464 1.129701 0.005864
v -0.589649 1.143472 -0.000979
v -0.628187 1.129701 0.008882
v -0.640536 1.114869 0.068710
v -0.622873 1.079293 0.082653
v -0.583515 1.064558 0.085060
v -0.545517 1.079293 0.074521
v -0.531139 1.114869 0.057210
v -0.548803 1.150444 0.043267
v -0.588161 1.165180 0.040860
v -0.626158 1.150444 0.051399
v -0.635289 1.128640 0.108340
v -0.617654 1.091426 0.117068
v -0.578503 1.076012 0.115801
v -0.540770 1.091426 0.105283
v -0.526559 1.128640 0.091675
v -0.544194 1.165854 0.082947
v -0.583345 1.181268 0.084214
v -0.621078 1.165854 0.094732
v -0.628397 1.137904 0.148110
v -0.611274 1.099647 0.152011
v -0.572516 1.083801 0.147680
v -0.534829 1.099647 0.137652
v -0.520288 1.137904 0.127803
v -0.537412 1.176160 0.123902
v -0.576169 1.192007 0.128233
v -0.613856 1.176160 0.138261
v -0.620445 1.142795 0.187459
v -0.604110 1.104003 0.186847
v -0.565821 1.087935 0.179931
v -0.528009 1.104003 0.170763
v -0.512823 1.142795 0.164713
v -0.529159 1.181586 0.165324
v -0.567447 1.197654 0.172240
v -0.605259 1.181586 0.181408
v -0.607120 1.143449 0.224652
v -0.593118 1.108117 0.220165
v -0.558744 1.093483 0.211876
v -0.524133 1.108117 0.204640
v -0.509560 1.143449 0.202696
v -0.523561 1.178780 0.207183
v -0.557935 1.193415 0.215472
v -0.592546 1.178780 0.222708
v -0.598732 1.140000 0.261188
v -0.585188 1.104795 0.254736
v -0.551031 1.090213 0.245510
v -0.516270 1.104795 0.238914
v -0.501268 1.140000 0.238812
v -0.514812 1.175205 0.245264
v -0.548969 1.189787 0.254490
v -0.583730 1.175205 0.261086
vn -0.9111 -0.2070 -0.3566
vn -0.8171 -0.4459 0.3653
vn -0.2447 -0.4201 0.8738
vn 0.4695 -0.1477 0.8705
vn 0.9100 0.2097 0.3577
vn 0.8171 0.4459 -0.3653
vn 0.2436 0.4234 -0.8726
vn -0.4718 0.1537 -0.8682
vn -0.9664 -0.1993 -0.1621
vn -0.7111 -0.4962 0.4981
vn -0.0381 -0.5014 0.8644
vn 0.6549 -0.2140 0.7248
vn 0.9665 0.1990 0.1619
vn 0.7111 0.4962 -0.4981
vn 0.0382 0.5011 -0.8645
vn -0.6547 0.2134 -0.7252
vn -0.9713 -0.2357 0.0323
vn -0.5651 -0.5836 0.5832
vn 0.1717 -0.5886 0.7900
vn 0.8064 -0.2504 0.5357
vn 0.9713 0.2355 -0.0325
vn 0.5651 0.5835 -0.5832
vn -0.1715 0.5879 -0.7906
vn -0.8062 0.2494 -0.5364
vn -0.9495 -0.2747 0.1516
vn -0.4550 -0.6747 0.5811
vn 0.3046 -0.6787 0.6683
vn 0.8854 -0.2867 0.3658
vn 0.9495 0.2746 -0.1517
vn 0.4550 0.6746 -0.5813
vn -0.3045 0.6778 -0.6693
vn -0.8853 0.2858 -0.3668
vn -0.9261 -0.3095 0.2157
vn -0.3864 -0.7556 0.5290
vn 0.3779 -0.7584 0.5311
vn 0.9212 -0.3184 0.2237
vn 0.9261 0.3095 -0.2158
vn 0.3864 0.7554 -0.5293
vn -0.3779 0.7575 -0.5323
vn -0.9212 0.3177 -0.2247
vn -0.9091 -0.3372 0.2447
vn -0.3508 -0.8197 0.4527
vn 0.4112 -0.8216 0.3948
vn 0.9331 -0.3435 0.1067
vn 0.9091 0.3372 -0.2447
vn 0.3508 0.8196 -0.4530
vn -0.4113 0.8210 -0.3960
vn -0.9331 0.3430 -0.1076
vn -0.8992 -0.3575 0.2522
vn -0.3382 -0.8667 0.3668
vn 0.4195 -0.8678 0.2663
vn 0.9322 -0.3617 0.0104
vn 0.8992 0.3575 -0.2522
vn 0.3381 0.8666 -0.3671
vn -0.4197 0.8674 -0.2673
vn -0.9323 0.3615 -0.0111
vn -0.8954 -0.3712 0.2459
vn -0.3404 -0.8982 0.2782
vn 0.4127 -0.8989 0.1474
vn 0.9249 -0.3739 -0.0694
vn 0.8954 0.3712 -0.2459
vn 0.3404 0.8981 -0.2784
vn -0.4128 0.8987 -0.1481
vn -0.9249 0.3738 0.0689
vn -0.8962 -0.3794 0.2299
vn -0.3522 -0.9167 0.1888
vn 0.3971 -0.9170 0.0370
vn 0.9145 -0.3810 -0.1363
vn 0.8962 0.3794 -0.2298
vn 0.3522 0.9167 -0.1888
vn -0.3972 0.9170 -0.0376
vn -0.9146 0.3809 0.1358
vn -0.8673 -0.3773 0.3246
vn -0.3379 -0.9130 0.2287
vn 0.4023 -0.9131 0.0671
vn 0.9234 -0.3779 -0.0667
vn 0.9194 0.3826 -0.0917
vn 0.3904 0.9206 0.0069
vn -0.3519 0.9206 0.1693
vn -0.8735 0.3831 0.3003
vn -0.9083 -0.3814 0.1721
vn -0.3920 -0.9200 0.0010
vn 0.3534 -0.9198 -0.1704
vn 0.8924 -0.3812 -0.2415
vn 0.9082 0.3814 -0.1725
vn 0.3913 0.9202 -0.0039
vn -0.3542 0.9201 0.1670
vn -0.8926 0.3812 0.2407
vn 0.3325 -0.8823 -0.3333
vn 0.2228 -0.0921 0.9705
vt 0.968971 0.207076
vt 0.882576 0.162729
vt 0.824801 0.265706
vt 0.913662 0.312827
vt 0.791671 0.144360
vt 0.741874 0.246188
vt 0.467653 0.144360
vt 0.558655 0.162729
vt 0.538601 0.265706
vt 0.442641 0.246188
vt 0.644979 0.207076
vt 0.618283 0.312827
vt 0.780782 0.207076
vt 0.867177 0.251422
vt 0.845061 0.359949
vt 0.756199 0.312827
vt 0.958082 0.269791
vt 0.927988 0.379467
vt 0.633685 0.269791
vt 0.542684 0.251422
vt 0.483029 0.359949
vt 0.578988 0.379467
vt 0.456360 0.207076
vt 0.403346 0.312827
vt 0.745336 0.350656
vt 0.830742 0.405694
vt 0.681594 0.327859
vt 0.542832 0.350656
vt 0.443563 0.327859
vt 0.606972 0.405694
vt 0.819302 0.460732
vt 0.733896 0.405694
vt 0.883043 0.483529
vt 0.422891 0.460732
vt 0.522160 0.483529
vt 0.358751 0.405694
vt 0.668405 0.421706
vt 0.743244 0.486004
vt 0.367314 0.745089
vt 0.443563 0.681347
vt 0.447627 0.622833
vt 0.360261 0.668158
vt 0.545464 0.421706
vt 0.447627 0.395072
vt 0.676856 0.350656
vt 0.694332 0.486004
vt 0.633819 0.421706
vt 0.769171 0.550303
vt 0.598409 0.819055
vt 0.522160 0.882796
vt 0.483374 0.814249
vt 0.570740 0.768924
vt 0.385537 0.550303
vt 0.483374 0.576936
vt 0.887782 0.460732
vt 0.803757 0.550303
vt 0.591834 0.480951
vt 0.653213 0.554085
vt 0.452927 0.561987
vt 0.360176 0.591587
vt 0.545464 0.633572
vt 0.548311 0.581506
vt 0.638957 0.554085
vt 0.581753 0.480951
vt 0.700336 0.627218
vt 0.461913 0.729688
vt 0.554665 0.700089
vt 0.385537 0.803510
vt 0.366530 0.710170
vt 0.710417 0.627218
vt 0.513464 0.529733
vt 0.560789 0.610264
vt 0.459993 0.496642
vt 0.365076 0.513217
vt 0.553339 0.520526
vt 0.571125 0.610264
vt 0.520773 0.529733
vt 0.618450 0.690795
vt 0.454630 0.634778
vt 0.549546 0.618203
vt 0.361284 0.610894
vt 0.611141 0.690795
vt 0.432451 0.568697
vt 0.466223 0.654868
vt 0.469490 0.426373
vt 0.374155 0.432204
vt 0.561528 0.451900
vt 0.494079 0.654868
vt 0.452147 0.568697
vt 0.527851 0.741040
vt 0.458235 0.533435
vt 0.553569 0.527604
vt 0.366197 0.507908
vt 0.508155 0.741040
vt 0.349091 0.598086
vt 0.370230 0.688226
vt 0.481628 0.351911
vt 0.386796 0.348844
vt 0.573026 0.377389
vt 0.410598 0.688226
vt 0.377636 0.598086
vt 0.431737 0.778365
vt 0.469901 0.428423
vt 0.564733 0.431490
vt 0.378503 0.402946
vt 0.403193 0.778365
vt 0.264450 0.617999
vt 0.273900 0.710665
vt 0.496130 0.274695
vt 0.402251 0.264203
vt 0.587418 0.298983
vt 0.323087 0.710665
vt 0.299230 0.617999
vt 0.332537 0.803330
vt 0.487283 0.321798
vt 0.581162 0.332290
vt 0.395995 0.297510
vt 0.297757 0.803330
vt 0.180070 0.628550
vt 0.178588 0.722512
vt 0.512346 0.196574
vt 0.419604 0.179823
vt 0.603936 0.218782
vt 0.233684 0.722512
vt 0.219029 0.628550
vt 0.232202 0.816473
vt 0.508409 0.215204
vt 0.601152 0.231955
vt 0.416820 0.192996
vt 0.193243 0.816473
vt 0.099367 0.638515
vt 0.088499 0.724095
vt 0.529489 0.119198
vt 0.446227 0.099119
vt 0.613325 0.136724
vt 0.141680 0.724095
vt 0.136971 0.638515
vt 0.130811 0.809675
vt 0.531450 0.110486
vt 0.614711 0.130564
vt 0.447613 0.092960
vt 0.093207 0.809675
vt 0.015627 0.630468
vt 0.000000 0.715742
vt 0.548173 0.037728
vt 0.465437 0.015380
vt 0.632371 0.053704
vt 0.054198 0.715742
vt 0.053951 0.630468
vt 0.038571 0.801016
vt 0.553166 0.015977
vt 0.635902 0.038324
vt 0.468968 0.000000
vt 0.000247 0.801016
vt 0.542684 1.000000
vt 0.633685 0.957835
vt 0.676058 0.866930
vt 0.644979 0.780535
vt 0.558655 0.749259
vt 0.467653 0.791424
vt 0.425281 0.882329
vt 0.456360 0.968724
vt 0.432629 0.715742
vt 0.465437 0.630468
vt 0.548173 0.595146
vt 0.632371 0.630468
vt 0.668710 0.715742
vt 0.635902 0.801016
vt 0.553166 0.836338
vt 0.468968 0.801016
s 0
usemtl Mat_ArmTube_-1_Baked
f 305/212/217 306/213/217 314/214/217 313/215/217
f 306/213/218 307/216/218 315/217/218 314/214/218
f 307/218/219 308/219/219 316/220/219 315/221/219
f 308/219/220 309/222/220 317/223/220 316/220/220
f 309/224/221 310/225/221 318/226/221 317/227/221
f 310/225/222 311/228/222 319/229/222 318/226/222
f 311/230/223 312/231/223 320/232/223 319/233/223
f 312/231/224 305/234/224 313/235/224 320/232/224
f 313/215/225 314/214/225 322/236/225 321/237/225
f 314/214/226 315/217/226 323/238/226 322/236/226
f 315/221/227 316/220/227 324/239/227 323/240/227
f 316/220/228 317/223/228 325/241/228 324/239/228
f 317/227/229 318/226/229 326/242/229 325/243/229
f 318/226/230 319/229/230 327/244/230 326/242/230
f 319/233/231 320/232/231 328/245/231 327/246/231
f 320/232/232 313/235/232 321/247/232 328/245/232
f 321/237/233 322/236/233 330/248/233 329/249/233
f 322/250/234 323/251/234 331/252/234 330/253/234
f 323/240/235 324/239/235 332/254/235 331/255/235
f 324/256/236 325/243/236 333/257/236 332/258/236
f 325/243/237 326/242/237 334/259/237 333/257/237
f 326/260/238 327/261/238 335/262/238 334/263/238
f 327/246/239 328/245/239 336/264/239 335/265/239
f 328/266/240 321/237/240 329/249/240 336/267/240
f 329/249/241 330/248/241 338/268/241 337/269/241
f 330/253/242 331/252/242 339/270/242 338/271/242
f 331/252/243 332/272/243 340/273/243 339/270/243
f 332/258/244 333/257/244 341/274/244 340/275/244
f 333/257/245 334/259/245 342/276/245 341/274/245
f 334/263/246 335/262/246 343/277/246 342/278/246
f 335/262/247 336/279/247 344/280/247 343/277/247
f 336/267/248 329/249/248 337/269/248 344/281/248
f 337/269/249 338/268/249 346/282/249 345/283/249
f 338/271/250 339/270/250 347/284/250 346/285/250
f 339/270/251 340/273/251 348/286/251 347/284/251
f 340/275/252 341/274/252 349/287/252 348/288/252
f 341/274/253 342/276/253 350/289/253 349/287/253
f 342/278/254 343/277/254 351/290/254 350/291/254
f 343/277/255 344/280/255 352/292/255 351/290/255
f 344/281/256 337/269/256 345/283/256 352/293/256
f 345/283/257 346/282/257 354/294/257 353/295/257
f 346/285/258 347/284/258 355/296/258 354/297/258
f 347/284/259 348/286/259 356/298/259 355/296/259
f 348/288/260 349/287/260 357/299/260 356/300/260
f 349/287/261 350/289/261 358/301/261 357/299/261
f 350/291/262 351/290/262 359/302/262 358/303/262
f 351/290/263 352/292/263 360/304/263 359/302/263
f 352/293/264 345/283/264 353/295/264 360/305/264
f 353/295/265 354/294/265 362/306/265 361/307/265
f 354/297/266 355/296/266 363/308/266 362/309/266
f 355/296/267 356/298/267 364/310/267 363/308/267
f 356/300/268 357/299/268 365/311/268 364/312/268
f 357/299/269 358/301/269 366/313/269 365/311/269
f 358/303/270 359/302/270 367/314/270 366/315/270
f 359/302/271 360/304/271 368/316/271 367/314/271
f 360/305/272 353/295/272 361/307/272 368/317/272
f 361/307/273 362/306/273 370/318/273 369/319/273
f 362/309/274 363/308/274 371/320/274 370/321/274
f 363/308/275 364/310/275 372/322/275 371/320/275
f 364/312/276 365/311/276 373/323/276 372/324/276
f 365/311/277 366/313/277 374/325/277 373/323/277
f 366/315/278 367/314/278 375/326/278 374/327/278
f 367/314/279 368/316/279 376/328/279 375/326/279
f 368/317/280 361/307/280 369/319/280 376/329/280
f 369/319/281 370/318/281 378/330/281 377/331/281
f 370/321/282 371/320/282 379/332/282 378/333/282
f 371/320/283 372/322/283 380/334/283 379/332/283
f 372/324/284 373/323/284 381/335/284 380/336/284
f 373/323/285 374/325/285 382/337/285 381/335/285
f 374/327/286 375/326/286 383/338/286 382/339/286
f 375/326/287 376/328/287 384/340/287 383/338/287
f 376/329/288 369/319/288 377/331/288 384/341/288
f 377/331/289 378/330/289 386/342/289 385/343/289
f 378/333/290 379/332/290 387/344/290 386/345/290
f 379/332/291 380/334/291 388/346/291 387/344/291
f 380/336/292 381/335/292 389/347/292 388/348/292
f 381/335/293 382/337/293 390/349/293 389/347/293
f 382/339/294 383/338/294 391/350/294 390/351/294
f 383/338/295 384/340/295 392/352/295 391/350/295
f 384/341/296 377/331/296 385/343/296 392/353/296
f 385/343/297 386/342/297 394/354/297 393/355/297
f 386/345/298 387/344/298 395/356/298 394/357/298
f 387/344/299 388/346/299 396/358/299 395/356/299
f 388/348/300 389/347/300 397/359/300 396/360/300
f 389/347/301 390/349/301 398/361/301 397/359/301
f 390/351/302 391/350/302 399/362/302 398/363/302
f 391/350/303 392/352/303 400/364/303 399/362/303
f 392/353/304 385/343/304 393/355/304 400/365/304
f 312/366/305 311/367/305 310/368/305 309/369/305 308/370/305 307/371/305 306/372/305 305/373/305
f 393/374/306 394/375/306 395/376/306 396/377/306 397/378/306 398/379/306 399/380/306 400/381/306
o ArmTube_+1
v 0.511065 0.930000 -0.061154
v 0.546703 0.911692 -0.048242
v 0.584273 0.904108 -0.065649
v 0.601766 0.911692 -0.103179
v 0.588935 0.930000 -0.138846
v 0.553297 0.948308 -0.151758
v 0.515727 0.955892 -0.134351
v 0.498234 0.948308 -0.096821
v 0.522086 0.973659 -0.051005
v 0.554983 0.954205 -0.033359
v 0.594599 0.946147 -0.045091
v 0.617728 0.954205 -0.079327
v 0.610822 0.973659 -0.116013
v 0.577925 0.993113 -0.133658
v 0.538309 1.001171 -0.121927
v 0.515179 0.993113 -0.087691
v 0.526756 1.011999 -0.041797
v 0.553235 0.989277 -0.018248
v 0.594218 0.979865 -0.020205
v 0.625697 0.989277 -0.046520
v 0.629232 1.011999 -0.081779
v 0.602753 1.034721 -0.105328
v 0.561770 1.044132 -0.103372
v 0.530291 1.034721 -0.077056
v 0.531096 1.045154 -0.025463
v 0.552149 1.018609 -0.000481
v 0.592540 1.007613 0.003953
v 0.628609 1.018609 -0.014759
v 0.639227 1.045154 -0.045656
v 0.618174 1.071699 -0.070639
v 0.577783 1.082695 -0.075072
v 0.541714 1.071699 -0.056360
v 0.533576 1.073261 -0.002602
v 0.550974 1.043068 0.021014
v 0.590352 1.030562 0.029072
v 0.628644 1.043068 0.016852
v 0.643419 1.073261 -0.008488
v 0.626021 1.103454 -0.032104
v 0.586642 1.115960 -0.040162
v 0.548351 1.103454 -0.027942
v 0.533584 1.096454 0.025402
v 0.548898 1.063207 0.046190
v 0.587435 1.049436 0.056050
v 0.626621 1.063207 0.049207
v 0.643501 1.096454 0.029669
v 0.628187 1.129701 0.008882
v 0.589649 1.143472 -0.000979
v 0.550464 1.129701 0.005864
v 0.531139 1.114869 0.057210
v 0.545517 1.079293 0.074521
v 0.583515 1.064558 0.085060
v 0.622873 1.079293 0.082653
v 0.640536 1.114869 0.068710
v 0.626158 1.150444 0.051399
v 0.588161 1.165180 0.040860
v 0.548803 1.150444 0.043267
v 0.526559 1.128640 0.091675
v 0.540770 1.091426 0.105283
v 0.578503 1.076012 0.115801
v 0.617654 1.091426 0.117068
v 0.635289 1.128640 0.108340
v 0.621078 1.165854 0.094732
v 0.583345 1.181268 0.084214
v 0.544194 1.165854 0.082947
v 0.520288 1.137904 0.127803
v 0.534829 1.099647 0.137652
v 0.572516 1.083801 0.147680
v 0.611274 1.099647 0.152011
v 0.628397 1.137904 0.148110
v 0.613856 1.176160 0.138261
v 0.576169 1.192007 0.128233
v 0.537412 1.176160 0.123902
v 0.512823 1.142795 0.164713
v 0.528009 1.104003 0.170763
v 0.565821 1.087935 0.179931
v 0.604110 1.104003 0.186847
v 0.620445 1.142795 0.187459
v 0.605259 1.181586 0.181408
v 0.567447 1.197654 0.172240
v 0.529159 1.181586 0.165324
v 0.509560 1.143449 0.202696
v 0.524133 1.108117 0.204640
v 0.558744 1.093483 0.211876
v 0.593118 1.108117 0.220165
v 0.607120 1.143449 0.224652
v 0.592546 1.178780 0.222708
v 0.557935 1.193415 0.215472
v 0.523561 1.178780 0.207183
v 0.501268 1.140000 0.238812
v 0.516270 1.104795 0.238914
v 0.551031 1.090213 0.245510
v 0.585188 1.104795 0.254736
v 0.598732 1.140000 0.261188
v 0.583730 1.175205 0.261086
v 0.548969 1.189787 0.254490
v 0.514812 1.175205 0.245264
vn -0.4695 -0.1477 0.8705
vn 0.2447 -0.4201 0.8738
vn 0.8171 -0.4459 0.3653
vn 0.9111 -0.2070 -0.3566
vn 0.4718 0.1537 -0.8682
vn -0.2436 0.4234 -0.8726
vn -0.8171 0.4459 -0.3653
vn -0.9100 0.2097 0.3577
vn -0.6549 -0.2140 0.7248
vn 0.0381 -0.5014 0.8644
vn 0.7111 -0.4962 0.4981
vn 0.9664 -0.1993 -0.1621
vn 0.6547 0.2134 -0.7252
vn -0.0382 0.5011 -0.8645
vn -0.7111 0.4962 -0.4981
vn -0.9665 0.1990 0.1619
vn -0.8064 -0.2503 0.5357
vn -0.1717 -0.5886 0.7900
vn 0.5651 -0.5836 0.5832
vn 0.9713 -0.2357 0.0323
vn 0.8062 0.2494 -0.5364
vn 0.1715 0.5879 -0.7906
vn -0.5651 0.5835 -0.5832
vn -0.9713 0.2355 -0.0325
vn -0.8854 -0.2867 0.3658
vn -0.3046 -0.6787 0.6683
vn 0.4550 -0.6747 0.5811
vn 0.9495 -0.2747 0.1516
vn 0.8853 0.2858 -0.3668
vn 0.3045 0.6778 -0.6693
vn -0.4550 0.6746 -0.5813
vn -0.9495 0.2746 -0.1517
vn -0.9212 -0.3184 0.2237
vn -0.3779 -0.7584 0.5311
vn 0.3864 -0.7556 0.5290
vn 0.9261 -0.3095 0.2157
vn 0.9212 0.3177 -0.2247
vn 0.3779 0.7575 -0.5323
vn -0.3864 0.7554 -0.5293
vn -0.9261 0.3095 -0.2158
vn -0.9331 -0.3435 0.1067
vn -0.4112 -0.8216 0.3948
vn 0.3508 -0.8197 0.4527
vn 0.9091 -0.3372 0.2447
vn 0.9331 0.3430 -0.1076
vn 0.4113 0.8210 -0.3960
vn -0.3508 0.8196 -0.4530
vn -0.9091 0.3372 -0.2447
vn -0.9322 -0.3617 0.0104
vn -0.4195 -0.8678 0.2663
vn 0.3382 -0.8667 0.3668
vn 0.8992 -0.3575 0.2522
vn 0.9323 0.3615 -0.0111
vn 0.4197 0.8674 -0.2673
vn -0.3381 0.8666 -0.3671
vn -0.8992 0.3575 -0.2522
vn -0.9249 -0.3739 -0.0694
vn -0.4127 -0.8989 0.1474
vn 0.3404 -0.8982 0.2782
vn 0.8954 -0.3712 0.2459
vn 0.9249 0.3738 0.0689
vn 0.4128 0.8987 -0.1481
vn -0.3404 0.8981 -0.2784
vn -0.8954 0.3712 -0.2459
vn -0.9145 -0.3810 -0.1363
vn -0.3971 -0.9170 0.0370
vn 0.3522 -0.9167 0.1888
vn 0.8962 -0.3794 0.2299
vn 0.9146 0.3809 0.1358
vn 0.3972 0.9170 -0.0376
vn -0.3522 0.9167 -0.1888
vn -0.8962 0.3794 -0.2298
vn -0.9234 -0.3779 -0.0667
vn -0.4023 -0.9131 0.0671
vn 0.3379 -0.9130 0.2287
vn 0.8673 -0.3773 0.3246
vn 0.8735 0.3831 0.3003
vn 0.3519 0.9206 0.1693
vn -0.3904 0.9206 0.0069
vn -0.9194 0.3826 -0.0917
vn -0.8924 -0.3812 -0.2415
vn -0.3534 -0.9198 -0.1704
vn 0.3920 -0.9200 0.0010
vn 0.9083 -0.3814 0.1721
vn 0.8926 0.3812 0.2407
vn 0.3542 0.9201 0.1670
vn -0.3913 0.9202 -0.0039
vn -0.9082 0.3814 -0.1725
vn -0.3325 -0.8823 -0.3333
vn -0.2228 -0.0921 0.9705
vt 0.355268 0.207076
vt 0.441592 0.162729
vt 0.461647 0.265706
vt 0.381964 0.312827
vt 0.532594 0.144360
vt 0.557606 0.246188
vt 0.791671 0.144360
vt 0.882576 0.162729
vt 0.824801 0.265706
vt 0.741874 0.246188
vt 0.968971 0.207076
vt 0.913662 0.312827
vt 0.543887 0.207076
vt 0.457563 0.251422
vt 0.517218 0.359949
vt 0.596901 0.312827
vt 0.366561 0.269791
vt 0.421258 0.379467
vt 0.958082 0.269791
vt 0.867177 0.251422
vt 0.845061 0.359949
vt 0.927988 0.379467
vt 0.780782 0.207076
vt 0.756199 0.312827
vt 0.457415 0.350656
vt 0.393275 0.405694
vt 0.556684 0.327859
vt 0.745336 0.350656
vt 0.681594 0.327859
vt 0.830742 0.405694
vt 0.577356 0.460732
vt 0.641496 0.405694
vt 0.478086 0.483529
vt 0.819302 0.460732
vt 0.883043 0.483529
vt 0.733896 0.405694
vt 0.676856 0.350656
vt 0.633819 0.421706
vt 0.694332 0.486004
vt 0.552620 0.395072
vt 0.454783 0.421706
vt 0.556684 0.681347
vt 0.632933 0.745089
vt 0.639987 0.668158
vt 0.552620 0.622833
vt 0.743244 0.486004
vt 0.668405 0.421706
vt 0.887782 0.460732
vt 0.803757 0.550303
vt 0.516873 0.576936
vt 0.614710 0.550303
vt 0.478086 0.882796
vt 0.401838 0.819055
vt 0.429507 0.768924
vt 0.516873 0.814249
vt 0.769171 0.550303
vt 0.581753 0.480951
vt 0.638957 0.554085
vt 0.454783 0.633572
vt 0.547320 0.561987
vt 0.451936 0.581506
vt 0.640071 0.591587
vt 0.653213 0.554085
vt 0.591834 0.480951
vt 0.710417 0.627218
vt 0.614710 0.803510
vt 0.538334 0.729688
vt 0.633717 0.710170
vt 0.445582 0.700089
vt 0.700336 0.627218
vt 0.520773 0.529733
vt 0.571125 0.610264
vt 0.540254 0.496642
vt 0.446909 0.520526
vt 0.635171 0.513217
vt 0.560789 0.610264
vt 0.513464 0.529733
vt 0.611141 0.690795
vt 0.545617 0.634778
vt 0.638963 0.610894
vt 0.450701 0.618203
vt 0.618450 0.690795
vt 0.452147 0.568697
vt 0.494079 0.654868
vt 0.530757 0.426373
vt 0.438719 0.451900
vt 0.626092 0.432204
vt 0.466223 0.654868
vt 0.432451 0.568697
vt 0.508155 0.741040
vt 0.542012 0.533435
vt 0.634050 0.507908
vt 0.446678 0.527604
vt 0.527851 0.741040
vt 0.377636 0.598086
vt 0.410598 0.688226
vt 0.518619 0.351911
vt 0.427221 0.377389
vt 0.613451 0.348844
vt 0.370230 0.688226
vt 0.349091 0.598086
vt 0.403193 0.778365
vt 0.530346 0.428423
vt 0.621744 0.402946
vt 0.435514 0.431490
vt 0.431737 0.778365
vt 0.299230 0.617999
vt 0.323087 0.710665
vt 0.504117 0.274695
vt 0.412830 0.298983
vt 0.597996 0.264203
vt 0.273900 0.710665
vt 0.264450 0.617999
vt 0.297757 0.803330
vt 0.512964 0.321798
vt 0.604252 0.297510
vt 0.419086 0.332290
vt 0.332537 0.803330
vt 0.219029 0.628550
vt 0.233684 0.722512
vt 0.487901 0.196574
vt 0.396311 0.218782
vt 0.580644 0.179823
vt 0.178588 0.722512
vt 0.180070 0.628550
vt 0.193243 0.816473
vt 0.491838 0.215204
vt 0.583428 0.192996
vt 0.399095 0.231955
vt 0.232202 0.816473
vt 0.136971 0.638515
vt 0.141680 0.724095
vt 0.470758 0.119198
vt 0.386922 0.136724
vt 0.554020 0.099119
vt 0.088499 0.724095
vt 0.099367 0.638515
vt 0.093207 0.809675
vt 0.468798 0.110486
vt 0.552634 0.092960
vt 0.385536 0.130564
vt 0.130811 0.809675
vt 0.053951 0.630468
vt 0.054198 0.715742
vt 0.452074 0.037728
vt 0.367876 0.053704
vt 0.534810 0.015380
vt 0.000000 0.715742
vt 0.015627 0.630468
vt 0.000247 0.801016
vt 0.447081 0.015977
vt 0.531279 0.000000
vt 0.364345 0.038324
vt 0.038571 0.801016
vt 0.324189 0.866930
vt 0.366561 0.957835
vt 0.457563 1.000000
vt 0.543887 0.968724
vt 0.574966 0.882329
vt 0.532594 0.791424
vt 0.441592 0.749259
vt 0.355268 0.780535
vt 0.331537 0.715742
vt 0.367876 0.630468
vt 0.452074 0.595146
vt 0.534810 0.630468
vt 0.567618 0.715742
vt 0.531279 0.801016
vt 0.447081 0.836338
vt 0.364345 0.801016
s 0
usemtl Mat_ArmTube_+1_Baked
f 401/382/307 402/383/307 410/384/307 409/385/307
f 402/383/308 403/386/308 411/387/308 410/384/308
f 403/388/309 404/389/309 412/390/309 411/391/309
f 404/389/310 405/392/310 413/393/310 412/390/310
f 405/394/311 406/395/311 414/396/311 413/397/311
f 406/395/312 407/398/312 415/399/312 414/396/312
f 407/400/313 408/401/313 416/402/313 415/403/313
f 408/401/314 401/404/314 409/405/314 416/402/314
f 409/385/315 410/384/315 418/406/315 417/407/315
f 410/384/316 411/387/316 419/408/316 418/406/316
f 411/391/317 412/390/317 420/409/317 419/410/317
f 412/390/318 413/393/318 421/411/318 420/409/318
f 413/397/319 414/396/319 422/412/319 421/413/319
f 414/396/320 415/399/320 423/414/320 422/412/320
f 415/403/321 416/402/321 424/415/321 423/416/321
f 416/402/322 409/405/322 417/417/322 424/415/322
f 417/417/323 418/418/323 426/419/323 425/420/323
f 418/406/324 419/408/324 427/421/324 426/422/324
f 419/423/325 420/424/325 428/425/325 427/426/325
f 420/409/326 421/411/326 429/427/326 428/428/326
f 421/411/327 422/429/327 430/430/327 429/427/327
f 422/412/328 423/414/328 431/431/328 430/432/328
f 423/433/329 424/434/329 432/435/329 431/436/329
f 424/415/330 417/417/330 425/420/330 432/437/330
f 425/420/331 426/419/331 434/438/331 433/439/331
f 426/440/332 427/426/332 435/441/332 434/442/332
f 427/426/333 428/425/333 436/443/333 435/441/333
f 428/428/334 429/427/334 437/444/334 436/445/334
f 429/427/335 430/430/335 438/446/335 437/444/335
f 430/447/336 431/436/336 439/448/336 438/449/336
f 431/436/337 432/435/337 440/450/337 439/448/337
f 432/437/338 425/420/338 433/439/338 440/451/338
f 433/439/339 434/438/339 442/452/339 441/453/339
f 434/442/340 435/441/340 443/454/340 442/455/340
f 435/441/341 436/443/341 444/456/341 443/454/341
f 436/445/342 437/444/342 445/457/342 444/458/342
f 437/444/343 438/446/343 446/459/343 445/457/343
f 438/449/344 439/448/344 447/460/344 446/461/344
f 439/448/345 440/450/345 448/462/345 447/460/345
f 440/451/346 433/439/346 441/453/346 448/463/346
f 441/453/347 442/452/347 450/464/347 449/465/347
f 442/455/348 443/454/348 451/466/348 450/467/348
f 443/454/349 444/456/349 452/468/349 451/466/349
f 444/458/350 445/457/350 453/469/350 452/470/350
f 445/457/351 446/459/351 454/471/351 453/469/351
f 446/461/352 447/460/352 455/472/352 454/473/352
f 447/460/353 448/462/353 456/474/353 455/472/353
f 448/463/354 441/453/354 449/465/354 456/475/354
f 449/465/355 450/464/355 458/476/355 457/477/355
f 450/467/356 451/466/356 459/478/356 458/479/356
f 451/466/357 452/468/357 460/480/357 459/478/357
f 452/470/358 453/469/358 461/481/358 460/482/358
f 453/469/359 454/471/359 462/483/359 461/481/359
f 454/473/360 455/472/360 463/484/360 462/485/360
f 455/472/361 456/474/361 464/486/361 463/484/361
f 456/475/362 449/465/362 457/477/362 464/487/362
f 457/477/363 458/476/363 466/488/363 465/489/363
f 458/479/364 459/478/364 467/490/364 466/491/364
f 459/478/365 460/480/365 468/492/365 467/490/365
f 460/482/366 461/481/366 469/493/366 468/494/366
f 461/481/367 462/483/367 470/495/367 469/493/367
f 462/485/368 463/484/368 471/496/368 470/497/368
f 463/484/369 464/486/369 472/498/369 471/496/369
f 464/487/370 457/477/370 465/489/370 472/499/370
f 465/489/371 466/488/371 474/500/371 473/501/371
f 466/491/372 467/490/372 475/502/372 474/503/372
f 467/490/373 468/492/373 476/504/373 475/502/373
f 468/494/374 469/493/374 477/505/374 476/506/374
f 469/493/375 470/495/375 478/507/375 477/505/375
f 470/497/376 471/496/376 479/508/376 478/509/376
f 471/496/377 472/498/377 480/510/377 479/508/377
f 472/499/378 465/489/378 473/501/378 480/511/378
f 473/501/379 474/500/379 482/512/379 481/513/379
f 474/503/380 475/502/380 483/514/380 482/515/380
f 475/502/381 476/504/381 484/516/381 483/514/381
f 476/506/382 477/505/382 485/517/382 484/518/382
f 477/505/383 478/507/383 486/519/383 485/517/383
f 478/509/384 479/508/384 487/520/384 486/521/384
f 479/508/385 480/510/385 488/522/385 487/520/385
f 480/511/386 473/501/386 481/513/386 488/523/386
f 481/513/387 482/512/387 490/524/387 489/525/387
f 482/515/388 483/514/388 491/526/388 490/527/388
f 483/514/389 484/516/389 492/528/389 491/526/389
f 484/518/390 485/517/390 493/529/390 492/530/390
f 485/517/391 486/519/391 494/531/391 493/529/391
f 486/521/392 487/520/392 495/532/392 494/533/392
f 487/520/393 488/522/393 496/534/393 495/532/393
f 488/523/394 481/513/394 489/525/394 496/535/394
f 408/536/395 407/537/395 406/538/395 405/539/395 404/540/395 403/541/395 402/542/395 401/543/395
f 489/544/396 490/545/396 491/546/396 492/547/396 493/548/396 494/549/396 495/550/396 496/551/396
o SeatCushion
v -0.360000 0.940000 0.370000
v 0.360000 0.940000 0.370000
v 0.460000 0.940000 0.270000
v 0.460000 0.940000 -0.310000
v 0.360000 0.940000 -0.410000
v -0.360000 0.940000 -0.410000
v -0.460000 0.940000 -0.310000
v -0.460000 0.940000 0.270000
v -0.360000 1.035000 0.370000
v 0.360000 1.035000 0.370000
v 0.460000 1.035000 0.270000
v 0.460000 1.035000 -0.310000
v 0.360000 1.035000 -0.410000
v -0.360000 1.035000 -0.410000
v -0.460000 1.035000 -0.310000
v -0.460000 1.035000 0.270000
v -0.335000 1.060000 0.345000
v 0.335000 1.060000 0.345000
v 0.435000 1.060000 0.245000
v 0.435000 1.060000 -0.285000
v 0.335000 1.060000 -0.385000
v -0.335000 1.060000 -0.385000
v -0.435000 1.060000 -0.285000
v -0.435000 1.060000 0.245000
v 0.000000 1.075000 -0.020000
vn -0.0000 -0.0000 1.0000
vn 0.7071 -0.0000 0.7071
vn 1.0000 -0.0000 -0.0000
vn 0.7071 -0.0000 -0.7071
vn -0.0000 -0.0000 -1.0000
vn -0.7071 -0.0000 -0.7071
vn -1.0000 -0.0000 -0.0000
vn -0.7071 -0.0000 0.7071
vn -0.0000 0.7071 0.7071
vn 0.4082 0.8165 0.4082
vn 0.7071 0.7071 -0.0000
vn 0.4082 0.8165 -0.4082
vn -0.0000 0.7071 -0.7071
vn -0.4082 0.8165 -0.4082
vn -0.7071 0.7071 -0.0000
vn -0.4082 0.8165 0.4082
vn -0.0000 0.9992 0.0411
vn 0.0214 0.9995 0.0214
vn 0.0345 0.9994 -0.0000
vn 0.0214 0.9995 -0.0214
vn -0.0000 0.9992 -0.0411
vn -0.0214 0.9995 -0.0214
vn -0.0345 0.9994 -0.0000
vn -0.0214 0.9995 0.0214
vn -0.0000 -1.0000 -0.0000
vt 0.108696 0.350543
vt 0.891304 0.350543
vt 0.891304 0.453804
vt 0.108696 0.453804
vt 1.000000 0.350543
vt 1.000000 0.453804
vt 0.184783 0.350543
vt 0.815217 0.350543
vt 0.815217 0.453804
vt 0.184783 0.453804
vt 0.000000 0.350543
vt 0.000000 0.453804
vt 0.108696 0.000000
vt 0.891304 0.000000
vt 0.864130 0.027174
vt 0.135870 0.027174
vt 1.000000 0.108696
vt 0.972826 0.135870
vt 1.000000 0.739130
vt 0.972826 0.711956
vt 0.891304 0.847826
vt 0.864130 0.820652
vt 0.108696 0.847826
vt 0.135870 0.820652
vt 0.000000 0.739130
vt 0.027174 0.711956
vt 0.000000 0.108696
vt 0.027174 0.135870
vt 0.500000 0.423913
s 0
usemtl Mat_SeatCushion_Baked
f 497/552/397 498/553/397 506/554/397 505/555/397
f 498/553/398 499/556/398 507/557/398 506/554/398
f 499/558/399 500/559/399 508/560/399 507/561/399
f 500/556/400 501/553/400 509/554/400 508/557/400
f 501/553/401 502/552/401 510/555/401 509/554/401
f 502/552/402 503/562/402 511/563/402 510/555/402
f 503/559/403 504/558/403 512/561/403 511/560/403
f 504/562/404 497/552/404 505/555/404 512/563/404
f 505/564/405 506/565/405 514/566/405 513/567/405
f 506/565/406 507/568/406 515/569/406 514/566/406
f 507/568/407 508/570/407 516/571/407 515/569/407
f 508/570/408 509/572/408 517/573/408 516/571/408
f 509/572/409 510/574/409 518/575/409 517/573/409
f 510/574/410 511/576/410 519/577/410 518/575/410
f 511/576/411 512/578/411 520/579/411 519/577/411
f 512/578/412 505/564/412 513/567/412 520/579/412
f 513/567/413 514/566/413 521/580/413
f 514/566/414 515/569/414 521/580/414
f 515/569/415 516/571/415 521/580/415
f 516/571/416 517/573/416 521/580/416
f 517/573/417 518/575/417 521/580/417
f 518/575/418 519/577/418 521/580/418
f 519/577/419 520/579/419 521/580/419
f 520/579/420 513/567/420 521/580/420
f 504/578/421 503/576/421 502/574/421 501/572/421 500/570/421 499/568/421 498/565/421 497/564/421
o BackCushion_Lumbar
v -0.225000 1.062550 -0.279653
v 0.225000 1.062550 -0.279653
v 0.275000 1.043820 -0.326012
v 0.275000 1.028836 -0.363099
v 0.225000 1.010105 -0.409458
v -0.225000 1.010105 -0.409458
v -0.275000 1.028836 -0.363099
v -0.275000 1.043820 -0.326012
v -0.225000 1.271167 -0.363939
v 0.225000 1.271167 -0.363939
v 0.275000 1.252436 -0.410298
v 0.275000 1.237452 -0.447386
v 0.225000 1.218722 -0.493745
v -0.225000 1.218722 -0.493745
v -0.275000 1.237452 -0.447386
v -0.275000 1.252436 -0.410298
v -0.200000 1.284981 -0.396484
v 0.200000 1.284981 -0.396484
v 0.250000 1.266251 -0.442843
v 0.250000 1.269997 -0.433571
v 0.200000 1.251266 -0.479931
v -0.200000 1.251266 -0.479931
v -0.250000 1.269997 -0.433571
v -0.250000 1.266251 -0.442843
v 0.000000 1.277395 -0.441953
vn -0.0000 0.3746 0.9272
vn 0.7071 0.2649 0.6556
vn 1.0000 -0.0000 -0.0000
vn 0.7071 -0.2649 -0.6556
vn -0.0000 -0.3746 -0.9272
vn -0.7071 -0.2649 -0.6556
vn -1.0000 -0.0000 -0.0000
vn -0.7071 0.2649 0.6556
vn -0.0000 0.9205 0.3907
vn 0.4082 0.9100 0.0727
vn 0.7071 0.6556 -0.2649
vn 0.4082 0.6041 -0.6844
vn -0.0000 0.3907 -0.9205
vn -0.4082 0.6041 -0.6844
vn -0.7071 0.6556 -0.2649
vn -0.4082 0.9100 0.0727
vn -0.0000 0.9864 -0.1646
vn 0.0407 0.9409 -0.3362
vn -0.0400 -0.9264 0.3743
vn 0.0407 0.9104 -0.4118
vn -0.0000 0.8238 -0.5668
vn -0.0407 0.9104 -0.4118
vn 0.0400 -0.9264 0.3743
vn -0.0407 0.9409 -0.3362
vn -0.0000 -0.9272 0.3746
vt 0.090909 0.000000
vt 0.909091 0.000000
vt 0.909091 0.409091
vt 0.090909 0.409091
vt 1.000000 0.000000
vt 1.000000 0.409091
vt 0.463636 0.000000
vt 0.536364 0.000000
vt 0.536364 0.409091
vt 0.463636 0.409091
vt 0.000000 0.000000
vt 0.000000 0.409091
vt 0.090909 0.109091
vt 0.909091 0.109091
vt 0.863636 0.154545
vt 0.136364 0.154545
vt 1.000000 0.200000
vt 0.954545 0.245455
vt 1.000000 0.272727
vt 0.954545 0.227273
vt 0.909091 0.363636
vt 0.863636 0.318182
vt 0.136364 0.454545
vt 0.863636 0.454545
vt 0.090909 0.363636
vt 0.000000 0.272727
vt 0.045455 0.227273
vt 0.136364 0.318182
vt 0.000000 0.200000
vt 0.045455 0.245455
vt 0.500000 0.236364
s 0
usemtl Mat_BackCushion_Lumbar_Baked
f 522/581/422 523/582/422 531/583/422 530/584/422
f 523/582/423 524/585/423 532/586/423 531/583/423
f 524/587/424 525/588/424 533/589/424 532/590/424
f 525/585/425 526/582/425 534/583/425 533/586/425
f 526/582/426 527/581/426 535/584/426 534/583/426
f 527/581/427 528/591/427 536/592/427 535/584/427
f 528/588/428 529/587/428 537/590/428 536/589/428
f 529/591/429 522/581/429 530/584/429 537/592/429
f 530/593/430 531/594/430 539/595/430 538/596/430
f 531/594/431 532/597/431 540/598/431 539/595/431
f 532/597/432 533/599/432 541/600/432 540/598/432
f 533/599/433 534/601/433 542/602/433 541/600/433
f 534/583/434 535/584/434 543/603/434 542/604/434
f 535/605/435 536/606/435 544/607/435 543/608/435
f 536/606/436 537/609/436 545/610/436 544/607/436
f 537/609/437 530/593/437 538/596/437 545/610/437
f 538/596/438 539/595/438 546/611/438
f 539/595/439 540/598/439 546/611/439
f 540/598/440 541/600/440 546/611/440
f 541/600/441 542/602/441 546/611/441
f 542/602/442 543/608/442 546/611/442
f 543/608/443 544/607/443 546/611/443
f 544/607/444 545/610/444 546/611/444
f 545/610/445 538/596/445 546/611/445
f 529/609/446 528/606/446 527/605/446 526/601/446 525/599/446 524/597/446 523/594/446 522/593/446
o BackCushion_Main
v -0.255000 1.312890 -0.380797
v 0.255000 1.312890 -0.380797
v 0.325000 1.286667 -0.445699
v 0.325000 1.286667 -0.445699
v 0.255000 1.260445 -0.510602
v -0.255000 1.260445 -0.510602
v -0.325000 1.286667 -0.445699
v -0.325000 1.286667 -0.445699
v -0.255000 1.776482 -0.568100
v 0.255000 1.776482 -0.568100
v 0.325000 1.750259 -0.633003
v 0.325000 1.750259 -0.633003
v 0.255000 1.724037 -0.697906
v -0.255000 1.724037 -0.697906
v -0.325000 1.750259 -0.633003
v -0.325000 1.750259 -0.633003
v -0.225000 1.793059 -0.607154
v 0.225000 1.793059 -0.607154
v 0.295000 1.766837 -0.672056
v 0.295000 1.789313 -0.616425
v 0.225000 1.763091 -0.681328
v -0.225000 1.763091 -0.681328
v -0.295000 1.789313 -0.616425
v -0.295000 1.766837 -0.672056
v 0.000000 1.789201 -0.648736
vn -0.0000 -0.3746 -0.9272
vn -0.7071 -0.2649 -0.6556
vn -0.0000 0.9272 -0.3746
vn -0.7071 0.2649 0.6556
vn -0.0000 0.3746 0.9272
vn 0.7071 0.2649 0.6556
vn 0.7071 -0.2649 -0.6556
vn -0.0000 -0.9205 -0.3907
vn -0.4082 -0.9100 -0.0727
vn 0.7071 0.6556 -0.2649
vn -0.4082 -0.6041 0.6844
vn -0.0000 -0.3907 0.9205
vn 0.4082 -0.6041 0.6844
vn -0.7071 0.6556 -0.2649
vn 0.4082 -0.9100 -0.0727
vn -0.0000 -0.9957 0.0924
vn -0.0452 -0.9422 0.3319
vn 0.0406 0.9264 -0.3743
vn -0.0452 -0.9084 0.4157
vn -0.0000 -0.7804 0.6252
vn 0.0452 -0.9084 0.4157
vn -0.0406 0.9264 -0.3743
vn 0.0452 -0.9422 0.3319
vt 0.107692 0.000000
vt 0.107692 0.769231
vt 0.892308 0.769231
vt 0.892308 0.000000
vt 0.392308 0.000000
vt 0.392308 0.769231
vt 0.500000 0.769231
vt 0.500000 0.000000
vt 1.000000 0.416923
vt 0.607692 0.769231
vt 0.607692 0.000000
vt 0.000000 0.416923
vt 0.153846 0.815385
vt 0.846154 0.815385
vt 0.892308 0.309231
vt 0.846154 0.355385
vt 0.953846 0.463077
vt 0.546154 0.815385
vt 0.453846 0.815385
vt 0.953846 0.370769
vt 0.846154 0.478461
vt 0.892308 0.524615
vt 0.107692 0.524615
vt 0.153846 0.478461
vt 0.046154 0.370769
vt 0.046154 0.463077
vt 0.153846 0.355385
vt 0.107692 0.309231
vt 0.500000 0.416923
s 0
usemtl Mat_BackCushion_Main_Baked
f 547/612/447 555/613/447 556/614/447 548/615/447
f 548/616/448 556/617/448 557/618/448 549/619/448
f 549/620/449 557/620/449 558/620/449 550/620/449
f 550/619/450 558/618/450 559/621/450 551/622/450
f 551/615/451 559/614/451 560/613/451 552/612/451
f 552/622/452 560/621/452 561/618/452 553/619/452
f 553/623/449 561/623/449 562/623/449 554/623/449
f 554/619/453 562/618/453 555/617/453 547/616/453
f 555/613/454 563/624/454 564/625/454 556/614/454
f 556/626/455 564/627/455 565/628/455 557/620/455
f 557/618/456 565/629/456 566/630/456 558/618/456
f 558/620/457 566/631/457 567/632/457 559/633/457
f 559/614/458 567/625/458 568/624/458 560/613/458
f 560/634/459 568/635/459 569/636/459 561/623/459
f 561/618/460 569/630/460 570/629/460 562/618/460
f 562/623/461 570/637/461 563/638/461 555/639/461
f 563/638/462 571/640/462 564/627/462
f 564/627/463 571/640/463 565/628/463
f 565/628/464 571/640/464 566/631/464
f 566/631/465 571/640/465 567/632/465
f 567/632/466 571/640/466 568/635/466
f 568/635/467 571/640/467 569/636/467
f 569/636/468 571/640/468 570/637/468
f 570/637/469 571/640/469 563/638/469
f 554/623/449 547/639/449 548/626/449 549/620/449 550/620/449 551/633/449 552/634/449 553/623/449
o BackCushion_Head
v -0.190000 1.828367 -0.599848
v 0.190000 1.828367 -0.599848
v 0.250000 1.805890 -0.655479
v 0.250000 1.802144 -0.664751
v 0.190000 1.779668 -0.720382
v -0.190000 1.779668 -0.720382
v -0.250000 1.802144 -0.664751
v -0.250000 1.805890 -0.655479
v -0.190000 1.962808 -0.654166
v 0.190000 1.962808 -0.654166
v 0.250000 1.940332 -0.709797
v 0.250000 1.936586 -0.719069
v 0.190000 1.914109 -0.774700
v -0.190000 1.914109 -0.774700
v -0.250000 1.936586 -0.719069
v -0.250000 1.940332 -0.709797
v -0.165000 1.976623 -0.686711
v 0.165000 1.976623 -0.686711
v 0.225000 1.954146 -0.742342
v 0.225000 1.969131 -0.705254
v 0.165000 1.946654 -0.760885
v -0.165000 1.946654 -0.760885
v -0.225000 1.969131 -0.705254
v -0.225000 1.954146 -0.742342
v 0.000000 1.970910 -0.727544
vn -0.0000 -0.3746 -0.9272
vn -0.7071 -0.2649 -0.6556
vn -1.0000 -0.0000 -0.0000
vn -0.7071 0.2649 0.6556
vn -0.0000 0.3746 0.9272
vn 0.7071 0.2649 0.6556
vn 1.0000 -0.0000 -0.0000
vn 0.7071 -0.2649 -0.6556
vn -0.0000 -0.9205 -0.3907
vn -0.4082 -0.9100 -0.0727
vn 0.7071 0.6556 -0.2649
vn -0.4082 -0.6041 0.6844
vn -0.0000 -0.3907 0.9205
vn 0.4082 -0.6041 0.6844
vn -0.7071 0.6556 -0.2649
vn 0.4082 -0.9100 -0.0727
vn -0.0000 -0.9904 0.1385
vn -0.0487 -0.9432 0.3286
vn 0.0444 0.9263 -0.3742
vn -0.0487 -0.9068 0.4188
vn -0.0000 -0.8086 0.5883
vn 0.0487 -0.9068 0.4188
vn -0.0444 0.9263 -0.3742
vn 0.0487 -0.9432 0.3286
vn -0.0000 0.9272 -0.3746
vt 0.120000 0.000000
vt 0.120000 0.290000
vt 0.880000 0.290000
vt 0.880000 0.000000
vt 1.000000 0.290000
vt 1.000000 0.000000
vt 0.490000 0.000000
vt 0.490000 0.290000
vt 0.510000 0.290000
vt 0.510000 0.000000
vt 0.000000 0.290000
vt 0.000000 0.000000
vt 0.120000 0.050000
vt 0.170000 0.100000
vt 0.830000 0.100000
vt 0.880000 0.050000
vt 0.950000 0.220000
vt 1.000000 0.170000
vt 0.950000 0.140000
vt 1.000000 0.190000
vt 0.830000 0.260000
vt 0.880000 0.310000
vt 0.170000 0.260000
vt 0.120000 0.310000
vt 0.050000 0.140000
vt 0.000000 0.190000
vt 0.050000 0.220000
vt 0.000000 0.170000
vt 0.500000 0.180000
s 0
usemtl Mat_BackCushion_Head_Baked
f 572/641/470 580/642/470 581/643/470 573/644/470
f 573/644/471 581/643/471 582/645/471 574/646/471
f 574/647/472 582/648/472 583/649/472 575/650/472
f 575/646/473 583/645/473 584/643/473 576/644/473
f 576/644/474 584/643/474 585/642/474 577/641/474
f 577/641/475 585/642/475 586/651/475 578/652/475
f 578/650/476 586/649/476 587/648/476 579/647/476
f 579/652/477 587/651/477 580/642/477 572/641/477
f 580/653/478 588/654/478 589/655/478 581/656/478
f 581/656/479 589/655/479 590/657/479 582/658/479
f 582/658/480 590/657/480 591/659/480 583/660/480
f 583/660/481 591/659/481 592/661/481 584/662/481
f 584/662/482 592/661/482 593/663/482 585/664/482
f 585/664/483 593/663/483 594/665/483 586/666/483
f 586/666/484 594/665/484 595/667/484 587/668/484
f 587/668/485 595/667/485 588/654/485 580/653/485
f 588/654/486 596/669/486 589/655/486
f 589/655/487 596/669/487 590/657/487
f 590/657/488 596/669/488 591/659/488
f 591/659/489 596/669/489 592/661/489
f 592/661/490 596/669/490 593/663/490
f 593/663/491 596/669/491 594/665/491
f 594/665/492 596/669/492 595/667/492
f 595/667/493 596/669/493 588/654/493
f 579/668/494 572/653/494 573/656/494 574/658/494 575/660/494 576/662/494 577/664/494 578/666/494
o ArmPad_-1
v -0.580000 1.155000 0.450000
v -0.520000 1.155000 0.450000
v -0.480000 1.155000 0.410000
v -0.480000 1.155000 0.090000
v -0.520000 1.155000 0.050000
v -0.580000 1.155000 0.050000
v -0.620000 1.155000 0.090000
v -0.620000 1.155000 0.410000
v -0.580000 1.193000 0.450000
v -0.520000 1.193000 0.450000
v -0.480000 1.193000 0.410000
v -0.480000 1.193000 0.090000
v -0.520000 1.193000 0.050000
v -0.580000 1.193000 0.050000
v -0.620000 1.193000 0.090000
v -0.620000 1.193000 0.410000
v -0.568000 1.205000 0.438000
v -0.532000 1.205000 0.438000
v -0.492000 1.205000 0.398000
v -0.492000 1.205000 0.102000
v -0.532000 1.205000 0.062000
v -0.568000 1.205000 0.062000
v -0.608000 1.205000 0.102000
v -0.608000 1.205000 0.398000
v -0.550000 1.210000 0.250000
vn -0.0000 -0.0000 1.0000
vn 0.7071 -0.0000 0.7071
vn 1.0000 -0.0000 -0.0000
vn 0.7071 -0.0000 -0.7071
vn -0.0000 -0.0000 -1.0000
vn -0.7071 -0.0000 -0.7071
vn -1.0000 -0.0000 -0.0000
vn -0.7071 -0.0000 0.7071
vn -0.0000 0.7071 0.7071
vn 0.4082 0.8165 0.4082
vn 0.7071 0.7071 -0.0000
vn 0.4083 0.8165 -0.4083
vn -0.0000 0.7071 -0.7071
vn -0.4083 0.8165 -0.4082
vn -0.7071 0.7071 -0.0000
vn -0.4083 0.8165 0.4082
vn -0.0000 0.9996 0.0266
vn 0.0243 0.9994 0.0243
vn 0.0859 0.9963 -0.0000
vn 0.0243 0.9994 -0.0243
vn -0.0000 0.9996 -0.0266
vn -0.0243 0.9994 -0.0243
vn -0.0859 0.9963 -0.0000
vn -0.0243 0.9994 0.0243
vn -0.0000 -1.0000 -0.0000
vt 0.325000 0.431250
vt 0.475000 0.431250
vt 0.475000 0.526250
vt 0.325000 0.526250
vt 0.575000 0.431250
vt 0.575000 0.526250
vt 0.000000 0.431250
vt 0.800000 0.431250
vt 0.800000 0.526250
vt 0.000000 0.526250
vt 0.900000 0.431250
vt 0.900000 0.526250
vt 0.225000 0.431250
vt 0.225000 0.526250
vt 0.445000 0.556250
vt 0.355000 0.556250
vt 0.475000 0.000000
vt 0.575000 0.100000
vt 0.545000 0.130000
vt 0.445000 0.030000
vt 0.770000 0.556250
vt 0.030000 0.556250
vt 0.575000 0.900000
vt 0.475000 1.000000
vt 0.445000 0.970000
vt 0.545000 0.870000
vt 0.325000 1.000000
vt 0.225000 0.900000
vt 0.255000 0.870000
vt 0.355000 0.970000
vt 0.225000 0.100000
vt 0.325000 0.000000
vt 0.355000 0.030000
vt 0.255000 0.130000
vt 0.400000 0.500000
s 0
usemtl Mat_ArmPad_-1_Baked
f 597/670/495 598/671/495 606/672/495 605/673/495
f 598/671/496 599/674/496 607/675/496 606/672/496
f 599/676/497 600/677/497 608/678/497 607/679/497
f 600/677/498 601/680/498 609/681/498 608/678/498
f 601/671/499 602/670/499 610/673/499 609/672/499
f 602/670/500 603/682/500 611/683/500 610/673/500
f 603/677/501 604/676/501 612/679/501 611/678/501
f 604/682/502 597/670/502 605/673/502 612/683/502
f 605/673/503 606/672/503 614/684/503 613/685/503
f 606/686/504 607/687/504 615/688/504 614/689/504
f 607/679/505 608/678/505 616/690/505 615/691/505
f 608/692/506 609/693/506 617/694/506 616/695/506
f 609/672/507 610/673/507 618/685/507 617/684/507
f 610/696/508 611/697/508 619/698/508 618/699/508
f 611/678/509 612/679/509 620/691/509 619/690/509
f 612/700/510 605/701/510 613/702/510 620/703/510
f 613/702/511 614/689/511 621/704/511
f 614/689/512 615/688/512 621/704/512
f 615/688/513 616/695/513 621/704/513
f 616/695/514 617/694/514 621/704/514
f 617/694/515 618/699/515 621/704/515
f 618/699/516 619/698/516 621/704/516
f 619/698/517 620/703/517 621/704/517
f 620/703/518 613/702/518 621/704/518
f 604/700/519 603/697/519 602/696/519 601/693/519 600/692/519 599/687/519 598/686/519 597/701/519
o ArmPad_+1
v 0.520000 1.155000 0.450000
v 0.580000 1.155000 0.450000
v 0.620000 1.155000 0.410000
v 0.620000 1.155000 0.090000
v 0.580000 1.155000 0.050000
v 0.520000 1.155000 0.050000
v 0.480000 1.155000 0.090000
v 0.480000 1.155000 0.410000
v 0.520000 1.193000 0.450000
v 0.580000 1.193000 0.450000
v 0.620000 1.193000 0.410000
v 0.620000 1.193000 0.090000
v 0.580000 1.193000 0.050000
v 0.520000 1.193000 0.050000
v 0.480000 1.193000 0.090000
v 0.480000 1.193000 0.410000
v 0.532000 1.205000 0.438000
v 0.568000 1.205000 0.438000
v 0.608000 1.205000 0.398000
v 0.608000 1.205000 0.102000
v 0.568000 1.205000 0.062000
v 0.532000 1.205000 0.062000
v 0.492000 1.205000 0.102000
v 0.492000 1.205000 0.398000
v 0.550000 1.210000 0.250000
vn -0.0000 -0.0000 1.0000
vn 0.7071 -0.0000 0.7071
vn 1.0000 -0.0000 -0.0000
vn 0.7071 -0.0000 -0.7071
vn -0.0000 -0.0000 -1.0000
vn -0.7071 -0.0000 -0.7071
vn -1.0000 -0.0000 -0.0000
vn -0.7071 -0.0000 0.7071
vn -0.0000 0.7071 0.7071
vn 0.4082 0.8165 0.4082
vn 0.7071 0.7071 -0.0000
vn 0.4083 0.8165 -0.4082
vn -0.0000 0.7071 -0.7071
vn -0.4083 0.8165 -0.4082
vn -0.7071 0.7071 -0.0000
vn -0.4083 0.8165 0.4082
vn -0.0000 0.9996 0.0266
vn 0.0243 0.9994 0.0243
vn 0.0859 0.9963 -0.0000
vn 0.0243 0.9994 -0.0243
vn -0.0000 0.9996 -0.0266
vn -0.0243 0.9994 -0.0243
vn -0.0859 0.9963 -0.0000
vn -0.0243 0.9994 0.0243
vn -0.0000 -1.0000 -0.0000
vt 0.325000 0.431250
vt 0.475000 0.431250
vt 0.475000 0.526250
vt 0.325000 0.526250
vt 0.575000 0.431250
vt 0.575000 0.526250
vt 0.000000 0.431250
vt 0.800000 0.431250
vt 0.800000 0.526250
vt 0.000000 0.526250
vt 0.900000 0.431250
vt 0.900000 0.526250
vt 0.225000 0.431250
vt 0.225000 0.526250
vt 0.445000 0.556250
vt 0.355000 0.556250
vt 0.475000 0.000000
vt 0.575000 0.100000
vt 0.545000 0.130000
vt 0.445000 0.030000
vt 0.770000 0.556250
vt 0.030000 0.556250
vt 0.575000 0.900000
vt 0.475000 1.000000
vt 0.445000 0.970000
vt 0.545000 0.870000
vt 0.325000 1.000000
vt 0.225000 0.900000
vt 0.255000 0.870000
vt 0.355000 0.970000
vt 0.225000 0.100000
vt 0.325000 0.000000
vt 0.355000 0.030000
vt 0.255000 0.130000
vt 0.400000 0.500000
s 0
usemtl Mat_ArmPad_+1_Baked
f 622/705/520 623/706/520 631/707/520 630/708/520
f 623/706/521 624/709/521 632/710/521 631/707/521
f 624/711/522 625/712/522 633/713/522 632/714/522
f 625/709/523 626/706/523 634/707/523 633/710/523
f 626/706/524 627/705/524 635/708/524 634/707/524
f 627/715/525 628/712/525 636/713/525 635/716/525
f 628/712/526 629/711/526 637/714/526 636/713/526
f 629/717/527 622/705/527 630/708/527 637/718/527
f 630/708/528 631/707/528 639/719/528 638/720/528
f 631/721/529 632/722/529 640/723/529 639/724/529
f 632/714/530 633/713/530 641/725/530 640/726/530
f 633/727/531 634/728/531 642/729/531 641/730/531
f 634/707/532 635/708/532 643/720/532 642/719/532
f 635/731/533 636/732/533 644/733/533 643/734/533
f 636/713/534 637/714/534 645/726/534 644/725/534
f 637/735/535 630/736/535 638/737/535 645/738/535
f 638/737/536 639/724/536 646/739/536
f 639/724/537 640/723/537 646/739/537
f 640/723/538 641/730/538 646/739/538
f 641/730/539 642/729/539 646/739/539
f 642/729/540 643/734/540 646/739/540
f 643/734/541 644/733/541 646/739/541
f 644/733/542 645/738/542 646/739/542
f 645/738/543 638/737/543 646/739/543
f 629/735/544 628/732/544 627/731/544 626/728/544 625/727/544 624/722/544 623/721/544 622/736/544
o BackRest
v -0.420000 0.978730 -0.353641
v 0.420000 0.978730 -0.353641
v 0.420000 0.978730 -0.353641
v 0.420000 0.922539 -0.492718
v 0.420000 0.922539 -0.492718
v -0.420000 0.922539 -0.492718
v -0.420000 0.922539 -0.492718
v -0.420000 0.978730 -0.353641
v -0.413846 1.055263 -0.390093
v 0.413846 1.055263 -0.390093
v 0.413846 1.055263 -0.390093
v 0.413846 1.004835 -0.514906
v 0.413846 1.004835 -0.514906
v -0.413846 1.004835 -0.514906
v -0.413846 1.004835 -0.514906
v -0.413846 1.055263 -0.390093
v -0.407692 1.131796 -0.426545
v 0.407692 1.131796 -0.426545
v 0.407692 1.131796 -0.426545
v 0.407692 1.087132 -0.537094
v 0.407692 1.087132 -0.537094
v -0.407692 1.087132 -0.537094
v -0.407692 1.087132 -0.537094
v -0.407692 1.131796 -0.426545
v -0.401538 1.208329 -0.462998
v 0.401538 1.208329 -0.462998
v 0.401538 1.208329 -0.462998
v 0.401538 1.169428 -0.559282
v 0.401538 1.169428 -0.559282
v -0.401538 1.169428 -0.559282
v -0.401538 1.169428 -0.559282
v -0.401538 1.208329 -0.462998
v -0.395385 1.285054 -0.498974
v 0.395385 1.285054 -0.498974
v 0.395385 1.285054 -0.498974
v 0.395385 1.251340 -0.582421
v 0.395385 1.251340 -0.582421
v -0.395385 1.251340 -0.582421
v -0.395385 1.251340 -0.582421
v -0.395385 1.285054 -0.498974
v -0.389231 1.363508 -0.530672
v 0.389231 1.363508 -0.530672
v 0.389231 1.363508 -0.530672
v 0.389231 1.329794 -0.614118
v 0.389231 1.329794 -0.614118
v -0.389231 1.329794 -0.614118
v -0.389231 1.329794 -0.614118
v -0.389231 1.363508 -0.530672
v -0.383077 1.441962 -0.562369
v 0.383077 1.441962 -0.562369
v 0.383077 1.441962 -0.562369
v 0.383077 1.408248 -0.645816
v 0.383077 1.408248 -0.645816
v -0.383077 1.408248 -0.645816
v -0.383077 1.408248 -0.645816
v -0.383077 1.441962 -0.562369
v -0.376923 1.520416 -0.594067
v 0.376923 1.520416 -0.594067
v 0.376923 1.520416 -0.594067
v 0.376923 1.486702 -0.677513
v 0.376923 1.486702 -0.677513
v -0.376923 1.486702 -0.677513
v -0.376923 1.486702 -0.677513
v -0.376923 1.520416 -0.594067
v -0.340000 1.598870 -0.625764
v 0.340000 1.598870 -0.625764
v 0.340000 1.598870 -0.625764
v 0.340000 1.565156 -0.709211
v 0.340000 1.565156 -0.709211
v -0.340000 1.565156 -0.709211
v -0.340000 1.565156 -0.709211
v -0.340000 1.598870 -0.625764
v -0.340000 1.677324 -0.657462
v 0.340000 1.677324 -0.657462
v 0.340000 1.677324 -0.657462
v 0.340000 1.643610 -0.740908
v 0.340000 1.643610 -0.740908
v -0.340000 1.643610 -0.740908
v -0.340000 1.643610 -0.740908
v -0.340000 1.677324 -0.657462
v -0.340000 1.757075 -0.685950
v 0.340000 1.757075 -0.685950
v 0.340000 1.757075 -0.685950
v 0.340000 1.719470 -0.779025
v 0.340000 1.719470 -0.779025
v -0.340000 1.719470 -0.779025
v -0.340000 1.719470 -0.779025
v -0.340000 1.757075 -0.685950
v -0.340000 1.836970 -0.714081
v 0.340000 1.836970 -0.714081
v 0.340000 1.836970 -0.714081
v 0.340000 1.795043 -0.817854
v 0.340000 1.795043 -0.817854
v -0.340000 1.795043 -0.817854
v -0.340000 1.795043 -0.817854
v -0.340000 1.836970 -0.714081
v -0.313205 1.916865 -0.742213
v 0.313205 1.916865 -0.742213
v 0.361923 1.898615 -0.787383
v 0.361923 1.888865 -0.811514
v 0.313205 1.870615 -0.856684
v -0.313205 1.870615 -0.856684
v -0.361923 1.888865 -0.811514
v -0.361923 1.898615 -0.787383
v -0.285000 1.996759 -0.770344
v 0.285000 1.996759 -0.770344
v 0.385000 1.959299 -0.863062
v 0.385000 1.983648 -0.802795
v 0.285000 1.946188 -0.895514
v -0.285000 1.946188 -0.895514
v -0.385000 1.983648 -0.802795
v -0.385000 1.959299 -0.863062
v -0.275000 2.018862 -0.822416
v 0.275000 2.018862 -0.822416
v 0.325000 2.000132 -0.868775
v 0.325000 2.016989 -0.827052
v 0.275000 1.998259 -0.873411
v -0.275000 1.998259 -0.873411
v -0.325000 2.016989 -0.827052
v -0.325000 2.000132 -0.868775
vn -0.0000 -0.4300 -0.9028
vn -0.0000 0.9272 -0.3746
vn -0.9974 -0.0673 0.0272
vn -0.0000 0.2603 0.9655
vn 0.9974 -0.0673 0.0272
vn -0.0000 -0.4245 -0.9054
vn -0.0000 0.2718 0.9623
vn -0.0000 -0.3746 -0.9272
vn -0.0000 0.3746 0.9272
vn -0.9165 -0.3708 0.1498
vn 0.9165 -0.3708 0.1498
vn -1.0000 -0.0000 -0.0000
vn 1.0000 -0.0000 -0.0000
vn -0.0000 -0.3364 -0.9417
vn -0.0000 0.4490 0.8935
vn -0.0000 -0.3321 -0.9432
vn -0.0000 0.4570 0.8895
vn -0.6945 -0.4348 -0.5733
vn -0.9680 0.2325 -0.0940
vn -0.6983 0.1154 0.7065
vn 0.6983 0.1154 0.7065
vn 0.9680 0.2325 -0.0940
vn 0.6945 -0.4348 -0.5733
vn -0.6929 -0.4445 -0.5677
vn 0.9648 -0.2440 0.0986
vn -0.6969 0.1044 0.7095
vn 0.6969 0.1044 0.7095
vn -0.9648 -0.2440 0.0986
vn 0.6929 -0.4445 -0.5677
vn -0.0000 -0.9205 -0.3907
vn -0.5298 -0.8125 -0.2431
vn 0.5547 0.7715 -0.3117
vn -0.5298 -0.4156 0.7393
vn -0.0000 -0.3907 0.9205
vn 0.5298 -0.4156 0.7393
vn -0.5547 0.7715 -0.3117
vn 0.5298 -0.8125 -0.2431
vn -0.0000 -0.9272 0.3746
vt 0.000000 0.000000
vt 0.005594 0.076923
vt 0.758042 0.076923
vt 0.763636 0.000000
vt 0.763636 0.450000
vt 0.758042 0.454662
vt 0.313636 0.000000
vt 0.318298 0.076923
vt 0.440676 0.076923
vt 0.450000 0.000000
vt 0.763636 0.586364
vt 0.758042 0.577040
vt 0.000000 0.586364
vt 0.005594 0.577040
vt 0.000000 0.450000
vt 0.005594 0.454662
vt 0.011189 0.153846
vt 0.752448 0.153846
vt 0.752448 0.459324
vt 0.322960 0.153846
vt 0.431352 0.153846
vt 0.752448 0.567716
vt 0.011189 0.567716
vt 0.011189 0.459324
vt 0.016783 0.230769
vt 0.746853 0.230769
vt 0.746853 0.463986
vt 0.327622 0.230769
vt 0.422028 0.230769
vt 0.746853 0.558392
vt 0.016783 0.558392
vt 0.016783 0.463986
vt 0.022378 0.307692
vt 0.741259 0.307692
vt 0.741259 0.468182
vt 0.331818 0.307692
vt 0.413636 0.307692
vt 0.741259 0.550000
vt 0.022378 0.550000
vt 0.022378 0.468182
vt 0.027972 0.384615
vt 0.735664 0.384615
vt 0.735664 0.468182
vt 0.331818 0.384615
vt 0.413636 0.384615
vt 0.735664 0.550000
vt 0.027972 0.550000
vt 0.027972 0.468182
vt 0.033566 0.461538
vt 0.730070 0.461538
vt 0.730070 0.468182
vt 0.331818 0.461538
vt 0.413636 0.461538
vt 0.730070 0.550000
vt 0.033566 0.550000
vt 0.033566 0.468182
vt 0.039161 0.538462
vt 0.724476 0.538462
vt 0.724476 0.468182
vt 0.331818 0.538462
vt 0.413636 0.538462
vt 0.724476 0.550000
vt 0.039161 0.550000
vt 0.039161 0.468182
vt 0.072727 0.615385
vt 0.690909 0.615385
vt 0.690909 0.468182
vt 0.331818 0.615385
vt 0.413636 0.615385
vt 0.690909 0.550000
vt 0.072727 0.550000
vt 0.072727 0.468182
vt 0.072727 0.692308
vt 0.690909 0.692308
vt 0.331818 0.692308
vt 0.413636 0.692308
vt 0.072727 0.769231
vt 0.690909 0.769231
vt 0.690909 0.465035
vt 0.328671 0.769231
vt 0.419930 0.769231
vt 0.690909 0.556294
vt 0.072727 0.556294
vt 0.072727 0.465035
vt 0.072727 0.846154
vt 0.690909 0.846154
vt 0.690909 0.461538
vt 0.325175 0.846154
vt 0.426923 0.846154
vt 0.690909 0.563287
vt 0.072727 0.563287
vt 0.072727 0.461538
vt 0.097086 0.923077
vt 0.666550 0.923077
vt 0.710839 0.923077
vt 0.365967 0.923077
vt 0.389627 0.923077
vt 0.052797 0.923077
vt 0.122727 1.000000
vt 0.640909 1.000000
vt 0.731818 1.000000
vt 0.409091 1.000000
vt 0.350000 1.000000
vt 0.440909 1.000000
vt 0.433916 0.923077
vt 0.031818 1.000000
vt 0.122727 0.454545
vt 0.131818 0.490909
vt 0.631818 0.490909
vt 0.640909 0.454545
vt 0.677273 0.536364
vt 0.731818 0.545455
vt 0.677273 0.495455
vt 0.731818 0.486364
vt 0.631818 0.540909
vt 0.640909 0.577273
vt 0.131818 0.540909
vt 0.122727 0.577273
vt 0.086364 0.495455
vt 0.031818 0.486364
vt 0.086364 0.536364
vt 0.031818 0.545455
s 0
usemtl Mat_BackRest_Baked
f 647/740/545 655/741/545 656/742/545 648/743/545
f 648/744/546 656/745/546 657/745/546 649/744/546
f 649/746/547 657/747/547 658/748/547 650/749/547
f 650/750/546 658/751/546 659/751/546 651/750/546
f 651/743/548 659/742/548 660/741/548 652/740/548
f 652/752/546 660/753/546 661/753/546 653/752/546
f 653/749/549 661/748/549 662/747/549 654/746/549
f 654/754/546 662/755/546 655/755/546 647/754/546
f 655/741/545 663/756/545 664/757/545 656/742/545
f 656/745/546 664/758/546 665/758/546 657/745/546
f 657/747/547 665/759/547 666/760/547 658/748/547
f 658/751/546 666/761/546 667/761/546 659/751/546
f 659/742/548 667/757/548 668/756/548 660/741/548
f 660/753/546 668/762/546 669/762/546 661/753/546
f 661/748/549 669/760/549 670/759/549 662/747/549
f 662/755/546 670/763/546 663/763/546 655/755/546
f 663/756/545 671/764/545 672/765/545 664/757/545
f 664/758/546 672/766/546 673/766/546 665/758/546
f 665/759/547 673/767/547 674/768/547 666/760/547
f 666/761/546 674/769/546 675/769/546 667/761/546
f 667/757/548 675/765/548 676/764/548 668/756/548
f 668/762/546 676/770/546 677/770/546 669/762/546
f 669/760/549 677/768/549 678/767/549 670/759/549
f 670/763/546 678/771/546 671/771/546 663/763/546
f 671/764/550 679/772/550 680/773/550 672/765/550
f 672/766/546 680/774/546 681/774/546 673/766/546
f 673/767/547 681/775/547 682/776/547 674/768/547
f 674/769/546 682/777/546 683/777/546 675/769/546
f 675/765/551 683/773/551 684/772/551 676/764/551
f 676/770/546 684/778/546 685/778/546 677/770/546
f 677/768/549 685/776/549 686/775/549 678/767/549
f 678/771/546 686/779/546 679/779/546 671/771/546
f 679/772/552 687/780/552 688/781/552 680/773/552
f 680/774/546 688/782/546 689/782/546 681/774/546
f 681/775/547 689/783/547 690/784/547 682/776/547
f 682/777/546 690/785/546 691/785/546 683/777/546
f 683/773/553 691/781/553 692/780/553 684/772/553
f 684/778/546 692/786/546 693/786/546 685/778/546
f 685/776/549 693/784/549 694/783/549 686/775/549
f 686/779/546 694/787/546 687/787/546 679/779/546
f 687/780/552 695/788/552 696/789/552 688/781/552
f 688/782/546 696/790/546 697/790/546 689/782/546
f 689/783/547 697/791/547 698/792/547 690/784/547
f 690/785/546 698/793/546 699/793/546 691/785/546
f 691/781/553 699/789/553 700/788/553 692/780/553
f 692/786/546 700/794/546 701/794/546 693/786/546
f 693/784/549 701/792/549 702/791/549 694/783/549
f 694/787/546 702/795/546 695/795/546 687/787/546
f 695/788/552 703/796/552 704/797/552 696/789/552
f 696/790/546 704/798/546 705/798/546 697/790/546
f 697/791/547 705/799/547 706/800/547 698/792/547
f 698/793/546 706/801/546 707/801/546 699/793/546
f 699/789/553 707/797/553 708/796/553 700/788/553
f 700/794/546 708/802/546 709/802/546 701/794/546
f 701/792/549 709/800/549 710/799/549 702/791/549
f 702/795/546 710/803/546 703/803/546 695/795/546
f 703/796/552 711/804/552 712/805/552 704/797/552
f 704/798/546 712/806/546 713/806/546 705/798/546
f 705/799/554 713/807/554 714/808/554 706/800/554
f 706/801/546 714/809/546 715/809/546 707/801/546
f 707/797/553 715/805/553 716/804/553 708/796/553
f 708/802/546 716/810/546 717/810/546 709/802/546
f 709/800/555 717/808/555 718/807/555 710/799/555
f 710/803/546 718/811/546 711/811/546 703/803/546
f 711/804/552 719/812/552 720/813/552 712/805/552
f 712/806/546 720/806/546 721/806/546 713/806/546
f 713/807/556 721/814/556 722/815/556 714/808/556
f 714/809/546 722/809/546 723/809/546 715/809/546
f 715/805/553 723/813/553 724/812/553 716/804/553
f 716/810/546 724/810/546 725/810/546 717/810/546
f 717/808/557 725/815/557 726/814/557 718/807/557
f 718/811/546 726/811/546 719/811/546 711/811/546
f 719/812/558 727/816/558 728/817/558 720/813/558
f 720/806/546 728/818/546 729/818/546 721/806/546
f 721/814/556 729/819/556 730/820/556 722/815/556
f 722/809/546 730/821/546 731/821/546 723/809/546
f 723/813/559 731/817/559 732/816/559 724/812/559
f 724/810/546 732/822/546 733/822/546 725/810/546
f 725/815/557 733/820/557 734/819/557 726/814/557
f 726/811/546 734/823/546 727/823/546 719/811/546
f 727/816/560 735/824/560 736/825/560 728/817/560
f 728/818/546 736/826/546 737/826/546 729/818/546
f 729/819/556 737/827/556 738/828/556 730/820/556
f 730/821/546 738/829/546 739/829/546 731/821/546
f 731/817/561 739/825/561 740/824/561 732/816/561
f 732/822/546 740/830/546 741/830/546 733/822/546
f 733/820/557 741/828/557 742/827/557 734/819/557
f 734/823/546 742/831/546 735/831/546 727/823/546
f 735/824/560 743/832/560 744/833/560 736/825/560
f 736/825/562 744/833/562 745/834/562 737/825/562
f 737/827/563 745/835/563 746/836/563 738/828/563
f 738/825/564 746/834/564 747/833/564 739/825/564
f 739/825/561 747/833/561 748/832/561 740/824/561
f 740/824/565 748/832/565 749/837/565 741/824/565
f 741/828/566 749/836/566 750/835/566 742/827/566
f 742/824/567 750/837/567 743/832/567 735/824/567
f 743/832/560 751/838/560 752/839/560 744/833/560
f 744/833/568 752/839/568 753/840/568 745/834/568
f 745/835/569 753/841/569 754/842/569 746/836/569
f 746/836/570 754/842/570 755/843/570 747/844/570
f 747/833/561 755/839/561 756/838/561 748/832/561
f 748/844/571 756/843/571 757/842/571 749/836/571
f 749/836/572 757/842/572 758/841/572 750/835/572
f 750/837/573 758/845/573 751/838/573 743/832/573
f 751/846/574 759/847/574 760/848/574 752/849/574
f 752/849/575 760/848/575 761/850/575 753/851/575
f 753/851/576 761/850/576 762/852/576 754/853/576
f 754/853/577 762/852/577 763/854/577 755/855/577
f 755/855/578 763/854/578 764/856/578 756/857/578
f 756/857/579 764/856/579 765/858/579 757/859/579
f 757/859/580 765/858/580 766/860/580 758/861/580
f 758/861/581 766/860/581 759/847/581 751/846/581
f 759/847/582 766/860/582 765/858/582 764/856/582 763/854/582 762/852/582 761/850/582 760/848/582
f 654/754/546 647/754/546 648/744/546 649/744/546 650/750/546 651/750/546 652/752/546 653/752/546
