{
	"asset":{
		"generator":"Khronos glTF Blender I/O v5.1.19",
		"version":"2.0"
	},
	"extensionsUsed":[
		"KHR_materials_emissive_strength"
	],
	"scene":0,
	"scenes":[
		{
			"name":"Scene",
			"nodes":[
				0,
				1,
				2,
				3,
				4,
				5
			]
		}
	],
	"nodes":[
		{
			"mesh":0,
			"name":"Terminal"
		},
		{
			"mesh":1,
			"name":"Barrier",
			"translation":[
				4.400000095367432,
				0,
				0
			]
		},
		{
			"mesh":2,
			"name":"CarryGear",
			"translation":[
				8.800000190734863,
				0,
				0
			]
		},
		{
			"mesh":3,
			"name":"Junction",
			"translation":[
				0,
				0,
				4.400000095367432
			]
		},
		{
			"mesh":4,
			"name":"ScanArch",
			"translation":[
				4.400000095367432,
				0,
				4.400000095367432
			]
		},
		{
			"mesh":5,
			"name":"DrawerSpire",
			"translation":[
				8.800000190734863,
				0,
				4.400000095367432
			]
		}
	],
	"materials":[
		{
			"alphaMode":"MASK",
			"doubleSided":true,
			"emissiveFactor":[
				1,
				1,
				1
			],
			"emissiveTexture":{
				"index":0
			},
			"extensions":{
				"KHR_materials_emissive_strength":{
					"emissiveStrength":1.899999976158142
				}
			},
			"name":"TerminalTex",
			"pbrMetallicRoughness":{
				"baseColorTexture":{
					"index":1
				},
				"metallicFactor":0,
				"roughnessFactor":0.8999999761581421
			}
		},
		{
			"alphaMode":"MASK",
			"doubleSided":true,
			"emissiveFactor":[
				1,
				1,
				1
			],
			"emissiveTexture":{
				"index":2
			},
			"extensions":{
				"KHR_materials_emissive_strength":{
					"emissiveStrength":1.899999976158142
				}
			},
			"name":"BarrierTex",
			"pbrMetallicRoughness":{
				"baseColorTexture":{
					"index":3
				},
				"metallicFactor":0,
				"roughnessFactor":0.8999999761581421
			}
		},
		{
			"doubleSided":true,
			"emissiveFactor":[
				1,
				1,
				1
			],
			"emissiveTexture":{
				"index":4
			},
			"extensions":{
				"KHR_materials_emissive_strength":{
					"emissiveStrength":1.899999976158142
				}
			},
			"name":"CarryGearTex",
			"pbrMetallicRoughness":{
				"baseColorTexture":{
					"index":5
				},
				"metallicFactor":0,
				"roughnessFactor":0.8999999761581421
			}
		},
		{
			"doubleSided":true,
			"emissiveFactor":[
				1,
				1,
				1
			],
			"emissiveTexture":{
				"index":6
			},
			"extensions":{
				"KHR_materials_emissive_strength":{
					"emissiveStrength":1.899999976158142
				}
			},
			"name":"JunctionTex",
			"pbrMetallicRoughness":{
				"baseColorTexture":{
					"index":7
				},
				"metallicFactor":0,
				"roughnessFactor":0.8999999761581421
			}
		},
		{
			"alphaMode":"MASK",
			"doubleSided":true,
			"emissiveFactor":[
				1,
				1,
				1
			],
			"emissiveTexture":{
				"index":8
			},
			"extensions":{
				"KHR_materials_emissive_strength":{
					"emissiveStrength":1.899999976158142
				}
			},
			"name":"ScanArchTex",
			"pbrMetallicRoughness":{
				"baseColorTexture":{
					"index":9
				},
				"metallicFactor":0,
				"roughnessFactor":0.8999999761581421
			}
		},
		{
			"alphaMode":"MASK",
			"doubleSided":true,
			"emissiveFactor":[
				1,
				1,
				1
			],
			"emissiveTexture":{
				"index":10
			},
			"extensions":{
				"KHR_materials_emissive_strength":{
					"emissiveStrength":1.899999976158142
				}
			},
			"name":"DrawerSpireTex",
			"pbrMetallicRoughness":{
				"baseColorTexture":{
					"index":11
				},
				"metallicFactor":0,
				"roughnessFactor":0.8999999761581421
			}
		}
	],
	"meshes":[
		{
			"name":"Terminal",
			"primitives":[
				{
					"attributes":{
						"POSITION":0,
						"NORMAL":1,
						"TEXCOORD_0":2
					},
					"indices":3,
					"material":0
				}
			]
		},
		{
			"name":"Barrier",
			"primitives":[
				{
					"attributes":{
						"POSITION":4,
						"NORMAL":5,
						"TEXCOORD_0":6
					},
					"indices":7,
					"material":1
				}
			]
		},
		{
			"name":"CarryGear",
			"primitives":[
				{
					"attributes":{
						"POSITION":8,
						"NORMAL":9,
						"TEXCOORD_0":10
					},
					"indices":11,
					"material":2
				}
			]
		},
		{
			"name":"Junction",
			"primitives":[
				{
					"attributes":{
						"POSITION":12,
						"NORMAL":13,
						"TEXCOORD_0":14
					},
					"indices":15,
					"material":3
				}
			]
		},
		{
			"name":"ScanArch",
			"primitives":[
				{
					"attributes":{
						"POSITION":16,
						"NORMAL":17,
						"TEXCOORD_0":18
					},
					"indices":19,
					"material":4
				}
			]
		},
		{
			"name":"DrawerSpire",
			"primitives":[
				{
					"attributes":{
						"POSITION":20,
						"NORMAL":21,
						"TEXCOORD_0":22
					},
					"indices":23,
					"material":5
				}
			]
		}
	],
	"textures":[
		{
			"sampler":0,
			"source":0
		},
		{
			"sampler":0,
			"source":1
		},
		{
			"sampler":0,
			"source":2
		},
		{
			"sampler":0,
			"source":3
		},
		{
			"sampler":0,
			"source":4
		},
		{
			"sampler":0,
			"source":5
		},
		{
			"sampler":0,
			"source":6
		},
		{
			"sampler":0,
			"source":7
		},
		{
			"sampler":0,
			"source":8
		},
		{
			"sampler":0,
			"source":9
		},
		{
			"sampler":0,
			"source":10
		},
		{
			"sampler":0,
			"source":11
		}
	],
	"images":[
		{
			"mimeType":"image/png",
			"name":"Terminal_emissive",
			"uri":"Terminal_emissive.png"
		},
		{
			"mimeType":"image/png",
			"name":"Terminal_tex",
			"uri":"Terminal_tex.png"
		},
		{
			"mimeType":"image/png",
			"name":"Barrier_emissive",
			"uri":"Barrier_emissive.png"
		},
		{
			"mimeType":"image/png",
			"name":"Barrier_tex",
			"uri":"Barrier_tex.png"
		},
		{
			"mimeType":"image/png",
			"name":"CarryGear_emissive",
			"uri":"CarryGear_emissive.png"
		},
		{
			"mimeType":"image/png",
			"name":"CarryGear_tex",
			"uri":"CarryGear_tex.png"
		},
		{
			"mimeType":"image/png",
			"name":"Junction_emissive",
			"uri":"Junction_emissive.png"
		},
		{
			"mimeType":"image/png",
			"name":"Junction_tex",
			"uri":"Junction_tex.png"
		},
		{
			"mimeType":"image/png",
			"name":"ScanArch_emissive",
			"uri":"ScanArch_emissive.png"
		},
		{
			"mimeType":"image/png",
			"name":"ScanArch_tex",
			"uri":"ScanArch_tex.png"
		},
		{
			"mimeType":"image/png",
			"name":"DrawerSpire_emissive",
			"uri":"DrawerSpire_emissive.png"
		},
		{
			"mimeType":"image/png",
			"name":"DrawerSpire_tex",
			"uri":"DrawerSpire_tex.png"
		}
	],
	"accessors":[
		{
			"bufferView":0,
			"componentType":5126,
			"count":168,
			"max":[
				0.44999998807907104,
				1,
				0.33500000834465027
			],
			"min":[
				-0.44999998807907104,
				0,
				-0.33000001311302185
			],
			"type":"VEC3"
		},
		{
			"bufferView":1,
			"componentType":5126,
			"count":168,
			"type":"VEC3"
		},
		{
			"bufferView":2,
			"componentType":5126,
			"count":168,
			"type":"VEC2"
		},
		{
			"bufferView":3,
			"componentType":5123,
			"count":252,
			"type":"SCALAR"
		},
		{
			"bufferView":4,
			"componentType":5126,
			"count":124,
			"max":[
				0.9900000095367432,
				2.0799999237060547,
				0.28999999165534973
			],
			"min":[
				-0.9900000095367432,
				0,
				-0.28999999165534973
			],
			"type":"VEC3"
		},
		{
			"bufferView":5,
			"componentType":5126,
			"count":124,
			"type":"VEC3"
		},
		{
			"bufferView":6,
			"componentType":5126,
			"count":124,
			"type":"VEC2"
		},
		{
			"bufferView":7,
			"componentType":5123,
			"count":186,
			"type":"SCALAR"
		},
		{
			"bufferView":8,
			"componentType":5126,
			"count":168,
			"max":[
				0.3199999928474426,
				0.42500001192092896,
				0.20999999344348907
			],
			"min":[
				-0.3199999928474426,
				-0.004999999888241291,
				-0.1899999976158142
			],
			"type":"VEC3"
		},
		{
			"bufferView":9,
			"componentType":5126,
			"count":168,
			"type":"VEC3"
		},
		{
			"bufferView":10,
			"componentType":5126,
			"count":168,
			"type":"VEC2"
		},
		{
			"bufferView":11,
			"componentType":5123,
			"count":252,
			"type":"SCALAR"
		},
		{
			"bufferView":12,
			"componentType":5126,
			"count":336,
			"max":[
				0.3543403744697571,
				1.6100000143051147,
				0.4270310401916504
			],
			"min":[
				-0.4987049102783203,
				0,
				-0.4361363351345062
			],
			"type":"VEC3"
		},
		{
			"bufferView":13,
			"componentType":5126,
			"count":336,
			"type":"VEC3"
		},
		{
			"bufferView":14,
			"componentType":5126,
			"count":336,
			"type":"VEC2"
		},
		{
			"bufferView":15,
			"componentType":5123,
			"count":552,
			"type":"SCALAR"
		},
		{
			"bufferView":16,
			"componentType":5126,
			"count":356,
			"max":[
				1.2200000286102295,
				2.6500000953674316,
				0.30000001192092896
			],
			"min":[
				-1.2200000286102295,
				0,
				-0.30000001192092896
			],
			"type":"VEC3"
		},
		{
			"bufferView":17,
			"componentType":5126,
			"count":356,
			"type":"VEC3"
		},
		{
			"bufferView":18,
			"componentType":5126,
			"count":356,
			"type":"VEC2"
		},
		{
			"bufferView":19,
			"componentType":5123,
			"count":534,
			"type":"SCALAR"
		},
		{
			"bufferView":20,
			"componentType":5126,
			"count":132,
			"max":[
				0.6000000238418579,
				3.4200000762939453,
				0.6000000238418579
			],
			"min":[
				-0.6000000238418579,
				0,
				-0.6000000238418579
			],
			"type":"VEC3"
		},
		{
			"bufferView":21,
			"componentType":5126,
			"count":132,
			"type":"VEC3"
		},
		{
			"bufferView":22,
			"componentType":5126,
			"count":132,
			"type":"VEC2"
		},
		{
			"bufferView":23,
			"componentType":5123,
			"count":198,
			"type":"SCALAR"
		}
	],
	"bufferViews":[
		{
			"buffer":0,
			"byteLength":2016,
			"byteOffset":0,
			"target":34962
		},
		{
			"buffer":0,
			"byteLength":2016,
			"byteOffset":2016,
			"target":34962
		},
		{
			"buffer":0,
			"byteLength":1344,
			"byteOffset":4032,
			"target":34962
		},
		{
			"buffer":0,
			"byteLength":504,
			"byteOffset":5376,
			"target":34963
		},
		{
			"buffer":0,
			"byteLength":1488,
			"byteOffset":5880,
			"target":34962
		},
		{
			"buffer":0,
			"byteLength":1488,
			"byteOffset":7368,
			"target":34962
		},
		{
			"buffer":0,
			"byteLength":992,
			"byteOffset":8856,
			"target":34962
		},
		{
			"buffer":0,
			"byteLength":372,
			"byteOffset":9848,
			"target":34963
		},
		{
			"buffer":0,
			"byteLength":2016,
			"byteOffset":10220,
			"target":34962
		},
		{
			"buffer":0,
			"byteLength":2016,
			"byteOffset":12236,
			"target":34962
		},
		{
			"buffer":0,
			"byteLength":1344,
			"byteOffset":14252,
			"target":34962
		},
		{
			"buffer":0,
			"byteLength":504,
			"byteOffset":15596,
			"target":34963
		},
		{
			"buffer":0,
			"byteLength":4032,
			"byteOffset":16100,
			"target":34962
		},
		{
			"buffer":0,
			"byteLength":4032,
			"byteOffset":20132,
			"target":34962
		},
		{
			"buffer":0,
			"byteLength":2688,
			"byteOffset":24164,
			"target":34962
		},
		{
			"buffer":0,
			"byteLength":1104,
			"byteOffset":26852,
			"target":34963
		},
		{
			"buffer":0,
			"byteLength":4272,
			"byteOffset":27956,
			"target":34962
		},
		{
			"buffer":0,
			"byteLength":4272,
			"byteOffset":32228,
			"target":34962
		},
		{
			"buffer":0,
			"byteLength":2848,
			"byteOffset":36500,
			"target":34962
		},
		{
			"buffer":0,
			"byteLength":1068,
			"byteOffset":39348,
			"target":34963
		},
		{
			"buffer":0,
			"byteLength":1584,
			"byteOffset":40416,
			"target":34962
		},
		{
			"buffer":0,
			"byteLength":1584,
			"byteOffset":42000,
			"target":34962
		},
		{
			"buffer":0,
			"byteLength":1056,
			"byteOffset":43584,
			"target":34962
		},
		{
			"buffer":0,
			"byteLength":396,
			"byteOffset":44640,
			"target":34963
		}
	],
	"samplers":[
		{
			"magFilter":9728,
			"minFilter":9984
		}
	],
	"buffers":[
		{
			"byteLength":45036,
			"uri":"stacks_pieces.bin"
		}
	]
}
