{
	"asset":{
		"generator":"Khronos glTF Blender I/O v5.1.19",
		"version":"2.0"
	},
	"extensionsUsed":[
		"KHR_materials_emissive_strength"
	],
	"scene":0,
	"scenes":[
		{
			"name":"Scene",
			"nodes":[
				19
			]
		}
	],
	"nodes":[
		{
			"name":"Ferrule_Bone_Mouth",
			"translation":[
				0,
				0.21700012683868408,
				0
			]
		},
		{
			"children":[
				0
			],
			"name":"Ferrule_Bone_Segment_01",
			"translation":[
				0,
				0.21700012683868408,
				0
			]
		},
		{
			"children":[
				1
			],
			"name":"Ferrule_Bone_Segment_02",
			"translation":[
				0,
				0.21700012683868408,
				0
			]
		},
		{
			"children":[
				2
			],
			"name":"Ferrule_Bone_Segment_03",
			"translation":[
				0,
				0.21600008010864258,
				0
			]
		},
		{
			"children":[
				3
			],
			"name":"Ferrule_Bone_Segment_04",
			"translation":[
				0,
				0.23400002717971802,
				0
			]
		},
		{
			"children":[
				4
			],
			"name":"Ferrule_Bone_Segment_05",
			"scale":[
				1,
				0.9999999403953552,
				1
			],
			"translation":[
				0,
				0.6500000953674316,
				0
			]
		},
		{
			"children":[
				5
			],
			"name":"Ferrule_Bone_Rear",
			"translation":[
				0,
				0.49199986457824707,
				0
			]
		},
		{
			"children":[
				6
			],
			"name":"Ferrule_Anchor",
			"rotation":[
				0,
				0.7071067690849304,
				0.7071067690849304,
				0
			],
			"translation":[
				0,
				0,
				-2.5429999828338623
			]
		},
		{
			"mesh":0,
			"name":"Ferrule_ChelationTips",
			"skin":0
		},
		{
			"mesh":1,
			"name":"Ferrule_Mouth",
			"skin":0
		},
		{
			"mesh":2,
			"name":"Ferrule_MouthVoid",
			"skin":0
		},
		{
			"mesh":3,
			"name":"Ferrule_RearAnchor",
			"skin":0
		},
		{
			"mesh":4,
			"name":"Ferrule_Segment_01",
			"skin":0
		},
		{
			"mesh":5,
			"name":"Ferrule_Segment_02",
			"skin":0
		},
		{
			"mesh":6,
			"name":"Ferrule_Segment_03",
			"skin":0
		},
		{
			"mesh":7,
			"name":"Ferrule_Segment_04",
			"skin":0
		},
		{
			"mesh":8,
			"name":"Ferrule_Segment_05",
			"skin":0
		},
		{
			"mesh":9,
			"name":"Ferrule_SignalVents",
			"skin":0
		},
		{
			"children":[
				8,
				9,
				10,
				11,
				12,
				13,
				14,
				15,
				16,
				17,
				7
			],
			"name":"Ferrule_Rig"
		},
		{
			"children":[
				18
			],
			"name":"FerruleRoot",
			"translation":[
				0,
				0,
				2.3440001010894775
			]
		}
	],
	"animations":[
		{
			"channels":[
				{
					"sampler":0,
					"target":{
						"node":7,
						"path":"translation"
					}
				},
				{
					"sampler":1,
					"target":{
						"node":7,
						"path":"rotation"
					}
				},
				{
					"sampler":2,
					"target":{
						"node":7,
						"path":"scale"
					}
				},
				{
					"sampler":3,
					"target":{
						"node":6,
						"path":"translation"
					}
				},
				{
					"sampler":4,
					"target":{
						"node":6,
						"path":"rotation"
					}
				},
				{
					"sampler":5,
					"target":{
						"node":6,
						"path":"scale"
					}
				},
				{
					"sampler":6,
					"target":{
						"node":5,
						"path":"translation"
					}
				},
				{
					"sampler":7,
					"target":{
						"node":5,
						"path":"rotation"
					}
				},
				{
					"sampler":8,
					"target":{
						"node":5,
						"path":"scale"
					}
				},
				{
					"sampler":9,
					"target":{
						"node":4,
						"path":"translation"
					}
				},
				{
					"sampler":10,
					"target":{
						"node":4,
						"path":"rotation"
					}
				},
				{
					"sampler":11,
					"target":{
						"node":4,
						"path":"scale"
					}
				},
				{
					"sampler":12,
					"target":{
						"node":3,
						"path":"translation"
					}
				},
				{
					"sampler":13,
					"target":{
						"node":3,
						"path":"rotation"
					}
				},
				{
					"sampler":14,
					"target":{
						"node":3,
						"path":"scale"
					}
				},
				{
					"sampler":15,
					"target":{
						"node":2,
						"path":"translation"
					}
				},
				{
					"sampler":16,
					"target":{
						"node":2,
						"path":"rotation"
					}
				},
				{
					"sampler":17,
					"target":{
						"node":2,
						"path":"scale"
					}
				},
				{
					"sampler":18,
					"target":{
						"node":1,
						"path":"translation"
					}
				},
				{
					"sampler":19,
					"target":{
						"node":1,
						"path":"rotation"
					}
				},
				{
					"sampler":20,
					"target":{
						"node":1,
						"path":"scale"
					}
				},
				{
					"sampler":21,
					"target":{
						"node":0,
						"path":"translation"
					}
				},
				{
					"sampler":22,
					"target":{
						"node":0,
						"path":"rotation"
					}
				},
				{
					"sampler":23,
					"target":{
						"node":0,
						"path":"scale"
					}
				}
			],
			"name":"Ferrule_Compress",
			"samplers":[
				{
					"input":60,
					"interpolation":"STEP",
					"output":61
				},
				{
					"input":60,
					"interpolation":"STEP",
					"output":62
				},
				{
					"input":60,
					"interpolation":"STEP",
					"output":63
				},
				{
					"input":60,
					"interpolation":"STEP",
					"output":64
				},
				{
					"input":60,
					"interpolation":"STEP",
					"output":65
				},
				{
					"input":60,
					"interpolation":"STEP",
					"output":63
				},
				{
					"input":60,
					"interpolation":"STEP",
					"output":66
				},
				{
					"input":67,
					"interpolation":"LINEAR",
					"output":68
				},
				{
					"input":60,
					"interpolation":"STEP",
					"output":69
				},
				{
					"input":60,
					"interpolation":"LINEAR",
					"output":70
				},
				{
					"input":67,
					"interpolation":"LINEAR",
					"output":71
				},
				{
					"input":60,
					"interpolation":"STEP",
					"output":72
				},
				{
					"input":60,
					"interpolation":"LINEAR",
					"output":73
				},
				{
					"input":67,
					"interpolation":"LINEAR",
					"output":74
				},
				{
					"input":60,
					"interpolation":"STEP",
					"output":63
				},
				{
					"input":60,
					"interpolation":"LINEAR",
					"output":75
				},
				{
					"input":67,
					"interpolation":"LINEAR",
					"output":76
				},
				{
					"input":60,
					"interpolation":"STEP",
					"output":63
				},
				{
					"input":60,
					"interpolation":"LINEAR",
					"output":77
				},
				{
					"input":67,
					"interpolation":"LINEAR",
					"output":78
				},
				{
					"input":60,
					"interpolation":"STEP",
					"output":63
				},
				{
					"input":60,
					"interpolation":"LINEAR",
					"output":79
				},
				{
					"input":67,
					"interpolation":"LINEAR",
					"output":80
				},
				{
					"input":60,
					"interpolation":"STEP",
					"output":63
				}
			]
		},
		{
			"channels":[
				{
					"sampler":0,
					"target":{
						"node":7,
						"path":"translation"
					}
				},
				{
					"sampler":1,
					"target":{
						"node":7,
						"path":"rotation"
					}
				},
				{
					"sampler":2,
					"target":{
						"node":7,
						"path":"scale"
					}
				},
				{
					"sampler":3,
					"target":{
						"node":6,
						"path":"translation"
					}
				},
				{
					"sampler":4,
					"target":{
						"node":6,
						"path":"rotation"
					}
				},
				{
					"sampler":5,
					"target":{
						"node":6,
						"path":"scale"
					}
				},
				{
					"sampler":6,
					"target":{
						"node":5,
						"path":"translation"
					}
				},
				{
					"sampler":7,
					"target":{
						"node":5,
						"path":"rotation"
					}
				},
				{
					"sampler":8,
					"target":{
						"node":5,
						"path":"scale"
					}
				},
				{
					"sampler":9,
					"target":{
						"node":4,
						"path":"translation"
					}
				},
				{
					"sampler":10,
					"target":{
						"node":4,
						"path":"rotation"
					}
				},
				{
					"sampler":11,
					"target":{
						"node":4,
						"path":"scale"
					}
				},
				{
					"sampler":12,
					"target":{
						"node":3,
						"path":"translation"
					}
				},
				{
					"sampler":13,
					"target":{
						"node":3,
						"path":"rotation"
					}
				},
				{
					"sampler":14,
					"target":{
						"node":3,
						"path":"scale"
					}
				},
				{
					"sampler":15,
					"target":{
						"node":2,
						"path":"translation"
					}
				},
				{
					"sampler":16,
					"target":{
						"node":2,
						"path":"rotation"
					}
				},
				{
					"sampler":17,
					"target":{
						"node":2,
						"path":"scale"
					}
				},
				{
					"sampler":18,
					"target":{
						"node":1,
						"path":"translation"
					}
				},
				{
					"sampler":19,
					"target":{
						"node":1,
						"path":"rotation"
					}
				},
				{
					"sampler":20,
					"target":{
						"node":1,
						"path":"scale"
					}
				},
				{
					"sampler":21,
					"target":{
						"node":0,
						"path":"translation"
					}
				},
				{
					"sampler":22,
					"target":{
						"node":0,
						"path":"rotation"
					}
				},
				{
					"sampler":23,
					"target":{
						"node":0,
						"path":"scale"
					}
				}
			],
			"name":"Ferrule_Idle",
			"samplers":[
				{
					"input":81,
					"interpolation":"STEP",
					"output":61
				},
				{
					"input":81,
					"interpolation":"STEP",
					"output":62
				},
				{
					"input":81,
					"interpolation":"STEP",
					"output":63
				},
				{
					"input":81,
					"interpolation":"STEP",
					"output":64
				},
				{
					"input":81,
					"interpolation":"STEP",
					"output":65
				},
				{
					"input":81,
					"interpolation":"STEP",
					"output":63
				},
				{
					"input":81,
					"interpolation":"STEP",
					"output":66
				},
				{
					"input":82,
					"interpolation":"LINEAR",
					"output":83
				},
				{
					"input":81,
					"interpolation":"STEP",
					"output":84
				},
				{
					"input":81,
					"interpolation":"STEP",
					"output":85
				},
				{
					"input":82,
					"interpolation":"LINEAR",
					"output":86
				},
				{
					"input":81,
					"interpolation":"STEP",
					"output":63
				},
				{
					"input":81,
					"interpolation":"LINEAR",
					"output":87
				},
				{
					"input":82,
					"interpolation":"LINEAR",
					"output":88
				},
				{
					"input":81,
					"interpolation":"STEP",
					"output":89
				},
				{
					"input":81,
					"interpolation":"LINEAR",
					"output":90
				},
				{
					"input":82,
					"interpolation":"LINEAR",
					"output":91
				},
				{
					"input":81,
					"interpolation":"STEP",
					"output":63
				},
				{
					"input":81,
					"interpolation":"LINEAR",
					"output":92
				},
				{
					"input":82,
					"interpolation":"LINEAR",
					"output":93
				},
				{
					"input":81,
					"interpolation":"STEP",
					"output":94
				},
				{
					"input":81,
					"interpolation":"LINEAR",
					"output":95
				},
				{
					"input":82,
					"interpolation":"LINEAR",
					"output":96
				},
				{
					"input":81,
					"interpolation":"STEP",
					"output":89
				}
			]
		},
		{
			"channels":[
				{
					"sampler":0,
					"target":{
						"node":7,
						"path":"translation"
					}
				},
				{
					"sampler":1,
					"target":{
						"node":7,
						"path":"rotation"
					}
				},
				{
					"sampler":2,
					"target":{
						"node":7,
						"path":"scale"
					}
				},
				{
					"sampler":3,
					"target":{
						"node":6,
						"path":"translation"
					}
				},
				{
					"sampler":4,
					"target":{
						"node":6,
						"path":"rotation"
					}
				},
				{
					"sampler":5,
					"target":{
						"node":6,
						"path":"scale"
					}
				},
				{
					"sampler":6,
					"target":{
						"node":5,
						"path":"translation"
					}
				},
				{
					"sampler":7,
					"target":{
						"node":5,
						"path":"rotation"
					}
				},
				{
					"sampler":8,
					"target":{
						"node":5,
						"path":"scale"
					}
				},
				{
					"sampler":9,
					"target":{
						"node":4,
						"path":"translation"
					}
				},
				{
					"sampler":10,
					"target":{
						"node":4,
						"path":"rotation"
					}
				},
				{
					"sampler":11,
					"target":{
						"node":4,
						"path":"scale"
					}
				},
				{
					"sampler":12,
					"target":{
						"node":3,
						"path":"translation"
					}
				},
				{
					"sampler":13,
					"target":{
						"node":3,
						"path":"rotation"
					}
				},
				{
					"sampler":14,
					"target":{
						"node":3,
						"path":"scale"
					}
				},
				{
					"sampler":15,
					"target":{
						"node":2,
						"path":"translation"
					}
				},
				{
					"sampler":16,
					"target":{
						"node":2,
						"path":"rotation"
					}
				},
				{
					"sampler":17,
					"target":{
						"node":2,
						"path":"scale"
					}
				},
				{
					"sampler":18,
					"target":{
						"node":1,
						"path":"translation"
					}
				},
				{
					"sampler":19,
					"target":{
						"node":1,
						"path":"rotation"
					}
				},
				{
					"sampler":20,
					"target":{
						"node":1,
						"path":"scale"
					}
				},
				{
					"sampler":21,
					"target":{
						"node":0,
						"path":"translation"
					}
				},
				{
					"sampler":22,
					"target":{
						"node":0,
						"path":"rotation"
					}
				},
				{
					"sampler":23,
					"target":{
						"node":0,
						"path":"scale"
					}
				}
			],
			"name":"Ferrule_Latch",
			"samplers":[
				{
					"input":97,
					"interpolation":"STEP",
					"output":61
				},
				{
					"input":97,
					"interpolation":"STEP",
					"output":62
				},
				{
					"input":97,
					"interpolation":"STEP",
					"output":63
				},
				{
					"input":97,
					"interpolation":"STEP",
					"output":64
				},
				{
					"input":97,
					"interpolation":"STEP",
					"output":65
				},
				{
					"input":97,
					"interpolation":"STEP",
					"output":63
				},
				{
					"input":97,
					"interpolation":"STEP",
					"output":66
				},
				{
					"input":98,
					"interpolation":"LINEAR",
					"output":99
				},
				{
					"input":97,
					"interpolation":"STEP",
					"output":84
				},
				{
					"input":97,
					"interpolation":"STEP",
					"output":85
				},
				{
					"input":98,
					"interpolation":"LINEAR",
					"output":100
				},
				{
					"input":97,
					"interpolation":"STEP",
					"output":63
				},
				{
					"input":97,
					"interpolation":"STEP",
					"output":101
				},
				{
					"input":98,
					"interpolation":"LINEAR",
					"output":102
				},
				{
					"input":97,
					"interpolation":"STEP",
					"output":63
				},
				{
					"input":97,
					"interpolation":"STEP",
					"output":103
				},
				{
					"input":98,
					"interpolation":"LINEAR",
					"output":104
				},
				{
					"input":97,
					"interpolation":"STEP",
					"output":63
				},
				{
					"input":97,
					"interpolation":"STEP",
					"output":105
				},
				{
					"input":98,
					"interpolation":"LINEAR",
					"output":106
				},
				{
					"input":97,
					"interpolation":"STEP",
					"output":63
				},
				{
					"input":97,
					"interpolation":"STEP",
					"output":107
				},
				{
					"input":98,
					"interpolation":"LINEAR",
					"output":108
				},
				{
					"input":97,
					"interpolation":"STEP",
					"output":63
				}
			]
		},
		{
			"channels":[
				{
					"sampler":0,
					"target":{
						"node":7,
						"path":"translation"
					}
				},
				{
					"sampler":1,
					"target":{
						"node":7,
						"path":"rotation"
					}
				},
				{
					"sampler":2,
					"target":{
						"node":7,
						"path":"scale"
					}
				},
				{
					"sampler":3,
					"target":{
						"node":6,
						"path":"translation"
					}
				},
				{
					"sampler":4,
					"target":{
						"node":6,
						"path":"rotation"
					}
				},
				{
					"sampler":5,
					"target":{
						"node":6,
						"path":"scale"
					}
				},
				{
					"sampler":6,
					"target":{
						"node":5,
						"path":"translation"
					}
				},
				{
					"sampler":7,
					"target":{
						"node":5,
						"path":"rotation"
					}
				},
				{
					"sampler":8,
					"target":{
						"node":5,
						"path":"scale"
					}
				},
				{
					"sampler":9,
					"target":{
						"node":4,
						"path":"translation"
					}
				},
				{
					"sampler":10,
					"target":{
						"node":4,
						"path":"rotation"
					}
				},
				{
					"sampler":11,
					"target":{
						"node":4,
						"path":"scale"
					}
				},
				{
					"sampler":12,
					"target":{
						"node":3,
						"path":"translation"
					}
				},
				{
					"sampler":13,
					"target":{
						"node":3,
						"path":"rotation"
					}
				},
				{
					"sampler":14,
					"target":{
						"node":3,
						"path":"scale"
					}
				},
				{
					"sampler":15,
					"target":{
						"node":2,
						"path":"translation"
					}
				},
				{
					"sampler":16,
					"target":{
						"node":2,
						"path":"rotation"
					}
				},
				{
					"sampler":17,
					"target":{
						"node":2,
						"path":"scale"
					}
				},
				{
					"sampler":18,
					"target":{
						"node":1,
						"path":"translation"
					}
				},
				{
					"sampler":19,
					"target":{
						"node":1,
						"path":"rotation"
					}
				},
				{
					"sampler":20,
					"target":{
						"node":1,
						"path":"scale"
					}
				},
				{
					"sampler":21,
					"target":{
						"node":0,
						"path":"translation"
					}
				},
				{
					"sampler":22,
					"target":{
						"node":0,
						"path":"rotation"
					}
				},
				{
					"sampler":23,
					"target":{
						"node":0,
						"path":"scale"
					}
				}
			],
			"name":"Ferrule_Spring",
			"samplers":[
				{
					"input":109,
					"interpolation":"STEP",
					"output":61
				},
				{
					"input":109,
					"interpolation":"STEP",
					"output":62
				},
				{
					"input":109,
					"interpolation":"STEP",
					"output":63
				},
				{
					"input":109,
					"interpolation":"STEP",
					"output":64
				},
				{
					"input":109,
					"interpolation":"STEP",
					"output":65
				},
				{
					"input":109,
					"interpolation":"STEP",
					"output":63
				},
				{
					"input":109,
					"interpolation":"STEP",
					"output":66
				},
				{
					"input":110,
					"interpolation":"LINEAR",
					"output":111
				},
				{
					"input":109,
					"interpolation":"STEP",
					"output":112
				},
				{
					"input":109,
					"interpolation":"LINEAR",
					"output":113
				},
				{
					"input":110,
					"interpolation":"LINEAR",
					"output":114
				},
				{
					"input":109,
					"interpolation":"STEP",
					"output":115
				},
				{
					"input":109,
					"interpolation":"LINEAR",
					"output":116
				},
				{
					"input":110,
					"interpolation":"LINEAR",
					"output":117
				},
				{
					"input":109,
					"interpolation":"STEP",
					"output":63
				},
				{
					"input":109,
					"interpolation":"LINEAR",
					"output":118
				},
				{
					"input":110,
					"interpolation":"LINEAR",
					"output":119
				},
				{
					"input":109,
					"interpolation":"STEP",
					"output":63
				},
				{
					"input":109,
					"interpolation":"LINEAR",
					"output":120
				},
				{
					"input":110,
					"interpolation":"LINEAR",
					"output":121
				},
				{
					"input":109,
					"interpolation":"STEP",
					"output":63
				},
				{
					"input":109,
					"interpolation":"LINEAR",
					"output":122
				},
				{
					"input":110,
					"interpolation":"LINEAR",
					"output":123
				},
				{
					"input":109,
					"interpolation":"STEP",
					"output":63
				}
			]
		}
	],
	"materials":[
		{
			"doubleSided":true,
			"emissiveFactor":[
				1,
				1,
				1
			],
			"emissiveTexture":{
				"index":0
			},
			"extensions":{
				"KHR_materials_emissive_strength":{
					"emissiveStrength":1.149999976158142
				}
			},
			"name":"FerruleSignal",
			"pbrMetallicRoughness":{
				"baseColorTexture":{
					"index":1
				},
				"metallicFactor":0,
				"roughnessFactor":0.7799999713897705
			}
		},
		{
			"doubleSided":true,
			"name":"FerruleBody",
			"pbrMetallicRoughness":{
				"baseColorTexture":{
					"index":2
				},
				"metallicFactor":0,
				"roughnessFactor":0.7799999713897705
			}
		},
		{
			"doubleSided":true,
			"name":"FerruleMouthVoid",
			"pbrMetallicRoughness":{
				"baseColorTexture":{
					"index":3
				},
				"metallicFactor":0,
				"roughnessFactor":0.7799999713897705
			}
		}
	],
	"meshes":[
		{
			"name":"Ferrule_ChelationTips",
			"primitives":[
				{
					"attributes":{
						"POSITION":0,
						"NORMAL":1,
						"TEXCOORD_0":2,
						"JOINTS_0":3,
						"WEIGHTS_0":4
					},
					"indices":5,
					"material":0
				}
			]
		},
		{
			"name":"Ferrule_Mouth",
			"primitives":[
				{
					"attributes":{
						"POSITION":7,
						"NORMAL":8,
						"TEXCOORD_0":9,
						"JOINTS_0":10,
						"WEIGHTS_0":11
					},
					"indices":12,
					"material":1
				}
			]
		},
		{
			"name":"Ferrule_MouthVoid",
			"primitives":[
				{
					"attributes":{
						"POSITION":13,
						"NORMAL":14,
						"TEXCOORD_0":15,
						"JOINTS_0":16,
						"WEIGHTS_0":17
					},
					"indices":18,
					"material":2
				}
			]
		},
		{
			"name":"Ferrule_RearAnchor",
			"primitives":[
				{
					"attributes":{
						"POSITION":19,
						"NORMAL":20,
						"TEXCOORD_0":21,
						"JOINTS_0":22,
						"WEIGHTS_0":23
					},
					"indices":24,
					"material":1
				}
			]
		},
		{
			"name":"Ferrule_Segment_01",
			"primitives":[
				{
					"attributes":{
						"POSITION":25,
						"NORMAL":26,
						"TEXCOORD_0":27,
						"JOINTS_0":28,
						"WEIGHTS_0":29
					},
					"indices":30,
					"material":1
				}
			]
		},
		{
			"name":"Ferrule_Segment_02",
			"primitives":[
				{
					"attributes":{
						"POSITION":31,
						"NORMAL":32,
						"TEXCOORD_0":33,
						"JOINTS_0":34,
						"WEIGHTS_0":35
					},
					"indices":30,
					"material":1
				}
			]
		},
		{
			"name":"Ferrule_Segment_03",
			"primitives":[
				{
					"attributes":{
						"POSITION":36,
						"NORMAL":37,
						"TEXCOORD_0":38,
						"JOINTS_0":39,
						"WEIGHTS_0":40
					},
					"indices":41,
					"material":1
				}
			]
		},
		{
			"name":"Ferrule_Segment_04",
			"primitives":[
				{
					"attributes":{
						"POSITION":42,
						"NORMAL":43,
						"TEXCOORD_0":44,
						"JOINTS_0":45,
						"WEIGHTS_0":46
					},
					"indices":47,
					"material":1
				}
			]
		},
		{
			"name":"Ferrule_Segment_05",
			"primitives":[
				{
					"attributes":{
						"POSITION":48,
						"NORMAL":49,
						"TEXCOORD_0":50,
						"JOINTS_0":51,
						"WEIGHTS_0":52
					},
					"indices":53,
					"material":1
				}
			]
		},
		{
			"name":"Ferrule_SignalVents",
			"primitives":[
				{
					"attributes":{
						"POSITION":54,
						"NORMAL":55,
						"TEXCOORD_0":56,
						"JOINTS_0":57,
						"WEIGHTS_0":58
					},
					"indices":59,
					"material":0
				}
			]
		}
	],
	"textures":[
		{
			"sampler":0,
			"source":0
		},
		{
			"sampler":0,
			"source":1
		},
		{
			"sampler":0,
			"source":2
		},
		{
			"sampler":0,
			"source":3
		}
	],
	"images":[
		{
			"mimeType":"image/png",
			"name":"ferrule_signal_emissive.png",
			"uri":"ferrule_signal_emissive.png"
		},
		{
			"mimeType":"image/png",
			"name":"ferrule_signal.png",
			"uri":"ferrule_signal.png"
		},
		{
			"mimeType":"image/png",
			"name":"ferrule_body.png",
			"uri":"ferrule_body.png"
		},
		{
			"mimeType":"image/png",
			"name":"ferrule_mouth.png",
			"uri":"ferrule_mouth.png"
		}
	],
	"skins":[
		{
			"inverseBindMatrices":6,
			"joints":[
				7,
				6,
				5,
				4,
				3,
				2,
				1,
				0
			],
			"name":"Ferrule_Rig"
		}
	],
	"accessors":[
		{
			"bufferView":0,
			"componentType":5126,
			"count":144,
			"max":[
				0.3758260905742645,
				0.1796025037765503,
				2.2172319889068604
			],
			"min":[
				-0.3758260905742645,
				0,
				2.123824119567871
			],
			"type":"VEC3"
		},
		{
			"bufferView":1,
			"componentType":5126,
			"count":144,
			"type":"VEC3"
		},
		{
			"bufferView":2,
			"componentType":5126,
			"count":144,
			"type":"VEC2"
		},
		{
			"bufferView":3,
			"componentType":5121,
			"count":144,
			"type":"VEC4"
		},
		{
			"bufferView":4,
			"componentType":5126,
			"count":144,
			"type":"VEC4"
		},
		{
			"bufferView":5,
			"componentType":5123,
			"count":216,
			"type":"SCALAR"
		},
		{
			"bufferView":6,
			"componentType":5126,
			"count":8,
			"type":"MAT4"
		},
		{
			"bufferView":7,
			"componentType":5126,
			"count":572,
			"max":[
				0.49061039090156555,
				0.770658016204834,
				2.3773601055145264
			],
			"min":[
				-0.49061039090156555,
				0.013062000274658203,
				1.7101600170135498
			],
			"type":"VEC3"
		},
		{
			"bufferView":8,
			"componentType":5126,
			"count":572,
			"type":"VEC3"
		},
		{
			"bufferView":9,
			"componentType":5126,
			"count":572,
			"type":"VEC2"
		},
		{
			"bufferView":10,
			"componentType":5121,
			"count":572,
			"type":"VEC4"
		},
		{
			"bufferView":11,
			"componentType":5126,
			"count":572,
			"type":"VEC4"
		},
		{
			"bufferView":12,
			"componentType":5123,
			"count":912,
			"type":"SCALAR"
		},
		{
			"bufferView":13,
			"componentType":5126,
			"count":24,
			"max":[
				0.17587919533252716,
				0.13715100288391113,
				2.0971360206604004
			],
			"min":[
				-0.17587919533252716,
				0.0037320000119507313,
				1.816912055015564
			],
			"type":"VEC3"
		},
		{
			"bufferView":14,
			"componentType":5126,
			"count":24,
			"type":"VEC3"
		},
		{
			"bufferView":15,
			"componentType":5126,
			"count":24,
			"type":"VEC2"
		},
		{
			"bufferView":16,
			"componentType":5121,
			"count":24,
			"type":"VEC4"
		},
		{
			"bufferView":17,
			"componentType":5126,
			"count":24,
			"type":"VEC4"
		},
		{
			"bufferView":18,
			"componentType":5123,
			"count":36,
			"type":"SCALAR"
		},
		{
			"bufferView":19,
			"componentType":5126,
			"count":388,
			"max":[
				1.142971158027649,
				1.4554799795150757,
				1.3932400941848755
			],
			"min":[
				-1.142971158027649,
				0,
				-0.8085200786590576
			],
			"type":"VEC3"
		},
		{
			"bufferView":20,
			"componentType":5126,
			"count":388,
			"type":"VEC3"
		},
		{
			"bufferView":21,
			"componentType":5126,
			"count":388,
			"type":"VEC2"
		},
		{
			"bufferView":22,
			"componentType":5121,
			"count":388,
			"type":"VEC4"
		},
		{
			"bufferView":23,
			"componentType":5126,
			"count":388,
			"type":"VEC4"
		},
		{
			"bufferView":24,
			"componentType":5123,
			"count":612,
			"type":"SCALAR"
		},
		{
			"bufferView":25,
			"componentType":5126,
			"count":324,
			"max":[
				0.6512823700904846,
				0.7098103761672974,
				2.029959201812744
			],
			"min":[
				-0.6512823700904846,
				0,
				1.6356505155563354
			],
			"type":"VEC3"
		},
		{
			"bufferView":26,
			"componentType":5126,
			"count":324,
			"type":"VEC3"
		},
		{
			"bufferView":27,
			"componentType":5126,
			"count":324,
			"type":"VEC2"
		},
		{
			"bufferView":28,
			"componentType":5121,
			"count":324,
			"type":"VEC4"
		},
		{
			"bufferView":29,
			"componentType":5126,
			"count":324,
			"type":"VEC4"
		},
		{
			"bufferView":30,
			"componentType":5123,
			"count":492,
			"type":"SCALAR"
		},
		{
			"bufferView":31,
			"componentType":5126,
			"count":324,
			"max":[
				0.7382684350013733,
				0.9281917810440063,
				1.8472965955734253
			],
			"min":[
				-0.7382684350013733,
				0,
				1.3904211521148682
			],
			"type":"VEC3"
		},
		{
			"bufferView":32,
			"componentType":5126,
			"count":324,
			"type":"VEC3"
		},
		{
			"bufferView":33,
			"componentType":5126,
			"count":324,
			"type":"VEC2"
		},
		{
			"bufferView":34,
			"componentType":5121,
			"count":324,
			"type":"VEC4"
		},
		{
			"bufferView":35,
			"componentType":5126,
			"count":324,
			"type":"VEC4"
		},
		{
			"bufferView":36,
			"componentType":5126,
			"count":300,
			"max":[
				0.8259454369544983,
				1.0686955451965332,
				1.664291262626648
			],
			"min":[
				-0.8259454369544983,
				0,
				1.1451917886734009
			],
			"type":"VEC3"
		},
		{
			"bufferView":37,
			"componentType":5126,
			"count":300,
			"type":"VEC3"
		},
		{
			"bufferView":38,
			"componentType":5126,
			"count":300,
			"type":"VEC2"
		},
		{
			"bufferView":39,
			"componentType":5121,
			"count":300,
			"type":"VEC4"
		},
		{
			"bufferView":40,
			"componentType":5126,
			"count":300,
			"type":"VEC4"
		},
		{
			"bufferView":41,
			"componentType":5123,
			"count":456,
			"type":"SCALAR"
		},
		{
			"bufferView":42,
			"componentType":5126,
			"count":396,
			"max":[
				0.93001389503479,
				1.2894433736801147,
				1.4852341413497925
			],
			"min":[
				-0.93001389503479,
				0,
				0.8970351219177246
			],
			"type":"VEC3"
		},
		{
			"bufferView":43,
			"componentType":5126,
			"count":396,
			"type":"VEC3"
		},
		{
			"bufferView":44,
			"componentType":5126,
			"count":396,
			"type":"VEC2"
		},
		{
			"bufferView":45,
			"componentType":5121,
			"count":396,
			"type":"VEC4"
		},
		{
			"bufferView":46,
			"componentType":5126,
			"count":396,
			"type":"VEC4"
		},
		{
			"bufferView":47,
			"componentType":5123,
			"count":600,
			"type":"SCALAR"
		},
		{
			"bufferView":48,
			"componentType":5126,
			"count":420,
			"max":[
				1.1173062324523926,
				1.508970856666565,
				1.2959312200546265
			],
			"min":[
				-1.1173062324523926,
				0,
				0.6263437271118164
			],
			"type":"VEC3"
		},
		{
			"bufferView":49,
			"componentType":5126,
			"count":420,
			"type":"VEC3"
		},
		{
			"bufferView":50,
			"componentType":5126,
			"count":420,
			"type":"VEC2"
		},
		{
			"bufferView":51,
			"componentType":5121,
			"count":420,
			"type":"VEC4"
		},
		{
			"bufferView":52,
			"componentType":5126,
			"count":420,
			"type":"VEC4"
		},
		{
			"bufferView":53,
			"componentType":5123,
			"count":636,
			"type":"SCALAR"
		},
		{
			"bufferView":54,
			"componentType":5126,
			"count":8,
			"max":[
				0.704608142375946,
				0.10479456186294556,
				1.4032480716705322
			],
			"min":[
				-0.704608142375946,
				0.007277399767190218,
				1.4032480716705322
			],
			"type":"VEC3"
		},
		{
			"bufferView":55,
			"componentType":5126,
			"count":8,
			"type":"VEC3"
		},
		{
			"bufferView":56,
			"componentType":5126,
			"count":8,
			"type":"VEC2"
		},
		{
			"bufferView":57,
			"componentType":5121,
			"count":8,
			"type":"VEC4"
		},
		{
			"bufferView":58,
			"componentType":5126,
			"count":8,
			"type":"VEC4"
		},
		{
			"bufferView":59,
			"componentType":5123,
			"count":12,
			"type":"SCALAR"
		},
		{
			"bufferView":60,
			"componentType":5126,
			"count":2,
			"max":[
				0.75
			],
			"min":[
				0.041666666666666664
			],
			"type":"SCALAR"
		},
		{
			"bufferView":61,
			"componentType":5126,
			"count":2,
			"type":"VEC3"
		},
		{
			"bufferView":62,
			"componentType":5126,
			"count":2,
			"type":"VEC4"
		},
		{
			"bufferView":63,
			"componentType":5126,
			"count":2,
			"type":"VEC3"
		},
		{
			"bufferView":64,
			"componentType":5126,
			"count":2,
			"type":"VEC3"
		},
		{
			"bufferView":65,
			"componentType":5126,
			"count":2,
			"type":"VEC4"
		},
		{
			"bufferView":66,
			"componentType":5126,
			"count":2,
			"type":"VEC3"
		},
		{
			"bufferView":67,
			"componentType":5126,
			"count":18,
			"max":[
				0.75
			],
			"min":[
				0.041666666666666664
			],
			"type":"SCALAR"
		},
		{
			"bufferView":68,
			"componentType":5126,
			"count":18,
			"type":"VEC4"
		},
		{
			"bufferView":69,
			"componentType":5126,
			"count":2,
			"type":"VEC3"
		},
		{
			"bufferView":70,
			"componentType":5126,
			"count":2,
			"type":"VEC3"
		},
		{
			"bufferView":71,
			"componentType":5126,
			"count":18,
			"type":"VEC4"
		},
		{
			"bufferView":72,
			"componentType":5126,
			"count":2,
			"type":"VEC3"
		},
		{
			"bufferView":73,
			"componentType":5126,
			"count":2,
			"type":"VEC3"
		},
		{
			"bufferView":74,
			"componentType":5126,
			"count":18,
			"type":"VEC4"
		},
		{
			"bufferView":75,
			"componentType":5126,
			"count":2,
			"type":"VEC3"
		},
		{
			"bufferView":76,
			"componentType":5126,
			"count":18,
			"type":"VEC4"
		},
		{
			"bufferView":77,
			"componentType":5126,
			"count":2,
			"type":"VEC3"
		},
		{
			"bufferView":78,
			"componentType":5126,
			"count":18,
			"type":"VEC4"
		},
		{
			"bufferView":79,
			"componentType":5126,
			"count":2,
			"type":"VEC3"
		},
		{
			"bufferView":80,
			"componentType":5126,
			"count":18,
			"type":"VEC4"
		},
		{
			"bufferView":81,
			"componentType":5126,
			"count":2,
			"max":[
				2.6666666666666665
			],
			"min":[
				0.041666666666666664
			],
			"type":"SCALAR"
		},
		{
			"bufferView":82,
			"componentType":5126,
			"count":64,
			"max":[
				2.6666666666666665
			],
			"min":[
				0.041666666666666664
			],
			"type":"SCALAR"
		},
		{
			"bufferView":83,
			"componentType":5126,
			"count":64,
			"type":"VEC4"
		},
		{
			"bufferView":84,
			"componentType":5126,
			"count":2,
			"type":"VEC3"
		},
		{
			"bufferView":85,
			"componentType":5126,
			"count":2,
			"type":"VEC3"
		},
		{
			"bufferView":86,
			"componentType":5126,
			"count":64,
			"type":"VEC4"
		},
		{
			"bufferView":87,
			"componentType":5126,
			"count":2,
			"type":"VEC3"
		},
		{
			"bufferView":88,
			"componentType":5126,
			"count":64,
			"type":"VEC4"
		},
		{
			"bufferView":89,
			"componentType":5126,
			"count":2,
			"type":"VEC3"
		},
		{
			"bufferView":90,
			"componentType":5126,
			"count":2,
			"type":"VEC3"
		},
		{
			"bufferView":91,
			"componentType":5126,
			"count":64,
			"type":"VEC4"
		},
		{
			"bufferView":92,
			"componentType":5126,
			"count":2,
			"type":"VEC3"
		},
		{
			"bufferView":93,
			"componentType":5126,
			"count":64,
			"type":"VEC4"
		},
		{
			"bufferView":94,
			"componentType":5126,
			"count":2,
			"type":"VEC3"
		},
		{
			"bufferView":95,
			"componentType":5126,
			"count":2,
			"type":"VEC3"
		},
		{
			"bufferView":96,
			"componentType":5126,
			"count":64,
			"type":"VEC4"
		},
		{
			"bufferView":97,
			"componentType":5126,
			"count":2,
			"max":[
				0.9166666666666666
			],
			"min":[
				0.041666666666666664
			],
			"type":"SCALAR"
		},
		{
			"bufferView":98,
			"componentType":5126,
			"count":22,
			"max":[
				0.9166666666666666
			],
			"min":[
				0.041666666666666664
			],
			"type":"SCALAR"
		},
		{
			"bufferView":99,
			"componentType":5126,
			"count":22,
			"type":"VEC4"
		},
		{
			"bufferView":100,
			"componentType":5126,
			"count":22,
			"type":"VEC4"
		},
		{
			"bufferView":101,
			"componentType":5126,
			"count":2,
			"type":"VEC3"
		},
		{
			"bufferView":102,
			"componentType":5126,
			"count":22,
			"type":"VEC4"
		},
		{
			"bufferView":103,
			"componentType":5126,
			"count":2,
			"type":"VEC3"
		},
		{
			"bufferView":104,
			"componentType":5126,
			"count":22,
			"type":"VEC4"
		},
		{
			"bufferView":105,
			"componentType":5126,
			"count":2,
			"type":"VEC3"
		},
		{
			"bufferView":106,
			"componentType":5126,
			"count":22,
			"type":"VEC4"
		},
		{
			"bufferView":107,
			"componentType":5126,
			"count":2,
			"type":"VEC3"
		},
		{
			"bufferView":108,
			"componentType":5126,
			"count":22,
			"type":"VEC4"
		},
		{
			"bufferView":109,
			"componentType":5126,
			"count":2,
			"max":[
				0.8333333333333334
			],
			"min":[
				0.041666666666666664
			],
			"type":"SCALAR"
		},
		{
			"bufferView":110,
			"componentType":5126,
			"count":20,
			"max":[
				0.8333333333333334
			],
			"min":[
				0.041666666666666664
			],
			"type":"SCALAR"
		},
		{
			"bufferView":111,
			"componentType":5126,
			"count":20,
			"type":"VEC4"
		},
		{
			"bufferView":112,
			"componentType":5126,
			"count":2,
			"type":"VEC3"
		},
		{
			"bufferView":113,
			"componentType":5126,
			"count":2,
			"type":"VEC3"
		},
		{
			"bufferView":114,
			"componentType":5126,
			"count":20,
			"type":"VEC4"
		},
		{
			"bufferView":115,
			"componentType":5126,
			"count":2,
			"type":"VEC3"
		},
		{
			"bufferView":116,
			"componentType":5126,
			"count":2,
			"type":"VEC3"
		},
		{
			"bufferView":117,
			"componentType":5126,
			"count":20,
			"type":"VEC4"
		},
		{
			"bufferView":118,
			"componentType":5126,
			"count":2,
			"type":"VEC3"
		},
		{
			"bufferView":119,
			"componentType":5126,
			"count":20,
			"type":"VEC4"
		},
		{
			"bufferView":120,
			"componentType":5126,
			"count":2,
			"type":"VEC3"
		},
		{
			"bufferView":121,
			"componentType":5126,
			"count":20,
			"type":"VEC4"
		},
		{
			"bufferView":122,
			"componentType":5126,
			"count":2,
			"type":"VEC3"
		},
		{
			"bufferView":123,
			"componentType":5126,
			"count":20,
			"type":"VEC4"
		}
	],
	"bufferViews":[
		{
			"buffer":0,
			"byteLength":1728,
			"byteOffset":0,
			"target":34962
		},
		{
			"buffer":0,
			"byteLength":1728,
			"byteOffset":1728,
			"target":34962
		},
		{
			"buffer":0,
			"byteLength":1152,
			"byteOffset":3456,
			"target":34962
		},
		{
			"buffer":0,
			"byteLength":576,
			"byteOffset":4608,
			"target":34962
		},
		{
			"buffer":0,
			"byteLength":2304,
			"byteOffset":5184,
			"target":34962
		},
		{
			"buffer":0,
			"byteLength":432,
			"byteOffset":7488,
			"target":34963
		},
		{
			"buffer":0,
			"byteLength":512,
			"byteOffset":7920
		},
		{
			"buffer":0,
			"byteLength":6864,
			"byteOffset":8432,
			"target":34962
		},
		{
			"buffer":0,
			"byteLength":6864,
			"byteOffset":15296,
			"target":34962
		},
		{
			"buffer":0,
			"byteLength":4576,
			"byteOffset":22160,
			"target":34962
		},
		{
			"buffer":0,
			"byteLength":2288,
			"byteOffset":26736,
			"target":34962
		},
		{
			"buffer":0,
			"byteLength":9152,
			"byteOffset":29024,
			"target":34962
		},
		{
			"buffer":0,
			"byteLength":1824,
			"byteOffset":38176,
			"target":34963
		},
		{
			"buffer":0,
			"byteLength":288,
			"byteOffset":40000,
			"target":34962
		},
		{
			"buffer":0,
			"byteLength":288,
			"byteOffset":40288,
			"target":34962
		},
		{
			"buffer":0,
			"byteLength":192,
			"byteOffset":40576,
			"target":34962
		},
		{
			"buffer":0,
			"byteLength":96,
			"byteOffset":40768,
			"target":34962
		},
		{
			"buffer":0,
			"byteLength":384,
			"byteOffset":40864,
			"target":34962
		},
		{
			"buffer":0,
			"byteLength":72,
			"byteOffset":41248,
			"target":34963
		},
		{
			"buffer":0,
			"byteLength":4656,
			"byteOffset":41320,
			"target":34962
		},
		{
			"buffer":0,
			"byteLength":4656,
			"byteOffset":45976,
			"target":34962
		},
		{
			"buffer":0,
			"byteLength":3104,
			"byteOffset":50632,
			"target":34962
		},
		{
			"buffer":0,
			"byteLength":1552,
			"byteOffset":53736,
			"target":34962
		},
		{
			"buffer":0,
			"byteLength":6208,
			"byteOffset":55288,
			"target":34962
		},
		{
			"buffer":0,
			"byteLength":1224,
			"byteOffset":61496,
			"target":34963
		},
		{
			"buffer":0,
			"byteLength":3888,
			"byteOffset":62720,
			"target":34962
		},
		{
			"buffer":0,
			"byteLength":3888,
			"byteOffset":66608,
			"target":34962
		},
		{
			"buffer":0,
			"byteLength":2592,
			"byteOffset":70496,
			"target":34962
		},
		{
			"buffer":0,
			"byteLength":1296,
			"byteOffset":73088,
			"target":34962
		},
		{
			"buffer":0,
			"byteLength":5184,
			"byteOffset":74384,
			"target":34962
		},
		{
			"buffer":0,
			"byteLength":984,
			"byteOffset":79568,
			"target":34963
		},
		{
			"buffer":0,
			"byteLength":3888,
			"byteOffset":80552,
			"target":34962
		},
		{
			"buffer":0,
			"byteLength":3888,
			"byteOffset":84440,
			"target":34962
		},
		{
			"buffer":0,
			"byteLength":2592,
			"byteOffset":88328,
			"target":34962
		},
		{
			"buffer":0,
			"byteLength":1296,
			"byteOffset":90920,
			"target":34962
		},
		{
			"buffer":0,
			"byteLength":5184,
			"byteOffset":92216,
			"target":34962
		},
		{
			"buffer":0,
			"byteLength":3600,
			"byteOffset":97400,
			"target":34962
		},
		{
			"buffer":0,
			"byteLength":3600,
			"byteOffset":101000,
			"target":34962
		},
		{
			"buffer":0,
			"byteLength":2400,
			"byteOffset":104600,
			"target":34962
		},
		{
			"buffer":0,
			"byteLength":1200,
			"byteOffset":107000,
			"target":34962
		},
		{
			"buffer":0,
			"byteLength":4800,
			"byteOffset":108200,
			"target":34962
		},
		{
			"buffer":0,
			"byteLength":912,
			"byteOffset":113000,
			"target":34963
		},
		{
			"buffer":0,
			"byteLength":4752,
			"byteOffset":113912,
			"target":34962
		},
		{
			"buffer":0,
			"byteLength":4752,
			"byteOffset":118664,
			"target":34962
		},
		{
			"buffer":0,
			"byteLength":3168,
			"byteOffset":123416,
			"target":34962
		},
		{
			"buffer":0,
			"byteLength":1584,
			"byteOffset":126584,
			"target":34962
		},
		{
			"buffer":0,
			"byteLength":6336,
			"byteOffset":128168,
			"target":34962
		},
		{
			"buffer":0,
			"byteLength":1200,
			"byteOffset":134504,
			"target":34963
		},
		{
			"buffer":0,
			"byteLength":5040,
			"byteOffset":135704,
			"target":34962
		},
		{
			"buffer":0,
			"byteLength":5040,
			"byteOffset":140744,
			"target":34962
		},
		{
			"buffer":0,
			"byteLength":3360,
			"byteOffset":145784,
			"target":34962
		},
		{
			"buffer":0,
			"byteLength":1680,
			"byteOffset":149144,
			"target":34962
		},
		{
			"buffer":0,
			"byteLength":6720,
			"byteOffset":150824,
			"target":34962
		},
		{
			"buffer":0,
			"byteLength":1272,
			"byteOffset":157544,
			"target":34963
		},
		{
			"buffer":0,
			"byteLength":96,
			"byteOffset":158816,
			"target":34962
		},
		{
			"buffer":0,
			"byteLength":96,
			"byteOffset":158912,
			"target":34962
		},
		{
			"buffer":0,
			"byteLength":64,
			"byteOffset":159008,
			"target":34962
		},
		{
			"buffer":0,
			"byteLength":32,
			"byteOffset":159072,
			"target":34962
		},
		{
			"buffer":0,
			"byteLength":128,
			"byteOffset":159104,
			"target":34962
		},
		{
			"buffer":0,
			"byteLength":24,
			"byteOffset":159232,
			"target":34963
		},
		{
			"buffer":0,
			"byteLength":8,
			"byteOffset":159256
		},
		{
			"buffer":0,
			"byteLength":24,
			"byteOffset":159264
		},
		{
			"buffer":0,
			"byteLength":32,
			"byteOffset":159288
		},
		{
			"buffer":0,
			"byteLength":24,
			"byteOffset":159320
		},
		{
			"buffer":0,
			"byteLength":24,
			"byteOffset":159344
		},
		{
			"buffer":0,
			"byteLength":32,
			"byteOffset":159368
		},
		{
			"buffer":0,
			"byteLength":24,
			"byteOffset":159400
		},
		{
			"buffer":0,
			"byteLength":72,
			"byteOffset":159424
		},
		{
			"buffer":0,
			"byteLength":288,
			"byteOffset":159496
		},
		{
			"buffer":0,
			"byteLength":24,
			"byteOffset":159784
		},
		{
			"buffer":0,
			"byteLength":24,
			"byteOffset":159808
		},
		{
			"buffer":0,
			"byteLength":288,
			"byteOffset":159832
		},
		{
			"buffer":0,
			"byteLength":24,
			"byteOffset":160120
		},
		{
			"buffer":0,
			"byteLength":24,
			"byteOffset":160144
		},
		{
			"buffer":0,
			"byteLength":288,
			"byteOffset":160168
		},
		{
			"buffer":0,
			"byteLength":24,
			"byteOffset":160456
		},
		{
			"buffer":0,
			"byteLength":288,
			"byteOffset":160480
		},
		{
			"buffer":0,
			"byteLength":24,
			"byteOffset":160768
		},
		{
			"buffer":0,
			"byteLength":288,
			"byteOffset":160792
		},
		{
			"buffer":0,
			"byteLength":24,
			"byteOffset":161080
		},
		{
			"buffer":0,
			"byteLength":288,
			"byteOffset":161104
		},
		{
			"buffer":0,
			"byteLength":8,
			"byteOffset":161392
		},
		{
			"buffer":0,
			"byteLength":256,
			"byteOffset":161400
		},
		{
			"buffer":0,
			"byteLength":1024,
			"byteOffset":161656
		},
		{
			"buffer":0,
			"byteLength":24,
			"byteOffset":162680
		},
		{
			"buffer":0,
			"byteLength":24,
			"byteOffset":162704
		},
		{
			"buffer":0,
			"byteLength":1024,
			"byteOffset":162728
		},
		{
			"buffer":0,
			"byteLength":24,
			"byteOffset":163752
		},
		{
			"buffer":0,
			"byteLength":1024,
			"byteOffset":163776
		},
		{
			"buffer":0,
			"byteLength":24,
			"byteOffset":164800
		},
		{
			"buffer":0,
			"byteLength":24,
			"byteOffset":164824
		},
		{
			"buffer":0,
			"byteLength":1024,
			"byteOffset":164848
		},
		{
			"buffer":0,
			"byteLength":24,
			"byteOffset":165872
		},
		{
			"buffer":0,
			"byteLength":1024,
			"byteOffset":165896
		},
		{
			"buffer":0,
			"byteLength":24,
			"byteOffset":166920
		},
		{
			"buffer":0,
			"byteLength":24,
			"byteOffset":166944
		},
		{
			"buffer":0,
			"byteLength":1024,
			"byteOffset":166968
		},
		{
			"buffer":0,
			"byteLength":8,
			"byteOffset":167992
		},
		{
			"buffer":0,
			"byteLength":88,
			"byteOffset":168000
		},
		{
			"buffer":0,
			"byteLength":352,
			"byteOffset":168088
		},
		{
			"buffer":0,
			"byteLength":352,
			"byteOffset":168440
		},
		{
			"buffer":0,
			"byteLength":24,
			"byteOffset":168792
		},
		{
			"buffer":0,
			"byteLength":352,
			"byteOffset":168816
		},
		{
			"buffer":0,
			"byteLength":24,
			"byteOffset":169168
		},
		{
			"buffer":0,
			"byteLength":352,
			"byteOffset":169192
		},
		{
			"buffer":0,
			"byteLength":24,
			"byteOffset":169544
		},
		{
			"buffer":0,
			"byteLength":352,
			"byteOffset":169568
		},
		{
			"buffer":0,
			"byteLength":24,
			"byteOffset":169920
		},
		{
			"buffer":0,
			"byteLength":352,
			"byteOffset":169944
		},
		{
			"buffer":0,
			"byteLength":8,
			"byteOffset":170296
		},
		{
			"buffer":0,
			"byteLength":80,
			"byteOffset":170304
		},
		{
			"buffer":0,
			"byteLength":320,
			"byteOffset":170384
		},
		{
			"buffer":0,
			"byteLength":24,
			"byteOffset":170704
		},
		{
			"buffer":0,
			"byteLength":24,
			"byteOffset":170728
		},
		{
			"buffer":0,
			"byteLength":320,
			"byteOffset":170752
		},
		{
			"buffer":0,
			"byteLength":24,
			"byteOffset":171072
		},
		{
			"buffer":0,
			"byteLength":24,
			"byteOffset":171096
		},
		{
			"buffer":0,
			"byteLength":320,
			"byteOffset":171120
		},
		{
			"buffer":0,
			"byteLength":24,
			"byteOffset":171440
		},
		{
			"buffer":0,
			"byteLength":320,
			"byteOffset":171464
		},
		{
			"buffer":0,
			"byteLength":24,
			"byteOffset":171784
		},
		{
			"buffer":0,
			"byteLength":320,
			"byteOffset":171808
		},
		{
			"buffer":0,
			"byteLength":24,
			"byteOffset":172128
		},
		{
			"buffer":0,
			"byteLength":320,
			"byteOffset":172152
		}
	],
	"samplers":[
		{
			"magFilter":9728,
			"minFilter":9984
		}
	],
	"buffers":[
		{
			"byteLength":172472,
			"uri":"ferrule.bin"
		}
	]
}
