mtllib care_field_kit_case.mtl
usemtl baked
v -0.210000 0.110000 0.140000
v 0.210000 0.110000 0.140000
v -0.210000 -0.110000 0.140000
v 0.210000 0.110000 0.140000
v 0.210000 -0.110000 0.140000
v -0.210000 -0.110000 0.140000
v 0.210000 0.110000 -0.140000
v -0.210000 0.110000 -0.140000
v 0.210000 -0.110000 -0.140000
v -0.210000 0.110000 -0.140000
v -0.210000 -0.110000 -0.140000
v 0.210000 -0.110000 -0.140000
v 0.210000 0.110000 0.140000
v 0.210000 0.110000 -0.140000
v 0.210000 -0.110000 0.140000
v 0.210000 0.110000 -0.140000
v 0.210000 -0.110000 -0.140000
v 0.210000 -0.110000 0.140000
v -0.210000 0.110000 -0.140000
v -0.210000 0.110000 0.140000
v -0.210000 -0.110000 -0.140000
v -0.210000 0.110000 0.140000
v -0.210000 -0.110000 0.140000
v -0.210000 -0.110000 -0.140000
v 0.210000 0.110000 0.140000
v -0.210000 0.110000 0.140000
v 0.210000 0.110000 -0.140000
v -0.210000 0.110000 0.140000
v -0.210000 0.110000 -0.140000
v 0.210000 0.110000 -0.140000
v -0.210000 -0.110000 0.140000
v 0.210000 -0.110000 0.140000
v -0.210000 -0.110000 -0.140000
v 0.210000 -0.110000 0.140000
v 0.210000 -0.110000 -0.140000
v -0.210000 -0.110000 -0.140000
vt 0.803750 0.968750
vt 0.593750 0.968750
vt 0.803750 0.858750
vt 0.593750 0.968750
vt 0.593750 0.858750
vt 0.803750 0.858750
vt 0.241250 0.765625
vt 0.031250 0.765625
vt 0.241250 0.655625
vt 0.031250 0.765625
vt 0.031250 0.655625
vt 0.241250 0.655625
vt 0.452500 0.765625
vt 0.312500 0.765625
vt 0.452500 0.655625
vt 0.312500 0.765625
vt 0.312500 0.655625
vt 0.452500 0.655625
vt 0.655625 0.765625
vt 0.515625 0.765625
vt 0.655625 0.655625
vt 0.515625 0.765625
vt 0.515625 0.655625
vt 0.655625 0.655625
vt 0.241250 0.968750
vt 0.031250 0.968750
vt 0.241250 0.828750
vt 0.031250 0.968750
vt 0.031250 0.828750
vt 0.241250 0.828750
vt 0.312500 0.828750
vt 0.522500 0.828750
vt 0.312500 0.968750
vt 0.522500 0.828750
vt 0.522500 0.968750
vt 0.312500 0.968750
f 1/1 2/2 3/3
f 4/4 5/5 6/6
f 7/7 8/8 9/9
f 10/10 11/11 12/12
f 13/13 14/14 15/15
f 16/16 17/17 18/18
f 19/19 20/20 21/21
f 22/22 23/23 24/24
f 25/25 26/26 27/27
f 28/28 29/29 30/30
f 31/31 32/32 33/33
f 34/34 35/35 36/36
