# Blender 5.1.1
# www.blender.org
mtllib Barrel.mtl
o Barrel
v 0.260000 0.000000 0.000000
v 0.210344 0.000000 -0.152824
v 0.080344 0.000000 -0.247275
v -0.080344 0.000000 -0.247275
v -0.210344 0.000000 -0.152824
v -0.260000 0.000000 -0.000000
v -0.210344 0.000000 0.152824
v -0.080344 0.000000 0.247275
v 0.080344 0.000000 0.247275
v 0.210344 0.000000 0.152824
v 0.260000 0.660000 0.000000
v 0.210344 0.660000 -0.152824
v 0.080344 0.660000 -0.247275
v -0.080344 0.660000 -0.247275
v -0.210344 0.660000 -0.152824
v -0.260000 0.660000 -0.000000
v -0.210344 0.660000 0.152824
v -0.080344 0.660000 0.247275
v 0.080344 0.660000 0.247275
v 0.210344 0.660000 0.152824
vn 0.9511 -0.0000 -0.3090
vn 0.5878 -0.0000 -0.8090
vn -0.0000 -0.0000 -1.0000
vn -0.5878 -0.0000 -0.8090
vn -0.9511 -0.0000 -0.3090
vn -0.9511 -0.0000 0.3090
vn -0.5878 -0.0000 0.8090
vn -0.0000 -0.0000 1.0000
vn 0.5878 -0.0000 0.8090
vn 0.9511 -0.0000 0.3090
vn -0.0000 1.0000 -0.0000
vn -0.0000 -1.0000 -0.0000
vt 0.031250 0.031250
vt 0.109375 0.031250
vt 0.109375 0.359375
vt 0.031250 0.359375
vt 0.187500 0.031250
vt 0.187500 0.359375
vt 0.265625 0.031250
vt 0.265625 0.359375
vt 0.343750 0.031250
vt 0.343750 0.359375
vt 0.421875 0.031250
vt 0.421875 0.359375
vt 0.500000 0.031250
vt 0.500000 0.359375
vt 0.578125 0.031250
vt 0.578125 0.359375
vt 0.656250 0.031250
vt 0.656250 0.359375
vt 0.734375 0.031250
vt 0.734375 0.359375
vt 0.812500 0.031250
vt 0.812500 0.359375
vt 0.250000 0.437500
vt 0.281250 0.515625
vt 0.250000 0.593750
vt 0.187500 0.640625
vt 0.125000 0.640625
vt 0.062500 0.593750
vt 0.031250 0.515625
vt 0.062500 0.437500
vt 0.125000 0.390625
vt 0.187500 0.390625
vt 0.562500 0.515625
vt 0.531250 0.437500
vt 0.468750 0.390625
vt 0.406250 0.390625
vt 0.343750 0.437500
vt 0.312500 0.515625
vt 0.343750 0.593750
vt 0.406250 0.640625
vt 0.468750 0.640625
vt 0.531250 0.593750
s 0
usemtl BarrelTex
f 1/1/1 2/2/1 12/3/1 11/4/1
f 2/2/2 3/5/2 13/6/2 12/3/2
f 3/5/3 4/7/3 14/8/3 13/6/3
f 4/7/4 5/9/4 15/10/4 14/8/4
f 5/9/5 6/11/5 16/12/5 15/10/5
f 6/11/6 7/13/6 17/14/6 16/12/6
f 7/13/7 8/15/7 18/16/7 17/14/7
f 8/15/8 9/17/8 19/18/8 18/16/8
f 9/17/9 10/19/9 20/20/9 19/18/9
f 10/19/10 1/21/10 11/22/10 20/20/10
f 20/23/11 11/24/11 12/25/11 13/26/11 14/27/11 15/28/11 16/29/11 17/30/11 18/31/11 19/32/11
f 1/33/12 10/34/12 9/35/12 8/36/12 7/37/12 6/38/12 5/39/12 4/40/12 3/41/12 2/42/12
