# Blender 5.1.1
# www.blender.org
mtllib BrokenPier.mtl
o BrokenPier
v -0.870000 0.000000 0.750000
v -0.870000 0.140000 0.750000
v -0.870000 0.000000 -0.750000
v -0.870000 0.140000 -0.750000
v -0.690000 0.000000 0.750000
v -0.690000 0.140000 0.750000
v -0.690000 0.000000 -0.750000
v -0.690000 0.140000 -0.750000
v -0.900000 0.140000 0.670000
v -0.900000 0.220000 0.670000
v -0.900000 0.140000 0.410000
v -0.900000 0.220000 0.410000
v 0.900000 0.140000 0.670000
v 0.900000 0.220000 0.670000
v 0.900000 0.140000 0.410000
v 0.900000 0.220000 0.410000
v -0.900000 0.140000 0.400000
v -0.900000 0.220000 0.400000
v -0.900000 0.140000 0.140000
v -0.900000 0.220000 0.140000
v 0.450000 0.140000 0.400000
v 0.450000 0.220000 0.400000
v 0.450000 0.140000 0.140000
v 0.450000 0.220000 0.140000
v -0.900000 0.140000 0.130000
v -0.900000 0.220000 0.130000
v -0.900000 0.140000 -0.130000
v -0.900000 0.220000 -0.130000
v 0.700000 0.140000 0.130000
v 0.700000 0.220000 0.130000
v 0.700000 0.140000 -0.130000
v 0.700000 0.220000 -0.130000
v -0.900000 0.100000 -0.140000
v -0.900000 0.180000 -0.140000
v -0.900000 0.100000 -0.400000
v -0.900000 0.180000 -0.400000
v 0.200000 0.100000 -0.140000
v 0.200000 0.180000 -0.140000
v 0.200000 0.100000 -0.400000
v 0.200000 0.180000 -0.400000
v -0.900000 0.140000 -0.410000
v -0.900000 0.220000 -0.410000
v -0.900000 0.140000 -0.670000
v -0.900000 0.220000 -0.670000
v 0.600000 0.140000 -0.410000
v 0.600000 0.220000 -0.410000
v 0.600000 0.140000 -0.670000
v 0.600000 0.220000 -0.670000
v 0.490000 0.140000 0.320000
v 0.490000 0.200000 0.320000
v 0.490000 0.140000 0.220000
v 0.490000 0.200000 0.220000
v 0.670000 0.140000 0.320000
v 0.670000 0.200000 0.320000
v 0.670000 0.140000 0.220000
v 0.670000 0.200000 0.220000
v 0.250000 0.090000 -0.220000
v 0.250000 0.150000 -0.220000
v 0.250000 0.090000 -0.320000
v 0.250000 0.150000 -0.320000
v 0.430000 0.090000 -0.220000
v 0.430000 0.150000 -0.220000
v 0.430000 0.090000 -0.320000
v 0.430000 0.150000 -0.320000
vn -0.0000 1.0000 -0.0000
vn -0.0000 -1.0000 -0.0000
vn 1.0000 -0.0000 -0.0000
vn -1.0000 -0.0000 -0.0000
vn -0.0000 -0.0000 -1.0000
vn -0.0000 -0.0000 1.0000
vt 0.195312 0.210938
vt 0.218750 0.210938
vt 0.218750 0.398438
vt 0.195312 0.398438
vt 0.195312 0.007812
vt 0.218750 0.007812
vt 0.218750 0.195312
vt 0.195312 0.195312
vt 0.406250 0.195312
vt 0.406250 0.210938
vt 0.007812 0.195312
vt 0.007812 0.210938
vt 0.429688 0.195312
vt 0.429688 0.210938
vt 0.468750 0.050781
vt 0.695312 0.050781
vt 0.695312 0.082031
vt 0.468750 0.082031
vt 0.468750 0.007812
vt 0.695312 0.007812
vt 0.695312 0.039062
vt 0.468750 0.039062
vt 0.726562 0.039062
vt 0.726562 0.050781
vt 0.437500 0.039062
vt 0.437500 0.050781
vt 0.953125 0.039062
vt 0.953125 0.050781
vt 0.039062 0.449219
vt 0.207031 0.449219
vt 0.207031 0.480469
vt 0.039062 0.480469
vt 0.039062 0.406250
vt 0.207031 0.406250
vt 0.207031 0.437500
vt 0.039062 0.437500
vt 0.238281 0.437500
vt 0.238281 0.449219
vt 0.007812 0.437500
vt 0.007812 0.449219
vt 0.406250 0.437500
vt 0.406250 0.449219
vt 0.445312 0.449219
vt 0.644531 0.449219
vt 0.644531 0.480469
vt 0.445312 0.480469
vt 0.445312 0.406250
vt 0.644531 0.406250
vt 0.644531 0.437500
vt 0.445312 0.437500
vt 0.675781 0.437500
vt 0.675781 0.449219
vt 0.414062 0.437500
vt 0.414062 0.449219
vt 0.875000 0.437500
vt 0.875000 0.449219
vt 0.039062 0.531250
vt 0.175781 0.531250
vt 0.175781 0.562500
vt 0.039062 0.562500
vt 0.039062 0.488281
vt 0.175781 0.488281
vt 0.175781 0.519531
vt 0.039062 0.519531
vt 0.207031 0.519531
vt 0.207031 0.531250
vt 0.007812 0.519531
vt 0.007812 0.531250
vt 0.343750 0.519531
vt 0.343750 0.531250
vt 0.382812 0.531250
vt 0.570312 0.531250
vt 0.570312 0.562500
vt 0.382812 0.562500
vt 0.382812 0.488281
vt 0.570312 0.488281
vt 0.570312 0.519531
vt 0.382812 0.519531
vt 0.601562 0.519531
vt 0.601562 0.531250
vt 0.351562 0.519531
vt 0.351562 0.531250
vt 0.789062 0.519531
vt 0.789062 0.531250
vt 0.808594 0.507812
vt 0.832031 0.507812
vt 0.832031 0.519531
vt 0.808594 0.519531
vt 0.808594 0.488281
vt 0.832031 0.488281
vt 0.832031 0.500000
vt 0.808594 0.500000
vt 0.843750 0.500000
vt 0.843750 0.507812
vt 0.796875 0.500000
vt 0.796875 0.507812
vt 0.867188 0.500000
vt 0.867188 0.507812
vt 0.886719 0.507812
vt 0.910156 0.507812
vt 0.910156 0.519531
vt 0.886719 0.519531
vt 0.886719 0.488281
vt 0.910156 0.488281
vt 0.910156 0.500000
vt 0.886719 0.500000
vt 0.921875 0.500000
vt 0.921875 0.507812
vt 0.875000 0.500000
vt 0.875000 0.507812
vt 0.945312 0.500000
vt 0.945312 0.507812
s 0
usemtl BrokenPierTex
f 2/1/1 6/2/1 8/3/1 4/4/1
f 3/5/2 7/6/2 5/7/2 1/8/2
f 5/7/3 7/9/3 8/10/3 6/2/3
f 3/11/4 1/8/4 2/1/4 4/12/4
f 7/9/5 3/13/5 4/14/5 8/10/5
f 1/8/6 5/7/6 6/2/6 2/1/6
f 10/15/1 14/16/1 16/17/1 12/18/1
f 11/19/2 15/20/2 13/21/2 9/22/2
f 13/21/3 15/23/3 16/24/3 14/16/3
f 11/25/4 9/22/4 10/15/4 12/26/4
f 15/23/5 11/27/5 12/28/5 16/24/5
f 9/22/6 13/21/6 14/16/6 10/15/6
f 18/29/1 22/30/1 24/31/1 20/32/1
f 19/33/2 23/34/2 21/35/2 17/36/2
f 21/35/3 23/37/3 24/38/3 22/30/3
f 19/39/4 17/36/4 18/29/4 20/40/4
f 23/37/5 19/41/5 20/42/5 24/38/5
f 17/36/6 21/35/6 22/30/6 18/29/6
f 26/43/1 30/44/1 32/45/1 28/46/1
f 27/47/2 31/48/2 29/49/2 25/50/2
f 29/49/3 31/51/3 32/52/3 30/44/3
f 27/53/4 25/50/4 26/43/4 28/54/4
f 31/51/5 27/55/5 28/56/5 32/52/5
f 25/50/6 29/49/6 30/44/6 26/43/6
f 34/57/1 38/58/1 40/59/1 36/60/1
f 35/61/2 39/62/2 37/63/2 33/64/2
f 37/63/3 39/65/3 40/66/3 38/58/3
f 35/67/4 33/64/4 34/57/4 36/68/4
f 39/65/5 35/69/5 36/70/5 40/66/5
f 33/64/6 37/63/6 38/58/6 34/57/6
f 42/71/1 46/72/1 48/73/1 44/74/1
f 43/75/2 47/76/2 45/77/2 41/78/2
f 45/77/3 47/79/3 48/80/3 46/72/3
f 43/81/4 41/78/4 42/71/4 44/82/4
f 47/79/5 43/83/5 44/84/5 48/80/5
f 41/78/6 45/77/6 46/72/6 42/71/6
f 50/85/1 54/86/1 56/87/1 52/88/1
f 51/89/2 55/90/2 53/91/2 49/92/2
f 53/91/3 55/93/3 56/94/3 54/86/3
f 51/95/4 49/92/4 50/85/4 52/96/4
f 55/93/5 51/97/5 52/98/5 56/94/5
f 49/92/6 53/91/6 54/86/6 50/85/6
f 58/99/1 62/100/1 64/101/1 60/102/1
f 59/103/2 63/104/2 61/105/2 57/106/2
f 61/105/3 63/107/3 64/108/3 62/100/3
f 59/109/4 57/106/4 58/99/4 60/110/4
f 63/107/5 59/111/5 60/112/5 64/108/5
f 57/106/6 61/105/6 62/100/6 58/99/6
