# Blender 5.1.1
# www.blender.org
mtllib DeckGrate.mtl
o DeckGrate
v -1.000000 0.000000 1.000000
v -1.000000 0.120000 1.000000
v -1.000000 0.000000 0.880000
v -1.000000 0.120000 0.880000
v 1.000000 0.000000 1.000000
v 1.000000 0.120000 1.000000
v 1.000000 0.000000 0.880000
v 1.000000 0.120000 0.880000
v -1.000000 0.000000 -0.880000
v -1.000000 0.120000 -0.880000
v -1.000000 0.000000 -1.000000
v -1.000000 0.120000 -1.000000
v 1.000000 0.000000 -0.880000
v 1.000000 0.120000 -0.880000
v 1.000000 0.000000 -1.000000
v 1.000000 0.120000 -1.000000
v -1.000000 0.000000 0.880000
v -1.000000 0.120000 0.880000
v -1.000000 0.000000 -0.880000
v -1.000000 0.120000 -0.880000
v -0.880000 0.000000 0.880000
v -0.880000 0.120000 0.880000
v -0.880000 0.000000 -0.880000
v -0.880000 0.120000 -0.880000
v 0.880000 0.000000 0.880000
v 0.880000 0.120000 0.880000
v 0.880000 0.000000 -0.880000
v 0.880000 0.120000 -0.880000
v 1.000000 0.000000 0.880000
v 1.000000 0.120000 0.880000
v 1.000000 0.000000 -0.880000
v 1.000000 0.120000 -0.880000
v -1.000000 0.120000 1.000000
v -1.000000 0.140000 1.000000
v -1.000000 0.120000 0.850000
v -1.000000 0.140000 0.850000
v -0.850000 0.120000 1.000000
v -0.850000 0.140000 1.000000
v -0.850000 0.120000 0.850000
v -0.850000 0.140000 0.850000
v 0.850000 0.120000 1.000000
v 0.850000 0.140000 1.000000
v 0.850000 0.120000 0.850000
v 0.850000 0.140000 0.850000
v 1.000000 0.120000 1.000000
v 1.000000 0.140000 1.000000
v 1.000000 0.120000 0.850000
v 1.000000 0.140000 0.850000
v -1.000000 0.120000 -0.850000
v -1.000000 0.140000 -0.850000
v -1.000000 0.120000 -1.000000
v -1.000000 0.140000 -1.000000
v -0.850000 0.120000 -0.850000
v -0.850000 0.140000 -0.850000
v -0.850000 0.120000 -1.000000
v -0.850000 0.140000 -1.000000
v 0.850000 0.120000 -0.850000
v 0.850000 0.140000 -0.850000
v 0.850000 0.120000 -1.000000
v 0.850000 0.140000 -1.000000
v 1.000000 0.120000 -0.850000
v 1.000000 0.140000 -0.850000
v 1.000000 0.120000 -1.000000
v 1.000000 0.140000 -1.000000
v -0.910000 0.000000 0.910000
v -0.910000 0.020000 0.910000
v -0.910000 0.000000 -0.910000
v -0.910000 0.020000 -0.910000
v 0.910000 0.000000 0.910000
v 0.910000 0.020000 0.910000
v 0.910000 0.000000 -0.910000
v 0.910000 0.020000 -0.910000
v -0.920000 0.055000 0.920000
v 0.920000 0.055000 0.920000
v -0.920000 0.055000 -0.920000
v 0.920000 0.055000 -0.920000
v -0.107500 0.120000 0.957500
v -0.107500 0.170000 0.957500
v -0.107500 0.120000 0.922500
v -0.107500 0.170000 0.922500
v -0.072500 0.120000 0.957500
v -0.072500 0.170000 0.957500
v -0.072500 0.120000 0.922500
v -0.072500 0.170000 0.922500
v 0.072500 0.120000 0.957500
v 0.072500 0.170000 0.957500
v 0.072500 0.120000 0.922500
v 0.072500 0.170000 0.922500
v 0.107500 0.120000 0.957500
v 0.107500 0.170000 0.957500
v 0.107500 0.120000 0.922500
v 0.107500 0.170000 0.922500
v -0.107500 0.160000 0.957500
v -0.107500 0.195000 0.957500
v -0.107500 0.160000 0.922500
v -0.107500 0.195000 0.922500
v 0.107500 0.160000 0.957500
v 0.107500 0.195000 0.957500
v 0.107500 0.160000 0.922500
v 0.107500 0.195000 0.922500
v -0.107500 0.120000 -0.922500
v -0.107500 0.170000 -0.922500
v -0.107500 0.120000 -0.957500
v -0.107500 0.170000 -0.957500
v -0.072500 0.120000 -0.922500
v -0.072500 0.170000 -0.922500
v -0.072500 0.120000 -0.957500
v -0.072500 0.170000 -0.957500
v 0.072500 0.120000 -0.922500
v 0.072500 0.170000 -0.922500
v 0.072500 0.120000 -0.957500
v 0.072500 0.170000 -0.957500
v 0.107500 0.120000 -0.922500
v 0.107500 0.170000 -0.922500
v 0.107500 0.120000 -0.957500
v 0.107500 0.170000 -0.957500
v -0.107500 0.160000 -0.922500
v -0.107500 0.195000 -0.922500
v -0.107500 0.160000 -0.957500
v -0.107500 0.195000 -0.957500
v 0.107500 0.160000 -0.922500
v 0.107500 0.195000 -0.922500
v 0.107500 0.160000 -0.957500
v 0.107500 0.195000 -0.957500
vn -0.0000 1.0000 -0.0000
vn -0.0000 -1.0000 -0.0000
vn 1.0000 -0.0000 -0.0000
vn -1.0000 -0.0000 -0.0000
vn -0.0000 -0.0000 -1.0000
vn -0.0000 -0.0000 1.0000
vt 0.130859 0.251953
vt 0.255859 0.251953
vt 0.255859 0.259766
vt 0.130859 0.259766
vt 0.130859 0.236328
vt 0.255859 0.236328
vt 0.255859 0.244141
vt 0.130859 0.244141
vt 0.263672 0.244141
vt 0.263672 0.251953
vt 0.123047 0.244141
vt 0.123047 0.251953
vt 0.388672 0.244141
vt 0.388672 0.251953
vt 0.400391 0.251953
vt 0.525391 0.251953
vt 0.525391 0.259766
vt 0.400391 0.259766
vt 0.400391 0.236328
vt 0.525391 0.236328
vt 0.525391 0.244141
vt 0.400391 0.244141
vt 0.533203 0.244141
vt 0.533203 0.251953
vt 0.392578 0.244141
vt 0.392578 0.251953
vt 0.658203 0.244141
vt 0.658203 0.251953
vt 0.570312 0.121094
vt 0.578125 0.121094
vt 0.578125 0.230469
vt 0.570312 0.230469
vt 0.570312 0.003906
vt 0.578125 0.003906
vt 0.578125 0.113281
vt 0.570312 0.113281
vt 0.687500 0.113281
vt 0.687500 0.121094
vt 0.460938 0.113281
vt 0.460938 0.121094
vt 0.695312 0.113281
vt 0.695312 0.121094
vt 0.808594 0.121094
vt 0.816406 0.121094
vt 0.816406 0.230469
vt 0.808594 0.230469
vt 0.808594 0.003906
vt 0.816406 0.003906
vt 0.816406 0.113281
vt 0.808594 0.113281
vt 0.925781 0.113281
vt 0.925781 0.121094
vt 0.699219 0.113281
vt 0.699219 0.121094
vt 0.933594 0.113281
vt 0.933594 0.121094
vt 0.671875 0.248047
vt 0.681641 0.248047
vt 0.681641 0.257812
vt 0.671875 0.257812
vt 0.671875 0.236328
vt 0.681641 0.236328
vt 0.681641 0.246094
vt 0.671875 0.246094
vt 0.691406 0.246094
vt 0.691406 0.248047
vt 0.662109 0.246094
vt 0.662109 0.248047
vt 0.701172 0.246094
vt 0.701172 0.248047
vt 0.714844 0.248047
vt 0.724609 0.248047
vt 0.724609 0.257812
vt 0.714844 0.257812
vt 0.714844 0.236328
vt 0.724609 0.236328
vt 0.724609 0.246094
vt 0.714844 0.246094
vt 0.734375 0.246094
vt 0.734375 0.248047
vt 0.705078 0.246094
vt 0.705078 0.248047
vt 0.744141 0.246094
vt 0.744141 0.248047
vt 0.757812 0.248047
vt 0.767578 0.248047
vt 0.767578 0.257812
vt 0.757812 0.257812
vt 0.757812 0.236328
vt 0.767578 0.236328
vt 0.767578 0.246094
vt 0.757812 0.246094
vt 0.777344 0.246094
vt 0.777344 0.248047
vt 0.748047 0.246094
vt 0.748047 0.248047
vt 0.787109 0.246094
vt 0.787109 0.248047
vt 0.800781 0.248047
vt 0.810547 0.248047
vt 0.810547 0.257812
vt 0.800781 0.257812
vt 0.800781 0.236328
vt 0.810547 0.236328
vt 0.810547 0.246094
vt 0.800781 0.246094
vt 0.820312 0.246094
vt 0.820312 0.248047
vt 0.791016 0.246094
vt 0.791016 0.248047
vt 0.830078 0.246094
vt 0.830078 0.248047
vt 0.117188 0.119141
vt 0.230469 0.119141
vt 0.230469 0.232422
vt 0.117188 0.232422
vt 0.117188 0.003906
vt 0.230469 0.003906
vt 0.230469 0.117188
vt 0.117188 0.117188
vt 0.343750 0.117188
vt 0.343750 0.119141
vt 0.003906 0.117188
vt 0.003906 0.119141
vt 0.457031 0.117188
vt 0.457031 0.119141
vt 0.003906 0.236328
vt 0.119141 0.236328
vt 0.119141 0.351562
vt 0.003906 0.351562
vt 0.835938 0.242188
vt 0.837891 0.242188
vt 0.837891 0.244141
vt 0.835938 0.244141
vt 0.835938 0.236328
vt 0.837891 0.236328
vt 0.837891 0.238281
vt 0.835938 0.238281
vt 0.839844 0.238281
vt 0.839844 0.242188
vt 0.833984 0.238281
vt 0.833984 0.242188
vt 0.841797 0.238281
vt 0.841797 0.242188
vt 0.847656 0.242188
vt 0.849609 0.242188
vt 0.849609 0.244141
vt 0.847656 0.244141
vt 0.847656 0.236328
vt 0.849609 0.236328
vt 0.849609 0.238281
vt 0.847656 0.238281
vt 0.851562 0.238281
vt 0.851562 0.242188
vt 0.845703 0.238281
vt 0.845703 0.242188
vt 0.853516 0.238281
vt 0.853516 0.242188
vt 0.882812 0.240234
vt 0.896484 0.240234
vt 0.896484 0.242188
vt 0.882812 0.242188
vt 0.882812 0.236328
vt 0.896484 0.236328
vt 0.896484 0.238281
vt 0.882812 0.238281
vt 0.898438 0.238281
vt 0.898438 0.240234
vt 0.880859 0.238281
vt 0.880859 0.240234
vt 0.912109 0.238281
vt 0.912109 0.240234
vt 0.859375 0.242188
vt 0.861328 0.242188
vt 0.861328 0.244141
vt 0.859375 0.244141
vt 0.859375 0.236328
vt 0.861328 0.236328
vt 0.861328 0.238281
vt 0.859375 0.238281
vt 0.863281 0.238281
vt 0.863281 0.242188
vt 0.857422 0.238281
vt 0.857422 0.242188
vt 0.865234 0.238281
vt 0.865234 0.242188
vt 0.871094 0.242188
vt 0.873047 0.242188
vt 0.873047 0.244141
vt 0.871094 0.244141
vt 0.871094 0.236328
vt 0.873047 0.236328
vt 0.873047 0.238281
vt 0.871094 0.238281
vt 0.875000 0.238281
vt 0.875000 0.242188
vt 0.869141 0.238281
vt 0.869141 0.242188
vt 0.876953 0.238281
vt 0.876953 0.242188
vt 0.917969 0.240234
vt 0.931641 0.240234
vt 0.931641 0.242188
vt 0.917969 0.242188
vt 0.917969 0.236328
vt 0.931641 0.236328
vt 0.931641 0.238281
vt 0.917969 0.238281
vt 0.933594 0.238281
vt 0.933594 0.240234
vt 0.916016 0.238281
vt 0.916016 0.240234
vt 0.947266 0.238281
vt 0.947266 0.240234
s 0
usemtl DeckGrateTex
f 2/1/1 6/2/1 8/3/1 4/4/1
f 3/5/2 7/6/2 5/7/2 1/8/2
f 5/7/3 7/9/3 8/10/3 6/2/3
f 3/11/4 1/8/4 2/1/4 4/12/4
f 7/9/5 3/13/5 4/14/5 8/10/5
f 1/8/6 5/7/6 6/2/6 2/1/6
f 10/15/1 14/16/1 16/17/1 12/18/1
f 11/19/2 15/20/2 13/21/2 9/22/2
f 13/21/3 15/23/3 16/24/3 14/16/3
f 11/25/4 9/22/4 10/15/4 12/26/4
f 15/23/5 11/27/5 12/28/5 16/24/5
f 9/22/6 13/21/6 14/16/6 10/15/6
f 18/29/1 22/30/1 24/31/1 20/32/1
f 19/33/2 23/34/2 21/35/2 17/36/2
f 21/35/3 23/37/3 24/38/3 22/30/3
f 19/39/4 17/36/4 18/29/4 20/40/4
f 23/37/5 19/41/5 20/42/5 24/38/5
f 17/36/6 21/35/6 22/30/6 18/29/6
f 26/43/1 30/44/1 32/45/1 28/46/1
f 27/47/2 31/48/2 29/49/2 25/50/2
f 29/49/3 31/51/3 32/52/3 30/44/3
f 27/53/4 25/50/4 26/43/4 28/54/4
f 31/51/5 27/55/5 28/56/5 32/52/5
f 25/50/6 29/49/6 30/44/6 26/43/6
f 34/57/1 38/58/1 40/59/1 36/60/1
f 35/61/2 39/62/2 37/63/2 33/64/2
f 37/63/3 39/65/3 40/66/3 38/58/3
f 35/67/4 33/64/4 34/57/4 36/68/4
f 39/65/5 35/69/5 36/70/5 40/66/5
f 33/64/6 37/63/6 38/58/6 34/57/6
f 42/71/1 46/72/1 48/73/1 44/74/1
f 43/75/2 47/76/2 45/77/2 41/78/2
f 45/77/3 47/79/3 48/80/3 46/72/3
f 43/81/4 41/78/4 42/71/4 44/82/4
f 47/79/5 43/83/5 44/84/5 48/80/5
f 41/78/6 45/77/6 46/72/6 42/71/6
f 50/85/1 54/86/1 56/87/1 52/88/1
f 51/89/2 55/90/2 53/91/2 49/92/2
f 53/91/3 55/93/3 56/94/3 54/86/3
f 51/95/4 49/92/4 50/85/4 52/96/4
f 55/93/5 51/97/5 52/98/5 56/94/5
f 49/92/6 53/91/6 54/86/6 50/85/6
f 58/99/1 62/100/1 64/101/1 60/102/1
f 59/103/2 63/104/2 61/105/2 57/106/2
f 61/105/3 63/107/3 64/108/3 62/100/3
f 59/109/4 57/106/4 58/99/4 60/110/4
f 63/107/5 59/111/5 60/112/5 64/108/5
f 57/106/6 61/105/6 62/100/6 58/99/6
f 66/113/1 70/114/1 72/115/1 68/116/1
f 67/117/2 71/118/2 69/119/2 65/120/2
f 69/119/3 71/121/3 72/122/3 70/114/3
f 67/123/4 65/120/4 66/113/4 68/124/4
f 71/121/5 67/125/5 68/126/5 72/122/5
f 65/120/6 69/119/6 70/114/6 66/113/6
f 73/127/1 74/128/1 76/129/1 75/130/1
f 78/131/1 82/132/1 84/133/1 80/134/1
f 79/135/2 83/136/2 81/137/2 77/138/2
f 81/137/3 83/139/3 84/140/3 82/132/3
f 79/141/4 77/138/4 78/131/4 80/142/4
f 83/139/5 79/143/5 80/144/5 84/140/5
f 77/138/6 81/137/6 82/132/6 78/131/6
f 86/145/1 90/146/1 92/147/1 88/148/1
f 87/149/2 91/150/2 89/151/2 85/152/2
f 89/151/3 91/153/3 92/154/3 90/146/3
f 87/155/4 85/152/4 86/145/4 88/156/4
f 91/153/5 87/157/5 88/158/5 92/154/5
f 85/152/6 89/151/6 90/146/6 86/145/6
f 94/159/1 98/160/1 100/161/1 96/162/1
f 95/163/2 99/164/2 97/165/2 93/166/2
f 97/165/3 99/167/3 100/168/3 98/160/3
f 95/169/4 93/166/4 94/159/4 96/170/4
f 99/167/5 95/171/5 96/172/5 100/168/5
f 93/166/6 97/165/6 98/160/6 94/159/6
f 102/173/1 106/174/1 108/175/1 104/176/1
f 103/177/2 107/178/2 105/179/2 101/180/2
f 105/179/3 107/181/3 108/182/3 106/174/3
f 103/183/4 101/180/4 102/173/4 104/184/4
f 107/181/5 103/185/5 104/186/5 108/182/5
f 101/180/6 105/179/6 106/174/6 102/173/6
f 110/187/1 114/188/1 116/189/1 112/190/1
f 111/191/2 115/192/2 113/193/2 109/194/2
f 113/193/3 115/195/3 116/196/3 114/188/3
f 111/197/4 109/194/4 110/187/4 112/198/4
f 115/195/5 111/199/5 112/200/5 116/196/5
f 109/194/6 113/193/6 114/188/6 110/187/6
f 118/201/1 122/202/1 124/203/1 120/204/1
f 119/205/2 123/206/2 121/207/2 117/208/2
f 121/207/3 123/209/3 124/210/3 122/202/3
f 119/211/4 117/208/4 118/201/4 120/212/4
f 123/209/5 119/213/5 120/214/5 124/210/5
f 117/208/6 121/207/6 122/202/6 118/201/6
