# Blender 5.1.1
# www.blender.org
mtllib DoorIronband.mtl
o DoorIronband
v -0.800000 0.000000 0.090000
v -0.800000 2.420000 0.090000
v -0.800000 0.000000 -0.090000
v -0.800000 2.420000 -0.090000
v -0.620000 0.000000 0.090000
v -0.620000 2.420000 0.090000
v -0.620000 0.000000 -0.090000
v -0.620000 2.420000 -0.090000
v 0.620000 0.000000 0.090000
v 0.620000 2.420000 0.090000
v 0.620000 0.000000 -0.090000
v 0.620000 2.420000 -0.090000
v 0.800000 0.000000 0.090000
v 0.800000 2.420000 0.090000
v 0.800000 0.000000 -0.090000
v 0.800000 2.420000 -0.090000
v -0.800000 2.420000 0.090000
v -0.800000 2.600000 0.090000
v -0.800000 2.420000 -0.090000
v -0.800000 2.600000 -0.090000
v 0.800000 2.420000 0.090000
v 0.800000 2.600000 0.090000
v 0.800000 2.420000 -0.090000
v 0.800000 2.600000 -0.090000
v -0.600000 0.000000 0.030000
v -0.600000 2.200000 0.030000
v -0.600000 0.000000 -0.070000
v -0.600000 2.200000 -0.070000
v 0.600000 0.000000 0.030000
v 0.600000 2.200000 0.030000
v 0.600000 0.000000 -0.070000
v 0.600000 2.200000 -0.070000
v -0.640000 0.390000 0.070000
v -0.640000 0.510000 0.070000
v -0.640000 0.390000 -0.010000
v -0.640000 0.510000 -0.010000
v 0.640000 0.390000 0.070000
v 0.640000 0.510000 0.070000
v 0.640000 0.390000 -0.010000
v 0.640000 0.510000 -0.010000
v -0.485000 0.415000 0.105000
v -0.485000 0.485000 0.105000
v -0.485000 0.415000 0.055000
v -0.485000 0.485000 0.055000
v -0.415000 0.415000 0.105000
v -0.415000 0.485000 0.105000
v -0.415000 0.415000 0.055000
v -0.415000 0.485000 0.055000
v 0.415000 0.415000 0.105000
v 0.415000 0.485000 0.105000
v 0.415000 0.415000 0.055000
v 0.415000 0.485000 0.055000
v 0.485000 0.415000 0.105000
v 0.485000 0.485000 0.105000
v 0.485000 0.415000 0.055000
v 0.485000 0.485000 0.055000
v -0.640000 1.190000 0.070000
v -0.640000 1.310000 0.070000
v -0.640000 1.190000 -0.010000
v -0.640000 1.310000 -0.010000
v 0.640000 1.190000 0.070000
v 0.640000 1.310000 0.070000
v 0.640000 1.190000 -0.010000
v 0.640000 1.310000 -0.010000
v -0.485000 1.215000 0.105000
v -0.485000 1.285000 0.105000
v -0.485000 1.215000 0.055000
v -0.485000 1.285000 0.055000
v -0.415000 1.215000 0.105000
v -0.415000 1.285000 0.105000
v -0.415000 1.215000 0.055000
v -0.415000 1.285000 0.055000
v 0.415000 1.215000 0.105000
v 0.415000 1.285000 0.105000
v 0.415000 1.215000 0.055000
v 0.415000 1.285000 0.055000
v 0.485000 1.215000 0.105000
v 0.485000 1.285000 0.105000
v 0.485000 1.215000 0.055000
v 0.485000 1.285000 0.055000
v -0.640000 1.990000 0.070000
v -0.640000 2.110000 0.070000
v -0.640000 1.990000 -0.010000
v -0.640000 2.110000 -0.010000
v 0.640000 1.990000 0.070000
v 0.640000 2.110000 0.070000
v 0.640000 1.990000 -0.010000
v 0.640000 2.110000 -0.010000
v -0.485000 2.015000 0.105000
v -0.485000 2.085000 0.105000
v -0.485000 2.015000 0.055000
v -0.485000 2.085000 0.055000
v -0.415000 2.015000 0.105000
v -0.415000 2.085000 0.105000
v -0.415000 2.015000 0.055000
v -0.415000 2.085000 0.055000
v 0.415000 2.015000 0.105000
v 0.415000 2.085000 0.105000
v 0.415000 2.015000 0.055000
v 0.415000 2.085000 0.055000
v 0.485000 2.015000 0.105000
v 0.485000 2.085000 0.105000
v 0.485000 2.015000 0.055000
v 0.485000 2.085000 0.055000
v 0.435000 0.980000 0.085000
v 0.435000 1.120000 0.085000
v 0.435000 0.980000 0.015000
v 0.435000 1.120000 0.015000
v 0.525000 0.980000 0.085000
v 0.525000 1.120000 0.085000
v 0.525000 0.980000 0.015000
v 0.525000 1.120000 0.015000
vn -0.0000 1.0000 -0.0000
vn -0.0000 -1.0000 -0.0000
vn 1.0000 -0.0000 -0.0000
vn -1.0000 -0.0000 -0.0000
vn -0.0000 -0.0000 -1.0000
vn -0.0000 -0.0000 1.0000
vt 0.031250 0.332031
vt 0.054688 0.332031
vt 0.054688 0.355469
vt 0.031250 0.355469
vt 0.031250 0.007812
vt 0.054688 0.007812
vt 0.054688 0.031250
vt 0.031250 0.031250
vt 0.078125 0.031250
vt 0.078125 0.332031
vt 0.007812 0.031250
vt 0.007812 0.332031
vt 0.101562 0.031250
vt 0.101562 0.332031
vt 0.132812 0.332031
vt 0.156250 0.332031
vt 0.156250 0.355469
vt 0.132812 0.355469
vt 0.132812 0.007812
vt 0.156250 0.007812
vt 0.156250 0.031250
vt 0.132812 0.031250
vt 0.179688 0.031250
vt 0.179688 0.332031
vt 0.109375 0.031250
vt 0.109375 0.332031
vt 0.203125 0.031250
vt 0.203125 0.332031
vt 0.562500 0.054688
vt 0.761719 0.054688
vt 0.761719 0.078125
vt 0.562500 0.078125
vt 0.562500 0.007812
vt 0.761719 0.007812
vt 0.761719 0.031250
vt 0.562500 0.031250
vt 0.785156 0.031250
vt 0.785156 0.054688
vt 0.539062 0.031250
vt 0.539062 0.054688
vt 0.984375 0.031250
vt 0.984375 0.054688
vt 0.222656 0.292969
vt 0.371094 0.292969
vt 0.371094 0.304688
vt 0.222656 0.304688
vt 0.222656 0.007812
vt 0.371094 0.007812
vt 0.371094 0.019531
vt 0.222656 0.019531
vt 0.382812 0.019531
vt 0.382812 0.292969
vt 0.210938 0.019531
vt 0.210938 0.292969
vt 0.531250 0.019531
vt 0.531250 0.292969
vt 0.019531 0.390625
vt 0.179688 0.390625
vt 0.179688 0.402344
vt 0.019531 0.402344
vt 0.019531 0.363281
vt 0.179688 0.363281
vt 0.179688 0.375000
vt 0.019531 0.375000
vt 0.191406 0.375000
vt 0.191406 0.390625
vt 0.007812 0.375000
vt 0.007812 0.390625
vt 0.351562 0.375000
vt 0.351562 0.390625
vt 0.414062 0.425781
vt 0.421875 0.425781
vt 0.421875 0.433594
vt 0.414062 0.433594
vt 0.414062 0.410156
vt 0.421875 0.410156
vt 0.421875 0.417969
vt 0.414062 0.417969
vt 0.429688 0.417969
vt 0.429688 0.425781
vt 0.406250 0.417969
vt 0.406250 0.425781
vt 0.437500 0.417969
vt 0.437500 0.425781
vt 0.453125 0.425781
vt 0.460938 0.425781
vt 0.460938 0.433594
vt 0.453125 0.433594
vt 0.453125 0.410156
vt 0.460938 0.410156
vt 0.460938 0.417969
vt 0.453125 0.417969
vt 0.468750 0.417969
vt 0.468750 0.425781
vt 0.445312 0.417969
vt 0.445312 0.425781
vt 0.476562 0.417969
vt 0.476562 0.425781
vt 0.371094 0.390625
vt 0.531250 0.390625
vt 0.531250 0.402344
vt 0.371094 0.402344
vt 0.371094 0.363281
vt 0.531250 0.363281
vt 0.531250 0.375000
vt 0.371094 0.375000
vt 0.542969 0.375000
vt 0.542969 0.390625
vt 0.359375 0.375000
vt 0.359375 0.390625
vt 0.703125 0.375000
vt 0.703125 0.390625
vt 0.492188 0.425781
vt 0.500000 0.425781
vt 0.500000 0.433594
vt 0.492188 0.433594
vt 0.492188 0.410156
vt 0.500000 0.410156
vt 0.500000 0.417969
vt 0.492188 0.417969
vt 0.507812 0.417969
vt 0.507812 0.425781
vt 0.484375 0.417969
vt 0.484375 0.425781
vt 0.515625 0.417969
vt 0.515625 0.425781
vt 0.531250 0.425781
vt 0.539062 0.425781
vt 0.539062 0.433594
vt 0.531250 0.433594
vt 0.531250 0.410156
vt 0.539062 0.410156
vt 0.539062 0.417969
vt 0.531250 0.417969
vt 0.546875 0.417969
vt 0.546875 0.425781
vt 0.523438 0.417969
vt 0.523438 0.425781
vt 0.554688 0.417969
vt 0.554688 0.425781
vt 0.019531 0.437500
vt 0.179688 0.437500
vt 0.179688 0.449219
vt 0.019531 0.449219
vt 0.019531 0.410156
vt 0.179688 0.410156
vt 0.179688 0.421875
vt 0.019531 0.421875
vt 0.191406 0.421875
vt 0.191406 0.437500
vt 0.007812 0.421875
vt 0.007812 0.437500
vt 0.351562 0.421875
vt 0.351562 0.437500
vt 0.570312 0.425781
vt 0.578125 0.425781
vt 0.578125 0.433594
vt 0.570312 0.433594
vt 0.570312 0.410156
vt 0.578125 0.410156
vt 0.578125 0.417969
vt 0.570312 0.417969
vt 0.585938 0.417969
vt 0.585938 0.425781
vt 0.562500 0.417969
vt 0.562500 0.425781
vt 0.593750 0.417969
vt 0.593750 0.425781
vt 0.609375 0.425781
vt 0.617188 0.425781
vt 0.617188 0.433594
vt 0.609375 0.433594
vt 0.609375 0.410156
vt 0.617188 0.410156
vt 0.617188 0.417969
vt 0.609375 0.417969
vt 0.625000 0.417969
vt 0.625000 0.425781
vt 0.601562 0.417969
vt 0.601562 0.425781
vt 0.632812 0.417969
vt 0.632812 0.425781
vt 0.367188 0.433594
vt 0.378906 0.433594
vt 0.378906 0.441406
vt 0.367188 0.441406
vt 0.367188 0.410156
vt 0.378906 0.410156
vt 0.378906 0.417969
vt 0.367188 0.417969
vt 0.386719 0.417969
vt 0.386719 0.433594
vt 0.359375 0.417969
vt 0.359375 0.433594
vt 0.398438 0.417969
vt 0.398438 0.433594
s 0
usemtl DoorIronbandTex
f 2/1/1 6/2/1 8/3/1 4/4/1
f 3/5/2 7/6/2 5/7/2 1/8/2
f 5/7/3 7/9/3 8/10/3 6/2/3
f 3/11/4 1/8/4 2/1/4 4/12/4
f 7/9/5 3/13/5 4/14/5 8/10/5
f 1/8/6 5/7/6 6/2/6 2/1/6
f 10/15/1 14/16/1 16/17/1 12/18/1
f 11/19/2 15/20/2 13/21/2 9/22/2
f 13/21/3 15/23/3 16/24/3 14/16/3
f 11/25/4 9/22/4 10/15/4 12/26/4
f 15/23/5 11/27/5 12/28/5 16/24/5
f 9/22/6 13/21/6 14/16/6 10/15/6
f 18/29/1 22/30/1 24/31/1 20/32/1
f 19/33/2 23/34/2 21/35/2 17/36/2
f 21/35/3 23/37/3 24/38/3 22/30/3
f 19/39/4 17/36/4 18/29/4 20/40/4
f 23/37/5 19/41/5 20/42/5 24/38/5
f 17/36/6 21/35/6 22/30/6 18/29/6
f 26/43/1 30/44/1 32/45/1 28/46/1
f 27/47/2 31/48/2 29/49/2 25/50/2
f 29/49/3 31/51/3 32/52/3 30/44/3
f 27/53/4 25/50/4 26/43/4 28/54/4
f 31/51/5 27/55/5 28/56/5 32/52/5
f 25/50/6 29/49/6 30/44/6 26/43/6
f 34/57/1 38/58/1 40/59/1 36/60/1
f 35/61/2 39/62/2 37/63/2 33/64/2
f 37/63/3 39/65/3 40/66/3 38/58/3
f 35/67/4 33/64/4 34/57/4 36/68/4
f 39/65/5 35/69/5 36/70/5 40/66/5
f 33/64/6 37/63/6 38/58/6 34/57/6
f 42/71/1 46/72/1 48/73/1 44/74/1
f 43/75/2 47/76/2 45/77/2 41/78/2
f 45/77/3 47/79/3 48/80/3 46/72/3
f 43/81/4 41/78/4 42/71/4 44/82/4
f 47/79/5 43/83/5 44/84/5 48/80/5
f 41/78/6 45/77/6 46/72/6 42/71/6
f 50/85/1 54/86/1 56/87/1 52/88/1
f 51/89/2 55/90/2 53/91/2 49/92/2
f 53/91/3 55/93/3 56/94/3 54/86/3
f 51/95/4 49/92/4 50/85/4 52/96/4
f 55/93/5 51/97/5 52/98/5 56/94/5
f 49/92/6 53/91/6 54/86/6 50/85/6
f 58/99/1 62/100/1 64/101/1 60/102/1
f 59/103/2 63/104/2 61/105/2 57/106/2
f 61/105/3 63/107/3 64/108/3 62/100/3
f 59/109/4 57/106/4 58/99/4 60/110/4
f 63/107/5 59/111/5 60/112/5 64/108/5
f 57/106/6 61/105/6 62/100/6 58/99/6
f 66/113/1 70/114/1 72/115/1 68/116/1
f 67/117/2 71/118/2 69/119/2 65/120/2
f 69/119/3 71/121/3 72/122/3 70/114/3
f 67/123/4 65/120/4 66/113/4 68/124/4
f 71/121/5 67/125/5 68/126/5 72/122/5
f 65/120/6 69/119/6 70/114/6 66/113/6
f 74/127/1 78/128/1 80/129/1 76/130/1
f 75/131/2 79/132/2 77/133/2 73/134/2
f 77/133/3 79/135/3 80/136/3 78/128/3
f 75/137/4 73/134/4 74/127/4 76/138/4
f 79/135/5 75/139/5 76/140/5 80/136/5
f 73/134/6 77/133/6 78/128/6 74/127/6
f 82/141/1 86/142/1 88/143/1 84/144/1
f 83/145/2 87/146/2 85/147/2 81/148/2
f 85/147/3 87/149/3 88/150/3 86/142/3
f 83/151/4 81/148/4 82/141/4 84/152/4
f 87/149/5 83/153/5 84/154/5 88/150/5
f 81/148/6 85/147/6 86/142/6 82/141/6
f 90/155/1 94/156/1 96/157/1 92/158/1
f 91/159/2 95/160/2 93/161/2 89/162/2
f 93/161/3 95/163/3 96/164/3 94/156/3
f 91/165/4 89/162/4 90/155/4 92/166/4
f 95/163/5 91/167/5 92/168/5 96/164/5
f 89/162/6 93/161/6 94/156/6 90/155/6
f 98/169/1 102/170/1 104/171/1 100/172/1
f 99/173/2 103/174/2 101/175/2 97/176/2
f 101/175/3 103/177/3 104/178/3 102/170/3
f 99/179/4 97/176/4 98/169/4 100/180/4
f 103/177/5 99/181/5 100/182/5 104/178/5
f 97/176/6 101/175/6 102/170/6 98/169/6
f 106/183/1 110/184/1 112/185/1 108/186/1
f 107/187/2 111/188/2 109/189/2 105/190/2
f 109/189/3 111/191/3 112/192/3 110/184/3
f 107/193/4 105/190/4 106/183/4 108/194/4
f 111/191/5 107/195/5 108/196/5 112/192/5
f 105/190/6 109/189/6 110/184/6 106/183/6
