# Blender 5.1.1
# www.blender.org
mtllib DrumNeck.mtl
o DrumNeck
v 1.620000 -0.340000 0.000000
v 1.402961 -0.340000 -0.810000
v 0.810000 -0.340000 -1.402961
v 0.000000 -0.340000 -1.620000
v -0.810000 -0.340000 -1.402961
v -1.402961 -0.340000 -0.810000
v -1.620000 -0.340000 -0.000000
v -1.402961 -0.340000 0.810000
v -0.810000 -0.340000 1.402961
v -0.000000 -0.340000 1.620000
v 0.810000 -0.340000 1.402961
v 1.402961 -0.340000 0.810000
v 1.620000 0.000000 0.000000
v 1.402961 0.000000 -0.810000
v 0.810000 0.000000 -1.402961
v 0.000000 0.000000 -1.620000
v -0.810000 0.000000 -1.402961
v -1.402961 0.000000 -0.810000
v -1.620000 0.000000 -0.000000
v -1.402961 0.000000 0.810000
v -0.810000 0.000000 1.402961
v -0.000000 0.000000 1.620000
v 0.810000 0.000000 1.402961
v 1.402961 0.000000 0.810000
v 1.620000 4.600000 0.000000
v 1.402961 4.600000 -0.810000
v 0.810000 4.600000 -1.402961
v 0.000000 4.600000 -1.620000
v -0.810000 4.600000 -1.402961
v -1.402961 4.600000 -0.810000
v -1.620000 4.600000 -0.000000
v -1.402961 4.600000 0.810000
v -0.810000 4.600000 1.402961
v -0.000000 4.600000 1.620000
v 0.810000 4.600000 1.402961
v 1.402961 4.600000 0.810000
v 1.620000 4.940000 0.000000
v 1.402961 4.940000 -0.810000
v 0.810000 4.940000 -1.402961
v 0.000000 4.940000 -1.620000
v -0.810000 4.940000 -1.402961
v -1.402961 4.940000 -0.810000
v -1.620000 4.940000 -0.000000
v -1.402961 4.940000 0.810000
v -0.810000 4.940000 1.402961
v -0.000000 4.940000 1.620000
v 0.810000 4.940000 1.402961
v 1.402961 4.940000 0.810000
v 0.850000 0.000000 0.000000
v 0.687664 0.000000 -0.499617
v 0.262664 0.000000 -0.808398
v -0.262664 0.000000 -0.808398
v -0.687664 0.000000 -0.499617
v -0.850000 0.000000 -0.000000
v -0.687664 0.000000 0.499617
v -0.262664 0.000000 0.808398
v 0.262664 0.000000 0.808398
v 0.687664 0.000000 0.499617
v 0.850000 4.600000 0.000000
v 0.687664 4.600000 -0.499617
v 0.262664 4.600000 -0.808398
v -0.262664 4.600000 -0.808398
v -0.687664 4.600000 -0.499617
v -0.850000 4.600000 -0.000000
v -0.687664 4.600000 0.499617
v -0.262664 4.600000 0.808398
v 0.262664 4.600000 0.808398
v 0.687664 4.600000 0.499617
v 0.632462 0.200000 -0.632462
v 0.632462 4.400000 -0.632462
v 0.632462 0.200000 -0.852462
v 0.632462 4.400000 -0.852462
v 0.852462 0.200000 -0.632462
v 0.852462 4.400000 -0.632462
v 0.852462 0.200000 -0.852462
v 0.852462 4.400000 -0.852462
v -0.852462 0.200000 -0.632462
v -0.852462 4.400000 -0.632462
v -0.852462 0.200000 -0.852462
v -0.852462 4.400000 -0.852462
v -0.632462 0.200000 -0.632462
v -0.632462 4.400000 -0.632462
v -0.632462 0.200000 -0.852462
v -0.632462 4.400000 -0.852462
v -0.852462 0.200000 0.852462
v -0.852462 4.400000 0.852462
v -0.852462 0.200000 0.632462
v -0.852462 4.400000 0.632462
v -0.632462 0.200000 0.852462
v -0.632462 4.400000 0.852462
v -0.632462 0.200000 0.632462
v -0.632462 4.400000 0.632462
v 0.632462 0.200000 0.852462
v 0.632462 4.400000 0.852462
v 0.632462 0.200000 0.632462
v 0.632462 4.400000 0.632462
v 0.852462 0.200000 0.852462
v 0.852462 4.400000 0.852462
v 0.852462 0.200000 0.632462
v 0.852462 4.400000 0.632462
vn 0.9659 -0.0000 -0.2588
vn 0.7071 -0.0000 -0.7071
vn 0.2588 -0.0000 -0.9659
vn -0.2588 -0.0000 -0.9659
vn -0.7071 -0.0000 -0.7071
vn -0.9659 -0.0000 -0.2588
vn -0.9659 -0.0000 0.2588
vn -0.7071 -0.0000 0.7071
vn -0.2588 -0.0000 0.9659
vn 0.2588 -0.0000 0.9659
vn 0.7071 -0.0000 0.7071
vn 0.9659 -0.0000 0.2588
vn -0.0000 1.0000 -0.0000
vn -0.0000 -1.0000 -0.0000
vn 0.9511 -0.0000 -0.3090
vn 0.5878 -0.0000 -0.8090
vn -0.0000 -0.0000 -1.0000
vn -0.5878 -0.0000 -0.8090
vn -0.9511 -0.0000 -0.3090
vn -0.9511 -0.0000 0.3090
vn -0.5878 -0.0000 0.8090
vn -0.0000 -0.0000 1.0000
vn 0.5878 -0.0000 0.8090
vn 0.9511 -0.0000 0.3090
vn 1.0000 -0.0000 -0.0000
vn -1.0000 -0.0000 -0.0000
vt 0.003906 0.296875
vt 0.056641 0.296875
vt 0.056641 0.318359
vt 0.003906 0.318359
vt 0.109375 0.296875
vt 0.109375 0.318359
vt 0.162109 0.296875
vt 0.162109 0.318359
vt 0.214844 0.296875
vt 0.214844 0.318359
vt 0.267578 0.296875
vt 0.267578 0.318359
vt 0.320312 0.296875
vt 0.320312 0.318359
vt 0.373047 0.296875
vt 0.373047 0.318359
vt 0.425781 0.296875
vt 0.425781 0.318359
vt 0.478516 0.296875
vt 0.478516 0.318359
vt 0.531250 0.296875
vt 0.531250 0.318359
vt 0.583984 0.296875
vt 0.583984 0.318359
vt 0.636719 0.296875
vt 0.636719 0.318359
vt 0.193359 0.373047
vt 0.207031 0.423828
vt 0.193359 0.474609
vt 0.156250 0.511719
vt 0.105469 0.525391
vt 0.054688 0.511719
vt 0.017578 0.474609
vt 0.003906 0.423828
vt 0.017578 0.373047
vt 0.054688 0.335938
vt 0.105469 0.322266
vt 0.156250 0.335938
vt 0.414062 0.423828
vt 0.400391 0.373047
vt 0.363281 0.335938
vt 0.312500 0.322266
vt 0.261719 0.335938
vt 0.224609 0.373047
vt 0.210938 0.423828
vt 0.224609 0.474609
vt 0.261719 0.511719
vt 0.312500 0.525391
vt 0.363281 0.511719
vt 0.400391 0.474609
vt 0.003906 0.529297
vt 0.056641 0.529297
vt 0.056641 0.550781
vt 0.003906 0.550781
vt 0.109375 0.529297
vt 0.109375 0.550781
vt 0.162109 0.529297
vt 0.162109 0.550781
vt 0.214844 0.529297
vt 0.214844 0.550781
vt 0.267578 0.529297
vt 0.267578 0.550781
vt 0.320312 0.529297
vt 0.320312 0.550781
vt 0.373047 0.529297
vt 0.373047 0.550781
vt 0.425781 0.529297
vt 0.425781 0.550781
vt 0.478516 0.529297
vt 0.478516 0.550781
vt 0.531250 0.529297
vt 0.531250 0.550781
vt 0.583984 0.529297
vt 0.583984 0.550781
vt 0.636719 0.529297
vt 0.636719 0.550781
vt 0.193359 0.605469
vt 0.207031 0.656250
vt 0.193359 0.707031
vt 0.156250 0.744141
vt 0.105469 0.757812
vt 0.054688 0.744141
vt 0.017578 0.707031
vt 0.003906 0.656250
vt 0.017578 0.605469
vt 0.054688 0.568359
vt 0.105469 0.554688
vt 0.156250 0.568359
vt 0.414062 0.656250
vt 0.400391 0.605469
vt 0.363281 0.568359
vt 0.312500 0.554688
vt 0.261719 0.568359
vt 0.224609 0.605469
vt 0.210938 0.656250
vt 0.224609 0.707031
vt 0.261719 0.744141
vt 0.312500 0.757812
vt 0.363281 0.744141
vt 0.400391 0.707031
vt 0.238281 0.003906
vt 0.271484 0.003906
vt 0.271484 0.291016
vt 0.238281 0.291016
vt 0.304688 0.003906
vt 0.304688 0.291016
vt 0.337891 0.003906
vt 0.337891 0.291016
vt 0.371094 0.003906
vt 0.371094 0.291016
vt 0.404297 0.003906
vt 0.404297 0.291016
vt 0.437500 0.003906
vt 0.437500 0.291016
vt 0.470703 0.003906
vt 0.470703 0.291016
vt 0.503906 0.003906
vt 0.503906 0.291016
vt 0.537109 0.003906
vt 0.537109 0.291016
vt 0.570312 0.003906
vt 0.570312 0.291016
vt 0.017578 0.279297
vt 0.031250 0.279297
vt 0.031250 0.292969
vt 0.017578 0.292969
vt 0.017578 0.003906
vt 0.031250 0.003906
vt 0.031250 0.017578
vt 0.017578 0.017578
vt 0.044922 0.017578
vt 0.044922 0.279297
vt 0.003906 0.017578
vt 0.003906 0.279297
vt 0.058594 0.017578
vt 0.058594 0.279297
vt 0.076172 0.279297
vt 0.089844 0.279297
vt 0.089844 0.292969
vt 0.076172 0.292969
vt 0.076172 0.003906
vt 0.089844 0.003906
vt 0.089844 0.017578
vt 0.076172 0.017578
vt 0.103516 0.017578
vt 0.103516 0.279297
vt 0.062500 0.017578
vt 0.062500 0.279297
vt 0.117188 0.017578
vt 0.117188 0.279297
vt 0.134766 0.279297
vt 0.148438 0.279297
vt 0.148438 0.292969
vt 0.134766 0.292969
vt 0.134766 0.003906
vt 0.148438 0.003906
vt 0.148438 0.017578
vt 0.134766 0.017578
vt 0.162109 0.017578
vt 0.162109 0.279297
vt 0.121094 0.017578
vt 0.121094 0.279297
vt 0.175781 0.017578
vt 0.175781 0.279297
vt 0.193359 0.279297
vt 0.207031 0.279297
vt 0.207031 0.292969
vt 0.193359 0.292969
vt 0.193359 0.003906
vt 0.207031 0.003906
vt 0.207031 0.017578
vt 0.193359 0.017578
vt 0.220703 0.017578
vt 0.220703 0.279297
vt 0.179688 0.017578
vt 0.179688 0.279297
vt 0.234375 0.017578
vt 0.234375 0.279297
s 0
usemtl DrumNeckTex
f 1/1/1 2/2/1 14/3/1 13/4/1
f 2/2/2 3/5/2 15/6/2 14/3/2
f 3/5/3 4/7/3 16/8/3 15/6/3
f 4/7/4 5/9/4 17/10/4 16/8/4
f 5/9/5 6/11/5 18/12/5 17/10/5
f 6/11/6 7/13/6 19/14/6 18/12/6
f 7/13/7 8/15/7 20/16/7 19/14/7
f 8/15/8 9/17/8 21/18/8 20/16/8
f 9/17/9 10/19/9 22/20/9 21/18/9
f 10/19/10 11/21/10 23/22/10 22/20/10
f 11/21/11 12/23/11 24/24/11 23/22/11
f 12/23/12 1/25/12 13/26/12 24/24/12
f 24/27/13 13/28/13 14/29/13 15/30/13 16/31/13 17/32/13 18/33/13 19/34/13 20/35/13 21/36/13 22/37/13 23/38/13
f 1/39/14 12/40/14 11/41/14 10/42/14 9/43/14 8/44/14 7/45/14 6/46/14 5/47/14 4/48/14 3/49/14 2/50/14
f 25/51/1 26/52/1 38/53/1 37/54/1
f 26/52/2 27/55/2 39/56/2 38/53/2
f 27/55/3 28/57/3 40/58/3 39/56/3
f 28/57/4 29/59/4 41/60/4 40/58/4
f 29/59/5 30/61/5 42/62/5 41/60/5
f 30/61/6 31/63/6 43/64/6 42/62/6
f 31/63/7 32/65/7 44/66/7 43/64/7
f 32/65/8 33/67/8 45/68/8 44/66/8
f 33/67/9 34/69/9 46/70/9 45/68/9
f 34/69/10 35/71/10 47/72/10 46/70/10
f 35/71/11 36/73/11 48/74/11 47/72/11
f 36/73/12 25/75/12 37/76/12 48/74/12
f 48/77/13 37/78/13 38/79/13 39/80/13 40/81/13 41/82/13 42/83/13 43/84/13 44/85/13 45/86/13 46/87/13 47/88/13
f 25/89/14 36/90/14 35/91/14 34/92/14 33/93/14 32/94/14 31/95/14 30/96/14 29/97/14 28/98/14 27/99/14 26/100/14
f 49/101/15 50/102/15 60/103/15 59/104/15
f 50/102/16 51/105/16 61/106/16 60/103/16
f 51/105/17 52/107/17 62/108/17 61/106/17
f 52/107/18 53/109/18 63/110/18 62/108/18
f 53/109/19 54/111/19 64/112/19 63/110/19
f 54/111/20 55/113/20 65/114/20 64/112/20
f 55/113/21 56/115/21 66/116/21 65/114/21
f 56/115/22 57/117/22 67/118/22 66/116/22
f 57/117/23 58/119/23 68/120/23 67/118/23
f 58/119/24 49/121/24 59/122/24 68/120/24
f 70/123/13 74/124/13 76/125/13 72/126/13
f 71/127/14 75/128/14 73/129/14 69/130/14
f 73/129/25 75/131/25 76/132/25 74/124/25
f 71/133/26 69/130/26 70/123/26 72/134/26
f 75/131/17 71/135/17 72/136/17 76/132/17
f 69/130/22 73/129/22 74/124/22 70/123/22
f 78/137/13 82/138/13 84/139/13 80/140/13
f 79/141/14 83/142/14 81/143/14 77/144/14
f 81/143/25 83/145/25 84/146/25 82/138/25
f 79/147/26 77/144/26 78/137/26 80/148/26
f 83/145/17 79/149/17 80/150/17 84/146/17
f 77/144/22 81/143/22 82/138/22 78/137/22
f 86/151/13 90/152/13 92/153/13 88/154/13
f 87/155/14 91/156/14 89/157/14 85/158/14
f 89/157/25 91/159/25 92/160/25 90/152/25
f 87/161/26 85/158/26 86/151/26 88/162/26
f 91/159/17 87/163/17 88/164/17 92/160/17
f 85/158/22 89/157/22 90/152/22 86/151/22
f 94/165/13 98/166/13 100/167/13 96/168/13
f 95/169/14 99/170/14 97/171/14 93/172/14
f 97/171/25 99/173/25 100/174/25 98/166/25
f 95/175/26 93/172/26 94/165/26 96/176/26
f 99/173/17 95/177/17 96/178/17 100/174/17
f 93/172/22 97/171/22 98/166/22 94/165/22
