# Blender 5.1.1
# www.blender.org
mtllib DrumLower.mtl
o DrumLower
v 3.450000 0.000000 0.000000
v 3.187384 0.000000 -1.320258
v 2.439518 0.000000 -2.439518
v 1.320258 0.000000 -3.187384
v 0.000000 0.000000 -3.450000
v -1.320258 0.000000 -3.187384
v -2.439518 0.000000 -2.439518
v -3.187384 0.000000 -1.320258
v -3.450000 0.000000 -0.000000
v -3.187384 0.000000 1.320258
v -2.439518 0.000000 2.439518
v -1.320258 0.000000 3.187384
v -0.000000 0.000000 3.450000
v 1.320258 0.000000 3.187384
v 2.439518 0.000000 2.439518
v 3.187384 0.000000 1.320258
v 3.450000 5.000000 0.000000
v 3.187384 5.000000 -1.320258
v 2.439518 5.000000 -2.439518
v 1.320258 5.000000 -3.187384
v 0.000000 5.000000 -3.450000
v -1.320258 5.000000 -3.187384
v -2.439518 5.000000 -2.439518
v -3.187384 5.000000 -1.320258
v -3.450000 5.000000 -0.000000
v -3.187384 5.000000 1.320258
v -2.439518 5.000000 2.439518
v -1.320258 5.000000 3.187384
v -0.000000 5.000000 3.450000
v 1.320258 5.000000 3.187384
v 2.439518 5.000000 2.439518
v 3.187384 5.000000 1.320258
vn 0.9808 -0.0000 -0.1951
vn 0.8315 -0.0000 -0.5556
vn 0.5556 -0.0000 -0.8315
vn 0.1951 -0.0000 -0.9808
vn -0.1951 -0.0000 -0.9808
vn -0.5556 -0.0000 -0.8315
vn -0.8315 -0.0000 -0.5556
vn -0.9808 -0.0000 -0.1951
vn -0.9808 -0.0000 0.1951
vn -0.8315 -0.0000 0.5556
vn -0.5556 -0.0000 0.8315
vn -0.1951 -0.0000 0.9808
vn 0.1951 -0.0000 0.9808
vn 0.5556 -0.0000 0.8315
vn 0.8315 -0.0000 0.5556
vn 0.9808 -0.0000 0.1951
vn -0.0000 1.0000 -0.0000
vt 0.003906 0.003906
vt 0.035156 0.003906
vt 0.035156 0.121094
vt 0.003906 0.121094
vt 0.066406 0.003906
vt 0.066406 0.121094
vt 0.097656 0.003906
vt 0.097656 0.121094
vt 0.128906 0.003906
vt 0.128906 0.121094
vt 0.160156 0.003906
vt 0.160156 0.121094
vt 0.191406 0.003906
vt 0.191406 0.121094
vt 0.222656 0.003906
vt 0.222656 0.121094
vt 0.253906 0.003906
vt 0.253906 0.121094
vt 0.285156 0.003906
vt 0.285156 0.121094
vt 0.316406 0.003906
vt 0.316406 0.121094
vt 0.347656 0.003906
vt 0.347656 0.121094
vt 0.378906 0.003906
vt 0.378906 0.121094
vt 0.410156 0.003906
vt 0.410156 0.121094
vt 0.441406 0.003906
vt 0.441406 0.121094
vt 0.472656 0.003906
vt 0.472656 0.121094
vt 0.503906 0.003906
vt 0.503906 0.121094
vt 0.158203 0.173828
vt 0.164062 0.205078
vt 0.158203 0.236328
vt 0.140625 0.261719
vt 0.115234 0.279297
vt 0.083984 0.285156
vt 0.052734 0.279297
vt 0.027344 0.261719
vt 0.009766 0.236328
vt 0.003906 0.205078
vt 0.009766 0.173828
vt 0.027344 0.148438
vt 0.052734 0.130859
vt 0.083984 0.125000
vt 0.115234 0.130859
vt 0.140625 0.148438
s 0
usemtl DrumLowerTex
f 1/1/1 2/2/1 18/3/1 17/4/1
f 2/2/2 3/5/2 19/6/2 18/3/2
f 3/5/3 4/7/3 20/8/3 19/6/3
f 4/7/4 5/9/4 21/10/4 20/8/4
f 5/9/5 6/11/5 22/12/5 21/10/5
f 6/11/6 7/13/6 23/14/6 22/12/6
f 7/13/7 8/15/7 24/16/7 23/14/7
f 8/15/8 9/17/8 25/18/8 24/16/8
f 9/17/9 10/19/9 26/20/9 25/18/9
f 10/19/10 11/21/10 27/22/10 26/20/10
f 11/21/11 12/23/11 28/24/11 27/22/11
f 12/23/12 13/25/12 29/26/12 28/24/12
f 13/25/13 14/27/13 30/28/13 29/26/13
f 14/27/14 15/29/14 31/30/14 30/28/14
f 15/29/15 16/31/15 32/32/15 31/30/15
f 16/31/16 1/33/16 17/34/16 32/32/16
f 32/35/17 17/36/17 18/37/17 19/38/17 20/39/17 21/40/17 22/41/17 23/42/17 24/43/17 25/44/17 26/45/17 27/46/17 28/47/17 29/48/17 30/49/17 31/50/17
