# Blender 5.1.1
# www.blender.org
mtllib Fin.mtl
o Fin
v -0.850000 0.000000 0.250000
v -0.850000 9.000000 0.250000
v -0.850000 0.000000 -0.250000
v -0.850000 9.000000 -0.250000
v 0.850000 0.000000 0.250000
v 0.850000 9.000000 0.250000
v 0.850000 0.000000 -0.250000
v 0.850000 9.000000 -0.250000
v 0.770000 0.400000 0.480000
v 0.770000 8.200000 0.480000
v 0.770000 0.400000 0.220000
v 0.770000 8.200000 0.220000
v 1.030000 0.400000 0.480000
v 1.030000 8.200000 0.480000
v 1.030000 0.400000 0.220000
v 1.030000 8.200000 0.220000
vn -0.0000 1.0000 -0.0000
vn -0.0000 -1.0000 -0.0000
vn 1.0000 -0.0000 -0.0000
vn -1.0000 -0.0000 -0.0000
vn -0.0000 -0.0000 -1.0000
vn -0.0000 -0.0000 1.0000
vt 0.035156 0.597656
vt 0.140625 0.597656
vt 0.140625 0.628906
vt 0.035156 0.628906
vt 0.035156 0.003906
vt 0.140625 0.003906
vt 0.140625 0.035156
vt 0.035156 0.035156
vt 0.171875 0.035156
vt 0.171875 0.597656
vt 0.003906 0.035156
vt 0.003906 0.597656
vt 0.277344 0.035156
vt 0.277344 0.597656
vt 0.296875 0.507812
vt 0.312500 0.507812
vt 0.312500 0.523438
vt 0.296875 0.523438
vt 0.296875 0.003906
vt 0.312500 0.003906
vt 0.312500 0.019531
vt 0.296875 0.019531
vt 0.328125 0.019531
vt 0.328125 0.507812
vt 0.281250 0.019531
vt 0.281250 0.507812
vt 0.343750 0.019531
vt 0.343750 0.507812
s 0
usemtl FinTex
f 2/1/1 6/2/1 8/3/1 4/4/1
f 3/5/2 7/6/2 5/7/2 1/8/2
f 5/7/3 7/9/3 8/10/3 6/2/3
f 3/11/4 1/8/4 2/1/4 4/12/4
f 7/9/5 3/13/5 4/14/5 8/10/5
f 1/8/6 5/7/6 6/2/6 2/1/6
f 10/15/1 14/16/1 16/17/1 12/18/1
f 11/19/2 15/20/2 13/21/2 9/22/2
f 13/21/3 15/23/3 16/24/3 14/16/3
f 11/25/4 9/22/4 10/15/4 12/26/4
f 15/23/5 11/27/5 12/28/5 16/24/5
f 9/22/6 13/21/6 14/16/6 10/15/6
