# Blender 5.1.1
# www.blender.org
mtllib FlureLedge.mtl
o FlureLedge
v -1.500000 -0.250000 1.800000
v -1.500000 -0.010000 1.800000
v -1.500000 -0.250000 -1.800000
v -1.500000 -0.010000 -1.800000
v 1.500000 -0.250000 1.800000
v 1.500000 -0.010000 1.800000
v 1.500000 -0.250000 -1.800000
v 1.500000 -0.010000 -1.800000
v -1.000000 -0.580000 1.660000
v -1.000000 -0.420000 1.660000
v -1.000000 -0.580000 -0.860000
v -1.000000 -0.420000 -0.860000
v -0.800000 -0.580000 1.660000
v -0.800000 -0.420000 1.660000
v -0.800000 -0.580000 -0.860000
v -0.800000 -0.420000 -0.860000
v 0.800000 -0.580000 1.660000
v 0.800000 -0.420000 1.660000
v 0.800000 -0.580000 -0.860000
v 0.800000 -0.420000 -0.860000
v 1.000000 -0.580000 1.660000
v 1.000000 -0.420000 1.660000
v 1.000000 -0.580000 -0.860000
v 1.000000 -0.420000 -0.860000
v -2.375000 -0.290000 0.350000
v -2.375000 -0.190000 0.350000
v -2.375000 -0.290000 -0.750000
v -2.375000 -0.190000 -0.750000
v -1.625000 -0.290000 0.350000
v -1.625000 -0.190000 0.350000
v -1.625000 -0.290000 -0.750000
v -1.625000 -0.190000 -0.750000
v 1.525000 -0.290000 0.050000
v 1.525000 -0.190000 0.050000
v 1.525000 -0.290000 -1.050000
v 1.525000 -0.190000 -1.050000
v 2.275000 -0.290000 0.050000
v 2.275000 -0.190000 0.050000
v 2.275000 -0.290000 -1.050000
v 2.275000 -0.190000 -1.050000
v 2.025000 -0.290000 -0.250000
v 2.025000 -0.190000 -0.250000
v 2.025000 -0.290000 -1.350000
v 2.025000 -0.190000 -1.350000
v 2.775000 -0.290000 -0.250000
v 2.775000 -0.190000 -0.250000
v 2.775000 -0.290000 -1.350000
v 2.775000 -0.190000 -1.350000
v -0.427762 0.000000 0.429371
v -0.448492 0.000000 0.400839
v -0.482033 0.000000 0.411738
v -0.482033 0.000000 0.447005
v -0.448492 0.000000 0.457903
v -0.439762 0.813996 0.429371
v -0.452200 0.813996 0.412252
v -0.472325 0.813996 0.418791
v -0.472325 0.813996 0.439951
v -0.452200 0.813996 0.446490
v -0.019347 0.000000 0.502238
v -0.040077 0.000000 0.473707
v -0.073618 0.000000 0.484605
v -0.073618 0.000000 0.519872
v -0.040077 0.000000 0.530770
v -0.031347 0.469054 0.502238
v -0.043785 0.469054 0.485119
v -0.063909 0.469054 0.491658
v -0.063909 0.469054 0.512819
v -0.043785 0.469054 0.519357
v 0.041272 0.000000 1.238474
v 0.020542 0.000000 1.209942
v -0.012999 0.000000 1.220841
v -0.012999 0.000000 1.256108
v 0.020542 0.000000 1.267006
v 0.029272 0.527887 1.238474
v 0.016834 0.527887 1.221355
v -0.003291 0.527887 1.227894
v -0.003291 0.527887 1.249054
v 0.016834 0.527887 1.255593
v 0.709396 0.000000 1.228309
v 0.688666 0.000000 1.199777
v 0.655125 0.000000 1.210675
v 0.655125 0.000000 1.245942
v 0.688666 0.000000 1.256840
v 0.697396 0.830576 1.228309
v 0.684958 0.830576 1.211190
v 0.664833 0.830576 1.217728
v 0.664833 0.830576 1.238889
v 0.684958 0.830576 1.245427
v -0.008427 0.000000 0.881273
v -0.029157 0.000000 0.852741
v -0.062698 0.000000 0.863640
v -0.062698 0.000000 0.898907
v -0.029157 0.000000 0.909805
v -0.020427 0.411379 0.881273
v -0.032865 0.411379 0.864154
v -0.052990 0.411379 0.870693
v -0.052990 0.411379 0.891853
v -0.032865 0.411379 0.898392
v -0.190155 0.000000 0.809897
v -0.210884 0.000000 0.781366
v -0.244425 0.000000 0.792264
v -0.244425 0.000000 0.827531
v -0.210884 0.000000 0.838429
v -0.202155 0.737649 0.809897
v -0.214592 0.737649 0.792778
v -0.234717 0.737649 0.799317
v -0.234717 0.737649 0.820478
v -0.214592 0.737649 0.827016
vn -0.0000 1.0000 -0.0000
vn -0.0000 -1.0000 -0.0000
vn 1.0000 -0.0000 -0.0000
vn -1.0000 -0.0000 -0.0000
vn -0.0000 -0.0000 -1.0000
vn -0.0000 -0.0000 1.0000
vn 0.8090 0.0119 -0.5877
vn -0.3090 0.0119 -0.9510
vn -0.9999 0.0119 -0.0000
vn -0.3090 0.0119 0.9510
vn 0.8090 0.0119 0.5877
vn 0.8088 0.0207 -0.5877
vn -0.3090 0.0207 -0.9509
vn -0.9998 0.0207 -0.0000
vn -0.3090 0.0207 0.9509
vn 0.8088 0.0207 0.5877
vn 0.8089 0.0184 -0.5877
vn -0.3090 0.0184 -0.9509
vn -0.9998 0.0184 -0.0000
vn -0.3090 0.0184 0.9509
vn 0.8089 0.0184 0.5877
vn 0.8090 0.0117 -0.5877
vn -0.3090 0.0117 -0.9510
vn -0.9999 0.0117 -0.0000
vn -0.3090 0.0117 0.9510
vn 0.8090 0.0117 0.5877
vn 0.8088 0.0236 -0.5876
vn -0.3089 0.0236 -0.9508
vn -0.9997 0.0236 -0.0000
vn -0.3089 0.0236 0.9508
vn 0.8088 0.0236 0.5876
vn 0.8089 0.0132 -0.5877
vn -0.3090 0.0132 -0.9510
vn -0.9999 0.0132 -0.0000
vn -0.3090 0.0132 0.9510
vn 0.8089 0.0132 0.5877
vt 0.171875 0.183594
vt 0.312500 0.183594
vt 0.312500 0.351562
vt 0.171875 0.351562
vt 0.171875 0.003906
vt 0.312500 0.003906
vt 0.312500 0.171875
vt 0.171875 0.171875
vt 0.480469 0.171875
vt 0.480469 0.183594
vt 0.003906 0.171875
vt 0.003906 0.183594
vt 0.621094 0.171875
vt 0.621094 0.183594
vt 0.742188 0.128906
vt 0.751953 0.128906
vt 0.751953 0.246094
vt 0.742188 0.246094
vt 0.742188 0.003906
vt 0.751953 0.003906
vt 0.751953 0.121094
vt 0.742188 0.121094
vt 0.869141 0.121094
vt 0.869141 0.128906
vt 0.625000 0.121094
vt 0.625000 0.128906
vt 0.878906 0.121094
vt 0.878906 0.128906
vt 0.121094 0.480469
vt 0.130859 0.480469
vt 0.130859 0.597656
vt 0.121094 0.597656
vt 0.121094 0.355469
vt 0.130859 0.355469
vt 0.130859 0.472656
vt 0.121094 0.472656
vt 0.248047 0.472656
vt 0.248047 0.480469
vt 0.003906 0.472656
vt 0.003906 0.480469
vt 0.257812 0.472656
vt 0.257812 0.480469
vt 0.312500 0.410156
vt 0.347656 0.410156
vt 0.347656 0.460938
vt 0.312500 0.460938
vt 0.312500 0.355469
vt 0.347656 0.355469
vt 0.347656 0.406250
vt 0.312500 0.406250
vt 0.398438 0.406250
vt 0.398438 0.410156
vt 0.261719 0.406250
vt 0.261719 0.410156
vt 0.433594 0.406250
vt 0.433594 0.410156
vt 0.488281 0.410156
vt 0.523438 0.410156
vt 0.523438 0.460938
vt 0.488281 0.460938
vt 0.488281 0.355469
vt 0.523438 0.355469
vt 0.523438 0.406250
vt 0.488281 0.406250
vt 0.574219 0.406250
vt 0.574219 0.410156
vt 0.437500 0.406250
vt 0.437500 0.410156
vt 0.609375 0.406250
vt 0.609375 0.410156
vt 0.664062 0.410156
vt 0.699219 0.410156
vt 0.699219 0.460938
vt 0.664062 0.460938
vt 0.664062 0.355469
vt 0.699219 0.355469
vt 0.699219 0.406250
vt 0.664062 0.406250
vt 0.750000 0.406250
vt 0.750000 0.410156
vt 0.613281 0.406250
vt 0.613281 0.410156
vt 0.785156 0.406250
vt 0.785156 0.410156
vt 0.789062 0.355469
vt 0.791016 0.355469
vt 0.791016 0.394531
vt 0.789062 0.394531
vt 0.792969 0.355469
vt 0.792969 0.394531
vt 0.794922 0.355469
vt 0.794922 0.394531
vt 0.796875 0.355469
vt 0.796875 0.394531
vt 0.798828 0.355469
vt 0.798828 0.394531
vt 0.791016 0.398438
vt 0.792969 0.400391
vt 0.791016 0.402344
vt 0.789062 0.402344
vt 0.789062 0.398438
vt 0.800781 0.400391
vt 0.798828 0.398438
vt 0.796875 0.398438
vt 0.796875 0.402344
vt 0.798828 0.402344
vt 0.851562 0.355469
vt 0.853516 0.355469
vt 0.853516 0.376953
vt 0.851562 0.376953
vt 0.855469 0.355469
vt 0.855469 0.376953
vt 0.857422 0.355469
vt 0.857422 0.376953
vt 0.859375 0.355469
vt 0.859375 0.376953
vt 0.861328 0.355469
vt 0.861328 0.376953
vt 0.853516 0.380859
vt 0.855469 0.382812
vt 0.853516 0.384766
vt 0.851562 0.384766
vt 0.851562 0.380859
vt 0.863281 0.382812
vt 0.861328 0.380859
vt 0.859375 0.380859
vt 0.859375 0.384766
vt 0.861328 0.384766
vt 0.835938 0.355469
vt 0.837891 0.355469
vt 0.837891 0.380859
vt 0.835938 0.380859
vt 0.839844 0.355469
vt 0.839844 0.380859
vt 0.841797 0.355469
vt 0.841797 0.380859
vt 0.843750 0.355469
vt 0.843750 0.380859
vt 0.845703 0.355469
vt 0.845703 0.380859
vt 0.837891 0.384766
vt 0.839844 0.386719
vt 0.837891 0.388672
vt 0.835938 0.388672
vt 0.835938 0.384766
vt 0.847656 0.386719
vt 0.845703 0.384766
vt 0.843750 0.384766
vt 0.843750 0.388672
vt 0.845703 0.388672
vt 0.804688 0.355469
vt 0.806641 0.355469
vt 0.806641 0.394531
vt 0.804688 0.394531
vt 0.808594 0.355469
vt 0.808594 0.394531
vt 0.810547 0.355469
vt 0.810547 0.394531
vt 0.812500 0.355469
vt 0.812500 0.394531
vt 0.814453 0.355469
vt 0.814453 0.394531
vt 0.806641 0.398438
vt 0.808594 0.400391
vt 0.806641 0.402344
vt 0.804688 0.402344
vt 0.804688 0.398438
vt 0.816406 0.400391
vt 0.814453 0.398438
vt 0.812500 0.398438
vt 0.812500 0.402344
vt 0.814453 0.402344
vt 0.867188 0.355469
vt 0.869141 0.355469
vt 0.869141 0.375000
vt 0.867188 0.375000
vt 0.871094 0.355469
vt 0.871094 0.375000
vt 0.873047 0.355469
vt 0.873047 0.375000
vt 0.875000 0.355469
vt 0.875000 0.375000
vt 0.876953 0.355469
vt 0.876953 0.375000
vt 0.869141 0.378906
vt 0.871094 0.380859
vt 0.869141 0.382812
vt 0.867188 0.382812
vt 0.867188 0.378906
vt 0.878906 0.380859
vt 0.876953 0.378906
vt 0.875000 0.378906
vt 0.875000 0.382812
vt 0.876953 0.382812
vt 0.820312 0.355469
vt 0.822266 0.355469
vt 0.822266 0.390625
vt 0.820312 0.390625
vt 0.824219 0.355469
vt 0.824219 0.390625
vt 0.826172 0.355469
vt 0.826172 0.390625
vt 0.828125 0.355469
vt 0.828125 0.390625
vt 0.830078 0.355469
vt 0.830078 0.390625
vt 0.822266 0.394531
vt 0.824219 0.396484
vt 0.822266 0.398438
vt 0.820312 0.398438
vt 0.820312 0.394531
vt 0.832031 0.396484
vt 0.830078 0.394531
vt 0.828125 0.394531
vt 0.828125 0.398438
vt 0.830078 0.398438
s 0
usemtl FlureLedgeTex
f 2/1/1 6/2/1 8/3/1 4/4/1
f 3/5/2 7/6/2 5/7/2 1/8/2
f 5/7/3 7/9/3 8/10/3 6/2/3
f 3/11/4 1/8/4 2/1/4 4/12/4
f 7/9/5 3/13/5 4/14/5 8/10/5
f 1/8/6 5/7/6 6/2/6 2/1/6
f 10/15/1 14/16/1 16/17/1 12/18/1
f 11/19/2 15/20/2 13/21/2 9/22/2
f 13/21/3 15/23/3 16/24/3 14/16/3
f 11/25/4 9/22/4 10/15/4 12/26/4
f 15/23/5 11/27/5 12/28/5 16/24/5
f 9/22/6 13/21/6 14/16/6 10/15/6
f 18/29/1 22/30/1 24/31/1 20/32/1
f 19/33/2 23/34/2 21/35/2 17/36/2
f 21/35/3 23/37/3 24/38/3 22/30/3
f 19/39/4 17/36/4 18/29/4 20/40/4
f 23/37/5 19/41/5 20/42/5 24/38/5
f 17/36/6 21/35/6 22/30/6 18/29/6
f 26/43/1 30/44/1 32/45/1 28/46/1
f 27/47/2 31/48/2 29/49/2 25/50/2
f 29/49/3 31/51/3 32/52/3 30/44/3
f 27/53/4 25/50/4 26/43/4 28/54/4
f 31/51/5 27/55/5 28/56/5 32/52/5
f 25/50/6 29/49/6 30/44/6 26/43/6
f 34/57/1 38/58/1 40/59/1 36/60/1
f 35/61/2 39/62/2 37/63/2 33/64/2
f 37/63/3 39/65/3 40/66/3 38/58/3
f 35/67/4 33/64/4 34/57/4 36/68/4
f 39/65/5 35/69/5 36/70/5 40/66/5
f 33/64/6 37/63/6 38/58/6 34/57/6
f 42/71/1 46/72/1 48/73/1 44/74/1
f 43/75/2 47/76/2 45/77/2 41/78/2
f 45/77/3 47/79/3 48/80/3 46/72/3
f 43/81/4 41/78/4 42/71/4 44/82/4
f 47/79/5 43/83/5 44/84/5 48/80/5
f 41/78/6 45/77/6 46/72/6 42/71/6
f 49/85/7 50/86/7 55/87/7 54/88/7
f 50/86/8 51/89/8 56/90/8 55/87/8
f 51/89/9 52/91/9 57/92/9 56/90/9
f 52/91/10 53/93/10 58/94/10 57/92/10
f 53/93/11 49/95/11 54/96/11 58/94/11
f 58/97/1 54/98/1 55/99/1 56/100/1 57/101/1
f 49/102/2 53/103/2 52/104/2 51/105/2 50/106/2
f 59/107/12 60/108/12 65/109/12 64/110/12
f 60/108/13 61/111/13 66/112/13 65/109/13
f 61/111/14 62/113/14 67/114/14 66/112/14
f 62/113/15 63/115/15 68/116/15 67/114/15
f 63/115/16 59/117/16 64/118/16 68/116/16
f 68/119/1 64/120/1 65/121/1 66/122/1 67/123/1
f 59/124/2 63/125/2 62/126/2 61/127/2 60/128/2
f 69/129/17 70/130/17 75/131/17 74/132/17
f 70/130/18 71/133/18 76/134/18 75/131/18
f 71/133/19 72/135/19 77/136/19 76/134/19
f 72/135/20 73/137/20 78/138/20 77/136/20
f 73/137/21 69/139/21 74/140/21 78/138/21
f 78/141/1 74/142/1 75/143/1 76/144/1 77/145/1
f 69/146/2 73/147/2 72/148/2 71/149/2 70/150/2
f 79/151/22 80/152/22 85/153/22 84/154/22
f 80/152/23 81/155/23 86/156/23 85/153/23
f 81/155/24 82/157/24 87/158/24 86/156/24
f 82/157/25 83/159/25 88/160/25 87/158/25
f 83/159/26 79/161/26 84/162/26 88/160/26
f 88/163/1 84/164/1 85/165/1 86/166/1 87/167/1
f 79/168/2 83/169/2 82/170/2 81/171/2 80/172/2
f 89/173/27 90/174/27 95/175/27 94/176/27
f 90/174/28 91/177/28 96/178/28 95/175/28
f 91/177/29 92/179/29 97/180/29 96/178/29
f 92/179/30 93/181/30 98/182/30 97/180/30
f 93/181/31 89/183/31 94/184/31 98/182/31
f 98/185/1 94/186/1 95/187/1 96/188/1 97/189/1
f 89/190/2 93/191/2 92/192/2 91/193/2 90/194/2
f 99/195/32 100/196/32 105/197/32 104/198/32
f 100/196/33 101/199/33 106/200/33 105/197/33
f 101/199/34 102/201/34 107/202/34 106/200/34
f 102/201/35 103/203/35 108/204/35 107/202/35
f 103/203/36 99/205/36 104/206/36 108/204/36
f 108/207/1 104/208/1 105/209/1 106/210/1 107/211/1
f 99/212/2 103/213/2 102/214/2 101/215/2 100/216/2
