# Blender 5.1.1
# www.blender.org
mtllib GateSign_lure.mtl
o GateSign_lure
v -1.656000 -0.008000 0.080000
v -1.656000 1.708000 0.080000
v -1.656000 -0.008000 -0.080000
v -1.656000 1.708000 -0.080000
v 1.656000 -0.008000 0.080000
v 1.656000 1.708000 0.080000
v 1.656000 -0.008000 -0.080000
v 1.656000 1.708000 -0.080000
vn -0.0000 1.0000 -0.0000
vn -0.0000 -1.0000 -0.0000
vn 1.0000 -0.0000 -0.0000
vn -1.0000 -0.0000 -0.0000
vn -0.0000 -0.0000 -1.0000
vn -0.0000 -0.0000 1.0000
vt 0.027344 0.242188
vt 0.441406 0.242188
vt 0.441406 0.261719
vt 0.027344 0.261719
vt 0.027344 0.007812
vt 0.441406 0.007812
vt 0.441406 0.027344
vt 0.027344 0.027344
vt 0.460938 0.027344
vt 0.460938 0.242188
vt 0.007812 0.027344
vt 0.007812 0.242188
vt 0.875000 0.027344
vt 0.875000 0.242188
s 0
usemtl GateSign_lureTex
f 2/1/1 6/2/1 8/3/1 4/4/1
f 3/5/2 7/6/2 5/7/2 1/8/2
f 5/7/3 7/9/3 8/10/3 6/2/3
f 3/11/4 1/8/4 2/1/4 4/12/4
f 7/9/5 3/13/5 4/14/5 8/10/5
f 1/8/6 5/7/6 6/2/6 2/1/6
