# Blender 5.1.1
# www.blender.org
mtllib GateSlab.mtl
o GateSlab
v -2.300000 0.000000 0.275000
v -2.300000 6.600000 0.275000
v -2.300000 0.000000 -0.275000
v -2.300000 6.600000 -0.275000
v 2.300000 0.000000 0.275000
v 2.300000 6.600000 0.275000
v 2.300000 0.000000 -0.275000
v 2.300000 6.600000 -0.275000
v -2.800000 -0.200000 0.500000
v -2.800000 7.200000 0.500000
v -2.800000 -0.200000 -0.300000
v -2.800000 7.200000 -0.300000
v -2.300000 -0.200000 0.500000
v -2.300000 7.200000 0.500000
v -2.300000 -0.200000 -0.300000
v -2.300000 7.200000 -0.300000
v 2.300000 -0.200000 0.500000
v 2.300000 7.200000 0.500000
v 2.300000 -0.200000 -0.300000
v 2.300000 7.200000 -0.300000
v 2.800000 -0.200000 0.500000
v 2.800000 7.200000 0.500000
v 2.800000 -0.200000 -0.300000
v 2.800000 7.200000 -0.300000
v -2.800000 6.750000 0.500000
v -2.800000 7.350000 0.500000
v -2.800000 6.750000 -0.300000
v -2.800000 7.350000 -0.300000
v 2.800000 6.750000 0.500000
v 2.800000 7.350000 0.500000
v 2.800000 6.750000 -0.300000
v 2.800000 7.350000 -0.300000
vn -0.0000 1.0000 -0.0000
vn -0.0000 -1.0000 -0.0000
vn 1.0000 -0.0000 -0.0000
vn -1.0000 -0.0000 -0.0000
vn -0.0000 -0.0000 -1.0000
vn -0.0000 -0.0000 1.0000
vt 0.193359 0.228516
vt 0.337891 0.228516
vt 0.337891 0.246094
vt 0.193359 0.246094
vt 0.193359 0.003906
vt 0.337891 0.003906
vt 0.337891 0.021484
vt 0.193359 0.021484
vt 0.355469 0.021484
vt 0.355469 0.228516
vt 0.175781 0.021484
vt 0.175781 0.228516
vt 0.500000 0.021484
vt 0.500000 0.228516
vt 0.029297 0.259766
vt 0.044922 0.259766
vt 0.044922 0.285156
vt 0.029297 0.285156
vt 0.029297 0.003906
vt 0.044922 0.003906
vt 0.044922 0.029297
vt 0.029297 0.029297
vt 0.070312 0.029297
vt 0.070312 0.259766
vt 0.003906 0.029297
vt 0.003906 0.259766
vt 0.085938 0.029297
vt 0.085938 0.259766
vt 0.115234 0.259766
vt 0.130859 0.259766
vt 0.130859 0.285156
vt 0.115234 0.285156
vt 0.115234 0.003906
vt 0.130859 0.003906
vt 0.130859 0.029297
vt 0.115234 0.029297
vt 0.156250 0.029297
vt 0.156250 0.259766
vt 0.089844 0.029297
vt 0.089844 0.259766
vt 0.171875 0.029297
vt 0.171875 0.259766
vt 0.529297 0.048828
vt 0.705078 0.048828
vt 0.705078 0.074219
vt 0.529297 0.074219
vt 0.529297 0.003906
vt 0.705078 0.003906
vt 0.705078 0.029297
vt 0.529297 0.029297
vt 0.730469 0.029297
vt 0.730469 0.048828
vt 0.503906 0.029297
vt 0.503906 0.048828
vt 0.906250 0.029297
vt 0.906250 0.048828
s 0
usemtl GateSlabTex
f 2/1/1 6/2/1 8/3/1 4/4/1
f 3/5/2 7/6/2 5/7/2 1/8/2
f 5/7/3 7/9/3 8/10/3 6/2/3
f 3/11/4 1/8/4 2/1/4 4/12/4
f 7/9/5 3/13/5 4/14/5 8/10/5
f 1/8/6 5/7/6 6/2/6 2/1/6
f 10/15/1 14/16/1 16/17/1 12/18/1
f 11/19/2 15/20/2 13/21/2 9/22/2
f 13/21/3 15/23/3 16/24/3 14/16/3
f 11/25/4 9/22/4 10/15/4 12/26/4
f 15/23/5 11/27/5 12/28/5 16/24/5
f 9/22/6 13/21/6 14/16/6 10/15/6
f 18/29/1 22/30/1 24/31/1 20/32/1
f 19/33/2 23/34/2 21/35/2 17/36/2
f 21/35/3 23/37/3 24/38/3 22/30/3
f 19/39/4 17/36/4 18/29/4 20/40/4
f 23/37/5 19/41/5 20/42/5 24/38/5
f 17/36/6 21/35/6 22/30/6 18/29/6
f 26/43/1 30/44/1 32/45/1 28/46/1
f 27/47/2 31/48/2 29/49/2 25/50/2
f 29/49/3 31/51/3 32/52/3 30/44/3
f 27/53/4 25/50/4 26/43/4 28/54/4
f 31/51/5 27/55/5 28/56/5 32/52/5
f 25/50/6 29/49/6 30/44/6 26/43/6
