# Blender 5.1.1
# www.blender.org
mtllib MossTuft.mtl
o MossTuft
v 0.620000 0.000000 0.000000
v 0.501591 0.000000 -0.364427
v 0.191591 0.000000 -0.589655
v -0.191591 0.000000 -0.589655
v -0.501591 0.000000 -0.364427
v -0.620000 0.000000 -0.000000
v -0.501591 0.000000 0.364427
v -0.191591 0.000000 0.589655
v 0.191591 0.000000 0.589655
v 0.501591 0.000000 0.364427
v 0.580000 0.040000 0.000000
v 0.469230 0.040000 -0.340915
v 0.179230 0.040000 -0.551613
v -0.179230 0.040000 -0.551613
v -0.469230 0.040000 -0.340915
v -0.580000 0.040000 -0.000000
v -0.469230 0.040000 0.340915
v -0.179230 0.040000 0.551613
v 0.179230 0.040000 0.551613
v 0.469230 0.040000 0.340915
v 0.132288 0.000000 0.143893
v 0.097739 0.000000 0.096340
v 0.041837 0.000000 0.114503
v 0.041837 0.000000 0.173282
v 0.097739 0.000000 0.191446
v 0.102288 0.587604 0.143893
v 0.088468 0.587604 0.124872
v 0.066107 0.587604 0.132137
v 0.066107 0.587604 0.155648
v 0.088468 0.587604 0.162914
v 0.301156 0.000000 -0.097288
v 0.266607 0.000000 -0.144841
v 0.210705 0.000000 -0.126678
v 0.210705 0.000000 -0.067899
v 0.266607 0.000000 -0.049736
v 0.271156 0.644825 -0.097288
v 0.257336 0.644825 -0.116310
v 0.234976 0.644825 -0.109044
v 0.234976 0.644825 -0.085533
v 0.257336 0.644825 -0.078267
v 0.229883 0.000000 0.080186
v 0.195334 0.000000 0.032633
v 0.139433 0.000000 0.050796
v 0.139433 0.000000 0.109575
v 0.195334 0.000000 0.127738
v 0.199883 0.455238 0.080186
v 0.186064 0.455238 0.061164
v 0.163703 0.455238 0.068430
v 0.163703 0.455238 0.091941
v 0.186064 0.455238 0.099207
vn 0.6892 0.6892 -0.2239
vn 0.4259 0.6892 -0.5862
vn -0.0000 0.6892 -0.7246
vn -0.4259 0.6892 -0.5862
vn -0.6892 0.6892 -0.2239
vn -0.6892 0.6892 0.2239
vn -0.4259 0.6892 0.5862
vn -0.0000 0.6892 0.7246
vn 0.4259 0.6892 0.5862
vn 0.6892 0.6892 0.2239
vn -0.0000 1.0000 -0.0000
vn 0.8083 0.0413 -0.5873
vn -0.3088 0.0413 -0.9502
vn -0.9991 0.0413 -0.0000
vn -0.3088 0.0413 0.9502
vn 0.8083 0.0413 0.5873
vn -0.0000 -1.0000 -0.0000
vn 0.8084 0.0376 -0.5874
vn -0.3088 0.0376 -0.9504
vn -0.9993 0.0376 -0.0000
vn -0.3088 0.0376 0.9504
vn 0.8084 0.0376 0.5874
vn 0.8079 0.0532 -0.5870
vn -0.3086 0.0532 -0.9497
vn -0.9986 0.0532 -0.0000
vn -0.3086 0.0532 0.9497
vn 0.8079 0.0532 0.5870
vt 0.015625 0.015625
vt 0.109375 0.015625
vt 0.109375 0.023438
vt 0.015625 0.023438
vt 0.203125 0.015625
vt 0.203125 0.023438
vt 0.296875 0.015625
vt 0.296875 0.023438
vt 0.390625 0.015625
vt 0.390625 0.023438
vt 0.484375 0.015625
vt 0.484375 0.023438
vt 0.578125 0.015625
vt 0.578125 0.023438
vt 0.671875 0.015625
vt 0.671875 0.023438
vt 0.765625 0.015625
vt 0.765625 0.023438
vt 0.859375 0.015625
vt 0.859375 0.023438
vt 0.953125 0.015625
vt 0.953125 0.023438
vt 0.296875 0.101562
vt 0.328125 0.195312
vt 0.296875 0.289062
vt 0.218750 0.343750
vt 0.125000 0.343750
vt 0.046875 0.289062
vt 0.015625 0.195312
vt 0.046875 0.101562
vt 0.125000 0.046875
vt 0.218750 0.046875
vt 0.109375 0.367188
vt 0.117188 0.367188
vt 0.117188 0.515625
vt 0.109375 0.515625
vt 0.125000 0.367188
vt 0.125000 0.515625
vt 0.132812 0.367188
vt 0.132812 0.515625
vt 0.140625 0.367188
vt 0.140625 0.515625
vt 0.148438 0.367188
vt 0.148438 0.515625
vt 0.132812 0.531250
vt 0.140625 0.546875
vt 0.132812 0.562500
vt 0.109375 0.554688
vt 0.109375 0.539062
vt 0.187500 0.546875
vt 0.179688 0.531250
vt 0.156250 0.539062
vt 0.156250 0.554688
vt 0.179688 0.562500
vt 0.015625 0.367188
vt 0.023438 0.367188
vt 0.023438 0.531250
vt 0.015625 0.531250
vt 0.031250 0.367188
vt 0.031250 0.531250
vt 0.039062 0.367188
vt 0.039062 0.531250
vt 0.046875 0.367188
vt 0.046875 0.531250
vt 0.054688 0.367188
vt 0.054688 0.531250
vt 0.039062 0.546875
vt 0.046875 0.562500
vt 0.039062 0.578125
vt 0.015625 0.570312
vt 0.015625 0.554688
vt 0.093750 0.562500
vt 0.085938 0.546875
vt 0.062500 0.554688
vt 0.062500 0.570312
vt 0.085938 0.578125
vt 0.203125 0.367188
vt 0.210938 0.367188
vt 0.210938 0.484375
vt 0.203125 0.484375
vt 0.218750 0.367188
vt 0.218750 0.484375
vt 0.226562 0.367188
vt 0.226562 0.484375
vt 0.234375 0.367188
vt 0.234375 0.484375
vt 0.242188 0.367188
vt 0.242188 0.484375
vt 0.226562 0.500000
vt 0.234375 0.515625
vt 0.226562 0.531250
vt 0.203125 0.523438
vt 0.203125 0.507812
vt 0.281250 0.515625
vt 0.273438 0.500000
vt 0.250000 0.507812
vt 0.250000 0.523438
vt 0.273438 0.531250
s 0
usemtl MossTuftTex
f 1/1/1 2/2/1 12/3/1 11/4/1
f 2/2/2 3/5/2 13/6/2 12/3/2
f 3/5/3 4/7/3 14/8/3 13/6/3
f 4/7/4 5/9/4 15/10/4 14/8/4
f 5/9/5 6/11/5 16/12/5 15/10/5
f 6/11/6 7/13/6 17/14/6 16/12/6
f 7/13/7 8/15/7 18/16/7 17/14/7
f 8/15/8 9/17/8 19/18/8 18/16/8
f 9/17/9 10/19/9 20/20/9 19/18/9
f 10/19/10 1/21/10 11/22/10 20/20/10
f 20/23/11 11/24/11 12/25/11 13/26/11 14/27/11 15/28/11 16/29/11 17/30/11 18/31/11 19/32/11
f 21/33/12 22/34/12 27/35/12 26/36/12
f 22/34/13 23/37/13 28/38/13 27/35/13
f 23/37/14 24/39/14 29/40/14 28/38/14
f 24/39/15 25/41/15 30/42/15 29/40/15
f 25/41/16 21/43/16 26/44/16 30/42/16
f 30/45/11 26/46/11 27/47/11 28/48/11 29/49/11
f 21/50/17 25/51/17 24/52/17 23/53/17 22/54/17
f 31/55/18 32/56/18 37/57/18 36/58/18
f 32/56/19 33/59/19 38/60/19 37/57/19
f 33/59/20 34/61/20 39/62/20 38/60/20
f 34/61/21 35/63/21 40/64/21 39/62/21
f 35/63/22 31/65/22 36/66/22 40/64/22
f 40/67/11 36/68/11 37/69/11 38/70/11 39/71/11
f 31/72/17 35/73/17 34/74/17 33/75/17 32/76/17
f 41/77/23 42/78/23 47/79/23 46/80/23
f 42/78/24 43/81/24 48/82/24 47/79/24
f 43/81/25 44/83/25 49/84/25 48/82/25
f 44/83/26 45/85/26 50/86/26 49/84/26
f 45/85/27 41/87/27 46/88/27 50/86/27
f 50/89/11 46/90/11 47/91/11 48/92/11 49/93/11
f 41/94/17 45/95/17 44/96/17 43/97/17 42/98/17
