# Blender 5.1.1
# www.blender.org
mtllib PadLedge.mtl
o PadLedge
v -0.800000 -0.250000 1.800000
v -0.800000 -0.010000 1.800000
v -0.800000 -0.250000 -1.800000
v -0.800000 -0.010000 -1.800000
v 0.800000 -0.250000 1.800000
v 0.800000 -0.010000 1.800000
v 0.800000 -0.250000 -1.800000
v 0.800000 -0.010000 -1.800000
v -0.100000 -0.580000 1.660000
v -0.100000 -0.420000 1.660000
v -0.100000 -0.580000 -0.860000
v -0.100000 -0.420000 -0.860000
v 0.100000 -0.580000 1.660000
v 0.100000 -0.420000 1.660000
v 0.100000 -0.580000 -0.860000
v 0.100000 -0.420000 -0.860000
v 1.000000 -0.270000 1.150000
v 1.000000 -0.170000 1.150000
v 1.000000 -0.270000 0.150000
v 1.000000 -0.170000 0.150000
v 1.700000 -0.270000 1.150000
v 1.700000 -0.170000 1.150000
v 1.700000 -0.270000 0.150000
v 1.700000 -0.170000 0.150000
vn -0.0000 1.0000 -0.0000
vn -0.0000 -1.0000 -0.0000
vn 1.0000 -0.0000 -0.0000
vn -1.0000 -0.0000 -0.0000
vn -0.0000 -0.0000 -1.0000
vn -0.0000 -0.0000 1.0000
vt 0.171875 0.183594
vt 0.246094 0.183594
vt 0.246094 0.351562
vt 0.171875 0.351562
vt 0.171875 0.003906
vt 0.246094 0.003906
vt 0.246094 0.171875
vt 0.171875 0.171875
vt 0.414062 0.171875
vt 0.414062 0.183594
vt 0.003906 0.171875
vt 0.003906 0.183594
vt 0.488281 0.171875
vt 0.488281 0.183594
vt 0.609375 0.128906
vt 0.619141 0.128906
vt 0.619141 0.246094
vt 0.609375 0.246094
vt 0.609375 0.003906
vt 0.619141 0.003906
vt 0.619141 0.121094
vt 0.609375 0.121094
vt 0.736328 0.121094
vt 0.736328 0.128906
vt 0.492188 0.121094
vt 0.492188 0.128906
vt 0.746094 0.121094
vt 0.746094 0.128906
vt 0.796875 0.054688
vt 0.830078 0.054688
vt 0.830078 0.101562
vt 0.796875 0.101562
vt 0.796875 0.003906
vt 0.830078 0.003906
vt 0.830078 0.050781
vt 0.796875 0.050781
vt 0.876953 0.050781
vt 0.876953 0.054688
vt 0.750000 0.050781
vt 0.750000 0.054688
vt 0.910156 0.050781
vt 0.910156 0.054688
s 0
usemtl PadLedgeTex
f 2/1/1 6/2/1 8/3/1 4/4/1
f 3/5/2 7/6/2 5/7/2 1/8/2
f 5/7/3 7/9/3 8/10/3 6/2/3
f 3/11/4 1/8/4 2/1/4 4/12/4
f 7/9/5 3/13/5 4/14/5 8/10/5
f 1/8/6 5/7/6 6/2/6 2/1/6
f 10/15/1 14/16/1 16/17/1 12/18/1
f 11/19/2 15/20/2 13/21/2 9/22/2
f 13/21/3 15/23/3 16/24/3 14/16/3
f 11/25/4 9/22/4 10/15/4 12/26/4
f 15/23/5 11/27/5 12/28/5 16/24/5
f 9/22/6 13/21/6 14/16/6 10/15/6
f 18/29/1 22/30/1 24/31/1 20/32/1
f 19/33/2 23/34/2 21/35/2 17/36/2
f 21/35/3 23/37/3 24/38/3 22/30/3
f 19/39/4 17/36/4 18/29/4 20/40/4
f 23/37/5 19/41/5 20/42/5 24/38/5
f 17/36/6 21/35/6 22/30/6 18/29/6
