# Blender 5.1.1
# www.blender.org
mtllib PortalPadRing.mtl
o PortalPadRing
v 1.270000 0.000000 0.000000
v 1.226726 0.000000 -0.328700
v 1.099852 0.000000 -0.635000
v 0.898026 0.000000 -0.898026
v 0.635000 0.000000 -1.099852
v 0.328700 0.000000 -1.226726
v 0.000000 0.000000 -1.270000
v -0.328700 0.000000 -1.226726
v -0.635000 0.000000 -1.099852
v -0.898026 0.000000 -0.898026
v -1.099852 0.000000 -0.635000
v -1.226726 0.000000 -0.328700
v -1.270000 0.000000 -0.000000
v -1.226726 0.000000 0.328700
v -1.099852 0.000000 0.635000
v -0.898026 0.000000 0.898026
v -0.635000 0.000000 1.099852
v -0.328700 0.000000 1.226726
v -0.000000 0.000000 1.270000
v 0.328700 0.000000 1.226726
v 0.635000 0.000000 1.099852
v 0.898026 0.000000 0.898026
v 1.099852 0.000000 0.635000
v 1.226726 0.000000 0.328700
v 1.250000 0.100000 0.000000
v 1.207407 0.100000 -0.323524
v 1.082532 0.100000 -0.625000
v 0.883883 0.100000 -0.883883
v 0.625000 0.100000 -1.082532
v 0.323524 0.100000 -1.207407
v 0.000000 0.100000 -1.250000
v -0.323524 0.100000 -1.207407
v -0.625000 0.100000 -1.082532
v -0.883883 0.100000 -0.883883
v -1.082532 0.100000 -0.625000
v -1.207407 0.100000 -0.323524
v -1.250000 0.100000 -0.000000
v -1.207407 0.100000 0.323524
v -1.082532 0.100000 0.625000
v -0.883883 0.100000 0.883883
v -0.625000 0.100000 1.082532
v -0.323524 0.100000 1.207407
v -0.000000 0.100000 1.250000
v 0.323524 0.100000 1.207407
v 0.625000 0.100000 1.082532
v 0.883883 0.100000 0.883883
v 1.082532 0.100000 0.625000
v 1.207407 0.100000 0.323524
v 0.970000 0.000000 0.000000
v 0.936948 0.000000 -0.251054
v 0.840045 0.000000 -0.485000
v 0.685894 0.000000 -0.685894
v 0.485000 0.000000 -0.840045
v 0.251054 0.000000 -0.936948
v 0.000000 0.000000 -0.970000
v -0.251054 0.000000 -0.936948
v -0.485000 0.000000 -0.840045
v -0.685894 0.000000 -0.685894
v -0.840045 0.000000 -0.485000
v -0.936948 0.000000 -0.251054
v -0.970000 0.000000 -0.000000
v -0.936948 0.000000 0.251054
v -0.840045 0.000000 0.485000
v -0.685894 0.000000 0.685894
v -0.485000 0.000000 0.840045
v -0.251054 0.000000 0.936948
v -0.000000 0.000000 0.970000
v 0.251054 0.000000 0.936948
v 0.485000 0.000000 0.840045
v 0.685894 0.000000 0.685894
v 0.840045 0.000000 0.485000
v 0.936948 0.000000 0.251054
v 0.970000 0.080000 0.000000
v 0.936948 0.080000 -0.251054
v 0.840045 0.080000 -0.485000
v 0.685894 0.080000 -0.685894
v 0.485000 0.080000 -0.840045
v 0.251054 0.080000 -0.936948
v 0.000000 0.080000 -0.970000
v -0.251054 0.080000 -0.936948
v -0.485000 0.080000 -0.840045
v -0.685894 0.080000 -0.685894
v -0.840045 0.080000 -0.485000
v -0.936948 0.080000 -0.251054
v -0.970000 0.080000 -0.000000
v -0.936948 0.080000 0.251054
v -0.840045 0.080000 0.485000
v -0.685894 0.080000 0.685894
v -0.485000 0.080000 0.840045
v -0.251054 0.080000 0.936948
v -0.000000 0.080000 0.970000
v 0.251054 0.080000 0.936948
v 0.485000 0.080000 0.840045
v 0.685894 0.080000 0.685894
v 0.840045 0.080000 0.485000
v 0.936948 0.080000 0.251054
v 0.800000 0.000000 0.000000
v 0.772741 0.000000 -0.207055
v 0.692820 0.000000 -0.400000
v 0.565685 0.000000 -0.565685
v 0.400000 0.000000 -0.692820
v 0.207055 0.000000 -0.772741
v 0.000000 0.000000 -0.800000
v -0.207055 0.000000 -0.772741
v -0.400000 0.000000 -0.692820
v -0.565685 0.000000 -0.565685
v -0.692820 0.000000 -0.400000
v -0.772741 0.000000 -0.207055
v -0.800000 0.000000 -0.000000
v -0.772741 0.000000 0.207055
v -0.692820 0.000000 0.400000
v -0.565685 0.000000 0.565685
v -0.400000 0.000000 0.692820
v -0.207055 0.000000 0.772741
v -0.000000 0.000000 0.800000
v 0.207055 0.000000 0.772741
v 0.400000 0.000000 0.692820
v 0.565685 0.000000 0.565685
v 0.692820 0.000000 0.400000
v 0.772741 0.000000 0.207055
v 0.800000 0.120000 0.000000
v 0.772741 0.120000 -0.207055
v 0.692820 0.120000 -0.400000
v 0.565685 0.120000 -0.565685
v 0.400000 0.120000 -0.692820
v 0.207055 0.120000 -0.772741
v 0.000000 0.120000 -0.800000
v -0.207055 0.120000 -0.772741
v -0.400000 0.120000 -0.692820
v -0.565685 0.120000 -0.565685
v -0.692820 0.120000 -0.400000
v -0.772741 0.120000 -0.207055
v -0.800000 0.120000 -0.000000
v -0.772741 0.120000 0.207055
v -0.692820 0.120000 0.400000
v -0.565685 0.120000 0.565685
v -0.400000 0.120000 0.692820
v -0.207055 0.120000 0.772741
v -0.000000 0.120000 0.800000
v 0.207055 0.120000 0.772741
v 0.400000 0.120000 0.692820
v 0.565685 0.120000 0.565685
v 0.692820 0.120000 0.400000
v 0.772741 0.120000 0.207055
v 0.380000 0.120000 0.000000
v 0.329090 0.120000 -0.190000
v 0.190000 0.120000 -0.329090
v 0.000000 0.120000 -0.380000
v -0.190000 0.120000 -0.329090
v -0.329090 0.120000 -0.190000
v -0.380000 0.120000 -0.000000
v -0.329090 0.120000 0.190000
v -0.190000 0.120000 0.329090
v -0.000000 0.120000 0.380000
v 0.190000 0.120000 0.329090
v 0.329090 0.120000 0.190000
v 0.340000 0.270000 0.000000
v 0.294449 0.270000 -0.170000
v 0.170000 0.270000 -0.294449
v 0.000000 0.270000 -0.340000
v -0.170000 0.270000 -0.294449
v -0.294449 0.270000 -0.170000
v -0.340000 0.270000 -0.000000
v -0.294449 0.270000 0.170000
v -0.170000 0.270000 0.294449
v -0.000000 0.270000 0.340000
v 0.170000 0.270000 0.294449
v 0.294449 0.270000 0.170000
vn 0.9725 0.1945 -0.1280
vn 0.9062 0.1945 -0.3754
vn 0.7782 0.1945 -0.5971
vn 0.5971 0.1945 -0.7782
vn 0.3754 0.1945 -0.9062
vn 0.1280 0.1945 -0.9725
vn -0.1280 0.1945 -0.9725
vn -0.3754 0.1945 -0.9062
vn -0.5971 0.1945 -0.7782
vn -0.7782 0.1945 -0.5971
vn -0.9062 0.1945 -0.3754
vn -0.9725 0.1945 -0.1280
vn -0.9725 0.1945 0.1280
vn -0.9062 0.1945 0.3754
vn -0.7782 0.1945 0.5971
vn -0.5971 0.1945 0.7782
vn -0.3754 0.1945 0.9062
vn -0.1280 0.1945 0.9725
vn 0.1280 0.1945 0.9725
vn 0.3754 0.1945 0.9062
vn 0.5971 0.1945 0.7782
vn 0.7782 0.1945 0.5971
vn 0.9062 0.1945 0.3754
vn 0.9725 0.1945 0.1280
vn -0.0000 1.0000 -0.0000
vn -0.0000 -1.0000 -0.0000
vn 0.9914 -0.0000 -0.1305
vn 0.9239 -0.0000 -0.3827
vn 0.7934 -0.0000 -0.6088
vn 0.6088 -0.0000 -0.7934
vn 0.3827 -0.0000 -0.9239
vn 0.1305 -0.0000 -0.9914
vn -0.1305 -0.0000 -0.9914
vn -0.3827 -0.0000 -0.9239
vn -0.6088 -0.0000 -0.7934
vn -0.7934 -0.0000 -0.6088
vn -0.9239 -0.0000 -0.3827
vn -0.9914 -0.0000 -0.1305
vn -0.9914 -0.0000 0.1305
vn -0.9239 -0.0000 0.3827
vn -0.7934 -0.0000 0.6088
vn -0.6088 -0.0000 0.7934
vn -0.3827 -0.0000 0.9239
vn -0.1305 -0.0000 0.9914
vn 0.1305 -0.0000 0.9914
vn 0.3827 -0.0000 0.9239
vn 0.6088 -0.0000 0.7934
vn 0.7934 -0.0000 0.6088
vn 0.9239 -0.0000 0.3827
vn 0.9914 -0.0000 0.1305
vn 0.9354 0.2494 -0.2506
vn 0.6848 0.2494 -0.6848
vn 0.2506 0.2494 -0.9354
vn -0.2506 0.2494 -0.9354
vn -0.6848 0.2494 -0.6848
vn -0.9354 0.2494 -0.2506
vn -0.9354 0.2494 0.2506
vn -0.6848 0.2494 0.6848
vn -0.2506 0.2494 0.9354
vn 0.2506 0.2494 0.9354
vn 0.6848 0.2494 0.6848
vn 0.9354 0.2494 0.2506
vt 0.003906 0.003906
vt 0.025391 0.003906
vt 0.025391 0.009766
vt 0.003906 0.009766
vt 0.046875 0.003906
vt 0.046875 0.009766
vt 0.068359 0.003906
vt 0.068359 0.009766
vt 0.089844 0.003906
vt 0.089844 0.009766
vt 0.111328 0.003906
vt 0.111328 0.009766
vt 0.132812 0.003906
vt 0.132812 0.009766
vt 0.154297 0.003906
vt 0.154297 0.009766
vt 0.175781 0.003906
vt 0.175781 0.009766
vt 0.197266 0.003906
vt 0.197266 0.009766
vt 0.218750 0.003906
vt 0.218750 0.009766
vt 0.240234 0.003906
vt 0.240234 0.009766
vt 0.261719 0.003906
vt 0.261719 0.009766
vt 0.283203 0.003906
vt 0.283203 0.009766
vt 0.304688 0.003906
vt 0.304688 0.009766
vt 0.326172 0.003906
vt 0.326172 0.009766
vt 0.347656 0.003906
vt 0.347656 0.009766
vt 0.369141 0.003906
vt 0.369141 0.009766
vt 0.390625 0.003906
vt 0.390625 0.009766
vt 0.412109 0.003906
vt 0.412109 0.009766
vt 0.433594 0.003906
vt 0.433594 0.009766
vt 0.455078 0.003906
vt 0.455078 0.009766
vt 0.476562 0.003906
vt 0.476562 0.009766
vt 0.498047 0.003906
vt 0.498047 0.009766
vt 0.519531 0.003906
vt 0.519531 0.009766
vt 0.162109 0.072266
vt 0.164062 0.093750
vt 0.162109 0.115234
vt 0.154297 0.132812
vt 0.140625 0.150391
vt 0.125000 0.164062
vt 0.105469 0.171875
vt 0.083984 0.173828
vt 0.062500 0.171875
vt 0.044922 0.164062
vt 0.027344 0.150391
vt 0.013672 0.132812
vt 0.005859 0.115234
vt 0.003906 0.093750
vt 0.005859 0.072266
vt 0.013672 0.054688
vt 0.027344 0.037109
vt 0.042969 0.023438
vt 0.062500 0.015625
vt 0.083984 0.013672
vt 0.105469 0.015625
vt 0.125000 0.023438
vt 0.140625 0.037109
vt 0.154297 0.052734
vt 0.328125 0.093750
vt 0.326172 0.072266
vt 0.318359 0.052734
vt 0.304688 0.037109
vt 0.289062 0.023438
vt 0.269531 0.015625
vt 0.248047 0.013672
vt 0.226562 0.015625
vt 0.207031 0.023438
vt 0.191406 0.037109
vt 0.177734 0.054688
vt 0.169922 0.072266
vt 0.167969 0.093750
vt 0.169922 0.115234
vt 0.177734 0.132812
vt 0.191406 0.150391
vt 0.208984 0.164062
vt 0.226562 0.171875
vt 0.248047 0.173828
vt 0.269531 0.171875
vt 0.289062 0.164062
vt 0.304688 0.150391
vt 0.318359 0.132812
vt 0.326172 0.115234
vt 0.523438 0.003906
vt 0.539062 0.003906
vt 0.539062 0.009766
vt 0.523438 0.009766
vt 0.554688 0.003906
vt 0.554688 0.009766
vt 0.570312 0.003906
vt 0.570312 0.009766
vt 0.585938 0.003906
vt 0.585938 0.009766
vt 0.601562 0.003906
vt 0.601562 0.009766
vt 0.617188 0.003906
vt 0.617188 0.009766
vt 0.632812 0.003906
vt 0.632812 0.009766
vt 0.648438 0.003906
vt 0.648438 0.009766
vt 0.664062 0.003906
vt 0.664062 0.009766
vt 0.679688 0.003906
vt 0.679688 0.009766
vt 0.695312 0.003906
vt 0.695312 0.009766
vt 0.710938 0.003906
vt 0.710938 0.009766
vt 0.726562 0.003906
vt 0.726562 0.009766
vt 0.742188 0.003906
vt 0.742188 0.009766
vt 0.757812 0.003906
vt 0.757812 0.009766
vt 0.773438 0.003906
vt 0.773438 0.009766
vt 0.789062 0.003906
vt 0.789062 0.009766
vt 0.804688 0.003906
vt 0.804688 0.009766
vt 0.820312 0.003906
vt 0.820312 0.009766
vt 0.835938 0.003906
vt 0.835938 0.009766
vt 0.851562 0.003906
vt 0.851562 0.009766
vt 0.867188 0.003906
vt 0.867188 0.009766
vt 0.882812 0.003906
vt 0.882812 0.009766
vt 0.898438 0.003906
vt 0.898438 0.009766
vt 0.642578 0.058594
vt 0.644531 0.074219
vt 0.642578 0.089844
vt 0.636719 0.103516
vt 0.626953 0.117188
vt 0.615234 0.126953
vt 0.599609 0.132812
vt 0.583984 0.134766
vt 0.568359 0.132812
vt 0.554688 0.126953
vt 0.541016 0.117188
vt 0.531250 0.103516
vt 0.525391 0.089844
vt 0.523438 0.074219
vt 0.525391 0.058594
vt 0.531250 0.044922
vt 0.541016 0.031250
vt 0.552734 0.021484
vt 0.568359 0.015625
vt 0.583984 0.013672
vt 0.599609 0.015625
vt 0.615234 0.021484
vt 0.626953 0.031250
vt 0.636719 0.042969
vt 0.769531 0.074219
vt 0.767578 0.058594
vt 0.761719 0.042969
vt 0.751953 0.031250
vt 0.740234 0.021484
vt 0.724609 0.015625
vt 0.708984 0.013672
vt 0.693359 0.015625
vt 0.677734 0.021484
vt 0.666016 0.031250
vt 0.656250 0.044922
vt 0.650391 0.058594
vt 0.648438 0.074219
vt 0.650391 0.089844
vt 0.656250 0.103516
vt 0.666016 0.117188
vt 0.679688 0.126953
vt 0.693359 0.132812
vt 0.708984 0.134766
vt 0.724609 0.132812
vt 0.740234 0.126953
vt 0.751953 0.117188
vt 0.761719 0.103516
vt 0.767578 0.089844
vt 0.003906 0.177734
vt 0.017578 0.177734
vt 0.017578 0.185547
vt 0.003906 0.185547
vt 0.031250 0.177734
vt 0.031250 0.185547
vt 0.044922 0.177734
vt 0.044922 0.185547
vt 0.058594 0.177734
vt 0.058594 0.185547
vt 0.072266 0.177734
vt 0.072266 0.185547
vt 0.085938 0.177734
vt 0.085938 0.185547
vt 0.099609 0.177734
vt 0.099609 0.185547
vt 0.113281 0.177734
vt 0.113281 0.185547
vt 0.126953 0.177734
vt 0.126953 0.185547
vt 0.140625 0.177734
vt 0.140625 0.185547
vt 0.154297 0.177734
vt 0.154297 0.185547
vt 0.167969 0.177734
vt 0.167969 0.185547
vt 0.181641 0.177734
vt 0.181641 0.185547
vt 0.195312 0.177734
vt 0.195312 0.185547
vt 0.208984 0.177734
vt 0.208984 0.185547
vt 0.222656 0.177734
vt 0.222656 0.185547
vt 0.236328 0.177734
vt 0.236328 0.185547
vt 0.250000 0.177734
vt 0.250000 0.185547
vt 0.263672 0.177734
vt 0.263672 0.185547
vt 0.277344 0.177734
vt 0.277344 0.185547
vt 0.291016 0.177734
vt 0.291016 0.185547
vt 0.304688 0.177734
vt 0.304688 0.185547
vt 0.318359 0.177734
vt 0.318359 0.185547
vt 0.332031 0.177734
vt 0.332031 0.185547
vt 0.103516 0.226562
vt 0.105469 0.240234
vt 0.103516 0.253906
vt 0.099609 0.265625
vt 0.089844 0.275391
vt 0.080078 0.285156
vt 0.068359 0.289062
vt 0.054688 0.291016
vt 0.041016 0.289062
vt 0.029297 0.285156
vt 0.019531 0.275391
vt 0.009766 0.265625
vt 0.005859 0.253906
vt 0.003906 0.240234
vt 0.005859 0.226562
vt 0.009766 0.214844
vt 0.019531 0.205078
vt 0.029297 0.195312
vt 0.041016 0.191406
vt 0.054688 0.189453
vt 0.068359 0.191406
vt 0.080078 0.195312
vt 0.089844 0.205078
vt 0.099609 0.214844
vt 0.210938 0.240234
vt 0.208984 0.226562
vt 0.205078 0.214844
vt 0.195312 0.205078
vt 0.185547 0.195312
vt 0.173828 0.191406
vt 0.160156 0.189453
vt 0.146484 0.191406
vt 0.134766 0.195312
vt 0.125000 0.205078
vt 0.115234 0.214844
vt 0.111328 0.226562
vt 0.109375 0.240234
vt 0.111328 0.253906
vt 0.115234 0.265625
vt 0.125000 0.275391
vt 0.134766 0.285156
vt 0.146484 0.289062
vt 0.160156 0.291016
vt 0.173828 0.289062
vt 0.185547 0.285156
vt 0.195312 0.275391
vt 0.205078 0.265625
vt 0.208984 0.253906
vt 0.335938 0.177734
vt 0.347656 0.177734
vt 0.347656 0.187500
vt 0.335938 0.187500
vt 0.359375 0.177734
vt 0.359375 0.187500
vt 0.371094 0.177734
vt 0.371094 0.187500
vt 0.382812 0.177734
vt 0.382812 0.187500
vt 0.394531 0.177734
vt 0.394531 0.187500
vt 0.406250 0.177734
vt 0.406250 0.187500
vt 0.417969 0.177734
vt 0.417969 0.187500
vt 0.429688 0.177734
vt 0.429688 0.187500
vt 0.441406 0.177734
vt 0.441406 0.187500
vt 0.453125 0.177734
vt 0.453125 0.187500
vt 0.464844 0.177734
vt 0.464844 0.187500
vt 0.476562 0.177734
vt 0.476562 0.187500
vt 0.378906 0.203125
vt 0.382812 0.214844
vt 0.378906 0.226562
vt 0.371094 0.234375
vt 0.359375 0.238281
vt 0.347656 0.234375
vt 0.339844 0.226562
vt 0.335938 0.214844
vt 0.339844 0.203125
vt 0.347656 0.195312
vt 0.359375 0.191406
vt 0.371094 0.195312
vt 0.433594 0.214844
vt 0.429688 0.203125
vt 0.421875 0.195312
vt 0.410156 0.191406
vt 0.398438 0.195312
vt 0.390625 0.203125
vt 0.386719 0.214844
vt 0.390625 0.226562
vt 0.398438 0.234375
vt 0.410156 0.238281
vt 0.421875 0.234375
vt 0.429688 0.226562
s 0
usemtl PortalPadRingTex
f 1/1/1 2/2/1 26/3/1 25/4/1
f 2/2/2 3/5/2 27/6/2 26/3/2
f 3/5/3 4/7/3 28/8/3 27/6/3
f 4/7/4 5/9/4 29/10/4 28/8/4
f 5/9/5 6/11/5 30/12/5 29/10/5
f 6/11/6 7/13/6 31/14/6 30/12/6
f 7/13/7 8/15/7 32/16/7 31/14/7
f 8/15/8 9/17/8 33/18/8 32/16/8
f 9/17/9 10/19/9 34/20/9 33/18/9
f 10/19/10 11/21/10 35/22/10 34/20/10
f 11/21/11 12/23/11 36/24/11 35/22/11
f 12/23/12 13/25/12 37/26/12 36/24/12
f 13/25/13 14/27/13 38/28/13 37/26/13
f 14/27/14 15/29/14 39/30/14 38/28/14
f 15/29/15 16/31/15 40/32/15 39/30/15
f 16/31/16 17/33/16 41/34/16 40/32/16
f 17/33/17 18/35/17 42/36/17 41/34/17
f 18/35/18 19/37/18 43/38/18 42/36/18
f 19/37/19 20/39/19 44/40/19 43/38/19
f 20/39/20 21/41/20 45/42/20 44/40/20
f 21/41/21 22/43/21 46/44/21 45/42/21
f 22/43/22 23/45/22 47/46/22 46/44/22
f 23/45/23 24/47/23 48/48/23 47/46/23
f 24/47/24 1/49/24 25/50/24 48/48/24
f 48/51/25 25/52/25 26/53/25 27/54/25 28/55/25 29/56/25 30/57/25 31/58/25 32/59/25 33/60/25 34/61/25 35/62/25 36/63/25 37/64/25 38/65/25 39/66/25 40/67/25 41/68/25 42/69/25 43/70/25 44/71/25 45/72/25 46/73/25 47/74/25
f 1/75/26 24/76/26 23/77/26 22/78/26 21/79/26 20/80/26 19/81/26 18/82/26 17/83/26 16/84/26 15/85/26 14/86/26 13/87/26 12/88/26 11/89/26 10/90/26 9/91/26 8/92/26 7/93/26 6/94/26 5/95/26 4/96/26 3/97/26 2/98/26
f 49/99/27 50/100/27 74/101/27 73/102/27
f 50/100/28 51/103/28 75/104/28 74/101/28
f 51/103/29 52/105/29 76/106/29 75/104/29
f 52/105/30 53/107/30 77/108/30 76/106/30
f 53/107/31 54/109/31 78/110/31 77/108/31
f 54/109/32 55/111/32 79/112/32 78/110/32
f 55/111/33 56/113/33 80/114/33 79/112/33
f 56/113/34 57/115/34 81/116/34 80/114/34
f 57/115/35 58/117/35 82/118/35 81/116/35
f 58/117/36 59/119/36 83/120/36 82/118/36
f 59/119/37 60/121/37 84/122/37 83/120/37
f 60/121/38 61/123/38 85/124/38 84/122/38
f 61/123/39 62/125/39 86/126/39 85/124/39
f 62/125/40 63/127/40 87/128/40 86/126/40
f 63/127/41 64/129/41 88/130/41 87/128/41
f 64/129/42 65/131/42 89/132/42 88/130/42
f 65/131/43 66/133/43 90/134/43 89/132/43
f 66/133/44 67/135/44 91/136/44 90/134/44
f 67/135/45 68/137/45 92/138/45 91/136/45
f 68/137/46 69/139/46 93/140/46 92/138/46
f 69/139/47 70/141/47 94/142/47 93/140/47
f 70/141/48 71/143/48 95/144/48 94/142/48
f 71/143/49 72/145/49 96/146/49 95/144/49
f 72/145/50 49/147/50 73/148/50 96/146/50
f 96/149/25 73/150/25 74/151/25 75/152/25 76/153/25 77/154/25 78/155/25 79/156/25 80/157/25 81/158/25 82/159/25 83/160/25 84/161/25 85/162/25 86/163/25 87/164/25 88/165/25 89/166/25 90/167/25 91/168/25 92/169/25 93/170/25 94/171/25 95/172/25
f 49/173/26 72/174/26 71/175/26 70/176/26 69/177/26 68/178/26 67/179/26 66/180/26 65/181/26 64/182/26 63/183/26 62/184/26 61/185/26 60/186/26 59/187/26 58/188/26 57/189/26 56/190/26 55/191/26 54/192/26 53/193/26 52/194/26 51/195/26 50/196/26
f 97/197/27 98/198/27 122/199/27 121/200/27
f 98/198/28 99/201/28 123/202/28 122/199/28
f 99/201/29 100/203/29 124/204/29 123/202/29
f 100/203/30 101/205/30 125/206/30 124/204/30
f 101/205/31 102/207/31 126/208/31 125/206/31
f 102/207/32 103/209/32 127/210/32 126/208/32
f 103/209/33 104/211/33 128/212/33 127/210/33
f 104/211/34 105/213/34 129/214/34 128/212/34
f 105/213/35 106/215/35 130/216/35 129/214/35
f 106/215/36 107/217/36 131/218/36 130/216/36
f 107/217/37 108/219/37 132/220/37 131/218/37
f 108/219/38 109/221/38 133/222/38 132/220/38
f 109/221/39 110/223/39 134/224/39 133/222/39
f 110/223/40 111/225/40 135/226/40 134/224/40
f 111/225/41 112/227/41 136/228/41 135/226/41
f 112/227/42 113/229/42 137/230/42 136/228/42
f 113/229/43 114/231/43 138/232/43 137/230/43
f 114/231/44 115/233/44 139/234/44 138/232/44
f 115/233/45 116/235/45 140/236/45 139/234/45
f 116/235/46 117/237/46 141/238/46 140/236/46
f 117/237/47 118/239/47 142/240/47 141/238/47
f 118/239/48 119/241/48 143/242/48 142/240/48
f 119/241/49 120/243/49 144/244/49 143/242/49
f 120/243/50 97/245/50 121/246/50 144/244/50
f 144/247/25 121/248/25 122/249/25 123/250/25 124/251/25 125/252/25 126/253/25 127/254/25 128/255/25 129/256/25 130/257/25 131/258/25 132/259/25 133/260/25 134/261/25 135/262/25 136/263/25 137/264/25 138/265/25 139/266/25 140/267/25 141/268/25 142/269/25 143/270/25
f 97/271/26 120/272/26 119/273/26 118/274/26 117/275/26 116/276/26 115/277/26 114/278/26 113/279/26 112/280/26 111/281/26 110/282/26 109/283/26 108/284/26 107/285/26 106/286/26 105/287/26 104/288/26 103/289/26 102/290/26 101/291/26 100/292/26 99/293/26 98/294/26
f 145/295/51 146/296/51 158/297/51 157/298/51
f 146/296/52 147/299/52 159/300/52 158/297/52
f 147/299/53 148/301/53 160/302/53 159/300/53
f 148/301/54 149/303/54 161/304/54 160/302/54
f 149/303/55 150/305/55 162/306/55 161/304/55
f 150/305/56 151/307/56 163/308/56 162/306/56
f 151/307/57 152/309/57 164/310/57 163/308/57
f 152/309/58 153/311/58 165/312/58 164/310/58
f 153/311/59 154/313/59 166/314/59 165/312/59
f 154/313/60 155/315/60 167/316/60 166/314/60
f 155/315/61 156/317/61 168/318/61 167/316/61
f 156/317/62 145/319/62 157/320/62 168/318/62
f 168/321/25 157/322/25 158/323/25 159/324/25 160/325/25 161/326/25 162/327/25 163/328/25 164/329/25 165/330/25 166/331/25 167/332/25
f 145/333/26 156/334/26 155/335/26 154/336/26 153/337/26 152/338/26 151/339/26 150/340/26 149/341/26 148/342/26 147/343/26 146/344/26
