# Blender 5.1.1
# www.blender.org
mtllib PortalArch.mtl
o PortalArch
v 1.520000 1.720000 0.000000
v 1.445606 2.189706 0.000000
v 1.229706 2.613434 0.000000
v 0.893434 2.949706 0.000000
v 0.469706 3.165606 0.000000
v 0.000000 3.240000 0.000000
v -0.469706 3.165606 0.000000
v -0.893434 2.949706 0.000000
v -1.229706 2.613434 0.000000
v -1.445606 2.189706 0.000000
v -1.520000 1.720000 0.000000
v -1.445606 1.250294 0.000000
v -1.229706 0.826566 0.000000
v -0.893434 0.490294 0.000000
v -0.469706 0.274394 0.000000
v -0.000000 0.200000 0.000000
v 0.469706 0.274394 0.000000
v 0.893434 0.490294 0.000000
v 1.229706 0.826566 0.000000
v 1.445606 1.250294 0.000000
v 1.520000 1.720000 -0.340000
v 1.445606 2.189706 -0.340000
v 1.229706 2.613434 -0.340000
v 0.893434 2.949706 -0.340000
v 0.469706 3.165606 -0.340000
v 0.000000 3.240000 -0.340000
v -0.469706 3.165606 -0.340000
v -0.893434 2.949706 -0.340000
v -1.229706 2.613434 -0.340000
v -1.445606 2.189706 -0.340000
v -1.520000 1.720000 -0.340000
v -1.445606 1.250294 -0.340000
v -1.229706 0.826566 -0.340000
v -0.893434 0.490294 -0.340000
v -0.469706 0.274394 -0.340000
v -0.000000 0.200000 -0.340000
v 0.469706 0.274394 -0.340000
v 0.893434 0.490294 -0.340000
v 1.229706 0.826566 -0.340000
v 1.445606 1.250294 -0.340000
v 1.140000 1.720000 0.000000
v 1.084204 2.072279 0.000000
v 0.922279 2.390075 0.000000
v 0.670075 2.642279 0.000000
v 0.352279 2.804204 0.000000
v 0.000000 2.860000 0.000000
v -0.352279 2.804204 0.000000
v -0.670075 2.642279 0.000000
v -0.922279 2.390075 0.000000
v -1.084204 2.072279 0.000000
v -1.140000 1.720000 0.000000
v -1.084204 1.367721 0.000000
v -0.922279 1.049925 0.000000
v -0.670075 0.797721 0.000000
v -0.352279 0.635796 0.000000
v -0.000000 0.580000 0.000000
v 0.352279 0.635796 0.000000
v 0.670075 0.797721 0.000000
v 0.922279 1.049925 0.000000
v 1.084204 1.367721 0.000000
v 1.140000 1.720000 -0.340000
v 1.084204 2.072279 -0.340000
v 0.922279 2.390075 -0.340000
v 0.670075 2.642279 -0.340000
v 0.352279 2.804204 -0.340000
v 0.000000 2.860000 -0.340000
v -0.352279 2.804204 -0.340000
v -0.670075 2.642279 -0.340000
v -0.922279 2.390075 -0.340000
v -1.084204 2.072279 -0.340000
v -1.140000 1.720000 -0.340000
v -1.084204 1.367721 -0.340000
v -0.922279 1.049925 -0.340000
v -0.670075 0.797721 -0.340000
v -0.352279 0.635796 -0.340000
v -0.000000 0.580000 -0.340000
v 0.352279 0.635796 -0.340000
v 0.670075 0.797721 -0.340000
v 0.922279 1.049925 -0.340000
v 1.084204 1.367721 -0.340000
v 1.140000 1.720000 -0.020000
v 1.084204 2.072279 -0.020000
v 0.922279 2.390075 -0.020000
v 0.670075 2.642279 -0.020000
v 0.352279 2.804204 -0.020000
v 0.000000 2.860000 -0.020000
v -0.352279 2.804204 -0.020000
v -0.670075 2.642279 -0.020000
v -0.922279 2.390075 -0.020000
v -1.084204 2.072279 -0.020000
v -1.140000 1.720000 -0.020000
v -1.084204 1.367721 -0.020000
v -0.922279 1.049925 -0.020000
v -0.670075 0.797721 -0.020000
v -0.352279 0.635796 -0.020000
v -0.000000 0.580000 -0.020000
v 0.352279 0.635796 -0.020000
v 0.670075 0.797721 -0.020000
v 0.922279 1.049925 -0.020000
v 1.084204 1.367721 -0.020000
v 1.140000 1.720000 -0.260000
v 1.084204 2.072279 -0.260000
v 0.922279 2.390075 -0.260000
v 0.670075 2.642279 -0.260000
v 0.352279 2.804204 -0.260000
v 0.000000 2.860000 -0.260000
v -0.352279 2.804204 -0.260000
v -0.670075 2.642279 -0.260000
v -0.922279 2.390075 -0.260000
v -1.084204 2.072279 -0.260000
v -1.140000 1.720000 -0.260000
v -1.084204 1.367721 -0.260000
v -0.922279 1.049925 -0.260000
v -0.670075 0.797721 -0.260000
v -0.352279 0.635796 -0.260000
v -0.000000 0.580000 -0.260000
v 0.352279 0.635796 -0.260000
v 0.670075 0.797721 -0.260000
v 0.922279 1.049925 -0.260000
v 1.084204 1.367721 -0.260000
v 1.020000 1.720000 -0.020000
v 0.970078 2.035197 -0.020000
v 0.825197 2.319541 -0.020000
v 0.599541 2.545197 -0.020000
v 0.315197 2.690078 -0.020000
v 0.000000 2.740000 -0.020000
v -0.315197 2.690078 -0.020000
v -0.599541 2.545197 -0.020000
v -0.825197 2.319541 -0.020000
v -0.970078 2.035197 -0.020000
v -1.020000 1.720000 -0.020000
v -0.970078 1.404803 -0.020000
v -0.825197 1.120459 -0.020000
v -0.599541 0.894803 -0.020000
v -0.315197 0.749922 -0.020000
v -0.000000 0.700000 -0.020000
v 0.315197 0.749922 -0.020000
v 0.599541 0.894803 -0.020000
v 0.825197 1.120459 -0.020000
v 0.970078 1.404803 -0.020000
v 1.020000 1.720000 -0.260000
v 0.970078 2.035197 -0.260000
v 0.825197 2.319541 -0.260000
v 0.599541 2.545197 -0.260000
v 0.315197 2.690078 -0.260000
v 0.000000 2.740000 -0.260000
v -0.315197 2.690078 -0.260000
v -0.599541 2.545197 -0.260000
v -0.825197 2.319541 -0.260000
v -0.970078 2.035197 -0.260000
v -1.020000 1.720000 -0.260000
v -0.970078 1.404803 -0.260000
v -0.825197 1.120459 -0.260000
v -0.599541 0.894803 -0.260000
v -0.315197 0.749922 -0.260000
v -0.000000 0.700000 -0.260000
v 0.315197 0.749922 -0.260000
v 0.599541 0.894803 -0.260000
v 0.825197 1.120459 -0.260000
v 0.970078 1.404803 -0.260000
v 1.020000 1.720000 -0.120000
v 0.970078 2.035197 -0.120000
v 0.825197 2.319541 -0.120000
v 0.599541 2.545197 -0.120000
v 0.315197 2.690078 -0.120000
v 0.000000 2.740000 -0.120000
v -0.315197 2.690078 -0.120000
v -0.599541 2.545197 -0.120000
v -0.825197 2.319541 -0.120000
v -0.970078 2.035197 -0.120000
v -1.020000 1.720000 -0.120000
v -0.970078 1.404803 -0.120000
v -0.825197 1.120459 -0.120000
v -0.599541 0.894803 -0.120000
v -0.315197 0.749922 -0.120000
v -0.000000 0.700000 -0.120000
v 0.315197 0.749922 -0.120000
v 0.599541 0.894803 -0.120000
v 0.825197 1.120459 -0.120000
v 0.970078 1.404803 -0.120000
v 1.020000 1.720000 -0.150000
v 0.970078 2.035197 -0.150000
v 0.825197 2.319541 -0.150000
v 0.599541 2.545197 -0.150000
v 0.315197 2.690078 -0.150000
v 0.000000 2.740000 -0.150000
v -0.315197 2.690078 -0.150000
v -0.599541 2.545197 -0.150000
v -0.825197 2.319541 -0.150000
v -0.970078 2.035197 -0.150000
v -1.020000 1.720000 -0.150000
v -0.970078 1.404803 -0.150000
v -0.825197 1.120459 -0.150000
v -0.599541 0.894803 -0.150000
v -0.315197 0.749922 -0.150000
v -0.000000 0.700000 -0.150000
v 0.315197 0.749922 -0.150000
v 0.599541 0.894803 -0.150000
v 0.825197 1.120459 -0.150000
v 0.970078 1.404803 -0.150000
v 0.008000 1.720000 -0.120000
v 0.007608 1.722472 -0.120000
v 0.006472 1.724702 -0.120000
v 0.004702 1.726472 -0.120000
v 0.002472 1.727608 -0.120000
v 0.000000 1.728000 -0.120000
v -0.002472 1.727608 -0.120000
v -0.004702 1.726472 -0.120000
v -0.006472 1.724702 -0.120000
v -0.007608 1.722472 -0.120000
v -0.008000 1.720000 -0.120000
v -0.007608 1.717528 -0.120000
v -0.006472 1.715298 -0.120000
v -0.004702 1.713528 -0.120000
v -0.002472 1.712391 -0.120000
v -0.000000 1.712000 -0.120000
v 0.002472 1.712391 -0.120000
v 0.004702 1.713528 -0.120000
v 0.006472 1.715298 -0.120000
v 0.007608 1.717528 -0.120000
v 0.008000 1.720000 -0.150000
v 0.007608 1.722472 -0.150000
v 0.006472 1.724702 -0.150000
v 0.004702 1.726472 -0.150000
v 0.002472 1.727608 -0.150000
v 0.000000 1.728000 -0.150000
v -0.002472 1.727608 -0.150000
v -0.004702 1.726472 -0.150000
v -0.006472 1.724702 -0.150000
v -0.007608 1.722472 -0.150000
v -0.008000 1.720000 -0.150000
v -0.007608 1.717528 -0.150000
v -0.006472 1.715298 -0.150000
v -0.004702 1.713528 -0.150000
v -0.002472 1.712391 -0.150000
v -0.000000 1.712000 -0.150000
v 0.002472 1.712391 -0.150000
v 0.004702 1.713528 -0.150000
v 0.006472 1.715298 -0.150000
v 0.007608 1.717528 -0.150000
v -0.260000 3.230000 0.210000
v -0.260000 3.530000 0.210000
v -0.260000 3.230000 -0.210000
v -0.260000 3.530000 -0.210000
v 0.260000 3.230000 0.210000
v 0.260000 3.530000 0.210000
v 0.260000 3.230000 -0.210000
v 0.260000 3.530000 -0.210000
v -1.450000 0.000000 0.230000
v -1.450000 1.240000 0.230000
v -1.450000 0.000000 -0.230000
v -1.450000 1.240000 -0.230000
v -1.110000 0.000000 0.230000
v -1.110000 1.240000 0.230000
v -1.110000 0.000000 -0.230000
v -1.110000 1.240000 -0.230000
v -1.480000 1.240000 0.260000
v -1.480000 1.400000 0.260000
v -1.480000 1.240000 -0.260000
v -1.480000 1.400000 -0.260000
v -1.080000 1.240000 0.260000
v -1.080000 1.400000 0.260000
v -1.080000 1.240000 -0.260000
v -1.080000 1.400000 -0.260000
v 1.110000 0.000000 0.230000
v 1.110000 1.240000 0.230000
v 1.110000 0.000000 -0.230000
v 1.110000 1.240000 -0.230000
v 1.450000 0.000000 0.230000
v 1.450000 1.240000 0.230000
v 1.450000 0.000000 -0.230000
v 1.450000 1.240000 -0.230000
v 1.080000 1.240000 0.260000
v 1.080000 1.400000 0.260000
v 1.080000 1.240000 -0.260000
v 1.080000 1.400000 -0.260000
v 1.480000 1.240000 0.260000
v 1.480000 1.400000 0.260000
v 1.480000 1.240000 -0.260000
v 1.480000 1.400000 -0.260000
v -1.550000 0.000000 0.430000
v -1.550000 0.200000 0.430000
v -1.550000 0.000000 -0.430000
v -1.550000 0.200000 -0.430000
v 1.550000 0.000000 0.430000
v 1.550000 0.200000 0.430000
v 1.550000 0.000000 -0.430000
v 1.550000 0.200000 -0.430000
v -1.350000 0.200000 0.350000
v -1.350000 0.270000 0.350000
v -1.350000 0.200000 -0.350000
v -1.350000 0.270000 -0.350000
v 1.350000 0.200000 0.350000
v 1.350000 0.270000 0.350000
v 1.350000 0.200000 -0.350000
v 1.350000 0.270000 -0.350000
v 1.200000 0.100000 -0.210000
v 1.200000 0.740000 -0.210000
v 1.200000 0.100000 -0.350000
v 1.200000 0.740000 -0.350000
v 1.360000 0.100000 -0.210000
v 1.360000 0.740000 -0.210000
v 1.360000 0.100000 -0.350000
v 1.360000 0.740000 -0.350000
v -0.260000 0.090000 -0.210000
v -0.260000 0.220000 -0.210000
v -0.260000 0.090000 -0.350000
v -0.260000 0.220000 -0.350000
v 1.360000 0.090000 -0.210000
v 1.360000 0.220000 -0.210000
v 1.360000 0.090000 -0.350000
v 1.360000 0.220000 -0.350000
vn 0.9877 0.1564 -0.0000
vn -0.9877 -0.1564 -0.0000
vn -0.0000 -0.0000 1.0000
vn -0.0000 -0.0000 -1.0000
vn 0.8910 0.4540 -0.0000
vn -0.8910 -0.4540 -0.0000
vn 0.7071 0.7071 -0.0000
vn -0.7071 -0.7071 -0.0000
vn 0.4540 0.8910 -0.0000
vn -0.4540 -0.8910 -0.0000
vn 0.1564 0.9877 -0.0000
vn -0.1564 -0.9877 -0.0000
vn -0.1564 0.9877 -0.0000
vn 0.1564 -0.9877 -0.0000
vn -0.4540 0.8910 -0.0000
vn 0.4540 -0.8910 -0.0000
vn -0.7071 0.7071 -0.0000
vn 0.7071 -0.7071 -0.0000
vn -0.8910 0.4540 -0.0000
vn 0.8910 -0.4540 -0.0000
vn -0.9877 0.1564 -0.0000
vn 0.9877 -0.1564 -0.0000
vn -0.0000 1.0000 -0.0000
vn -0.0000 -1.0000 -0.0000
vn 1.0000 -0.0000 -0.0000
vn -1.0000 -0.0000 -0.0000
vt 0.003906 0.277344
vt 0.003906 0.298828
vt 0.033203 0.298828
vt 0.033203 0.277344
vt 0.003906 0.302734
vt 0.003906 0.324219
vt 0.025391 0.324219
vt 0.025391 0.302734
vt 0.003906 0.328125
vt 0.003906 0.351562
vt 0.029297 0.351562
vt 0.029297 0.328125
vt 0.003906 0.355469
vt 0.003906 0.378906
vt 0.029297 0.378906
vt 0.029297 0.355469
vt 0.062500 0.298828
vt 0.062500 0.277344
vt 0.046875 0.324219
vt 0.046875 0.302734
vt 0.054688 0.351562
vt 0.054688 0.328125
vt 0.054688 0.378906
vt 0.054688 0.355469
vt 0.091797 0.298828
vt 0.091797 0.277344
vt 0.068359 0.324219
vt 0.068359 0.302734
vt 0.080078 0.351562
vt 0.080078 0.328125
vt 0.080078 0.378906
vt 0.080078 0.355469
vt 0.121094 0.298828
vt 0.121094 0.277344
vt 0.089844 0.324219
vt 0.089844 0.302734
vt 0.105469 0.351562
vt 0.105469 0.328125
vt 0.105469 0.378906
vt 0.105469 0.355469
vt 0.150391 0.298828
vt 0.150391 0.277344
vt 0.111328 0.324219
vt 0.111328 0.302734
vt 0.130859 0.351562
vt 0.130859 0.328125
vt 0.130859 0.378906
vt 0.130859 0.355469
vt 0.179688 0.298828
vt 0.179688 0.277344
vt 0.132812 0.324219
vt 0.132812 0.302734
vt 0.156250 0.351562
vt 0.156250 0.328125
vt 0.156250 0.378906
vt 0.156250 0.355469
vt 0.208984 0.298828
vt 0.208984 0.277344
vt 0.154297 0.324219
vt 0.154297 0.302734
vt 0.181641 0.351562
vt 0.181641 0.328125
vt 0.181641 0.378906
vt 0.181641 0.355469
vt 0.238281 0.298828
vt 0.238281 0.277344
vt 0.175781 0.324219
vt 0.175781 0.302734
vt 0.207031 0.351562
vt 0.207031 0.328125
vt 0.207031 0.378906
vt 0.207031 0.355469
vt 0.267578 0.298828
vt 0.267578 0.277344
vt 0.197266 0.324219
vt 0.197266 0.302734
vt 0.232422 0.351562
vt 0.232422 0.328125
vt 0.232422 0.378906
vt 0.232422 0.355469
vt 0.296875 0.298828
vt 0.296875 0.277344
vt 0.218750 0.324219
vt 0.218750 0.302734
vt 0.257812 0.351562
vt 0.257812 0.328125
vt 0.257812 0.378906
vt 0.257812 0.355469
vt 0.326172 0.298828
vt 0.326172 0.277344
vt 0.240234 0.324219
vt 0.240234 0.302734
vt 0.283203 0.351562
vt 0.283203 0.328125
vt 0.283203 0.378906
vt 0.283203 0.355469
vt 0.355469 0.298828
vt 0.355469 0.277344
vt 0.261719 0.324219
vt 0.261719 0.302734
vt 0.308594 0.351562
vt 0.308594 0.328125
vt 0.308594 0.378906
vt 0.308594 0.355469
vt 0.384766 0.298828
vt 0.384766 0.277344
vt 0.283203 0.324219
vt 0.283203 0.302734
vt 0.333984 0.351562
vt 0.333984 0.328125
vt 0.333984 0.378906
vt 0.333984 0.355469
vt 0.414062 0.298828
vt 0.414062 0.277344
vt 0.304688 0.324219
vt 0.304688 0.302734
vt 0.359375 0.351562
vt 0.359375 0.328125
vt 0.359375 0.378906
vt 0.359375 0.355469
vt 0.443359 0.298828
vt 0.443359 0.277344
vt 0.326172 0.324219
vt 0.326172 0.302734
vt 0.384766 0.351562
vt 0.384766 0.328125
vt 0.384766 0.378906
vt 0.384766 0.355469
vt 0.472656 0.298828
vt 0.472656 0.277344
vt 0.347656 0.324219
vt 0.347656 0.302734
vt 0.410156 0.351562
vt 0.410156 0.328125
vt 0.410156 0.378906
vt 0.410156 0.355469
vt 0.501953 0.298828
vt 0.501953 0.277344
vt 0.369141 0.324219
vt 0.369141 0.302734
vt 0.435547 0.351562
vt 0.435547 0.328125
vt 0.435547 0.378906
vt 0.435547 0.355469
vt 0.531250 0.298828
vt 0.531250 0.277344
vt 0.390625 0.324219
vt 0.390625 0.302734
vt 0.460938 0.351562
vt 0.460938 0.328125
vt 0.460938 0.378906
vt 0.460938 0.355469
vt 0.560547 0.298828
vt 0.560547 0.277344
vt 0.412109 0.324219
vt 0.412109 0.302734
vt 0.486328 0.351562
vt 0.486328 0.328125
vt 0.486328 0.378906
vt 0.486328 0.355469
vt 0.589844 0.298828
vt 0.589844 0.277344
vt 0.433594 0.324219
vt 0.433594 0.302734
vt 0.511719 0.351562
vt 0.511719 0.328125
vt 0.511719 0.378906
vt 0.511719 0.355469
vt 0.003906 0.480469
vt 0.003906 0.496094
vt 0.025391 0.496094
vt 0.025391 0.480469
vt 0.003906 0.500000
vt 0.003906 0.515625
vt 0.023438 0.515625
vt 0.023438 0.500000
vt 0.003906 0.519531
vt 0.003906 0.527344
vt 0.025391 0.527344
vt 0.025391 0.519531
vt 0.003906 0.531250
vt 0.003906 0.539062
vt 0.025391 0.539062
vt 0.025391 0.531250
vt 0.046875 0.496094
vt 0.046875 0.480469
vt 0.042969 0.515625
vt 0.042969 0.500000
vt 0.046875 0.527344
vt 0.046875 0.519531
vt 0.046875 0.539062
vt 0.046875 0.531250
vt 0.068359 0.496094
vt 0.068359 0.480469
vt 0.062500 0.515625
vt 0.062500 0.500000
vt 0.068359 0.527344
vt 0.068359 0.519531
vt 0.068359 0.539062
vt 0.068359 0.531250
vt 0.089844 0.496094
vt 0.089844 0.480469
vt 0.082031 0.515625
vt 0.082031 0.500000
vt 0.089844 0.527344
vt 0.089844 0.519531
vt 0.089844 0.539062
vt 0.089844 0.531250
vt 0.111328 0.496094
vt 0.111328 0.480469
vt 0.101562 0.515625
vt 0.101562 0.500000
vt 0.111328 0.527344
vt 0.111328 0.519531
vt 0.111328 0.539062
vt 0.111328 0.531250
vt 0.132812 0.496094
vt 0.132812 0.480469
vt 0.121094 0.515625
vt 0.121094 0.500000
vt 0.132812 0.527344
vt 0.132812 0.519531
vt 0.132812 0.539062
vt 0.132812 0.531250
vt 0.154297 0.496094
vt 0.154297 0.480469
vt 0.140625 0.515625
vt 0.140625 0.500000
vt 0.154297 0.527344
vt 0.154297 0.519531
vt 0.154297 0.539062
vt 0.154297 0.531250
vt 0.175781 0.496094
vt 0.175781 0.480469
vt 0.160156 0.515625
vt 0.160156 0.500000
vt 0.175781 0.527344
vt 0.175781 0.519531
vt 0.175781 0.539062
vt 0.175781 0.531250
vt 0.197266 0.496094
vt 0.197266 0.480469
vt 0.179688 0.515625
vt 0.179688 0.500000
vt 0.197266 0.527344
vt 0.197266 0.519531
vt 0.197266 0.539062
vt 0.197266 0.531250
vt 0.218750 0.496094
vt 0.218750 0.480469
vt 0.199219 0.515625
vt 0.199219 0.500000
vt 0.218750 0.527344
vt 0.218750 0.519531
vt 0.218750 0.539062
vt 0.218750 0.531250
vt 0.240234 0.496094
vt 0.240234 0.480469
vt 0.218750 0.515625
vt 0.218750 0.500000
vt 0.240234 0.527344
vt 0.240234 0.519531
vt 0.240234 0.539062
vt 0.240234 0.531250
vt 0.261719 0.496094
vt 0.261719 0.480469
vt 0.238281 0.515625
vt 0.238281 0.500000
vt 0.261719 0.527344
vt 0.261719 0.519531
vt 0.261719 0.539062
vt 0.261719 0.531250
vt 0.283203 0.496094
vt 0.283203 0.480469
vt 0.257812 0.515625
vt 0.257812 0.500000
vt 0.283203 0.527344
vt 0.283203 0.519531
vt 0.283203 0.539062
vt 0.283203 0.531250
vt 0.304688 0.496094
vt 0.304688 0.480469
vt 0.277344 0.515625
vt 0.277344 0.500000
vt 0.304688 0.527344
vt 0.304688 0.519531
vt 0.304688 0.539062
vt 0.304688 0.531250
vt 0.326172 0.496094
vt 0.326172 0.480469
vt 0.296875 0.515625
vt 0.296875 0.500000
vt 0.326172 0.527344
vt 0.326172 0.519531
vt 0.326172 0.539062
vt 0.326172 0.531250
vt 0.347656 0.496094
vt 0.347656 0.480469
vt 0.316406 0.515625
vt 0.316406 0.500000
vt 0.347656 0.527344
vt 0.347656 0.519531
vt 0.347656 0.539062
vt 0.347656 0.531250
vt 0.369141 0.496094
vt 0.369141 0.480469
vt 0.335938 0.515625
vt 0.335938 0.500000
vt 0.369141 0.527344
vt 0.369141 0.519531
vt 0.369141 0.539062
vt 0.369141 0.531250
vt 0.390625 0.496094
vt 0.390625 0.480469
vt 0.355469 0.515625
vt 0.355469 0.500000
vt 0.390625 0.527344
vt 0.390625 0.519531
vt 0.390625 0.539062
vt 0.390625 0.531250
vt 0.412109 0.496094
vt 0.412109 0.480469
vt 0.375000 0.515625
vt 0.375000 0.500000
vt 0.412109 0.527344
vt 0.412109 0.519531
vt 0.412109 0.539062
vt 0.412109 0.531250
vt 0.433594 0.496094
vt 0.433594 0.480469
vt 0.394531 0.515625
vt 0.394531 0.500000
vt 0.433594 0.527344
vt 0.433594 0.519531
vt 0.433594 0.539062
vt 0.433594 0.531250
vt 0.003906 0.003906
vt 0.003906 0.005859
vt 0.023438 0.005859
vt 0.023438 0.003906
vt 0.003906 0.009766
vt 0.003906 0.011719
vt 0.005859 0.011719
vt 0.005859 0.009766
vt 0.003906 0.015625
vt 0.003906 0.078125
vt 0.013672 0.078125
vt 0.013672 0.015625
vt 0.003906 0.082031
vt 0.003906 0.144531
vt 0.013672 0.144531
vt 0.013672 0.082031
vt 0.042969 0.005859
vt 0.042969 0.003906
vt 0.007812 0.011719
vt 0.007812 0.009766
vt 0.023438 0.078125
vt 0.023438 0.015625
vt 0.023438 0.144531
vt 0.023438 0.082031
vt 0.062500 0.005859
vt 0.062500 0.003906
vt 0.009766 0.011719
vt 0.009766 0.009766
vt 0.033203 0.078125
vt 0.033203 0.015625
vt 0.033203 0.144531
vt 0.033203 0.082031
vt 0.082031 0.005859
vt 0.082031 0.003906
vt 0.011719 0.011719
vt 0.011719 0.009766
vt 0.042969 0.078125
vt 0.042969 0.015625
vt 0.042969 0.144531
vt 0.042969 0.082031
vt 0.101562 0.005859
vt 0.101562 0.003906
vt 0.013672 0.011719
vt 0.013672 0.009766
vt 0.052734 0.078125
vt 0.052734 0.015625
vt 0.052734 0.144531
vt 0.052734 0.082031
vt 0.121094 0.005859
vt 0.121094 0.003906
vt 0.015625 0.011719
vt 0.015625 0.009766
vt 0.062500 0.078125
vt 0.062500 0.015625
vt 0.062500 0.144531
vt 0.062500 0.082031
vt 0.140625 0.005859
vt 0.140625 0.003906
vt 0.017578 0.011719
vt 0.017578 0.009766
vt 0.072266 0.078125
vt 0.072266 0.015625
vt 0.072266 0.144531
vt 0.072266 0.082031
vt 0.160156 0.005859
vt 0.160156 0.003906
vt 0.019531 0.011719
vt 0.019531 0.009766
vt 0.082031 0.078125
vt 0.082031 0.015625
vt 0.082031 0.144531
vt 0.082031 0.082031
vt 0.179688 0.005859
vt 0.179688 0.003906
vt 0.021484 0.011719
vt 0.021484 0.009766
vt 0.091797 0.078125
vt 0.091797 0.015625
vt 0.091797 0.144531
vt 0.091797 0.082031
vt 0.199219 0.005859
vt 0.199219 0.003906
vt 0.023438 0.011719
vt 0.023438 0.009766
vt 0.101562 0.078125
vt 0.101562 0.015625
vt 0.101562 0.144531
vt 0.101562 0.082031
vt 0.218750 0.005859
vt 0.218750 0.003906
vt 0.025391 0.011719
vt 0.025391 0.009766
vt 0.111328 0.078125
vt 0.111328 0.015625
vt 0.111328 0.144531
vt 0.111328 0.082031
vt 0.238281 0.005859
vt 0.238281 0.003906
vt 0.027344 0.011719
vt 0.027344 0.009766
vt 0.121094 0.078125
vt 0.121094 0.015625
vt 0.121094 0.144531
vt 0.121094 0.082031
vt 0.257812 0.005859
vt 0.257812 0.003906
vt 0.029297 0.011719
vt 0.029297 0.009766
vt 0.130859 0.078125
vt 0.130859 0.015625
vt 0.130859 0.144531
vt 0.130859 0.082031
vt 0.277344 0.005859
vt 0.277344 0.003906
vt 0.031250 0.011719
vt 0.031250 0.009766
vt 0.140625 0.078125
vt 0.140625 0.015625
vt 0.140625 0.144531
vt 0.140625 0.082031
vt 0.296875 0.005859
vt 0.296875 0.003906
vt 0.033203 0.011719
vt 0.033203 0.009766
vt 0.150391 0.078125
vt 0.150391 0.015625
vt 0.150391 0.144531
vt 0.150391 0.082031
vt 0.316406 0.005859
vt 0.316406 0.003906
vt 0.035156 0.011719
vt 0.035156 0.009766
vt 0.160156 0.078125
vt 0.160156 0.015625
vt 0.160156 0.144531
vt 0.160156 0.082031
vt 0.335938 0.005859
vt 0.335938 0.003906
vt 0.037109 0.011719
vt 0.037109 0.009766
vt 0.169922 0.078125
vt 0.169922 0.015625
vt 0.169922 0.144531
vt 0.169922 0.082031
vt 0.355469 0.005859
vt 0.355469 0.003906
vt 0.039062 0.011719
vt 0.039062 0.009766
vt 0.179688 0.078125
vt 0.179688 0.015625
vt 0.179688 0.144531
vt 0.179688 0.082031
vt 0.375000 0.005859
vt 0.375000 0.003906
vt 0.041016 0.011719
vt 0.041016 0.009766
vt 0.189453 0.078125
vt 0.189453 0.015625
vt 0.189453 0.144531
vt 0.189453 0.082031
vt 0.394531 0.005859
vt 0.394531 0.003906
vt 0.042969 0.011719
vt 0.042969 0.009766
vt 0.199219 0.078125
vt 0.199219 0.015625
vt 0.199219 0.144531
vt 0.199219 0.082031
vt 0.697266 0.431641
vt 0.730469 0.431641
vt 0.730469 0.457031
vt 0.697266 0.457031
vt 0.697266 0.386719
vt 0.730469 0.386719
vt 0.730469 0.412109
vt 0.697266 0.412109
vt 0.755859 0.412109
vt 0.755859 0.431641
vt 0.671875 0.412109
vt 0.671875 0.431641
vt 0.789062 0.412109
vt 0.789062 0.431641
vt 0.427734 0.111328
vt 0.449219 0.111328
vt 0.449219 0.140625
vt 0.427734 0.140625
vt 0.449219 0.033203
vt 0.478516 0.033203
vt 0.478516 0.111328
vt 0.398438 0.033203
vt 0.427734 0.033203
vt 0.398438 0.111328
vt 0.500000 0.033203
vt 0.500000 0.111328
vt 0.462891 0.429688
vt 0.488281 0.429688
vt 0.488281 0.462891
vt 0.462891 0.462891
vt 0.462891 0.386719
vt 0.488281 0.386719
vt 0.488281 0.419922
vt 0.462891 0.419922
vt 0.521484 0.419922
vt 0.521484 0.429688
vt 0.429688 0.419922
vt 0.429688 0.429688
vt 0.546875 0.419922
vt 0.546875 0.429688
vt 0.533203 0.111328
vt 0.554688 0.111328
vt 0.554688 0.140625
vt 0.533203 0.140625
vt 0.554688 0.033203
vt 0.583984 0.033203
vt 0.583984 0.111328
vt 0.503906 0.033203
vt 0.533203 0.033203
vt 0.503906 0.111328
vt 0.605469 0.033203
vt 0.605469 0.111328
vt 0.583984 0.429688
vt 0.609375 0.429688
vt 0.609375 0.462891
vt 0.583984 0.462891
vt 0.583984 0.386719
vt 0.609375 0.386719
vt 0.609375 0.419922
vt 0.583984 0.419922
vt 0.642578 0.419922
vt 0.642578 0.429688
vt 0.550781 0.419922
vt 0.550781 0.429688
vt 0.667969 0.419922
vt 0.667969 0.429688
vt 0.058594 0.218750
vt 0.251953 0.218750
vt 0.251953 0.273438
vt 0.058594 0.273438
vt 0.251953 0.207031
vt 0.306641 0.207031
vt 0.306641 0.218750
vt 0.003906 0.207031
vt 0.058594 0.207031
vt 0.003906 0.218750
vt 0.500000 0.207031
vt 0.500000 0.218750
vt 0.046875 0.433594
vt 0.214844 0.433594
vt 0.214844 0.476562
vt 0.046875 0.476562
vt 0.046875 0.386719
vt 0.214844 0.386719
vt 0.214844 0.429688
vt 0.046875 0.429688
vt 0.257812 0.429688
vt 0.257812 0.433594
vt 0.003906 0.429688
vt 0.003906 0.433594
vt 0.425781 0.429688
vt 0.425781 0.433594
vt 0.445312 0.527344
vt 0.455078 0.527344
vt 0.455078 0.535156
vt 0.445312 0.535156
vt 0.445312 0.480469
vt 0.455078 0.480469
vt 0.455078 0.488281
vt 0.445312 0.488281
vt 0.462891 0.488281
vt 0.462891 0.527344
vt 0.437500 0.488281
vt 0.437500 0.527344
vt 0.472656 0.488281
vt 0.472656 0.527344
vt 0.484375 0.496094
vt 0.585938 0.496094
vt 0.585938 0.503906
vt 0.484375 0.503906
vt 0.484375 0.480469
vt 0.585938 0.480469
vt 0.585938 0.488281
vt 0.484375 0.488281
vt 0.593750 0.488281
vt 0.593750 0.496094
vt 0.476562 0.488281
vt 0.476562 0.496094
vt 0.695312 0.488281
vt 0.695312 0.496094
s 0
usemtl PortalArchTex
f 1/1/1 21/2/1 22/3/1 2/4/1
f 61/5/2 41/6/2 42/7/2 62/8/2
f 41/9/3 1/10/3 2/11/3 42/12/3
f 21/13/4 61/14/4 62/15/4 22/16/4
f 2/4/5 22/3/5 23/17/5 3/18/5
f 62/8/6 42/7/6 43/19/6 63/20/6
f 42/12/3 2/11/3 3/21/3 43/22/3
f 22/16/4 62/15/4 63/23/4 23/24/4
f 3/18/7 23/17/7 24/25/7 4/26/7
f 63/20/8 43/19/8 44/27/8 64/28/8
f 43/22/3 3/21/3 4/29/3 44/30/3
f 23/24/4 63/23/4 64/31/4 24/32/4
f 4/26/9 24/25/9 25/33/9 5/34/9
f 64/28/10 44/27/10 45/35/10 65/36/10
f 44/30/3 4/29/3 5/37/3 45/38/3
f 24/32/4 64/31/4 65/39/4 25/40/4
f 5/34/11 25/33/11 26/41/11 6/42/11
f 65/36/12 45/35/12 46/43/12 66/44/12
f 45/38/3 5/37/3 6/45/3 46/46/3
f 25/40/4 65/39/4 66/47/4 26/48/4
f 6/42/13 26/41/13 27/49/13 7/50/13
f 66/44/14 46/43/14 47/51/14 67/52/14
f 46/46/3 6/45/3 7/53/3 47/54/3
f 26/48/4 66/47/4 67/55/4 27/56/4
f 7/50/15 27/49/15 28/57/15 8/58/15
f 67/52/16 47/51/16 48/59/16 68/60/16
f 47/54/3 7/53/3 8/61/3 48/62/3
f 27/56/4 67/55/4 68/63/4 28/64/4
f 8/58/17 28/57/17 29/65/17 9/66/17
f 68/60/18 48/59/18 49/67/18 69/68/18
f 48/62/3 8/61/3 9/69/3 49/70/3
f 28/64/4 68/63/4 69/71/4 29/72/4
f 9/66/19 29/65/19 30/73/19 10/74/19
f 69/68/20 49/67/20 50/75/20 70/76/20
f 49/70/3 9/69/3 10/77/3 50/78/3
f 29/72/4 69/71/4 70/79/4 30/80/4
f 10/74/21 30/73/21 31/81/21 11/82/21
f 70/76/22 50/75/22 51/83/22 71/84/22
f 50/78/3 10/77/3 11/85/3 51/86/3
f 30/80/4 70/79/4 71/87/4 31/88/4
f 11/82/2 31/81/2 32/89/2 12/90/2
f 71/84/1 51/83/1 52/91/1 72/92/1
f 51/86/3 11/85/3 12/93/3 52/94/3
f 31/88/4 71/87/4 72/95/4 32/96/4
f 12/90/6 32/89/6 33/97/6 13/98/6
f 72/92/5 52/91/5 53/99/5 73/100/5
f 52/94/3 12/93/3 13/101/3 53/102/3
f 32/96/4 72/95/4 73/103/4 33/104/4
f 13/98/8 33/97/8 34/105/8 14/106/8
f 73/100/7 53/99/7 54/107/7 74/108/7
f 53/102/3 13/101/3 14/109/3 54/110/3
f 33/104/4 73/103/4 74/111/4 34/112/4
f 14/106/10 34/105/10 35/113/10 15/114/10
f 74/108/9 54/107/9 55/115/9 75/116/9
f 54/110/3 14/109/3 15/117/3 55/118/3
f 34/112/4 74/111/4 75/119/4 35/120/4
f 15/114/12 35/113/12 36/121/12 16/122/12
f 75/116/11 55/115/11 56/123/11 76/124/11
f 55/118/3 15/117/3 16/125/3 56/126/3
f 35/120/4 75/119/4 76/127/4 36/128/4
f 16/122/14 36/121/14 37/129/14 17/130/14
f 76/124/13 56/123/13 57/131/13 77/132/13
f 56/126/3 16/125/3 17/133/3 57/134/3
f 36/128/4 76/127/4 77/135/4 37/136/4
f 17/130/16 37/129/16 38/137/16 18/138/16
f 77/132/15 57/131/15 58/139/15 78/140/15
f 57/134/3 17/133/3 18/141/3 58/142/3
f 37/136/4 77/135/4 78/143/4 38/144/4
f 18/138/18 38/137/18 39/145/18 19/146/18
f 78/140/17 58/139/17 59/147/17 79/148/17
f 58/142/3 18/141/3 19/149/3 59/150/3
f 38/144/4 78/143/4 79/151/4 39/152/4
f 19/146/20 39/145/20 40/153/20 20/154/20
f 79/148/19 59/147/19 60/155/19 80/156/19
f 59/150/3 19/149/3 20/157/3 60/158/3
f 39/152/4 79/151/4 80/159/4 40/160/4
f 20/154/22 40/153/22 21/161/22 1/162/22
f 80/156/21 60/155/21 41/163/21 61/164/21
f 60/158/3 20/157/3 1/165/3 41/166/3
f 40/160/4 80/159/4 61/167/4 21/168/4
f 81/169/1 101/170/1 102/171/1 82/172/1
f 141/173/2 121/174/2 122/175/2 142/176/2
f 121/177/3 81/178/3 82/179/3 122/180/3
f 101/181/4 141/182/4 142/183/4 102/184/4
f 82/172/5 102/171/5 103/185/5 83/186/5
f 142/176/6 122/175/6 123/187/6 143/188/6
f 122/180/3 82/179/3 83/189/3 123/190/3
f 102/184/4 142/183/4 143/191/4 103/192/4
f 83/186/7 103/185/7 104/193/7 84/194/7
f 143/188/8 123/187/8 124/195/8 144/196/8
f 123/190/3 83/189/3 84/197/3 124/198/3
f 103/192/4 143/191/4 144/199/4 104/200/4
f 84/194/9 104/193/9 105/201/9 85/202/9
f 144/196/10 124/195/10 125/203/10 145/204/10
f 124/198/3 84/197/3 85/205/3 125/206/3
f 104/200/4 144/199/4 145/207/4 105/208/4
f 85/202/11 105/201/11 106/209/11 86/210/11
f 145/204/12 125/203/12 126/211/12 146/212/12
f 125/206/3 85/205/3 86/213/3 126/214/3
f 105/208/4 145/207/4 146/215/4 106/216/4
f 86/210/13 106/209/13 107/217/13 87/218/13
f 146/212/14 126/211/14 127/219/14 147/220/14
f 126/214/3 86/213/3 87/221/3 127/222/3
f 106/216/4 146/215/4 147/223/4 107/224/4
f 87/218/15 107/217/15 108/225/15 88/226/15
f 147/220/16 127/219/16 128/227/16 148/228/16
f 127/222/3 87/221/3 88/229/3 128/230/3
f 107/224/4 147/223/4 148/231/4 108/232/4
f 88/226/17 108/225/17 109/233/17 89/234/17
f 148/228/18 128/227/18 129/235/18 149/236/18
f 128/230/3 88/229/3 89/237/3 129/238/3
f 108/232/4 148/231/4 149/239/4 109/240/4
f 89/234/19 109/233/19 110/241/19 90/242/19
f 149/236/20 129/235/20 130/243/20 150/244/20
f 129/238/3 89/237/3 90/245/3 130/246/3
f 109/240/4 149/239/4 150/247/4 110/248/4
f 90/242/21 110/241/21 111/249/21 91/250/21
f 150/244/22 130/243/22 131/251/22 151/252/22
f 130/246/3 90/245/3 91/253/3 131/254/3
f 110/248/4 150/247/4 151/255/4 111/256/4
f 91/250/2 111/249/2 112/257/2 92/258/2
f 151/252/1 131/251/1 132/259/1 152/260/1
f 131/254/3 91/253/3 92/261/3 132/262/3
f 111/256/4 151/255/4 152/263/4 112/264/4
f 92/258/6 112/257/6 113/265/6 93/266/6
f 152/260/5 132/259/5 133/267/5 153/268/5
f 132/262/3 92/261/3 93/269/3 133/270/3
f 112/264/4 152/263/4 153/271/4 113/272/4
f 93/266/8 113/265/8 114/273/8 94/274/8
f 153/268/7 133/267/7 134/275/7 154/276/7
f 133/270/3 93/269/3 94/277/3 134/278/3
f 113/272/4 153/271/4 154/279/4 114/280/4
f 94/274/10 114/273/10 115/281/10 95/282/10
f 154/276/9 134/275/9 135/283/9 155/284/9
f 134/278/3 94/277/3 95/285/3 135/286/3
f 114/280/4 154/279/4 155/287/4 115/288/4
f 95/282/12 115/281/12 116/289/12 96/290/12
f 155/284/11 135/283/11 136/291/11 156/292/11
f 135/286/3 95/285/3 96/293/3 136/294/3
f 115/288/4 155/287/4 156/295/4 116/296/4
f 96/290/14 116/289/14 117/297/14 97/298/14
f 156/292/13 136/291/13 137/299/13 157/300/13
f 136/294/3 96/293/3 97/301/3 137/302/3
f 116/296/4 156/295/4 157/303/4 117/304/4
f 97/298/16 117/297/16 118/305/16 98/306/16
f 157/300/15 137/299/15 138/307/15 158/308/15
f 137/302/3 97/301/3 98/309/3 138/310/3
f 117/304/4 157/303/4 158/311/4 118/312/4
f 98/306/18 118/305/18 119/313/18 99/314/18
f 158/308/17 138/307/17 139/315/17 159/316/17
f 138/310/3 98/309/3 99/317/3 139/318/3
f 118/312/4 158/311/4 159/319/4 119/320/4
f 99/314/20 119/313/20 120/321/20 100/322/20
f 159/316/19 139/315/19 140/323/19 160/324/19
f 139/318/3 99/317/3 100/325/3 140/326/3
f 119/320/4 159/319/4 160/327/4 120/328/4
f 100/322/22 120/321/22 101/329/22 81/330/22
f 160/324/21 140/323/21 121/331/21 141/332/21
f 140/326/3 100/325/3 81/333/3 121/334/3
f 120/328/4 160/327/4 141/335/4 101/336/4
f 161/337/1 181/338/1 182/339/1 162/340/1
f 221/341/2 201/342/2 202/343/2 222/344/2
f 201/345/3 161/346/3 162/347/3 202/348/3
f 181/349/4 221/350/4 222/351/4 182/352/4
f 162/340/5 182/339/5 183/353/5 163/354/5
f 222/344/6 202/343/6 203/355/6 223/356/6
f 202/348/3 162/347/3 163/357/3 203/358/3
f 182/352/4 222/351/4 223/359/4 183/360/4
f 163/354/7 183/353/7 184/361/7 164/362/7
f 223/356/8 203/355/8 204/363/8 224/364/8
f 203/358/3 163/357/3 164/365/3 204/366/3
f 183/360/4 223/359/4 224/367/4 184/368/4
f 164/362/9 184/361/9 185/369/9 165/370/9
f 224/364/10 204/363/10 205/371/10 225/372/10
f 204/366/3 164/365/3 165/373/3 205/374/3
f 184/368/4 224/367/4 225/375/4 185/376/4
f 165/370/11 185/369/11 186/377/11 166/378/11
f 225/372/12 205/371/12 206/379/12 226/380/12
f 205/374/3 165/373/3 166/381/3 206/382/3
f 185/376/4 225/375/4 226/383/4 186/384/4
f 166/378/13 186/377/13 187/385/13 167/386/13
f 226/380/14 206/379/14 207/387/14 227/388/14
f 206/382/3 166/381/3 167/389/3 207/390/3
f 186/384/4 226/383/4 227/391/4 187/392/4
f 167/386/15 187/385/15 188/393/15 168/394/15
f 227/388/16 207/387/16 208/395/16 228/396/16
f 207/390/3 167/389/3 168/397/3 208/398/3
f 187/392/4 227/391/4 228/399/4 188/400/4
f 168/394/17 188/393/17 189/401/17 169/402/17
f 228/396/18 208/395/18 209/403/18 229/404/18
f 208/398/3 168/397/3 169/405/3 209/406/3
f 188/400/4 228/399/4 229/407/4 189/408/4
f 169/402/19 189/401/19 190/409/19 170/410/19
f 229/404/20 209/403/20 210/411/20 230/412/20
f 209/406/3 169/405/3 170/413/3 210/414/3
f 189/408/4 229/407/4 230/415/4 190/416/4
f 170/410/21 190/409/21 191/417/21 171/418/21
f 230/412/22 210/411/22 211/419/22 231/420/22
f 210/414/3 170/413/3 171/421/3 211/422/3
f 190/416/4 230/415/4 231/423/4 191/424/4
f 171/418/2 191/417/2 192/425/2 172/426/2
f 231/420/1 211/419/1 212/427/1 232/428/1
f 211/422/3 171/421/3 172/429/3 212/430/3
f 191/424/4 231/423/4 232/431/4 192/432/4
f 172/426/6 192/425/6 193/433/6 173/434/6
f 232/428/5 212/427/5 213/435/5 233/436/5
f 212/430/3 172/429/3 173/437/3 213/438/3
f 192/432/4 232/431/4 233/439/4 193/440/4
f 173/434/8 193/433/8 194/441/8 174/442/8
f 233/436/7 213/435/7 214/443/7 234/444/7
f 213/438/3 173/437/3 174/445/3 214/446/3
f 193/440/4 233/439/4 234/447/4 194/448/4
f 174/442/10 194/441/10 195/449/10 175/450/10
f 234/444/9 214/443/9 215/451/9 235/452/9
f 214/446/3 174/445/3 175/453/3 215/454/3
f 194/448/4 234/447/4 235/455/4 195/456/4
f 175/450/12 195/449/12 196/457/12 176/458/12
f 235/452/11 215/451/11 216/459/11 236/460/11
f 215/454/3 175/453/3 176/461/3 216/462/3
f 195/456/4 235/455/4 236/463/4 196/464/4
f 176/458/14 196/457/14 197/465/14 177/466/14
f 236/460/13 216/459/13 217/467/13 237/468/13
f 216/462/3 176/461/3 177/469/3 217/470/3
f 196/464/4 236/463/4 237/471/4 197/472/4
f 177/466/16 197/465/16 198/473/16 178/474/16
f 237/468/15 217/467/15 218/475/15 238/476/15
f 217/470/3 177/469/3 178/477/3 218/478/3
f 197/472/4 237/471/4 238/479/4 198/480/4
f 178/474/18 198/473/18 199/481/18 179/482/18
f 238/476/17 218/475/17 219/483/17 239/484/17
f 218/478/3 178/477/3 179/485/3 219/486/3
f 198/480/4 238/479/4 239/487/4 199/488/4
f 179/482/20 199/481/20 200/489/20 180/490/20
f 239/484/19 219/483/19 220/491/19 240/492/19
f 219/486/3 179/485/3 180/493/3 220/494/3
f 199/488/4 239/487/4 240/495/4 200/496/4
f 180/490/22 200/489/22 181/497/22 161/498/22
f 240/492/21 220/491/21 201/499/21 221/500/21
f 220/494/3 180/493/3 161/501/3 201/502/3
f 200/496/4 240/495/4 221/503/4 181/504/4
f 242/505/23 246/506/23 248/507/23 244/508/23
f 243/509/24 247/510/24 245/511/24 241/512/24
f 245/511/25 247/513/25 248/514/25 246/506/25
f 243/515/26 241/512/26 242/505/26 244/516/26
f 247/513/4 243/517/4 244/518/4 248/514/4
f 241/512/3 245/511/3 246/506/3 242/505/3
f 250/519/23 254/520/23 256/521/23 252/522/23
f 253/523/25 255/524/25 256/525/25 254/520/25
f 251/526/26 249/527/26 250/519/26 252/528/26
f 255/524/4 251/529/4 252/530/4 256/525/4
f 249/527/3 253/523/3 254/520/3 250/519/3
f 258/531/23 262/532/23 264/533/23 260/534/23
f 259/535/24 263/536/24 261/537/24 257/538/24
f 261/537/25 263/539/25 264/540/25 262/532/25
f 259/541/26 257/538/26 258/531/26 260/542/26
f 263/539/4 259/543/4 260/544/4 264/540/4
f 257/538/3 261/537/3 262/532/3 258/531/3
f 266/545/23 270/546/23 272/547/23 268/548/23
f 269/549/25 271/550/25 272/551/25 270/546/25
f 267/552/26 265/553/26 266/545/26 268/554/26
f 271/550/4 267/555/4 268/556/4 272/551/4
f 265/553/3 269/549/3 270/546/3 266/545/3
f 274/557/23 278/558/23 280/559/23 276/560/23
f 275/561/24 279/562/24 277/563/24 273/564/24
f 277/563/25 279/565/25 280/566/25 278/558/25
f 275/567/26 273/564/26 274/557/26 276/568/26
f 279/565/4 275/569/4 276/570/4 280/566/4
f 273/564/3 277/563/3 278/558/3 274/557/3
f 282/571/23 286/572/23 288/573/23 284/574/23
f 285/575/25 287/576/25 288/577/25 286/572/25
f 283/578/26 281/579/26 282/571/26 284/580/26
f 287/576/4 283/581/4 284/582/4 288/577/4
f 281/579/3 285/575/3 286/572/3 282/571/3
f 290/583/23 294/584/23 296/585/23 292/586/23
f 291/587/24 295/588/24 293/589/24 289/590/24
f 293/589/25 295/591/25 296/592/25 294/584/25
f 291/593/26 289/590/26 290/583/26 292/594/26
f 295/591/4 291/595/4 292/596/4 296/592/4
f 289/590/3 293/589/3 294/584/3 290/583/3
f 298/597/23 302/598/23 304/599/23 300/600/23
f 299/601/24 303/602/24 301/603/24 297/604/24
f 301/603/25 303/605/25 304/606/25 302/598/25
f 299/607/26 297/604/26 298/597/26 300/608/26
f 303/605/4 299/609/4 300/610/4 304/606/4
f 297/604/3 301/603/3 302/598/3 298/597/3
f 306/611/23 310/612/23 312/613/23 308/614/23
f 307/615/24 311/616/24 309/617/24 305/618/24
f 309/617/25 311/619/25 312/620/25 310/612/25
f 307/621/26 305/618/26 306/611/26 308/622/26
f 311/619/4 307/623/4 308/624/4 312/620/4
f 305/618/3 309/617/3 310/612/3 306/611/3
