# Blender 5.1.1
# www.blender.org
mtllib RimRib.mtl
o RimRib
v -0.900000 -1.270000 0.030000
v -0.900000 -0.170000 0.030000
v -0.900000 -1.270000 -0.030000
v -0.900000 -0.170000 -0.030000
v 0.900000 -1.270000 0.030000
v 0.900000 -0.170000 0.030000
v 0.900000 -1.270000 -0.030000
v 0.900000 -0.170000 -0.030000
v 1.260000 -2.700000 -0.015000
v 1.260000 -0.500000 -0.015000
v 1.260000 -2.700000 -0.065000
v 1.260000 -0.500000 -0.065000
v 1.540000 -2.700000 -0.015000
v 1.540000 -0.500000 -0.015000
v 1.540000 -2.700000 -0.065000
v 1.540000 -0.500000 -0.065000
vn -0.0000 1.0000 -0.0000
vn -0.0000 -1.0000 -0.0000
vn 1.0000 -0.0000 -0.0000
vn -1.0000 -0.0000 -0.0000
vn -0.0000 -0.0000 -1.0000
vn -0.0000 -0.0000 1.0000
vt 0.031250 0.898438
vt 0.484375 0.898438
vt 0.484375 0.914062
vt 0.031250 0.914062
vt 0.031250 0.609375
vt 0.484375 0.609375
vt 0.484375 0.625000
vt 0.031250 0.625000
vt 0.500000 0.625000
vt 0.500000 0.898438
vt 0.015625 0.625000
vt 0.015625 0.898438
vt 0.953125 0.625000
vt 0.953125 0.898438
vt 0.031250 0.578125
vt 0.101562 0.578125
vt 0.101562 0.593750
vt 0.031250 0.593750
vt 0.031250 0.015625
vt 0.101562 0.015625
vt 0.101562 0.031250
vt 0.031250 0.031250
vt 0.117188 0.031250
vt 0.117188 0.578125
vt 0.015625 0.031250
vt 0.015625 0.578125
vt 0.187500 0.031250
vt 0.187500 0.578125
s 0
usemtl RimRibTex
f 2/1/1 6/2/1 8/3/1 4/4/1
f 3/5/2 7/6/2 5/7/2 1/8/2
f 5/7/3 7/9/3 8/10/3 6/2/3
f 3/11/4 1/8/4 2/1/4 4/12/4
f 7/9/5 3/13/5 4/14/5 8/10/5
f 1/8/6 5/7/6 6/2/6 2/1/6
f 10/15/1 14/16/1 16/17/1 12/18/1
f 11/19/2 15/20/2 13/21/2 9/22/2
f 13/21/3 15/23/3 16/24/3 14/16/3
f 11/25/4 9/22/4 10/15/4 12/26/4
f 15/23/5 11/27/5 12/28/5 16/24/5
f 9/22/6 13/21/6 14/16/6 10/15/6
