# Blender 5.1.1
# www.blender.org
mtllib ShaftPanel.mtl
o ShaftPanel
v -3.505494 0.000000 0.300000
v -3.505494 14.000000 0.300000
v -3.505494 0.000000 -0.300000
v -3.505494 14.000000 -0.300000
v 3.505494 0.000000 0.300000
v 3.505494 14.000000 0.300000
v 3.505494 0.000000 -0.300000
v 3.505494 14.000000 -0.300000
vn -0.0000 1.0000 -0.0000
vn -0.0000 -1.0000 -0.0000
vn 1.0000 -0.0000 -0.0000
vn -1.0000 -0.0000 -0.0000
vn -0.0000 -0.0000 -1.0000
vn -0.0000 -0.0000 1.0000
vt 0.054688 0.929688
vt 0.492188 0.929688
vt 0.492188 0.968750
vt 0.054688 0.968750
vt 0.054688 0.015625
vt 0.492188 0.015625
vt 0.492188 0.054688
vt 0.054688 0.054688
vt 0.531250 0.054688
vt 0.531250 0.929688
vt 0.015625 0.054688
vt 0.015625 0.929688
vt 0.968750 0.054688
vt 0.968750 0.929688
s 0
usemtl ShaftPanelTex
f 2/1/1 6/2/1 8/3/1 4/4/1
f 3/5/2 7/6/2 5/7/2 1/8/2
f 5/7/3 7/9/3 8/10/3 6/2/3
f 3/11/4 1/8/4 2/1/4 4/12/4
f 7/9/5 3/13/5 4/14/5 8/10/5
f 1/8/6 5/7/6 6/2/6 2/1/6
