# Blender 5.1.1
# www.blender.org
mtllib TrussRib.mtl
o TrussRib
v -0.120000 -0.250000 3.250000
v -0.120000 0.250000 3.250000
v -0.120000 -0.250000 -3.250000
v -0.120000 0.250000 -3.250000
v 0.120000 -0.250000 3.250000
v 0.120000 0.250000 3.250000
v 0.120000 -0.250000 -3.250000
v 0.120000 0.250000 -3.250000
vn -0.0000 1.0000 -0.0000
vn -0.0000 -1.0000 -0.0000
vn 1.0000 -0.0000 -0.0000
vn -1.0000 -0.0000 -0.0000
vn -0.0000 -0.0000 -1.0000
vn -0.0000 -0.0000 1.0000
vt 0.308594 0.332031
vt 0.320312 0.332031
vt 0.320312 0.636719
vt 0.308594 0.636719
vt 0.308594 0.003906
vt 0.320312 0.003906
vt 0.320312 0.308594
vt 0.308594 0.308594
vt 0.625000 0.308594
vt 0.625000 0.332031
vt 0.003906 0.308594
vt 0.003906 0.332031
vt 0.636719 0.308594
vt 0.636719 0.332031
s 0
usemtl TrussRibTex
f 2/1/1 6/2/1 8/3/1 4/4/1
f 3/5/2 7/6/2 5/7/2 1/8/2
f 5/7/3 7/9/3 8/10/3 6/2/3
f 3/11/4 1/8/4 2/1/4 4/12/4
f 7/9/5 3/13/5 4/14/5 8/10/5
f 1/8/6 5/7/6 6/2/6 2/1/6
