# Blender 5.1.1
# www.blender.org
mtllib ValveWheel.mtl
o ValveWheel
v 0.300000 0.000000 0.000000
v 0.242705 0.176336 0.000000
v 0.092705 0.285317 0.000000
v -0.092705 0.285317 0.000000
v -0.242705 0.176336 0.000000
v -0.300000 0.000000 0.000000
v -0.242705 -0.176336 0.000000
v -0.092705 -0.285317 0.000000
v 0.092705 -0.285317 0.000000
v 0.242705 -0.176336 0.000000
v 0.300000 0.000000 -0.070000
v 0.242705 0.176336 -0.070000
v 0.092705 0.285317 -0.070000
v -0.092705 0.285317 -0.070000
v -0.242705 0.176336 -0.070000
v -0.300000 0.000000 -0.070000
v -0.242705 -0.176336 -0.070000
v -0.092705 -0.285317 -0.070000
v 0.092705 -0.285317 -0.070000
v 0.242705 -0.176336 -0.070000
v 0.200000 0.000000 0.000000
v 0.161803 0.117557 0.000000
v 0.061803 0.190211 0.000000
v -0.061803 0.190211 0.000000
v -0.161803 0.117557 0.000000
v -0.200000 0.000000 0.000000
v -0.161803 -0.117557 0.000000
v -0.061803 -0.190211 0.000000
v 0.061803 -0.190211 0.000000
v 0.161803 -0.117557 0.000000
v 0.200000 0.000000 -0.070000
v 0.161803 0.117557 -0.070000
v 0.061803 0.190211 -0.070000
v -0.061803 0.190211 -0.070000
v -0.161803 0.117557 -0.070000
v -0.200000 0.000000 -0.070000
v -0.161803 -0.117557 -0.070000
v -0.061803 -0.190211 -0.070000
v 0.061803 -0.190211 -0.070000
v 0.161803 -0.117557 -0.070000
v -0.220000 -0.025000 0.020000
v -0.220000 0.025000 0.020000
v -0.220000 -0.025000 -0.030000
v -0.220000 0.025000 -0.030000
v 0.220000 -0.025000 0.020000
v 0.220000 0.025000 0.020000
v 0.220000 -0.025000 -0.030000
v 0.220000 0.025000 -0.030000
v -0.025000 -0.220000 0.020000
v -0.025000 0.220000 0.020000
v -0.025000 -0.220000 -0.030000
v -0.025000 0.220000 -0.030000
v 0.025000 -0.220000 0.020000
v 0.025000 0.220000 0.020000
v 0.025000 -0.220000 -0.030000
v 0.025000 0.220000 -0.030000
vn 0.9511 0.3090 -0.0000
vn -0.9511 -0.3090 -0.0000
vn -0.0000 -0.0000 1.0000
vn -0.0000 -0.0000 -1.0000
vn 0.5878 0.8090 -0.0000
vn -0.5878 -0.8090 -0.0000
vn -0.0000 1.0000 -0.0000
vn -0.0000 -1.0000 -0.0000
vn -0.5878 0.8090 -0.0000
vn 0.5878 -0.8090 -0.0000
vn -0.9511 0.3090 -0.0000
vn 0.9511 -0.3090 -0.0000
vn 1.0000 -0.0000 -0.0000
vn -1.0000 -0.0000 -0.0000
vt 0.031250 0.031250
vt 0.031250 0.062500
vt 0.125000 0.062500
vt 0.125000 0.031250
vt 0.031250 0.093750
vt 0.031250 0.125000
vt 0.093750 0.125000
vt 0.093750 0.093750
vt 0.031250 0.156250
vt 0.031250 0.203125
vt 0.109375 0.203125
vt 0.109375 0.156250
vt 0.031250 0.234375
vt 0.031250 0.281250
vt 0.109375 0.281250
vt 0.109375 0.234375
vt 0.218750 0.062500
vt 0.218750 0.031250
vt 0.156250 0.125000
vt 0.156250 0.093750
vt 0.187500 0.203125
vt 0.187500 0.156250
vt 0.187500 0.281250
vt 0.187500 0.234375
vt 0.312500 0.062500
vt 0.312500 0.031250
vt 0.218750 0.125000
vt 0.218750 0.093750
vt 0.265625 0.203125
vt 0.265625 0.156250
vt 0.265625 0.281250
vt 0.265625 0.234375
vt 0.406250 0.062500
vt 0.406250 0.031250
vt 0.281250 0.125000
vt 0.281250 0.093750
vt 0.343750 0.203125
vt 0.343750 0.156250
vt 0.343750 0.281250
vt 0.343750 0.234375
vt 0.500000 0.062500
vt 0.500000 0.031250
vt 0.343750 0.125000
vt 0.343750 0.093750
vt 0.421875 0.203125
vt 0.421875 0.156250
vt 0.421875 0.281250
vt 0.421875 0.234375
vt 0.593750 0.062500
vt 0.593750 0.031250
vt 0.406250 0.125000
vt 0.406250 0.093750
vt 0.500000 0.203125
vt 0.500000 0.156250
vt 0.500000 0.281250
vt 0.500000 0.234375
vt 0.687500 0.062500
vt 0.687500 0.031250
vt 0.468750 0.125000
vt 0.468750 0.093750
vt 0.578125 0.203125
vt 0.578125 0.156250
vt 0.578125 0.281250
vt 0.578125 0.234375
vt 0.781250 0.062500
vt 0.781250 0.031250
vt 0.531250 0.125000
vt 0.531250 0.093750
vt 0.656250 0.203125
vt 0.656250 0.156250
vt 0.656250 0.281250
vt 0.656250 0.234375
vt 0.875000 0.062500
vt 0.875000 0.031250
vt 0.593750 0.125000
vt 0.593750 0.093750
vt 0.734375 0.203125
vt 0.734375 0.156250
vt 0.734375 0.281250
vt 0.734375 0.234375
vt 0.968750 0.062500
vt 0.968750 0.031250
vt 0.656250 0.125000
vt 0.656250 0.093750
vt 0.812500 0.203125
vt 0.812500 0.156250
vt 0.812500 0.281250
vt 0.812500 0.234375
vt 0.218750 0.406250
vt 0.437500 0.406250
vt 0.437500 0.437500
vt 0.218750 0.437500
vt 0.218750 0.343750
vt 0.437500 0.343750
vt 0.437500 0.375000
vt 0.218750 0.375000
vt 0.468750 0.375000
vt 0.468750 0.406250
vt 0.187500 0.375000
vt 0.187500 0.406250
vt 0.687500 0.375000
vt 0.687500 0.406250
vt 0.062500 0.593750
vt 0.093750 0.593750
vt 0.093750 0.625000
vt 0.062500 0.625000
vt 0.062500 0.343750
vt 0.093750 0.343750
vt 0.093750 0.375000
vt 0.062500 0.375000
vt 0.125000 0.375000
vt 0.125000 0.593750
vt 0.031250 0.375000
vt 0.031250 0.593750
vt 0.156250 0.375000
vt 0.156250 0.593750
s 0
usemtl ValveWheelTex
f 1/1/1 11/2/1 12/3/1 2/4/1
f 31/5/2 21/6/2 22/7/2 32/8/2
f 21/9/3 1/10/3 2/11/3 22/12/3
f 11/13/4 31/14/4 32/15/4 12/16/4
f 2/4/5 12/3/5 13/17/5 3/18/5
f 32/8/6 22/7/6 23/19/6 33/20/6
f 22/12/3 2/11/3 3/21/3 23/22/3
f 12/16/4 32/15/4 33/23/4 13/24/4
f 3/18/7 13/17/7 14/25/7 4/26/7
f 33/20/8 23/19/8 24/27/8 34/28/8
f 23/22/3 3/21/3 4/29/3 24/30/3
f 13/24/4 33/23/4 34/31/4 14/32/4
f 4/26/9 14/25/9 15/33/9 5/34/9
f 34/28/10 24/27/10 25/35/10 35/36/10
f 24/30/3 4/29/3 5/37/3 25/38/3
f 14/32/4 34/31/4 35/39/4 15/40/4
f 5/34/11 15/33/11 16/41/11 6/42/11
f 35/36/12 25/35/12 26/43/12 36/44/12
f 25/38/3 5/37/3 6/45/3 26/46/3
f 15/40/4 35/39/4 36/47/4 16/48/4
f 6/42/2 16/41/2 17/49/2 7/50/2
f 36/44/1 26/43/1 27/51/1 37/52/1
f 26/46/3 6/45/3 7/53/3 27/54/3
f 16/48/4 36/47/4 37/55/4 17/56/4
f 7/50/6 17/49/6 18/57/6 8/58/6
f 37/52/5 27/51/5 28/59/5 38/60/5
f 27/54/3 7/53/3 8/61/3 28/62/3
f 17/56/4 37/55/4 38/63/4 18/64/4
f 8/58/8 18/57/8 19/65/8 9/66/8
f 38/60/7 28/59/7 29/67/7 39/68/7
f 28/62/3 8/61/3 9/69/3 29/70/3
f 18/64/4 38/63/4 39/71/4 19/72/4
f 9/66/10 19/65/10 20/73/10 10/74/10
f 39/68/9 29/67/9 30/75/9 40/76/9
f 29/70/3 9/69/3 10/77/3 30/78/3
f 19/72/4 39/71/4 40/79/4 20/80/4
f 10/74/12 20/73/12 11/81/12 1/82/12
f 40/76/11 30/75/11 21/83/11 31/84/11
f 30/78/3 10/77/3 1/85/3 21/86/3
f 20/80/4 40/79/4 31/87/4 11/88/4
f 42/89/7 46/90/7 48/91/7 44/92/7
f 43/93/8 47/94/8 45/95/8 41/96/8
f 45/95/13 47/97/13 48/98/13 46/90/13
f 43/99/14 41/96/14 42/89/14 44/100/14
f 47/97/4 43/101/4 44/102/4 48/98/4
f 41/96/3 45/95/3 46/90/3 42/89/3
f 50/103/7 54/104/7 56/105/7 52/106/7
f 51/107/8 55/108/8 53/109/8 49/110/8
f 53/109/13 55/111/13 56/112/13 54/104/13
f 51/113/14 49/110/14 50/103/14 52/114/14
f 55/111/4 51/115/4 52/116/4 56/112/4
f 49/110/3 53/109/3 54/104/3 50/103/3
