# Blender 5.1.1
# www.blender.org
mtllib WashDrumCrown.mtl
o WashDrumCrown
v 3.270000 -0.580000 0.000000
v 3.021086 -0.580000 -1.251375
v 2.312239 -0.580000 -2.312239
v 1.251375 -0.580000 -3.021086
v 0.000000 -0.580000 -3.270000
v -1.251375 -0.580000 -3.021086
v -2.312239 -0.580000 -2.312239
v -3.021086 -0.580000 -1.251375
v -3.270000 -0.580000 -0.000000
v -3.021086 -0.580000 1.251375
v -2.312239 -0.580000 2.312239
v -1.251375 -0.580000 3.021086
v -0.000000 -0.580000 3.270000
v 1.251375 -0.580000 3.021086
v 2.312239 -0.580000 2.312239
v 3.021086 -0.580000 1.251375
v 3.270000 -0.520000 0.000000
v 3.021086 -0.520000 -1.251375
v 2.312239 -0.520000 -2.312239
v 1.251375 -0.520000 -3.021086
v 0.000000 -0.520000 -3.270000
v -1.251375 -0.520000 -3.021086
v -2.312239 -0.520000 -2.312239
v -3.021086 -0.520000 -1.251375
v -3.270000 -0.520000 -0.000000
v -3.021086 -0.520000 1.251375
v -2.312239 -0.520000 2.312239
v -1.251375 -0.520000 3.021086
v -0.000000 -0.520000 3.270000
v 1.251375 -0.520000 3.021086
v 2.312239 -0.520000 2.312239
v 3.021086 -0.520000 1.251375
v 1.020000 0.120000 0.000000
v 0.825197 0.120000 -0.599541
v 0.315197 0.120000 -0.970078
v -0.315197 0.120000 -0.970078
v -0.825197 0.120000 -0.599541
v -1.020000 0.120000 -0.000000
v -0.825197 0.120000 0.599541
v -0.315197 0.120000 0.970078
v 0.315197 0.120000 0.970078
v 0.825197 0.120000 0.599541
v 1.020000 0.340000 0.000000
v 0.825197 0.340000 -0.599541
v 0.315197 0.340000 -0.970078
v -0.315197 0.340000 -0.970078
v -0.825197 0.340000 -0.599541
v -1.020000 0.340000 -0.000000
v -0.825197 0.340000 0.599541
v -0.315197 0.340000 0.970078
v 0.315197 0.340000 0.970078
v 0.825197 0.340000 0.599541
v 3.410000 0.095000 0.040000
v 3.410000 0.945000 0.040000
v 3.410000 0.095000 -0.040000
v 3.410000 0.945000 -0.040000
v 3.490000 0.095000 0.040000
v 3.490000 0.945000 0.040000
v 3.490000 0.095000 -0.040000
v 3.490000 0.945000 -0.040000
v 2.399518 0.095000 -2.399518
v 2.399518 0.945000 -2.399518
v 2.399518 0.095000 -2.479518
v 2.399518 0.945000 -2.479518
v 2.479518 0.095000 -2.399518
v 2.479518 0.945000 -2.399518
v 2.479518 0.095000 -2.479518
v 2.479518 0.945000 -2.479518
v -0.040000 0.095000 -3.410000
v -0.040000 0.945000 -3.410000
v -0.040000 0.095000 -3.490000
v -0.040000 0.945000 -3.490000
v 0.040000 0.095000 -3.410000
v 0.040000 0.945000 -3.410000
v 0.040000 0.095000 -3.490000
v 0.040000 0.945000 -3.490000
v -2.479518 0.095000 -2.399518
v -2.479518 0.945000 -2.399518
v -2.479518 0.095000 -2.479518
v -2.479518 0.945000 -2.479518
v -2.399518 0.095000 -2.399518
v -2.399518 0.945000 -2.399518
v -2.399518 0.095000 -2.479518
v -2.399518 0.945000 -2.479518
v -3.490000 0.095000 0.040000
v -3.490000 0.945000 0.040000
v -3.490000 0.095000 -0.040000
v -3.490000 0.945000 -0.040000
v -3.410000 0.095000 0.040000
v -3.410000 0.945000 0.040000
v -3.410000 0.095000 -0.040000
v -3.410000 0.945000 -0.040000
v -2.479518 0.095000 2.479518
v -2.479518 0.945000 2.479518
v -2.479518 0.095000 2.399518
v -2.479518 0.945000 2.399518
v -2.399518 0.095000 2.479518
v -2.399518 0.945000 2.479518
v -2.399518 0.095000 2.399518
v -2.399518 0.945000 2.399518
v -0.040000 0.095000 3.490000
v -0.040000 0.945000 3.490000
v -0.040000 0.095000 3.410000
v -0.040000 0.945000 3.410000
v 0.040000 0.095000 3.490000
v 0.040000 0.945000 3.490000
v 0.040000 0.095000 3.410000
v 0.040000 0.945000 3.410000
v 2.399518 0.095000 2.479518
v 2.399518 0.945000 2.479518
v 2.399518 0.095000 2.399518
v 2.399518 0.945000 2.399518
v 2.479518 0.095000 2.479518
v 2.479518 0.945000 2.479518
v 2.479518 0.095000 2.399518
v 2.479518 0.945000 2.399518
vn 0.9808 -0.0000 -0.1951
vn 0.8315 -0.0000 -0.5556
vn 0.5556 -0.0000 -0.8315
vn 0.1951 -0.0000 -0.9808
vn -0.1951 -0.0000 -0.9808
vn -0.5556 -0.0000 -0.8315
vn -0.8315 -0.0000 -0.5556
vn -0.9808 -0.0000 -0.1951
vn -0.9808 -0.0000 0.1951
vn -0.8315 -0.0000 0.5556
vn -0.5556 -0.0000 0.8315
vn -0.1951 -0.0000 0.9808
vn 0.1951 -0.0000 0.9808
vn 0.5556 -0.0000 0.8315
vn 0.8315 -0.0000 0.5556
vn 0.9808 -0.0000 0.1951
vn -0.0000 1.0000 -0.0000
vn -0.0000 -1.0000 -0.0000
vn 0.9511 -0.0000 -0.3090
vn 0.5878 -0.0000 -0.8090
vn -0.0000 -0.0000 -1.0000
vn -0.5878 -0.0000 -0.8090
vn -0.9511 -0.0000 -0.3090
vn -0.9511 -0.0000 0.3090
vn -0.5878 -0.0000 0.8090
vn -0.0000 -0.0000 1.0000
vn 0.5878 -0.0000 0.8090
vn 0.9511 -0.0000 0.3090
vn 1.0000 -0.0000 -0.0000
vn -1.0000 -0.0000 -0.0000
vt 0.003906 0.003906
vt 0.042969 0.003906
vt 0.042969 0.005859
vt 0.003906 0.005859
vt 0.082031 0.003906
vt 0.082031 0.005859
vt 0.121094 0.003906
vt 0.121094 0.005859
vt 0.160156 0.003906
vt 0.160156 0.005859
vt 0.199219 0.003906
vt 0.199219 0.005859
vt 0.238281 0.003906
vt 0.238281 0.005859
vt 0.277344 0.003906
vt 0.277344 0.005859
vt 0.316406 0.003906
vt 0.316406 0.005859
vt 0.355469 0.003906
vt 0.355469 0.005859
vt 0.394531 0.003906
vt 0.394531 0.005859
vt 0.433594 0.003906
vt 0.433594 0.005859
vt 0.472656 0.003906
vt 0.472656 0.005859
vt 0.511719 0.003906
vt 0.511719 0.005859
vt 0.550781 0.003906
vt 0.550781 0.005859
vt 0.589844 0.003906
vt 0.589844 0.005859
vt 0.628906 0.003906
vt 0.628906 0.005859
vt 0.199219 0.072266
vt 0.207031 0.111328
vt 0.199219 0.150391
vt 0.177734 0.183594
vt 0.144531 0.205078
vt 0.105469 0.212891
vt 0.066406 0.205078
vt 0.033203 0.183594
vt 0.011719 0.150391
vt 0.003906 0.111328
vt 0.011719 0.072266
vt 0.033203 0.039062
vt 0.066406 0.017578
vt 0.105469 0.009766
vt 0.144531 0.017578
vt 0.177734 0.039062
vt 0.414062 0.111328
vt 0.406250 0.072266
vt 0.384766 0.039062
vt 0.351562 0.017578
vt 0.312500 0.009766
vt 0.273438 0.017578
vt 0.240234 0.039062
vt 0.218750 0.072266
vt 0.210938 0.111328
vt 0.218750 0.150391
vt 0.240234 0.183594
vt 0.273438 0.205078
vt 0.312500 0.212891
vt 0.351562 0.205078
vt 0.384766 0.183594
vt 0.406250 0.150391
vt 0.632812 0.003906
vt 0.652344 0.003906
vt 0.652344 0.011719
vt 0.632812 0.011719
vt 0.671875 0.003906
vt 0.671875 0.011719
vt 0.691406 0.003906
vt 0.691406 0.011719
vt 0.710938 0.003906
vt 0.710938 0.011719
vt 0.730469 0.003906
vt 0.730469 0.011719
vt 0.750000 0.003906
vt 0.750000 0.011719
vt 0.769531 0.003906
vt 0.769531 0.011719
vt 0.789062 0.003906
vt 0.789062 0.011719
vt 0.808594 0.003906
vt 0.808594 0.011719
vt 0.828125 0.003906
vt 0.828125 0.011719
vt 0.689453 0.029297
vt 0.695312 0.046875
vt 0.689453 0.064453
vt 0.673828 0.076172
vt 0.654297 0.076172
vt 0.638672 0.064453
vt 0.632812 0.046875
vt 0.638672 0.029297
vt 0.654297 0.017578
vt 0.673828 0.017578
vt 0.761719 0.046875
vt 0.755859 0.029297
vt 0.740234 0.017578
vt 0.720703 0.017578
vt 0.705078 0.029297
vt 0.699219 0.046875
vt 0.705078 0.064453
vt 0.720703 0.076172
vt 0.740234 0.076172
vt 0.755859 0.064453
vt 0.833984 0.033203
vt 0.835938 0.033203
vt 0.835938 0.035156
vt 0.833984 0.035156
vt 0.833984 0.003906
vt 0.835938 0.003906
vt 0.835938 0.005859
vt 0.833984 0.005859
vt 0.837891 0.005859
vt 0.837891 0.033203
vt 0.832031 0.005859
vt 0.832031 0.033203
vt 0.839844 0.005859
vt 0.839844 0.033203
vt 0.845703 0.033203
vt 0.847656 0.033203
vt 0.847656 0.035156
vt 0.845703 0.035156
vt 0.845703 0.003906
vt 0.847656 0.003906
vt 0.847656 0.005859
vt 0.845703 0.005859
vt 0.849609 0.005859
vt 0.849609 0.033203
vt 0.843750 0.005859
vt 0.843750 0.033203
vt 0.851562 0.005859
vt 0.851562 0.033203
vt 0.857422 0.033203
vt 0.859375 0.033203
vt 0.859375 0.035156
vt 0.857422 0.035156
vt 0.857422 0.003906
vt 0.859375 0.003906
vt 0.859375 0.005859
vt 0.857422 0.005859
vt 0.861328 0.005859
vt 0.861328 0.033203
vt 0.855469 0.005859
vt 0.855469 0.033203
vt 0.863281 0.005859
vt 0.863281 0.033203
vt 0.869141 0.033203
vt 0.871094 0.033203
vt 0.871094 0.035156
vt 0.869141 0.035156
vt 0.869141 0.003906
vt 0.871094 0.003906
vt 0.871094 0.005859
vt 0.869141 0.005859
vt 0.873047 0.005859
vt 0.873047 0.033203
vt 0.867188 0.005859
vt 0.867188 0.033203
vt 0.875000 0.005859
vt 0.875000 0.033203
vt 0.880859 0.033203
vt 0.882812 0.033203
vt 0.882812 0.035156
vt 0.880859 0.035156
vt 0.880859 0.003906
vt 0.882812 0.003906
vt 0.882812 0.005859
vt 0.880859 0.005859
vt 0.884766 0.005859
vt 0.884766 0.033203
vt 0.878906 0.005859
vt 0.878906 0.033203
vt 0.886719 0.005859
vt 0.886719 0.033203
vt 0.892578 0.033203
vt 0.894531 0.033203
vt 0.894531 0.035156
vt 0.892578 0.035156
vt 0.892578 0.003906
vt 0.894531 0.003906
vt 0.894531 0.005859
vt 0.892578 0.005859
vt 0.896484 0.005859
vt 0.896484 0.033203
vt 0.890625 0.005859
vt 0.890625 0.033203
vt 0.898438 0.005859
vt 0.898438 0.033203
vt 0.904297 0.033203
vt 0.906250 0.033203
vt 0.906250 0.035156
vt 0.904297 0.035156
vt 0.904297 0.003906
vt 0.906250 0.003906
vt 0.906250 0.005859
vt 0.904297 0.005859
vt 0.908203 0.005859
vt 0.908203 0.033203
vt 0.902344 0.005859
vt 0.902344 0.033203
vt 0.910156 0.005859
vt 0.910156 0.033203
vt 0.916016 0.033203
vt 0.917969 0.033203
vt 0.917969 0.035156
vt 0.916016 0.035156
vt 0.916016 0.003906
vt 0.917969 0.003906
vt 0.917969 0.005859
vt 0.916016 0.005859
vt 0.919922 0.005859
vt 0.919922 0.033203
vt 0.914062 0.005859
vt 0.914062 0.033203
vt 0.921875 0.005859
vt 0.921875 0.033203
s 0
usemtl WashDrumCrownTex
f 1/1/1 2/2/1 18/3/1 17/4/1
f 2/2/2 3/5/2 19/6/2 18/3/2
f 3/5/3 4/7/3 20/8/3 19/6/3
f 4/7/4 5/9/4 21/10/4 20/8/4
f 5/9/5 6/11/5 22/12/5 21/10/5
f 6/11/6 7/13/6 23/14/6 22/12/6
f 7/13/7 8/15/7 24/16/7 23/14/7
f 8/15/8 9/17/8 25/18/8 24/16/8
f 9/17/9 10/19/9 26/20/9 25/18/9
f 10/19/10 11/21/10 27/22/10 26/20/10
f 11/21/11 12/23/11 28/24/11 27/22/11
f 12/23/12 13/25/12 29/26/12 28/24/12
f 13/25/13 14/27/13 30/28/13 29/26/13
f 14/27/14 15/29/14 31/30/14 30/28/14
f 15/29/15 16/31/15 32/32/15 31/30/15
f 16/31/16 1/33/16 17/34/16 32/32/16
f 32/35/17 17/36/17 18/37/17 19/38/17 20/39/17 21/40/17 22/41/17 23/42/17 24/43/17 25/44/17 26/45/17 27/46/17 28/47/17 29/48/17 30/49/17 31/50/17
f 1/51/18 16/52/18 15/53/18 14/54/18 13/55/18 12/56/18 11/57/18 10/58/18 9/59/18 8/60/18 7/61/18 6/62/18 5/63/18 4/64/18 3/65/18 2/66/18
f 33/67/19 34/68/19 44/69/19 43/70/19
f 34/68/20 35/71/20 45/72/20 44/69/20
f 35/71/21 36/73/21 46/74/21 45/72/21
f 36/73/22 37/75/22 47/76/22 46/74/22
f 37/75/23 38/77/23 48/78/23 47/76/23
f 38/77/24 39/79/24 49/80/24 48/78/24
f 39/79/25 40/81/25 50/82/25 49/80/25
f 40/81/26 41/83/26 51/84/26 50/82/26
f 41/83/27 42/85/27 52/86/27 51/84/27
f 42/85/28 33/87/28 43/88/28 52/86/28
f 52/89/17 43/90/17 44/91/17 45/92/17 46/93/17 47/94/17 48/95/17 49/96/17 50/97/17 51/98/17
f 33/99/18 42/100/18 41/101/18 40/102/18 39/103/18 38/104/18 37/105/18 36/106/18 35/107/18 34/108/18
f 54/109/17 58/110/17 60/111/17 56/112/17
f 55/113/18 59/114/18 57/115/18 53/116/18
f 57/115/29 59/117/29 60/118/29 58/110/29
f 55/119/30 53/116/30 54/109/30 56/120/30
f 59/117/21 55/121/21 56/122/21 60/118/21
f 53/116/26 57/115/26 58/110/26 54/109/26
f 62/123/17 66/124/17 68/125/17 64/126/17
f 63/127/18 67/128/18 65/129/18 61/130/18
f 65/129/29 67/131/29 68/132/29 66/124/29
f 63/133/30 61/130/30 62/123/30 64/134/30
f 67/131/21 63/135/21 64/136/21 68/132/21
f 61/130/26 65/129/26 66/124/26 62/123/26
f 70/137/17 74/138/17 76/139/17 72/140/17
f 71/141/18 75/142/18 73/143/18 69/144/18
f 73/143/29 75/145/29 76/146/29 74/138/29
f 71/147/30 69/144/30 70/137/30 72/148/30
f 75/145/21 71/149/21 72/150/21 76/146/21
f 69/144/26 73/143/26 74/138/26 70/137/26
f 78/151/17 82/152/17 84/153/17 80/154/17
f 79/155/18 83/156/18 81/157/18 77/158/18
f 81/157/29 83/159/29 84/160/29 82/152/29
f 79/161/30 77/158/30 78/151/30 80/162/30
f 83/159/21 79/163/21 80/164/21 84/160/21
f 77/158/26 81/157/26 82/152/26 78/151/26
f 86/165/17 90/166/17 92/167/17 88/168/17
f 87/169/18 91/170/18 89/171/18 85/172/18
f 89/171/29 91/173/29 92/174/29 90/166/29
f 87/175/30 85/172/30 86/165/30 88/176/30
f 91/173/21 87/177/21 88/178/21 92/174/21
f 85/172/26 89/171/26 90/166/26 86/165/26
f 94/179/17 98/180/17 100/181/17 96/182/17
f 95/183/18 99/184/18 97/185/18 93/186/18
f 97/185/29 99/187/29 100/188/29 98/180/29
f 95/189/30 93/186/30 94/179/30 96/190/30
f 99/187/21 95/191/21 96/192/21 100/188/21
f 93/186/26 97/185/26 98/180/26 94/179/26
f 102/193/17 106/194/17 108/195/17 104/196/17
f 103/197/18 107/198/18 105/199/18 101/200/18
f 105/199/29 107/201/29 108/202/29 106/194/29
f 103/203/30 101/200/30 102/193/30 104/204/30
f 107/201/21 103/205/21 104/206/21 108/202/21
f 101/200/26 105/199/26 106/194/26 102/193/26
f 110/207/17 114/208/17 116/209/17 112/210/17
f 111/211/18 115/212/18 113/213/18 109/214/18
f 113/213/29 115/215/29 116/216/29 114/208/29
f 111/217/30 109/214/30 110/207/30 112/218/30
f 115/215/21 111/219/21 112/220/21 116/216/21
f 109/214/26 113/213/26 114/208/26 110/207/26
