# Blender 5.1.1
# www.blender.org
mtllib WoodPlank.mtl
o WoodPlank
v -0.675000 0.000000 0.850000
v -0.675000 0.050000 0.850000
v -0.675000 0.000000 -0.850000
v -0.675000 0.050000 -0.850000
v 0.675000 0.000000 0.850000
v 0.675000 0.050000 0.850000
v 0.675000 0.000000 -0.850000
v 0.675000 0.050000 -0.850000
vn -0.0000 1.0000 -0.0000
vn -0.0000 -1.0000 -0.0000
vn 1.0000 -0.0000 -0.0000
vn -1.0000 -0.0000 -0.0000
vn -0.0000 -0.0000 -1.0000
vn -0.0000 -0.0000 1.0000
vt 0.218750 0.226562
vt 0.386719 0.226562
vt 0.386719 0.437500
vt 0.218750 0.437500
vt 0.218750 0.007812
vt 0.386719 0.007812
vt 0.386719 0.218750
vt 0.218750 0.218750
vt 0.597656 0.218750
vt 0.597656 0.226562
vt 0.007812 0.218750
vt 0.007812 0.226562
vt 0.765625 0.218750
vt 0.765625 0.226562
s 0
usemtl WoodPlankTex
f 2/1/1 6/2/1 8/3/1 4/4/1
f 3/5/2 7/6/2 5/7/2 1/8/2
f 5/7/3 7/9/3 8/10/3 6/2/3
f 3/11/4 1/8/4 2/1/4 4/12/4
f 7/9/5 3/13/5 4/14/5 8/10/5
f 1/8/6 5/7/6 6/2/6 2/1/6
