mtllib deadzone_chembrane_ruin_chembrane.mtl
usemtl baked
v -2.469025 4.331413 0.130000
v -0.319992 4.266922 0.130000
v -2.580008 0.633078 0.130000
v -0.319992 4.266922 0.130000
v -0.430975 0.568587 0.130000
v -2.580008 0.633078 0.130000
v -0.319992 4.266922 -0.030000
v -2.469025 4.331413 -0.030000
v -0.430975 0.568587 -0.030000
v -2.469025 4.331413 -0.030000
v -2.580008 0.633078 -0.030000
v -0.430975 0.568587 -0.030000
v -0.319992 4.266922 0.130000
v -0.319992 4.266922 -0.030000
v -0.430975 0.568587 0.130000
v -0.319992 4.266922 -0.030000
v -0.430975 0.568587 -0.030000
v -0.430975 0.568587 0.130000
v -2.469025 4.331413 -0.030000
v -2.469025 4.331413 0.130000
v -2.580008 0.633078 -0.030000
v -2.469025 4.331413 0.130000
v -2.580008 0.633078 0.130000
v -2.580008 0.633078 -0.030000
v -0.319992 4.266922 0.130000
v -2.469025 4.331413 0.130000
v -0.319992 4.266922 -0.030000
v -2.469025 4.331413 0.130000
v -2.469025 4.331413 -0.030000
v -0.319992 4.266922 -0.030000
v -2.580008 0.633078 0.130000
v -0.430975 0.568587 0.130000
v -2.580008 0.633078 -0.030000
v -0.430975 0.568587 0.130000
v -0.430975 0.568587 -0.030000
v -2.580008 0.633078 -0.030000
v 0.178407 3.920807 0.130000
v 2.315413 4.156831 0.130000
v 0.584587 0.243170 0.130000
v 2.315413 4.156831 0.130000
v 2.721593 0.479193 0.130000
v 0.584587 0.243170 0.130000
v 2.315413 4.156831 -0.030000
v 0.178407 3.920807 -0.030000
v 2.721593 0.479193 -0.030000
v 0.178407 3.920807 -0.030000
v 0.584587 0.243170 -0.030000
v 2.721593 0.479193 -0.030000
v 2.315413 4.156831 0.130000
v 2.315413 4.156831 -0.030000
v 2.721593 0.479193 0.130000
v 2.315413 4.156831 -0.030000
v 2.721593 0.479193 -0.030000
v 2.721593 0.479193 0.130000
v 0.178407 3.920807 -0.030000
v 0.178407 3.920807 0.130000
v 0.584587 0.243170 -0.030000
v 0.178407 3.920807 0.130000
v 0.584587 0.243170 0.130000
v 0.584587 0.243170 -0.030000
v 2.315413 4.156831 0.130000
v 0.178407 3.920807 0.130000
v 2.315413 4.156831 -0.030000
v 0.178407 3.920807 0.130000
v 0.178407 3.920807 -0.030000
v 2.315413 4.156831 -0.030000
v 0.584587 0.243170 0.130000
v 2.721593 0.479193 0.130000
v 0.584587 0.243170 -0.030000
v 2.721593 0.479193 0.130000
v 2.721593 0.479193 -0.030000
v 0.584587 0.243170 -0.030000
vt 0.474158 0.992188
vt 0.339844 0.984126
vt 0.481095 0.529896
vt 0.339844 0.984126
vt 0.346780 0.521834
vt 0.481095 0.529896
vt 0.631485 0.984126
vt 0.497171 0.992188
vt 0.624549 0.521834
vt 0.497171 0.992188
vt 0.490234 0.529896
vt 0.624549 0.521834
vt 0.650625 0.992188
vt 0.640625 0.992188
vt 0.650625 0.529896
vt 0.640625 0.992188
vt 0.640625 0.529896
vt 0.650625 0.529896
vt 0.670156 0.992188
vt 0.660156 0.992188
vt 0.670156 0.529896
vt 0.660156 0.992188
vt 0.660156 0.529896
vt 0.670156 0.529896
vt 0.853065 0.992188
vt 0.718750 0.992188
vt 0.853065 0.972188
vt 0.718750 0.992188
vt 0.718750 0.972188
vt 0.853065 0.972188
vt 0.861328 0.972188
vt 0.995643 0.972188
vt 0.861328 0.992188
vt 0.995643 0.972188
vt 0.995643 0.992188
vt 0.861328 0.992188
vt 0.162855 0.962685
vt 0.029292 0.992188
vt 0.137469 0.502980
vt 0.029292 0.992188
vt 0.003906 0.532483
vt 0.137469 0.502980
vt 0.305438 0.992188
vt 0.171875 0.962685
vt 0.330824 0.532483
vt 0.171875 0.962685
vt 0.197261 0.502980
vt 0.330824 0.532483
vt 0.689687 0.992188
vt 0.679688 0.992188
vt 0.689687 0.532483
vt 0.679688 0.992188
vt 0.679688 0.532483
vt 0.689687 0.532483
vt 0.709219 0.992188
vt 0.699219 0.992188
vt 0.709219 0.532483
vt 0.699219 0.992188
vt 0.699219 0.532483
vt 0.709219 0.532483
vt 0.137469 0.484375
vt 0.003906 0.484375
vt 0.137469 0.464375
vt 0.003906 0.484375
vt 0.003906 0.464375
vt 0.137469 0.464375
vt 0.146484 0.464375
vt 0.280047 0.464375
vt 0.146484 0.484375
vt 0.280047 0.464375
vt 0.280047 0.484375
vt 0.146484 0.484375
f 1/1 2/2 3/3
f 4/4 5/5 6/6
f 7/7 8/8 9/9
f 10/10 11/11 12/12
f 13/13 14/14 15/15
f 16/16 17/17 18/18
f 19/19 20/20 21/21
f 22/22 23/23 24/24
f 25/25 26/26 27/27
f 28/28 29/29 30/30
f 31/31 32/32 33/33
f 34/34 35/35 36/36
f 37/37 38/38 39/39
f 40/40 41/41 42/42
f 43/43 44/44 45/45
f 46/46 47/47 48/48
f 49/49 50/50 51/51
f 52/52 53/53 54/54
f 55/55 56/56 57/57
f 58/58 59/59 60/60
f 61/61 62/62 63/63
f 64/64 65/65 66/66
f 67/67 68/68 69/69
f 70/70 71/71 72/72
