mtllib deadzone_chembrane_ruin_warning.mtl
usemtl baked
v 0.000000 1.870000 2.100000
v 0.000000 1.870000 2.100000
v 0.000000 1.840526 2.210000
v 0.000000 1.870000 2.100000
v 0.077782 1.840526 2.177782
v 0.000000 1.840526 2.210000
v 0.000000 1.870000 2.100000
v 0.000000 1.870000 2.100000
v 0.077782 1.840526 2.177782
v 0.000000 1.870000 2.100000
v 0.110000 1.840526 2.100000
v 0.077782 1.840526 2.177782
v 0.000000 1.870000 2.100000
v 0.000000 1.870000 2.100000
v 0.110000 1.840526 2.100000
v 0.000000 1.870000 2.100000
v 0.077782 1.840526 2.022218
v 0.110000 1.840526 2.100000
v 0.000000 1.870000 2.100000
v 0.000000 1.870000 2.100000
v 0.077782 1.840526 2.022218
v 0.000000 1.870000 2.100000
v 0.000000 1.840526 1.990000
v 0.077782 1.840526 2.022218
v 0.000000 1.870000 2.100000
v 0.000000 1.870000 2.100000
v 0.000000 1.840526 1.990000
v 0.000000 1.870000 2.100000
v -0.077782 1.840526 2.022218
v 0.000000 1.840526 1.990000
v 0.000000 1.870000 2.100000
v 0.000000 1.870000 2.100000
v -0.077782 1.840526 2.022218
v 0.000000 1.870000 2.100000
v -0.110000 1.840526 2.100000
v -0.077782 1.840526 2.022218
v 0.000000 1.870000 2.100000
v 0.000000 1.870000 2.100000
v -0.110000 1.840526 2.100000
v 0.000000 1.870000 2.100000
v -0.077782 1.840526 2.177782
v -0.110000 1.840526 2.100000
v 0.000000 1.870000 2.100000
v 0.000000 1.870000 2.100000
v -0.077782 1.840526 2.177782
v 0.000000 1.870000 2.100000
v 0.000000 1.840526 2.210000
v -0.077782 1.840526 2.177782
v 0.000000 1.840526 2.210000
v 0.077782 1.840526 2.177782
v 0.000000 1.760000 2.290525
v 0.077782 1.840526 2.177782
v 0.134722 1.760000 2.234722
v 0.000000 1.760000 2.290525
v 0.077782 1.840526 2.177782
v 0.110000 1.840526 2.100000
v 0.134722 1.760000 2.234722
v 0.110000 1.840526 2.100000
v 0.190526 1.760000 2.100000
v 0.134722 1.760000 2.234722
v 0.110000 1.840526 2.100000
v 0.077782 1.840526 2.022218
v 0.190526 1.760000 2.100000
v 0.077782 1.840526 2.022218
v 0.134722 1.760000 1.965278
v 0.190526 1.760000 2.100000
v 0.077782 1.840526 2.022218
v 0.000000 1.840526 1.990000
v 0.134722 1.760000 1.965278
v 0.000000 1.840526 1.990000
v 0.000000 1.760000 1.909474
v 0.134722 1.760000 1.965278
v 0.000000 1.840526 1.990000
v -0.077782 1.840526 2.022218
v 0.000000 1.760000 1.909474
v -0.077782 1.840526 2.022218
v -0.134722 1.760000 1.965278
v 0.000000 1.760000 1.909474
v -0.077782 1.840526 2.022218
v -0.110000 1.840526 2.100000
v -0.134722 1.760000 1.965278
v -0.110000 1.840526 2.100000
v -0.190526 1.760000 2.100000
v -0.134722 1.760000 1.965278
v -0.110000 1.840526 2.100000
v -0.077782 1.840526 2.177782
v -0.190526 1.760000 2.100000
v -0.077782 1.840526 2.177782
v -0.134722 1.760000 2.234722
v -0.190526 1.760000 2.100000
v -0.077782 1.840526 2.177782
v 0.000000 1.840526 2.210000
v -0.134722 1.760000 2.234722
v 0.000000 1.840526 2.210000
v 0.000000 1.760000 2.290525
v -0.134722 1.760000 2.234722
v 0.000000 1.760000 2.290525
v 0.134722 1.760000 2.234722
v 0.000000 1.650000 2.320000
v 0.134722 1.760000 2.234722
v 0.155563 1.650000 2.255563
v 0.000000 1.650000 2.320000
v 0.134722 1.760000 2.234722
v 0.190526 1.760000 2.100000
v 0.155563 1.650000 2.255563
v 0.190526 1.760000 2.100000
v 0.220000 1.650000 2.100000
v 0.155563 1.650000 2.255563
v 0.190526 1.760000 2.100000
v 0.134722 1.760000 1.965278
v 0.220000 1.650000 2.100000
v 0.134722 1.760000 1.965278
v 0.155563 1.650000 1.944436
v 0.220000 1.650000 2.100000
v 0.134722 1.760000 1.965278
v 0.000000 1.760000 1.909474
v 0.155563 1.650000 1.944436
v 0.000000 1.760000 1.909474
v 0.000000 1.650000 1.880000
v 0.155563 1.650000 1.944436
v 0.000000 1.760000 1.909474
v -0.134722 1.760000 1.965278
v 0.000000 1.650000 1.880000
v -0.134722 1.760000 1.965278
v -0.155563 1.650000 1.944436
v 0.000000 1.650000 1.880000
v -0.134722 1.760000 1.965278
v -0.190526 1.760000 2.100000
v -0.155563 1.650000 1.944436
v -0.190526 1.760000 2.100000
v -0.220000 1.650000 2.100000
v -0.155563 1.650000 1.944436
v -0.190526 1.760000 2.100000
v -0.134722 1.760000 2.234722
v -0.220000 1.650000 2.100000
v -0.134722 1.760000 2.234722
v -0.155563 1.650000 2.255563
v -0.220000 1.650000 2.100000
v -0.134722 1.760000 2.234722
v 0.000000 1.760000 2.290525
v -0.155563 1.650000 2.255563
v 0.000000 1.760000 2.290525
v 0.000000 1.650000 2.320000
v -0.155563 1.650000 2.255563
v 0.000000 1.650000 2.320000
v 0.155563 1.650000 2.255563
v 0.000000 1.540000 2.290525
v 0.155563 1.650000 2.255563
v 0.134722 1.540000 2.234722
v 0.000000 1.540000 2.290525
v 0.155563 1.650000 2.255563
v 0.220000 1.650000 2.100000
v 0.134722 1.540000 2.234722
v 0.220000 1.650000 2.100000
v 0.190526 1.540000 2.100000
v 0.134722 1.540000 2.234722
v 0.220000 1.650000 2.100000
v 0.155563 1.650000 1.944436
v 0.190526 1.540000 2.100000
v 0.155563 1.650000 1.944436
v 0.134722 1.540000 1.965278
v 0.190526 1.540000 2.100000
v 0.155563 1.650000 1.944436
v 0.000000 1.650000 1.880000
v 0.134722 1.540000 1.965278
v 0.000000 1.650000 1.880000
v 0.000000 1.540000 1.909474
v 0.134722 1.540000 1.965278
v 0.000000 1.650000 1.880000
v -0.155563 1.650000 1.944436
v 0.000000 1.540000 1.909474
v -0.155563 1.650000 1.944436
v -0.134722 1.540000 1.965278
v 0.000000 1.540000 1.909474
v -0.155563 1.650000 1.944436
v -0.220000 1.650000 2.100000
v -0.134722 1.540000 1.965278
v -0.220000 1.650000 2.100000
v -0.190526 1.540000 2.100000
v -0.134722 1.540000 1.965278
v -0.220000 1.650000 2.100000
v -0.155563 1.650000 2.255563
v -0.190526 1.540000 2.100000
v -0.155563 1.650000 2.255563
v -0.134722 1.540000 2.234722
v -0.190526 1.540000 2.100000
v -0.155563 1.650000 2.255563
v 0.000000 1.650000 2.320000
v -0.134722 1.540000 2.234722
v 0.000000 1.650000 2.320000
v 0.000000 1.540000 2.290525
v -0.134722 1.540000 2.234722
v 0.000000 1.540000 2.290525
v 0.134722 1.540000 2.234722
v 0.000000 1.459474 2.210000
v 0.134722 1.540000 2.234722
v 0.077782 1.459474 2.177782
v 0.000000 1.459474 2.210000
v 0.134722 1.540000 2.234722
v 0.190526 1.540000 2.100000
v 0.077782 1.459474 2.177782
v 0.190526 1.540000 2.100000
v 0.110000 1.459474 2.100000
v 0.077782 1.459474 2.177782
v 0.190526 1.540000 2.100000
v 0.134722 1.540000 1.965278
v 0.110000 1.459474 2.100000
v 0.134722 1.540000 1.965278
v 0.077782 1.459474 2.022218
v 0.110000 1.459474 2.100000
v 0.134722 1.540000 1.965278
v 0.000000 1.540000 1.909474
v 0.077782 1.459474 2.022218
v 0.000000 1.540000 1.909474
v 0.000000 1.459474 1.990000
v 0.077782 1.459474 2.022218
v 0.000000 1.540000 1.909474
v -0.134722 1.540000 1.965278
v 0.000000 1.459474 1.990000
v -0.134722 1.540000 1.965278
v -0.077782 1.459474 2.022218
v 0.000000 1.459474 1.990000
v -0.134722 1.540000 1.965278
v -0.190526 1.540000 2.100000
v -0.077782 1.459474 2.022218
v -0.190526 1.540000 2.100000
v -0.110000 1.459474 2.100000
v -0.077782 1.459474 2.022218
v -0.190526 1.540000 2.100000
v -0.134722 1.540000 2.234722
v -0.110000 1.459474 2.100000
v -0.134722 1.540000 2.234722
v -0.077782 1.459474 2.177782
v -0.110000 1.459474 2.100000
v -0.134722 1.540000 2.234722
v 0.000000 1.540000 2.290525
v -0.077782 1.459474 2.177782
v 0.000000 1.540000 2.290525
v 0.000000 1.459474 2.210000
v -0.077782 1.459474 2.177782
v 0.000000 1.459474 2.210000
v 0.077782 1.459474 2.177782
v 0.000000 1.430000 2.100000
v 0.077782 1.459474 2.177782
v 0.000000 1.430000 2.100000
v 0.000000 1.430000 2.100000
v 0.077782 1.459474 2.177782
v 0.110000 1.459474 2.100000
v 0.000000 1.430000 2.100000
v 0.110000 1.459474 2.100000
v 0.000000 1.430000 2.100000
v 0.000000 1.430000 2.100000
v 0.110000 1.459474 2.100000
v 0.077782 1.459474 2.022218
v 0.000000 1.430000 2.100000
v 0.077782 1.459474 2.022218
v 0.000000 1.430000 2.100000
v 0.000000 1.430000 2.100000
v 0.077782 1.459474 2.022218
v 0.000000 1.459474 1.990000
v 0.000000 1.430000 2.100000
v 0.000000 1.459474 1.990000
v 0.000000 1.430000 2.100000
v 0.000000 1.430000 2.100000
v 0.000000 1.459474 1.990000
v -0.077782 1.459474 2.022218
v 0.000000 1.430000 2.100000
v -0.077782 1.459474 2.022218
v 0.000000 1.430000 2.100000
v 0.000000 1.430000 2.100000
v -0.077782 1.459474 2.022218
v -0.110000 1.459474 2.100000
v 0.000000 1.430000 2.100000
v -0.110000 1.459474 2.100000
v 0.000000 1.430000 2.100000
v 0.000000 1.430000 2.100000
v -0.110000 1.459474 2.100000
v -0.077782 1.459474 2.177782
v 0.000000 1.430000 2.100000
v -0.077782 1.459474 2.177782
v 0.000000 1.430000 2.100000
v 0.000000 1.430000 2.100000
v -0.077782 1.459474 2.177782
v 0.000000 1.459474 2.210000
v 0.000000 1.430000 2.100000
v 0.000000 1.459474 2.210000
v 0.000000 1.430000 2.100000
v 0.000000 1.430000 2.100000
vt 0.508125 0.648125
vt 0.508125 0.648125
vt 0.508125 0.593125
vt 0.126513 0.873487
vt 0.165404 0.912378
vt 0.126513 0.928487
vt 0.508125 0.648125
vt 0.508125 0.648125
vt 0.547016 0.609234
vt 0.126513 0.873487
vt 0.181513 0.873487
vt 0.165404 0.912378
vt 0.508125 0.648125
vt 0.508125 0.648125
vt 0.563125 0.648125
vt 0.126513 0.873487
vt 0.165404 0.834596
vt 0.181513 0.873487
vt 0.508125 0.648125
vt 0.508125 0.648125
vt 0.547016 0.687016
vt 0.126513 0.873487
vt 0.126513 0.818487
vt 0.165404 0.834596
vt 0.508125 0.648125
vt 0.508125 0.648125
vt 0.508125 0.703125
vt 0.126513 0.873487
vt 0.087622 0.834596
vt 0.126513 0.818487
vt 0.508125 0.648125
vt 0.508125 0.648125
vt 0.469234 0.687016
vt 0.126513 0.873487
vt 0.071513 0.873487
vt 0.087622 0.834596
vt 0.508125 0.648125
vt 0.508125 0.648125
vt 0.453125 0.648125
vt 0.126513 0.873487
vt 0.087622 0.912378
vt 0.071513 0.873487
vt 0.508125 0.648125
vt 0.508125 0.648125
vt 0.469234 0.609234
vt 0.126513 0.873487
vt 0.126513 0.928487
vt 0.087622 0.912378
vt 0.126513 0.928487
vt 0.165404 0.912378
vt 0.126513 0.968750
vt 0.165404 0.912378
vt 0.193874 0.940848
vt 0.126513 0.968750
vt 0.165404 0.912378
vt 0.181513 0.873487
vt 0.193874 0.940848
vt 0.374657 0.968750
vt 0.374657 0.928487
vt 0.442018 0.928487
vt 0.374657 0.968750
vt 0.335766 0.968750
vt 0.374657 0.928487
vt 0.165404 0.834596
vt 0.193874 0.806126
vt 0.221776 0.873487
vt 0.165404 0.834596
vt 0.126513 0.818487
vt 0.193874 0.806126
vt 0.593407 0.968750
vt 0.593407 0.928487
vt 0.660768 0.928487
vt 0.593407 0.968750
vt 0.554516 0.968750
vt 0.593407 0.928487
vt 0.087622 0.834596
vt 0.059152 0.806126
vt 0.126513 0.778224
vt 0.087622 0.834596
vt 0.071513 0.873487
vt 0.059152 0.806126
vt 0.812157 0.968750
vt 0.812157 0.928487
vt 0.879518 0.928487
vt 0.812157 0.968750
vt 0.773266 0.968750
vt 0.812157 0.928487
vt 0.087622 0.912378
vt 0.059152 0.940848
vt 0.031250 0.873487
vt 0.087622 0.912378
vt 0.126513 0.928487
vt 0.059152 0.940848
vt 0.126513 0.928487
vt 0.126513 0.968750
vt 0.059152 0.940848
vt 0.312157 0.703125
vt 0.244796 0.703125
vt 0.312157 0.648125
vt 0.244796 0.703125
vt 0.234375 0.648125
vt 0.312157 0.648125
vt 0.442018 0.928487
vt 0.374657 0.928487
vt 0.452439 0.873487
vt 0.374657 0.928487
vt 0.374657 0.873487
vt 0.452439 0.873487
vt 0.374657 0.928487
vt 0.307296 0.928487
vt 0.374657 0.873487
vt 0.307296 0.928487
vt 0.296875 0.873487
vt 0.374657 0.873487
vt 0.660768 0.928487
vt 0.593407 0.928487
vt 0.671188 0.873487
vt 0.593407 0.928487
vt 0.593407 0.873487
vt 0.671188 0.873487
vt 0.593407 0.928487
vt 0.526046 0.928487
vt 0.593407 0.873487
vt 0.526046 0.928487
vt 0.515625 0.873487
vt 0.593407 0.873487
vt 0.879518 0.928487
vt 0.812157 0.928487
vt 0.889939 0.873487
vt 0.812157 0.928487
vt 0.812157 0.873487
vt 0.889939 0.873487
vt 0.812157 0.928487
vt 0.744796 0.928487
vt 0.812157 0.873487
vt 0.744796 0.928487
vt 0.734375 0.873487
vt 0.812157 0.873487
vt 0.379518 0.703125
vt 0.312157 0.703125
vt 0.389938 0.648125
vt 0.312157 0.703125
vt 0.312157 0.648125
vt 0.389938 0.648125
vt 0.312157 0.648125
vt 0.234375 0.648125
vt 0.312157 0.593125
vt 0.234375 0.648125
vt 0.244796 0.593125
vt 0.312157 0.593125
vt 0.452439 0.873487
vt 0.374657 0.873487
vt 0.442018 0.818487
vt 0.374657 0.873487
vt 0.374657 0.818487
vt 0.442018 0.818487
vt 0.374657 0.873487
vt 0.296875 0.873487
vt 0.374657 0.818487
vt 0.296875 0.873487
vt 0.307296 0.818487
vt 0.374657 0.818487
vt 0.671188 0.873487
vt 0.593407 0.873487
vt 0.660768 0.818487
vt 0.593407 0.873487
vt 0.593407 0.818487
vt 0.660768 0.818487
vt 0.593407 0.873487
vt 0.515625 0.873487
vt 0.593407 0.818487
vt 0.515625 0.873487
vt 0.526046 0.818487
vt 0.593407 0.818487
vt 0.889939 0.873487
vt 0.812157 0.873487
vt 0.879518 0.818487
vt 0.812157 0.873487
vt 0.812157 0.818487
vt 0.879518 0.818487
vt 0.812157 0.873487
vt 0.734375 0.873487
vt 0.812157 0.818487
vt 0.734375 0.873487
vt 0.744796 0.818487
vt 0.812157 0.818487
vt 0.389938 0.648125
vt 0.312157 0.648125
vt 0.379518 0.593125
vt 0.312157 0.648125
vt 0.312157 0.593125
vt 0.379518 0.593125
vt 0.312157 0.593125
vt 0.244796 0.593125
vt 0.312157 0.552862
vt 0.165972 0.568403
vt 0.137502 0.596873
vt 0.098611 0.580764
vt 0.442018 0.818487
vt 0.374657 0.818487
vt 0.413548 0.778224
vt 0.374657 0.818487
vt 0.374657 0.778224
vt 0.413548 0.778224
vt 0.374657 0.818487
vt 0.307296 0.818487
vt 0.374657 0.778224
vt 0.307296 0.818487
vt 0.335766 0.778224
vt 0.374657 0.778224
vt 0.660768 0.818487
vt 0.593407 0.818487
vt 0.632298 0.778224
vt 0.593407 0.818487
vt 0.593407 0.778224
vt 0.632298 0.778224
vt 0.593407 0.818487
vt 0.526046 0.818487
vt 0.593407 0.778224
vt 0.031250 0.703125
vt 0.059720 0.674655
vt 0.098611 0.690764
vt 0.879518 0.818487
vt 0.812157 0.818487
vt 0.851048 0.778224
vt 0.812157 0.818487
vt 0.812157 0.778224
vt 0.851048 0.778224
vt 0.812157 0.818487
vt 0.744796 0.818487
vt 0.812157 0.778224
vt 0.031250 0.568403
vt 0.059720 0.596873
vt 0.043611 0.635764
vt 0.031250 0.568403
vt 0.098611 0.540501
vt 0.059720 0.596873
vt 0.312157 0.593125
vt 0.312157 0.552862
vt 0.351048 0.552862
vt 0.098611 0.580764
vt 0.137502 0.596873
vt 0.098611 0.635764
vt 0.137502 0.596873
vt 0.098611 0.635764
vt 0.098611 0.635764
vt 0.137502 0.596873
vt 0.153611 0.635764
vt 0.098611 0.635764
vt 0.153611 0.635764
vt 0.098611 0.635764
vt 0.098611 0.635764
vt 0.153611 0.635764
vt 0.137502 0.674655
vt 0.098611 0.635764
vt 0.137502 0.674655
vt 0.098611 0.635764
vt 0.098611 0.635764
vt 0.137502 0.674655
vt 0.098611 0.690764
vt 0.098611 0.635764
vt 0.098611 0.690764
vt 0.098611 0.635764
vt 0.098611 0.635764
vt 0.098611 0.690764
vt 0.059720 0.674655
vt 0.098611 0.635764
vt 0.059720 0.674655
vt 0.098611 0.635764
vt 0.098611 0.635764
vt 0.059720 0.674655
vt 0.043611 0.635764
vt 0.098611 0.635764
vt 0.043611 0.635764
vt 0.098611 0.635764
vt 0.098611 0.635764
vt 0.043611 0.635764
vt 0.059720 0.596873
vt 0.098611 0.635764
vt 0.059720 0.596873
vt 0.098611 0.635764
vt 0.098611 0.635764
vt 0.059720 0.596873
vt 0.098611 0.580764
vt 0.098611 0.635764
vt 0.098611 0.580764
vt 0.098611 0.635764
vt 0.098611 0.635764
f 1/1 2/2 3/3
f 4/4 5/5 6/6
f 7/7 8/8 9/9
f 10/10 11/11 12/12
f 13/13 14/14 15/15
f 16/16 17/17 18/18
f 19/19 20/20 21/21
f 22/22 23/23 24/24
f 25/25 26/26 27/27
f 28/28 29/29 30/30
f 31/31 32/32 33/33
f 34/34 35/35 36/36
f 37/37 38/38 39/39
f 40/40 41/41 42/42
f 43/43 44/44 45/45
f 46/46 47/47 48/48
f 49/49 50/50 51/51
f 52/52 53/53 54/54
f 55/55 56/56 57/57
f 58/58 59/59 60/60
f 61/61 62/62 63/63
f 64/64 65/65 66/66
f 67/67 68/68 69/69
f 70/70 71/71 72/72
f 73/73 74/74 75/75
f 76/76 77/77 78/78
f 79/79 80/80 81/81
f 82/82 83/83 84/84
f 85/85 86/86 87/87
f 88/88 89/89 90/90
f 91/91 92/92 93/93
f 94/94 95/95 96/96
f 97/97 98/98 99/99
f 100/100 101/101 102/102
f 103/103 104/104 105/105
f 106/106 107/107 108/108
f 109/109 110/110 111/111
f 112/112 113/113 114/114
f 115/115 116/116 117/117
f 118/118 119/119 120/120
f 121/121 122/122 123/123
f 124/124 125/125 126/126
f 127/127 128/128 129/129
f 130/130 131/131 132/132
f 133/133 134/134 135/135
f 136/136 137/137 138/138
f 139/139 140/140 141/141
f 142/142 143/143 144/144
f 145/145 146/146 147/147
f 148/148 149/149 150/150
f 151/151 152/152 153/153
f 154/154 155/155 156/156
f 157/157 158/158 159/159
f 160/160 161/161 162/162
f 163/163 164/164 165/165
f 166/166 167/167 168/168
f 169/169 170/170 171/171
f 172/172 173/173 174/174
f 175/175 176/176 177/177
f 178/178 179/179 180/180
f 181/181 182/182 183/183
f 184/184 185/185 186/186
f 187/187 188/188 189/189
f 190/190 191/191 192/192
f 193/193 194/194 195/195
f 196/196 197/197 198/198
f 199/199 200/200 201/201
f 202/202 203/203 204/204
f 205/205 206/206 207/207
f 208/208 209/209 210/210
f 211/211 212/212 213/213
f 214/214 215/215 216/216
f 217/217 218/218 219/219
f 220/220 221/221 222/222
f 223/223 224/224 225/225
f 226/226 227/227 228/228
f 229/229 230/230 231/231
f 232/232 233/233 234/234
f 235/235 236/236 237/237
f 238/238 239/239 240/240
f 241/241 242/242 243/243
f 244/244 245/245 246/246
f 247/247 248/248 249/249
f 250/250 251/251 252/252
f 253/253 254/254 255/255
f 256/256 257/257 258/258
f 259/259 260/260 261/261
f 262/262 263/263 264/264
f 265/265 266/266 267/267
f 268/268 269/269 270/270
f 271/271 272/272 273/273
f 274/274 275/275 276/276
f 277/277 278/278 279/279
f 280/280 281/281 282/282
f 283/283 284/284 285/285
f 286/286 287/287 288/288
