mtllib deadzone_chembrane_ruin_structure.mtl
usemtl baked
v -2.835457 5.816369 0.450000
v -2.116752 5.773194 0.450000
v -3.183248 0.026806 0.450000
v -2.116752 5.773194 0.450000
v -2.464544 -0.016369 0.450000
v -3.183248 0.026806 0.450000
v -2.116752 5.773194 -0.450000
v -2.835457 5.816369 -0.450000
v -2.464544 -0.016369 -0.450000
v -2.835457 5.816369 -0.450000
v -3.183248 0.026806 -0.450000
v -2.464544 -0.016369 -0.450000
v -2.116752 5.773194 0.450000
v -2.116752 5.773194 -0.450000
v -2.464544 -0.016369 0.450000
v -2.116752 5.773194 -0.450000
v -2.464544 -0.016369 -0.450000
v -2.464544 -0.016369 0.450000
v -2.835457 5.816369 -0.450000
v -2.835457 5.816369 0.450000
v -3.183248 0.026806 -0.450000
v -2.835457 5.816369 0.450000
v -3.183248 0.026806 0.450000
v -3.183248 0.026806 -0.450000
v -2.116752 5.773194 0.450000
v -2.835457 5.816369 0.450000
v -2.116752 5.773194 -0.450000
v -2.835457 5.816369 0.450000
v -2.835457 5.816369 -0.450000
v -2.116752 5.773194 -0.450000
v -3.183248 0.026806 0.450000
v -2.464544 -0.016369 0.450000
v -3.183248 0.026806 -0.450000
v -2.464544 -0.016369 0.450000
v -2.464544 -0.016369 -0.450000
v -3.183248 0.026806 -0.450000
v 1.888847 5.251139 0.662466
v 2.601803 5.351530 0.666483
v 2.698197 -0.487520 0.432797
v 2.601803 5.351530 0.666483
v 3.411153 -0.387129 0.436814
v 2.698197 -0.487520 0.432797
v 2.601803 5.387520 -0.232797
v 1.888847 5.287129 -0.236814
v 3.411153 -0.351139 -0.462466
v 1.888847 5.287129 -0.236814
v 2.698197 -0.451530 -0.466483
v 3.411153 -0.351139 -0.462466
v 2.601803 5.351530 0.666483
v 2.601803 5.387520 -0.232797
v 3.411153 -0.387129 0.436814
v 2.601803 5.387520 -0.232797
v 3.411153 -0.351139 -0.462466
v 3.411153 -0.387129 0.436814
v 1.888847 5.287129 -0.236814
v 1.888847 5.251139 0.662466
v 2.698197 -0.451530 -0.466483
v 1.888847 5.251139 0.662466
v 2.698197 -0.487520 0.432797
v 2.698197 -0.451530 -0.466483
v 2.601803 5.351530 0.666483
v 1.888847 5.251139 0.662466
v 2.601803 5.387520 -0.232797
v 1.888847 5.251139 0.662466
v 1.888847 5.287129 -0.236814
v 2.601803 5.387520 -0.232797
v 2.698197 -0.487520 0.432797
v 3.411153 -0.387129 0.436814
v 2.698197 -0.451530 -0.466483
v 3.411153 -0.387129 0.436814
v 3.411153 -0.351139 -0.462466
v 2.698197 -0.451530 -0.466483
v -2.762066 5.075857 0.360000
v 2.996224 5.770188 0.360000
v -2.696224 4.529812 0.360000
v 2.996224 5.770188 0.360000
v 3.062066 5.224143 0.360000
v -2.696224 4.529812 0.360000
v 2.996224 5.770188 -0.360000
v -2.762066 5.075857 -0.360000
v 3.062066 5.224143 -0.360000
v -2.762066 5.075857 -0.360000
v -2.696224 4.529812 -0.360000
v 3.062066 5.224143 -0.360000
v 2.996224 5.770188 0.360000
v 2.996224 5.770188 -0.360000
v 3.062066 5.224143 0.360000
v 2.996224 5.770188 -0.360000
v 3.062066 5.224143 -0.360000
v 3.062066 5.224143 0.360000
v -2.762066 5.075857 -0.360000
v -2.762066 5.075857 0.360000
v -2.696224 4.529812 -0.360000
v -2.762066 5.075857 0.360000
v -2.696224 4.529812 0.360000
v -2.696224 4.529812 -0.360000
v 2.996224 5.770188 0.360000
v -2.762066 5.075857 0.360000
v 2.996224 5.770188 -0.360000
v -2.762066 5.075857 0.360000
v -2.762066 5.075857 -0.360000
v 2.996224 5.770188 -0.360000
v -2.696224 4.529812 0.360000
v 3.062066 5.224143 0.360000
v -2.696224 4.529812 -0.360000
v 3.062066 5.224143 0.360000
v 3.062066 5.224143 -0.360000
v -2.696224 4.529812 -0.360000
v -0.478106 1.409286 2.639864
v 0.661922 1.351856 2.500085
v -0.554267 0.012154 2.592728
v 0.661922 1.351856 2.500085
v 0.585761 -0.045276 2.452949
v -0.554267 0.012154 2.592728
v 0.554267 1.387846 1.607272
v -0.585761 1.445276 1.747051
v 0.478106 -0.009286 1.560136
v -0.585761 1.445276 1.747051
v -0.661922 0.048144 1.699914
v 0.478106 -0.009286 1.560136
v 0.661922 1.351856 2.500085
v 0.554267 1.387846 1.607272
v 0.585761 -0.045276 2.452949
v 0.554267 1.387846 1.607272
v 0.478106 -0.009286 1.560136
v 0.585761 -0.045276 2.452949
v -0.585761 1.445276 1.747051
v -0.478106 1.409286 2.639864
v -0.661922 0.048144 1.699914
v -0.478106 1.409286 2.639864
v -0.554267 0.012154 2.592728
v -0.661922 0.048144 1.699914
v 0.661922 1.351856 2.500085
v -0.478106 1.409286 2.639864
v 0.554267 1.387846 1.607272
v -0.478106 1.409286 2.639864
v -0.585761 1.445276 1.747051
v 0.554267 1.387846 1.607272
v -0.554267 0.012154 2.592728
v 0.585761 -0.045276 2.452949
v -0.661922 0.048144 1.699914
v 0.585761 -0.045276 2.452949
v 0.478106 -0.009286 1.560136
v -0.661922 0.048144 1.699914
vt 0.031981 0.992188
vt 0.003906 0.988814
vt 0.045566 0.539878
vt 0.003906 0.988814
vt 0.017492 0.536505
vt 0.045566 0.539878
vt 0.096347 0.988814
vt 0.068273 0.992188
vt 0.082762 0.536505
vt 0.068273 0.992188
vt 0.054688 0.539878
vt 0.082762 0.536505
vt 0.277344 0.992188
vt 0.242188 0.992188
vt 0.277344 0.539878
vt 0.242188 0.992188
vt 0.242188 0.539878
vt 0.277344 0.539878
vt 0.320313 0.992188
vt 0.285156 0.992188
vt 0.320313 0.539878
vt 0.285156 0.992188
vt 0.285156 0.539878
vt 0.320313 0.539878
vt 0.492918 0.519531
vt 0.464844 0.519531
vt 0.492918 0.449219
vt 0.464844 0.519531
vt 0.464844 0.449219
vt 0.492918 0.449219
vt 0.427734 0.449219
vt 0.455809 0.449219
vt 0.427734 0.519531
vt 0.455809 0.449219
vt 0.455809 0.519531
vt 0.427734 0.519531
vt 0.164934 0.984344
vt 0.137084 0.992188
vt 0.133319 0.536012
vt 0.137084 0.992188
vt 0.105469 0.543855
vt 0.133319 0.536012
vt 0.201678 0.992188
vt 0.173828 0.984344
vt 0.233293 0.543855
vt 0.173828 0.984344
vt 0.205443 0.536012
vt 0.233293 0.543855
vt 0.372225 0.989376
vt 0.337096 0.992188
vt 0.363253 0.541043
vt 0.337096 0.992188
vt 0.328125 0.543855
vt 0.363253 0.541043
vt 0.415987 0.992188
vt 0.380859 0.989376
vt 0.424959 0.543855
vt 0.380859 0.989376
vt 0.389831 0.541043
vt 0.424959 0.543855
vt 0.418475 0.519531
vt 0.390625 0.519217
vt 0.418475 0.449275
vt 0.390625 0.519217
vt 0.390625 0.448961
vt 0.418475 0.449275
vt 0.353516 0.449275
vt 0.381365 0.448961
vt 0.353516 0.519531
vt 0.381365 0.448961
vt 0.381365 0.519217
vt 0.353516 0.519531
vt 0.231411 0.465287
vt 0.006478 0.519531
vt 0.228839 0.422627
vt 0.006478 0.519531
vt 0.003906 0.476871
vt 0.228839 0.422627
vt 0.861652 0.992188
vt 0.636719 0.937943
vt 0.864224 0.949528
vt 0.636719 0.937943
vt 0.639291 0.895283
vt 0.864224 0.949528
vt 0.032031 0.406250
vt 0.003906 0.406250
vt 0.032031 0.363590
vt 0.003906 0.406250
vt 0.003906 0.363590
vt 0.032031 0.363590
vt 0.069141 0.406250
vt 0.041016 0.406250
vt 0.069141 0.363590
vt 0.041016 0.406250
vt 0.041016 0.363590
vt 0.069141 0.363590
vt 0.726886 0.519531
vt 0.501953 0.519531
vt 0.726886 0.463281
vt 0.501953 0.519531
vt 0.501953 0.463281
vt 0.726886 0.463281
vt 0.736328 0.463281
vt 0.961261 0.463281
vt 0.736328 0.519531
vt 0.961261 0.463281
vt 0.961261 0.519531
vt 0.736328 0.519531
vt 0.534767 0.992188
vt 0.490234 0.987701
vt 0.537742 0.883037
vt 0.490234 0.987701
vt 0.493209 0.878550
vt 0.537742 0.883037
vt 0.481101 0.987701
vt 0.436569 0.992188
vt 0.478126 0.878550
vt 0.436569 0.992188
vt 0.433594 0.883037
vt 0.478126 0.878550
vt 0.628514 0.989376
vt 0.593638 0.992188
vt 0.626672 0.880225
vt 0.593638 0.992188
vt 0.591797 0.883037
vt 0.626672 0.880225
vt 0.581751 0.992188
vt 0.546875 0.989376
vt 0.583592 0.883037
vt 0.546875 0.989376
vt 0.548716 0.880225
vt 0.583592 0.883037
vt 0.288972 0.508611
vt 0.244440 0.519531
vt 0.284767 0.438860
vt 0.244440 0.519531
vt 0.240234 0.449780
vt 0.284767 0.438860
vt 0.301080 0.438860
vt 0.345613 0.449780
vt 0.296875 0.508611
vt 0.345613 0.449780
vt 0.341407 0.519531
vt 0.296875 0.508611
f 1/1 2/2 3/3
f 4/4 5/5 6/6
f 7/7 8/8 9/9
f 10/10 11/11 12/12
f 13/13 14/14 15/15
f 16/16 17/17 18/18
f 19/19 20/20 21/21
f 22/22 23/23 24/24
f 25/25 26/26 27/27
f 28/28 29/29 30/30
f 31/31 32/32 33/33
f 34/34 35/35 36/36
f 37/37 38/38 39/39
f 40/40 41/41 42/42
f 43/43 44/44 45/45
f 46/46 47/47 48/48
f 49/49 50/50 51/51
f 52/52 53/53 54/54
f 55/55 56/56 57/57
f 58/58 59/59 60/60
f 61/61 62/62 63/63
f 64/64 65/65 66/66
f 67/67 68/68 69/69
f 70/70 71/71 72/72
f 73/73 74/74 75/75
f 76/76 77/77 78/78
f 79/79 80/80 81/81
f 82/82 83/83 84/84
f 85/85 86/86 87/87
f 88/88 89/89 90/90
f 91/91 92/92 93/93
f 94/94 95/95 96/96
f 97/97 98/98 99/99
f 100/100 101/101 102/102
f 103/103 104/104 105/105
f 106/106 107/107 108/108
f 109/109 110/110 111/111
f 112/112 113/113 114/114
f 115/115 116/116 117/117
f 118/118 119/119 120/120
f 121/121 122/122 123/123
f 124/124 125/125 126/126
f 127/127 128/128 129/129
f 130/130 131/131 132/132
f 133/133 134/134 135/135
f 136/136 137/137 138/138
f 139/139 140/140 141/141
f 142/142 143/143 144/144
