mtllib deadzone_chembrane_ruin_roots.mtl
usemtl baked
v -0.718149 2.507109 3.281113
v -0.642476 2.526307 3.218623
v -1.127313 1.927866 2.633281
v -0.642476 2.526307 3.218623
v -1.027425 1.953208 2.550793
v -1.127313 1.927866 2.633281
v -0.642476 2.526307 3.218623
v -0.647444 2.604640 3.156661
v -1.027425 1.953208 2.550793
v -0.647444 2.604640 3.156661
v -1.033982 2.056607 2.469003
v -1.027425 1.953208 2.550793
v -0.647444 2.604640 3.156661
v -0.728084 2.663774 3.157188
v -1.033982 2.056607 2.469003
v -0.728084 2.663774 3.157188
v -1.140427 2.134664 2.469700
v -1.033982 2.056607 2.469003
v -0.728084 2.663774 3.157188
v -0.803757 2.644576 3.219679
v -1.140427 2.134664 2.469700
v -0.803757 2.644576 3.219679
v -1.240315 2.109322 2.552187
v -1.140427 2.134664 2.469700
v -0.803757 2.644576 3.219679
v -0.798790 2.566243 3.281641
v -1.240315 2.109322 2.552187
v -0.798790 2.566243 3.281641
v -1.233758 2.005923 2.633977
v -1.240315 2.109322 2.552187
v -0.798790 2.566243 3.281641
v -0.718149 2.507109 3.281113
v -1.233758 2.005923 2.633977
v -0.718149 2.507109 3.281113
v -1.127313 1.927866 2.633281
v -1.233758 2.005923 2.633977
v -1.127313 1.927866 2.633281
v -1.027425 1.953208 2.550793
v -1.536477 1.348623 1.985448
v -1.027425 1.953208 2.550793
v -1.412373 1.380108 1.882964
v -1.536477 1.348623 1.985448
v -1.027425 1.953208 2.550793
v -1.033982 2.056607 2.469003
v -1.412373 1.380108 1.882964
v -1.033982 2.056607 2.469003
v -1.420520 1.508574 1.781346
v -1.412373 1.380108 1.882964
v -1.033982 2.056607 2.469003
v -1.140427 2.134664 2.469700
v -1.420520 1.508574 1.781346
v -1.140427 2.134664 2.469700
v -1.552770 1.605554 1.782212
v -1.420520 1.508574 1.781346
v -1.140427 2.134664 2.469700
v -1.240315 2.109322 2.552187
v -1.552770 1.605554 1.782212
v -1.240315 2.109322 2.552187
v -1.676874 1.574068 1.884696
v -1.552770 1.605554 1.782212
v -1.240315 2.109322 2.552187
v -1.233758 2.005923 2.633977
v -1.676874 1.574068 1.884696
v -1.233758 2.005923 2.633977
v -1.668727 1.445603 1.986314
v -1.676874 1.574068 1.884696
v -1.233758 2.005923 2.633977
v -1.127313 1.927866 2.633281
v -1.668727 1.445603 1.986314
v -1.127313 1.927866 2.633281
v -1.536477 1.348623 1.985448
v -1.668727 1.445603 1.986314
v -1.536477 1.348623 1.985448
v -1.412373 1.380108 1.882964
v -1.945640 0.769380 1.337616
v -1.412373 1.380108 1.882964
v -1.797321 0.807009 1.215135
v -1.945640 0.769380 1.337616
v -1.412373 1.380108 1.882964
v -1.420520 1.508574 1.781346
v -1.797321 0.807009 1.215135
v -1.420520 1.508574 1.781346
v -1.807058 0.960541 1.093689
v -1.797321 0.807009 1.215135
v -1.420520 1.508574 1.781346
v -1.552770 1.605554 1.782212
v -1.807058 0.960541 1.093689
v -1.552770 1.605554 1.782212
v -1.965113 1.076444 1.094724
v -1.807058 0.960541 1.093689
v -1.552770 1.605554 1.782212
v -1.676874 1.574068 1.884696
v -1.965113 1.076444 1.094724
v -1.676874 1.574068 1.884696
v -2.113432 1.038815 1.217205
v -1.965113 1.076444 1.094724
v -1.676874 1.574068 1.884696
v -1.668727 1.445603 1.986314
v -2.113432 1.038815 1.217205
v -1.668727 1.445603 1.986314
v -2.103695 0.885283 1.338651
v -2.113432 1.038815 1.217205
v -1.668727 1.445603 1.986314
v -1.536477 1.348623 1.985448
v -2.103695 0.885283 1.338651
v -1.536477 1.348623 1.985448
v -1.945640 0.769380 1.337616
v -2.103695 0.885283 1.338651
v -1.945640 0.769380 1.337616
v -1.797321 0.807009 1.215135
v -2.354804 0.190137 0.689783
v -1.797321 0.807009 1.215135
v -2.182270 0.233909 0.547305
v -2.354804 0.190137 0.689783
v -1.797321 0.807009 1.215135
v -1.807058 0.960541 1.093689
v -2.182270 0.233909 0.547305
v -1.807058 0.960541 1.093689
v -2.193596 0.412508 0.406032
v -2.182270 0.233909 0.547305
v -1.807058 0.960541 1.093689
v -1.965113 1.076444 1.094724
v -2.193596 0.412508 0.406032
v -1.965113 1.076444 1.094724
v -2.377456 0.547334 0.407236
v -2.193596 0.412508 0.406032
v -1.965113 1.076444 1.094724
v -2.113432 1.038815 1.217205
v -2.377456 0.547334 0.407236
v -2.113432 1.038815 1.217205
v -2.549990 0.503561 0.549713
v -2.377456 0.547334 0.407236
v -2.113432 1.038815 1.217205
v -2.103695 0.885283 1.338651
v -2.549990 0.503561 0.549713
v -2.103695 0.885283 1.338651
v -2.538664 0.324962 0.690987
v -2.549990 0.503561 0.549713
v -2.103695 0.885283 1.338651
v -1.945640 0.769380 1.337616
v -2.538664 0.324962 0.690987
v -1.945640 0.769380 1.337616
v -2.354804 0.190137 0.689783
v -2.538664 0.324962 0.690987
v -2.354804 0.190137 0.689783
v -2.182270 0.233909 0.547305
v -2.763968 -0.389106 0.041951
v -2.182270 0.233909 0.547305
v -2.567218 -0.339190 -0.120524
v -2.763968 -0.389106 0.041951
v -2.182270 0.233909 0.547305
v -2.193596 0.412508 0.406032
v -2.567218 -0.339190 -0.120524
v -2.193596 0.412508 0.406032
v -2.580134 -0.135525 -0.281626
v -2.567218 -0.339190 -0.120524
v -2.193596 0.412508 0.406032
v -2.377456 0.547334 0.407236
v -2.580134 -0.135525 -0.281626
v -2.377456 0.547334 0.407236
v -2.789799 0.018224 -0.280252
v -2.580134 -0.135525 -0.281626
v -2.377456 0.547334 0.407236
v -2.549990 0.503561 0.549713
v -2.789799 0.018224 -0.280252
v -2.549990 0.503561 0.549713
v -2.986548 -0.031693 -0.117778
v -2.789799 0.018224 -0.280252
v -2.549990 0.503561 0.549713
v -2.538664 0.324962 0.690987
v -2.986548 -0.031693 -0.117778
v -2.538664 0.324962 0.690987
v -2.973633 -0.235358 0.043324
v -2.986548 -0.031693 -0.117778
v -2.538664 0.324962 0.690987
v -2.354804 0.190137 0.689783
v -2.973633 -0.235358 0.043324
v -2.354804 0.190137 0.689783
v -2.763968 -0.389106 0.041951
v -2.973633 -0.235358 0.043324
v -0.723117 2.585442 3.219151
v -0.642476 2.526307 3.218623
v -0.718149 2.507109 3.281113
v -0.723117 2.585442 3.219151
v -0.647444 2.604640 3.156661
v -0.642476 2.526307 3.218623
v -0.723117 2.585442 3.219151
v -0.728084 2.663774 3.157188
v -0.647444 2.604640 3.156661
v -0.723117 2.585442 3.219151
v -0.803757 2.644576 3.219679
v -0.728084 2.663774 3.157188
v -0.723117 2.585442 3.219151
v -0.798790 2.566243 3.281641
v -0.803757 2.644576 3.219679
v -0.723117 2.585442 3.219151
v -0.718149 2.507109 3.281113
v -0.798790 2.566243 3.281641
v -2.776883 -0.185441 -0.119151
v -2.763968 -0.389106 0.041951
v -2.567218 -0.339190 -0.120524
v -2.776883 -0.185441 -0.119151
v -2.567218 -0.339190 -0.120524
v -2.580134 -0.135525 -0.281626
v -2.776883 -0.185441 -0.119151
v -2.580134 -0.135525 -0.281626
v -2.789799 0.018224 -0.280252
v -2.776883 -0.185441 -0.119151
v -2.789799 0.018224 -0.280252
v -2.986548 -0.031693 -0.117778
v -2.776883 -0.185441 -0.119151
v -2.986548 -0.031693 -0.117778
v -2.973633 -0.235358 0.043324
v -2.776883 -0.185441 -0.119151
v -2.973633 -0.235358 0.043324
v -2.763968 -0.389106 0.041951
v 0.632356 2.333872 3.344859
v 0.711452 2.394989 3.347770
v 1.075837 1.763923 2.711528
v 0.711452 2.394989 3.347770
v 1.180244 1.844598 2.715371
v 1.075837 1.763923 2.711528
v 0.711452 2.394989 3.347770
v 0.716420 2.473322 3.285808
v 1.180244 1.844598 2.715371
v 0.716420 2.473322 3.285808
v 1.186801 1.947998 2.633581
v 1.180244 1.844598 2.715371
v 0.716420 2.473322 3.285808
v 0.642291 2.490537 3.220934
v 1.186801 1.947998 2.633581
v 0.642291 2.490537 3.220934
v 1.088951 1.970722 2.547948
v 1.186801 1.947998 2.633581
v 0.642291 2.490537 3.220934
v 0.563195 2.429420 3.218023
v 1.088951 1.970722 2.547948
v 0.563195 2.429420 3.218023
v 0.984545 1.890047 2.544105
v 1.088951 1.970722 2.547948
v 0.563195 2.429420 3.218023
v 0.558228 2.351087 3.279985
v 0.984545 1.890047 2.544105
v 0.558228 2.351087 3.279985
v 0.977987 1.786648 2.625895
v 0.984545 1.890047 2.544105
v 0.558228 2.351087 3.279985
v 0.632356 2.333872 3.344859
v 0.977987 1.786648 2.625895
v 0.632356 2.333872 3.344859
v 1.075837 1.763923 2.711528
v 0.977987 1.786648 2.625895
v 1.075837 1.763923 2.711528
v 1.180244 1.844598 2.715371
v 1.519318 1.193975 2.078197
v 1.180244 1.844598 2.715371
v 1.649036 1.294208 2.082972
v 1.519318 1.193975 2.078197
v 1.180244 1.844598 2.715371
v 1.186801 1.947998 2.633581
v 1.649036 1.294208 2.082972
v 1.186801 1.947998 2.633581
v 1.657182 1.422673 1.981354
v 1.649036 1.294208 2.082972
v 1.186801 1.947998 2.633581
v 1.088951 1.970722 2.547948
v 1.657182 1.422673 1.981354
v 1.088951 1.970722 2.547948
v 1.535612 1.450907 1.874961
v 1.657182 1.422673 1.981354
v 1.088951 1.970722 2.547948
v 0.984545 1.890047 2.544105
v 1.535612 1.450907 1.874961
v 0.984545 1.890047 2.544105
v 1.405894 1.350674 1.870187
v 1.535612 1.450907 1.874961
v 0.984545 1.890047 2.544105
v 0.977987 1.786648 2.625895
v 1.405894 1.350674 1.870187
v 0.977987 1.786648 2.625895
v 1.397747 1.222208 1.971804
v 1.405894 1.350674 1.870187
v 0.977987 1.786648 2.625895
v 1.075837 1.763923 2.711528
v 1.397747 1.222208 1.971804
v 1.075837 1.763923 2.711528
v 1.519318 1.193975 2.078197
v 1.397747 1.222208 1.971804
v 1.519318 1.193975 2.078197
v 1.649036 1.294208 2.082972
v 1.962799 0.624027 1.444867
v 1.649036 1.294208 2.082972
v 2.117827 0.743817 1.450573
v 1.962799 0.624027 1.444867
v 1.649036 1.294208 2.082972
v 1.657182 1.422673 1.981354
v 2.117827 0.743817 1.450573
v 1.657182 1.422673 1.981354
v 2.127564 0.897349 1.329127
v 2.117827 0.743817 1.450573
v 1.657182 1.422673 1.981354
v 1.535612 1.450907 1.874961
v 2.127564 0.897349 1.329127
v 1.535612 1.450907 1.874961
v 1.982272 0.931091 1.201975
v 2.127564 0.897349 1.329127
v 1.535612 1.450907 1.874961
v 1.405894 1.350674 1.870187
v 1.982272 0.931091 1.201975
v 1.405894 1.350674 1.870187
v 1.827243 0.811301 1.196268
v 1.982272 0.931091 1.201975
v 1.405894 1.350674 1.870187
v 1.397747 1.222208 1.971804
v 1.827243 0.811301 1.196268
v 1.397747 1.222208 1.971804
v 1.817507 0.657769 1.317714
v 1.827243 0.811301 1.196268
v 1.397747 1.222208 1.971804
v 1.519318 1.193975 2.078197
v 1.817507 0.657769 1.317714
v 1.519318 1.193975 2.078197
v 1.962799 0.624027 1.444867
v 1.817507 0.657769 1.317714
v 1.962799 0.624027 1.444867
v 2.117827 0.743817 1.450573
v 2.406280 0.054079 0.811536
v 2.117827 0.743817 1.450573
v 2.586619 0.193426 0.818174
v 2.406280 0.054079 0.811536
v 2.117827 0.743817 1.450573
v 2.127564 0.897349 1.329127
v 2.586619 0.193426 0.818174
v 2.127564 0.897349 1.329127
v 2.597945 0.372025 0.676900
v 2.586619 0.193426 0.818174
v 2.127564 0.897349 1.329127
v 1.982272 0.931091 1.201975
v 2.597945 0.372025 0.676900
v 1.982272 0.931091 1.201975
v 2.428932 0.411276 0.528988
v 2.597945 0.372025 0.676900
v 1.982272 0.931091 1.201975
v 1.827243 0.811301 1.196268
v 2.428932 0.411276 0.528988
v 1.827243 0.811301 1.196268
v 2.248593 0.271928 0.522350
v 2.428932 0.411276 0.528988
v 1.827243 0.811301 1.196268
v 1.817507 0.657769 1.317714
v 2.248593 0.271928 0.522350
v 1.817507 0.657769 1.317714
v 2.237267 0.093330 0.663624
v 2.248593 0.271928 0.522350
v 1.817507 0.657769 1.317714
v 1.962799 0.624027 1.444867
v 2.237267 0.093330 0.663624
v 1.962799 0.624027 1.444867
v 2.406280 0.054079 0.811536
v 2.237267 0.093330 0.663624
v 2.406280 0.054079 0.811536
v 2.586619 0.193426 0.818174
v 2.849761 -0.515869 0.178205
v 2.586619 0.193426 0.818174
v 3.055410 -0.356964 0.185775
v 2.849761 -0.515869 0.178205
v 2.586619 0.193426 0.818174
v 2.597945 0.372025 0.676900
v 3.055410 -0.356964 0.185775
v 2.597945 0.372025 0.676900
v 3.068326 -0.153299 0.024673
v 3.055410 -0.356964 0.185775
v 2.597945 0.372025 0.676900
v 2.428932 0.411276 0.528988
v 3.068326 -0.153299 0.024673
v 2.428932 0.411276 0.528988
v 2.875592 -0.108539 -0.143998
v 3.068326 -0.153299 0.024673
v 2.428932 0.411276 0.528988
v 2.248593 0.271928 0.522350
v 2.875592 -0.108539 -0.143998
v 2.248593 0.271928 0.522350
v 2.669942 -0.267444 -0.151568
v 2.875592 -0.108539 -0.143998
v 2.248593 0.271928 0.522350
v 2.237267 0.093330 0.663624
v 2.669942 -0.267444 -0.151568
v 2.237267 0.093330 0.663624
v 2.657026 -0.471110 0.009534
v 2.669942 -0.267444 -0.151568
v 2.237267 0.093330 0.663624
v 2.406280 0.054079 0.811536
v 2.657026 -0.471110 0.009534
v 2.406280 0.054079 0.811536
v 2.849761 -0.515869 0.178205
v 2.657026 -0.471110 0.009534
v 0.637324 2.412204 3.282897
v 0.711452 2.394989 3.347770
v 0.632356 2.333872 3.344859
v 0.637324 2.412204 3.282897
v 0.716420 2.473322 3.285808
v 0.711452 2.394989 3.347770
v 0.637324 2.412204 3.282897
v 0.642291 2.490537 3.220934
v 0.716420 2.473322 3.285808
v 0.637324 2.412204 3.282897
v 0.563195 2.429420 3.218023
v 0.642291 2.490537 3.220934
v 0.637324 2.412204 3.282897
v 0.558228 2.351087 3.279985
v 0.563195 2.429420 3.218023
v 0.637324 2.412204 3.282897
v 0.632356 2.333872 3.344859
v 0.558228 2.351087 3.279985
v 2.862676 -0.312204 0.017103
v 2.849761 -0.515869 0.178205
v 3.055410 -0.356964 0.185775
v 2.862676 -0.312204 0.017103
v 3.055410 -0.356964 0.185775
v 3.068326 -0.153299 0.024673
v 2.862676 -0.312204 0.017103
v 3.068326 -0.153299 0.024673
v 2.875592 -0.108539 -0.143998
v 2.862676 -0.312204 0.017103
v 2.875592 -0.108539 -0.143998
v 2.669942 -0.267444 -0.151568
v 2.862676 -0.312204 0.017103
v 2.669942 -0.267444 -0.151568
v 2.657026 -0.471110 0.009534
v 2.862676 -0.312204 0.017103
v 2.657026 -0.471110 0.009534
v 2.849761 -0.515869 0.178205
vt 0.442317 0.783491
vt 0.447046 0.787397
vt 0.416744 0.823981
vt 0.447046 0.787397
vt 0.422987 0.829136
vt 0.416744 0.823981
vt 0.552750 0.764635
vt 0.548877 0.769531
vt 0.511011 0.728817
vt 0.548877 0.769531
vt 0.505899 0.735279
vt 0.511011 0.728817
vt 0.753616 0.992398
vt 0.748576 0.996094
vt 0.729457 0.958146
vt 0.748576 0.996094
vt 0.722804 0.963024
vt 0.729457 0.958146
vt 0.145060 0.992188
vt 0.140331 0.996094
vt 0.119289 0.949220
vt 0.140331 0.996094
vt 0.113046 0.954376
vt 0.119289 0.949220
vt 0.566373 0.769531
vt 0.562500 0.764635
vt 0.608091 0.736078
vt 0.562500 0.764635
vt 0.602979 0.729615
vt 0.608091 0.736078
vt 0.771488 0.989998
vt 0.766448 0.986302
vt 0.798674 0.954978
vt 0.766448 0.986302
vt 0.792021 0.950099
vt 0.798674 0.954978
vt 0.416744 0.823981
vt 0.422987 0.829136
vt 0.391171 0.864471
vt 0.422987 0.829136
vt 0.398928 0.870876
vt 0.391171 0.864471
vt 0.511011 0.728817
vt 0.505899 0.735279
vt 0.469271 0.692998
vt 0.505899 0.735279
vt 0.462920 0.701027
vt 0.469271 0.692998
vt 0.729457 0.958146
vt 0.722804 0.963024
vt 0.705299 0.923894
vt 0.722804 0.963024
vt 0.697033 0.929955
vt 0.705299 0.923894
vt 0.119289 0.949220
vt 0.113046 0.954376
vt 0.093517 0.906252
vt 0.113046 0.954376
vt 0.085761 0.912657
vt 0.093517 0.906252
vt 0.608091 0.736078
vt 0.602979 0.729615
vt 0.649809 0.702625
vt 0.602979 0.729615
vt 0.643458 0.694595
vt 0.649809 0.702625
vt 0.798674 0.954978
vt 0.792021 0.950099
vt 0.825859 0.919958
vt 0.792021 0.950099
vt 0.817594 0.913897
vt 0.825859 0.919958
vt 0.391171 0.864471
vt 0.398928 0.870876
vt 0.365599 0.904960
vt 0.398928 0.870876
vt 0.374869 0.912615
vt 0.365599 0.904960
vt 0.469271 0.692998
vt 0.462920 0.701027
vt 0.427532 0.657179
vt 0.462920 0.701027
vt 0.419942 0.666775
vt 0.427532 0.657179
vt 0.705299 0.923894
vt 0.697033 0.929955
vt 0.681140 0.889642
vt 0.697033 0.929955
vt 0.671262 0.896886
vt 0.681140 0.889642
vt 0.093517 0.906252
vt 0.085761 0.912657
vt 0.067746 0.863284
vt 0.085761 0.912657
vt 0.058476 0.870939
vt 0.067746 0.863284
vt 0.649809 0.702625
vt 0.643458 0.694595
vt 0.691527 0.669171
vt 0.643458 0.694595
vt 0.683937 0.659575
vt 0.691527 0.669171
vt 0.825859 0.919958
vt 0.817594 0.913897
vt 0.853045 0.884938
vt 0.817594 0.913897
vt 0.843166 0.877694
vt 0.853045 0.884938
vt 0.365599 0.904960
vt 0.374869 0.912615
vt 0.340026 0.945450
vt 0.374869 0.912615
vt 0.350809 0.954354
vt 0.340026 0.945450
vt 0.427532 0.657179
vt 0.419942 0.666775
vt 0.385793 0.621361
vt 0.419942 0.666775
vt 0.376963 0.632523
vt 0.385793 0.621361
vt 0.681140 0.889642
vt 0.671262 0.896886
vt 0.656981 0.855390
vt 0.671262 0.896886
vt 0.645490 0.863816
vt 0.656981 0.855390
vt 0.067746 0.863284
vt 0.058476 0.870939
vt 0.041975 0.820316
vt 0.058476 0.870939
vt 0.031191 0.829221
vt 0.041975 0.820316
vt 0.691527 0.669171
vt 0.683937 0.659575
vt 0.733245 0.635718
vt 0.683937 0.659575
vt 0.724416 0.624555
vt 0.733245 0.635718
vt 0.853045 0.884938
vt 0.843166 0.877694
vt 0.880230 0.849918
vt 0.843166 0.877694
vt 0.868739 0.841491
vt 0.880230 0.849918
vt 0.340026 0.945450
vt 0.350809 0.954354
vt 0.314453 0.985939
vt 0.350809 0.954354
vt 0.326750 0.996094
vt 0.314453 0.985939
vt 0.385793 0.621361
vt 0.376963 0.632523
vt 0.344053 0.585542
vt 0.376963 0.632523
vt 0.333984 0.598271
vt 0.344053 0.585542
vt 0.656981 0.855390
vt 0.645490 0.863816
vt 0.632823 0.821138
vt 0.645490 0.863816
vt 0.619719 0.830747
vt 0.632823 0.821138
vt 0.041975 0.820316
vt 0.031191 0.829221
vt 0.016203 0.777348
vt 0.031191 0.829221
vt 0.003906 0.787503
vt 0.016203 0.777348
vt 0.733245 0.635718
vt 0.724416 0.624555
vt 0.774964 0.602264
vt 0.724416 0.624555
vt 0.764895 0.589535
vt 0.774964 0.602264
vt 0.880230 0.849918
vt 0.868739 0.841491
vt 0.907416 0.814898
vt 0.868739 0.841491
vt 0.894312 0.805289
vt 0.907416 0.814898
vt 0.766759 0.991198
vt 0.761719 0.987502
vt 0.766448 0.986302
vt 0.766759 0.991198
vt 0.762029 0.992398
vt 0.761719 0.987502
vt 0.766759 0.991198
vt 0.767069 0.996094
vt 0.762029 0.992398
vt 0.766759 0.991198
vt 0.771799 0.994894
vt 0.767069 0.996094
vt 0.766759 0.991198
vt 0.771488 0.989998
vt 0.771799 0.994894
vt 0.766759 0.991198
vt 0.766448 0.986302
vt 0.771488 0.989998
vt 0.620526 0.818018
vt 0.621333 0.805289
vt 0.633630 0.808408
vt 0.620526 0.818018
vt 0.633630 0.808408
vt 0.632823 0.821138
vt 0.620526 0.818018
vt 0.632823 0.821138
vt 0.619719 0.830747
vt 0.620526 0.818018
vt 0.619719 0.830747
vt 0.607422 0.827627
vt 0.620526 0.818018
vt 0.607422 0.827627
vt 0.608229 0.814898
vt 0.620526 0.818018
vt 0.608229 0.814898
vt 0.621333 0.805289
vt 0.155347 0.759740
vt 0.150404 0.763559
vt 0.127630 0.724118
vt 0.150404 0.763559
vt 0.121104 0.729160
vt 0.127630 0.724118
vt 0.434256 0.567370
vt 0.430383 0.572266
vt 0.394731 0.532970
vt 0.430383 0.572266
vt 0.389619 0.539433
vt 0.394731 0.532970
vt 0.158930 0.996094
vt 0.154297 0.992039
vt 0.188329 0.955330
vt 0.154297 0.992039
vt 0.182213 0.949977
vt 0.188329 0.955330
vt 0.172912 0.769531
vt 0.167969 0.765711
vt 0.200829 0.737043
vt 0.167969 0.765711
vt 0.194303 0.732001
vt 0.200829 0.737043
vt 0.007779 0.572266
vt 0.003906 0.567370
vt 0.049899 0.538555
vt 0.003906 0.567370
vt 0.044787 0.532092
vt 0.049899 0.538555
vt 0.455078 0.791691
vt 0.459711 0.787636
vt 0.481313 0.832571
vt 0.459711 0.787636
vt 0.487429 0.827219
vt 0.481313 0.832571
vt 0.127630 0.724118
vt 0.121104 0.729160
vt 0.099912 0.688496
vt 0.121104 0.729160
vt 0.091805 0.694761
vt 0.099912 0.688496
vt 0.394731 0.532970
vt 0.389619 0.539433
vt 0.355206 0.498571
vt 0.389619 0.539433
vt 0.348855 0.506600
vt 0.355206 0.498571
vt 0.188329 0.955330
vt 0.182213 0.949977
vt 0.217728 0.914565
vt 0.182213 0.949977
vt 0.210129 0.907916
vt 0.217728 0.914565
vt 0.200829 0.737043
vt 0.194303 0.732001
vt 0.228745 0.704554
vt 0.194303 0.732001
vt 0.220637 0.698290
vt 0.228745 0.704554
vt 0.049899 0.538555
vt 0.044787 0.532092
vt 0.092019 0.504844
vt 0.044787 0.532092
vt 0.085668 0.496815
vt 0.092019 0.504844
vt 0.481313 0.832571
vt 0.487429 0.827219
vt 0.507548 0.873452
vt 0.487429 0.827219
vt 0.515146 0.866802
vt 0.507548 0.873452
vt 0.099912 0.688496
vt 0.091805 0.694761
vt 0.072194 0.652874
vt 0.091805 0.694761
vt 0.062505 0.660361
vt 0.072194 0.652874
vt 0.355206 0.498571
vt 0.348855 0.506600
vt 0.315681 0.464172
vt 0.348855 0.506600
vt 0.308091 0.473767
vt 0.315681 0.464172
vt 0.217728 0.914565
vt 0.210129 0.907916
vt 0.247126 0.873801
vt 0.210129 0.907916
vt 0.238046 0.865854
vt 0.247126 0.873801
vt 0.228745 0.704554
vt 0.220637 0.698290
vt 0.256661 0.672066
vt 0.220637 0.698290
vt 0.246972 0.664579
vt 0.256661 0.672066
vt 0.092019 0.504844
vt 0.085668 0.496815
vt 0.134139 0.471133
vt 0.085668 0.496815
vt 0.126548 0.461537
vt 0.134139 0.471133
vt 0.507548 0.873452
vt 0.515146 0.866802
vt 0.533783 0.914332
vt 0.515146 0.866802
vt 0.542864 0.906385
vt 0.533783 0.914332
vt 0.072194 0.652874
vt 0.062505 0.660361
vt 0.044477 0.617253
vt 0.062505 0.660361
vt 0.033206 0.625962
vt 0.044477 0.617253
vt 0.315681 0.464172
vt 0.308091 0.473767
vt 0.276156 0.429772
vt 0.308091 0.473767
vt 0.267327 0.440935
vt 0.276156 0.429772
vt 0.247126 0.873801
vt 0.238046 0.865854
vt 0.276525 0.833037
vt 0.238046 0.865854
vt 0.265962 0.823793
vt 0.276525 0.833037
vt 0.256661 0.672066
vt 0.246972 0.664579
vt 0.284577 0.639577
vt 0.246972 0.664579
vt 0.273306 0.630868
vt 0.284577 0.639577
vt 0.134139 0.471133
vt 0.126548 0.461537
vt 0.176258 0.437422
vt 0.126548 0.461537
vt 0.167429 0.426260
vt 0.176258 0.437422
vt 0.533783 0.914332
vt 0.542864 0.906385
vt 0.560018 0.955213
vt 0.542864 0.906385
vt 0.570581 0.945969
vt 0.560018 0.955213
vt 0.044477 0.617253
vt 0.033206 0.625962
vt 0.016759 0.581631
vt 0.033206 0.625962
vt 0.003906 0.591562
vt 0.016759 0.581631
vt 0.276156 0.429772
vt 0.267327 0.440935
vt 0.236631 0.395373
vt 0.267327 0.440935
vt 0.226563 0.408102
vt 0.236631 0.395373
vt 0.276525 0.833037
vt 0.265962 0.823793
vt 0.305924 0.792273
vt 0.265962 0.823793
vt 0.293878 0.781731
vt 0.305924 0.792273
vt 0.284577 0.639577
vt 0.273306 0.630868
vt 0.312494 0.607089
vt 0.273306 0.630868
vt 0.299640 0.597157
vt 0.312494 0.607089
vt 0.176258 0.437422
vt 0.167429 0.426260
vt 0.218378 0.403712
vt 0.167429 0.426260
vt 0.208309 0.390983
vt 0.218378 0.403712
vt 0.560018 0.955213
vt 0.570581 0.945969
vt 0.586253 0.996094
vt 0.570581 0.945969
vt 0.598299 0.985552
vt 0.586253 0.996094
vt 0.155037 0.764635
vt 0.150404 0.763559
vt 0.155347 0.759740
vt 0.155037 0.764635
vt 0.150093 0.768455
vt 0.150404 0.763559
vt 0.155037 0.764635
vt 0.154726 0.769531
vt 0.150093 0.768455
vt 0.155037 0.764635
vt 0.159670 0.765711
vt 0.154726 0.769531
vt 0.155037 0.764635
vt 0.159980 0.760816
vt 0.159670 0.765711
vt 0.155037 0.764635
vt 0.155347 0.759740
vt 0.159980 0.760816
vt 0.311686 0.594360
vt 0.310879 0.581631
vt 0.323732 0.591562
vt 0.311686 0.594360
vt 0.323732 0.591562
vt 0.324539 0.604291
vt 0.311686 0.594360
vt 0.324539 0.604291
vt 0.312494 0.607089
vt 0.311686 0.594360
vt 0.312494 0.607089
vt 0.299640 0.597157
vt 0.311686 0.594360
vt 0.299640 0.597157
vt 0.298833 0.584428
vt 0.311686 0.594360
vt 0.298833 0.584428
vt 0.310879 0.581631
f 1/1 2/2 3/3
f 4/4 5/5 6/6
f 7/7 8/8 9/9
f 10/10 11/11 12/12
f 13/13 14/14 15/15
f 16/16 17/17 18/18
f 19/19 20/20 21/21
f 22/22 23/23 24/24
f 25/25 26/26 27/27
f 28/28 29/29 30/30
f 31/31 32/32 33/33
f 34/34 35/35 36/36
f 37/37 38/38 39/39
f 40/40 41/41 42/42
f 43/43 44/44 45/45
f 46/46 47/47 48/48
f 49/49 50/50 51/51
f 52/52 53/53 54/54
f 55/55 56/56 57/57
f 58/58 59/59 60/60
f 61/61 62/62 63/63
f 64/64 65/65 66/66
f 67/67 68/68 69/69
f 70/70 71/71 72/72
f 73/73 74/74 75/75
f 76/76 77/77 78/78
f 79/79 80/80 81/81
f 82/82 83/83 84/84
f 85/85 86/86 87/87
f 88/88 89/89 90/90
f 91/91 92/92 93/93
f 94/94 95/95 96/96
f 97/97 98/98 99/99
f 100/100 101/101 102/102
f 103/103 104/104 105/105
f 106/106 107/107 108/108
f 109/109 110/110 111/111
f 112/112 113/113 114/114
f 115/115 116/116 117/117
f 118/118 119/119 120/120
f 121/121 122/122 123/123
f 124/124 125/125 126/126
f 127/127 128/128 129/129
f 130/130 131/131 132/132
f 133/133 134/134 135/135
f 136/136 137/137 138/138
f 139/139 140/140 141/141
f 142/142 143/143 144/144
f 145/145 146/146 147/147
f 148/148 149/149 150/150
f 151/151 152/152 153/153
f 154/154 155/155 156/156
f 157/157 158/158 159/159
f 160/160 161/161 162/162
f 163/163 164/164 165/165
f 166/166 167/167 168/168
f 169/169 170/170 171/171
f 172/172 173/173 174/174
f 175/175 176/176 177/177
f 178/178 179/179 180/180
f 181/181 182/182 183/183
f 184/184 185/185 186/186
f 187/187 188/188 189/189
f 190/190 191/191 192/192
f 193/193 194/194 195/195
f 196/196 197/197 198/198
f 199/199 200/200 201/201
f 202/202 203/203 204/204
f 205/205 206/206 207/207
f 208/208 209/209 210/210
f 211/211 212/212 213/213
f 214/214 215/215 216/216
f 217/217 218/218 219/219
f 220/220 221/221 222/222
f 223/223 224/224 225/225
f 226/226 227/227 228/228
f 229/229 230/230 231/231
f 232/232 233/233 234/234
f 235/235 236/236 237/237
f 238/238 239/239 240/240
f 241/241 242/242 243/243
f 244/244 245/245 246/246
f 247/247 248/248 249/249
f 250/250 251/251 252/252
f 253/253 254/254 255/255
f 256/256 257/257 258/258
f 259/259 260/260 261/261
f 262/262 263/263 264/264
f 265/265 266/266 267/267
f 268/268 269/269 270/270
f 271/271 272/272 273/273
f 274/274 275/275 276/276
f 277/277 278/278 279/279
f 280/280 281/281 282/282
f 283/283 284/284 285/285
f 286/286 287/287 288/288
f 289/289 290/290 291/291
f 292/292 293/293 294/294
f 295/295 296/296 297/297
f 298/298 299/299 300/300
f 301/301 302/302 303/303
f 304/304 305/305 306/306
f 307/307 308/308 309/309
f 310/310 311/311 312/312
f 313/313 314/314 315/315
f 316/316 317/317 318/318
f 319/319 320/320 321/321
f 322/322 323/323 324/324
f 325/325 326/326 327/327
f 328/328 329/329 330/330
f 331/331 332/332 333/333
f 334/334 335/335 336/336
f 337/337 338/338 339/339
f 340/340 341/341 342/342
f 343/343 344/344 345/345
f 346/346 347/347 348/348
f 349/349 350/350 351/351
f 352/352 353/353 354/354
f 355/355 356/356 357/357
f 358/358 359/359 360/360
f 361/361 362/362 363/363
f 364/364 365/365 366/366
f 367/367 368/368 369/369
f 370/370 371/371 372/372
f 373/373 374/374 375/375
f 376/376 377/377 378/378
f 379/379 380/380 381/381
f 382/382 383/383 384/384
f 385/385 386/386 387/387
f 388/388 389/389 390/390
f 391/391 392/392 393/393
f 394/394 395/395 396/396
f 397/397 398/398 399/399
f 400/400 401/401 402/402
f 403/403 404/404 405/405
f 406/406 407/407 408/408
f 409/409 410/410 411/411
f 412/412 413/413 414/414
f 415/415 416/416 417/417
f 418/418 419/419 420/420
f 421/421 422/422 423/423
f 424/424 425/425 426/426
f 427/427 428/428 429/429
f 430/430 431/431 432/432
