# Blender 5.1.1
# www.blender.org
mtllib elevator_car.mtl
o Floor_Base
v -4.000000 -0.250000 4.000000
v -4.000000 -0.250000 4.000000
v -4.000000 -0.250000 4.000000
v 4.000000 -0.250000 4.000000
v 4.000000 -0.250000 4.000000
v 4.000000 -0.250000 4.000000
v 4.000000 -0.250000 -4.000000
v 4.000000 -0.250000 -4.000000
v 4.000000 -0.250000 -4.000000
v -4.000000 -0.250000 -4.000000
v -4.000000 -0.250000 -4.000000
v -4.000000 -0.250000 -4.000000
v -4.000000 0.000000 4.000000
v -4.000000 0.000000 4.000000
v -4.000000 0.000000 4.000000
v 4.000000 0.000000 4.000000
v 4.000000 0.000000 4.000000
v 4.000000 0.000000 4.000000
v 4.000000 0.000000 -4.000000
v 4.000000 0.000000 -4.000000
v 4.000000 0.000000 -4.000000
v -4.000000 0.000000 -4.000000
v -4.000000 0.000000 -4.000000
v -4.000000 0.000000 -4.000000
vn -0.0000 1.0000 -0.0000
vn -0.0000 -1.0000 -0.0000
vn -0.0000 -0.0000 -1.0000
vn -1.0000 -0.0000 -0.0000
vn -0.0000 -0.0000 1.0000
vn 1.0000 -0.0000 -0.0000
vt -4.000000 -4.000000
vt 4.000000 -4.000000
vt 4.000000 4.000000
vt -4.000000 4.000000
vt -4.000000 -0.250000
vt -4.000000 0.000000
vt 4.000000 0.000000
vt 4.000000 -0.250000
s 0
usemtl Tile_deck
f 2/1/1 5/2/1 8/3/1
f 2/1/1 8/3/1 11/4/1
f 14/1/2 23/4/2 20/3/2
f 14/1/2 20/3/2 17/2/2
f 1/5/3 13/6/3 16/7/3
f 1/5/3 16/7/3 4/8/3
f 6/5/4 18/6/4 21/7/4
f 6/5/4 21/7/4 9/8/4
f 7/8/5 19/7/5 22/6/5
f 7/8/5 22/6/5 10/5/5
f 12/8/6 24/7/6 15/6/6
f 12/8/6 15/6/6 3/5/6
o Floor_Frame
v -3.906250 -0.031250 3.906250
v -3.906250 -0.031250 3.906250
v -3.906250 -0.031250 3.906250
v 3.906250 -0.031250 3.906250
v 3.906250 -0.031250 3.906250
v 3.906250 -0.031250 3.906250
v 3.906250 -0.031250 -3.906250
v 3.906250 -0.031250 -3.906250
v 3.906250 -0.031250 -3.906250
v -3.906250 -0.031250 -3.906250
v -3.906250 -0.031250 -3.906250
v -3.906250 -0.031250 -3.906250
v -3.906250 0.031250 3.906250
v -3.906250 0.031250 3.906250
v -3.906250 0.031250 3.906250
v 3.906250 0.031250 3.906250
v 3.906250 0.031250 3.906250
v 3.906250 0.031250 3.906250
v 3.906250 0.031250 -3.906250
v 3.906250 0.031250 -3.906250
v 3.906250 0.031250 -3.906250
v -3.906250 0.031250 -3.906250
v -3.906250 0.031250 -3.906250
v -3.906250 0.031250 -3.906250
vn -0.0000 1.0000 -0.0000
vn -0.0000 -1.0000 -0.0000
vn -0.0000 -0.0000 -1.0000
vn -1.0000 -0.0000 -0.0000
vn -0.0000 -0.0000 1.0000
vn 1.0000 -0.0000 -0.0000
vt -3.906250 -3.906250
vt 3.906250 -3.906250
vt 3.906250 3.906250
vt -3.906250 3.906250
vt -3.906250 -0.031250
vt -3.906250 0.031250
vt 3.906250 0.031250
vt 3.906250 -0.031250
s 0
usemtl Tile_deck
f 26/9/7 29/10/7 32/11/7
f 26/9/7 32/11/7 35/12/7
f 38/9/8 47/12/8 44/11/8
f 38/9/8 44/11/8 41/10/8
f 25/13/9 37/14/9 40/15/9
f 25/13/9 40/15/9 28/16/9
f 30/13/10 42/14/10 45/15/10
f 30/13/10 45/15/10 33/16/10
f 31/16/11 43/15/11 46/14/11
f 31/16/11 46/14/11 34/13/11
f 36/16/12 48/15/12 39/14/12
f 36/16/12 39/14/12 27/13/12
o Ceiling
v -4.000000 4.031250 4.000000
v -4.000000 4.031250 4.000000
v -4.000000 4.031250 4.000000
v 4.000000 4.031250 4.000000
v 4.000000 4.031250 4.000000
v 4.000000 4.031250 4.000000
v 4.000000 4.031250 -4.000000
v 4.000000 4.031250 -4.000000
v 4.000000 4.031250 -4.000000
v -4.000000 4.031250 -4.000000
v -4.000000 4.031250 -4.000000
v -4.000000 4.031250 -4.000000
v -4.000000 4.218750 4.000000
v -4.000000 4.218750 4.000000
v -4.000000 4.218750 4.000000
v 4.000000 4.218750 4.000000
v 4.000000 4.218750 4.000000
v 4.000000 4.218750 4.000000
v 4.000000 4.218750 -4.000000
v 4.000000 4.218750 -4.000000
v 4.000000 4.218750 -4.000000
v -4.000000 4.218750 -4.000000
v -4.000000 4.218750 -4.000000
v -4.000000 4.218750 -4.000000
vn -0.0000 1.0000 -0.0000
vn -0.0000 -1.0000 -0.0000
vn -0.0000 -0.0000 -1.0000
vn -1.0000 -0.0000 -0.0000
vn -0.0000 -0.0000 1.0000
vn 1.0000 -0.0000 -0.0000
vt -4.000000 -4.000000
vt 4.000000 -4.000000
vt 4.000000 4.000000
vt -4.000000 4.000000
vt -4.000000 4.031250
vt -4.000000 4.218750
vt 4.000000 4.218750
vt 4.000000 4.031250
s 0
usemtl Tile_metal
f 50/17/13 53/18/13 56/19/13
f 50/17/13 56/19/13 59/20/13
f 62/17/14 71/20/14 68/19/14
f 62/17/14 68/19/14 65/18/14
f 49/21/15 61/22/15 64/23/15
f 49/21/15 64/23/15 52/24/15
f 54/21/16 66/22/16 69/23/16
f 54/21/16 69/23/16 57/24/16
f 55/24/17 67/23/17 70/22/17
f 55/24/17 70/22/17 58/21/17
f 60/24/18 72/23/18 63/22/18
f 60/24/18 63/22/18 51/21/18
o Ceiling_Coffer
v -1.500000 3.812500 1.500000
v -1.500000 3.812500 1.500000
v -1.500000 3.812500 1.500000
v 1.500000 3.812500 1.500000
v 1.500000 3.812500 1.500000
v 1.500000 3.812500 1.500000
v 1.500000 3.812500 -1.500000
v 1.500000 3.812500 -1.500000
v 1.500000 3.812500 -1.500000
v -1.500000 3.812500 -1.500000
v -1.500000 3.812500 -1.500000
v -1.500000 3.812500 -1.500000
v -1.500000 3.937500 1.500000
v -1.500000 3.937500 1.500000
v -1.500000 3.937500 1.500000
v 1.500000 3.937500 1.500000
v 1.500000 3.937500 1.500000
v 1.500000 3.937500 1.500000
v 1.500000 3.937500 -1.500000
v 1.500000 3.937500 -1.500000
v 1.500000 3.937500 -1.500000
v -1.500000 3.937500 -1.500000
v -1.500000 3.937500 -1.500000
v -1.500000 3.937500 -1.500000
vn -0.0000 1.0000 -0.0000
vn -0.0000 -1.0000 -0.0000
vn -0.0000 -0.0000 -1.0000
vn -1.0000 -0.0000 -0.0000
vn -0.0000 -0.0000 1.0000
vn 1.0000 -0.0000 -0.0000
vt -1.500000 -1.500000
vt 1.500000 -1.500000
vt 1.500000 1.500000
vt -1.500000 1.500000
vt -1.500000 3.812500
vt -1.500000 3.937500
vt 1.500000 3.937500
vt 1.500000 3.812500
s 0
usemtl Tile_metal
f 74/25/19 77/26/19 80/27/19
f 74/25/19 80/27/19 83/28/19
f 86/25/20 95/28/20 92/27/20
f 86/25/20 92/27/20 89/26/20
f 73/29/21 85/30/21 88/31/21
f 73/29/21 88/31/21 76/32/21
f 78/29/22 90/30/22 93/31/22
f 78/29/22 93/31/22 81/32/22
f 79/32/23 91/31/23 94/30/23
f 79/32/23 94/30/23 82/29/23
f 84/32/24 96/31/24 87/30/24
f 84/32/24 87/30/24 75/29/24
o Ceiling_Light
v -1.187500 3.781250 1.187500
v -1.187500 3.781250 1.187500
v -1.187500 3.781250 1.187500
v 1.187500 3.781250 1.187500
v 1.187500 3.781250 1.187500
v 1.187500 3.781250 1.187500
v 1.187500 3.781250 -1.187500
v 1.187500 3.781250 -1.187500
v 1.187500 3.781250 -1.187500
v -1.187500 3.781250 -1.187500
v -1.187500 3.781250 -1.187500
v -1.187500 3.781250 -1.187500
v -1.187500 3.843750 1.187500
v -1.187500 3.843750 1.187500
v -1.187500 3.843750 1.187500
v 1.187500 3.843750 1.187500
v 1.187500 3.843750 1.187500
v 1.187500 3.843750 1.187500
v 1.187500 3.843750 -1.187500
v 1.187500 3.843750 -1.187500
v 1.187500 3.843750 -1.187500
v -1.187500 3.843750 -1.187500
v -1.187500 3.843750 -1.187500
v -1.187500 3.843750 -1.187500
vn -0.0000 1.0000 -0.0000
vn -0.0000 -1.0000 -0.0000
vn -0.0000 -0.0000 -1.0000
vn -1.0000 -0.0000 -0.0000
vn -0.0000 -0.0000 1.0000
vn 1.0000 -0.0000 -0.0000
vt -1.187500 -1.187500
vt 1.187500 -1.187500
vt 1.187500 1.187500
vt -1.187500 1.187500
vt -1.187500 3.781250
vt -1.187500 3.843750
vt 1.187500 3.843750
vt 1.187500 3.781250
s 0
usemtl Tile_light
f 98/33/25 101/34/25 104/35/25
f 98/33/25 104/35/25 107/36/25
f 110/33/26 119/36/26 116/35/26
f 110/33/26 116/35/26 113/34/26
f 97/37/27 109/38/27 112/39/27
f 97/37/27 112/39/27 100/40/27
f 102/37/28 114/38/28 117/39/28
f 102/37/28 117/39/28 105/40/28
f 103/40/29 115/39/29 118/38/29
f 103/40/29 118/38/29 106/37/29
f 108/40/30 120/39/30 111/38/30
f 108/40/30 111/38/30 99/37/30
o Wall_W_back
v -4.125000 0.000000 4.000000
v -4.125000 0.000000 4.000000
v -4.125000 0.000000 4.000000
v -3.875000 0.000000 4.000000
v -3.875000 0.000000 4.000000
v -3.875000 0.000000 4.000000
v -3.875000 0.000000 -4.000000
v -3.875000 0.000000 -4.000000
v -3.875000 0.000000 -4.000000
v -4.125000 0.000000 -4.000000
v -4.125000 0.000000 -4.000000
v -4.125000 0.000000 -4.000000
v -4.125000 4.000000 4.000000
v -4.125000 4.000000 4.000000
v -4.125000 4.000000 4.000000
v -3.875000 4.000000 4.000000
v -3.875000 4.000000 4.000000
v -3.875000 4.000000 4.000000
v -3.875000 4.000000 -4.000000
v -3.875000 4.000000 -4.000000
v -3.875000 4.000000 -4.000000
v -4.125000 4.000000 -4.000000
v -4.125000 4.000000 -4.000000
v -4.125000 4.000000 -4.000000
vn -0.0000 1.0000 -0.0000
vn -0.0000 -1.0000 -0.0000
vn -0.0000 -0.0000 -1.0000
vn -1.0000 -0.0000 -0.0000
vn -0.0000 -0.0000 1.0000
vn 1.0000 -0.0000 -0.0000
vt -4.125000 -4.000000
vt -3.875000 -4.000000
vt -3.875000 4.000000
vt -4.125000 4.000000
vt -4.125000 0.000000
vt -3.875000 0.000000
vt -4.000000 0.000000
vt -4.000000 4.000000
vt 4.000000 4.000000
vt 4.000000 0.000000
s 0
usemtl Tile_panel
f 122/41/31 125/42/31 128/43/31
f 122/41/31 128/43/31 131/44/31
f 134/41/32 143/44/32 140/43/32
f 134/41/32 140/43/32 137/42/32
f 121/45/33 133/44/33 136/43/33
f 121/45/33 136/43/33 124/46/33
f 126/47/34 138/48/34 141/49/34
f 126/47/34 141/49/34 129/50/34
f 127/46/35 139/43/35 142/44/35
f 127/46/35 142/44/35 130/45/35
f 132/50/36 144/49/36 135/48/36
f 132/50/36 135/48/36 123/47/36
o Wall_S_back
v -4.000000 0.000000 4.125000
v -4.000000 0.000000 4.125000
v -4.000000 0.000000 4.125000
v 4.000000 0.000000 4.125000
v 4.000000 0.000000 4.125000
v 4.000000 0.000000 4.125000
v 4.000000 0.000000 3.875000
v 4.000000 0.000000 3.875000
v 4.000000 0.000000 3.875000
v -4.000000 0.000000 3.875000
v -4.000000 0.000000 3.875000
v -4.000000 0.000000 3.875000
v -4.000000 4.000000 4.125000
v -4.000000 4.000000 4.125000
v -4.000000 4.000000 4.125000
v 4.000000 4.000000 4.125000
v 4.000000 4.000000 4.125000
v 4.000000 4.000000 4.125000
v 4.000000 4.000000 3.875000
v 4.000000 4.000000 3.875000
v 4.000000 4.000000 3.875000
v -4.000000 4.000000 3.875000
v -4.000000 4.000000 3.875000
v -4.000000 4.000000 3.875000
vn -0.0000 1.0000 -0.0000
vn -0.0000 -1.0000 -0.0000
vn -0.0000 -0.0000 -1.0000
vn -1.0000 -0.0000 -0.0000
vn -0.0000 -0.0000 1.0000
vn 1.0000 -0.0000 -0.0000
vt -4.000000 -4.125000
vt 4.000000 -4.125000
vt 4.000000 -3.875000
vt -4.000000 -3.875000
vt -4.000000 0.000000
vt -4.000000 4.000000
vt 4.000000 4.000000
vt 4.000000 0.000000
vt -4.125000 0.000000
vt -4.125000 4.000000
vt -3.875000 4.000000
vt -3.875000 0.000000
s 0
usemtl Tile_panel
f 146/51/37 149/52/37 152/53/37
f 146/51/37 152/53/37 155/54/37
f 158/51/38 167/54/38 164/53/38
f 158/51/38 164/53/38 161/52/38
f 145/55/39 157/56/39 160/57/39
f 145/55/39 160/57/39 148/58/39
f 150/59/40 162/60/40 165/61/40
f 150/59/40 165/61/40 153/62/40
f 151/58/41 163/57/41 166/56/41
f 151/58/41 166/56/41 154/55/41
f 156/62/42 168/61/42 159/60/42
f 156/62/42 159/60/42 147/59/42
o Wall_N_back
v -4.000000 0.000000 -3.875000
v -4.000000 0.000000 -3.875000
v -4.000000 0.000000 -3.875000
v 4.000000 0.000000 -3.875000
v 4.000000 0.000000 -3.875000
v 4.000000 0.000000 -3.875000
v 4.000000 0.000000 -4.125000
v 4.000000 0.000000 -4.125000
v 4.000000 0.000000 -4.125000
v -4.000000 0.000000 -4.125000
v -4.000000 0.000000 -4.125000
v -4.000000 0.000000 -4.125000
v -4.000000 4.000000 -3.875000
v -4.000000 4.000000 -3.875000
v -4.000000 4.000000 -3.875000
v 4.000000 4.000000 -3.875000
v 4.000000 4.000000 -3.875000
v 4.000000 4.000000 -3.875000
v 4.000000 4.000000 -4.125000
v 4.000000 4.000000 -4.125000
v 4.000000 4.000000 -4.125000
v -4.000000 4.000000 -4.125000
v -4.000000 4.000000 -4.125000
v -4.000000 4.000000 -4.125000
vn -0.0000 1.0000 -0.0000
vn -0.0000 -1.0000 -0.0000
vn -0.0000 -0.0000 -1.0000
vn -1.0000 -0.0000 -0.0000
vn -0.0000 -0.0000 1.0000
vn 1.0000 -0.0000 -0.0000
vt -4.000000 3.875000
vt 4.000000 3.875000
vt 4.000000 4.125000
vt -4.000000 4.125000
vt -4.000000 0.000000
vt -4.000000 4.000000
vt 4.000000 4.000000
vt 4.000000 0.000000
vt 3.875000 0.000000
vt 3.875000 4.000000
vt 4.125000 4.000000
vt 4.125000 0.000000
s 0
usemtl Tile_panel
f 170/63/43 173/64/43 176/65/43
f 170/63/43 176/65/43 179/66/43
f 182/63/44 191/66/44 188/65/44
f 182/63/44 188/65/44 185/64/44
f 169/67/45 181/68/45 184/69/45
f 169/67/45 184/69/45 172/70/45
f 174/71/46 186/72/46 189/73/46
f 174/71/46 189/73/46 177/74/46
f 175/70/47 187/69/47 190/68/47
f 175/70/47 190/68/47 178/67/47
f 180/74/48 192/73/48 183/72/48
f 180/74/48 183/72/48 171/71/48
o Wall_E_a_back
v 3.875000 0.000000 -1.000000
v 3.875000 0.000000 -1.000000
v 3.875000 0.000000 -1.000000
v 4.125000 0.000000 -1.000000
v 4.125000 0.000000 -1.000000
v 4.125000 0.000000 -1.000000
v 4.125000 0.000000 -4.000000
v 4.125000 0.000000 -4.000000
v 4.125000 0.000000 -4.000000
v 3.875000 0.000000 -4.000000
v 3.875000 0.000000 -4.000000
v 3.875000 0.000000 -4.000000
v 3.875000 4.000000 -1.000000
v 3.875000 4.000000 -1.000000
v 3.875000 4.000000 -1.000000
v 4.125000 4.000000 -1.000000
v 4.125000 4.000000 -1.000000
v 4.125000 4.000000 -1.000000
v 4.125000 4.000000 -4.000000
v 4.125000 4.000000 -4.000000
v 4.125000 4.000000 -4.000000
v 3.875000 4.000000 -4.000000
v 3.875000 4.000000 -4.000000
v 3.875000 4.000000 -4.000000
vn -0.0000 1.0000 -0.0000
vn -0.0000 -1.0000 -0.0000
vn -0.0000 -0.0000 -1.0000
vn -1.0000 -0.0000 -0.0000
vn -0.0000 -0.0000 1.0000
vn 1.0000 -0.0000 -0.0000
vt 3.875000 1.000000
vt 4.125000 1.000000
vt 4.125000 4.000000
vt 3.875000 4.000000
vt 3.875000 0.000000
vt 4.125000 0.000000
vt 1.000000 0.000000
vt 1.000000 4.000000
vt 4.000000 4.000000
vt 4.000000 0.000000
s 0
usemtl Tile_panel
f 194/75/49 197/76/49 200/77/49
f 194/75/49 200/77/49 203/78/49
f 206/75/50 215/78/50 212/77/50
f 206/75/50 212/77/50 209/76/50
f 193/79/51 205/78/51 208/77/51
f 193/79/51 208/77/51 196/80/51
f 198/81/52 210/82/52 213/83/52
f 198/81/52 213/83/52 201/84/52
f 199/80/53 211/77/53 214/78/53
f 199/80/53 214/78/53 202/79/53
f 204/84/54 216/83/54 207/82/54
f 204/84/54 207/82/54 195/81/54
o Wall_E_b_back
v 3.875000 0.000000 4.000000
v 3.875000 0.000000 4.000000
v 3.875000 0.000000 4.000000
v 4.125000 0.000000 4.000000
v 4.125000 0.000000 4.000000
v 4.125000 0.000000 4.000000
v 4.125000 0.000000 1.000000
v 4.125000 0.000000 1.000000
v 4.125000 0.000000 1.000000
v 3.875000 0.000000 1.000000
v 3.875000 0.000000 1.000000
v 3.875000 0.000000 1.000000
v 3.875000 4.000000 4.000000
v 3.875000 4.000000 4.000000
v 3.875000 4.000000 4.000000
v 4.125000 4.000000 4.000000
v 4.125000 4.000000 4.000000
v 4.125000 4.000000 4.000000
v 4.125000 4.000000 1.000000
v 4.125000 4.000000 1.000000
v 4.125000 4.000000 1.000000
v 3.875000 4.000000 1.000000
v 3.875000 4.000000 1.000000
v 3.875000 4.000000 1.000000
vn -0.0000 1.0000 -0.0000
vn -0.0000 -1.0000 -0.0000
vn -0.0000 -0.0000 -1.0000
vn -1.0000 -0.0000 -0.0000
vn -0.0000 -0.0000 1.0000
vn 1.0000 -0.0000 -0.0000
vt 3.875000 -4.000000
vt 4.125000 -4.000000
vt 4.125000 -1.000000
vt 3.875000 -1.000000
vt 3.875000 0.000000
vt 3.875000 4.000000
vt 4.125000 4.000000
vt 4.125000 0.000000
vt -4.000000 0.000000
vt -4.000000 4.000000
vt -1.000000 4.000000
vt -1.000000 0.000000
s 0
usemtl Tile_panel
f 218/85/55 221/86/55 224/87/55
f 218/85/55 224/87/55 227/88/55
f 230/85/56 239/88/56 236/87/56
f 230/85/56 236/87/56 233/86/56
f 217/89/57 229/90/57 232/91/57
f 217/89/57 232/91/57 220/92/57
f 222/93/58 234/94/58 237/95/58
f 222/93/58 237/95/58 225/96/58
f 223/92/59 235/91/59 238/90/59
f 223/92/59 238/90/59 226/89/59
f 228/96/60 240/95/60 231/94/60
f 228/96/60 231/94/60 219/93/60
o Wall_E_lintel
v 3.875000 3.000000 1.000000
v 3.875000 3.000000 1.000000
v 3.875000 3.000000 1.000000
v 4.125000 3.000000 1.000000
v 4.125000 3.000000 1.000000
v 4.125000 3.000000 1.000000
v 4.125000 3.000000 -1.000000
v 4.125000 3.000000 -1.000000
v 4.125000 3.000000 -1.000000
v 3.875000 3.000000 -1.000000
v 3.875000 3.000000 -1.000000
v 3.875000 3.000000 -1.000000
v 3.875000 4.000000 1.000000
v 3.875000 4.000000 1.000000
v 3.875000 4.000000 1.000000
v 4.125000 4.000000 1.000000
v 4.125000 4.000000 1.000000
v 4.125000 4.000000 1.000000
v 4.125000 4.000000 -1.000000
v 4.125000 4.000000 -1.000000
v 4.125000 4.000000 -1.000000
v 3.875000 4.000000 -1.000000
v 3.875000 4.000000 -1.000000
v 3.875000 4.000000 -1.000000
vn -0.0000 1.0000 -0.0000
vn -0.0000 -1.0000 -0.0000
vn -0.0000 -0.0000 -1.0000
vn -1.0000 -0.0000 -0.0000
vn -0.0000 -0.0000 1.0000
vn 1.0000 -0.0000 -0.0000
vt 3.875000 -1.000000
vt 4.125000 -1.000000
vt 4.125000 1.000000
vt 3.875000 1.000000
vt 3.875000 3.000000
vt 3.875000 4.000000
vt 4.125000 4.000000
vt 4.125000 3.000000
vt -1.000000 3.000000
vt -1.000000 4.000000
vt 1.000000 4.000000
vt 1.000000 3.000000
s 0
usemtl Tile_metal
f 242/97/61 245/98/61 248/99/61
f 242/97/61 248/99/61 251/100/61
f 254/97/62 263/100/62 260/99/62
f 254/97/62 260/99/62 257/98/62
f 241/101/63 253/102/63 256/103/63
f 241/101/63 256/103/63 244/104/63
f 246/105/64 258/106/64 261/107/64
f 246/105/64 261/107/64 249/108/64
f 247/104/65 259/103/65 262/102/65
f 247/104/65 262/102/65 250/101/65
f 252/108/66 264/107/66 255/106/66
f 252/108/66 255/106/66 243/105/66
o DoorFrame_jambA
v 3.750000 0.000000 -1.031250
v 3.750000 0.000000 -1.031250
v 3.750000 0.000000 -1.031250
v 4.125000 0.000000 -1.031250
v 4.125000 0.000000 -1.031250
v 4.125000 0.000000 -1.031250
v 4.125000 0.000000 -1.218750
v 4.125000 0.000000 -1.218750
v 4.125000 0.000000 -1.218750
v 3.750000 0.000000 -1.218750
v 3.750000 0.000000 -1.218750
v 3.750000 0.000000 -1.218750
v 3.750000 3.000000 -1.031250
v 3.750000 3.000000 -1.031250
v 3.750000 3.000000 -1.031250
v 4.125000 3.000000 -1.031250
v 4.125000 3.000000 -1.031250
v 4.125000 3.000000 -1.031250
v 4.125000 3.000000 -1.218750
v 4.125000 3.000000 -1.218750
v 4.125000 3.000000 -1.218750
v 3.750000 3.000000 -1.218750
v 3.750000 3.000000 -1.218750
v 3.750000 3.000000 -1.218750
vn -0.0000 1.0000 -0.0000
vn -0.0000 -1.0000 -0.0000
vn -0.0000 -0.0000 -1.0000
vn -1.0000 -0.0000 -0.0000
vn -0.0000 -0.0000 1.0000
vn 1.0000 -0.0000 -0.0000
vt 3.750000 1.031250
vt 4.125000 1.031250
vt 4.125000 1.218750
vt 3.750000 1.218750
vt 3.750000 0.000000
vt 3.750000 3.000000
vt 4.125000 3.000000
vt 4.125000 0.000000
vt 1.031250 0.000000
vt 1.031250 3.000000
vt 1.218750 3.000000
vt 1.218750 0.000000
s 0
usemtl Tile_metal
f 266/109/67 269/110/67 272/111/67
f 266/109/67 272/111/67 275/112/67
f 278/109/68 287/112/68 284/111/68
f 278/109/68 284/111/68 281/110/68
f 265/113/69 277/114/69 280/115/69
f 265/113/69 280/115/69 268/116/69
f 270/117/70 282/118/70 285/119/70
f 270/117/70 285/119/70 273/120/70
f 271/116/71 283/115/71 286/114/71
f 271/116/71 286/114/71 274/113/71
f 276/120/72 288/119/72 279/118/72
f 276/120/72 279/118/72 267/117/72
o DoorFrame_jambB
v 3.750000 0.000000 1.218750
v 3.750000 0.000000 1.218750
v 3.750000 0.000000 1.218750
v 4.125000 0.000000 1.218750
v 4.125000 0.000000 1.218750
v 4.125000 0.000000 1.218750
v 4.125000 0.000000 1.031250
v 4.125000 0.000000 1.031250
v 4.125000 0.000000 1.031250
v 3.750000 0.000000 1.031250
v 3.750000 0.000000 1.031250
v 3.750000 0.000000 1.031250
v 3.750000 3.000000 1.218750
v 3.750000 3.000000 1.218750
v 3.750000 3.000000 1.218750
v 4.125000 3.000000 1.218750
v 4.125000 3.000000 1.218750
v 4.125000 3.000000 1.218750
v 4.125000 3.000000 1.031250
v 4.125000 3.000000 1.031250
v 4.125000 3.000000 1.031250
v 3.750000 3.000000 1.031250
v 3.750000 3.000000 1.031250
v 3.750000 3.000000 1.031250
vn -0.0000 1.0000 -0.0000
vn -0.0000 -1.0000 -0.0000
vn -0.0000 -0.0000 -1.0000
vn -1.0000 -0.0000 -0.0000
vn -0.0000 -0.0000 1.0000
vn 1.0000 -0.0000 -0.0000
vt 3.750000 -1.218750
vt 4.125000 -1.218750
vt 4.125000 -1.031250
vt 3.750000 -1.031250
vt 3.750000 0.000000
vt 3.750000 3.000000
vt 4.125000 3.000000
vt 4.125000 0.000000
vt -1.218750 0.000000
vt -1.218750 3.000000
vt -1.031250 3.000000
vt -1.031250 0.000000
s 0
usemtl Tile_metal
f 290/121/73 293/122/73 296/123/73
f 290/121/73 296/123/73 299/124/73
f 302/121/74 311/124/74 308/123/74
f 302/121/74 308/123/74 305/122/74
f 289/125/75 301/126/75 304/127/75
f 289/125/75 304/127/75 292/128/75
f 294/129/76 306/130/76 309/131/76
f 294/129/76 309/131/76 297/132/76
f 295/128/77 307/127/77 310/126/77
f 295/128/77 310/126/77 298/125/77
f 300/132/78 312/131/78 303/130/78
f 300/132/78 303/130/78 291/129/78
o DoorThreshold
v 3.718750 -0.031250 1.093750
v 3.718750 -0.031250 1.093750
v 3.718750 -0.031250 1.093750
v 4.031250 -0.031250 1.093750
v 4.031250 -0.031250 1.093750
v 4.031250 -0.031250 1.093750
v 4.031250 -0.031250 -1.093750
v 4.031250 -0.031250 -1.093750
v 4.031250 -0.031250 -1.093750
v 3.718750 -0.031250 -1.093750
v 3.718750 -0.031250 -1.093750
v 3.718750 -0.031250 -1.093750
v 3.718750 0.031250 1.093750
v 3.718750 0.031250 1.093750
v 3.718750 0.031250 1.093750
v 4.031250 0.031250 1.093750
v 4.031250 0.031250 1.093750
v 4.031250 0.031250 1.093750
v 4.031250 0.031250 -1.093750
v 4.031250 0.031250 -1.093750
v 4.031250 0.031250 -1.093750
v 3.718750 0.031250 -1.093750
v 3.718750 0.031250 -1.093750
v 3.718750 0.031250 -1.093750
vn -0.0000 1.0000 -0.0000
vn -0.0000 -1.0000 -0.0000
vn -0.0000 -0.0000 -1.0000
vn -1.0000 -0.0000 -0.0000
vn -0.0000 -0.0000 1.0000
vn 1.0000 -0.0000 -0.0000
vt 3.718750 -1.093750
vt 4.031250 -1.093750
vt 4.031250 1.093750
vt 3.718750 1.093750
vt 3.718750 -0.031250
vt 3.718750 0.031250
vt 4.031250 0.031250
vt 4.031250 -0.031250
vt -1.093750 -0.031250
vt -1.093750 0.031250
vt 1.093750 0.031250
vt 1.093750 -0.031250
s 0
usemtl Tile_metal
f 314/133/79 317/134/79 320/135/79
f 314/133/79 320/135/79 323/136/79
f 326/133/80 335/136/80 332/135/80
f 326/133/80 332/135/80 329/134/80
f 313/137/81 325/138/81 328/139/81
f 313/137/81 328/139/81 316/140/81
f 318/141/82 330/142/82 333/143/82
f 318/141/82 333/143/82 321/144/82
f 319/140/83 331/139/83 334/138/83
f 319/140/83 334/138/83 322/137/83
f 324/144/84 336/143/84 327/142/84
f 324/144/84 327/142/84 315/141/84
o Post_-1_-1
v -4.031250 0.000000 4.031250
v -4.031250 0.000000 4.031250
v -4.031250 0.000000 4.031250
v -3.718750 0.000000 4.031250
v -3.718750 0.000000 4.031250
v -3.718750 0.000000 4.031250
v -3.718750 0.000000 3.718750
v -3.718750 0.000000 3.718750
v -3.718750 0.000000 3.718750
v -4.031250 0.000000 3.718750
v -4.031250 0.000000 3.718750
v -4.031250 0.000000 3.718750
v -4.031250 4.000000 4.031250
v -4.031250 4.000000 4.031250
v -4.031250 4.000000 4.031250
v -3.718750 4.000000 4.031250
v -3.718750 4.000000 4.031250
v -3.718750 4.000000 4.031250
v -3.718750 4.000000 3.718750
v -3.718750 4.000000 3.718750
v -3.718750 4.000000 3.718750
v -4.031250 4.000000 3.718750
v -4.031250 4.000000 3.718750
v -4.031250 4.000000 3.718750
vn -0.0000 1.0000 -0.0000
vn -0.0000 -1.0000 -0.0000
vn -0.0000 -0.0000 -1.0000
vn -1.0000 -0.0000 -0.0000
vn -0.0000 -0.0000 1.0000
vn 1.0000 -0.0000 -0.0000
vt -4.031250 -4.031250
vt -3.718750 -4.031250
vt -3.718750 -3.718750
vt -4.031250 -3.718750
vt -4.031250 0.000000
vt -4.031250 4.000000
vt -3.718750 4.000000
vt -3.718750 0.000000
s 0
usemtl Tile_metal
f 338/145/85 341/146/85 344/147/85
f 338/145/85 344/147/85 347/148/85
f 350/145/86 359/148/86 356/147/86
f 350/145/86 356/147/86 353/146/86
f 337/149/87 349/150/87 352/151/87
f 337/149/87 352/151/87 340/152/87
f 342/149/88 354/150/88 357/151/88
f 342/149/88 357/151/88 345/152/88
f 343/152/89 355/151/89 358/150/89
f 343/152/89 358/150/89 346/149/89
f 348/152/90 360/151/90 351/150/90
f 348/152/90 351/150/90 339/149/90
o Post_-1_1
v -4.031250 0.000000 -3.718750
v -4.031250 0.000000 -3.718750
v -4.031250 0.000000 -3.718750
v -3.718750 0.000000 -3.718750
v -3.718750 0.000000 -3.718750
v -3.718750 0.000000 -3.718750
v -3.718750 0.000000 -4.031250
v -3.718750 0.000000 -4.031250
v -3.718750 0.000000 -4.031250
v -4.031250 0.000000 -4.031250
v -4.031250 0.000000 -4.031250
v -4.031250 0.000000 -4.031250
v -4.031250 4.000000 -3.718750
v -4.031250 4.000000 -3.718750
v -4.031250 4.000000 -3.718750
v -3.718750 4.000000 -3.718750
v -3.718750 4.000000 -3.718750
v -3.718750 4.000000 -3.718750
v -3.718750 4.000000 -4.031250
v -3.718750 4.000000 -4.031250
v -3.718750 4.000000 -4.031250
v -4.031250 4.000000 -4.031250
v -4.031250 4.000000 -4.031250
v -4.031250 4.000000 -4.031250
vn -0.0000 1.0000 -0.0000
vn -0.0000 -1.0000 -0.0000
vn -0.0000 -0.0000 -1.0000
vn -1.0000 -0.0000 -0.0000
vn -0.0000 -0.0000 1.0000
vn 1.0000 -0.0000 -0.0000
vt -4.031250 3.718750
vt -3.718750 3.718750
vt -3.718750 4.031250
vt -4.031250 4.031250
vt -4.031250 0.000000
vt -4.031250 4.000000
vt -3.718750 4.000000
vt -3.718750 0.000000
vt 3.718750 0.000000
vt 3.718750 4.000000
vt 4.031250 4.000000
vt 4.031250 0.000000
s 0
usemtl Tile_metal
f 362/153/91 365/154/91 368/155/91
f 362/153/91 368/155/91 371/156/91
f 374/153/92 383/156/92 380/155/92
f 374/153/92 380/155/92 377/154/92
f 361/157/93 373/158/93 376/159/93
f 361/157/93 376/159/93 364/160/93
f 366/161/94 378/162/94 381/163/94
f 366/161/94 381/163/94 369/164/94
f 367/160/95 379/159/95 382/158/95
f 367/160/95 382/158/95 370/157/95
f 372/164/96 384/163/96 375/162/96
f 372/164/96 375/162/96 363/161/96
o Post_1_-1
v 3.718750 0.000000 4.031250
v 3.718750 0.000000 4.031250
v 3.718750 0.000000 4.031250
v 4.031250 0.000000 4.031250
v 4.031250 0.000000 4.031250
v 4.031250 0.000000 4.031250
v 4.031250 0.000000 3.718750
v 4.031250 0.000000 3.718750
v 4.031250 0.000000 3.718750
v 3.718750 0.000000 3.718750
v 3.718750 0.000000 3.718750
v 3.718750 0.000000 3.718750
v 3.718750 4.000000 4.031250
v 3.718750 4.000000 4.031250
v 3.718750 4.000000 4.031250
v 4.031250 4.000000 4.031250
v 4.031250 4.000000 4.031250
v 4.031250 4.000000 4.031250
v 4.031250 4.000000 3.718750
v 4.031250 4.000000 3.718750
v 4.031250 4.000000 3.718750
v 3.718750 4.000000 3.718750
v 3.718750 4.000000 3.718750
v 3.718750 4.000000 3.718750
vn -0.0000 1.0000 -0.0000
vn -0.0000 -1.0000 -0.0000
vn -0.0000 -0.0000 -1.0000
vn -1.0000 -0.0000 -0.0000
vn -0.0000 -0.0000 1.0000
vn 1.0000 -0.0000 -0.0000
vt 3.718750 -4.031250
vt 4.031250 -4.031250
vt 4.031250 -3.718750
vt 3.718750 -3.718750
vt 3.718750 0.000000
vt 3.718750 4.000000
vt 4.031250 4.000000
vt 4.031250 0.000000
vt -4.031250 0.000000
vt -4.031250 4.000000
vt -3.718750 4.000000
vt -3.718750 0.000000
s 0
usemtl Tile_metal
f 386/165/97 389/166/97 392/167/97
f 386/165/97 392/167/97 395/168/97
f 398/165/98 407/168/98 404/167/98
f 398/165/98 404/167/98 401/166/98
f 385/169/99 397/170/99 400/171/99
f 385/169/99 400/171/99 388/172/99
f 390/173/100 402/174/100 405/175/100
f 390/173/100 405/175/100 393/176/100
f 391/172/101 403/171/101 406/170/101
f 391/172/101 406/170/101 394/169/101
f 396/176/102 408/175/102 399/174/102
f 396/176/102 399/174/102 387/173/102
o Post_1_1
v 3.718750 0.000000 -3.718750
v 3.718750 0.000000 -3.718750
v 3.718750 0.000000 -3.718750
v 4.031250 0.000000 -3.718750
v 4.031250 0.000000 -3.718750
v 4.031250 0.000000 -3.718750
v 4.031250 0.000000 -4.031250
v 4.031250 0.000000 -4.031250
v 4.031250 0.000000 -4.031250
v 3.718750 0.000000 -4.031250
v 3.718750 0.000000 -4.031250
v 3.718750 0.000000 -4.031250
v 3.718750 4.000000 -3.718750
v 3.718750 4.000000 -3.718750
v 3.718750 4.000000 -3.718750
v 4.031250 4.000000 -3.718750
v 4.031250 4.000000 -3.718750
v 4.031250 4.000000 -3.718750
v 4.031250 4.000000 -4.031250
v 4.031250 4.000000 -4.031250
v 4.031250 4.000000 -4.031250
v 3.718750 4.000000 -4.031250
v 3.718750 4.000000 -4.031250
v 3.718750 4.000000 -4.031250
vn -0.0000 1.0000 -0.0000
vn -0.0000 -1.0000 -0.0000
vn -0.0000 -0.0000 -1.0000
vn -1.0000 -0.0000 -0.0000
vn -0.0000 -0.0000 1.0000
vn 1.0000 -0.0000 -0.0000
vt 3.718750 3.718750
vt 4.031250 3.718750
vt 4.031250 4.031250
vt 3.718750 4.031250
vt 3.718750 0.000000
vt 3.718750 4.000000
vt 4.031250 4.000000
vt 4.031250 0.000000
s 0
usemtl Tile_metal
f 410/177/103 413/178/103 416/179/103
f 410/177/103 416/179/103 419/180/103
f 422/177/104 431/180/104 428/179/104
f 422/177/104 428/179/104 425/178/104
f 409/181/105 421/182/105 424/183/105
f 409/181/105 424/183/105 412/184/105
f 414/181/106 426/182/106 429/183/106
f 414/181/106 429/183/106 417/184/106
f 415/184/107 427/183/107 430/182/107
f 415/184/107 430/182/107 418/181/107
f 420/184/108 432/183/108 423/182/108
f 420/184/108 423/182/108 411/181/108
o Panel_housing
v 3.375000 0.500000 -1.562500
v 3.375000 0.500000 -1.562500
v 3.375000 0.500000 -1.562500
v 3.875000 0.500000 -1.562500
v 3.875000 0.500000 -1.562500
v 3.875000 0.500000 -1.562500
v 3.875000 0.500000 -2.437500
v 3.875000 0.500000 -2.437500
v 3.875000 0.500000 -2.437500
v 3.375000 0.500000 -2.437500
v 3.375000 0.500000 -2.437500
v 3.375000 0.500000 -2.437500
v 3.375000 1.875000 -1.562500
v 3.375000 1.875000 -1.562500
v 3.375000 1.875000 -1.562500
v 3.875000 1.875000 -1.562500
v 3.875000 1.875000 -1.562500
v 3.875000 1.875000 -1.562500
v 3.875000 1.875000 -2.437500
v 3.875000 1.875000 -2.437500
v 3.875000 1.875000 -2.437500
v 3.375000 1.875000 -2.437500
v 3.375000 1.875000 -2.437500
v 3.375000 1.875000 -2.437500
vn -0.0000 1.0000 -0.0000
vn -0.0000 -1.0000 -0.0000
vn -0.0000 -0.0000 -1.0000
vn -1.0000 -0.0000 -0.0000
vn -0.0000 -0.0000 1.0000
vn 1.0000 -0.0000 -0.0000
vt 3.375000 1.562500
vt 3.875000 1.562500
vt 3.875000 2.437500
vt 3.375000 2.437500
vt 3.375000 0.500000
vt 3.375000 1.875000
vt 3.875000 1.875000
vt 3.875000 0.500000
vt 1.562500 0.500000
vt 1.562500 1.875000
vt 2.437500 1.875000
vt 2.437500 0.500000
s 0
usemtl Tile_metal
f 434/185/109 437/186/109 440/187/109
f 434/185/109 440/187/109 443/188/109
f 446/185/110 455/188/110 452/187/110
f 446/185/110 452/187/110 449/186/110
f 433/189/111 445/190/111 448/191/111
f 433/189/111 448/191/111 436/192/111
f 438/193/112 450/194/112 453/195/112
f 438/193/112 453/195/112 441/196/112
f 439/192/113 451/191/113 454/190/113
f 439/192/113 454/190/113 442/189/113
f 444/196/114 456/195/114 447/194/114
f 444/196/114 447/194/114 435/193/114
o Panel_face
v 3.343750 0.625000 -1.656250
v 3.343750 0.625000 -1.656250
v 3.343750 0.625000 -1.656250
v 3.406250 0.625000 -1.656250
v 3.406250 0.625000 -1.656250
v 3.406250 0.625000 -1.656250
v 3.406250 0.625000 -2.343750
v 3.406250 0.625000 -2.343750
v 3.406250 0.625000 -2.343750
v 3.343750 0.625000 -2.343750
v 3.343750 0.625000 -2.343750
v 3.343750 0.625000 -2.343750
v 3.343750 1.750000 -1.656250
v 3.343750 1.750000 -1.656250
v 3.343750 1.750000 -1.656250
v 3.406250 1.750000 -1.656250
v 3.406250 1.750000 -1.656250
v 3.406250 1.750000 -1.656250
v 3.406250 1.750000 -2.343750
v 3.406250 1.750000 -2.343750
v 3.406250 1.750000 -2.343750
v 3.343750 1.750000 -2.343750
v 3.343750 1.750000 -2.343750
v 3.343750 1.750000 -2.343750
vn -0.0000 1.0000 -0.0000
vn -0.0000 -1.0000 -0.0000
vn -0.0000 -0.0000 -1.0000
vn -1.0000 -0.0000 -0.0000
vn -0.0000 -0.0000 1.0000
vn 1.0000 -0.0000 -0.0000
vt 3.343750 1.656250
vt 3.406250 1.656250
vt 3.406250 2.343750
vt 3.343750 2.343750
vt 3.343750 0.625000
vt 3.343750 1.750000
vt 3.406250 1.750000
vt 3.406250 0.625000
vt 1.656250 0.625000
vt 1.656250 1.750000
vt 2.343750 1.750000
vt 2.343750 0.625000
s 0
usemtl Tile_metal
f 458/197/115 461/198/115 464/199/115
f 458/197/115 464/199/115 467/200/115
f 470/197/116 479/200/116 476/199/116
f 470/197/116 476/199/116 473/198/116
f 457/201/117 469/202/117 472/203/117
f 457/201/117 472/203/117 460/204/117
f 462/205/118 474/206/118 477/207/118
f 462/205/118 477/207/118 465/208/118
f 463/204/119 475/203/119 478/202/119
f 463/204/119 478/202/119 466/201/119
f 468/208/120 480/207/120 471/206/120
f 468/208/120 471/206/120 459/205/120
o HS_W_base
v -3.850000 0.110000 3.850000
v -3.850000 0.110000 3.850000
v -3.850000 0.110000 3.850000
v -3.710000 0.110000 3.850000
v -3.710000 0.110000 3.850000
v -3.710000 0.110000 3.850000
v -3.710000 0.110000 -3.850000
v -3.710000 0.110000 -3.850000
v -3.710000 0.110000 -3.850000
v -3.850000 0.110000 -3.850000
v -3.850000 0.110000 -3.850000
v -3.850000 0.110000 -3.850000
v -3.850000 0.450000 3.850000
v -3.850000 0.450000 3.850000
v -3.850000 0.450000 3.850000
v -3.710000 0.450000 3.850000
v -3.710000 0.450000 3.850000
v -3.710000 0.450000 3.850000
v -3.710000 0.450000 -3.850000
v -3.710000 0.450000 -3.850000
v -3.710000 0.450000 -3.850000
v -3.850000 0.450000 -3.850000
v -3.850000 0.450000 -3.850000
v -3.850000 0.450000 -3.850000
vn -0.0000 1.0000 -0.0000
vn -0.0000 -1.0000 -0.0000
vn -0.0000 -0.0000 -1.0000
vn -1.0000 -0.0000 -0.0000
vn -0.0000 -0.0000 1.0000
vn 1.0000 -0.0000 -0.0000
vt -0.070000 -3.850000
vt 0.070000 -3.850000
vt 0.070000 3.850000
vt -0.070000 3.850000
vt -0.070000 -0.170000
vt -0.070000 0.170000
vt 0.070000 0.170000
vt 0.070000 -0.170000
vt -3.850000 -0.170000
vt -3.850000 0.170000
vt 3.850000 0.170000
vt 3.850000 -0.170000
s 0
usemtl Tile_metal
f 482/209/121 485/210/121 488/211/121
f 482/209/121 488/211/121 491/212/121
f 503/212/122 500/211/122 497/210/122
f 503/212/122 497/210/122 494/209/122
f 481/213/123 493/214/123 496/215/123
f 481/213/123 496/215/123 484/216/123
f 486/217/124 498/218/124 501/219/124
f 486/217/124 501/219/124 489/220/124
f 487/216/125 499/215/125 502/214/125
f 487/216/125 502/214/125 490/213/125
f 492/220/126 504/219/126 495/218/126
f 492/220/126 495/218/126 483/217/126
o HS_W_crown
v -3.850000 3.400000 3.850000
v -3.850000 3.400000 3.850000
v -3.850000 3.400000 3.850000
v -3.730000 3.400000 3.850000
v -3.730000 3.400000 3.850000
v -3.730000 3.400000 3.850000
v -3.730000 3.400000 -3.850000
v -3.730000 3.400000 -3.850000
v -3.730000 3.400000 -3.850000
v -3.850000 3.400000 -3.850000
v -3.850000 3.400000 -3.850000
v -3.850000 3.400000 -3.850000
v -3.850000 3.700000 3.850000
v -3.850000 3.700000 3.850000
v -3.850000 3.700000 3.850000
v -3.730000 3.700000 3.850000
v -3.730000 3.700000 3.850000
v -3.730000 3.700000 3.850000
v -3.730000 3.700000 -3.850000
v -3.730000 3.700000 -3.850000
v -3.730000 3.700000 -3.850000
v -3.850000 3.700000 -3.850000
v -3.850000 3.700000 -3.850000
v -3.850000 3.700000 -3.850000
vn -0.0000 1.0000 -0.0000
vn -0.0000 -1.0000 -0.0000
vn -0.0000 -0.0000 -1.0000
vn -1.0000 -0.0000 -0.0000
vn -0.0000 -0.0000 1.0000
vn 1.0000 -0.0000 -0.0000
vt -0.060000 -3.850000
vt 0.060000 -3.850000
vt 0.060000 3.850000
vt -0.060000 3.850000
vt -0.060000 -0.150000
vt -0.060000 0.150000
vt 0.060000 0.150000
vt 0.060000 -0.150000
vt -3.850000 -0.150000
vt -3.850000 0.150000
vt 3.850000 0.150000
vt 3.850000 -0.150000
s 0
usemtl Tile_metal
f 506/221/127 509/222/127 512/223/127
f 506/221/127 512/223/127 515/224/127
f 527/224/128 524/223/128 521/222/128
f 527/224/128 521/222/128 518/221/128
f 505/225/129 517/226/129 520/227/129
f 505/225/129 520/227/129 508/228/129
f 510/229/130 522/230/130 525/231/130
f 510/229/130 525/231/130 513/232/130
f 511/228/131 523/227/131 526/226/131
f 511/228/131 526/226/131 514/225/131
f 516/232/132 528/231/132 519/230/132
f 516/232/132 519/230/132 507/229/132
o HS_S_base
v -3.850000 0.110000 3.850000
v -3.850000 0.110000 3.850000
v -3.850000 0.110000 3.850000
v 3.850000 0.110000 3.850000
v 3.850000 0.110000 3.850000
v 3.850000 0.110000 3.850000
v 3.850000 0.110000 3.710000
v 3.850000 0.110000 3.710000
v 3.850000 0.110000 3.710000
v -3.850000 0.110000 3.710000
v -3.850000 0.110000 3.710000
v -3.850000 0.110000 3.710000
v -3.850000 0.450000 3.850000
v -3.850000 0.450000 3.850000
v -3.850000 0.450000 3.850000
v 3.850000 0.450000 3.850000
v 3.850000 0.450000 3.850000
v 3.850000 0.450000 3.850000
v 3.850000 0.450000 3.710000
v 3.850000 0.450000 3.710000
v 3.850000 0.450000 3.710000
v -3.850000 0.450000 3.710000
v -3.850000 0.450000 3.710000
v -3.850000 0.450000 3.710000
vn -0.0000 1.0000 -0.0000
vn -0.0000 -1.0000 -0.0000
vn -0.0000 -0.0000 -1.0000
vn -1.0000 -0.0000 -0.0000
vn -0.0000 -0.0000 1.0000
vn 1.0000 -0.0000 -0.0000
vt -3.850000 -0.070000
vt 3.850000 -0.070000
vt 3.850000 0.070000
vt -3.850000 0.070000
vt -3.850000 -0.170000
vt -3.850000 0.170000
vt 3.850000 0.170000
vt 3.850000 -0.170000
vt -0.070000 -0.170000
vt -0.070000 0.170000
vt 0.070000 0.170000
vt 0.070000 -0.170000
s 0
usemtl Tile_metal
f 530/233/133 533/234/133 536/235/133
f 530/233/133 536/235/133 539/236/133
f 551/236/134 548/235/134 545/234/134
f 551/236/134 545/234/134 542/233/134
f 529/237/135 541/238/135 544/239/135
f 529/237/135 544/239/135 532/240/135
f 534/241/136 546/242/136 549/243/136
f 534/241/136 549/243/136 537/244/136
f 535/240/137 547/239/137 550/238/137
f 535/240/137 550/238/137 538/237/137
f 540/244/138 552/243/138 543/242/138
f 540/244/138 543/242/138 531/241/138
o HS_S_crown
v -3.850000 3.400000 3.850000
v -3.850000 3.400000 3.850000
v -3.850000 3.400000 3.850000
v 3.850000 3.400000 3.850000
v 3.850000 3.400000 3.850000
v 3.850000 3.400000 3.850000
v 3.850000 3.400000 3.730000
v 3.850000 3.400000 3.730000
v 3.850000 3.400000 3.730000
v -3.850000 3.400000 3.730000
v -3.850000 3.400000 3.730000
v -3.850000 3.400000 3.730000
v -3.850000 3.700000 3.850000
v -3.850000 3.700000 3.850000
v -3.850000 3.700000 3.850000
v 3.850000 3.700000 3.850000
v 3.850000 3.700000 3.850000
v 3.850000 3.700000 3.850000
v 3.850000 3.700000 3.730000
v 3.850000 3.700000 3.730000
v 3.850000 3.700000 3.730000
v -3.850000 3.700000 3.730000
v -3.850000 3.700000 3.730000
v -3.850000 3.700000 3.730000
vn -0.0000 1.0000 -0.0000
vn -0.0000 -1.0000 -0.0000
vn -0.0000 -0.0000 -1.0000
vn -1.0000 -0.0000 -0.0000
vn -0.0000 -0.0000 1.0000
vn 1.0000 -0.0000 -0.0000
vt -3.850000 -0.060000
vt 3.850000 -0.060000
vt 3.850000 0.060000
vt -3.850000 0.060000
vt -3.850000 -0.150000
vt -3.850000 0.150000
vt 3.850000 0.150000
vt 3.850000 -0.150000
vt -0.060000 -0.150000
vt -0.060000 0.150000
vt 0.060000 0.150000
vt 0.060000 -0.150000
s 0
usemtl Tile_metal
f 554/245/139 557/246/139 560/247/139
f 554/245/139 560/247/139 563/248/139
f 575/248/140 572/247/140 569/246/140
f 575/248/140 569/246/140 566/245/140
f 553/249/141 565/250/141 568/251/141
f 553/249/141 568/251/141 556/252/141
f 558/253/142 570/254/142 573/255/142
f 558/253/142 573/255/142 561/256/142
f 559/252/143 571/251/143 574/250/143
f 559/252/143 574/250/143 562/249/143
f 564/256/144 576/255/144 567/254/144
f 564/256/144 567/254/144 555/253/144
o HS_N_base
v -3.850000 0.110000 -3.710000
v -3.850000 0.110000 -3.710000
v -3.850000 0.110000 -3.710000
v 3.850000 0.110000 -3.710000
v 3.850000 0.110000 -3.710000
v 3.850000 0.110000 -3.710000
v 3.850000 0.110000 -3.850000
v 3.850000 0.110000 -3.850000
v 3.850000 0.110000 -3.850000
v -3.850000 0.110000 -3.850000
v -3.850000 0.110000 -3.850000
v -3.850000 0.110000 -3.850000
v -3.850000 0.450000 -3.710000
v -3.850000 0.450000 -3.710000
v -3.850000 0.450000 -3.710000
v 3.850000 0.450000 -3.710000
v 3.850000 0.450000 -3.710000
v 3.850000 0.450000 -3.710000
v 3.850000 0.450000 -3.850000
v 3.850000 0.450000 -3.850000
v 3.850000 0.450000 -3.850000
v -3.850000 0.450000 -3.850000
v -3.850000 0.450000 -3.850000
v -3.850000 0.450000 -3.850000
vn -0.0000 1.0000 -0.0000
vn -0.0000 -1.0000 -0.0000
vn -0.0000 -0.0000 -1.0000
vn -1.0000 -0.0000 -0.0000
vn -0.0000 -0.0000 1.0000
vn 1.0000 -0.0000 -0.0000
vt -3.850000 -0.070000
vt 3.850000 -0.070000
vt 3.850000 0.070000
vt -3.850000 0.070000
vt -3.850000 -0.170000
vt -3.850000 0.170000
vt 3.850000 0.170000
vt 3.850000 -0.170000
vt -0.070000 -0.170000
vt -0.070000 0.170000
vt 0.070000 0.170000
vt 0.070000 -0.170000
s 0
usemtl Tile_metal
f 578/257/145 581/258/145 584/259/145
f 578/257/145 584/259/145 587/260/145
f 599/260/146 596/259/146 593/258/146
f 599/260/146 593/258/146 590/257/146
f 577/261/147 589/262/147 592/263/147
f 577/261/147 592/263/147 580/264/147
f 582/265/148 594/266/148 597/267/148
f 582/265/148 597/267/148 585/268/148
f 583/264/149 595/263/149 598/262/149
f 583/264/149 598/262/149 586/261/149
f 588/268/150 600/267/150 591/266/150
f 588/268/150 591/266/150 579/265/150
o HS_N_crown
v -3.850000 3.400000 -3.730000
v -3.850000 3.400000 -3.730000
v -3.850000 3.400000 -3.730000
v 3.850000 3.400000 -3.730000
v 3.850000 3.400000 -3.730000
v 3.850000 3.400000 -3.730000
v 3.850000 3.400000 -3.850000
v 3.850000 3.400000 -3.850000
v 3.850000 3.400000 -3.850000
v -3.850000 3.400000 -3.850000
v -3.850000 3.400000 -3.850000
v -3.850000 3.400000 -3.850000
v -3.850000 3.700000 -3.730000
v -3.850000 3.700000 -3.730000
v -3.850000 3.700000 -3.730000
v 3.850000 3.700000 -3.730000
v 3.850000 3.700000 -3.730000
v 3.850000 3.700000 -3.730000
v 3.850000 3.700000 -3.850000
v 3.850000 3.700000 -3.850000
v 3.850000 3.700000 -3.850000
v -3.850000 3.700000 -3.850000
v -3.850000 3.700000 -3.850000
v -3.850000 3.700000 -3.850000
vn -0.0000 1.0000 -0.0000
vn -0.0000 -1.0000 -0.0000
vn -0.0000 -0.0000 -1.0000
vn -1.0000 -0.0000 -0.0000
vn -0.0000 -0.0000 1.0000
vn 1.0000 -0.0000 -0.0000
vt -3.850000 -0.060000
vt 3.850000 -0.060000
vt 3.850000 0.060000
vt -3.850000 0.060000
vt -3.850000 -0.150000
vt -3.850000 0.150000
vt 3.850000 0.150000
vt 3.850000 -0.150000
vt -0.060000 -0.150000
vt -0.060000 0.150000
vt 0.060000 0.150000
vt 0.060000 -0.150000
s 0
usemtl Tile_metal
f 602/269/151 605/270/151 608/271/151
f 602/269/151 608/271/151 611/272/151
f 623/272/152 620/271/152 617/270/152
f 623/272/152 617/270/152 614/269/152
f 601/273/153 613/274/153 616/275/153
f 601/273/153 616/275/153 604/276/153
f 606/277/154 618/278/154 621/279/154
f 606/277/154 621/279/154 609/280/154
f 607/276/155 619/275/155 622/274/155
f 607/276/155 622/274/155 610/273/155
f 612/280/156 624/279/156 615/278/156
f 612/280/156 615/278/156 603/277/156
o HS_EEa_base
v 3.710000 0.110000 -1.000000
v 3.710000 0.110000 -1.000000
v 3.710000 0.110000 -1.000000
v 3.850000 0.110000 -1.000000
v 3.850000 0.110000 -1.000000
v 3.850000 0.110000 -1.000000
v 3.850000 0.110000 -3.850000
v 3.850000 0.110000 -3.850000
v 3.850000 0.110000 -3.850000
v 3.710000 0.110000 -3.850000
v 3.710000 0.110000 -3.850000
v 3.710000 0.110000 -3.850000
v 3.710000 0.450000 -1.000000
v 3.710000 0.450000 -1.000000
v 3.710000 0.450000 -1.000000
v 3.850000 0.450000 -1.000000
v 3.850000 0.450000 -1.000000
v 3.850000 0.450000 -1.000000
v 3.850000 0.450000 -3.850000
v 3.850000 0.450000 -3.850000
v 3.850000 0.450000 -3.850000
v 3.710000 0.450000 -3.850000
v 3.710000 0.450000 -3.850000
v 3.710000 0.450000 -3.850000
vn -0.0000 1.0000 -0.0000
vn -0.0000 -1.0000 -0.0000
vn -0.0000 -0.0000 -1.0000
vn -1.0000 -0.0000 -0.0000
vn -0.0000 -0.0000 1.0000
vn 1.0000 -0.0000 -0.0000
vt -0.070000 -1.425000
vt 0.070000 -1.425000
vt 0.070000 1.425000
vt -0.070000 1.425000
vt -0.070000 -0.170000
vt -0.070000 0.170000
vt 0.070000 0.170000
vt 0.070000 -0.170000
vt -1.425000 -0.170000
vt -1.425000 0.170000
vt 1.425000 0.170000
vt 1.425000 -0.170000
s 0
usemtl Tile_metal
f 626/281/157 629/282/157 632/283/157
f 626/281/157 632/283/157 635/284/157
f 647/284/158 644/283/158 641/282/158
f 647/284/158 641/282/158 638/281/158
f 625/285/159 637/286/159 640/287/159
f 625/285/159 640/287/159 628/288/159
f 630/289/160 642/290/160 645/291/160
f 630/289/160 645/291/160 633/292/160
f 631/288/161 643/287/161 646/286/161
f 631/288/161 646/286/161 634/285/161
f 636/292/162 648/291/162 639/290/162
f 636/292/162 639/290/162 627/289/162
o HS_EEa_crown
v 3.730000 3.400000 -1.000000
v 3.730000 3.400000 -1.000000
v 3.730000 3.400000 -1.000000
v 3.850000 3.400000 -1.000000
v 3.850000 3.400000 -1.000000
v 3.850000 3.400000 -1.000000
v 3.850000 3.400000 -3.850000
v 3.850000 3.400000 -3.850000
v 3.850000 3.400000 -3.850000
v 3.730000 3.400000 -3.850000
v 3.730000 3.400000 -3.850000
v 3.730000 3.400000 -3.850000
v 3.730000 3.700000 -1.000000
v 3.730000 3.700000 -1.000000
v 3.730000 3.700000 -1.000000
v 3.850000 3.700000 -1.000000
v 3.850000 3.700000 -1.000000
v 3.850000 3.700000 -1.000000
v 3.850000 3.700000 -3.850000
v 3.850000 3.700000 -3.850000
v 3.850000 3.700000 -3.850000
v 3.730000 3.700000 -3.850000
v 3.730000 3.700000 -3.850000
v 3.730000 3.700000 -3.850000
vn -0.0000 1.0000 -0.0000
vn -0.0000 -1.0000 -0.0000
vn -0.0000 -0.0000 -1.0000
vn -1.0000 -0.0000 -0.0000
vn -0.0000 -0.0000 1.0000
vn 1.0000 -0.0000 -0.0000
vt -0.060000 -1.425000
vt 0.060000 -1.425000
vt 0.060000 1.425000
vt -0.060000 1.425000
vt -0.060000 -0.150000
vt -0.060000 0.150000
vt 0.060000 0.150000
vt 0.060000 -0.150000
vt -1.425000 -0.150000
vt -1.425000 0.150000
vt 1.425000 0.150000
vt 1.425000 -0.150000
s 0
usemtl Tile_metal
f 650/293/163 653/294/163 656/295/163
f 650/293/163 656/295/163 659/296/163
f 671/296/164 668/295/164 665/294/164
f 671/296/164 665/294/164 662/293/164
f 649/297/165 661/298/165 664/299/165
f 649/297/165 664/299/165 652/300/165
f 654/301/166 666/302/166 669/303/166
f 654/301/166 669/303/166 657/304/166
f 655/300/167 667/299/167 670/298/167
f 655/300/167 670/298/167 658/297/167
f 660/304/168 672/303/168 663/302/168
f 660/304/168 663/302/168 651/301/168
o HS_EEb_base
v 3.710000 0.110000 3.850000
v 3.710000 0.110000 3.850000
v 3.710000 0.110000 3.850000
v 3.850000 0.110000 3.850000
v 3.850000 0.110000 3.850000
v 3.850000 0.110000 3.850000
v 3.850000 0.110000 1.000000
v 3.850000 0.110000 1.000000
v 3.850000 0.110000 1.000000
v 3.710000 0.110000 1.000000
v 3.710000 0.110000 1.000000
v 3.710000 0.110000 1.000000
v 3.710000 0.450000 3.850000
v 3.710000 0.450000 3.850000
v 3.710000 0.450000 3.850000
v 3.850000 0.450000 3.850000
v 3.850000 0.450000 3.850000
v 3.850000 0.450000 3.850000
v 3.850000 0.450000 1.000000
v 3.850000 0.450000 1.000000
v 3.850000 0.450000 1.000000
v 3.710000 0.450000 1.000000
v 3.710000 0.450000 1.000000
v 3.710000 0.450000 1.000000
vn -0.0000 1.0000 -0.0000
vn -0.0000 -1.0000 -0.0000
vn -0.0000 -0.0000 -1.0000
vn -1.0000 -0.0000 -0.0000
vn -0.0000 -0.0000 1.0000
vn 1.0000 -0.0000 -0.0000
vt -0.070000 -1.425000
vt 0.070000 -1.425000
vt 0.070000 1.425000
vt -0.070000 1.425000
vt -0.070000 -0.170000
vt -0.070000 0.170000
vt 0.070000 0.170000
vt 0.070000 -0.170000
vt -1.425000 -0.170000
vt -1.425000 0.170000
vt 1.425000 0.170000
vt 1.425000 -0.170000
s 0
usemtl Tile_metal
f 674/305/169 677/306/169 680/307/169
f 674/305/169 680/307/169 683/308/169
f 695/308/170 692/307/170 689/306/170
f 695/308/170 689/306/170 686/305/170
f 673/309/171 685/310/171 688/311/171
f 673/309/171 688/311/171 676/312/171
f 678/313/172 690/314/172 693/315/172
f 678/313/172 693/315/172 681/316/172
f 679/312/173 691/311/173 694/310/173
f 679/312/173 694/310/173 682/309/173
f 684/316/174 696/315/174 687/314/174
f 684/316/174 687/314/174 675/313/174
o HS_EEb_crown
v 3.730000 3.400000 3.850000
v 3.730000 3.400000 3.850000
v 3.730000 3.400000 3.850000
v 3.850000 3.400000 3.850000
v 3.850000 3.400000 3.850000
v 3.850000 3.400000 3.850000
v 3.850000 3.400000 1.000000
v 3.850000 3.400000 1.000000
v 3.850000 3.400000 1.000000
v 3.730000 3.400000 1.000000
v 3.730000 3.400000 1.000000
v 3.730000 3.400000 1.000000
v 3.730000 3.700000 3.850000
v 3.730000 3.700000 3.850000
v 3.730000 3.700000 3.850000
v 3.850000 3.700000 3.850000
v 3.850000 3.700000 3.850000
v 3.850000 3.700000 3.850000
v 3.850000 3.700000 1.000000
v 3.850000 3.700000 1.000000
v 3.850000 3.700000 1.000000
v 3.730000 3.700000 1.000000
v 3.730000 3.700000 1.000000
v 3.730000 3.700000 1.000000
vn -0.0000 1.0000 -0.0000
vn -0.0000 -1.0000 -0.0000
vn -0.0000 -0.0000 -1.0000
vn -1.0000 -0.0000 -0.0000
vn -0.0000 -0.0000 1.0000
vn 1.0000 -0.0000 -0.0000
vt -0.060000 -1.425000
vt 0.060000 -1.425000
vt 0.060000 1.425000
vt -0.060000 1.425000
vt -0.060000 -0.150000
vt -0.060000 0.150000
vt 0.060000 0.150000
vt 0.060000 -0.150000
vt -1.425000 -0.150000
vt -1.425000 0.150000
vt 1.425000 0.150000
vt 1.425000 -0.150000
s 0
usemtl Tile_metal
f 698/317/175 701/318/175 704/319/175
f 698/317/175 704/319/175 707/320/175
f 719/320/176 716/319/176 713/318/176
f 719/320/176 713/318/176 710/317/176
f 697/321/177 709/322/177 712/323/177
f 697/321/177 712/323/177 700/324/177
f 702/325/178 714/326/178 717/327/178
f 702/325/178 717/327/178 705/328/178
f 703/324/179 715/323/179 718/322/179
f 703/324/179 718/322/179 706/321/179
f 708/328/180 720/327/180 711/326/180
f 708/328/180 711/326/180 699/325/180
o HS_W_pil_-2
v -3.850000 0.400000 2.140000
v -3.850000 0.400000 2.140000
v -3.850000 0.400000 2.140000
v -3.750000 0.400000 2.140000
v -3.750000 0.400000 2.140000
v -3.750000 0.400000 2.140000
v -3.750000 0.400000 1.860000
v -3.750000 0.400000 1.860000
v -3.750000 0.400000 1.860000
v -3.850000 0.400000 1.860000
v -3.850000 0.400000 1.860000
v -3.850000 0.400000 1.860000
v -3.850000 3.400000 2.140000
v -3.850000 3.400000 2.140000
v -3.850000 3.400000 2.140000
v -3.750000 3.400000 2.140000
v -3.750000 3.400000 2.140000
v -3.750000 3.400000 2.140000
v -3.750000 3.400000 1.860000
v -3.750000 3.400000 1.860000
v -3.750000 3.400000 1.860000
v -3.850000 3.400000 1.860000
v -3.850000 3.400000 1.860000
v -3.850000 3.400000 1.860000
vn -0.0000 1.0000 -0.0000
vn -0.0000 -1.0000 -0.0000
vn -0.0000 -0.0000 -1.0000
vn -1.0000 -0.0000 -0.0000
vn -0.0000 -0.0000 1.0000
vn 1.0000 -0.0000 -0.0000
vt -0.050000 -0.140000
vt 0.050000 -0.140000
vt 0.050000 0.140000
vt -0.050000 0.140000
vt -0.050000 -1.500000
vt -0.050000 1.500000
vt 0.050000 1.500000
vt 0.050000 -1.500000
vt -0.140000 -1.500000
vt -0.140000 1.500000
vt 0.140000 1.500000
vt 0.140000 -1.500000
s 0
usemtl Tile_metal
f 722/329/181 725/330/181 728/331/181
f 722/329/181 728/331/181 731/332/181
f 743/332/182 740/331/182 737/330/182
f 743/332/182 737/330/182 734/329/182
f 721/333/183 733/334/183 736/335/183
f 721/333/183 736/335/183 724/336/183
f 726/337/184 738/338/184 741/339/184
f 726/337/184 741/339/184 729/340/184
f 727/336/185 739/335/185 742/334/185
f 727/336/185 742/334/185 730/333/185
f 732/340/186 744/339/186 735/338/186
f 732/340/186 735/338/186 723/337/186
o HS_W_pil_0
v -3.850000 0.400000 0.140000
v -3.850000 0.400000 0.140000
v -3.850000 0.400000 0.140000
v -3.750000 0.400000 0.140000
v -3.750000 0.400000 0.140000
v -3.750000 0.400000 0.140000
v -3.750000 0.400000 -0.140000
v -3.750000 0.400000 -0.140000
v -3.750000 0.400000 -0.140000
v -3.850000 0.400000 -0.140000
v -3.850000 0.400000 -0.140000
v -3.850000 0.400000 -0.140000
v -3.850000 3.400000 0.140000
v -3.850000 3.400000 0.140000
v -3.850000 3.400000 0.140000
v -3.750000 3.400000 0.140000
v -3.750000 3.400000 0.140000
v -3.750000 3.400000 0.140000
v -3.750000 3.400000 -0.140000
v -3.750000 3.400000 -0.140000
v -3.750000 3.400000 -0.140000
v -3.850000 3.400000 -0.140000
v -3.850000 3.400000 -0.140000
v -3.850000 3.400000 -0.140000
vn -0.0000 1.0000 -0.0000
vn -0.0000 -1.0000 -0.0000
vn -0.0000 -0.0000 -1.0000
vn -1.0000 -0.0000 -0.0000
vn -0.0000 -0.0000 1.0000
vn 1.0000 -0.0000 -0.0000
vt -0.050000 -0.140000
vt 0.050000 -0.140000
vt 0.050000 0.140000
vt -0.050000 0.140000
vt -0.050000 -1.500000
vt -0.050000 1.500000
vt 0.050000 1.500000
vt 0.050000 -1.500000
vt -0.140000 -1.500000
vt -0.140000 1.500000
vt 0.140000 1.500000
vt 0.140000 -1.500000
s 0
usemtl Tile_metal
f 746/341/187 749/342/187 752/343/187
f 746/341/187 752/343/187 755/344/187
f 767/344/188 764/343/188 761/342/188
f 767/344/188 761/342/188 758/341/188
f 745/345/189 757/346/189 760/347/189
f 745/345/189 760/347/189 748/348/189
f 750/349/190 762/350/190 765/351/190
f 750/349/190 765/351/190 753/352/190
f 751/348/191 763/347/191 766/346/191
f 751/348/191 766/346/191 754/345/191
f 756/352/192 768/351/192 759/350/192
f 756/352/192 759/350/192 747/349/192
o HS_W_pil_2
v -3.850000 0.400000 -1.860000
v -3.850000 0.400000 -1.860000
v -3.850000 0.400000 -1.860000
v -3.750000 0.400000 -1.860000
v -3.750000 0.400000 -1.860000
v -3.750000 0.400000 -1.860000
v -3.750000 0.400000 -2.140000
v -3.750000 0.400000 -2.140000
v -3.750000 0.400000 -2.140000
v -3.850000 0.400000 -2.140000
v -3.850000 0.400000 -2.140000
v -3.850000 0.400000 -2.140000
v -3.850000 3.400000 -1.860000
v -3.850000 3.400000 -1.860000
v -3.850000 3.400000 -1.860000
v -3.750000 3.400000 -1.860000
v -3.750000 3.400000 -1.860000
v -3.750000 3.400000 -1.860000
v -3.750000 3.400000 -2.140000
v -3.750000 3.400000 -2.140000
v -3.750000 3.400000 -2.140000
v -3.850000 3.400000 -2.140000
v -3.850000 3.400000 -2.140000
v -3.850000 3.400000 -2.140000
vn -0.0000 1.0000 -0.0000
vn -0.0000 -1.0000 -0.0000
vn -0.0000 -0.0000 -1.0000
vn -1.0000 -0.0000 -0.0000
vn -0.0000 -0.0000 1.0000
vn 1.0000 -0.0000 -0.0000
vt -0.050000 -0.140000
vt 0.050000 -0.140000
vt 0.050000 0.140000
vt -0.050000 0.140000
vt -0.050000 -1.500000
vt -0.050000 1.500000
vt 0.050000 1.500000
vt 0.050000 -1.500000
vt -0.140000 -1.500000
vt -0.140000 1.500000
vt 0.140000 1.500000
vt 0.140000 -1.500000
s 0
usemtl Tile_metal
f 770/353/193 773/354/193 776/355/193
f 770/353/193 776/355/193 779/356/193
f 791/356/194 788/355/194 785/354/194
f 791/356/194 785/354/194 782/353/194
f 769/357/195 781/358/195 784/359/195
f 769/357/195 784/359/195 772/360/195
f 774/361/196 786/362/196 789/363/196
f 774/361/196 789/363/196 777/364/196
f 775/360/197 787/359/197 790/358/197
f 775/360/197 790/358/197 778/357/197
f 780/364/198 792/363/198 783/362/198
f 780/364/198 783/362/198 771/361/198
o HS_S_pil_-2
v -2.140000 0.400000 3.850000
v -2.140000 0.400000 3.850000
v -2.140000 0.400000 3.850000
v -1.860000 0.400000 3.850000
v -1.860000 0.400000 3.850000
v -1.860000 0.400000 3.850000
v -1.860000 0.400000 3.750000
v -1.860000 0.400000 3.750000
v -1.860000 0.400000 3.750000
v -2.140000 0.400000 3.750000
v -2.140000 0.400000 3.750000
v -2.140000 0.400000 3.750000
v -2.140000 3.400000 3.850000
v -2.140000 3.400000 3.850000
v -2.140000 3.400000 3.850000
v -1.860000 3.400000 3.850000
v -1.860000 3.400000 3.850000
v -1.860000 3.400000 3.850000
v -1.860000 3.400000 3.750000
v -1.860000 3.400000 3.750000
v -1.860000 3.400000 3.750000
v -2.140000 3.400000 3.750000
v -2.140000 3.400000 3.750000
v -2.140000 3.400000 3.750000
vn -0.0000 1.0000 -0.0000
vn -0.0000 -1.0000 -0.0000
vn -0.0000 -0.0000 -1.0000
vn -1.0000 -0.0000 -0.0000
vn -0.0000 -0.0000 1.0000
vn 1.0000 -0.0000 -0.0000
vt -0.140000 -0.050000
vt 0.140000 -0.050000
vt 0.140000 0.050000
vt -0.140000 0.050000
vt -0.140000 -1.500000
vt -0.140000 1.500000
vt 0.140000 1.500000
vt 0.140000 -1.500000
vt -0.050000 -1.500000
vt -0.050000 1.500000
vt 0.050000 1.500000
vt 0.050000 -1.500000
s 0
usemtl Tile_metal
f 794/365/199 797/366/199 800/367/199
f 794/365/199 800/367/199 803/368/199
f 815/368/200 812/367/200 809/366/200
f 815/368/200 809/366/200 806/365/200
f 793/369/201 805/370/201 808/371/201
f 793/369/201 808/371/201 796/372/201
f 798/373/202 810/374/202 813/375/202
f 798/373/202 813/375/202 801/376/202
f 799/372/203 811/371/203 814/370/203
f 799/372/203 814/370/203 802/369/203
f 804/376/204 816/375/204 807/374/204
f 804/376/204 807/374/204 795/373/204
o HS_S_pil_0
v -0.140000 0.400000 3.850000
v -0.140000 0.400000 3.850000
v -0.140000 0.400000 3.850000
v 0.140000 0.400000 3.850000
v 0.140000 0.400000 3.850000
v 0.140000 0.400000 3.850000
v 0.140000 0.400000 3.750000
v 0.140000 0.400000 3.750000
v 0.140000 0.400000 3.750000
v -0.140000 0.400000 3.750000
v -0.140000 0.400000 3.750000
v -0.140000 0.400000 3.750000
v -0.140000 3.400000 3.850000
v -0.140000 3.400000 3.850000
v -0.140000 3.400000 3.850000
v 0.140000 3.400000 3.850000
v 0.140000 3.400000 3.850000
v 0.140000 3.400000 3.850000
v 0.140000 3.400000 3.750000
v 0.140000 3.400000 3.750000
v 0.140000 3.400000 3.750000
v -0.140000 3.400000 3.750000
v -0.140000 3.400000 3.750000
v -0.140000 3.400000 3.750000
vn -0.0000 1.0000 -0.0000
vn -0.0000 -1.0000 -0.0000
vn -0.0000 -0.0000 -1.0000
vn -1.0000 -0.0000 -0.0000
vn -0.0000 -0.0000 1.0000
vn 1.0000 -0.0000 -0.0000
vt -0.140000 -0.050000
vt 0.140000 -0.050000
vt 0.140000 0.050000
vt -0.140000 0.050000
vt -0.140000 -1.500000
vt -0.140000 1.500000
vt 0.140000 1.500000
vt 0.140000 -1.500000
vt -0.050000 -1.500000
vt -0.050000 1.500000
vt 0.050000 1.500000
vt 0.050000 -1.500000
s 0
usemtl Tile_metal
f 818/377/205 821/378/205 824/379/205
f 818/377/205 824/379/205 827/380/205
f 839/380/206 836/379/206 833/378/206
f 839/380/206 833/378/206 830/377/206
f 817/381/207 829/382/207 832/383/207
f 817/381/207 832/383/207 820/384/207
f 822/385/208 834/386/208 837/387/208
f 822/385/208 837/387/208 825/388/208
f 823/384/209 835/383/209 838/382/209
f 823/384/209 838/382/209 826/381/209
f 828/388/210 840/387/210 831/386/210
f 828/388/210 831/386/210 819/385/210
o HS_S_pil_2
v 1.860000 0.400000 3.850000
v 1.860000 0.400000 3.850000
v 1.860000 0.400000 3.850000
v 2.140000 0.400000 3.850000
v 2.140000 0.400000 3.850000
v 2.140000 0.400000 3.850000
v 2.140000 0.400000 3.750000
v 2.140000 0.400000 3.750000
v 2.140000 0.400000 3.750000
v 1.860000 0.400000 3.750000
v 1.860000 0.400000 3.750000
v 1.860000 0.400000 3.750000
v 1.860000 3.400000 3.850000
v 1.860000 3.400000 3.850000
v 1.860000 3.400000 3.850000
v 2.140000 3.400000 3.850000
v 2.140000 3.400000 3.850000
v 2.140000 3.400000 3.850000
v 2.140000 3.400000 3.750000
v 2.140000 3.400000 3.750000
v 2.140000 3.400000 3.750000
v 1.860000 3.400000 3.750000
v 1.860000 3.400000 3.750000
v 1.860000 3.400000 3.750000
vn -0.0000 1.0000 -0.0000
vn -0.0000 -1.0000 -0.0000
vn -0.0000 -0.0000 -1.0000
vn -1.0000 -0.0000 -0.0000
vn -0.0000 -0.0000 1.0000
vn 1.0000 -0.0000 -0.0000
vt -0.140000 -0.050000
vt 0.140000 -0.050000
vt 0.140000 0.050000
vt -0.140000 0.050000
vt -0.140000 -1.500000
vt -0.140000 1.500000
vt 0.140000 1.500000
vt 0.140000 -1.500000
vt -0.050000 -1.500000
vt -0.050000 1.500000
vt 0.050000 1.500000
vt 0.050000 -1.500000
s 0
usemtl Tile_metal
f 842/389/211 845/390/211 848/391/211
f 842/389/211 848/391/211 851/392/211
f 863/392/212 860/391/212 857/390/212
f 863/392/212 857/390/212 854/389/212
f 841/393/213 853/394/213 856/395/213
f 841/393/213 856/395/213 844/396/213
f 846/397/214 858/398/214 861/399/214
f 846/397/214 861/399/214 849/400/214
f 847/396/215 859/395/215 862/394/215
f 847/396/215 862/394/215 850/393/215
f 852/400/216 864/399/216 855/398/216
f 852/400/216 855/398/216 843/397/216
o HS_N_pil_-2
v -2.140000 0.400000 -3.750000
v -2.140000 0.400000 -3.750000
v -2.140000 0.400000 -3.750000
v -1.860000 0.400000 -3.750000
v -1.860000 0.400000 -3.750000
v -1.860000 0.400000 -3.750000
v -1.860000 0.400000 -3.850000
v -1.860000 0.400000 -3.850000
v -1.860000 0.400000 -3.850000
v -2.140000 0.400000 -3.850000
v -2.140000 0.400000 -3.850000
v -2.140000 0.400000 -3.850000
v -2.140000 3.400000 -3.750000
v -2.140000 3.400000 -3.750000
v -2.140000 3.400000 -3.750000
v -1.860000 3.400000 -3.750000
v -1.860000 3.400000 -3.750000
v -1.860000 3.400000 -3.750000
v -1.860000 3.400000 -3.850000
v -1.860000 3.400000 -3.850000
v -1.860000 3.400000 -3.850000
v -2.140000 3.400000 -3.850000
v -2.140000 3.400000 -3.850000
v -2.140000 3.400000 -3.850000
vn -0.0000 1.0000 -0.0000
vn -0.0000 -1.0000 -0.0000
vn -0.0000 -0.0000 -1.0000
vn -1.0000 -0.0000 -0.0000
vn -0.0000 -0.0000 1.0000
vn 1.0000 -0.0000 -0.0000
vt -0.140000 -0.050000
vt 0.140000 -0.050000
vt 0.140000 0.050000
vt -0.140000 0.050000
vt -0.140000 -1.500000
vt -0.140000 1.500000
vt 0.140000 1.500000
vt 0.140000 -1.500000
vt -0.050000 -1.500000
vt -0.050000 1.500000
vt 0.050000 1.500000
vt 0.050000 -1.500000
s 0
usemtl Tile_metal
f 866/401/217 869/402/217 872/403/217
f 866/401/217 872/403/217 875/404/217
f 887/404/218 884/403/218 881/402/218
f 887/404/218 881/402/218 878/401/218
f 865/405/219 877/406/219 880/407/219
f 865/405/219 880/407/219 868/408/219
f 870/409/220 882/410/220 885/411/220
f 870/409/220 885/411/220 873/412/220
f 871/408/221 883/407/221 886/406/221
f 871/408/221 886/406/221 874/405/221
f 876/412/222 888/411/222 879/410/222
f 876/412/222 879/410/222 867/409/222
o HS_N_pil_0
v -0.140000 0.400000 -3.750000
v -0.140000 0.400000 -3.750000
v -0.140000 0.400000 -3.750000
v 0.140000 0.400000 -3.750000
v 0.140000 0.400000 -3.750000
v 0.140000 0.400000 -3.750000
v 0.140000 0.400000 -3.850000
v 0.140000 0.400000 -3.850000
v 0.140000 0.400000 -3.850000
v -0.140000 0.400000 -3.850000
v -0.140000 0.400000 -3.850000
v -0.140000 0.400000 -3.850000
v -0.140000 3.400000 -3.750000
v -0.140000 3.400000 -3.750000
v -0.140000 3.400000 -3.750000
v 0.140000 3.400000 -3.750000
v 0.140000 3.400000 -3.750000
v 0.140000 3.400000 -3.750000
v 0.140000 3.400000 -3.850000
v 0.140000 3.400000 -3.850000
v 0.140000 3.400000 -3.850000
v -0.140000 3.400000 -3.850000
v -0.140000 3.400000 -3.850000
v -0.140000 3.400000 -3.850000
vn -0.0000 1.0000 -0.0000
vn -0.0000 -1.0000 -0.0000
vn -0.0000 -0.0000 -1.0000
vn -1.0000 -0.0000 -0.0000
vn -0.0000 -0.0000 1.0000
vn 1.0000 -0.0000 -0.0000
vt -0.140000 -0.050000
vt 0.140000 -0.050000
vt 0.140000 0.050000
vt -0.140000 0.050000
vt -0.140000 -1.500000
vt -0.140000 1.500000
vt 0.140000 1.500000
vt 0.140000 -1.500000
vt -0.050000 -1.500000
vt -0.050000 1.500000
vt 0.050000 1.500000
vt 0.050000 -1.500000
s 0
usemtl Tile_metal
f 890/413/223 893/414/223 896/415/223
f 890/413/223 896/415/223 899/416/223
f 911/416/224 908/415/224 905/414/224
f 911/416/224 905/414/224 902/413/224
f 889/417/225 901/418/225 904/419/225
f 889/417/225 904/419/225 892/420/225
f 894/421/226 906/422/226 909/423/226
f 894/421/226 909/423/226 897/424/226
f 895/420/227 907/419/227 910/418/227
f 895/420/227 910/418/227 898/417/227
f 900/424/228 912/423/228 903/422/228
f 900/424/228 903/422/228 891/421/228
o HS_N_pil_2
v 1.860000 0.400000 -3.750000
v 1.860000 0.400000 -3.750000
v 1.860000 0.400000 -3.750000
v 2.140000 0.400000 -3.750000
v 2.140000 0.400000 -3.750000
v 2.140000 0.400000 -3.750000
v 2.140000 0.400000 -3.850000
v 2.140000 0.400000 -3.850000
v 2.140000 0.400000 -3.850000
v 1.860000 0.400000 -3.850000
v 1.860000 0.400000 -3.850000
v 1.860000 0.400000 -3.850000
v 1.860000 3.400000 -3.750000
v 1.860000 3.400000 -3.750000
v 1.860000 3.400000 -3.750000
v 2.140000 3.400000 -3.750000
v 2.140000 3.400000 -3.750000
v 2.140000 3.400000 -3.750000
v 2.140000 3.400000 -3.850000
v 2.140000 3.400000 -3.850000
v 2.140000 3.400000 -3.850000
v 1.860000 3.400000 -3.850000
v 1.860000 3.400000 -3.850000
v 1.860000 3.400000 -3.850000
vn -0.0000 1.0000 -0.0000
vn -0.0000 -1.0000 -0.0000
vn -0.0000 -0.0000 -1.0000
vn -1.0000 -0.0000 -0.0000
vn -0.0000 -0.0000 1.0000
vn 1.0000 -0.0000 -0.0000
vt -0.140000 -0.050000
vt 0.140000 -0.050000
vt 0.140000 0.050000
vt -0.140000 0.050000
vt -0.140000 -1.500000
vt -0.140000 1.500000
vt 0.140000 1.500000
vt 0.140000 -1.500000
vt -0.050000 -1.500000
vt -0.050000 1.500000
vt 0.050000 1.500000
vt 0.050000 -1.500000
s 0
usemtl Tile_metal
f 914/425/229 917/426/229 920/427/229
f 914/425/229 920/427/229 923/428/229
f 935/428/230 932/427/230 929/426/230
f 935/428/230 929/426/230 926/425/230
f 913/429/231 925/430/231 928/431/231
f 913/429/231 928/431/231 916/432/231
f 918/433/232 930/434/232 933/435/232
f 918/433/232 933/435/232 921/436/232
f 919/432/233 931/431/233 934/430/233
f 919/432/233 934/430/233 922/429/233
f 924/436/234 936/435/234 927/434/234
f 924/436/234 927/434/234 915/433/234
o HS_Pipe_0
v -3.700000 2.920000 -3.550000
v -3.700000 2.920000 -3.550000
v -3.700000 2.920000 -3.550000
v -3.700000 2.958076 -3.641924
v -3.700000 2.958076 -3.641924
v -3.700000 2.958076 -3.641924
v -3.700000 3.050000 -3.680000
v -3.700000 3.050000 -3.680000
v -3.700000 3.050000 -3.680000
v -3.700000 3.141924 -3.641924
v -3.700000 3.141924 -3.641924
v -3.700000 3.141924 -3.641924
v -3.700000 3.180000 -3.550000
v -3.700000 3.180000 -3.550000
v -3.700000 3.180000 -3.550000
v -3.700000 3.141924 -3.458076
v -3.700000 3.141924 -3.458076
v -3.700000 3.141924 -3.458076
v -3.700000 3.050000 -3.420000
v -3.700000 3.050000 -3.420000
v -3.700000 3.050000 -3.420000
v -3.700000 2.958076 -3.458076
v -3.700000 2.958076 -3.458076
v -3.700000 2.958076 -3.458076
v 3.700001 2.919999 -3.550000
v 3.700001 2.919999 -3.550000
v 3.700001 2.919999 -3.550000
v 3.700001 2.958075 -3.641924
v 3.700001 2.958075 -3.641924
v 3.700001 2.958075 -3.641924
v 3.700001 3.049999 -3.680000
v 3.700001 3.049999 -3.680000
v 3.700001 3.049999 -3.680000
v 3.700001 3.141923 -3.641924
v 3.700001 3.141923 -3.641924
v 3.700001 3.141923 -3.641924
v 3.700001 3.179999 -3.550000
v 3.700001 3.179999 -3.550000
v 3.700001 3.179999 -3.550000
v 3.700001 3.141923 -3.458076
v 3.700001 3.141923 -3.458076
v 3.700001 3.141923 -3.458076
v 3.700001 3.049999 -3.420000
v 3.700001 3.049999 -3.420000
v 3.700001 3.049999 -3.420000
v 3.700001 2.958075 -3.458076
v 3.700001 2.958075 -3.458076
v 3.700001 2.958075 -3.458076
vn -0.0000 -0.9239 -0.3827
vn -0.0000 -0.3827 -0.9239
vn -0.0000 0.3827 -0.9239
vn -0.0000 0.9239 -0.3827
vn -0.0000 0.9239 0.3827
vn -0.0000 0.3827 0.9239
vn -0.0000 -0.3827 0.9239
vn -0.0000 -0.9239 0.3827
vn -1.0000 -0.0000 -0.0000
vn 1.0000 -0.0000 -0.0000
vt 0.000000 0.000000
vt 0.091924 0.000000
vt 0.091924 7.400000
vt 0.000000 7.400000
vt 0.000000 0.000000
vt 0.000000 7.400000
vt -0.091924 0.000000
vt -0.091924 7.400000
vt 0.000000 0.000000
vt 0.000000 7.400000
vt -0.000000 0.000000
vt -0.000000 7.400000
vt 0.130000 0.000000
vt 0.091924 -0.091924
vt -0.000000 -0.130000
vt -0.091924 -0.091924
vt -0.130000 0.000000
vt -0.091924 0.091924
vt 0.000000 0.130000
vt 0.091924 0.091924
s 0
usemtl Tile_metal
f 939/437/235 942/438/235 966/439/235
f 939/437/235 966/439/235 963/440/235
f 941/438/236 944/441/236 968/442/236
f 941/438/236 968/442/236 965/439/236
f 945/441/237 947/443/237 971/444/237
f 945/441/237 971/444/237 969/442/237
f 948/438/238 951/445/238 975/446/238
f 948/438/238 975/446/238 972/439/238
f 950/445/239 954/443/239 978/444/239
f 950/445/239 978/444/239 974/446/239
f 953/443/240 957/447/240 981/448/240
f 953/443/240 981/448/240 977/444/240
f 956/447/241 959/438/241 983/439/241
f 956/447/241 983/439/241 980/448/241
f 960/443/242 938/437/242 962/440/242
f 960/443/242 962/440/242 984/444/242
f 937/449/243 958/450/243 955/451/243
f 955/451/243 952/452/243 949/453/243
f 949/453/243 946/454/243 943/455/243
f 943/455/243 940/456/243 937/449/243
f 937/449/243 955/451/243 949/453/243
f 949/453/243 943/455/243 937/449/243
f 982/450/244 961/449/244 964/456/244
f 964/456/244 967/455/244 970/454/244
f 970/454/244 973/453/244 976/452/244
f 976/452/244 979/451/244 982/450/244
f 982/450/244 964/456/244 970/454/244
f 970/454/244 976/452/244 982/450/244
o HS_Pipe_1
v -3.700000 3.150000 -3.550000
v -3.700000 3.150000 -3.550000
v -3.700000 3.150000 -3.550000
v -3.700000 3.188076 -3.641924
v -3.700000 3.188076 -3.641924
v -3.700000 3.188076 -3.641924
v -3.700000 3.280000 -3.680000
v -3.700000 3.280000 -3.680000
v -3.700000 3.280000 -3.680000
v -3.700000 3.371924 -3.641924
v -3.700000 3.371924 -3.641924
v -3.700000 3.371924 -3.641924
v -3.700000 3.410000 -3.550000
v -3.700000 3.410000 -3.550000
v -3.700000 3.410000 -3.550000
v -3.700000 3.371924 -3.458076
v -3.700000 3.371924 -3.458076
v -3.700000 3.371924 -3.458076
v -3.700000 3.280000 -3.420000
v -3.700000 3.280000 -3.420000
v -3.700000 3.280000 -3.420000
v -3.700000 3.188076 -3.458076
v -3.700000 3.188076 -3.458076
v -3.700000 3.188076 -3.458076
v 3.700001 3.149999 -3.550000
v 3.700001 3.149999 -3.550000
v 3.700001 3.149999 -3.550000
v 3.700001 3.188075 -3.641924
v 3.700001 3.188075 -3.641924
v 3.700001 3.188075 -3.641924
v 3.700001 3.279999 -3.680000
v 3.700001 3.279999 -3.680000
v 3.700001 3.279999 -3.680000
v 3.700001 3.371923 -3.641924
v 3.700001 3.371923 -3.641924
v 3.700001 3.371923 -3.641924
v 3.700001 3.409999 -3.550000
v 3.700001 3.409999 -3.550000
v 3.700001 3.409999 -3.550000
v 3.700001 3.371923 -3.458076
v 3.700001 3.371923 -3.458076
v 3.700001 3.371923 -3.458076
v 3.700001 3.279999 -3.420000
v 3.700001 3.279999 -3.420000
v 3.700001 3.279999 -3.420000
v 3.700001 3.188075 -3.458076
v 3.700001 3.188075 -3.458076
v 3.700001 3.188075 -3.458076
vn -0.0000 -0.9239 -0.3827
vn -0.0000 -0.3827 -0.9239
vn -0.0000 0.3827 -0.9239
vn -0.0000 0.9239 -0.3827
vn -0.0000 0.9239 0.3827
vn -0.0000 0.3827 0.9239
vn -0.0000 -0.3827 0.9239
vn -0.0000 -0.9239 0.3827
vn -1.0000 -0.0000 -0.0000
vn 1.0000 -0.0000 -0.0000
vt 0.000000 0.000000
vt 0.091924 0.000000
vt 0.091924 7.400000
vt 0.000000 7.400000
vt 0.000000 0.000000
vt 0.000000 7.400000
vt -0.091924 0.000000
vt -0.091924 7.400000
vt 0.000000 0.000000
vt 0.000000 7.400000
vt -0.000000 0.000000
vt -0.000000 7.400000
vt 0.130000 0.000000
vt 0.091924 -0.091924
vt -0.000000 -0.130000
vt -0.091924 -0.091924
vt -0.130000 0.000000
vt -0.091924 0.091924
vt 0.000000 0.130000
vt 0.091924 0.091924
s 0
usemtl Tile_metal
f 987/457/245 990/458/245 1014/459/245
f 987/457/245 1014/459/245 1011/460/245
f 989/458/246 992/461/246 1016/462/246
f 989/458/246 1016/462/246 1013/459/246
f 993/461/247 995/463/247 1019/464/247
f 993/461/247 1019/464/247 1017/462/247
f 996/458/248 999/465/248 1023/466/248
f 996/458/248 1023/466/248 1020/459/248
f 998/465/249 1002/463/249 1026/464/249
f 998/465/249 1026/464/249 1022/466/249
f 1001/463/250 1005/467/250 1029/468/250
f 1001/463/250 1029/468/250 1025/464/250
f 1004/467/251 1007/458/251 1031/459/251
f 1004/467/251 1031/459/251 1028/468/251
f 1008/463/252 986/457/252 1010/460/252
f 1008/463/252 1010/460/252 1032/464/252
f 985/469/253 1006/470/253 1003/471/253
f 1003/471/253 1000/472/253 997/473/253
f 997/473/253 994/474/253 991/475/253
f 991/475/253 988/476/253 985/469/253
f 985/469/253 1003/471/253 997/473/253
f 997/473/253 991/475/253 985/469/253
f 1030/470/254 1009/469/254 1012/476/254
f 1012/476/254 1015/475/254 1018/474/254
f 1018/474/254 1021/473/254 1024/472/254
f 1024/472/254 1027/471/254 1030/470/254
f 1030/470/254 1012/476/254 1018/474/254
f 1018/474/254 1024/472/254 1030/470/254
o HS_Vent
v 0.900000 0.750000 3.860000
v 0.900000 0.750000 3.860000
v 0.900000 0.750000 3.860000
v 2.300000 0.750000 3.860000
v 2.300000 0.750000 3.860000
v 2.300000 0.750000 3.860000
v 2.300000 0.750000 3.700000
v 2.300000 0.750000 3.700000
v 2.300000 0.750000 3.700000
v 0.900000 0.750000 3.700000
v 0.900000 0.750000 3.700000
v 0.900000 0.750000 3.700000
v 0.900000 1.850000 3.860000
v 0.900000 1.850000 3.860000
v 0.900000 1.850000 3.860000
v 2.300000 1.850000 3.860000
v 2.300000 1.850000 3.860000
v 2.300000 1.850000 3.860000
v 2.300000 1.850000 3.700000
v 2.300000 1.850000 3.700000
v 2.300000 1.850000 3.700000
v 0.900000 1.850000 3.700000
v 0.900000 1.850000 3.700000
v 0.900000 1.850000 3.700000
vn -0.0000 1.0000 -0.0000
vn -0.0000 -1.0000 -0.0000
vn -0.0000 -0.0000 -1.0000
vn -1.0000 -0.0000 -0.0000
vn -0.0000 -0.0000 1.0000
vn 1.0000 -0.0000 -0.0000
vt -0.700000 -0.080000
vt 0.700000 -0.080000
vt 0.700000 0.080000
vt -0.700000 0.080000
vt -0.700000 -0.550000
vt -0.700000 0.550000
vt 0.700000 0.550000
vt 0.700000 -0.550000
vt -0.080000 -0.550000
vt -0.080000 0.550000
vt 0.080000 0.550000
vt 0.080000 -0.550000
s 0
usemtl Tile_grate
f 1034/477/255 1037/478/255 1040/479/255
f 1034/477/255 1040/479/255 1043/480/255
f 1055/480/256 1052/479/256 1049/478/256
f 1055/480/256 1049/478/256 1046/477/256
f 1033/481/257 1045/482/257 1048/483/257
f 1033/481/257 1048/483/257 1036/484/257
f 1038/485/258 1050/486/258 1053/487/258
f 1038/485/258 1053/487/258 1041/488/258
f 1039/484/259 1051/483/259 1054/482/259
f 1039/484/259 1054/482/259 1042/481/259
f 1044/488/260 1056/487/260 1047/486/260
f 1044/488/260 1047/486/260 1035/485/260
o HS_VentFrame
v 0.750000 0.600000 3.850000
v 0.750000 0.600000 3.850000
v 0.750000 0.600000 3.850000
v 2.450000 0.600000 3.850000
v 2.450000 0.600000 3.850000
v 2.450000 0.600000 3.850000
v 2.450000 0.600000 3.750000
v 2.450000 0.600000 3.750000
v 2.450000 0.600000 3.750000
v 0.750000 0.600000 3.750000
v 0.750000 0.600000 3.750000
v 0.750000 0.600000 3.750000
v 0.750000 2.000000 3.850000
v 0.750000 2.000000 3.850000
v 0.750000 2.000000 3.850000
v 2.450000 2.000000 3.850000
v 2.450000 2.000000 3.850000
v 2.450000 2.000000 3.850000
v 2.450000 2.000000 3.750000
v 2.450000 2.000000 3.750000
v 2.450000 2.000000 3.750000
v 0.750000 2.000000 3.750000
v 0.750000 2.000000 3.750000
v 0.750000 2.000000 3.750000
vn -0.0000 1.0000 -0.0000
vn -0.0000 -1.0000 -0.0000
vn -0.0000 -0.0000 -1.0000
vn -1.0000 -0.0000 -0.0000
vn -0.0000 -0.0000 1.0000
vn 1.0000 -0.0000 -0.0000
vt -0.850000 -0.050000
vt 0.850000 -0.050000
vt 0.850000 0.050000
vt -0.850000 0.050000
vt -0.850000 -0.700000
vt -0.850000 0.700000
vt 0.850000 0.700000
vt 0.850000 -0.700000
vt -0.050000 -0.700000
vt -0.050000 0.700000
vt 0.050000 0.700000
vt 0.050000 -0.700000
s 0
usemtl Tile_metal
f 1058/489/261 1061/490/261 1064/491/261
f 1058/489/261 1064/491/261 1067/492/261
f 1079/492/262 1076/491/262 1073/490/262
f 1079/492/262 1073/490/262 1070/489/262
f 1057/493/263 1069/494/263 1072/495/263
f 1057/493/263 1072/495/263 1060/496/263
f 1062/497/264 1074/498/264 1077/499/264
f 1062/497/264 1077/499/264 1065/500/264
f 1063/496/265 1075/495/265 1078/494/265
f 1063/496/265 1078/494/265 1066/493/265
f 1068/500/266 1080/499/266 1071/498/266
f 1068/500/266 1071/498/266 1059/497/266
o HS_Beam_-1
v -4.000000 3.640000 1.775000
v -4.000000 3.640000 1.775000
v -4.000000 3.640000 1.775000
v 4.000000 3.640000 1.775000
v 4.000000 3.640000 1.775000
v 4.000000 3.640000 1.775000
v 4.000000 3.640000 1.425000
v 4.000000 3.640000 1.425000
v 4.000000 3.640000 1.425000
v -4.000000 3.640000 1.425000
v -4.000000 3.640000 1.425000
v -4.000000 3.640000 1.425000
v -4.000000 3.920000 1.775000
v -4.000000 3.920000 1.775000
v -4.000000 3.920000 1.775000
v 4.000000 3.920000 1.775000
v 4.000000 3.920000 1.775000
v 4.000000 3.920000 1.775000
v 4.000000 3.920000 1.425000
v 4.000000 3.920000 1.425000
v 4.000000 3.920000 1.425000
v -4.000000 3.920000 1.425000
v -4.000000 3.920000 1.425000
v -4.000000 3.920000 1.425000
vn -0.0000 1.0000 -0.0000
vn -0.0000 -1.0000 -0.0000
vn -0.0000 -0.0000 -1.0000
vn -1.0000 -0.0000 -0.0000
vn -0.0000 -0.0000 1.0000
vn 1.0000 -0.0000 -0.0000
vt -4.000000 -0.175000
vt 4.000000 -0.175000
vt 4.000000 0.175000
vt -4.000000 0.175000
vt -4.000000 -0.140000
vt -4.000000 0.140000
vt 4.000000 0.140000
vt 4.000000 -0.140000
vt -0.175000 -0.140000
vt -0.175000 0.140000
vt 0.175000 0.140000
vt 0.175000 -0.140000
s 0
usemtl Tile_metal
f 1082/501/267 1085/502/267 1088/503/267
f 1082/501/267 1088/503/267 1091/504/267
f 1103/504/268 1100/503/268 1097/502/268
f 1103/504/268 1097/502/268 1094/501/268
f 1081/505/269 1093/506/269 1096/507/269
f 1081/505/269 1096/507/269 1084/508/269
f 1086/509/270 1098/510/270 1101/511/270
f 1086/509/270 1101/511/270 1089/512/270
f 1087/508/271 1099/507/271 1102/506/271
f 1087/508/271 1102/506/271 1090/505/271
f 1092/512/272 1104/511/272 1095/510/272
f 1092/512/272 1095/510/272 1083/509/272
o HS_Beam_1
v -4.000000 3.640000 -1.425000
v -4.000000 3.640000 -1.425000
v -4.000000 3.640000 -1.425000
v 4.000000 3.640000 -1.425000
v 4.000000 3.640000 -1.425000
v 4.000000 3.640000 -1.425000
v 4.000000 3.640000 -1.775000
v 4.000000 3.640000 -1.775000
v 4.000000 3.640000 -1.775000
v -4.000000 3.640000 -1.775000
v -4.000000 3.640000 -1.775000
v -4.000000 3.640000 -1.775000
v -4.000000 3.920000 -1.425000
v -4.000000 3.920000 -1.425000
v -4.000000 3.920000 -1.425000
v 4.000000 3.920000 -1.425000
v 4.000000 3.920000 -1.425000
v 4.000000 3.920000 -1.425000
v 4.000000 3.920000 -1.775000
v 4.000000 3.920000 -1.775000
v 4.000000 3.920000 -1.775000
v -4.000000 3.920000 -1.775000
v -4.000000 3.920000 -1.775000
v -4.000000 3.920000 -1.775000
vn -0.0000 1.0000 -0.0000
vn -0.0000 -1.0000 -0.0000
vn -0.0000 -0.0000 -1.0000
vn -1.0000 -0.0000 -0.0000
vn -0.0000 -0.0000 1.0000
vn 1.0000 -0.0000 -0.0000
vt -4.000000 -0.175000
vt 4.000000 -0.175000
vt 4.000000 0.175000
vt -4.000000 0.175000
vt -4.000000 -0.140000
vt -4.000000 0.140000
vt 4.000000 0.140000
vt 4.000000 -0.140000
vt -0.175000 -0.140000
vt -0.175000 0.140000
vt 0.175000 0.140000
vt 0.175000 -0.140000
s 0
usemtl Tile_metal
f 1106/513/273 1109/514/273 1112/515/273
f 1106/513/273 1112/515/273 1115/516/273
f 1127/516/274 1124/515/274 1121/514/274
f 1127/516/274 1121/514/274 1118/513/274
f 1105/517/275 1117/518/275 1120/519/275
f 1105/517/275 1120/519/275 1108/520/275
f 1110/521/276 1122/522/276 1125/523/276
f 1110/521/276 1125/523/276 1113/524/276
f 1111/520/277 1123/519/277 1126/518/277
f 1111/520/277 1126/518/277 1114/517/277
f 1116/524/278 1128/523/278 1119/522/278
f 1116/524/278 1119/522/278 1107/521/278
