mtllib drink-machine.mtl
o Default
v 0 5.75 0
v 0.25 6 0
v 2.75 6 0
v 3 5.75 0
v 0 0 0
v 3 5.75 0
v 0 5.75 0
v 3 0 0
v 3 0 0
v 3 5.75 -1.75
v 3 5.75 0
v 3 0 -1.75
v 0 0 -1.75
v 0 5.75 0
v 0 5.75 -1.75
v 0 0 0
v 3 0 -1.75
v 2.75 6 -1.75
v 3 5.75 -1.75
v 2.75 0 -1.75
v 0.25 6 0
v 2.75 6 -1.75
v 0.25 6 -1.75
v 2.75 6 0
v 2.75 6 0
v 3 5.75 -1.728553295135498
v 2.75 6 -1.728553295135498
v 3 5.75 0
v -2.7755575615628914e-17 5.75 -1.728553295135498
v 0.25 6 0
v 0.25 6 -1.728553295135498
v 0 5.75 0
v 2.75 0 -1.75
v 0.25 6 -1.75
v 2.75 6 -1.75
v 0.25 0 -1.75
v 0.25 0 -1.75
v 0 5.75 -1.75
v 0.25 6 -1.75
v 0 0 -1.75
v 0 0 -1.75
v 3 0 0
v 0 0 0
v 3 0 -1.75
vt 0.15000000596046448 0.987500011920929
vt 0.2875000238418579 1
vt 0.16250000894069672 1
vt 0.30000001192092896 0.987500011920929
vt 0.15000000596046448 0.699999988079071
vt 0.30000001192092896 0.699999988079071
vt 0.4000000059604645 1
vt 0.30000001192092896 1
vt 0.4000000059604645 0.699999988079071
vt 0.05000000074505806 0.699999988079071
vt 0.15000000596046448 1
vt 0.05000000074505806 1
vt 0.44999998807907104 0.699999988079071
vt 0.4624999761581421 1
vt 0.44999998807907104 0.987500011920929
vt 0.4624999761581421 0.699999988079071
vt 0 0.75
vt 0.05000000074505806 0.800000011920929
vt 0 0.800000011920929
vt 0.05000000074505806 0.75
vt 0 0.949999988079071
vt 0 1
vt 0.05000000074505806 0.949999988079071
vt 0.5875000357627869 1
vt 0.5875000357627869 0.699999988079071
vt 0.6000000238418579 0.987500011920929
vt 0.5875000357627869 0.987500011920929
vt 0.6000000238418579 0.699999988079071
vt 0 0.699999988079071
vn 0 0 1
vn 1 0 0
vn -1 0 0
vn 0 0 -1
vn 0 1 0
vn 0.70710678 0.70710678 0
vn -0.70710678 0.70710678 0
vn 0 -1 0
g Scene
usemtl aster-sim
f 1/1/1 3/2/1 2/3/1
f 1/1/1 4/4/1 3/2/1
f 5/5/1 6/4/1 7/1/1
f 5/5/1 8/6/1 6/4/1
f 9/6/2 10/7/2 11/8/2
f 9/6/2 12/9/2 10/7/2
f 13/10/3 14/11/3 15/12/3
f 13/10/3 16/5/3 14/11/3
f 17/13/4 18/14/4 19/15/4
f 17/13/4 20/16/4 18/14/4
f 21/17/5 22/18/5 23/19/5
f 21/17/5 24/20/5 22/18/5
f 25/21/6 26/12/6 27/22/6
f 25/21/6 28/23/6 26/12/6
f 29/21/7 30/12/7 31/22/7
f 29/21/7 32/23/7 30/12/7
f 33/16/4 34/24/4 35/14/4
f 33/16/4 36/25/4 34/24/4
f 37/25/4 38/26/4 39/27/4
f 37/25/4 40/28/4 38/26/4
f 41/29/8 42/20/8 43/17/8
f 41/29/8 44/10/8 42/20/8
