{"asset":{"version":"2.0","generator":"THREE.GLTFExporter"},"scenes":[{"name":"default","nodes":[0]}],"scene":0,"nodes":[{"mesh":0}],"bufferViews":[{"buffer":0,"byteOffset":0,"byteLength":5184,"target":34962,"byteStride":12},{"buffer":0,"byteOffset":5184,"byteLength":5184,"target":34962,"byteStride":12},{"buffer":0,"byteOffset":10368,"byteLength":3456,"target":34962,"byteStride":8},{"buffer":0,"byteOffset":13824,"byteLength":864,"target":34963}],"buffers":[{"byteLength":14688,"uri":"data:application/octet-stream;base64,"}],"accessors":[{"bufferView":0,"componentType":5126,"count":432,"max":[3.5,3.5,0],"min":[-1.5,-0.0625,-3.5],"type":"VEC3"},{"bufferView":1,"componentType":5126,"count":432,"max":[1,1,1],"min":[-1,-1,-1],"type":"VEC3"},{"bufferView":2,"componentType":5126,"count":432,"max":[0.875,1],"min":[0,0],"type":"VEC2"},{"bufferView":3,"componentType":5123,"count":432,"max":[431],"min":[0],"type":"SCALAR"}],"materials":[{"pbrMetallicRoughness":{"metallicFactor":0,"roughnessFactor":1,"baseColorTexture":{"index":0}},"alphaMode":"BLEND","doubleSided":true,"name":"desk_texture_desk"}],"textures":[{"sampler":0,"source":0,"name":"desk_texture_desk"}],"samplers":[{"magFilter":9728,"minFilter":9728,"wrapS":33071,"wrapT":33071}],"images":[{"mimeType":"image/png","uri":"desk_texture_desk.png"}],"meshes":[{"primitives":[{"mode":4,"attributes":{"POSITION":0,"NORMAL":1,"TEXCOORD_0":2},"indices":3,"material":0}]}]}