{"asset":{"version":"2.0","generator":"THREE.GLTFExporter"},"scenes":[{"name":"default","nodes":[0]}],"scene":0,"nodes":[{"mesh":0}],"bufferViews":[{"buffer":0,"byteOffset":0,"byteLength":792,"target":34962,"byteStride":12},{"buffer":0,"byteOffset":792,"byteLength":792,"target":34962,"byteStride":12},{"buffer":0,"byteOffset":1584,"byteLength":528,"target":34962,"byteStride":8},{"buffer":0,"byteOffset":2112,"byteLength":132,"target":34963}],"buffers":[{"byteLength":2244,"uri":"data:application/octet-stream;base64,"}],"accessors":[{"bufferView":0,"componentType":5126,"count":66,"max":[3,6,0],"min":[-2.7755575615628914e-17,0,-1.75],"type":"VEC3"},{"bufferView":1,"componentType":5126,"count":66,"max":[1,1,1],"min":[-1,-1,-1],"type":"VEC3"},{"bufferView":2,"componentType":5126,"count":66,"max":[0.6000000238418579,0.30000001192092896],"min":[0,0],"type":"VEC2"},{"bufferView":3,"componentType":5123,"count":66,"max":[65],"min":[0],"type":"SCALAR"}],"materials":[{"pbrMetallicRoughness":{"metallicFactor":0,"roughnessFactor":1,"baseColorTexture":{"index":0}},"alphaMode":"MASK","alphaCutoff":0.01,"name":"drink-machine_aster-sim"}],"textures":[{"sampler":0,"source":0,"name":"drink-machine_aster-sim"}],"samplers":[{"magFilter":9728,"minFilter":9728,"wrapS":33071,"wrapT":33071}],"images":[{"mimeType":"image/png","uri":"drink-machine_aster-sim.png"}],"meshes":[{"primitives":[{"mode":4,"attributes":{"POSITION":0,"NORMAL":1,"TEXCOORD_0":2},"indices":3,"material":0}]}]}