mtllib garden_root_pavilion_structure.mtl
usemtl baked
v -2.900000 0.430000 2.600000
v 2.900000 0.430000 2.600000
v -2.900000 0.010000 2.600000
v 2.900000 0.430000 2.600000
v 2.900000 0.010000 2.600000
v -2.900000 0.010000 2.600000
v 2.900000 0.430000 -2.600000
v -2.900000 0.430000 -2.600000
v 2.900000 0.010000 -2.600000
v -2.900000 0.430000 -2.600000
v -2.900000 0.010000 -2.600000
v 2.900000 0.010000 -2.600000
v 2.900000 0.430000 2.600000
v 2.900000 0.430000 -2.600000
v 2.900000 0.010000 2.600000
v 2.900000 0.430000 -2.600000
v 2.900000 0.010000 -2.600000
v 2.900000 0.010000 2.600000
v -2.900000 0.430000 -2.600000
v -2.900000 0.430000 2.600000
v -2.900000 0.010000 -2.600000
v -2.900000 0.430000 2.600000
v -2.900000 0.010000 2.600000
v -2.900000 0.010000 -2.600000
v 2.900000 0.430000 2.600000
v -2.900000 0.430000 2.600000
v 2.900000 0.430000 -2.600000
v -2.900000 0.430000 2.600000
v -2.900000 0.430000 -2.600000
v 2.900000 0.430000 -2.600000
v -2.900000 0.010000 2.600000
v 2.900000 0.010000 2.600000
v -2.900000 0.010000 -2.600000
v 2.900000 0.010000 2.600000
v 2.900000 0.010000 -2.600000
v -2.900000 0.010000 -2.600000
v -1.948162 3.982411 -1.424463
v -1.753329 3.970568 -1.519140
v -2.008897 3.224088 -1.420785
v -1.753329 3.970568 -1.519140
v -1.787567 3.210634 -1.528338
v -2.008897 3.224088 -1.420785
v -1.753329 3.970568 -1.519140
v -1.705209 3.975171 -1.730628
v -1.787567 3.210634 -1.528338
v -1.705209 3.975171 -1.730628
v -1.732903 3.215863 -1.768588
v -1.787567 3.210634 -1.528338
v -1.705209 3.975171 -1.730628
v -1.840038 3.992754 -1.899672
v -1.732903 3.215863 -1.768588
v -1.840038 3.992754 -1.899672
v -1.886068 3.235838 -1.960622
v -1.732903 3.215863 -1.768588
v -1.840038 3.992754 -1.899672
v -2.056286 4.010077 -1.898979
v -1.886068 3.235838 -1.960622
v -2.056286 4.010077 -1.898979
v -2.131726 3.255517 -1.959835
v -1.886068 3.235838 -1.960622
v -2.056286 4.010077 -1.898979
v -2.191114 4.014095 -1.729070
v -2.131726 3.255517 -1.959835
v -2.191114 4.014095 -1.729070
v -2.284891 3.260081 -1.766819
v -2.131726 3.255517 -1.959835
v -2.191114 4.014095 -1.729070
v -2.142995 4.001782 -1.517891
v -2.284891 3.260081 -1.766819
v -2.142995 4.001782 -1.517891
v -2.230227 3.246094 -1.526919
v -2.284891 3.260081 -1.766819
v -2.142995 4.001782 -1.517891
v -1.948162 3.982411 -1.424463
v -2.230227 3.246094 -1.526919
v -1.948162 3.982411 -1.424463
v -2.008897 3.224088 -1.420785
v -2.230227 3.246094 -1.526919
v -2.008897 3.224088 -1.420785
v -1.787567 3.210634 -1.528338
v -2.069632 2.465765 -1.417107
v -1.787567 3.210634 -1.528338
v -1.821805 2.450700 -1.537536
v -2.069632 2.465765 -1.417107
v -1.787567 3.210634 -1.528338
v -1.732903 3.215863 -1.768588
v -1.821805 2.450700 -1.537536
v -1.732903 3.215863 -1.768588
v -1.760597 2.456555 -1.806548
v -1.821805 2.450700 -1.537536
v -1.732903 3.215863 -1.768588
v -1.886068 3.235838 -1.960622
v -1.760597 2.456555 -1.806548
v -1.886068 3.235838 -1.960622
v -1.932099 2.478921 -2.021573
v -1.760597 2.456555 -1.806548
v -1.886068 3.235838 -1.960622
v -2.131726 3.255517 -1.959835
v -1.932099 2.478921 -2.021573
v -2.131726 3.255517 -1.959835
v -2.207166 2.500956 -2.020691
v -1.932099 2.478921 -2.021573
v -2.131726 3.255517 -1.959835
v -2.284891 3.260081 -1.766819
v -2.207166 2.500956 -2.020691
v -2.284891 3.260081 -1.766819
v -2.378668 2.506067 -1.804567
v -2.207166 2.500956 -2.020691
v -2.284891 3.260081 -1.766819
v -2.230227 3.246094 -1.526919
v -2.378668 2.506067 -1.804567
v -2.230227 3.246094 -1.526919
v -2.317460 2.490406 -1.535947
v -2.378668 2.506067 -1.804567
v -2.230227 3.246094 -1.526919
v -2.008897 3.224088 -1.420785
v -2.317460 2.490406 -1.535947
v -2.008897 3.224088 -1.420785
v -2.069632 2.465765 -1.417107
v -2.317460 2.490406 -1.535947
v -2.069632 2.465765 -1.417107
v -1.821805 2.450700 -1.537536
v -2.130368 1.707442 -1.413429
v -1.821805 2.450700 -1.537536
v -1.856043 1.690767 -1.546734
v -2.130368 1.707442 -1.413429
v -1.821805 2.450700 -1.537536
v -1.760597 2.456555 -1.806548
v -1.856043 1.690767 -1.546734
v -1.760597 2.456555 -1.806548
v -1.788291 1.697248 -1.844509
v -1.856043 1.690767 -1.546734
v -1.760597 2.456555 -1.806548
v -1.932099 2.478921 -2.021573
v -1.788291 1.697248 -1.844509
v -1.932099 2.478921 -2.021573
v -1.978129 1.722005 -2.082523
v -1.788291 1.697248 -1.844509
v -1.932099 2.478921 -2.021573
v -2.207166 2.500956 -2.020691
v -1.978129 1.722005 -2.082523
v -2.207166 2.500956 -2.020691
v -2.282606 1.746396 -2.081547
v -1.978129 1.722005 -2.082523
v -2.207166 2.500956 -2.020691
v -2.378668 2.506067 -1.804567
v -2.282606 1.746396 -2.081547
v -2.378668 2.506067 -1.804567
v -2.472445 1.752053 -1.842315
v -2.282606 1.746396 -2.081547
v -2.378668 2.506067 -1.804567
v -2.317460 2.490406 -1.535947
v -2.472445 1.752053 -1.842315
v -2.317460 2.490406 -1.535947
v -2.404692 1.734717 -1.544975
v -2.472445 1.752053 -1.842315
v -2.317460 2.490406 -1.535947
v -2.069632 2.465765 -1.417107
v -2.404692 1.734717 -1.544975
v -2.069632 2.465765 -1.417107
v -2.130368 1.707442 -1.413429
v -2.404692 1.734717 -1.544975
v -2.130368 1.707442 -1.413429
v -1.856043 1.690767 -1.546734
v -2.191103 0.949119 -1.409751
v -1.856043 1.690767 -1.546734
v -1.890281 0.930833 -1.555932
v -2.191103 0.949119 -1.409751
v -1.856043 1.690767 -1.546734
v -1.788291 1.697248 -1.844509
v -1.890281 0.930833 -1.555932
v -1.788291 1.697248 -1.844509
v -1.815984 0.937940 -1.882469
v -1.890281 0.930833 -1.555932
v -1.788291 1.697248 -1.844509
v -1.978129 1.722005 -2.082523
v -1.815984 0.937940 -1.882469
v -1.978129 1.722005 -2.082523
v -2.024159 0.965089 -2.143473
v -1.815984 0.937940 -1.882469
v -1.978129 1.722005 -2.082523
v -2.282606 1.746396 -2.081547
v -2.024159 0.965089 -2.143473
v -2.282606 1.746396 -2.081547
v -2.358046 0.991835 -2.142403
v -2.024159 0.965089 -2.143473
v -2.282606 1.746396 -2.081547
v -2.472445 1.752053 -1.842315
v -2.358046 0.991835 -2.142403
v -2.472445 1.752053 -1.842315
v -2.566221 0.998039 -1.880064
v -2.358046 0.991835 -2.142403
v -2.472445 1.752053 -1.842315
v -2.404692 1.734717 -1.544975
v -2.566221 0.998039 -1.880064
v -2.404692 1.734717 -1.544975
v -2.491924 0.979029 -1.554003
v -2.566221 0.998039 -1.880064
v -2.404692 1.734717 -1.544975
v -2.130368 1.707442 -1.413429
v -2.491924 0.979029 -1.554003
v -2.130368 1.707442 -1.413429
v -2.191103 0.949119 -1.409751
v -2.491924 0.979029 -1.554003
v -2.191103 0.949119 -1.409751
v -1.890281 0.930833 -1.555932
v -2.251838 0.190796 -1.406073
v -1.890281 0.930833 -1.555932
v -1.924519 0.170899 -1.565130
v -2.251838 0.190796 -1.406073
v -1.890281 0.930833 -1.555932
v -1.815984 0.937940 -1.882469
v -1.924519 0.170899 -1.565130
v -1.815984 0.937940 -1.882469
v -1.843678 0.178632 -1.920429
v -1.924519 0.170899 -1.565130
v -1.815984 0.937940 -1.882469
v -2.024159 0.965089 -2.143473
v -1.843678 0.178632 -1.920429
v -2.024159 0.965089 -2.143473
v -2.070189 0.208172 -2.204423
v -1.843678 0.178632 -1.920429
v -2.024159 0.965089 -2.143473
v -2.358046 0.991835 -2.142403
v -2.070189 0.208172 -2.204423
v -2.358046 0.991835 -2.142403
v -2.433486 0.237275 -2.203259
v -2.070189 0.208172 -2.204423
v -2.358046 0.991835 -2.142403
v -2.566221 0.998039 -1.880064
v -2.433486 0.237275 -2.203259
v -2.566221 0.998039 -1.880064
v -2.659998 0.244025 -1.917812
v -2.433486 0.237275 -2.203259
v -2.566221 0.998039 -1.880064
v -2.491924 0.979029 -1.554003
v -2.659998 0.244025 -1.917812
v -2.491924 0.979029 -1.554003
v -2.579157 0.223340 -1.563031
v -2.659998 0.244025 -1.917812
v -2.491924 0.979029 -1.554003
v -2.191103 0.949119 -1.409751
v -2.579157 0.223340 -1.563031
v -2.191103 0.949119 -1.409751
v -2.251838 0.190796 -1.406073
v -2.579157 0.223340 -1.563031
v -1.948162 3.992408 -1.674263
v -1.753329 3.970568 -1.519140
v -1.948162 3.982411 -1.424463
v -1.948162 3.992408 -1.674263
v -1.705209 3.975171 -1.730628
v -1.753329 3.970568 -1.519140
v -1.948162 3.992408 -1.674263
v -1.840038 3.992754 -1.899672
v -1.705209 3.975171 -1.730628
v -1.948162 3.992408 -1.674263
v -2.056286 4.010077 -1.898979
v -1.840038 3.992754 -1.899672
v -1.948162 3.992408 -1.674263
v -2.191114 4.014095 -1.729070
v -2.056286 4.010077 -1.898979
v -1.948162 3.992408 -1.674263
v -2.142995 4.001782 -1.517891
v -2.191114 4.014095 -1.729070
v -1.948162 3.992408 -1.674263
v -1.948162 3.982411 -1.424463
v -2.142995 4.001782 -1.517891
v -2.251838 0.207592 -1.825737
v -2.251838 0.190796 -1.406073
v -1.924519 0.170899 -1.565130
v -2.251838 0.207592 -1.825737
v -1.924519 0.170899 -1.565130
v -1.843678 0.178632 -1.920429
v -2.251838 0.207592 -1.825737
v -1.843678 0.178632 -1.920429
v -2.070189 0.208172 -2.204423
v -2.251838 0.207592 -1.825737
v -2.070189 0.208172 -2.204423
v -2.433486 0.237275 -2.203259
v -2.251838 0.207592 -1.825737
v -2.433486 0.237275 -2.203259
v -2.659998 0.244025 -1.917812
v -2.251838 0.207592 -1.825737
v -2.659998 0.244025 -1.917812
v -2.579157 0.223340 -1.563031
v -2.251838 0.207592 -1.825737
v -2.579157 0.223340 -1.563031
v -2.251838 0.190796 -1.406073
v 1.948162 4.000570 -1.556922
v 2.142995 4.013360 -1.651475
v 2.008897 3.244361 -1.500213
v 2.142995 4.013360 -1.651475
v 2.230227 3.258890 -1.607626
v 2.008897 3.244361 -1.500213
v 2.142995 4.013360 -1.651475
v 2.191114 4.010871 -1.862999
v 2.230227 3.258890 -1.607626
v 2.191114 4.010871 -1.862999
v 2.284891 3.256064 -1.847917
v 2.230227 3.258890 -1.607626
v 2.191114 4.010871 -1.862999
v 2.056286 3.994979 -2.032210
v 2.284891 3.256064 -1.847917
v 2.056286 3.994979 -2.032210
v 2.131726 3.238010 -2.040141
v 2.284891 3.256064 -1.847917
v 2.056286 3.994979 -2.032210
v 1.840038 3.977650 -2.031690
v 2.131726 3.238010 -2.040141
v 1.840038 3.977650 -2.031690
v 1.886068 3.218325 -2.039550
v 2.131726 3.238010 -2.040141
v 1.840038 3.977650 -2.031690
v 1.705209 3.971933 -1.861830
v 1.886068 3.218325 -2.039550
v 1.705209 3.971933 -1.861830
v 1.732903 3.211830 -1.846589
v 1.886068 3.218325 -2.039550
v 1.705209 3.971933 -1.861830
v 1.753329 3.982133 -1.650538
v 1.732903 3.211830 -1.846589
v 1.753329 3.982133 -1.650538
v 1.787567 3.223418 -1.606562
v 1.732903 3.211830 -1.846589
v 1.753329 3.982133 -1.650538
v 1.948162 4.000570 -1.556922
v 1.787567 3.223418 -1.606562
v 1.948162 4.000570 -1.556922
v 2.008897 3.244361 -1.500213
v 1.787567 3.223418 -1.606562
v 2.008897 3.244361 -1.500213
v 2.230227 3.258890 -1.607626
v 2.069632 2.488153 -1.443505
v 2.230227 3.258890 -1.607626
v 2.317460 2.504421 -1.563777
v 2.069632 2.488153 -1.443505
v 2.230227 3.258890 -1.607626
v 2.284891 3.256064 -1.847917
v 2.317460 2.504421 -1.563777
v 2.284891 3.256064 -1.847917
v 2.378668 2.501256 -1.832835
v 2.317460 2.504421 -1.563777
v 2.284891 3.256064 -1.847917
v 2.131726 3.238010 -2.040141
v 2.378668 2.501256 -1.832835
v 2.131726 3.238010 -2.040141
v 2.207166 2.481041 -2.048072
v 2.378668 2.501256 -1.832835
v 2.131726 3.238010 -2.040141
v 1.886068 3.218325 -2.039550
v 2.207166 2.481041 -2.048072
v 1.886068 3.218325 -2.039550
v 1.932099 2.458999 -2.047410
v 2.207166 2.481041 -2.048072
v 1.886068 3.218325 -2.039550
v 1.732903 3.211830 -1.846589
v 1.932099 2.458999 -2.047410
v 1.732903 3.211830 -1.846589
v 1.760597 2.451727 -1.831348
v 1.932099 2.458999 -2.047410
v 1.732903 3.211830 -1.846589
v 1.787567 3.223418 -1.606562
v 1.760597 2.451727 -1.831348
v 1.787567 3.223418 -1.606562
v 1.821805 2.464702 -1.562585
v 1.760597 2.451727 -1.831348
v 1.787567 3.223418 -1.606562
v 2.008897 3.244361 -1.500213
v 1.821805 2.464702 -1.562585
v 2.008897 3.244361 -1.500213
v 2.069632 2.488153 -1.443505
v 1.821805 2.464702 -1.562585
v 2.069632 2.488153 -1.443505
v 2.317460 2.504421 -1.563777
v 2.130368 1.731944 -1.386796
v 2.317460 2.504421 -1.563777
v 2.404692 1.749952 -1.519928
v 2.130368 1.731944 -1.386796
v 2.317460 2.504421 -1.563777
v 2.378668 2.501256 -1.832835
v 2.404692 1.749952 -1.519928
v 2.378668 2.501256 -1.832835
v 2.472445 1.746449 -1.817753
v 2.404692 1.749952 -1.519928
v 2.378668 2.501256 -1.832835
v 2.207166 2.481041 -2.048072
v 2.472445 1.746449 -1.817753
v 2.207166 2.481041 -2.048072
v 2.282606 1.724072 -2.056003
v 2.472445 1.746449 -1.817753
v 2.207166 2.481041 -2.048072
v 1.932099 2.458999 -2.047410
v 2.282606 1.724072 -2.056003
v 1.932099 2.458999 -2.047410
v 1.978129 1.699673 -2.055270
v 2.282606 1.724072 -2.056003
v 1.932099 2.458999 -2.047410
v 1.760597 2.451727 -1.831348
v 1.978129 1.699673 -2.055270
v 1.760597 2.451727 -1.831348
v 1.788290 1.691624 -1.816108
v 1.978129 1.699673 -2.055270
v 1.760597 2.451727 -1.831348
v 1.821805 2.464702 -1.562585
v 1.788290 1.691624 -1.816108
v 1.821805 2.464702 -1.562585
v 1.856043 1.705986 -1.518609
v 1.788290 1.691624 -1.816108
v 1.821805 2.464702 -1.562585
v 2.069632 2.488153 -1.443505
v 1.856043 1.705986 -1.518609
v 2.069632 2.488153 -1.443505
v 2.130368 1.731944 -1.386796
v 1.856043 1.705986 -1.518609
v 2.130368 1.731944 -1.386796
v 2.404692 1.749952 -1.519928
v 2.191103 0.975735 -1.330088
v 2.404692 1.749952 -1.519928
v 2.491924 0.995483 -1.476079
v 2.191103 0.975735 -1.330088
v 2.404692 1.749952 -1.519928
v 2.472445 1.746449 -1.817753
v 2.491924 0.995483 -1.476079
v 2.472445 1.746449 -1.817753
v 2.566221 0.991641 -1.802671
v 2.491924 0.995483 -1.476079
v 2.472445 1.746449 -1.817753
v 2.282606 1.724072 -2.056003
v 2.566221 0.991641 -1.802671
v 2.282606 1.724072 -2.056003
v 2.358046 0.967104 -2.063933
v 2.566221 0.991641 -1.802671
v 2.282606 1.724072 -2.056003
v 1.978129 1.699673 -2.055270
v 2.358046 0.967104 -2.063933
v 1.978129 1.699673 -2.055270
v 2.024159 0.940348 -2.063130
v 2.358046 0.967104 -2.063933
v 1.978129 1.699673 -2.055270
v 1.788290 1.691624 -1.816108
v 2.024159 0.940348 -2.063130
v 1.788290 1.691624 -1.816108
v 1.815984 0.931521 -1.800867
v 2.024159 0.940348 -2.063130
v 1.788290 1.691624 -1.816108
v 1.856043 1.705986 -1.518609
v 1.815984 0.931521 -1.800867
v 1.856043 1.705986 -1.518609
v 1.890281 0.947270 -1.474632
v 1.815984 0.931521 -1.800867
v 1.856043 1.705986 -1.518609
v 2.130368 1.731944 -1.386796
v 1.890281 0.947270 -1.474632
v 2.130368 1.731944 -1.386796
v 2.191103 0.975735 -1.330088
v 1.890281 0.947270 -1.474632
v 2.191103 0.975735 -1.330088
v 2.491924 0.995483 -1.476079
v 2.251838 0.219527 -1.273380
v 2.491924 0.995483 -1.476079
v 2.579157 0.241013 -1.432230
v 2.251838 0.219527 -1.273380
v 2.491924 0.995483 -1.476079
v 2.566221 0.991641 -1.802671
v 2.579157 0.241013 -1.432230
v 2.566221 0.991641 -1.802671
v 2.659998 0.236833 -1.787589
v 2.579157 0.241013 -1.432230
v 2.566221 0.991641 -1.802671
v 2.358046 0.967104 -2.063933
v 2.659998 0.236833 -1.787589
v 2.358046 0.967104 -2.063933
v 2.433486 0.210135 -2.071864
v 2.659998 0.236833 -1.787589
v 2.358046 0.967104 -2.063933
v 2.024159 0.940348 -2.063130
v 2.433486 0.210135 -2.071864
v 2.024159 0.940348 -2.063130
v 2.070189 0.181022 -2.070991
v 2.433486 0.210135 -2.071864
v 2.024159 0.940348 -2.063130
v 1.815984 0.931521 -1.800867
v 2.070189 0.181022 -2.070991
v 1.815984 0.931521 -1.800867
v 1.843678 0.171418 -1.785626
v 2.070189 0.181022 -2.070991
v 1.815984 0.931521 -1.800867
v 1.890281 0.947270 -1.474632
v 1.843678 0.171418 -1.785626
v 1.890281 0.947270 -1.474632
v 1.924519 0.188554 -1.430656
v 1.843678 0.171418 -1.785626
v 1.890281 0.947270 -1.474632
v 2.191103 0.975735 -1.330088
v 1.924519 0.188554 -1.430656
v 2.191103 0.975735 -1.330088
v 2.251838 0.219527 -1.273380
v 1.924519 0.188554 -1.430656
v 1.948162 3.993071 -1.806809
v 2.142995 4.013360 -1.651475
v 1.948162 4.000570 -1.556922
v 1.948162 3.993071 -1.806809
v 2.191114 4.010871 -1.862999
v 2.142995 4.013360 -1.651475
v 1.948162 3.993071 -1.806809
v 2.056286 3.994979 -2.032210
v 2.191114 4.010871 -1.862999
v 1.948162 3.993071 -1.806809
v 1.840038 3.977650 -2.031690
v 2.056286 3.994979 -2.032210
v 1.948162 3.993071 -1.806809
v 1.705209 3.971933 -1.861830
v 1.840038 3.977650 -2.031690
v 1.948162 3.993071 -1.806809
v 1.753329 3.982133 -1.650538
v 1.705209 3.971933 -1.861830
v 1.948162 3.993071 -1.806809
v 1.948162 4.000570 -1.556922
v 1.753329 3.982133 -1.650538
v 2.251838 0.206929 -1.693191
v 2.251838 0.219527 -1.273380
v 2.579157 0.241013 -1.432230
v 2.251838 0.206929 -1.693191
v 2.579157 0.241013 -1.432230
v 2.659998 0.236833 -1.787589
v 2.251838 0.206929 -1.693191
v 2.659998 0.236833 -1.787589
v 2.433486 0.210135 -2.071864
v 2.251838 0.206929 -1.693191
v 2.433486 0.210135 -2.071864
v 2.070189 0.181022 -2.070991
v 2.251838 0.206929 -1.693191
v 2.070189 0.181022 -2.070991
v 1.843678 0.171418 -1.785626
v 2.251838 0.206929 -1.693191
v 1.843678 0.171418 -1.785626
v 1.924519 0.188554 -1.430656
v 2.251838 0.206929 -1.693191
v 1.924519 0.188554 -1.430656
v 2.251838 0.219527 -1.273380
v -1.986068 4.005061 1.923957
v -1.790962 3.989586 1.830373
v -2.031641 3.248395 1.988267
v -1.790962 3.989586 1.830373
v -1.810000 3.230815 1.881956
v -2.031641 3.248395 1.988267
v -1.790962 3.989586 1.830373
v -1.742775 3.978236 1.619156
v -1.810000 3.230815 1.881956
v -1.742775 3.978236 1.619156
v -1.755260 3.217922 1.642013
v -1.810000 3.230815 1.881956
v -1.742775 3.978236 1.619156
v -1.877793 3.979557 1.449355
v -1.755260 3.217922 1.642013
v -1.877793 3.979557 1.449355
v -1.908640 3.219423 1.449119
v -1.755260 3.217922 1.642013
v -1.877793 3.979557 1.449355
v -2.094344 3.992556 1.448835
v -1.908640 3.219423 1.449119
v -2.094344 3.992556 1.448835
v -2.154642 3.234189 1.448528
v -1.908640 3.219423 1.449119
v -2.094344 3.992556 1.448835
v -2.229362 4.007442 1.617987
v -2.154642 3.234189 1.448528
v -2.229362 4.007442 1.617987
v -2.308022 3.251101 1.640685
v -2.154642 3.234189 1.448528
v -2.229362 4.007442 1.617987
v -2.181175 4.013008 1.829436
v -2.308022 3.251101 1.640685
v -2.181175 4.013008 1.829436
v -2.253282 3.257423 1.880891
v -2.308022 3.251101 1.640685
v -2.181175 4.013008 1.829436
v -1.986068 4.005061 1.923957
v -2.253282 3.257423 1.880891
v -1.986068 4.005061 1.923957
v -2.031641 3.248395 1.988267
v -2.253282 3.257423 1.880891
v -2.031641 3.248395 1.988267
v -1.810000 3.230815 1.881956
v -2.077214 2.491729 2.052577
v -1.810000 3.230815 1.881956
v -1.829039 2.472045 1.933539
v -2.077214 2.491729 2.052577
v -1.810000 3.230815 1.881956
v -1.755260 3.217922 1.642013
v -1.829039 2.472045 1.933539
v -1.755260 3.217922 1.642013
v -1.767744 2.457608 1.664870
v -1.829039 2.472045 1.933539
v -1.755260 3.217922 1.642013
v -1.908640 3.219423 1.449119
v -1.767744 2.457608 1.664870
v -1.908640 3.219423 1.449119
v -1.939487 2.459289 1.448883
v -1.767744 2.457608 1.664870
v -1.908640 3.219423 1.449119
v -2.154642 3.234189 1.448528
v -1.939487 2.459289 1.448883
v -2.154642 3.234189 1.448528
v -2.214940 2.475822 1.448222
v -1.939487 2.459289 1.448883
v -2.154642 3.234189 1.448528
v -2.308022 3.251101 1.640685
v -2.214940 2.475822 1.448222
v -2.308022 3.251101 1.640685
v -2.386683 2.494759 1.663383
v -2.214940 2.475822 1.448222
v -2.308022 3.251101 1.640685
v -2.253282 3.257423 1.880891
v -2.386683 2.494759 1.663383
v -2.253282 3.257423 1.880891
v -2.325389 2.501838 1.932346
v -2.386683 2.494759 1.663383
v -2.253282 3.257423 1.880891
v -2.031641 3.248395 1.988267
v -2.325389 2.501838 1.932346
v -2.031641 3.248395 1.988267
v -2.077214 2.491729 2.052577
v -2.325389 2.501838 1.932346
v -2.077214 2.491729 2.052577
v -1.829039 2.472045 1.933539
v -2.122786 1.735063 2.116887
v -1.829039 2.472045 1.933539
v -1.848077 1.713274 1.985121
v -2.122786 1.735063 2.116887
v -1.829039 2.472045 1.933539
v -1.767744 2.457608 1.664870
v -1.848077 1.713274 1.985121
v -1.767744 2.457608 1.664870
v -1.780229 1.697293 1.687727
v -1.848077 1.713274 1.985121
v -1.767744 2.457608 1.664870
v -1.939487 2.459289 1.448883
v -1.780229 1.697293 1.687727
v -1.939487 2.459289 1.448883
v -1.970334 1.699154 1.448647
v -1.780229 1.697293 1.687727
v -1.939487 2.459289 1.448883
v -2.214940 2.475822 1.448222
v -1.970334 1.699154 1.448647
v -2.214940 2.475822 1.448222
v -2.275239 1.717456 1.447915
v -1.970334 1.699154 1.448647
v -2.214940 2.475822 1.448222
v -2.386683 2.494759 1.663383
v -2.275239 1.717456 1.447915
v -2.386683 2.494759 1.663383
v -2.465343 1.738417 1.686081
v -2.275239 1.717456 1.447915
v -2.386683 2.494759 1.663383
v -2.325389 2.501838 1.932346
v -2.465343 1.738417 1.686081
v -2.325389 2.501838 1.932346
v -2.397496 1.746253 1.983802
v -2.465343 1.738417 1.686081
v -2.325389 2.501838 1.932346
v -2.077214 2.491729 2.052577
v -2.397496 1.746253 1.983802
v -2.077214 2.491729 2.052577
v -2.122786 1.735063 2.116887
v -2.397496 1.746253 1.983802
v -2.122786 1.735063 2.116887
v -1.848077 1.713274 1.985121
v -2.168359 0.978397 2.181197
v -1.848077 1.713274 1.985121
v -1.867115 0.954504 2.036704
v -2.168359 0.978397 2.181197
v -1.848077 1.713274 1.985121
v -1.780229 1.697293 1.687727
v -1.867115 0.954504 2.036704
v -1.780229 1.697293 1.687727
v -1.792714 0.936979 1.710584
v -1.867115 0.954504 2.036704
v -1.780229 1.697293 1.687727
v -1.970334 1.699154 1.448647
v -1.792714 0.936979 1.710584
v -1.970334 1.699154 1.448647
v -2.001181 0.939020 1.448412
v -1.792714 0.936979 1.710584
v -1.970334 1.699154 1.448647
v -2.275239 1.717456 1.447915
v -2.001181 0.939020 1.448412
v -2.275239 1.717456 1.447915
v -2.335537 0.959089 1.447608
v -2.001181 0.939020 1.448412
v -2.275239 1.717456 1.447915
v -2.465343 1.738417 1.686081
v -2.335537 0.959089 1.447608
v -2.465343 1.738417 1.686081
v -2.544004 0.982074 1.708779
v -2.335537 0.959089 1.447608
v -2.465343 1.738417 1.686081
v -2.397496 1.746253 1.983802
v -2.544004 0.982074 1.708779
v -2.397496 1.746253 1.983802
v -2.469603 0.990668 2.035257
v -2.544004 0.982074 1.708779
v -2.397496 1.746253 1.983802
v -2.122786 1.735063 2.116887
v -2.469603 0.990668 2.035257
v -2.122786 1.735063 2.116887
v -2.168359 0.978397 2.181197
v -2.469603 0.990668 2.035257
v -2.168359 0.978397 2.181197
v -1.867115 0.954504 2.036704
v -2.213932 0.221732 2.245507
v -1.867115 0.954504 2.036704
v -1.886153 0.195733 2.088287
v -2.213932 0.221732 2.245507
v -1.867115 0.954504 2.036704
v -1.792714 0.936979 1.710584
v -1.886153 0.195733 2.088287
v -1.792714 0.936979 1.710584
v -1.805199 0.176665 1.733441
v -1.886153 0.195733 2.088287
v -1.792714 0.936979 1.710584
v -2.001181 0.939020 1.448412
v -1.805199 0.176665 1.733441
v -2.001181 0.939020 1.448412
v -2.032028 0.178885 1.448176
v -1.805199 0.176665 1.733441
v -2.001181 0.939020 1.448412
v -2.335537 0.959089 1.447608
v -2.032028 0.178885 1.448176
v -2.335537 0.959089 1.447608
v -2.395835 0.200722 1.447302
v -2.032028 0.178885 1.448176
v -2.335537 0.959089 1.447608
v -2.544004 0.982074 1.708779
v -2.395835 0.200722 1.447302
v -2.544004 0.982074 1.708779
v -2.622664 0.225732 1.731477
v -2.395835 0.200722 1.447302
v -2.544004 0.982074 1.708779
v -2.469603 0.990668 2.035257
v -2.622664 0.225732 1.731477
v -2.469603 0.990668 2.035257
v -2.541710 0.235082 2.086712
v -2.622664 0.225732 1.731477
v -2.469603 0.990668 2.035257
v -2.168359 0.978397 2.181197
v -2.541710 0.235082 2.086712
v -2.168359 0.978397 2.181197
v -2.213932 0.221732 2.245507
v -2.541710 0.235082 2.086712
v -1.986068 3.995064 1.674157
v -1.790962 3.989586 1.830373
v -1.986068 4.005061 1.923957
v -1.986068 3.995064 1.674157
v -1.742775 3.978236 1.619156
v -1.790962 3.989586 1.830373
v -1.986068 3.995064 1.674157
v -1.877793 3.979557 1.449355
v -1.742775 3.978236 1.619156
v -1.986068 3.995064 1.674157
v -2.094344 3.992556 1.448835
v -1.877793 3.979557 1.449355
v -1.986068 3.995064 1.674157
v -2.229362 4.007442 1.617987
v -2.094344 3.992556 1.448835
v -1.986068 3.995064 1.674157
v -2.181175 4.013008 1.829436
v -2.229362 4.007442 1.617987
v -1.986068 3.995064 1.674157
v -1.986068 4.005061 1.923957
v -2.181175 4.013008 1.829436
v -2.213932 0.204936 1.825843
v -2.213932 0.221732 2.245507
v -1.886153 0.195733 2.088287
v -2.213932 0.204936 1.825843
v -1.886153 0.195733 2.088287
v -1.805199 0.176665 1.733441
v -2.213932 0.204936 1.825843
v -1.805199 0.176665 1.733441
v -2.032028 0.178885 1.448176
v -2.213932 0.204936 1.825843
v -2.032028 0.178885 1.448176
v -2.395835 0.200722 1.447302
v -2.213932 0.204936 1.825843
v -2.395835 0.200722 1.447302
v -2.622664 0.225732 1.731477
v -2.213932 0.204936 1.825843
v -2.622664 0.225732 1.731477
v -2.541710 0.235082 2.086712
v -2.213932 0.204936 1.825843
v -2.541710 0.235082 2.086712
v -2.213932 0.221732 2.245507
v 1.986068 3.988229 2.056777
v 2.181175 4.002767 1.963043
v 2.031641 3.228918 2.068006
v 2.181175 4.002767 1.963043
v 2.253282 3.245434 1.961524
v 2.031641 3.228918 2.068006
v 2.181175 4.002767 1.963043
v 2.229362 4.012005 1.751722
v 2.253282 3.245434 1.961524
v 2.229362 4.012005 1.751722
v 2.308022 3.255928 1.721464
v 2.253282 3.245434 1.961524
v 2.229362 4.012005 1.751722
v 2.094344 4.008986 1.581943
v 2.308022 3.255928 1.721464
v 2.094344 4.008986 1.581943
v 2.154642 3.252497 1.528595
v 2.308022 3.255928 1.721464
v 2.094344 4.008986 1.581943
v 1.877792 3.995982 1.581553
v 2.154642 3.252497 1.528595
v 1.877792 3.995982 1.581553
v 1.908640 3.237726 1.528152
v 2.154642 3.252497 1.528595
v 1.877792 3.995982 1.581553
v 1.742775 3.982788 1.750845
v 1.908640 3.237726 1.528152
v 1.742775 3.982788 1.750845
v 1.755260 3.222737 1.720468
v 1.908640 3.237726 1.528152
v 1.742775 3.982788 1.750845
v 1.790962 3.979337 1.962340
v 1.755260 3.222737 1.720468
v 1.790962 3.979337 1.962340
v 1.810000 3.218817 1.960725
v 1.755260 3.222737 1.720468
v 1.790962 3.979337 1.962340
v 1.986068 3.988229 2.056777
v 1.810000 3.218817 1.960725
v 1.986068 3.988229 2.056777
v 2.031641 3.228918 2.068006
v 1.810000 3.218817 1.960725
v 2.031641 3.228918 2.068006
v 2.253282 3.245434 1.961524
v 2.077214 2.469607 2.079235
v 2.253282 3.245434 1.961524
v 2.325389 2.488100 1.960006
v 2.077214 2.469607 2.079235
v 2.253282 3.245434 1.961524
v 2.308022 3.255928 1.721464
v 2.325389 2.488100 1.960006
v 2.308022 3.255928 1.721464
v 2.386683 2.499850 1.691206
v 2.325389 2.488100 1.960006
v 2.308022 3.255928 1.721464
v 2.154642 3.252497 1.528595
v 2.386683 2.499850 1.691206
v 2.154642 3.252497 1.528595
v 2.214940 2.496009 1.475247
v 2.386683 2.499850 1.691206
v 2.154642 3.252497 1.528595
v 1.908640 3.237726 1.528152
v 2.214940 2.496009 1.475247
v 1.908640 3.237726 1.528152
v 1.939487 2.479470 1.474751
v 2.214940 2.496009 1.475247
v 1.908640 3.237726 1.528152
v 1.755260 3.222737 1.720468
v 1.939487 2.479470 1.474751
v 1.755260 3.222737 1.720468
v 1.767744 2.462686 1.690090
v 1.939487 2.479470 1.474751
v 1.755260 3.222737 1.720468
v 1.810000 3.218817 1.960725
v 1.767744 2.462686 1.690090
v 1.810000 3.218817 1.960725
v 1.829039 2.458297 1.959111
v 1.767744 2.462686 1.690090
v 1.810000 3.218817 1.960725
v 2.031641 3.228918 2.068006
v 1.829039 2.458297 1.959111
v 2.031641 3.228918 2.068006
v 2.077214 2.469607 2.079235
v 1.829039 2.458297 1.959111
v 2.077214 2.469607 2.079235
v 2.325389 2.488100 1.960006
v 2.122786 1.710296 2.090464
v 2.325389 2.488100 1.960006
v 2.397496 1.730766 1.958487
v 2.122786 1.710296 2.090464
v 2.325389 2.488100 1.960006
v 2.386683 2.499850 1.691206
v 2.397496 1.730766 1.958487
v 2.386683 2.499850 1.691206
v 2.465343 1.743773 1.660947
v 2.397496 1.730766 1.958487
v 2.386683 2.499850 1.691206
v 2.214940 2.496009 1.475247
v 2.465343 1.743773 1.660947
v 2.214940 2.496009 1.475247
v 2.275239 1.739521 1.421899
v 2.465343 1.743773 1.660947
v 2.214940 2.496009 1.475247
v 1.939487 2.479470 1.474751
v 2.275239 1.739521 1.421899
v 1.939487 2.479470 1.474751
v 1.970334 1.721213 1.421349
v 2.275239 1.739521 1.421899
v 1.939487 2.479470 1.474751
v 1.767744 2.462686 1.690090
v 1.970334 1.721213 1.421349
v 1.767744 2.462686 1.690090
v 1.780229 1.702635 1.659713
v 1.970334 1.721213 1.421349
v 1.767744 2.462686 1.690090
v 1.829039 2.458297 1.959111
v 1.780229 1.702635 1.659713
v 1.829039 2.458297 1.959111
v 1.848077 1.697776 1.957497
v 1.780229 1.702635 1.659713
v 1.829039 2.458297 1.959111
v 2.077214 2.469607 2.079235
v 1.848077 1.697776 1.957497
v 2.077214 2.469607 2.079235
v 2.122786 1.710296 2.090464
v 1.848077 1.697776 1.957497
v 2.122786 1.710296 2.090464
v 2.397496 1.730766 1.958487
v 2.168359 0.950985 2.101693
v 2.397496 1.730766 1.958487
v 2.469603 0.973433 1.956968
v 2.168359 0.950985 2.101693
v 2.397496 1.730766 1.958487
v 2.465343 1.743773 1.660947
v 2.469603 0.973433 1.956968
v 2.465343 1.743773 1.660947
v 2.544004 0.987695 1.630689
v 2.469603 0.973433 1.956968
v 2.465343 1.743773 1.660947
v 2.275239 1.739521 1.421899
v 2.544004 0.987695 1.630689
v 2.275239 1.739521 1.421899
v 2.335536 0.983033 1.368550
v 2.544004 0.987695 1.630689
v 2.275239 1.739521 1.421899
v 1.970334 1.721213 1.421349
v 2.335536 0.983033 1.368550
v 1.970334 1.721213 1.421349
v 2.001181 0.962957 1.367948
v 2.335536 0.983033 1.368550
v 1.970334 1.721213 1.421349
v 1.780229 1.702635 1.659713
v 2.001181 0.962957 1.367948
v 1.780229 1.702635 1.659713
v 1.792714 0.942584 1.629335
v 2.001181 0.962957 1.367948
v 1.780229 1.702635 1.659713
v 1.848077 1.697776 1.957497
v 1.792714 0.942584 1.629335
v 1.848077 1.697776 1.957497
v 1.867115 0.937256 1.955883
v 1.792714 0.942584 1.629335
v 1.848077 1.697776 1.957497
v 2.122786 1.710296 2.090464
v 1.867115 0.937256 1.955883
v 2.122786 1.710296 2.090464
v 2.168359 0.950985 2.101693
v 1.867115 0.937256 1.955883
v 2.168359 0.950985 2.101693
v 2.469603 0.973433 1.956968
v 2.213932 0.191674 2.112922
v 2.469603 0.973433 1.956968
v 2.541710 0.216099 1.955450
v 2.213932 0.191674 2.112922
v 2.469603 0.973433 1.956968
v 2.544004 0.987695 1.630689
v 2.541710 0.216099 1.955450
v 2.544004 0.987695 1.630689
v 2.622664 0.231618 1.600431
v 2.541710 0.216099 1.955450
v 2.544004 0.987695 1.630689
v 2.335536 0.983033 1.368550
v 2.622664 0.231618 1.600431
v 2.335536 0.983033 1.368550
v 2.395835 0.226545 1.315202
v 2.622664 0.231618 1.600431
v 2.335536 0.983033 1.368550
v 2.001181 0.962957 1.367948
v 2.395835 0.226545 1.315202
v 2.001181 0.962957 1.367948
v 2.032028 0.204700 1.314547
v 2.395835 0.226545 1.315202
v 2.001181 0.962957 1.367948
v 1.792714 0.942584 1.629335
v 2.032028 0.204700 1.314547
v 1.792714 0.942584 1.629335
v 1.805199 0.182533 1.598958
v 2.032028 0.204700 1.314547
v 1.792714 0.942584 1.629335
v 1.867115 0.937256 1.955883
v 1.805199 0.182533 1.598958
v 1.867115 0.937256 1.955883
v 1.886153 0.176736 1.954268
v 1.805199 0.182533 1.598958
v 1.867115 0.937256 1.955883
v 2.168359 0.950985 2.101693
v 1.886153 0.176736 1.954268
v 2.168359 0.950985 2.101693
v 2.213932 0.191674 2.112922
v 1.886153 0.176736 1.954268
v 1.986068 3.995728 1.806889
v 2.181175 4.002767 1.963043
v 1.986068 3.988229 2.056777
v 1.986068 3.995728 1.806889
v 2.229362 4.012005 1.751722
v 2.181175 4.002767 1.963043
v 1.986068 3.995728 1.806889
v 2.094344 4.008986 1.581943
v 2.229362 4.012005 1.751722
v 1.986068 3.995728 1.806889
v 1.877792 3.995982 1.581553
v 2.094344 4.008986 1.581943
v 1.986068 3.995728 1.806889
v 1.742775 3.982788 1.750845
v 1.877792 3.995982 1.581553
v 1.986068 3.995728 1.806889
v 1.790962 3.979337 1.962340
v 1.742775 3.982788 1.750845
v 1.986068 3.995728 1.806889
v 1.986068 3.988229 2.056777
v 1.790962 3.979337 1.962340
v 2.213932 0.204272 1.693111
v 2.213932 0.191674 2.112922
v 2.541710 0.216099 1.955450
v 2.213932 0.204272 1.693111
v 2.541710 0.216099 1.955450
v 2.622664 0.231618 1.600431
v 2.213932 0.204272 1.693111
v 2.622664 0.231618 1.600431
v 2.395835 0.226545 1.315202
v 2.213932 0.204272 1.693111
v 2.395835 0.226545 1.315202
v 2.032028 0.204700 1.314547
v 2.213932 0.204272 1.693111
v 2.032028 0.204700 1.314547
v 1.805199 0.182533 1.598958
v 2.213932 0.204272 1.693111
v 1.805199 0.182533 1.598958
v 1.886153 0.176736 1.954268
v 2.213932 0.204272 1.693111
v 1.886153 0.176736 1.954268
v 2.213932 0.191674 2.112922
v 0.000000 5.450000 0.850000
v 0.546369 5.450000 0.651138
v 0.000000 5.130000 1.300000
v 0.546369 5.450000 0.651138
v 0.835624 5.130000 0.995858
v 0.000000 5.130000 1.300000
v 0.546369 5.450000 0.651138
v 0.837087 5.450000 0.147601
v 0.835624 5.130000 0.995858
v 0.837087 5.450000 0.147601
v 1.280250 5.130000 0.225743
v 0.835624 5.130000 0.995858
v 0.837087 5.450000 0.147601
v 0.736122 5.450000 -0.425000
v 1.280250 5.130000 0.225743
v 0.736122 5.450000 -0.425000
v 1.125833 5.130000 -0.650000
v 1.280250 5.130000 0.225743
v 0.736122 5.450000 -0.425000
v 0.290717 5.450000 -0.798739
v 1.125833 5.130000 -0.650000
v 0.290717 5.450000 -0.798739
v 0.444626 5.130000 -1.221600
v 1.125833 5.130000 -0.650000
v 0.290717 5.450000 -0.798739
v -0.290717 5.450000 -0.798739
v 0.444626 5.130000 -1.221600
v -0.290717 5.450000 -0.798739
v -0.444626 5.130000 -1.221600
v 0.444626 5.130000 -1.221600
v -0.290717 5.450000 -0.798739
v -0.736122 5.450000 -0.425000
v -0.444626 5.130000 -1.221600
v -0.736122 5.450000 -0.425000
v -1.125833 5.130000 -0.650000
v -0.444626 5.130000 -1.221600
v -0.736122 5.450000 -0.425000
v -0.837087 5.450000 0.147601
v -1.125833 5.130000 -0.650000
v -0.837087 5.450000 0.147601
v -1.280250 5.130000 0.225743
v -1.125833 5.130000 -0.650000
v -0.837087 5.450000 0.147601
v -0.546369 5.450000 0.651138
v -1.280250 5.130000 0.225743
v -0.546369 5.450000 0.651138
v -0.835624 5.130000 0.995858
v -1.280250 5.130000 0.225743
v -0.546369 5.450000 0.651138
v 0.000000 5.450000 0.850000
v -0.835624 5.130000 0.995858
v 0.000000 5.450000 0.850000
v 0.000000 5.130000 1.300000
v -0.835624 5.130000 0.995858
v 0.000000 5.130000 1.300000
v 0.835624 5.130000 0.995858
v 0.000000 4.810000 1.750000
v 0.835624 5.130000 0.995858
v 1.124878 4.810000 1.340578
v 0.000000 4.810000 1.750000
v 0.835624 5.130000 0.995858
v 1.280250 5.130000 0.225743
v 1.124878 4.810000 1.340578
v 1.280250 5.130000 0.225743
v 1.723413 4.810000 0.303884
v 1.124878 4.810000 1.340578
v 1.280250 5.130000 0.225743
v 1.125833 5.130000 -0.650000
v 1.723413 4.810000 0.303884
v 1.125833 5.130000 -0.650000
v 1.515544 4.810000 -0.875000
v 1.723413 4.810000 0.303884
v 1.125833 5.130000 -0.650000
v 0.444626 5.130000 -1.221600
v 1.515544 4.810000 -0.875000
v 0.444626 5.130000 -1.221600
v 0.598535 4.810000 -1.644462
v 1.515544 4.810000 -0.875000
v 0.444626 5.130000 -1.221600
v -0.444626 5.130000 -1.221600
v 0.598535 4.810000 -1.644462
v -0.444626 5.130000 -1.221600
v -0.598536 4.810000 -1.644462
v 0.598535 4.810000 -1.644462
v -0.444626 5.130000 -1.221600
v -1.125833 5.130000 -0.650000
v -0.598536 4.810000 -1.644462
v -1.125833 5.130000 -0.650000
v -1.515545 4.810000 -0.875000
v -0.598536 4.810000 -1.644462
v -1.125833 5.130000 -0.650000
v -1.280250 5.130000 0.225743
v -1.515545 4.810000 -0.875000
v -1.280250 5.130000 0.225743
v -1.723413 4.810000 0.303884
v -1.515545 4.810000 -0.875000
v -1.280250 5.130000 0.225743
v -0.835624 5.130000 0.995858
v -1.723413 4.810000 0.303884
v -0.835624 5.130000 0.995858
v -1.124878 4.810000 1.340578
v -1.723413 4.810000 0.303884
v -0.835624 5.130000 0.995858
v 0.000000 5.130000 1.300000
v -1.124878 4.810000 1.340578
v 0.000000 5.130000 1.300000
v 0.000000 4.810000 1.750000
v -1.124878 4.810000 1.340578
v 0.000000 4.810000 1.750000
v 1.124878 4.810000 1.340578
v 0.000000 4.490000 2.200000
v 1.124878 4.810000 1.340578
v 1.414133 4.490000 1.685298
v 0.000000 4.490000 2.200000
v 1.124878 4.810000 1.340578
v 1.723413 4.810000 0.303884
v 1.414133 4.490000 1.685298
v 1.723413 4.810000 0.303884
v 2.166577 4.490000 0.382026
v 1.414133 4.490000 1.685298
v 1.723413 4.810000 0.303884
v 1.515544 4.810000 -0.875000
v 2.166577 4.490000 0.382026
v 1.515544 4.810000 -0.875000
v 1.905256 4.490000 -1.100000
v 2.166577 4.490000 0.382026
v 1.515544 4.810000 -0.875000
v 0.598535 4.810000 -1.644462
v 1.905256 4.490000 -1.100000
v 0.598535 4.810000 -1.644462
v 0.752444 4.490000 -2.067324
v 1.905256 4.490000 -1.100000
v 0.598535 4.810000 -1.644462
v -0.598536 4.810000 -1.644462
v 0.752444 4.490000 -2.067324
v -0.598536 4.810000 -1.644462
v -0.752445 4.490000 -2.067324
v 0.752444 4.490000 -2.067324
v -0.598536 4.810000 -1.644462
v -1.515545 4.810000 -0.875000
v -0.752445 4.490000 -2.067324
v -1.515545 4.810000 -0.875000
v -1.905256 4.490000 -1.100000
v -0.752445 4.490000 -2.067324
v -1.515545 4.810000 -0.875000
v -1.723413 4.810000 0.303884
v -1.905256 4.490000 -1.100000
v -1.723413 4.810000 0.303884
v -2.166577 4.490000 0.382026
v -1.905256 4.490000 -1.100000
v -1.723413 4.810000 0.303884
v -1.124878 4.810000 1.340578
v -2.166577 4.490000 0.382026
v -1.124878 4.810000 1.340578
v -1.414133 4.490000 1.685298
v -2.166577 4.490000 0.382026
v -1.124878 4.810000 1.340578
v 0.000000 4.810000 1.750000
v -1.414133 4.490000 1.685298
v 0.000000 4.810000 1.750000
v 0.000000 4.490000 2.200000
v -1.414133 4.490000 1.685298
v 0.000000 4.490000 2.200000
v 1.414133 4.490000 1.685298
v 0.000000 4.170000 2.650000
v 1.414133 4.490000 1.685298
v 1.703387 4.170000 2.030018
v 0.000000 4.170000 2.650000
v 1.414133 4.490000 1.685298
v 2.166577 4.490000 0.382026
v 1.703387 4.170000 2.030018
v 2.166577 4.490000 0.382026
v 2.609740 4.170000 0.460168
v 1.703387 4.170000 2.030018
v 2.166577 4.490000 0.382026
v 1.905256 4.490000 -1.100000
v 2.609740 4.170000 0.460168
v 1.905256 4.490000 -1.100000
v 2.294967 4.170000 -1.325000
v 2.609740 4.170000 0.460168
v 1.905256 4.490000 -1.100000
v 0.752444 4.490000 -2.067324
v 2.294967 4.170000 -1.325000
v 0.752444 4.490000 -2.067324
v 0.906353 4.170000 -2.490185
v 2.294967 4.170000 -1.325000
v 0.752444 4.490000 -2.067324
v -0.752445 4.490000 -2.067324
v 0.906353 4.170000 -2.490185
v -0.752445 4.490000 -2.067324
v -0.906354 4.170000 -2.490185
v 0.906353 4.170000 -2.490185
v -0.752445 4.490000 -2.067324
v -1.905256 4.490000 -1.100000
v -0.906354 4.170000 -2.490185
v -1.905256 4.490000 -1.100000
v -2.294967 4.170000 -1.325000
v -0.906354 4.170000 -2.490185
v -1.905256 4.490000 -1.100000
v -2.166577 4.490000 0.382026
v -2.294967 4.170000 -1.325000
v -2.166577 4.490000 0.382026
v -2.609740 4.170000 0.460168
v -2.294967 4.170000 -1.325000
v -2.166577 4.490000 0.382026
v -1.414133 4.490000 1.685298
v -2.609740 4.170000 0.460168
v -1.414133 4.490000 1.685298
v -1.703387 4.170000 2.030018
v -2.609740 4.170000 0.460168
v -1.414133 4.490000 1.685298
v 0.000000 4.490000 2.200000
v -1.703387 4.170000 2.030018
v 0.000000 4.490000 2.200000
v 0.000000 4.170000 2.650000
v -1.703387 4.170000 2.030018
v 0.000000 4.170000 2.650000
v 1.703387 4.170000 2.030018
v 0.000000 3.850000 3.100000
v 1.703387 4.170000 2.030018
v 1.992642 3.850000 2.374738
v 0.000000 3.850000 3.100000
v 1.703387 4.170000 2.030018
v 2.609740 4.170000 0.460168
v 1.992642 3.850000 2.374738
v 2.609740 4.170000 0.460168
v 3.052904 3.850000 0.538309
v 1.992642 3.850000 2.374738
v 2.609740 4.170000 0.460168
v 2.294967 4.170000 -1.325000
v 3.052904 3.850000 0.538309
v 2.294967 4.170000 -1.325000
v 2.684679 3.850000 -1.550000
v 3.052904 3.850000 0.538309
v 2.294967 4.170000 -1.325000
v 0.906353 4.170000 -2.490185
v 2.684679 3.850000 -1.550000
v 0.906353 4.170000 -2.490185
v 1.060262 3.850000 -2.913047
v 2.684679 3.850000 -1.550000
v 0.906353 4.170000 -2.490185
v -0.906354 4.170000 -2.490185
v 1.060262 3.850000 -2.913047
v -0.906354 4.170000 -2.490185
v -1.060263 3.850000 -2.913047
v 1.060262 3.850000 -2.913047
v -0.906354 4.170000 -2.490185
v -2.294967 4.170000 -1.325000
v -1.060263 3.850000 -2.913047
v -2.294967 4.170000 -1.325000
v -2.684679 3.850000 -1.550000
v -1.060263 3.850000 -2.913047
v -2.294967 4.170000 -1.325000
v -2.609740 4.170000 0.460168
v -2.684679 3.850000 -1.550000
v -2.609740 4.170000 0.460168
v -3.052904 3.850000 0.538310
v -2.684679 3.850000 -1.550000
v -2.609740 4.170000 0.460168
v -1.703387 4.170000 2.030018
v -3.052904 3.850000 0.538310
v -1.703387 4.170000 2.030018
v -1.992641 3.850000 2.374738
v -3.052904 3.850000 0.538310
v -1.703387 4.170000 2.030018
v 0.000000 4.170000 2.650000
v -1.992641 3.850000 2.374738
v 0.000000 4.170000 2.650000
v 0.000000 3.850000 3.100000
v -1.992641 3.850000 2.374738
v 0.000000 5.450000 0.000000
v 0.546369 5.450000 0.651138
v 0.000000 5.450000 0.850000
v 0.000000 5.450000 0.000000
v 0.837087 5.450000 0.147601
v 0.546369 5.450000 0.651138
v 0.000000 5.450000 0.000000
v 0.736122 5.450000 -0.425000
v 0.837087 5.450000 0.147601
v 0.000000 5.450000 0.000000
v 0.290717 5.450000 -0.798739
v 0.736122 5.450000 -0.425000
v 0.000000 5.450000 0.000000
v -0.290717 5.450000 -0.798739
v 0.290717 5.450000 -0.798739
v 0.000000 5.450000 0.000000
v -0.736122 5.450000 -0.425000
v -0.290717 5.450000 -0.798739
v 0.000000 5.450000 0.000000
v -0.837087 5.450000 0.147601
v -0.736122 5.450000 -0.425000
v 0.000000 5.450000 0.000000
v -0.546369 5.450000 0.651138
v -0.837087 5.450000 0.147601
v 0.000000 5.450000 0.000000
v 0.000000 5.450000 0.850000
v -0.546369 5.450000 0.651138
v 0.000000 3.850000 0.000000
v 0.000000 3.850000 3.100000
v 1.992642 3.850000 2.374738
v 0.000000 3.850000 0.000000
v 1.992642 3.850000 2.374738
v 3.052904 3.850000 0.538309
v 0.000000 3.850000 0.000000
v 3.052904 3.850000 0.538309
v 2.684679 3.850000 -1.550000
v 0.000000 3.850000 0.000000
v 2.684679 3.850000 -1.550000
v 1.060262 3.850000 -2.913047
v 0.000000 3.850000 0.000000
v 1.060262 3.850000 -2.913047
v -1.060263 3.850000 -2.913047
v 0.000000 3.850000 0.000000
v -1.060263 3.850000 -2.913047
v -2.684679 3.850000 -1.550000
v 0.000000 3.850000 0.000000
v -2.684679 3.850000 -1.550000
v -3.052904 3.850000 0.538310
v 0.000000 3.850000 0.000000
v -3.052904 3.850000 0.538310
v -1.992641 3.850000 2.374738
v 0.000000 3.850000 0.000000
v -1.992641 3.850000 2.374738
v 0.000000 3.850000 3.100000
vt 0.888672 0.187500
vt 0.662109 0.187500
vt 0.888672 0.154688
vt 0.662109 0.187500
vt 0.662109 0.154688
vt 0.888672 0.154688
vt 0.652344 0.187500
vt 0.425781 0.187500
vt 0.652344 0.154688
vt 0.425781 0.187500
vt 0.425781 0.154688
vt 0.652344 0.154688
vt 0.417969 0.187500
vt 0.214844 0.187500
vt 0.417969 0.154688
vt 0.214844 0.187500
vt 0.214844 0.154688
vt 0.417969 0.154688
vt 0.207031 0.187500
vt 0.003906 0.187500
vt 0.207031 0.154688
vt 0.003906 0.187500
vt 0.003906 0.154688
vt 0.207031 0.154688
vt 0.726563 0.992188
vt 0.500000 0.992188
vt 0.726563 0.585938
vt 0.500000 0.992188
vt 0.500000 0.585938
vt 0.726563 0.585938
vt 0.736328 0.585938
vt 0.962891 0.585938
vt 0.736328 0.992188
vt 0.962891 0.585938
vt 0.962891 0.992188
vt 0.736328 0.992188
vt 0.452923 0.502393
vt 0.445313 0.501468
vt 0.455296 0.443149
vt 0.445313 0.501468
vt 0.446650 0.442098
vt 0.455296 0.443149
vt 0.436925 0.502173
vt 0.428664 0.502533
vt 0.436566 0.442803
vt 0.428664 0.502533
vt 0.427181 0.443212
vt 0.436566 0.442803
vt 0.428664 0.502533
vt 0.422061 0.503906
vt 0.427181 0.443212
vt 0.422061 0.503906
vt 0.419680 0.444772
vt 0.427181 0.443212
vt 0.402088 0.502553
vt 0.393641 0.503906
vt 0.400290 0.443419
vt 0.393641 0.503906
vt 0.390694 0.444956
vt 0.400290 0.443419
vt 0.501214 0.503592
vt 0.494577 0.503906
vt 0.503592 0.444642
vt 0.494577 0.503906
vt 0.496052 0.444999
vt 0.503592 0.444642
vt 0.494577 0.503906
vt 0.486328 0.502944
vt 0.496052 0.444999
vt 0.486328 0.502944
vt 0.486681 0.443906
vt 0.496052 0.444999
vt 0.460534 0.503906
vt 0.452923 0.502393
vt 0.463941 0.444868
vt 0.452923 0.502393
vt 0.455296 0.443149
vt 0.463941 0.444868
vt 0.455296 0.443149
vt 0.446650 0.442098
vt 0.457668 0.383905
vt 0.446650 0.442098
vt 0.447987 0.382728
vt 0.457668 0.383905
vt 0.436566 0.442803
vt 0.427181 0.443212
vt 0.436207 0.383433
vt 0.427181 0.443212
vt 0.425698 0.383891
vt 0.436207 0.383433
vt 0.427181 0.443212
vt 0.419680 0.444772
vt 0.425698 0.383891
vt 0.419680 0.444772
vt 0.417299 0.385638
vt 0.425698 0.383891
vt 0.400290 0.443419
vt 0.390694 0.444956
vt 0.398492 0.384285
vt 0.390694 0.444956
vt 0.387747 0.386006
vt 0.398492 0.384285
vt 0.503592 0.444642
vt 0.496052 0.444999
vt 0.505969 0.385692
vt 0.496052 0.444999
vt 0.497526 0.386092
vt 0.505969 0.385692
vt 0.496052 0.444999
vt 0.486681 0.443906
vt 0.497526 0.386092
vt 0.486681 0.443906
vt 0.487033 0.384868
vt 0.497526 0.386092
vt 0.463941 0.444868
vt 0.455296 0.443149
vt 0.467349 0.385830
vt 0.455296 0.443149
vt 0.457668 0.383905
vt 0.467349 0.385830
vt 0.457668 0.383905
vt 0.447987 0.382728
vt 0.460041 0.324661
vt 0.447987 0.382728
vt 0.449325 0.323358
vt 0.460041 0.324661
vt 0.436207 0.383433
vt 0.425698 0.383891
vt 0.435847 0.324063
vt 0.425698 0.383891
vt 0.424215 0.324570
vt 0.435847 0.324063
vt 0.425698 0.383891
vt 0.417299 0.385638
vt 0.424215 0.324570
vt 0.417299 0.385638
vt 0.414918 0.326504
vt 0.424215 0.324570
vt 0.398492 0.384285
vt 0.387747 0.386006
vt 0.396694 0.325151
vt 0.387747 0.386006
vt 0.384800 0.327056
vt 0.396694 0.325151
vt 0.505969 0.385692
vt 0.497526 0.386092
vt 0.508346 0.326742
vt 0.497526 0.386092
vt 0.499001 0.327184
vt 0.508346 0.326742
vt 0.497526 0.386092
vt 0.487033 0.384868
vt 0.499001 0.327184
vt 0.487033 0.384868
vt 0.487386 0.325830
vt 0.499001 0.327184
vt 0.467349 0.385830
vt 0.457668 0.383905
vt 0.470756 0.326792
vt 0.457668 0.383905
vt 0.460041 0.324661
vt 0.470756 0.326792
vt 0.460041 0.324661
vt 0.449325 0.323358
vt 0.462413 0.265417
vt 0.449325 0.323358
vt 0.450662 0.263988
vt 0.462413 0.265417
vt 0.435847 0.324063
vt 0.424215 0.324570
vt 0.435488 0.264694
vt 0.424215 0.324570
vt 0.422733 0.265249
vt 0.435488 0.264694
vt 0.424215 0.324570
vt 0.414918 0.326504
vt 0.422733 0.265249
vt 0.414918 0.326504
vt 0.412537 0.267370
vt 0.422733 0.265249
vt 0.396694 0.325151
vt 0.384800 0.327056
vt 0.394896 0.266017
vt 0.384800 0.327056
vt 0.381853 0.268106
vt 0.394896 0.266017
vt 0.508346 0.326742
vt 0.499001 0.327184
vt 0.510723 0.267792
vt 0.499001 0.327184
vt 0.500476 0.268277
vt 0.510723 0.267792
vt 0.499001 0.327184
vt 0.487386 0.325830
vt 0.500476 0.268277
vt 0.487386 0.325830
vt 0.487739 0.266792
vt 0.500476 0.268277
vt 0.470756 0.326792
vt 0.460041 0.324661
vt 0.474164 0.267754
vt 0.460041 0.324661
vt 0.462413 0.265417
vt 0.474164 0.267754
vt 0.462413 0.265417
vt 0.450662 0.263988
vt 0.464785 0.206173
vt 0.450662 0.263988
vt 0.452000 0.204618
vt 0.464785 0.206173
vt 0.435488 0.264694
vt 0.422733 0.265249
vt 0.435129 0.205324
vt 0.422733 0.265249
vt 0.421250 0.205928
vt 0.435129 0.205324
vt 0.422733 0.265249
vt 0.412537 0.267370
vt 0.421250 0.205928
vt 0.412537 0.267370
vt 0.410156 0.208236
vt 0.421250 0.205928
vt 0.394896 0.266017
vt 0.381853 0.268106
vt 0.393098 0.206882
vt 0.381853 0.268106
vt 0.378906 0.209156
vt 0.393098 0.206882
vt 0.510723 0.267792
vt 0.500476 0.268277
vt 0.513100 0.208842
vt 0.500476 0.268277
vt 0.501950 0.209370
vt 0.513100 0.208842
vt 0.500476 0.268277
vt 0.487739 0.266792
vt 0.501950 0.209370
vt 0.487739 0.266792
vt 0.488091 0.207754
vt 0.501950 0.209370
vt 0.474164 0.267754
vt 0.462413 0.265417
vt 0.477571 0.208715
vt 0.462413 0.265417
vt 0.464785 0.206173
vt 0.477571 0.208715
vt 0.810272 0.484391
vt 0.817882 0.496510
vt 0.810272 0.503906
vt 0.810272 0.484391
vt 0.819762 0.479987
vt 0.817882 0.496510
vt 0.810272 0.484391
vt 0.814495 0.466781
vt 0.819762 0.479987
vt 0.810272 0.484391
vt 0.806048 0.466835
vt 0.814495 0.466781
vt 0.810272 0.484391
vt 0.800781 0.480109
vt 0.806048 0.466835
vt 0.810272 0.484391
vt 0.802661 0.496607
vt 0.800781 0.480109
vt 0.810272 0.484391
vt 0.810272 0.503906
vt 0.802661 0.496607
vt 0.570631 0.474321
vt 0.570631 0.441535
vt 0.583417 0.453961
vt 0.570631 0.474321
vt 0.583417 0.453961
vt 0.586575 0.481719
vt 0.570631 0.474321
vt 0.586575 0.481719
vt 0.577727 0.503906
vt 0.570631 0.474321
vt 0.577727 0.503906
vt 0.563536 0.503815
vt 0.570631 0.474321
vt 0.563536 0.503815
vt 0.554688 0.481515
vt 0.570631 0.474321
vt 0.554688 0.481515
vt 0.557845 0.453797
vt 0.570631 0.474321
vt 0.557845 0.453797
vt 0.570631 0.441535
vt 0.329336 0.502907
vt 0.321725 0.503906
vt 0.326963 0.443828
vt 0.321725 0.503906
vt 0.318318 0.444963
vt 0.326963 0.443828
vt 0.287906 0.503906
vt 0.279643 0.503712
vt 0.289619 0.444963
vt 0.279643 0.503712
vt 0.280232 0.444743
vt 0.289619 0.444963
vt 0.279643 0.503712
vt 0.273033 0.502470
vt 0.280232 0.444743
vt 0.273033 0.502470
vt 0.272724 0.443332
vt 0.280232 0.444743
vt 0.248682 0.503906
vt 0.240234 0.502552
vt 0.251628 0.444768
vt 0.240234 0.502552
vt 0.242032 0.443230
vt 0.251628 0.444768
vt 0.230509 0.503556
vt 0.223874 0.503109
vt 0.230816 0.444234
vt 0.223874 0.503109
vt 0.223279 0.443726
vt 0.230816 0.444234
vt 0.223874 0.503109
vt 0.215620 0.503906
vt 0.223279 0.443726
vt 0.215620 0.503906
vt 0.213903 0.444632
vt 0.223279 0.443726
vt 0.336946 0.501467
vt 0.329336 0.502907
vt 0.335609 0.442192
vt 0.329336 0.502907
vt 0.326963 0.443828
vt 0.335609 0.442192
vt 0.326963 0.443828
vt 0.318318 0.444963
vt 0.324591 0.384749
vt 0.318318 0.444963
vt 0.314910 0.386020
vt 0.324591 0.384749
vt 0.289619 0.444963
vt 0.280232 0.444743
vt 0.291332 0.386020
vt 0.280232 0.444743
vt 0.280821 0.385773
vt 0.291332 0.386020
vt 0.280232 0.444743
vt 0.272724 0.443332
vt 0.280821 0.385773
vt 0.272724 0.443332
vt 0.272414 0.384194
vt 0.280821 0.385773
vt 0.251628 0.444768
vt 0.242032 0.443230
vt 0.254575 0.385630
vt 0.242032 0.443230
vt 0.243830 0.383908
vt 0.254575 0.385630
vt 0.230816 0.444234
vt 0.223279 0.443726
vt 0.231123 0.384911
vt 0.223279 0.443726
vt 0.222683 0.384343
vt 0.231123 0.384911
vt 0.223279 0.443726
vt 0.213903 0.444632
vt 0.222683 0.384343
vt 0.213903 0.444632
vt 0.212185 0.385357
vt 0.222683 0.384343
vt 0.335609 0.442192
vt 0.326963 0.443828
vt 0.334272 0.382917
vt 0.326963 0.443828
vt 0.324591 0.384749
vt 0.334272 0.382917
vt 0.324591 0.384749
vt 0.314910 0.386020
vt 0.322218 0.325671
vt 0.314910 0.386020
vt 0.311503 0.327078
vt 0.322218 0.325671
vt 0.291332 0.386020
vt 0.280821 0.385773
vt 0.293044 0.327078
vt 0.280821 0.385773
vt 0.281411 0.326804
vt 0.293044 0.327078
vt 0.280821 0.385773
vt 0.272414 0.384194
vt 0.281411 0.326804
vt 0.272414 0.384194
vt 0.272104 0.325056
vt 0.281411 0.326804
vt 0.254575 0.385630
vt 0.243830 0.383908
vt 0.257522 0.326492
vt 0.243830 0.383908
vt 0.245629 0.324585
vt 0.257522 0.326492
vt 0.231123 0.384911
vt 0.222683 0.384343
vt 0.231430 0.325589
vt 0.222683 0.384343
vt 0.222088 0.324960
vt 0.231430 0.325589
vt 0.222683 0.384343
vt 0.212185 0.385357
vt 0.222088 0.324960
vt 0.212185 0.385357
vt 0.210467 0.326082
vt 0.222088 0.324960
vt 0.334272 0.382917
vt 0.324591 0.384749
vt 0.332934 0.323643
vt 0.324591 0.384749
vt 0.322218 0.325671
vt 0.332934 0.323643
vt 0.322218 0.325671
vt 0.311503 0.327078
vt 0.319846 0.266592
vt 0.311503 0.327078
vt 0.308095 0.268135
vt 0.319846 0.266592
vt 0.293044 0.327078
vt 0.281411 0.326804
vt 0.294757 0.268135
vt 0.281411 0.326804
vt 0.282000 0.267834
vt 0.294757 0.268135
vt 0.281411 0.326804
vt 0.272104 0.325056
vt 0.282000 0.267834
vt 0.272104 0.325056
vt 0.271794 0.265917
vt 0.282000 0.267834
vt 0.257522 0.326492
vt 0.245629 0.324585
vt 0.260469 0.267353
vt 0.245629 0.324585
vt 0.247427 0.265263
vt 0.260469 0.267353
vt 0.231430 0.325589
vt 0.222088 0.324960
vt 0.231737 0.266267
vt 0.222088 0.324960
vt 0.221493 0.265577
vt 0.231737 0.266267
vt 0.222088 0.324960
vt 0.210467 0.326082
vt 0.221493 0.265577
vt 0.210467 0.326082
vt 0.208749 0.266808
vt 0.221493 0.265577
vt 0.332934 0.323643
vt 0.322218 0.325671
vt 0.331597 0.264368
vt 0.322218 0.325671
vt 0.319846 0.266592
vt 0.331597 0.264368
vt 0.319846 0.266592
vt 0.308095 0.268135
vt 0.317473 0.207513
vt 0.308095 0.268135
vt 0.304688 0.209192
vt 0.317473 0.207513
vt 0.294757 0.268135
vt 0.282000 0.267834
vt 0.296470 0.209192
vt 0.282000 0.267834
vt 0.282589 0.208865
vt 0.296470 0.209192
vt 0.282000 0.267834
vt 0.271794 0.265917
vt 0.282589 0.208865
vt 0.271794 0.265917
vt 0.271484 0.206779
vt 0.282589 0.208865
vt 0.260469 0.267353
vt 0.247427 0.265263
vt 0.263416 0.208215
vt 0.247427 0.265263
vt 0.249225 0.205941
vt 0.263416 0.208215
vt 0.231737 0.266267
vt 0.221493 0.265577
vt 0.232044 0.206944
vt 0.221493 0.265577
vt 0.220897 0.206194
vt 0.232044 0.206944
vt 0.221493 0.265577
vt 0.208749 0.266808
vt 0.220897 0.206194
vt 0.208749 0.266808
vt 0.207031 0.207533
vt 0.220897 0.206194
vt 0.331597 0.264368
vt 0.319846 0.266592
vt 0.330259 0.205093
vt 0.319846 0.266592
vt 0.317473 0.207513
vt 0.330259 0.205093
vt 0.782928 0.484384
vt 0.790538 0.496519
vt 0.782928 0.503906
vt 0.782928 0.484384
vt 0.792418 0.479994
vt 0.790538 0.496519
vt 0.782928 0.484384
vt 0.787151 0.466774
vt 0.792418 0.479994
vt 0.782928 0.484384
vt 0.778704 0.466815
vt 0.787151 0.466774
vt 0.782928 0.484384
vt 0.773438 0.480085
vt 0.778704 0.466815
vt 0.782928 0.484384
vt 0.775317 0.496592
vt 0.773438 0.480085
vt 0.782928 0.484384
vt 0.782928 0.503906
vt 0.775317 0.496592
vt 0.611647 0.474322
vt 0.611647 0.441525
vt 0.624433 0.453935
vt 0.611647 0.474322
vt 0.624433 0.453935
vt 0.627591 0.481697
vt 0.611647 0.474322
vt 0.627591 0.481697
vt 0.618743 0.503906
vt 0.611647 0.474322
vt 0.618743 0.503906
vt 0.604551 0.503838
vt 0.611647 0.474322
vt 0.604551 0.503838
vt 0.595703 0.481544
vt 0.611647 0.474322
vt 0.595703 0.481544
vt 0.598861 0.453812
vt 0.611647 0.474322
vt 0.598861 0.453812
vt 0.611647 0.441525
vt 0.146293 0.503285
vt 0.138672 0.502076
vt 0.148073 0.444171
vt 0.138672 0.502076
vt 0.139416 0.442797
vt 0.148073 0.444171
vt 0.120398 0.503906
vt 0.112148 0.503020
vt 0.122413 0.444627
vt 0.112148 0.503020
vt 0.113041 0.443620
vt 0.122413 0.444627
vt 0.112148 0.503020
vt 0.105515 0.503123
vt 0.113041 0.443620
vt 0.105515 0.503123
vt 0.105506 0.443737
vt 0.113041 0.443620
vt 0.096408 0.502891
vt 0.087949 0.503906
vt 0.095203 0.443505
vt 0.087949 0.503906
vt 0.085593 0.444659
vt 0.095203 0.443505
vt 0.067886 0.502308
vt 0.061278 0.503471
vt 0.067898 0.443061
vt 0.061278 0.503471
vt 0.060392 0.444382
vt 0.067898 0.443061
vt 0.061278 0.503471
vt 0.053019 0.503906
vt 0.060392 0.444382
vt 0.053019 0.503906
vt 0.051009 0.444876
vt 0.060392 0.444382
vt 0.153915 0.503906
vt 0.146293 0.503285
vt 0.156731 0.444876
vt 0.146293 0.503285
vt 0.148073 0.444171
vt 0.156731 0.444876
vt 0.148073 0.444171
vt 0.139416 0.442797
vt 0.149854 0.385056
vt 0.139416 0.442797
vt 0.140159 0.383519
vt 0.149854 0.385056
vt 0.122413 0.444627
vt 0.113041 0.443620
vt 0.124428 0.385348
vt 0.113041 0.443620
vt 0.113933 0.384220
vt 0.124428 0.385348
vt 0.113041 0.443620
vt 0.105506 0.443737
vt 0.113933 0.384220
vt 0.105506 0.443737
vt 0.105496 0.384352
vt 0.113933 0.384220
vt 0.095203 0.443505
vt 0.085593 0.444659
vt 0.093998 0.384120
vt 0.085593 0.444659
vt 0.083238 0.385412
vt 0.093998 0.384120
vt 0.067898 0.443061
vt 0.060392 0.444382
vt 0.067910 0.383814
vt 0.060392 0.444382
vt 0.059505 0.385293
vt 0.067910 0.383814
vt 0.060392 0.444382
vt 0.051009 0.444876
vt 0.059505 0.385293
vt 0.051009 0.444876
vt 0.048999 0.385846
vt 0.059505 0.385293
vt 0.156731 0.444876
vt 0.148073 0.444171
vt 0.159548 0.385846
vt 0.148073 0.444171
vt 0.149854 0.385056
vt 0.159548 0.385846
vt 0.149854 0.385056
vt 0.140159 0.383519
vt 0.151634 0.325942
vt 0.140159 0.383519
vt 0.140903 0.324240
vt 0.151634 0.325942
vt 0.124428 0.385348
vt 0.113933 0.384220
vt 0.126443 0.326069
vt 0.113933 0.384220
vt 0.114826 0.324821
vt 0.126443 0.326069
vt 0.113933 0.384220
vt 0.105496 0.384352
vt 0.114826 0.324821
vt 0.105496 0.384352
vt 0.105487 0.324966
vt 0.114826 0.324821
vt 0.093998 0.384120
vt 0.083238 0.385412
vt 0.092793 0.324734
vt 0.083238 0.385412
vt 0.080883 0.326164
vt 0.092793 0.324734
vt 0.067910 0.383814
vt 0.059505 0.385293
vt 0.067922 0.324566
vt 0.059505 0.385293
vt 0.058618 0.326204
vt 0.067922 0.324566
vt 0.059505 0.385293
vt 0.048999 0.385846
vt 0.058618 0.326204
vt 0.048999 0.385846
vt 0.046989 0.326816
vt 0.058618 0.326204
vt 0.159548 0.385846
vt 0.149854 0.385056
vt 0.162365 0.326816
vt 0.149854 0.385056
vt 0.151634 0.325942
vt 0.162365 0.326816
vt 0.151634 0.325942
vt 0.140903 0.324240
vt 0.153414 0.266827
vt 0.140903 0.324240
vt 0.141647 0.264961
vt 0.153414 0.266827
vt 0.126443 0.326069
vt 0.114826 0.324821
vt 0.128458 0.266790
vt 0.114826 0.324821
vt 0.115719 0.265421
vt 0.128458 0.266790
vt 0.114826 0.324821
vt 0.105487 0.324966
vt 0.115719 0.265421
vt 0.105487 0.324966
vt 0.105478 0.265581
vt 0.115719 0.265421
vt 0.092793 0.324734
vt 0.080883 0.326164
vt 0.091588 0.265349
vt 0.080883 0.326164
vt 0.078527 0.266917
vt 0.091588 0.265349
vt 0.067922 0.324566
vt 0.058618 0.326204
vt 0.067934 0.265319
vt 0.058618 0.326204
vt 0.057732 0.267115
vt 0.067934 0.265319
vt 0.058618 0.326204
vt 0.046989 0.326816
vt 0.057732 0.267115
vt 0.046989 0.326816
vt 0.044979 0.267786
vt 0.057732 0.267115
vt 0.162365 0.326816
vt 0.151634 0.325942
vt 0.165181 0.267786
vt 0.151634 0.325942
vt 0.153414 0.266827
vt 0.165181 0.267786
vt 0.153414 0.266827
vt 0.141647 0.264961
vt 0.155194 0.207713
vt 0.141647 0.264961
vt 0.142390 0.205682
vt 0.155194 0.207713
vt 0.128458 0.266790
vt 0.115719 0.265421
vt 0.130473 0.207512
vt 0.115719 0.265421
vt 0.116612 0.206022
vt 0.130473 0.207512
vt 0.115719 0.265421
vt 0.105478 0.265581
vt 0.116612 0.206022
vt 0.105478 0.265581
vt 0.105469 0.206195
vt 0.116612 0.206022
vt 0.091588 0.265349
vt 0.078527 0.266917
vt 0.090383 0.205963
vt 0.078527 0.266917
vt 0.076172 0.207669
vt 0.090383 0.205963
vt 0.067934 0.265319
vt 0.057732 0.267115
vt 0.067946 0.206071
vt 0.057732 0.267115
vt 0.056845 0.208025
vt 0.067946 0.206071
vt 0.057732 0.267115
vt 0.044979 0.267786
vt 0.056845 0.208025
vt 0.044979 0.267786
vt 0.042969 0.208756
vt 0.056845 0.208025
vt 0.165181 0.267786
vt 0.153414 0.266827
vt 0.167998 0.208756
vt 0.153414 0.266827
vt 0.155194 0.207713
vt 0.167998 0.208756
vt 0.755597 0.484391
vt 0.763219 0.496595
vt 0.755597 0.503906
vt 0.755597 0.484391
vt 0.765101 0.480094
vt 0.763219 0.496595
vt 0.755597 0.484391
vt 0.759827 0.466828
vt 0.765101 0.480094
vt 0.755597 0.484391
vt 0.751368 0.466787
vt 0.759827 0.466828
vt 0.755597 0.484391
vt 0.746094 0.480002
vt 0.751368 0.466787
vt 0.755597 0.484391
vt 0.747976 0.496522
vt 0.746094 0.480002
vt 0.755597 0.484391
vt 0.755597 0.503906
vt 0.747976 0.496522
vt 0.652685 0.474333
vt 0.652685 0.441546
vt 0.665489 0.453829
vt 0.652685 0.474333
vt 0.665489 0.453829
vt 0.668651 0.481552
vt 0.652685 0.474333
vt 0.668651 0.481552
vt 0.659790 0.503838
vt 0.652685 0.474333
vt 0.659790 0.503838
vt 0.645579 0.503906
vt 0.652685 0.474333
vt 0.645579 0.503906
vt 0.636719 0.481705
vt 0.652685 0.474333
vt 0.636719 0.481705
vt 0.639881 0.453952
vt 0.652685 0.474333
vt 0.639881 0.453952
vt 0.652685 0.441546
vt 0.025611 0.502770
vt 0.017990 0.503906
vt 0.023831 0.443449
vt 0.017990 0.503906
vt 0.015173 0.444740
vt 0.023831 0.443449
vt 0.546791 0.503185
vt 0.538536 0.503906
vt 0.546731 0.444018
vt 0.538536 0.503906
vt 0.537354 0.444838
vt 0.546731 0.444018
vt 0.538536 0.503906
vt 0.531904 0.503670
vt 0.537354 0.444838
vt 0.531904 0.503670
vt 0.529820 0.444570
vt 0.537354 0.444838
vt 0.186193 0.503906
vt 0.177734 0.502890
vt 0.188549 0.444806
vt 0.177734 0.502890
vt 0.178939 0.443652
vt 0.188549 0.444806
vt 0.360578 0.503906
vt 0.353965 0.502875
vt 0.362664 0.444667
vt 0.353965 0.502875
vt 0.355151 0.443496
vt 0.362664 0.444667
vt 0.353965 0.502875
vt 0.345703 0.502606
vt 0.355151 0.443496
vt 0.345703 0.502606
vt 0.345766 0.443190
vt 0.355151 0.443496
vt 0.033232 0.502076
vt 0.025611 0.502770
vt 0.032489 0.442660
vt 0.025611 0.502770
vt 0.023831 0.443449
vt 0.032489 0.442660
vt 0.023831 0.443449
vt 0.015173 0.444740
vt 0.022051 0.384128
vt 0.015173 0.444740
vt 0.012356 0.385573
vt 0.022051 0.384128
vt 0.546731 0.444018
vt 0.537354 0.444838
vt 0.546672 0.384851
vt 0.537354 0.444838
vt 0.536172 0.385769
vt 0.546672 0.384851
vt 0.537354 0.444838
vt 0.529820 0.444570
vt 0.536172 0.385769
vt 0.529820 0.444570
vt 0.527736 0.385469
vt 0.536172 0.385769
vt 0.188549 0.444806
vt 0.178939 0.443652
vt 0.190904 0.385705
vt 0.178939 0.443652
vt 0.180144 0.384413
vt 0.190904 0.385705
vt 0.362664 0.444667
vt 0.355151 0.443496
vt 0.364750 0.385429
vt 0.355151 0.443496
vt 0.356338 0.384117
vt 0.364750 0.385429
vt 0.355151 0.443496
vt 0.345766 0.443190
vt 0.356338 0.384117
vt 0.345766 0.443190
vt 0.345829 0.383775
vt 0.356338 0.384117
vt 0.032489 0.442660
vt 0.023831 0.443449
vt 0.031745 0.383245
vt 0.023831 0.443449
vt 0.022051 0.384128
vt 0.031745 0.383245
vt 0.022051 0.384128
vt 0.012356 0.385573
vt 0.020270 0.324807
vt 0.012356 0.385573
vt 0.009540 0.326406
vt 0.020270 0.324807
vt 0.546672 0.384851
vt 0.536172 0.385769
vt 0.546613 0.325684
vt 0.536172 0.385769
vt 0.534990 0.326701
vt 0.546613 0.325684
vt 0.536172 0.385769
vt 0.527736 0.385469
vt 0.534990 0.326701
vt 0.527736 0.385469
vt 0.525652 0.326368
vt 0.534990 0.326701
vt 0.190904 0.385705
vt 0.180144 0.384413
vt 0.193260 0.326604
vt 0.180144 0.384413
vt 0.181349 0.325174
vt 0.193260 0.326604
vt 0.364750 0.385429
vt 0.356338 0.384117
vt 0.366836 0.326190
vt 0.356338 0.384117
vt 0.357524 0.324739
vt 0.366836 0.326190
vt 0.356338 0.384117
vt 0.345829 0.383775
vt 0.357524 0.324739
vt 0.345829 0.383775
vt 0.345892 0.324359
vt 0.357524 0.324739
vt 0.031745 0.383245
vt 0.022051 0.384128
vt 0.031001 0.323829
vt 0.022051 0.384128
vt 0.020270 0.324807
vt 0.031001 0.323829
vt 0.020270 0.324807
vt 0.009540 0.326406
vt 0.018490 0.265486
vt 0.009540 0.326406
vt 0.006723 0.267239
vt 0.018490 0.265486
vt 0.546613 0.325684
vt 0.534990 0.326701
vt 0.546553 0.266518
vt 0.534990 0.326701
vt 0.533808 0.267632
vt 0.546553 0.266518
vt 0.534990 0.326701
vt 0.525652 0.326368
vt 0.533808 0.267632
vt 0.525652 0.326368
vt 0.523568 0.267268
vt 0.533808 0.267632
vt 0.193260 0.326604
vt 0.181349 0.325174
vt 0.195615 0.267504
vt 0.181349 0.325174
vt 0.182554 0.265935
vt 0.195615 0.267504
vt 0.366836 0.326190
vt 0.357524 0.324739
vt 0.368922 0.266951
vt 0.357524 0.324739
vt 0.358711 0.265360
vt 0.368922 0.266951
vt 0.357524 0.324739
vt 0.345892 0.324359
vt 0.358711 0.265360
vt 0.345892 0.324359
vt 0.345955 0.264943
vt 0.358711 0.265360
vt 0.031001 0.323829
vt 0.020270 0.324807
vt 0.030258 0.264413
vt 0.020270 0.324807
vt 0.018490 0.265486
vt 0.030258 0.264413
vt 0.018490 0.265486
vt 0.006723 0.267239
vt 0.016710 0.206165
vt 0.006723 0.267239
vt 0.003906 0.208073
vt 0.016710 0.206165
vt 0.546553 0.266518
vt 0.533808 0.267632
vt 0.546494 0.207351
vt 0.533808 0.267632
vt 0.532626 0.208564
vt 0.546494 0.207351
vt 0.533808 0.267632
vt 0.523568 0.267268
vt 0.532626 0.208564
vt 0.523568 0.267268
vt 0.521484 0.208167
vt 0.532626 0.208564
vt 0.195615 0.267504
vt 0.182554 0.265935
vt 0.197970 0.208403
vt 0.182554 0.265935
vt 0.183759 0.206697
vt 0.197970 0.208403
vt 0.368922 0.266951
vt 0.358711 0.265360
vt 0.371008 0.207712
vt 0.358711 0.265360
vt 0.359898 0.205981
vt 0.371008 0.207712
vt 0.358711 0.265360
vt 0.345955 0.264943
vt 0.359898 0.205981
vt 0.345955 0.264943
vt 0.346018 0.205528
vt 0.359898 0.205981
vt 0.030258 0.264413
vt 0.018490 0.265486
vt 0.029514 0.204998
vt 0.018490 0.265486
vt 0.016710 0.206165
vt 0.029514 0.204998
vt 0.728254 0.484384
vt 0.735875 0.496583
vt 0.728254 0.503906
vt 0.728254 0.484384
vt 0.737757 0.480074
vt 0.735875 0.496583
vt 0.728254 0.484384
vt 0.732483 0.466810
vt 0.737757 0.480074
vt 0.728254 0.484384
vt 0.724024 0.466779
vt 0.732483 0.466810
vt 0.728254 0.484384
vt 0.718750 0.480005
vt 0.724024 0.466779
vt 0.728254 0.484384
vt 0.720632 0.496528
vt 0.718750 0.480005
vt 0.728254 0.484384
vt 0.728254 0.503906
vt 0.720632 0.496528
vt 0.693700 0.474331
vt 0.693700 0.441533
vt 0.706504 0.453836
vt 0.693700 0.474331
vt 0.706504 0.453836
vt 0.709667 0.481572
vt 0.693700 0.474331
vt 0.709667 0.481572
vt 0.700806 0.503855
vt 0.693700 0.474331
vt 0.700806 0.503855
vt 0.686595 0.503906
vt 0.693700 0.474331
vt 0.686595 0.503906
vt 0.677734 0.481687
vt 0.693700 0.474331
vt 0.677734 0.481687
vt 0.680897 0.453928
vt 0.693700 0.474331
vt 0.680897 0.453928
vt 0.693700 0.441533
vt 0.371207 0.816406
vt 0.392550 0.800870
vt 0.371207 0.851563
vt 0.392550 0.800870
vt 0.403849 0.827801
vt 0.371207 0.851563
vt 0.392550 0.800870
vt 0.403906 0.761531
vt 0.403849 0.827801
vt 0.403906 0.761531
vt 0.421217 0.767636
vt 0.403849 0.827801
vt 0.403906 0.761531
vt 0.399962 0.716797
vt 0.421217 0.767636
vt 0.399962 0.716797
vt 0.415185 0.699219
vt 0.421217 0.767636
vt 0.399962 0.716797
vt 0.382563 0.687599
vt 0.415185 0.699219
vt 0.382563 0.687599
vt 0.388575 0.654562
vt 0.415185 0.699219
vt 0.382563 0.687599
vt 0.359851 0.687599
vt 0.388575 0.654562
vt 0.359851 0.687599
vt 0.353839 0.654562
vt 0.388575 0.654562
vt 0.359851 0.687599
vt 0.342452 0.716797
vt 0.353839 0.654562
vt 0.342452 0.716797
vt 0.327229 0.699219
vt 0.353839 0.654562
vt 0.342452 0.716797
vt 0.338508 0.761531
vt 0.327229 0.699219
vt 0.338508 0.761531
vt 0.321197 0.767636
vt 0.327229 0.699219
vt 0.338508 0.761531
vt 0.349865 0.800870
vt 0.321197 0.767636
vt 0.349865 0.800870
vt 0.338566 0.827801
vt 0.321197 0.767636
vt 0.349865 0.800870
vt 0.371207 0.816406
vt 0.338566 0.827801
vt 0.371207 0.816406
vt 0.371207 0.851563
vt 0.338566 0.827801
vt 0.371207 0.851563
vt 0.403849 0.827801
vt 0.371207 0.886719
vt 0.403849 0.827801
vt 0.415148 0.854733
vt 0.371207 0.886719
vt 0.403849 0.827801
vt 0.421217 0.767636
vt 0.415148 0.854733
vt 0.421217 0.767636
vt 0.438528 0.773741
vt 0.415148 0.854733
vt 0.421217 0.767636
vt 0.415185 0.699219
vt 0.438528 0.773741
vt 0.415185 0.699219
vt 0.430408 0.681641
vt 0.438528 0.773741
vt 0.415185 0.699219
vt 0.388575 0.654562
vt 0.430408 0.681641
vt 0.388575 0.654562
vt 0.394587 0.621526
vt 0.430408 0.681641
vt 0.388575 0.654562
vt 0.353839 0.654562
vt 0.394587 0.621526
vt 0.353839 0.654562
vt 0.347827 0.621526
vt 0.394587 0.621526
vt 0.353839 0.654562
vt 0.327229 0.699219
vt 0.347827 0.621526
vt 0.327229 0.699219
vt 0.312006 0.681641
vt 0.347827 0.621526
vt 0.327229 0.699219
vt 0.321197 0.767636
vt 0.312006 0.681641
vt 0.321197 0.767636
vt 0.303886 0.773741
vt 0.312006 0.681641
vt 0.321197 0.767636
vt 0.338566 0.827801
vt 0.303886 0.773741
vt 0.338566 0.827801
vt 0.327267 0.854733
vt 0.303886 0.773741
vt 0.338566 0.827801
vt 0.371207 0.851563
vt 0.327267 0.854733
vt 0.371207 0.851563
vt 0.371207 0.886719
vt 0.327267 0.854733
vt 0.371207 0.886719
vt 0.415148 0.854733
vt 0.371207 0.921875
vt 0.415148 0.854733
vt 0.426447 0.881664
vt 0.371207 0.921875
vt 0.415148 0.854733
vt 0.438528 0.773741
vt 0.426447 0.881664
vt 0.438528 0.773741
vt 0.455839 0.779846
vt 0.426447 0.881664
vt 0.438528 0.773741
vt 0.430408 0.681641
vt 0.455839 0.779846
vt 0.430408 0.681641
vt 0.445631 0.664063
vt 0.455839 0.779846
vt 0.430408 0.681641
vt 0.394587 0.621526
vt 0.445631 0.664063
vt 0.394587 0.621526
vt 0.400600 0.588490
vt 0.445631 0.664063
vt 0.394587 0.621526
vt 0.347827 0.621526
vt 0.400600 0.588490
vt 0.347827 0.621526
vt 0.341815 0.588490
vt 0.400600 0.588490
vt 0.347827 0.621526
vt 0.312006 0.681641
vt 0.341815 0.588490
vt 0.312006 0.681641
vt 0.296783 0.664063
vt 0.341815 0.588490
vt 0.312006 0.681641
vt 0.303886 0.773741
vt 0.296783 0.664063
vt 0.303886 0.773741
vt 0.286575 0.779846
vt 0.296783 0.664063
vt 0.303886 0.773741
vt 0.327267 0.854733
vt 0.286575 0.779846
vt 0.327267 0.854733
vt 0.315968 0.881664
vt 0.286575 0.779846
vt 0.327267 0.854733
vt 0.371207 0.886719
vt 0.315968 0.881664
vt 0.371207 0.886719
vt 0.371207 0.921875
vt 0.315968 0.881664
vt 0.371207 0.921875
vt 0.426447 0.881664
vt 0.371207 0.957031
vt 0.426447 0.881664
vt 0.437746 0.908595
vt 0.371207 0.957031
vt 0.426447 0.881664
vt 0.455839 0.779846
vt 0.437746 0.908595
vt 0.455839 0.779846
vt 0.473150 0.785951
vt 0.437746 0.908595
vt 0.455839 0.779846
vt 0.445631 0.664063
vt 0.473150 0.785951
vt 0.445631 0.664063
vt 0.460854 0.646484
vt 0.473150 0.785951
vt 0.445631 0.664063
vt 0.400600 0.588490
vt 0.460854 0.646484
vt 0.400600 0.588490
vt 0.406612 0.555454
vt 0.460854 0.646484
vt 0.400600 0.588490
vt 0.341815 0.588490
vt 0.406612 0.555454
vt 0.341815 0.588490
vt 0.335803 0.555454
vt 0.406612 0.555454
vt 0.341815 0.588490
vt 0.296783 0.664063
vt 0.335803 0.555454
vt 0.296783 0.664063
vt 0.281560 0.646484
vt 0.335803 0.555454
vt 0.296783 0.664063
vt 0.286575 0.779846
vt 0.281560 0.646484
vt 0.286575 0.779846
vt 0.269264 0.785951
vt 0.281560 0.646484
vt 0.286575 0.779846
vt 0.315968 0.881664
vt 0.269264 0.785951
vt 0.315968 0.881664
vt 0.304669 0.908595
vt 0.269264 0.785951
vt 0.315968 0.881664
vt 0.371207 0.921875
vt 0.304669 0.908595
vt 0.371207 0.921875
vt 0.371207 0.957031
vt 0.304669 0.908595
vt 0.371207 0.957031
vt 0.437746 0.908595
vt 0.371207 0.992188
vt 0.437746 0.908595
vt 0.449045 0.935526
vt 0.371207 0.992188
vt 0.437746 0.908595
vt 0.473150 0.785951
vt 0.449045 0.935526
vt 0.473150 0.785951
vt 0.490461 0.792055
vt 0.449045 0.935526
vt 0.473150 0.785951
vt 0.460854 0.646484
vt 0.490461 0.792055
vt 0.460854 0.646484
vt 0.476077 0.628906
vt 0.490461 0.792055
vt 0.460854 0.646484
vt 0.406612 0.555454
vt 0.476077 0.628906
vt 0.406612 0.555454
vt 0.412624 0.522418
vt 0.476077 0.628906
vt 0.406612 0.555454
vt 0.335803 0.555454
vt 0.412624 0.522418
vt 0.335803 0.555454
vt 0.329791 0.522418
vt 0.412624 0.522418
vt 0.335803 0.555454
vt 0.281560 0.646484
vt 0.329791 0.522418
vt 0.281560 0.646484
vt 0.266337 0.628906
vt 0.329791 0.522418
vt 0.281560 0.646484
vt 0.269264 0.785951
vt 0.266337 0.628906
vt 0.269264 0.785951
vt 0.251953 0.792055
vt 0.266337 0.628906
vt 0.269264 0.785951
vt 0.304669 0.908595
vt 0.251953 0.792055
vt 0.304669 0.908595
vt 0.293370 0.935526
vt 0.251953 0.792055
vt 0.304669 0.908595
vt 0.371207 0.957031
vt 0.293370 0.935526
vt 0.371207 0.957031
vt 0.371207 0.992188
vt 0.293370 0.935526
vt 0.371207 0.750000
vt 0.392550 0.800870
vt 0.371207 0.816406
vt 0.371207 0.750000
vt 0.403906 0.761531
vt 0.392550 0.800870
vt 0.371207 0.750000
vt 0.399962 0.716797
vt 0.403906 0.761531
vt 0.371207 0.750000
vt 0.382563 0.687599
vt 0.399962 0.716797
vt 0.371207 0.750000
vt 0.359851 0.687599
vt 0.382563 0.687599
vt 0.371207 0.750000
vt 0.342452 0.716797
vt 0.359851 0.687599
vt 0.371207 0.750000
vt 0.338508 0.761531
vt 0.342452 0.716797
vt 0.371207 0.750000
vt 0.349865 0.800870
vt 0.338508 0.761531
vt 0.371207 0.750000
vt 0.371207 0.816406
vt 0.349865 0.800870
vt 0.123160 0.764606
vt 0.123160 0.522418
vt 0.200998 0.579079
vt 0.123160 0.764606
vt 0.200998 0.579079
vt 0.242414 0.722550
vt 0.123160 0.764606
vt 0.242414 0.722550
vt 0.228031 0.885699
vt 0.123160 0.764606
vt 0.228031 0.885699
vt 0.164577 0.992188
vt 0.123160 0.764606
vt 0.164577 0.992188
vt 0.081744 0.992187
vt 0.123160 0.764606
vt 0.081744 0.992187
vt 0.018290 0.885699
vt 0.123160 0.764606
vt 0.018290 0.885699
vt 0.003906 0.722550
vt 0.123160 0.764606
vt 0.003906 0.722550
vt 0.045323 0.579079
vt 0.123160 0.764606
vt 0.045323 0.579079
vt 0.123160 0.522418
f 1/1 2/2 3/3
f 4/4 5/5 6/6
f 7/7 8/8 9/9
f 10/10 11/11 12/12
f 13/13 14/14 15/15
f 16/16 17/17 18/18
f 19/19 20/20 21/21
f 22/22 23/23 24/24
f 25/25 26/26 27/27
f 28/28 29/29 30/30
f 31/31 32/32 33/33
f 34/34 35/35 36/36
f 37/37 38/38 39/39
f 40/40 41/41 42/42
f 43/43 44/44 45/45
f 46/46 47/47 48/48
f 49/49 50/50 51/51
f 52/52 53/53 54/54
f 55/55 56/56 57/57
f 58/58 59/59 60/60
f 61/61 62/62 63/63
f 64/64 65/65 66/66
f 67/67 68/68 69/69
f 70/70 71/71 72/72
f 73/73 74/74 75/75
f 76/76 77/77 78/78
f 79/79 80/80 81/81
f 82/82 83/83 84/84
f 85/85 86/86 87/87
f 88/88 89/89 90/90
f 91/91 92/92 93/93
f 94/94 95/95 96/96
f 97/97 98/98 99/99
f 100/100 101/101 102/102
f 103/103 104/104 105/105
f 106/106 107/107 108/108
f 109/109 110/110 111/111
f 112/112 113/113 114/114
f 115/115 116/116 117/117
f 118/118 119/119 120/120
f 121/121 122/122 123/123
f 124/124 125/125 126/126
f 127/127 128/128 129/129
f 130/130 131/131 132/132
f 133/133 134/134 135/135
f 136/136 137/137 138/138
f 139/139 140/140 141/141
f 142/142 143/143 144/144
f 145/145 146/146 147/147
f 148/148 149/149 150/150
f 151/151 152/152 153/153
f 154/154 155/155 156/156
f 157/157 158/158 159/159
f 160/160 161/161 162/162
f 163/163 164/164 165/165
f 166/166 167/167 168/168
f 169/169 170/170 171/171
f 172/172 173/173 174/174
f 175/175 176/176 177/177
f 178/178 179/179 180/180
f 181/181 182/182 183/183
f 184/184 185/185 186/186
f 187/187 188/188 189/189
f 190/190 191/191 192/192
f 193/193 194/194 195/195
f 196/196 197/197 198/198
f 199/199 200/200 201/201
f 202/202 203/203 204/204
f 205/205 206/206 207/207
f 208/208 209/209 210/210
f 211/211 212/212 213/213
f 214/214 215/215 216/216
f 217/217 218/218 219/219
f 220/220 221/221 222/222
f 223/223 224/224 225/225
f 226/226 227/227 228/228
f 229/229 230/230 231/231
f 232/232 233/233 234/234
f 235/235 236/236 237/237
f 238/238 239/239 240/240
f 241/241 242/242 243/243
f 244/244 245/245 246/246
f 247/247 248/248 249/249
f 250/250 251/251 252/252
f 253/253 254/254 255/255
f 256/256 257/257 258/258
f 259/259 260/260 261/261
f 262/262 263/263 264/264
f 265/265 266/266 267/267
f 268/268 269/269 270/270
f 271/271 272/272 273/273
f 274/274 275/275 276/276
f 277/277 278/278 279/279
f 280/280 281/281 282/282
f 283/283 284/284 285/285
f 286/286 287/287 288/288
f 289/289 290/290 291/291
f 292/292 293/293 294/294
f 295/295 296/296 297/297
f 298/298 299/299 300/300
f 301/301 302/302 303/303
f 304/304 305/305 306/306
f 307/307 308/308 309/309
f 310/310 311/311 312/312
f 313/313 314/314 315/315
f 316/316 317/317 318/318
f 319/319 320/320 321/321
f 322/322 323/323 324/324
f 325/325 326/326 327/327
f 328/328 329/329 330/330
f 331/331 332/332 333/333
f 334/334 335/335 336/336
f 337/337 338/338 339/339
f 340/340 341/341 342/342
f 343/343 344/344 345/345
f 346/346 347/347 348/348
f 349/349 350/350 351/351
f 352/352 353/353 354/354
f 355/355 356/356 357/357
f 358/358 359/359 360/360
f 361/361 362/362 363/363
f 364/364 365/365 366/366
f 367/367 368/368 369/369
f 370/370 371/371 372/372
f 373/373 374/374 375/375
f 376/376 377/377 378/378
f 379/379 380/380 381/381
f 382/382 383/383 384/384
f 385/385 386/386 387/387
f 388/388 389/389 390/390
f 391/391 392/392 393/393
f 394/394 395/395 396/396
f 397/397 398/398 399/399
f 400/400 401/401 402/402
f 403/403 404/404 405/405
f 406/406 407/407 408/408
f 409/409 410/410 411/411
f 412/412 413/413 414/414
f 415/415 416/416 417/417
f 418/418 419/419 420/420
f 421/421 422/422 423/423
f 424/424 425/425 426/426
f 427/427 428/428 429/429
f 430/430 431/431 432/432
f 433/433 434/434 435/435
f 436/436 437/437 438/438
f 439/439 440/440 441/441
f 442/442 443/443 444/444
f 445/445 446/446 447/447
f 448/448 449/449 450/450
f 451/451 452/452 453/453
f 454/454 455/455 456/456
f 457/457 458/458 459/459
f 460/460 461/461 462/462
f 463/463 464/464 465/465
f 466/466 467/467 468/468
f 469/469 470/470 471/471
f 472/472 473/473 474/474
f 475/475 476/476 477/477
f 478/478 479/479 480/480
f 481/481 482/482 483/483
f 484/484 485/485 486/486
f 487/487 488/488 489/489
f 490/490 491/491 492/492
f 493/493 494/494 495/495
f 496/496 497/497 498/498
f 499/499 500/500 501/501
f 502/502 503/503 504/504
f 505/505 506/506 507/507
f 508/508 509/509 510/510
f 511/511 512/512 513/513
f 514/514 515/515 516/516
f 517/517 518/518 519/519
f 520/520 521/521 522/522
f 523/523 524/524 525/525
f 526/526 527/527 528/528
f 529/529 530/530 531/531
f 532/532 533/533 534/534
f 535/535 536/536 537/537
f 538/538 539/539 540/540
f 541/541 542/542 543/543
f 544/544 545/545 546/546
f 547/547 548/548 549/549
f 550/550 551/551 552/552
f 553/553 554/554 555/555
f 556/556 557/557 558/558
f 559/559 560/560 561/561
f 562/562 563/563 564/564
f 565/565 566/566 567/567
f 568/568 569/569 570/570
f 571/571 572/572 573/573
f 574/574 575/575 576/576
f 577/577 578/578 579/579
f 580/580 581/581 582/582
f 583/583 584/584 585/585
f 586/586 587/587 588/588
f 589/589 590/590 591/591
f 592/592 593/593 594/594
f 595/595 596/596 597/597
f 598/598 599/599 600/600
f 601/601 602/602 603/603
f 604/604 605/605 606/606
f 607/607 608/608 609/609
f 610/610 611/611 612/612
f 613/613 614/614 615/615
f 616/616 617/617 618/618
f 619/619 620/620 621/621
f 622/622 623/623 624/624
f 625/625 626/626 627/627
f 628/628 629/629 630/630
f 631/631 632/632 633/633
f 634/634 635/635 636/636
f 637/637 638/638 639/639
f 640/640 641/641 642/642
f 643/643 644/644 645/645
f 646/646 647/647 648/648
f 649/649 650/650 651/651
f 652/652 653/653 654/654
f 655/655 656/656 657/657
f 658/658 659/659 660/660
f 661/661 662/662 663/663
f 664/664 665/665 666/666
f 667/667 668/668 669/669
f 670/670 671/671 672/672
f 673/673 674/674 675/675
f 676/676 677/677 678/678
f 679/679 680/680 681/681
f 682/682 683/683 684/684
f 685/685 686/686 687/687
f 688/688 689/689 690/690
f 691/691 692/692 693/693
f 694/694 695/695 696/696
f 697/697 698/698 699/699
f 700/700 701/701 702/702
f 703/703 704/704 705/705
f 706/706 707/707 708/708
f 709/709 710/710 711/711
f 712/712 713/713 714/714
f 715/715 716/716 717/717
f 718/718 719/719 720/720
f 721/721 722/722 723/723
f 724/724 725/725 726/726
f 727/727 728/728 729/729
f 730/730 731/731 732/732
f 733/733 734/734 735/735
f 736/736 737/737 738/738
f 739/739 740/740 741/741
f 742/742 743/743 744/744
f 745/745 746/746 747/747
f 748/748 749/749 750/750
f 751/751 752/752 753/753
f 754/754 755/755 756/756
f 757/757 758/758 759/759
f 760/760 761/761 762/762
f 763/763 764/764 765/765
f 766/766 767/767 768/768
f 769/769 770/770 771/771
f 772/772 773/773 774/774
f 775/775 776/776 777/777
f 778/778 779/779 780/780
f 781/781 782/782 783/783
f 784/784 785/785 786/786
f 787/787 788/788 789/789
f 790/790 791/791 792/792
f 793/793 794/794 795/795
f 796/796 797/797 798/798
f 799/799 800/800 801/801
f 802/802 803/803 804/804
f 805/805 806/806 807/807
f 808/808 809/809 810/810
f 811/811 812/812 813/813
f 814/814 815/815 816/816
f 817/817 818/818 819/819
f 820/820 821/821 822/822
f 823/823 824/824 825/825
f 826/826 827/827 828/828
f 829/829 830/830 831/831
f 832/832 833/833 834/834
f 835/835 836/836 837/837
f 838/838 839/839 840/840
f 841/841 842/842 843/843
f 844/844 845/845 846/846
f 847/847 848/848 849/849
f 850/850 851/851 852/852
f 853/853 854/854 855/855
f 856/856 857/857 858/858
f 859/859 860/860 861/861
f 862/862 863/863 864/864
f 865/865 866/866 867/867
f 868/868 869/869 870/870
f 871/871 872/872 873/873
f 874/874 875/875 876/876
f 877/877 878/878 879/879
f 880/880 881/881 882/882
f 883/883 884/884 885/885
f 886/886 887/887 888/888
f 889/889 890/890 891/891
f 892/892 893/893 894/894
f 895/895 896/896 897/897
f 898/898 899/899 900/900
f 901/901 902/902 903/903
f 904/904 905/905 906/906
f 907/907 908/908 909/909
f 910/910 911/911 912/912
f 913/913 914/914 915/915
f 916/916 917/917 918/918
f 919/919 920/920 921/921
f 922/922 923/923 924/924
f 925/925 926/926 927/927
f 928/928 929/929 930/930
f 931/931 932/932 933/933
f 934/934 935/935 936/936
f 937/937 938/938 939/939
f 940/940 941/941 942/942
f 943/943 944/944 945/945
f 946/946 947/947 948/948
f 949/949 950/950 951/951
f 952/952 953/953 954/954
f 955/955 956/956 957/957
f 958/958 959/959 960/960
f 961/961 962/962 963/963
f 964/964 965/965 966/966
f 967/967 968/968 969/969
f 970/970 971/971 972/972
f 973/973 974/974 975/975
f 976/976 977/977 978/978
f 979/979 980/980 981/981
f 982/982 983/983 984/984
f 985/985 986/986 987/987
f 988/988 989/989 990/990
f 991/991 992/992 993/993
f 994/994 995/995 996/996
f 997/997 998/998 999/999
f 1000/1000 1001/1001 1002/1002
f 1003/1003 1004/1004 1005/1005
f 1006/1006 1007/1007 1008/1008
f 1009/1009 1010/1010 1011/1011
f 1012/1012 1013/1013 1014/1014
f 1015/1015 1016/1016 1017/1017
f 1018/1018 1019/1019 1020/1020
f 1021/1021 1022/1022 1023/1023
f 1024/1024 1025/1025 1026/1026
f 1027/1027 1028/1028 1029/1029
f 1030/1030 1031/1031 1032/1032
f 1033/1033 1034/1034 1035/1035
f 1036/1036 1037/1037 1038/1038
f 1039/1039 1040/1040 1041/1041
f 1042/1042 1043/1043 1044/1044
f 1045/1045 1046/1046 1047/1047
f 1048/1048 1049/1049 1050/1050
f 1051/1051 1052/1052 1053/1053
f 1054/1054 1055/1055 1056/1056
f 1057/1057 1058/1058 1059/1059
f 1060/1060 1061/1061 1062/1062
f 1063/1063 1064/1064 1065/1065
f 1066/1066 1067/1067 1068/1068
f 1069/1069 1070/1070 1071/1071
f 1072/1072 1073/1073 1074/1074
f 1075/1075 1076/1076 1077/1077
f 1078/1078 1079/1079 1080/1080
f 1081/1081 1082/1082 1083/1083
f 1084/1084 1085/1085 1086/1086
f 1087/1087 1088/1088 1089/1089
f 1090/1090 1091/1091 1092/1092
f 1093/1093 1094/1094 1095/1095
f 1096/1096 1097/1097 1098/1098
f 1099/1099 1100/1100 1101/1101
f 1102/1102 1103/1103 1104/1104
f 1105/1105 1106/1106 1107/1107
f 1108/1108 1109/1109 1110/1110
f 1111/1111 1112/1112 1113/1113
f 1114/1114 1115/1115 1116/1116
f 1117/1117 1118/1118 1119/1119
f 1120/1120 1121/1121 1122/1122
f 1123/1123 1124/1124 1125/1125
f 1126/1126 1127/1127 1128/1128
f 1129/1129 1130/1130 1131/1131
f 1132/1132 1133/1133 1134/1134
f 1135/1135 1136/1136 1137/1137
f 1138/1138 1139/1139 1140/1140
f 1141/1141 1142/1142 1143/1143
f 1144/1144 1145/1145 1146/1146
f 1147/1147 1148/1148 1149/1149
f 1150/1150 1151/1151 1152/1152
f 1153/1153 1154/1154 1155/1155
f 1156/1156 1157/1157 1158/1158
f 1159/1159 1160/1160 1161/1161
f 1162/1162 1163/1163 1164/1164
f 1165/1165 1166/1166 1167/1167
f 1168/1168 1169/1169 1170/1170
f 1171/1171 1172/1172 1173/1173
f 1174/1174 1175/1175 1176/1176
f 1177/1177 1178/1178 1179/1179
f 1180/1180 1181/1181 1182/1182
f 1183/1183 1184/1184 1185/1185
f 1186/1186 1187/1187 1188/1188
f 1189/1189 1190/1190 1191/1191
f 1192/1192 1193/1193 1194/1194
f 1195/1195 1196/1196 1197/1197
f 1198/1198 1199/1199 1200/1200
f 1201/1201 1202/1202 1203/1203
f 1204/1204 1205/1205 1206/1206
f 1207/1207 1208/1208 1209/1209
f 1210/1210 1211/1211 1212/1212
f 1213/1213 1214/1214 1215/1215
f 1216/1216 1217/1217 1218/1218
f 1219/1219 1220/1220 1221/1221
f 1222/1222 1223/1223 1224/1224
f 1225/1225 1226/1226 1227/1227
f 1228/1228 1229/1229 1230/1230
f 1231/1231 1232/1232 1233/1233
f 1234/1234 1235/1235 1236/1236
f 1237/1237 1238/1238 1239/1239
f 1240/1240 1241/1241 1242/1242
f 1243/1243 1244/1244 1245/1245
f 1246/1246 1247/1247 1248/1248
f 1249/1249 1250/1250 1251/1251
f 1252/1252 1253/1253 1254/1254
f 1255/1255 1256/1256 1257/1257
f 1258/1258 1259/1259 1260/1260
f 1261/1261 1262/1262 1263/1263
f 1264/1264 1265/1265 1266/1266
f 1267/1267 1268/1268 1269/1269
f 1270/1270 1271/1271 1272/1272
f 1273/1273 1274/1274 1275/1275
f 1276/1276 1277/1277 1278/1278
f 1279/1279 1280/1280 1281/1281
f 1282/1282 1283/1283 1284/1284
f 1285/1285 1286/1286 1287/1287
f 1288/1288 1289/1289 1290/1290
f 1291/1291 1292/1292 1293/1293
f 1294/1294 1295/1295 1296/1296
f 1297/1297 1298/1298 1299/1299
f 1300/1300 1301/1301 1302/1302
f 1303/1303 1304/1304 1305/1305
f 1306/1306 1307/1307 1308/1308
f 1309/1309 1310/1310 1311/1311
f 1312/1312 1313/1313 1314/1314
f 1315/1315 1316/1316 1317/1317
f 1318/1318 1319/1319 1320/1320
f 1321/1321 1322/1322 1323/1323
f 1324/1324 1325/1325 1326/1326
f 1327/1327 1328/1328 1329/1329
f 1330/1330 1331/1331 1332/1332
f 1333/1333 1334/1334 1335/1335
f 1336/1336 1337/1337 1338/1338
f 1339/1339 1340/1340 1341/1341
f 1342/1342 1343/1343 1344/1344
f 1345/1345 1346/1346 1347/1347
f 1348/1348 1349/1349 1350/1350
f 1351/1351 1352/1352 1353/1353
f 1354/1354 1355/1355 1356/1356
f 1357/1357 1358/1358 1359/1359
f 1360/1360 1361/1361 1362/1362
f 1363/1363 1364/1364 1365/1365
f 1366/1366 1367/1367 1368/1368
