mtllib garden_root_pavilion_roots.mtl
usemtl baked
v -1.298072 2.926195 4.728695
v -1.191254 2.950031 4.675961
v -1.498843 2.315614 4.070015
v -1.191254 2.950031 4.675961
v -1.373713 2.343537 4.008241
v -1.498843 2.315614 4.070015
v -1.191254 2.950031 4.675961
v -1.164872 3.035120 4.593359
v -1.373713 2.343537 4.008241
v -1.164872 3.035120 4.593359
v -1.342809 2.443213 3.911479
v -1.373713 2.343537 4.008241
v -1.164872 3.035120 4.593359
v -1.238792 3.117389 4.543091
v -1.342809 2.443213 3.911479
v -1.238792 3.117389 4.543091
v -1.429401 2.539584 3.852593
v -1.342809 2.443213 3.911479
v -1.238792 3.117389 4.543091
v -1.357352 3.134886 4.563009
v -1.429401 2.539584 3.852593
v -1.357352 3.134886 4.563009
v -1.568285 2.560081 3.875926
v -1.429401 2.539584 3.852593
v -1.357352 3.134886 4.563009
v -1.431272 3.074437 4.638114
v -1.568285 2.560081 3.875926
v -1.431272 3.074437 4.638114
v -1.654878 2.489270 3.963907
v -1.568285 2.560081 3.875926
v -1.431272 3.074437 4.638114
v -1.404890 2.981561 4.711852
v -1.654878 2.489270 3.963907
v -1.404890 2.981561 4.711852
v -1.623973 2.380472 4.050285
v -1.654878 2.489270 3.963907
v -1.404890 2.981561 4.711852
v -1.298072 2.926195 4.728695
v -1.623973 2.380472 4.050285
v -1.298072 2.926195 4.728695
v -1.498843 2.315614 4.070015
v -1.623973 2.380472 4.050285
v -1.498843 2.315614 4.070015
v -1.373713 2.343537 4.008241
v -1.699614 1.705034 3.411336
v -1.373713 2.343537 4.008241
v -1.556173 1.737043 3.340522
v -1.699614 1.705034 3.411336
v -1.373713 2.343537 4.008241
v -1.342809 2.443213 3.911479
v -1.556173 1.737043 3.340522
v -1.342809 2.443213 3.911479
v -1.520746 1.851305 3.229599
v -1.556173 1.737043 3.340522
v -1.342809 2.443213 3.911479
v -1.429401 2.539584 3.852593
v -1.520746 1.851305 3.229599
v -1.429401 2.539584 3.852593
v -1.620010 1.961780 3.162097
v -1.520746 1.851305 3.229599
v -1.429401 2.539584 3.852593
v -1.568285 2.560081 3.875926
v -1.620010 1.961780 3.162097
v -1.568285 2.560081 3.875926
v -1.779218 1.985277 3.188844
v -1.620010 1.961780 3.162097
v -1.568285 2.560081 3.875926
v -1.654878 2.489270 3.963907
v -1.779218 1.985277 3.188844
v -1.654878 2.489270 3.963907
v -1.878483 1.904102 3.289700
v -1.779218 1.985277 3.188844
v -1.654878 2.489270 3.963907
v -1.623973 2.380472 4.050285
v -1.878483 1.904102 3.289700
v -1.623973 2.380472 4.050285
v -1.843056 1.779382 3.388718
v -1.878483 1.904102 3.289700
v -1.623973 2.380472 4.050285
v -1.498843 2.315614 4.070015
v -1.843056 1.779382 3.388718
v -1.498843 2.315614 4.070015
v -1.699614 1.705034 3.411336
v -1.843056 1.779382 3.388718
v -1.699614 1.705034 3.411336
v -1.556173 1.737043 3.340522
v -1.900386 1.094454 2.752657
v -1.556173 1.737043 3.340522
v -1.738632 1.130548 2.672802
v -1.900386 1.094454 2.752657
v -1.556173 1.737043 3.340522
v -1.520746 1.851305 3.229599
v -1.738632 1.130548 2.672802
v -1.520746 1.851305 3.229599
v -1.698683 1.259398 2.547720
v -1.738632 1.130548 2.672802
v -1.520746 1.851305 3.229599
v -1.620010 1.961780 3.162097
v -1.698683 1.259398 2.547720
v -1.620010 1.961780 3.162097
v -1.810619 1.383976 2.471600
v -1.698683 1.259398 2.547720
v -1.620010 1.961780 3.162097
v -1.779218 1.985277 3.188844
v -1.810619 1.383976 2.471600
v -1.779218 1.985277 3.188844
v -1.990152 1.410472 2.501761
v -1.810619 1.383976 2.471600
v -1.779218 1.985277 3.188844
v -1.878483 1.904102 3.289700
v -1.990152 1.410472 2.501761
v -1.878483 1.904102 3.289700
v -2.102089 1.318935 2.615493
v -1.990152 1.410472 2.501761
v -1.878483 1.904102 3.289700
v -1.843056 1.779382 3.388718
v -2.102089 1.318935 2.615493
v -1.843056 1.779382 3.388718
v -2.062139 1.178293 2.727152
v -2.102089 1.318935 2.615493
v -1.843056 1.779382 3.388718
v -1.699614 1.705034 3.411336
v -2.062139 1.178293 2.727152
v -1.699614 1.705034 3.411336
v -1.900386 1.094454 2.752657
v -2.062139 1.178293 2.727152
v -1.900386 1.094454 2.752657
v -1.738632 1.130548 2.672802
v -2.101157 0.483873 2.093978
v -1.738632 1.130548 2.672802
v -1.921092 0.524054 2.005083
v -2.101157 0.483873 2.093978
v -1.738632 1.130548 2.672802
v -1.698683 1.259398 2.547720
v -1.921092 0.524054 2.005083
v -1.698683 1.259398 2.547720
v -1.876619 0.667490 1.865840
v -1.921092 0.524054 2.005083
v -1.698683 1.259398 2.547720
v -1.810619 1.383976 2.471600
v -1.876619 0.667490 1.865840
v -1.810619 1.383976 2.471600
v -2.001228 0.806171 1.781102
v -1.876619 0.667490 1.865840
v -1.810619 1.383976 2.471600
v -1.990152 1.410472 2.501761
v -2.001228 0.806171 1.781102
v -1.990152 1.410472 2.501761
v -2.201086 0.835667 1.814678
v -2.001228 0.806171 1.781102
v -1.990152 1.410472 2.501761
v -2.102089 1.318935 2.615493
v -2.201086 0.835667 1.814678
v -2.102089 1.318935 2.615493
v -2.325694 0.733767 1.941285
v -2.201086 0.835667 1.814678
v -2.102089 1.318935 2.615493
v -2.062139 1.178293 2.727152
v -2.325694 0.733767 1.941285
v -2.062139 1.178293 2.727152
v -2.281222 0.577204 2.065585
v -2.325694 0.733767 1.941285
v -2.062139 1.178293 2.727152
v -1.900386 1.094454 2.752657
v -2.281222 0.577204 2.065585
v -1.900386 1.094454 2.752657
v -2.101157 0.483873 2.093978
v -2.281222 0.577204 2.065585
v -2.101157 0.483873 2.093978
v -1.921092 0.524054 2.005083
v -2.301928 -0.126707 1.435299
v -1.921092 0.524054 2.005083
v -2.103551 -0.082440 1.337364
v -2.301928 -0.126707 1.435299
v -1.921092 0.524054 2.005083
v -1.876619 0.667490 1.865840
v -2.103551 -0.082440 1.337364
v -1.876619 0.667490 1.865840
v -2.054556 0.075583 1.183961
v -2.103551 -0.082440 1.337364
v -1.876619 0.667490 1.865840
v -2.001228 0.806171 1.781102
v -2.054556 0.075583 1.183961
v -2.001228 0.806171 1.781102
v -2.191837 0.228367 1.090605
v -2.054556 0.075583 1.183961
v -2.001228 0.806171 1.781102
v -2.201086 0.835667 1.814678
v -2.191837 0.228367 1.090605
v -2.201086 0.835667 1.814678
v -2.412019 0.260862 1.127596
v -2.191837 0.228367 1.090605
v -2.201086 0.835667 1.814678
v -2.325694 0.733767 1.941285
v -2.412019 0.260862 1.127596
v -2.325694 0.733767 1.941285
v -2.549300 0.148600 1.267078
v -2.412019 0.260862 1.127596
v -2.325694 0.733767 1.941285
v -2.281222 0.577204 2.065585
v -2.549300 0.148600 1.267078
v -2.281222 0.577204 2.065585
v -2.500305 -0.023885 1.404019
v -2.549300 0.148600 1.267078
v -2.281222 0.577204 2.065585
v -2.101157 0.483873 2.093978
v -2.500305 -0.023885 1.404019
v -2.101157 0.483873 2.093978
v -2.301928 -0.126707 1.435299
v -2.500305 -0.023885 1.404019
v -1.298072 3.031374 4.636297
v -1.191254 2.950031 4.675961
v -1.298072 2.926195 4.728695
v -1.298072 3.031374 4.636297
v -1.164872 3.035120 4.593359
v -1.191254 2.950031 4.675961
v -1.298072 3.031374 4.636297
v -1.238792 3.117389 4.543091
v -1.164872 3.035120 4.593359
v -1.298072 3.031374 4.636297
v -1.357352 3.134886 4.563009
v -1.238792 3.117389 4.543091
v -1.298072 3.031374 4.636297
v -1.431272 3.074437 4.638114
v -1.357352 3.134886 4.563009
v -1.298072 3.031374 4.636297
v -1.404890 2.981561 4.711852
v -1.431272 3.074437 4.638114
v -1.298072 3.031374 4.636297
v -1.298072 2.926195 4.728695
v -1.404890 2.981561 4.711852
v -2.301928 0.068626 1.263703
v -2.301928 -0.126707 1.435299
v -2.103551 -0.082440 1.337364
v -2.301928 0.068626 1.263703
v -2.103551 -0.082440 1.337364
v -2.054556 0.075583 1.183961
v -2.301928 0.068626 1.263703
v -2.054556 0.075583 1.183961
v -2.191837 0.228367 1.090605
v -2.301928 0.068626 1.263703
v -2.191837 0.228367 1.090605
v -2.412019 0.260862 1.127596
v -2.301928 0.068626 1.263703
v -2.412019 0.260862 1.127596
v -2.549300 0.148600 1.267078
v -2.301928 0.068626 1.263703
v -2.549300 0.148600 1.267078
v -2.500305 -0.023885 1.404019
v -2.301928 0.068626 1.263703
v -2.500305 -0.023885 1.404019
v -2.301928 -0.126707 1.435299
v 1.298072 2.926195 4.728695
v 1.404890 2.981561 4.711852
v 1.498843 2.315614 4.070015
v 1.404890 2.981561 4.711852
v 1.623973 2.380472 4.050285
v 1.498843 2.315614 4.070015
v 1.404890 2.981561 4.711852
v 1.431272 3.074437 4.638114
v 1.623973 2.380472 4.050285
v 1.431272 3.074437 4.638114
v 1.654878 2.489270 3.963907
v 1.623973 2.380472 4.050285
v 1.431272 3.074437 4.638114
v 1.357352 3.134886 4.563009
v 1.654878 2.489270 3.963907
v 1.357352 3.134886 4.563009
v 1.568285 2.560081 3.875926
v 1.654878 2.489270 3.963907
v 1.357352 3.134886 4.563009
v 1.238792 3.117389 4.543091
v 1.568285 2.560081 3.875926
v 1.238792 3.117389 4.543091
v 1.429401 2.539584 3.852593
v 1.568285 2.560081 3.875926
v 1.238792 3.117389 4.543091
v 1.164872 3.035120 4.593359
v 1.429401 2.539584 3.852593
v 1.164872 3.035120 4.593359
v 1.342809 2.443213 3.911479
v 1.429401 2.539584 3.852593
v 1.164872 3.035120 4.593359
v 1.191254 2.950031 4.675961
v 1.342809 2.443213 3.911479
v 1.191254 2.950031 4.675961
v 1.373713 2.343537 4.008241
v 1.342809 2.443213 3.911479
v 1.191254 2.950031 4.675961
v 1.298072 2.926195 4.728695
v 1.373713 2.343537 4.008241
v 1.298072 2.926195 4.728695
v 1.498843 2.315614 4.070015
v 1.373713 2.343537 4.008241
v 1.498843 2.315614 4.070015
v 1.623973 2.380472 4.050285
v 1.699614 1.705034 3.411336
v 1.623973 2.380472 4.050285
v 1.843056 1.779382 3.388718
v 1.699614 1.705034 3.411336
v 1.623973 2.380472 4.050285
v 1.654878 2.489270 3.963907
v 1.843056 1.779382 3.388718
v 1.654878 2.489270 3.963907
v 1.878483 1.904102 3.289700
v 1.843056 1.779382 3.388718
v 1.654878 2.489270 3.963907
v 1.568285 2.560081 3.875926
v 1.878483 1.904102 3.289700
v 1.568285 2.560081 3.875926
v 1.779218 1.985277 3.188843
v 1.878483 1.904102 3.289700
v 1.568285 2.560081 3.875926
v 1.429401 2.539584 3.852593
v 1.779218 1.985277 3.188843
v 1.429401 2.539584 3.852593
v 1.620010 1.961780 3.162097
v 1.779218 1.985277 3.188843
v 1.429401 2.539584 3.852593
v 1.342809 2.443213 3.911479
v 1.620010 1.961780 3.162097
v 1.342809 2.443213 3.911479
v 1.520746 1.851305 3.229599
v 1.620010 1.961780 3.162097
v 1.342809 2.443213 3.911479
v 1.373713 2.343537 4.008241
v 1.520746 1.851305 3.229599
v 1.373713 2.343537 4.008241
v 1.556173 1.737043 3.340522
v 1.520746 1.851305 3.229599
v 1.373713 2.343537 4.008241
v 1.498843 2.315614 4.070015
v 1.556173 1.737043 3.340522
v 1.498843 2.315614 4.070015
v 1.699614 1.705034 3.411336
v 1.556173 1.737043 3.340522
v 1.699614 1.705034 3.411336
v 1.843056 1.779382 3.388718
v 1.900386 1.094454 2.752657
v 1.843056 1.779382 3.388718
v 2.062139 1.178293 2.727152
v 1.900386 1.094454 2.752657
v 1.843056 1.779382 3.388718
v 1.878483 1.904102 3.289700
v 2.062139 1.178293 2.727152
v 1.878483 1.904102 3.289700
v 2.102089 1.318935 2.615493
v 2.062139 1.178293 2.727152
v 1.878483 1.904102 3.289700
v 1.779218 1.985277 3.188843
v 2.102089 1.318935 2.615493
v 1.779218 1.985277 3.188843
v 1.990152 1.410472 2.501761
v 2.102089 1.318935 2.615493
v 1.779218 1.985277 3.188843
v 1.620010 1.961780 3.162097
v 1.990152 1.410472 2.501761
v 1.620010 1.961780 3.162097
v 1.810619 1.383976 2.471600
v 1.990152 1.410472 2.501761
v 1.620010 1.961780 3.162097
v 1.520746 1.851305 3.229599
v 1.810619 1.383976 2.471600
v 1.520746 1.851305 3.229599
v 1.698683 1.259398 2.547720
v 1.810619 1.383976 2.471600
v 1.520746 1.851305 3.229599
v 1.556173 1.737043 3.340522
v 1.698683 1.259398 2.547720
v 1.556173 1.737043 3.340522
v 1.738632 1.130548 2.672802
v 1.698683 1.259398 2.547720
v 1.556173 1.737043 3.340522
v 1.699614 1.705034 3.411336
v 1.738632 1.130548 2.672802
v 1.699614 1.705034 3.411336
v 1.900386 1.094454 2.752657
v 1.738632 1.130548 2.672802
v 1.900386 1.094454 2.752657
v 2.062139 1.178293 2.727152
v 2.101157 0.483873 2.093978
v 2.062139 1.178293 2.727152
v 2.281222 0.577204 2.065585
v 2.101157 0.483873 2.093978
v 2.062139 1.178293 2.727152
v 2.102089 1.318935 2.615493
v 2.281222 0.577204 2.065585
v 2.102089 1.318935 2.615493
v 2.325694 0.733767 1.941285
v 2.281222 0.577204 2.065585
v 2.102089 1.318935 2.615493
v 1.990152 1.410472 2.501761
v 2.325694 0.733767 1.941285
v 1.990152 1.410472 2.501761
v 2.201085 0.835667 1.814678
v 2.325694 0.733767 1.941285
v 1.990152 1.410472 2.501761
v 1.810619 1.383976 2.471600
v 2.201085 0.835667 1.814678
v 1.810619 1.383976 2.471600
v 2.001228 0.806171 1.781102
v 2.201085 0.835667 1.814678
v 1.810619 1.383976 2.471600
v 1.698683 1.259398 2.547720
v 2.001228 0.806171 1.781102
v 1.698683 1.259398 2.547720
v 1.876619 0.667490 1.865840
v 2.001228 0.806171 1.781102
v 1.698683 1.259398 2.547720
v 1.738632 1.130548 2.672802
v 1.876619 0.667490 1.865840
v 1.738632 1.130548 2.672802
v 1.921092 0.524054 2.005083
v 1.876619 0.667490 1.865840
v 1.738632 1.130548 2.672802
v 1.900386 1.094454 2.752657
v 1.921092 0.524054 2.005083
v 1.900386 1.094454 2.752657
v 2.101157 0.483873 2.093978
v 1.921092 0.524054 2.005083
v 2.101157 0.483873 2.093978
v 2.281222 0.577204 2.065585
v 2.301928 -0.126707 1.435299
v 2.281222 0.577204 2.065585
v 2.500305 -0.023885 1.404019
v 2.301928 -0.126707 1.435299
v 2.281222 0.577204 2.065585
v 2.325694 0.733767 1.941285
v 2.500305 -0.023885 1.404019
v 2.325694 0.733767 1.941285
v 2.549300 0.148600 1.267078
v 2.500305 -0.023885 1.404019
v 2.325694 0.733767 1.941285
v 2.201085 0.835667 1.814678
v 2.549300 0.148600 1.267078
v 2.201085 0.835667 1.814678
v 2.412019 0.260862 1.127596
v 2.549300 0.148600 1.267078
v 2.201085 0.835667 1.814678
v 2.001228 0.806171 1.781102
v 2.412019 0.260862 1.127596
v 2.001228 0.806171 1.781102
v 2.191837 0.228367 1.090605
v 2.412019 0.260862 1.127596
v 2.001228 0.806171 1.781102
v 1.876619 0.667490 1.865840
v 2.191837 0.228367 1.090605
v 1.876619 0.667490 1.865840
v 2.054556 0.075583 1.183961
v 2.191837 0.228367 1.090605
v 1.876619 0.667490 1.865840
v 1.921092 0.524054 2.005083
v 2.054556 0.075583 1.183961
v 1.921092 0.524054 2.005083
v 2.103551 -0.082440 1.337364
v 2.054556 0.075583 1.183961
v 1.921092 0.524054 2.005083
v 2.101157 0.483873 2.093978
v 2.103551 -0.082440 1.337364
v 2.101157 0.483873 2.093978
v 2.301928 -0.126707 1.435299
v 2.103551 -0.082440 1.337364
v 1.298072 3.031374 4.636297
v 1.404890 2.981561 4.711852
v 1.298072 2.926195 4.728695
v 1.298072 3.031374 4.636297
v 1.431272 3.074437 4.638114
v 1.404890 2.981561 4.711852
v 1.298072 3.031374 4.636297
v 1.357352 3.134886 4.563009
v 1.431272 3.074437 4.638114
v 1.298072 3.031374 4.636297
v 1.238792 3.117389 4.543091
v 1.357352 3.134886 4.563009
v 1.298072 3.031374 4.636297
v 1.164872 3.035120 4.593359
v 1.238792 3.117389 4.543091
v 1.298072 3.031374 4.636297
v 1.191254 2.950031 4.675961
v 1.164872 3.035120 4.593359
v 1.298072 3.031374 4.636297
v 1.298072 2.926195 4.728695
v 1.191254 2.950031 4.675961
v 2.301928 0.068626 1.263703
v 2.301928 -0.126707 1.435299
v 2.500305 -0.023885 1.404019
v 2.301928 0.068626 1.263703
v 2.500305 -0.023885 1.404019
v 2.549300 0.148600 1.267078
v 2.301928 0.068626 1.263703
v 2.549300 0.148600 1.267078
v 2.412019 0.260862 1.127596
v 2.301928 0.068626 1.263703
v 2.412019 0.260862 1.127596
v 2.191837 0.228367 1.090605
v 2.301928 0.068626 1.263703
v 2.191837 0.228367 1.090605
v 2.054556 0.075583 1.183961
v 2.301928 0.068626 1.263703
v 2.054556 0.075583 1.183961
v 2.103551 -0.082440 1.337364
v 2.301928 0.068626 1.263703
v 2.103551 -0.082440 1.337364
v 2.301928 -0.126707 1.435299
vt 0.230710 0.568271
vt 0.237386 0.574863
vt 0.218162 0.650606
vt 0.237386 0.574863
vt 0.225982 0.658328
vt 0.218162 0.650606
vt 0.731897 0.971268
vt 0.726735 0.981904
vt 0.690165 0.895456
vt 0.726735 0.981904
vt 0.684117 0.907916
vt 0.690165 0.895456
vt 0.726735 0.981904
vt 0.723593 0.992188
vt 0.684117 0.907916
vt 0.723593 0.992188
vt 0.680437 0.919962
vt 0.684117 0.907916
vt 0.077233 0.989698
vt 0.069823 0.992188
vt 0.065320 0.903386
vt 0.069823 0.992188
vt 0.056640 0.906302
vt 0.065320 0.903386
vt 0.013209 0.539063
vt 0.008515 0.531506
vt 0.056152 0.467212
vt 0.008515 0.531506
vt 0.050653 0.458360
vt 0.056152 0.467212
vt 0.008515 0.531506
vt 0.003906 0.519897
vt 0.050653 0.458360
vt 0.003906 0.519897
vt 0.045254 0.444761
vt 0.050653 0.458360
vt 0.339220 0.973022
vt 0.332544 0.966101
vt 0.352913 0.897886
vt 0.332544 0.966101
vt 0.345092 0.889779
vt 0.352913 0.897886
vt 0.218162 0.650606
vt 0.225982 0.658328
vt 0.205613 0.732941
vt 0.225982 0.658328
vt 0.214578 0.741793
vt 0.205613 0.732941
vt 0.690165 0.895456
vt 0.684117 0.907916
vt 0.648432 0.819644
vt 0.684117 0.907916
vt 0.641500 0.833927
vt 0.648432 0.819644
vt 0.684117 0.907916
vt 0.680437 0.919962
vt 0.641500 0.833927
vt 0.680437 0.919962
vt 0.637281 0.847736
vt 0.641500 0.833927
vt 0.065320 0.903386
vt 0.056640 0.906302
vt 0.053407 0.817073
vt 0.056640 0.906302
vt 0.043456 0.820417
vt 0.053407 0.817073
vt 0.056152 0.467212
vt 0.050653 0.458360
vt 0.099094 0.395361
vt 0.050653 0.458360
vt 0.092791 0.385214
vt 0.099094 0.395361
vt 0.050653 0.458360
vt 0.045254 0.444761
vt 0.092791 0.385214
vt 0.045254 0.444761
vt 0.086602 0.369624
vt 0.092791 0.385214
vt 0.352913 0.897886
vt 0.345092 0.889779
vt 0.366605 0.822750
vt 0.345092 0.889779
vt 0.357640 0.813456
vt 0.366605 0.822750
vt 0.205613 0.732941
vt 0.214578 0.741793
vt 0.193065 0.815276
vt 0.214578 0.741793
vt 0.203175 0.825258
vt 0.193065 0.815276
vt 0.648432 0.819644
vt 0.641500 0.833927
vt 0.606700 0.743832
vt 0.641500 0.833927
vt 0.598882 0.759939
vt 0.606700 0.743832
vt 0.641500 0.833927
vt 0.637281 0.847736
vt 0.598882 0.759939
vt 0.637281 0.847736
vt 0.594125 0.775511
vt 0.598882 0.759939
vt 0.053407 0.817073
vt 0.043456 0.820417
vt 0.041494 0.730761
vt 0.043456 0.820417
vt 0.030273 0.734532
vt 0.041494 0.730761
vt 0.099094 0.395361
vt 0.092791 0.385214
vt 0.142037 0.323511
vt 0.092791 0.385214
vt 0.134929 0.312069
vt 0.142037 0.323511
vt 0.092791 0.385214
vt 0.086602 0.369624
vt 0.134929 0.312069
vt 0.086602 0.369624
vt 0.127950 0.294488
vt 0.134929 0.312069
vt 0.366605 0.822750
vt 0.357640 0.813456
vt 0.380298 0.747613
vt 0.357640 0.813456
vt 0.370188 0.737133
vt 0.380298 0.747613
vt 0.193065 0.815276
vt 0.203175 0.825258
vt 0.180517 0.897611
vt 0.203175 0.825258
vt 0.191771 0.908723
vt 0.180517 0.897611
vt 0.606700 0.743832
vt 0.598882 0.759939
vt 0.564967 0.668021
vt 0.598882 0.759939
vt 0.556265 0.685950
vt 0.564967 0.668021
vt 0.598882 0.759939
vt 0.594125 0.775511
vt 0.556265 0.685950
vt 0.594125 0.775511
vt 0.550969 0.703285
vt 0.556265 0.685950
vt 0.041494 0.730761
vt 0.030273 0.734532
vt 0.029581 0.644449
vt 0.030273 0.734532
vt 0.017090 0.648646
vt 0.029581 0.644449
vt 0.142037 0.323511
vt 0.134929 0.312069
vt 0.184980 0.251660
vt 0.134929 0.312069
vt 0.177067 0.238923
vt 0.184980 0.251660
vt 0.134929 0.312069
vt 0.127950 0.294488
vt 0.177067 0.238923
vt 0.127950 0.294488
vt 0.169298 0.219352
vt 0.177067 0.238923
vt 0.380298 0.747613
vt 0.370188 0.737133
vt 0.393991 0.672477
vt 0.370188 0.737133
vt 0.382737 0.660811
vt 0.393991 0.672477
vt 0.180517 0.897611
vt 0.191771 0.908723
vt 0.167969 0.979946
vt 0.191771 0.908723
vt 0.180367 0.992188
vt 0.167969 0.979946
vt 0.564967 0.668021
vt 0.556265 0.685950
vt 0.523235 0.592209
vt 0.556265 0.685950
vt 0.513647 0.611962
vt 0.523235 0.592209
vt 0.556265 0.685950
vt 0.550969 0.703285
vt 0.513647 0.611962
vt 0.550969 0.703285
vt 0.507813 0.631060
vt 0.513647 0.611962
vt 0.029581 0.644449
vt 0.017090 0.648646
vt 0.017668 0.558137
vt 0.017090 0.648646
vt 0.003906 0.562761
vt 0.017668 0.558137
vt 0.184980 0.251660
vt 0.177067 0.238923
vt 0.227922 0.179809
vt 0.177067 0.238923
vt 0.219205 0.165777
vt 0.227922 0.179809
vt 0.177067 0.238923
vt 0.169298 0.219352
vt 0.219205 0.165777
vt 0.169298 0.219352
vt 0.210646 0.144216
vt 0.219205 0.165777
vt 0.393991 0.672477
vt 0.382737 0.660811
vt 0.407683 0.597341
vt 0.382737 0.660811
vt 0.395285 0.584488
vt 0.407683 0.597341
vt 0.332544 0.979249
vt 0.325868 0.969081
vt 0.332544 0.966101
vt 0.332544 0.979249
vt 0.324219 0.979717
vt 0.325868 0.969081
vt 0.332544 0.979249
vt 0.328839 0.990000
vt 0.324219 0.979717
vt 0.332544 0.979249
vt 0.336249 0.992188
vt 0.328839 0.990000
vt 0.332544 0.979249
vt 0.340869 0.984631
vt 0.336249 0.992188
vt 0.332544 0.979249
vt 0.339220 0.973022
vt 0.340869 0.984631
vt 0.332544 0.979249
vt 0.332544 0.966101
vt 0.339220 0.973022
vt 0.484211 0.515033
vt 0.484211 0.490616
vt 0.496609 0.496150
vt 0.484211 0.515033
vt 0.496609 0.496150
vt 0.499671 0.515903
vt 0.484211 0.515033
vt 0.499671 0.515903
vt 0.491091 0.535001
vt 0.484211 0.515033
vt 0.491091 0.535001
vt 0.477330 0.539063
vt 0.484211 0.515033
vt 0.477330 0.539063
vt 0.468750 0.525030
vt 0.484211 0.515033
vt 0.468750 0.525030
vt 0.471812 0.503469
vt 0.484211 0.515033
vt 0.471812 0.503469
vt 0.484211 0.490616
vt 0.491155 0.966101
vt 0.484479 0.973022
vt 0.478607 0.889779
vt 0.484479 0.973022
vt 0.470786 0.897886
vt 0.478607 0.889779
vt 0.460344 0.519897
vt 0.455736 0.531506
vt 0.418996 0.444761
vt 0.455736 0.531506
vt 0.413598 0.458360
vt 0.418996 0.444761
vt 0.455736 0.531506
vt 0.451041 0.539063
vt 0.413598 0.458360
vt 0.451041 0.539063
vt 0.408099 0.467212
vt 0.413598 0.458360
vt 0.093347 0.992188
vt 0.085938 0.989698
vt 0.106531 0.906302
vt 0.085938 0.989698
vt 0.097851 0.903386
vt 0.106531 0.906302
vt 0.748539 0.992188
vt 0.745397 0.981904
vt 0.791695 0.919962
vt 0.745397 0.981904
vt 0.788014 0.907916
vt 0.791695 0.919962
vt 0.745397 0.981904
vt 0.740234 0.971268
vt 0.788014 0.907916
vt 0.740234 0.971268
vt 0.781967 0.895456
vt 0.788014 0.907916
vt 0.246094 0.574863
vt 0.252770 0.568271
vt 0.257497 0.658328
vt 0.252770 0.568271
vt 0.265318 0.650606
vt 0.257497 0.658328
vt 0.478607 0.889779
vt 0.470786 0.897886
vt 0.466059 0.813456
vt 0.470786 0.897886
vt 0.457094 0.822750
vt 0.466059 0.813456
vt 0.418996 0.444761
vt 0.413598 0.458360
vt 0.377648 0.369624
vt 0.413598 0.458360
vt 0.371460 0.385214
vt 0.377648 0.369624
vt 0.413598 0.458360
vt 0.408099 0.467212
vt 0.371460 0.385214
vt 0.408099 0.467212
vt 0.365156 0.395361
vt 0.371460 0.385214
vt 0.106531 0.906302
vt 0.097851 0.903386
vt 0.119714 0.820417
vt 0.097851 0.903386
vt 0.109764 0.817073
vt 0.119714 0.820417
vt 0.791695 0.919962
vt 0.788014 0.907916
vt 0.834851 0.847736
vt 0.788014 0.907916
vt 0.830632 0.833927
vt 0.834851 0.847736
vt 0.788014 0.907916
vt 0.781967 0.895456
vt 0.830632 0.833927
vt 0.781967 0.895456
vt 0.823699 0.819644
vt 0.830632 0.833927
vt 0.257497 0.658328
vt 0.265318 0.650606
vt 0.268901 0.741793
vt 0.265318 0.650606
vt 0.277866 0.732941
vt 0.268901 0.741793
vt 0.466059 0.813456
vt 0.457094 0.822750
vt 0.453511 0.737133
vt 0.457094 0.822750
vt 0.443401 0.747613
vt 0.453511 0.737133
vt 0.377648 0.369624
vt 0.371460 0.385214
vt 0.336300 0.294488
vt 0.371460 0.385214
vt 0.329322 0.312069
vt 0.336300 0.294488
vt 0.371460 0.385214
vt 0.365156 0.395361
vt 0.329322 0.312069
vt 0.365156 0.395361
vt 0.322213 0.323511
vt 0.329322 0.312069
vt 0.119714 0.820417
vt 0.109764 0.817073
vt 0.132897 0.734532
vt 0.109764 0.817073
vt 0.121677 0.730761
vt 0.132897 0.734532
vt 0.834851 0.847736
vt 0.830632 0.833927
vt 0.878007 0.775511
vt 0.830632 0.833927
vt 0.873249 0.759939
vt 0.878007 0.775511
vt 0.830632 0.833927
vt 0.823699 0.819644
vt 0.873249 0.759939
vt 0.823699 0.819644
vt 0.865432 0.743832
vt 0.873249 0.759939
vt 0.268901 0.741793
vt 0.277866 0.732941
vt 0.280305 0.825258
vt 0.277866 0.732941
vt 0.290415 0.815276
vt 0.280305 0.825258
vt 0.453511 0.737133
vt 0.443401 0.747613
vt 0.440962 0.660811
vt 0.443401 0.747613
vt 0.429708 0.672477
vt 0.440962 0.660811
vt 0.336300 0.294488
vt 0.329322 0.312069
vt 0.294952 0.219352
vt 0.329322 0.312069
vt 0.287184 0.238923
vt 0.294952 0.219352
vt 0.329322 0.312069
vt 0.322213 0.323511
vt 0.287184 0.238923
vt 0.322213 0.323511
vt 0.279271 0.251660
vt 0.287184 0.238923
vt 0.132897 0.734532
vt 0.121677 0.730761
vt 0.146081 0.648646
vt 0.121677 0.730761
vt 0.133590 0.644449
vt 0.146081 0.648646
vt 0.878007 0.775511
vt 0.873249 0.759939
vt 0.921163 0.703285
vt 0.873249 0.759939
vt 0.915867 0.685950
vt 0.921163 0.703285
vt 0.873249 0.759939
vt 0.865432 0.743832
vt 0.915867 0.685950
vt 0.865432 0.743832
vt 0.907164 0.668021
vt 0.915867 0.685950
vt 0.280305 0.825258
vt 0.290415 0.815276
vt 0.291709 0.908723
vt 0.290415 0.815276
vt 0.302963 0.897611
vt 0.291709 0.908723
vt 0.440962 0.660811
vt 0.429708 0.672477
vt 0.428414 0.584488
vt 0.429708 0.672477
vt 0.416016 0.597341
vt 0.428414 0.584488
vt 0.294952 0.219352
vt 0.287184 0.238923
vt 0.253605 0.144216
vt 0.287184 0.238923
vt 0.245046 0.165777
vt 0.253605 0.144216
vt 0.287184 0.238923
vt 0.279271 0.251660
vt 0.245046 0.165777
vt 0.279271 0.251660
vt 0.236328 0.179810
vt 0.245046 0.165777
vt 0.146081 0.648646
vt 0.133590 0.644449
vt 0.159264 0.562761
vt 0.133590 0.644449
vt 0.145503 0.558137
vt 0.159264 0.562761
vt 0.921163 0.703285
vt 0.915867 0.685950
vt 0.964319 0.631060
vt 0.915867 0.685950
vt 0.958484 0.611962
vt 0.964319 0.631060
vt 0.915867 0.685950
vt 0.907164 0.668021
vt 0.958484 0.611962
vt 0.907164 0.668021
vt 0.948897 0.592209
vt 0.958484 0.611962
vt 0.291709 0.908723
vt 0.302963 0.897611
vt 0.303112 0.992188
vt 0.302963 0.897611
vt 0.315511 0.979946
vt 0.303112 0.992188
vt 0.491155 0.979249
vt 0.484479 0.973022
vt 0.491155 0.966101
vt 0.491155 0.979249
vt 0.482830 0.984631
vt 0.484479 0.973022
vt 0.491155 0.979249
vt 0.487450 0.992188
vt 0.482830 0.984631
vt 0.491155 0.979249
vt 0.494860 0.990000
vt 0.487450 0.992188
vt 0.491155 0.979249
vt 0.499480 0.979717
vt 0.494860 0.990000
vt 0.491155 0.979249
vt 0.497831 0.969081
vt 0.499480 0.979717
vt 0.491155 0.979249
vt 0.491155 0.966101
vt 0.497831 0.969081
vt 0.523273 0.515033
vt 0.523273 0.490616
vt 0.535672 0.503469
vt 0.523273 0.515033
vt 0.535672 0.503469
vt 0.538734 0.525030
vt 0.523273 0.515033
vt 0.538734 0.525030
vt 0.530154 0.539063
vt 0.523273 0.515033
vt 0.530154 0.539063
vt 0.516393 0.535001
vt 0.523273 0.515033
vt 0.516393 0.535001
vt 0.507813 0.515903
vt 0.523273 0.515033
vt 0.507813 0.515903
vt 0.510875 0.496150
vt 0.523273 0.515033
vt 0.510875 0.496150
vt 0.523273 0.490616
f 1/1 2/2 3/3
f 4/4 5/5 6/6
f 7/7 8/8 9/9
f 10/10 11/11 12/12
f 13/13 14/14 15/15
f 16/16 17/17 18/18
f 19/19 20/20 21/21
f 22/22 23/23 24/24
f 25/25 26/26 27/27
f 28/28 29/29 30/30
f 31/31 32/32 33/33
f 34/34 35/35 36/36
f 37/37 38/38 39/39
f 40/40 41/41 42/42
f 43/43 44/44 45/45
f 46/46 47/47 48/48
f 49/49 50/50 51/51
f 52/52 53/53 54/54
f 55/55 56/56 57/57
f 58/58 59/59 60/60
f 61/61 62/62 63/63
f 64/64 65/65 66/66
f 67/67 68/68 69/69
f 70/70 71/71 72/72
f 73/73 74/74 75/75
f 76/76 77/77 78/78
f 79/79 80/80 81/81
f 82/82 83/83 84/84
f 85/85 86/86 87/87
f 88/88 89/89 90/90
f 91/91 92/92 93/93
f 94/94 95/95 96/96
f 97/97 98/98 99/99
f 100/100 101/101 102/102
f 103/103 104/104 105/105
f 106/106 107/107 108/108
f 109/109 110/110 111/111
f 112/112 113/113 114/114
f 115/115 116/116 117/117
f 118/118 119/119 120/120
f 121/121 122/122 123/123
f 124/124 125/125 126/126
f 127/127 128/128 129/129
f 130/130 131/131 132/132
f 133/133 134/134 135/135
f 136/136 137/137 138/138
f 139/139 140/140 141/141
f 142/142 143/143 144/144
f 145/145 146/146 147/147
f 148/148 149/149 150/150
f 151/151 152/152 153/153
f 154/154 155/155 156/156
f 157/157 158/158 159/159
f 160/160 161/161 162/162
f 163/163 164/164 165/165
f 166/166 167/167 168/168
f 169/169 170/170 171/171
f 172/172 173/173 174/174
f 175/175 176/176 177/177
f 178/178 179/179 180/180
f 181/181 182/182 183/183
f 184/184 185/185 186/186
f 187/187 188/188 189/189
f 190/190 191/191 192/192
f 193/193 194/194 195/195
f 196/196 197/197 198/198
f 199/199 200/200 201/201
f 202/202 203/203 204/204
f 205/205 206/206 207/207
f 208/208 209/209 210/210
f 211/211 212/212 213/213
f 214/214 215/215 216/216
f 217/217 218/218 219/219
f 220/220 221/221 222/222
f 223/223 224/224 225/225
f 226/226 227/227 228/228
f 229/229 230/230 231/231
f 232/232 233/233 234/234
f 235/235 236/236 237/237
f 238/238 239/239 240/240
f 241/241 242/242 243/243
f 244/244 245/245 246/246
f 247/247 248/248 249/249
f 250/250 251/251 252/252
f 253/253 254/254 255/255
f 256/256 257/257 258/258
f 259/259 260/260 261/261
f 262/262 263/263 264/264
f 265/265 266/266 267/267
f 268/268 269/269 270/270
f 271/271 272/272 273/273
f 274/274 275/275 276/276
f 277/277 278/278 279/279
f 280/280 281/281 282/282
f 283/283 284/284 285/285
f 286/286 287/287 288/288
f 289/289 290/290 291/291
f 292/292 293/293 294/294
f 295/295 296/296 297/297
f 298/298 299/299 300/300
f 301/301 302/302 303/303
f 304/304 305/305 306/306
f 307/307 308/308 309/309
f 310/310 311/311 312/312
f 313/313 314/314 315/315
f 316/316 317/317 318/318
f 319/319 320/320 321/321
f 322/322 323/323 324/324
f 325/325 326/326 327/327
f 328/328 329/329 330/330
f 331/331 332/332 333/333
f 334/334 335/335 336/336
f 337/337 338/338 339/339
f 340/340 341/341 342/342
f 343/343 344/344 345/345
f 346/346 347/347 348/348
f 349/349 350/350 351/351
f 352/352 353/353 354/354
f 355/355 356/356 357/357
f 358/358 359/359 360/360
f 361/361 362/362 363/363
f 364/364 365/365 366/366
f 367/367 368/368 369/369
f 370/370 371/371 372/372
f 373/373 374/374 375/375
f 376/376 377/377 378/378
f 379/379 380/380 381/381
f 382/382 383/383 384/384
f 385/385 386/386 387/387
f 388/388 389/389 390/390
f 391/391 392/392 393/393
f 394/394 395/395 396/396
f 397/397 398/398 399/399
f 400/400 401/401 402/402
f 403/403 404/404 405/405
f 406/406 407/407 408/408
f 409/409 410/410 411/411
f 412/412 413/413 414/414
f 415/415 416/416 417/417
f 418/418 419/419 420/420
f 421/421 422/422 423/423
f 424/424 425/425 426/426
f 427/427 428/428 429/429
f 430/430 431/431 432/432
f 433/433 434/434 435/435
f 436/436 437/437 438/438
f 439/439 440/440 441/441
f 442/442 443/443 444/444
f 445/445 446/446 447/447
f 448/448 449/449 450/450
f 451/451 452/452 453/453
f 454/454 455/455 456/456
f 457/457 458/458 459/459
f 460/460 461/461 462/462
f 463/463 464/464 465/465
f 466/466 467/467 468/468
f 469/469 470/470 471/471
f 472/472 473/473 474/474
f 475/475 476/476 477/477
f 478/478 479/479 480/480
f 481/481 482/482 483/483
f 484/484 485/485 486/486
f 487/487 488/488 489/489
f 490/490 491/491 492/492
f 493/493 494/494 495/495
f 496/496 497/497 498/498
f 499/499 500/500 501/501
f 502/502 503/503 504/504
