{"asset":{"version":"2.0","generator":"THREE.GLTFExporter"},"scenes":[{"name":"default","nodes":[0]}],"scene":0,"nodes":[{"mesh":0}],"bufferViews":[{"buffer":0,"byteOffset":0,"byteLength":54216,"target":34962,"byteStride":12},{"buffer":0,"byteOffset":54216,"byteLength":54216,"target":34962,"byteStride":12},{"buffer":0,"byteOffset":108432,"byteLength":36144,"target":34962,"byteStride":8},{"buffer":0,"byteOffset":144576,"byteLength":2556,"target":34963},{"buffer":0,"byteOffset":147132,"byteLength":36,"target":34963},{"buffer":0,"byteOffset":147168,"byteLength":1836,"target":34963},{"buffer":0,"byteOffset":149004,"byteLength":960,"target":34963},{"buffer":0,"byteOffset":149964,"byteLength":384,"target":34963},{"buffer":0,"byteOffset":150348,"byteLength":2880,"target":34963},{"buffer":0,"byteOffset":153228,"byteLength":384,"target":34963}],"buffers":[{"byteLength":153612,"uri":"data:application/octet-stream;base64,"}],"accessors":[{"bufferView":0,"componentType":5126,"count":4518,"max":[3.8125,8.0625,16.0625],"min":[-2.1875,3.0625,6.0625],"type":"VEC3"},{"bufferView":1,"componentType":5126,"count":4518,"max":[1,1,1],"min":[-1,-1,-1],"type":"VEC3"},{"bufferView":2,"componentType":5126,"count":4518,"max":[2.125,1.9375],"min":[0,0],"type":"VEC2"},{"bufferView":3,"componentType":5123,"count":1278,"max":[1277],"min":[0],"type":"SCALAR"},{"bufferView":4,"componentType":5123,"count":18,"max":[1295],"min":[1278],"type":"SCALAR"},{"bufferView":5,"componentType":5123,"count":918,"max":[2213],"min":[1296],"type":"SCALAR"},{"bufferView":6,"componentType":5123,"count":480,"max":[2693],"min":[2214],"type":"SCALAR"},{"bufferView":7,"componentType":5123,"count":192,"max":[2885],"min":[2694],"type":"SCALAR"},{"bufferView":8,"componentType":5123,"count":1440,"max":[4325],"min":[2886],"type":"SCALAR"},{"bufferView":9,"componentType":5123,"count":192,"max":[4517],"min":[4326],"type":"SCALAR"}],"materials":[{"pbrMetallicRoughness":{"metallicFactor":0,"roughnessFactor":1,"baseColorTexture":{"index":0}},"alphaMode":"MASK","alphaCutoff":0.01,"doubleSided":true,"name":"aster-sim-room_1"},{"pbrMetallicRoughness":{"metallicFactor":0,"roughnessFactor":1,"baseColorTexture":{"index":1}},"alphaMode":"MASK","alphaCutoff":0.01,"name":"aster-sim-room_scale_model"},{"pbrMetallicRoughness":{"metallicFactor":0,"roughnessFactor":1,"baseColorTexture":{"index":2}},"alphaMode":"MASK","alphaCutoff":0.01,"name":"aster-sim-room_6"},{"pbrMetallicRoughness":{"metallicFactor":0,"roughnessFactor":1,"baseColorTexture":{"index":3}},"alphaMode":"MASK","alphaCutoff":0.01,"name":"aster-sim-room_5"},{"pbrMetallicRoughness":{"metallicFactor":0,"roughnessFactor":1,"baseColorTexture":{"index":4}},"alphaMode":"MASK","alphaCutoff":0.01,"name":"aster-sim-room_4"},{"pbrMetallicRoughness":{"metallicFactor":0,"roughnessFactor":1,"baseColorTexture":{"index":5}},"alphaMode":"MASK","alphaCutoff":0.01,"name":"aster-sim-room_3"},{"pbrMetallicRoughness":{"metallicFactor":0,"roughnessFactor":1,"baseColorTexture":{"index":6}},"alphaMode":"MASK","alphaCutoff":0.01,"name":"aster-sim-room_2"}],"textures":[{"sampler":0,"source":0,"name":"aster-sim-room_1"},{"sampler":1,"source":1,"name":"aster-sim-room_scale_model"},{"sampler":2,"source":2,"name":"aster-sim-room_6"},{"sampler":3,"source":3,"name":"aster-sim-room_5"},{"sampler":4,"source":4,"name":"aster-sim-room_4"},{"sampler":5,"source":5,"name":"aster-sim-room_3"},{"sampler":6,"source":6,"name":"aster-sim-room_2"}],"samplers":[{"magFilter":9728,"minFilter":9728,"wrapS":10497,"wrapT":10497},{"magFilter":9728,"minFilter":9728,"wrapS":33071,"wrapT":33071},{"magFilter":9728,"minFilter":9728,"wrapS":33071,"wrapT":33071},{"magFilter":9728,"minFilter":9728,"wrapS":33071,"wrapT":33071},{"magFilter":9728,"minFilter":9728,"wrapS":33071,"wrapT":33071},{"magFilter":9728,"minFilter":9728,"wrapS":33071,"wrapT":33071},{"magFilter":9728,"minFilter":9728,"wrapS":33071,"wrapT":33071}],"images":[{"mimeType":"image/png","uri":"aster-sim-room_1.png"},{"mimeType":"image/png","uri":"aster-sim-room_scale_model.png"},{"mimeType":"image/png","uri":"aster-sim-room_6.png"},{"mimeType":"image/png","uri":"aster-sim-room_5.png"},{"mimeType":"image/png","uri":"aster-sim-room_4.png"},{"mimeType":"image/png","uri":"aster-sim-room_3.png"},{"mimeType":"image/png","uri":"aster-sim-room_2.png"}],"meshes":[{"primitives":[{"mode":4,"attributes":{"POSITION":0,"NORMAL":1,"TEXCOORD_0":2},"indices":3,"material":0},{"mode":4,"attributes":{"POSITION":0,"NORMAL":1,"TEXCOORD_0":2},"indices":4,"material":1},{"mode":4,"attributes":{"POSITION":0,"NORMAL":1,"TEXCOORD_0":2},"indices":5,"material":2},{"mode":4,"attributes":{"POSITION":0,"NORMAL":1,"TEXCOORD_0":2},"indices":6,"material":3},{"mode":4,"attributes":{"POSITION":0,"NORMAL":1,"TEXCOORD_0":2},"indices":7,"material":4},{"mode":4,"attributes":{"POSITION":0,"NORMAL":1,"TEXCOORD_0":2},"indices":8,"material":5},{"mode":4,"attributes":{"POSITION":0,"NORMAL":1,"TEXCOORD_0":2},"indices":9,"material":6}]}]}