mtllib stacks_archive_spire_scan.mtl
usemtl baked
v -1.400000 2.610000 2.970000
v 1.400000 2.610000 2.970000
v -1.400000 2.390000 2.970000
v 1.400000 2.610000 2.970000
v 1.400000 2.390000 2.970000
v -1.400000 2.390000 2.970000
v 1.400000 2.610000 2.630000
v -1.400000 2.610000 2.630000
v 1.400000 2.390000 2.630000
v -1.400000 2.610000 2.630000
v -1.400000 2.390000 2.630000
v 1.400000 2.390000 2.630000
v 1.400000 2.610000 2.970000
v 1.400000 2.610000 2.630000
v 1.400000 2.390000 2.970000
v 1.400000 2.610000 2.630000
v 1.400000 2.390000 2.630000
v 1.400000 2.390000 2.970000
v -1.400000 2.610000 2.630000
v -1.400000 2.610000 2.970000
v -1.400000 2.390000 2.630000
v -1.400000 2.610000 2.970000
v -1.400000 2.390000 2.970000
v -1.400000 2.390000 2.630000
v 1.400000 2.610000 2.970000
v -1.400000 2.610000 2.970000
v 1.400000 2.610000 2.630000
v -1.400000 2.610000 2.970000
v -1.400000 2.610000 2.630000
v 1.400000 2.610000 2.630000
v -1.400000 2.390000 2.970000
v 1.400000 2.390000 2.970000
v -1.400000 2.390000 2.630000
v 1.400000 2.390000 2.970000
v 1.400000 2.390000 2.630000
v -1.400000 2.390000 2.630000
vt 0.715625 0.500000
vt 0.015625 0.500000
vt 0.715625 0.390000
vt 0.015625 0.500000
vt 0.015625 0.390000
vt 0.715625 0.390000
vt 0.715625 0.312500
vt 0.015625 0.312500
vt 0.715625 0.202500
vt 0.015625 0.312500
vt 0.015625 0.202500
vt 0.715625 0.202500
vt 0.835000 0.312500
vt 0.750000 0.312500
vt 0.835000 0.202500
vt 0.750000 0.312500
vt 0.750000 0.202500
vt 0.835000 0.202500
vt 0.952188 0.312500
vt 0.867188 0.312500
vt 0.952188 0.202500
vt 0.867188 0.312500
vt 0.867188 0.202500
vt 0.952188 0.202500
vt 0.715625 0.968750
vt 0.015625 0.968750
vt 0.715625 0.798750
vt 0.015625 0.968750
vt 0.015625 0.798750
vt 0.715625 0.798750
vt 0.015625 0.564375
vt 0.715625 0.564375
vt 0.015625 0.734375
vt 0.715625 0.564375
vt 0.715625 0.734375
vt 0.015625 0.734375
f 1/1 2/2 3/3
f 4/4 5/5 6/6
f 7/7 8/8 9/9
f 10/10 11/11 12/12
f 13/13 14/14 15/15
f 16/16 17/17 18/18
f 19/19 20/20 21/21
f 22/22 23/23 24/24
f 25/25 26/26 27/27
f 28/28 29/29 30/30
f 31/31 32/32 33/33
f 34/34 35/35 36/36
