mtllib stacks_archive_spire_drawers.mtl
usemtl baked
v -2.608925 2.044339 1.326880
v -0.716162 1.977853 1.175135
v -2.616599 1.824474 1.327496
v -0.716162 1.977853 1.175135
v -0.723836 1.757988 1.175751
v -2.616599 1.824474 1.327496
v -0.915949 1.977853 -1.316869
v -2.808712 2.044339 -1.165124
v -0.923622 1.757988 -1.316254
v -2.808712 2.044339 -1.165124
v -2.816386 1.824474 -1.164509
v -0.923622 1.757988 -1.316254
v -0.716162 1.977853 1.175135
v -0.915949 1.977853 -1.316869
v -0.723836 1.757988 1.175751
v -0.915949 1.977853 -1.316869
v -0.923622 1.757988 -1.316254
v -0.723836 1.757988 1.175751
v -2.808712 2.044339 -1.165124
v -2.608925 2.044339 1.326880
v -2.816386 1.824474 -1.164509
v -2.608925 2.044339 1.326880
v -2.616599 1.824474 1.327496
v -2.816386 1.824474 -1.164509
v -0.716162 1.977853 1.175135
v -2.608925 2.044339 1.326880
v -0.915949 1.977853 -1.316869
v -2.608925 2.044339 1.326880
v -2.808712 2.044339 -1.165124
v -0.915949 1.977853 -1.316869
v -2.616599 1.824474 1.327496
v -0.723836 1.757988 1.175751
v -2.816386 1.824474 -1.164509
v -0.723836 1.757988 1.175751
v -0.923622 1.757988 -1.316254
v -2.816386 1.824474 -1.164509
v -2.563580 3.343543 1.323245
v -0.670817 3.277057 1.171500
v -2.571254 3.123678 1.323860
v -0.670817 3.277057 1.171500
v -0.678491 3.057192 1.172115
v -2.571254 3.123678 1.323860
v -0.870603 3.277057 -1.320504
v -2.763367 3.343543 -1.168759
v -0.878277 3.057192 -1.319889
v -2.763367 3.343543 -1.168759
v -2.771041 3.123678 -1.168144
v -0.878277 3.057192 -1.319889
v -0.670817 3.277057 1.171500
v -0.870603 3.277057 -1.320504
v -0.678491 3.057192 1.172115
v -0.870603 3.277057 -1.320504
v -0.878277 3.057192 -1.319889
v -0.678491 3.057192 1.172115
v -2.763367 3.343543 -1.168759
v -2.563580 3.343543 1.323245
v -2.771041 3.123678 -1.168144
v -2.563580 3.343543 1.323245
v -2.571254 3.123678 1.323860
v -2.771041 3.123678 -1.168144
v -0.670817 3.277057 1.171500
v -2.563580 3.343543 1.323245
v -0.870603 3.277057 -1.320504
v -2.563580 3.343543 1.323245
v -2.763367 3.343543 -1.168759
v -0.870603 3.277057 -1.320504
v -2.571254 3.123678 1.323860
v -0.678491 3.057192 1.172115
v -2.771041 3.123678 -1.168144
v -0.678491 3.057192 1.172115
v -0.878277 3.057192 -1.319889
v -2.771041 3.123678 -1.168144
v -2.518235 4.642747 1.319610
v -0.625471 4.576261 1.167865
v -2.525908 4.422882 1.320225
v -0.625471 4.576261 1.167865
v -0.633145 4.356396 1.168480
v -2.525908 4.422882 1.320225
v -0.825258 4.576261 -1.324140
v -2.718021 4.642747 -1.172395
v -0.832932 4.356396 -1.323525
v -2.718021 4.642747 -1.172395
v -2.725695 4.422882 -1.171780
v -0.832932 4.356396 -1.323525
v -0.625471 4.576261 1.167865
v -0.825258 4.576261 -1.324140
v -0.633145 4.356396 1.168480
v -0.825258 4.576261 -1.324140
v -0.832932 4.356396 -1.323525
v -0.633145 4.356396 1.168480
v -2.718021 4.642747 -1.172395
v -2.518235 4.642747 1.319610
v -2.725695 4.422882 -1.171780
v -2.518235 4.642747 1.319610
v -2.525908 4.422882 1.320225
v -2.725695 4.422882 -1.171780
v -0.625471 4.576261 1.167865
v -2.518235 4.642747 1.319610
v -0.825258 4.576261 -1.324140
v -2.518235 4.642747 1.319610
v -2.718021 4.642747 -1.172395
v -0.825258 4.576261 -1.324140
v -2.525908 4.422882 1.320225
v -0.633145 4.356396 1.168480
v -2.725695 4.422882 -1.171780
v -0.633145 4.356396 1.168480
v -0.832932 4.356396 -1.323525
v -2.725695 4.422882 -1.171780
v -2.472889 5.941951 1.315974
v -0.580126 5.875464 1.164229
v -2.480563 5.722086 1.316589
v -0.580126 5.875464 1.164229
v -0.587800 5.655600 1.164844
v -2.480563 5.722086 1.316589
v -0.779913 5.875464 -1.327775
v -2.672676 5.941951 -1.176030
v -0.787587 5.655600 -1.327160
v -2.672676 5.941951 -1.176030
v -2.680350 5.722086 -1.175415
v -0.787587 5.655600 -1.327160
v -0.580126 5.875464 1.164229
v -0.779913 5.875464 -1.327775
v -0.587800 5.655600 1.164844
v -0.779913 5.875464 -1.327775
v -0.787587 5.655600 -1.327160
v -0.587800 5.655600 1.164844
v -2.672676 5.941951 -1.176030
v -2.472889 5.941951 1.315974
v -2.680350 5.722086 -1.175415
v -2.472889 5.941951 1.315974
v -2.480563 5.722086 1.316589
v -2.680350 5.722086 -1.175415
v -0.580126 5.875464 1.164229
v -2.472889 5.941951 1.315974
v -0.779913 5.875464 -1.327775
v -2.472889 5.941951 1.315974
v -2.672676 5.941951 -1.176030
v -0.779913 5.875464 -1.327775
v -2.480563 5.722086 1.316589
v -0.587800 5.655600 1.164844
v -2.680350 5.722086 -1.175415
v -0.587800 5.655600 1.164844
v -0.787587 5.655600 -1.327160
v -2.680350 5.722086 -1.175415
vt 0.249157 0.296875
vt 0.130859 0.288564
vt 0.249637 0.269392
vt 0.130859 0.288564
vt 0.131339 0.261081
vt 0.249637 0.269392
vt 0.122684 0.288564
vt 0.004386 0.296875
vt 0.122204 0.261081
vt 0.004386 0.296875
vt 0.003906 0.269392
vt 0.122204 0.261081
vt 0.323719 0.242188
vt 0.167969 0.242188
vt 0.323757 0.214704
vt 0.167969 0.242188
vt 0.168007 0.214704
vt 0.323757 0.214704
vt 0.159695 0.242188
vt 0.003945 0.242188
vt 0.159657 0.214704
vt 0.003945 0.242188
vt 0.003906 0.214704
vt 0.159657 0.214704
vt 0.412034 0.973219
vt 0.293737 0.992188
vt 0.399548 0.661719
vt 0.293737 0.992188
vt 0.281250 0.680687
vt 0.399548 0.661719
vt 0.432409 0.661719
vt 0.550706 0.680687
vt 0.419922 0.973219
vt 0.550706 0.680687
vt 0.538220 0.992188
vt 0.419922 0.973219
vt 0.895641 0.644531
vt 0.777344 0.636220
vt 0.896121 0.617048
vt 0.777344 0.636220
vt 0.777823 0.608737
vt 0.896121 0.617048
vt 0.769168 0.636220
vt 0.650870 0.644531
vt 0.768688 0.608737
vt 0.650870 0.644531
vt 0.650391 0.617048
vt 0.768688 0.608737
vt 0.577625 0.296875
vt 0.421875 0.296875
vt 0.577664 0.269392
vt 0.421875 0.296875
vt 0.421913 0.269392
vt 0.577664 0.269392
vt 0.413601 0.296875
vt 0.257851 0.296875
vt 0.413563 0.269392
vt 0.257851 0.296875
vt 0.257813 0.269392
vt 0.413563 0.269392
vt 0.966722 0.973219
vt 0.848424 0.992188
vt 0.954235 0.661719
vt 0.848424 0.992188
vt 0.835938 0.680687
vt 0.954235 0.661719
vt 0.016393 0.314063
vt 0.134691 0.333031
vt 0.003906 0.625563
vt 0.134691 0.333031
vt 0.122204 0.644531
vt 0.003906 0.625563
vt 0.641735 0.644531
vt 0.523438 0.636220
vt 0.642215 0.617048
vt 0.523438 0.636220
vt 0.523917 0.608737
vt 0.642215 0.617048
vt 0.515262 0.636220
vt 0.396964 0.644531
vt 0.514782 0.608737
vt 0.396964 0.644531
vt 0.396484 0.617048
vt 0.514782 0.608737
vt 0.741688 0.296875
vt 0.585938 0.296875
vt 0.741726 0.269392
vt 0.585938 0.296875
vt 0.585976 0.269392
vt 0.741726 0.269392
vt 0.905789 0.296875
vt 0.750038 0.296875
vt 0.905750 0.269392
vt 0.750038 0.296875
vt 0.750000 0.269392
vt 0.905750 0.269392
vt 0.828050 0.973219
vt 0.709752 0.992188
vt 0.815563 0.661719
vt 0.709752 0.992188
vt 0.697266 0.680687
vt 0.815563 0.661719
vt 0.571080 0.661719
vt 0.689378 0.680687
vt 0.558594 0.973219
vt 0.689378 0.680687
vt 0.676891 0.992188
vt 0.558594 0.973219
vt 0.387829 0.644531
vt 0.269531 0.636220
vt 0.388309 0.617048
vt 0.269531 0.636220
vt 0.270011 0.608737
vt 0.388309 0.617048
vt 0.261355 0.636220
vt 0.143058 0.644531
vt 0.260876 0.608737
vt 0.143058 0.644531
vt 0.142578 0.617048
vt 0.260876 0.608737
vt 0.487782 0.242188
vt 0.332031 0.242188
vt 0.487820 0.214704
vt 0.332031 0.242188
vt 0.332070 0.214704
vt 0.487820 0.214704
vt 0.651882 0.242188
vt 0.496132 0.242188
vt 0.651844 0.214704
vt 0.496132 0.242188
vt 0.496094 0.214704
vt 0.651844 0.214704
vt 0.273363 0.973219
vt 0.155065 0.992188
vt 0.260876 0.661719
vt 0.155065 0.992188
vt 0.142578 0.680687
vt 0.260876 0.661719
vt 0.016393 0.661719
vt 0.134691 0.680687
vt 0.003906 0.973219
vt 0.134691 0.680687
vt 0.122204 0.992188
vt 0.003906 0.973219
f 1/1 2/2 3/3
f 4/4 5/5 6/6
f 7/7 8/8 9/9
f 10/10 11/11 12/12
f 13/13 14/14 15/15
f 16/16 17/17 18/18
f 19/19 20/20 21/21
f 22/22 23/23 24/24
f 25/25 26/26 27/27
f 28/28 29/29 30/30
f 31/31 32/32 33/33
f 34/34 35/35 36/36
f 37/37 38/38 39/39
f 40/40 41/41 42/42
f 43/43 44/44 45/45
f 46/46 47/47 48/48
f 49/49 50/50 51/51
f 52/52 53/53 54/54
f 55/55 56/56 57/57
f 58/58 59/59 60/60
f 61/61 62/62 63/63
f 64/64 65/65 66/66
f 67/67 68/68 69/69
f 70/70 71/71 72/72
f 73/73 74/74 75/75
f 76/76 77/77 78/78
f 79/79 80/80 81/81
f 82/82 83/83 84/84
f 85/85 86/86 87/87
f 88/88 89/89 90/90
f 91/91 92/92 93/93
f 94/94 95/95 96/96
f 97/97 98/98 99/99
f 100/100 101/101 102/102
f 103/103 104/104 105/105
f 106/106 107/107 108/108
f 109/109 110/110 111/111
f 112/112 113/113 114/114
f 115/115 116/116 117/117
f 118/118 119/119 120/120
f 121/121 122/122 123/123
f 124/124 125/125 126/126
f 127/127 128/128 129/129
f 130/130 131/131 132/132
f 133/133 134/134 135/135
f 136/136 137/137 138/138
f 139/139 140/140 141/141
f 142/142 143/143 144/144
