mtllib stacks_archive_spire_structure.mtl
usemtl baked
v -2.343222 7.628291 1.255418
v -0.599887 7.567054 1.115653
v -2.608317 0.032946 1.276671
v -0.599887 7.567054 1.115653
v -0.864983 -0.028291 1.136906
v -2.608317 0.032946 1.276671
v -0.791683 7.567054 -1.276671
v -2.535017 7.628291 -1.136906
v -1.056778 -0.028291 -1.255418
v -2.535017 7.628291 -1.136906
v -2.800113 0.032946 -1.115653
v -1.056778 -0.028291 -1.255418
v -0.599887 7.567054 1.115653
v -0.791683 7.567054 -1.276671
v -0.864983 -0.028291 1.136906
v -0.791683 7.567054 -1.276671
v -1.056778 -0.028291 -1.255418
v -0.864983 -0.028291 1.136906
v -2.535017 7.628291 -1.136906
v -2.343222 7.628291 1.255418
v -2.800113 0.032946 -1.115653
v -2.343222 7.628291 1.255418
v -2.608317 0.032946 1.276671
v -2.800113 0.032946 -1.115653
v -0.599887 7.567054 1.115653
v -2.343222 7.628291 1.255418
v -0.791683 7.567054 -1.276671
v -2.343222 7.628291 1.255418
v -2.535017 7.628291 -1.136906
v -0.791683 7.567054 -1.276671
v -2.608317 0.032946 1.276671
v -0.864983 -0.028291 1.136906
v -2.800113 0.032946 -1.115653
v -0.864983 -0.028291 1.136906
v -1.056778 -0.028291 -1.255418
v -2.800113 0.032946 -1.115653
v -0.890505 5.778471 0.813240
v 0.757660 5.819717 0.879202
v -0.745636 -0.019717 0.819038
v 0.757660 5.819717 0.879202
v 0.902529 0.021529 0.885000
v -0.745636 -0.019717 0.819038
v 0.845636 5.819717 -1.319038
v -0.802529 5.778471 -1.385000
v 0.990505 0.021529 -1.313240
v -0.802529 5.778471 -1.385000
v -0.657660 -0.019717 -1.379202
v 0.990505 0.021529 -1.313240
v 0.757660 5.819717 0.879202
v 0.845636 5.819717 -1.319038
v 0.902529 0.021529 0.885000
v 0.845636 5.819717 -1.319038
v 0.990505 0.021529 -1.313240
v 0.902529 0.021529 0.885000
v -0.802529 5.778471 -1.385000
v -0.890505 5.778471 0.813240
v -0.657660 -0.019717 -1.379202
v -0.890505 5.778471 0.813240
v -0.745636 -0.019717 0.819038
v -0.657660 -0.019717 -1.379202
v 0.757660 5.819717 0.879202
v -0.890505 5.778471 0.813240
v 0.845636 5.819717 -1.319038
v -0.890505 5.778471 0.813240
v -0.802529 5.778471 -1.385000
v 0.845636 5.819717 -1.319038
v -0.745636 -0.019717 0.819038
v 0.902529 0.021529 0.885000
v -0.657660 -0.019717 -1.379202
v 0.902529 0.021529 0.885000
v 0.990505 0.021529 -1.313240
v -0.657660 -0.019717 -1.379202
v 0.912143 7.266739 1.438425
v 2.659607 7.231741 1.350979
v 0.760343 -0.331741 1.446022
v 2.659607 7.231741 1.350979
v 2.507807 -0.366739 1.358576
v 0.760343 -0.331741 1.446022
v 2.539657 7.231741 -1.046022
v 0.792193 7.266739 -0.958576
v 2.387857 -0.366739 -1.038425
v 0.792193 7.266739 -0.958576
v 0.640393 -0.331741 -0.950979
v 2.387857 -0.366739 -1.038425
v 2.659607 7.231741 1.350979
v 2.539657 7.231741 -1.046022
v 2.507807 -0.366739 1.358576
v 2.539657 7.231741 -1.046022
v 2.387857 -0.366739 -1.038425
v 2.507807 -0.366739 1.358576
v 0.792193 7.266739 -0.958576
v 0.912143 7.266739 1.438425
v 0.640393 -0.331741 -0.950979
v 0.912143 7.266739 1.438425
v 0.760343 -0.331741 1.446022
v 0.640393 -0.331741 -0.950979
v 2.659607 7.231741 1.350979
v 0.912143 7.266739 1.438425
v 2.539657 7.231741 -1.046022
v 0.912143 7.266739 1.438425
v 0.792193 7.266739 -0.958576
v 2.539657 7.231741 -1.046022
v 0.760343 -0.331741 1.446022
v 2.507807 -0.366739 1.358576
v 0.640393 -0.331741 -0.950979
v 2.507807 -0.366739 1.358576
v 2.387857 -0.366739 -1.038425
v 0.640393 -0.331741 -0.950979
v -1.440000 2.600000 2.970000
v -1.160000 2.600000 2.970000
v -1.440000 0.000000 2.970000
v -1.160000 2.600000 2.970000
v -1.160000 0.000000 2.970000
v -1.440000 0.000000 2.970000
v -1.160000 2.600000 2.630000
v -1.440000 2.600000 2.630000
v -1.160000 0.000000 2.630000
v -1.440000 2.600000 2.630000
v -1.440000 0.000000 2.630000
v -1.160000 0.000000 2.630000
v -1.160000 2.600000 2.970000
v -1.160000 2.600000 2.630000
v -1.160000 0.000000 2.970000
v -1.160000 2.600000 2.630000
v -1.160000 0.000000 2.630000
v -1.160000 0.000000 2.970000
v -1.440000 2.600000 2.630000
v -1.440000 2.600000 2.970000
v -1.440000 0.000000 2.630000
v -1.440000 2.600000 2.970000
v -1.440000 0.000000 2.970000
v -1.440000 0.000000 2.630000
v -1.160000 2.600000 2.970000
v -1.440000 2.600000 2.970000
v -1.160000 2.600000 2.630000
v -1.440000 2.600000 2.970000
v -1.440000 2.600000 2.630000
v -1.160000 2.600000 2.630000
v -1.440000 0.000000 2.970000
v -1.160000 0.000000 2.970000
v -1.440000 0.000000 2.630000
v -1.160000 0.000000 2.970000
v -1.160000 0.000000 2.630000
v -1.440000 0.000000 2.630000
v 1.160000 2.600000 2.970000
v 1.440000 2.600000 2.970000
v 1.160000 0.000000 2.970000
v 1.440000 2.600000 2.970000
v 1.440000 0.000000 2.970000
v 1.160000 0.000000 2.970000
v 1.440000 2.600000 2.630000
v 1.160000 2.600000 2.630000
v 1.440000 0.000000 2.630000
v 1.160000 2.600000 2.630000
v 1.160000 0.000000 2.630000
v 1.440000 0.000000 2.630000
v 1.440000 2.600000 2.970000
v 1.440000 2.600000 2.630000
v 1.440000 0.000000 2.970000
v 1.440000 2.600000 2.630000
v 1.440000 0.000000 2.630000
v 1.440000 0.000000 2.970000
v 1.160000 2.600000 2.630000
v 1.160000 2.600000 2.970000
v 1.160000 0.000000 2.630000
v 1.160000 2.600000 2.970000
v 1.160000 0.000000 2.970000
v 1.160000 0.000000 2.630000
v 1.440000 2.600000 2.970000
v 1.160000 2.600000 2.970000
v 1.440000 2.600000 2.630000
v 1.160000 2.600000 2.970000
v 1.160000 2.600000 2.630000
v 1.440000 2.600000 2.630000
v 1.160000 0.000000 2.970000
v 1.440000 0.000000 2.970000
v 1.160000 0.000000 2.630000
v 1.440000 0.000000 2.970000
v 1.440000 0.000000 2.630000
v 1.160000 0.000000 2.630000
vt 0.072005 0.996094
vt 0.003906 0.993702
vt 0.082361 0.699401
vt 0.003906 0.993702
vt 0.014262 0.697008
vt 0.082361 0.699401
vt 0.170251 0.993702
vt 0.102152 0.996094
vt 0.159896 0.697008
vt 0.102152 0.996094
vt 0.091797 0.699401
vt 0.159896 0.697008
vt 0.747747 0.996094
vt 0.654297 0.996094
vt 0.748577 0.699401
vt 0.654297 0.996094
vt 0.655127 0.699401
vt 0.748577 0.699401
vt 0.645062 0.996094
vt 0.551611 0.996094
vt 0.644231 0.699401
vt 0.551611 0.996094
vt 0.550781 0.699401
vt 0.644231 0.699401
vt 0.434966 0.682040
vt 0.366867 0.687500
vt 0.427474 0.588590
vt 0.366867 0.687500
vt 0.359375 0.594050
vt 0.427474 0.588590
vt 0.450851 0.588590
vt 0.518950 0.594050
vt 0.443359 0.682040
vt 0.518950 0.594050
vt 0.511458 0.687500
vt 0.443359 0.682040
vt 0.827853 0.994483
vt 0.763471 0.996094
vt 0.822194 0.767991
vt 0.763471 0.996094
vt 0.757813 0.769602
vt 0.822194 0.767991
vt 0.900319 0.996094
vt 0.835938 0.994483
vt 0.905978 0.769602
vt 0.835938 0.994483
vt 0.841596 0.767991
vt 0.905978 0.769602
vt 0.089775 0.687500
vt 0.003906 0.687500
vt 0.090001 0.461008
vt 0.003906 0.687500
vt 0.004133 0.461008
vt 0.090001 0.461008
vt 0.185705 0.687500
vt 0.099836 0.687500
vt 0.185478 0.461008
vt 0.099836 0.687500
vt 0.099609 0.461008
vt 0.185478 0.461008
vt 0.831960 0.687500
vt 0.767578 0.684923
vt 0.835396 0.601631
vt 0.767578 0.684923
vt 0.771015 0.599055
vt 0.835396 0.601631
vt 0.691406 0.601631
vt 0.755788 0.599055
vt 0.694843 0.687500
vt 0.755788 0.599055
vt 0.759224 0.684923
vt 0.694843 0.687500
vt 0.329979 0.996094
vt 0.261719 0.994727
vt 0.335909 0.699278
vt 0.261719 0.994727
vt 0.267648 0.697911
vt 0.335909 0.699278
vt 0.253877 0.994727
vt 0.185617 0.996094
vt 0.247948 0.697911
vt 0.185617 0.996094
vt 0.179688 0.699278
vt 0.247948 0.697911
vt 0.540898 0.996094
vt 0.447266 0.996094
vt 0.541195 0.699278
vt 0.447266 0.996094
vt 0.447562 0.699278
vt 0.541195 0.699278
vt 0.437680 0.996094
vt 0.344047 0.996094
vt 0.437383 0.699278
vt 0.344047 0.996094
vt 0.343750 0.699278
vt 0.437383 0.699278
vt 0.682321 0.684084
vt 0.614061 0.687500
vt 0.677635 0.590451
vt 0.614061 0.687500
vt 0.609375 0.593867
vt 0.677635 0.590451
vt 0.532029 0.590451
vt 0.600290 0.593867
vt 0.527344 0.684084
vt 0.600290 0.593867
vt 0.595604 0.687500
vt 0.527344 0.684084
vt 0.350781 0.687500
vt 0.339844 0.687500
vt 0.350781 0.585938
vt 0.339844 0.687500
vt 0.339844 0.585938
vt 0.350781 0.585938
vt 0.331250 0.687500
vt 0.320313 0.687500
vt 0.331250 0.585938
vt 0.320313 0.687500
vt 0.320313 0.585938
vt 0.331250 0.585938
vt 0.312109 0.687500
vt 0.298828 0.687500
vt 0.312109 0.585938
vt 0.298828 0.687500
vt 0.298828 0.585938
vt 0.312109 0.585938
vt 0.290625 0.687500
vt 0.277344 0.687500
vt 0.290625 0.585938
vt 0.277344 0.687500
vt 0.277344 0.585938
vt 0.290625 0.585938
vt 0.854688 0.687500
vt 0.843750 0.687500
vt 0.854688 0.674219
vt 0.843750 0.687500
vt 0.843750 0.674219
vt 0.854688 0.674219
vt 0.863281 0.674219
vt 0.874219 0.674219
vt 0.863281 0.687500
vt 0.874219 0.674219
vt 0.874219 0.687500
vt 0.863281 0.687500
vt 0.268750 0.687500
vt 0.257813 0.687500
vt 0.268750 0.585938
vt 0.257813 0.687500
vt 0.257813 0.585938
vt 0.268750 0.585938
vt 0.249219 0.687500
vt 0.238281 0.687500
vt 0.249219 0.585938
vt 0.238281 0.687500
vt 0.238281 0.585938
vt 0.249219 0.585938
vt 0.230078 0.687500
vt 0.216797 0.687500
vt 0.230078 0.585938
vt 0.216797 0.687500
vt 0.216797 0.585938
vt 0.230078 0.585938
vt 0.208594 0.687500
vt 0.195313 0.687500
vt 0.208594 0.585938
vt 0.195313 0.687500
vt 0.195313 0.585938
vt 0.208594 0.585938
vt 0.893750 0.687500
vt 0.882813 0.687500
vt 0.893750 0.674219
vt 0.882813 0.687500
vt 0.882813 0.674219
vt 0.893750 0.674219
vt 0.902344 0.674219
vt 0.913281 0.674219
vt 0.902344 0.687500
vt 0.913281 0.674219
vt 0.913281 0.687500
vt 0.902344 0.687500
f 1/1 2/2 3/3
f 4/4 5/5 6/6
f 7/7 8/8 9/9
f 10/10 11/11 12/12
f 13/13 14/14 15/15
f 16/16 17/17 18/18
f 19/19 20/20 21/21
f 22/22 23/23 24/24
f 25/25 26/26 27/27
f 28/28 29/29 30/30
f 31/31 32/32 33/33
f 34/34 35/35 36/36
f 37/37 38/38 39/39
f 40/40 41/41 42/42
f 43/43 44/44 45/45
f 46/46 47/47 48/48
f 49/49 50/50 51/51
f 52/52 53/53 54/54
f 55/55 56/56 57/57
f 58/58 59/59 60/60
f 61/61 62/62 63/63
f 64/64 65/65 66/66
f 67/67 68/68 69/69
f 70/70 71/71 72/72
f 73/73 74/74 75/75
f 76/76 77/77 78/78
f 79/79 80/80 81/81
f 82/82 83/83 84/84
f 85/85 86/86 87/87
f 88/88 89/89 90/90
f 91/91 92/92 93/93
f 94/94 95/95 96/96
f 97/97 98/98 99/99
f 100/100 101/101 102/102
f 103/103 104/104 105/105
f 106/106 107/107 108/108
f 109/109 110/110 111/111
f 112/112 113/113 114/114
f 115/115 116/116 117/117
f 118/118 119/119 120/120
f 121/121 122/122 123/123
f 124/124 125/125 126/126
f 127/127 128/128 129/129
f 130/130 131/131 132/132
f 133/133 134/134 135/135
f 136/136 137/137 138/138
f 139/139 140/140 141/141
f 142/142 143/143 144/144
f 145/145 146/146 147/147
f 148/148 149/149 150/150
f 151/151 152/152 153/153
f 154/154 155/155 156/156
f 157/157 158/158 159/159
f 160/160 161/161 162/162
f 163/163 164/164 165/165
f 166/166 167/167 168/168
f 169/169 170/170 171/171
f 172/172 173/173 174/174
f 175/175 176/176 177/177
f 178/178 179/179 180/180
