mtllib stacks_archive_spire_terminal.mtl
usemtl baked
v 1.350000 1.136402 2.573638
v 2.150000 1.136402 2.573638
v 1.350000 0.499359 2.702774
v 2.150000 1.136402 2.573638
v 2.150000 0.499359 2.702774
v 1.350000 0.499359 2.702774
v 2.150000 1.100641 2.397226
v 1.350000 1.100641 2.397226
v 2.150000 0.463598 2.526361
v 1.350000 1.100641 2.397226
v 1.350000 0.463598 2.526361
v 2.150000 0.463598 2.526361
v 2.150000 1.136402 2.573638
v 2.150000 1.100641 2.397226
v 2.150000 0.499359 2.702774
v 2.150000 1.100641 2.397226
v 2.150000 0.463598 2.526361
v 2.150000 0.499359 2.702774
v 1.350000 1.100641 2.397226
v 1.350000 1.136402 2.573638
v 1.350000 0.463598 2.526361
v 1.350000 1.136402 2.573638
v 1.350000 0.499359 2.702774
v 1.350000 0.463598 2.526361
v 2.150000 1.136402 2.573638
v 1.350000 1.136402 2.573638
v 2.150000 1.100641 2.397226
v 1.350000 1.136402 2.573638
v 1.350000 1.100641 2.397226
v 2.150000 1.100641 2.397226
v 1.350000 0.499359 2.702774
v 2.150000 0.499359 2.702774
v 1.350000 0.463598 2.526361
v 2.150000 0.499359 2.702774
v 2.150000 0.463598 2.526361
v 1.350000 0.463598 2.526361
vt 0.434375 0.968750
vt 0.234375 0.968750
vt 0.434375 0.650228
vt 0.234375 0.968750
vt 0.234375 0.650228
vt 0.434375 0.650228
vt 0.668750 0.968750
vt 0.468750 0.968750
vt 0.668750 0.650228
vt 0.468750 0.968750
vt 0.468750 0.650228
vt 0.668750 0.650228
vt 0.059728 0.968750
vt 0.015625 0.950870
vt 0.092012 0.650228
vt 0.015625 0.950870
vt 0.047909 0.632348
vt 0.092012 0.650228
vt 0.201387 0.950870
vt 0.157284 0.968750
vt 0.169103 0.632348
vt 0.157284 0.968750
vt 0.125000 0.650228
vt 0.169103 0.632348
vt 0.903125 0.968750
vt 0.703125 0.968750
vt 0.903125 0.880544
vt 0.703125 0.968750
vt 0.703125 0.880544
vt 0.903125 0.880544
vt 0.015625 0.474294
vt 0.215625 0.474294
vt 0.015625 0.562500
vt 0.215625 0.474294
vt 0.215625 0.562500
vt 0.015625 0.562500
f 1/1 2/2 3/3
f 4/4 5/5 6/6
f 7/7 8/8 9/9
f 10/10 11/11 12/12
f 13/13 14/14 15/15
f 16/16 17/17 18/18
f 19/19 20/20 21/21
f 22/22 23/23 24/24
f 25/25 26/26 27/27
f 28/28 29/29 30/30
f 31/31 32/32 33/33
f 34/34 35/35 36/36
