# Blender 5.1.1
# www.blender.org
mtllib jasmine.mtl
o Pot
v 0.500000 0.000000 0.000000
v 0.353553 0.000000 -0.353553
v 0.000000 0.000000 -0.500000
v -0.353553 0.000000 -0.353553
v -0.500000 0.000000 -0.000000
v -0.353553 0.000000 0.353553
v -0.000000 0.000000 0.500000
v 0.353553 0.000000 0.353553
v 0.580000 0.100000 0.000000
v 0.410122 0.100000 -0.410122
v 0.000000 0.100000 -0.580000
v -0.410122 0.100000 -0.410122
v -0.580000 0.100000 -0.000000
v -0.410122 0.100000 0.410122
v -0.000000 0.100000 0.580000
v 0.410122 0.100000 0.410122
v 0.680000 0.400000 0.000000
v 0.480833 0.400000 -0.480833
v 0.000000 0.400000 -0.680000
v -0.480833 0.400000 -0.480833
v -0.680000 0.400000 -0.000000
v -0.480833 0.400000 0.480833
v -0.000000 0.400000 0.680000
v 0.480833 0.400000 0.480833
v 0.740000 0.750000 0.000000
v 0.523259 0.750000 -0.523259
v 0.000000 0.750000 -0.740000
v -0.523259 0.750000 -0.523259
v -0.740000 0.750000 -0.000000
v -0.523259 0.750000 0.523259
v -0.000000 0.750000 0.740000
v 0.523259 0.750000 0.523259
v 0.740000 1.000000 0.000000
v 0.523259 1.000000 -0.523259
v 0.000000 1.000000 -0.740000
v -0.523259 1.000000 -0.523259
v -0.740000 1.000000 -0.000000
v -0.523259 1.000000 0.523259
v -0.000000 1.000000 0.740000
v 0.523259 1.000000 0.523259
v 0.720000 1.100000 0.000000
v 0.509117 1.100000 -0.509117
v 0.000000 1.100000 -0.720000
v -0.509117 1.100000 -0.509117
v -0.720000 1.100000 -0.000000
v -0.509117 1.100000 0.509117
v -0.000000 1.100000 0.720000
v 0.509117 1.100000 0.509117
v 0.660000 1.100000 0.000000
v 0.466690 1.100000 -0.466690
v 0.000000 1.100000 -0.660000
v -0.466690 1.100000 -0.466690
v -0.660000 1.100000 -0.000000
v -0.466690 1.100000 0.466690
v -0.000000 1.100000 0.660000
v 0.466690 1.100000 0.466690
v 0.620000 1.050000 0.000000
v 0.438406 1.050000 -0.438406
v 0.000000 1.050000 -0.620000
v -0.438406 1.050000 -0.438406
v -0.620000 1.050000 -0.000000
v -0.438406 1.050000 0.438406
v -0.000000 1.050000 0.620000
v 0.438406 1.050000 0.438406
v 0.540000 0.700000 0.000000
v 0.381838 0.700000 -0.381838
v 0.000000 0.700000 -0.540000
v -0.381838 0.700000 -0.381838
v -0.540000 0.700000 -0.000000
v -0.381838 0.700000 0.381838
v -0.000000 0.700000 0.540000
v 0.381838 0.700000 0.381838
v 0.440000 0.300000 0.000000
v 0.311127 0.300000 -0.311127
v 0.000000 0.300000 -0.440000
v -0.311127 0.300000 -0.311127
v -0.440000 0.300000 -0.000000
v -0.311127 0.300000 0.311127
v -0.000000 0.300000 0.440000
v 0.311127 0.300000 0.311127
v 0.400000 0.150000 0.000000
v 0.282843 0.150000 -0.282843
v 0.000000 0.150000 -0.400000
v -0.282843 0.150000 -0.282843
v -0.400000 0.150000 -0.000000
v -0.282843 0.150000 0.282843
v -0.000000 0.150000 0.400000
v 0.282843 0.150000 0.282843
v 0.400000 0.080000 0.000000
v 0.282843 0.080000 -0.282843
v 0.000000 0.080000 -0.400000
v -0.282843 0.080000 -0.282843
v -0.400000 0.080000 -0.000000
v -0.282843 0.080000 0.282843
v -0.000000 0.080000 0.400000
v 0.282843 0.080000 0.282843
vn 0.7430 -0.5944 -0.3077
vn 0.3077 -0.5944 -0.7430
vn -0.3077 -0.5944 -0.7430
vn -0.7430 -0.5944 -0.3077
vn -0.7430 -0.5944 0.3077
vn -0.3077 -0.5944 0.7430
vn 0.3077 -0.5944 0.7430
vn 0.7430 -0.5944 0.3077
vn 0.8830 -0.2943 -0.3657
vn 0.3657 -0.2943 -0.8830
vn -0.3657 -0.2943 -0.8830
vn -0.8830 -0.2943 -0.3657
vn -0.8830 -0.2943 0.3657
vn -0.3657 -0.2943 0.8830
vn 0.3657 -0.2943 0.8830
vn 0.8830 -0.2943 0.3657
vn 0.9125 -0.1564 -0.3780
vn 0.3780 -0.1564 -0.9125
vn -0.3780 -0.1564 -0.9125
vn -0.9125 -0.1564 -0.3780
vn -0.9125 -0.1564 0.3780
vn -0.3780 -0.1564 0.9125
vn 0.3780 -0.1564 0.9125
vn 0.9125 -0.1564 0.3780
vn 0.9239 -0.0000 -0.3827
vn 0.3827 -0.0000 -0.9239
vn -0.3827 -0.0000 -0.9239
vn -0.9239 -0.0000 -0.3827
vn -0.9239 -0.0000 0.3827
vn -0.3827 -0.0000 0.9239
vn 0.3827 -0.0000 0.9239
vn 0.9239 -0.0000 0.3827
vn 0.9085 0.1817 -0.3763
vn 0.3763 0.1817 -0.9085
vn -0.3763 0.1817 -0.9085
vn -0.9085 0.1817 -0.3763
vn -0.9085 0.1817 0.3763
vn -0.3763 0.1817 0.9085
vn 0.3763 0.1817 0.9085
vn 0.9085 0.1817 0.3763
vn -0.0000 -1.0000 -0.0000
vn -0.0000 1.0000 -0.0000
vn -0.7430 0.5944 0.3077
vn -0.3077 0.5944 0.7430
vn 0.3077 0.5944 0.7430
vn 0.7430 0.5944 0.3077
vn 0.7430 0.5944 -0.3077
vn 0.3077 0.5944 -0.7430
vn -0.3077 0.5944 -0.7430
vn -0.7430 0.5944 -0.3077
vn -0.9039 0.2066 0.3744
vn -0.3744 0.2066 0.9039
vn 0.3744 0.2066 0.9039
vn 0.9039 0.2066 0.3744
vn 0.9039 0.2066 -0.3744
vn 0.3744 0.2066 -0.9039
vn -0.3744 0.2066 -0.9039
vn -0.9039 0.2066 -0.3744
vn -0.9002 0.2250 0.3729
vn -0.3729 0.2250 0.9002
vn 0.3729 0.2250 0.9002
vn 0.9002 0.2250 0.3729
vn 0.9002 0.2250 -0.3729
vn 0.3729 0.2250 -0.9002
vn -0.3729 0.2250 -0.9002
vn -0.9002 0.2250 -0.3729
vn -0.8971 0.2392 0.3716
vn -0.3716 0.2392 0.8971
vn 0.3716 0.2392 0.8971
vn 0.8971 0.2392 0.3716
vn 0.8971 0.2392 -0.3716
vn 0.3716 0.2392 -0.8971
vn -0.3716 0.2392 -0.8971
vn -0.8971 0.2392 -0.3716
vt 0.000000 0.000000
vt 0.883883 0.000000
vt 1.025305 0.250000
vt 0.000000 0.250000
vt 0.000000 0.000000
vt 0.000000 0.250000
vt -0.883883 0.000000
vt -1.025305 0.250000
vt 0.000000 0.000000
vt 0.000000 0.250000
vt -0.000000 0.000000
vt -0.000000 0.250000
vt 1.202082 1.000000
vt 0.000000 1.000000
vt 0.000000 1.000000
vt -1.202082 1.000000
vt 0.000000 1.000000
vt -0.000000 1.000000
vt 1.308148 1.875000
vt 0.000000 1.875000
vt 0.000000 1.875000
vt -1.308148 1.875000
vt 0.000000 1.875000
vt -0.000000 1.875000
vt 1.308148 2.500000
vt 0.000000 2.500000
vt 0.000000 2.500000
vt -1.308148 2.500000
vt 0.000000 2.500000
vt -0.000000 2.500000
vt 1.272792 2.750000
vt 0.000000 2.750000
vt 0.000000 2.750000
vt -1.272792 2.750000
vt 0.000000 2.750000
vt -0.000000 2.750000
vt 0.883883 -0.883883
vt -0.000000 -1.250000
vt -0.883883 -0.883883
vt -1.250000 0.000000
vt -0.883883 0.883883
vt 0.000000 1.250000
vt 0.883883 0.883883
vt 1.250000 0.000000
vt 1.800000 0.000000
vt 1.272792 1.272792
vt 1.166726 1.166726
vt 1.650000 0.000000
vt 0.000000 1.800000
vt 0.000000 1.650000
vt -1.272792 1.272792
vt -1.166726 1.166726
vt -1.800000 0.000000
vt -1.650000 0.000000
vt -1.272792 -1.272792
vt -1.166726 -1.166726
vt -0.000000 -1.800000
vt -0.000000 -1.650000
vt 1.272792 -1.272792
vt 1.166726 -1.166726
vt 1.166726 2.750000
vt 1.096015 2.625000
vt 0.000000 2.625000
vt 0.000000 2.750000
vt 0.000000 2.625000
vt -1.166726 2.750000
vt -1.096015 2.625000
vt 0.000000 2.750000
vt 0.000000 2.625000
vt -0.000000 2.750000
vt -0.000000 2.625000
vt 0.954594 1.750000
vt 0.000000 1.750000
vt 0.000000 1.750000
vt -0.954594 1.750000
vt 0.000000 1.750000
vt -0.000000 1.750000
vt 0.777817 0.750000
vt 0.000000 0.750000
vt 0.000000 0.750000
vt -0.777817 0.750000
vt 0.000000 0.750000
vt -0.000000 0.750000
vt 0.707107 0.375000
vt 0.000000 0.375000
vt 0.000000 0.375000
vt -0.707107 0.375000
vt 0.000000 0.375000
vt -0.000000 0.375000
vt 0.707107 0.200000
vt 0.000000 0.200000
vt 0.000000 0.200000
vt -0.707107 0.200000
vt 0.000000 0.200000
vt -0.000000 0.200000
vt 1.000000 0.000000
vt 0.707107 0.707107
vt 0.000000 1.000000
vt -0.707107 0.707107
vt -1.000000 0.000000
vt -0.707107 -0.707107
vt -0.000000 -1.000000
vt 0.707107 -0.707107
s 0
usemtl PotMat
f 1/1/1 2/2/1 10/3/1 9/4/1
f 2/2/2 3/5/2 11/6/2 10/3/2
f 3/5/3 4/7/3 12/8/3 11/6/3
f 4/2/4 5/9/4 13/10/4 12/3/4
f 5/9/5 6/7/5 14/8/5 13/10/5
f 6/7/6 7/11/6 15/12/6 14/8/6
f 7/11/7 8/2/7 16/3/7 15/12/7
f 8/7/8 1/1/8 9/4/8 16/8/8
f 9/4/9 10/3/9 18/13/9 17/14/9
f 10/3/10 11/6/10 19/15/10 18/13/10
f 11/6/11 12/8/11 20/16/11 19/15/11
f 12/3/12 13/10/12 21/17/12 20/13/12
f 13/10/13 14/8/13 22/16/13 21/17/13
f 14/8/14 15/12/14 23/18/14 22/16/14
f 15/12/15 16/3/15 24/13/15 23/18/15
f 16/8/16 9/4/16 17/14/16 24/16/16
f 17/14/17 18/13/17 26/19/17 25/20/17
f 18/13/18 19/15/18 27/21/18 26/19/18
f 19/15/19 20/16/19 28/22/19 27/21/19
f 20/13/20 21/17/20 29/23/20 28/19/20
f 21/17/21 22/16/21 30/22/21 29/23/21
f 22/16/22 23/18/22 31/24/22 30/22/22
f 23/18/23 24/13/23 32/19/23 31/24/23
f 24/16/24 17/14/24 25/20/24 32/22/24
f 25/20/25 26/19/25 34/25/25 33/26/25
f 26/19/26 27/21/26 35/27/26 34/25/26
f 27/21/27 28/22/27 36/28/27 35/27/27
f 28/19/28 29/23/28 37/29/28 36/25/28
f 29/23/29 30/22/29 38/28/29 37/29/29
f 30/22/30 31/24/30 39/30/30 38/28/30
f 31/24/31 32/19/31 40/25/31 39/30/31
f 32/22/32 25/20/32 33/26/32 40/28/32
f 33/26/33 34/25/33 42/31/33 41/32/33
f 34/25/34 35/27/34 43/33/34 42/31/34
f 35/27/35 36/28/35 44/34/35 43/33/35
f 36/25/36 37/29/36 45/35/36 44/31/36
f 37/29/37 38/28/37 46/34/37 45/35/37
f 38/28/38 39/30/38 47/36/38 46/34/38
f 39/30/39 40/25/39 48/31/39 47/36/39
f 40/28/40 33/26/40 41/32/40 48/34/40
f 8/37/41 7/38/41 6/39/41 5/40/41 4/41/41 3/42/41 2/43/41 1/44/41
f 41/45/42 42/46/42 50/47/42 49/48/42
f 42/46/42 43/49/42 51/50/42 50/47/42
f 43/49/42 44/51/42 52/52/42 51/50/42
f 44/51/42 45/53/42 53/54/42 52/52/42
f 45/53/42 46/55/42 54/56/42 53/54/42
f 46/55/42 47/57/42 55/58/42 54/56/42
f 47/57/42 48/59/42 56/60/42 55/58/42
f 48/59/42 41/45/42 49/48/42 56/60/42
f 50/61/43 58/62/43 57/63/43 49/32/43
f 51/64/44 59/65/44 58/62/44 50/61/44
f 52/66/45 60/67/45 59/65/45 51/64/45
f 53/68/46 61/69/46 60/62/46 52/61/46
f 54/66/47 62/67/47 61/69/47 53/68/47
f 55/70/48 63/71/48 62/67/48 54/66/48
f 56/61/49 64/62/49 63/71/49 55/70/49
f 49/32/50 57/63/50 64/67/50 56/66/50
f 58/62/51 66/72/51 65/73/51 57/63/51
f 59/65/52 67/74/52 66/72/52 58/62/52
f 60/67/53 68/75/53 67/74/53 59/65/53
f 61/69/54 69/76/54 68/72/54 60/62/54
f 62/67/55 70/75/55 69/76/55 61/69/55
f 63/71/56 71/77/56 70/75/56 62/67/56
f 64/62/57 72/72/57 71/77/57 63/71/57
f 57/63/58 65/73/58 72/75/58 64/67/58
f 66/72/59 74/78/59 73/79/59 65/73/59
f 67/74/60 75/80/60 74/78/60 66/72/60
f 68/75/61 76/81/61 75/80/61 67/74/61
f 69/76/62 77/82/62 76/78/62 68/72/62
f 70/75/63 78/81/63 77/82/63 69/76/63
f 71/77/64 79/83/64 78/81/64 70/75/64
f 72/72/65 80/78/65 79/83/65 71/77/65
f 65/73/66 73/79/66 80/81/66 72/75/66
f 74/78/67 82/84/67 81/85/67 73/79/67
f 75/80/68 83/86/68 82/84/68 74/78/68
f 76/81/69 84/87/69 83/86/69 75/80/69
f 77/82/70 85/88/70 84/84/70 76/78/70
f 78/81/71 86/87/71 85/88/71 77/82/71
f 79/83/72 87/89/72 86/87/72 78/81/72
f 80/78/73 88/84/73 87/89/73 79/83/73
f 73/79/74 81/85/74 88/87/74 80/81/74
f 82/84/29 90/90/29 89/91/29 81/85/29
f 83/86/30 91/92/30 90/90/30 82/84/30
f 84/87/31 92/93/31 91/92/31 83/86/31
f 85/88/32 93/94/32 92/90/32 84/84/32
f 86/87/25 94/93/25 93/94/25 85/88/25
f 87/89/26 95/95/26 94/93/26 86/87/26
f 88/84/27 96/90/27 95/95/27 87/89/27
f 81/85/28 89/91/28 96/93/28 88/87/28
f 89/96/42 90/97/42 91/98/42 92/99/42 93/100/42 94/101/42 95/102/42 96/103/42
o Soil
v 0.000000 1.060000 0.000000
v 0.300000 1.055000 0.000000
v 0.212132 1.045000 -0.212132
v 0.000000 1.055000 -0.300000
v -0.212132 1.045000 -0.212132
v -0.300000 1.055000 -0.000000
v -0.212132 1.045000 0.212132
v -0.000000 1.055000 0.300000
v 0.212132 1.045000 0.212132
v 0.572805 1.040000 -0.237264
v 0.237264 1.040000 -0.572805
v -0.237264 1.040000 -0.572805
v -0.572805 1.040000 -0.237264
v -0.572805 1.040000 0.237264
v -0.237264 1.040000 0.572805
v 0.237264 1.040000 0.572805
v 0.572805 1.040000 0.237264
vn 0.0166 0.9984 -0.0540
vn 0.0540 0.9984 -0.0166
vn -0.0540 0.9984 -0.0166
vn -0.0166 0.9984 -0.0540
vn -0.0166 0.9984 0.0540
vn -0.0540 0.9984 0.0166
vn 0.0540 0.9984 0.0166
vn 0.0166 0.9984 0.0540
vn 0.0119 0.9996 -0.0275
vn 0.0194 0.9991 -0.0380
vn -0.0275 0.9996 -0.0119
vn -0.0380 0.9991 -0.0194
vn -0.0119 0.9996 0.0275
vn -0.0194 0.9991 0.0380
vn 0.0275 0.9996 0.0119
vn 0.0380 0.9991 0.0194
vt 0.000000 0.000000
vt 1.200000 0.000000
vt 0.848528 0.848528
vt 0.000000 1.200000
vt -0.848528 0.848528
vt -1.200000 0.000000
vt -0.848528 -0.848528
vt -0.000000 -1.200000
vt 0.848528 -0.848528
vt 2.291221 0.949055
vt 0.949055 2.291221
vt -0.949055 2.291221
vt -2.291221 0.949055
vt -2.291221 -0.949055
vt -0.949055 -2.291221
vt 0.949055 -2.291221
vt 2.291221 -0.949055
s 0
usemtl SoilMat
f 97/104/75 98/105/75 99/106/75
f 97/104/76 99/106/76 100/107/76
f 97/104/77 100/107/77 101/108/77
f 97/104/78 101/108/78 102/109/78
f 97/104/79 102/109/79 103/110/79
f 97/104/80 103/110/80 104/111/80
f 97/104/81 104/111/81 105/112/81
f 97/104/82 105/112/82 98/105/82
f 98/105/83 106/113/83 107/114/83 99/106/83
f 99/106/84 107/114/84 108/115/84 100/107/84
f 100/107/85 108/115/85 109/116/85 101/108/85
f 101/108/86 109/116/86 110/117/86 102/109/86
f 102/109/87 110/117/87 111/118/87 103/110/87
f 103/110/88 111/118/88 112/119/88 104/111/88
f 104/111/89 112/119/89 113/120/89 105/112/89
f 105/112/90 113/120/90 106/113/90 98/105/90
o Saucer
v 0.780000 -0.060000 0.000000
v 0.551543 -0.060000 -0.551543
v 0.000000 -0.060000 -0.780000
v -0.551543 -0.060000 -0.551543
v -0.780000 -0.060000 -0.000000
v -0.551543 -0.060000 0.551543
v -0.000000 -0.060000 0.780000
v 0.551543 -0.060000 0.551543
v 0.820000 -0.020000 0.000000
v 0.579828 -0.020000 -0.579828
v 0.000000 -0.020000 -0.820000
v -0.579828 -0.020000 -0.579828
v -0.820000 -0.020000 -0.000000
v -0.579828 -0.020000 0.579828
v -0.000000 -0.020000 0.820000
v 0.579828 -0.020000 0.579828
v 0.780000 0.040000 0.000000
v 0.551543 0.040000 -0.551543
v 0.000000 0.040000 -0.780000
v -0.551543 0.040000 -0.551543
v -0.780000 0.040000 -0.000000
v -0.551543 0.040000 0.551543
v -0.000000 0.040000 0.780000
v 0.551543 0.040000 0.551543
vn 0.6786 -0.6786 -0.2811
vn 0.2811 -0.6786 -0.6786
vn -0.2811 -0.6786 -0.6786
vn -0.6786 -0.6786 -0.2811
vn -0.6786 -0.6786 0.2811
vn -0.2811 -0.6786 0.6786
vn 0.2811 -0.6786 0.6786
vn 0.6786 -0.6786 0.2811
vn 0.7866 0.5244 -0.3258
vn 0.3258 0.5244 -0.7866
vn -0.3258 0.5244 -0.7866
vn -0.7866 0.5244 -0.3258
vn -0.7866 0.5244 0.3258
vn -0.3258 0.5244 0.7866
vn 0.3258 0.5244 0.7866
vn 0.7866 0.5244 0.3258
vn -0.0000 -1.0000 -0.0000
vn -0.0000 1.0000 -0.0000
vt 0.000000 -0.240000
vt 2.206173 -0.240000
vt 2.319310 -0.080000
vt 0.000000 -0.080000
vt 0.000000 -0.240000
vt 0.000000 -0.080000
vt -2.206173 -0.240000
vt -2.319310 -0.080000
vt 0.000000 -0.240000
vt 0.000000 -0.080000
vt -0.000000 -0.240000
vt -0.000000 -0.080000
vt 2.206173 0.160000
vt 0.000000 0.160000
vt 0.000000 0.160000
vt -2.206173 0.160000
vt 0.000000 0.160000
vt -0.000000 0.160000
vt 2.206173 -2.206173
vt -0.000000 -3.120000
vt -2.206173 -2.206173
vt -3.120000 0.000000
vt -2.206173 2.206173
vt 0.000000 3.120000
vt 2.206173 2.206173
vt 3.120000 0.000000
s 0
usemtl SaucerMat
f 114/121/91 115/122/91 123/123/91 122/124/91
f 115/122/92 116/125/92 124/126/92 123/123/92
f 116/125/93 117/127/93 125/128/93 124/126/93
f 117/122/94 118/129/94 126/130/94 125/123/94
f 118/129/95 119/127/95 127/128/95 126/130/95
f 119/127/96 120/131/96 128/132/96 127/128/96
f 120/131/97 121/122/97 129/123/97 128/132/97
f 121/127/98 114/121/98 122/124/98 129/128/98
f 122/124/99 123/123/99 131/133/99 130/134/99
f 123/123/100 124/126/100 132/135/100 131/133/100
f 124/126/101 125/128/101 133/136/101 132/135/101
f 125/123/102 126/130/102 134/137/102 133/133/102
f 126/130/103 127/128/103 135/136/103 134/137/103
f 127/128/104 128/132/104 136/138/104 135/136/104
f 128/132/105 129/123/105 137/133/105 136/138/105
f 129/128/106 122/124/106 130/134/106 137/136/106
f 121/139/107 120/140/107 119/141/107 118/142/107 117/143/107 116/144/107 115/145/107 114/146/107
f 130/146/108 131/145/108 132/144/108 133/143/108 134/142/108 135/141/108 136/140/108 137/139/108
o Branch_000
v 0.115028 1.134947 -0.143552
v -0.196230 1.031582 0.190676
v 0.141031 1.282325 -0.184060
v -0.274508 1.142320 0.262327
v 0.163763 1.426901 -0.221048
v -0.349383 1.248895 0.330666
v 0.182143 1.567567 -0.253287
v -0.419776 1.352415 0.394465
v 0.195067 1.703874 -0.279587
v -0.484580 1.453330 0.452533
v 0.201572 1.835366 -0.298904
v -0.542834 1.552096 0.503824
v 0.200859 1.961595 -0.310364
v -0.593739 1.649161 0.547468
v 0.192317 2.082124 -0.313292
v -0.636684 1.744962 0.582787
v 0.175538 2.196543 -0.307224
v -0.671259 1.839909 0.609318
v 0.150325 2.304474 -0.291921
v -0.697270 1.934380 0.626822
v 0.116702 2.405583 -0.267375
v -0.714739 2.028709 0.635291
v 0.074911 2.499586 -0.233812
v -0.723910 2.123179 0.634950
v 0.025412 2.586261 -0.191684
v -0.725240 2.218014 0.626252
v -0.031134 2.665454 -0.141662
v -0.719392 2.313366 0.609869
v -0.092915 2.733947 -0.085258
v -0.708178 2.412455 0.587312
vn 0.7206 0.0626 0.6905
vn 0.7205 0.0634 0.6906
vn 0.7203 0.0642 0.6907
vn 0.7201 0.0650 0.6908
vn 0.7200 0.0659 0.6909
vn 0.7197 0.0668 0.6910
vn 0.7195 0.0678 0.6912
vn 0.7193 0.0688 0.6913
vn 0.7190 0.0699 0.6915
vn 0.7187 0.0710 0.6917
vn 0.7184 0.0723 0.6919
vn 0.7180 0.0736 0.6921
vn 0.7176 0.0750 0.6924
vn 0.7172 0.0765 0.6927
vt 0.000000 0.000000
vt 0.000000 0.071429
vt 1.000000 0.071429
vt 1.000000 0.000000
vt 0.000000 0.142857
vt 1.000000 0.142857
vt 0.000000 0.214286
vt 1.000000 0.214286
vt 0.000000 0.285714
vt 1.000000 0.285714
vt 0.000000 0.357143
vt 1.000000 0.357143
vt 0.000000 0.428571
vt 1.000000 0.428571
vt 0.000000 0.500000
vt 1.000000 0.500000
vt 0.000000 0.571429
vt 1.000000 0.571429
vt 0.000000 0.642857
vt 1.000000 0.642857
vt 0.000000 0.714286
vt 1.000000 0.714286
vt 0.000000 0.785714
vt 1.000000 0.785714
vt 0.000000 0.857143
vt 1.000000 0.857143
vt 0.000000 0.928571
vt 1.000000 0.928571
vt 0.000000 1.000000
vt 1.000000 1.000000
s 0
usemtl BranchMat
f 138/147/109 140/148/109 141/149/109 139/150/109
f 140/148/110 142/151/110 143/152/110 141/149/110
f 142/151/111 144/153/111 145/154/111 143/152/111
f 144/153/112 146/155/112 147/156/112 145/154/112
f 146/155/113 148/157/113 149/158/113 147/156/113
f 148/157/114 150/159/114 151/160/114 149/158/114
f 150/159/115 152/161/115 153/162/115 151/160/115
f 152/161/116 154/163/116 155/164/116 153/162/116
f 154/163/117 156/165/117 157/166/117 155/164/117
f 156/165/118 158/167/118 159/168/118 157/166/118
f 158/167/119 160/169/119 161/170/119 159/168/119
f 160/169/120 162/171/120 163/172/120 161/170/120
f 162/171/121 164/173/121 165/174/121 163/172/121
f 164/173/122 166/175/122 167/176/122 165/174/122
o Branch_001
v 0.111236 1.172219 -0.116888
v -0.178179 1.036325 0.202726
v 0.128444 1.324937 -0.143883
v -0.257717 1.140997 0.282717
v 0.142345 1.474852 -0.167374
v -0.333958 1.241307 0.359193
v 0.152010 1.620552 -0.186282
v -0.405972 1.338670 0.431073
v 0.156414 1.761445 -0.199472
v -0.472734 1.433678 0.497226
v 0.154672 1.896937 -0.205961
v -0.533360 1.526924 0.556667
v 0.146057 2.026443 -0.204936
v -0.587122 1.618994 0.608582
v 0.130023 2.149401 -0.195780
v -0.633476 1.710449 0.652354
v 0.106219 2.265286 -0.178083
v -0.672068 1.801814 0.687575
v 0.074499 2.373619 -0.151662
v -0.702753 1.893569 0.714060
v 0.034925 2.473982 -0.116558
v -0.725595 1.986131 0.731852
v -0.012228 2.566031 -0.073042
v -0.740867 2.079845 0.741220
v -0.066481 2.649504 -0.021607
v -0.749047 2.174972 0.742658
v -0.127162 2.724234 0.037041
v -0.750811 2.271679 0.736872
v -0.191980 2.786436 0.100797
v -0.748445 2.373752 0.725967
vn 0.7327 0.0375 0.6795
vn 0.7325 0.0386 0.6797
vn 0.7322 0.0396 0.6799
vn 0.7319 0.0408 0.6802
vn 0.7316 0.0420 0.6804
vn 0.7313 0.0432 0.6807
vn 0.7309 0.0446 0.6810
vn 0.7305 0.0460 0.6814
vn 0.7300 0.0474 0.6817
vn 0.7296 0.0490 0.6822
vn 0.7290 0.0507 0.6826
vn 0.7284 0.0524 0.6831
vn 0.7278 0.0543 0.6837
vn 0.7270 0.0563 0.6843
vt 0.000000 0.000000
vt 0.000000 0.071429
vt 1.000000 0.071429
vt 1.000000 0.000000
vt 0.000000 0.142857
vt 1.000000 0.142857
vt 0.000000 0.214286
vt 1.000000 0.214286
vt 0.000000 0.285714
vt 1.000000 0.285714
vt 0.000000 0.357143
vt 1.000000 0.357143
vt 0.000000 0.428571
vt 1.000000 0.428571
vt 0.000000 0.500000
vt 1.000000 0.500000
vt 0.000000 0.571429
vt 1.000000 0.571429
vt 0.000000 0.642857
vt 1.000000 0.642857
vt 0.000000 0.714286
vt 1.000000 0.714286
vt 0.000000 0.785714
vt 1.000000 0.785714
vt 0.000000 0.857143
vt 1.000000 0.857143
vt 0.000000 0.928571
vt 1.000000 0.928571
vt 0.000000 1.000000
vt 1.000000 1.000000
s 0
usemtl BranchMat
f 168/177/123 170/178/123 171/179/123 169/180/123
f 170/178/124 172/181/124 173/182/124 171/179/124
f 172/181/125 174/183/125 175/184/125 173/182/125
f 174/183/126 176/185/126 177/186/126 175/184/126
f 176/185/127 178/187/127 179/188/127 177/186/127
f 178/187/128 180/189/128 181/190/128 179/188/128
f 180/189/129 182/191/129 183/192/129 181/190/129
f 182/191/130 184/193/130 185/194/130 183/192/130
f 184/193/131 186/195/131 187/196/131 185/194/131
f 186/195/132 188/197/132 189/198/132 187/196/132
f 188/197/133 190/199/133 191/200/133 189/198/133
f 190/199/134 192/201/134 193/202/134 191/200/134
f 192/201/135 194/203/135 195/204/135 193/202/135
f 194/203/136 196/205/136 197/206/136 195/204/136
o Branch_002
v 0.220949 1.080345 -0.280654
v -0.083956 1.115528 0.016433
v 0.268419 1.209005 -0.350432
v -0.139067 1.258004 0.046259
v 0.313852 1.331639 -0.417012
v -0.190439 1.397349 0.073038
v 0.356025 1.449081 -0.479328
v -0.236852 1.532728 0.095700
v 0.393836 1.561510 -0.536315
v -0.277203 1.663962 0.113183
v 0.426309 1.669138 -0.587043
v -0.310515 1.790839 0.124556
v 0.452617 1.772212 -0.630736
v -0.335962 1.913113 0.129042
v 0.472107 1.871010 -0.666792
v -0.352890 2.030504 0.126040
v 0.484311 1.965842 -0.694805
v -0.360833 2.142704 0.115144
v 0.488966 2.057040 -0.714569
v -0.359526 2.249379 0.096147
v 0.486013 2.144961 -0.726090
v -0.348911 2.350174 0.069056
v 0.475609 2.229977 -0.729587
v -0.329145 2.444715 0.034091
v 0.458121 2.312476 -0.725491
v -0.300595 2.532617 -0.008320
v 0.434121 2.392852 -0.714434
v -0.263833 2.613483 -0.057542
v 0.404848 2.476148 -0.698417
v -0.220097 2.682271 -0.111575
vn 0.6998 0.1234 0.7036
vn 0.6998 0.1228 0.7037
vn 0.6998 0.1221 0.7038
vn 0.6998 0.1214 0.7039
vn 0.6999 0.1207 0.7040
vn 0.6999 0.1198 0.7042
vn 0.6998 0.1190 0.7043
vn 0.6998 0.1180 0.7045
vn 0.6998 0.1170 0.7047
vn 0.6998 0.1158 0.7049
vn 0.6997 0.1146 0.7052
vn 0.6997 0.1132 0.7055
vn 0.6996 0.1117 0.7058
vn 0.6994 0.1100 0.7062
vt 0.000000 0.000000
vt 0.000000 0.071429
vt 1.000000 0.071429
vt 1.000000 0.000000
vt 0.000000 0.142857
vt 1.000000 0.142857
vt 0.000000 0.214286
vt 1.000000 0.214286
vt 0.000000 0.285714
vt 1.000000 0.285714
vt 0.000000 0.357143
vt 1.000000 0.357143
vt 0.000000 0.428571
vt 1.000000 0.428571
vt 0.000000 0.500000
vt 1.000000 0.500000
vt 0.000000 0.571429
vt 1.000000 0.571429
vt 0.000000 0.642857
vt 1.000000 0.642857
vt 0.000000 0.714286
vt 1.000000 0.714286
vt 0.000000 0.785714
vt 1.000000 0.785714
vt 0.000000 0.857143
vt 1.000000 0.857143
vt 0.000000 0.928571
vt 1.000000 0.928571
vt 0.000000 1.000000
vt 1.000000 1.000000
s 0
usemtl BranchMat
f 198/207/137 200/208/137 201/209/137 199/210/137
f 200/208/138 202/211/138 203/212/138 201/209/138
f 202/211/139 204/213/139 205/214/139 203/212/139
f 204/213/140 206/215/140 207/216/140 205/214/140
f 206/215/141 208/217/141 209/218/141 207/216/141
f 208/217/142 210/219/142 211/220/142 209/218/142
f 210/219/143 212/221/143 213/222/143 211/220/143
f 212/221/144 214/223/144 215/224/144 213/222/144
f 214/223/145 216/225/145 217/226/145 215/224/145
f 216/225/146 218/227/146 219/228/146 217/226/146
f 218/227/147 220/229/147 221/230/147 219/228/147
f 220/229/148 222/231/148 223/232/148 221/230/148
f 222/231/149 224/233/149 225/234/149 223/232/149
f 224/233/150 226/235/150 227/236/150 225/234/150
o Branch_003
v 0.216064 1.099334 -0.075064
v -0.132022 1.081883 0.276899
v 0.282177 1.247382 -0.119539
v -0.183002 1.223182 0.350686
v 0.344689 1.393423 -0.160445
v -0.230986 1.361259 0.421127
v 0.402220 1.537044 -0.196443
v -0.274596 1.496529 0.486879
v 0.453525 1.678133 -0.226279
v -0.312585 1.629103 0.546689
v 0.497503 1.816565 -0.248848
v -0.343852 1.759105 0.599454
v 0.533224 1.952205 -0.263225
v -0.367469 1.886672 0.644247
v 0.559955 2.084908 -0.268686
v -0.382701 2.011946 0.680344
v 0.577176 2.214527 -0.264722
v -0.389029 2.135078 0.707237
v 0.584593 2.340915 -0.251058
v -0.386159 2.256211 0.724651
v 0.582147 2.463931 -0.227657
v -0.374032 2.375489 0.732548
v 0.570014 2.583443 -0.194720
v -0.352823 2.493042 0.731130
v 0.548600 2.699335 -0.152682
v -0.322940 2.608987 0.720831
v 0.518534 2.811510 -0.102201
v -0.285009 2.723421 0.702310
v 0.480611 2.918742 -0.044312
v -0.239828 2.837569 0.676602
vn -0.7095 0.1077 -0.6964
vn -0.7095 0.1087 -0.6963
vn -0.7094 0.1097 -0.6962
vn -0.7094 0.1108 -0.6961
vn -0.7093 0.1119 -0.6959
vn -0.7093 0.1130 -0.6958
vn -0.7092 0.1142 -0.6957
vn -0.7092 0.1155 -0.6955
vn -0.7091 0.1168 -0.6954
vn -0.7090 0.1181 -0.6952
vn -0.7090 0.1195 -0.6950
vn -0.7089 0.1210 -0.6948
vn -0.7089 0.1226 -0.6946
vn -0.7088 0.1242 -0.6944
vt 0.000000 0.000000
vt 1.000000 0.000000
vt 1.000000 0.071429
vt 0.000000 0.071429
vt 1.000000 0.142857
vt 0.000000 0.142857
vt 1.000000 0.214286
vt 0.000000 0.214286
vt 1.000000 0.285714
vt 0.000000 0.285714
vt 1.000000 0.357143
vt 0.000000 0.357143
vt 1.000000 0.428571
vt 0.000000 0.428571
vt 1.000000 0.500000
vt 0.000000 0.500000
vt 1.000000 0.571429
vt 0.000000 0.571429
vt 1.000000 0.642857
vt 0.000000 0.642857
vt 1.000000 0.714286
vt 0.000000 0.714286
vt 1.000000 0.785714
vt 0.000000 0.785714
vt 1.000000 0.857143
vt 0.000000 0.857143
vt 1.000000 0.928571
vt 0.000000 0.928571
vt 1.000000 1.000000
vt 0.000000 1.000000
s 0
usemtl BranchMat
f 228/237/151 229/238/151 231/239/151 230/240/151
f 230/240/152 231/239/152 233/241/152 232/242/152
f 232/242/153 233/241/153 235/243/153 234/244/153
f 234/244/154 235/243/154 237/245/154 236/246/154
f 236/246/155 237/245/155 239/247/155 238/248/155
f 238/248/156 239/247/156 241/249/156 240/250/156
f 240/250/157 241/249/157 243/251/157 242/252/157
f 242/252/158 243/251/158 245/253/158 244/254/158
f 244/254/159 245/253/159 247/255/159 246/256/159
f 246/256/160 247/255/160 249/257/160 248/258/160
f 248/258/161 249/257/161 251/259/161 250/260/161
f 250/260/162 251/259/162 253/261/162 252/262/162
f 252/262/163 253/261/163 255/263/163 254/264/163
f 254/264/164 255/263/164 257/265/164 256/266/164
o Branch_004
v 0.109959 1.094750 -0.238303
v -0.210838 1.160692 0.067840
v 0.149673 1.239748 -0.338297
v -0.279116 1.329168 0.070382
v 0.186713 1.380994 -0.435061
v -0.344127 1.494912 0.069544
v 0.219779 1.519254 -0.527549
v -0.404571 1.657159 0.064282
v 0.247719 1.654837 -0.614686
v -0.459296 1.815599 0.053519
v 0.269513 1.788055 -0.695530
v -0.507281 1.969922 0.036315
v 0.284296 1.919217 -0.769309
v -0.547663 2.119817 0.011897
v 0.291384 2.048619 -0.835428
v -0.579756 2.264989 -0.020330
v 0.290286 2.176540 -0.893495
v -0.603071 2.405159 -0.060759
v 0.280720 2.303230 -0.943321
v -0.617324 2.540077 -0.109576
v 0.262617 2.428905 -0.984933
v -0.622447 2.669528 -0.166757
v 0.236126 2.553736 -1.018568
v -0.618589 2.793336 -0.232064
v 0.201607 2.677851 -1.044671
v -0.606110 2.911380 -0.305051
v 0.159625 2.801315 -1.063879
v -0.585575 3.023591 -0.385083
v 0.110777 2.925812 -1.077748
v -0.557580 3.128286 -0.470603
vn 0.6931 0.2708 0.6680
vn 0.6927 0.2751 0.6667
vn 0.6923 0.2795 0.6653
vn 0.6919 0.2840 0.6638
vn 0.6915 0.2888 0.6622
vn 0.6910 0.2937 0.6605
vn 0.6905 0.2988 0.6587
vn 0.6900 0.3041 0.6568
vn 0.6895 0.3097 0.6547
vn 0.6890 0.3154 0.6525
vn 0.6884 0.3214 0.6502
vn 0.6878 0.3276 0.6477
vn 0.6872 0.3341 0.6450
vn 0.6866 0.3409 0.6421
vt 0.000000 0.000000
vt 0.000000 0.071429
vt 1.000000 0.071429
vt 1.000000 0.000000
vt 0.000000 0.142857
vt 1.000000 0.142857
vt 0.000000 0.214286
vt 1.000000 0.214286
vt 0.000000 0.285714
vt 1.000000 0.285714
vt 0.000000 0.357143
vt 1.000000 0.357143
vt 0.000000 0.428571
vt 1.000000 0.428571
vt 0.000000 0.500000
vt 1.000000 0.500000
vt 0.000000 0.571429
vt 1.000000 0.571429
vt 0.000000 0.642857
vt 1.000000 0.642857
vt 0.000000 0.714286
vt 1.000000 0.714286
vt 0.000000 0.785714
vt 1.000000 0.785714
vt 0.000000 0.857143
vt 1.000000 0.857143
vt 0.000000 0.928571
vt 1.000000 0.928571
vt 0.000000 1.000000
vt 1.000000 1.000000
s 0
usemtl BranchMat
f 258/267/165 260/268/165 261/269/165 259/270/165
f 260/268/166 262/271/166 263/272/166 261/269/166
f 262/271/167 264/273/167 265/274/167 263/272/167
f 264/273/168 266/275/168 267/276/168 265/274/168
f 266/275/169 268/277/169 269/278/169 267/276/169
f 268/277/170 270/279/170 271/280/170 269/278/170
f 270/279/171 272/281/171 273/282/171 271/280/171
f 272/281/172 274/283/172 275/284/172 273/282/172
f 274/283/173 276/285/173 277/286/173 275/284/173
f 276/285/174 278/287/174 279/288/174 277/286/174
f 278/287/175 280/289/175 281/290/175 279/288/175
f 280/289/176 282/291/176 283/292/176 281/290/176
f 282/291/177 284/293/177 285/294/177 283/292/177
f 284/293/178 286/295/178 287/296/178 285/294/178
o Branch_005
v 0.281653 1.081698 -0.071058
v -0.039675 1.066554 0.253635
v 0.359125 1.210900 -0.096537
v -0.070478 1.189463 0.337057
v 0.433405 1.336785 -0.118414
v -0.098727 1.307202 0.417322
v 0.503161 1.458861 -0.135510
v -0.123089 1.420263 0.493252
v 0.567244 1.577033 -0.146662
v -0.142414 1.528741 0.563684
v 0.624633 1.691181 -0.150852
v -0.155682 1.632756 0.627598
v 0.674459 1.801161 -0.147229
v -0.162025 1.732452 0.684145
v 0.716032 1.906808 -0.135136
v -0.160751 1.827993 0.732667
v 0.748848 2.007936 -0.114124
v -0.151358 1.919566 0.772715
v 0.772608 2.104343 -0.083968
v -0.133545 2.007373 0.804064
v 0.787222 2.195814 -0.044671
v -0.107223 2.091628 0.826717
v 0.792808 2.282125 0.003532
v -0.072510 2.172555 0.840911
v 0.789691 2.363051 0.060174
v -0.029731 2.250382 0.847109
v 0.778393 2.438365 0.124571
v 0.020592 2.325331 0.845999
v 0.758948 2.505540 0.194732
v 0.078425 2.399935 0.839570
vn -0.6886 0.2811 -0.6684
vn -0.6871 0.2895 -0.6664
vn -0.6853 0.2985 -0.6642
vn -0.6834 0.3081 -0.6618
vn -0.6814 0.3182 -0.6591
vn -0.6791 0.3291 -0.6561
vn -0.6767 0.3408 -0.6527
vn -0.6739 0.3532 -0.6489
vn -0.6709 0.3666 -0.6446
vn -0.6676 0.3810 -0.6396
vn -0.6639 0.3965 -0.6341
vn -0.6597 0.4133 -0.6277
vn -0.6550 0.4314 -0.6204
vn -0.6498 0.4510 -0.6119
vt 0.000000 0.000000
vt 1.000000 0.000000
vt 1.000000 0.071429
vt 0.000000 0.071429
vt 1.000000 0.142857
vt 0.000000 0.142857
vt 1.000000 0.214286
vt 0.000000 0.214286
vt 1.000000 0.285714
vt 0.000000 0.285714
vt 1.000000 0.357143
vt 0.000000 0.357143
vt 1.000000 0.428571
vt 0.000000 0.428571
vt 1.000000 0.500000
vt 0.000000 0.500000
vt 1.000000 0.571429
vt 0.000000 0.571429
vt 1.000000 0.642857
vt 0.000000 0.642857
vt 1.000000 0.714286
vt 0.000000 0.714286
vt 1.000000 0.785714
vt 0.000000 0.785714
vt 1.000000 0.857143
vt 0.000000 0.857143
vt 1.000000 0.928571
vt 0.000000 0.928571
vt 1.000000 1.000000
vt 0.000000 1.000000
s 0
usemtl BranchMat
f 288/297/179 289/298/179 291/299/179 290/300/179
f 290/300/180 291/299/180 293/301/180 292/302/180
f 292/302/181 293/301/181 295/303/181 294/304/181
f 294/304/182 295/303/182 297/305/182 296/306/182
f 296/306/183 297/305/183 299/307/183 298/308/183
f 298/308/184 299/307/184 301/309/184 300/310/184
f 300/310/185 301/309/185 303/311/185 302/312/185
f 302/312/186 303/311/186 305/313/186 304/314/186
f 304/314/187 305/313/187 307/315/187 306/316/187
f 306/316/188 307/315/188 309/317/188 308/318/188
f 308/318/189 309/317/189 311/319/189 310/320/189
f 310/320/190 311/319/190 313/321/190 312/322/190
f 312/322/191 313/321/191 315/323/191 314/324/191
f 314/324/192 315/323/192 317/325/192 316/326/192
o Branch_006
v 0.042277 1.109601 -0.231904
v -0.271106 1.083876 0.087196
v 0.066336 1.295162 -0.299060
v -0.352315 1.260095 0.127392
v 0.087202 1.477383 -0.362993
v -0.430505 1.432248 0.164784
v 0.103693 1.655895 -0.422438
v -0.504493 1.600705 0.198104
v 0.114691 1.830571 -0.476251
v -0.573163 1.765592 0.226212
v 0.119217 2.001276 -0.523423
v -0.635535 1.927045 0.248097
v 0.116448 2.167872 -0.563104
v -0.690785 2.085201 0.262908
v 0.105742 2.330223 -0.594619
v -0.738272 2.240197 0.269971
v 0.086652 2.488194 -0.617491
v -0.777549 2.392166 0.268809
v 0.058937 2.641660 -0.631447
v -0.808374 2.541235 0.259151
v 0.022568 2.790506 -0.636432
v -0.830721 2.687519 0.240938
v -0.022268 2.934630 -0.632602
v -0.844773 2.831117 0.214328
v -0.075177 3.073953 -0.620326
v -0.850926 2.972114 0.179690
v -0.135567 3.208413 -0.600175
v -0.849772 3.110566 0.137596
v -0.202441 3.337015 -0.572827
v -0.842309 3.247471 0.088723
vn 0.6975 0.1622 0.6980
vn 0.6970 0.1650 0.6978
vn 0.6965 0.1679 0.6976
vn 0.6960 0.1710 0.6974
vn 0.6955 0.1742 0.6971
vn 0.6949 0.1775 0.6969
vn 0.6943 0.1810 0.6966
vn 0.6936 0.1846 0.6963
vn 0.6929 0.1884 0.6960
vn 0.6921 0.1924 0.6957
vn 0.6913 0.1965 0.6954
vn 0.6904 0.2009 0.6950
vn 0.6894 0.2055 0.6946
vn 0.6883 0.2103 0.6942
vt 0.000000 0.000000
vt 0.000000 0.071429
vt 1.000000 0.071429
vt 1.000000 0.000000
vt 0.000000 0.142857
vt 1.000000 0.142857
vt 0.000000 0.214286
vt 1.000000 0.214286
vt 0.000000 0.285714
vt 1.000000 0.285714
vt 0.000000 0.357143
vt 1.000000 0.357143
vt 0.000000 0.428571
vt 1.000000 0.428571
vt 0.000000 0.500000
vt 1.000000 0.500000
vt 0.000000 0.571429
vt 1.000000 0.571429
vt 0.000000 0.642857
vt 1.000000 0.642857
vt 0.000000 0.714286
vt 1.000000 0.714286
vt 0.000000 0.785714
vt 1.000000 0.785714
vt 0.000000 0.857143
vt 1.000000 0.857143
vt 0.000000 0.928571
vt 1.000000 0.928571
vt 0.000000 1.000000
vt 1.000000 1.000000
s 0
usemtl BranchMat
f 318/327/193 320/328/193 321/329/193 319/330/193
f 320/328/194 322/331/194 323/332/194 321/329/194
f 322/331/195 324/333/195 325/334/195 323/332/195
f 324/333/196 326/335/196 327/336/196 325/334/196
f 326/335/197 328/337/197 329/338/197 327/336/197
f 328/337/198 330/339/198 331/340/198 329/338/198
f 330/339/199 332/341/199 333/342/199 331/340/199
f 332/341/200 334/343/200 335/344/200 333/342/200
f 334/343/201 336/345/201 337/346/201 335/344/201
f 336/345/202 338/347/202 339/348/202 337/346/202
f 338/347/203 340/349/203 341/350/203 339/348/203
f 340/349/204 342/351/204 343/352/204 341/350/204
f 342/351/205 344/353/205 345/354/205 343/352/205
f 344/353/206 346/355/206 347/356/206 345/354/206
o Branch_007
v 0.160133 1.033218 -0.209072
v -0.142084 1.141274 0.069133
v 0.208130 1.147467 -0.310335
v -0.195743 1.293266 0.060837
v 0.253455 1.259104 -0.408414
v -0.246329 1.443033 0.049345
v 0.294914 1.369113 -0.502446
v -0.292647 1.589588 0.033796
v 0.331424 1.477969 -0.591466
v -0.333616 1.732462 0.013223
v 0.362030 1.586130 -0.674640
v -0.368279 1.871192 -0.013207
v 0.385927 1.694032 -0.751286
v -0.395831 2.005344 -0.046176
v 0.402476 1.802076 -0.820893
v -0.415635 2.134516 -0.086195
v 0.411230 1.910615 -0.883135
v -0.427242 2.258357 -0.133591
v 0.411935 2.019945 -0.937871
v -0.430398 2.376569 -0.188503
v 0.404541 2.130296 -0.985160
v -0.425055 2.488923 -0.250874
v 0.389203 2.241822 -1.025247
v -0.411366 2.595263 -0.320458
v 0.366277 2.354595 -1.058566
v -0.389688 2.695520 -0.396821
v 0.336312 2.468600 -1.085721
v -0.360569 2.789707 -0.479359
v 0.300026 2.585340 -1.108352
v -0.324729 2.876323 -0.566433
vn 0.7024 0.2836 0.6529
vn 0.7023 0.2872 0.6514
vn 0.7022 0.2909 0.6498
vn 0.7021 0.2946 0.6482
vn 0.7021 0.2985 0.6465
vn 0.7020 0.3026 0.6447
vn 0.7019 0.3067 0.6428
vn 0.7019 0.3110 0.6408
vn 0.7018 0.3154 0.6388
vn 0.7017 0.3199 0.6366
vn 0.7017 0.3246 0.6343
vn 0.7016 0.3294 0.6318
vn 0.7016 0.3344 0.6292
vn 0.7016 0.3395 0.6265
vt 0.000000 0.000000
vt 0.000000 0.071429
vt 1.000000 0.071429
vt 1.000000 0.000000
vt 0.000000 0.142857
vt 1.000000 0.142857
vt 0.000000 0.214286
vt 1.000000 0.214286
vt 0.000000 0.285714
vt 1.000000 0.285714
vt 0.000000 0.357143
vt 1.000000 0.357143
vt 0.000000 0.428571
vt 1.000000 0.428571
vt 0.000000 0.500000
vt 1.000000 0.500000
vt 0.000000 0.571429
vt 1.000000 0.571429
vt 0.000000 0.642857
vt 1.000000 0.642857
vt 0.000000 0.714286
vt 1.000000 0.714286
vt 0.000000 0.785714
vt 1.000000 0.785714
vt 0.000000 0.857143
vt 1.000000 0.857143
vt 0.000000 0.928571
vt 1.000000 0.928571
vt 0.000000 1.000000
vt 1.000000 1.000000
s 0
usemtl BranchMat
f 348/357/207 350/358/207 351/359/207 349/360/207
f 350/358/208 352/361/208 353/362/208 351/359/208
f 352/361/209 354/363/209 355/364/209 353/362/209
f 354/363/210 356/365/210 357/366/210 355/364/210
f 356/365/211 358/367/211 359/368/211 357/366/211
f 358/367/212 360/369/212 361/370/212 359/368/212
f 360/369/213 362/371/213 363/372/213 361/370/213
f 362/371/214 364/373/214 365/374/214 363/372/214
f 364/373/215 366/375/215 367/376/215 365/374/215
f 366/375/216 368/377/216 369/378/216 367/376/216
f 368/377/217 370/379/217 371/380/217 369/378/217
f 370/379/218 372/381/218 373/382/218 371/380/218
f 372/381/219 374/383/219 375/384/219 373/382/219
f 374/383/220 376/385/220 377/386/220 375/384/220
o Branch_008
v 0.194624 1.020624 -0.147922
v -0.086515 1.171039 0.099792
v 0.299722 1.156043 -0.221519
v -0.075321 1.358779 0.109147
v 0.401790 1.287793 -0.291942
v -0.060617 1.543022 0.116317
v 0.499961 1.417143 -0.358356
v -0.041539 1.722497 0.120467
v 0.593255 1.544730 -0.419894
v -0.017104 1.896567 0.120731
v 0.680824 1.671169 -0.475803
v 0.013535 2.064619 0.116354
v 0.761979 1.797039 -0.525458
v 0.051067 2.226071 0.106713
v 0.836205 1.922869 -0.568384
v 0.096006 2.380396 0.091332
v 0.903177 2.049124 -0.604263
v 0.148679 2.527130 0.069894
v 0.962767 2.176189 -0.632944
v 0.209213 2.665884 0.042246
v 1.015045 2.304364 -0.654445
v 0.277537 2.796363 0.008407
v 1.060283 2.433846 -0.668953
v 0.353380 2.918367 -0.031435
v 1.098944 2.564722 -0.676818
v 0.436279 3.031809 -0.076932
v 1.131669 2.696968 -0.678545
v 0.525593 3.136713 -0.127578
v 1.160449 2.832625 -0.675256
v 0.619331 3.231040 -0.182249
vn -0.6359 0.0762 -0.7680
vn -0.6344 0.0805 -0.7688
vn -0.6327 0.0850 -0.7697
vn -0.6309 0.0897 -0.7707
vn -0.6290 0.0945 -0.7716
vn -0.6270 0.0995 -0.7726
vn -0.6248 0.1047 -0.7737
vn -0.6225 0.1101 -0.7748
vn -0.6200 0.1158 -0.7760
vn -0.6174 0.1216 -0.7772
vn -0.6146 0.1276 -0.7785
vn -0.6115 0.1339 -0.7798
vn -0.6082 0.1405 -0.7812
vn -0.6047 0.1473 -0.7827
vt 0.000000 0.000000
vt 1.000000 0.000000
vt 1.000000 0.071429
vt 0.000000 0.071429
vt 1.000000 0.142857
vt 0.000000 0.142857
vt 1.000000 0.214286
vt 0.000000 0.214286
vt 1.000000 0.285714
vt 0.000000 0.285714
vt 1.000000 0.357143
vt 0.000000 0.357143
vt 1.000000 0.428571
vt 0.000000 0.428571
vt 1.000000 0.500000
vt 0.000000 0.500000
vt 1.000000 0.571429
vt 0.000000 0.571429
vt 1.000000 0.642857
vt 0.000000 0.642857
vt 1.000000 0.714286
vt 0.000000 0.714286
vt 1.000000 0.785714
vt 0.000000 0.785714
vt 1.000000 0.857143
vt 0.000000 0.857143
vt 1.000000 0.928571
vt 0.000000 0.928571
vt 1.000000 1.000000
vt 0.000000 1.000000
s 0
usemtl BranchMat
f 378/387/221 379/388/221 381/389/221 380/390/221
f 380/390/222 381/389/222 383/391/222 382/392/222
f 382/392/223 383/391/223 385/393/223 384/394/223
f 384/394/224 385/393/224 387/395/224 386/396/224
f 386/396/225 387/395/225 389/397/225 388/398/225
f 388/398/226 389/397/226 391/399/226 390/400/226
f 390/400/227 391/399/227 393/401/227 392/402/227
f 392/402/228 393/401/228 395/403/228 394/404/228
f 394/404/229 395/403/229 397/405/229 396/406/229
f 396/406/230 397/405/230 399/407/230 398/408/230
f 398/408/231 399/407/231 401/409/231 400/410/231
f 400/410/232 401/409/232 403/411/232 402/412/232
f 402/412/233 403/411/233 405/413/233 404/414/233
f 404/414/234 405/413/234 407/415/234 406/416/234
o Branch_009
v 0.154731 1.149002 -0.103555
v -0.157167 1.070020 0.225894
v 0.197016 1.310006 -0.133142
v -0.219697 1.203554 0.306927
v 0.236321 1.468309 -0.159401
v -0.279116 1.334303 0.384681
v 0.271451 1.623247 -0.181105
v -0.334227 1.462931 0.457930
v 0.301296 1.774487 -0.197083
v -0.383919 1.589771 0.525502
v 0.324876 1.921706 -0.206308
v -0.427216 1.715144 0.586371
v 0.341370 2.064603 -0.207921
v -0.463294 1.839354 0.639677
v 0.350133 2.202900 -0.201252
v -0.491510 1.962677 0.684750
v 0.350715 2.336358 -0.185837
v -0.511411 2.085354 0.721127
v 0.342867 2.464771 -0.161429
v -0.522751 2.207588 0.748561
v 0.326552 2.587987 -0.128007
v -0.525492 2.329535 0.767030
v 0.301944 2.705900 -0.085772
v -0.519807 2.451296 0.776736
v 0.269423 2.818463 -0.035145
v -0.506077 2.572922 0.778100
v 0.229567 2.925686 0.023244
v -0.484879 2.694401 0.771751
v 0.183233 3.026457 0.088293
v -0.457072 2.816847 0.758791
vn -0.7326 0.0679 -0.6773
vn -0.7327 0.0696 -0.6770
vn -0.7328 0.0714 -0.6767
vn -0.7329 0.0732 -0.6763
vn -0.7331 0.0750 -0.6760
vn -0.7332 0.0770 -0.6756
vn -0.7334 0.0790 -0.6752
vn -0.7335 0.0811 -0.6748
vn -0.7337 0.0833 -0.6744
vn -0.7339 0.0856 -0.6739
vn -0.7340 0.0880 -0.6734
vn -0.7342 0.0905 -0.6728
vn -0.7344 0.0930 -0.6723
vn -0.7347 0.0958 -0.6716
vt 0.000000 0.000000
vt 1.000000 0.000000
vt 1.000000 0.071429
vt 0.000000 0.071429
vt 1.000000 0.142857
vt 0.000000 0.142857
vt 1.000000 0.214286
vt 0.000000 0.214286
vt 1.000000 0.285714
vt 0.000000 0.285714
vt 1.000000 0.357143
vt 0.000000 0.357143
vt 1.000000 0.428571
vt 0.000000 0.428571
vt 1.000000 0.500000
vt 0.000000 0.500000
vt 1.000000 0.571429
vt 0.000000 0.571429
vt 1.000000 0.642857
vt 0.000000 0.642857
vt 1.000000 0.714286
vt 0.000000 0.714286
vt 1.000000 0.785714
vt 0.000000 0.785714
vt 1.000000 0.857143
vt 0.000000 0.857143
vt 1.000000 0.928571
vt 0.000000 0.928571
vt 1.000000 1.000000
vt 0.000000 1.000000
s 0
usemtl BranchMat
f 408/417/235 409/418/235 411/419/235 410/420/235
f 410/420/236 411/419/236 413/421/236 412/422/236
f 412/422/237 413/421/237 415/423/237 414/424/237
f 414/424/238 415/423/238 417/425/238 416/426/238
f 416/426/239 417/425/239 419/427/239 418/428/239
f 418/428/240 419/427/240 421/429/240 420/430/240
f 420/430/241 421/429/241 423/431/241 422/432/241
f 422/432/242 423/431/242 425/433/242 424/434/242
f 424/434/243 425/433/243 427/435/243 426/436/243
f 426/436/244 427/435/244 429/437/244 428/438/244
f 428/438/245 429/437/245 431/439/245 430/440/245
f 430/440/246 431/439/246 433/441/246 432/442/246
f 432/442/247 433/441/247 435/443/247 434/444/247
f 434/444/248 435/443/248 437/445/248 436/446/248
o Branch_010
v 0.261877 1.020913 -0.160338
v -0.092902 1.134146 0.169277
v 0.373936 1.180500 -0.220706
v -0.099446 1.334163 0.219679
v 0.481824 1.334870 -0.278585
v -0.102102 1.530944 0.266104
v 0.584408 1.485367 -0.332702
v -0.099735 1.723142 0.307281
v 0.680443 1.632517 -0.381874
v -0.091100 1.910234 0.342024
v 0.768852 1.776854 -0.425059
v -0.075121 2.091685 0.369292
v 0.848752 1.918911 -0.461380
v -0.050915 2.266960 0.388209
v 0.919481 2.059209 -0.490153
v -0.017820 2.435541 0.398090
v 0.980610 2.198243 -0.510900
v 0.024594 2.596932 0.398457
v 1.031958 2.336467 -0.523364
v 0.076506 2.750679 0.389053
v 1.073597 2.474283 -0.527514
v 0.137846 2.896379 0.369848
v 1.105847 2.612026 -0.523549
v 0.208292 3.033697 0.341040
v 1.129276 2.749958 -0.511894
v 0.287279 3.162374 0.303054
v 1.144675 2.888245 -0.493189
v 0.374013 3.282239 0.256530
v 1.154428 3.030313 -0.468674
v 0.466112 3.389872 0.202709
vn -0.6418 0.1676 -0.7483
vn -0.6417 0.1679 -0.7484
vn -0.6416 0.1682 -0.7484
vn -0.6415 0.1686 -0.7484
vn -0.6414 0.1689 -0.7484
vn -0.6413 0.1693 -0.7484
vn -0.6411 0.1697 -0.7484
vn -0.6410 0.1701 -0.7485
vn -0.6408 0.1706 -0.7485
vn -0.6407 0.1710 -0.7485
vn -0.6405 0.1715 -0.7486
vn -0.6403 0.1720 -0.7486
vn -0.6401 0.1726 -0.7487
vn -0.6399 0.1731 -0.7487
vt 0.000000 0.000000
vt 1.000000 0.000000
vt 1.000000 0.071429
vt 0.000000 0.071429
vt 1.000000 0.142857
vt 0.000000 0.142857
vt 1.000000 0.214286
vt 0.000000 0.214286
vt 1.000000 0.285714
vt 0.000000 0.285714
vt 1.000000 0.357143
vt 0.000000 0.357143
vt 1.000000 0.428571
vt 0.000000 0.428571
vt 1.000000 0.500000
vt 0.000000 0.500000
vt 1.000000 0.571429
vt 0.000000 0.571429
vt 1.000000 0.642857
vt 0.000000 0.642857
vt 1.000000 0.714286
vt 0.000000 0.714286
vt 1.000000 0.785714
vt 0.000000 0.785714
vt 1.000000 0.857143
vt 0.000000 0.857143
vt 1.000000 0.928571
vt 0.000000 0.928571
vt 1.000000 1.000000
vt 0.000000 1.000000
s 0
usemtl BranchMat
f 438/447/249 439/448/249 441/449/249 440/450/249
f 440/450/250 441/449/250 443/451/250 442/452/250
f 442/452/251 443/451/251 445/453/251 444/454/251
f 444/454/252 445/453/252 447/455/252 446/456/252
f 446/456/253 447/455/253 449/457/253 448/458/253
f 448/458/254 449/457/254 451/459/254 450/460/254
f 450/460/255 451/459/255 453/461/255 452/462/255
f 452/462/256 453/461/256 455/463/256 454/464/256
f 454/464/257 455/463/257 457/465/257 456/466/257
f 456/466/258 457/465/258 459/467/258 458/468/258
f 458/468/259 459/467/259 461/469/259 460/470/259
f 460/470/260 461/469/260 463/471/260 462/472/260
f 462/472/261 463/471/261 465/473/261 464/474/261
f 464/474/262 465/473/262 467/475/262 466/476/262
o Branch_011
v 0.019680 1.121930 -0.175741
v -0.287866 1.085183 0.139970
v 0.042423 1.259693 -0.241719
v -0.368034 1.208314 0.180374
v 0.061551 1.396601 -0.303882
v -0.445005 1.327294 0.218898
v 0.076046 1.531620 -0.360900
v -0.517762 1.443157 0.254210
v 0.084828 1.664494 -0.411623
v -0.585223 1.556161 0.285160
v 0.086958 1.794924 -0.455028
v -0.646451 1.666601 0.310727
v 0.081665 1.922581 -0.490250
v -0.700673 1.774809 0.330044
v 0.068363 2.047108 -0.516598
v -0.747305 1.881141 0.342420
v 0.046671 2.168135 -0.533576
v -0.785965 1.985967 0.347360
v 0.016417 2.285288 -0.540897
v -0.816481 2.089661 0.344576
v -0.022354 2.398200 -0.538489
v -0.838898 2.192591 0.333997
v -0.069381 2.506524 -0.526499
v -0.853477 2.295102 0.315769
v -0.124197 2.609949 -0.505291
v -0.860685 2.397507 0.290257
v -0.186136 2.708210 -0.475437
v -0.861189 2.500068 0.258033
v -0.253402 2.798162 -0.437706
v -0.856783 2.605935 0.219866
vn 0.6861 0.2190 0.6938
vn 0.6860 0.2192 0.6938
vn 0.6860 0.2193 0.6938
vn 0.6859 0.2195 0.6938
vn 0.6859 0.2197 0.6937
vn 0.6859 0.2198 0.6937
vn 0.6858 0.2200 0.6937
vn 0.6858 0.2202 0.6937
vn 0.6857 0.2204 0.6937
vn 0.6857 0.2206 0.6937
vn 0.6856 0.2209 0.6937
vn 0.6855 0.2211 0.6937
vn 0.6855 0.2213 0.6937
vn 0.6854 0.2216 0.6937
vt 0.000000 0.000000
vt 0.000000 0.071429
vt 1.000000 0.071429
vt 1.000000 0.000000
vt 0.000000 0.142857
vt 1.000000 0.142857
vt 0.000000 0.214286
vt 1.000000 0.214286
vt 0.000000 0.285714
vt 1.000000 0.285714
vt 0.000000 0.357143
vt 1.000000 0.357143
vt 0.000000 0.428571
vt 1.000000 0.428571
vt 0.000000 0.500000
vt 1.000000 0.500000
vt 0.000000 0.571429
vt 1.000000 0.571429
vt 0.000000 0.642857
vt 1.000000 0.642857
vt 0.000000 0.714286
vt 1.000000 0.714286
vt 0.000000 0.785714
vt 1.000000 0.785714
vt 0.000000 0.857143
vt 1.000000 0.857143
vt 0.000000 0.928571
vt 1.000000 0.928571
vt 0.000000 1.000000
vt 1.000000 1.000000
s 0
usemtl BranchMat
f 468/477/263 470/478/263 471/479/263 469/480/263
f 470/478/264 472/481/264 473/482/264 471/479/264
f 472/481/265 474/483/265 475/484/265 473/482/265
f 474/483/266 476/485/266 477/486/266 475/484/266
f 476/485/267 478/487/267 479/488/267 477/486/267
f 478/487/268 480/489/268 481/490/268 479/488/268
f 480/489/269 482/491/269 483/492/269 481/490/269
f 482/491/270 484/493/270 485/494/270 483/492/270
f 484/493/271 486/495/271 487/496/271 485/494/271
f 486/495/272 488/497/272 489/498/272 487/496/272
f 488/497/273 490/499/273 491/500/273 489/498/273
f 490/499/274 492/501/274 493/502/274 491/500/274
f 492/501/275 494/503/275 495/504/275 493/502/275
f 494/503/276 496/505/276 497/506/276 495/504/276
