{
	"asset":{
		"generator":"Khronos glTF Blender I/O v5.1.19",
		"version":"2.0"
	},
	"extensionsUsed":[
		"KHR_materials_specular"
	],
	"scene":0,
	"scenes":[
		{
			"name":"Scene",
			"nodes":[
				0,
				1,
				2,
				3,
				4,
				5,
				6,
				7,
				8,
				9,
				10,
				11,
				12,
				13,
				14,
				15,
				16,
				17,
				18,
				19,
				20,
				21,
				22,
				23,
				24,
				25,
				26,
				27,
				28,
				29,
				30,
				31,
				32,
				33,
				34,
				35,
				36,
				37,
				38,
				39,
				40,
				41,
				42,
				43,
				44,
				45,
				46,
				47,
				48,
				49,
				50,
				51
			]
		}
	],
	"nodes":[
		{
			"mesh":0,
			"name":"Pot"
		},
		{
			"mesh":1,
			"name":"Soil"
		},
		{
			"mesh":2,
			"name":"Leaf_000"
		},
		{
			"mesh":3,
			"name":"Leaf_001"
		},
		{
			"mesh":4,
			"name":"Leaf_002"
		},
		{
			"mesh":5,
			"name":"Leaf_003"
		},
		{
			"mesh":6,
			"name":"Leaf_004"
		},
		{
			"mesh":7,
			"name":"Leaf_005"
		},
		{
			"mesh":8,
			"name":"Leaf_006"
		},
		{
			"mesh":9,
			"name":"Leaf_007"
		},
		{
			"mesh":10,
			"name":"Leaf_008"
		},
		{
			"mesh":11,
			"name":"Leaf_009"
		},
		{
			"mesh":12,
			"name":"Leaf_010"
		},
		{
			"mesh":13,
			"name":"Leaf_011"
		},
		{
			"mesh":14,
			"name":"Leaf_012"
		},
		{
			"mesh":15,
			"name":"Leaf_013"
		},
		{
			"mesh":16,
			"name":"Leaf_014"
		},
		{
			"mesh":17,
			"name":"Leaf_015"
		},
		{
			"mesh":18,
			"name":"Leaf_016"
		},
		{
			"mesh":19,
			"name":"Leaf_017"
		},
		{
			"mesh":20,
			"name":"Leaf_018"
		},
		{
			"mesh":21,
			"name":"Leaf_019"
		},
		{
			"mesh":22,
			"name":"Leaf_020"
		},
		{
			"mesh":23,
			"name":"Leaf_021"
		},
		{
			"mesh":24,
			"name":"Leaf_022"
		},
		{
			"mesh":25,
			"name":"Leaf_023"
		},
		{
			"mesh":26,
			"name":"Leaf_024"
		},
		{
			"mesh":27,
			"name":"Leaf_025"
		},
		{
			"mesh":28,
			"name":"Leaf_026"
		},
		{
			"mesh":29,
			"name":"Leaf_027"
		},
		{
			"mesh":30,
			"name":"Leaf_028"
		},
		{
			"mesh":31,
			"name":"Leaf_029"
		},
		{
			"mesh":32,
			"name":"Leaf_030"
		},
		{
			"mesh":33,
			"name":"Leaf_031"
		},
		{
			"mesh":34,
			"name":"Leaf_032"
		},
		{
			"mesh":35,
			"name":"Leaf_033"
		},
		{
			"mesh":36,
			"name":"Leaf_034"
		},
		{
			"mesh":37,
			"name":"Leaf_035"
		},
		{
			"mesh":38,
			"name":"Leaf_036"
		},
		{
			"mesh":39,
			"name":"Leaf_037"
		},
		{
			"mesh":40,
			"name":"Leaf_038"
		},
		{
			"mesh":41,
			"name":"Leaf_039"
		},
		{
			"mesh":42,
			"name":"Leaf_040"
		},
		{
			"mesh":43,
			"name":"Leaf_041"
		},
		{
			"mesh":44,
			"name":"Leaf_042"
		},
		{
			"mesh":45,
			"name":"Leaf_043"
		},
		{
			"mesh":46,
			"name":"Leaf_044"
		},
		{
			"mesh":47,
			"name":"Leaf_045"
		},
		{
			"mesh":48,
			"name":"Leaf_046"
		},
		{
			"mesh":49,
			"name":"Leaf_047"
		},
		{
			"mesh":50,
			"name":"Leaf_048"
		},
		{
			"mesh":51,
			"name":"Leaf_049"
		}
	],
	"materials":[
		{
			"doubleSided":true,
			"extensions":{
				"KHR_materials_specular":{
					"specularFactor":0.4000000059604645
				}
			},
			"name":"PotMat",
			"pbrMetallicRoughness":{
				"baseColorTexture":{
					"index":0
				},
				"metallicFactor":0,
				"roughnessFactor":0.8500000238418579
			}
		},
		{
			"doubleSided":true,
			"extensions":{
				"KHR_materials_specular":{
					"specularFactor":0.4000000059604645
				}
			},
			"name":"SoilMat",
			"pbrMetallicRoughness":{
				"baseColorTexture":{
					"index":1
				},
				"metallicFactor":0,
				"roughnessFactor":0.8500000238418579
			}
		},
		{
			"alphaMode":"BLEND",
			"doubleSided":true,
			"extensions":{
				"KHR_materials_specular":{
					"specularFactor":0.4000000059604645
				}
			},
			"name":"LeafMat",
			"pbrMetallicRoughness":{
				"baseColorTexture":{
					"index":2
				},
				"metallicFactor":0,
				"roughnessFactor":0.8500000238418579
			}
		}
	],
	"meshes":[
		{
			"name":"Pot.001",
			"primitives":[
				{
					"attributes":{
						"POSITION":0,
						"NORMAL":1,
						"TEXCOORD_0":2
					},
					"indices":3,
					"material":0
				}
			]
		},
		{
			"name":"Soil.001",
			"primitives":[
				{
					"attributes":{
						"POSITION":4,
						"NORMAL":5,
						"TEXCOORD_0":6
					},
					"indices":7,
					"material":1
				}
			]
		},
		{
			"name":"Leaf_000",
			"primitives":[
				{
					"attributes":{
						"POSITION":8,
						"NORMAL":9,
						"TEXCOORD_0":10
					},
					"indices":11,
					"material":2
				}
			]
		},
		{
			"name":"Leaf_001",
			"primitives":[
				{
					"attributes":{
						"POSITION":12,
						"NORMAL":13,
						"TEXCOORD_0":14
					},
					"indices":15,
					"material":2
				}
			]
		},
		{
			"name":"Leaf_002",
			"primitives":[
				{
					"attributes":{
						"POSITION":16,
						"NORMAL":17,
						"TEXCOORD_0":18
					},
					"indices":19,
					"material":2
				}
			]
		},
		{
			"name":"Leaf_003",
			"primitives":[
				{
					"attributes":{
						"POSITION":20,
						"NORMAL":21,
						"TEXCOORD_0":22
					},
					"indices":23,
					"material":2
				}
			]
		},
		{
			"name":"Leaf_004",
			"primitives":[
				{
					"attributes":{
						"POSITION":24,
						"NORMAL":25,
						"TEXCOORD_0":26
					},
					"indices":15,
					"material":2
				}
			]
		},
		{
			"name":"Leaf_005",
			"primitives":[
				{
					"attributes":{
						"POSITION":27,
						"NORMAL":28,
						"TEXCOORD_0":29
					},
					"indices":11,
					"material":2
				}
			]
		},
		{
			"name":"Leaf_006",
			"primitives":[
				{
					"attributes":{
						"POSITION":30,
						"NORMAL":31,
						"TEXCOORD_0":32
					},
					"indices":33,
					"material":2
				}
			]
		},
		{
			"name":"Leaf_007",
			"primitives":[
				{
					"attributes":{
						"POSITION":34,
						"NORMAL":35,
						"TEXCOORD_0":36
					},
					"indices":37,
					"material":2
				}
			]
		},
		{
			"name":"Leaf_008",
			"primitives":[
				{
					"attributes":{
						"POSITION":38,
						"NORMAL":39,
						"TEXCOORD_0":40
					},
					"indices":11,
					"material":2
				}
			]
		},
		{
			"name":"Leaf_009",
			"primitives":[
				{
					"attributes":{
						"POSITION":41,
						"NORMAL":42,
						"TEXCOORD_0":43
					},
					"indices":44,
					"material":2
				}
			]
		},
		{
			"name":"Leaf_010",
			"primitives":[
				{
					"attributes":{
						"POSITION":45,
						"NORMAL":46,
						"TEXCOORD_0":47
					},
					"indices":48,
					"material":2
				}
			]
		},
		{
			"name":"Leaf_011",
			"primitives":[
				{
					"attributes":{
						"POSITION":49,
						"NORMAL":50,
						"TEXCOORD_0":51
					},
					"indices":19,
					"material":2
				}
			]
		},
		{
			"name":"Leaf_012",
			"primitives":[
				{
					"attributes":{
						"POSITION":52,
						"NORMAL":53,
						"TEXCOORD_0":54
					},
					"indices":55,
					"material":2
				}
			]
		},
		{
			"name":"Leaf_013",
			"primitives":[
				{
					"attributes":{
						"POSITION":56,
						"NORMAL":57,
						"TEXCOORD_0":58
					},
					"indices":33,
					"material":2
				}
			]
		},
		{
			"name":"Leaf_014",
			"primitives":[
				{
					"attributes":{
						"POSITION":59,
						"NORMAL":60,
						"TEXCOORD_0":61
					},
					"indices":62,
					"material":2
				}
			]
		},
		{
			"name":"Leaf_015",
			"primitives":[
				{
					"attributes":{
						"POSITION":63,
						"NORMAL":64,
						"TEXCOORD_0":65
					},
					"indices":66,
					"material":2
				}
			]
		},
		{
			"name":"Leaf_016",
			"primitives":[
				{
					"attributes":{
						"POSITION":67,
						"NORMAL":68,
						"TEXCOORD_0":69
					},
					"indices":70,
					"material":2
				}
			]
		},
		{
			"name":"Leaf_017",
			"primitives":[
				{
					"attributes":{
						"POSITION":71,
						"NORMAL":72,
						"TEXCOORD_0":73
					},
					"indices":74,
					"material":2
				}
			]
		},
		{
			"name":"Leaf_018",
			"primitives":[
				{
					"attributes":{
						"POSITION":75,
						"NORMAL":76,
						"TEXCOORD_0":77
					},
					"indices":78,
					"material":2
				}
			]
		},
		{
			"name":"Leaf_019",
			"primitives":[
				{
					"attributes":{
						"POSITION":79,
						"NORMAL":80,
						"TEXCOORD_0":81
					},
					"indices":82,
					"material":2
				}
			]
		},
		{
			"name":"Leaf_020",
			"primitives":[
				{
					"attributes":{
						"POSITION":83,
						"NORMAL":84,
						"TEXCOORD_0":85
					},
					"indices":86,
					"material":2
				}
			]
		},
		{
			"name":"Leaf_021",
			"primitives":[
				{
					"attributes":{
						"POSITION":87,
						"NORMAL":88,
						"TEXCOORD_0":89
					},
					"indices":11,
					"material":2
				}
			]
		},
		{
			"name":"Leaf_022",
			"primitives":[
				{
					"attributes":{
						"POSITION":90,
						"NORMAL":91,
						"TEXCOORD_0":92
					},
					"indices":37,
					"material":2
				}
			]
		},
		{
			"name":"Leaf_023",
			"primitives":[
				{
					"attributes":{
						"POSITION":93,
						"NORMAL":94,
						"TEXCOORD_0":95
					},
					"indices":74,
					"material":2
				}
			]
		},
		{
			"name":"Leaf_024",
			"primitives":[
				{
					"attributes":{
						"POSITION":96,
						"NORMAL":97,
						"TEXCOORD_0":98
					},
					"indices":37,
					"material":2
				}
			]
		},
		{
			"name":"Leaf_025",
			"primitives":[
				{
					"attributes":{
						"POSITION":99,
						"NORMAL":100,
						"TEXCOORD_0":101
					},
					"indices":102,
					"material":2
				}
			]
		},
		{
			"name":"Leaf_026",
			"primitives":[
				{
					"attributes":{
						"POSITION":103,
						"NORMAL":104,
						"TEXCOORD_0":105
					},
					"indices":62,
					"material":2
				}
			]
		},
		{
			"name":"Leaf_027",
			"primitives":[
				{
					"attributes":{
						"POSITION":106,
						"NORMAL":107,
						"TEXCOORD_0":108
					},
					"indices":37,
					"material":2
				}
			]
		},
		{
			"name":"Leaf_028",
			"primitives":[
				{
					"attributes":{
						"POSITION":109,
						"NORMAL":110,
						"TEXCOORD_0":111
					},
					"indices":74,
					"material":2
				}
			]
		},
		{
			"name":"Leaf_029",
			"primitives":[
				{
					"attributes":{
						"POSITION":112,
						"NORMAL":113,
						"TEXCOORD_0":114
					},
					"indices":74,
					"material":2
				}
			]
		},
		{
			"name":"Leaf_030",
			"primitives":[
				{
					"attributes":{
						"POSITION":115,
						"NORMAL":116,
						"TEXCOORD_0":117
					},
					"indices":74,
					"material":2
				}
			]
		},
		{
			"name":"Leaf_031",
			"primitives":[
				{
					"attributes":{
						"POSITION":118,
						"NORMAL":119,
						"TEXCOORD_0":120
					},
					"indices":74,
					"material":2
				}
			]
		},
		{
			"name":"Leaf_032",
			"primitives":[
				{
					"attributes":{
						"POSITION":121,
						"NORMAL":122,
						"TEXCOORD_0":123
					},
					"indices":124,
					"material":2
				}
			]
		},
		{
			"name":"Leaf_033",
			"primitives":[
				{
					"attributes":{
						"POSITION":125,
						"NORMAL":126,
						"TEXCOORD_0":127
					},
					"indices":128,
					"material":2
				}
			]
		},
		{
			"name":"Leaf_034",
			"primitives":[
				{
					"attributes":{
						"POSITION":129,
						"NORMAL":130,
						"TEXCOORD_0":131
					},
					"indices":11,
					"material":2
				}
			]
		},
		{
			"name":"Leaf_035",
			"primitives":[
				{
					"attributes":{
						"POSITION":132,
						"NORMAL":133,
						"TEXCOORD_0":134
					},
					"indices":11,
					"material":2
				}
			]
		},
		{
			"name":"Leaf_036",
			"primitives":[
				{
					"attributes":{
						"POSITION":135,
						"NORMAL":136,
						"TEXCOORD_0":137
					},
					"indices":138,
					"material":2
				}
			]
		},
		{
			"name":"Leaf_037",
			"primitives":[
				{
					"attributes":{
						"POSITION":139,
						"NORMAL":140,
						"TEXCOORD_0":141
					},
					"indices":19,
					"material":2
				}
			]
		},
		{
			"name":"Leaf_038",
			"primitives":[
				{
					"attributes":{
						"POSITION":142,
						"NORMAL":143,
						"TEXCOORD_0":144
					},
					"indices":37,
					"material":2
				}
			]
		},
		{
			"name":"Leaf_039",
			"primitives":[
				{
					"attributes":{
						"POSITION":145,
						"NORMAL":146,
						"TEXCOORD_0":147
					},
					"indices":11,
					"material":2
				}
			]
		},
		{
			"name":"Leaf_040",
			"primitives":[
				{
					"attributes":{
						"POSITION":148,
						"NORMAL":149,
						"TEXCOORD_0":150
					},
					"indices":19,
					"material":2
				}
			]
		},
		{
			"name":"Leaf_041",
			"primitives":[
				{
					"attributes":{
						"POSITION":151,
						"NORMAL":152,
						"TEXCOORD_0":153
					},
					"indices":19,
					"material":2
				}
			]
		},
		{
			"name":"Leaf_042",
			"primitives":[
				{
					"attributes":{
						"POSITION":154,
						"NORMAL":155,
						"TEXCOORD_0":156
					},
					"indices":37,
					"material":2
				}
			]
		},
		{
			"name":"Leaf_043",
			"primitives":[
				{
					"attributes":{
						"POSITION":157,
						"NORMAL":158,
						"TEXCOORD_0":159
					},
					"indices":11,
					"material":2
				}
			]
		},
		{
			"name":"Leaf_044",
			"primitives":[
				{
					"attributes":{
						"POSITION":160,
						"NORMAL":161,
						"TEXCOORD_0":162
					},
					"indices":37,
					"material":2
				}
			]
		},
		{
			"name":"Leaf_045",
			"primitives":[
				{
					"attributes":{
						"POSITION":163,
						"NORMAL":164,
						"TEXCOORD_0":165
					},
					"indices":74,
					"material":2
				}
			]
		},
		{
			"name":"Leaf_046",
			"primitives":[
				{
					"attributes":{
						"POSITION":166,
						"NORMAL":167,
						"TEXCOORD_0":168
					},
					"indices":102,
					"material":2
				}
			]
		},
		{
			"name":"Leaf_047",
			"primitives":[
				{
					"attributes":{
						"POSITION":169,
						"NORMAL":170,
						"TEXCOORD_0":171
					},
					"indices":172,
					"material":2
				}
			]
		},
		{
			"name":"Leaf_048",
			"primitives":[
				{
					"attributes":{
						"POSITION":173,
						"NORMAL":174,
						"TEXCOORD_0":175
					},
					"indices":176,
					"material":2
				}
			]
		},
		{
			"name":"Leaf_049",
			"primitives":[
				{
					"attributes":{
						"POSITION":177,
						"NORMAL":178,
						"TEXCOORD_0":179
					},
					"indices":37,
					"material":2
				}
			]
		}
	],
	"textures":[
		{
			"sampler":0,
			"source":0
		},
		{
			"sampler":0,
			"source":1
		},
		{
			"sampler":1,
			"source":2
		}
	],
	"images":[
		{
			"mimeType":"image/png",
			"name":"PotTex",
			"uri":"spider/PotTex.png"
		},
		{
			"mimeType":"image/png",
			"name":"SoilTex",
			"uri":"spider/SoilTex.png"
		},
		{
			"mimeType":"image/png",
			"name":"LeafTex",
			"uri":"spider/LeafTex.png"
		}
	],
	"accessors":[
		{
			"bufferView":0,
			"componentType":5126,
			"count":388,
			"max":[
				0.7400000095367432,
				1.100000023841858,
				0.7400000095367432
			],
			"min":[
				-0.7400000095367432,
				0,
				-0.7400000095367432
			],
			"type":"VEC3"
		},
		{
			"bufferView":1,
			"componentType":5126,
			"count":388,
			"type":"VEC3"
		},
		{
			"bufferView":2,
			"componentType":5126,
			"count":388,
			"type":"VEC2"
		},
		{
			"bufferView":3,
			"componentType":5123,
			"count":564,
			"type":"SCALAR"
		},
		{
			"bufferView":4,
			"componentType":5126,
			"count":56,
			"max":[
				0.5728050470352173,
				1.0600000619888306,
				0.5728050470352173
			],
			"min":[
				-0.5728050470352173,
				1.040000081062317,
				-0.5728050470352173
			],
			"type":"VEC3"
		},
		{
			"bufferView":5,
			"componentType":5126,
			"count":56,
			"type":"VEC3"
		},
		{
			"bufferView":6,
			"componentType":5126,
			"count":56,
			"type":"VEC2"
		},
		{
			"bufferView":7,
			"componentType":5123,
			"count":72,
			"type":"SCALAR"
		},
		{
			"bufferView":8,
			"componentType":5126,
			"count":80,
			"max":[
				1.4142001867294312,
				3.5943171977996826,
				0.6234053373336792
			],
			"min":[
				0.05025627836585045,
				1.0793389081954956,
				0.014618304558098316
			],
			"type":"VEC3"
		},
		{
			"bufferView":9,
			"componentType":5126,
			"count":80,
			"type":"VEC3"
		},
		{
			"bufferView":10,
			"componentType":5126,
			"count":80,
			"type":"VEC2"
		},
		{
			"bufferView":11,
			"componentType":5123,
			"count":120,
			"type":"SCALAR"
		},
		{
			"bufferView":12,
			"componentType":5126,
			"count":80,
			"max":[
				0.11814839392900467,
				2.81884503364563,
				1.5119314193725586
			],
			"min":[
				-0.121356301009655,
				1.0710644721984863,
				0.13459157943725586
			],
			"type":"VEC3"
		},
		{
			"bufferView":13,
			"componentType":5126,
			"count":80,
			"type":"VEC3"
		},
		{
			"bufferView":14,
			"componentType":5126,
			"count":80,
			"type":"VEC2"
		},
		{
			"bufferView":15,
			"componentType":5123,
			"count":120,
			"type":"SCALAR"
		},
		{
			"bufferView":16,
			"componentType":5126,
			"count":80,
			"max":[
				-0.0638856291770935,
				2.0231902599334717,
				1.2401617765426636
			],
			"min":[
				-2.6176438331604004,
				1.0662819147109985,
				0.04189149662852287
			],
			"type":"VEC3"
		},
		{
			"bufferView":17,
			"componentType":5126,
			"count":80,
			"type":"VEC3"
		},
		{
			"bufferView":18,
			"componentType":5126,
			"count":80,
			"type":"VEC2"
		},
		{
			"bufferView":19,
			"componentType":5123,
			"count":120,
			"type":"SCALAR"
		},
		{
			"bufferView":20,
			"componentType":5126,
			"count":80,
			"max":[
				2.679975986480713,
				1.6262332201004028,
				0.354084312915802
			],
			"min":[
				0.045912787318229675,
				0.8548318147659302,
				-0.028238318860530853
			],
			"type":"VEC3"
		},
		{
			"bufferView":21,
			"componentType":5126,
			"count":80,
			"type":"VEC3"
		},
		{
			"bufferView":22,
			"componentType":5126,
			"count":80,
			"type":"VEC2"
		},
		{
			"bufferView":23,
			"componentType":5123,
			"count":120,
			"type":"SCALAR"
		},
		{
			"bufferView":24,
			"componentType":5126,
			"count":80,
			"max":[
				-0.10943087935447693,
				1.3558173179626465,
				-0.023301366716623306
			],
			"min":[
				-1.7292096614837646,
				0.634920060634613,
				-0.6741793155670166
			],
			"type":"VEC3"
		},
		{
			"bufferView":25,
			"componentType":5126,
			"count":80,
			"type":"VEC3"
		},
		{
			"bufferView":26,
			"componentType":5126,
			"count":80,
			"type":"VEC2"
		},
		{
			"bufferView":27,
			"componentType":5126,
			"count":80,
			"max":[
				0.007728889584541321,
				2.6464028358459473,
				-0.0648302435874939
			],
			"min":[
				-0.42227688431739807,
				1.0695416927337646,
				-0.9396193623542786
			],
			"type":"VEC3"
		},
		{
			"bufferView":28,
			"componentType":5126,
			"count":80,
			"type":"VEC3"
		},
		{
			"bufferView":29,
			"componentType":5126,
			"count":80,
			"type":"VEC2"
		},
		{
			"bufferView":30,
			"componentType":5126,
			"count":80,
			"max":[
				-0.06899244338274002,
				1.444342017173767,
				0.13119204342365265
			],
			"min":[
				-2.0613510608673096,
				0.9565251469612122,
				-0.05396660044789314
			],
			"type":"VEC3"
		},
		{
			"bufferView":31,
			"componentType":5126,
			"count":80,
			"type":"VEC3"
		},
		{
			"bufferView":32,
			"componentType":5126,
			"count":80,
			"type":"VEC2"
		},
		{
			"bufferView":33,
			"componentType":5123,
			"count":120,
			"type":"SCALAR"
		},
		{
			"bufferView":34,
			"componentType":5126,
			"count":80,
			"max":[
				-0.06782077252864838,
				1.920152187347412,
				-0.0748308002948761
			],
			"min":[
				-1.746023416519165,
				1.1033968925476074,
				-1.4724777936935425
			],
			"type":"VEC3"
		},
		{
			"bufferView":35,
			"componentType":5126,
			"count":80,
			"type":"VEC3"
		},
		{
			"bufferView":36,
			"componentType":5126,
			"count":80,
			"type":"VEC2"
		},
		{
			"bufferView":37,
			"componentType":5123,
			"count":120,
			"type":"SCALAR"
		},
		{
			"bufferView":38,
			"componentType":5126,
			"count":80,
			"max":[
				0.30471158027648926,
				1.6210051774978638,
				1.995821237564087
			],
			"min":[
				-0.01448274776339531,
				1.0600790977478027,
				0.05295770987868309
			],
			"type":"VEC3"
		},
		{
			"bufferView":39,
			"componentType":5126,
			"count":80,
			"type":"VEC3"
		},
		{
			"bufferView":40,
			"componentType":5126,
			"count":80,
			"type":"VEC2"
		},
		{
			"bufferView":41,
			"componentType":5126,
			"count":80,
			"max":[
				0.023447204381227493,
				1.6334939002990723,
				-0.10192058980464935
			],
			"min":[
				-0.0500405989587307,
				1.0746959447860718,
				-1.4928101301193237
			],
			"type":"VEC3"
		},
		{
			"bufferView":42,
			"componentType":5126,
			"count":80,
			"type":"VEC3"
		},
		{
			"bufferView":43,
			"componentType":5126,
			"count":80,
			"type":"VEC2"
		},
		{
			"bufferView":44,
			"componentType":5123,
			"count":120,
			"type":"SCALAR"
		},
		{
			"bufferView":45,
			"componentType":5126,
			"count":80,
			"max":[
				2.793771982192993,
				1.768149495124817,
				0.19883131980895996
			],
			"min":[
				0.06409255415201187,
				1.0938475131988525,
				-0.06452490389347076
			],
			"type":"VEC3"
		},
		{
			"bufferView":46,
			"componentType":5126,
			"count":80,
			"type":"VEC3"
		},
		{
			"bufferView":47,
			"componentType":5126,
			"count":80,
			"type":"VEC2"
		},
		{
			"bufferView":48,
			"componentType":5123,
			"count":120,
			"type":"SCALAR"
		},
		{
			"bufferView":49,
			"componentType":5126,
			"count":80,
			"max":[
				-0.10930907726287842,
				1.365523338317871,
				0.4374693036079407
			],
			"min":[
				-2.7447071075439453,
				0.39851289987564087,
				0.028506163507699966
			],
			"type":"VEC3"
		},
		{
			"bufferView":50,
			"componentType":5126,
			"count":80,
			"type":"VEC3"
		},
		{
			"bufferView":51,
			"componentType":5126,
			"count":80,
			"type":"VEC2"
		},
		{
			"bufferView":52,
			"componentType":5126,
			"count":80,
			"max":[
				-0.10946500301361084,
				3.1415863037109375,
				0.037107907235622406
			],
			"min":[
				-0.8372657895088196,
				1.0902382135391235,
				-0.17894648015499115
			],
			"type":"VEC3"
		},
		{
			"bufferView":53,
			"componentType":5126,
			"count":80,
			"type":"VEC3"
		},
		{
			"bufferView":54,
			"componentType":5126,
			"count":80,
			"type":"VEC2"
		},
		{
			"bufferView":55,
			"componentType":5123,
			"count":120,
			"type":"SCALAR"
		},
		{
			"bufferView":56,
			"componentType":5126,
			"count":80,
			"max":[
				-0.08996836841106415,
				1.373762845993042,
				0.20450712740421295
			],
			"min":[
				-2.471536874771118,
				0.7898865938186646,
				-0.013500303961336613
			],
			"type":"VEC3"
		},
		{
			"bufferView":57,
			"componentType":5126,
			"count":80,
			"type":"VEC3"
		},
		{
			"bufferView":58,
			"componentType":5126,
			"count":80,
			"type":"VEC2"
		},
		{
			"bufferView":59,
			"componentType":5126,
			"count":80,
			"max":[
				-0.009021878242492676,
				1.5991990566253662,
				1.5415593385696411
			],
			"min":[
				-1.3356372117996216,
				1.0891348123550415,
				0.018763907253742218
			],
			"type":"VEC3"
		},
		{
			"bufferView":60,
			"componentType":5126,
			"count":80,
			"type":"VEC3"
		},
		{
			"bufferView":61,
			"componentType":5126,
			"count":80,
			"type":"VEC2"
		},
		{
			"bufferView":62,
			"componentType":5123,
			"count":120,
			"type":"SCALAR"
		},
		{
			"bufferView":63,
			"componentType":5126,
			"count":80,
			"max":[
				-0.05651440471410751,
				1.4393677711486816,
				0.012344077229499817
			],
			"min":[
				-2.6643123626708984,
				0.6669290661811829,
				-0.6504257917404175
			],
			"type":"VEC3"
		},
		{
			"bufferView":64,
			"componentType":5126,
			"count":80,
			"type":"VEC3"
		},
		{
			"bufferView":65,
			"componentType":5126,
			"count":80,
			"type":"VEC2"
		},
		{
			"bufferView":66,
			"componentType":5123,
			"count":120,
			"type":"SCALAR"
		},
		{
			"bufferView":67,
			"componentType":5126,
			"count":80,
			"max":[
				-0.0658339411020279,
				1.1792856454849243,
				2.115250825881958
			],
			"min":[
				-1.5643835067749023,
				-0.05228358134627342,
				0.06957349926233292
			],
			"type":"VEC3"
		},
		{
			"bufferView":68,
			"componentType":5126,
			"count":80,
			"type":"VEC3"
		},
		{
			"bufferView":69,
			"componentType":5126,
			"count":80,
			"type":"VEC2"
		},
		{
			"bufferView":70,
			"componentType":5123,
			"count":120,
			"type":"SCALAR"
		},
		{
			"bufferView":71,
			"componentType":5126,
			"count":80,
			"max":[
				0.012980908155441284,
				2.5743918418884277,
				1.1358370780944824
			],
			"min":[
				-0.3265795409679413,
				1.114777684211731,
				0.11439873278141022
			],
			"type":"VEC3"
		},
		{
			"bufferView":72,
			"componentType":5126,
			"count":80,
			"type":"VEC3"
		},
		{
			"bufferView":73,
			"componentType":5126,
			"count":80,
			"type":"VEC2"
		},
		{
			"bufferView":74,
			"componentType":5123,
			"count":120,
			"type":"SCALAR"
		},
		{
			"bufferView":75,
			"componentType":5126,
			"count":80,
			"max":[
				1.9045021533966064,
				1.8197218179702759,
				1.2666959762573242
			],
			"min":[
				0.04774993658065796,
				1.0923877954483032,
				-0.002487555146217346
			],
			"type":"VEC3"
		},
		{
			"bufferView":76,
			"componentType":5126,
			"count":80,
			"type":"VEC3"
		},
		{
			"bufferView":77,
			"componentType":5126,
			"count":80,
			"type":"VEC2"
		},
		{
			"bufferView":78,
			"componentType":5123,
			"count":120,
			"type":"SCALAR"
		},
		{
			"bufferView":79,
			"componentType":5126,
			"count":80,
			"max":[
				-0.025598861277103424,
				1.4644938707351685,
				-0.0034343525767326355
			],
			"min":[
				-1.7764530181884766,
				0.9127668142318726,
				-1.483864665031433
			],
			"type":"VEC3"
		},
		{
			"bufferView":80,
			"componentType":5126,
			"count":80,
			"type":"VEC3"
		},
		{
			"bufferView":81,
			"componentType":5126,
			"count":80,
			"type":"VEC2"
		},
		{
			"bufferView":82,
			"componentType":5123,
			"count":120,
			"type":"SCALAR"
		},
		{
			"bufferView":83,
			"componentType":5126,
			"count":80,
			"max":[
				1.1478995084762573,
				1.427233338356018,
				-0.07166670262813568
			],
			"min":[
				0.0467105396091938,
				0.9264881014823914,
				-1.9449249505996704
			],
			"type":"VEC3"
		},
		{
			"bufferView":84,
			"componentType":5126,
			"count":80,
			"type":"VEC3"
		},
		{
			"bufferView":85,
			"componentType":5126,
			"count":80,
			"type":"VEC2"
		},
		{
			"bufferView":86,
			"componentType":5123,
			"count":120,
			"type":"SCALAR"
		},
		{
			"bufferView":87,
			"componentType":5126,
			"count":80,
			"max":[
				0.011366412043571472,
				2.577889919281006,
				-0.04502096027135849
			],
			"min":[
				-0.6395031213760376,
				1.1185928583145142,
				-0.9997814893722534
			],
			"type":"VEC3"
		},
		{
			"bufferView":88,
			"componentType":5126,
			"count":80,
			"type":"VEC3"
		},
		{
			"bufferView":89,
			"componentType":5126,
			"count":80,
			"type":"VEC2"
		},
		{
			"bufferView":90,
			"componentType":5126,
			"count":80,
			"max":[
				-0.055570583790540695,
				1.5903633832931519,
				-0.02530769817531109
			],
			"min":[
				-2.000300168991089,
				1.0057873725891113,
				-1.6267579793930054
			],
			"type":"VEC3"
		},
		{
			"bufferView":91,
			"componentType":5126,
			"count":80,
			"type":"VEC3"
		},
		{
			"bufferView":92,
			"componentType":5126,
			"count":80,
			"type":"VEC2"
		},
		{
			"bufferView":93,
			"componentType":5126,
			"count":80,
			"max":[
				-0.0408368855714798,
				1.659704327583313,
				1.8976415395736694
			],
			"min":[
				-1.5092188119888306,
				1.0566623210906982,
				0.056199755519628525
			],
			"type":"VEC3"
		},
		{
			"bufferView":94,
			"componentType":5126,
			"count":80,
			"type":"VEC3"
		},
		{
			"bufferView":95,
			"componentType":5126,
			"count":80,
			"type":"VEC2"
		},
		{
			"bufferView":96,
			"componentType":5126,
			"count":80,
			"max":[
				-0.048394691199064255,
				1.3675172328948975,
				-0.04219427704811096
			],
			"min":[
				-1.7829805612564087,
				0.49207401275634766,
				-2.1660122871398926
			],
			"type":"VEC3"
		},
		{
			"bufferView":97,
			"componentType":5126,
			"count":80,
			"type":"VEC3"
		},
		{
			"bufferView":98,
			"componentType":5126,
			"count":80,
			"type":"VEC2"
		},
		{
			"bufferView":99,
			"componentType":5126,
			"count":80,
			"max":[
				2.1582531929016113,
				1.5335562229156494,
				-0.019999872893095016
			],
			"min":[
				0.10478775203227997,
				0.861449122428894,
				-0.5524105429649353
			],
			"type":"VEC3"
		},
		{
			"bufferView":100,
			"componentType":5126,
			"count":80,
			"type":"VEC3"
		},
		{
			"bufferView":101,
			"componentType":5126,
			"count":80,
			"type":"VEC2"
		},
		{
			"bufferView":102,
			"componentType":5123,
			"count":120,
			"type":"SCALAR"
		},
		{
			"bufferView":103,
			"componentType":5126,
			"count":80,
			"max":[
				2.8610024452209473,
				1.2429006099700928,
				0.0002306923270225525
			],
			"min":[
				0.030814899131655693,
				0.40940216183662415,
				-1.6152279376983643
			],
			"type":"VEC3"
		},
		{
			"bufferView":104,
			"componentType":5126,
			"count":80,
			"type":"VEC3"
		},
		{
			"bufferView":105,
			"componentType":5126,
			"count":80,
			"type":"VEC2"
		},
		{
			"bufferView":106,
			"componentType":5126,
			"count":80,
			"max":[
				1.0082063674926758,
				1.7259502410888672,
				2.543835163116455
			],
			"min":[
				0.02028452605009079,
				0.9438552856445312,
				0.03130858391523361
			],
			"type":"VEC3"
		},
		{
			"bufferView":107,
			"componentType":5126,
			"count":80,
			"type":"VEC3"
		},
		{
			"bufferView":108,
			"componentType":5126,
			"count":80,
			"type":"VEC2"
		},
		{
			"bufferView":109,
			"componentType":5126,
			"count":80,
			"max":[
				0.014154871925711632,
				3.1583242416381836,
				0.9343339204788208
			],
			"min":[
				-0.2442595660686493,
				1.0889464616775513,
				0.06873973459005356
			],
			"type":"VEC3"
		},
		{
			"bufferView":110,
			"componentType":5126,
			"count":80,
			"type":"VEC3"
		},
		{
			"bufferView":111,
			"componentType":5126,
			"count":80,
			"type":"VEC2"
		},
		{
			"bufferView":112,
			"componentType":5126,
			"count":80,
			"max":[
				0.24610474705696106,
				2.6708643436431885,
				-0.019299302250146866
			],
			"min":[
				0.008148224093019962,
				1.0781550407409668,
				-0.8070186376571655
			],
			"type":"VEC3"
		},
		{
			"bufferView":113,
			"componentType":5126,
			"count":80,
			"type":"VEC3"
		},
		{
			"bufferView":114,
			"componentType":5126,
			"count":80,
			"type":"VEC2"
		},
		{
			"bufferView":115,
			"componentType":5126,
			"count":80,
			"max":[
				1.0445669889450073,
				1.7991760969161987,
				-0.11208476126194
			],
			"min":[
				0.03154342994093895,
				0.9099566340446472,
				-2.534904718399048
			],
			"type":"VEC3"
		},
		{
			"bufferView":116,
			"componentType":5126,
			"count":80,
			"type":"VEC3"
		},
		{
			"bufferView":117,
			"componentType":5126,
			"count":80,
			"type":"VEC2"
		},
		{
			"bufferView":118,
			"componentType":5126,
			"count":80,
			"max":[
				1.6378686428070068,
				1.3542819023132324,
				-0.04876861721277237
			],
			"min":[
				0.03344925120472908,
				0.1645171195268631,
				-2.923278331756592
			],
			"type":"VEC3"
		},
		{
			"bufferView":119,
			"componentType":5126,
			"count":80,
			"type":"VEC3"
		},
		{
			"bufferView":120,
			"componentType":5126,
			"count":80,
			"type":"VEC2"
		},
		{
			"bufferView":121,
			"componentType":5126,
			"count":80,
			"max":[
				1.7527211904525757,
				1.270363211631775,
				2.380805253982544
			],
			"min":[
				0.026053719222545624,
				0.5658963322639465,
				0.05893673002719879
			],
			"type":"VEC3"
		},
		{
			"bufferView":122,
			"componentType":5126,
			"count":80,
			"type":"VEC3"
		},
		{
			"bufferView":123,
			"componentType":5126,
			"count":80,
			"type":"VEC2"
		},
		{
			"bufferView":124,
			"componentType":5123,
			"count":120,
			"type":"SCALAR"
		},
		{
			"bufferView":125,
			"componentType":5126,
			"count":80,
			"max":[
				1.5391545295715332,
				1.859100580215454,
				-0.0578269436955452
			],
			"min":[
				0.07431952655315399,
				1.1143163442611694,
				-1.1974824666976929
			],
			"type":"VEC3"
		},
		{
			"bufferView":126,
			"componentType":5126,
			"count":80,
			"type":"VEC3"
		},
		{
			"bufferView":127,
			"componentType":5126,
			"count":80,
			"type":"VEC2"
		},
		{
			"bufferView":128,
			"componentType":5123,
			"count":120,
			"type":"SCALAR"
		},
		{
			"bufferView":129,
			"componentType":5126,
			"count":80,
			"max":[
				0.002428334206342697,
				1.6553218364715576,
				-0.09943041950464249
			],
			"min":[
				-0.9770042896270752,
				1.021041989326477,
				-1.798041820526123
			],
			"type":"VEC3"
		},
		{
			"bufferView":130,
			"componentType":5126,
			"count":80,
			"type":"VEC3"
		},
		{
			"bufferView":131,
			"componentType":5126,
			"count":80,
			"type":"VEC2"
		},
		{
			"bufferView":132,
			"componentType":5126,
			"count":80,
			"max":[
				2.49336314201355,
				1.3585201501846313,
				1.5716758966445923
			],
			"min":[
				0.018104366958141327,
				0.6136949062347412,
				0.014642713591456413
			],
			"type":"VEC3"
		},
		{
			"bufferView":133,
			"componentType":5126,
			"count":80,
			"type":"VEC3"
		},
		{
			"bufferView":134,
			"componentType":5126,
			"count":80,
			"type":"VEC2"
		},
		{
			"bufferView":135,
			"componentType":5126,
			"count":80,
			"max":[
				1.6687684059143066,
				3.878160238265991,
				-0.0012921683955937624
			],
			"min":[
				0.0458572581410408,
				1.0869004726409912,
				-0.3136865794658661
			],
			"type":"VEC3"
		},
		{
			"bufferView":136,
			"componentType":5126,
			"count":80,
			"type":"VEC3"
		},
		{
			"bufferView":137,
			"componentType":5126,
			"count":80,
			"type":"VEC2"
		},
		{
			"bufferView":138,
			"componentType":5123,
			"count":120,
			"type":"SCALAR"
		},
		{
			"bufferView":139,
			"componentType":5126,
			"count":80,
			"max":[
				0.0006878841668367386,
				1.636285424232483,
				2.8177456855773926
			],
			"min":[
				-1.020596981048584,
				0.8389518857002258,
				0.056251298636198044
			],
			"type":"VEC3"
		},
		{
			"bufferView":140,
			"componentType":5126,
			"count":80,
			"type":"VEC3"
		},
		{
			"bufferView":141,
			"componentType":5126,
			"count":80,
			"type":"VEC2"
		},
		{
			"bufferView":142,
			"componentType":5126,
			"count":80,
			"max":[
				0.5000559091567993,
				2.8763139247894287,
				-0.033570658415555954
			],
			"min":[
				0.036747559905052185,
				1.0760233402252197,
				-0.663354754447937
			],
			"type":"VEC3"
		},
		{
			"bufferView":143,
			"componentType":5126,
			"count":80,
			"type":"VEC3"
		},
		{
			"bufferView":144,
			"componentType":5126,
			"count":80,
			"type":"VEC2"
		},
		{
			"bufferView":145,
			"componentType":5126,
			"count":80,
			"max":[
				1.742733120918274,
				1.3360214233398438,
				1.6489650011062622
			],
			"min":[
				0.03962954878807068,
				0.9333786368370056,
				0.06340793520212173
			],
			"type":"VEC3"
		},
		{
			"bufferView":146,
			"componentType":5126,
			"count":80,
			"type":"VEC3"
		},
		{
			"bufferView":147,
			"componentType":5126,
			"count":80,
			"type":"VEC2"
		},
		{
			"bufferView":148,
			"componentType":5126,
			"count":80,
			"max":[
				-0.10279494524002075,
				1.252753734588623,
				0.878883421421051
			],
			"min":[
				-2.454810857772827,
				0.2152363806962967,
				0.03170805424451828
			],
			"type":"VEC3"
		},
		{
			"bufferView":149,
			"componentType":5126,
			"count":80,
			"type":"VEC3"
		},
		{
			"bufferView":150,
			"componentType":5126,
			"count":80,
			"type":"VEC2"
		},
		{
			"bufferView":151,
			"componentType":5126,
			"count":80,
			"max":[
				2.3759562969207764,
				1.6574161052703857,
				-0.019756101071834564
			],
			"min":[
				0.021851878613233566,
				0.882011353969574,
				-1.3318489789962769
			],
			"type":"VEC3"
		},
		{
			"bufferView":152,
			"componentType":5126,
			"count":80,
			"type":"VEC3"
		},
		{
			"bufferView":153,
			"componentType":5126,
			"count":80,
			"type":"VEC2"
		},
		{
			"bufferView":154,
			"componentType":5126,
			"count":80,
			"max":[
				0.8428764939308167,
				3.2897748947143555,
				1.2830103635787964
			],
			"min":[
				0.010777316987514496,
				1.0672688484191895,
				0.05487517639994621
			],
			"type":"VEC3"
		},
		{
			"bufferView":155,
			"componentType":5126,
			"count":80,
			"type":"VEC3"
		},
		{
			"bufferView":156,
			"componentType":5126,
			"count":80,
			"type":"VEC2"
		},
		{
			"bufferView":157,
			"componentType":5126,
			"count":80,
			"max":[
				0.512508749961853,
				1.370429277420044,
				2.5383450984954834
			],
			"min":[
				0.008771785534918308,
				0.01097841002047062,
				0.11989689618349075
			],
			"type":"VEC3"
		},
		{
			"bufferView":158,
			"componentType":5126,
			"count":80,
			"type":"VEC3"
		},
		{
			"bufferView":159,
			"componentType":5126,
			"count":80,
			"type":"VEC2"
		},
		{
			"bufferView":160,
			"componentType":5126,
			"count":80,
			"max":[
				-0.05883870646357536,
				1.5451067686080933,
				-0.07325482368469238
			],
			"min":[
				-1.03463613986969,
				1.063063383102417,
				-1.688942790031433
			],
			"type":"VEC3"
		},
		{
			"bufferView":161,
			"componentType":5126,
			"count":80,
			"type":"VEC3"
		},
		{
			"bufferView":162,
			"componentType":5126,
			"count":80,
			"type":"VEC2"
		},
		{
			"bufferView":163,
			"componentType":5126,
			"count":80,
			"max":[
				0.8723488450050354,
				3.2151248455047607,
				0.3466551601886749
			],
			"min":[
				0.1332329660654068,
				1.1110039949417114,
				-0.02836446464061737
			],
			"type":"VEC3"
		},
		{
			"bufferView":164,
			"componentType":5126,
			"count":80,
			"type":"VEC3"
		},
		{
			"bufferView":165,
			"componentType":5126,
			"count":80,
			"type":"VEC2"
		},
		{
			"bufferView":166,
			"componentType":5126,
			"count":80,
			"max":[
				1.3554356098175049,
				1.16190767288208,
				-0.05608709156513214
			],
			"min":[
				0.02190541662275791,
				0.009824256412684917,
				-1.7763755321502686
			],
			"type":"VEC3"
		},
		{
			"bufferView":167,
			"componentType":5126,
			"count":80,
			"type":"VEC3"
		},
		{
			"bufferView":168,
			"componentType":5126,
			"count":80,
			"type":"VEC2"
		},
		{
			"bufferView":169,
			"componentType":5126,
			"count":80,
			"max":[
				-0.0922769084572792,
				1.6841223239898682,
				0.8869626522064209
			],
			"min":[
				-1.7189016342163086,
				1.0513018369674683,
				0.025764979422092438
			],
			"type":"VEC3"
		},
		{
			"bufferView":170,
			"componentType":5126,
			"count":80,
			"type":"VEC3"
		},
		{
			"bufferView":171,
			"componentType":5126,
			"count":80,
			"type":"VEC2"
		},
		{
			"bufferView":172,
			"componentType":5123,
			"count":120,
			"type":"SCALAR"
		},
		{
			"bufferView":173,
			"componentType":5126,
			"count":80,
			"max":[
				0.15508857369422913,
				1.4751274585723877,
				-0.13562063872814178
			],
			"min":[
				-0.07006879895925522,
				0.8428363800048828,
				-2.09403133392334
			],
			"type":"VEC3"
		},
		{
			"bufferView":174,
			"componentType":5126,
			"count":80,
			"type":"VEC3"
		},
		{
			"bufferView":175,
			"componentType":5126,
			"count":80,
			"type":"VEC2"
		},
		{
			"bufferView":176,
			"componentType":5123,
			"count":120,
			"type":"SCALAR"
		},
		{
			"bufferView":177,
			"componentType":5126,
			"count":80,
			"max":[
				1.958382248878479,
				1.6802160739898682,
				1.018982172012329
			],
			"min":[
				0.050165362656116486,
				1.049018383026123,
				0.028870902955532074
			],
			"type":"VEC3"
		},
		{
			"bufferView":178,
			"componentType":5126,
			"count":80,
			"type":"VEC3"
		},
		{
			"bufferView":179,
			"componentType":5126,
			"count":80,
			"type":"VEC2"
		}
	],
	"bufferViews":[
		{
			"buffer":0,
			"byteLength":4656,
			"byteOffset":0,
			"target":34962
		},
		{
			"buffer":0,
			"byteLength":4656,
			"byteOffset":4656,
			"target":34962
		},
		{
			"buffer":0,
			"byteLength":3104,
			"byteOffset":9312,
			"target":34962
		},
		{
			"buffer":0,
			"byteLength":1128,
			"byteOffset":12416,
			"target":34963
		},
		{
			"buffer":0,
			"byteLength":672,
			"byteOffset":13544,
			"target":34962
		},
		{
			"buffer":0,
			"byteLength":672,
			"byteOffset":14216,
			"target":34962
		},
		{
			"buffer":0,
			"byteLength":448,
			"byteOffset":14888,
			"target":34962
		},
		{
			"buffer":0,
			"byteLength":144,
			"byteOffset":15336,
			"target":34963
		},
		{
			"buffer":0,
			"byteLength":960,
			"byteOffset":15480,
			"target":34962
		},
		{
			"buffer":0,
			"byteLength":960,
			"byteOffset":16440,
			"target":34962
		},
		{
			"buffer":0,
			"byteLength":640,
			"byteOffset":17400,
			"target":34962
		},
		{
			"buffer":0,
			"byteLength":240,
			"byteOffset":18040,
			"target":34963
		},
		{
			"buffer":0,
			"byteLength":960,
			"byteOffset":18280,
			"target":34962
		},
		{
			"buffer":0,
			"byteLength":960,
			"byteOffset":19240,
			"target":34962
		},
		{
			"buffer":0,
			"byteLength":640,
			"byteOffset":20200,
			"target":34962
		},
		{
			"buffer":0,
			"byteLength":240,
			"byteOffset":20840,
			"target":34963
		},
		{
			"buffer":0,
			"byteLength":960,
			"byteOffset":21080,
			"target":34962
		},
		{
			"buffer":0,
			"byteLength":960,
			"byteOffset":22040,
			"target":34962
		},
		{
			"buffer":0,
			"byteLength":640,
			"byteOffset":23000,
			"target":34962
		},
		{
			"buffer":0,
			"byteLength":240,
			"byteOffset":23640,
			"target":34963
		},
		{
			"buffer":0,
			"byteLength":960,
			"byteOffset":23880,
			"target":34962
		},
		{
			"buffer":0,
			"byteLength":960,
			"byteOffset":24840,
			"target":34962
		},
		{
			"buffer":0,
			"byteLength":640,
			"byteOffset":25800,
			"target":34962
		},
		{
			"buffer":0,
			"byteLength":240,
			"byteOffset":26440,
			"target":34963
		},
		{
			"buffer":0,
			"byteLength":960,
			"byteOffset":26680,
			"target":34962
		},
		{
			"buffer":0,
			"byteLength":960,
			"byteOffset":27640,
			"target":34962
		},
		{
			"buffer":0,
			"byteLength":640,
			"byteOffset":28600,
			"target":34962
		},
		{
			"buffer":0,
			"byteLength":960,
			"byteOffset":29240,
			"target":34962
		},
		{
			"buffer":0,
			"byteLength":960,
			"byteOffset":30200,
			"target":34962
		},
		{
			"buffer":0,
			"byteLength":640,
			"byteOffset":31160,
			"target":34962
		},
		{
			"buffer":0,
			"byteLength":960,
			"byteOffset":31800,
			"target":34962
		},
		{
			"buffer":0,
			"byteLength":960,
			"byteOffset":32760,
			"target":34962
		},
		{
			"buffer":0,
			"byteLength":640,
			"byteOffset":33720,
			"target":34962
		},
		{
			"buffer":0,
			"byteLength":240,
			"byteOffset":34360,
			"target":34963
		},
		{
			"buffer":0,
			"byteLength":960,
			"byteOffset":34600,
			"target":34962
		},
		{
			"buffer":0,
			"byteLength":960,
			"byteOffset":35560,
			"target":34962
		},
		{
			"buffer":0,
			"byteLength":640,
			"byteOffset":36520,
			"target":34962
		},
		{
			"buffer":0,
			"byteLength":240,
			"byteOffset":37160,
			"target":34963
		},
		{
			"buffer":0,
			"byteLength":960,
			"byteOffset":37400,
			"target":34962
		},
		{
			"buffer":0,
			"byteLength":960,
			"byteOffset":38360,
			"target":34962
		},
		{
			"buffer":0,
			"byteLength":640,
			"byteOffset":39320,
			"target":34962
		},
		{
			"buffer":0,
			"byteLength":960,
			"byteOffset":39960,
			"target":34962
		},
		{
			"buffer":0,
			"byteLength":960,
			"byteOffset":40920,
			"target":34962
		},
		{
			"buffer":0,
			"byteLength":640,
			"byteOffset":41880,
			"target":34962
		},
		{
			"buffer":0,
			"byteLength":240,
			"byteOffset":42520,
			"target":34963
		},
		{
			"buffer":0,
			"byteLength":960,
			"byteOffset":42760,
			"target":34962
		},
		{
			"buffer":0,
			"byteLength":960,
			"byteOffset":43720,
			"target":34962
		},
		{
			"buffer":0,
			"byteLength":640,
			"byteOffset":44680,
			"target":34962
		},
		{
			"buffer":0,
			"byteLength":240,
			"byteOffset":45320,
			"target":34963
		},
		{
			"buffer":0,
			"byteLength":960,
			"byteOffset":45560,
			"target":34962
		},
		{
			"buffer":0,
			"byteLength":960,
			"byteOffset":46520,
			"target":34962
		},
		{
			"buffer":0,
			"byteLength":640,
			"byteOffset":47480,
			"target":34962
		},
		{
			"buffer":0,
			"byteLength":960,
			"byteOffset":48120,
			"target":34962
		},
		{
			"buffer":0,
			"byteLength":960,
			"byteOffset":49080,
			"target":34962
		},
		{
			"buffer":0,
			"byteLength":640,
			"byteOffset":50040,
			"target":34962
		},
		{
			"buffer":0,
			"byteLength":240,
			"byteOffset":50680,
			"target":34963
		},
		{
			"buffer":0,
			"byteLength":960,
			"byteOffset":50920,
			"target":34962
		},
		{
			"buffer":0,
			"byteLength":960,
			"byteOffset":51880,
			"target":34962
		},
		{
			"buffer":0,
			"byteLength":640,
			"byteOffset":52840,
			"target":34962
		},
		{
			"buffer":0,
			"byteLength":960,
			"byteOffset":53480,
			"target":34962
		},
		{
			"buffer":0,
			"byteLength":960,
			"byteOffset":54440,
			"target":34962
		},
		{
			"buffer":0,
			"byteLength":640,
			"byteOffset":55400,
			"target":34962
		},
		{
			"buffer":0,
			"byteLength":240,
			"byteOffset":56040,
			"target":34963
		},
		{
			"buffer":0,
			"byteLength":960,
			"byteOffset":56280,
			"target":34962
		},
		{
			"buffer":0,
			"byteLength":960,
			"byteOffset":57240,
			"target":34962
		},
		{
			"buffer":0,
			"byteLength":640,
			"byteOffset":58200,
			"target":34962
		},
		{
			"buffer":0,
			"byteLength":240,
			"byteOffset":58840,
			"target":34963
		},
		{
			"buffer":0,
			"byteLength":960,
			"byteOffset":59080,
			"target":34962
		},
		{
			"buffer":0,
			"byteLength":960,
			"byteOffset":60040,
			"target":34962
		},
		{
			"buffer":0,
			"byteLength":640,
			"byteOffset":61000,
			"target":34962
		},
		{
			"buffer":0,
			"byteLength":240,
			"byteOffset":61640,
			"target":34963
		},
		{
			"buffer":0,
			"byteLength":960,
			"byteOffset":61880,
			"target":34962
		},
		{
			"buffer":0,
			"byteLength":960,
			"byteOffset":62840,
			"target":34962
		},
		{
			"buffer":0,
			"byteLength":640,
			"byteOffset":63800,
			"target":34962
		},
		{
			"buffer":0,
			"byteLength":240,
			"byteOffset":64440,
			"target":34963
		},
		{
			"buffer":0,
			"byteLength":960,
			"byteOffset":64680,
			"target":34962
		},
		{
			"buffer":0,
			"byteLength":960,
			"byteOffset":65640,
			"target":34962
		},
		{
			"buffer":0,
			"byteLength":640,
			"byteOffset":66600,
			"target":34962
		},
		{
			"buffer":0,
			"byteLength":240,
			"byteOffset":67240,
			"target":34963
		},
		{
			"buffer":0,
			"byteLength":960,
			"byteOffset":67480,
			"target":34962
		},
		{
			"buffer":0,
			"byteLength":960,
			"byteOffset":68440,
			"target":34962
		},
		{
			"buffer":0,
			"byteLength":640,
			"byteOffset":69400,
			"target":34962
		},
		{
			"buffer":0,
			"byteLength":240,
			"byteOffset":70040,
			"target":34963
		},
		{
			"buffer":0,
			"byteLength":960,
			"byteOffset":70280,
			"target":34962
		},
		{
			"buffer":0,
			"byteLength":960,
			"byteOffset":71240,
			"target":34962
		},
		{
			"buffer":0,
			"byteLength":640,
			"byteOffset":72200,
			"target":34962
		},
		{
			"buffer":0,
			"byteLength":240,
			"byteOffset":72840,
			"target":34963
		},
		{
			"buffer":0,
			"byteLength":960,
			"byteOffset":73080,
			"target":34962
		},
		{
			"buffer":0,
			"byteLength":960,
			"byteOffset":74040,
			"target":34962
		},
		{
			"buffer":0,
			"byteLength":640,
			"byteOffset":75000,
			"target":34962
		},
		{
			"buffer":0,
			"byteLength":960,
			"byteOffset":75640,
			"target":34962
		},
		{
			"buffer":0,
			"byteLength":960,
			"byteOffset":76600,
			"target":34962
		},
		{
			"buffer":0,
			"byteLength":640,
			"byteOffset":77560,
			"target":34962
		},
		{
			"buffer":0,
			"byteLength":960,
			"byteOffset":78200,
			"target":34962
		},
		{
			"buffer":0,
			"byteLength":960,
			"byteOffset":79160,
			"target":34962
		},
		{
			"buffer":0,
			"byteLength":640,
			"byteOffset":80120,
			"target":34962
		},
		{
			"buffer":0,
			"byteLength":960,
			"byteOffset":80760,
			"target":34962
		},
		{
			"buffer":0,
			"byteLength":960,
			"byteOffset":81720,
			"target":34962
		},
		{
			"buffer":0,
			"byteLength":640,
			"byteOffset":82680,
			"target":34962
		},
		{
			"buffer":0,
			"byteLength":960,
			"byteOffset":83320,
			"target":34962
		},
		{
			"buffer":0,
			"byteLength":960,
			"byteOffset":84280,
			"target":34962
		},
		{
			"buffer":0,
			"byteLength":640,
			"byteOffset":85240,
			"target":34962
		},
		{
			"buffer":0,
			"byteLength":240,
			"byteOffset":85880,
			"target":34963
		},
		{
			"buffer":0,
			"byteLength":960,
			"byteOffset":86120,
			"target":34962
		},
		{
			"buffer":0,
			"byteLength":960,
			"byteOffset":87080,
			"target":34962
		},
		{
			"buffer":0,
			"byteLength":640,
			"byteOffset":88040,
			"target":34962
		},
		{
			"buffer":0,
			"byteLength":960,
			"byteOffset":88680,
			"target":34962
		},
		{
			"buffer":0,
			"byteLength":960,
			"byteOffset":89640,
			"target":34962
		},
		{
			"buffer":0,
			"byteLength":640,
			"byteOffset":90600,
			"target":34962
		},
		{
			"buffer":0,
			"byteLength":960,
			"byteOffset":91240,
			"target":34962
		},
		{
			"buffer":0,
			"byteLength":960,
			"byteOffset":92200,
			"target":34962
		},
		{
			"buffer":0,
			"byteLength":640,
			"byteOffset":93160,
			"target":34962
		},
		{
			"buffer":0,
			"byteLength":960,
			"byteOffset":93800,
			"target":34962
		},
		{
			"buffer":0,
			"byteLength":960,
			"byteOffset":94760,
			"target":34962
		},
		{
			"buffer":0,
			"byteLength":640,
			"byteOffset":95720,
			"target":34962
		},
		{
			"buffer":0,
			"byteLength":960,
			"byteOffset":96360,
			"target":34962
		},
		{
			"buffer":0,
			"byteLength":960,
			"byteOffset":97320,
			"target":34962
		},
		{
			"buffer":0,
			"byteLength":640,
			"byteOffset":98280,
			"target":34962
		},
		{
			"buffer":0,
			"byteLength":960,
			"byteOffset":98920,
			"target":34962
		},
		{
			"buffer":0,
			"byteLength":960,
			"byteOffset":99880,
			"target":34962
		},
		{
			"buffer":0,
			"byteLength":640,
			"byteOffset":100840,
			"target":34962
		},
		{
			"buffer":0,
			"byteLength":960,
			"byteOffset":101480,
			"target":34962
		},
		{
			"buffer":0,
			"byteLength":960,
			"byteOffset":102440,
			"target":34962
		},
		{
			"buffer":0,
			"byteLength":640,
			"byteOffset":103400,
			"target":34962
		},
		{
			"buffer":0,
			"byteLength":240,
			"byteOffset":104040,
			"target":34963
		},
		{
			"buffer":0,
			"byteLength":960,
			"byteOffset":104280,
			"target":34962
		},
		{
			"buffer":0,
			"byteLength":960,
			"byteOffset":105240,
			"target":34962
		},
		{
			"buffer":0,
			"byteLength":640,
			"byteOffset":106200,
			"target":34962
		},
		{
			"buffer":0,
			"byteLength":240,
			"byteOffset":106840,
			"target":34963
		},
		{
			"buffer":0,
			"byteLength":960,
			"byteOffset":107080,
			"target":34962
		},
		{
			"buffer":0,
			"byteLength":960,
			"byteOffset":108040,
			"target":34962
		},
		{
			"buffer":0,
			"byteLength":640,
			"byteOffset":109000,
			"target":34962
		},
		{
			"buffer":0,
			"byteLength":960,
			"byteOffset":109640,
			"target":34962
		},
		{
			"buffer":0,
			"byteLength":960,
			"byteOffset":110600,
			"target":34962
		},
		{
			"buffer":0,
			"byteLength":640,
			"byteOffset":111560,
			"target":34962
		},
		{
			"buffer":0,
			"byteLength":960,
			"byteOffset":112200,
			"target":34962
		},
		{
			"buffer":0,
			"byteLength":960,
			"byteOffset":113160,
			"target":34962
		},
		{
			"buffer":0,
			"byteLength":640,
			"byteOffset":114120,
			"target":34962
		},
		{
			"buffer":0,
			"byteLength":240,
			"byteOffset":114760,
			"target":34963
		},
		{
			"buffer":0,
			"byteLength":960,
			"byteOffset":115000,
			"target":34962
		},
		{
			"buffer":0,
			"byteLength":960,
			"byteOffset":115960,
			"target":34962
		},
		{
			"buffer":0,
			"byteLength":640,
			"byteOffset":116920,
			"target":34962
		},
		{
			"buffer":0,
			"byteLength":960,
			"byteOffset":117560,
			"target":34962
		},
		{
			"buffer":0,
			"byteLength":960,
			"byteOffset":118520,
			"target":34962
		},
		{
			"buffer":0,
			"byteLength":640,
			"byteOffset":119480,
			"target":34962
		},
		{
			"buffer":0,
			"byteLength":960,
			"byteOffset":120120,
			"target":34962
		},
		{
			"buffer":0,
			"byteLength":960,
			"byteOffset":121080,
			"target":34962
		},
		{
			"buffer":0,
			"byteLength":640,
			"byteOffset":122040,
			"target":34962
		},
		{
			"buffer":0,
			"byteLength":960,
			"byteOffset":122680,
			"target":34962
		},
		{
			"buffer":0,
			"byteLength":960,
			"byteOffset":123640,
			"target":34962
		},
		{
			"buffer":0,
			"byteLength":640,
			"byteOffset":124600,
			"target":34962
		},
		{
			"buffer":0,
			"byteLength":960,
			"byteOffset":125240,
			"target":34962
		},
		{
			"buffer":0,
			"byteLength":960,
			"byteOffset":126200,
			"target":34962
		},
		{
			"buffer":0,
			"byteLength":640,
			"byteOffset":127160,
			"target":34962
		},
		{
			"buffer":0,
			"byteLength":960,
			"byteOffset":127800,
			"target":34962
		},
		{
			"buffer":0,
			"byteLength":960,
			"byteOffset":128760,
			"target":34962
		},
		{
			"buffer":0,
			"byteLength":640,
			"byteOffset":129720,
			"target":34962
		},
		{
			"buffer":0,
			"byteLength":960,
			"byteOffset":130360,
			"target":34962
		},
		{
			"buffer":0,
			"byteLength":960,
			"byteOffset":131320,
			"target":34962
		},
		{
			"buffer":0,
			"byteLength":640,
			"byteOffset":132280,
			"target":34962
		},
		{
			"buffer":0,
			"byteLength":960,
			"byteOffset":132920,
			"target":34962
		},
		{
			"buffer":0,
			"byteLength":960,
			"byteOffset":133880,
			"target":34962
		},
		{
			"buffer":0,
			"byteLength":640,
			"byteOffset":134840,
			"target":34962
		},
		{
			"buffer":0,
			"byteLength":960,
			"byteOffset":135480,
			"target":34962
		},
		{
			"buffer":0,
			"byteLength":960,
			"byteOffset":136440,
			"target":34962
		},
		{
			"buffer":0,
			"byteLength":640,
			"byteOffset":137400,
			"target":34962
		},
		{
			"buffer":0,
			"byteLength":960,
			"byteOffset":138040,
			"target":34962
		},
		{
			"buffer":0,
			"byteLength":960,
			"byteOffset":139000,
			"target":34962
		},
		{
			"buffer":0,
			"byteLength":640,
			"byteOffset":139960,
			"target":34962
		},
		{
			"buffer":0,
			"byteLength":960,
			"byteOffset":140600,
			"target":34962
		},
		{
			"buffer":0,
			"byteLength":960,
			"byteOffset":141560,
			"target":34962
		},
		{
			"buffer":0,
			"byteLength":640,
			"byteOffset":142520,
			"target":34962
		},
		{
			"buffer":0,
			"byteLength":240,
			"byteOffset":143160,
			"target":34963
		},
		{
			"buffer":0,
			"byteLength":960,
			"byteOffset":143400,
			"target":34962
		},
		{
			"buffer":0,
			"byteLength":960,
			"byteOffset":144360,
			"target":34962
		},
		{
			"buffer":0,
			"byteLength":640,
			"byteOffset":145320,
			"target":34962
		},
		{
			"buffer":0,
			"byteLength":240,
			"byteOffset":145960,
			"target":34963
		},
		{
			"buffer":0,
			"byteLength":960,
			"byteOffset":146200,
			"target":34962
		},
		{
			"buffer":0,
			"byteLength":960,
			"byteOffset":147160,
			"target":34962
		},
		{
			"buffer":0,
			"byteLength":640,
			"byteOffset":148120,
			"target":34962
		}
	],
	"samplers":[
		{
			"magFilter":9728,
			"minFilter":9984
		},
		{
			"magFilter":9728,
			"minFilter":9984,
			"wrapS":33071,
			"wrapT":33071
		}
	],
	"buffers":[
		{
			"byteLength":148760,
			"uri":"plant_spider.bin"
		}
	]
}
