{
	"asset":{
		"generator":"Khronos glTF Blender I/O v5.1.19",
		"version":"2.0"
	},
	"extensionsUsed":[
		"KHR_materials_specular"
	],
	"scene":0,
	"scenes":[
		{
			"name":"Scene",
			"nodes":[
				0,
				1,
				2,
				3,
				4,
				5,
				6,
				7,
				8,
				9,
				10,
				11,
				12,
				13,
				14,
				15,
				16,
				17,
				18,
				19,
				20,
				21,
				22,
				23,
				24,
				25,
				26,
				27,
				28,
				29,
				30,
				31,
				32,
				33,
				34,
				35,
				36,
				37,
				38,
				39,
				40,
				41,
				42,
				43
			]
		}
	],
	"nodes":[
		{
			"mesh":0,
			"name":"Pot"
		},
		{
			"mesh":1,
			"name":"Soil"
		},
		{
			"mesh":2,
			"name":"FrondCard_000"
		},
		{
			"mesh":2,
			"name":"FrondCard_001",
			"rotation":[
				-0.05068126320838928,
				0.672537088394165,
				0.01318255066871643,
				0.7382082939147949
			],
			"scale":[
				1.0772117376327515,
				1.0772117376327515,
				1.0772117376327515
			],
			"translation":[
				0.15111187100410461,
				-0.08255913853645325,
				0.07681739330291748
			]
		},
		{
			"mesh":2,
			"name":"FrondCard_002",
			"rotation":[
				0.06623294204473495,
				0.09421181678771973,
				0.02308160439133644,
				0.993078351020813
			],
			"scale":[
				1.0035370588302612,
				1.0035371780395508,
				1.0035372972488403
			],
			"translation":[
				0.08470418304204941,
				0.01760965771973133,
				-0.3938097059726715
			]
		},
		{
			"mesh":2,
			"name":"FrondCard_003",
			"rotation":[
				0.07918112725019455,
				0.7786107063293457,
				-0.03903330862522125,
				0.6212667226791382
			],
			"scale":[
				1.430026650428772,
				1.4300267696380615,
				1.4300267696380615
			],
			"translation":[
				-0.6658036112785339,
				-0.8316965103149414,
				-0.1167474165558815
			]
		},
		{
			"mesh":2,
			"name":"FrondCard_004",
			"rotation":[
				-0.0028370432555675507,
				-0.8900905251502991,
				0.2042185366153717,
				0.40746238827705383
			],
			"scale":[
				1.0001710653305054,
				1.0001709461212158,
				1.0001709461212158
			],
			"translation":[
				0.3095035254955292,
				0.27782773971557617,
				0.7919982075691223
			]
		},
		{
			"mesh":2,
			"name":"FrondCard_005",
			"rotation":[
				0.05630197376012802,
				0.27294281125068665,
				0.008697856217622757,
				0.9603420495986938
			],
			"scale":[
				1.0327353477478027,
				1.0327354669570923,
				1.0327355861663818
			],
			"translation":[
				-0.04054464027285576,
				-0.10939452797174454,
				-0.24282565712928772
			]
		},
		{
			"mesh":2,
			"name":"FrondCard_006",
			"rotation":[
				-0.027797603979706764,
				-0.9869252443313599,
				0.09889189898967743,
				0.12420254200696945
			],
			"scale":[
				1.041229009628296,
				1.0412291288375854,
				1.0412291288375854
			],
			"translation":[
				-0.08527594059705734,
				0.04079180583357811,
				0.5315925478935242
			]
		},
		{
			"mesh":2,
			"name":"FrondCard_007",
			"rotation":[
				0.050005413591861725,
				-0.3613094985485077,
				0.05558750778436661,
				0.9294434189796448
			],
			"scale":[
				1.0031448602676392,
				1.0031447410583496,
				1.0031448602676392
			],
			"translation":[
				0.20362070202827454,
				0.0091498838737607,
				-0.05554166063666344
			]
		},
		{
			"mesh":2,
			"name":"FrondCard_008",
			"rotation":[
				0.06690261512994766,
				0.6957338452339172,
				-0.021407155320048332,
				0.7148568630218506
			],
			"scale":[
				0.8955948352813721,
				0.8955948948860168,
				0.8955948352813721
			],
			"translation":[
				-0.27168959379196167,
				0.22709986567497253,
				-0.14022107422351837
			]
		},
		{
			"mesh":2,
			"name":"FrondCard_009",
			"rotation":[
				-0.02575603500008583,
				0.5562605857849121,
				8.29357304610312e-05,
				0.8306086659431458
			],
			"scale":[
				1.063170075416565,
				1.063170075416565,
				1.0631698369979858
			],
			"translation":[
				0.08351122587919235,
				-0.09173367917537689,
				0.0362808033823967
			]
		},
		{
			"mesh":2,
			"name":"FrondCard_010",
			"rotation":[
				0.07753483951091766,
				0.6979957818984985,
				-0.02872643619775772,
				0.7113122344017029
			],
			"scale":[
				1.2763022184371948,
				1.2763022184371948,
				1.2763022184371948
			],
			"translation":[
				-0.48332303762435913,
				-0.5289377570152283,
				-0.2599402964115143
			]
		},
		{
			"mesh":2,
			"name":"FrondCard_011",
			"rotation":[
				0.005154149141162634,
				0.9994837045669556,
				-0.013452148996293545,
				0.028722288087010384
			],
			"scale":[
				1.1448711156845093,
				1.1448709964752197,
				1.1448711156845093
			],
			"translation":[
				-0.07014577835798264,
				-0.18921181559562683,
				0.08643299341201782
			]
		},
		{
			"mesh":2,
			"name":"FrondCard_012",
			"rotation":[
				0.0328277088701725,
				-0.12271832674741745,
				0.019323768094182014,
				0.9917103052139282
			],
			"scale":[
				1.067060947418213,
				1.067060947418213,
				1.067060947418213
			],
			"translation":[
				0.1342281848192215,
				-0.1444496214389801,
				-0.14176762104034424
			]
		},
		{
			"mesh":2,
			"name":"FrondCard_013",
			"rotation":[
				0.014314424246549606,
				-0.940483808517456,
				-0.10190057754516602,
				0.3238851726055145
			],
			"scale":[
				1.267026424407959,
				1.2670261859893799,
				1.2670261859893799
			],
			"translation":[
				-0.09867478162050247,
				-0.3897455334663391,
				-0.4073026180267334
			]
		},
		{
			"mesh":2,
			"name":"FrondCard_014",
			"rotation":[
				0.009835518896579742,
				-0.6938352584838867,
				0.025506945326924324,
				0.7196146845817566
			],
			"scale":[
				1.1830345392227173,
				1.1830343008041382,
				1.1830343008041382
			],
			"translation":[
				0.12065321952104568,
				-0.35424160957336426,
				0.056337274610996246
			]
		},
		{
			"mesh":2,
			"name":"FrondCard_015",
			"rotation":[
				-0.017713097855448723,
				0.11039628088474274,
				-0.00930016953498125,
				0.993686318397522
			],
			"scale":[
				1.156935453414917,
				1.156935453414917,
				1.156935453414917
			],
			"translation":[
				-0.006734913215041161,
				-0.2142065316438675,
				-0.019550533965229988
			]
		},
		{
			"mesh":2,
			"name":"FrondCard_016",
			"rotation":[
				0.10913462936878204,
				-0.004734513815492392,
				0.050299301743507385,
				0.9927423000335693
			],
			"scale":[
				0.8978502154350281,
				0.8978502154350281,
				0.8978502154350281
			],
			"translation":[
				0.18252763152122498,
				0.29794543981552124,
				-0.4425685703754425
			]
		},
		{
			"mesh":2,
			"name":"FrondCard_017",
			"rotation":[
				-0.07920912653207779,
				0.9420740008354187,
				0.08080943673849106,
				0.3157409429550171
			],
			"scale":[
				1.2128318548202515,
				1.2128318548202515,
				1.2128318548202515
			],
			"translation":[
				0.3607374131679535,
				-0.24581459164619446,
				-0.1428365409374237
			]
		},
		{
			"mesh":2,
			"name":"FrondCard_018",
			"rotation":[
				-0.010100443847477436,
				-0.9482014179229736,
				0.09901159256696701,
				0.3016766905784607
			],
			"scale":[
				1.1083815097808838,
				1.1083815097808838,
				1.1083815097808838
			],
			"translation":[
				0.17189769446849823,
				-0.21988962590694427,
				0.5051153302192688
			]
		},
		{
			"mesh":2,
			"name":"FrondCard_019",
			"rotation":[
				-0.02645341493189335,
				-0.2931528687477112,
				-0.019009968265891075,
				0.9555104970932007
			],
			"scale":[
				1.4022785425186157,
				1.4022785425186157,
				1.4022786617279053
			],
			"translation":[
				0.054191071540117264,
				-0.7727625370025635,
				-0.010672969743609428
			]
		},
		{
			"mesh":2,
			"name":"FrondCard_020",
			"rotation":[
				0.13879434764385223,
				0.3856870234012604,
				0.007770633790642023,
				0.9120972156524658
			],
			"scale":[
				1.0069226026535034,
				1.006922721862793,
				1.006922721862793
			],
			"translation":[
				-0.1888718158006668,
				0.10652758926153183,
				-0.5435143709182739
			]
		},
		{
			"mesh":2,
			"name":"FrondCard_021",
			"rotation":[
				0.09828661382198334,
				0.9100320935249329,
				-0.07991664856672287,
				0.3947083353996277
			],
			"scale":[
				1.015476942062378,
				1.0154770612716675,
				1.015476942062378
			],
			"translation":[
				-0.5612174272537231,
				0.19880734384059906,
				0.11839395761489868
			]
		},
		{
			"mesh":2,
			"name":"FrondCard_022",
			"rotation":[
				-0.02379947528243065,
				0.8777226209640503,
				0.01211966760456562,
				0.47842419147491455
			],
			"scale":[
				1.4915486574172974,
				1.4915488958358765,
				1.4915485382080078
			],
			"translation":[
				-0.04954824224114418,
				-0.9029241800308228,
				0.01951519213616848
			]
		},
		{
			"mesh":2,
			"name":"FrondCard_023",
			"rotation":[
				0.0735536590218544,
				0.37637677788734436,
				0.0015135413268581033,
				0.9235411882400513
			],
			"scale":[
				1.4209082126617432,
				1.4209082126617432,
				1.4209082126617432
			],
			"translation":[
				-0.16044434905052185,
				-0.8166200518608093,
				-0.5833263993263245
			]
		},
		{
			"mesh":2,
			"name":"FrondCard_024",
			"rotation":[
				-0.08847382664680481,
				0.537342369556427,
				0.01757171005010605,
				0.8385265469551086
			],
			"scale":[
				1.3550132513046265,
				1.3550132513046265,
				1.355013132095337
			],
			"translation":[
				0.2722454071044922,
				-0.5926799774169922,
				0.3026779592037201
			]
		},
		{
			"mesh":2,
			"name":"FrondCard_025",
			"rotation":[
				-0.009305424988269806,
				-0.9915827512741089,
				0.032654330134391785,
				0.12494310736656189
			],
			"scale":[
				1.1355633735656738,
				1.1355633735656738,
				1.1355633735656738
			],
			"translation":[
				-0.013591802679002285,
				-0.2728739082813263,
				0.11281387507915497
			]
		},
		{
			"mesh":2,
			"name":"FrondCard_026",
			"rotation":[
				-0.057242363691329956,
				-0.9775033593177795,
				0.17080406844615936,
				0.10971098393201828
			],
			"scale":[
				0.9237903356552124,
				0.9237903952598572,
				0.9237902760505676
			],
			"translation":[
				-0.1216031163930893,
				0.31472280621528625,
				0.564676821231842
			]
		},
		{
			"mesh":2,
			"name":"FrondCard_027",
			"rotation":[
				0.00855288002640009,
				-0.8567091226577759,
				0.07529278099536896,
				0.5102033019065857
			],
			"scale":[
				1.2482906579971313,
				1.2482906579971313,
				1.2482906579971313
			],
			"translation":[
				0.274674654006958,
				-0.37011831998825073,
				0.3972788453102112
			]
		},
		{
			"mesh":2,
			"name":"FrondCard_028",
			"rotation":[
				0.014515472576022148,
				-0.6128413081169128,
				0.02062853053212166,
				0.7898034453392029
			],
			"scale":[
				1.428662657737732,
				1.4286625385284424,
				1.428662657737732
			],
			"translation":[
				0.29106274247169495,
				-0.8681014776229858,
				0.0334174707531929
			]
		},
		{
			"mesh":2,
			"name":"FrondCard_029",
			"rotation":[
				0.16291673481464386,
				0.7975049018859863,
				-0.09291819483041763,
				0.5734198093414307
			],
			"scale":[
				1.152929663658142,
				1.152929663658142,
				1.152929663658142
			],
			"translation":[
				-0.9792530536651611,
				-0.10578671842813492,
				-0.09429115802049637
			]
		},
		{
			"mesh":2,
			"name":"FrondCard_030",
			"rotation":[
				0.006194304674863815,
				0.9877094626426697,
				-0.007890978828072548,
				0.15597942471504211
			],
			"scale":[
				1.154159665107727,
				1.154159665107727,
				1.154159665107727
			],
			"translation":[
				-0.02316015027463436,
				-0.21839004755020142,
				0.07223750650882721
			]
		},
		{
			"mesh":2,
			"name":"FrondCard_031",
			"rotation":[
				0.05357519909739494,
				-0.6843711733818054,
				0.1434687376022339,
				0.7128692865371704
			],
			"scale":[
				1.0299713611602783,
				1.0299712419509888,
				1.0299713611602783
			],
			"translation":[
				0.5700730681419373,
				0.025792093947529793,
				0.2550000846385956
			]
		},
		{
			"mesh":2,
			"name":"FrondCard_032",
			"rotation":[
				0.04643763229250908,
				-0.7043877243995667,
				0.11253111064434052,
				0.6992983818054199
			],
			"scale":[
				0.9788812398910522,
				0.9788812398910522,
				0.978881299495697
			],
			"translation":[
				0.48008352518081665,
				0.13636448979377747,
				0.172419011592865
			]
		},
		{
			"mesh":2,
			"name":"FrondCard_033",
			"rotation":[
				-0.015433409251272678,
				0.9397222399711609,
				0.009753166697919369,
				0.3414510488510132
			],
			"scale":[
				1.538966417312622,
				1.538966417312622,
				1.538966417312622
			],
			"translation":[
				-0.08756040036678314,
				-1.023796558380127,
				0.04429209232330322
			]
		},
		{
			"mesh":2,
			"name":"FrondCard_034",
			"rotation":[
				-0.03633160889148712,
				-0.5403456091880798,
				-0.06514488905668259,
				0.838130533695221
			],
			"scale":[
				1.2727305889129639,
				1.2727303504943848,
				1.2727304697036743
			],
			"translation":[
				-0.264881432056427,
				-0.46710655093193054,
				0.008006746880710125
			]
		},
		{
			"mesh":2,
			"name":"FrondCard_035",
			"rotation":[
				0.006069783121347427,
				-0.824616551399231,
				0.047050923109054565,
				0.56369948387146
			],
			"scale":[
				1.3190391063690186,
				1.319038987159729,
				1.319038987159729
			],
			"translation":[
				0.24189001321792603,
				-0.6432306170463562,
				0.217315673828125
			]
		},
		{
			"mesh":2,
			"name":"FrondCard_036",
			"rotation":[
				0.09724817425012589,
				0.9580163359642029,
				-0.13380247354507446,
				0.2341892272233963
			],
			"scale":[
				0.9782317280769348,
				0.9782318472862244,
				0.9782317876815796
			],
			"translation":[
				-0.577207624912262,
				0.18955732882022858,
				0.4952280521392822
			]
		},
		{
			"mesh":2,
			"name":"FrondCard_037",
			"rotation":[
				-0.05361746996641159,
				-0.2102833390235901,
				-0.049526382237672806,
				0.9749119281768799
			],
			"scale":[
				1.2674237489700317,
				1.2674236297607422,
				1.2674237489700317
			],
			"translation":[
				-0.3011694550514221,
				-0.42135775089263916,
				0.2362816482782364
			]
		},
		{
			"mesh":2,
			"name":"FrondCard_038",
			"rotation":[
				-0.0034722979180514812,
				-0.8003016710281372,
				-0.01617356948554516,
				0.5993692874908447
			],
			"scale":[
				1.2020758390426636,
				1.2020758390426636,
				1.2020759582519531
			],
			"translation":[
				-0.04685363918542862,
				-0.40466979146003723,
				-0.041025105863809586
			]
		},
		{
			"mesh":2,
			"name":"FrondCard_039",
			"rotation":[
				-0.02335028536617756,
				-0.2721346914768219,
				-0.015796653926372528,
				0.961846113204956
			],
			"scale":[
				1.2121143341064453,
				1.2121142148971558,
				1.2121143341064453
			],
			"translation":[
				-0.10083276778459549,
				-0.3803405463695526,
				0.055195268243551254
			]
		},
		{
			"mesh":2,
			"name":"FrondCard_040",
			"rotation":[
				-0.0006005428149364889,
				-0.4099889099597931,
				-0.0016247665043920279,
				0.9120888710021973
			],
			"scale":[
				1.421826720237732,
				1.421826720237732,
				1.4218268394470215
			],
			"translation":[
				0.04200684279203415,
				-0.7908151149749756,
				-0.011272837407886982
			]
		},
		{
			"mesh":2,
			"name":"FrondCard_041",
			"rotation":[
				0.0013846850488334894,
				0.7463513016700745,
				-0.004907570779323578,
				0.6655327677726746
			],
			"scale":[
				1.439064383506775,
				1.439064383506775,
				1.439064383506775
			],
			"translation":[
				-0.21899650990962982,
				-0.8368987441062927,
				-0.09086088836193085
			]
		}
	],
	"materials":[
		{
			"doubleSided":true,
			"extensions":{
				"KHR_materials_specular":{
					"specularFactor":0.4000000059604645
				}
			},
			"name":"PotMat",
			"pbrMetallicRoughness":{
				"baseColorTexture":{
					"index":0
				},
				"metallicFactor":0,
				"roughnessFactor":0.8500000238418579
			}
		},
		{
			"doubleSided":true,
			"extensions":{
				"KHR_materials_specular":{
					"specularFactor":0.4000000059604645
				}
			},
			"name":"SoilMat",
			"pbrMetallicRoughness":{
				"baseColorTexture":{
					"index":1
				},
				"metallicFactor":0,
				"roughnessFactor":0.8500000238418579
			}
		},
		{
			"alphaMode":"BLEND",
			"doubleSided":true,
			"extensions":{
				"KHR_materials_specular":{
					"specularFactor":0.4000000059604645
				}
			},
			"name":"FrondCardMat",
			"pbrMetallicRoughness":{
				"baseColorTexture":{
					"index":2
				},
				"metallicFactor":0,
				"roughnessFactor":0.699999988079071
			}
		}
	],
	"meshes":[
		{
			"name":"Pot.001",
			"primitives":[
				{
					"attributes":{
						"POSITION":0,
						"NORMAL":1,
						"TEXCOORD_0":2
					},
					"indices":3,
					"material":0
				}
			]
		},
		{
			"name":"Soil.001",
			"primitives":[
				{
					"attributes":{
						"POSITION":4,
						"NORMAL":5,
						"TEXCOORD_0":6
					},
					"indices":7,
					"material":1
				}
			]
		},
		{
			"name":"FrondCard_000",
			"primitives":[
				{
					"attributes":{
						"POSITION":8,
						"NORMAL":9,
						"TEXCOORD_0":10
					},
					"indices":11,
					"material":2
				}
			]
		}
	],
	"textures":[
		{
			"sampler":0,
			"source":0
		},
		{
			"sampler":0,
			"source":1
		},
		{
			"sampler":1,
			"source":2
		}
	],
	"images":[
		{
			"mimeType":"image/png",
			"name":"PotTex",
			"uri":"boston_fern/PotTex.png"
		},
		{
			"mimeType":"image/png",
			"name":"SoilTex",
			"uri":"boston_fern/SoilTex.png"
		},
		{
			"mimeType":"image/png",
			"name":"FrondCardTex",
			"uri":"boston_fern/FrondCardTex.png"
		}
	],
	"accessors":[
		{
			"bufferView":0,
			"componentType":5126,
			"count":408,
			"max":[
				0.949999988079071,
				1.7799999713897705,
				0.949999988079071
			],
			"min":[
				-0.949999988079071,
				0,
				-0.949999988079071
			],
			"type":"VEC3"
		},
		{
			"bufferView":1,
			"componentType":5126,
			"count":408,
			"type":"VEC3"
		},
		{
			"bufferView":2,
			"componentType":5126,
			"count":408,
			"type":"VEC2"
		},
		{
			"bufferView":3,
			"componentType":5123,
			"count":612,
			"type":"SCALAR"
		},
		{
			"bufferView":4,
			"componentType":5126,
			"count":56,
			"max":[
				0.7206262350082397,
				1.659999966621399,
				0.7206262350082397
			],
			"min":[
				-0.7206262350082397,
				1.6399999856948853,
				-0.7206262350082397
			],
			"type":"VEC3"
		},
		{
			"bufferView":5,
			"componentType":5126,
			"count":56,
			"type":"VEC3"
		},
		{
			"bufferView":6,
			"componentType":5126,
			"count":56,
			"type":"VEC2"
		},
		{
			"bufferView":7,
			"componentType":5123,
			"count":72,
			"type":"SCALAR"
		},
		{
			"bufferView":8,
			"componentType":5126,
			"count":88,
			"max":[
				1.1297082901000977,
				1.9127652645111084,
				-0.05586901307106018
			],
			"min":[
				-0.1772770881652832,
				1.1513330936431885,
				-1.9921479225158691
			],
			"type":"VEC3"
		},
		{
			"bufferView":9,
			"componentType":5126,
			"count":88,
			"type":"VEC3"
		},
		{
			"bufferView":10,
			"componentType":5126,
			"count":88,
			"type":"VEC2"
		},
		{
			"bufferView":11,
			"componentType":5123,
			"count":132,
			"type":"SCALAR"
		}
	],
	"bufferViews":[
		{
			"buffer":0,
			"byteLength":4896,
			"byteOffset":0,
			"target":34962
		},
		{
			"buffer":0,
			"byteLength":4896,
			"byteOffset":4896,
			"target":34962
		},
		{
			"buffer":0,
			"byteLength":3264,
			"byteOffset":9792,
			"target":34962
		},
		{
			"buffer":0,
			"byteLength":1224,
			"byteOffset":13056,
			"target":34963
		},
		{
			"buffer":0,
			"byteLength":672,
			"byteOffset":14280,
			"target":34962
		},
		{
			"buffer":0,
			"byteLength":672,
			"byteOffset":14952,
			"target":34962
		},
		{
			"buffer":0,
			"byteLength":448,
			"byteOffset":15624,
			"target":34962
		},
		{
			"buffer":0,
			"byteLength":144,
			"byteOffset":16072,
			"target":34963
		},
		{
			"buffer":0,
			"byteLength":1056,
			"byteOffset":16216,
			"target":34962
		},
		{
			"buffer":0,
			"byteLength":1056,
			"byteOffset":17272,
			"target":34962
		},
		{
			"buffer":0,
			"byteLength":704,
			"byteOffset":18328,
			"target":34962
		},
		{
			"buffer":0,
			"byteLength":264,
			"byteOffset":19032,
			"target":34963
		}
	],
	"samplers":[
		{
			"magFilter":9728,
			"minFilter":9984
		},
		{
			"magFilter":9728,
			"minFilter":9984,
			"wrapS":33071,
			"wrapT":33071
		}
	],
	"buffers":[
		{
			"byteLength":19296,
			"uri":"plant_boston_fern.bin"
		}
	]
}
