{
	"asset": {
		"generator": "Khronos glTF Blender I/O v5.1.19",
		"version": "2.0"
	},
	"extensionsUsed": [
		"KHR_materials_specular"
	],
	"scene": 0,
	"scenes": [
		{
			"name": "Scene",
			"nodes": [
				0,
				1,
				2,
				3,
				4,
				5,
				6,
				7,
				8,
				9,
				10,
				11,
				12,
				13,
				14,
				15,
				16,
				17,
				18,
				19,
				20,
				21,
				22,
				23,
				24,
				25,
				26,
				27,
				28,
				29,
				30,
				31,
				32,
				33,
				34,
				35,
				36,
				37,
				38,
				39,
				40,
				41,
				42,
				43,
				44,
				45,
				46,
				47,
				48,
				49,
				50,
				51,
				52,
				53,
				54,
				55,
				56,
				57,
				58,
				59,
				60,
				61,
				62
			]
		}
	],
	"nodes": [
		{
			"mesh": 0,
			"name": "Pot"
		},
		{
			"mesh": 1,
			"name": "Soil"
		},
		{
			"mesh": 2,
			"name": "Leaf_000"
		},
		{
			"mesh": 2,
			"name": "Leaf_001",
			"rotation": [
				-0.10448069870471954,
				0.15939180552959442,
				-0.004106293898075819,
				0.9816624522209167
			],
			"scale": [
				0.8851069211959839,
				0.8851069211959839,
				0.8851069808006287
			],
			"translation": [
				0.005115041043609381,
				0.0875261202454567,
				0.12344003468751907
			]
		},
		{
			"mesh": 2,
			"name": "Leaf_002",
			"rotation": [
				-0.02378152869641781,
				0.3405221402645111,
				0.005484647583216429,
				0.9399197101593018
			],
			"scale": [
				1.0568650960922241,
				1.0568652153015137,
				1.0568649768829346
			],
			"translation": [
				0.02151028998196125,
				-0.042784616351127625,
				0.025361493229866028
			]
		},
		{
			"mesh": 2,
			"name": "Leaf_003",
			"rotation": [
				-0.08724085241556168,
				0.48593154549598694,
				-0.02667349949479103,
				0.8692227005958557
			],
			"scale": [
				0.7497085332870483,
				0.7497085332870483,
				0.7497085332870483
			],
			"translation": [
				0.011172747239470482,
				0.1771077811717987,
				0.0994756743311882
			]
		},
		{
			"mesh": 2,
			"name": "Leaf_004",
			"rotation": [
				-0.047535743564367294,
				0.5740882158279419,
				-0.020974351093173027,
				0.8171433210372925
			],
			"scale": [
				0.7526087164878845,
				0.7526087760925293,
				0.7526087760925293
			],
			"translation": [
				0.0006359592080116272,
				0.1674683541059494,
				0.07353575527667999
			]
		},
		{
			"mesh": 2,
			"name": "Leaf_005",
			"rotation": [
				-0.04307263717055321,
				0.7053477764129639,
				-0.043778445571660995,
				0.7061959505081177
			],
			"scale": [
				0.955154299736023,
				0.9551542401313782,
				0.9551541805267334
			],
			"translation": [
				-0.0005386972916312516,
				0.034838173538446426,
				0.07127425074577332
			]
		},
		{
			"mesh": 2,
			"name": "Leaf_006",
			"rotation": [
				-0.03902613744139671,
				0.8014643788337708,
				-0.032737378031015396,
				0.5958691835403442
			],
			"scale": [
				0.8443062901496887,
				0.8443063497543335,
				0.8443063497543335
			],
			"translation": [
				0.016275521367788315,
				0.11378119885921478,
				0.0656224861741066
			]
		},
		{
			"mesh": 2,
			"name": "Leaf_007",
			"rotation": [
				-0.025921640917658806,
				0.8834423422813416,
				0.02293674275279045,
				0.4672596752643585
			],
			"scale": [
				0.7386994361877441,
				0.7386994361877441,
				0.7386994361877441
			],
			"translation": [
				0.04572685807943344,
				0.17820753157138824,
				0.012201628647744656
			]
		},
		{
			"mesh": 2,
			"name": "Leaf_008",
			"rotation": [
				-0.04469496011734009,
				0.9618409276008606,
				0.010699979960918427,
				0.269722044467926
			],
			"scale": [
				0.8130612373352051,
				0.8130614161491394,
				0.8130612969398499
			],
			"translation": [
				0.05770605057477951,
				0.12948164343833923,
				0.007520131301134825
			]
		},
		{
			"mesh": 2,
			"name": "Leaf_009",
			"rotation": [
				-0.06858326494693756,
				0.9789483547210693,
				0.044829726219177246,
				0.18694089353084564
			],
			"scale": [
				0.702113151550293,
				0.702113151550293,
				0.7021132111549377
			],
			"translation": [
				0.10033705085515976,
				0.21116526424884796,
				-0.01581532508134842
			]
		},
		{
			"mesh": 2,
			"name": "Leaf_010",
			"rotation": [
				0.07909882068634033,
				-0.996107280254364,
				-0.03492487967014313,
				0.01714540272951126
			],
			"scale": [
				0.6829847693443298,
				0.6829847097396851,
				0.6829847693443298
			],
			"translation": [
				0.09516879171133041,
				0.22339004278182983,
				-0.032612357288599014
			]
		},
		{
			"mesh": 2,
			"name": "Leaf_011",
			"rotation": [
				0.04785393178462982,
				-0.9858998656272888,
				0.01122792437672615,
				0.15995489060878754
			],
			"scale": [
				0.8181113004684448,
				0.8181113600730896,
				0.8181113600730896
			],
			"translation": [
				0.08657971024513245,
				0.12229776382446289,
				-0.004996809642761946
			]
		},
		{
			"mesh": 2,
			"name": "Leaf_012",
			"rotation": [
				0.03236885368824005,
				-0.950539231300354,
				-0.02569282427430153,
				0.3078433573246002
			],
			"scale": [
				0.9226552248001099,
				0.9226552844047546,
				0.9226552844047546
			],
			"translation": [
				0.03288714215159416,
				0.04741443693637848,
				-0.04419221356511116
			]
		},
		{
			"mesh": 2,
			"name": "Leaf_013",
			"rotation": [
				-0.00784713588654995,
				-0.8930209279060364,
				-0.08387741446495056,
				0.44205954670906067
			],
			"scale": [
				0.9898673892021179,
				0.9898674488067627,
				0.9898674488067627
			],
			"translation": [
				-0.04469579458236694,
				0.01589799113571644,
				-0.10954185575246811
			]
		},
		{
			"mesh": 2,
			"name": "Leaf_014",
			"rotation": [
				-0.042007919400930405,
				-0.7926562428474426,
				-0.11804532259702682,
				0.5966547727584839
			],
			"scale": [
				0.6846951246261597,
				0.6846951246261597,
				0.6846951842308044
			],
			"translation": [
				-0.08823897689580917,
				0.22107258439064026,
				-0.08325103670358658
			]
		},
		{
			"mesh": 2,
			"name": "Leaf_015",
			"rotation": [
				-0.020358985289931297,
				-0.7005056738853455,
				-0.12182924896478653,
				0.7028762102127075
			],
			"scale": [
				0.8556859493255615,
				0.8556858897209167,
				0.8556858897209167
			],
			"translation": [
				-0.11186297982931137,
				0.11692563444375992,
				-0.07904210686683655
			]
		},
		{
			"mesh": 2,
			"name": "Leaf_016",
			"rotation": [
				-0.03256608545780182,
				-0.628311812877655,
				-0.12100473791360855,
				0.7678030729293823
			],
			"scale": [
				0.9775384068489075,
				0.9775384068489075,
				0.9775384068489075
			],
			"translation": [
				-0.14361929893493652,
				0.03453095257282257,
				-0.05499209091067314
			]
		},
		{
			"mesh": 2,
			"name": "Leaf_017",
			"rotation": [
				0.013454248197376728,
				-0.45326879620552063,
				-0.03756718710064888,
				0.8904802799224854
			],
			"scale": [
				1.0176470279693604,
				1.0176470279693604,
				1.0176470279693604
			],
			"translation": [
				-0.047668371349573135,
				-0.015557471662759781,
				-0.05707212910056114
			]
		},
		{
			"mesh": 2,
			"name": "Leaf_018",
			"rotation": [
				-0.0848703607916832,
				-0.35369569063186646,
				-0.05132867395877838,
				0.9300869703292847
			],
			"scale": [
				0.8686767220497131,
				0.8686767220497131,
				0.8686767220497131
			],
			"translation": [
				-0.09910015016794205,
				0.09381945431232452,
				0.061075132340192795
			]
		},
		{
			"mesh": 2,
			"name": "Leaf_019",
			"rotation": [
				0.017216555774211884,
				-0.09118592739105225,
				-0.035011280328035355,
				0.9950693249702454
			],
			"scale": [
				0.813422441482544,
				0.8134225010871887,
				0.8134225606918335
			],
			"translation": [
				-0.049577392637729645,
				0.12338009476661682,
				-0.025627661496400833
			]
		},
		{
			"mesh": 2,
			"name": "Leaf_020",
			"rotation": [
				-0.004635201301425695,
				0.05222291126847267,
				0.09599985927343369,
				0.9939997792243958
			],
			"scale": [
				0.8933461308479309,
				0.8933458924293518,
				0.8933458924293518
			],
			"translation": [
				0.0883723646402359,
				0.0717291533946991,
				0.00034300476545467973
			]
		},
		{
			"mesh": 2,
			"name": "Leaf_021",
			"rotation": [
				-0.03598453477025032,
				0.24684041738510132,
				0.1502080112695694,
				0.9566673636436462
			],
			"scale": [
				0.9423099756240845,
				0.9423100352287292,
				0.9423100352287292
			],
			"translation": [
				0.18258880078792572,
				0.051998868584632874,
				0.0006081048049964011
			]
		},
		{
			"mesh": 2,
			"name": "Leaf_022",
			"rotation": [
				-0.03801537677645683,
				0.3856799304485321,
				0.11315257847309113,
				0.9148783087730408
			],
			"scale": [
				0.7362287640571594,
				0.7362287044525146,
				0.7362287640571594
			],
			"translation": [
				0.1202327311038971,
				0.1861855387687683,
				-0.016570232808589935
			]
		},
		{
			"mesh": 2,
			"name": "Leaf_023",
			"rotation": [
				0.07189758121967316,
				0.5945572257041931,
				0.1263655722141266,
				0.7907997369766235
			],
			"scale": [
				0.7377622127532959,
				0.7377622127532959,
				0.7377622127532959
			],
			"translation": [
				0.04826344922184944,
				0.18867003917694092,
				-0.10337711125612259
			]
		},
		{
			"mesh": 2,
			"name": "Leaf_024",
			"rotation": [
				0.02438977174460888,
				0.7321626543998718,
				0.09375312179327011,
				0.6742057204246521
			],
			"scale": [
				0.8110153079032898,
				0.8110153079032898,
				0.811015248298645
			],
			"translation": [
				0.04951530694961548,
				0.13205131888389587,
				-0.07329608500003815
			]
		},
		{
			"mesh": 2,
			"name": "Leaf_025",
			"rotation": [
				0.04997925087809563,
				0.8509868383407593,
				0.11481817811727524,
				0.5100394487380981
			],
			"scale": [
				0.6540963053703308,
				0.654096245765686,
				0.654096245765686
			],
			"translation": [
				0.027171898633241653,
				0.23655620217323303,
				-0.08119171857833862
			]
		},
		{
			"mesh": 2,
			"name": "Leaf_026",
			"rotation": [
				0.0999450758099556,
				0.9371469020843506,
				0.09550607204437256,
				0.3203830122947693
			],
			"scale": [
				0.8339707851409912,
				0.8339707255363464,
				0.8339707255363464
			],
			"translation": [
				-0.0789799764752388,
				0.1167389526963234,
				-0.14046327769756317
			]
		},
		{
			"mesh": 2,
			"name": "Leaf_027",
			"rotation": [
				0.050350967794656754,
				0.976427435874939,
				0.060748595744371414,
				0.2009076476097107
			],
			"scale": [
				0.935256838798523,
				0.9352567791938782,
				0.9352567791938782
			],
			"translation": [
				-0.059622470289468765,
				0.04942980408668518,
				-0.09127938747406006
			]
		},
		{
			"mesh": 2,
			"name": "Leaf_028",
			"rotation": [
				0.09656073153018951,
				0.9936624765396118,
				0.056716714054346085,
				0.00970182940363884
			],
			"scale": [
				0.8120190501213074,
				0.8120189905166626,
				0.8120189309120178
			],
			"translation": [
				-0.11673261225223541,
				0.12851108610630035,
				-0.061159346252679825
			]
		},
		{
			"mesh": 2,
			"name": "Leaf_029",
			"rotation": [
				-0.10088728368282318,
				-0.9646899104118347,
				0.005423886235803366,
				0.24324001371860504
			],
			"scale": [
				0.7054079174995422,
				0.7054079174995422,
				0.7054078578948975
			],
			"translation": [
				-0.09665730595588684,
				0.20126503705978394,
				0.031211208552122116
			]
		},
		{
			"mesh": 2,
			"name": "Leaf_030",
			"rotation": [
				-0.15171517431735992,
				-0.8830972909927368,
				0.04313299432396889,
				0.44188371300697327
			],
			"scale": [
				0.9844287037849426,
				0.9844287037849426,
				0.9844287633895874
			],
			"translation": [
				-0.12956592440605164,
				0.030142731964588165,
				0.11170937865972519
			]
		},
		{
			"mesh": 2,
			"name": "Leaf_031",
			"rotation": [
				-0.08129400759935379,
				-0.8042872548103333,
				0.015318808145821095,
				0.58845454454422
			],
			"scale": [
				0.6894238591194153,
				0.6894239187240601,
				0.6894239187240601
			],
			"translation": [
				-0.04747660085558891,
				0.21225307881832123,
				0.04300687834620476
			]
		},
		{
			"mesh": 2,
			"name": "Leaf_032",
			"rotation": [
				-0.1381283700466156,
				-0.6982107758522034,
				0.05439901724457741,
				0.7003307342529297
			],
			"scale": [
				0.9504179954528809,
				0.9504179954528809,
				0.9504180550575256
			],
			"translation": [
				-0.07270103693008423,
				0.05122743174433708,
				0.16249029338359833
			]
		},
		{
			"mesh": 2,
			"name": "Leaf_033",
			"rotation": [
				-0.12052688747644424,
				-0.4943636357784271,
				0.07961331307888031,
				0.857169508934021
			],
			"scale": [
				0.9806314706802368,
				0.9806315302848816,
				0.9806314706802368
			],
			"translation": [
				0.02159867249429226,
				0.025723988190293312,
				0.20116089284420013
			]
		},
		{
			"mesh": 2,
			"name": "Leaf_034",
			"rotation": [
				-0.10664267838001251,
				-0.376956582069397,
				0.10073915868997574,
				0.914539635181427
			],
			"scale": [
				0.799324631690979,
				0.7993246912956238,
				0.7993246912956238
			],
			"translation": [
				0.03143582493066788,
				0.14644105732440948,
				0.1196535974740982
			]
		},
		{
			"mesh": 2,
			"name": "Leaf_035",
			"rotation": [
				-0.015544598922133446,
				-0.17082491517066956,
				0.12751244008541107,
				0.9768919348716736
			],
			"scale": [
				0.6549075245857239,
				0.6549075245857239,
				0.6549075841903687
			],
			"translation": [
				0.10625646263360977,
				0.23503804206848145,
				0.03246582671999931
			]
		},
		{
			"mesh": 2,
			"name": "Leaf_036",
			"rotation": [
				-0.011777044273912907,
				0.05151105672121048,
				0.2726649343967438,
				0.9606570601463318
			],
			"scale": [
				0.6192930936813354,
				0.6192930936813354,
				0.6192930936813354
			],
			"translation": [
				0.19222447276115417,
				0.2987588346004486,
				-0.0003931417013518512
			]
		},
		{
			"mesh": 2,
			"name": "Leaf_037",
			"rotation": [
				0.056015439331531525,
				0.34865593910217285,
				0.26687386631965637,
				0.896704912185669
			],
			"scale": [
				0.88731449842453,
				0.8873144388198853,
				0.88731449842453
			],
			"translation": [
				0.27233943343162537,
				0.1416902095079422,
				-0.18253271281719208
			]
		},
		{
			"mesh": 2,
			"name": "Leaf_038",
			"rotation": [
				0.07791025191545486,
				0.5337986946105957,
				0.19281944632530212,
				0.8196399211883545
			],
			"scale": [
				0.8424579501152039,
				0.8424579501152039,
				0.8424580097198486
			],
			"translation": [
				0.13351257145404816,
				0.13938148319721222,
				-0.19519273936748505
			]
		},
		{
			"mesh": 2,
			"name": "Leaf_039",
			"rotation": [
				0.20109239220619202,
				0.7234728932380676,
				0.1931496262550354,
				0.6315394639968872
			],
			"scale": [
				0.7055532932281494,
				0.7055532932281494,
				0.7055532932281494
			],
			"translation": [
				-0.02249462530016899,
				0.24729615449905396,
				-0.25288090109825134
			]
		},
		{
			"mesh": 2,
			"name": "Leaf_040",
			"rotation": [
				0.14729191362857819,
				0.8797860741615295,
				0.16834492981433868,
				0.41945382952690125
			],
			"scale": [
				0.870879054069519,
				0.8708789944648743,
				0.8708789944648743
			],
			"translation": [
				-0.08426127582788467,
				0.13006693124771118,
				-0.2572280764579773
			]
		},
		{
			"mesh": 2,
			"name": "Leaf_041",
			"rotation": [
				0.2039075493812561,
				0.9272544980049133,
				0.15915992856025696,
				0.2707192897796631
			],
			"scale": [
				0.7523629069328308,
				0.7523629665374756,
				0.7523629665374756
			],
			"translation": [
				-0.15132415294647217,
				0.2136005312204361,
				-0.20313973724842072
			]
		},
		{
			"mesh": 2,
			"name": "Leaf_042",
			"rotation": [
				0.20535050332546234,
				0.9748355150222778,
				0.08670532703399658,
				0.0030153340194374323
			],
			"scale": [
				0.649967610836029,
				0.649967610836029,
				0.649967610836029
			],
			"translation": [
				-0.17614926397800446,
				0.26535555720329285,
				-0.07064543664455414
			]
		},
		{
			"mesh": 2,
			"name": "Leaf_043",
			"rotation": [
				-0.21656334400177002,
				-0.9273048639297485,
				0.04613691568374634,
				0.30179041624069214
			],
			"scale": [
				0.6794578433036804,
				0.6794577836990356,
				0.6794577836990356
			],
			"translation": [
				-0.1413562297821045,
				0.24927130341529846,
				0.07838663458824158
			]
		},
		{
			"mesh": 2,
			"name": "Leaf_044",
			"rotation": [
				-0.21473343670368195,
				-0.8268246054649353,
				0.08938659727573395,
				0.5121138691902161
			],
			"scale": [
				0.8665679693222046,
				0.8665679097175598,
				0.8665679693222046
			],
			"translation": [
				-0.15525299310684204,
				0.13218368589878082,
				0.22032202780246735
			]
		},
		{
			"mesh": 2,
			"name": "Leaf_045",
			"rotation": [
				-0.16598717868328094,
				-0.6295225620269775,
				0.1662026196718216,
				0.7406256198883057
			],
			"scale": [
				0.8011309504508972,
				0.8011308312416077,
				0.8011308312416077
			],
			"translation": [
				0.019630130380392075,
				0.17555288970470428,
				0.24474459886550903
			]
		},
		{
			"mesh": 2,
			"name": "Leaf_046",
			"rotation": [
				-0.1520657241344452,
				-0.44884803891181946,
				0.20158465206623077,
				0.8571903109550476
			],
			"scale": [
				0.7080739140510559,
				0.7080740332603455,
				0.7080739140510559
			],
			"translation": [
				0.09298739582300186,
				0.23593169450759888,
				0.1990717202425003
			]
		},
		{
			"mesh": 2,
			"name": "Leaf_047",
			"rotation": [
				-0.09529218822717667,
				-0.21674267947673798,
				0.23021957278251648,
				0.9438967108726501
			],
			"scale": [
				0.8000817894935608,
				0.8000817894935608,
				0.800081729888916
			],
			"translation": [
				0.21417531371116638,
				0.18117137253284454,
				0.15048708021640778
			]
		},
		{
			"mesh": 2,
			"name": "Leaf_048",
			"rotation": [
				-0.04094855859875679,
				0.0909862294793129,
				0.3535704016685486,
				0.9300713539123535
			],
			"scale": [
				0.8447686433792114,
				0.8447686433792114,
				0.8447686433792114
			],
			"translation": [
				0.3869490623474121,
				0.22586789727210999,
				0.00012696498015429825
			]
		},
		{
			"mesh": 2,
			"name": "Leaf_049",
			"rotation": [
				0.12778021395206451,
				0.44381773471832275,
				0.3344413936138153,
				0.8214907050132751
			],
			"scale": [
				0.8155652284622192,
				0.815565288066864,
				0.815565288066864
			],
			"translation": [
				0.23208381235599518,
				0.23854200541973114,
				-0.26954951882362366
			]
		},
		{
			"mesh": 2,
			"name": "Leaf_050",
			"rotation": [
				0.3040493130683899,
				0.7516739368438721,
				0.22925442457199097,
				0.5385005474090576
			],
			"scale": [
				0.71871417760849,
				0.7187141180038452,
				0.71871417760849
			],
			"translation": [
				-0.10525259375572205,
				0.2975904643535614,
				-0.3382103443145752
			]
		},
		{
			"mesh": 2,
			"name": "Leaf_051",
			"rotation": [
				0.31189852952957153,
				0.9158399105072021,
				0.11243916302919388,
				0.2265259325504303
			],
			"scale": [
				0.8795686364173889,
				0.8795686364173889,
				0.8795687556266785
			],
			"translation": [
				-0.3055058419704437,
				0.187046617269516,
				-0.2033403217792511
			]
		},
		{
			"mesh": 2,
			"name": "Leaf_052",
			"rotation": [
				-0.31973427534103394,
				-0.9320728778839111,
				0.03796752169728279,
				0.16603805124759674
			],
			"scale": [
				0.7263364195823669,
				0.7263365387916565,
				0.7263364195823669
			],
			"translation": [
				-0.2577764689922333,
				0.2616879343986511,
				0.0765867605805397
			]
		},
		{
			"mesh": 2,
			"name": "Leaf_053",
			"rotation": [
				-0.3694905936717987,
				-0.8003815412521362,
				0.12527181208133698,
				0.4551626741886139
			],
			"scale": [
				0.7533408403396606,
				0.7533408403396606,
				0.7533408403396606
			],
			"translation": [
				-0.2339477837085724,
				0.2867133915424347,
				0.2601168751716614
			]
		},
		{
			"mesh": 2,
			"name": "Leaf_054",
			"rotation": [
				-0.2686699628829956,
				-0.6173543930053711,
				0.21259096264839172,
				0.7081631422042847
			],
			"scale": [
				0.8168725967407227,
				0.8168726563453674,
				0.8168725967407227
			],
			"translation": [
				-0.01569664105772972,
				0.22459223866462708,
				0.3444603383541107
			]
		},
		{
			"mesh": 2,
			"name": "Leaf_055",
			"rotation": [
				-0.17157156765460968,
				-0.29083940386772156,
				0.2723199427127838,
				0.9010091423988342
			],
			"scale": [
				0.7984747290611267,
				0.7984746694564819,
				0.7984746694564819
			],
			"translation": [
				0.20904532074928284,
				0.22701135277748108,
				0.24680675566196442
			]
		},
		{
			"mesh": 2,
			"name": "Leaf_056",
			"rotation": [
				0.04653523489832878,
				0.21082496643066406,
				0.37691938877105713,
				0.9007325172424316
			],
			"scale": [
				0.75759357213974,
				0.75759357213974,
				0.7575936317443848
			],
			"translation": [
				0.35603153705596924,
				0.2816706597805023,
				-0.13560537993907928
			]
		},
		{
			"mesh": 2,
			"name": "Leaf_057",
			"rotation": [
				0.32681193947792053,
				0.7197842001914978,
				0.2871079444885254,
				0.5409932732582092
			],
			"scale": [
				0.7296866774559021,
				0.7296866774559021,
				0.7296866774559021
			],
			"translation": [
				-0.08436785638332367,
				0.34194615483283997,
				-0.393571674823761
			]
		},
		{
			"mesh": 2,
			"name": "Leaf_058",
			"rotation": [
				-0.40229925513267517,
				-0.914993166923523,
				-0.030692914500832558,
				0.0008817024063318968
			],
			"scale": [
				0.7063869833946228,
				0.7063869833946228,
				0.7063869833946228
			],
			"translation": [
				-0.3387942910194397,
				0.3210098147392273,
				-0.02566106803715229
			]
		},
		{
			"mesh": 2,
			"name": "Leaf_059",
			"rotation": [
				-0.3241341710090637,
				-0.7247070074081421,
				0.22282075881958008,
				0.565762996673584
			],
			"scale": [
				0.7832457423210144,
				0.7832456827163696,
				0.7832456827163696
			],
			"translation": [
				-0.11944375932216644,
				0.2805712819099426,
				0.38018879294395447
			]
		},
		{
			"mesh": 2,
			"name": "Leaf_060",
			"rotation": [
				-0.1434727907180786,
				-0.2862808406352997,
				0.34403762221336365,
				0.882664680480957
			],
			"scale": [
				0.8060153722763062,
				0.8060153126716614,
				0.8060153722763062
			],
			"translation": [
				0.28615859150886536,
				0.2537904381752014,
				0.24461787939071655
			]
		}
	],
	"materials": [
		{
			"doubleSided": true,
			"extensions": {
				"KHR_materials_specular": {
					"specularFactor": 0.6000000238418579
				}
			},
			"name": "PotMat",
			"pbrMetallicRoughness": {
				"baseColorTexture": {
					"index": 0
				},
				"metallicFactor": 0,
				"roughnessFactor": 0.8500000238418579
			}
		},
		{
			"doubleSided": true,
			"extensions": {
				"KHR_materials_specular": {
					"specularFactor": 0.6000000238418579
				}
			},
			"name": "SoilMat",
			"pbrMetallicRoughness": {
				"baseColorTexture": {
					"index": 1
				},
				"metallicFactor": 0,
				"roughnessFactor": 0.8500000238418579
			}
		},
		{
			"alphaMode": "BLEND",
			"doubleSided": true,
			"extensions": {
				"KHR_materials_specular": {
					"specularFactor": 0.6000000238418579
				}
			},
			"name": "LeafMat",
			"pbrMetallicRoughness": {
				"baseColorTexture": {
					"index": 3
				},
				"metallicFactor": 0,
				"roughnessFactor": 0.8500000238418579
			}
		}
	],
	"meshes": [
		{
			"name": "Pot.001",
			"primitives": [
				{
					"attributes": {
						"POSITION": 0,
						"NORMAL": 1,
						"TEXCOORD_0": 2
					},
					"indices": 3,
					"material": 0
				}
			]
		},
		{
			"name": "Soil.001",
			"primitives": [
				{
					"attributes": {
						"POSITION": 4,
						"NORMAL": 5,
						"TEXCOORD_0": 6
					},
					"indices": 7,
					"material": 1
				}
			]
		},
		{
			"name": "Leaf_000",
			"primitives": [
				{
					"attributes": {
						"POSITION": 8,
						"NORMAL": 9,
						"TEXCOORD_0": 10
					},
					"indices": 11,
					"material": 2
				}
			]
		}
	],
	"textures": [
		{
			"sampler": 0,
			"source": 0
		},
		{
			"sampler": 0,
			"source": 1
		},
		{
			"sampler": 1,
			"source": 2
		},
		{
			"sampler": 1,
			"source": 2
		}
	],
	"images": [
		{
			"mimeType": "image/png",
			"name": "PotTex",
			"uri": "haworthia/PotTex.png"
		},
		{
			"mimeType": "image/png",
			"name": "SoilTex",
			"uri": "haworthia/SoilTex.png"
		},
		{
			"mimeType": "image/png",
			"name": "LeafTex",
			"uri": "haworthia/LeafTex.png"
		}
	],
	"accessors": [
		{
			"bufferView": 0,
			"componentType": 5126,
			"count": 376,
			"max": [
				0.6600000262260437,
				0.7000000476837158,
				0.6600000262260437
			],
			"min": [
				-0.6600000262260437,
				0,
				-0.6600000262260437
			],
			"type": "VEC3"
		},
		{
			"bufferView": 1,
			"componentType": 5126,
			"count": 376,
			"type": "VEC3"
		},
		{
			"bufferView": 2,
			"componentType": 5126,
			"count": 376,
			"type": "VEC2"
		},
		{
			"bufferView": 3,
			"componentType": 5123,
			"count": 564,
			"type": "SCALAR"
		},
		{
			"bufferView": 4,
			"componentType": 5126,
			"count": 56,
			"max": [
				0.5081343054771423,
				0.6600000262260437,
				0.5081343054771423
			],
			"min": [
				-0.5081343054771423,
				0.64000004529953,
				-0.5081343054771423
			],
			"type": "VEC3"
		},
		{
			"bufferView": 5,
			"componentType": 5126,
			"count": 56,
			"type": "VEC3"
		},
		{
			"bufferView": 6,
			"componentType": 5126,
			"count": 56,
			"type": "VEC2"
		},
		{
			"bufferView": 7,
			"componentType": 5123,
			"count": 72,
			"type": "SCALAR"
		},
		{
			"bufferView": 8,
			"componentType": 5126,
			"count": 64,
			"max": [
				0.7874107360839844,
				1.0648698806762695,
				0.1484709233045578
			],
			"min": [
				0.03884623944759369,
				0.6555723547935486,
				-0.14456962049007416
			],
			"type": "VEC3"
		},
		{
			"bufferView": 9,
			"componentType": 5126,
			"count": 64,
			"type": "VEC3"
		},
		{
			"bufferView": 10,
			"componentType": 5126,
			"count": 64,
			"type": "VEC2"
		},
		{
			"bufferView": 11,
			"componentType": 5123,
			"count": 96,
			"type": "SCALAR"
		}
	],
	"bufferViews": [
		{
			"buffer": 0,
			"byteLength": 4512,
			"byteOffset": 0,
			"target": 34962
		},
		{
			"buffer": 0,
			"byteLength": 4512,
			"byteOffset": 4512,
			"target": 34962
		},
		{
			"buffer": 0,
			"byteLength": 3008,
			"byteOffset": 9024,
			"target": 34962
		},
		{
			"buffer": 0,
			"byteLength": 1128,
			"byteOffset": 12032,
			"target": 34963
		},
		{
			"buffer": 0,
			"byteLength": 672,
			"byteOffset": 13160,
			"target": 34962
		},
		{
			"buffer": 0,
			"byteLength": 672,
			"byteOffset": 13832,
			"target": 34962
		},
		{
			"buffer": 0,
			"byteLength": 448,
			"byteOffset": 14504,
			"target": 34962
		},
		{
			"buffer": 0,
			"byteLength": 144,
			"byteOffset": 14952,
			"target": 34963
		},
		{
			"buffer": 0,
			"byteLength": 768,
			"byteOffset": 15096,
			"target": 34962
		},
		{
			"buffer": 0,
			"byteLength": 768,
			"byteOffset": 15864,
			"target": 34962
		},
		{
			"buffer": 0,
			"byteLength": 512,
			"byteOffset": 16632,
			"target": 34962
		},
		{
			"buffer": 0,
			"byteLength": 192,
			"byteOffset": 17144,
			"target": 34963
		}
	],
	"samplers": [
		{
			"magFilter": 9728,
			"minFilter": 9984
		},
		{
			"magFilter": 9728,
			"minFilter": 9984,
			"wrapS": 33071,
			"wrapT": 33071
		}
	],
	"buffers": [
		{
			"byteLength": 17336,
			"uri": "plant_haworthia.bin"
		}
	]
}