{
	"asset":{
		"generator":"Khronos glTF Blender I/O v5.1.19",
		"version":"2.0"
	},
	"extensionsUsed":[
		"KHR_materials_specular"
	],
	"scene":0,
	"scenes":[
		{
			"name":"Scene",
			"nodes":[
				0,
				1,
				2,
				3,
				4,
				5,
				6,
				7,
				8,
				9,
				10,
				11,
				12,
				13,
				14,
				15,
				16,
				17,
				18,
				19,
				20,
				21,
				22,
				23,
				24,
				25,
				26,
				27,
				28,
				29,
				30,
				31,
				32,
				33,
				34,
				35,
				36,
				37,
				38,
				39,
				40,
				41,
				42,
				43,
				44,
				45,
				46,
				47,
				48,
				49,
				50,
				51,
				52,
				53,
				54,
				55,
				56,
				57,
				58,
				59,
				60,
				61,
				62
			]
		}
	],
	"nodes":[
		{
			"mesh":0,
			"name":"Pot"
		},
		{
			"mesh":1,
			"name":"Soil"
		},
		{
			"mesh":2,
			"name":"PlantBase"
		},
		{
			"mesh":3,
			"name":"Stem_000"
		},
		{
			"mesh":4,
			"name":"Leaf_000",
			"rotation":[
				-0.06179087236523628,
				-0.6563506126403809,
				-0.07996689528226852,
				0.747657060623169
			],
			"scale":[
				0.4799349904060364,
				0.479934960603714,
				0.47993502020835876
			],
			"translation":[
				0.2892495393753052,
				3.406872034072876,
				-0.0014767718967050314
			]
		},
		{
			"mesh":5,
			"name":"Stem_001"
		},
		{
			"mesh":4,
			"name":"Leaf_001",
			"rotation":[
				-0.20391163229942322,
				-0.3617151379585266,
				-0.11440663039684296,
				0.9024928212165833
			],
			"scale":[
				0.31615057587623596,
				0.31615057587623596,
				0.31615057587623596
			],
			"translation":[
				0.2696532607078552,
				3.0113203525543213,
				-0.233722522854805
			]
		},
		{
			"mesh":6,
			"name":"Stem_002"
		},
		{
			"mesh":4,
			"name":"Leaf_002",
			"rotation":[
				-0.20295102894306183,
				0.08718901127576828,
				-0.009910737164318562,
				0.9752490520477295
			],
			"scale":[
				0.38366633653640747,
				0.38366639614105225,
				0.38366639614105225
			],
			"translation":[
				0.04383604973554611,
				3.3604023456573486,
				-0.40169331431388855
			]
		},
		{
			"mesh":7,
			"name":"Stem_003"
		},
		{
			"mesh":4,
			"name":"Leaf_003",
			"rotation":[
				-0.3961593806743622,
				0.25012996792793274,
				0.18126033246517181,
				0.8646603226661682
			],
			"scale":[
				0.4154757261276245,
				0.4154756963253021,
				0.4154756963253021
			],
			"translation":[
				-0.2968024015426636,
				2.9817569255828857,
				-0.2829955220222473
			]
		},
		{
			"mesh":8,
			"name":"Stem_004"
		},
		{
			"mesh":4,
			"name":"Leaf_004",
			"rotation":[
				-0.24208439886569977,
				0.7439581155776978,
				0.35161375999450684,
				0.5140907168388367
			],
			"scale":[
				0.429118275642395,
				0.42911821603775024,
				0.429118275642395
			],
			"translation":[
				-0.2892138957977295,
				2.9893476963043213,
				-0.0023787477985024452
			]
		},
		{
			"mesh":9,
			"name":"Stem_005"
		},
		{
			"mesh":4,
			"name":"Leaf_005",
			"rotation":[
				-0.01139737106859684,
				-0.9920123815536499,
				-0.12562426924705505,
				0.0002707654202822596
			],
			"scale":[
				0.388818621635437,
				0.388818621635437,
				0.388818621635437
			],
			"translation":[
				-0.09415680170059204,
				3.034950017929077,
				0.1271265596151352
			]
		},
		{
			"mesh":10,
			"name":"Stem_006"
		},
		{
			"mesh":4,
			"name":"Leaf_006",
			"rotation":[
				-0.05753427371382713,
				0.8648782968521118,
				0.46109408140182495,
				0.1899147778749466
			],
			"scale":[
				0.4475303292274475,
				0.4475302994251251,
				0.4475302994251251
			],
			"translation":[
				0.010778692550957203,
				2.8800771236419678,
				0.34031614661216736
			]
		},
		{
			"mesh":11,
			"name":"Stem_007"
		},
		{
			"mesh":4,
			"name":"Leaf_007",
			"rotation":[
				-0.05803782865405083,
				-0.9525556564331055,
				-0.19271957874298096,
				0.22831709682941437
			],
			"scale":[
				0.45080697536468506,
				0.45080679655075073,
				0.45080697536468506
			],
			"translation":[
				0.1753491312265396,
				2.9029014110565186,
				0.33160361647605896
			]
		},
		{
			"mesh":12,
			"name":"Stem_008"
		},
		{
			"mesh":4,
			"name":"Leaf_008",
			"rotation":[
				-0.2027485966682434,
				-0.6328670978546143,
				-0.6545125246047974,
				0.3605351150035858
			],
			"scale":[
				0.4217143654823303,
				0.4217143654823303,
				0.4217143654823303
			],
			"translation":[
				0.9081926345825195,
				1.978895902633667,
				0.7899870276451111
			]
		},
		{
			"mesh":13,
			"name":"Stem_009"
		},
		{
			"mesh":4,
			"name":"Leaf_009",
			"rotation":[
				0.8592302799224854,
				-0.0015131246764212847,
				-0.21166807413101196,
				0.4657441973686218
			],
			"scale":[
				0.6055488586425781,
				0.6055488586425781,
				0.6055489182472229
			],
			"translation":[
				0.2621004581451416,
				1.4065074920654297,
				1.4315534830093384
			]
		},
		{
			"mesh":14,
			"name":"Stem_010"
		},
		{
			"mesh":4,
			"name":"Leaf_010",
			"rotation":[
				0.6878701448440552,
				-0.37846672534942627,
				0.21315741539001465,
				0.5815165638923645
			],
			"scale":[
				0.602199912071228,
				0.6022000312805176,
				0.6021999716758728
			],
			"translation":[
				-0.8457446694374084,
				1.9961680173873901,
				0.5738570690155029
			]
		},
		{
			"mesh":15,
			"name":"Stem_011"
		},
		{
			"mesh":4,
			"name":"Leaf_011",
			"rotation":[
				-0.06889810413122177,
				-0.8025022149085999,
				-0.22131161391735077,
				0.5497860312461853
			],
			"scale":[
				0.18523409962654114,
				0.18523409962654114,
				0.18523412942886353
			],
			"translation":[
				0.20763686299324036,
				2.2242579460144043,
				0.23758085072040558
			]
		},
		{
			"mesh":16,
			"name":"Stem_012"
		},
		{
			"mesh":4,
			"name":"Leaf_012",
			"rotation":[
				0.09092196822166443,
				0.7753620147705078,
				0.6211590766906738,
				0.06861741095781326
			],
			"scale":[
				0.283547580242157,
				0.2835475504398346,
				0.2835475504398346
			],
			"translation":[
				0.07200362533330917,
				2.3031604290008545,
				1.288930892944336
			]
		},
		{
			"mesh":17,
			"name":"Stem_014"
		},
		{
			"mesh":4,
			"name":"Leaf_014",
			"rotation":[
				0.6595434546470642,
				0.1985498070716858,
				-0.6174185872077942,
				0.379966676235199
			],
			"scale":[
				0.59560626745224,
				0.5956062078475952,
				0.59560626745224
			],
			"translation":[
				1.4846694469451904,
				1.3414061069488525,
				0.41839799284935
			]
		},
		{
			"mesh":18,
			"name":"Stem_015"
		},
		{
			"mesh":4,
			"name":"Leaf_015",
			"rotation":[
				0.6165652871131897,
				-0.24783064424991608,
				0.6187065243721008,
				0.41908180713653564
			],
			"scale":[
				0.4022975265979767,
				0.4022975564002991,
				0.4022975265979767
			],
			"translation":[
				-1.5016237497329712,
				1.1805015802383423,
				0.34683167934417725
			]
		},
		{
			"mesh":19,
			"name":"Stem_016"
		},
		{
			"mesh":4,
			"name":"Leaf_016",
			"rotation":[
				0.4307376742362976,
				0.3704254925251007,
				-0.7767764925956726,
				0.27178722620010376
			],
			"scale":[
				0.4399780333042145,
				0.43997806310653687,
				0.43997806310653687
			],
			"translation":[
				1.0987184047698975,
				1.6730529069900513,
				-0.5734772086143494
			]
		},
		{
			"mesh":20,
			"name":"Stem_017"
		},
		{
			"mesh":4,
			"name":"Leaf_017",
			"rotation":[
				0.14856359362602234,
				-0.5970149636268616,
				0.7568970918655396,
				0.22047404944896698
			],
			"scale":[
				0.2875063121318817,
				0.2875063121318817,
				0.2875063419342041
			],
			"translation":[
				-0.7035209536552429,
				1.8800591230392456,
				-0.9672362804412842
			]
		},
		{
			"mesh":21,
			"name":"Stem_018"
		},
		{
			"mesh":4,
			"name":"Leaf_018",
			"rotation":[
				0.19810405373573303,
				0.49716904759407043,
				-0.8272639513015747,
				0.17091548442840576
			],
			"scale":[
				0.5519992709159851,
				0.5519992709159851,
				0.5519992709159851
			],
			"translation":[
				0.7335357666015625,
				1.4713764190673828,
				-1.1470670700073242
			]
		},
		{
			"mesh":22,
			"name":"Stem_019"
		},
		{
			"mesh":4,
			"name":"Leaf_019",
			"rotation":[
				-0.08663304150104523,
				0.9371856451034546,
				0.3378678560256958,
				0.004813397768884897
			],
			"scale":[
				0.19549722969532013,
				0.19549718499183655,
				0.19549719989299774
			],
			"translation":[
				-0.20404212176799774,
				2.373380184173584,
				0.3952891230583191
			]
		},
		{
			"mesh":23,
			"name":"Stem_020"
		},
		{
			"mesh":4,
			"name":"Leaf_020",
			"rotation":[
				-0.31933876872062683,
				-0.06110091134905815,
				-0.09910020232200623,
				0.9404618740081787
			],
			"scale":[
				0.30112719535827637,
				0.30112719535827637,
				0.30112719535827637
			],
			"translation":[
				0.10433667153120041,
				2.3881723880767822,
				-0.43973588943481445
			]
		},
		{
			"mesh":24,
			"name":"Stem_021"
		},
		{
			"mesh":4,
			"name":"Leaf_021",
			"rotation":[
				-0.3248286843299866,
				-0.6667019724845886,
				-0.2478296309709549,
				0.6233581304550171
			],
			"scale":[
				0.3172340393066406,
				0.31723400950431824,
				0.3172340393066406
			],
			"translation":[
				0.9239138960838318,
				2.5506324768066406,
				-0.16765370965003967
			]
		},
		{
			"mesh":25,
			"name":"Stem_022"
		},
		{
			"mesh":4,
			"name":"Leaf_022",
			"rotation":[
				0.49355629086494446,
				-0.5225056409835815,
				0.6028813719749451,
				0.34630054235458374
			],
			"scale":[
				0.5490973591804504,
				0.5490972995758057,
				0.5490972399711609
			],
			"translation":[
				-0.7380869388580322,
				2.304446220397949,
				-0.19173485040664673
			]
		},
		{
			"mesh":26,
			"name":"Stem_024"
		},
		{
			"mesh":4,
			"name":"Leaf_024",
			"rotation":[
				-0.5253969430923462,
				-0.20091640949249268,
				-0.11357114464044571,
				0.8189581632614136
			],
			"scale":[
				0.31946879625320435,
				0.31946879625320435,
				0.31946879625320435
			],
			"translation":[
				0.6003329753875732,
				2.217742681503296,
				-1.0122421979904175
			]
		},
		{
			"mesh":27,
			"name":"Stem_025"
		},
		{
			"mesh":4,
			"name":"Leaf_025",
			"rotation":[
				0.12377603352069855,
				-0.43934330344200134,
				0.8872244954109192,
				0.06700490415096283
			],
			"scale":[
				0.4935866594314575,
				0.49358662962913513,
				0.4935866594314575
			],
			"translation":[
				-0.3784008026123047,
				1.4769999980926514,
				-1.3685797452926636
			]
		},
		{
			"mesh":28,
			"name":"Stem_026"
		},
		{
			"mesh":4,
			"name":"Leaf_026",
			"rotation":[
				0.8581627011299133,
				-0.15764231979846954,
				0.09460154175758362,
				0.4793289303779602
			],
			"scale":[
				0.6454653739929199,
				0.6454653739929199,
				0.6454653739929199
			],
			"translation":[
				-0.6539407968521118,
				1.1795978546142578,
				1.3887693881988525
			]
		},
		{
			"mesh":29,
			"name":"Stem_028"
		},
		{
			"mesh":4,
			"name":"Leaf_028",
			"rotation":[
				-0.25602126121520996,
				-0.7543352842330933,
				-0.3959697484970093,
				0.45677056908607483
			],
			"scale":[
				0.17873439192771912,
				0.17873439192771912,
				0.17873439192771912
			],
			"translation":[
				0.4827575087547302,
				2.2597458362579346,
				0.14336885511875153
			]
		},
		{
			"mesh":30,
			"name":"Stem_029"
		},
		{
			"mesh":4,
			"name":"Leaf_029",
			"rotation":[
				-0.5346192717552185,
				0.2168191820383072,
				0.3303757309913635,
				0.7470097541809082
			],
			"scale":[
				0.1971607655286789,
				0.1971607804298401,
				0.1971607655286789
			],
			"translation":[
				-0.31508198380470276,
				1.867396593093872,
				-0.4053173065185547
			]
		},
		{
			"mesh":31,
			"name":"Stem_030"
		},
		{
			"mesh":4,
			"name":"Leaf_030",
			"rotation":[
				-0.6002046465873718,
				-0.03962533548474312,
				-0.03563287854194641,
				0.7980693578720093
			],
			"scale":[
				0.36698654294013977,
				0.36698657274246216,
				0.36698660254478455
			],
			"translation":[
				0.12148696184158325,
				2.0996339321136475,
				-0.8575639724731445
			]
		},
		{
			"mesh":32,
			"name":"Stem_031"
		},
		{
			"mesh":4,
			"name":"Leaf_031",
			"rotation":[
				-0.47767940163612366,
				-0.30383193492889404,
				-0.24300679564476013,
				0.7876904606819153
			],
			"scale":[
				0.30874010920524597,
				0.30874013900756836,
				0.30874016880989075
			],
			"translation":[
				0.869210422039032,
				2.207775592803955,
				-0.6739789843559265
			]
		},
		{
			"mesh":33,
			"name":"Stem_032"
		},
		{
			"mesh":4,
			"name":"Leaf_032",
			"rotation":[
				0.4250360131263733,
				-0.3540412187576294,
				0.7849311232566833,
				0.27907413244247437
			],
			"scale":[
				0.37844961881637573,
				0.37844955921173096,
				0.37844955921173096
			],
			"translation":[
				-1.2631981372833252,
				1.3304928541183472,
				-0.5227820873260498
			]
		}
	],
	"materials":[
		{
			"doubleSided":true,
			"extensions":{
				"KHR_materials_specular":{
					"specularFactor":0.30000001192092896
				}
			},
			"name":"PotMat",
			"pbrMetallicRoughness":{
				"baseColorTexture":{
					"index":0
				},
				"metallicFactor":0,
				"roughnessFactor":0.8500000238418579
			}
		},
		{
			"doubleSided":true,
			"extensions":{
				"KHR_materials_specular":{
					"specularFactor":0.30000001192092896
				}
			},
			"name":"SoilMat",
			"pbrMetallicRoughness":{
				"baseColorTexture":{
					"index":1
				},
				"metallicFactor":0,
				"roughnessFactor":0.8500000238418579
			}
		},
		{
			"doubleSided":true,
			"extensions":{
				"KHR_materials_specular":{
					"specularFactor":0.30000001192092896
				}
			},
			"name":"StemMat",
			"pbrMetallicRoughness":{
				"baseColorTexture":{
					"index":2
				},
				"metallicFactor":0,
				"roughnessFactor":0.8500000238418579
			}
		},
		{
			"alphaMode":"BLEND",
			"doubleSided":true,
			"extensions":{
				"KHR_materials_specular":{
					"specularFactor":0.8999999761581421
				}
			},
			"name":"LeafMat",
			"pbrMetallicRoughness":{
				"baseColorTexture":{
					"index":3
				},
				"metallicFactor":0,
				"roughnessFactor":0.44999998807907104
			}
		}
	],
	"meshes":[
		{
			"name":"Pot.001",
			"primitives":[
				{
					"attributes":{
						"POSITION":0,
						"NORMAL":1,
						"TEXCOORD_0":2
					},
					"indices":3,
					"material":0
				}
			]
		},
		{
			"name":"Soil.001",
			"primitives":[
				{
					"attributes":{
						"POSITION":4,
						"NORMAL":5,
						"TEXCOORD_0":6
					},
					"indices":7,
					"material":1
				}
			]
		},
		{
			"name":"PlantBase",
			"primitives":[
				{
					"attributes":{
						"POSITION":8,
						"NORMAL":9,
						"TEXCOORD_0":10
					},
					"indices":11,
					"material":2
				}
			]
		},
		{
			"name":"Stem_000",
			"primitives":[
				{
					"attributes":{
						"POSITION":12,
						"NORMAL":13,
						"TEXCOORD_0":14
					},
					"indices":15,
					"material":2
				}
			]
		},
		{
			"name":"Leaf",
			"primitives":[
				{
					"attributes":{
						"POSITION":16,
						"NORMAL":17,
						"TEXCOORD_0":18
					},
					"indices":19,
					"material":3
				}
			]
		},
		{
			"name":"Stem_001.001",
			"primitives":[
				{
					"attributes":{
						"POSITION":20,
						"NORMAL":21,
						"TEXCOORD_0":22
					},
					"indices":23,
					"material":2
				}
			]
		},
		{
			"name":"Stem_002",
			"primitives":[
				{
					"attributes":{
						"POSITION":24,
						"NORMAL":25,
						"TEXCOORD_0":26
					},
					"indices":27,
					"material":2
				}
			]
		},
		{
			"name":"Stem_003.003",
			"primitives":[
				{
					"attributes":{
						"POSITION":28,
						"NORMAL":29,
						"TEXCOORD_0":30
					},
					"indices":31,
					"material":2
				}
			]
		},
		{
			"name":"Stem_004",
			"primitives":[
				{
					"attributes":{
						"POSITION":32,
						"NORMAL":33,
						"TEXCOORD_0":34
					},
					"indices":35,
					"material":2
				}
			]
		},
		{
			"name":"Stem_005.022",
			"primitives":[
				{
					"attributes":{
						"POSITION":36,
						"NORMAL":37,
						"TEXCOORD_0":38
					},
					"indices":39,
					"material":2
				}
			]
		},
		{
			"name":"Stem_006.008",
			"primitives":[
				{
					"attributes":{
						"POSITION":40,
						"NORMAL":41,
						"TEXCOORD_0":42
					},
					"indices":43,
					"material":2
				}
			]
		},
		{
			"name":"Stem_007.026",
			"primitives":[
				{
					"attributes":{
						"POSITION":44,
						"NORMAL":45,
						"TEXCOORD_0":46
					},
					"indices":47,
					"material":2
				}
			]
		},
		{
			"name":"Stem_008.001",
			"primitives":[
				{
					"attributes":{
						"POSITION":48,
						"NORMAL":49,
						"TEXCOORD_0":50
					},
					"indices":51,
					"material":2
				}
			]
		},
		{
			"name":"Stem_009",
			"primitives":[
				{
					"attributes":{
						"POSITION":52,
						"NORMAL":53,
						"TEXCOORD_0":54
					},
					"indices":55,
					"material":2
				}
			]
		},
		{
			"name":"Stem_010",
			"primitives":[
				{
					"attributes":{
						"POSITION":56,
						"NORMAL":57,
						"TEXCOORD_0":58
					},
					"indices":59,
					"material":2
				}
			]
		},
		{
			"name":"Stem_011.004",
			"primitives":[
				{
					"attributes":{
						"POSITION":60,
						"NORMAL":61,
						"TEXCOORD_0":62
					},
					"indices":63,
					"material":2
				}
			]
		},
		{
			"name":"Stem_012.001",
			"primitives":[
				{
					"attributes":{
						"POSITION":64,
						"NORMAL":65,
						"TEXCOORD_0":66
					},
					"indices":67,
					"material":2
				}
			]
		},
		{
			"name":"Stem_014.001",
			"primitives":[
				{
					"attributes":{
						"POSITION":68,
						"NORMAL":69,
						"TEXCOORD_0":70
					},
					"indices":71,
					"material":2
				}
			]
		},
		{
			"name":"Stem_015.005",
			"primitives":[
				{
					"attributes":{
						"POSITION":72,
						"NORMAL":73,
						"TEXCOORD_0":74
					},
					"indices":75,
					"material":2
				}
			]
		},
		{
			"name":"Stem_016.001",
			"primitives":[
				{
					"attributes":{
						"POSITION":76,
						"NORMAL":77,
						"TEXCOORD_0":78
					},
					"indices":79,
					"material":2
				}
			]
		},
		{
			"name":"Stem_017",
			"primitives":[
				{
					"attributes":{
						"POSITION":80,
						"NORMAL":81,
						"TEXCOORD_0":82
					},
					"indices":83,
					"material":2
				}
			]
		},
		{
			"name":"Stem_018",
			"primitives":[
				{
					"attributes":{
						"POSITION":84,
						"NORMAL":85,
						"TEXCOORD_0":86
					},
					"indices":87,
					"material":2
				}
			]
		},
		{
			"name":"Stem_019.011",
			"primitives":[
				{
					"attributes":{
						"POSITION":88,
						"NORMAL":89,
						"TEXCOORD_0":90
					},
					"indices":91,
					"material":2
				}
			]
		},
		{
			"name":"Stem_020.002",
			"primitives":[
				{
					"attributes":{
						"POSITION":92,
						"NORMAL":93,
						"TEXCOORD_0":94
					},
					"indices":95,
					"material":2
				}
			]
		},
		{
			"name":"Stem_021.001",
			"primitives":[
				{
					"attributes":{
						"POSITION":96,
						"NORMAL":97,
						"TEXCOORD_0":98
					},
					"indices":99,
					"material":2
				}
			]
		},
		{
			"name":"Stem_022",
			"primitives":[
				{
					"attributes":{
						"POSITION":100,
						"NORMAL":101,
						"TEXCOORD_0":102
					},
					"indices":103,
					"material":2
				}
			]
		},
		{
			"name":"Stem_024.013",
			"primitives":[
				{
					"attributes":{
						"POSITION":104,
						"NORMAL":105,
						"TEXCOORD_0":106
					},
					"indices":107,
					"material":2
				}
			]
		},
		{
			"name":"Stem_025.002",
			"primitives":[
				{
					"attributes":{
						"POSITION":108,
						"NORMAL":109,
						"TEXCOORD_0":110
					},
					"indices":111,
					"material":2
				}
			]
		},
		{
			"name":"Stem_026",
			"primitives":[
				{
					"attributes":{
						"POSITION":112,
						"NORMAL":113,
						"TEXCOORD_0":114
					},
					"indices":115,
					"material":2
				}
			]
		},
		{
			"name":"Stem_028.006",
			"primitives":[
				{
					"attributes":{
						"POSITION":116,
						"NORMAL":117,
						"TEXCOORD_0":118
					},
					"indices":119,
					"material":2
				}
			]
		},
		{
			"name":"Stem_029.013",
			"primitives":[
				{
					"attributes":{
						"POSITION":120,
						"NORMAL":121,
						"TEXCOORD_0":122
					},
					"indices":123,
					"material":2
				}
			]
		},
		{
			"name":"Stem_030.024",
			"primitives":[
				{
					"attributes":{
						"POSITION":124,
						"NORMAL":125,
						"TEXCOORD_0":126
					},
					"indices":127,
					"material":2
				}
			]
		},
		{
			"name":"Stem_031.018",
			"primitives":[
				{
					"attributes":{
						"POSITION":128,
						"NORMAL":129,
						"TEXCOORD_0":130
					},
					"indices":131,
					"material":2
				}
			]
		},
		{
			"name":"Stem_032",
			"primitives":[
				{
					"attributes":{
						"POSITION":132,
						"NORMAL":133,
						"TEXCOORD_0":134
					},
					"indices":135,
					"material":2
				}
			]
		}
	],
	"textures":[
		{
			"sampler":0,
			"source":0
		},
		{
			"sampler":0,
			"source":1
		},
		{
			"sampler":0,
			"source":2
		},
		{
			"sampler":0,
			"source":3
		}
	],
	"images":[
		{
			"mimeType":"image/png",
			"name":"PotTex",
			"uri":"pilea/PotTex.png"
		},
		{
			"mimeType":"image/png",
			"name":"SoilTex",
			"uri":"pilea/SoilTex.png"
		},
		{
			"mimeType":"image/png",
			"name":"StemTex",
			"uri":"pilea/StemTex.png"
		},
		{
			"mimeType":"image/png",
			"name":"LeafTex",
			"uri":"pilea/LeafTex.png"
		}
	],
	"accessors":[
		{
			"bufferView":0,
			"componentType":5126,
			"count":451,
			"max":[
				1.2000000476837158,
				1.5500000715255737,
				1.2000000476837158
			],
			"min":[
				-1.2000000476837158,
				0,
				-1.2000000476837158
			],
			"type":"VEC3"
		},
		{
			"bufferView":1,
			"componentType":5126,
			"count":451,
			"type":"VEC3"
		},
		{
			"bufferView":2,
			"componentType":5126,
			"count":451,
			"type":"VEC2"
		},
		{
			"bufferView":3,
			"componentType":5123,
			"count":651,
			"type":"SCALAR"
		},
		{
			"bufferView":4,
			"componentType":5126,
			"count":58,
			"max":[
				0.7852979302406311,
				1.4600001573562622,
				0.7852979302406311
			],
			"min":[
				-0.7852979302406311,
				1.440000057220459,
				-0.7852979302406311
			],
			"type":"VEC3"
		},
		{
			"bufferView":5,
			"componentType":5126,
			"count":58,
			"type":"VEC3"
		},
		{
			"bufferView":6,
			"componentType":5126,
			"count":58,
			"type":"VEC2"
		},
		{
			"bufferView":7,
			"componentType":5123,
			"count":72,
			"type":"SCALAR"
		},
		{
			"bufferView":8,
			"componentType":5126,
			"count":48,
			"max":[
				0.20000000298023224,
				1.7799999713897705,
				0.20000000298023224
			],
			"min":[
				-0.20000000298023224,
				1.4500000476837158,
				-0.20000000298023224
			],
			"type":"VEC3"
		},
		{
			"bufferView":9,
			"componentType":5126,
			"count":48,
			"type":"VEC3"
		},
		{
			"bufferView":10,
			"componentType":5126,
			"count":48,
			"type":"VEC2"
		},
		{
			"bufferView":11,
			"componentType":5123,
			"count":84,
			"type":"SCALAR"
		},
		{
			"bufferView":12,
			"componentType":5126,
			"count":132,
			"max":[
				0.29606589674949646,
				3.3905537128448486,
				0.032248202711343765
			],
			"min":[
				0.07274360954761505,
				1.725295901298523,
				-0.019839702174067497
			],
			"type":"VEC3"
		},
		{
			"bufferView":13,
			"componentType":5126,
			"count":132,
			"type":"VEC3"
		},
		{
			"bufferView":14,
			"componentType":5126,
			"count":132,
			"type":"VEC2"
		},
		{
			"bufferView":15,
			"componentType":5123,
			"count":204,
			"type":"SCALAR"
		},
		{
			"bufferView":16,
			"componentType":5126,
			"count":4,
			"max":[
				0.9240000247955322,
				0,
				0.6039999723434448
			],
			"min":[
				-0.9240000247955322,
				0,
				-1.24399995803833
			],
			"type":"VEC3"
		},
		{
			"bufferView":17,
			"componentType":5126,
			"count":4,
			"type":"VEC3"
		},
		{
			"bufferView":18,
			"componentType":5126,
			"count":4,
			"type":"VEC2"
		},
		{
			"bufferView":19,
			"componentType":5123,
			"count":6,
			"type":"SCALAR"
		},
		{
			"bufferView":20,
			"componentType":5126,
			"count":132,
			"max":[
				0.2729697823524475,
				3.0063693523406982,
				-0.08392514288425446
			],
			"min":[
				0.08606649190187454,
				1.733764410018921,
				-0.23869992792606354
			],
			"type":"VEC3"
		},
		{
			"bufferView":21,
			"componentType":5126,
			"count":132,
			"type":"VEC3"
		},
		{
			"bufferView":22,
			"componentType":5126,
			"count":132,
			"type":"VEC2"
		},
		{
			"bufferView":23,
			"componentType":5123,
			"count":204,
			"type":"SCALAR"
		},
		{
			"bufferView":24,
			"componentType":5126,
			"count":132,
			"max":[
				0.05608844757080078,
				3.349963665008545,
				-0.09903135895729065
			],
			"min":[
				-0.01593586429953575,
				1.7655225992202759,
				-0.4003217816352844
			],
			"type":"VEC3"
		},
		{
			"bufferView":25,
			"componentType":5126,
			"count":132,
			"type":"VEC3"
		},
		{
			"bufferView":26,
			"componentType":5126,
			"count":132,
			"type":"VEC2"
		},
		{
			"bufferView":27,
			"componentType":5123,
			"count":204,
			"type":"SCALAR"
		},
		{
			"bufferView":28,
			"componentType":5126,
			"count":132,
			"max":[
				-0.05003739520907402,
				2.990818738937378,
				-0.05071382224559784
			],
			"min":[
				-0.29642027616500854,
				1.7193794250488281,
				-0.2797990143299103
			],
			"type":"VEC3"
		},
		{
			"bufferView":29,
			"componentType":5126,
			"count":132,
			"type":"VEC3"
		},
		{
			"bufferView":30,
			"componentType":5126,
			"count":132,
			"type":"VEC2"
		},
		{
			"bufferView":31,
			"componentType":5123,
			"count":204,
			"type":"SCALAR"
		},
		{
			"bufferView":32,
			"componentType":5126,
			"count":132,
			"max":[
				-0.08532920479774475,
				2.9926023483276367,
				0.025003371760249138
			],
			"min":[
				-0.27999135851860046,
				1.7396256923675537,
				-0.042085468769073486
			],
			"type":"VEC3"
		},
		{
			"bufferView":33,
			"componentType":5126,
			"count":132,
			"type":"VEC3"
		},
		{
			"bufferView":34,
			"componentType":5126,
			"count":132,
			"type":"VEC2"
		},
		{
			"bufferView":35,
			"componentType":5123,
			"count":204,
			"type":"SCALAR"
		},
		{
			"bufferView":36,
			"componentType":5126,
			"count":132,
			"max":[
				-0.04738277569413185,
				3.023796319961548,
				0.134224072098732
			],
			"min":[
				-0.10933389514684677,
				1.7446646690368652,
				0.043477613478899
			],
			"type":"VEC3"
		},
		{
			"bufferView":37,
			"componentType":5126,
			"count":132,
			"type":"VEC3"
		},
		{
			"bufferView":38,
			"componentType":5126,
			"count":132,
			"type":"VEC2"
		},
		{
			"bufferView":39,
			"componentType":5123,
			"count":204,
			"type":"SCALAR"
		},
		{
			"bufferView":40,
			"componentType":5126,
			"count":132,
			"max":[
				0.05120996758341789,
				2.893549680709839,
				0.3295838236808777
			],
			"min":[
				-0.014251614920794964,
				1.7515159845352173,
				0.08281780779361725
			],
			"type":"VEC3"
		},
		{
			"bufferView":41,
			"componentType":5126,
			"count":132,
			"type":"VEC3"
		},
		{
			"bufferView":42,
			"componentType":5126,
			"count":132,
			"type":"VEC2"
		},
		{
			"bufferView":43,
			"componentType":5123,
			"count":204,
			"type":"SCALAR"
		},
		{
			"bufferView":44,
			"componentType":5126,
			"count":132,
			"max":[
				0.18188656866550446,
				2.8919742107391357,
				0.3342587649822235
			],
			"min":[
				0.05457044020295143,
				1.7439032793045044,
				0.08330267667770386
			],
			"type":"VEC3"
		},
		{
			"bufferView":45,
			"componentType":5126,
			"count":132,
			"type":"VEC3"
		},
		{
			"bufferView":46,
			"componentType":5126,
			"count":132,
			"type":"VEC2"
		},
		{
			"bufferView":47,
			"componentType":5123,
			"count":204,
			"type":"SCALAR"
		},
		{
			"bufferView":48,
			"componentType":5126,
			"count":132,
			"max":[
				0.9017335772514343,
				2.1463747024536133,
				0.7848971486091614
			],
			"min":[
				0.10860040783882141,
				1.7588443756103516,
				0.06995119899511337
			],
			"type":"VEC3"
		},
		{
			"bufferView":49,
			"componentType":5126,
			"count":132,
			"type":"VEC3"
		},
		{
			"bufferView":50,
			"componentType":5126,
			"count":132,
			"type":"VEC2"
		},
		{
			"bufferView":51,
			"componentType":5123,
			"count":204,
			"type":"SCALAR"
		},
		{
			"bufferView":52,
			"componentType":5126,
			"count":132,
			"max":[
				0.2676992416381836,
				1.9663594961166382,
				1.418821930885315
			],
			"min":[
				0.01753995753824711,
				1.415071725845337,
				0.08667443692684174
			],
			"type":"VEC3"
		},
		{
			"bufferView":53,
			"componentType":5126,
			"count":132,
			"type":"VEC3"
		},
		{
			"bufferView":54,
			"componentType":5126,
			"count":132,
			"type":"VEC2"
		},
		{
			"bufferView":55,
			"componentType":5123,
			"count":204,
			"type":"SCALAR"
		},
		{
			"bufferView":56,
			"componentType":5126,
			"count":132,
			"max":[
				-0.08705110847949982,
				2.1653285026550293,
				0.566683828830719
			],
			"min":[
				-0.8344047665596008,
				1.672532320022583,
				0.05425717681646347
			],
			"type":"VEC3"
		},
		{
			"bufferView":57,
			"componentType":5126,
			"count":132,
			"type":"VEC3"
		},
		{
			"bufferView":58,
			"componentType":5126,
			"count":132,
			"type":"VEC2"
		},
		{
			"bufferView":59,
			"componentType":5123,
			"count":204,
			"type":"SCALAR"
		},
		{
			"bufferView":60,
			"componentType":5126,
			"count":132,
			"max":[
				0.21091745793819427,
				2.221630096435547,
				0.24184481799602509
			],
			"min":[
				0.07961288839578629,
				1.7419824600219727,
				0.09739299863576889
			],
			"type":"VEC3"
		},
		{
			"bufferView":61,
			"componentType":5126,
			"count":132,
			"type":"VEC3"
		},
		{
			"bufferView":62,
			"componentType":5126,
			"count":132,
			"type":"VEC2"
		},
		{
			"bufferView":63,
			"componentType":5123,
			"count":204,
			"type":"SCALAR"
		},
		{
			"bufferView":64,
			"componentType":5126,
			"count":132,
			"max":[
				0.08407317847013474,
				2.3987817764282227,
				1.2801265716552734
			],
			"min":[
				-0.006791512481868267,
				1.7149901390075684,
				0.09354741126298904
			],
			"type":"VEC3"
		},
		{
			"bufferView":65,
			"componentType":5126,
			"count":132,
			"type":"VEC3"
		},
		{
			"bufferView":66,
			"componentType":5126,
			"count":132,
			"type":"VEC2"
		},
		{
			"bufferView":67,
			"componentType":5123,
			"count":204,
			"type":"SCALAR"
		},
		{
			"bufferView":68,
			"componentType":5126,
			"count":132,
			"max":[
				1.474625825881958,
				2.025594472885132,
				0.42201733589172363
			],
			"min":[
				0.10972096771001816,
				1.3520439863204956,
				0.023849600926041603
			],
			"type":"VEC3"
		},
		{
			"bufferView":69,
			"componentType":5126,
			"count":132,
			"type":"VEC3"
		},
		{
			"bufferView":70,
			"componentType":5126,
			"count":132,
			"type":"VEC2"
		},
		{
			"bufferView":71,
			"componentType":5123,
			"count":204,
			"type":"SCALAR"
		},
		{
			"bufferView":72,
			"componentType":5126,
			"count":132,
			"max":[
				-0.07882510125637054,
				1.800033450126648,
				0.3545670807361603
			],
			"min":[
				-1.4954320192337036,
				1.1829203367233276,
				0.01761891134083271
			],
			"type":"VEC3"
		},
		{
			"bufferView":73,
			"componentType":5126,
			"count":132,
			"type":"VEC3"
		},
		{
			"bufferView":74,
			"componentType":5126,
			"count":132,
			"type":"VEC2"
		},
		{
			"bufferView":75,
			"componentType":5123,
			"count":204,
			"type":"SCALAR"
		},
		{
			"bufferView":76,
			"componentType":5126,
			"count":132,
			"max":[
				1.094154953956604,
				2.0894265174865723,
				-0.018949855118989944
			],
			"min":[
				0.08985548466444016,
				1.6738008260726929,
				-0.5780048370361328
			],
			"type":"VEC3"
		},
		{
			"bufferView":77,
			"componentType":5126,
			"count":132,
			"type":"VEC3"
		},
		{
			"bufferView":78,
			"componentType":5126,
			"count":132,
			"type":"VEC2"
		},
		{
			"bufferView":79,
			"componentType":5123,
			"count":204,
			"type":"SCALAR"
		},
		{
			"bufferView":80,
			"componentType":5126,
			"count":132,
			"max":[
				-0.060868408530950546,
				2.1713244915008545,
				-0.09016162157058716
			],
			"min":[
				-0.705772876739502,
				1.6251230239868164,
				-0.9641793966293335
			],
			"type":"VEC3"
		},
		{
			"bufferView":81,
			"componentType":5126,
			"count":132,
			"type":"VEC3"
		},
		{
			"bufferView":82,
			"componentType":5126,
			"count":132,
			"type":"VEC2"
		},
		{
			"bufferView":83,
			"componentType":5123,
			"count":204,
			"type":"SCALAR"
		},
		{
			"bufferView":84,
			"componentType":5126,
			"count":132,
			"max":[
				0.7341434955596924,
				1.9040265083312988,
				-0.0723416656255722
			],
			"min":[
				0.024810567498207092,
				1.4728913307189941,
				-1.1398190259933472
			],
			"type":"VEC3"
		},
		{
			"bufferView":85,
			"componentType":5126,
			"count":132,
			"type":"VEC3"
		},
		{
			"bufferView":86,
			"componentType":5126,
			"count":132,
			"type":"VEC2"
		},
		{
			"bufferView":87,
			"componentType":5123,
			"count":204,
			"type":"SCALAR"
		},
		{
			"bufferView":88,
			"componentType":5126,
			"count":132,
			"max":[
				-0.03134369105100632,
				2.3739516735076904,
				0.39242658019065857
			],
			"min":[
				-0.21168750524520874,
				1.7316458225250244,
				0.08019063621759415
			],
			"type":"VEC3"
		},
		{
			"bufferView":89,
			"componentType":5126,
			"count":132,
			"type":"VEC3"
		},
		{
			"bufferView":90,
			"componentType":5126,
			"count":132,
			"type":"VEC2"
		},
		{
			"bufferView":91,
			"componentType":5123,
			"count":204,
			"type":"SCALAR"
		},
		{
			"bufferView":92,
			"componentType":5126,
			"count":132,
			"max":[
				0.1078748106956482,
				2.383162498474121,
				-0.10914354771375656
			],
			"min":[
				0.031142458319664,
				1.735126256942749,
				-0.43459993600845337
			],
			"type":"VEC3"
		},
		{
			"bufferView":93,
			"componentType":5126,
			"count":132,
			"type":"VEC3"
		},
		{
			"bufferView":94,
			"componentType":5126,
			"count":132,
			"type":"VEC2"
		},
		{
			"bufferView":95,
			"componentType":5123,
			"count":204,
			"type":"SCALAR"
		},
		{
			"bufferView":96,
			"componentType":5126,
			"count":132,
			"max":[
				0.9172084331512451,
				2.5520293712615967,
				0.010010895319283009
			],
			"min":[
				0.0866304337978363,
				1.5543127059936523,
				-0.1800338476896286
			],
			"type":"VEC3"
		},
		{
			"bufferView":97,
			"componentType":5126,
			"count":132,
			"type":"VEC3"
		},
		{
			"bufferView":98,
			"componentType":5126,
			"count":132,
			"type":"VEC2"
		},
		{
			"bufferView":99,
			"componentType":5123,
			"count":204,
			"type":"SCALAR"
		},
		{
			"bufferView":100,
			"componentType":5126,
			"count":132,
			"max":[
				-0.08883083611726761,
				2.443328380584717,
				-0.032593343406915665
			],
			"min":[
				-0.7221577763557434,
				1.6266101598739624,
				-0.19324041903018951
			],
			"type":"VEC3"
		},
		{
			"bufferView":101,
			"componentType":5126,
			"count":132,
			"type":"VEC3"
		},
		{
			"bufferView":102,
			"componentType":5126,
			"count":132,
			"type":"VEC2"
		},
		{
			"bufferView":103,
			"componentType":5123,
			"count":204,
			"type":"SCALAR"
		},
		{
			"bufferView":104,
			"componentType":5126,
			"count":132,
			"max":[
				0.6051760315895081,
				2.240356206893921,
				-0.11107897758483887
			],
			"min":[
				0.05539665371179581,
				1.5679113864898682,
				-1.0054192543029785
			],
			"type":"VEC3"
		},
		{
			"bufferView":105,
			"componentType":5126,
			"count":132,
			"type":"VEC3"
		},
		{
			"bufferView":106,
			"componentType":5126,
			"count":132,
			"type":"VEC2"
		},
		{
			"bufferView":107,
			"componentType":5123,
			"count":204,
			"type":"SCALAR"
		},
		{
			"bufferView":108,
			"componentType":5126,
			"count":132,
			"max":[
				-0.025310419499874115,
				2.0614593029022217,
				-0.09767734259366989
			],
			"min":[
				-0.3861384391784668,
				1.482945442199707,
				-1.362426996231079
			],
			"type":"VEC3"
		},
		{
			"bufferView":109,
			"componentType":5126,
			"count":132,
			"type":"VEC3"
		},
		{
			"bufferView":110,
			"componentType":5126,
			"count":132,
			"type":"VEC2"
		},
		{
			"bufferView":111,
			"componentType":5123,
			"count":204,
			"type":"SCALAR"
		},
		{
			"bufferView":112,
			"componentType":5126,
			"count":132,
			"max":[
				-0.030450157821178436,
				1.8090236186981201,
				1.3734508752822876
			],
			"min":[
				-0.6519572734832764,
				1.1877797842025757,
				0.1098584532737732
			],
			"type":"VEC3"
		},
		{
			"bufferView":113,
			"componentType":5126,
			"count":132,
			"type":"VEC3"
		},
		{
			"bufferView":114,
			"componentType":5126,
			"count":132,
			"type":"VEC2"
		},
		{
			"bufferView":115,
			"componentType":5123,
			"count":204,
			"type":"SCALAR"
		},
		{
			"bufferView":116,
			"componentType":5126,
			"count":132,
			"max":[
				0.4798821806907654,
				2.278817892074585,
				0.14820867776870728
			],
			"min":[
				0.09176596254110336,
				1.748806118965149,
				0.006237459369003773
			],
			"type":"VEC3"
		},
		{
			"bufferView":117,
			"componentType":5126,
			"count":132,
			"type":"VEC3"
		},
		{
			"bufferView":118,
			"componentType":5126,
			"count":132,
			"type":"VEC2"
		},
		{
			"bufferView":119,
			"componentType":5123,
			"count":204,
			"type":"SCALAR"
		},
		{
			"bufferView":120,
			"componentType":5126,
			"count":132,
			"max":[
				-0.03563667833805084,
				1.9815877676010132,
				-0.07162891328334808
			],
			"min":[
				-0.3136778473854065,
				1.737918734550476,
				-0.4045506715774536
			],
			"type":"VEC3"
		},
		{
			"bufferView":121,
			"componentType":5126,
			"count":132,
			"type":"VEC3"
		},
		{
			"bufferView":122,
			"componentType":5126,
			"count":132,
			"type":"VEC2"
		},
		{
			"bufferView":123,
			"componentType":5123,
			"count":204,
			"type":"SCALAR"
		},
		{
			"bufferView":124,
			"componentType":5126,
			"count":132,
			"max":[
				0.13280871510505676,
				2.147656202316284,
				-0.12359043955802917
			],
			"min":[
				-0.00867994874715805,
				1.577803373336792,
				-0.8454311490058899
			],
			"type":"VEC3"
		},
		{
			"bufferView":125,
			"componentType":5126,
			"count":132,
			"type":"VEC3"
		},
		{
			"bufferView":126,
			"componentType":5126,
			"count":132,
			"type":"VEC2"
		},
		{
			"bufferView":127,
			"componentType":5123,
			"count":204,
			"type":"SCALAR"
		},
		{
			"bufferView":128,
			"componentType":5126,
			"count":132,
			"max":[
				0.8674132823944092,
				2.2284839153289795,
				-0.05724150314927101
			],
			"min":[
				0.08190073072910309,
				1.550073266029358,
				-0.6740478873252869
			],
			"type":"VEC3"
		},
		{
			"bufferView":129,
			"componentType":5126,
			"count":132,
			"type":"VEC3"
		},
		{
			"bufferView":130,
			"componentType":5126,
			"count":132,
			"type":"VEC2"
		},
		{
			"bufferView":131,
			"componentType":5123,
			"count":204,
			"type":"SCALAR"
		},
		{
			"bufferView":132,
			"componentType":5126,
			"count":132,
			"max":[
				-0.13209864497184753,
				1.8975253105163574,
				-0.03644055128097534
			],
			"min":[
				-1.2581984996795654,
				1.3354414701461792,
				-0.5260086059570312
			],
			"type":"VEC3"
		},
		{
			"bufferView":133,
			"componentType":5126,
			"count":132,
			"type":"VEC3"
		},
		{
			"bufferView":134,
			"componentType":5126,
			"count":132,
			"type":"VEC2"
		},
		{
			"bufferView":135,
			"componentType":5123,
			"count":204,
			"type":"SCALAR"
		}
	],
	"bufferViews":[
		{
			"buffer":0,
			"byteLength":5412,
			"byteOffset":0,
			"target":34962
		},
		{
			"buffer":0,
			"byteLength":5412,
			"byteOffset":5412,
			"target":34962
		},
		{
			"buffer":0,
			"byteLength":3608,
			"byteOffset":10824,
			"target":34962
		},
		{
			"buffer":0,
			"byteLength":1302,
			"byteOffset":14432,
			"target":34963
		},
		{
			"buffer":0,
			"byteLength":696,
			"byteOffset":15736,
			"target":34962
		},
		{
			"buffer":0,
			"byteLength":696,
			"byteOffset":16432,
			"target":34962
		},
		{
			"buffer":0,
			"byteLength":464,
			"byteOffset":17128,
			"target":34962
		},
		{
			"buffer":0,
			"byteLength":144,
			"byteOffset":17592,
			"target":34963
		},
		{
			"buffer":0,
			"byteLength":576,
			"byteOffset":17736,
			"target":34962
		},
		{
			"buffer":0,
			"byteLength":576,
			"byteOffset":18312,
			"target":34962
		},
		{
			"buffer":0,
			"byteLength":384,
			"byteOffset":18888,
			"target":34962
		},
		{
			"buffer":0,
			"byteLength":168,
			"byteOffset":19272,
			"target":34963
		},
		{
			"buffer":0,
			"byteLength":1584,
			"byteOffset":19440,
			"target":34962
		},
		{
			"buffer":0,
			"byteLength":1584,
			"byteOffset":21024,
			"target":34962
		},
		{
			"buffer":0,
			"byteLength":1056,
			"byteOffset":22608,
			"target":34962
		},
		{
			"buffer":0,
			"byteLength":408,
			"byteOffset":23664,
			"target":34963
		},
		{
			"buffer":0,
			"byteLength":48,
			"byteOffset":24072,
			"target":34962
		},
		{
			"buffer":0,
			"byteLength":48,
			"byteOffset":24120,
			"target":34962
		},
		{
			"buffer":0,
			"byteLength":32,
			"byteOffset":24168,
			"target":34962
		},
		{
			"buffer":0,
			"byteLength":12,
			"byteOffset":24200,
			"target":34963
		},
		{
			"buffer":0,
			"byteLength":1584,
			"byteOffset":24212,
			"target":34962
		},
		{
			"buffer":0,
			"byteLength":1584,
			"byteOffset":25796,
			"target":34962
		},
		{
			"buffer":0,
			"byteLength":1056,
			"byteOffset":27380,
			"target":34962
		},
		{
			"buffer":0,
			"byteLength":408,
			"byteOffset":28436,
			"target":34963
		},
		{
			"buffer":0,
			"byteLength":1584,
			"byteOffset":28844,
			"target":34962
		},
		{
			"buffer":0,
			"byteLength":1584,
			"byteOffset":30428,
			"target":34962
		},
		{
			"buffer":0,
			"byteLength":1056,
			"byteOffset":32012,
			"target":34962
		},
		{
			"buffer":0,
			"byteLength":408,
			"byteOffset":33068,
			"target":34963
		},
		{
			"buffer":0,
			"byteLength":1584,
			"byteOffset":33476,
			"target":34962
		},
		{
			"buffer":0,
			"byteLength":1584,
			"byteOffset":35060,
			"target":34962
		},
		{
			"buffer":0,
			"byteLength":1056,
			"byteOffset":36644,
			"target":34962
		},
		{
			"buffer":0,
			"byteLength":408,
			"byteOffset":37700,
			"target":34963
		},
		{
			"buffer":0,
			"byteLength":1584,
			"byteOffset":38108,
			"target":34962
		},
		{
			"buffer":0,
			"byteLength":1584,
			"byteOffset":39692,
			"target":34962
		},
		{
			"buffer":0,
			"byteLength":1056,
			"byteOffset":41276,
			"target":34962
		},
		{
			"buffer":0,
			"byteLength":408,
			"byteOffset":42332,
			"target":34963
		},
		{
			"buffer":0,
			"byteLength":1584,
			"byteOffset":42740,
			"target":34962
		},
		{
			"buffer":0,
			"byteLength":1584,
			"byteOffset":44324,
			"target":34962
		},
		{
			"buffer":0,
			"byteLength":1056,
			"byteOffset":45908,
			"target":34962
		},
		{
			"buffer":0,
			"byteLength":408,
			"byteOffset":46964,
			"target":34963
		},
		{
			"buffer":0,
			"byteLength":1584,
			"byteOffset":47372,
			"target":34962
		},
		{
			"buffer":0,
			"byteLength":1584,
			"byteOffset":48956,
			"target":34962
		},
		{
			"buffer":0,
			"byteLength":1056,
			"byteOffset":50540,
			"target":34962
		},
		{
			"buffer":0,
			"byteLength":408,
			"byteOffset":51596,
			"target":34963
		},
		{
			"buffer":0,
			"byteLength":1584,
			"byteOffset":52004,
			"target":34962
		},
		{
			"buffer":0,
			"byteLength":1584,
			"byteOffset":53588,
			"target":34962
		},
		{
			"buffer":0,
			"byteLength":1056,
			"byteOffset":55172,
			"target":34962
		},
		{
			"buffer":0,
			"byteLength":408,
			"byteOffset":56228,
			"target":34963
		},
		{
			"buffer":0,
			"byteLength":1584,
			"byteOffset":56636,
			"target":34962
		},
		{
			"buffer":0,
			"byteLength":1584,
			"byteOffset":58220,
			"target":34962
		},
		{
			"buffer":0,
			"byteLength":1056,
			"byteOffset":59804,
			"target":34962
		},
		{
			"buffer":0,
			"byteLength":408,
			"byteOffset":60860,
			"target":34963
		},
		{
			"buffer":0,
			"byteLength":1584,
			"byteOffset":61268,
			"target":34962
		},
		{
			"buffer":0,
			"byteLength":1584,
			"byteOffset":62852,
			"target":34962
		},
		{
			"buffer":0,
			"byteLength":1056,
			"byteOffset":64436,
			"target":34962
		},
		{
			"buffer":0,
			"byteLength":408,
			"byteOffset":65492,
			"target":34963
		},
		{
			"buffer":0,
			"byteLength":1584,
			"byteOffset":65900,
			"target":34962
		},
		{
			"buffer":0,
			"byteLength":1584,
			"byteOffset":67484,
			"target":34962
		},
		{
			"buffer":0,
			"byteLength":1056,
			"byteOffset":69068,
			"target":34962
		},
		{
			"buffer":0,
			"byteLength":408,
			"byteOffset":70124,
			"target":34963
		},
		{
			"buffer":0,
			"byteLength":1584,
			"byteOffset":70532,
			"target":34962
		},
		{
			"buffer":0,
			"byteLength":1584,
			"byteOffset":72116,
			"target":34962
		},
		{
			"buffer":0,
			"byteLength":1056,
			"byteOffset":73700,
			"target":34962
		},
		{
			"buffer":0,
			"byteLength":408,
			"byteOffset":74756,
			"target":34963
		},
		{
			"buffer":0,
			"byteLength":1584,
			"byteOffset":75164,
			"target":34962
		},
		{
			"buffer":0,
			"byteLength":1584,
			"byteOffset":76748,
			"target":34962
		},
		{
			"buffer":0,
			"byteLength":1056,
			"byteOffset":78332,
			"target":34962
		},
		{
			"buffer":0,
			"byteLength":408,
			"byteOffset":79388,
			"target":34963
		},
		{
			"buffer":0,
			"byteLength":1584,
			"byteOffset":79796,
			"target":34962
		},
		{
			"buffer":0,
			"byteLength":1584,
			"byteOffset":81380,
			"target":34962
		},
		{
			"buffer":0,
			"byteLength":1056,
			"byteOffset":82964,
			"target":34962
		},
		{
			"buffer":0,
			"byteLength":408,
			"byteOffset":84020,
			"target":34963
		},
		{
			"buffer":0,
			"byteLength":1584,
			"byteOffset":84428,
			"target":34962
		},
		{
			"buffer":0,
			"byteLength":1584,
			"byteOffset":86012,
			"target":34962
		},
		{
			"buffer":0,
			"byteLength":1056,
			"byteOffset":87596,
			"target":34962
		},
		{
			"buffer":0,
			"byteLength":408,
			"byteOffset":88652,
			"target":34963
		},
		{
			"buffer":0,
			"byteLength":1584,
			"byteOffset":89060,
			"target":34962
		},
		{
			"buffer":0,
			"byteLength":1584,
			"byteOffset":90644,
			"target":34962
		},
		{
			"buffer":0,
			"byteLength":1056,
			"byteOffset":92228,
			"target":34962
		},
		{
			"buffer":0,
			"byteLength":408,
			"byteOffset":93284,
			"target":34963
		},
		{
			"buffer":0,
			"byteLength":1584,
			"byteOffset":93692,
			"target":34962
		},
		{
			"buffer":0,
			"byteLength":1584,
			"byteOffset":95276,
			"target":34962
		},
		{
			"buffer":0,
			"byteLength":1056,
			"byteOffset":96860,
			"target":34962
		},
		{
			"buffer":0,
			"byteLength":408,
			"byteOffset":97916,
			"target":34963
		},
		{
			"buffer":0,
			"byteLength":1584,
			"byteOffset":98324,
			"target":34962
		},
		{
			"buffer":0,
			"byteLength":1584,
			"byteOffset":99908,
			"target":34962
		},
		{
			"buffer":0,
			"byteLength":1056,
			"byteOffset":101492,
			"target":34962
		},
		{
			"buffer":0,
			"byteLength":408,
			"byteOffset":102548,
			"target":34963
		},
		{
			"buffer":0,
			"byteLength":1584,
			"byteOffset":102956,
			"target":34962
		},
		{
			"buffer":0,
			"byteLength":1584,
			"byteOffset":104540,
			"target":34962
		},
		{
			"buffer":0,
			"byteLength":1056,
			"byteOffset":106124,
			"target":34962
		},
		{
			"buffer":0,
			"byteLength":408,
			"byteOffset":107180,
			"target":34963
		},
		{
			"buffer":0,
			"byteLength":1584,
			"byteOffset":107588,
			"target":34962
		},
		{
			"buffer":0,
			"byteLength":1584,
			"byteOffset":109172,
			"target":34962
		},
		{
			"buffer":0,
			"byteLength":1056,
			"byteOffset":110756,
			"target":34962
		},
		{
			"buffer":0,
			"byteLength":408,
			"byteOffset":111812,
			"target":34963
		},
		{
			"buffer":0,
			"byteLength":1584,
			"byteOffset":112220,
			"target":34962
		},
		{
			"buffer":0,
			"byteLength":1584,
			"byteOffset":113804,
			"target":34962
		},
		{
			"buffer":0,
			"byteLength":1056,
			"byteOffset":115388,
			"target":34962
		},
		{
			"buffer":0,
			"byteLength":408,
			"byteOffset":116444,
			"target":34963
		},
		{
			"buffer":0,
			"byteLength":1584,
			"byteOffset":116852,
			"target":34962
		},
		{
			"buffer":0,
			"byteLength":1584,
			"byteOffset":118436,
			"target":34962
		},
		{
			"buffer":0,
			"byteLength":1056,
			"byteOffset":120020,
			"target":34962
		},
		{
			"buffer":0,
			"byteLength":408,
			"byteOffset":121076,
			"target":34963
		},
		{
			"buffer":0,
			"byteLength":1584,
			"byteOffset":121484,
			"target":34962
		},
		{
			"buffer":0,
			"byteLength":1584,
			"byteOffset":123068,
			"target":34962
		},
		{
			"buffer":0,
			"byteLength":1056,
			"byteOffset":124652,
			"target":34962
		},
		{
			"buffer":0,
			"byteLength":408,
			"byteOffset":125708,
			"target":34963
		},
		{
			"buffer":0,
			"byteLength":1584,
			"byteOffset":126116,
			"target":34962
		},
		{
			"buffer":0,
			"byteLength":1584,
			"byteOffset":127700,
			"target":34962
		},
		{
			"buffer":0,
			"byteLength":1056,
			"byteOffset":129284,
			"target":34962
		},
		{
			"buffer":0,
			"byteLength":408,
			"byteOffset":130340,
			"target":34963
		},
		{
			"buffer":0,
			"byteLength":1584,
			"byteOffset":130748,
			"target":34962
		},
		{
			"buffer":0,
			"byteLength":1584,
			"byteOffset":132332,
			"target":34962
		},
		{
			"buffer":0,
			"byteLength":1056,
			"byteOffset":133916,
			"target":34962
		},
		{
			"buffer":0,
			"byteLength":408,
			"byteOffset":134972,
			"target":34963
		},
		{
			"buffer":0,
			"byteLength":1584,
			"byteOffset":135380,
			"target":34962
		},
		{
			"buffer":0,
			"byteLength":1584,
			"byteOffset":136964,
			"target":34962
		},
		{
			"buffer":0,
			"byteLength":1056,
			"byteOffset":138548,
			"target":34962
		},
		{
			"buffer":0,
			"byteLength":408,
			"byteOffset":139604,
			"target":34963
		},
		{
			"buffer":0,
			"byteLength":1584,
			"byteOffset":140012,
			"target":34962
		},
		{
			"buffer":0,
			"byteLength":1584,
			"byteOffset":141596,
			"target":34962
		},
		{
			"buffer":0,
			"byteLength":1056,
			"byteOffset":143180,
			"target":34962
		},
		{
			"buffer":0,
			"byteLength":408,
			"byteOffset":144236,
			"target":34963
		},
		{
			"buffer":0,
			"byteLength":1584,
			"byteOffset":144644,
			"target":34962
		},
		{
			"buffer":0,
			"byteLength":1584,
			"byteOffset":146228,
			"target":34962
		},
		{
			"buffer":0,
			"byteLength":1056,
			"byteOffset":147812,
			"target":34962
		},
		{
			"buffer":0,
			"byteLength":408,
			"byteOffset":148868,
			"target":34963
		},
		{
			"buffer":0,
			"byteLength":1584,
			"byteOffset":149276,
			"target":34962
		},
		{
			"buffer":0,
			"byteLength":1584,
			"byteOffset":150860,
			"target":34962
		},
		{
			"buffer":0,
			"byteLength":1056,
			"byteOffset":152444,
			"target":34962
		},
		{
			"buffer":0,
			"byteLength":408,
			"byteOffset":153500,
			"target":34963
		},
		{
			"buffer":0,
			"byteLength":1584,
			"byteOffset":153908,
			"target":34962
		},
		{
			"buffer":0,
			"byteLength":1584,
			"byteOffset":155492,
			"target":34962
		},
		{
			"buffer":0,
			"byteLength":1056,
			"byteOffset":157076,
			"target":34962
		},
		{
			"buffer":0,
			"byteLength":408,
			"byteOffset":158132,
			"target":34963
		}
	],
	"samplers":[
		{
			"magFilter":9728,
			"minFilter":9984
		}
	],
	"buffers":[
		{
			"byteLength":158540,
			"uri":"plant_pilea.bin"
		}
	]
}
