{
	"asset": {
		"generator": "Khronos glTF Blender I/O v5.1.19",
		"version": "2.0"
	},
	"extensionsUsed": [
		"KHR_materials_specular"
	],
	"scene": 0,
	"scenes": [
		{
			"name": "Scene",
			"nodes": [
				0,
				1,
				2,
				3,
				4,
				5,
				6,
				7,
				8,
				9,
				10,
				11,
				12,
				13,
				14,
				15,
				16,
				17,
				18,
				19,
				20,
				21,
				22,
				23,
				24,
				25,
				26,
				27,
				28,
				29,
				30,
				31,
				32,
				33,
				34,
				35,
				36,
				37,
				38,
				39,
				40,
				41,
				42,
				43,
				44,
				45,
				46,
				47,
				48,
				49,
				50,
				51,
				52,
				53,
				54,
				55,
				56,
				57,
				58,
				59,
				60,
				61,
				62,
				63,
				64,
				65,
				66,
				67,
				68,
				69,
				70,
				71,
				72,
				73,
				74,
				75
			]
		}
	],
	"nodes": [
		{
			"mesh": 0,
			"name": "Pot"
		},
		{
			"mesh": 1,
			"name": "Soil"
		},
		{
			"mesh": 2,
			"name": "Petiole_000"
		},
		{
			"mesh": 3,
			"name": "Leaf_000"
		},
		{
			"mesh": 2,
			"name": "Petiole_001",
			"rotation": [
				-0.033474236726760864,
				0.5422058701515198,
				-0.017705421894788742,
				0.8393920660018921
			],
			"scale": [
				0.5792713165283203,
				0.5792712569236755,
				0.5792712569236755
			],
			"translation": [
				0.16792017221450806,
				0.6388280987739563,
				0.07572154700756073
			]
		},
		{
			"mesh": 3,
			"name": "Leaf_001",
			"rotation": [
				0.05857544764876366,
				0.6347860097885132,
				-0.018720144405961037,
				0.7702372670173645
			],
			"scale": [
				0.9041597247123718,
				0.904159665107727,
				0.9041597843170166
			],
			"translation": [
				-0.35586610436439514,
				-0.2791168987751007,
				-0.18569116294384003
			]
		},
		{
			"mesh": 2,
			"name": "Petiole_002",
			"rotation": [
				-0.021855715662240982,
				-0.8747175931930542,
				0.2337925285100937,
				0.4239487648010254
			],
			"scale": [
				0.6479955315589905,
				0.6479955315589905,
				0.6479955315589905
			],
			"translation": [
				0.15621812641620636,
				0.6866248250007629,
				0.3818565309047699
			]
		},
		{
			"mesh": 3,
			"name": "Leaf_002",
			"rotation": [
				-0.013395226560533047,
				-0.9539875984191895,
				0.05975314974784851,
				0.29352647066116333
			],
			"scale": [
				0.7089048624038696,
				0.7089048624038696,
				0.7089048027992249
			],
			"translation": [
				-0.21418064832687378,
				0.19098252058029175,
				-0.05778186023235321
			]
		},
		{
			"mesh": 2,
			"name": "Petiole_003",
			"rotation": [
				0.11214900016784668,
				0.08636133372783661,
				0.034672897309064865,
				0.9893240928649902
			],
			"scale": [
				0.33059820532798767,
				0.33059820532798767,
				0.33059820532798767
			],
			"translation": [
				0.048188623040914536,
				1.0599995851516724,
				0.012586785480380058
			]
		},
		{
			"mesh": 3,
			"name": "Leaf_003",
			"rotation": [
				0.0822288766503334,
				0.02911660633981228,
				0.07279890030622482,
				0.9935245513916016
			],
			"scale": [
				0.5678420662879944,
				0.5678420662879944,
				0.5678420662879944
			],
			"translation": [
				0.2390371412038803,
				0.3487743139266968,
				-0.20832134783267975
			]
		},
		{
			"mesh": 2,
			"name": "Petiole_004",
			"rotation": [
				-0.03762642666697502,
				0.3540831506252289,
				-0.10046064108610153,
				0.9290409088134766
			],
			"scale": [
				0.5305796265602112,
				0.530579686164856,
				0.5305796265602112
			],
			"translation": [
				0.08856752514839172,
				0.7344399094581604,
				0.030500780791044235
			]
		},
		{
			"mesh": 3,
			"name": "Leaf_004",
			"rotation": [
				0.024551576003432274,
				0.6406729817390442,
				-0.038021162152290344,
				0.766478955745697
			],
			"scale": [
				0.9519707560539246,
				0.9519707560539246,
				0.9519708156585693
			],
			"translation": [
				-0.3110352158546448,
				-0.5395678281784058,
				0.023621970787644386
			]
		},
		{
			"mesh": 2,
			"name": "Petiole_005",
			"rotation": [
				-0.013726134784519672,
				-0.9981998205184937,
				0.04598904028534889,
				0.035968679934740067
			],
			"scale": [
				0.5501766800880432,
				0.5501766800880432,
				0.5501766800880432
			],
			"translation": [
				-0.06470851600170135,
				0.6804847717285156,
				-0.02085947059094906
			]
		},
		{
			"mesh": 3,
			"name": "Leaf_005",
			"rotation": [
				-0.024253398180007935,
				-0.9986440539360046,
				0.032621465623378754,
				0.032522689551115036
			],
			"scale": [
				0.7947858572006226,
				0.7947858572006226,
				0.7947857975959778
			],
			"translation": [
				-0.10919232666492462,
				-0.07107967138290405,
				0.1344596892595291
			]
		},
		{
			"mesh": 2,
			"name": "Petiole_006",
			"rotation": [
				-0.043105825781822205,
				-0.0230901800096035,
				-0.09535377472639084,
				0.9942417144775391
			],
			"scale": [
				0.9909271001815796,
				0.9909271597862244,
				0.9909272193908691
			],
			"translation": [
				-0.19245308637619019,
				-0.01764494553208351,
				0.056908294558525085
			]
		},
		{
			"mesh": 3,
			"name": "Leaf_006",
			"rotation": [
				0.016120975837111473,
				0.32504233717918396,
				0.07602079957723618,
				0.9425011873245239
			],
			"scale": [
				1.1364341974258423,
				1.1364343166351318,
				1.1364341974258423
			],
			"translation": [
				0.3511950373649597,
				-0.43147456645965576,
				-0.37030231952667236
			]
		},
		{
			"mesh": 2,
			"name": "Petiole_007",
			"rotation": [
				-0.006539360154420137,
				0.9710515737533569,
				-0.11787804216146469,
				0.20765595138072968
			],
			"scale": [
				0.6966822743415833,
				0.6966821551322937,
				0.6966822743415833
			],
			"translation": [
				-0.07075310498476028,
				0.4912952780723572,
				0.08430752158164978
			]
		},
		{
			"mesh": 3,
			"name": "Leaf_007",
			"rotation": [
				0.011077161878347397,
				0.9903708100318909,
				-0.026437925174832344,
				0.13543987274169922
			],
			"scale": [
				0.8224531412124634,
				0.8224530816078186,
				0.8224533200263977
			],
			"translation": [
				-0.0036015354562550783,
				-0.03378968685865402,
				-0.18729710578918457
			]
		},
		{
			"mesh": 2,
			"name": "Petiole_008",
			"rotation": [
				0.17557738721370697,
				0.627101719379425,
				0.042539265006780624,
				0.7576982378959656
			],
			"scale": [
				0.27614811062812805,
				0.27614814043045044,
				0.27614811062812805
			],
			"translation": [
				0.08602923899888992,
				1.1487855911254883,
				0.09798622876405716
			]
		},
		{
			"mesh": 3,
			"name": "Leaf_008",
			"rotation": [
				0.06205436959862709,
				0.3655092418193817,
				-0.05303417146205902,
				0.9272214770317078
			],
			"scale": [
				0.5842999219894409,
				0.5842999219894409,
				0.5842999815940857
			],
			"translation": [
				-0.13080912828445435,
				0.18163654208183289,
				-0.023909172043204308
			]
		},
		{
			"mesh": 2,
			"name": "Petiole_009",
			"rotation": [
				0.08446182310581207,
				0.9048535227775574,
				-0.09064225107431412,
				0.4072963297367096
			],
			"scale": [
				0.7815635204315186,
				0.7815635800361633,
				0.7815635204315186
			],
			"translation": [
				-0.26791903376579285,
				0.38344883918762207,
				0.13469968736171722
			]
		},
		{
			"mesh": 3,
			"name": "Leaf_009",
			"rotation": [
				0.0655285120010376,
				0.8804404735565186,
				-0.01941627264022827,
				0.4692055284976959
			],
			"scale": [
				0.7580486536026001,
				0.7580485939979553,
				0.7580485343933105
			],
			"translation": [
				-0.06836024671792984,
				0.3174407482147217,
				-0.22631697356700897
			]
		},
		{
			"mesh": 2,
			"name": "Petiole_010",
			"rotation": [
				-0.13085085153579712,
				0.11368254572153091,
				-0.09726410359144211,
				0.9800480008125305
			],
			"scale": [
				0.9254021048545837,
				0.9254021048545837,
				0.9254021644592285
			],
			"translation": [
				-0.17087595164775848,
				0.12589982151985168,
				0.28210964798927307
			]
		},
		{
			"mesh": 3,
			"name": "Leaf_010",
			"rotation": [
				-0.01032931823283434,
				0.6270568370819092,
				0.0027055067475885153,
				0.7789004445075989
			],
			"scale": [
				0.971649169921875,
				0.9716492295265198,
				0.9716492295265198
			],
			"translation": [
				-0.09918443858623505,
				-0.005522542167454958,
				0.015168990939855576
			]
		},
		{
			"mesh": 2,
			"name": "Petiole_011",
			"rotation": [
				-0.0741642564535141,
				-0.5510287880897522,
				-0.07592244446277618,
				0.8277093172073364
			],
			"scale": [
				0.915172278881073,
				0.9151723384857178,
				0.9151723384857178
			],
			"translation": [
				-0.35902783274650574,
				0.10087738931179047,
				0.2422439604997635
			]
		},
		{
			"mesh": 3,
			"name": "Leaf_011",
			"rotation": [
				-0.022419121116399765,
				-0.3657959997653961,
				-0.020383542403578758,
				0.9302017688751221
			],
			"scale": [
				0.9287930130958557,
				0.9287929534912109,
				0.9287930727005005
			],
			"translation": [
				-0.08831099420785904,
				0.09119203686714172,
				-0.005370761267840862
			]
		},
		{
			"mesh": 2,
			"name": "Petiole_012",
			"rotation": [
				0.0802474096417427,
				0.39493677020072937,
				-0.0806734636425972,
				0.9116343259811401
			],
			"scale": [
				0.6604844331741333,
				0.6604844331741333,
				0.6604843735694885
			],
			"translation": [
				-0.1696731299161911,
				0.5525653958320618,
				-0.09956570714712143
			]
		},
		{
			"mesh": 3,
			"name": "Leaf_012",
			"rotation": [
				0.041019514203071594,
				0.4569326341152191,
				-0.0415007546544075,
				0.8875852823257446
			],
			"scale": [
				0.8677718639373779,
				0.8677718043327332,
				0.8677718639373779
			],
			"translation": [
				-0.19437779486179352,
				-0.1577930450439453,
				-0.03769573196768761
			]
		},
		{
			"mesh": 2,
			"name": "Petiole_013",
			"rotation": [
				0.07078900933265686,
				-0.7674322128295898,
				0.16154053807258606,
				0.6163938641548157
			],
			"scale": [
				0.8184099793434143,
				0.8184099793434143,
				0.8184099197387695
			],
			"translation": [
				0.4023211598396301,
				0.3877853453159332,
				0.2028125375509262
			]
		},
		{
			"mesh": 3,
			"name": "Leaf_013",
			"rotation": [
				-0.013761498965322971,
				-0.8129948973655701,
				0.07988501340150833,
				0.5766006708145142
			],
			"scale": [
				0.797293484210968,
				0.7972936034202576,
				0.7972936630249023
			],
			"translation": [
				-0.24093635380268097,
				0.21173672378063202,
				0.2133815586566925
			]
		},
		{
			"mesh": 2,
			"name": "Petiole_014",
			"rotation": [
				-0.0810864046216011,
				-0.9815289378166199,
				-0.047026824206113815,
				0.16677658259868622
			],
			"scale": [
				1.2552968263626099,
				1.2552968263626099,
				1.2552969455718994
			],
			"translation": [
				-0.26599735021591187,
				-0.3933621048927307,
				-0.14741703867912292
			]
		},
		{
			"mesh": 3,
			"name": "Leaf_014",
			"rotation": [
				0.05764206498861313,
				0.9945510625839233,
				0.02899852953851223,
				0.08188218623399734
			],
			"scale": [
				0.8463432788848877,
				0.8463433384895325,
				0.8463432192802429
			],
			"translation": [
				-0.2540232539176941,
				0.9022433757781982,
				-0.312067449092865
			]
		},
		{
			"mesh": 2,
			"name": "Petiole_015",
			"rotation": [
				-0.06174847483634949,
				0.8847380876541138,
				-0.1542261242866516,
				0.435476690530777
			],
			"scale": [
				0.31758973002433777,
				0.31758975982666016,
				0.31758975982666016
			],
			"translation": [
				0.06299002468585968,
				1.0926005840301514,
				0.056851502507925034
			]
		},
		{
			"mesh": 3,
			"name": "Leaf_015",
			"rotation": [
				0.07288968563079834,
				0.9447624683380127,
				-0.07827593386173248,
				0.30981263518333435
			],
			"scale": [
				0.566412627696991,
				0.566412627696991,
				0.566412627696991
			],
			"translation": [
				-0.2665001153945923,
				0.32325515151023865,
				0.11020150780677795
			]
		},
		{
			"mesh": 2,
			"name": "Petiole_016",
			"rotation": [
				0.019888754934072495,
				-0.34021613001823425,
				0.07754997164011002,
				0.9369329810142517
			],
			"scale": [
				0.6845892071723938,
				0.6845892071723938,
				0.6845892071723938
			],
			"translation": [
				0.15440647304058075,
				0.4950208067893982,
				0.007334513124078512
			]
		},
		{
			"mesh": 3,
			"name": "Leaf_016",
			"rotation": [
				0.0559513159096241,
				-0.4760967493057251,
				-0.013097766786813736,
				0.8775134086608887
			],
			"scale": [
				0.8468394875526428,
				0.8468394875526428,
				0.8468394875526428
			],
			"translation": [
				0.07394012063741684,
				0.008549143560230732,
				-0.27175459265708923
			]
		},
		{
			"mesh": 2,
			"name": "Petiole_017",
			"rotation": [
				-0.044526394456624985,
				0.9085862040519714,
				-0.08438797295093536,
				0.4066537320613861
			],
			"scale": [
				0.6548888683319092,
				0.654888927936554,
				0.6548888087272644
			],
			"translation": [
				-0.018014639616012573,
				0.5477498173713684,
				0.1808529645204544
			]
		},
		{
			"mesh": 3,
			"name": "Leaf_017",
			"rotation": [
				0.06142841652035713,
				0.9599201083183289,
				-0.0436842180788517,
				0.2699475884437561
			],
			"scale": [
				0.7163852453231812,
				0.7163853645324707,
				0.7163852453231812
			],
			"translation": [
				-0.2525729835033417,
				0.3389877676963806,
				0.032065991312265396
			]
		},
		{
			"mesh": 2,
			"name": "Petiole_018",
			"rotation": [
				0.09786096960306168,
				-0.9266151785850525,
				0.12474124133586884,
				0.34095045924186707
			],
			"scale": [
				0.7117663621902466,
				0.7117663025856018,
				0.7117663621902466
			],
			"translation": [
				0.19194132089614868,
				0.5126878023147583,
				0.1596006453037262
			]
		},
		{
			"mesh": 3,
			"name": "Leaf_018",
			"rotation": [
				0.023423871025443077,
				-0.9118952751159668,
				0.03349655866622925,
				0.4083825349807739
			],
			"scale": [
				0.8130789399147034,
				0.8130789399147034,
				0.8130789399147034
			],
			"translation": [
				-0.12246587872505188,
				-0.008629493415355682,
				-0.12556126713752747
			]
		},
		{
			"mesh": 2,
			"name": "Petiole_019",
			"rotation": [
				0.026207491755485535,
				-0.015715673565864563,
				0.0715140551328659,
				0.9969714283943176
			],
			"scale": [
				0.3759033977985382,
				0.3759033977985382,
				0.3759033977985382
			],
			"translation": [
				-0.03301116079092026,
				0.9641722440719604,
				0.07657616585493088
			]
		},
		{
			"mesh": 3,
			"name": "Leaf_019",
			"rotation": [
				0.0913565456867218,
				-0.23817075788974762,
				0.0805654376745224,
				0.9635549187660217
			],
			"scale": [
				0.6407698392868042,
				0.6407698392868042,
				0.640769898891449
			],
			"translation": [
				0.377157062292099,
				0.2738966941833496,
				-0.27670273184776306
			]
		},
		{
			"mesh": 2,
			"name": "Petiole_020",
			"rotation": [
				0.10739810019731522,
				-0.8598405718803406,
				0.07479735463857651,
				0.49350297451019287
			],
			"scale": [
				0.39838454127311707,
				0.39838457107543945,
				0.39838454127311707
			],
			"translation": [
				-0.07578118145465851,
				0.9549484848976135,
				0.006012819707393646
			]
		},
		{
			"mesh": 3,
			"name": "Leaf_020",
			"rotation": [
				0.06392523646354675,
				-0.8036206960678101,
				0.0815804973244667,
				0.5860479474067688
			],
			"scale": [
				0.6186381578445435,
				0.6186380386352539,
				0.6186381578445435
			],
			"translation": [
				0.1392991542816162,
				0.2810348570346832,
				0.047359127551317215
			]
		},
		{
			"mesh": 2,
			"name": "Petiole_021",
			"rotation": [
				-0.02730257622897625,
				0.904757559299469,
				0.011978507041931152,
				0.4248823821544647
			],
			"scale": [
				0.9092850685119629,
				0.9092850685119629,
				0.9092851281166077
			],
			"translation": [
				0.06055949628353119,
				0.09132406860589981,
				-0.003945198841392994
			]
		},
		{
			"mesh": 3,
			"name": "Leaf_021",
			"rotation": [
				0.017121074721217155,
				0.9363321661949158,
				0.030146000906825066,
				0.3493998348712921
			],
			"scale": [
				1.1927381753921509,
				1.1927381753921509,
				1.1927379369735718
			],
			"translation": [
				-0.19809330999851227,
				-0.7608391046524048,
				-0.03072967939078808
			]
		},
		{
			"mesh": 2,
			"name": "Petiole_022",
			"rotation": [
				0.10054445266723633,
				0.18331579864025116,
				-0.0035753927659243345,
				0.9778923392295837
			],
			"scale": [
				0.7767260670661926,
				0.7767260670661926,
				0.7767260074615479
			],
			"translation": [
				0.03989051282405853,
				0.3715868294239044,
				-0.16547706723213196
			]
		},
		{
			"mesh": 3,
			"name": "Leaf_022",
			"rotation": [
				0.01880391500890255,
				0.17628030478954315,
				-0.03494732826948166,
				0.9835397005081177
			],
			"scale": [
				0.8698973655700684,
				0.8698973655700684,
				0.8698973655700684
			],
			"translation": [
				-0.0757330060005188,
				-0.016602709889411926,
				0.19567734003067017
			]
		},
		{
			"mesh": 2,
			"name": "Petiole_023",
			"rotation": [
				0.1584477424621582,
				0.7046559453010559,
				-0.14151163399219513,
				0.6769998073577881
			],
			"scale": [
				0.5509563088417053,
				0.5509563088417053,
				0.5509563088417053
			],
			"translation": [
				-0.321735143661499,
				0.8195760250091553,
				-0.012328854762017727
			]
		},
		{
			"mesh": 3,
			"name": "Leaf_023",
			"rotation": [
				0.04776984080672264,
				0.6931478977203369,
				-0.06441269814968109,
				0.7163205146789551
			],
			"scale": [
				0.7308179140090942,
				0.7308179140090942,
				0.7308179140090942
			],
			"translation": [
				-0.10358334332704544,
				0.06197063997387886,
				0.03630569204688072
			]
		},
		{
			"mesh": 2,
			"name": "Petiole_024",
			"rotation": [
				0.07135160267353058,
				-0.01762956753373146,
				-0.011807323433458805,
				0.9972255229949951
			],
			"scale": [
				0.8598724603652954,
				0.8598724007606506,
				0.8598724007606506
			],
			"translation": [
				0.016031045466661453,
				0.20805948972702026,
				-0.192146435379982
			]
		},
		{
			"mesh": 3,
			"name": "Leaf_024",
			"rotation": [
				0.02456638030707836,
				0.020474033430218697,
				0.007390183862298727,
				0.99946129322052
			],
			"scale": [
				0.9388616681098938,
				0.9388616681098938,
				0.9388616681098938
			],
			"translation": [
				0.050838127732276917,
				-0.1037217453122139,
				0.008273874409496784
			]
		},
		{
			"mesh": 2,
			"name": "Petiole_025",
			"rotation": [
				0.010529760271310806,
				-0.27790284156799316,
				0.06277266144752502,
				0.9584982395172119
			],
			"scale": [
				0.4671917259693146,
				0.46719175577163696,
				0.4671917259693146
			],
			"translation": [
				0.01135511975735426,
				0.8115662932395935,
				0.11977224051952362
			]
		},
		{
			"mesh": 3,
			"name": "Leaf_025",
			"rotation": [
				0.02553914487361908,
				-0.36863213777542114,
				0.05155821144580841,
				0.927793025970459
			],
			"scale": [
				0.9044265747070312,
				0.9044265151023865,
				0.9044266939163208
			],
			"translation": [
				0.3890594244003296,
				-0.5034155249595642,
				-0.12840497493743896
			]
		},
		{
			"mesh": 2,
			"name": "Petiole_026",
			"rotation": [
				0.05213272199034691,
				-0.9917494654655457,
				0.10986080765724182,
				0.04056796059012413
			],
			"scale": [
				0.3422239422798157,
				0.3422239422798157,
				0.3422239422798157
			],
			"translation": [
				0.07322850078344345,
				1.0261093378067017,
				-0.13321810960769653
			]
		},
		{
			"mesh": 3,
			"name": "Leaf_026",
			"rotation": [
				0.021772202104330063,
				-0.9952227473258972,
				0.09240157157182693,
				0.022796129807829857
			],
			"scale": [
				0.6363369822502136,
				0.6363369226455688,
				0.6363369822502136
			],
			"translation": [
				0.07069810479879379,
				0.14666204154491425,
				0.1995687335729599
			]
		},
		{
			"mesh": 2,
			"name": "Petiole_027",
			"rotation": [
				0.06791754812002182,
				-0.9628906846046448,
				0.2329856902360916,
				0.11809491366147995
			],
			"scale": [
				0.343731164932251,
				0.3437311351299286,
				0.343731164932251
			],
			"translation": [
				-0.0008218202274292707,
				1.1018811464309692,
				0.13632164895534515
			]
		},
		{
			"mesh": 3,
			"name": "Leaf_027",
			"rotation": [
				0.022341638803482056,
				-0.9775224328041077,
				0.09597686678171158,
				0.18638469278812408
			],
			"scale": [
				0.5347525477409363,
				0.5347525477409363,
				0.534752607345581
			],
			"translation": [
				0.030796097591519356,
				0.36573365330696106,
				0.08425378054380417
			]
		},
		{
			"mesh": 2,
			"name": "Petiole_028",
			"rotation": [
				-0.05806634575128555,
				-0.8259301781654358,
				0.04916852340102196,
				0.5586146712303162
			],
			"scale": [
				1.2523316144943237,
				1.2523317337036133,
				1.2523316144943237
			],
			"translation": [
				0.0006039640284143388,
				-0.3945777714252472,
				0.26415330171585083
			]
		},
		{
			"mesh": 3,
			"name": "Leaf_028",
			"rotation": [
				-8.085651643341407e-05,
				-0.9224677681922913,
				0.016966313123703003,
				0.38570117950439453
			],
			"scale": [
				1.0326673984527588,
				1.0326675176620483,
				1.032667636871338
			],
			"translation": [
				-0.09261707216501236,
				0.29494979977607727,
				-0.019136890769004822
			]
		},
		{
			"mesh": 2,
			"name": "Petiole_029",
			"rotation": [
				0.13911093771457672,
				-0.22737209498882294,
				0.022149337455630302,
				0.9635660648345947
			],
			"scale": [
				0.9019993543624878,
				0.9019993543624878,
				0.9019994139671326
			],
			"translation": [
				0.18867486715316772,
				0.24536485970020294,
				-0.39196956157684326
			]
		},
		{
			"mesh": 3,
			"name": "Leaf_029",
			"rotation": [
				0.03143109008669853,
				-0.20717370510101318,
				0.05397439002990723,
				0.9763083457946777
			],
			"scale": [
				0.9073761701583862,
				0.907376229763031,
				0.9073761701583862
			],
			"translation": [
				0.19415517151355743,
				0.016248047351837158,
				0.19878876209259033
			]
		},
		{
			"mesh": 2,
			"name": "Petiole_030",
			"rotation": [
				0.02030193991959095,
				-0.6175612211227417,
				0.10152127593755722,
				0.779679000377655
			],
			"scale": [
				0.5695565938949585,
				0.5695565342903137,
				0.5695566534996033
			],
			"translation": [
				-0.008664353750646114,
				0.6912878155708313,
				0.15223568677902222
			]
		},
		{
			"mesh": 3,
			"name": "Leaf_030",
			"rotation": [
				0.03575211018323898,
				-0.6830548048019409,
				0.010476147755980492,
				0.7294163703918457
			],
			"scale": [
				0.6946011185646057,
				0.6946011185646057,
				0.6946011185646057
			],
			"translation": [
				-0.1157824844121933,
				0.2620786726474762,
				-0.04323109611868858
			]
		},
		{
			"mesh": 2,
			"name": "Petiole_031",
			"rotation": [
				-0.03391934931278229,
				-0.7563491463661194,
				0.0038824270013719797,
				0.6532766222953796
			],
			"scale": [
				0.9913730025291443,
				0.99137282371521,
				0.9913729429244995
			],
			"translation": [
				-0.19872082769870758,
				-0.04615035653114319,
				0.1285414844751358
			]
		},
		{
			"mesh": 3,
			"name": "Leaf_031",
			"rotation": [
				0.013600494712591171,
				-0.7763696312904358,
				-0.03492642939090729,
				0.6291623711585999
			],
			"scale": [
				1.087257742881775,
				1.087257981300354,
				1.087257981300354
			],
			"translation": [
				-0.09695490449666977,
				-0.3002954423427582,
				-0.2314150184392929
			]
		},
		{
			"mesh": 4,
			"name": "SpathStalk_00"
		},
		{
			"mesh": 5,
			"name": "Spathe_00"
		},
		{
			"mesh": 4,
			"name": "SpathStalk_01",
			"rotation": [
				0.0821746364235878,
				-0.06051025167107582,
				0.0545174665749073,
				0.993284285068512
			],
			"scale": [
				1.0195637941360474,
				1.0195636749267578,
				1.0195637941360474
			],
			"translation": [
				0.12210313975811005,
				-0.03416891396045685,
				-0.05372283235192299
			]
		},
		{
			"mesh": 5,
			"name": "Spathe_01",
			"rotation": [
				-0.0006310229073278606,
				-0.7894762754440308,
				0.015205267816781998,
				0.6135925650596619
			],
			"translation": [
				-0.11319759488105774,
				0.04302758723497391,
				-0.07202735543251038
			]
		},
		{
			"mesh": 4,
			"name": "SpathStalk_02",
			"rotation": [
				0.023965362459421158,
				0.07641319930553436,
				0.08201055228710175,
				0.993408739566803
			],
			"scale": [
				1.1157339811325073,
				1.1157339811325073,
				1.1157338619232178
			],
			"translation": [
				0.13327111303806305,
				-0.17730504274368286,
				-0.039076510816812515
			]
		},
		{
			"mesh": 5,
			"name": "Spathe_02",
			"rotation": [
				0.014983152970671654,
				0.7765778303146362,
				-0.0011665471829473972,
				0.6298420429229736
			],
			"translation": [
				0.09297432005405426,
				0.22281192243099213,
				-0.025019509717822075
			]
		},
		{
			"mesh": 4,
			"name": "SpathStalk_03",
			"rotation": [
				0.024673452600836754,
				-0.009194488637149334,
				0.020235788077116013,
				0.9994485378265381
			],
			"scale": [
				0.9349974989891052,
				0.9349974393844604,
				0.9349974989891052
			],
			"translation": [
				0.08670616149902344,
				0.0886828824877739,
				0.026733454316854477
			]
		},
		{
			"mesh": 5,
			"name": "Spathe_03",
			"rotation": [
				0.005836403928697109,
				-0.09559085965156555,
				0.009832710027694702,
				0.9953550696372986
			],
			"translation": [
				-0.04439343139529228,
				-0.11471091210842133,
				0.11287208646535873
			]
		},
		{
			"mesh": 4,
			"name": "SpathStalk_04",
			"rotation": [
				0.14278408885002136,
				-0.0648086741566658,
				0.14824484288692474,
				0.9764405488967896
			],
			"scale": [
				0.9979454278945923,
				0.9979454278945923,
				0.9979454278945923
			],
			"translation": [
				0.32868680357933044,
				0.07415152341127396,
				-0.2398226112127304
			]
		},
		{
			"mesh": 5,
			"name": "Spathe_04",
			"rotation": [
				0.01172138936817646,
				-0.9993599057197571,
				-0.014193401671946049,
				0.030675943940877914
			],
			"translation": [
				-0.042382534593343735,
				-0.024939287453889847,
				-0.025716273114085197
			]
		}
	],
	"materials": [
		{
			"doubleSided": true,
			"extensions": {
				"KHR_materials_specular": {
					"specularFactor": 0.4000000059604645
				}
			},
			"name": "PotMat",
			"pbrMetallicRoughness": {
				"baseColorTexture": {
					"index": 0
				},
				"metallicFactor": 0,
				"roughnessFactor": 0.8500000238418579
			}
		},
		{
			"doubleSided": true,
			"extensions": {
				"KHR_materials_specular": {
					"specularFactor": 0.4000000059604645
				}
			},
			"name": "SoilMat",
			"pbrMetallicRoughness": {
				"baseColorTexture": {
					"index": 1
				},
				"metallicFactor": 0,
				"roughnessFactor": 0.8500000238418579
			}
		},
		{
			"doubleSided": true,
			"extensions": {
				"KHR_materials_specular": {
					"specularFactor": 0.4000000059604645
				}
			},
			"name": "PetioleMat",
			"pbrMetallicRoughness": {
				"baseColorTexture": {
					"index": 2
				},
				"metallicFactor": 0,
				"roughnessFactor": 0.8500000238418579
			}
		},
		{
			"alphaMode": "BLEND",
			"doubleSided": true,
			"extensions": {
				"KHR_materials_specular": {
					"specularFactor": 0.4000000059604645
				}
			},
			"name": "LeafMat",
			"pbrMetallicRoughness": {
				"baseColorTexture": {
					"index": 4
				},
				"metallicFactor": 0,
				"roughnessFactor": 0.8500000238418579
			}
		},
		{
			"doubleSided": true,
			"extensions": {
				"KHR_materials_specular": {
					"specularFactor": 0.4000000059604645
				}
			},
			"name": "SpathStalkMat",
			"pbrMetallicRoughness": {
				"baseColorTexture": {
					"index": 5
				},
				"metallicFactor": 0,
				"roughnessFactor": 0.8500000238418579
			}
		},
		{
			"alphaMode": "BLEND",
			"doubleSided": true,
			"extensions": {
				"KHR_materials_specular": {
					"specularFactor": 0.4000000059604645
				}
			},
			"name": "SpatheMat",
			"pbrMetallicRoughness": {
				"baseColorTexture": {
					"index": 6
				},
				"metallicFactor": 0,
				"roughnessFactor": 0.8500000238418579
			}
		}
	],
	"meshes": [
		{
			"name": "Pot.001",
			"primitives": [
				{
					"attributes": {
						"POSITION": 0,
						"NORMAL": 1,
						"TEXCOORD_0": 2
					},
					"indices": 3,
					"material": 0
				}
			]
		},
		{
			"name": "Soil.001",
			"primitives": [
				{
					"attributes": {
						"POSITION": 4,
						"NORMAL": 5,
						"TEXCOORD_0": 6
					},
					"indices": 7,
					"material": 1
				}
			]
		},
		{
			"name": "Petiole_000",
			"primitives": [
				{
					"attributes": {
						"POSITION": 8,
						"NORMAL": 9,
						"TEXCOORD_0": 10
					},
					"indices": 11,
					"material": 2
				}
			]
		},
		{
			"name": "Leaf_000",
			"primitives": [
				{
					"attributes": {
						"POSITION": 12,
						"NORMAL": 13,
						"TEXCOORD_0": 14
					},
					"indices": 15,
					"material": 3
				}
			]
		},
		{
			"name": "SpathStalk_00",
			"primitives": [
				{
					"attributes": {
						"POSITION": 16,
						"NORMAL": 17,
						"TEXCOORD_0": 18
					},
					"indices": 19,
					"material": 4
				}
			]
		},
		{
			"name": "Spathe_00",
			"primitives": [
				{
					"attributes": {
						"POSITION": 20,
						"NORMAL": 21,
						"TEXCOORD_0": 22
					},
					"indices": 23,
					"material": 5
				}
			]
		}
	],
	"textures": [
		{
			"sampler": 0,
			"source": 0
		},
		{
			"sampler": 0,
			"source": 1
		},
		{
			"sampler": 0,
			"source": 2
		},
		{
			"sampler": 1,
			"source": 3
		},
		{
			"sampler": 1,
			"source": 3
		},
		{
			"sampler": 0,
			"source": 4
		},
		{
			"sampler": 1,
			"source": 5
		}
	],
	"images": [
		{
			"mimeType": "image/png",
			"name": "PotTex",
			"uri": "peace_lily/PotTex.png"
		},
		{
			"mimeType": "image/png",
			"name": "SoilTex",
			"uri": "peace_lily/SoilTex.png"
		},
		{
			"mimeType": "image/png",
			"name": "PetioleTex",
			"uri": "peace_lily/PetioleTex.png"
		},
		{
			"mimeType": "image/png",
			"name": "LeafTex",
			"uri": "peace_lily/LeafTex.png"
		},
		{
			"mimeType": "image/png",
			"name": "SpathStalkTex",
			"uri": "peace_lily/SpathStalkTex.png"
		},
		{
			"mimeType": "image/png",
			"name": "SpatheTex",
			"uri": "peace_lily/SpatheTex.png"
		}
	],
	"accessors": [
		{
			"bufferView": 0,
			"componentType": 5126,
			"count": 428,
			"max": [
				0.7400000095367432,
				1.5500000715255737,
				0.7400000095367432
			],
			"min": [
				-0.7400000095367432,
				0,
				-0.7400000095367432
			],
			"type": "VEC3"
		},
		{
			"bufferView": 1,
			"componentType": 5126,
			"count": 428,
			"type": "VEC3"
		},
		{
			"bufferView": 2,
			"componentType": 5126,
			"count": 428,
			"type": "VEC2"
		},
		{
			"bufferView": 3,
			"componentType": 5123,
			"count": 612,
			"type": "SCALAR"
		},
		{
			"bufferView": 4,
			"componentType": 5126,
			"count": 60,
			"max": [
				0.5728050470352173,
				1.5099999904632568,
				0.5728050470352173
			],
			"min": [
				-0.5728050470352173,
				1.4900001287460327,
				-0.5728050470352173
			],
			"type": "VEC3"
		},
		{
			"bufferView": 5,
			"componentType": 5126,
			"count": 60,
			"type": "VEC3"
		},
		{
			"bufferView": 6,
			"componentType": 5126,
			"count": 60,
			"type": "VEC2"
		},
		{
			"bufferView": 7,
			"componentType": 5123,
			"count": 72,
			"type": "SCALAR"
		},
		{
			"bufferView": 8,
			"componentType": 5126,
			"count": 90,
			"max": [
				0.058778516948223114,
				3.0973474979400635,
				0.7107344269752502
			],
			"min": [
				-0.023808209225535393,
				1.5511740446090698,
				0.14349350333213806
			],
			"type": "VEC3"
		},
		{
			"bufferView": 9,
			"componentType": 5126,
			"count": 90,
			"type": "VEC3"
		},
		{
			"bufferView": 10,
			"componentType": 5126,
			"count": 90,
			"type": "VEC2"
		},
		{
			"bufferView": 11,
			"componentType": 5123,
			"count": 138,
			"type": "SCALAR"
		},
		{
			"bufferView": 12,
			"componentType": 5126,
			"count": 48,
			"max": [
				0.42350059747695923,
				3.3324670791625977,
				1.9412449598312378
			],
			"min": [
				-0.25379639863967896,
				3.0785341262817383,
				0.6829193234443665
			],
			"type": "VEC3"
		},
		{
			"bufferView": 13,
			"componentType": 5126,
			"count": 48,
			"type": "VEC3"
		},
		{
			"bufferView": 14,
			"componentType": 5126,
			"count": 48,
			"type": "VEC2"
		},
		{
			"bufferView": 15,
			"componentType": 5123,
			"count": 72,
			"type": "SCALAR"
		},
		{
			"bufferView": 16,
			"componentType": 5126,
			"count": 90,
			"max": [
				0.32195988297462463,
				3.388845205307007,
				-0.1221456527709961
			],
			"min": [
				0.06719577312469482,
				1.538238763809204,
				-0.3267554044723511
			],
			"type": "VEC3"
		},
		{
			"bufferView": 17,
			"componentType": 5126,
			"count": 90,
			"type": "VEC3"
		},
		{
			"bufferView": 18,
			"componentType": 5126,
			"count": 90,
			"type": "VEC2"
		},
		{
			"bufferView": 19,
			"componentType": 5123,
			"count": 138,
			"type": "SCALAR"
		},
		{
			"bufferView": 20,
			"componentType": 5126,
			"count": 32,
			"max": [
				0.634513258934021,
				4.331236362457275,
				0.050475798547267914
			],
			"min": [
				0.010148465633392334,
				3.3849563598632812,
				-0.7037832140922546
			],
			"type": "VEC3"
		},
		{
			"bufferView": 21,
			"componentType": 5126,
			"count": 32,
			"type": "VEC3"
		},
		{
			"bufferView": 22,
			"componentType": 5126,
			"count": 32,
			"type": "VEC2"
		},
		{
			"bufferView": 23,
			"componentType": 5123,
			"count": 48,
			"type": "SCALAR"
		}
	],
	"bufferViews": [
		{
			"buffer": 0,
			"byteLength": 5136,
			"byteOffset": 0,
			"target": 34962
		},
		{
			"buffer": 0,
			"byteLength": 5136,
			"byteOffset": 5136,
			"target": 34962
		},
		{
			"buffer": 0,
			"byteLength": 3424,
			"byteOffset": 10272,
			"target": 34962
		},
		{
			"buffer": 0,
			"byteLength": 1224,
			"byteOffset": 13696,
			"target": 34963
		},
		{
			"buffer": 0,
			"byteLength": 720,
			"byteOffset": 14920,
			"target": 34962
		},
		{
			"buffer": 0,
			"byteLength": 720,
			"byteOffset": 15640,
			"target": 34962
		},
		{
			"buffer": 0,
			"byteLength": 480,
			"byteOffset": 16360,
			"target": 34962
		},
		{
			"buffer": 0,
			"byteLength": 144,
			"byteOffset": 16840,
			"target": 34963
		},
		{
			"buffer": 0,
			"byteLength": 1080,
			"byteOffset": 16984,
			"target": 34962
		},
		{
			"buffer": 0,
			"byteLength": 1080,
			"byteOffset": 18064,
			"target": 34962
		},
		{
			"buffer": 0,
			"byteLength": 720,
			"byteOffset": 19144,
			"target": 34962
		},
		{
			"buffer": 0,
			"byteLength": 276,
			"byteOffset": 19864,
			"target": 34963
		},
		{
			"buffer": 0,
			"byteLength": 576,
			"byteOffset": 20140,
			"target": 34962
		},
		{
			"buffer": 0,
			"byteLength": 576,
			"byteOffset": 20716,
			"target": 34962
		},
		{
			"buffer": 0,
			"byteLength": 384,
			"byteOffset": 21292,
			"target": 34962
		},
		{
			"buffer": 0,
			"byteLength": 144,
			"byteOffset": 21676,
			"target": 34963
		},
		{
			"buffer": 0,
			"byteLength": 1080,
			"byteOffset": 21820,
			"target": 34962
		},
		{
			"buffer": 0,
			"byteLength": 1080,
			"byteOffset": 22900,
			"target": 34962
		},
		{
			"buffer": 0,
			"byteLength": 720,
			"byteOffset": 23980,
			"target": 34962
		},
		{
			"buffer": 0,
			"byteLength": 276,
			"byteOffset": 24700,
			"target": 34963
		},
		{
			"buffer": 0,
			"byteLength": 384,
			"byteOffset": 24976,
			"target": 34962
		},
		{
			"buffer": 0,
			"byteLength": 384,
			"byteOffset": 25360,
			"target": 34962
		},
		{
			"buffer": 0,
			"byteLength": 256,
			"byteOffset": 25744,
			"target": 34962
		},
		{
			"buffer": 0,
			"byteLength": 96,
			"byteOffset": 26000,
			"target": 34963
		}
	],
	"samplers": [
		{
			"magFilter": 9728,
			"minFilter": 9984
		},
		{
			"magFilter": 9728,
			"minFilter": 9984,
			"wrapS": 33071,
			"wrapT": 33071
		}
	],
	"buffers": [
		{
			"byteLength": 26096,
			"uri": "plant_peace_lily.bin"
		}
	]
}