{
	"asset": {
		"generator": "Khronos glTF Blender I/O v5.1.19",
		"version": "2.0"
	},
	"extensionsUsed": [
		"KHR_materials_specular"
	],
	"scene": 0,
	"scenes": [
		{
			"name": "Scene",
			"nodes": [
				0,
				1,
				2,
				3,
				4,
				5,
				6,
				7,
				8,
				9,
				10,
				11,
				12,
				13,
				14,
				15,
				16,
				17,
				18,
				19,
				20,
				21,
				22,
				23,
				24,
				25,
				26,
				27,
				28,
				29,
				30,
				31,
				32,
				33,
				34,
				35,
				36,
				37,
				38,
				39,
				40,
				41,
				42,
				43,
				44,
				45,
				46,
				47,
				48,
				49,
				50,
				51,
				52,
				53,
				54,
				55,
				56,
				57
			]
		}
	],
	"nodes": [
		{
			"mesh": 0,
			"name": "Pot"
		},
		{
			"mesh": 1,
			"name": "Soil"
		},
		{
			"mesh": 2,
			"name": "Petiole_000"
		},
		{
			"mesh": 3,
			"name": "Leaf_000"
		},
		{
			"mesh": 2,
			"name": "Petiole_001",
			"rotation": [
				0.013478712178766727,
				0.8921679258346558,
				0.1899784505367279,
				0.40958869457244873
			],
			"scale": [
				1.3143532276153564,
				1.3143532276153564,
				1.3143529891967773
			],
			"translation": [
				0.4075642228126526,
				-0.18154487013816833,
				-0.5710992813110352
			]
		},
		{
			"mesh": 3,
			"name": "Leaf_001",
			"rotation": [
				0.029957452788949013,
				0.9642043709754944,
				-0.017858458682894707,
				0.26285651326179504
			],
			"scale": [
				1.0050383806228638,
				1.0050383806228638,
				1.0050383806228638
			],
			"translation": [
				-0.4295389652252197,
				-0.03125489875674248,
				0.2897548973560333
			]
		},
		{
			"mesh": 2,
			"name": "Petiole_002",
			"rotation": [
				-0.18367032706737518,
				-0.7564395666122437,
				-0.2452005296945572,
				0.5778763294219971
			],
			"scale": [
				0.6546545624732971,
				0.6546546220779419,
				0.6546546220779419
			],
			"translation": [
				-0.34763994812965393,
				0.6399556994438171,
				-0.07063888013362885
			]
		},
		{
			"mesh": 3,
			"name": "Leaf_002",
			"rotation": [
				0.07749292254447937,
				-0.7515407204627991,
				-0.06405499577522278,
				0.6519805192947388
			],
			"scale": [
				0.8150236010551453,
				0.8150236010551453,
				0.8150235414505005
			],
			"translation": [
				0.30737701058387756,
				-0.16428698599338531,
				-0.1909131109714508
			]
		},
		{
			"mesh": 2,
			"name": "Petiole_003",
			"rotation": [
				-0.2249549925327301,
				0.2560339868068695,
				0.1025889590382576,
				0.9345145225524902
			],
			"scale": [
				0.6363512873649597,
				0.6363512873649597,
				0.6363512873649597
			],
			"translation": [
				0.2006225436925888,
				0.6036404967308044,
				0.2265990525484085
			]
		},
		{
			"mesh": 3,
			"name": "Leaf_003",
			"rotation": [
				-0.037044089287519455,
				0.34401753544807434,
				0.010656767524778843,
				0.9381716847419739
			],
			"scale": [
				0.7758165597915649,
				0.7758165597915649,
				0.7758165001869202
			],
			"translation": [
				-0.006660079583525658,
				-0.013879220932722092,
				-0.09493719786405563
			]
		},
		{
			"mesh": 2,
			"name": "Petiole_004",
			"rotation": [
				-0.1525622457265854,
				-0.4515659809112549,
				-0.08283364772796631,
				0.875186562538147
			],
			"scale": [
				0.4398239552974701,
				0.4398239552974701,
				0.4398239552974701
			],
			"translation": [
				-0.027797020971775055,
				0.7552905082702637,
				0.09871320426464081
			]
		},
		{
			"mesh": 3,
			"name": "Leaf_004",
			"rotation": [
				0.0034976452589035034,
				-0.4501491189002991,
				-0.061342768371105194,
				0.8908370137214661
			],
			"scale": [
				0.8290348052978516,
				0.8290348052978516,
				0.8290347456932068
			],
			"translation": [
				-0.21691809594631195,
				-0.16859999299049377,
				-0.08724863082170486
			]
		},
		{
			"mesh": 2,
			"name": "Petiole_005",
			"rotation": [
				-0.1463603526353836,
				-0.4331194758415222,
				-0.004994195420295,
				0.8893600106239319
			],
			"scale": [
				0.421592116355896,
				0.421592116355896,
				0.4215921461582184
			],
			"translation": [
				0.007190896663814783,
				0.7585711479187012,
				0.0388394333422184
			]
		},
		{
			"mesh": 3,
			"name": "Leaf_005",
			"rotation": [
				-0.012718269601464272,
				-0.3196788728237152,
				-0.027012893930077553,
				0.9470553994178772
			],
			"scale": [
				0.783810555934906,
				0.783810555934906,
				0.783810555934906
			],
			"translation": [
				-0.1259150356054306,
				-0.0897306352853775,
				0.03572073206305504
			]
		},
		{
			"mesh": 2,
			"name": "Petiole_006",
			"rotation": [
				-0.1599501222372055,
				-0.3810320496559143,
				-0.02909751795232296,
				0.9101559519767761
			],
			"scale": [
				1.1376569271087646,
				1.137656807899475,
				1.137656807899475
			],
			"translation": [
				-0.35497725009918213,
				-0.01316846814006567,
				0.33069849014282227
			]
		},
		{
			"mesh": 3,
			"name": "Leaf_006",
			"rotation": [
				0.028354084119200706,
				-0.27247288823127747,
				0.005831752438098192,
				0.9617279171943665
			],
			"scale": [
				0.9845849871635437,
				0.9845849275588989,
				0.9845848679542542
			],
			"translation": [
				0.3191209137439728,
				-0.08171704411506653,
				-0.320818156003952
			]
		},
		{
			"mesh": 2,
			"name": "Petiole_007",
			"rotation": [
				-0.0157343540340662,
				0.2310628741979599,
				0.04102003946900368,
				0.9719463586807251
			],
			"scale": [
				1.1253492832183838,
				1.1253494024276733,
				1.125349521636963
			],
			"translation": [
				0.047803379595279694,
				-0.14790816605091095,
				-0.015100320801138878
			]
		},
		{
			"mesh": 3,
			"name": "Leaf_007",
			"rotation": [
				0.02098625712096691,
				0.3173079788684845,
				-0.017425552010536194,
				0.9479301571846008
			],
			"scale": [
				0.9316516518592834,
				0.9316515922546387,
				0.9316514730453491
			],
			"translation": [
				-0.1635681688785553,
				0.17330867052078247,
				-0.29233837127685547
			]
		},
		{
			"mesh": 2,
			"name": "Petiole_008",
			"rotation": [
				-0.07983372360467911,
				0.3263770043849945,
				0.1140032634139061,
				0.9349374771118164
			],
			"scale": [
				1.1657037734985352,
				1.1657037734985352,
				1.1657038927078247
			],
			"translation": [
				0.3281404376029968,
				-0.08160313963890076,
				0.24359050393104553
			]
		},
		{
			"mesh": 3,
			"name": "Leaf_008",
			"rotation": [
				0.011997000314295292,
				0.4832657277584076,
				0.00020851896260865033,
				0.8753914833068848
			],
			"scale": [
				1.0037132501602173,
				1.0037132501602173,
				1.0037132501602173
			],
			"translation": [
				-0.1741972267627716,
				0.0013411515392363071,
				-0.2275550365447998
			]
		},
		{
			"mesh": 2,
			"name": "Petiole_009",
			"rotation": [
				-0.10671217739582062,
				-0.7711971998214722,
				0.03215844929218292,
				0.6267641186714172
			],
			"scale": [
				0.8428941369056702,
				0.8428941965103149,
				0.8428941965103149
			],
			"translation": [
				-0.03946242853999138,
				0.25589123368263245,
				0.18636982142925262
			]
		},
		{
			"mesh": 3,
			"name": "Leaf_009",
			"rotation": [
				0.04657389596104622,
				-0.6699092984199524,
				-0.02781854011118412,
				0.7404584288597107
			],
			"scale": [
				0.8230922222137451,
				0.8230921626091003,
				0.8230920433998108
			],
			"translation": [
				0.17924271523952484,
				0.22964373230934143,
				-0.13889876008033752
			]
		},
		{
			"mesh": 2,
			"name": "Petiole_010",
			"rotation": [
				-0.00711987866088748,
				0.9983078837394714,
				0.055511556565761566,
				0.015788935124874115
			],
			"scale": [
				0.5797340869903564,
				0.5797340869903564,
				0.5797340869903564
			],
			"translation": [
				-0.04089304059743881,
				0.5526238083839417,
				0.03872887045145035
			]
		},
		{
			"mesh": 3,
			"name": "Leaf_010",
			"rotation": [
				-0.009103099815547466,
				0.999829113483429,
				0.012994131073355675,
				0.009499910287559032
			],
			"scale": [
				0.6686363816261292,
				0.6686363816261292,
				0.6686364412307739
			],
			"translation": [
				-0.02064576745033264,
				0.31645679473876953,
				0.08786799758672714
			]
		},
		{
			"mesh": 2,
			"name": "Petiole_011",
			"rotation": [
				-0.1314718872308731,
				0.7963248491287231,
				0.2600457966327667,
				0.5300548076629639
			],
			"scale": [
				0.6034883856773376,
				0.6034883856773376,
				0.6034883856773376
			],
			"translation": [
				0.24158412218093872,
				0.6970481276512146,
				-0.055072855204343796
			]
		},
		{
			"mesh": 3,
			"name": "Leaf_011",
			"rotation": [
				-0.05385104939341545,
				0.9068560600280762,
				-0.0390392430126667,
				0.4161587655544281
			],
			"scale": [
				0.7069665789604187,
				0.7069665193557739,
				0.7069665789604187
			],
			"translation": [
				-0.19949385523796082,
				0.04174590855836868,
				0.2804487347602844
			]
		},
		{
			"mesh": 2,
			"name": "Petiole_012",
			"rotation": [
				-0.07064467668533325,
				-0.9488542079925537,
				-0.039779480546712875,
				0.30512726306915283
			],
			"scale": [
				1.1344563961029053,
				1.1344563961029053,
				1.1344563961029053
			],
			"translation": [
				-0.17453168332576752,
				-0.1318274289369583,
				-0.05288929492235184
			]
		},
		{
			"mesh": 3,
			"name": "Leaf_012",
			"rotation": [
				0.07054531574249268,
				-0.9098278880119324,
				0.012181759811937809,
				0.40876415371894836
			],
			"scale": [
				0.9952678084373474,
				0.9952678084373474,
				0.9952678084373474
			],
			"translation": [
				0.38540977239608765,
				0.04532431438565254,
				0.12719494104385376
			]
		},
		{
			"mesh": 2,
			"name": "Petiole_013",
			"rotation": [
				-0.28127381205558777,
				-0.07011470943689346,
				-0.028963332995772362,
				0.9566243290901184
			],
			"scale": [
				0.7248028516769409,
				0.7248028516769409,
				0.7248027920722961
			],
			"translation": [
				-0.06369208544492722,
				0.557059645652771,
				0.3826681673526764
			]
		},
		{
			"mesh": 3,
			"name": "Leaf_013",
			"rotation": [
				-0.018763603642582893,
				-0.011293016374111176,
				-0.009714134968817234,
				0.9997130036354065
			],
			"scale": [
				0.7031387090682983,
				0.7031388282775879,
				0.7031387090682983
			],
			"translation": [
				0.10483216494321823,
				0.08931422978639603,
				-0.31664103269577026
			]
		},
		{
			"mesh": 2,
			"name": "Petiole_014",
			"rotation": [
				0.03321260213851929,
				0.7809967994689941,
				0.07670394331216812,
				0.6189163327217102
			],
			"scale": [
				1.6409053802490234,
				1.6409053802490234,
				1.6409052610397339
			],
			"translation": [
				0.2926065921783447,
				-0.7448051571846008,
				-0.2610225975513458
			]
		},
		{
			"mesh": 3,
			"name": "Leaf_014",
			"rotation": [
				0.031845733523368835,
				0.8602461814880371,
				-0.0383773073554039,
				0.5074343085289001
			],
			"scale": [
				1.0283448696136475,
				1.0283448696136475,
				1.028344988822937
			],
			"translation": [
				-0.4961683750152588,
				0.38711562752723694,
				0.12729544937610626
			]
		},
		{
			"mesh": 2,
			"name": "Petiole_015",
			"rotation": [
				-0.19126565754413605,
				0.47062891721725464,
				0.034304048866033554,
				0.8606678247451782
			],
			"scale": [
				0.7309156656265259,
				0.7309156656265259,
				0.7309156656265259
			],
			"translation": [
				0.18782515823841095,
				0.43991944193840027,
				0.2920130789279938
			]
		},
		{
			"mesh": 3,
			"name": "Leaf_015",
			"rotation": [
				-0.0346059650182724,
				0.5107560753822327,
				-0.07278185337781906,
				0.8559401035308838
			],
			"scale": [
				0.7464760541915894,
				0.7464760541915894,
				0.7464760541915894
			],
			"translation": [
				-0.2796933352947235,
				0.11963611096143723,
				0.04121788591146469
			]
		},
		{
			"mesh": 2,
			"name": "Petiole_016",
			"rotation": [
				0.07205884158611298,
				0.9821140170097351,
				0.060627810657024384,
				0.16304603219032288
			],
			"scale": [
				0.9995882511138916,
				0.9995882511138916,
				0.9995882511138916
			],
			"translation": [
				-0.06585819274187088,
				0.05572524294257164,
				-0.12610702216625214
			]
		},
		{
			"mesh": 3,
			"name": "Leaf_016",
			"rotation": [
				0.028045566752552986,
				-0.9994108080863953,
				0.0192714836448431,
				0.004478849470615387
			],
			"scale": [
				1.0071995258331299,
				1.0071992874145508,
				1.0071992874145508
			],
			"translation": [
				0.08264121413230896,
				-0.052501652389764786,
				0.16565518081188202
			]
		},
		{
			"mesh": 2,
			"name": "Petiole_017",
			"rotation": [
				-0.057666536420583725,
				-0.9126505851745605,
				-0.13918282091617584,
				0.379962682723999
			],
			"scale": [
				1.3801814317703247,
				1.3801813125610352,
				1.3801814317703247
			],
			"translation": [
				-0.38690218329429626,
				-0.30587172508239746,
				-0.5140111446380615
			]
		},
		{
			"mesh": 3,
			"name": "Leaf_017",
			"rotation": [
				-0.010002722963690758,
				-0.8963719010353088,
				0.027993233874440193,
				0.4423050284385681
			],
			"scale": [
				0.8562850952148438,
				0.8562851548194885,
				0.8562850952148438
			],
			"translation": [
				0.33400416374206543,
				0.34954285621643066,
				0.5775377750396729
			]
		},
		{
			"mesh": 2,
			"name": "Petiole_018",
			"rotation": [
				-0.003569097490981221,
				0.30509984493255615,
				0.08952365070581436,
				0.9480964541435242
			],
			"scale": [
				1.7254149913787842,
				1.7254148721694946,
				1.7254149913787842
			],
			"translation": [
				0.3715091347694397,
				-0.8296764492988586,
				0.11541011929512024
			]
		},
		{
			"mesh": 3,
			"name": "Leaf_018",
			"rotation": [
				0.07377263158559799,
				0.4512762427330017,
				-0.02790827490389347,
				0.8888917565345764
			],
			"scale": [
				1.091185450553894,
				1.091185450553894,
				1.091185450553894
			],
			"translation": [
				-0.4611409306526184,
				0.3177243769168854,
				-0.5314287543296814
			]
		},
		{
			"mesh": 2,
			"name": "Petiole_019",
			"rotation": [
				-0.0951305627822876,
				-0.8579578399658203,
				0.16482606530189514,
				0.4771696925163269
			],
			"scale": [
				1.6890621185302734,
				1.6890621185302734,
				1.6890621185302734
			],
			"translation": [
				-0.0017886103596538305,
				-0.7898284792900085,
				0.5419148206710815
			]
		},
		{
			"mesh": 3,
			"name": "Leaf_019",
			"rotation": [
				0.03271736577153206,
				-0.609382152557373,
				0.04831042140722275,
				0.790726900100708
			],
			"scale": [
				1.2440539598464966,
				1.2440539598464966,
				1.2440539598464966
			],
			"translation": [
				0.2219836413860321,
				0.14502105116844177,
				0.01514437422156334
			]
		},
		{
			"mesh": 2,
			"name": "Petiole_020",
			"rotation": [
				-0.014135124161839485,
				0.8097869753837585,
				0.14256705343723297,
				0.568963885307312
			],
			"scale": [
				1.105787754058838,
				1.105787754058838,
				1.1057876348495483
			],
			"translation": [
				0.29478445649147034,
				-0.008825751952826977,
				-0.22361619770526886
			]
		},
		{
			"mesh": 3,
			"name": "Leaf_020",
			"rotation": [
				0.0037636030465364456,
				0.8888280391693115,
				-0.009121019393205643,
				0.45813488960266113
			],
			"scale": [
				0.7576166391372681,
				0.7576165795326233,
				0.7576165199279785
			],
			"translation": [
				-0.4359336197376251,
				0.4524630308151245,
				0.1473599225282669
			]
		},
		{
			"mesh": 2,
			"name": "Petiole_021",
			"rotation": [
				-0.0056325169280171394,
				0.682358980178833,
				0.22611168026924133,
				0.6951460242271423
			],
			"scale": [
				0.7761749029159546,
				0.7761749029159546,
				0.7761749625205994
			],
			"translation": [
				0.34350889921188354,
				0.41021350026130676,
				-0.19127511978149414
			]
		},
		{
			"mesh": 3,
			"name": "Leaf_021",
			"rotation": [
				-0.06650187075138092,
				0.8490360975265503,
				-0.06939782947301865,
				0.5195181965827942
			],
			"scale": [
				0.8154171705245972,
				0.8154171705245972,
				0.8154171109199524
			],
			"translation": [
				-0.06394801288843155,
				0.06774762272834778,
				0.3253617286682129
			]
		},
		{
			"mesh": 2,
			"name": "Petiole_022",
			"rotation": [
				-0.04991145431995392,
				-0.6061215400695801,
				0.00569166848435998,
				0.7937842011451721
			],
			"scale": [
				1.162916660308838,
				1.162916660308838,
				1.162916660308838
			],
			"translation": [
				-0.11210115253925323,
				-0.186350017786026,
				0.0553959421813488
			]
		},
		{
			"mesh": 3,
			"name": "Leaf_022",
			"rotation": [
				0.05098861828446388,
				-0.5243432521820068,
				-0.006689669098705053,
				0.8499526977539062
			],
			"scale": [
				0.7610542178153992,
				0.7610542178153992,
				0.7610542178153992
			],
			"translation": [
				0.3986757695674896,
				0.5676001906394958,
				-0.18717005848884583
			]
		},
		{
			"mesh": 2,
			"name": "Petiole_023",
			"rotation": [
				0.11161380261182785,
				0.94500333070755,
				-0.01601403020322323,
				0.3070092797279358
			],
			"scale": [
				1.565063238143921,
				1.565063238143921,
				1.5650633573532104
			],
			"translation": [
				-0.25238609313964844,
				-0.6714369058609009,
				-0.10459261387586594
			]
		},
		{
			"mesh": 3,
			"name": "Leaf_023",
			"rotation": [
				-0.022623499855399132,
				0.9913857579231262,
				-0.08438706398010254,
				0.09757735580205917
			],
			"scale": [
				1.2247775793075562,
				1.2247775793075562,
				1.2247775793075562
			],
			"translation": [
				0.09175071865320206,
				0.018640687689185143,
				0.3806156516075134
			]
		},
		{
			"mesh": 2,
			"name": "Petiole_024",
			"rotation": [
				0.028057502582669258,
				0.5609459280967712,
				0.10956427454948425,
				0.8200902938842773
			],
			"scale": [
				0.7236489653587341,
				0.7236489653587341,
				0.7236489653587341
			],
			"translation": [
				-0.030844848603010178,
				0.3906232714653015,
				-0.14372268319129944
			]
		},
		{
			"mesh": 3,
			"name": "Leaf_024",
			"rotation": [
				0.009926502592861652,
				0.7079094052314758,
				-0.04219166189432144,
				0.7049720883369446
			],
			"scale": [
				0.9325819611549377,
				0.9325820207595825,
				0.9325820207595825
			],
			"translation": [
				-0.17776882648468018,
				-0.14850662648677826,
				0.06999704241752625
			]
		},
		{
			"mesh": 2,
			"name": "Petiole_025",
			"rotation": [
				-0.0435357391834259,
				-0.9417639970779419,
				0.0710502415895462,
				0.32578688859939575
			],
			"scale": [
				1.6314111948013306,
				1.631411075592041,
				1.6314111948013306
			],
			"translation": [
				-0.10037826746702194,
				-0.7852832674980164,
				0.13948802649974823
			]
		},
		{
			"mesh": 3,
			"name": "Leaf_025",
			"rotation": [
				0.0742594301700592,
				-0.893596887588501,
				0.07265555113554001,
				0.43668219447135925
			],
			"scale": [
				1.187378168106079,
				1.187378168106079,
				1.187378168106079
			],
			"translation": [
				0.4611642360687256,
				0.17530536651611328,
				0.14556865394115448
			]
		},
		{
			"mesh": 2,
			"name": "Petiole_026",
			"rotation": [
				-0.09763775020837784,
				-0.926064133644104,
				-0.2918635606765747,
				0.21837539970874786
			],
			"scale": [
				0.7473981380462646,
				0.7473980784416199,
				0.7473981380462646
			],
			"translation": [
				-0.24852441251277924,
				0.5711632370948792,
				-0.5053936839103699
			]
		},
		{
			"mesh": 3,
			"name": "Leaf_026",
			"rotation": [
				0.04438672959804535,
				-0.9418120980262756,
				-0.0376337468624115,
				0.33106449246406555
			],
			"scale": [
				0.7890846133232117,
				0.7890847325325012,
				0.7890846133232117
			],
			"translation": [
				0.16669027507305145,
				-0.04732825234532356,
				0.048270031809806824
			]
		},
		{
			"mesh": 2,
			"name": "Petiole_027",
			"rotation": [
				-0.06766893714666367,
				-0.43203088641166687,
				0.08108672499656677,
				0.895653486251831
			],
			"scale": [
				1.7420867681503296,
				1.74208664894104,
				1.7420867681503296
			],
			"translation": [
				-0.11694338172674179,
				-0.865177571773529,
				0.43047896027565
			]
		},
		{
			"mesh": 3,
			"name": "Leaf_027",
			"rotation": [
				0.07081715017557144,
				-0.23749081790447235,
				0.03690267354249954,
				0.968101978302002
			],
			"scale": [
				0.9610607028007507,
				0.9610607028007507,
				0.9610607028007507
			],
			"translation": [
				0.4755248427391052,
				0.6237357258796692,
				-0.4890754520893097
			]
		}
	],
	"materials": [
		{
			"doubleSided": true,
			"extensions": {
				"KHR_materials_specular": {
					"specularFactor": 0.4000000059604645
				}
			},
			"name": "PotMat",
			"pbrMetallicRoughness": {
				"baseColorTexture": {
					"index": 0
				},
				"metallicFactor": 0,
				"roughnessFactor": 0.8500000238418579
			}
		},
		{
			"doubleSided": true,
			"extensions": {
				"KHR_materials_specular": {
					"specularFactor": 0.4000000059604645
				}
			},
			"name": "SoilMat",
			"pbrMetallicRoughness": {
				"baseColorTexture": {
					"index": 1
				},
				"metallicFactor": 0,
				"roughnessFactor": 0.8500000238418579
			}
		},
		{
			"doubleSided": true,
			"extensions": {
				"KHR_materials_specular": {
					"specularFactor": 0.4000000059604645
				}
			},
			"name": "PetioleMat",
			"pbrMetallicRoughness": {
				"baseColorTexture": {
					"index": 2
				},
				"metallicFactor": 0,
				"roughnessFactor": 0.8500000238418579
			}
		},
		{
			"alphaMode": "BLEND",
			"doubleSided": true,
			"extensions": {
				"KHR_materials_specular": {
					"specularFactor": 0.4000000059604645
				}
			},
			"name": "LeafMat",
			"pbrMetallicRoughness": {
				"baseColorTexture": {
					"index": 4
				},
				"metallicFactor": 0,
				"roughnessFactor": 0.8500000238418579
			}
		}
	],
	"meshes": [
		{
			"name": "Pot.001",
			"primitives": [
				{
					"attributes": {
						"POSITION": 0,
						"NORMAL": 1,
						"TEXCOORD_0": 2
					},
					"indices": 3,
					"material": 0
				}
			]
		},
		{
			"name": "Soil.001",
			"primitives": [
				{
					"attributes": {
						"POSITION": 4,
						"NORMAL": 5,
						"TEXCOORD_0": 6
					},
					"indices": 7,
					"material": 1
				}
			]
		},
		{
			"name": "Petiole_000",
			"primitives": [
				{
					"attributes": {
						"POSITION": 8,
						"NORMAL": 9,
						"TEXCOORD_0": 10
					},
					"indices": 11,
					"material": 2
				}
			]
		},
		{
			"name": "Leaf_000",
			"primitives": [
				{
					"attributes": {
						"POSITION": 12,
						"NORMAL": 13,
						"TEXCOORD_0": 14
					},
					"indices": 15,
					"material": 3
				}
			]
		}
	],
	"textures": [
		{
			"sampler": 0,
			"source": 0
		},
		{
			"sampler": 0,
			"source": 1
		},
		{
			"sampler": 0,
			"source": 2
		},
		{
			"sampler": 1,
			"source": 3
		},
		{
			"sampler": 1,
			"source": 3
		}
	],
	"images": [
		{
			"mimeType": "image/png",
			"name": "PotTex",
			"uri": "calathea/PotTex.png"
		},
		{
			"mimeType": "image/png",
			"name": "SoilTex",
			"uri": "calathea/SoilTex.png"
		},
		{
			"mimeType": "image/png",
			"name": "PetioleTex",
			"uri": "calathea/PetioleTex.png"
		},
		{
			"mimeType": "image/png",
			"name": "CalLeafTex",
			"uri": "calathea/CalLeafTex.png"
		}
	],
	"accessors": [
		{
			"bufferView": 0,
			"componentType": 5126,
			"count": 408,
			"max": [
				0.8300000429153442,
				1.25,
				0.8300000429153442
			],
			"min": [
				-0.8300000429153442,
				0,
				-0.8300000429153442
			],
			"type": "VEC3"
		},
		{
			"bufferView": 1,
			"componentType": 5126,
			"count": 408,
			"type": "VEC3"
		},
		{
			"bufferView": 2,
			"componentType": 5126,
			"count": 408,
			"type": "VEC2"
		},
		{
			"bufferView": 3,
			"componentType": 5123,
			"count": 600,
			"type": "SCALAR"
		},
		{
			"bufferView": 4,
			"componentType": 5126,
			"count": 64,
			"max": [
				0.609760046005249,
				1.190000057220459,
				0.609760046005249
			],
			"min": [
				-0.609760046005249,
				1.1699999570846558,
				-0.609760046005249
			],
			"type": "VEC3"
		},
		{
			"bufferView": 5,
			"componentType": 5126,
			"count": 64,
			"type": "VEC3"
		},
		{
			"bufferView": 6,
			"componentType": 5126,
			"count": 64,
			"type": "VEC2"
		},
		{
			"bufferView": 7,
			"componentType": 5123,
			"count": 72,
			"type": "SCALAR"
		},
		{
			"bufferView": 8,
			"componentType": 5126,
			"count": 90,
			"max": [
				0.2271670699119568,
				2.1104800701141357,
				-0.18137922883033752
			],
			"min": [
				0.05765308439731598,
				1.2112268209457397,
				-0.6751373410224915
			],
			"type": "VEC3"
		},
		{
			"bufferView": 9,
			"componentType": 5126,
			"count": 90,
			"type": "VEC3"
		},
		{
			"bufferView": 10,
			"componentType": 5126,
			"count": 90,
			"type": "VEC2"
		},
		{
			"bufferView": 11,
			"componentType": 5123,
			"count": 138,
			"type": "SCALAR"
		},
		{
			"bufferView": 12,
			"componentType": 5126,
			"count": 48,
			"max": [
				0.9278786182403564,
				2.3152709007263184,
				-0.5617766380310059
			],
			"min": [
				-0.0947498232126236,
				2.0575766563415527,
				-1.9494038820266724
			],
			"type": "VEC3"
		},
		{
			"bufferView": 13,
			"componentType": 5126,
			"count": 48,
			"type": "VEC3"
		},
		{
			"bufferView": 14,
			"componentType": 5126,
			"count": 48,
			"type": "VEC2"
		},
		{
			"bufferView": 15,
			"componentType": 5123,
			"count": 72,
			"type": "SCALAR"
		}
	],
	"bufferViews": [
		{
			"buffer": 0,
			"byteLength": 4896,
			"byteOffset": 0,
			"target": 34962
		},
		{
			"buffer": 0,
			"byteLength": 4896,
			"byteOffset": 4896,
			"target": 34962
		},
		{
			"buffer": 0,
			"byteLength": 3264,
			"byteOffset": 9792,
			"target": 34962
		},
		{
			"buffer": 0,
			"byteLength": 1200,
			"byteOffset": 13056,
			"target": 34963
		},
		{
			"buffer": 0,
			"byteLength": 768,
			"byteOffset": 14256,
			"target": 34962
		},
		{
			"buffer": 0,
			"byteLength": 768,
			"byteOffset": 15024,
			"target": 34962
		},
		{
			"buffer": 0,
			"byteLength": 512,
			"byteOffset": 15792,
			"target": 34962
		},
		{
			"buffer": 0,
			"byteLength": 144,
			"byteOffset": 16304,
			"target": 34963
		},
		{
			"buffer": 0,
			"byteLength": 1080,
			"byteOffset": 16448,
			"target": 34962
		},
		{
			"buffer": 0,
			"byteLength": 1080,
			"byteOffset": 17528,
			"target": 34962
		},
		{
			"buffer": 0,
			"byteLength": 720,
			"byteOffset": 18608,
			"target": 34962
		},
		{
			"buffer": 0,
			"byteLength": 276,
			"byteOffset": 19328,
			"target": 34963
		},
		{
			"buffer": 0,
			"byteLength": 576,
			"byteOffset": 19604,
			"target": 34962
		},
		{
			"buffer": 0,
			"byteLength": 576,
			"byteOffset": 20180,
			"target": 34962
		},
		{
			"buffer": 0,
			"byteLength": 384,
			"byteOffset": 20756,
			"target": 34962
		},
		{
			"buffer": 0,
			"byteLength": 144,
			"byteOffset": 21140,
			"target": 34963
		}
	],
	"samplers": [
		{
			"magFilter": 9728,
			"minFilter": 9984
		},
		{
			"magFilter": 9728,
			"minFilter": 9984,
			"wrapS": 33071,
			"wrapT": 33071
		}
	],
	"buffers": [
		{
			"byteLength": 21284,
			"uri": "plant_calathea.bin"
		}
	]
}