{
	"asset":{
		"generator":"Khronos glTF Blender I/O v5.1.19",
		"version":"2.0"
	},
	"extensionsUsed":[
		"KHR_materials_specular"
	],
	"scene":0,
	"scenes":[
		{
			"name":"Scene",
			"nodes":[
				0,
				1,
				2,
				3,
				4,
				5,
				6,
				7,
				8,
				9,
				10,
				11,
				12,
				13,
				14,
				15,
				16,
				17,
				18,
				19,
				20,
				21,
				22,
				23,
				24,
				25,
				26,
				27,
				28,
				29,
				30,
				31,
				32,
				33,
				34,
				35,
				36,
				37,
				38,
				39,
				40,
				41,
				42,
				43,
				44,
				45,
				46,
				47,
				48,
				49,
				50,
				51,
				52,
				53,
				54,
				55,
				56,
				57,
				58,
				59,
				60,
				61,
				62,
				63,
				64,
				65,
				66,
				67,
				68,
				69,
				70,
				71,
				72,
				73,
				74,
				75,
				76,
				77,
				78,
				79,
				80,
				81,
				82,
				83,
				84,
				85,
				86,
				87,
				88,
				89,
				90,
				91,
				92,
				93,
				94,
				95,
				96,
				97,
				98,
				99,
				100,
				101,
				102,
				103,
				104,
				105,
				106,
				107,
				108,
				109,
				110,
				111,
				112,
				113,
				114,
				115,
				116,
				117,
				118,
				119,
				120,
				121,
				122,
				123,
				124,
				125,
				126,
				127,
				128,
				129,
				130,
				131,
				132,
				133,
				134,
				135,
				136,
				137,
				138,
				139,
				140,
				141,
				142,
				143,
				144,
				145,
				146,
				147,
				148,
				149,
				150,
				151,
				152,
				153,
				154,
				155,
				156,
				157,
				158,
				159,
				160,
				161,
				162,
				163,
				164,
				165,
				166,
				167,
				168,
				169,
				170,
				171,
				172,
				173,
				174,
				175,
				176,
				177,
				178,
				179,
				180,
				181,
				182,
				183,
				184,
				185,
				186,
				187,
				188,
				189,
				190,
				191,
				192,
				193,
				194,
				195,
				196,
				197,
				198,
				199
			]
		}
	],
	"nodes":[
		{
			"mesh":0,
			"name":"Pot"
		},
		{
			"mesh":1,
			"name":"Soil"
		},
		{
			"mesh":2,
			"name":"Trunk_Main"
		},
		{
			"mesh":3,
			"name":"Branch_00"
		},
		{
			"mesh":3,
			"name":"Branch_01",
			"rotation":[
				-0.016394885256886482,
				0.5540174841880798,
				-0.023622870445251465,
				0.8320083022117615
			],
			"scale":[
				1.0525538921356201,
				1.0525538921356201,
				1.0525537729263306
			],
			"translation":[
				-0.03518318012356758,
				-0.05486917495727539,
				0.08895552903413773
			]
		},
		{
			"mesh":3,
			"name":"Branch_02",
			"rotation":[
				0.005704809911549091,
				0.9290839433670044,
				0.0021445422898977995,
				0.3698189854621887
			],
			"scale":[
				1.065539836883545,
				1.065539836883545,
				1.065539836883545
			],
			"translation":[
				-0.013729272410273552,
				-0.10060031712055206,
				-0.012495753355324268
			]
		},
		{
			"mesh":3,
			"name":"Branch_03",
			"rotation":[
				0.017321567982435226,
				-0.9585251212120056,
				-0.00550480093806982,
				0.28442808985710144
			],
			"scale":[
				0.833361804485321,
				0.8333618640899658,
				0.8333618640899658
			],
			"translation":[
				0.03636091202497482,
				0.3746059834957123,
				-0.02467166632413864
			]
		},
		{
			"mesh":3,
			"name":"Branch_04",
			"rotation":[
				0.008399242535233498,
				-0.6101529598236084,
				-0.011350052431225777,
				0.7921579480171204
			],
			"scale":[
				0.88508540391922,
				0.88508540391922,
				0.8850853443145752
			],
			"translation":[
				-0.010412274859845638,
				0.3121796250343323,
				-0.03656968101859093
			]
		},
		{
			"mesh":4,
			"name":"Leaf_000",
			"rotation":[
				-0.0987447053194046,
				-0.03782940283417702,
				-0.10664014518260956,
				0.9886588454246521
			],
			"scale":[
				0.8363063931465149,
				0.8363064527511597,
				0.8363064527511597
			],
			"translation":[
				-0.4838740825653076,
				0.6568664312362671,
				0.051399871706962585
			]
		},
		{
			"mesh":4,
			"name":"Leaf_001",
			"rotation":[
				-0.5703096389770508,
				-0.4950653314590454,
				-0.05497422814369202,
				0.6531730890274048
			],
			"scale":[
				0.9565227031707764,
				0.9565227031707764,
				0.9565227031707764
			],
			"translation":[
				-0.855388343334198,
				1.0133129358291626,
				0.6639207601547241
			]
		},
		{
			"mesh":4,
			"name":"Leaf_002",
			"rotation":[
				-0.6411256194114685,
				-0.4759381115436554,
				0.32693469524383545,
				0.5055240988731384
			],
			"scale":[
				0.9044313430786133,
				0.9044313430786133,
				0.9044313430786133
			],
			"translation":[
				-0.48956042528152466,
				1.1797598600387573,
				1.325501561164856
			]
		},
		{
			"mesh":4,
			"name":"Leaf_003",
			"rotation":[
				-0.7912519574165344,
				-0.5314236283302307,
				-0.1635516732931137,
				0.2544800639152527
			],
			"scale":[
				1.0258063077926636,
				1.025806188583374,
				1.025806188583374
			],
			"translation":[
				-1.498968243598938,
				1.9519691467285156,
				0.17717331647872925
			]
		},
		{
			"mesh":4,
			"name":"Leaf_004",
			"rotation":[
				0.4787159264087677,
				0.0862923264503479,
				-0.03386588767170906,
				0.8730624318122864
			],
			"scale":[
				0.8524999618530273,
				0.8525000214576721,
				0.8525000214576721
			],
			"translation":[
				-0.44272664189338684,
				1.100041151046753,
				-0.9984206557273865
			]
		},
		{
			"mesh":4,
			"name":"Leaf_005",
			"rotation":[
				-0.2791141867637634,
				-0.003690903540700674,
				-0.03797545284032822,
				0.9594995975494385
			],
			"scale":[
				1.0307811498641968,
				1.0307810306549072,
				1.0307812690734863
			],
			"translation":[
				-0.867369532585144,
				0.2134411334991455,
				0.8667360544204712
			]
		},
		{
			"mesh":4,
			"name":"Leaf_006",
			"rotation":[
				0.7402306199073792,
				-0.02906109020113945,
				0.07473835349082947,
				0.6675539016723633
			],
			"scale":[
				0.8974259495735168,
				0.8974258899688721,
				0.8974259495735168
			],
			"translation":[
				-0.17697253823280334,
				2.0621895790100098,
				-1.3497787714004517
			]
		},
		{
			"mesh":4,
			"name":"Leaf_007",
			"rotation":[
				0.3473298251628876,
				0.28533485531806946,
				-0.08406457304954529,
				0.8893139958381653
			],
			"scale":[
				1.1205822229385376,
				1.1205822229385376,
				1.1205822229385376
			],
			"translation":[
				-0.8402978777885437,
				0.6464914083480835,
				-0.7780560255050659
			]
		},
		{
			"mesh":4,
			"name":"Leaf_008",
			"rotation":[
				0.285686731338501,
				-0.26991498470306396,
				0.004748069681227207,
				0.9195143580436707
			],
			"scale":[
				1.019759178161621,
				1.019759178161621,
				1.019759178161621
			],
			"translation":[
				0.010585218667984009,
				0.6843060255050659,
				-1.0155361890792847
			]
		},
		{
			"mesh":4,
			"name":"Leaf_009",
			"rotation":[
				0.75980544090271,
				0.6293767690658569,
				0.047294843941926956,
				0.15602491796016693
			],
			"scale":[
				0.8807121515274048,
				0.88071209192276,
				0.8807120323181152
			],
			"translation":[
				-1.1671737432479858,
				1.2539482116699219,
				-0.2344549298286438
			]
		},
		{
			"mesh":4,
			"name":"Leaf_010",
			"rotation":[
				0.2716054916381836,
				-0.13550734519958496,
				0.014361967332661152,
				0.9527129530906677
			],
			"scale":[
				1.0742331743240356,
				1.0742331743240356,
				1.0742331743240356
			],
			"translation":[
				-0.5214146375656128,
				0.046404361724853516,
				-1.224012017250061
			]
		},
		{
			"mesh":4,
			"name":"Leaf_011",
			"rotation":[
				0.3333250880241394,
				0.7371969819068909,
				-0.36830613017082214,
				0.4580235779285431
			],
			"scale":[
				1.1084948778152466,
				1.1084948778152466,
				1.1084948778152466
			],
			"translation":[
				-1.1818363666534424,
				1.0319985151290894,
				0.7665601968765259
			]
		},
		{
			"mesh":4,
			"name":"Leaf_012",
			"rotation":[
				0.13084211945533752,
				-0.923398494720459,
				0.05698098614811897,
				0.35632675886154175
			],
			"scale":[
				1.0743701457977295,
				1.0743701457977295,
				1.0743701457977295
			],
			"translation":[
				0.7780840992927551,
				0.3077784776687622,
				-0.16585370898246765
			]
		},
		{
			"mesh":4,
			"name":"Leaf_014",
			"rotation":[
				0.7079273462295532,
				0.5411959886550903,
				-0.4101225733757019,
				0.19428148865699768
			],
			"scale":[
				0.9324080944061279,
				0.9324080348014832,
				0.9324079155921936
			],
			"translation":[
				-1.2506433725357056,
				1.862003207206726,
				0.5843476057052612
			]
		},
		{
			"mesh":4,
			"name":"Leaf_016",
			"rotation":[
				-0.7268995046615601,
				-0.5287742614746094,
				0.02432171441614628,
				0.43751972913742065
			],
			"scale":[
				1.149490237236023,
				1.1494901180267334,
				1.1494899988174438
			],
			"translation":[
				-1.402123212814331,
				1.4930307865142822,
				0.9388401508331299
			]
		},
		{
			"mesh":4,
			"name":"Leaf_017",
			"rotation":[
				-0.07399247586727142,
				-0.28913262486457825,
				-0.06487530469894409,
				0.9522177577018738
			],
			"scale":[
				0.8607771992683411,
				0.8607773184776306,
				0.8607772588729858
			],
			"translation":[
				-0.22142869234085083,
				0.30952489376068115,
				-0.11922106146812439
			]
		},
		{
			"mesh":4,
			"name":"Leaf_019",
			"rotation":[
				-0.04379570484161377,
				-0.11874370276927948,
				-0.1681215763092041,
				0.977607786655426
			],
			"scale":[
				0.9622926712036133,
				0.9622927308082581,
				0.9622927904129028
			],
			"translation":[
				-0.6001136302947998,
				0.6398453712463379,
				-0.16383260488510132
			]
		},
		{
			"mesh":4,
			"name":"Leaf_020",
			"rotation":[
				-0.7645080089569092,
				-0.4206540584564209,
				0.38777291774749756,
				0.297001451253891
			],
			"scale":[
				1.05125093460083,
				1.0512510538101196,
				1.05125093460083
			],
			"translation":[
				-0.8628530502319336,
				1.7745907306671143,
				1.5710513591766357
			]
		},
		{
			"mesh":4,
			"name":"Leaf_021",
			"rotation":[
				0.6704810261726379,
				0.17306026816368103,
				-0.13795743882656097,
				0.7081477046012878
			],
			"scale":[
				0.8770250678062439,
				0.8770251274108887,
				0.8770250678062439
			],
			"translation":[
				-0.9839087724685669,
				1.5988068580627441,
				-1.0564790964126587
			]
		},
		{
			"mesh":4,
			"name":"Leaf_022",
			"rotation":[
				-0.5992876291275024,
				-0.3588523268699646,
				-0.08764587342739105,
				0.7102095484733582
			],
			"scale":[
				1.1431461572647095,
				1.14314603805542,
				1.1431459188461304
			],
			"translation":[
				-1.3973270654678345,
				1.1606659889221191,
				0.9933280944824219
			]
		},
		{
			"mesh":4,
			"name":"Leaf_024",
			"rotation":[
				0.3777833580970764,
				0.15858450531959534,
				-0.060586992651224136,
				0.9101977348327637
			],
			"scale":[
				0.8963656425476074,
				0.8963656425476074,
				0.8963656425476074
			],
			"translation":[
				-0.5217483043670654,
				0.6693546772003174,
				-0.8127111196517944
			]
		},
		{
			"mesh":4,
			"name":"Leaf_025",
			"rotation":[
				0.689079225063324,
				0.21599535644054413,
				0.5259554386138916,
				0.4493180513381958
			],
			"scale":[
				0.8372392058372498,
				0.8372392058372498,
				0.8372392654418945
			],
			"translation":[
				0.01995532214641571,
				2.282139778137207,
				-1.220233678817749
			]
		},
		{
			"mesh":4,
			"name":"Leaf_026",
			"rotation":[
				-0.09523395448923111,
				-0.900966227054596,
				-0.25252076983451843,
				0.33974048495292664
			],
			"scale":[
				0.9283862113952637,
				0.9283862113952637,
				0.9283862113952637
			],
			"translation":[
				-0.13783849775791168,
				0.6329571008682251,
				-0.6008317470550537
			]
		},
		{
			"mesh":4,
			"name":"Leaf_028",
			"rotation":[
				-0.6438384652137756,
				-0.08363967388868332,
				0.09846022725105286,
				0.7541763782501221
			],
			"scale":[
				0.8612350225448608,
				0.8612352013587952,
				0.8612350225448608
			],
			"translation":[
				-0.1929352879524231,
				1.4212175607681274,
				1.1166176795959473
			]
		},
		{
			"mesh":4,
			"name":"Leaf_029",
			"rotation":[
				0.5566137433052063,
				0.30149248242378235,
				-0.025807099416851997,
				0.7737036943435669
			],
			"scale":[
				0.955811083316803,
				0.9558112025260925,
				0.9558111429214478
			],
			"translation":[
				-0.7665688991546631,
				0.9332681894302368,
				-0.9928219318389893
			]
		},
		{
			"mesh":4,
			"name":"Leaf_030",
			"rotation":[
				0.695269763469696,
				0.41618773341178894,
				-0.028386762365698814,
				0.5853049755096436
			],
			"scale":[
				1.1047612428665161,
				1.1047612428665161,
				1.1047613620758057
			],
			"translation":[
				-1.2414886951446533,
				1.6284152269363403,
				-0.99188232421875
			]
		},
		{
			"mesh":4,
			"name":"Leaf_031",
			"rotation":[
				-0.6504337191581726,
				-0.6526141166687012,
				-0.07873068749904633,
				0.38056838512420654
			],
			"scale":[
				0.9657018184661865,
				0.9657019972801208,
				0.9657018184661865
			],
			"translation":[
				-1.0223878622055054,
				0.9769381880760193,
				0.42991214990615845
			]
		},
		{
			"mesh":4,
			"name":"Leaf_032",
			"rotation":[
				0.6728506684303284,
				0.3574185073375702,
				0.22115489840507507,
				0.6087812781333923
			],
			"scale":[
				1.0589852333068848,
				1.0589853525161743,
				1.0589852333068848
			],
			"translation":[
				-0.7074002027511597,
				1.2130951881408691,
				-1.4788627624511719
			]
		},
		{
			"mesh":4,
			"name":"Leaf_034",
			"rotation":[
				0.37611618638038635,
				0.030545072630047798,
				0.6147019267082214,
				0.6926364898681641
			],
			"scale":[
				1.0819649696350098,
				1.0819649696350098,
				1.0819650888442993
			],
			"translation":[
				1.1225149631500244,
				1.327174186706543,
				-1.1530107259750366
			]
		},
		{
			"mesh":4,
			"name":"Leaf_035",
			"rotation":[
				0.7109742164611816,
				0.3679627478122711,
				-0.2947186529636383,
				0.52178555727005
			],
			"scale":[
				0.8530428409576416,
				0.8530428409576416,
				0.853042721748352
			],
			"translation":[
				-1.2702832221984863,
				2.0427932739257812,
				-0.3523341119289398
			]
		},
		{
			"mesh":4,
			"name":"Leaf_036",
			"rotation":[
				0.05043523758649826,
				-0.06492903083562851,
				0.013970214873552322,
				0.9965166449546814
			],
			"scale":[
				1.0380492210388184,
				1.0380492210388184,
				1.0380492210388184
			],
			"translation":[
				-0.10895860195159912,
				0.006628274917602539,
				-0.3374936878681183
			]
		},
		{
			"mesh":4,
			"name":"Leaf_037",
			"rotation":[
				0.7047770023345947,
				0.2974984049797058,
				0.49045872688293457,
				0.4174138605594635
			],
			"scale":[
				0.8360760807991028,
				0.836076021194458,
				0.8360759615898132
			],
			"translation":[
				-0.1824876070022583,
				2.171092987060547,
				-1.083985447883606
			]
		},
		{
			"mesh":4,
			"name":"Leaf_038",
			"rotation":[
				-0.1948886215686798,
				-0.8933911919593811,
				-0.18866397440433502,
				0.35815709829330444
			],
			"scale":[
				0.8300634622573853,
				0.8300634622573853,
				0.8300633430480957
			],
			"translation":[
				-0.3042638301849365,
				0.5970447063446045,
				-0.23131877183914185
			]
		},
		{
			"mesh":4,
			"name":"Leaf_039",
			"rotation":[
				-0.7847774028778076,
				-0.419029176235199,
				-0.04221994802355766,
				0.45470479130744934
			],
			"scale":[
				0.8457708954811096,
				0.8457708954811096,
				0.8457708358764648
			],
			"translation":[
				-1.0712082386016846,
				1.8807475566864014,
				0.693725049495697
			]
		},
		{
			"mesh":4,
			"name":"Leaf_040",
			"rotation":[
				0.06676565110683441,
				0.6171969771385193,
				-0.39057305455207825,
				0.6797521114349365
			],
			"scale":[
				0.912958025932312,
				0.9129579663276672,
				0.9129579663276672
			],
			"translation":[
				-0.8551378846168518,
				1.0799813270568848,
				0.8408159017562866
			]
		},
		{
			"mesh":4,
			"name":"Leaf_041",
			"rotation":[
				0.17526480555534363,
				0.31954115629196167,
				-0.13811154663562775,
				0.9209239482879639
			],
			"scale":[
				1.0033836364746094,
				1.003383755683899,
				1.003383755683899
			],
			"translation":[
				-1.0111749172210693,
				0.1529768705368042,
				-0.11383748054504395
			]
		},
		{
			"mesh":4,
			"name":"Leaf_042",
			"rotation":[
				0.056646592915058136,
				-0.30651310086250305,
				-0.010854482650756836,
				0.9501174092292786
			],
			"scale":[
				1.0822073221206665,
				1.0822073221206665,
				1.0822075605392456
			],
			"translation":[
				-0.3402588367462158,
				0.18676018714904785,
				-0.6086410284042358
			]
		},
		{
			"mesh":4,
			"name":"Leaf_043",
			"rotation":[
				-0.6478872299194336,
				-0.685224711894989,
				-0.31161969900131226,
				0.11662925034761429
			],
			"scale":[
				0.989362895488739,
				0.9893627762794495,
				0.9893629550933838
			],
			"translation":[
				-1.5559977293014526,
				1.0856341123580933,
				-0.8838114142417908
			]
		},
		{
			"mesh":4,
			"name":"Leaf_044",
			"rotation":[
				0.5668614506721497,
				0.6490782499313354,
				-0.2577578127384186,
				0.43695130944252014
			],
			"scale":[
				0.8874139189720154,
				0.8874139189720154,
				0.8874137997627258
			],
			"translation":[
				-1.0728708505630493,
				1.0068961381912231,
				0.003992259502410889
			]
		},
		{
			"mesh":4,
			"name":"Leaf_045",
			"rotation":[
				0.5738494992256165,
				0.3652160167694092,
				-0.2991703748703003,
				0.6691868901252747
			],
			"scale":[
				0.9805126786231995,
				0.9805126190185547,
				0.980512797832489
			],
			"translation":[
				-1.2831265926361084,
				1.7281078100204468,
				-0.5009869933128357
			]
		},
		{
			"mesh":4,
			"name":"Leaf_048",
			"rotation":[
				-0.11148801445960999,
				0.49924126267433167,
				0.1716775745153427,
				0.8419356346130371
			],
			"scale":[
				1.0066018104553223,
				1.0066018104553223,
				1.0066018104553223
			],
			"translation":[
				0.3256686329841614,
				-0.011778116226196289,
				0.33427250385284424
			]
		},
		{
			"mesh":4,
			"name":"Leaf_049",
			"rotation":[
				0.8162409067153931,
				0.5351155400276184,
				0.2147160917520523,
				0.03604625165462494
			],
			"scale":[
				1.0771195888519287,
				1.0771194696426392,
				1.0771193504333496
			],
			"translation":[
				-1.601639986038208,
				1.915204644203186,
				-0.577832818031311
			]
		},
		{
			"mesh":4,
			"name":"Leaf_050",
			"rotation":[
				0.6766838431358337,
				0.596900463104248,
				-0.43094730377197266,
				0.009654540568590164
			],
			"scale":[
				1.0914247035980225,
				1.091424584388733,
				1.0914244651794434
			],
			"translation":[
				-1.1990537643432617,
				1.7347840070724487,
				1.1418583393096924
			]
		},
		{
			"mesh":4,
			"name":"Leaf_051",
			"rotation":[
				0.08159296214580536,
				0.8214982748031616,
				0.48916304111480713,
				0.2814297080039978
			],
			"scale":[
				0.9189512729644775,
				0.9189513325691223,
				0.9189512729644775
			],
			"translation":[
				0.2766065001487732,
				0.657097578048706,
				-0.8870700597763062
			]
		},
		{
			"mesh":4,
			"name":"Leaf_052",
			"rotation":[
				0.664203405380249,
				0.5626877546310425,
				-0.4907587170600891,
				0.03704315051436424
			],
			"scale":[
				1.0972678661346436,
				1.0972678661346436,
				1.097267746925354
			],
			"translation":[
				-1.0768814086914062,
				2.1781809329986572,
				1.1072813272476196
			]
		},
		{
			"mesh":4,
			"name":"Leaf_053",
			"rotation":[
				-0.3310953974723816,
				0.45362523198127747,
				-0.005257755052298307,
				0.8273890018463135
			],
			"scale":[
				1.090448021888733,
				1.090448021888733,
				1.090448021888733
			],
			"translation":[
				0.1102893203496933,
				0.45121586322784424,
				1.1954820156097412
			]
		},
		{
			"mesh":4,
			"name":"Leaf_055",
			"rotation":[
				-0.271494060754776,
				0.38429194688796997,
				0.4742359519004822,
				0.7441176176071167
			],
			"scale":[
				0.8131341934204102,
				0.8131341934204102,
				0.8131342530250549
			],
			"translation":[
				1.0778838396072388,
				0.8168429732322693,
				0.40207958221435547
			]
		},
		{
			"mesh":4,
			"name":"Leaf_056",
			"rotation":[
				0.13261239230632782,
				0.8212403059005737,
				-0.37480881810188293,
				0.40926381945610046
			],
			"scale":[
				0.9313755035400391,
				0.9313754439353943,
				0.9313755035400391
			],
			"translation":[
				-0.5073657631874084,
				0.696800947189331,
				0.9665040969848633
			]
		},
		{
			"mesh":4,
			"name":"Leaf_057",
			"rotation":[
				-0.6334623694419861,
				-0.15926982462406158,
				0.47011736035346985,
				0.5935892462730408
			],
			"scale":[
				0.9779877662658691,
				0.9779877662658691,
				0.9779877662658691
			],
			"translation":[
				0.4658801555633545,
				1.937081217765808,
				1.0997991561889648
			]
		},
		{
			"mesh":4,
			"name":"Leaf_058",
			"rotation":[
				-0.7458811402320862,
				-0.4942820370197296,
				0.18477998673915863,
				0.4064517021179199
			],
			"scale":[
				0.962264895439148,
				0.9622649550437927,
				0.9622648358345032
			],
			"translation":[
				-1.1899387836456299,
				1.5117226839065552,
				1.199157953262329
			]
		},
		{
			"mesh":4,
			"name":"Leaf_059",
			"rotation":[
				-0.3241889476776123,
				0.43138936161994934,
				0.042230311781167984,
				0.8408457636833191
			],
			"scale":[
				1.0715303421020508,
				1.0715303421020508,
				1.0715302228927612
			],
			"translation":[
				0.16505774855613708,
				0.4117785692214966,
				1.3220549821853638
			]
		},
		{
			"mesh":4,
			"name":"Leaf_060",
			"rotation":[
				0.6367022395133972,
				0.5666940808296204,
				-0.5129826068878174,
				0.1015726700425148
			],
			"scale":[
				0.8849229216575623,
				0.8849228620529175,
				0.8849228620529175
			],
			"translation":[
				-0.8955721855163574,
				2.081259250640869,
				0.8248904943466187
			]
		},
		{
			"mesh":4,
			"name":"Leaf_061",
			"rotation":[
				-0.31266486644744873,
				0.24201932549476624,
				-0.0810442566871643,
				0.9149312376976013
			],
			"scale":[
				1.139377236366272,
				1.139377236366272,
				1.1393773555755615
			],
			"translation":[
				-0.4407998323440552,
				0.7214738130569458,
				1.0577247142791748
			]
		},
		{
			"mesh":4,
			"name":"Leaf_062",
			"rotation":[
				-0.3505608141422272,
				-0.28597140312194824,
				-0.06577389687299728,
				0.889382541179657
			],
			"scale":[
				1.0892925262451172,
				1.0892925262451172,
				1.0892926454544067
			],
			"translation":[
				-0.8779377341270447,
				0.18257510662078857,
				0.576166570186615
			]
		},
		{
			"mesh":4,
			"name":"Leaf_063",
			"rotation":[
				-0.43522921204566956,
				-0.1734093427658081,
				0.3713415861129761,
				0.8016298413276672
			],
			"scale":[
				0.8531692624092102,
				0.853169322013855,
				0.8531692624092102
			],
			"translation":[
				0.38920333981513977,
				0.9653866291046143,
				0.9260144233703613
			]
		},
		{
			"mesh":4,
			"name":"Leaf_065",
			"rotation":[
				-0.24572665989398956,
				0.3124402165412903,
				-0.007941558957099915,
				0.917570948600769
			],
			"scale":[
				0.9787644147872925,
				0.978764533996582,
				0.9787644743919373
			],
			"translation":[
				-0.1132960319519043,
				0.46790850162506104,
				0.6413370370864868
			]
		},
		{
			"mesh":4,
			"name":"Leaf_066",
			"rotation":[
				-0.7786180377006531,
				-0.5524522662162781,
				-0.23962435126304626,
				0.17643868923187256
			],
			"scale":[
				1.0710557699203491,
				1.0710558891296387,
				1.0710557699203491
			],
			"translation":[
				-1.5974490642547607,
				2.1597485542297363,
				-0.18061941862106323
			]
		},
		{
			"mesh":4,
			"name":"Leaf_067",
			"rotation":[
				-0.3760965168476105,
				-0.5984463691711426,
				-0.23500284552574158,
				0.6672233939170837
			],
			"scale":[
				1.0429902076721191,
				1.0429900884628296,
				1.0429902076721191
			],
			"translation":[
				-1.2454020977020264,
				0.894668459892273,
				-0.2016412764787674
			]
		},
		{
			"mesh":4,
			"name":"Leaf_068",
			"rotation":[
				-0.6498614549636841,
				-0.6696163415908813,
				0.3386964499950409,
				0.12074295431375504
			],
			"scale":[
				0.9893244504928589,
				0.9893243908882141,
				0.9893244504928589
			],
			"translation":[
				-0.8451834917068481,
				1.1439402103424072,
				0.8901931643486023
			]
		},
		{
			"mesh":4,
			"name":"Leaf_069",
			"rotation":[
				0.5863122344017029,
				0.5974475145339966,
				-0.3860708475112915,
				0.3876129388809204
			],
			"scale":[
				0.9863495230674744,
				0.9863494634628296,
				0.9863494634628296
			],
			"translation":[
				-1.3882865905761719,
				1.4895066022872925,
				0.3837791085243225
			]
		},
		{
			"mesh":4,
			"name":"Leaf_070",
			"rotation":[
				0.6397002935409546,
				0.4287647008895874,
				0.6169998645782471,
				0.16203556954860687
			],
			"scale":[
				0.9508697390556335,
				0.9508697986602783,
				0.9508697986602783
			],
			"translation":[
				-0.5078810453414917,
				2.6092653274536133,
				-1.379370927810669
			]
		},
		{
			"mesh":4,
			"name":"Leaf_071",
			"rotation":[
				-0.43397101759910583,
				-0.780134379863739,
				-0.27327609062194824,
				0.358301043510437
			],
			"scale":[
				0.8127802014350891,
				0.8127803206443787,
				0.8127802610397339
			],
			"translation":[
				-0.9813855290412903,
				0.664669394493103,
				-0.6280866861343384
			]
		},
		{
			"mesh":4,
			"name":"Leaf_072",
			"rotation":[
				0.13071991503238678,
				0.4009058475494385,
				-0.33125606179237366,
				0.8440712094306946
			],
			"scale":[
				1.1048566102981567,
				1.1048566102981567,
				1.1048564910888672
			],
			"translation":[
				-1.4743345975875854,
				0.9122464656829834,
				0.4612971544265747
			]
		},
		{
			"mesh":4,
			"name":"Leaf_073",
			"rotation":[
				-0.5928295850753784,
				-0.17983190715312958,
				0.5137998461723328,
				0.5934841632843018
			],
			"scale":[
				0.9134052991867065,
				0.9134052395820618,
				0.9134053587913513
			],
			"translation":[
				0.49466049671173096,
				1.9534223079681396,
				1.052502155303955
			]
		},
		{
			"mesh":4,
			"name":"Leaf_074",
			"rotation":[
				-0.49438169598579407,
				-0.34814023971557617,
				0.49035632610321045,
				0.6276430487632751
			],
			"scale":[
				0.8031471371650696,
				0.80314701795578,
				0.8031471371650696
			],
			"translation":[
				0.3581480085849762,
				1.1128400564193726,
				0.8619586825370789
			]
		},
		{
			"mesh":4,
			"name":"Leaf_075",
			"rotation":[
				-0.12071362882852554,
				0.4631187915802002,
				0.009531432762742043,
				0.877985417842865
			],
			"scale":[
				1.0166397094726562,
				1.0166397094726562,
				1.0166395902633667
			],
			"translation":[
				-0.1556147038936615,
				0.3249385356903076,
				0.6642320156097412
			]
		},
		{
			"mesh":4,
			"name":"Leaf_076",
			"rotation":[
				-0.528122067451477,
				-0.4383576810359955,
				0.5468997955322266,
				0.4794061779975891
			],
			"scale":[
				1.017622709274292,
				1.0176228284835815,
				1.017622709274292
			],
			"translation":[
				0.22253647446632385,
				1.4227159023284912,
				1.3556989431381226
			]
		},
		{
			"mesh":4,
			"name":"Leaf_077",
			"rotation":[
				0.4690742492675781,
				0.7507694363594055,
				-0.46463412046432495,
				0.020729951560497284
			],
			"scale":[
				0.8520796298980713,
				0.8520796895027161,
				0.8520797491073608
			],
			"translation":[
				-0.5880709290504456,
				1.5339566469192505,
				0.7715438604354858
			]
		},
		{
			"mesh":4,
			"name":"Leaf_078",
			"rotation":[
				-0.3534538149833679,
				-0.5128397941589355,
				0.6860421299934387,
				0.376047819852829
			],
			"scale":[
				0.8101189136505127,
				0.8101189136505127,
				0.8101188540458679
			],
			"translation":[
				0.4596044421195984,
				1.5539309978485107,
				1.1966021060943604
			]
		},
		{
			"mesh":4,
			"name":"Leaf_079",
			"rotation":[
				-0.7112303972244263,
				-0.49469614028930664,
				0.39687514305114746,
				0.3031785190105438
			],
			"scale":[
				1.1226640939712524,
				1.1226640939712524,
				1.1226640939712524
			],
			"translation":[
				-0.7447257041931152,
				1.5515689849853516,
				1.5120320320129395
			]
		},
		{
			"mesh":4,
			"name":"Leaf_080",
			"rotation":[
				-0.6540539860725403,
				-0.4194994866847992,
				0.4199274480342865,
				0.46892908215522766
			],
			"scale":[
				0.9265114068984985,
				0.9265114068984985,
				0.9265114665031433
			],
			"translation":[
				-0.1677509844303131,
				1.4203836917877197,
				1.2654749155044556
			]
		},
		{
			"mesh":4,
			"name":"Leaf_081",
			"rotation":[
				0.42183059453964233,
				0.6245402097702026,
				-0.5025117993354797,
				0.42366304993629456
			],
			"scale":[
				1.0211992263793945,
				1.021199345588684,
				1.021199107170105
			],
			"translation":[
				-1.4094117879867554,
				1.4725017547607422,
				1.047960638999939
			]
		},
		{
			"mesh":4,
			"name":"Leaf_082",
			"rotation":[
				-0.15786275267601013,
				0.05056549236178398,
				-0.008558821864426136,
				0.9861285090446472
			],
			"scale":[
				1.0098870992660522,
				1.0098870992660522,
				1.0098869800567627
			],
			"translation":[
				-0.6113683581352234,
				-0.020015597343444824,
				0.4791005551815033
			]
		},
		{
			"mesh":4,
			"name":"Leaf_083",
			"rotation":[
				-0.4752805829048157,
				-0.49436816573143005,
				0.604936957359314,
				0.4046725034713745
			],
			"scale":[
				0.9369037747383118,
				0.9369038343429565,
				0.9369037747383118
			],
			"translation":[
				0.22091521322727203,
				1.4007328748703003,
				1.27327561378479
			]
		},
		{
			"mesh":4,
			"name":"Leaf_084",
			"rotation":[
				0.3973647654056549,
				0.7356430888175964,
				-0.51556396484375,
				0.18741516768932343
			],
			"scale":[
				1.0841997861862183,
				1.0841999053955078,
				1.0841999053955078
			],
			"translation":[
				-0.903217077255249,
				1.3939638137817383,
				1.2325258255004883
			]
		},
		{
			"mesh":4,
			"name":"Leaf_087",
			"rotation":[
				-0.6304920315742493,
				-0.0853109359741211,
				0.31512928009033203,
				0.70419842004776
			],
			"scale":[
				0.8193391561508179,
				0.8193389773368835,
				0.8193391561508179
			],
			"translation":[
				0.07836750149726868,
				1.3791446685791016,
				1.3905014991760254
			]
		},
		{
			"mesh":4,
			"name":"Leaf_088",
			"rotation":[
				0.1786091923713684,
				-0.4925675094127655,
				-0.19093561172485352,
				0.8300720453262329
			],
			"scale":[
				0.9618910551071167,
				0.9618910551071167,
				0.9618911147117615
			],
			"translation":[
				-0.32487761974334717,
				0.6652278900146484,
				-1.1341298818588257
			]
		},
		{
			"mesh":4,
			"name":"Leaf_089",
			"rotation":[
				-0.6560824513435364,
				-0.4412233531475067,
				0.3812173306941986,
				0.47911491990089417
			],
			"scale":[
				0.9175405502319336,
				0.9175406098365784,
				0.9175406694412231
			],
			"translation":[
				-0.3586297929286957,
				1.4187954664230347,
				1.3775359392166138
			]
		},
		{
			"mesh":4,
			"name":"Leaf_090",
			"rotation":[
				-0.2583200931549072,
				-0.6854886412620544,
				0.6776634454727173,
				0.06440739333629608
			],
			"scale":[
				1.109626293182373,
				1.1096264123916626,
				1.1096265316009521
			],
			"translation":[
				0.06360560655593872,
				1.9740432500839233,
				1.700540542602539
			]
		},
		{
			"mesh":4,
			"name":"Leaf_091",
			"rotation":[
				-0.020728884264826775,
				-0.567820131778717,
				0.7907500863075256,
				0.22773879766464233
			],
			"scale":[
				0.8844175338745117,
				0.8844174146652222,
				0.8844174146652222
			],
			"translation":[
				0.7072917222976685,
				2.055994987487793,
				0.9531018733978271
			]
		},
		{
			"mesh":4,
			"name":"Leaf_092",
			"rotation":[
				-0.10039638727903366,
				0.7960927486419678,
				-0.591740608215332,
				0.07745914161205292
			],
			"scale":[
				0.9918231964111328,
				0.991823136806488,
				0.9918230772018433
			],
			"translation":[
				0.3082035183906555,
				2.0018820762634277,
				1.2312289476394653
			]
		},
		{
			"mesh":4,
			"name":"Leaf_093",
			"rotation":[
				-0.09860043972730637,
				-0.7828884720802307,
				-0.17265795171260834,
				0.5895363092422485
			],
			"scale":[
				1.1242824792861938,
				1.124282717704773,
				1.1242825984954834
			],
			"translation":[
				-0.3442062735557556,
				0.094992995262146,
				-0.7913123369216919
			]
		},
		{
			"mesh":4,
			"name":"Leaf_094",
			"rotation":[
				-0.41921529173851013,
				-0.38229548931121826,
				0.7310968041419983,
				0.3789539337158203
			],
			"scale":[
				1.0484740734100342,
				1.0484740734100342,
				1.0484739542007446
			],
			"translation":[
				0.589928388595581,
				1.8993923664093018,
				1.2862263917922974
			]
		},
		{
			"mesh":4,
			"name":"Leaf_095",
			"rotation":[
				0.5935565233230591,
				0.5309849381446838,
				0.5627503991127014,
				0.22148959338665009
			],
			"scale":[
				0.8303743004798889,
				0.8303743004798889,
				0.8303742408752441
			],
			"translation":[
				-0.4561516046524048,
				1.6833128929138184,
				-1.0201225280761719
			]
		},
		{
			"mesh":4,
			"name":"Leaf_096",
			"rotation":[
				-0.13571129739284515,
				0.7506893277168274,
				-0.27628713846206665,
				0.5845625996589661
			],
			"scale":[
				1.0457135438919067,
				1.0457135438919067,
				1.0457135438919067
			],
			"translation":[
				-0.14173144102096558,
				0.9020230770111084,
				1.2327851057052612
			]
		},
		{
			"mesh":4,
			"name":"Leaf_097",
			"rotation":[
				-0.34127381443977356,
				0.6964569687843323,
				0.21708619594573975,
				0.5927507877349854
			],
			"scale":[
				0.9987548589706421,
				0.9987549185752869,
				0.9987548589706421
			],
			"translation":[
				1.0910266637802124,
				0.6376791000366211,
				0.6212888956069946
			]
		},
		{
			"mesh":4,
			"name":"Leaf_098",
			"rotation":[
				-0.18534184992313385,
				0.8579221367835999,
				-0.3153288960456848,
				0.36081284284591675
			],
			"scale":[
				1.1245476007461548,
				1.1245476007461548,
				1.1245476007461548
			],
			"translation":[
				0.3548741340637207,
				1.1321933269500732,
				1.3273046016693115
			]
		},
		{
			"mesh":4,
			"name":"Leaf_100",
			"rotation":[
				0.03209259361028671,
				0.8858907222747803,
				-0.04802250117063522,
				0.46028414368629456
			],
			"scale":[
				0.9594755172729492,
				0.9594756364822388,
				0.9594754576683044
			],
			"translation":[
				-0.028397247195243835,
				0.3056514263153076,
				0.3742818832397461
			]
		},
		{
			"mesh":4,
			"name":"Leaf_101",
			"rotation":[
				-0.394010066986084,
				-0.1006246954202652,
				0.7683806419372559,
				0.49418818950653076
			],
			"scale":[
				1.1218371391296387,
				1.1218372583389282,
				1.1218371391296387
			],
			"translation":[
				1.2821259498596191,
				2.499934196472168,
				0.9889049530029297
			]
		},
		{
			"mesh":4,
			"name":"Leaf_102",
			"rotation":[
				-0.05030061677098274,
				0.9780778288841248,
				0.01158574502915144,
				0.2017408311367035
			],
			"scale":[
				0.8191384673118591,
				0.8191385269165039,
				0.8191384673118591
			],
			"translation":[
				0.5798132419586182,
				0.4857513904571533,
				0.21418794989585876
			]
		},
		{
			"mesh":4,
			"name":"Leaf_104",
			"rotation":[
				-0.3712521195411682,
				-0.6965445280075073,
				-0.535283625125885,
				0.30078086256980896
			],
			"scale":[
				1.1322667598724365,
				1.132266640663147,
				1.1322665214538574
			],
			"translation":[
				-1.153041124343872,
				1.2373977899551392,
				-1.5398545265197754
			]
		},
		{
			"mesh":4,
			"name":"Leaf_105",
			"rotation":[
				0.2692497968673706,
				0.7377798557281494,
				-0.6186624765396118,
				0.021030906587839127
			],
			"scale":[
				0.931353747844696,
				0.9313536882400513,
				0.931353747844696
			],
			"translation":[
				-0.23824664950370789,
				1.3142284154891968,
				1.2096810340881348
			]
		},
		{
			"mesh":4,
			"name":"Leaf_106",
			"rotation":[
				-0.14797891676425934,
				0.8032104969024658,
				-0.5689828991889954,
				0.09598763287067413
			],
			"scale":[
				1.1166317462921143,
				1.1166317462921143,
				1.1166318655014038
			],
			"translation":[
				0.537246584892273,
				1.9374234676361084,
				1.4611725807189941
			]
		},
		{
			"mesh":4,
			"name":"Leaf_107",
			"rotation":[
				-5.457785300677642e-05,
				-0.6078168153762817,
				-0.2520754039287567,
				0.7530051469802856
			],
			"scale":[
				1.0987201929092407,
				1.0987203121185303,
				1.0987201929092407
			],
			"translation":[
				-0.622675359249115,
				0.5611854791641235,
				-1.1039416790008545
			]
		},
		{
			"mesh":4,
			"name":"Leaf_108",
			"rotation":[
				-0.269935667514801,
				0.5398168563842773,
				0.28362801671028137,
				0.745176374912262
			],
			"scale":[
				0.9681036472320557,
				0.9681036472320557,
				0.9681035876274109
			],
			"translation":[
				0.8320210576057434,
				0.3684746026992798,
				0.4455992579460144
			]
		},
		{
			"mesh":4,
			"name":"Leaf_109",
			"rotation":[
				-0.21158263087272644,
				0.9169149398803711,
				-0.3313552439212799,
				0.06858325749635696
			],
			"scale":[
				1.1410642862319946,
				1.1410640478134155,
				1.1410638093948364
			],
			"translation":[
				1.038394808769226,
				1.0604431629180908,
				1.125852108001709
			]
		},
		{
			"mesh":4,
			"name":"Leaf_110",
			"rotation":[
				-0.18869268894195557,
				0.07208676636219025,
				0.8677892088890076,
				0.4540269374847412
			],
			"scale":[
				0.9451097846031189,
				0.9451098442077637,
				0.9451099634170532
			],
			"translation":[
				1.4592137336730957,
				2.225066661834717,
				0.14726269245147705
			]
		},
		{
			"mesh":4,
			"name":"Leaf_111",
			"rotation":[
				-0.3378312289714813,
				-0.6743022799491882,
				0.6512554287910461,
				0.08398111164569855
			],
			"scale":[
				1.0457069873809814,
				1.045707106590271,
				1.0457069873809814
			],
			"translation":[
				-0.08365778625011444,
				1.3145257234573364,
				1.6565465927124023
			]
		},
		{
			"mesh":4,
			"name":"Leaf_113",
			"rotation":[
				-0.08206070959568024,
				0.9080557823181152,
				-0.40073806047439575,
				0.09005521982908249
			],
			"scale":[
				1.023490071296692,
				1.023490071296692,
				1.0234898328781128
			],
			"translation":[
				0.5447810888290405,
				0.9335628747940063,
				1.1967825889587402
			]
		},
		{
			"mesh":4,
			"name":"Leaf_114",
			"rotation":[
				-0.1045348048210144,
				-0.8351194262504578,
				0.5326839089393616,
				0.08885983377695084
			],
			"scale":[
				0.8405067324638367,
				0.8405067324638367,
				0.8405066132545471
			],
			"translation":[
				0.20278039574623108,
				1.3405125141143799,
				1.028485894203186
			]
		},
		{
			"mesh":4,
			"name":"Leaf_115",
			"rotation":[
				-0.3190447688102722,
				0.4904465079307556,
				0.4233841001987457,
				0.6916781663894653
			],
			"scale":[
				0.9280303120613098,
				0.9280303120613098,
				0.9280303716659546
			],
			"translation":[
				1.0629726648330688,
				0.8564236760139465,
				0.2714480757713318
			]
		},
		{
			"mesh":4,
			"name":"Leaf_116",
			"rotation":[
				-0.1222069188952446,
				0.838254451751709,
				-0.11960776895284653,
				0.5177730321884155
			],
			"scale":[
				1.067168951034546,
				1.067169189453125,
				1.0671688318252563
			],
			"translation":[
				0.19705376029014587,
				0.6186867952346802,
				0.8453748822212219
			]
		},
		{
			"mesh":4,
			"name":"Leaf_117",
			"rotation":[
				-0.239312544465065,
				0.6291347742080688,
				0.6149470210075378,
				0.41080304980278015
			],
			"scale":[
				0.9956371784210205,
				0.9956371188163757,
				0.9956371784210205
			],
			"translation":[
				1.5540918111801147,
				1.2751548290252686,
				-0.494675874710083
			]
		},
		{
			"mesh":4,
			"name":"Leaf_118",
			"rotation":[
				0.05252240598201752,
				-0.8838503956794739,
				0.46225249767303467,
				0.04871080815792084
			],
			"scale":[
				0.8254083395004272,
				0.8254083395004272,
				0.8254082798957825
			],
			"translation":[
				0.3696995675563812,
				1.4178194999694824,
				0.8685749769210815
			]
		},
		{
			"mesh":4,
			"name":"Leaf_119",
			"rotation":[
				-0.6783466935157776,
				-0.5359410643577576,
				0.3435616195201874,
				0.36684930324554443
			],
			"scale":[
				0.8441113233566284,
				0.8441113829612732,
				0.8441112041473389
			],
			"translation":[
				-0.4524926543235779,
				1.687103509902954,
				0.9951410889625549
			]
		},
		{
			"mesh":4,
			"name":"Leaf_120",
			"rotation":[
				-0.3984861373901367,
				0.26457127928733826,
				0.6512244343757629,
				0.5891668796539307
			],
			"scale":[
				0.8297913670539856,
				0.8297913670539856,
				0.8297913670539856
			],
			"translation":[
				1.2424983978271484,
				1.7249577045440674,
				0.41157960891723633
			]
		},
		{
			"mesh":4,
			"name":"Leaf_121",
			"rotation":[
				-0.14818324148654938,
				-0.8588736653327942,
				0.4797801077365875,
				0.10093951225280762
			],
			"scale":[
				1.0910955667495728,
				1.0910955667495728,
				1.0910953283309937
			],
			"translation":[
				0.09318339824676514,
				0.8981539011001587,
				1.2339211702346802
			]
		},
		{
			"mesh":4,
			"name":"Leaf_122",
			"rotation":[
				0.007228969596326351,
				0.5540408492088318,
				-0.17158842086791992,
				0.8145820498466492
			],
			"scale":[
				0.9003781676292419,
				0.9003780484199524,
				0.9003781080245972
			],
			"translation":[
				-0.5756686925888062,
				0.5506354570388794,
				0.52363121509552
			]
		},
		{
			"mesh":4,
			"name":"Leaf_123",
			"rotation":[
				0.0854906216263771,
				-0.897222101688385,
				0.42350026965141296,
				0.09127619862556458
			],
			"scale":[
				1.1228965520858765,
				1.122896432876587,
				1.122896432876587
			],
			"translation":[
				0.8943135738372803,
				0.6055138111114502,
				1.1513277292251587
			]
		},
		{
			"mesh":4,
			"name":"Leaf_124",
			"rotation":[
				-0.038818955421447754,
				-0.6223605275154114,
				0.7039473056793213,
				0.3400276005268097
			],
			"scale":[
				0.8176180124282837,
				0.8176180720329285,
				0.8176180720329285
			],
			"translation":[
				0.8020062446594238,
				1.4913356304168701,
				0.8777694702148438
			]
		},
		{
			"mesh":4,
			"name":"Leaf_125",
			"rotation":[
				-0.19597961008548737,
				-0.5754699110984802,
				-0.15401537716388702,
				0.7789132595062256
			],
			"scale":[
				1.0815454721450806,
				1.0815454721450806,
				1.0815454721450806
			],
			"translation":[
				-0.6549769639968872,
				0.4460320472717285,
				-0.2125847041606903
			]
		},
		{
			"mesh":4,
			"name":"Leaf_126",
			"rotation":[
				0.6374064683914185,
				-0.2083733081817627,
				0.37223342061042786,
				0.6416664719581604
			],
			"scale":[
				0.9174351692199707,
				0.9174351692199707,
				0.9174351692199707
			],
			"translation":[
				0.7375985383987427,
				2.1758134365081787,
				-1.247331142425537
			]
		},
		{
			"mesh":4,
			"name":"Leaf_127",
			"rotation":[
				0.07531464099884033,
				-0.8333020806312561,
				0.5366066694259644,
				0.10949371755123138
			],
			"scale":[
				1.0019720792770386,
				1.001971960067749,
				1.0019718408584595
			],
			"translation":[
				0.82692950963974,
				1.2792973518371582,
				1.1903841495513916
			]
		},
		{
			"mesh":4,
			"name":"Leaf_128",
			"rotation":[
				0.4481705129146576,
				0.07380348443984985,
				0.6237992644309998,
				0.6360588669776917
			],
			"scale":[
				1.1123230457305908,
				1.1123231649398804,
				1.1123230457305908
			],
			"translation":[
				1.0152796506881714,
				1.4587721824645996,
				-1.3936057090759277
			]
		},
		{
			"mesh":4,
			"name":"Leaf_129",
			"rotation":[
				-0.28199535608291626,
				0.5183228850364685,
				0.537695050239563,
				0.6022492051124573
			],
			"scale":[
				1.1254624128341675,
				1.1254624128341675,
				1.1254624128341675
			],
			"translation":[
				1.6882303953170776,
				1.084038496017456,
				0.11251631379127502
			]
		},
		{
			"mesh":4,
			"name":"Leaf_130",
			"rotation":[
				-0.33893856406211853,
				0.2542266249656677,
				0.5382950901985168,
				0.7285107374191284
			],
			"scale":[
				1.1035585403442383,
				1.1035585403442383,
				1.1035585403442383
			],
			"translation":[
				1.4188718795776367,
				0.743634045124054,
				0.6127172708511353
			]
		},
		{
			"mesh":4,
			"name":"Leaf_131",
			"rotation":[
				0.10875409841537476,
				-0.848092794418335,
				0.2667279541492462,
				0.444710373878479
			],
			"scale":[
				0.8976830840110779,
				0.8976828455924988,
				0.8976829648017883
			],
			"translation":[
				0.5355555415153503,
				0.7171875238418579,
				0.3790971040725708
			]
		},
		{
			"mesh":4,
			"name":"Leaf_132",
			"rotation":[
				0.012134742923080921,
				-0.9846625924110413,
				-0.10749874264001846,
				0.13688066601753235
			],
			"scale":[
				0.9788774251937866,
				0.9788775444030762,
				0.9788773655891418
			],
			"translation":[
				0.3314770758152008,
				0.30759668350219727,
				-0.2748270630836487
			]
		},
		{
			"mesh":4,
			"name":"Leaf_133",
			"rotation":[
				0.18141983449459076,
				-0.7456760406494141,
				0.22740910947322845,
				0.599449098110199
			],
			"scale":[
				0.8661587834358215,
				0.8661589026451111,
				0.8661587834358215
			],
			"translation":[
				1.0094257593154907,
				0.4457336664199829,
				-0.5045295357704163
			]
		},
		{
			"mesh":4,
			"name":"Leaf_134",
			"rotation":[
				0.10126212239265442,
				0.733404278755188,
				0.6165918111801147,
				0.2677289843559265
			],
			"scale":[
				1.1445378065109253,
				1.1445379257202148,
				1.1445378065109253
			],
			"translation":[
				0.6549390554428101,
				1.0828841924667358,
				-1.4760545492172241
			]
		},
		{
			"mesh":4,
			"name":"Leaf_136",
			"rotation":[
				0.28618571162223816,
				-0.8451698422431946,
				0.1330069899559021,
				0.4313870966434479
			],
			"scale":[
				1.003159761428833,
				1.003159761428833,
				1.0031598806381226
			],
			"translation":[
				1.150795340538025,
				0.8017734289169312,
				-0.3432016968727112
			]
		},
		{
			"mesh":4,
			"name":"Leaf_138",
			"rotation":[
				0.19165174663066864,
				-0.5846917033195496,
				0.5261308550834656,
				0.5870192646980286
			],
			"scale":[
				0.8241426348686218,
				0.824142575263977,
				0.8241427540779114
			],
			"translation":[
				0.9981397986412048,
				1.4079229831695557,
				0.1775154322385788
			]
		},
		{
			"mesh":4,
			"name":"Leaf_139",
			"rotation":[
				0.16630516946315765,
				0.8665207028388977,
				0.40250998735427856,
				0.24386519193649292
			],
			"scale":[
				0.9659289717674255,
				0.9659289717674255,
				0.965928852558136
			],
			"translation":[
				-0.049330443143844604,
				0.3955947160720825,
				-0.8029269576072693
			]
		},
		{
			"mesh":4,
			"name":"Leaf_140",
			"rotation":[
				0.1007549986243248,
				0.6485810875892639,
				0.5530481338500977,
				0.5131557583808899
			],
			"scale":[
				0.9484502673149109,
				0.94845050573349,
				0.9484502673149109
			],
			"translation":[
				0.6783238649368286,
				0.9000962972640991,
				-0.9413660764694214
			]
		},
		{
			"mesh":4,
			"name":"Leaf_141",
			"rotation":[
				0.18564465641975403,
				0.26925012469291687,
				0.828532338142395,
				0.4545050263404846
			],
			"scale":[
				0.8183510899543762,
				0.8183510899543762,
				0.8183509707450867
			],
			"translation":[
				0.8022803068161011,
				2.1924593448638916,
				-0.8026922941207886
			]
		},
		{
			"mesh":4,
			"name":"Leaf_143",
			"rotation":[
				0.45452138781547546,
				-0.0017118871910497546,
				0.7004400491714478,
				0.5502647161483765
			],
			"scale":[
				0.8927351832389832,
				0.8927351236343384,
				0.8927351236343384
			],
			"translation":[
				0.8100571632385254,
				1.9943939447402954,
				-0.8099282383918762
			]
		},
		{
			"mesh":4,
			"name":"Leaf_144",
			"rotation":[
				-0.152845099568367,
				-0.8012814521789551,
				-0.21425700187683105,
				0.5372897982597351
			],
			"scale":[
				0.8629188537597656,
				0.8629189133644104,
				0.8629188537597656
			],
			"translation":[
				-0.37249070405960083,
				0.45846307277679443,
				-0.5752071738243103
			]
		},
		{
			"mesh":4,
			"name":"Leaf_145",
			"rotation":[
				0.2736062705516815,
				-0.8730144500732422,
				0.3115394413471222,
				0.25676560401916504
			],
			"scale":[
				0.8121821880340576,
				0.8121821880340576,
				0.8121823072433472
			],
			"translation":[
				0.9644681215286255,
				1.1675004959106445,
				0.3096919059753418
			]
		},
		{
			"mesh":4,
			"name":"Leaf_146",
			"rotation":[
				0.3012580871582031,
				-0.5699623227119446,
				0.45443791151046753,
				0.6147135496139526
			],
			"scale":[
				1.1143172979354858,
				1.1143172979354858,
				1.1143172979354858
			],
			"translation":[
				1.3990123271942139,
				1.2885770797729492,
				-0.12648320198059082
			]
		},
		{
			"mesh":4,
			"name":"Leaf_148",
			"rotation":[
				0.17903389036655426,
				0.6763429641723633,
				0.6550260186195374,
				0.28539085388183594
			],
			"scale":[
				0.8213664889335632,
				0.8213664889335632,
				0.8213663697242737
			],
			"translation":[
				0.2886381447315216,
				1.352329969406128,
				-1.0808792114257812
			]
		},
		{
			"mesh":4,
			"name":"Leaf_149",
			"rotation":[
				0.05749030411243439,
				-0.9845868349075317,
				0.021999824792146683,
				0.16370607912540436
			],
			"scale":[
				1.1333214044570923,
				1.1333214044570923,
				1.1333214044570923
			],
			"translation":[
				0.4522431492805481,
				0.38157594203948975,
				0.09013612568378448
			]
		},
		{
			"mesh":4,
			"name":"Leaf_150",
			"rotation":[
				-0.7143295407295227,
				-0.6668358445167542,
				0.19681480526924133,
				0.07954375445842743
			],
			"scale":[
				1.129468560218811,
				1.1294686794281006,
				1.1294684410095215
			],
			"translation":[
				-1.3002086877822876,
				1.121208906173706,
				0.7190984487533569
			]
		},
		{
			"mesh":4,
			"name":"Leaf_152",
			"rotation":[
				0.058194104582071304,
				0.9565936326980591,
				0.2708702087402344,
				0.09039603173732758
			],
			"scale":[
				1.0719614028930664,
				1.0719614028930664,
				1.0719614028930664
			],
			"translation":[
				0.18478244543075562,
				-0.007801413536071777,
				-0.608684778213501
			]
		},
		{
			"mesh":4,
			"name":"Leaf_153",
			"rotation":[
				0.08529859781265259,
				-0.9135050773620605,
				0.11213699728250504,
				0.38165169954299927
			],
			"scale":[
				1.123817801475525,
				1.123817801475525,
				1.123817801475525
			],
			"translation":[
				0.6173080205917358,
				-0.08676528930664062,
				0.12071776390075684
			]
		},
		{
			"mesh":4,
			"name":"Leaf_154",
			"rotation":[
				0.4225142002105713,
				-0.004143699072301388,
				0.7584968209266663,
				0.4961321949958801
			],
			"scale":[
				1.0427078008651733,
				1.0427078008651733,
				1.0427076816558838
			],
			"translation":[
				1.0099763870239258,
				2.503108024597168,
				-0.8793272972106934
			]
		},
		{
			"mesh":4,
			"name":"Leaf_155",
			"rotation":[
				0.3632521629333496,
				0.6727133393287659,
				-0.41074055433273315,
				0.496786504983902
			],
			"scale":[
				0.9047152400016785,
				0.9047151803970337,
				0.9047152400016785
			],
			"translation":[
				-1.0396621227264404,
				1.4134230613708496,
				0.4738795757293701
			]
		},
		{
			"mesh":4,
			"name":"Leaf_156",
			"rotation":[
				-0.10360999405384064,
				0.4910423159599304,
				0.6811231970787048,
				0.53311687707901
			],
			"scale":[
				1.0111719369888306,
				1.0111720561981201,
				1.0111719369888306
			],
			"translation":[
				1.3760724067687988,
				1.3201167583465576,
				-0.6136363744735718
			]
		},
		{
			"mesh":4,
			"name":"Leaf_157",
			"rotation":[
				-0.18538668751716614,
				0.7334042191505432,
				0.5392106771469116,
				0.37013763189315796
			],
			"scale":[
				0.8213420510292053,
				0.8213419914245605,
				0.8213419914245605
			],
			"translation":[
				1.0924421548843384,
				1.238412857055664,
				-0.5312746167182922
			]
		},
		{
			"mesh":4,
			"name":"Leaf_158",
			"rotation":[
				0.3059021532535553,
				-0.233066126704216,
				0.6229820251464844,
				0.6811736226081848
			],
			"scale":[
				1.1319866180419922,
				1.1319864988327026,
				1.1319867372512817
			],
			"translation":[
				1.5045303106307983,
				1.080251932144165,
				-0.5981594920158386
			]
		},
		{
			"mesh":4,
			"name":"Leaf_159",
			"rotation":[
				-0.1383613646030426,
				0.7218978404998779,
				0.5977662205696106,
				0.3199924826622009
			],
			"scale":[
				1.085930347442627,
				1.085930347442627,
				1.0859301090240479
			],
			"translation":[
				1.2660331726074219,
				1.297011375427246,
				-0.9525578022003174
			]
		},
		{
			"mesh":4,
			"name":"Leaf_160",
			"rotation":[
				0.37489980459213257,
				-0.06024351343512535,
				0.8047133088111877,
				0.45635247230529785
			],
			"scale":[
				0.9235641360282898,
				0.9235642552375793,
				0.9235642552375793
			],
			"translation":[
				1.2794827222824097,
				2.472856283187866,
				-0.7877424359321594
			]
		},
		{
			"mesh":4,
			"name":"Leaf_161",
			"rotation":[
				-0.6851458549499512,
				-0.10098957270383835,
				0.31059783697128296,
				0.6510801315307617
			],
			"scale":[
				0.8186739087104797,
				0.8186739087104797,
				0.8186739087104797
			],
			"translation":[
				0.17635001242160797,
				2.022207736968994,
				1.066948413848877
			]
		},
		{
			"mesh":4,
			"name":"Leaf_163",
			"rotation":[
				-0.18763335049152374,
				-0.5707040429115295,
				0.7975017428398132,
				0.055512115359306335
			],
			"scale":[
				1.148065447807312,
				1.1480653285980225,
				1.1480653285980225
			],
			"translation":[
				0.4736120104789734,
				2.355529308319092,
				1.8795075416564941
			]
		},
		{
			"mesh":4,
			"name":"Leaf_164",
			"rotation":[
				0.4155515730381012,
				-0.5984175205230713,
				0.3140154778957367,
				0.6087754964828491
			],
			"scale":[
				1.136958122253418,
				1.1369580030441284,
				1.1369580030441284
			],
			"translation":[
				1.6050814390182495,
				1.411354899406433,
				-0.9355132579803467
			]
		},
		{
			"mesh":4,
			"name":"Leaf_165",
			"rotation":[
				0.3420800566673279,
				-0.76195228099823,
				0.4454500377178192,
				0.32246583700180054
			],
			"scale":[
				1.0260792970657349,
				1.0260792970657349,
				1.0260791778564453
			],
			"translation":[
				1.3970606327056885,
				1.2764666080474854,
				0.375115305185318
			]
		},
		{
			"mesh":4,
			"name":"Leaf_166",
			"rotation":[
				0.8794952630996704,
				0.4664246737957001,
				-0.09235632419586182,
				0.020160717889666557
			],
			"scale":[
				1.0768054723739624,
				1.0768053531646729,
				1.0768054723739624
			],
			"translation":[
				-1.6437642574310303,
				2.2555015087127686,
				0.24601419270038605
			]
		},
		{
			"mesh":4,
			"name":"Leaf_167",
			"rotation":[
				0.11977450549602509,
				-0.06213447451591492,
				0.7869328260421753,
				0.6021047234535217
			],
			"scale":[
				0.8728645443916321,
				0.8728644847869873,
				0.8728645443916321
			],
			"translation":[
				1.1367706060409546,
				1.568086862564087,
				-0.25812363624572754
			]
		},
		{
			"mesh":4,
			"name":"Leaf_168",
			"rotation":[
				-0.025545556098222733,
				0.6774030327796936,
				0.4376734495162964,
				0.5906898975372314
			],
			"scale":[
				0.8943231105804443,
				0.8943231105804443,
				0.8943230509757996
			],
			"translation":[
				0.7450921535491943,
				0.4515247344970703,
				-0.4629196524620056
			]
		},
		{
			"mesh":4,
			"name":"Leaf_169",
			"rotation":[
				0.2636299729347229,
				-0.738898515701294,
				0.32117292284965515,
				0.5304490327835083
			],
			"scale":[
				0.9388228058815002,
				0.9388228058815002,
				0.9388229250907898
			],
			"translation":[
				1.025511384010315,
				1.093504786491394,
				0.030017435550689697
			]
		},
		{
			"mesh":4,
			"name":"Leaf_170",
			"rotation":[
				0.4191678762435913,
				0.02571973204612732,
				0.6669245958328247,
				0.6155065894126892
			],
			"scale":[
				1.0414464473724365,
				1.041446328163147,
				1.041446328163147
			],
			"translation":[
				1.3041759729385376,
				1.6870079040527344,
				-1.4008787870407104
			]
		},
		{
			"mesh":4,
			"name":"Leaf_172",
			"rotation":[
				0.7361705303192139,
				0.08592789620161057,
				0.270590603351593,
				0.6143696308135986
			],
			"scale":[
				1.0498441457748413,
				1.0498441457748413,
				1.0498441457748413
			],
			"translation":[
				-0.07102149724960327,
				1.8037248849868774,
				-1.5278501510620117
			]
		},
		{
			"mesh":4,
			"name":"Leaf_174",
			"rotation":[
				0.3259875476360321,
				0.2445652037858963,
				0.8389788269996643,
				0.3606029748916626
			],
			"scale":[
				1.01146399974823,
				1.01146399974823,
				1.0114638805389404
			],
			"translation":[
				0.9911115169525146,
				2.776711940765381,
				-1.3416357040405273
			]
		},
		{
			"mesh":4,
			"name":"Leaf_175",
			"rotation":[
				0.2392745316028595,
				0.8190432190895081,
				0.44748637080192566,
				0.2677159905433655
			],
			"scale":[
				1.0326476097106934,
				1.0326476097106934,
				1.0326476097106934
			],
			"translation":[
				-0.07946315407752991,
				0.442793607711792,
				-1.0590147972106934
			]
		},
		{
			"mesh":4,
			"name":"Leaf_176",
			"rotation":[
				0.3598228394985199,
				0.2936800718307495,
				0.7061650156974792,
				0.5344255566596985
			],
			"scale":[
				0.9415863752365112,
				0.941586434841156,
				0.9415862560272217
			],
			"translation":[
				0.6215441226959229,
				1.6634275913238525,
				-1.136210560798645
			]
		},
		{
			"mesh":4,
			"name":"Leaf_177",
			"rotation":[
				0.7833622694015503,
				0.20789535343647003,
				0.23129576444625854,
				0.5381685495376587
			],
			"scale":[
				0.8328555226325989,
				0.8328555822372437,
				0.8328554630279541
			],
			"translation":[
				-0.27538108825683594,
				1.9252204895019531,
				-0.9859941601753235
			]
		},
		{
			"mesh":4,
			"name":"Leaf_178",
			"rotation":[
				0.6841249465942383,
				0.3697478175163269,
				0.5025697350502014,
				0.3777344226837158
			],
			"scale":[
				1.1229931116104126,
				1.1229932308197021,
				1.1229932308197021
			],
			"translation":[
				-0.44041961431503296,
				1.8695614337921143,
				-1.9040056467056274
			]
		},
		{
			"mesh":4,
			"name":"Leaf_179",
			"rotation":[
				-0.33787885308265686,
				0.8207048773765564,
				0.22235049307346344,
				0.40353643894195557
			],
			"scale":[
				0.9480383396148682,
				0.9480384588241577,
				0.9480382800102234
			],
			"translation":[
				1.0898069143295288,
				0.8666909337043762,
				0.1971466839313507
			]
		},
		{
			"mesh":4,
			"name":"Leaf_180",
			"rotation":[
				-0.5970309376716614,
				-0.5986772775650024,
				-0.4338762164115906,
				0.3112732172012329
			],
			"scale":[
				0.836617648601532,
				0.836617648601532,
				0.836617648601532
			],
			"translation":[
				-1.1833126544952393,
				1.9257469177246094,
				-0.520907998085022
			]
		},
		{
			"mesh":4,
			"name":"Leaf_182",
			"rotation":[
				0.7228692770004272,
				0.46153560280799866,
				0.4776456952095032,
				0.19052429497241974
			],
			"scale":[
				0.8105409145355225,
				0.8105408549308777,
				0.8105408549308777
			],
			"translation":[
				-0.616968035697937,
				2.29720401763916,
				-0.8389043211936951
			]
		},
		{
			"mesh":4,
			"name":"Leaf_183",
			"rotation":[
				0.4709686040878296,
				0.2492995262145996,
				-0.029410449787974358,
				0.8456792235374451
			],
			"scale":[
				1.101289987564087,
				1.101289987564087,
				1.1012898683547974
			],
			"translation":[
				-0.7658611536026001,
				0.6469224691390991,
				-1.0937070846557617
			]
		},
		{
			"mesh":4,
			"name":"Leaf_184",
			"rotation":[
				0.8375878930091858,
				0.35882899165153503,
				0.17435431480407715,
				0.3732142150402069
			],
			"scale":[
				0.8642348647117615,
				0.8642348647117615,
				0.8642348051071167
			],
			"translation":[
				-1.0758893489837646,
				2.0974338054656982,
				-1.0889110565185547
			]
		},
		{
			"mesh":4,
			"name":"Leaf_185",
			"rotation":[
				0.6333418488502502,
				0.36586999893188477,
				0.5545724034309387,
				0.39682096242904663
			],
			"scale":[
				1.1456637382507324,
				1.1456632614135742,
				1.1456637382507324
			],
			"translation":[
				-0.1980428844690323,
				2.3459415435791016,
				-1.7975459098815918
			]
		},
		{
			"mesh":4,
			"name":"Leaf_186",
			"rotation":[
				-0.20414137840270996,
				-0.869117259979248,
				-0.28950053453445435,
				0.34518250823020935
			],
			"scale":[
				1.1414974927902222,
				1.1414974927902222,
				1.1414974927902222
			],
			"translation":[
				-0.5154619812965393,
				0.3379014730453491,
				-0.9361616373062134
			]
		},
		{
			"mesh":4,
			"name":"Leaf_187",
			"rotation":[
				0.47729989886283875,
				-0.5309349298477173,
				0.4392649531364441,
				0.5452883243560791
			],
			"scale":[
				1.0800609588623047,
				1.0800608396530151,
				1.0800608396530151
			],
			"translation":[
				1.5261317491531372,
				1.5920318365097046,
				-0.538300633430481
			]
		},
		{
			"mesh":4,
			"name":"Leaf_190",
			"rotation":[
				0.12128549814224243,
				0.6847456693649292,
				-0.4873387813568115,
				0.5281232595443726
			],
			"scale":[
				1.1279650926589966,
				1.1279650926589966,
				1.1279650926589966
			],
			"translation":[
				-0.9724727869033813,
				1.1850273609161377,
				1.2453548908233643
			]
		},
		{
			"mesh":4,
			"name":"Leaf_192",
			"rotation":[
				0.25754156708717346,
				-0.6491562128067017,
				0.1849767118692398,
				0.691413164138794
			],
			"scale":[
				0.9267401099205017,
				0.9267402291297913,
				0.9267401099205017
			],
			"translation":[
				0.8272442817687988,
				0.6090606451034546,
				-0.498502641916275
			]
		},
		{
			"mesh":4,
			"name":"Leaf_193",
			"rotation":[
				0.19673340022563934,
				-0.7254854440689087,
				0.5386372804641724,
				0.3805742561817169
			],
			"scale":[
				0.9952294826507568,
				0.9952294826507568,
				0.9952294230461121
			],
			"translation":[
				1.179654836654663,
				1.4155775308609009,
				0.5937261581420898
			]
		},
		{
			"mesh":4,
			"name":"Leaf_195",
			"rotation":[
				-0.1830342710018158,
				-0.8338093161582947,
				-0.3418317437171936,
				0.3929523527622223
			],
			"scale":[
				1.1181986331939697,
				1.1181986331939697,
				1.1181985139846802
			],
			"translation":[
				-0.5571218729019165,
				0.6621650457382202,
				-1.0346970558166504
			]
		},
		{
			"mesh":4,
			"name":"Leaf_196",
			"rotation":[
				0.47884973883628845,
				-0.1183108538389206,
				0.19586564600467682,
				0.8475506901741028
			],
			"scale":[
				0.9177149534225464,
				0.9177150130271912,
				0.9177149534225464
			],
			"translation":[
				0.26386356353759766,
				1.021533727645874,
				-1.2382173538208008
			]
		},
		{
			"mesh":4,
			"name":"Leaf_197",
			"rotation":[
				0.01494891382753849,
				-0.8791040778160095,
				0.04746453836560249,
				0.4740252196788788
			],
			"scale":[
				1.113671898841858,
				1.113671898841858,
				1.1136716604232788
			],
			"translation":[
				0.4314028024673462,
				-0.18740248680114746,
				-0.141718327999115
			]
		},
		{
			"mesh":4,
			"name":"Leaf_198",
			"rotation":[
				0.4008954167366028,
				-0.4817231297492981,
				0.19458642601966858,
				0.7545608878135681
			],
			"scale":[
				0.9474196434020996,
				0.9474197030067444,
				0.9474197030067444
			],
			"translation":[
				0.8032310009002686,
				0.9593863487243652,
				-0.6875150203704834
			]
		},
		{
			"mesh":4,
			"name":"Leaf_199",
			"rotation":[
				-0.5085940361022949,
				-0.7666707634925842,
				-0.3501661717891693,
				0.17587420344352722
			],
			"scale":[
				0.810357928276062,
				0.8103579878807068,
				0.810357928276062
			],
			"translation":[
				-0.8388893008232117,
				1.1420785188674927,
				-0.42109614610671997
			]
		},
		{
			"mesh":4,
			"name":"Leaf_200",
			"rotation":[
				0.06900060921907425,
				-0.5061689019203186,
				-0.06276509910821915,
				0.8573753237724304
			],
			"scale":[
				0.8253323435783386,
				0.8253323435783386,
				0.8253322839736938
			],
			"translation":[
				-0.07206422090530396,
				0.3542739152908325,
				-0.5213826894760132
			]
		},
		{
			"mesh":4,
			"name":"Leaf_203",
			"rotation":[
				-0.248936265707016,
				0.06932182610034943,
				0.04287164285778999,
				0.9650841355323792
			],
			"scale":[
				0.8216328620910645,
				0.821632981300354,
				0.8216328620910645
			],
			"translation":[
				-0.07370340824127197,
				0.38247358798980713,
				0.39873671531677246
			]
		},
		{
			"mesh":4,
			"name":"Leaf_205",
			"rotation":[
				0.1759900450706482,
				-0.5854066014289856,
				-0.011884458363056183,
				0.7913187742233276
			],
			"scale":[
				1.0721420049667358,
				1.072142243385315,
				1.0721421241760254
			],
			"translation":[
				0.26022887229919434,
				0.23257172107696533,
				-0.9564871191978455
			]
		},
		{
			"mesh":4,
			"name":"Leaf_206",
			"rotation":[
				0.7080276012420654,
				0.4029567241668701,
				0.41171973943710327,
				0.40842336416244507
			],
			"scale":[
				1.0069876909255981,
				1.0069878101348877,
				1.0069878101348877
			],
			"translation":[
				-0.5349034070968628,
				1.6609233617782593,
				-1.32808518409729
			]
		},
		{
			"mesh":4,
			"name":"Leaf_207",
			"rotation":[
				0.49293360114097595,
				-0.25419777631759644,
				0.06825350970029831,
				0.8293017745018005
			],
			"scale":[
				1.075955867767334,
				1.075955867767334,
				1.075955867767334
			],
			"translation":[
				0.26909077167510986,
				1.128990888595581,
				-1.4373993873596191
			]
		},
		{
			"mesh":4,
			"name":"Leaf_208",
			"rotation":[
				0.4551886320114136,
				0.09611707925796509,
				0.08430375158786774,
				0.8811683654785156
			],
			"scale":[
				0.9513954520225525,
				0.9513954520225525,
				0.9513954520225525
			],
			"translation":[
				-0.267009437084198,
				0.8011232614517212,
				-1.1450704336166382
			]
		},
		{
			"mesh":4,
			"name":"Leaf_210",
			"rotation":[
				0.282270610332489,
				-0.7199071049690247,
				0.4773509204387665,
				0.41736456751823425
			],
			"scale":[
				0.8679949045181274,
				0.8679949641227722,
				0.8679949641227722
			],
			"translation":[
				1.3159551620483398,
				1.1846051216125488,
				0.20316699147224426
			]
		},
		{
			"mesh":4,
			"name":"Leaf_211",
			"rotation":[
				0.4939482510089874,
				0.5925759673118591,
				0.6165940761566162,
				0.15710075199604034
			],
			"scale":[
				1.0005828142166138,
				1.0005826950073242,
				1.0005825757980347
			],
			"translation":[
				-0.4340898394584656,
				1.9361730813980103,
				-1.509813904762268
			]
		},
		{
			"mesh":4,
			"name":"Leaf_212",
			"rotation":[
				0.7599835991859436,
				0.3024792969226837,
				0.3719275891780853,
				0.4388633668422699
			],
			"scale":[
				0.9279511570930481,
				0.9279510974884033,
				0.9279510974884033
			],
			"translation":[
				-0.3706582188606262,
				1.9393565654754639,
				-1.1010773181915283
			]
		},
		{
			"mesh":4,
			"name":"Leaf_214",
			"rotation":[
				0.4123283326625824,
				-0.5497079491615295,
				0.046307969838380814,
				0.7250255346298218
			],
			"scale":[
				1.0247288942337036,
				1.0247288942337036,
				1.0247288942337036
			],
			"translation":[
				0.697414755821228,
				1.2659845352172852,
				-1.2395193576812744
			]
		},
		{
			"mesh":4,
			"name":"Leaf_215",
			"rotation":[
				0.61844402551651,
				0.014042538590729237,
				0.276513010263443,
				0.7354390025138855
			],
			"scale":[
				1.0395045280456543,
				1.0395045280456543,
				1.0395045280456543
			],
			"translation":[
				0.2126615345478058,
				1.75923490524292,
				-1.5086650848388672
			]
		},
		{
			"mesh":4,
			"name":"Leaf_216",
			"rotation":[
				-0.5732482671737671,
				-0.19620218873023987,
				-0.12516364455223083,
				0.7856367826461792
			],
			"scale":[
				0.940424919128418,
				0.940424919128418,
				0.9404249787330627
			],
			"translation":[
				-0.929009199142456,
				1.451951026916504,
				0.9323524236679077
			]
		},
		{
			"mesh":4,
			"name":"Leaf_217",
			"rotation":[
				-0.4564093053340912,
				-0.670846700668335,
				-0.3899366855621338,
				0.4354361295700073
			],
			"scale":[
				1.1198400259017944,
				1.119840145111084,
				1.119840145111084
			],
			"translation":[
				-1.501053810119629,
				1.153833031654358,
				-0.7869370579719543
			]
		},
		{
			"mesh":4,
			"name":"Leaf_220",
			"rotation":[
				-0.142295703291893,
				-0.8331112265586853,
				-0.413811057806015,
				0.33828696608543396
			],
			"scale":[
				1.0995150804519653,
				1.0995151996612549,
				1.0995150804519653
			],
			"translation":[
				-0.40319767594337463,
				0.7917580604553223,
				-1.3655527830123901
			]
		},
		{
			"mesh":4,
			"name":"Leaf_221",
			"rotation":[
				0.517393946647644,
				-0.11386750638484955,
				-0.011844197288155556,
				0.8480550646781921
			],
			"scale":[
				0.9355670809745789,
				0.9355670809745789,
				0.9355670809745789
			],
			"translation":[
				-0.08904975652694702,
				1.3943839073181152,
				-1.2075823545455933
			]
		},
		{
			"mesh":4,
			"name":"Leaf_222",
			"rotation":[
				0.762093722820282,
				0.33800581097602844,
				0.2991386353969574,
				0.46419966220855713
			],
			"scale":[
				0.8870579600334167,
				0.887057900428772,
				0.8870579600334167
			],
			"translation":[
				-0.6590754985809326,
				2.0302181243896484,
				-1.3359687328338623
			]
		},
		{
			"mesh":4,
			"name":"Leaf_223",
			"rotation":[
				0.6293816566467285,
				0.34143316745758057,
				0.571297824382782,
				0.4011496305465698
			],
			"scale":[
				1.1224433183670044,
				1.1224433183670044,
				1.1224431991577148
			],
			"translation":[
				-0.10029273480176926,
				2.039069890975952,
				-1.819119930267334
			]
		},
		{
			"mesh":4,
			"name":"Leaf_224",
			"rotation":[
				0.6883428692817688,
				0.24126315116882324,
				0.15147876739501953,
				0.6671060919761658
			],
			"scale":[
				0.9123829007148743,
				0.912382960319519,
				0.912382960319519
			],
			"translation":[
				-0.4526059925556183,
				1.454988956451416,
				-1.212402105331421
			]
		},
		{
			"mesh":4,
			"name":"Leaf_225",
			"rotation":[
				-0.7188437581062317,
				-0.5540925860404968,
				-0.3455243408679962,
				0.23844914138317108
			],
			"scale":[
				0.9697836637496948,
				0.9697834849357605,
				0.9697836637496948
			],
			"translation":[
				-1.3606767654418945,
				2.0968921184539795,
				-0.27830758690834045
			]
		},
		{
			"mesh":4,
			"name":"Leaf_226",
			"rotation":[
				-0.6672976016998291,
				-0.6454190015792847,
				-0.34954512119293213,
				0.12635846436023712
			],
			"scale":[
				0.8844192624092102,
				0.8844192624092102,
				0.8844192028045654
			],
			"translation":[
				-1.1539554595947266,
				1.898256778717041,
				-0.49553030729293823
			]
		}
	],
	"materials":[
		{
			"doubleSided":true,
			"extensions":{
				"KHR_materials_specular":{
					"specularFactor":0.6000000238418579
				}
			},
			"name":"PotMat",
			"pbrMetallicRoughness":{
				"baseColorTexture":{
					"index":0
				},
				"metallicFactor":0,
				"roughnessFactor":0.8500000238418579
			}
		},
		{
			"doubleSided":true,
			"extensions":{
				"KHR_materials_specular":{
					"specularFactor":0.6000000238418579
				}
			},
			"name":"SoilMat",
			"pbrMetallicRoughness":{
				"baseColorTexture":{
					"index":1
				},
				"metallicFactor":0,
				"roughnessFactor":0.8500000238418579
			}
		},
		{
			"doubleSided":true,
			"extensions":{
				"KHR_materials_specular":{
					"specularFactor":0.6000000238418579
				}
			},
			"name":"TrunkMat",
			"pbrMetallicRoughness":{
				"baseColorTexture":{
					"index":2
				},
				"metallicFactor":0,
				"roughnessFactor":0.8500000238418579
			}
		},
		{
			"alphaMode":"BLEND",
			"doubleSided":true,
			"extensions":{
				"KHR_materials_specular":{
					"specularFactor":0.6000000238418579
				}
			},
			"name":"LeafMat",
			"pbrMetallicRoughness":{
				"baseColorTexture":{
					"index":3
				},
				"metallicFactor":0,
				"roughnessFactor":0.8500000238418579
			}
		}
	],
	"meshes":[
		{
			"name":"Pot.001",
			"primitives":[
				{
					"attributes":{
						"POSITION":0,
						"NORMAL":1,
						"TEXCOORD_0":2
					},
					"indices":3,
					"material":0
				}
			]
		},
		{
			"name":"Soil.001",
			"primitives":[
				{
					"attributes":{
						"POSITION":4,
						"NORMAL":5,
						"TEXCOORD_0":6
					},
					"indices":7,
					"material":1
				}
			]
		},
		{
			"name":"Trunk_Main.001",
			"primitives":[
				{
					"attributes":{
						"POSITION":8,
						"NORMAL":9,
						"TEXCOORD_0":10
					},
					"indices":11,
					"material":2
				}
			]
		},
		{
			"name":"Branch_00",
			"primitives":[
				{
					"attributes":{
						"POSITION":12,
						"NORMAL":13,
						"TEXCOORD_0":14
					},
					"indices":15,
					"material":2
				}
			]
		},
		{
			"name":"Leaf_000",
			"primitives":[
				{
					"attributes":{
						"POSITION":16,
						"NORMAL":17,
						"TEXCOORD_0":18
					},
					"indices":19,
					"material":3
				}
			]
		}
	],
	"textures":[
		{
			"sampler":0,
			"source":0
		},
		{
			"sampler":0,
			"source":1
		},
		{
			"sampler":0,
			"source":2
		},
		{
			"sampler":1,
			"source":3
		}
	],
	"images":[
		{
			"mimeType":"image/png",
			"name":"PotTex",
			"uri":"jade/PotTex.png"
		},
		{
			"mimeType":"image/png",
			"name":"SoilTex",
			"uri":"jade/SoilTex.png"
		},
		{
			"mimeType":"image/png",
			"name":"TrunkTex",
			"uri":"jade/TrunkTex.png"
		},
		{
			"mimeType":"image/png",
			"name":"LeafTex",
			"uri":"jade/LeafTex.png"
		}
	],
	"accessors":[
		{
			"bufferView":0,
			"componentType":5126,
			"count":396,
			"max":[
				0.7400000095367432,
				1.100000023841858,
				0.7400000095367432
			],
			"min":[
				-0.7400000095367432,
				0,
				-0.7400000095367432
			],
			"type":"VEC3"
		},
		{
			"bufferView":1,
			"componentType":5126,
			"count":396,
			"type":"VEC3"
		},
		{
			"bufferView":2,
			"componentType":5126,
			"count":396,
			"type":"VEC2"
		},
		{
			"bufferView":3,
			"componentType":5123,
			"count":564,
			"type":"SCALAR"
		},
		{
			"bufferView":4,
			"componentType":5126,
			"count":62,
			"max":[
				0.5728050470352173,
				1.0600000619888306,
				0.5728050470352173
			],
			"min":[
				-0.5728050470352173,
				1.040000081062317,
				-0.5728050470352173
			],
			"type":"VEC3"
		},
		{
			"bufferView":5,
			"componentType":5126,
			"count":62,
			"type":"VEC3"
		},
		{
			"bufferView":6,
			"componentType":5126,
			"count":62,
			"type":"VEC2"
		},
		{
			"bufferView":7,
			"componentType":5123,
			"count":72,
			"type":"SCALAR"
		},
		{
			"bufferView":8,
			"componentType":5126,
			"count":154,
			"max":[
				0.12079572677612305,
				1.9593521356582642,
				0.12938572466373444
			],
			"min":[
				-0.1120557188987732,
				1.0328593254089355,
				-0.13658785820007324
			],
			"type":"VEC3"
		},
		{
			"bufferView":9,
			"componentType":5126,
			"count":154,
			"type":"VEC3"
		},
		{
			"bufferView":10,
			"componentType":5126,
			"count":154,
			"type":"VEC2"
		},
		{
			"bufferView":11,
			"componentType":5123,
			"count":192,
			"type":"SCALAR"
		},
		{
			"bufferView":12,
			"componentType":5126,
			"count":90,
			"max":[
				0.7273368835449219,
				1.9844160079956055,
				0.061725448817014694
			],
			"min":[
				0.03390444815158844,
				1.4862003326416016,
				-0.032352473586797714
			],
			"type":"VEC3"
		},
		{
			"bufferView":13,
			"componentType":5126,
			"count":90,
			"type":"VEC3"
		},
		{
			"bufferView":14,
			"componentType":5126,
			"count":90,
			"type":"VEC2"
		},
		{
			"bufferView":15,
			"componentType":5123,
			"count":138,
			"type":"SCALAR"
		},
		{
			"bufferView":16,
			"componentType":5126,
			"count":4,
			"max":[
				1.0030250549316406,
				2.012490749359131,
				0.07925800234079361
			],
			"min":[
				0.7287168502807617,
				1.719702959060669,
				-0.04576237499713898
			],
			"type":"VEC3"
		},
		{
			"bufferView":17,
			"componentType":5126,
			"count":4,
			"type":"VEC3"
		},
		{
			"bufferView":18,
			"componentType":5126,
			"count":4,
			"type":"VEC2"
		},
		{
			"bufferView":19,
			"componentType":5123,
			"count":6,
			"type":"SCALAR"
		}
	],
	"bufferViews":[
		{
			"buffer":0,
			"byteLength":4752,
			"byteOffset":0,
			"target":34962
		},
		{
			"buffer":0,
			"byteLength":4752,
			"byteOffset":4752,
			"target":34962
		},
		{
			"buffer":0,
			"byteLength":3168,
			"byteOffset":9504,
			"target":34962
		},
		{
			"buffer":0,
			"byteLength":1128,
			"byteOffset":12672,
			"target":34963
		},
		{
			"buffer":0,
			"byteLength":744,
			"byteOffset":13800,
			"target":34962
		},
		{
			"buffer":0,
			"byteLength":744,
			"byteOffset":14544,
			"target":34962
		},
		{
			"buffer":0,
			"byteLength":496,
			"byteOffset":15288,
			"target":34962
		},
		{
			"buffer":0,
			"byteLength":144,
			"byteOffset":15784,
			"target":34963
		},
		{
			"buffer":0,
			"byteLength":1848,
			"byteOffset":15928,
			"target":34962
		},
		{
			"buffer":0,
			"byteLength":1848,
			"byteOffset":17776,
			"target":34962
		},
		{
			"buffer":0,
			"byteLength":1232,
			"byteOffset":19624,
			"target":34962
		},
		{
			"buffer":0,
			"byteLength":384,
			"byteOffset":20856,
			"target":34963
		},
		{
			"buffer":0,
			"byteLength":1080,
			"byteOffset":21240,
			"target":34962
		},
		{
			"buffer":0,
			"byteLength":1080,
			"byteOffset":22320,
			"target":34962
		},
		{
			"buffer":0,
			"byteLength":720,
			"byteOffset":23400,
			"target":34962
		},
		{
			"buffer":0,
			"byteLength":276,
			"byteOffset":24120,
			"target":34963
		},
		{
			"buffer":0,
			"byteLength":48,
			"byteOffset":24396,
			"target":34962
		},
		{
			"buffer":0,
			"byteLength":48,
			"byteOffset":24444,
			"target":34962
		},
		{
			"buffer":0,
			"byteLength":32,
			"byteOffset":24492,
			"target":34962
		},
		{
			"buffer":0,
			"byteLength":12,
			"byteOffset":24524,
			"target":34963
		}
	],
	"samplers":[
		{
			"magFilter":9728,
			"minFilter":9984
		},
		{
			"magFilter":9728,
			"minFilter":9984,
			"wrapS":33071,
			"wrapT":33071
		}
	],
	"buffers":[
		{
			"byteLength":24536,
			"uri":"plant_jade.bin"
		}
	]
}
