# Blender 5.1.1
# www.blender.org
mtllib pothos.mtl
o Pot
v 0.500000 0.000000 0.000000
v 0.353553 0.000000 -0.353553
v 0.000000 0.000000 -0.500000
v -0.353553 0.000000 -0.353553
v -0.500000 0.000000 -0.000000
v -0.353553 0.000000 0.353553
v -0.000000 0.000000 0.500000
v 0.353553 0.000000 0.353553
v 0.580000 0.100000 0.000000
v 0.410122 0.100000 -0.410122
v 0.000000 0.100000 -0.580000
v -0.410122 0.100000 -0.410122
v -0.580000 0.100000 -0.000000
v -0.410122 0.100000 0.410122
v -0.000000 0.100000 0.580000
v 0.410122 0.100000 0.410122
v 0.650000 0.400000 0.000000
v 0.459619 0.400000 -0.459619
v 0.000000 0.400000 -0.650000
v -0.459619 0.400000 -0.459619
v -0.650000 0.400000 -0.000000
v -0.459619 0.400000 0.459619
v -0.000000 0.400000 0.650000
v 0.459619 0.400000 0.459619
v 0.720000 0.800000 0.000000
v 0.509117 0.800000 -0.509117
v 0.000000 0.800000 -0.720000
v -0.509117 0.800000 -0.509117
v -0.720000 0.800000 -0.000000
v -0.509117 0.800000 0.509117
v -0.000000 0.800000 0.720000
v 0.509117 0.800000 0.509117
v 0.760000 1.200000 0.000000
v 0.537401 1.200000 -0.537401
v 0.000000 1.200000 -0.760000
v -0.537401 1.200000 -0.537401
v -0.760000 1.200000 -0.000000
v -0.537401 1.200000 0.537401
v -0.000000 1.200000 0.760000
v 0.537401 1.200000 0.537401
v 0.780000 1.450000 0.000000
v 0.551543 1.450000 -0.551543
v 0.000000 1.450000 -0.780000
v -0.551543 1.450000 -0.551543
v -0.780000 1.450000 -0.000000
v -0.551543 1.450000 0.551543
v -0.000000 1.450000 0.780000
v 0.551543 1.450000 0.551543
v 0.760000 1.550000 0.000000
v 0.537401 1.550000 -0.537401
v 0.000000 1.550000 -0.760000
v -0.537401 1.550000 -0.537401
v -0.760000 1.550000 -0.000000
v -0.537401 1.550000 0.537401
v -0.000000 1.550000 0.760000
v 0.537401 1.550000 0.537401
v 0.700000 1.550000 0.000000
v 0.494975 1.550000 -0.494975
v 0.000000 1.550000 -0.700000
v -0.494975 1.550000 -0.494975
v -0.700000 1.550000 -0.000000
v -0.494975 1.550000 0.494975
v -0.000000 1.550000 0.700000
v 0.494975 1.550000 0.494975
v 0.660000 1.500000 0.000000
v 0.466690 1.500000 -0.466690
v 0.000000 1.500000 -0.660000
v -0.466690 1.500000 -0.466690
v -0.660000 1.500000 -0.000000
v -0.466690 1.500000 0.466690
v -0.000000 1.500000 0.660000
v 0.466690 1.500000 0.466690
v 0.580000 1.100000 0.000000
v 0.410122 1.100000 -0.410122
v 0.000000 1.100000 -0.580000
v -0.410122 1.100000 -0.410122
v -0.580000 1.100000 -0.000000
v -0.410122 1.100000 0.410122
v -0.000000 1.100000 0.580000
v 0.410122 1.100000 0.410122
v 0.460000 0.500000 0.000000
v 0.325269 0.500000 -0.325269
v 0.000000 0.500000 -0.460000
v -0.325269 0.500000 -0.325269
v -0.460000 0.500000 -0.000000
v -0.325269 0.500000 0.325269
v -0.000000 0.500000 0.460000
v 0.325269 0.500000 0.325269
v 0.400000 0.200000 0.000000
v 0.282843 0.200000 -0.282843
v 0.000000 0.200000 -0.400000
v -0.282843 0.200000 -0.282843
v -0.400000 0.200000 -0.000000
v -0.282843 0.200000 0.282843
v -0.000000 0.200000 0.400000
v 0.282843 0.200000 0.282843
v 0.400000 0.100000 0.000000
v 0.282843 0.100000 -0.282843
v 0.000000 0.100000 -0.400000
v -0.282843 0.100000 -0.282843
v -0.400000 0.100000 -0.000000
v -0.282843 0.100000 0.282843
v -0.000000 0.100000 0.400000
v 0.282843 0.100000 0.282843
vn 0.7430 -0.5944 -0.3077
vn 0.3077 -0.5944 -0.7430
vn -0.3077 -0.5944 -0.7430
vn -0.7430 -0.5944 -0.3077
vn -0.7430 -0.5944 0.3077
vn -0.3077 -0.5944 0.7430
vn 0.3077 -0.5944 0.7430
vn 0.7430 -0.5944 0.3077
vn 0.9031 -0.2107 -0.3741
vn 0.3741 -0.2107 -0.9031
vn -0.3741 -0.2107 -0.9031
vn -0.9031 -0.2107 -0.3741
vn -0.9031 -0.2107 0.3741
vn -0.3741 -0.2107 0.9031
vn 0.3741 -0.2107 0.9031
vn 0.9031 -0.2107 0.3741
vn 0.9120 -0.1596 -0.3778
vn 0.3778 -0.1596 -0.9120
vn -0.3778 -0.1596 -0.9120
vn -0.9120 -0.1596 -0.3778
vn -0.9120 -0.1596 0.3778
vn -0.3778 -0.1596 0.9120
vn 0.3778 -0.1596 0.9120
vn 0.9120 -0.1596 0.3778
vn 0.9200 -0.0920 -0.3811
vn 0.3811 -0.0920 -0.9200
vn -0.3811 -0.0920 -0.9200
vn -0.9200 -0.0920 -0.3811
vn -0.9200 -0.0920 0.3811
vn -0.3811 -0.0920 0.9200
vn 0.3811 -0.0920 0.9200
vn 0.9200 -0.0920 0.3811
vn 0.9214 -0.0737 -0.3816
vn 0.3816 -0.0737 -0.9214
vn -0.3816 -0.0737 -0.9214
vn -0.9214 -0.0737 -0.3816
vn -0.9214 -0.0737 0.3816
vn -0.3816 -0.0737 0.9214
vn 0.3816 -0.0737 0.9214
vn 0.9214 -0.0737 0.3816
vn 0.9085 0.1817 -0.3763
vn 0.3763 0.1817 -0.9085
vn -0.3763 0.1817 -0.9085
vn -0.9085 0.1817 -0.3763
vn -0.9085 0.1817 0.3763
vn -0.3763 0.1817 0.9085
vn 0.3763 0.1817 0.9085
vn 0.9085 0.1817 0.3763
vn -0.0000 -1.0000 -0.0000
vn -0.0000 1.0000 -0.0000
vn -0.7430 0.5944 0.3077
vn -0.3077 0.5944 0.7430
vn 0.3077 0.5944 0.7430
vn 0.7430 0.5944 0.3077
vn 0.7430 0.5944 -0.3077
vn 0.3077 0.5944 -0.7430
vn -0.3077 0.5944 -0.7430
vn -0.7430 0.5944 -0.3077
vn -0.9239 -0.0000 0.3827
vn -0.3827 -0.0000 0.9239
vn 0.3827 -0.0000 0.9239
vn 0.9239 -0.0000 0.3827
vn 0.9239 -0.0000 -0.3827
vn 0.3827 -0.0000 -0.9239
vn -0.3827 -0.0000 -0.9239
vn -0.9239 -0.0000 -0.3827
vt 0.000000 0.000000
vt 0.707107 0.000000
vt 0.820244 0.200000
vt 0.000000 0.200000
vt 0.000000 0.000000
vt 0.000000 0.200000
vt -0.707107 0.000000
vt -0.820244 0.200000
vt 0.000000 0.000000
vt 0.000000 0.200000
vt -0.000000 0.000000
vt -0.000000 0.200000
vt 0.919239 0.800000
vt 0.000000 0.800000
vt 0.000000 0.800000
vt -0.919239 0.800000
vt 0.000000 0.800000
vt -0.000000 0.800000
vt 1.018234 1.600000
vt 0.000000 1.600000
vt 0.000000 1.600000
vt -1.018234 1.600000
vt 0.000000 1.600000
vt -0.000000 1.600000
vt 1.074802 2.400000
vt 0.000000 2.400000
vt 0.000000 2.400000
vt -1.074802 2.400000
vt 0.000000 2.400000
vt -0.000000 2.400000
vt 1.103087 2.900000
vt 0.000000 2.900000
vt 0.000000 2.900000
vt -1.103087 2.900000
vt 0.000000 2.900000
vt -0.000000 2.900000
vt 1.074802 3.100000
vt 0.000000 3.100000
vt 0.000000 3.100000
vt -1.074802 3.100000
vt 0.000000 3.100000
vt -0.000000 3.100000
vt 0.707107 -0.707107
vt -0.000000 -1.000000
vt -0.707107 -0.707107
vt -1.000000 0.000000
vt -0.707107 0.707107
vt 0.000000 1.000000
vt 0.707107 0.707107
vt 1.000000 0.000000
vt 1.520000 0.000000
vt 1.074802 1.074802
vt 0.989949 0.989949
vt 1.400000 0.000000
vt 0.000000 1.520000
vt 0.000000 1.400000
vt -1.074802 1.074802
vt -0.989949 0.989949
vt -1.520000 0.000000
vt -1.400000 0.000000
vt -1.074802 -1.074802
vt -0.989949 -0.989949
vt -0.000000 -1.520000
vt -0.000000 -1.400000
vt 1.074802 -1.074802
vt 0.989949 -0.989949
vt 0.989949 3.100000
vt 0.933381 3.000000
vt 0.000000 3.000000
vt 0.000000 3.100000
vt 0.000000 3.000000
vt -0.989949 3.100000
vt -0.933381 3.000000
vt 0.000000 3.100000
vt 0.000000 3.000000
vt -0.000000 3.100000
vt -0.000000 3.000000
vt 0.820244 2.200000
vt 0.000000 2.200000
vt 0.000000 2.200000
vt -0.820244 2.200000
vt 0.000000 2.200000
vt -0.000000 2.200000
vt 0.650538 1.000000
vt 0.000000 1.000000
vt 0.000000 1.000000
vt -0.650538 1.000000
vt 0.000000 1.000000
vt -0.000000 1.000000
vt 0.565685 0.400000
vt 0.000000 0.400000
vt 0.000000 0.400000
vt -0.565685 0.400000
vt 0.000000 0.400000
vt -0.000000 0.400000
vt 0.565685 0.200000
vt 0.000000 0.200000
vt -0.565685 0.200000
vt 0.000000 0.200000
vt -0.000000 0.200000
vt 0.800000 0.000000
vt 0.565685 0.565685
vt 0.000000 0.800000
vt -0.565685 0.565685
vt -0.800000 0.000000
vt -0.565685 -0.565685
vt -0.000000 -0.800000
vt 0.565685 -0.565685
s 0
usemtl PotMat
f 1/1/1 2/2/1 10/3/1 9/4/1
f 2/2/2 3/5/2 11/6/2 10/3/2
f 3/5/3 4/7/3 12/8/3 11/6/3
f 4/2/4 5/9/4 13/10/4 12/3/4
f 5/9/5 6/7/5 14/8/5 13/10/5
f 6/7/6 7/11/6 15/12/6 14/8/6
f 7/11/7 8/2/7 16/3/7 15/12/7
f 8/7/8 1/1/8 9/4/8 16/8/8
f 9/4/9 10/3/9 18/13/9 17/14/9
f 10/3/10 11/6/10 19/15/10 18/13/10
f 11/6/11 12/8/11 20/16/11 19/15/11
f 12/3/12 13/10/12 21/17/12 20/13/12
f 13/10/13 14/8/13 22/16/13 21/17/13
f 14/8/14 15/12/14 23/18/14 22/16/14
f 15/12/15 16/3/15 24/13/15 23/18/15
f 16/8/16 9/4/16 17/14/16 24/16/16
f 17/14/17 18/13/17 26/19/17 25/20/17
f 18/13/18 19/15/18 27/21/18 26/19/18
f 19/15/19 20/16/19 28/22/19 27/21/19
f 20/13/20 21/17/20 29/23/20 28/19/20
f 21/17/21 22/16/21 30/22/21 29/23/21
f 22/16/22 23/18/22 31/24/22 30/22/22
f 23/18/23 24/13/23 32/19/23 31/24/23
f 24/16/24 17/14/24 25/20/24 32/22/24
f 25/20/25 26/19/25 34/25/25 33/26/25
f 26/19/26 27/21/26 35/27/26 34/25/26
f 27/21/27 28/22/27 36/28/27 35/27/27
f 28/19/28 29/23/28 37/29/28 36/25/28
f 29/23/29 30/22/29 38/28/29 37/29/29
f 30/22/30 31/24/30 39/30/30 38/28/30
f 31/24/31 32/19/31 40/25/31 39/30/31
f 32/22/32 25/20/32 33/26/32 40/28/32
f 33/26/33 34/25/33 42/31/33 41/32/33
f 34/25/34 35/27/34 43/33/34 42/31/34
f 35/27/35 36/28/35 44/34/35 43/33/35
f 36/25/36 37/29/36 45/35/36 44/31/36
f 37/29/37 38/28/37 46/34/37 45/35/37
f 38/28/38 39/30/38 47/36/38 46/34/38
f 39/30/39 40/25/39 48/31/39 47/36/39
f 40/28/40 33/26/40 41/32/40 48/34/40
f 41/32/41 42/31/41 50/37/41 49/38/41
f 42/31/42 43/33/42 51/39/42 50/37/42
f 43/33/43 44/34/43 52/40/43 51/39/43
f 44/31/44 45/35/44 53/41/44 52/37/44
f 45/35/45 46/34/45 54/40/45 53/41/45
f 46/34/46 47/36/46 55/42/46 54/40/46
f 47/36/47 48/31/47 56/37/47 55/42/47
f 48/34/48 41/32/48 49/38/48 56/40/48
f 8/43/49 7/44/49 6/45/49 5/46/49 4/47/49 3/48/49 2/49/49 1/50/49
f 49/51/50 50/52/50 58/53/50 57/54/50
f 50/52/50 51/55/50 59/56/50 58/53/50
f 51/55/50 52/57/50 60/58/50 59/56/50
f 52/57/50 53/59/50 61/60/50 60/58/50
f 53/59/50 54/61/50 62/62/50 61/60/50
f 54/61/50 55/63/50 63/64/50 62/62/50
f 55/63/50 56/65/50 64/66/50 63/64/50
f 56/65/50 49/51/50 57/54/50 64/66/50
f 58/67/51 66/68/51 65/69/51 57/38/51
f 59/70/52 67/71/52 66/68/52 58/67/52
f 60/72/53 68/73/53 67/71/53 59/70/53
f 61/74/54 69/75/54 68/68/54 60/67/54
f 62/72/55 70/73/55 69/75/55 61/74/55
f 63/76/56 71/77/56 70/73/56 62/72/56
f 64/67/57 72/68/57 71/77/57 63/76/57
f 57/38/58 65/69/58 72/73/58 64/72/58
f 66/68/45 74/78/45 73/79/45 65/69/45
f 67/71/46 75/80/46 74/78/46 66/68/46
f 68/73/47 76/81/47 75/80/47 67/71/47
f 69/75/48 77/82/48 76/78/48 68/68/48
f 70/73/41 78/81/41 77/82/41 69/75/41
f 71/77/42 79/83/42 78/81/42 70/73/42
f 72/68/43 80/78/43 79/83/43 71/77/43
f 65/69/44 73/79/44 80/81/44 72/73/44
f 74/78/45 82/84/45 81/85/45 73/79/45
f 75/80/46 83/86/46 82/84/46 74/78/46
f 76/81/47 84/87/47 83/86/47 75/80/47
f 77/82/48 85/88/48 84/84/48 76/78/48
f 78/81/41 86/87/41 85/88/41 77/82/41
f 79/83/42 87/89/42 86/87/42 78/81/42
f 80/78/43 88/84/43 87/89/43 79/83/43
f 73/79/44 81/85/44 88/87/44 80/81/44
f 82/84/45 90/90/45 89/91/45 81/85/45
f 83/86/46 91/92/46 90/90/46 82/84/46
f 84/87/47 92/93/47 91/92/47 83/86/47
f 85/88/48 93/94/48 92/90/48 84/84/48
f 86/87/41 94/93/41 93/94/41 85/88/41
f 87/89/42 95/95/42 94/93/42 86/87/42
f 88/84/43 96/90/43 95/95/43 87/89/43
f 81/85/44 89/91/44 96/93/44 88/87/44
f 90/90/59 98/96/59 97/4/59 89/91/59
f 91/92/60 99/97/60 98/96/60 90/90/60
f 92/93/61 100/98/61 99/97/61 91/92/61
f 93/94/62 101/99/62 100/96/62 92/90/62
f 94/93/63 102/98/63 101/99/63 93/94/63
f 95/95/64 103/100/64 102/98/64 94/93/64
f 96/90/65 104/96/65 103/100/65 95/95/65
f 89/91/66 97/4/66 104/98/66 96/93/66
f 97/101/50 98/102/50 99/103/50 100/104/50 101/105/50 102/106/50 103/107/50 104/108/50
o Soil
v 0.000000 1.490000 0.000000
v 0.360000 1.485000 0.000000
v 0.254558 1.475000 -0.254558
v 0.000000 1.485000 -0.360000
v -0.254558 1.475000 -0.254558
v -0.360000 1.485000 -0.000000
v -0.254558 1.475000 0.254558
v -0.000000 1.485000 0.360000
v 0.254558 1.475000 0.254558
v 0.609760 1.470000 -0.252571
v 0.252571 1.470000 -0.609760
v -0.252571 1.470000 -0.609760
v -0.609760 1.470000 -0.252571
v -0.609760 1.470000 0.252571
v -0.252571 1.470000 0.609760
v 0.252571 1.470000 0.609760
v 0.609760 1.470000 0.252571
vn 0.0139 0.9989 -0.0450
vn 0.0450 0.9989 -0.0139
vn -0.0450 0.9989 -0.0139
vn -0.0139 0.9989 -0.0450
vn -0.0139 0.9989 0.0450
vn -0.0450 0.9989 0.0139
vn 0.0450 0.9989 0.0139
vn 0.0139 0.9989 0.0450
vn 0.0142 0.9995 -0.0271
vn 0.0188 0.9990 -0.0410
vn -0.0271 0.9995 -0.0142
vn -0.0410 0.9990 -0.0188
vn -0.0142 0.9995 0.0271
vn -0.0188 0.9990 0.0410
vn 0.0271 0.9995 0.0142
vn 0.0410 0.9990 0.0188
vt 0.000000 0.000000
vt 1.080000 0.000000
vt 0.763675 0.763675
vt 0.000000 1.080000
vt -0.763675 0.763675
vt -1.080000 0.000000
vt -0.763675 -0.763675
vt -0.000000 -1.080000
vt 0.763675 -0.763675
vt 1.829281 0.757713
vt 0.757713 1.829281
vt -0.757713 1.829281
vt -1.829281 0.757713
vt -1.829281 -0.757713
vt -0.757713 -1.829281
vt 0.757713 -1.829281
vt 1.829281 -0.757713
s 0
usemtl SoilMat
f 105/109/67 106/110/67 107/111/67
f 105/109/68 107/111/68 108/112/68
f 105/109/69 108/112/69 109/113/69
f 105/109/70 109/113/70 110/114/70
f 105/109/71 110/114/71 111/115/71
f 105/109/72 111/115/72 112/116/72
f 105/109/73 112/116/73 113/117/73
f 105/109/74 113/117/74 106/110/74
f 106/110/75 114/118/75 115/119/75 107/111/75
f 107/111/76 115/119/76 116/120/76 108/112/76
f 108/112/77 116/120/77 117/121/77 109/113/77
f 109/113/78 117/121/78 118/122/78 110/114/78
f 110/114/79 118/122/79 119/123/79 111/115/79
f 111/115/80 119/123/80 120/124/80 112/116/80
f 112/116/81 120/124/81 121/125/81 113/117/81
f 113/117/82 121/125/82 114/118/82 106/110/82
o Saucer
v 0.820000 -0.060000 0.000000
v 0.579828 -0.060000 -0.579828
v 0.000000 -0.060000 -0.820000
v -0.579828 -0.060000 -0.579828
v -0.820000 -0.060000 -0.000000
v -0.579828 -0.060000 0.579828
v -0.000000 -0.060000 0.820000
v 0.579828 -0.060000 0.579828
v 0.860000 -0.020000 0.000000
v 0.608112 -0.020000 -0.608112
v 0.000000 -0.020000 -0.860000
v -0.608112 -0.020000 -0.608112
v -0.860000 -0.020000 -0.000000
v -0.608112 -0.020000 0.608112
v -0.000000 -0.020000 0.860000
v 0.608112 -0.020000 0.608112
v 0.820000 0.040000 0.000000
v 0.579828 0.040000 -0.579828
v 0.000000 0.040000 -0.820000
v -0.579828 0.040000 -0.579828
v -0.820000 0.040000 -0.000000
v -0.579828 0.040000 0.579828
v -0.000000 0.040000 0.820000
v 0.579828 0.040000 0.579828
vn 0.6786 -0.6786 -0.2811
vn 0.2811 -0.6786 -0.6786
vn -0.2811 -0.6786 -0.6786
vn -0.6786 -0.6786 -0.2811
vn -0.6786 -0.6786 0.2811
vn -0.2811 -0.6786 0.6786
vn 0.2811 -0.6786 0.6786
vn 0.6786 -0.6786 0.2811
vn 0.7866 0.5244 -0.3258
vn 0.3258 0.5244 -0.7866
vn -0.3258 0.5244 -0.7866
vn -0.7866 0.5244 -0.3258
vn -0.7866 0.5244 0.3258
vn -0.3258 0.5244 0.7866
vn 0.3258 0.5244 0.7866
vn 0.7866 0.5244 0.3258
vn -0.0000 -1.0000 -0.0000
vn -0.0000 1.0000 -0.0000
vt 2.460000 0.000000
vt 1.739483 1.739483
vt 1.824336 1.824336
vt 2.580000 0.000000
vt 0.000000 2.460000
vt 0.000000 2.580000
vt -1.739483 1.739483
vt -1.824336 1.824336
vt -2.460000 0.000000
vt -2.580000 0.000000
vt -1.739483 -1.739483
vt -1.824336 -1.824336
vt -0.000000 -2.460000
vt -0.000000 -2.580000
vt 1.739483 -1.739483
vt 1.824336 -1.824336
vt 0.000000 -0.060000
vt 1.824336 -0.060000
vt 1.739483 0.120000
vt 0.000000 0.120000
vt 0.000000 -0.060000
vt 0.000000 0.120000
vt -1.824336 -0.060000
vt -1.739483 0.120000
vt 0.000000 -0.060000
vt 0.000000 0.120000
vt -0.000000 -0.060000
vt -0.000000 0.120000
s 0
usemtl SaucerMat
f 122/126/83 123/127/83 131/128/83 130/129/83
f 123/127/84 124/130/84 132/131/84 131/128/84
f 124/130/85 125/132/85 133/133/85 132/131/85
f 125/132/86 126/134/86 134/135/86 133/133/86
f 126/134/87 127/136/87 135/137/87 134/135/87
f 127/136/88 128/138/88 136/139/88 135/137/88
f 128/138/89 129/140/89 137/141/89 136/139/89
f 129/140/90 122/126/90 130/129/90 137/141/90
f 130/142/91 131/143/91 139/144/91 138/145/91
f 131/143/92 132/146/92 140/147/92 139/144/92
f 132/146/93 133/148/93 141/149/93 140/147/93
f 133/143/94 134/150/94 142/151/94 141/144/94
f 134/150/95 135/148/95 143/149/95 142/151/95
f 135/148/96 136/152/96 144/153/96 143/149/96
f 136/152/97 137/143/97 145/144/97 144/153/97
f 137/148/98 130/142/98 138/145/98 145/149/98
f 129/140/99 128/138/99 127/136/99 126/134/99 125/132/99 124/130/99 123/127/99 122/126/99
f 138/126/100 139/127/100 140/130/100 141/132/100 142/134/100 143/136/100 144/138/100 145/140/100
o Vine_000
v 0.084984 1.510825 -0.091655
v -0.000122 1.520860 0.005533
v 0.114897 1.590976 -0.124577
v -0.019071 1.624785 0.029051
v 0.149954 1.640091 -0.162202
v -0.022423 1.736691 0.039480
v 0.185012 1.663653 -0.199968
v -0.006813 1.850517 0.033783
v 0.215312 1.665977 -0.233699
v 0.030738 1.961375 0.009311
v 0.238663 1.654364 -0.261324
v 0.090640 2.061385 -0.034480
v 0.256312 1.636307 -0.283645
v 0.169868 2.142479 -0.095264
v 0.271798 1.616723 -0.303428
v 0.263103 2.199165 -0.168750
v 0.288961 1.597226 -0.323754
v 0.364726 2.229250 -0.250329
v 0.310677 1.577120 -0.346952
v 0.470080 2.232857 -0.336146
v 0.338634 1.554637 -0.374385
v 0.575699 2.211174 -0.423314
v 0.373591 1.527712 -0.406654
v 0.679043 2.165694 -0.509706
v 0.415702 1.494284 -0.443864
v 0.778180 2.097898 -0.593690
v 0.464735 1.452377 -0.485810
v 0.871561 2.009189 -0.673946
v 0.520187 1.400082 -0.532070
v 0.957911 1.900895 -0.749368
v 0.581334 1.335558 -0.582055
v 1.036174 1.774287 -0.819023
v 0.647249 1.257026 -0.635017
v 1.105495 1.630565 -0.882131
v 0.716817 1.162794 -0.690064
v 1.165212 1.470842 -0.938057
v 0.788739 1.051297 -0.746165
v 1.214845 1.296111 -0.986308
v 0.861550 0.921125 -0.802164
v 1.254078 1.107203 -1.026514
v 0.933648 0.771063 -0.856801
v 1.282734 0.904759 -1.058408
v 1.003318 0.600112 -0.908735
v 1.300747 0.689200 -1.081806
v 1.068775 0.407504 -0.956573
v 1.308125 0.460719 -1.096576
v 1.128194 0.192699 -0.998897
v 1.304912 0.219278 -1.102608
v 1.179870 -0.046433 -1.034384
v 1.291033 -0.033567 -1.099702
vn -0.7521 0.0111 -0.6589
vn -0.7503 0.0362 -0.6602
vn -0.7445 0.0643 -0.6646
vn -0.7334 0.0933 -0.6734
vn -0.7168 0.1201 -0.6869
vn -0.6960 0.1414 -0.7040
vn -0.6732 0.1557 -0.7229
vn -0.6507 0.1630 -0.7416
vn -0.6298 0.1647 -0.7591
vn -0.6111 0.1621 -0.7748
vn -0.5946 0.1566 -0.7886
vn -0.5802 0.1490 -0.8007
vn -0.5677 0.1401 -0.8113
vn -0.5567 0.1301 -0.8204
vn -0.5473 0.1194 -0.8284
vn -0.5391 0.1082 -0.8353
vn -0.5321 0.0967 -0.8412
vn -0.5261 0.0851 -0.8462
vn -0.5211 0.0734 -0.8503
vn -0.5170 0.0618 -0.8537
vn -0.5137 0.0504 -0.8565
vn -0.5112 0.0392 -0.8586
vn -0.5093 0.0284 -0.8601
vn -0.5081 0.0180 -0.8611
vt 0.000000 0.000000
vt 1.000000 0.000000
vt 1.000000 0.041667
vt 0.000000 0.041667
vt 1.000000 0.083333
vt 0.000000 0.083333
vt 1.000000 0.125000
vt 0.000000 0.125000
vt 1.000000 0.166667
vt 0.000000 0.166667
vt 1.000000 0.208333
vt 0.000000 0.208333
vt 1.000000 0.250000
vt 0.000000 0.250000
vt 1.000000 0.291667
vt 0.000000 0.291667
vt 1.000000 0.333333
vt 0.000000 0.333333
vt 1.000000 0.375000
vt 0.000000 0.375000
vt 1.000000 0.416667
vt 0.000000 0.416667
vt 1.000000 0.458333
vt 0.000000 0.458333
vt 1.000000 0.500000
vt 0.000000 0.500000
vt 1.000000 0.541667
vt 0.000000 0.541667
vt 1.000000 0.583333
vt 0.000000 0.583333
vt 1.000000 0.625000
vt 0.000000 0.625000
vt 1.000000 0.666667
vt 0.000000 0.666667
vt 1.000000 0.708333
vt 0.000000 0.708333
vt 1.000000 0.750000
vt 0.000000 0.750000
vt 1.000000 0.791667
vt 0.000000 0.791667
vt 1.000000 0.833333
vt 0.000000 0.833333
vt 1.000000 0.875000
vt 0.000000 0.875000
vt 1.000000 0.916667
vt 0.000000 0.916667
vt 1.000000 0.958333
vt 0.000000 0.958333
vt 1.000000 1.000000
vt 0.000000 1.000000
s 0
usemtl VineMat
f 146/154/101 147/155/101 149/156/101 148/157/101
f 148/157/102 149/156/102 151/158/102 150/159/102
f 150/159/103 151/158/103 153/160/103 152/161/103
f 152/161/104 153/160/104 155/162/104 154/163/104
f 154/163/105 155/162/105 157/164/105 156/165/105
f 156/165/106 157/164/106 159/166/106 158/167/106
f 158/167/107 159/166/107 161/168/107 160/169/107
f 160/169/108 161/168/108 163/170/108 162/171/108
f 162/171/109 163/170/109 165/172/109 164/173/109
f 164/173/110 165/172/110 167/174/110 166/175/110
f 166/175/111 167/174/111 169/176/111 168/177/111
f 168/177/112 169/176/112 171/178/112 170/179/112
f 170/179/113 171/178/113 173/180/113 172/181/113
f 172/181/114 173/180/114 175/182/114 174/183/114
f 174/183/115 175/182/115 177/184/115 176/185/115
f 176/185/116 177/184/116 179/186/116 178/187/116
f 178/187/117 179/186/117 181/188/117 180/189/117
f 180/189/118 181/188/118 183/190/118 182/191/118
f 182/191/119 183/190/119 185/192/119 184/193/119
f 184/193/120 185/192/120 187/194/120 186/195/120
f 186/195/121 187/194/121 189/196/121 188/197/121
f 188/197/122 189/196/122 191/198/122 190/199/122
f 190/199/123 191/198/123 193/200/123 192/201/123
f 192/201/124 193/200/124 195/202/124 194/203/124
o Vine_001
v -0.126005 1.526068 0.024113
v 0.014437 1.538050 0.011190
v -0.173026 1.591417 0.028747
v 0.048033 1.632320 0.008662
v -0.223925 1.621237 0.033834
v 0.060118 1.738988 0.009664
v -0.270057 1.623463 0.038076
v 0.044235 1.850336 0.015151
v -0.305090 1.606112 0.040538
v -0.003757 1.958568 0.025715
v -0.328996 1.579856 0.041339
v -0.081694 2.053226 0.040896
v -0.347101 1.552630 0.041449
v -0.182063 2.126595 0.059380
v -0.365726 1.527509 0.041958
v -0.296350 2.175817 0.079733
v -0.389239 1.504291 0.043609
v -0.417999 2.201314 0.100870
v -0.419755 1.481623 0.046764
v -0.542704 2.204653 0.122087
v -0.457909 1.458109 0.051541
v -0.667640 2.187449 0.142922
v -0.503581 1.432602 0.057934
v -0.790738 2.151069 0.163039
v -0.556323 1.404164 0.065879
v -0.910254 2.096665 0.182159
v -0.615556 1.371961 0.075287
v -1.024577 2.025292 0.200028
v -0.680644 1.335158 0.086053
v -1.132155 1.938001 0.216408
v -0.750903 1.292852 0.098061
v -1.231481 1.835913 0.231073
v -0.825579 1.244030 0.111176
v -1.321118 1.720259 0.243814
v -0.903813 1.187546 0.125240
v -1.399735 1.592403 0.254447
v -0.984590 1.122135 0.140067
v -1.466158 1.453828 0.262816
v -1.066691 1.046442 0.155430
v -1.519415 1.306105 0.268803
v -1.148644 0.959080 0.171061
v -1.558788 1.150840 0.272335
v -1.228698 0.858715 0.186642
v -1.583839 0.989585 0.273387
v -1.304813 0.744156 0.201804
v -1.594416 0.823749 0.271984
v -1.374688 0.614464 0.216136
v -1.590632 0.654487 0.268196
v -1.436146 0.466166 0.229256
v -1.572472 0.485491 0.262059
vn -0.0917 0.0054 -0.9958
vn -0.0929 0.0180 -0.9955
vn -0.0969 0.0323 -0.9948
vn -0.1048 0.0466 -0.9934
vn -0.1161 0.0588 -0.9915
vn -0.1290 0.0673 -0.9894
vn -0.1419 0.0722 -0.9872
vn -0.1535 0.0742 -0.9854
vn -0.1637 0.0744 -0.9837
vn -0.1725 0.0732 -0.9823
vn -0.1802 0.0713 -0.9810
vn -0.1870 0.0688 -0.9799
vn -0.1931 0.0658 -0.9790
vn -0.1987 0.0625 -0.9781
vn -0.2038 0.0588 -0.9772
vn -0.2085 0.0548 -0.9765
vn -0.2129 0.0504 -0.9758
vn -0.2169 0.0457 -0.9751
vn -0.2206 0.0405 -0.9745
vn -0.2239 0.0351 -0.9740
vn -0.2268 0.0292 -0.9735
vn -0.2293 0.0231 -0.9731
vn -0.2312 0.0168 -0.9728
vn -0.2325 0.0103 -0.9725
vt 0.000000 0.000000
vt 0.000000 0.041667
vt 1.000000 0.041667
vt 1.000000 0.000000
vt 0.000000 0.083333
vt 1.000000 0.083333
vt 0.000000 0.125000
vt 1.000000 0.125000
vt 0.000000 0.166667
vt 1.000000 0.166667
vt 0.000000 0.208333
vt 1.000000 0.208333
vt 0.000000 0.250000
vt 1.000000 0.250000
vt 0.000000 0.291667
vt 1.000000 0.291667
vt 0.000000 0.333333
vt 1.000000 0.333333
vt 0.000000 0.375000
vt 1.000000 0.375000
vt 0.000000 0.416667
vt 1.000000 0.416667
vt 0.000000 0.458333
vt 1.000000 0.458333
vt 0.000000 0.500000
vt 1.000000 0.500000
vt 0.000000 0.541667
vt 1.000000 0.541667
vt 0.000000 0.583333
vt 1.000000 0.583333
vt 0.000000 0.625000
vt 1.000000 0.625000
vt 0.000000 0.666667
vt 1.000000 0.666667
vt 0.000000 0.708333
vt 1.000000 0.708333
vt 0.000000 0.750000
vt 1.000000 0.750000
vt 0.000000 0.791667
vt 1.000000 0.791667
vt 0.000000 0.833333
vt 1.000000 0.833333
vt 0.000000 0.875000
vt 1.000000 0.875000
vt 0.000000 0.916667
vt 1.000000 0.916667
vt 0.000000 0.958333
vt 1.000000 0.958333
vt 0.000000 1.000000
vt 1.000000 1.000000
s 0
usemtl VineMat
f 196/204/125 198/205/125 199/206/125 197/207/125
f 198/205/126 200/208/126 201/209/126 199/206/126
f 200/208/127 202/210/127 203/211/127 201/209/127
f 202/210/128 204/212/128 205/213/128 203/211/128
f 204/212/129 206/214/129 207/215/129 205/213/129
f 206/214/130 208/216/130 209/217/130 207/215/130
f 208/216/131 210/218/131 211/219/131 209/217/131
f 210/218/132 212/220/132 213/221/132 211/219/132
f 212/220/133 214/222/133 215/223/133 213/221/133
f 214/222/134 216/224/134 217/225/134 215/223/134
f 216/224/135 218/226/135 219/227/135 217/225/135
f 218/226/136 220/228/136 221/229/136 219/227/136
f 220/228/137 222/230/137 223/231/137 221/229/137
f 222/230/138 224/232/138 225/233/138 223/231/138
f 224/232/139 226/234/139 227/235/139 225/233/139
f 226/234/140 228/236/140 229/237/140 227/235/140
f 228/236/141 230/238/141 231/239/141 229/237/141
f 230/238/142 232/240/142 233/241/142 231/239/142
f 232/240/143 234/242/143 235/243/143 233/241/143
f 234/242/144 236/244/144 237/245/144 235/243/144
f 236/244/145 238/246/145 239/247/145 237/245/145
f 238/246/146 240/248/146 241/249/146 239/247/146
f 240/248/147 242/250/147 243/251/147 241/249/147
f 242/250/148 244/252/148 245/253/148 243/251/148
o Vine_002
v 0.027616 1.514491 -0.061920
v -0.026882 1.523924 0.042766
v 0.044528 1.589740 -0.099295
v -0.042439 1.621222 0.065298
v 0.062633 1.637403 -0.144008
v -0.056624 1.725631 0.067074
v 0.081027 1.664126 -0.190542
v -0.068751 1.830254 0.044971
v 0.099033 1.674797 -0.234981
v -0.078364 1.929960 -0.002539
v 0.116163 1.675262 -0.276584
v -0.085191 2.018652 -0.073804
v 0.132159 1.670124 -0.317130
v -0.089191 2.091483 -0.164655
v 0.146917 1.661846 -0.359200
v -0.090482 2.145743 -0.270118
v 0.160390 1.651167 -0.404907
v -0.089233 2.180443 -0.385692
v 0.172526 1.637890 -0.455512
v -0.085610 2.195536 -0.507722
v 0.183256 1.621427 -0.511564
v -0.079764 2.191360 -0.633270
v 0.192509 1.601062 -0.573140
v -0.071841 2.168387 -0.759866
v 0.200219 1.576015 -0.640049
v -0.061993 2.127146 -0.885313
v 0.206335 1.545446 -0.711943
v -0.050389 2.068233 -1.007564
v 0.210831 1.508414 -0.788373
v -0.037220 1.992340 -1.124678
v 0.213699 1.463857 -0.868789
v -0.022698 1.900285 -1.234817
v 0.214952 1.410572 -0.952516
v -0.007052 1.793020 -1.336262
v 0.214617 1.347226 -1.038713
v 0.009471 1.671632 -1.427463
v 0.212732 1.272394 -1.126328
v 0.026615 1.537301 -1.507081
v 0.209337 1.184610 -1.214053
v 0.044122 1.391243 -1.574034
v 0.204476 1.082452 -1.300300
v 0.061730 1.234634 -1.627518
v 0.198190 0.964628 -1.383208
v 0.079179 1.068520 -1.667004
v 0.190522 0.830060 -1.460666
v 0.096207 0.893730 -1.692210
v 0.181516 0.677955 -1.530383
v 0.112553 0.710811 -1.703038
v 0.171193 0.505758 -1.590220
v 0.127978 0.522071 -1.699235
vn 0.8868 0.0327 0.4609
vn 0.8855 0.1050 0.4526
vn 0.8847 0.1821 0.4292
vn 0.8852 0.2562 0.3883
vn 0.8872 0.3192 0.3331
vn 0.8903 0.3666 0.2701
vn 0.8940 0.3981 0.2057
vn 0.8978 0.4162 0.1439
vn 0.9016 0.4238 0.0868
vn 0.9052 0.4237 0.0345
vn 0.9085 0.4177 -0.0133
vn 0.9116 0.4071 -0.0571
vn 0.9145 0.3927 -0.0976
vn 0.9171 0.3750 -0.1351
vn 0.9196 0.3543 -0.1701
vn 0.9218 0.3306 -0.2025
vn 0.9238 0.3042 -0.2325
vn 0.9256 0.2753 -0.2598
vn 0.9271 0.2441 -0.2844
vn 0.9284 0.2109 -0.3059
vn 0.9294 0.1763 -0.3243
vn 0.9301 0.1407 -0.3393
vn 0.9305 0.1047 -0.3509
vn 0.9309 0.0688 -0.3587
vt 0.000000 0.000000
vt 0.000000 0.041667
vt 1.000000 0.041667
vt 1.000000 0.000000
vt 0.000000 0.083333
vt 1.000000 0.083333
vt 0.000000 0.125000
vt 1.000000 0.125000
vt 0.000000 0.166667
vt 1.000000 0.166667
vt 0.000000 0.208333
vt 1.000000 0.208333
vt 0.000000 0.250000
vt 1.000000 0.250000
vt 0.000000 0.291667
vt 1.000000 0.291667
vt 0.000000 0.333333
vt 1.000000 0.333333
vt 0.000000 0.375000
vt 1.000000 0.375000
vt 0.000000 0.416667
vt 1.000000 0.416667
vt 0.000000 0.458333
vt 1.000000 0.458333
vt 0.000000 0.500000
vt 1.000000 0.500000
vt 0.000000 0.541667
vt 1.000000 0.541667
vt 0.000000 0.583333
vt 1.000000 0.583333
vt 0.000000 0.625000
vt 1.000000 0.625000
vt 0.000000 0.666667
vt 1.000000 0.666667
vt 0.000000 0.708333
vt 1.000000 0.708333
vt 0.000000 0.750000
vt 1.000000 0.750000
vt 0.000000 0.791667
vt 1.000000 0.791667
vt 0.000000 0.833333
vt 1.000000 0.833333
vt 0.000000 0.875000
vt 1.000000 0.875000
vt 0.000000 0.916667
vt 1.000000 0.916667
vt 0.000000 0.958333
vt 1.000000 0.958333
vt 0.000000 1.000000
vt 1.000000 1.000000
s 0
usemtl VineMat
f 246/254/149 248/255/149 249/256/149 247/257/149
f 248/255/150 250/258/150 251/259/150 249/256/150
f 250/258/151 252/260/151 253/261/151 251/259/151
f 252/260/152 254/262/152 255/263/152 253/261/152
f 254/262/153 256/264/153 257/265/153 255/263/153
f 256/264/154 258/266/154 259/267/154 257/265/154
f 258/266/155 260/268/155 261/269/155 259/267/155
f 260/268/156 262/270/156 263/271/156 261/269/156
f 262/270/157 264/272/157 265/273/157 263/271/157
f 264/272/158 266/274/158 267/275/158 265/273/158
f 266/274/159 268/276/159 269/277/159 267/275/159
f 268/276/160 270/278/160 271/279/160 269/277/160
f 270/278/161 272/280/161 273/281/161 271/279/161
f 272/280/162 274/282/162 275/283/162 273/281/162
f 274/282/163 276/284/163 277/285/163 275/283/163
f 276/284/164 278/286/164 279/287/164 277/285/164
f 278/286/165 280/288/165 281/289/165 279/287/165
f 280/288/166 282/290/166 283/291/166 281/289/166
f 282/290/167 284/292/167 285/293/167 283/291/167
f 284/292/168 286/294/168 287/295/168 285/293/168
f 286/294/169 288/296/169 289/297/169 287/295/169
f 288/296/170 290/298/170 291/299/170 289/297/170
f 290/298/171 292/300/171 293/301/171 291/299/171
f 292/300/172 294/302/172 295/303/172 293/301/172
o Vine_003
v -0.060138 1.523394 -0.044626
v 0.050301 1.533025 0.029331
v -0.095295 1.588265 -0.071330
v 0.080117 1.620778 0.044134
v -0.133063 1.624571 -0.102155
v 0.102439 1.716779 0.040544
v -0.170364 1.638754 -0.131439
v 0.115057 1.814234 0.014832
v -0.204818 1.636444 -0.154909
v 0.116455 1.907166 -0.035348
v -0.235580 1.625033 -0.172306
v 0.106658 1.987832 -0.108321
v -0.263324 1.610293 -0.186896
v 0.087204 2.050110 -0.198890
v -0.289322 1.594779 -0.202957
v 0.060233 2.091096 -0.300846
v -0.314629 1.578541 -0.223807
v 0.027664 2.110393 -0.408941
v -0.339810 1.560474 -0.251338
v -0.009068 2.108754 -0.519350
v -0.365040 1.539180 -0.286358
v -0.048922 2.087228 -0.629336
v -0.390264 1.513297 -0.329019
v -0.091089 2.046829 -0.736814
v -0.415316 1.481542 -0.379112
v -0.134867 1.988490 -0.840062
v -0.439984 1.442675 -0.436216
v -0.179600 1.913102 -0.937572
v -0.464036 1.395451 -0.499745
v -0.224655 1.821559 -1.027997
v -0.487226 1.338606 -0.568958
v -0.269412 1.714778 -1.110146
v -0.509284 1.270846 -0.642950
v -0.313272 1.593701 -1.182995
v -0.529915 1.190875 -0.720630
v -0.355666 1.459276 -1.245702
v -0.548788 1.097432 -0.800719
v -0.396057 1.312416 -1.297616
v -0.565534 0.989332 -0.881742
v -0.433948 1.153955 -1.338281
v -0.579748 0.865511 -0.962047
v -0.468877 0.984608 -1.367417
v -0.590998 0.725070 -1.039831
v -0.500409 0.804924 -1.384897
v -0.598832 0.567301 -1.113172
v -0.528132 0.615263 -1.390710
v -0.602788 0.391705 -1.180075
v -0.551638 0.415775 -1.384923
v -0.602429 0.196352 -1.238644
v -0.570499 0.208038 -1.367497
vn -0.5564 0.0452 0.8297
vn -0.5579 0.1473 0.8168
vn -0.5671 0.2597 0.7817
vn -0.5876 0.3703 0.7194
vn -0.6187 0.4644 0.6336
vn -0.6564 0.5319 0.5350
vn -0.6956 0.5713 0.4355
vn -0.7329 0.5876 0.3429
vn -0.7667 0.5869 0.2603
vn -0.7965 0.5747 0.1878
vn -0.8228 0.5545 0.1245
vn -0.8459 0.5288 0.0690
vn -0.8663 0.4991 0.0200
vn -0.8844 0.4662 -0.0233
vn -0.9003 0.4309 -0.0616
vn -0.9143 0.3935 -0.0956
vn -0.9266 0.3545 -0.1253
vn -0.9372 0.3142 -0.1512
vn -0.9462 0.2731 -0.1734
vn -0.9537 0.2316 -0.1920
vn -0.9597 0.1899 -0.2073
vn -0.9643 0.1486 -0.2193
vn -0.9676 0.1080 -0.2283
vn -0.9698 0.0684 -0.2341
vt 0.000000 0.000000
vt 1.000000 0.000000
vt 1.000000 0.041667
vt 0.000000 0.041667
vt 1.000000 0.083333
vt 0.000000 0.083333
vt 1.000000 0.125000
vt 0.000000 0.125000
vt 1.000000 0.166667
vt 0.000000 0.166667
vt 1.000000 0.208333
vt 0.000000 0.208333
vt 1.000000 0.250000
vt 0.000000 0.250000
vt 1.000000 0.291667
vt 0.000000 0.291667
vt 1.000000 0.333333
vt 0.000000 0.333333
vt 1.000000 0.375000
vt 0.000000 0.375000
vt 1.000000 0.416667
vt 0.000000 0.416667
vt 1.000000 0.458333
vt 0.000000 0.458333
vt 1.000000 0.500000
vt 0.000000 0.500000
vt 1.000000 0.541667
vt 0.000000 0.541667
vt 1.000000 0.583333
vt 0.000000 0.583333
vt 1.000000 0.625000
vt 0.000000 0.625000
vt 1.000000 0.666667
vt 0.000000 0.666667
vt 1.000000 0.708333
vt 0.000000 0.708333
vt 1.000000 0.750000
vt 0.000000 0.750000
vt 1.000000 0.791667
vt 0.000000 0.791667
vt 1.000000 0.833333
vt 0.000000 0.833333
vt 1.000000 0.875000
vt 0.000000 0.875000
vt 1.000000 0.916667
vt 0.000000 0.916667
vt 1.000000 0.958333
vt 0.000000 0.958333
vt 1.000000 1.000000
vt 0.000000 1.000000
s 0
usemtl VineMat
f 296/304/173 297/305/173 299/306/173 298/307/173
f 298/307/174 299/306/174 301/308/174 300/309/174
f 300/309/175 301/308/175 303/310/175 302/311/175
f 302/311/176 303/310/176 305/312/176 304/313/176
f 304/313/177 305/312/177 307/314/177 306/315/177
f 306/315/178 307/314/178 309/316/178 308/317/178
f 308/317/179 309/316/179 311/318/179 310/319/179
f 310/319/180 311/318/180 313/320/180 312/321/180
f 312/321/181 313/320/181 315/322/181 314/323/181
f 314/323/182 315/322/182 317/324/182 316/325/182
f 316/325/183 317/324/183 319/326/183 318/327/183
f 318/327/184 319/326/184 321/328/184 320/329/184
f 320/329/185 321/328/185 323/330/185 322/331/185
f 322/331/186 323/330/186 325/332/186 324/333/186
f 324/333/187 325/332/187 327/334/187 326/335/187
f 326/335/188 327/334/188 329/336/188 328/337/188
f 328/337/189 329/336/189 331/338/189 330/339/189
f 330/339/190 331/338/190 333/340/190 332/341/190
f 332/341/191 333/340/191 335/342/191 334/343/191
f 334/343/192 335/342/192 337/344/192 336/345/192
f 336/345/193 337/344/193 339/346/193 338/347/193
f 338/347/194 339/346/194 341/348/194 340/349/194
f 340/349/195 341/348/195 343/350/195 342/351/195
f 342/351/196 343/350/196 345/352/196 344/353/196
o Vine_004
v -0.014443 1.504474 0.060722
v 0.013422 1.512262 -0.053542
v -0.023003 1.587709 0.100167
v 0.021479 1.614607 -0.080460
v -0.032053 1.640281 0.146164
v 0.029076 1.719872 -0.090265
v -0.041272 1.664845 0.191745
v 0.035974 1.825454 -0.078066
v -0.050364 1.664392 0.228746
v 0.041963 1.928416 -0.037778
v -0.059010 1.647449 0.251935
v 0.046805 2.020282 0.033749
v -0.066944 1.624805 0.263289
v 0.050319 2.090317 0.132462
v -0.074041 1.603278 0.270789
v 0.052463 2.131756 0.248299
v -0.080303 1.583536 0.282618
v 0.053322 2.143981 0.371000
v -0.085767 1.562818 0.303485
v 0.053017 2.129807 0.493774
v -0.090443 1.537902 0.334861
v 0.051642 2.092510 0.613073
v -0.094311 1.506246 0.376456
v 0.049259 2.034683 0.727107
v -0.097333 1.466031 0.427281
v 0.045916 1.958197 0.834785
v -0.099475 1.415904 0.486131
v 0.041659 1.864459 0.935234
v -0.100709 1.354775 0.551744
v 0.036546 1.754610 1.027636
v -0.101020 1.281680 0.622826
v 0.030645 1.629668 1.111208
v -0.100406 1.195722 0.698035
v 0.024037 1.490581 1.185210
v -0.098878 1.096047 0.775958
v 0.016816 1.338258 1.248977
v -0.096459 0.981847 0.855088
v 0.009090 1.173557 1.301937
v -0.093181 0.852382 0.933811
v 0.000974 0.997272 1.343625
v -0.089089 0.706998 1.010410
v -0.007405 0.810109 1.373679
v -0.084232 0.545154 1.083070
v -0.015913 0.612661 1.391834
v -0.078671 0.366447 1.149895
v -0.024406 0.405385 1.397906
v -0.072469 0.170623 1.208937
v -0.032737 0.188586 1.391767
v -0.065683 -0.043998 1.258301
v -0.040766 -0.036002 1.373230
vn -0.9715 0.0133 -0.2368
vn -0.9711 0.0448 -0.2345
vn -0.9706 0.0830 -0.2259
vn -0.9702 0.1264 -0.2067
vn -0.9701 0.1699 -0.1733
vn -0.9704 0.2052 -0.1273
vn -0.9711 0.2265 -0.0756
vn -0.9719 0.2338 -0.0260
vn -0.9728 0.2309 0.0170
vn -0.9737 0.2219 0.0525
vn -0.9744 0.2097 0.0814
vn -0.9750 0.1959 0.1051
vn -0.9755 0.1814 0.1246
vn -0.9759 0.1665 0.1410
vn -0.9763 0.1515 0.1548
vn -0.9766 0.1364 0.1665
vn -0.9768 0.1213 0.1765
vn -0.9770 0.1062 0.1849
vn -0.9772 0.0911 0.1920
vn -0.9773 0.0761 0.1979
vn -0.9773 0.0611 0.2026
vn -0.9774 0.0464 0.2063
vn -0.9774 0.0318 0.2090
vn -0.9774 0.0176 0.2107
vt 0.000000 0.000000
vt 0.000000 0.041667
vt 1.000000 0.041667
vt 1.000000 0.000000
vt 0.000000 0.083333
vt 1.000000 0.083333
vt 0.000000 0.125000
vt 1.000000 0.125000
vt 0.000000 0.166667
vt 1.000000 0.166667
vt 0.000000 0.208333
vt 1.000000 0.208333
vt 0.000000 0.250000
vt 1.000000 0.250000
vt 0.000000 0.291667
vt 1.000000 0.291667
vt 0.000000 0.333333
vt 1.000000 0.333333
vt 0.000000 0.375000
vt 1.000000 0.375000
vt 0.000000 0.416667
vt 1.000000 0.416667
vt 0.000000 0.458333
vt 1.000000 0.458333
vt 0.000000 0.500000
vt 1.000000 0.500000
vt 0.000000 0.541667
vt 1.000000 0.541667
vt 0.000000 0.583333
vt 1.000000 0.583333
vt 0.000000 0.625000
vt 1.000000 0.625000
vt 0.000000 0.666667
vt 1.000000 0.666667
vt 0.000000 0.708333
vt 1.000000 0.708333
vt 0.000000 0.750000
vt 1.000000 0.750000
vt 0.000000 0.791667
vt 1.000000 0.791667
vt 0.000000 0.833333
vt 1.000000 0.833333
vt 0.000000 0.875000
vt 1.000000 0.875000
vt 0.000000 0.916667
vt 1.000000 0.916667
vt 0.000000 0.958333
vt 1.000000 0.958333
vt 0.000000 1.000000
vt 1.000000 1.000000
s 0
usemtl VineMat
f 346/354/197 348/355/197 349/356/197 347/357/197
f 348/355/198 350/358/198 351/359/198 349/356/198
f 350/358/199 352/360/199 353/361/199 351/359/199
f 352/360/200 354/362/200 355/363/200 353/361/200
f 354/362/201 356/364/201 357/365/201 355/363/201
f 356/364/202 358/366/202 359/367/202 357/365/202
f 358/366/203 360/368/203 361/369/203 359/367/203
f 360/368/204 362/370/204 363/371/204 361/369/204
f 362/370/205 364/372/205 365/373/205 363/371/205
f 364/372/206 366/374/206 367/375/206 365/373/206
f 366/374/207 368/376/207 369/377/207 367/375/207
f 368/376/208 370/378/208 371/379/208 369/377/208
f 370/378/209 372/380/209 373/381/209 371/379/209
f 372/380/210 374/382/210 375/383/210 373/381/210
f 374/382/211 376/384/211 377/385/211 375/383/211
f 376/384/212 378/386/212 379/387/212 377/385/212
f 378/386/213 380/388/213 381/389/213 379/387/213
f 380/388/214 382/390/214 383/391/214 381/389/214
f 382/390/215 384/392/215 385/393/215 383/391/215
f 384/392/216 386/394/216 387/395/216 385/393/216
f 386/394/217 388/396/217 389/397/217 387/395/217
f 388/396/218 390/398/218 391/399/218 389/397/218
f 390/398/219 392/400/219 393/401/219 391/399/219
f 392/400/220 394/402/220 395/403/220 393/401/220
o Vine_005
v 0.036429 1.501958 0.074176
v 0.007449 1.504850 -0.076978
v 0.051285 1.574186 0.119289
v 0.006056 1.583964 -0.121777
v 0.076044 1.630286 0.164019
v 0.020209 1.657664 -0.165600
v 0.108147 1.672395 0.207525
v 0.050254 1.723433 -0.207657
v 0.145727 1.702402 0.249011
v 0.095843 1.778998 -0.247204
v 0.188451 1.722354 0.287723
v 0.155095 1.821930 -0.283539
v 0.236926 1.733398 0.322981
v 0.225189 1.850700 -0.316035
v 0.291691 1.735646 0.354191
v 0.303372 1.864814 -0.344148
v 0.352745 1.728656 0.380837
v 0.387430 1.864332 -0.367413
v 0.419606 1.711840 0.402480
v 0.475632 1.849459 -0.385445
v 0.491509 1.684639 0.418765
v 0.566529 1.820371 -0.397939
v 0.567546 1.646550 0.429425
v 0.658815 1.777191 -0.404681
v 0.646744 1.597109 0.434289
v 0.751248 1.719999 -0.405551
v 0.728093 1.535867 0.433284
v 0.842626 1.648862 -0.400529
v 0.810551 1.462377 0.426437
v 0.931773 1.563844 -0.389692
v 0.893045 1.376189 0.413873
v 1.017551 1.465014 -0.373218
v 0.974464 1.276849 0.395815
v 1.098857 1.352444 -0.351381
v 1.053653 1.163905 0.372577
v 1.174629 1.226203 -0.324547
v 1.129416 1.036917 0.344561
v 1.243853 1.086348 -0.293169
v 1.200509 0.895468 0.312246
v 1.305556 0.932915 -0.257780
v 1.265650 0.739170 0.276185
v 1.358806 0.765909 -0.218983
v 1.323526 0.567677 0.236990
v 1.402703 0.585294 -0.177442
v 1.372798 0.380686 0.195323
v 1.436372 0.390991 -0.133870
v 1.412114 0.177944 0.151885
v 1.458951 0.182870 -0.089022
v 1.440128 -0.041142 0.107402
v 1.469570 -0.038858 -0.043674
vn -0.9784 0.0866 0.1879
vn -0.9417 0.2810 0.1851
vn -0.8531 0.4890 0.1818
vn -0.7075 0.6836 0.1794
vn -0.5195 0.8357 0.1784
vn -0.3169 0.9315 0.1787
vn -0.1243 0.9758 0.1798
vn 0.0464 0.9823 0.1813
vn 0.1928 0.9641 0.1829
vn 0.3173 0.9302 0.1844
vn 0.4237 0.8865 0.1857
vn 0.5153 0.8364 0.1869
vn 0.5947 0.7817 0.1880
vn 0.6639 0.7235 0.1889
vn 0.7244 0.6628 0.1897
vn 0.7770 0.6000 0.1904
vn 0.8225 0.5358 0.1909
vn 0.8614 0.4705 0.1913
vn 0.8942 0.4047 0.1916
vn 0.9211 0.3389 0.1918
vn 0.9425 0.2737 0.1919
vn 0.9588 0.2095 0.1919
vn 0.9704 0.1468 0.1919
vn 0.9776 0.0861 0.1918
vt 0.000000 0.000000
vt 0.000000 0.041667
vt 1.000000 0.041667
vt 1.000000 0.000000
vt 0.000000 0.083333
vt 1.000000 0.083333
vt 0.000000 0.125000
vt 1.000000 0.125000
vt 0.000000 0.166667
vt 1.000000 0.166667
vt 0.000000 0.208333
vt 1.000000 0.208333
vt 0.000000 0.250000
vt 1.000000 0.250000
vt 0.000000 0.291667
vt 1.000000 0.291667
vt 0.000000 0.333333
vt 1.000000 0.333333
vt 0.000000 0.375000
vt 1.000000 0.375000
vt 0.000000 0.416667
vt 1.000000 0.416667
vt 0.000000 0.458333
vt 1.000000 0.458333
vt 0.000000 0.500000
vt 1.000000 0.500000
vt 0.000000 0.541667
vt 1.000000 0.541667
vt 0.000000 0.583333
vt 1.000000 0.583333
vt 0.000000 0.625000
vt 1.000000 0.625000
vt 0.000000 0.666667
vt 1.000000 0.666667
vt 0.000000 0.708333
vt 1.000000 0.708333
vt 0.000000 0.750000
vt 1.000000 0.750000
vt 0.000000 0.791667
vt 1.000000 0.791667
vt 0.000000 0.833333
vt 1.000000 0.833333
vt 0.000000 0.875000
vt 1.000000 0.875000
vt 0.000000 0.916667
vt 1.000000 0.916667
vt 0.000000 0.958333
vt 1.000000 0.958333
vt 0.000000 1.000000
vt 1.000000 1.000000
s 0
usemtl VineMat
f 396/404/221 398/405/221 399/406/221 397/407/221
f 398/405/222 400/408/222 401/409/222 399/406/222
f 400/408/223 402/410/223 403/411/223 401/409/223
f 402/410/224 404/412/224 405/413/224 403/411/224
f 404/412/225 406/414/225 407/415/225 405/413/225
f 406/414/226 408/416/226 409/417/226 407/415/226
f 408/416/227 410/418/227 411/419/227 409/417/227
f 410/418/228 412/420/228 413/421/228 411/419/228
f 412/420/229 414/422/229 415/423/229 413/421/229
f 414/422/230 416/424/230 417/425/230 415/423/230
f 416/424/231 418/426/231 419/427/231 417/425/231
f 418/426/232 420/428/232 421/429/232 419/427/232
f 420/428/233 422/430/233 423/431/233 421/429/233
f 422/430/234 424/432/234 425/433/234 423/431/234
f 424/432/235 426/434/235 427/435/235 425/433/235
f 426/434/236 428/436/236 429/437/236 427/435/236
f 428/436/237 430/438/237 431/439/237 429/437/237
f 430/438/238 432/440/238 433/441/238 431/439/238
f 432/440/239 434/442/239 435/443/239 433/441/239
f 434/442/240 436/444/240 437/445/240 435/443/240
f 436/444/241 438/446/241 439/447/241 437/445/241
f 438/446/242 440/448/242 441/449/242 439/447/242
f 440/448/243 442/450/243 443/451/243 441/449/243
f 442/450/244 444/452/244 445/453/244 443/451/244
o Vine_006
v -0.000292 1.524392 0.097930
v -0.077492 1.526317 -0.029259
v 0.017567 1.590941 0.139839
v -0.106074 1.597220 -0.062580
v 0.026187 1.647232 0.188258
v -0.145720 1.664038 -0.086146
v 0.026282 1.694506 0.241637
v -0.195433 1.724630 -0.099778
v 0.018342 1.733291 0.298656
v -0.253993 1.777558 -0.103527
v 0.002530 1.763984 0.358304
v -0.319851 1.821522 -0.097752
v -0.021100 1.786667 0.419726
v -0.391349 1.855533 -0.082969
v -0.052447 1.801149 0.482110
v -0.466877 1.878878 -0.059735
v -0.091289 1.807069 0.544638
v -0.544948 1.891012 -0.028605
v -0.137284 1.803973 0.606501
v -0.624189 1.891481 0.009862
v -0.189992 1.791364 0.666919
v -0.703330 1.879880 0.055074
v -0.248884 1.768710 0.725157
v -0.781190 1.855834 0.106397
v -0.313353 1.735447 0.780541
v -0.856663 1.819001 0.163134
v -0.382713 1.690983 0.832457
v -0.928726 1.769068 0.224528
v -0.456193 1.634690 0.880350
v -0.996436 1.705758 0.289764
v -0.532936 1.565917 0.923722
v -1.058940 1.628816 0.357970
v -0.611990 1.483992 0.962120
v -1.115479 1.538008 0.428228
v -0.692308 1.388239 0.995132
v -1.165388 1.433103 0.499579
v -0.772754 1.277992 1.022384
v -1.208092 1.313866 0.571028
v -0.852103 1.152605 1.043533
v -1.243105 1.180033 0.641547
v -0.929059 1.011468 1.058266
v -1.270011 1.031311 0.710077
v -1.002266 0.854009 1.066301
v -1.288455 0.867366 0.775532
v -1.070324 0.679698 1.067384
v -1.298126 0.687822 0.836794
v -1.131804 0.488050 1.061286
v -1.298743 0.492259 0.892723
v -1.185276 0.278362 1.047809
v -1.290022 0.280472 0.942146
vn 0.8509 0.0986 -0.5160
vn 0.8161 0.3048 -0.4911
vn 0.7447 0.5038 -0.4376
vn 0.6434 0.6756 -0.3599
vn 0.5245 0.8083 -0.2676
vn 0.4002 0.9005 -0.1704
vn 0.2788 0.9574 -0.0750
vn 0.1644 0.9863 0.0150
vn 0.0583 0.9934 0.0987
vn -0.0396 0.9836 0.1760
vn -0.1298 0.9602 0.2473
vn -0.2128 0.9256 0.3130
vn -0.2892 0.8815 0.3734
vn -0.3590 0.8291 0.4286
vn -0.4222 0.7699 0.4785
vn -0.4788 0.7050 0.5232
vn -0.5286 0.6357 0.5625
vn -0.5717 0.5633 0.5965
vn -0.6081 0.4893 0.6251
vn -0.6380 0.4149 0.6487
vn -0.6619 0.3413 0.6674
vn -0.6802 0.2695 0.6817
vn -0.6935 0.2003 0.6920
vn -0.7024 0.1342 0.6990
vt 0.000000 0.000000
vt 1.000000 0.000000
vt 1.000000 0.041667
vt 0.000000 0.041667
vt 1.000000 0.083333
vt 0.000000 0.083333
vt 1.000000 0.125000
vt 0.000000 0.125000
vt 1.000000 0.166667
vt 0.000000 0.166667
vt 1.000000 0.208333
vt 0.000000 0.208333
vt 1.000000 0.250000
vt 0.000000 0.250000
vt 1.000000 0.291667
vt 0.000000 0.291667
vt 1.000000 0.333333
vt 0.000000 0.333333
vt 1.000000 0.375000
vt 0.000000 0.375000
vt 1.000000 0.416667
vt 0.000000 0.416667
vt 1.000000 0.458333
vt 0.000000 0.458333
vt 1.000000 0.500000
vt 0.000000 0.500000
vt 1.000000 0.541667
vt 0.000000 0.541667
vt 1.000000 0.583333
vt 0.000000 0.583333
vt 1.000000 0.625000
vt 0.000000 0.625000
vt 1.000000 0.666667
vt 0.000000 0.666667
vt 1.000000 0.708333
vt 0.000000 0.708333
vt 1.000000 0.750000
vt 0.000000 0.750000
vt 1.000000 0.791667
vt 0.000000 0.791667
vt 1.000000 0.833333
vt 0.000000 0.833333
vt 1.000000 0.875000
vt 0.000000 0.875000
vt 1.000000 0.916667
vt 0.000000 0.916667
vt 1.000000 0.958333
vt 0.000000 0.958333
vt 1.000000 1.000000
vt 0.000000 1.000000
s 0
usemtl VineMat
f 446/454/245 447/455/245 449/456/245 448/457/245
f 448/457/246 449/456/246 451/458/246 450/459/246
f 450/459/247 451/458/247 453/460/247 452/461/247
f 452/461/248 453/460/248 455/462/248 454/463/248
f 454/463/249 455/462/249 457/464/249 456/465/249
f 456/465/250 457/464/250 459/466/250 458/467/250
f 458/467/251 459/466/251 461/468/251 460/469/251
f 460/469/252 461/468/252 463/470/252 462/471/252
f 462/471/253 463/470/253 465/472/253 464/473/253
f 464/473/254 465/472/254 467/474/254 466/475/254
f 466/475/255 467/474/255 469/476/255 468/477/255
f 468/477/256 469/476/256 471/478/256 470/479/256
f 470/479/257 471/478/257 473/480/257 472/481/257
f 472/481/258 473/480/258 475/482/258 474/483/258
f 474/483/259 475/482/259 477/484/259 476/485/259
f 476/485/260 477/484/260 479/486/260 478/487/260
f 478/487/261 479/486/261 481/488/261 480/489/261
f 480/489/262 481/488/262 483/490/262 482/491/262
f 482/491/263 483/490/263 485/492/263 484/493/263
f 484/493/264 485/492/264 487/494/264 486/495/264
f 486/495/265 487/494/265 489/496/265 488/497/265
f 488/497/266 489/496/266 491/498/266 490/499/266
f 490/499/267 491/498/267 493/500/267 492/501/267
f 492/501/268 493/500/268 495/502/268 494/503/268
o Vine_007
v -0.086312 1.517104 0.019690
v 0.070862 1.523627 0.010260
v -0.135250 1.579485 0.027928
v 0.114776 1.601287 0.015165
v -0.186556 1.620908 0.042599
v 0.151586 1.680641 0.038420
v -0.238048 1.647095 0.060612
v 0.179971 1.755523 0.080863
v -0.288313 1.662275 0.080675
v 0.199379 1.821265 0.141533
v -0.336857 1.670020 0.103923
v 0.210178 1.873848 0.217039
v -0.383609 1.672001 0.132281
v 0.213157 1.911159 0.303204
v -0.428437 1.668381 0.167132
v 0.209047 1.932594 0.396392
v -0.471015 1.658651 0.209018
v 0.198381 1.938218 0.493805
v -0.510879 1.642139 0.257876
v 0.181560 1.928258 0.593254
v -0.547530 1.618182 0.313298
v 0.158944 1.902937 0.692893
v -0.580489 1.586143 0.374694
v 0.130916 1.862448 0.791058
v -0.609341 1.545376 0.441376
v 0.097922 1.806993 0.886185
v -0.633737 1.495199 0.512573
v 0.060475 1.736812 0.976788
v -0.653402 1.434868 0.587434
v 0.019161 1.652205 1.061466
v -0.668124 1.363577 0.665005
v -0.025370 1.553537 1.138921
v -0.677745 1.280466 0.744206
v -0.072415 1.441224 1.207978
v -0.682150 1.184647 0.823817
v -0.121229 1.315709 1.267602
v -0.681256 1.075241 0.902465
v -0.171031 1.177432 1.316915
v -0.675008 0.951415 0.978624
v -0.221016 1.026781 1.355187
v -0.663375 0.812420 1.050630
v -0.270354 0.864061 1.381829
v -0.646350 0.657627 1.116709
v -0.318190 0.689459 1.396361
v -0.623948 0.486540 1.175007
v -0.363648 0.503029 1.398384
v -0.596213 0.298804 1.223627
v -0.405822 0.304681 1.387542
v -0.563189 0.093301 1.260645
v -0.443807 0.095091 1.363504
vn -0.0605 0.0911 -0.9940
vn -0.0679 0.2915 -0.9542
vn -0.0919 0.4956 -0.8637
vn -0.1339 0.6739 -0.7266
vn -0.1875 0.8047 -0.5633
vn -0.2441 0.8848 -0.3969
vn -0.2980 0.9233 -0.2424
vn -0.3466 0.9321 -0.1050
vn -0.3896 0.9209 0.0155
vn -0.4276 0.8958 0.1213
vn -0.4613 0.8608 0.2150
vn -0.4915 0.8181 0.2986
vn -0.5186 0.7690 0.3738
vn -0.5429 0.7144 0.4415
vn -0.5647 0.6549 0.5022
vn -0.5840 0.5913 0.5562
vn -0.6008 0.5241 0.6036
vn -0.6152 0.4543 0.6443
vn -0.6271 0.3828 0.6784
vn -0.6365 0.3104 0.7060
vn -0.6436 0.2382 0.7273
vn -0.6485 0.1671 0.7426
vn -0.6514 0.0980 0.7524
vn -0.6527 0.0315 0.7570
vt 0.000000 0.000000
vt 0.000000 0.041667
vt 1.000000 0.041667
vt 1.000000 0.000000
vt 0.000000 0.083333
vt 1.000000 0.083333
vt 0.000000 0.125000
vt 1.000000 0.125000
vt 0.000000 0.166667
vt 1.000000 0.166667
vt 0.000000 0.208333
vt 1.000000 0.208333
vt 0.000000 0.250000
vt 1.000000 0.250000
vt 0.000000 0.291667
vt 1.000000 0.291667
vt 0.000000 0.333333
vt 1.000000 0.333333
vt 0.000000 0.375000
vt 1.000000 0.375000
vt 0.000000 0.416667
vt 1.000000 0.416667
vt 0.000000 0.458333
vt 1.000000 0.458333
vt 0.000000 0.500000
vt 1.000000 0.500000
vt 0.000000 0.541667
vt 1.000000 0.541667
vt 0.000000 0.583333
vt 1.000000 0.583333
vt 0.000000 0.625000
vt 1.000000 0.625000
vt 0.000000 0.666667
vt 1.000000 0.666667
vt 0.000000 0.708333
vt 1.000000 0.708333
vt 0.000000 0.750000
vt 1.000000 0.750000
vt 0.000000 0.791667
vt 1.000000 0.791667
vt 0.000000 0.833333
vt 1.000000 0.833333
vt 0.000000 0.875000
vt 1.000000 0.875000
vt 0.000000 0.916667
vt 1.000000 0.916667
vt 0.000000 0.958333
vt 1.000000 0.958333
vt 0.000000 1.000000
vt 1.000000 1.000000
s 0
usemtl VineMat
f 496/504/269 498/505/269 499/506/269 497/507/269
f 498/505/270 500/508/270 501/509/270 499/506/270
f 500/508/271 502/510/271 503/511/271 501/509/271
f 502/510/272 504/512/272 505/513/272 503/511/272
f 504/512/273 506/514/273 507/515/273 505/513/273
f 506/514/274 508/516/274 509/517/274 507/515/274
f 508/516/275 510/518/275 511/519/275 509/517/275
f 510/518/276 512/520/276 513/521/276 511/519/276
f 512/520/277 514/522/277 515/523/277 513/521/277
f 514/522/278 516/524/278 517/525/278 515/523/278
f 516/524/279 518/526/279 519/527/279 517/525/279
f 518/526/280 520/528/280 521/529/280 519/527/280
f 520/528/281 522/530/281 523/531/281 521/529/281
f 522/530/282 524/532/282 525/533/282 523/531/282
f 524/532/283 526/534/283 527/535/283 525/533/283
f 526/534/284 528/536/284 529/537/284 527/535/284
f 528/536/285 530/538/285 531/539/285 529/537/285
f 530/538/286 532/540/286 533/541/286 531/539/286
f 532/540/287 534/542/287 535/543/287 533/541/287
f 534/542/288 536/544/288 537/545/288 535/543/288
f 536/544/289 538/546/289 539/547/289 537/545/289
f 538/546/290 540/548/290 541/549/290 539/547/290
f 540/548/291 542/550/291 543/551/291 541/549/291
f 542/550/292 544/552/292 545/553/292 543/551/292
o Vine_008
v 0.088811 1.514503 0.022162
v -0.040526 1.526517 -0.003558
v 0.132791 1.578621 0.030986
v -0.070608 1.618402 -0.009402
v 0.181894 1.612452 0.040876
v -0.079541 1.723132 -0.010682
v 0.229737 1.624423 0.050486
v -0.063227 1.831493 -0.006539
v 0.271904 1.620212 0.058883
v -0.019538 1.937026 0.003469
v 0.307453 1.606513 0.065886
v 0.050181 2.032250 0.019033
v 0.338253 1.588719 0.071914
v 0.141777 2.110989 0.039245
v 0.367309 1.569929 0.077627
v 0.249956 2.169360 0.062954
v 0.397446 1.551255 0.083645
v 0.369610 2.205465 0.089051
v 0.430799 1.532556 0.090433
v 0.496314 2.218662 0.116582
v 0.468839 1.513006 0.098313
v 0.626314 2.208991 0.144733
v 0.512526 1.491398 0.107497
v 0.756361 2.176876 0.172804
v 0.562460 1.466255 0.118116
v 0.883568 2.123007 0.200174
v 0.618953 1.435871 0.130239
v 1.005340 2.048310 0.226284
v 0.682029 1.398323 0.143871
v 1.119365 1.953919 0.250638
v 0.751398 1.351519 0.158950
v 1.223646 1.841145 0.272810
v 0.826412 1.293257 0.175333
v 1.316545 1.711404 0.292453
v 0.906046 1.221321 0.192796
v 1.396800 1.566127 0.309299
v 0.988889 1.133582 0.211032
v 1.463537 1.406658 0.323168
v 1.073177 1.028103 0.229654
v 1.516234 1.234153 0.333956
v 1.156849 0.903212 0.248212
v 1.554663 1.049496 0.341623
v 1.237631 0.757561 0.266208
v 1.578814 0.853252 0.346178
v 1.313112 0.590144 0.283113
v 1.588811 0.645642 0.347658
v 1.380828 0.400291 0.298388
v 1.584831 0.426552 0.346116
v 1.438485 0.185563 0.311530
v 1.566883 0.197637 0.341562
vn 0.1951 0.0014 -0.9808
vn 0.1954 0.0043 -0.9807
vn 0.1963 0.0074 -0.9805
vn 0.1979 0.0104 -0.9802
vn 0.2000 0.0129 -0.9797
vn 0.2025 0.0148 -0.9792
vn 0.2052 0.0161 -0.9786
vn 0.2077 0.0168 -0.9780
vn 0.2102 0.0171 -0.9775
vn 0.2125 0.0170 -0.9770
vn 0.2146 0.0167 -0.9766
vn 0.2165 0.0160 -0.9762
vn 0.2183 0.0153 -0.9758
vn 0.2199 0.0143 -0.9754
vn 0.2213 0.0132 -0.9751
vn 0.2226 0.0120 -0.9748
vn 0.2238 0.0108 -0.9746
vn 0.2247 0.0094 -0.9744
vn 0.2255 0.0081 -0.9742
vn 0.2262 0.0067 -0.9741
vn 0.2267 0.0054 -0.9739
vn 0.2272 0.0040 -0.9739
vn 0.2274 0.0027 -0.9738
vn 0.2276 0.0015 -0.9737
vt 0.000000 0.000000
vt 1.000000 0.000000
vt 1.000000 0.041667
vt 0.000000 0.041667
vt 1.000000 0.083333
vt 0.000000 0.083333
vt 1.000000 0.125000
vt 0.000000 0.125000
vt 1.000000 0.166667
vt 0.000000 0.166667
vt 1.000000 0.208333
vt 0.000000 0.208333
vt 1.000000 0.250000
vt 0.000000 0.250000
vt 1.000000 0.291667
vt 0.000000 0.291667
vt 1.000000 0.333333
vt 0.000000 0.333333
vt 1.000000 0.375000
vt 0.000000 0.375000
vt 1.000000 0.416667
vt 0.000000 0.416667
vt 1.000000 0.458333
vt 0.000000 0.458333
vt 1.000000 0.500000
vt 0.000000 0.500000
vt 1.000000 0.541667
vt 0.000000 0.541667
vt 1.000000 0.583333
vt 0.000000 0.583333
vt 1.000000 0.625000
vt 0.000000 0.625000
vt 1.000000 0.666667
vt 0.000000 0.666667
vt 1.000000 0.708333
vt 0.000000 0.708333
vt 1.000000 0.750000
vt 0.000000 0.750000
vt 1.000000 0.791667
vt 0.000000 0.791667
vt 1.000000 0.833333
vt 0.000000 0.833333
vt 1.000000 0.875000
vt 0.000000 0.875000
vt 1.000000 0.916667
vt 0.000000 0.916667
vt 1.000000 0.958333
vt 0.000000 0.958333
vt 1.000000 1.000000
vt 0.000000 1.000000
s 0
usemtl VineMat
f 546/554/293 547/555/293 549/556/293 548/557/293
f 548/557/294 549/556/294 551/558/294 550/559/294
f 550/559/295 551/558/295 553/560/295 552/561/295
f 552/561/296 553/560/296 555/562/296 554/563/296
f 554/563/297 555/562/297 557/564/297 556/565/297
f 556/565/298 557/564/298 559/566/298 558/567/298
f 558/567/299 559/566/299 561/568/299 560/569/299
f 560/569/300 561/568/300 563/570/300 562/571/300
f 562/571/301 563/570/301 565/572/301 564/573/301
f 564/573/302 565/572/302 567/574/302 566/575/302
f 566/575/303 567/574/303 569/576/303 568/577/303
f 568/577/304 569/576/304 571/578/304 570/579/304
f 570/579/305 571/578/305 573/580/305 572/581/305
f 572/581/306 573/580/306 575/582/306 574/583/306
f 574/583/307 575/582/307 577/584/307 576/585/307
f 576/585/308 577/584/308 579/586/308 578/587/308
f 578/587/309 579/586/309 581/588/309 580/589/309
f 580/589/310 581/588/310 583/590/310 582/591/310
f 582/591/311 583/590/311 585/592/311 584/593/311
f 584/593/312 585/592/312 587/594/312 586/595/312
f 586/595/313 587/594/313 589/596/313 588/597/313
f 588/597/314 589/596/314 591/598/314 590/599/314
f 590/599/315 591/598/315 593/600/315 592/601/315
f 592/601/316 593/600/316 595/602/316 594/603/316
o Vine_009
v -0.064716 1.513900 -0.091003
v 0.005092 1.524376 0.056917
v -0.089780 1.572154 -0.136925
v 0.018614 1.607275 0.098289
v -0.117580 1.602126 -0.184654
v 0.013010 1.700583 0.132848
v -0.142677 1.611233 -0.231179
v -0.015334 1.796321 0.158302
v -0.161252 1.605424 -0.274259
v -0.068409 1.887978 0.173130
v -0.173550 1.591902 -0.313026
v -0.144143 1.967788 0.177184
v -0.183049 1.576043 -0.347877
v -0.237232 2.029812 0.171579
v -0.194047 1.560169 -0.379708
v -0.341550 2.071165 0.157933
v -0.209927 1.544286 -0.409273
v -0.451888 2.091279 0.137719
v -0.232756 1.527284 -0.436979
v -0.564350 2.090700 0.112062
v -0.263572 1.507709 -0.462940
v -0.676072 2.070321 0.081797
v -0.302757 1.484070 -0.487104
v -0.784846 2.031069 0.047593
v -0.350295 1.454906 -0.509347
v -0.888858 1.973843 0.010043
v -0.405908 1.418773 -0.529518
v -0.986564 1.899524 -0.030283
v -0.469098 1.374217 -0.547467
v -1.076629 1.809001 -0.072816
v -0.539165 1.319776 -0.563046
v -1.157930 1.703177 -0.116984
v -0.615199 1.253991 -0.576108
v -1.229549 1.582948 -0.162214
v -0.696075 1.175429 -0.586504
v -1.290783 1.449180 -0.207935
v -0.780458 1.082734 -0.594080
v -1.341142 1.302671 -0.253583
v -0.866812 0.974658 -0.598675
v -1.380333 1.144103 -0.298598
v -0.953429 0.850103 -0.600126
v -1.408236 0.974015 -0.342424
v -1.038464 0.708143 -0.598271
v -1.424872 0.792766 -0.384503
v -1.119967 0.548047 -0.592956
v -1.430362 0.600526 -0.424268
v -1.195932 0.369280 -0.584042
v -1.424886 0.397269 -0.461141
v -1.264481 0.169962 -0.571428
v -1.408494 0.184310 -0.494502
vn 0.9023 0.0600 -0.4268
vn 0.8827 0.1934 -0.4284
vn 0.8332 0.3365 -0.4389
vn 0.7498 0.4737 -0.4620
vn 0.6386 0.5881 -0.4963
vn 0.5131 0.6693 -0.5374
vn 0.3871 0.7166 -0.5802
vn 0.2696 0.7359 -0.6211
vn 0.1642 0.7346 -0.6583
vn 0.0713 0.7188 -0.6915
vn -0.0102 0.6930 -0.7208
vn -0.0817 0.6601 -0.7467
vn -0.1446 0.6221 -0.7694
vn -0.1999 0.5803 -0.7895
vn -0.2486 0.5356 -0.8070
vn -0.2911 0.4888 -0.8224
vn -0.3281 0.4405 -0.8356
vn -0.3600 0.3912 -0.8470
vn -0.3870 0.3415 -0.8565
vn -0.4094 0.2920 -0.8644
vn -0.4277 0.2429 -0.8706
vn -0.4422 0.1948 -0.8755
vn -0.4532 0.1480 -0.8791
vn -0.4607 0.1026 -0.8816
vt 0.000000 0.000000
vt 0.000000 0.041667
vt 1.000000 0.041667
vt 1.000000 0.000000
vt 0.000000 0.083333
vt 1.000000 0.083333
vt 0.000000 0.125000
vt 1.000000 0.125000
vt 0.000000 0.166667
vt 1.000000 0.166667
vt 0.000000 0.208333
vt 1.000000 0.208333
vt 0.000000 0.250000
vt 1.000000 0.250000
vt 0.000000 0.291667
vt 1.000000 0.291667
vt 0.000000 0.333333
vt 1.000000 0.333333
vt 0.000000 0.375000
vt 1.000000 0.375000
vt 0.000000 0.416667
vt 1.000000 0.416667
vt 0.000000 0.458333
vt 1.000000 0.458333
vt 0.000000 0.500000
vt 1.000000 0.500000
vt 0.000000 0.541667
vt 1.000000 0.541667
vt 0.000000 0.583333
vt 1.000000 0.583333
vt 0.000000 0.625000
vt 1.000000 0.625000
vt 0.000000 0.666667
vt 1.000000 0.666667
vt 0.000000 0.708333
vt 1.000000 0.708333
vt 0.000000 0.750000
vt 1.000000 0.750000
vt 0.000000 0.791667
vt 1.000000 0.791667
vt 0.000000 0.833333
vt 1.000000 0.833333
vt 0.000000 0.875000
vt 1.000000 0.875000
vt 0.000000 0.916667
vt 1.000000 0.916667
vt 0.000000 0.958333
vt 1.000000 0.958333
vt 0.000000 1.000000
vt 1.000000 1.000000
s 0
usemtl VineMat
f 596/604/317 598/605/317 599/606/317 597/607/317
f 598/605/318 600/608/318 601/609/318 599/606/318
f 600/608/319 602/610/319 603/611/319 601/609/319
f 602/610/320 604/612/320 605/613/320 603/611/320
f 604/612/321 606/614/321 607/615/321 605/613/321
f 606/614/322 608/616/322 609/617/322 607/615/322
f 608/616/323 610/618/323 611/619/323 609/617/323
f 610/618/324 612/620/324 613/621/324 611/619/324
f 612/620/325 614/622/325 615/623/325 613/621/325
f 614/622/326 616/624/326 617/625/326 615/623/326
f 616/624/327 618/626/327 619/627/327 617/625/327
f 618/626/328 620/628/328 621/629/328 619/627/328
f 620/628/329 622/630/329 623/631/329 621/629/329
f 622/630/330 624/632/330 625/633/330 623/631/330
f 624/632/331 626/634/331 627/635/331 625/633/331
f 626/634/332 628/636/332 629/637/332 627/635/332
f 628/636/333 630/638/333 631/639/333 629/637/333
f 630/638/334 632/640/334 633/641/334 631/639/334
f 632/640/335 634/642/335 635/643/335 633/641/335
f 634/642/336 636/644/336 637/645/336 635/643/336
f 636/644/337 638/646/337 639/647/337 637/645/337
f 638/646/338 640/648/338 641/649/338 639/647/338
f 640/648/339 642/650/339 643/651/339 641/649/339
f 642/650/340 644/652/340 645/653/340 643/651/340
o Vine_010
v -0.113392 1.508929 -0.006931
v 0.038972 1.521411 0.000514
v -0.163881 1.575019 -0.009829
v 0.076333 1.616672 0.001566
v -0.218746 1.608602 -0.013169
v 0.093201 1.725908 -0.000439
v -0.271029 1.617845 -0.016089
v 0.084699 1.840688 -0.006067
v -0.315377 1.608571 -0.017927
v 0.047553 1.954925 -0.015691
v -0.350204 1.588515 -0.018585
v -0.017743 2.060619 -0.029113
v -0.377550 1.564535 -0.018488
v -0.107068 2.150651 -0.045616
v -0.401232 1.540920 -0.018292
v -0.214527 2.220464 -0.064253
v -0.424991 1.519444 -0.018610
v -0.334297 2.268024 -0.084116
v -0.451630 1.500249 -0.019899
v -0.461495 2.292923 -0.104457
v -0.482957 1.482671 -0.022453
v -0.592234 2.295561 -0.124687
v -0.520034 1.465708 -0.026449
v -0.723373 2.276677 -0.144337
v -0.563447 1.448205 -0.031987
v -0.852243 2.237161 -0.163016
v -0.613489 1.428889 -0.039112
v -0.976472 2.178023 -0.180383
v -0.670243 1.406354 -0.047834
v -1.093899 2.100404 -0.196137
v -0.733604 1.379031 -0.058123
v -1.202547 2.005610 -0.210016
v -0.803255 1.345187 -0.069912
v -1.300653 1.895110 -0.221793
v -0.878627 1.302935 -0.083088
v -1.386707 1.770527 -0.231288
v -0.958840 1.250292 -0.097484
v -1.459508 1.633579 -0.238376
v -1.042659 1.185262 -0.112875
v -1.518212 1.486000 -0.242989
v -1.128478 1.105932 -0.128975
v -1.562344 1.329437 -0.245119
v -1.214331 1.010589 -0.145439
v -1.591791 1.165341 -0.244820
v -1.297938 0.897820 -0.161870
v -1.606751 0.994860 -0.242194
v -1.376789 0.766589 -0.177835
v -1.607656 0.818766 -0.237384
v -1.448685 0.613431 -0.192955
v -1.594625 0.640261 -0.230474
vn -0.0490 0.0074 0.9988
vn -0.0505 0.0239 0.9984
vn -0.0552 0.0417 0.9976
vn -0.0639 0.0592 0.9962
vn -0.0760 0.0746 0.9943
vn -0.0904 0.0868 0.9921
vn -0.1056 0.0953 0.9898
vn -0.1206 0.1005 0.9876
vn -0.1347 0.1030 0.9855
vn -0.1478 0.1035 0.9836
vn -0.1598 0.1023 0.9818
vn -0.1709 0.0999 0.9802
vn -0.1810 0.0966 0.9787
vn -0.1904 0.0923 0.9774
vn -0.1991 0.0873 0.9761
vn -0.2071 0.0816 0.9749
vn -0.2145 0.0752 0.9738
vn -0.2212 0.0683 0.9728
vn -0.2272 0.0608 0.9719
vn -0.2324 0.0530 0.9712
vn -0.2369 0.0448 0.9705
vn -0.2406 0.0365 0.9699
vn -0.2435 0.0280 0.9695
vn -0.2456 0.0196 0.9692
vt 0.000000 0.000000
vt 1.000000 0.000000
vt 1.000000 0.041667
vt 0.000000 0.041667
vt 1.000000 0.083333
vt 0.000000 0.083333
vt 1.000000 0.125000
vt 0.000000 0.125000
vt 1.000000 0.166667
vt 0.000000 0.166667
vt 1.000000 0.208333
vt 0.000000 0.208333
vt 1.000000 0.250000
vt 0.000000 0.250000
vt 1.000000 0.291667
vt 0.000000 0.291667
vt 1.000000 0.333333
vt 0.000000 0.333333
vt 1.000000 0.375000
vt 0.000000 0.375000
vt 1.000000 0.416667
vt 0.000000 0.416667
vt 1.000000 0.458333
vt 0.000000 0.458333
vt 1.000000 0.500000
vt 0.000000 0.500000
vt 1.000000 0.541667
vt 0.000000 0.541667
vt 1.000000 0.583333
vt 0.000000 0.583333
vt 1.000000 0.625000
vt 0.000000 0.625000
vt 1.000000 0.666667
vt 0.000000 0.666667
vt 1.000000 0.708333
vt 0.000000 0.708333
vt 1.000000 0.750000
vt 0.000000 0.750000
vt 1.000000 0.791667
vt 0.000000 0.791667
vt 1.000000 0.833333
vt 0.000000 0.833333
vt 1.000000 0.875000
vt 0.000000 0.875000
vt 1.000000 0.916667
vt 0.000000 0.916667
vt 1.000000 0.958333
vt 0.000000 0.958333
vt 1.000000 1.000000
vt 0.000000 1.000000
s 0
usemtl VineMat
f 646/654/341 647/655/341 649/656/341 648/657/341
f 648/657/342 649/656/342 651/658/342 650/659/342
f 650/659/343 651/658/343 653/660/343 652/661/343
f 652/661/344 653/660/344 655/662/344 654/663/344
f 654/663/345 655/662/345 657/664/345 656/665/345
f 656/665/346 657/664/346 659/666/346 658/667/346
f 658/667/347 659/666/347 661/668/347 660/669/347
f 660/669/348 661/668/348 663/670/348 662/671/348
f 662/671/349 663/670/349 665/672/349 664/673/349
f 664/673/350 665/672/350 667/674/350 666/675/350
f 666/675/351 667/674/351 669/676/351 668/677/351
f 668/677/352 669/676/352 671/678/352 670/679/352
f 670/679/353 671/678/353 673/680/353 672/681/353
f 672/681/354 673/680/354 675/682/354 674/683/354
f 674/683/355 675/682/355 677/684/355 676/685/355
f 676/685/356 677/684/356 679/686/356 678/687/356
f 678/687/357 679/686/357 681/688/357 680/689/357
f 680/689/358 681/688/358 683/690/358 682/691/358
f 682/691/359 683/690/359 685/692/359 684/693/359
f 684/693/360 685/692/360 687/694/360 686/695/360
f 686/695/361 687/694/361 689/696/361 688/697/361
f 688/697/362 689/696/362 691/698/362 690/699/362
f 690/699/363 691/698/363 693/700/363 692/701/363
f 692/701/364 693/700/364 695/702/364 694/703/364
o Vine_011
v 0.075503 1.501263 0.019236
v -0.054089 1.501998 0.043305
v 0.115650 1.583602 0.018286
v -0.090950 1.586065 0.056876
v 0.158106 1.654183 0.028807
v -0.123913 1.661085 0.082798
v 0.201870 1.713397 0.049578
v -0.152534 1.726434 0.120166
v 0.245984 1.761519 0.079441
v -0.176409 1.781604 0.168009
v 0.289588 1.798942 0.117488
v -0.195230 1.825968 0.225107
v 0.331928 1.825984 0.163052
v -0.208798 1.858977 0.290003
v 0.372330 1.842768 0.215558
v -0.216993 1.880272 0.361142
v 0.410173 1.849241 0.274386
v -0.219750 1.889674 0.437017
v 0.444884 1.845246 0.338809
v -0.217047 1.887107 0.516228
v 0.475941 1.830588 0.408001
v -0.208917 1.872532 0.597472
v 0.502885 1.805062 0.481061
v -0.195457 1.845921 0.679525
v 0.525333 1.768464 0.557030
v -0.176835 1.807245 0.761216
v 0.542979 1.720589 0.634912
v -0.153301 1.756476 0.841417
v 0.555599 1.661233 0.713668
v -0.125185 1.693584 0.919035
v 0.563049 1.590186 0.792231
v -0.092896 1.618547 0.993014
v 0.565264 1.507238 0.869492
v -0.056925 1.531342 1.062332
v 0.562253 1.412175 0.944312
v -0.017833 1.431947 1.126003
v 0.554095 1.304789 1.015513
v 0.023747 1.320341 1.183078
v 0.540931 1.184875 1.081883
v 0.067118 1.196491 1.232639
v 0.522959 1.052245 1.142181
v 0.111530 1.060355 1.273801
v 0.500426 0.906722 1.195139
v 0.156182 0.911876 1.305704
v 0.473617 0.748150 1.239470
v 0.200233 0.750978 1.327508
v 0.442851 0.576390 1.273875
v 0.242811 0.577565 1.338386
v 0.408466 0.391192 1.297045
v 0.283024 0.391654 1.337517
vn -0.1819 0.0779 -0.9802
vn -0.1756 0.2498 -0.9522
vn -0.1600 0.4334 -0.8869
vn -0.1335 0.6124 -0.7792
vn -0.0973 0.7671 -0.6341
vn -0.0549 0.8832 -0.4658
vn -0.0107 0.9564 -0.2918
vn 0.0318 0.9916 -0.1251
vn 0.0707 0.9971 0.0272
vn 0.1055 0.9809 0.1631
vn 0.1363 0.9492 0.2835
vn 0.1637 0.9062 0.3900
vn 0.1878 0.8545 0.4843
vn 0.2093 0.7961 0.5678
vn 0.2282 0.7322 0.6417
vn 0.2449 0.6638 0.7067
vn 0.2594 0.5917 0.7633
vn 0.2718 0.5169 0.8117
vn 0.2821 0.4403 0.8524
vn 0.2905 0.3628 0.8854
vn 0.2970 0.2854 0.9112
vn 0.3018 0.2089 0.9302
vn 0.3050 0.1341 0.9429
vn 0.3067 0.0619 0.9498
vt 0.000000 0.000000
vt 1.000000 0.000000
vt 1.000000 0.041667
vt 0.000000 0.041667
vt 1.000000 0.083333
vt 0.000000 0.083333
vt 1.000000 0.125000
vt 0.000000 0.125000
vt 1.000000 0.166667
vt 0.000000 0.166667
vt 1.000000 0.208333
vt 0.000000 0.208333
vt 1.000000 0.250000
vt 0.000000 0.250000
vt 1.000000 0.291667
vt 0.000000 0.291667
vt 1.000000 0.333333
vt 0.000000 0.333333
vt 1.000000 0.375000
vt 0.000000 0.375000
vt 1.000000 0.416667
vt 0.000000 0.416667
vt 1.000000 0.458333
vt 0.000000 0.458333
vt 1.000000 0.500000
vt 0.000000 0.500000
vt 1.000000 0.541667
vt 0.000000 0.541667
vt 1.000000 0.583333
vt 0.000000 0.583333
vt 1.000000 0.625000
vt 0.000000 0.625000
vt 1.000000 0.666667
vt 0.000000 0.666667
vt 1.000000 0.708333
vt 0.000000 0.708333
vt 1.000000 0.750000
vt 0.000000 0.750000
vt 1.000000 0.791667
vt 0.000000 0.791667
vt 1.000000 0.833333
vt 0.000000 0.833333
vt 1.000000 0.875000
vt 0.000000 0.875000
vt 1.000000 0.916667
vt 0.000000 0.916667
vt 1.000000 0.958333
vt 0.000000 0.958333
vt 1.000000 1.000000
vt 0.000000 1.000000
s 0
usemtl VineMat
f 696/704/365 697/705/365 699/706/365 698/707/365
f 698/707/366 699/706/366 701/708/366 700/709/366
f 700/709/367 701/708/367 703/710/367 702/711/367
f 702/711/368 703/710/368 705/712/368 704/713/368
f 704/713/369 705/712/369 707/714/369 706/715/369
f 706/715/370 707/714/370 709/716/370 708/717/370
f 708/717/371 709/716/371 711/718/371 710/719/371
f 710/719/372 711/718/372 713/720/372 712/721/372
f 712/721/373 713/720/373 715/722/373 714/723/373
f 714/723/374 715/722/374 717/724/374 716/725/374
f 716/725/375 717/724/375 719/726/375 718/727/375
f 718/727/376 719/726/376 721/728/376 720/729/376
f 720/729/377 721/728/377 723/730/377 722/731/377
f 722/731/378 723/730/378 725/732/378 724/733/378
f 724/733/379 725/732/379 727/734/379 726/735/379
f 726/735/380 727/734/380 729/736/380 728/737/380
f 728/737/381 729/736/381 731/738/381 730/739/381
f 730/739/382 731/738/382 733/740/382 732/741/382
f 732/741/383 733/740/383 735/742/383 734/743/383
f 734/743/384 735/742/384 737/744/384 736/745/384
f 736/745/385 737/744/385 739/746/385 738/747/385
f 738/747/386 739/746/386 741/748/386 740/749/386
f 740/749/387 741/748/387 743/750/387 742/751/387
f 742/751/388 743/750/388 745/752/388 744/753/388
o Vine_012
v 0.085090 1.537893 -0.016023
v -0.061337 1.539937 -0.042000
v 0.130681 1.607650 -0.014431
v -0.102620 1.614419 -0.056526
v 0.179094 1.665162 -0.023466
v -0.138588 1.683649 -0.084862
v 0.229027 1.711707 -0.041615
v -0.168654 1.745472 -0.126368
v 0.279329 1.748045 -0.067714
v -0.192384 1.798243 -0.180059
v 0.329101 1.774927 -0.101250
v -0.209594 1.840333 -0.244295
v 0.377622 1.792697 -0.142088
v -0.220280 1.870515 -0.317063
v 0.424246 1.801245 -0.190101
v -0.224511 1.888019 -0.396336
v 0.468344 1.800160 -0.244992
v -0.222377 1.892375 -0.480263
v 0.509311 1.788887 -0.306260
v -0.213987 1.883255 -0.567192
v 0.546577 1.766816 -0.373255
v -0.199487 1.860392 -0.655623
v 0.579633 1.733312 -0.445209
v -0.179085 1.823538 -0.744173
v 0.608040 1.687727 -0.521271
v -0.153058 1.772458 -0.831542
v 0.631438 1.629403 -0.600514
v -0.121762 1.706933 -0.916508
v 0.649544 1.557669 -0.681935
v -0.085631 1.626750 -0.997920
v 0.662155 1.471852 -0.764462
v -0.045177 1.531702 -1.074701
v 0.669145 1.371284 -0.846947
v -0.000990 1.421575 -1.145849
v 0.670458 1.255311 -0.928173
v 0.046268 1.296144 -1.210428
v 0.666109 1.123303 -1.006859
v 0.095868 1.155157 -1.267570
v 0.656175 0.974661 -1.081666
v 0.147016 0.998332 -1.316462
v 0.640792 0.808822 -1.151211
v 0.198859 0.825351 -1.356336
v 0.620149 0.625261 -1.214077
v 0.250493 0.635858 -1.386459
v 0.594477 0.423490 -1.268822
v 0.300970 0.429460 -1.406122
v 0.564045 0.203055 -1.313993
v 0.349306 0.205730 -1.414627
v 0.529145 -0.036710 -1.348136
v 0.394490 -0.035547 -1.411278
vn -0.1736 0.0931 0.9804
vn -0.1634 0.2937 0.9418
vn -0.1387 0.4970 0.8566
vn -0.0990 0.6800 0.7265
vn -0.0485 0.8237 0.5649
vn 0.0067 0.9205 0.3907
vn 0.0614 0.9736 0.2197
vn 0.1125 0.9918 0.0608
vn 0.1588 0.9839 -0.0825
vn 0.2001 0.9570 -0.2100
vn 0.2367 0.9164 -0.3229
vn 0.2690 0.8656 -0.4224
vn 0.2973 0.8073 -0.5098
vn 0.3221 0.7434 -0.5862
vn 0.3436 0.6755 -0.6524
vn 0.3620 0.6050 -0.7092
vn 0.3775 0.5332 -0.7571
vn 0.3903 0.4612 -0.7969
vn 0.4007 0.3898 -0.8292
vn 0.4088 0.3200 -0.8547
vn 0.4150 0.2524 -0.8741
vn 0.4195 0.1874 -0.8882
vn 0.4224 0.1255 -0.8977
vn 0.4241 0.0669 -0.9032
vt 0.000000 0.000000
vt 0.000000 0.041667
vt 1.000000 0.041667
vt 1.000000 0.000000
vt 0.000000 0.083333
vt 1.000000 0.083333
vt 0.000000 0.125000
vt 1.000000 0.125000
vt 0.000000 0.166667
vt 1.000000 0.166667
vt 0.000000 0.208333
vt 1.000000 0.208333
vt 0.000000 0.250000
vt 1.000000 0.250000
vt 0.000000 0.291667
vt 1.000000 0.291667
vt 0.000000 0.333333
vt 1.000000 0.333333
vt 0.000000 0.375000
vt 1.000000 0.375000
vt 0.000000 0.416667
vt 1.000000 0.416667
vt 0.000000 0.458333
vt 1.000000 0.458333
vt 0.000000 0.500000
vt 1.000000 0.500000
vt 0.000000 0.541667
vt 1.000000 0.541667
vt 0.000000 0.583333
vt 1.000000 0.583333
vt 0.000000 0.625000
vt 1.000000 0.625000
vt 0.000000 0.666667
vt 1.000000 0.666667
vt 0.000000 0.708333
vt 1.000000 0.708333
vt 0.000000 0.750000
vt 1.000000 0.750000
vt 0.000000 0.791667
vt 1.000000 0.791667
vt 0.000000 0.833333
vt 1.000000 0.833333
vt 0.000000 0.875000
vt 1.000000 0.875000
vt 0.000000 0.916667
vt 1.000000 0.916667
vt 0.000000 0.958333
vt 1.000000 0.958333
vt 0.000000 1.000000
vt 1.000000 1.000000
s 0
usemtl VineMat
f 746/754/389 748/755/389 749/756/389 747/757/389
f 748/755/390 750/758/390 751/759/390 749/756/390
f 750/758/391 752/760/391 753/761/391 751/759/391
f 752/760/392 754/762/392 755/763/392 753/761/392
f 754/762/393 756/764/393 757/765/393 755/763/393
f 756/764/394 758/766/394 759/767/394 757/765/394
f 758/766/395 760/768/395 761/769/395 759/767/395
f 760/768/396 762/770/396 763/771/396 761/769/396
f 762/770/397 764/772/397 765/773/397 763/771/397
f 764/772/398 766/774/398 767/775/398 765/773/398
f 766/774/399 768/776/399 769/777/399 767/775/399
f 768/776/400 770/778/400 771/779/400 769/777/400
f 770/778/401 772/780/401 773/781/401 771/779/401
f 772/780/402 774/782/402 775/783/402 773/781/402
f 774/782/403 776/784/403 777/785/403 775/783/403
f 776/784/404 778/786/404 779/787/404 777/785/404
f 778/786/405 780/788/405 781/789/405 779/787/405
f 780/788/406 782/790/406 783/791/406 781/789/406
f 782/790/407 784/792/407 785/793/407 783/791/407
f 784/792/408 786/794/408 787/795/408 785/793/408
f 786/794/409 788/796/409 789/797/409 787/795/409
f 788/796/410 790/798/410 791/799/410 789/797/410
f 790/798/411 792/800/411 793/801/411 791/799/411
f 792/800/412 794/802/412 795/803/412 793/801/412
o Vine_013
v 0.115863 1.517688 -0.055820
v -0.019769 1.531365 0.003912
v 0.160664 1.577450 -0.076449
v -0.052745 1.623533 0.016605
v 0.208207 1.601028 -0.098333
v -0.066173 1.731095 0.015592
v 0.251211 1.598734 -0.116882
v -0.054807 1.843564 -0.002350
v 0.285271 1.579391 -0.129412
v -0.016279 1.951944 -0.038537
v 0.310986 1.552823 -0.136734
v 0.046775 2.046235 -0.090794
v 0.332255 1.525578 -0.141850
v 0.128420 2.119713 -0.154750
v 0.353242 1.500119 -0.147828
v 0.222454 2.169743 -0.225971
v 0.376785 1.476398 -0.156739
v 0.324004 2.196195 -0.301018
v 0.404350 1.453430 -0.169674
v 0.429566 2.199882 -0.377434
v 0.436514 1.430060 -0.187095
v 0.536527 2.181783 -0.453390
v 0.473388 1.405176 -0.209126
v 0.642740 2.142836 -0.527395
v 0.514872 1.377690 -0.235732
v 0.746268 2.083953 -0.598119
v 0.560766 1.346453 -0.266790
v 0.845274 2.006109 -0.664315
v 0.610800 1.310181 -0.302111
v 0.937992 1.910412 -0.724807
v 0.664613 1.267407 -0.341423
v 1.022745 1.798156 -0.778500
v 0.721703 1.216469 -0.384338
v 1.097999 1.670829 -0.824415
v 0.781371 1.155532 -0.430312
v 1.162418 1.530087 -0.861729
v 0.842654 1.082668 -0.478608
v 1.214926 1.377688 -0.889812
v 0.904290 0.995947 -0.528263
v 1.254750 1.215384 -0.908262
v 0.964702 0.893570 -0.578083
v 1.281431 1.044800 -0.916903
v 1.022021 0.773992 -0.626659
v 1.294799 0.867307 -0.915779
v 1.074145 0.636032 -0.672410
v 1.294920 0.683911 -0.905104
v 1.118827 0.478944 -0.713641
v 1.282006 0.495183 -0.885207
v 1.153766 0.299652 -0.748650
v 1.256320 0.304024 -0.856421
vn 0.4033 0.0164 0.9149
vn 0.4064 0.0535 0.9121
vn 0.4166 0.0939 0.9042
vn 0.4354 0.1322 0.8905
vn 0.4609 0.1633 0.8723
vn 0.4892 0.1846 0.8524
vn 0.5170 0.1969 0.8330
vn 0.5427 0.2022 0.8152
vn 0.5658 0.2025 0.7993
vn 0.5864 0.1994 0.7851
vn 0.6049 0.1938 0.7724
vn 0.6216 0.1862 0.7609
vn 0.6369 0.1769 0.7504
vn 0.6509 0.1662 0.7408
vn 0.6637 0.1542 0.7319
vn 0.6755 0.1408 0.7238
vn 0.6861 0.1263 0.7164
vn 0.6956 0.1107 0.7098
vn 0.7038 0.0942 0.7041
vn 0.7107 0.0770 0.6993
vn 0.7162 0.0593 0.6954
vn 0.7202 0.0415 0.6925
vn 0.7230 0.0238 0.6904
vn 0.7243 0.0065 0.6895
vt 0.000000 0.000000
vt 0.000000 0.041667
vt 1.000000 0.041667
vt 1.000000 0.000000
vt 0.000000 0.083333
vt 1.000000 0.083333
vt 0.000000 0.125000
vt 1.000000 0.125000
vt 0.000000 0.166667
vt 1.000000 0.166667
vt 0.000000 0.208333
vt 1.000000 0.208333
vt 0.000000 0.250000
vt 1.000000 0.250000
vt 0.000000 0.291667
vt 1.000000 0.291667
vt 0.000000 0.333333
vt 1.000000 0.333333
vt 0.000000 0.375000
vt 1.000000 0.375000
vt 0.000000 0.416667
vt 1.000000 0.416667
vt 0.000000 0.458333
vt 1.000000 0.458333
vt 0.000000 0.500000
vt 1.000000 0.500000
vt 0.000000 0.541667
vt 1.000000 0.541667
vt 0.000000 0.583333
vt 1.000000 0.583333
vt 0.000000 0.625000
vt 1.000000 0.625000
vt 0.000000 0.666667
vt 1.000000 0.666667
vt 0.000000 0.708333
vt 1.000000 0.708333
vt 0.000000 0.750000
vt 1.000000 0.750000
vt 0.000000 0.791667
vt 1.000000 0.791667
vt 0.000000 0.833333
vt 1.000000 0.833333
vt 0.000000 0.875000
vt 1.000000 0.875000
vt 0.000000 0.916667
vt 1.000000 0.916667
vt 0.000000 0.958333
vt 1.000000 0.958333
vt 0.000000 1.000000
vt 1.000000 1.000000
s 0
usemtl VineMat
f 796/804/413 798/805/413 799/806/413 797/807/413
f 798/805/414 800/808/414 801/809/414 799/806/414
f 800/808/415 802/810/415 803/811/415 801/809/415
f 802/810/416 804/812/416 805/813/416 803/811/416
f 804/812/417 806/814/417 807/815/417 805/813/417
f 806/814/418 808/816/418 809/817/418 807/815/418
f 808/816/419 810/818/419 811/819/419 809/817/419
f 810/818/420 812/820/420 813/821/420 811/819/420
f 812/820/421 814/822/421 815/823/421 813/821/421
f 814/822/422 816/824/422 817/825/422 815/823/422
f 816/824/423 818/826/423 819/827/423 817/825/423
f 818/826/424 820/828/424 821/829/424 819/827/424
f 820/828/425 822/830/425 823/831/425 821/829/425
f 822/830/426 824/832/426 825/833/426 823/831/426
f 824/832/427 826/834/427 827/835/427 825/833/427
f 826/834/428 828/836/428 829/837/428 827/835/428
f 828/836/429 830/838/429 831/839/429 829/837/429
f 830/838/430 832/840/430 833/841/430 831/839/430
f 832/840/431 834/842/431 835/843/431 833/841/431
f 834/842/432 836/844/432 837/845/432 835/843/432
f 836/844/433 838/846/433 839/847/433 837/845/433
f 838/846/434 840/848/434 841/849/434 839/847/434
f 840/848/435 842/850/435 843/851/435 841/849/435
f 842/850/436 844/852/436 845/853/436 843/851/436
o Vine_014
v 0.062838 1.516798 -0.029067
v -0.055245 1.519175 0.037770
v 0.102258 1.601921 -0.044329
v -0.085617 1.609894 0.062764
v 0.148494 1.671856 -0.051435
v -0.105695 1.694275 0.098004
v 0.199565 1.728086 -0.051518
v -0.114976 1.770659 0.143035
v 0.253632 1.771706 -0.045611
v -0.113101 1.837774 0.197296
v 0.309423 1.804267 -0.034153
v -0.100277 1.893892 0.259640
v 0.366278 1.827160 -0.016977
v -0.077320 1.937446 0.328306
v 0.423879 1.841184 0.006370
v -0.045392 1.967461 0.401253
v 0.481937 1.846538 0.036258
v -0.005682 1.983561 0.476520
v 0.540031 1.843044 0.072800
v 0.040751 1.985746 0.552403
v 0.597608 1.830366 0.115844
v 0.092982 1.974177 0.627466
v 0.654037 1.808124 0.165027
v 0.150164 1.949059 0.700479
v 0.708661 1.775940 0.219837
v 0.211475 1.910591 0.770365
v 0.760838 1.733439 0.279646
v 0.276079 1.858971 0.836162
v 0.809952 1.680246 0.343728
v 0.343112 1.794399 0.897005
v 0.855425 1.615979 0.411265
v 0.411674 1.717081 0.952122
v 0.896711 1.540245 0.481351
v 0.480833 1.627233 1.000828
v 0.933290 1.452646 0.552989
v 0.549629 1.525076 1.042531
v 0.964666 1.352788 0.625089
v 0.617082 1.410827 1.076730
v 0.990355 1.240293 0.696477
v 0.682195 1.284687 1.103008
v 1.009884 1.114815 0.765895
v 0.743963 1.146828 1.121034
v 1.022790 0.976049 0.832016
v 0.801372 0.997377 1.130544
v 1.028618 0.823747 0.893457
v 0.853395 0.836405 1.131331
v 1.026923 0.657721 0.948795
v 0.899002 0.663924 1.123228
v 1.017282 0.477392 0.996601
v 0.937134 0.480337 1.106072
vn -0.4910 0.0733 -0.8681
vn -0.4757 0.2352 -0.8476
vn -0.4375 0.4092 -0.8007
vn -0.3720 0.5812 -0.7237
vn -0.2812 0.7330 -0.6194
vn -0.1731 0.8502 -0.4971
vn -0.0591 0.9275 -0.3693
vn 0.0519 0.9680 -0.2457
vn 0.1544 0.9791 -0.1321
vn 0.2465 0.9687 -0.0303
vn 0.3284 0.9426 0.0600
vn 0.4011 0.9053 0.1400
vn 0.4657 0.8594 0.2111
vn 0.5231 0.8069 0.2743
vn 0.5743 0.7489 0.3306
vn 0.6197 0.6864 0.3806
vn 0.6597 0.6200 0.4248
vn 0.6945 0.5506 0.4632
vn 0.7243 0.4787 0.4963
vn 0.7491 0.4053 0.5240
vn 0.7692 0.3311 0.5465
vn 0.7848 0.2570 0.5640
vn 0.7959 0.1837 0.5768
vn 0.8032 0.1122 0.5850
vt 0.000000 0.000000
vt 1.000000 0.000000
vt 1.000000 0.041667
vt 0.000000 0.041667
vt 1.000000 0.083333
vt 0.000000 0.083333
vt 1.000000 0.125000
vt 0.000000 0.125000
vt 1.000000 0.166667
vt 0.000000 0.166667
vt 1.000000 0.208333
vt 0.000000 0.208333
vt 1.000000 0.250000
vt 0.000000 0.250000
vt 1.000000 0.291667
vt 0.000000 0.291667
vt 1.000000 0.333333
vt 0.000000 0.333333
vt 1.000000 0.375000
vt 0.000000 0.375000
vt 1.000000 0.416667
vt 0.000000 0.416667
vt 1.000000 0.458333
vt 0.000000 0.458333
vt 1.000000 0.500000
vt 0.000000 0.500000
vt 1.000000 0.541667
vt 0.000000 0.541667
vt 1.000000 0.583333
vt 0.000000 0.583333
vt 1.000000 0.625000
vt 0.000000 0.625000
vt 1.000000 0.666667
vt 0.000000 0.666667
vt 1.000000 0.708333
vt 0.000000 0.708333
vt 1.000000 0.750000
vt 0.000000 0.750000
vt 1.000000 0.791667
vt 0.000000 0.791667
vt 1.000000 0.833333
vt 0.000000 0.833333
vt 1.000000 0.875000
vt 0.000000 0.875000
vt 1.000000 0.916667
vt 0.000000 0.916667
vt 1.000000 0.958333
vt 0.000000 0.958333
vt 1.000000 1.000000
vt 0.000000 1.000000
s 0
usemtl VineMat
f 846/854/437 847/855/437 849/856/437 848/857/437
f 848/857/438 849/856/438 851/858/438 850/859/438
f 850/859/439 851/858/439 853/860/439 852/861/439
f 852/861/440 853/860/440 855/862/440 854/863/440
f 854/863/441 855/862/441 857/864/441 856/865/441
f 856/865/442 857/864/442 859/866/442 858/867/442
f 858/867/443 859/866/443 861/868/443 860/869/443
f 860/869/444 861/868/444 863/870/444 862/871/444
f 862/871/445 863/870/445 865/872/445 864/873/445
f 864/873/446 865/872/446 867/874/446 866/875/446
f 866/875/447 867/874/447 869/876/447 868/877/447
f 868/877/448 869/876/448 871/878/448 870/879/448
f 870/879/449 871/878/449 873/880/449 872/881/449
f 872/881/450 873/880/450 875/882/450 874/883/450
f 874/883/451 875/882/451 877/884/451 876/885/451
f 876/885/452 877/884/452 879/886/452 878/887/452
f 878/887/453 879/886/453 881/888/453 880/889/453
f 880/889/454 881/888/454 883/890/454 882/891/454
f 882/891/455 883/890/455 885/892/455 884/893/455
f 884/893/456 885/892/456 887/894/456 886/895/456
f 886/895/457 887/894/457 889/896/457 888/897/457
f 888/897/458 889/896/458 891/898/458 890/899/458
f 890/899/459 891/898/459 893/900/459 892/901/459
f 892/901/460 893/900/460 895/902/460 894/903/460
o Vine_015
v -0.056105 1.512226 -0.055980
v 0.033064 1.523571 0.029149
v -0.086544 1.577241 -0.085511
v 0.053696 1.615679 0.048012
v -0.120464 1.609260 -0.118599
v 0.059320 1.718449 0.050314
v -0.152587 1.616816 -0.149608
v 0.046340 1.823462 0.032251
v -0.179670 1.607677 -0.175113
v 0.013194 1.923061 -0.007772
v -0.202183 1.590605 -0.195794
v -0.037965 2.008600 -0.067244
v -0.223001 1.571327 -0.214937
v -0.102579 2.074464 -0.141050
v -0.245050 1.551839 -0.235832
v -0.176039 2.118772 -0.224068
v -0.270147 1.531975 -0.260519
v -0.254847 2.141802 -0.312429
v -0.299047 1.510871 -0.289853
v -0.336565 2.144531 -0.403444
v -0.331853 1.487638 -0.323974
v -0.419407 2.127962 -0.495147
v -0.368342 1.461514 -0.362656
v -0.501914 2.092972 -0.585931
v -0.408162 1.431822 -0.405525
v -0.582755 2.040347 -0.674339
v -0.450914 1.397894 -0.452152
v -0.660647 1.970874 -0.758973
v -0.496185 1.358983 -0.502080
v -0.734322 1.885409 -0.838454
v -0.543543 1.314209 -0.554829
v -0.802527 1.784947 -0.911436
v -0.592515 1.262521 -0.609862
v -0.864053 1.670654 -0.976623
v -0.642550 1.202678 -0.666552
v -0.917770 1.543881 -1.032814
v -0.692967 1.133273 -0.724124
v -0.962675 1.406151 -1.078951
v -0.742911 1.052784 -0.781604
v -0.997941 1.259099 -1.114178
v -0.791311 0.959663 -0.837776
v -1.022957 1.104385 -1.137881
v -0.836856 0.852464 -0.891160
v -1.037352 0.943570 -1.149710
v -0.878008 0.729973 -0.940020
v -1.040980 0.777982 -1.149570
v -0.913046 0.591332 -0.982414
v -1.033881 0.608589 -1.137572
v -0.940162 0.433409 -1.016326
v -1.016178 0.438640 -1.113902
vn -0.6906 0.0060 0.7232
vn -0.6915 0.0198 0.7221
vn -0.6946 0.0349 0.7185
vn -0.7004 0.0494 0.7120
vn -0.7083 0.0611 0.7033
vn -0.7170 0.0691 0.6936
vn -0.7254 0.0736 0.6843
vn -0.7331 0.0756 0.6759
vn -0.7399 0.0758 0.6685
vn -0.7459 0.0747 0.6619
vn -0.7512 0.0729 0.6560
vn -0.7560 0.0704 0.6508
vn -0.7604 0.0673 0.6459
vn -0.7645 0.0638 0.6414
vn -0.7684 0.0598 0.6372
vn -0.7720 0.0552 0.6333
vn -0.7753 0.0502 0.6296
vn -0.7784 0.0447 0.6262
vn -0.7811 0.0386 0.6232
vn -0.7835 0.0321 0.6205
vn -0.7855 0.0252 0.6183
vn -0.7871 0.0181 0.6165
vn -0.7882 0.0108 0.6153
vn -0.7888 0.0034 0.6147
vt 0.000000 0.000000
vt 1.000000 0.000000
vt 1.000000 0.041667
vt 0.000000 0.041667
vt 1.000000 0.083333
vt 0.000000 0.083333
vt 1.000000 0.125000
vt 0.000000 0.125000
vt 1.000000 0.166667
vt 0.000000 0.166667
vt 1.000000 0.208333
vt 0.000000 0.208333
vt 1.000000 0.250000
vt 0.000000 0.250000
vt 1.000000 0.291667
vt 0.000000 0.291667
vt 1.000000 0.333333
vt 0.000000 0.333333
vt 1.000000 0.375000
vt 0.000000 0.375000
vt 1.000000 0.416667
vt 0.000000 0.416667
vt 1.000000 0.458333
vt 0.000000 0.458333
vt 1.000000 0.500000
vt 0.000000 0.500000
vt 1.000000 0.541667
vt 0.000000 0.541667
vt 1.000000 0.583333
vt 0.000000 0.583333
vt 1.000000 0.625000
vt 0.000000 0.625000
vt 1.000000 0.666667
vt 0.000000 0.666667
vt 1.000000 0.708333
vt 0.000000 0.708333
vt 1.000000 0.750000
vt 0.000000 0.750000
vt 1.000000 0.791667
vt 0.000000 0.791667
vt 1.000000 0.833333
vt 0.000000 0.833333
vt 1.000000 0.875000
vt 0.000000 0.875000
vt 1.000000 0.916667
vt 0.000000 0.916667
vt 1.000000 0.958333
vt 0.000000 0.958333
vt 1.000000 1.000000
vt 0.000000 1.000000
s 0
usemtl VineMat
f 896/904/461 897/905/461 899/906/461 898/907/461
f 898/907/462 899/906/462 901/908/462 900/909/462
f 900/909/463 901/908/463 903/910/463 902/911/463
f 902/911/464 903/910/464 905/912/464 904/913/464
f 904/913/465 905/912/465 907/914/465 906/915/465
f 906/915/466 907/914/466 909/916/466 908/917/466
f 908/917/467 909/916/467 911/918/467 910/919/467
f 910/919/468 911/918/468 913/920/468 912/921/468
f 912/921/469 913/920/469 915/922/469 914/923/469
f 914/923/470 915/922/470 917/924/470 916/925/470
f 916/925/471 917/924/471 919/926/471 918/927/471
f 918/927/472 919/926/472 921/928/472 920/929/472
f 920/929/473 921/928/473 923/930/473 922/931/473
f 922/931/474 923/930/474 925/932/474 924/933/474
f 924/933/475 925/932/475 927/934/475 926/935/475
f 926/935/476 927/934/476 929/936/476 928/937/476
f 928/937/477 929/936/477 931/938/477 930/939/477
f 930/939/478 931/938/478 933/940/478 932/941/478
f 932/941/479 933/940/479 935/942/479 934/943/479
f 934/943/480 935/942/480 937/944/480 936/945/480
f 936/945/481 937/944/481 939/946/481 938/947/481
f 938/947/482 939/946/482 941/948/482 940/949/482
f 940/949/483 941/948/483 943/950/483 942/951/483
f 942/951/484 943/950/484 945/952/484 944/953/484
