{
	"asset":{
		"generator":"Khronos glTF Blender I/O v5.1.19",
		"version":"2.0"
	},
	"scene":0,
	"scenes":[
		{
			"name":"Scene",
			"nodes":[
				14
			]
		}
	],
	"nodes":[
		{
			"name":"Sapscrap_Bone_Mouth",
			"rotation":[
				1.1520229037387253e-07,
				-0.7071069478988647,
				-0.7071065902709961,
				2.219725274699158e-07
			],
			"translation":[
				4.5298705231289205e-08,
				0.39000001549720764,
				0.299999862909317
			]
		},
		{
			"name":"Sapscrap_Bone_Hand_L",
			"rotation":[
				-0.32691437005996704,
				0.4268167316913605,
				-0.16936086118221283,
				0.8259972333908081
			],
			"scale":[
				1,
				0.9999999403953552,
				0.9999998807907104
			],
			"translation":[
				5.960464477539063e-08,
				0.40360990166664124,
				-8.940696716308594e-08
			]
		},
		{
			"children":[
				1
			],
			"name":"Sapscrap_Bone_Arm_L",
			"rotation":[
				-0.8292908668518066,
				0.39188167452812195,
				0.3918817341327667,
				0.07165272533893585
			],
			"scale":[
				0.9999998807907104,
				0.9999999403953552,
				0.9999999403953552
			],
			"translation":[
				-0.2849998474121094,
				0.37900006771087646,
				0.2779998779296875
			]
		},
		{
			"name":"Sapscrap_Bone_Hand_R",
			"rotation":[
				-0.3269144892692566,
				-0.4268167316913605,
				0.16936095058918,
				0.8259971737861633
			],
			"scale":[
				1.0000001192092896,
				1.000000238418579,
				1
			],
			"translation":[
				-1.4901161193847656e-08,
				0.4036099910736084,
				1.471489667892456e-07
			]
		},
		{
			"children":[
				3
			],
			"name":"Sapscrap_Bone_Arm_R",
			"rotation":[
				-0.8292908668518066,
				-0.3918817341327667,
				-0.39188167452812195,
				0.0716528370976448
			],
			"scale":[
				1.0000001192092896,
				1,
				1
			],
			"translation":[
				0.2849997878074646,
				0.3790000081062317,
				0.27799978852272034
			]
		},
		{
			"name":"Sapscrap_Bone_HornClaw",
			"rotation":[
				0.11538882553577423,
				3.3990059478128387e-07,
				-3.819502580881817e-08,
				0.9933204054832458
			],
			"translation":[
				-3.542229443792566e-14,
				0.44162285327911377,
				-1.4901161193847656e-08
			]
		},
		{
			"children":[
				5
			],
			"name":"Sapscrap_Bone_Horn",
			"rotation":[
				0.6342675089836121,
				-2.0186077165362803e-07,
				-2.6137959707739356e-07,
				0.7731136679649353
			],
			"translation":[
				-3.338407328357107e-09,
				0.7487026453018188,
				-0.022109322249889374
			]
		},
		{
			"children":[
				0,
				2,
				4,
				6
			],
			"name":"Sapscrap_Bone_Body",
			"rotation":[
				5.3385068810030134e-08,
				0.70710688829422,
				0.7071066498756409,
				5.338507946817117e-08
			],
			"translation":[
				0,
				0.19999994337558746,
				0
			]
		},
		{
			"children":[
				7
			],
			"name":"Sapscrap_Anchor",
			"rotation":[
				0,
				0.7071067690849304,
				0.7071067690849304,
				0
			],
			"translation":[
				0,
				0.019999999552965164,
				-0.25
			]
		},
		{
			"mesh":0,
			"name":"Sapscrap_Mouth_Ring",
			"skin":0
		},
		{
			"mesh":1,
			"name":"Sapscrap_MouthVoid",
			"skin":0
		},
		{
			"mesh":2,
			"name":"Sapscrap_Segment_Shell",
			"skin":0
		},
		{
			"mesh":3,
			"name":"Sapscrap_Teeth",
			"skin":0
		},
		{
			"children":[
				9,
				10,
				11,
				12,
				8
			],
			"name":"Sapscrap_Rig"
		},
		{
			"children":[
				13
			],
			"name":"SapscrapRoot",
			"translation":[
				0,
				0,
				0.30000001192092896
			]
		}
	],
	"animations":[
		{
			"channels":[
				{
					"sampler":0,
					"target":{
						"node":8,
						"path":"translation"
					}
				},
				{
					"sampler":1,
					"target":{
						"node":8,
						"path":"rotation"
					}
				},
				{
					"sampler":2,
					"target":{
						"node":8,
						"path":"scale"
					}
				},
				{
					"sampler":3,
					"target":{
						"node":7,
						"path":"translation"
					}
				},
				{
					"sampler":4,
					"target":{
						"node":7,
						"path":"rotation"
					}
				},
				{
					"sampler":5,
					"target":{
						"node":7,
						"path":"scale"
					}
				},
				{
					"sampler":6,
					"target":{
						"node":0,
						"path":"translation"
					}
				},
				{
					"sampler":7,
					"target":{
						"node":0,
						"path":"rotation"
					}
				},
				{
					"sampler":8,
					"target":{
						"node":0,
						"path":"scale"
					}
				},
				{
					"sampler":9,
					"target":{
						"node":2,
						"path":"translation"
					}
				},
				{
					"sampler":10,
					"target":{
						"node":2,
						"path":"rotation"
					}
				},
				{
					"sampler":11,
					"target":{
						"node":2,
						"path":"scale"
					}
				},
				{
					"sampler":12,
					"target":{
						"node":1,
						"path":"translation"
					}
				},
				{
					"sampler":13,
					"target":{
						"node":1,
						"path":"rotation"
					}
				},
				{
					"sampler":14,
					"target":{
						"node":1,
						"path":"scale"
					}
				},
				{
					"sampler":15,
					"target":{
						"node":4,
						"path":"translation"
					}
				},
				{
					"sampler":16,
					"target":{
						"node":4,
						"path":"rotation"
					}
				},
				{
					"sampler":17,
					"target":{
						"node":4,
						"path":"scale"
					}
				},
				{
					"sampler":18,
					"target":{
						"node":3,
						"path":"translation"
					}
				},
				{
					"sampler":19,
					"target":{
						"node":3,
						"path":"rotation"
					}
				},
				{
					"sampler":20,
					"target":{
						"node":3,
						"path":"scale"
					}
				},
				{
					"sampler":21,
					"target":{
						"node":6,
						"path":"translation"
					}
				},
				{
					"sampler":22,
					"target":{
						"node":6,
						"path":"rotation"
					}
				},
				{
					"sampler":23,
					"target":{
						"node":6,
						"path":"scale"
					}
				},
				{
					"sampler":24,
					"target":{
						"node":5,
						"path":"translation"
					}
				},
				{
					"sampler":25,
					"target":{
						"node":5,
						"path":"rotation"
					}
				},
				{
					"sampler":26,
					"target":{
						"node":5,
						"path":"scale"
					}
				}
			],
			"name":"Sapscrap_Bite",
			"samplers":[
				{
					"input":33,
					"interpolation":"STEP",
					"output":34
				},
				{
					"input":33,
					"interpolation":"STEP",
					"output":35
				},
				{
					"input":33,
					"interpolation":"STEP",
					"output":36
				},
				{
					"input":37,
					"interpolation":"LINEAR",
					"output":38
				},
				{
					"input":37,
					"interpolation":"LINEAR",
					"output":39
				},
				{
					"input":37,
					"interpolation":"LINEAR",
					"output":40
				},
				{
					"input":37,
					"interpolation":"LINEAR",
					"output":41
				},
				{
					"input":33,
					"interpolation":"LINEAR",
					"output":42
				},
				{
					"input":33,
					"interpolation":"LINEAR",
					"output":43
				},
				{
					"input":33,
					"interpolation":"LINEAR",
					"output":44
				},
				{
					"input":37,
					"interpolation":"LINEAR",
					"output":45
				},
				{
					"input":33,
					"interpolation":"STEP",
					"output":46
				},
				{
					"input":33,
					"interpolation":"LINEAR",
					"output":47
				},
				{
					"input":37,
					"interpolation":"LINEAR",
					"output":48
				},
				{
					"input":33,
					"interpolation":"LINEAR",
					"output":49
				},
				{
					"input":33,
					"interpolation":"LINEAR",
					"output":50
				},
				{
					"input":37,
					"interpolation":"LINEAR",
					"output":51
				},
				{
					"input":33,
					"interpolation":"LINEAR",
					"output":52
				},
				{
					"input":33,
					"interpolation":"LINEAR",
					"output":53
				},
				{
					"input":37,
					"interpolation":"LINEAR",
					"output":54
				},
				{
					"input":33,
					"interpolation":"LINEAR",
					"output":55
				},
				{
					"input":33,
					"interpolation":"LINEAR",
					"output":56
				},
				{
					"input":37,
					"interpolation":"LINEAR",
					"output":57
				},
				{
					"input":33,
					"interpolation":"STEP",
					"output":36
				},
				{
					"input":33,
					"interpolation":"LINEAR",
					"output":58
				},
				{
					"input":37,
					"interpolation":"LINEAR",
					"output":59
				},
				{
					"input":33,
					"interpolation":"LINEAR",
					"output":60
				}
			]
		},
		{
			"channels":[
				{
					"sampler":0,
					"target":{
						"node":8,
						"path":"translation"
					}
				},
				{
					"sampler":1,
					"target":{
						"node":8,
						"path":"rotation"
					}
				},
				{
					"sampler":2,
					"target":{
						"node":8,
						"path":"scale"
					}
				},
				{
					"sampler":3,
					"target":{
						"node":7,
						"path":"translation"
					}
				},
				{
					"sampler":4,
					"target":{
						"node":7,
						"path":"rotation"
					}
				},
				{
					"sampler":5,
					"target":{
						"node":7,
						"path":"scale"
					}
				},
				{
					"sampler":6,
					"target":{
						"node":0,
						"path":"translation"
					}
				},
				{
					"sampler":7,
					"target":{
						"node":0,
						"path":"rotation"
					}
				},
				{
					"sampler":8,
					"target":{
						"node":0,
						"path":"scale"
					}
				},
				{
					"sampler":9,
					"target":{
						"node":2,
						"path":"translation"
					}
				},
				{
					"sampler":10,
					"target":{
						"node":2,
						"path":"rotation"
					}
				},
				{
					"sampler":11,
					"target":{
						"node":2,
						"path":"scale"
					}
				},
				{
					"sampler":12,
					"target":{
						"node":1,
						"path":"translation"
					}
				},
				{
					"sampler":13,
					"target":{
						"node":1,
						"path":"rotation"
					}
				},
				{
					"sampler":14,
					"target":{
						"node":1,
						"path":"scale"
					}
				},
				{
					"sampler":15,
					"target":{
						"node":4,
						"path":"translation"
					}
				},
				{
					"sampler":16,
					"target":{
						"node":4,
						"path":"rotation"
					}
				},
				{
					"sampler":17,
					"target":{
						"node":4,
						"path":"scale"
					}
				},
				{
					"sampler":18,
					"target":{
						"node":3,
						"path":"translation"
					}
				},
				{
					"sampler":19,
					"target":{
						"node":3,
						"path":"rotation"
					}
				},
				{
					"sampler":20,
					"target":{
						"node":3,
						"path":"scale"
					}
				},
				{
					"sampler":21,
					"target":{
						"node":6,
						"path":"translation"
					}
				},
				{
					"sampler":22,
					"target":{
						"node":6,
						"path":"rotation"
					}
				},
				{
					"sampler":23,
					"target":{
						"node":6,
						"path":"scale"
					}
				},
				{
					"sampler":24,
					"target":{
						"node":5,
						"path":"translation"
					}
				},
				{
					"sampler":25,
					"target":{
						"node":5,
						"path":"rotation"
					}
				},
				{
					"sampler":26,
					"target":{
						"node":5,
						"path":"scale"
					}
				}
			],
			"name":"Sapscrap_Idle",
			"samplers":[
				{
					"input":61,
					"interpolation":"STEP",
					"output":34
				},
				{
					"input":61,
					"interpolation":"STEP",
					"output":35
				},
				{
					"input":61,
					"interpolation":"STEP",
					"output":36
				},
				{
					"input":62,
					"interpolation":"LINEAR",
					"output":63
				},
				{
					"input":61,
					"interpolation":"STEP",
					"output":64
				},
				{
					"input":62,
					"interpolation":"LINEAR",
					"output":65
				},
				{
					"input":62,
					"interpolation":"LINEAR",
					"output":66
				},
				{
					"input":61,
					"interpolation":"STEP",
					"output":67
				},
				{
					"input":61,
					"interpolation":"STEP",
					"output":36
				},
				{
					"input":61,
					"interpolation":"STEP",
					"output":68
				},
				{
					"input":62,
					"interpolation":"LINEAR",
					"output":69
				},
				{
					"input":61,
					"interpolation":"STEP",
					"output":70
				},
				{
					"input":61,
					"interpolation":"STEP",
					"output":71
				},
				{
					"input":62,
					"interpolation":"LINEAR",
					"output":72
				},
				{
					"input":61,
					"interpolation":"STEP",
					"output":73
				},
				{
					"input":61,
					"interpolation":"STEP",
					"output":74
				},
				{
					"input":62,
					"interpolation":"LINEAR",
					"output":75
				},
				{
					"input":61,
					"interpolation":"STEP",
					"output":76
				},
				{
					"input":61,
					"interpolation":"STEP",
					"output":77
				},
				{
					"input":62,
					"interpolation":"LINEAR",
					"output":78
				},
				{
					"input":61,
					"interpolation":"STEP",
					"output":79
				},
				{
					"input":61,
					"interpolation":"STEP",
					"output":80
				},
				{
					"input":61,
					"interpolation":"STEP",
					"output":81
				},
				{
					"input":61,
					"interpolation":"STEP",
					"output":36
				},
				{
					"input":61,
					"interpolation":"STEP",
					"output":82
				},
				{
					"input":62,
					"interpolation":"LINEAR",
					"output":83
				},
				{
					"input":61,
					"interpolation":"STEP",
					"output":84
				}
			]
		},
		{
			"channels":[
				{
					"sampler":0,
					"target":{
						"node":8,
						"path":"translation"
					}
				},
				{
					"sampler":1,
					"target":{
						"node":8,
						"path":"rotation"
					}
				},
				{
					"sampler":2,
					"target":{
						"node":8,
						"path":"scale"
					}
				},
				{
					"sampler":3,
					"target":{
						"node":7,
						"path":"translation"
					}
				},
				{
					"sampler":4,
					"target":{
						"node":7,
						"path":"rotation"
					}
				},
				{
					"sampler":5,
					"target":{
						"node":7,
						"path":"scale"
					}
				},
				{
					"sampler":6,
					"target":{
						"node":0,
						"path":"translation"
					}
				},
				{
					"sampler":7,
					"target":{
						"node":0,
						"path":"rotation"
					}
				},
				{
					"sampler":8,
					"target":{
						"node":0,
						"path":"scale"
					}
				},
				{
					"sampler":9,
					"target":{
						"node":2,
						"path":"translation"
					}
				},
				{
					"sampler":10,
					"target":{
						"node":2,
						"path":"rotation"
					}
				},
				{
					"sampler":11,
					"target":{
						"node":2,
						"path":"scale"
					}
				},
				{
					"sampler":12,
					"target":{
						"node":1,
						"path":"translation"
					}
				},
				{
					"sampler":13,
					"target":{
						"node":1,
						"path":"rotation"
					}
				},
				{
					"sampler":14,
					"target":{
						"node":1,
						"path":"scale"
					}
				},
				{
					"sampler":15,
					"target":{
						"node":4,
						"path":"translation"
					}
				},
				{
					"sampler":16,
					"target":{
						"node":4,
						"path":"rotation"
					}
				},
				{
					"sampler":17,
					"target":{
						"node":4,
						"path":"scale"
					}
				},
				{
					"sampler":18,
					"target":{
						"node":3,
						"path":"translation"
					}
				},
				{
					"sampler":19,
					"target":{
						"node":3,
						"path":"rotation"
					}
				},
				{
					"sampler":20,
					"target":{
						"node":3,
						"path":"scale"
					}
				},
				{
					"sampler":21,
					"target":{
						"node":6,
						"path":"translation"
					}
				},
				{
					"sampler":22,
					"target":{
						"node":6,
						"path":"rotation"
					}
				},
				{
					"sampler":23,
					"target":{
						"node":6,
						"path":"scale"
					}
				},
				{
					"sampler":24,
					"target":{
						"node":5,
						"path":"translation"
					}
				},
				{
					"sampler":25,
					"target":{
						"node":5,
						"path":"rotation"
					}
				},
				{
					"sampler":26,
					"target":{
						"node":5,
						"path":"scale"
					}
				}
			],
			"name":"Sapscrap_Lunge",
			"samplers":[
				{
					"input":85,
					"interpolation":"STEP",
					"output":34
				},
				{
					"input":85,
					"interpolation":"STEP",
					"output":35
				},
				{
					"input":85,
					"interpolation":"STEP",
					"output":36
				},
				{
					"input":86,
					"interpolation":"LINEAR",
					"output":87
				},
				{
					"input":86,
					"interpolation":"LINEAR",
					"output":88
				},
				{
					"input":86,
					"interpolation":"LINEAR",
					"output":89
				},
				{
					"input":86,
					"interpolation":"LINEAR",
					"output":90
				},
				{
					"input":85,
					"interpolation":"LINEAR",
					"output":91
				},
				{
					"input":85,
					"interpolation":"LINEAR",
					"output":92
				},
				{
					"input":85,
					"interpolation":"LINEAR",
					"output":93
				},
				{
					"input":86,
					"interpolation":"LINEAR",
					"output":94
				},
				{
					"input":85,
					"interpolation":"LINEAR",
					"output":95
				},
				{
					"input":85,
					"interpolation":"LINEAR",
					"output":96
				},
				{
					"input":86,
					"interpolation":"LINEAR",
					"output":97
				},
				{
					"input":85,
					"interpolation":"STEP",
					"output":98
				},
				{
					"input":85,
					"interpolation":"LINEAR",
					"output":99
				},
				{
					"input":86,
					"interpolation":"LINEAR",
					"output":100
				},
				{
					"input":85,
					"interpolation":"LINEAR",
					"output":101
				},
				{
					"input":85,
					"interpolation":"LINEAR",
					"output":102
				},
				{
					"input":86,
					"interpolation":"LINEAR",
					"output":103
				},
				{
					"input":85,
					"interpolation":"LINEAR",
					"output":104
				},
				{
					"input":85,
					"interpolation":"LINEAR",
					"output":105
				},
				{
					"input":86,
					"interpolation":"LINEAR",
					"output":106
				},
				{
					"input":85,
					"interpolation":"STEP",
					"output":107
				},
				{
					"input":85,
					"interpolation":"LINEAR",
					"output":108
				},
				{
					"input":86,
					"interpolation":"LINEAR",
					"output":109
				},
				{
					"input":85,
					"interpolation":"LINEAR",
					"output":110
				}
			]
		},
		{
			"channels":[
				{
					"sampler":0,
					"target":{
						"node":8,
						"path":"translation"
					}
				},
				{
					"sampler":1,
					"target":{
						"node":8,
						"path":"rotation"
					}
				},
				{
					"sampler":2,
					"target":{
						"node":8,
						"path":"scale"
					}
				},
				{
					"sampler":3,
					"target":{
						"node":7,
						"path":"translation"
					}
				},
				{
					"sampler":4,
					"target":{
						"node":7,
						"path":"rotation"
					}
				},
				{
					"sampler":5,
					"target":{
						"node":7,
						"path":"scale"
					}
				},
				{
					"sampler":6,
					"target":{
						"node":0,
						"path":"translation"
					}
				},
				{
					"sampler":7,
					"target":{
						"node":0,
						"path":"rotation"
					}
				},
				{
					"sampler":8,
					"target":{
						"node":0,
						"path":"scale"
					}
				},
				{
					"sampler":9,
					"target":{
						"node":2,
						"path":"translation"
					}
				},
				{
					"sampler":10,
					"target":{
						"node":2,
						"path":"rotation"
					}
				},
				{
					"sampler":11,
					"target":{
						"node":2,
						"path":"scale"
					}
				},
				{
					"sampler":12,
					"target":{
						"node":1,
						"path":"translation"
					}
				},
				{
					"sampler":13,
					"target":{
						"node":1,
						"path":"rotation"
					}
				},
				{
					"sampler":14,
					"target":{
						"node":1,
						"path":"scale"
					}
				},
				{
					"sampler":15,
					"target":{
						"node":4,
						"path":"translation"
					}
				},
				{
					"sampler":16,
					"target":{
						"node":4,
						"path":"rotation"
					}
				},
				{
					"sampler":17,
					"target":{
						"node":4,
						"path":"scale"
					}
				},
				{
					"sampler":18,
					"target":{
						"node":3,
						"path":"translation"
					}
				},
				{
					"sampler":19,
					"target":{
						"node":3,
						"path":"rotation"
					}
				},
				{
					"sampler":20,
					"target":{
						"node":3,
						"path":"scale"
					}
				},
				{
					"sampler":21,
					"target":{
						"node":6,
						"path":"translation"
					}
				},
				{
					"sampler":22,
					"target":{
						"node":6,
						"path":"rotation"
					}
				},
				{
					"sampler":23,
					"target":{
						"node":6,
						"path":"scale"
					}
				},
				{
					"sampler":24,
					"target":{
						"node":5,
						"path":"translation"
					}
				},
				{
					"sampler":25,
					"target":{
						"node":5,
						"path":"rotation"
					}
				},
				{
					"sampler":26,
					"target":{
						"node":5,
						"path":"scale"
					}
				}
			],
			"name":"Sapscrap_Windup",
			"samplers":[
				{
					"input":85,
					"interpolation":"STEP",
					"output":34
				},
				{
					"input":85,
					"interpolation":"STEP",
					"output":35
				},
				{
					"input":85,
					"interpolation":"STEP",
					"output":36
				},
				{
					"input":86,
					"interpolation":"LINEAR",
					"output":111
				},
				{
					"input":86,
					"interpolation":"LINEAR",
					"output":112
				},
				{
					"input":86,
					"interpolation":"LINEAR",
					"output":113
				},
				{
					"input":86,
					"interpolation":"LINEAR",
					"output":114
				},
				{
					"input":85,
					"interpolation":"LINEAR",
					"output":115
				},
				{
					"input":85,
					"interpolation":"STEP",
					"output":36
				},
				{
					"input":85,
					"interpolation":"LINEAR",
					"output":116
				},
				{
					"input":86,
					"interpolation":"LINEAR",
					"output":117
				},
				{
					"input":85,
					"interpolation":"STEP",
					"output":118
				},
				{
					"input":85,
					"interpolation":"LINEAR",
					"output":119
				},
				{
					"input":86,
					"interpolation":"LINEAR",
					"output":120
				},
				{
					"input":85,
					"interpolation":"LINEAR",
					"output":121
				},
				{
					"input":85,
					"interpolation":"LINEAR",
					"output":122
				},
				{
					"input":86,
					"interpolation":"LINEAR",
					"output":123
				},
				{
					"input":85,
					"interpolation":"LINEAR",
					"output":124
				},
				{
					"input":85,
					"interpolation":"LINEAR",
					"output":125
				},
				{
					"input":86,
					"interpolation":"LINEAR",
					"output":126
				},
				{
					"input":85,
					"interpolation":"LINEAR",
					"output":127
				},
				{
					"input":85,
					"interpolation":"LINEAR",
					"output":128
				},
				{
					"input":86,
					"interpolation":"LINEAR",
					"output":129
				},
				{
					"input":85,
					"interpolation":"STEP",
					"output":130
				},
				{
					"input":85,
					"interpolation":"LINEAR",
					"output":131
				},
				{
					"input":86,
					"interpolation":"LINEAR",
					"output":132
				},
				{
					"input":85,
					"interpolation":"STEP",
					"output":133
				}
			]
		}
	],
	"materials":[
		{
			"doubleSided":true,
			"name":"SapscrapShell",
			"pbrMetallicRoughness":{
				"baseColorTexture":{
					"index":0
				},
				"metallicFactor":0,
				"roughnessFactor":0.8199999928474426
			}
		},
		{
			"doubleSided":true,
			"name":"SapscrapMouthVoid",
			"pbrMetallicRoughness":{
				"baseColorTexture":{
					"index":1
				},
				"metallicFactor":0,
				"roughnessFactor":0.8199999928474426
			}
		},
		{
			"doubleSided":true,
			"name":"SapscrapClaw",
			"pbrMetallicRoughness":{
				"baseColorTexture":{
					"index":2
				},
				"metallicFactor":0,
				"roughnessFactor":0.8199999928474426
			}
		}
	],
	"meshes":[
		{
			"name":"Sapscrap_Mouth_Ring",
			"primitives":[
				{
					"attributes":{
						"POSITION":0,
						"NORMAL":1,
						"TEXCOORD_0":2,
						"JOINTS_0":3,
						"WEIGHTS_0":4
					},
					"indices":5,
					"material":0
				}
			]
		},
		{
			"name":"Sapscrap_MouthVoid",
			"primitives":[
				{
					"attributes":{
						"POSITION":7,
						"NORMAL":8,
						"TEXCOORD_0":9,
						"JOINTS_0":10,
						"WEIGHTS_0":11
					},
					"indices":12,
					"material":1
				}
			]
		},
		{
			"name":"Sapscrap_Segment_Shell.002",
			"primitives":[
				{
					"attributes":{
						"POSITION":13,
						"NORMAL":14,
						"TEXCOORD_0":15,
						"TEXCOORD_1":16,
						"JOINTS_0":17,
						"WEIGHTS_0":18
					},
					"indices":19,
					"material":0
				},
				{
					"attributes":{
						"POSITION":20,
						"NORMAL":21,
						"TEXCOORD_0":22,
						"TEXCOORD_1":23,
						"JOINTS_0":24,
						"WEIGHTS_0":25
					},
					"indices":26,
					"material":1
				}
			]
		},
		{
			"name":"Sapscrap_Teeth",
			"primitives":[
				{
					"attributes":{
						"POSITION":27,
						"NORMAL":28,
						"TEXCOORD_0":29,
						"JOINTS_0":30,
						"WEIGHTS_0":31
					},
					"indices":32,
					"material":2
				}
			]
		}
	],
	"textures":[
		{
			"sampler":0,
			"source":0
		},
		{
			"sampler":0,
			"source":1
		},
		{
			"sampler":0,
			"source":2
		}
	],
	"images":[
		{
			"mimeType":"image/png",
			"name":"sapscrap_shell",
			"uri":"sapscrap_shell.png"
		},
		{
			"mimeType":"image/png",
			"name":"sapscrap_mouth",
			"uri":"sapscrap_mouth.png"
		},
		{
			"mimeType":"image/png",
			"name":"sapscrap_claw",
			"uri":"sapscrap_claw.png"
		}
	],
	"skins":[
		{
			"inverseBindMatrices":6,
			"joints":[
				8,
				7,
				0,
				2,
				1,
				4,
				3,
				6,
				5
			],
			"name":"Sapscrap_Rig"
		}
	],
	"accessors":[
		{
			"bufferView":0,
			"componentType":5126,
			"count":832,
			"max":[
				0.27979615330696106,
				0.7013970613479614,
				0.714937686920166
			],
			"min":[
				-0.2882576286792755,
				0.15726763010025024,
				0.5886856317520142
			],
			"type":"VEC3"
		},
		{
			"bufferView":1,
			"componentType":5126,
			"count":832,
			"type":"VEC3"
		},
		{
			"bufferView":2,
			"componentType":5126,
			"count":832,
			"type":"VEC2"
		},
		{
			"bufferView":3,
			"componentType":5121,
			"count":832,
			"type":"VEC4"
		},
		{
			"bufferView":4,
			"componentType":5126,
			"count":832,
			"type":"VEC4"
		},
		{
			"bufferView":5,
			"componentType":5123,
			"count":1248,
			"type":"SCALAR"
		},
		{
			"bufferView":6,
			"componentType":5126,
			"count":9,
			"type":"MAT4"
		},
		{
			"bufferView":7,
			"componentType":5126,
			"count":26,
			"max":[
				0.056584395468235016,
				0.4702499210834503,
				0.17584018409252167
			],
			"min":[
				-0.056584395468235016,
				0.35624992847442627,
				0.17584016919136047
			],
			"type":"VEC3"
		},
		{
			"bufferView":8,
			"componentType":5126,
			"count":26,
			"type":"VEC3"
		},
		{
			"bufferView":9,
			"componentType":5126,
			"count":26,
			"type":"VEC2"
		},
		{
			"bufferView":10,
			"componentType":5121,
			"count":26,
			"type":"VEC4"
		},
		{
			"bufferView":11,
			"componentType":5126,
			"count":26,
			"type":"VEC4"
		},
		{
			"bufferView":12,
			"componentType":5123,
			"count":72,
			"type":"SCALAR"
		},
		{
			"bufferView":13,
			"componentType":5126,
			"count":1549,
			"max":[
				0.7044528126716614,
				0.9745475053787231,
				0.8843389749526978
			],
			"min":[
				-0.7013679146766663,
				-9.072057594039507e-08,
				-0.1905321478843689
			],
			"type":"VEC3"
		},
		{
			"bufferView":14,
			"componentType":5126,
			"count":1549,
			"type":"VEC3"
		},
		{
			"bufferView":15,
			"componentType":5126,
			"count":1549,
			"type":"VEC2"
		},
		{
			"bufferView":16,
			"componentType":5126,
			"count":1549,
			"type":"VEC2"
		},
		{
			"bufferView":17,
			"componentType":5121,
			"count":1549,
			"type":"VEC4"
		},
		{
			"bufferView":18,
			"componentType":5126,
			"count":1549,
			"type":"VEC4"
		},
		{
			"bufferView":19,
			"componentType":5123,
			"count":2382,
			"type":"SCALAR"
		},
		{
			"bufferView":20,
			"componentType":5126,
			"count":291,
			"max":[
				0.3016984164714813,
				0.6644008159637451,
				0.7217580676078796
			],
			"min":[
				-0.2941625118255615,
				0.11660133302211761,
				0.2043401300907135
			],
			"type":"VEC3"
		},
		{
			"bufferView":21,
			"componentType":5126,
			"count":291,
			"type":"VEC3"
		},
		{
			"bufferView":22,
			"componentType":5126,
			"count":291,
			"type":"VEC2"
		},
		{
			"bufferView":23,
			"componentType":5126,
			"count":291,
			"type":"VEC2"
		},
		{
			"bufferView":24,
			"componentType":5121,
			"count":291,
			"type":"VEC4"
		},
		{
			"bufferView":25,
			"componentType":5126,
			"count":291,
			"type":"VEC4"
		},
		{
			"bufferView":26,
			"componentType":5123,
			"count":510,
			"type":"SCALAR"
		},
		{
			"bufferView":27,
			"componentType":5126,
			"count":999,
			"max":[
				0.22193241119384766,
				0.6422184705734253,
				0.8119934797286987
			],
			"min":[
				-0.22418883442878723,
				0.1887005716562271,
				0.706135630607605
			],
			"type":"VEC3"
		},
		{
			"bufferView":28,
			"componentType":5126,
			"count":999,
			"type":"VEC3"
		},
		{
			"bufferView":29,
			"componentType":5126,
			"count":999,
			"type":"VEC2"
		},
		{
			"bufferView":30,
			"componentType":5121,
			"count":999,
			"type":"VEC4"
		},
		{
			"bufferView":31,
			"componentType":5126,
			"count":999,
			"type":"VEC4"
		},
		{
			"bufferView":32,
			"componentType":5123,
			"count":1560,
			"type":"SCALAR"
		},
		{
			"bufferView":33,
			"componentType":5126,
			"count":2,
			"max":[
				0.9166666666666666
			],
			"min":[
				0.041666666666666664
			],
			"type":"SCALAR"
		},
		{
			"bufferView":34,
			"componentType":5126,
			"count":2,
			"type":"VEC3"
		},
		{
			"bufferView":35,
			"componentType":5126,
			"count":2,
			"type":"VEC4"
		},
		{
			"bufferView":36,
			"componentType":5126,
			"count":2,
			"type":"VEC3"
		},
		{
			"bufferView":37,
			"componentType":5126,
			"count":22,
			"max":[
				0.9166666666666666
			],
			"min":[
				0.041666666666666664
			],
			"type":"SCALAR"
		},
		{
			"bufferView":38,
			"componentType":5126,
			"count":22,
			"type":"VEC3"
		},
		{
			"bufferView":39,
			"componentType":5126,
			"count":22,
			"type":"VEC4"
		},
		{
			"bufferView":40,
			"componentType":5126,
			"count":22,
			"type":"VEC3"
		},
		{
			"bufferView":41,
			"componentType":5126,
			"count":22,
			"type":"VEC3"
		},
		{
			"bufferView":42,
			"componentType":5126,
			"count":2,
			"type":"VEC4"
		},
		{
			"bufferView":43,
			"componentType":5126,
			"count":2,
			"type":"VEC3"
		},
		{
			"bufferView":44,
			"componentType":5126,
			"count":2,
			"type":"VEC3"
		},
		{
			"bufferView":45,
			"componentType":5126,
			"count":22,
			"type":"VEC4"
		},
		{
			"bufferView":46,
			"componentType":5126,
			"count":2,
			"type":"VEC3"
		},
		{
			"bufferView":47,
			"componentType":5126,
			"count":2,
			"type":"VEC3"
		},
		{
			"bufferView":48,
			"componentType":5126,
			"count":22,
			"type":"VEC4"
		},
		{
			"bufferView":49,
			"componentType":5126,
			"count":2,
			"type":"VEC3"
		},
		{
			"bufferView":50,
			"componentType":5126,
			"count":2,
			"type":"VEC3"
		},
		{
			"bufferView":51,
			"componentType":5126,
			"count":22,
			"type":"VEC4"
		},
		{
			"bufferView":52,
			"componentType":5126,
			"count":2,
			"type":"VEC3"
		},
		{
			"bufferView":53,
			"componentType":5126,
			"count":2,
			"type":"VEC3"
		},
		{
			"bufferView":54,
			"componentType":5126,
			"count":22,
			"type":"VEC4"
		},
		{
			"bufferView":55,
			"componentType":5126,
			"count":2,
			"type":"VEC3"
		},
		{
			"bufferView":56,
			"componentType":5126,
			"count":2,
			"type":"VEC3"
		},
		{
			"bufferView":57,
			"componentType":5126,
			"count":22,
			"type":"VEC4"
		},
		{
			"bufferView":58,
			"componentType":5126,
			"count":2,
			"type":"VEC3"
		},
		{
			"bufferView":59,
			"componentType":5126,
			"count":22,
			"type":"VEC4"
		},
		{
			"bufferView":60,
			"componentType":5126,
			"count":2,
			"type":"VEC3"
		},
		{
			"bufferView":61,
			"componentType":5126,
			"count":2,
			"max":[
				2.7083333333333335
			],
			"min":[
				0.041666666666666664
			],
			"type":"SCALAR"
		},
		{
			"bufferView":62,
			"componentType":5126,
			"count":65,
			"max":[
				2.7083333333333335
			],
			"min":[
				0.041666666666666664
			],
			"type":"SCALAR"
		},
		{
			"bufferView":63,
			"componentType":5126,
			"count":65,
			"type":"VEC3"
		},
		{
			"bufferView":64,
			"componentType":5126,
			"count":2,
			"type":"VEC4"
		},
		{
			"bufferView":65,
			"componentType":5126,
			"count":65,
			"type":"VEC3"
		},
		{
			"bufferView":66,
			"componentType":5126,
			"count":65,
			"type":"VEC3"
		},
		{
			"bufferView":67,
			"componentType":5126,
			"count":2,
			"type":"VEC4"
		},
		{
			"bufferView":68,
			"componentType":5126,
			"count":2,
			"type":"VEC3"
		},
		{
			"bufferView":69,
			"componentType":5126,
			"count":65,
			"type":"VEC4"
		},
		{
			"bufferView":70,
			"componentType":5126,
			"count":2,
			"type":"VEC3"
		},
		{
			"bufferView":71,
			"componentType":5126,
			"count":2,
			"type":"VEC3"
		},
		{
			"bufferView":72,
			"componentType":5126,
			"count":65,
			"type":"VEC4"
		},
		{
			"bufferView":73,
			"componentType":5126,
			"count":2,
			"type":"VEC3"
		},
		{
			"bufferView":74,
			"componentType":5126,
			"count":2,
			"type":"VEC3"
		},
		{
			"bufferView":75,
			"componentType":5126,
			"count":65,
			"type":"VEC4"
		},
		{
			"bufferView":76,
			"componentType":5126,
			"count":2,
			"type":"VEC3"
		},
		{
			"bufferView":77,
			"componentType":5126,
			"count":2,
			"type":"VEC3"
		},
		{
			"bufferView":78,
			"componentType":5126,
			"count":65,
			"type":"VEC4"
		},
		{
			"bufferView":79,
			"componentType":5126,
			"count":2,
			"type":"VEC3"
		},
		{
			"bufferView":80,
			"componentType":5126,
			"count":2,
			"type":"VEC3"
		},
		{
			"bufferView":81,
			"componentType":5126,
			"count":2,
			"type":"VEC4"
		},
		{
			"bufferView":82,
			"componentType":5126,
			"count":2,
			"type":"VEC3"
		},
		{
			"bufferView":83,
			"componentType":5126,
			"count":65,
			"type":"VEC4"
		},
		{
			"bufferView":84,
			"componentType":5126,
			"count":2,
			"type":"VEC3"
		},
		{
			"bufferView":85,
			"componentType":5126,
			"count":2,
			"max":[
				0.75
			],
			"min":[
				0.041666666666666664
			],
			"type":"SCALAR"
		},
		{
			"bufferView":86,
			"componentType":5126,
			"count":18,
			"max":[
				0.75
			],
			"min":[
				0.041666666666666664
			],
			"type":"SCALAR"
		},
		{
			"bufferView":87,
			"componentType":5126,
			"count":18,
			"type":"VEC3"
		},
		{
			"bufferView":88,
			"componentType":5126,
			"count":18,
			"type":"VEC4"
		},
		{
			"bufferView":89,
			"componentType":5126,
			"count":18,
			"type":"VEC3"
		},
		{
			"bufferView":90,
			"componentType":5126,
			"count":18,
			"type":"VEC3"
		},
		{
			"bufferView":91,
			"componentType":5126,
			"count":2,
			"type":"VEC4"
		},
		{
			"bufferView":92,
			"componentType":5126,
			"count":2,
			"type":"VEC3"
		},
		{
			"bufferView":93,
			"componentType":5126,
			"count":2,
			"type":"VEC3"
		},
		{
			"bufferView":94,
			"componentType":5126,
			"count":18,
			"type":"VEC4"
		},
		{
			"bufferView":95,
			"componentType":5126,
			"count":2,
			"type":"VEC3"
		},
		{
			"bufferView":96,
			"componentType":5126,
			"count":2,
			"type":"VEC3"
		},
		{
			"bufferView":97,
			"componentType":5126,
			"count":18,
			"type":"VEC4"
		},
		{
			"bufferView":98,
			"componentType":5126,
			"count":2,
			"type":"VEC3"
		},
		{
			"bufferView":99,
			"componentType":5126,
			"count":2,
			"type":"VEC3"
		},
		{
			"bufferView":100,
			"componentType":5126,
			"count":18,
			"type":"VEC4"
		},
		{
			"bufferView":101,
			"componentType":5126,
			"count":2,
			"type":"VEC3"
		},
		{
			"bufferView":102,
			"componentType":5126,
			"count":2,
			"type":"VEC3"
		},
		{
			"bufferView":103,
			"componentType":5126,
			"count":18,
			"type":"VEC4"
		},
		{
			"bufferView":104,
			"componentType":5126,
			"count":2,
			"type":"VEC3"
		},
		{
			"bufferView":105,
			"componentType":5126,
			"count":2,
			"type":"VEC3"
		},
		{
			"bufferView":106,
			"componentType":5126,
			"count":18,
			"type":"VEC4"
		},
		{
			"bufferView":107,
			"componentType":5126,
			"count":2,
			"type":"VEC3"
		},
		{
			"bufferView":108,
			"componentType":5126,
			"count":2,
			"type":"VEC3"
		},
		{
			"bufferView":109,
			"componentType":5126,
			"count":18,
			"type":"VEC4"
		},
		{
			"bufferView":110,
			"componentType":5126,
			"count":2,
			"type":"VEC3"
		},
		{
			"bufferView":111,
			"componentType":5126,
			"count":18,
			"type":"VEC3"
		},
		{
			"bufferView":112,
			"componentType":5126,
			"count":18,
			"type":"VEC4"
		},
		{
			"bufferView":113,
			"componentType":5126,
			"count":18,
			"type":"VEC3"
		},
		{
			"bufferView":114,
			"componentType":5126,
			"count":18,
			"type":"VEC3"
		},
		{
			"bufferView":115,
			"componentType":5126,
			"count":2,
			"type":"VEC4"
		},
		{
			"bufferView":116,
			"componentType":5126,
			"count":2,
			"type":"VEC3"
		},
		{
			"bufferView":117,
			"componentType":5126,
			"count":18,
			"type":"VEC4"
		},
		{
			"bufferView":118,
			"componentType":5126,
			"count":2,
			"type":"VEC3"
		},
		{
			"bufferView":119,
			"componentType":5126,
			"count":2,
			"type":"VEC3"
		},
		{
			"bufferView":120,
			"componentType":5126,
			"count":18,
			"type":"VEC4"
		},
		{
			"bufferView":121,
			"componentType":5126,
			"count":2,
			"type":"VEC3"
		},
		{
			"bufferView":122,
			"componentType":5126,
			"count":2,
			"type":"VEC3"
		},
		{
			"bufferView":123,
			"componentType":5126,
			"count":18,
			"type":"VEC4"
		},
		{
			"bufferView":124,
			"componentType":5126,
			"count":2,
			"type":"VEC3"
		},
		{
			"bufferView":125,
			"componentType":5126,
			"count":2,
			"type":"VEC3"
		},
		{
			"bufferView":126,
			"componentType":5126,
			"count":18,
			"type":"VEC4"
		},
		{
			"bufferView":127,
			"componentType":5126,
			"count":2,
			"type":"VEC3"
		},
		{
			"bufferView":128,
			"componentType":5126,
			"count":2,
			"type":"VEC3"
		},
		{
			"bufferView":129,
			"componentType":5126,
			"count":18,
			"type":"VEC4"
		},
		{
			"bufferView":130,
			"componentType":5126,
			"count":2,
			"type":"VEC3"
		},
		{
			"bufferView":131,
			"componentType":5126,
			"count":2,
			"type":"VEC3"
		},
		{
			"bufferView":132,
			"componentType":5126,
			"count":18,
			"type":"VEC4"
		},
		{
			"bufferView":133,
			"componentType":5126,
			"count":2,
			"type":"VEC3"
		}
	],
	"bufferViews":[
		{
			"buffer":0,
			"byteLength":9984,
			"byteOffset":0,
			"target":34962
		},
		{
			"buffer":0,
			"byteLength":9984,
			"byteOffset":9984,
			"target":34962
		},
		{
			"buffer":0,
			"byteLength":6656,
			"byteOffset":19968,
			"target":34962
		},
		{
			"buffer":0,
			"byteLength":3328,
			"byteOffset":26624,
			"target":34962
		},
		{
			"buffer":0,
			"byteLength":13312,
			"byteOffset":29952,
			"target":34962
		},
		{
			"buffer":0,
			"byteLength":2496,
			"byteOffset":43264,
			"target":34963
		},
		{
			"buffer":0,
			"byteLength":576,
			"byteOffset":45760
		},
		{
			"buffer":0,
			"byteLength":312,
			"byteOffset":46336,
			"target":34962
		},
		{
			"buffer":0,
			"byteLength":312,
			"byteOffset":46648,
			"target":34962
		},
		{
			"buffer":0,
			"byteLength":208,
			"byteOffset":46960,
			"target":34962
		},
		{
			"buffer":0,
			"byteLength":104,
			"byteOffset":47168,
			"target":34962
		},
		{
			"buffer":0,
			"byteLength":416,
			"byteOffset":47272,
			"target":34962
		},
		{
			"buffer":0,
			"byteLength":144,
			"byteOffset":47688,
			"target":34963
		},
		{
			"buffer":0,
			"byteLength":18588,
			"byteOffset":47832,
			"target":34962
		},
		{
			"buffer":0,
			"byteLength":18588,
			"byteOffset":66420,
			"target":34962
		},
		{
			"buffer":0,
			"byteLength":12392,
			"byteOffset":85008,
			"target":34962
		},
		{
			"buffer":0,
			"byteLength":12392,
			"byteOffset":97400,
			"target":34962
		},
		{
			"buffer":0,
			"byteLength":6196,
			"byteOffset":109792,
			"target":34962
		},
		{
			"buffer":0,
			"byteLength":24784,
			"byteOffset":115988,
			"target":34962
		},
		{
			"buffer":0,
			"byteLength":4764,
			"byteOffset":140772,
			"target":34963
		},
		{
			"buffer":0,
			"byteLength":3492,
			"byteOffset":145536,
			"target":34962
		},
		{
			"buffer":0,
			"byteLength":3492,
			"byteOffset":149028,
			"target":34962
		},
		{
			"buffer":0,
			"byteLength":2328,
			"byteOffset":152520,
			"target":34962
		},
		{
			"buffer":0,
			"byteLength":2328,
			"byteOffset":154848,
			"target":34962
		},
		{
			"buffer":0,
			"byteLength":1164,
			"byteOffset":157176,
			"target":34962
		},
		{
			"buffer":0,
			"byteLength":4656,
			"byteOffset":158340,
			"target":34962
		},
		{
			"buffer":0,
			"byteLength":1020,
			"byteOffset":162996,
			"target":34963
		},
		{
			"buffer":0,
			"byteLength":11988,
			"byteOffset":164016,
			"target":34962
		},
		{
			"buffer":0,
			"byteLength":11988,
			"byteOffset":176004,
			"target":34962
		},
		{
			"buffer":0,
			"byteLength":7992,
			"byteOffset":187992,
			"target":34962
		},
		{
			"buffer":0,
			"byteLength":3996,
			"byteOffset":195984,
			"target":34962
		},
		{
			"buffer":0,
			"byteLength":15984,
			"byteOffset":199980,
			"target":34962
		},
		{
			"buffer":0,
			"byteLength":3120,
			"byteOffset":215964,
			"target":34963
		},
		{
			"buffer":0,
			"byteLength":8,
			"byteOffset":219084
		},
		{
			"buffer":0,
			"byteLength":24,
			"byteOffset":219092
		},
		{
			"buffer":0,
			"byteLength":32,
			"byteOffset":219116
		},
		{
			"buffer":0,
			"byteLength":24,
			"byteOffset":219148
		},
		{
			"buffer":0,
			"byteLength":88,
			"byteOffset":219172
		},
		{
			"buffer":0,
			"byteLength":264,
			"byteOffset":219260
		},
		{
			"buffer":0,
			"byteLength":352,
			"byteOffset":219524
		},
		{
			"buffer":0,
			"byteLength":264,
			"byteOffset":219876
		},
		{
			"buffer":0,
			"byteLength":264,
			"byteOffset":220140
		},
		{
			"buffer":0,
			"byteLength":32,
			"byteOffset":220404
		},
		{
			"buffer":0,
			"byteLength":24,
			"byteOffset":220436
		},
		{
			"buffer":0,
			"byteLength":24,
			"byteOffset":220460
		},
		{
			"buffer":0,
			"byteLength":352,
			"byteOffset":220484
		},
		{
			"buffer":0,
			"byteLength":24,
			"byteOffset":220836
		},
		{
			"buffer":0,
			"byteLength":24,
			"byteOffset":220860
		},
		{
			"buffer":0,
			"byteLength":352,
			"byteOffset":220884
		},
		{
			"buffer":0,
			"byteLength":24,
			"byteOffset":221236
		},
		{
			"buffer":0,
			"byteLength":24,
			"byteOffset":221260
		},
		{
			"buffer":0,
			"byteLength":352,
			"byteOffset":221284
		},
		{
			"buffer":0,
			"byteLength":24,
			"byteOffset":221636
		},
		{
			"buffer":0,
			"byteLength":24,
			"byteOffset":221660
		},
		{
			"buffer":0,
			"byteLength":352,
			"byteOffset":221684
		},
		{
			"buffer":0,
			"byteLength":24,
			"byteOffset":222036
		},
		{
			"buffer":0,
			"byteLength":24,
			"byteOffset":222060
		},
		{
			"buffer":0,
			"byteLength":352,
			"byteOffset":222084
		},
		{
			"buffer":0,
			"byteLength":24,
			"byteOffset":222436
		},
		{
			"buffer":0,
			"byteLength":352,
			"byteOffset":222460
		},
		{
			"buffer":0,
			"byteLength":24,
			"byteOffset":222812
		},
		{
			"buffer":0,
			"byteLength":8,
			"byteOffset":222836
		},
		{
			"buffer":0,
			"byteLength":260,
			"byteOffset":222844
		},
		{
			"buffer":0,
			"byteLength":780,
			"byteOffset":223104
		},
		{
			"buffer":0,
			"byteLength":32,
			"byteOffset":223884
		},
		{
			"buffer":0,
			"byteLength":780,
			"byteOffset":223916
		},
		{
			"buffer":0,
			"byteLength":780,
			"byteOffset":224696
		},
		{
			"buffer":0,
			"byteLength":32,
			"byteOffset":225476
		},
		{
			"buffer":0,
			"byteLength":24,
			"byteOffset":225508
		},
		{
			"buffer":0,
			"byteLength":1040,
			"byteOffset":225532
		},
		{
			"buffer":0,
			"byteLength":24,
			"byteOffset":226572
		},
		{
			"buffer":0,
			"byteLength":24,
			"byteOffset":226596
		},
		{
			"buffer":0,
			"byteLength":1040,
			"byteOffset":226620
		},
		{
			"buffer":0,
			"byteLength":24,
			"byteOffset":227660
		},
		{
			"buffer":0,
			"byteLength":24,
			"byteOffset":227684
		},
		{
			"buffer":0,
			"byteLength":1040,
			"byteOffset":227708
		},
		{
			"buffer":0,
			"byteLength":24,
			"byteOffset":228748
		},
		{
			"buffer":0,
			"byteLength":24,
			"byteOffset":228772
		},
		{
			"buffer":0,
			"byteLength":1040,
			"byteOffset":228796
		},
		{
			"buffer":0,
			"byteLength":24,
			"byteOffset":229836
		},
		{
			"buffer":0,
			"byteLength":24,
			"byteOffset":229860
		},
		{
			"buffer":0,
			"byteLength":32,
			"byteOffset":229884
		},
		{
			"buffer":0,
			"byteLength":24,
			"byteOffset":229916
		},
		{
			"buffer":0,
			"byteLength":1040,
			"byteOffset":229940
		},
		{
			"buffer":0,
			"byteLength":24,
			"byteOffset":230980
		},
		{
			"buffer":0,
			"byteLength":8,
			"byteOffset":231004
		},
		{
			"buffer":0,
			"byteLength":72,
			"byteOffset":231012
		},
		{
			"buffer":0,
			"byteLength":216,
			"byteOffset":231084
		},
		{
			"buffer":0,
			"byteLength":288,
			"byteOffset":231300
		},
		{
			"buffer":0,
			"byteLength":216,
			"byteOffset":231588
		},
		{
			"buffer":0,
			"byteLength":216,
			"byteOffset":231804
		},
		{
			"buffer":0,
			"byteLength":32,
			"byteOffset":232020
		},
		{
			"buffer":0,
			"byteLength":24,
			"byteOffset":232052
		},
		{
			"buffer":0,
			"byteLength":24,
			"byteOffset":232076
		},
		{
			"buffer":0,
			"byteLength":288,
			"byteOffset":232100
		},
		{
			"buffer":0,
			"byteLength":24,
			"byteOffset":232388
		},
		{
			"buffer":0,
			"byteLength":24,
			"byteOffset":232412
		},
		{
			"buffer":0,
			"byteLength":288,
			"byteOffset":232436
		},
		{
			"buffer":0,
			"byteLength":24,
			"byteOffset":232724
		},
		{
			"buffer":0,
			"byteLength":24,
			"byteOffset":232748
		},
		{
			"buffer":0,
			"byteLength":288,
			"byteOffset":232772
		},
		{
			"buffer":0,
			"byteLength":24,
			"byteOffset":233060
		},
		{
			"buffer":0,
			"byteLength":24,
			"byteOffset":233084
		},
		{
			"buffer":0,
			"byteLength":288,
			"byteOffset":233108
		},
		{
			"buffer":0,
			"byteLength":24,
			"byteOffset":233396
		},
		{
			"buffer":0,
			"byteLength":24,
			"byteOffset":233420
		},
		{
			"buffer":0,
			"byteLength":288,
			"byteOffset":233444
		},
		{
			"buffer":0,
			"byteLength":24,
			"byteOffset":233732
		},
		{
			"buffer":0,
			"byteLength":24,
			"byteOffset":233756
		},
		{
			"buffer":0,
			"byteLength":288,
			"byteOffset":233780
		},
		{
			"buffer":0,
			"byteLength":24,
			"byteOffset":234068
		},
		{
			"buffer":0,
			"byteLength":216,
			"byteOffset":234092
		},
		{
			"buffer":0,
			"byteLength":288,
			"byteOffset":234308
		},
		{
			"buffer":0,
			"byteLength":216,
			"byteOffset":234596
		},
		{
			"buffer":0,
			"byteLength":216,
			"byteOffset":234812
		},
		{
			"buffer":0,
			"byteLength":32,
			"byteOffset":235028
		},
		{
			"buffer":0,
			"byteLength":24,
			"byteOffset":235060
		},
		{
			"buffer":0,
			"byteLength":288,
			"byteOffset":235084
		},
		{
			"buffer":0,
			"byteLength":24,
			"byteOffset":235372
		},
		{
			"buffer":0,
			"byteLength":24,
			"byteOffset":235396
		},
		{
			"buffer":0,
			"byteLength":288,
			"byteOffset":235420
		},
		{
			"buffer":0,
			"byteLength":24,
			"byteOffset":235708
		},
		{
			"buffer":0,
			"byteLength":24,
			"byteOffset":235732
		},
		{
			"buffer":0,
			"byteLength":288,
			"byteOffset":235756
		},
		{
			"buffer":0,
			"byteLength":24,
			"byteOffset":236044
		},
		{
			"buffer":0,
			"byteLength":24,
			"byteOffset":236068
		},
		{
			"buffer":0,
			"byteLength":288,
			"byteOffset":236092
		},
		{
			"buffer":0,
			"byteLength":24,
			"byteOffset":236380
		},
		{
			"buffer":0,
			"byteLength":24,
			"byteOffset":236404
		},
		{
			"buffer":0,
			"byteLength":288,
			"byteOffset":236428
		},
		{
			"buffer":0,
			"byteLength":24,
			"byteOffset":236716
		},
		{
			"buffer":0,
			"byteLength":24,
			"byteOffset":236740
		},
		{
			"buffer":0,
			"byteLength":288,
			"byteOffset":236764
		},
		{
			"buffer":0,
			"byteLength":24,
			"byteOffset":237052
		}
	],
	"samplers":[
		{
			"magFilter":9728,
			"minFilter":9984
		}
	],
	"buffers":[
		{
			"byteLength":237076,
			"uri":"sapscrap.bin"
		}
	]
}
