# Blender 5.1.1
# www.blender.org
mtllib aster.mtl
o BSurfaceMesh
v 0.045407 1.379355 -0.211635
v 0.064599 1.202184 -0.180142
v 0.118270 0.974693 -0.172700
v 0.126135 0.914434 -0.176372
v 0.132852 0.862181 -0.185648
v 0.149609 0.674108 -0.218825
v 0.151139 1.436363 -0.219734
v 0.172914 1.220501 -0.192377
v 0.211507 0.979729 -0.183612
v 0.216407 0.922566 -0.186813
v 0.218124 0.869608 -0.195496
v 0.241361 0.669811 -0.230543
v 0.252117 1.483793 -0.180389
v 0.276766 1.237721 -0.173488
v 0.296641 0.987484 -0.160496
v 0.296910 0.930892 -0.161825
v 0.298233 0.870375 -0.174981
v 0.325872 0.685992 -0.208042
v 0.266193 1.501385 -0.060836
v 0.293085 1.240228 -0.067651
v 0.312157 0.979947 -0.072010
v 0.313568 0.924533 -0.075845
v 0.315547 0.863790 -0.094438
v 0.344302 0.688705 -0.119802
v 0.237525 1.479942 0.054976
v 0.268644 1.233121 0.036690
v 0.289108 0.976097 0.016868
v 0.288513 0.919990 0.009961
v 0.297081 0.853242 -0.013703
v 0.324649 0.688731 -0.031967
v 0.152242 1.436422 0.117867
v 0.192662 1.216073 0.097992
v 0.228276 0.967700 0.075250
v 0.236984 0.914088 0.074708
v 0.239405 0.846854 0.040403
v 0.255841 0.683957 0.016608
v 0.046723 1.385639 0.143288
v 0.083725 1.201131 0.097102
v 0.136499 0.959001 0.060576
v 0.147475 0.906680 0.063784
v 0.154704 0.843282 0.031804
v 0.165668 0.671211 0.004495
v 0.117563 0.662651 -0.110471
v 0.107803 0.825212 -0.082728
v 0.102675 0.889394 -0.068300
v 0.095772 0.938844 -0.060118
v 0.043757 1.169069 -0.047971
v 0.007374 1.339800 -0.033303
v 0.177987 0.338416 -0.146000
v 0.272147 0.348599 -0.231470
v 0.342196 0.357133 -0.216118
v 0.362856 0.349733 -0.145490
v 0.338654 0.348122 -0.073574
v 0.287023 0.356511 -0.035142
v 0.207459 0.353521 -0.044042
v 0.196493 0.351734 -0.225049
v 0.180521 0.250121 -0.140617
v 0.220341 0.278036 -0.047705
v 0.297270 0.276065 -0.043005
v 0.349377 0.282640 -0.080531
v 0.370478 0.278944 -0.153363
v 0.353373 0.274198 -0.223483
v 0.278148 0.273940 -0.242963
v 0.204167 0.270332 -0.239681
v 0.168202 0.206631 -0.131033
v 0.193575 0.221584 -0.261938
v 0.278881 0.215371 -0.286300
v 0.371051 0.222665 -0.259853
v 0.387441 0.222121 -0.173581
v 0.356409 0.266089 -0.056264
v 0.299823 0.269577 -0.036978
v 0.217354 0.261549 -0.040836
v 0.154362 0.086109 -0.134714
v 0.209523 0.073609 -0.273570
v 0.310589 0.070320 -0.286172
v 0.391656 0.076809 -0.233941
v 0.406269 0.083058 -0.133806
v 0.411801 0.085164 0.034507
v 0.405879 0.144774 0.044054
v 0.365737 0.178875 0.062905
v 0.309437 0.194383 0.083447
v 0.221904 0.176751 0.053711
v 0.190278 0.138621 0.036901
v 0.076493 1.471967 -0.250911
v 0.117918 1.552438 -0.265585
v 0.234321 1.598773 -0.172639
v 0.246174 1.613362 -0.066977
v 0.225209 1.604929 0.039027
v 0.204537 1.587010 0.118959
v 0.126282 1.547548 0.161783
v 0.000000 1.544250 0.178487
v 0.000000 1.401546 0.153350
v -0.005592 1.342330 -0.031262
v 0.000000 1.375257 -0.209974
v 0.000000 1.461519 -0.249981
v 0.000000 1.539363 -0.276264
v 0.000000 1.679675 -0.212338
v 0.101288 1.681350 -0.204959
v 0.208393 1.692320 -0.138620
v 0.223542 1.694950 -0.053165
v 0.205802 1.687733 0.035764
v 0.189241 1.679802 0.102437
v 0.121142 1.668218 0.142747
v 0.000000 1.951495 -0.204084
v 0.000000 2.176374 -0.264792
v 0.101193 1.957198 -0.198776
v 0.102087 2.173404 -0.263900
v 0.214562 1.954298 -0.141145
v 0.242394 2.156152 -0.198021
v 0.234421 1.950460 -0.055505
v 0.268126 2.128922 -0.087160
v 0.213974 1.949622 0.034688
v 0.246098 2.144933 0.022125
v 0.194654 1.947707 0.102176
v 0.220673 2.155149 0.102031
v 0.120551 1.941292 0.137357
v 0.134258 2.185819 0.131632
v 0.000000 1.659913 0.155729
v 0.000000 1.943380 0.145962
v 0.000000 2.207252 0.144936
v 0.000000 2.249017 -0.263890
v 0.101709 2.249752 -0.262740
v 0.252029 2.196360 -0.212222
v 0.312075 2.142382 -0.063413
v 0.292389 2.190435 0.026875
v 0.276093 2.324594 0.031858
v 0.167470 2.381684 0.011328
v 0.000000 2.377948 0.049313
v 0.381373 2.214081 -0.007672
v 0.320817 2.151431 -0.017633
v 0.318577 2.129446 -0.089467
v 0.318419 2.149152 -0.175899
v 0.277607 2.309326 -0.233356
v 0.361777 2.202901 -0.199205
v 0.000000 2.386543 -0.231467
v 0.089294 2.394917 -0.224853
v 0.000000 2.470499 -0.228892
v 0.101337 2.467097 -0.039056
v 0.131227 2.465984 -0.188737
v 0.117445 2.457540 -0.060289
v 0.305569 2.393256 -0.182906
v 0.319356 2.381846 -0.033211
v 0.428654 2.238584 -0.179729
v 0.431411 2.238104 -0.019420
v 0.092946 2.434486 0.005426
v 0.000000 2.413808 0.052270
v 0.097473 2.503755 -0.149570
v 0.000000 2.506159 -0.199845
v 0.401141 2.030707 -0.108911
v 0.489932 1.924320 -0.118141
v 0.571907 1.818748 -0.112141
v 0.689674 1.692414 -0.085044
v 0.746332 1.621887 -0.057687
v 0.416272 2.042065 -0.182475
v 0.510723 1.934088 -0.181622
v 0.585729 1.831235 -0.176595
v 0.705815 1.706141 -0.129127
v 0.747114 1.635392 -0.105149
v 0.465933 2.078010 -0.189112
v 0.554208 1.971071 -0.185287
v 0.638876 1.857166 -0.176038
v 0.744656 1.727729 -0.130785
v 0.781117 1.653130 -0.113616
v 0.514244 2.122077 -0.176980
v 0.595149 2.011602 -0.168755
v 0.684343 1.898293 -0.165618
v 0.779471 1.749424 -0.114380
v 0.817565 1.672969 -0.105875
v 0.518423 2.125238 -0.041255
v 0.606272 1.995752 -0.048050
v 0.679669 1.900460 -0.042159
v 0.763345 1.744362 -0.023393
v 0.818668 1.671554 -0.017620
v 0.486257 2.096474 -0.023194
v 0.570988 1.971791 -0.037671
v 0.638324 1.882652 -0.036873
v 0.733686 1.727715 -0.018231
v 0.793709 1.659223 -0.005848
v 0.423795 2.051666 -0.026179
v 0.513193 1.933378 -0.044001
v 0.582221 1.839130 -0.047744
v 0.687222 1.704277 -0.030526
v 0.750781 1.634220 -0.006015
v 0.751177 1.571562 0.026426
v 0.762104 1.533359 0.040955
v 0.749530 1.590853 -0.073348
v 0.778978 1.515033 -0.049050
v 0.795573 1.606741 -0.160449
v 0.800641 1.541725 -0.153649
v 0.881954 1.587018 -0.161031
v 0.886980 1.569869 -0.160420
v 0.866916 1.626735 -0.066990
v 0.890951 1.582323 -0.044920
v 0.845199 1.609156 0.033056
v 0.850217 1.581616 0.052918
v 0.826889 1.601835 0.031765
v 0.827250 1.569038 0.049800
v 0.791769 1.460291 0.050692
v 0.807091 1.428936 0.045540
v 0.801111 1.456339 -0.000602
v 0.822234 1.424290 0.008529
v 0.845282 1.467922 0.009720
v 0.856232 1.431868 0.020608
v 0.839115 1.473005 0.058558
v 0.844261 1.437957 0.056777
v 0.836145 1.499995 -0.000186
v 0.827023 1.527523 0.051543
v 0.771851 1.508675 0.049433
v 0.777413 1.495990 -0.005986
v 0.869027 1.490108 0.057778
v 0.885051 1.457826 0.058138
v 0.894816 1.434009 0.056675
v 0.905968 1.404813 0.051337
v 0.921634 1.357528 0.035979
v 0.842708 1.529296 0.006947
v 0.886315 1.455521 -0.024085
v 0.898211 1.424152 -0.025087
v 0.908148 1.393614 -0.024059
v 0.923686 1.354736 -0.024921
v 0.848523 1.511069 -0.082191
v 0.871248 1.454643 -0.100299
v 0.887333 1.425502 -0.100486
v 0.901673 1.394418 -0.095398
v 0.921685 1.355150 -0.085524
v 0.851589 1.513061 -0.171481
v 0.895820 1.466909 -0.165920
v 0.909784 1.437900 -0.162267
v 0.918222 1.404749 -0.157961
v 0.943873 1.363690 -0.131024
v 0.912048 1.533680 -0.150606
v 0.942978 1.484910 -0.123569
v 0.960833 1.444508 -0.114475
v 0.962616 1.402665 -0.112438
v 0.977869 1.362219 -0.085683
v 0.908792 1.548970 -0.060519
v 0.936989 1.485441 -0.046384
v 0.954832 1.442243 -0.038358
v 0.962311 1.397096 -0.040797
v 0.971006 1.354478 -0.025950
v 0.910557 1.541968 0.030455
v 0.937627 1.485082 0.031343
v 0.957507 1.444155 0.037785
v 0.964826 1.405947 0.029978
v 0.965901 1.363895 0.033185
v 0.767755 1.519047 0.045871
v 0.827087 1.539153 0.051055
v 0.777968 1.502748 -0.021269
v 0.194291 0.082814 0.182009
v 0.217999 0.125851 0.205081
v 0.303701 0.158052 0.204952
v 0.366802 0.157526 0.192798
v 0.416855 0.135182 0.177561
v 0.448946 0.085053 0.157350
v 0.439839 0.079767 0.204043
v 0.419658 0.083079 0.258501
v 0.376451 0.081873 0.286297
v 0.317044 0.078569 0.287967
v 0.237653 0.081778 0.271247
v 0.216512 0.078291 0.225897
v 0.154304 -0.001207 -0.133687
v 0.209465 -0.013707 -0.272544
v 0.310531 -0.016996 -0.285145
v 0.391598 -0.010507 -0.232915
v 0.406211 -0.004258 -0.132780
v 0.411743 -0.002152 0.035534
v 0.448888 -0.002262 0.158377
v 0.439781 -0.007549 0.205070
v 0.419600 -0.004236 0.259527
v 0.376393 -0.005443 0.287323
v 0.316986 -0.008747 0.288994
v 0.237596 -0.005538 0.272273
v 0.216454 -0.009025 0.226924
v 0.194233 -0.004502 0.183035
v 0.000000 2.572386 -0.191110
v 0.000000 2.602463 -0.230117
v 0.088976 2.563950 -0.152261
v 0.091785 2.602667 -0.159568
v 0.106020 2.540031 -0.051926
v 0.119836 2.584109 -0.025156
v 0.074507 2.525288 -0.000784
v 0.064150 2.562957 0.064825
v 0.000000 2.508229 0.051890
v 0.000000 2.536622 0.102506
v 0.000000 2.655594 -0.280148
v 0.190724 2.659466 -0.183549
v 0.207932 2.627604 0.057821
v 0.178315 2.587725 0.189653
v 0.000000 2.547208 0.266053
v 0.000000 2.816642 -0.334892
v 0.000000 3.068624 -0.338032
v 0.000000 3.237625 -0.221369
v 0.257236 2.821613 -0.224968
v 0.241539 3.029227 -0.225965
v 0.239059 3.164761 -0.183583
v 0.295075 2.796188 0.067674
v 0.312102 2.987967 0.074391
v 0.208976 3.204780 -0.002129
v 0.229008 2.771425 0.229557
v 0.244078 2.955513 0.240438
v 0.210650 3.160569 0.162976
v 0.000000 2.756074 0.315834
v 0.000000 2.997034 0.317024
v 0.000000 3.217017 0.196901
v 0.000000 3.289449 -0.005614
v -0.045407 1.379355 -0.211635
v -0.064599 1.202184 -0.180142
v -0.118270 0.974693 -0.172700
v -0.126135 0.914434 -0.176372
v -0.132852 0.862181 -0.185648
v -0.149609 0.674108 -0.218825
v -0.151139 1.436363 -0.219734
v -0.172914 1.220501 -0.192377
v -0.211507 0.979729 -0.183612
v -0.216407 0.922566 -0.186813
v -0.218124 0.869608 -0.195496
v -0.241361 0.669811 -0.230543
v -0.252117 1.483793 -0.180389
v -0.276766 1.237721 -0.173488
v -0.296641 0.987484 -0.160496
v -0.296910 0.930892 -0.161825
v -0.298233 0.870375 -0.174981
v -0.325872 0.685992 -0.208042
v -0.266193 1.501385 -0.060836
v -0.293085 1.240228 -0.067651
v -0.312157 0.979947 -0.072010
v -0.313568 0.924533 -0.075845
v -0.315547 0.863790 -0.094438
v -0.344302 0.688705 -0.119802
v -0.237525 1.479942 0.054976
v -0.268644 1.233121 0.036690
v -0.289108 0.976097 0.016868
v -0.288513 0.919990 0.009961
v -0.297081 0.853242 -0.013703
v -0.324649 0.688731 -0.031967
v -0.152242 1.436422 0.117867
v -0.192662 1.216073 0.097992
v -0.228276 0.967700 0.075250
v -0.236984 0.914088 0.074708
v -0.239405 0.846854 0.040403
v -0.255841 0.683957 0.016608
v -0.046723 1.385639 0.143288
v -0.083725 1.201131 0.097102
v -0.136499 0.959001 0.060576
v -0.147475 0.906680 0.063784
v -0.154704 0.843282 0.031804
v -0.165668 0.671211 0.004495
v -0.117563 0.662651 -0.110471
v -0.107803 0.825212 -0.082728
v -0.102675 0.889394 -0.068300
v -0.095772 0.938844 -0.060118
v -0.043757 1.169069 -0.047971
v -0.007374 1.339800 -0.033303
v -0.177987 0.338416 -0.146000
v -0.272147 0.348599 -0.231470
v -0.342196 0.357133 -0.216118
v -0.362856 0.349733 -0.145490
v -0.338654 0.348122 -0.073574
v -0.287023 0.356511 -0.035142
v -0.207459 0.353521 -0.044042
v -0.196493 0.351734 -0.225049
v -0.180521 0.250121 -0.140617
v -0.220341 0.278036 -0.047705
v -0.297270 0.276065 -0.043005
v -0.349377 0.282640 -0.080531
v -0.370478 0.278944 -0.153363
v -0.353373 0.274198 -0.223483
v -0.278148 0.273940 -0.242963
v -0.204167 0.270332 -0.239681
v -0.168202 0.206631 -0.131033
v -0.193575 0.221584 -0.261938
v -0.278881 0.215371 -0.286300
v -0.371051 0.222665 -0.259853
v -0.387441 0.222121 -0.173581
v -0.356409 0.266089 -0.056264
v -0.299823 0.269577 -0.036978
v -0.217354 0.261549 -0.040836
v -0.154362 0.086109 -0.134714
v -0.209523 0.073609 -0.273570
v -0.310589 0.070320 -0.286172
v -0.391656 0.076809 -0.233941
v -0.406269 0.083058 -0.133806
v -0.411801 0.085164 0.034507
v -0.405879 0.144774 0.044054
v -0.365737 0.178875 0.062905
v -0.309437 0.194383 0.083447
v -0.221904 0.176751 0.053711
v -0.190278 0.138621 0.036901
v -0.076493 1.471967 -0.250911
v -0.117918 1.552438 -0.265585
v -0.234321 1.598773 -0.172639
v -0.246174 1.613362 -0.066977
v -0.225209 1.604929 0.039027
v -0.204537 1.587010 0.118959
v -0.126282 1.547548 0.161783
v 0.005592 1.342330 -0.031262
v -0.101288 1.681350 -0.204959
v -0.208393 1.692320 -0.138620
v -0.223542 1.694950 -0.053165
v -0.205802 1.687733 0.035764
v -0.189241 1.679802 0.102437
v -0.121142 1.668218 0.142747
v -0.101193 1.957198 -0.198776
v -0.102087 2.173404 -0.263900
v -0.214562 1.954298 -0.141145
v -0.242394 2.156152 -0.198021
v -0.234421 1.950460 -0.055505
v -0.268126 2.128922 -0.087160
v -0.213974 1.949622 0.034688
v -0.246098 2.144933 0.022125
v -0.194654 1.947707 0.102176
v -0.220673 2.155149 0.102031
v -0.120551 1.941292 0.137357
v -0.134258 2.185819 0.131632
v -0.101709 2.249752 -0.262740
v -0.252029 2.196360 -0.212222
v -0.312075 2.142382 -0.063413
v -0.292389 2.190435 0.026875
v -0.276093 2.324594 0.031858
v -0.167470 2.381684 0.011328
v -0.381373 2.214081 -0.007672
v -0.320817 2.151431 -0.017633
v -0.318577 2.129446 -0.089467
v -0.318419 2.149152 -0.175899
v -0.277607 2.309326 -0.233356
v -0.361777 2.202901 -0.199205
v -0.089294 2.394917 -0.224853
v -0.101337 2.467097 -0.039056
v -0.131227 2.465984 -0.188737
v -0.117445 2.457540 -0.060289
v -0.305569 2.393256 -0.182906
v -0.319356 2.381846 -0.033211
v -0.428654 2.238584 -0.179729
v -0.431411 2.238104 -0.019420
v -0.092946 2.434486 0.005426
v -0.097473 2.503755 -0.149570
v -0.401141 2.030707 -0.108911
v -0.489932 1.924320 -0.118141
v -0.571907 1.818748 -0.112141
v -0.689674 1.692414 -0.085044
v -0.746332 1.621887 -0.057687
v -0.416272 2.042065 -0.182475
v -0.510723 1.934088 -0.181622
v -0.585729 1.831235 -0.176595
v -0.705815 1.706141 -0.129127
v -0.747114 1.635392 -0.105149
v -0.465933 2.078010 -0.189112
v -0.554208 1.971071 -0.185287
v -0.638876 1.857166 -0.176038
v -0.744656 1.727729 -0.130785
v -0.781117 1.653130 -0.113616
v -0.514244 2.122077 -0.176980
v -0.595149 2.011602 -0.168755
v -0.684343 1.898293 -0.165618
v -0.779471 1.749424 -0.114380
v -0.817565 1.672969 -0.105875
v -0.518423 2.125238 -0.041255
v -0.606272 1.995752 -0.048050
v -0.679669 1.900460 -0.042159
v -0.763345 1.744362 -0.023393
v -0.818668 1.671554 -0.017620
v -0.486257 2.096474 -0.023194
v -0.570988 1.971791 -0.037671
v -0.638324 1.882652 -0.036873
v -0.733686 1.727715 -0.018231
v -0.793709 1.659223 -0.005848
v -0.423795 2.051666 -0.026179
v -0.513193 1.933378 -0.044001
v -0.582221 1.839130 -0.047744
v -0.687222 1.704277 -0.030526
v -0.750781 1.634220 -0.006015
v -0.751177 1.571562 0.026426
v -0.762104 1.533359 0.040955
v -0.749530 1.590853 -0.073348
v -0.778978 1.515033 -0.049050
v -0.795573 1.606741 -0.160449
v -0.800641 1.541725 -0.153649
v -0.881954 1.587018 -0.161031
v -0.886980 1.569869 -0.160420
v -0.866916 1.626735 -0.066990
v -0.890951 1.582323 -0.044920
v -0.845199 1.609156 0.033056
v -0.850217 1.581616 0.052918
v -0.826889 1.601835 0.031765
v -0.827250 1.569038 0.049800
v -0.791769 1.460291 0.050692
v -0.807091 1.428936 0.045540
v -0.801111 1.456339 -0.000602
v -0.822234 1.424290 0.008529
v -0.845282 1.467922 0.009720
v -0.856232 1.431868 0.020608
v -0.839115 1.473005 0.058558
v -0.844261 1.437957 0.056777
v -0.836145 1.499995 -0.000186
v -0.827023 1.527523 0.051543
v -0.771851 1.508675 0.049433
v -0.777413 1.495990 -0.005986
v -0.869027 1.490108 0.057778
v -0.885051 1.457826 0.058138
v -0.894816 1.434009 0.056675
v -0.905968 1.404813 0.051337
v -0.921634 1.357528 0.035979
v -0.842708 1.529296 0.006947
v -0.886315 1.455521 -0.024085
v -0.898211 1.424152 -0.025087
v -0.908148 1.393614 -0.024059
v -0.923686 1.354736 -0.024921
v -0.848523 1.511069 -0.082191
v -0.871248 1.454643 -0.100299
v -0.887333 1.425502 -0.100486
v -0.901673 1.394418 -0.095398
v -0.921685 1.355150 -0.085524
v -0.851589 1.513061 -0.171481
v -0.895820 1.466909 -0.165920
v -0.909784 1.437900 -0.162267
v -0.918222 1.404749 -0.157961
v -0.943873 1.363690 -0.131024
v -0.912048 1.533680 -0.150606
v -0.942978 1.484910 -0.123569
v -0.960833 1.444508 -0.114475
v -0.962616 1.402665 -0.112438
v -0.977869 1.362219 -0.085683
v -0.908792 1.548970 -0.060519
v -0.936989 1.485441 -0.046384
v -0.954832 1.442243 -0.038358
v -0.962311 1.397096 -0.040797
v -0.971006 1.354478 -0.025950
v -0.910557 1.541968 0.030455
v -0.937627 1.485082 0.031343
v -0.957507 1.444155 0.037785
v -0.964826 1.405947 0.029978
v -0.965901 1.363895 0.033185
v -0.767755 1.519047 0.045871
v -0.827087 1.539153 0.051055
v -0.777968 1.502748 -0.021269
v -0.194291 0.082814 0.182009
v -0.217999 0.125851 0.205081
v -0.303701 0.158052 0.204952
v -0.366802 0.157526 0.192798
v -0.416855 0.135182 0.177561
v -0.448946 0.085053 0.157350
v -0.439839 0.079767 0.204043
v -0.419658 0.083079 0.258501
v -0.376451 0.081873 0.286297
v -0.317044 0.078569 0.287967
v -0.237653 0.081778 0.271247
v -0.216512 0.078291 0.225897
v -0.154304 -0.001207 -0.133687
v -0.209465 -0.013707 -0.272544
v -0.310531 -0.016996 -0.285145
v -0.391598 -0.010507 -0.232915
v -0.406211 -0.004258 -0.132780
v -0.411743 -0.002152 0.035534
v -0.448888 -0.002262 0.158377
v -0.439781 -0.007549 0.205070
v -0.419600 -0.004236 0.259527
v -0.376393 -0.005443 0.287323
v -0.316986 -0.008747 0.288994
v -0.237596 -0.005538 0.272273
v -0.216454 -0.009025 0.226924
v -0.194233 -0.004502 0.183035
v -0.088976 2.563950 -0.152261
v -0.091785 2.602667 -0.159568
v -0.106020 2.540031 -0.051926
v -0.119836 2.584109 -0.025156
v -0.074507 2.525288 -0.000784
v -0.064150 2.562957 0.064825
v -0.190724 2.659466 -0.183549
v -0.207932 2.627604 0.057821
v -0.178315 2.587725 0.189653
v -0.257236 2.821613 -0.224968
v -0.241539 3.029227 -0.225965
v -0.239059 3.164761 -0.183583
v -0.295075 2.796188 0.067674
v -0.312102 2.987967 0.074391
v -0.208976 3.204780 -0.002129
v -0.229008 2.771425 0.229557
v -0.244078 2.955513 0.240438
v -0.210650 3.160569 0.162976
vn -0.0403 -0.1521 -0.9875
vn -0.1076 -0.0555 -0.9926
vn -0.1187 0.0452 -0.9919
vn -0.1271 0.1570 -0.9794
vn -0.1222 0.1597 -0.9796
vn 0.2856 -0.0423 -0.9574
vn 0.2191 -0.0171 -0.9756
vn 0.2740 0.0507 -0.9604
vn 0.2577 0.1893 -0.9475
vn 0.2285 0.1992 -0.9529
vn 0.9848 0.1000 -0.1417
vn 0.9846 0.0724 -0.1594
vn 0.9835 0.0230 -0.1795
vn 0.9780 0.0773 -0.1935
vn 0.9625 0.1835 -0.1996
vn 0.9645 0.0980 0.2454
vn 0.9684 0.0627 0.2416
vn 0.9642 -0.0184 0.2646
vn 0.9676 -0.0036 0.2525
vn 0.9652 0.1310 0.2264
vn 0.6035 0.0273 0.7969
vn 0.6574 0.0095 0.7535
vn 0.7381 0.0088 0.6746
vn 0.7295 -0.2203 0.6475
vn 0.6310 -0.0148 0.7756
vn 0.1521 -0.1308 0.9797
vn -0.0613 -0.1306 0.9895
vn -0.1397 -0.0011 0.9902
vn -0.0707 -0.4555 0.8874
vn -0.1016 -0.1582 0.9822
vn -0.9121 -0.1209 0.3916
vn -0.9033 -0.2212 0.3676
vn -0.9236 -0.1788 0.3390
vn -0.9158 -0.2366 0.3246
vn -0.9272 -0.2407 0.2869
vn -0.9614 -0.1643 -0.2207
vn -0.9490 -0.2168 -0.2291
vn -0.9673 -0.1053 -0.2305
vn -0.9700 -0.0503 -0.2378
vn -0.9635 -0.0266 -0.2665
vn 0.2332 0.0304 -0.9720
vn 0.9696 0.0626 -0.2367
vn 0.9641 0.0200 0.2649
vn 0.5825 -0.0737 0.8094
vn -0.1061 -0.1645 0.9807
vn -0.9173 -0.1918 0.3490
vn -0.1078 -0.0020 -0.9942
vn -0.9512 -0.1401 -0.2751
vn 0.9329 0.0841 -0.3503
vn -0.0857 -0.0861 0.9926
vn 0.5908 0.0030 0.8068
vn 0.9504 0.0957 0.2961
vn 0.9567 0.1422 -0.2540
vn 0.2229 0.1397 -0.9648
vn -0.9702 -0.0454 -0.2381
vn -0.0644 0.1593 -0.9851
vn -0.0653 0.4894 0.8696
vn 0.1371 -0.5257 0.8395
vn -0.1872 -0.5964 0.7806
vn -0.8971 -0.3926 0.2027
vn -0.9326 -0.3147 -0.1768
vn -0.2555 -0.8068 -0.5327
vn -0.9024 0.3119 0.2974
vn -0.9520 0.2589 -0.1633
vn -0.9582 0.0088 -0.2860
vn -0.1942 0.0069 -0.9809
vn 0.4140 -0.0070 -0.9103
vn 0.9813 0.0975 -0.1662
vn 0.9923 0.1177 -0.0387
vn 0.8565 0.4881 0.1679
vn 0.3158 0.7968 0.5151
vn -0.2333 0.7726 0.5904
vn -0.8656 0.3896 0.3146
vn 0.2034 -0.3680 -0.9073
vn 0.5271 -0.0237 -0.8494
vn 0.9771 0.1638 -0.1359
vn 0.9598 0.1529 0.2354
vn 0.8177 -0.0880 0.5688
vn 0.4392 -0.2396 0.8659
vn 0.1380 -0.1757 0.9747
vn -0.2261 -0.9274 0.2979
vn 0.0138 -0.9802 -0.1973
vn 0.0295 -0.4093 -0.9119
vn 0.0807 -0.2694 -0.9596
vn 0.0462 0.4218 -0.9055
vn 0.4523 0.4210 -0.7862
vn 0.9391 0.3041 -0.1601
vn 0.9509 0.2299 0.2073
vn 0.9365 0.2162 0.2760
vn 0.4346 0.1883 0.8807
vn 0.0616 0.0263 -0.9978
vn 0.0330 -0.2742 -0.9611
vn 0.4901 0.0004 -0.8717
vn 0.4018 -0.2819 -0.8713
vn 0.9791 -0.0341 -0.2006
vn 0.9442 -0.2116 -0.2525
vn 0.9778 -0.0346 0.2069
vn 0.9655 -0.1444 0.2166
vn 0.9662 -0.0241 0.2566
vn 0.9471 -0.1274 0.2947
vn 0.4684 0.0051 0.8835
vn 0.3715 -0.0206 0.9282
vn 0.0882 0.0272 0.9957
vn 0.0867 0.0109 0.9962
vn 0.1092 0.1754 0.9784
vn 0.0102 0.0139 -0.9999
vn 0.3409 -0.1312 -0.9309
vn 0.6800 -0.6053 -0.4139
vn 0.4297 -0.8298 0.3562
vn 0.7506 -0.1600 0.6411
vn 0.2244 0.4072 0.8853
vn 0.1740 0.4881 0.8553
vn 0.3935 -0.1573 0.9058
vn -0.5956 -0.7588 0.2637
vn -0.6274 -0.7744 -0.0820
vn 0.1301 -0.3052 -0.9433
vn 0.0279 0.2424 -0.9698
vn 0.1458 0.0567 -0.9877
vn 0.2007 0.1858 -0.9619
vn 0.7698 0.6207 0.1491
vn 0.1760 0.4183 -0.8911
vn 0.3611 0.9302 0.0664
vn 0.4087 0.1970 -0.8912
vn 0.7858 0.6182 -0.0182
vn 0.4428 0.2927 0.8475
vn 0.1983 0.7071 0.6788
vn 0.5563 0.6973 0.4520
vn 0.2764 0.2630 0.9243
vn 0.2742 0.7191 -0.6385
vn -0.7498 -0.6329 -0.1930
vn -0.7336 -0.6159 -0.2872
vn -0.7529 -0.5832 -0.3051
vn -0.6298 -0.6973 -0.3423
vn -0.7218 -0.6155 -0.3165
vn -0.1627 -0.1565 -0.9742
vn -0.0559 -0.0693 -0.9960
vn 0.0072 -0.0604 -0.9981
vn 0.1162 -0.2473 -0.9619
vn 0.0103 -0.2672 -0.9636
vn 0.1965 0.1026 -0.9751
vn 0.2090 0.1088 -0.9718
vn 0.2053 0.1040 -0.9732
vn 0.3601 -0.0627 -0.9308
vn 0.3220 -0.0020 -0.9467
vn 0.7978 0.6024 -0.0242
vn 0.8179 0.5750 -0.0204
vn 0.7884 0.6151 0.0136
vn 0.8501 0.5190 0.0895
vn 0.8404 0.5345 0.0898
vn 0.2898 0.0868 0.9531
vn 0.3008 0.1251 0.9454
vn 0.1282 0.1334 0.9827
vn 0.0684 0.1578 0.9851
vn 0.1610 0.2539 0.9537
vn -0.0046 -0.1144 0.9934
vn 0.0096 -0.1250 0.9921
vn -0.0902 -0.0830 0.9925
vn -0.2067 -0.0218 0.9782
vn -0.1870 0.0936 0.9779
vn -0.6766 -0.6742 0.2963
vn -0.7206 -0.6110 0.3278
vn -0.7612 -0.5718 0.3060
vn -0.7607 -0.6121 0.2163
vn -0.7783 -0.6089 0.1534
vn -0.9314 -0.3559 -0.0765
vn -0.8773 -0.2981 -0.3761
vn -0.0378 -0.0944 -0.9948
vn 0.9105 0.4099 -0.0540
vn 0.8098 0.5030 0.3020
vn -0.3200 0.4833 0.8149
vn -0.0617 0.5721 0.8179
vn -0.2620 0.3676 0.8923
vn 0.7498 0.6451 0.1472
vn 0.4949 0.7006 -0.5140
vn -0.0417 0.7034 -0.7096
vn -0.8736 -0.3133 -0.3724
vn -0.9988 -0.0314 0.0388
vn -0.2438 0.4370 0.8658
vn -0.8467 -0.4984 -0.1863
vn 0.3033 -0.1345 -0.9434
vn 0.9557 0.2384 0.1726
vn -0.1792 -0.1567 0.9713
vn 0.1726 -0.1292 -0.9765
vn -0.1106 0.0454 0.9928
vn 0.9661 0.2497 0.0659
vn -0.8930 -0.4466 -0.0551
vn -0.9519 -0.2894 -0.1003
vn -0.1627 0.1166 0.9798
vn -0.8681 -0.4957 0.0261
vn -0.9309 -0.3654 0.0007
vn -0.9426 -0.3336 0.0113
vn -0.9399 -0.3415 0.0059
vn -0.8697 -0.4825 0.1044
vn -0.8960 -0.4173 0.1520
vn -0.9288 -0.3555 0.1046
vn -0.9112 -0.4082 0.0548
vn -0.8319 -0.5190 -0.1962
vn -0.8105 -0.4418 -0.3847
vn -0.8702 -0.3581 -0.3384
vn -0.7289 -0.5806 -0.3627
vn 0.4826 0.0827 -0.8719
vn 0.6457 0.1589 -0.7469
vn 0.6978 0.0346 -0.7154
vn 0.7552 -0.0515 -0.6535
vn 0.8841 0.4672 0.0047
vn 0.9113 0.4047 0.0759
vn 0.9933 0.1055 0.0480
vn 0.9456 0.3144 0.0834
vn 0.9086 0.4177 0.0053
vn 0.9137 0.4056 -0.0238
vn 0.9824 0.1803 -0.0479
vn 0.9933 0.1154 0.0036
vn 0.3651 0.1892 0.9115
vn 0.3009 0.2093 0.9304
vn 0.3209 -0.0958 0.9423
vn 0.2332 -0.0880 0.9684
vn 0.7162 0.6755 0.1754
vn 0.8459 0.5281 -0.0742
vn 0.0390 0.1675 -0.9851
vn -0.3270 -0.9279 -0.1790
vn 0.1677 -0.9840 0.0598
vn 0.2569 0.1038 0.9609
vn 0.1596 -0.9665 0.2009
vn -0.9621 -0.2659 -0.0610
vn -0.1166 0.1591 0.9803
vn 0.3170 -0.2682 -0.9097
vn 0.9265 -0.2016 0.3178
vn -0.7472 -0.5997 0.2866
vn 0.0780 -0.9969 -0.0103
vn -0.8516 0.4932 0.1778
vn -0.3093 0.9089 0.2796
vn 0.1895 0.9563 0.2229
vn 0.5487 0.8328 0.0727
vn 0.9188 0.3613 -0.1588
vn -0.8446 -0.4715 -0.2537
vn -0.4097 -0.7496 -0.5198
vn -0.0568 -0.7536 -0.6549
vn 0.1943 -0.7339 -0.6508
vn 0.8774 -0.2151 -0.4288
vn -0.9731 0.1747 0.1502
vn -0.9065 0.0056 0.4222
vn -0.0007 -0.9999 0.0118
vn -0.9295 -0.0037 -0.3689
vn 0.9815 0.0016 0.1916
vn -0.1241 -0.0116 -0.9922
vn 0.5422 -0.0102 -0.8402
vn 0.9572 -0.0040 -0.2894
vn 0.9895 -0.0024 -0.1443
vn 0.9377 0.0035 0.3473
vn 0.5408 0.0095 0.8411
vn 0.0274 0.0117 0.9996
vn -0.8919 0.0059 0.4522
vn -0.2056 0.0116 0.9786
vn 0.9995 -0.0010 -0.0328
vn -0.9921 0.0021 0.1251
vn 0.4336 0.0721 -0.8982
vn 0.4258 -0.5172 -0.7424
vn 0.9954 0.0176 -0.0937
vn 0.9666 -0.1443 -0.2118
vn 0.8919 0.1255 0.4344
vn 0.8024 -0.4615 0.3784
vn 0.4958 0.0801 0.8647
vn 0.5226 -0.7204 0.4560
vn 0.3600 -0.7219 -0.5909
vn 0.5075 -0.8438 -0.1743
vn 0.4044 -0.9097 -0.0948
vn 0.2706 -0.9626 0.0109
vn 0.3998 -0.3360 -0.8528
vn 0.4069 0.0057 -0.9134
vn 0.3590 0.4344 -0.8261
vn 0.8931 -0.4281 -0.1380
vn 0.9837 -0.0007 -0.1799
vn 0.9570 0.2791 -0.0797
vn 0.9003 -0.3818 0.2092
vn 0.9271 -0.0961 0.3623
vn 0.8845 0.3834 0.2660
vn 0.3885 -0.2526 0.8861
vn 0.3234 -0.0383 0.9455
vn 0.2989 0.4215 0.8562
vn 0.3240 0.9022 0.2848
vn 0.3411 0.9212 -0.1872
vn 0.0403 -0.1521 -0.9875
vn 0.1076 -0.0555 -0.9926
vn 0.1187 0.0452 -0.9919
vn 0.1271 0.1570 -0.9794
vn 0.1222 0.1597 -0.9796
vn -0.2856 -0.0423 -0.9574
vn -0.2191 -0.0171 -0.9756
vn -0.2740 0.0507 -0.9604
vn -0.2577 0.1893 -0.9475
vn -0.2285 0.1992 -0.9529
vn -0.9848 0.1000 -0.1417
vn -0.9846 0.0724 -0.1594
vn -0.9835 0.0230 -0.1795
vn -0.9780 0.0773 -0.1935
vn -0.9625 0.1835 -0.1996
vn -0.9645 0.0980 0.2454
vn -0.9684 0.0627 0.2416
vn -0.9642 -0.0184 0.2646
vn -0.9676 -0.0036 0.2525
vn -0.9652 0.1310 0.2264
vn -0.6035 0.0273 0.7969
vn -0.6574 0.0095 0.7535
vn -0.7381 0.0088 0.6746
vn -0.7295 -0.2203 0.6475
vn -0.6310 -0.0148 0.7756
vn -0.1521 -0.1308 0.9797
vn 0.0613 -0.1306 0.9895
vn 0.1397 -0.0011 0.9902
vn 0.0707 -0.4555 0.8874
vn 0.1016 -0.1582 0.9822
vn 0.9121 -0.1209 0.3916
vn 0.9033 -0.2212 0.3676
vn 0.9236 -0.1788 0.3390
vn 0.9158 -0.2366 0.3246
vn 0.9272 -0.2407 0.2869
vn 0.9614 -0.1643 -0.2207
vn 0.9490 -0.2168 -0.2291
vn 0.9673 -0.1053 -0.2305
vn 0.9700 -0.0503 -0.2378
vn 0.9635 -0.0266 -0.2665
vn -0.2332 0.0304 -0.9720
vn -0.9696 0.0626 -0.2367
vn -0.9641 0.0200 0.2649
vn -0.5825 -0.0737 0.8094
vn 0.1061 -0.1645 0.9807
vn 0.9173 -0.1918 0.3490
vn 0.1078 -0.0020 -0.9942
vn 0.9512 -0.1401 -0.2751
vn -0.9329 0.0841 -0.3503
vn 0.0857 -0.0861 0.9926
vn -0.5908 0.0030 0.8068
vn -0.9504 0.0957 0.2961
vn -0.9567 0.1422 -0.2540
vn -0.2229 0.1397 -0.9648
vn 0.9702 -0.0454 -0.2381
vn 0.0644 0.1593 -0.9851
vn 0.0653 0.4894 0.8696
vn -0.1371 -0.5257 0.8395
vn 0.1872 -0.5964 0.7806
vn 0.8971 -0.3926 0.2027
vn 0.9326 -0.3147 -0.1768
vn 0.2555 -0.8068 -0.5327
vn 0.9024 0.3119 0.2974
vn 0.9520 0.2589 -0.1633
vn 0.9582 0.0088 -0.2860
vn 0.1942 0.0069 -0.9809
vn -0.4140 -0.0070 -0.9103
vn -0.9813 0.0975 -0.1662
vn -0.9923 0.1177 -0.0387
vn -0.8565 0.4881 0.1679
vn -0.3158 0.7968 0.5151
vn 0.2333 0.7726 0.5904
vn 0.8656 0.3896 0.3146
vn -0.2034 -0.3680 -0.9073
vn -0.5271 -0.0237 -0.8494
vn -0.9771 0.1638 -0.1359
vn -0.9598 0.1529 0.2354
vn -0.8177 -0.0880 0.5688
vn -0.4392 -0.2396 0.8659
vn -0.1380 -0.1757 0.9747
vn 0.2261 -0.9274 0.2979
vn -0.0138 -0.9802 -0.1973
vn -0.0295 -0.4093 -0.9119
vn -0.0807 -0.2694 -0.9596
vn -0.0462 0.4218 -0.9055
vn -0.4523 0.4210 -0.7862
vn -0.9391 0.3041 -0.1601
vn -0.9509 0.2299 0.2073
vn -0.9365 0.2162 0.2760
vn -0.4346 0.1883 0.8807
vn -0.0616 0.0263 -0.9978
vn -0.0330 -0.2742 -0.9611
vn -0.4901 0.0004 -0.8717
vn -0.4018 -0.2819 -0.8713
vn -0.9791 -0.0341 -0.2006
vn -0.9442 -0.2116 -0.2525
vn -0.9778 -0.0346 0.2069
vn -0.9655 -0.1444 0.2166
vn -0.9662 -0.0241 0.2566
vn -0.9471 -0.1274 0.2947
vn -0.4684 0.0051 0.8835
vn -0.3715 -0.0206 0.9282
vn -0.0882 0.0272 0.9957
vn -0.0867 0.0109 0.9962
vn -0.1092 0.1754 0.9784
vn -0.0102 0.0139 -0.9999
vn -0.3409 -0.1312 -0.9309
vn -0.6800 -0.6053 -0.4139
vn -0.4297 -0.8298 0.3562
vn -0.7506 -0.1600 0.6411
vn -0.2244 0.4072 0.8853
vn -0.1740 0.4881 0.8553
vn -0.3935 -0.1573 0.9058
vn 0.5956 -0.7588 0.2637
vn 0.6274 -0.7744 -0.0820
vn -0.1301 -0.3052 -0.9433
vn -0.0279 0.2424 -0.9698
vn -0.1458 0.0567 -0.9877
vn -0.2007 0.1858 -0.9619
vn -0.7698 0.6207 0.1491
vn -0.1760 0.4183 -0.8911
vn -0.3611 0.9302 0.0664
vn -0.4087 0.1970 -0.8912
vn -0.7858 0.6182 -0.0182
vn -0.4428 0.2927 0.8475
vn -0.1983 0.7071 0.6788
vn -0.5563 0.6973 0.4520
vn -0.2764 0.2630 0.9243
vn -0.2742 0.7191 -0.6385
vn 0.7498 -0.6329 -0.1930
vn 0.7336 -0.6159 -0.2872
vn 0.7529 -0.5832 -0.3051
vn 0.6298 -0.6973 -0.3423
vn 0.7218 -0.6155 -0.3165
vn 0.1627 -0.1565 -0.9742
vn 0.0559 -0.0693 -0.9960
vn -0.0072 -0.0604 -0.9981
vn -0.1162 -0.2473 -0.9619
vn -0.0103 -0.2672 -0.9636
vn -0.1965 0.1026 -0.9751
vn -0.2090 0.1088 -0.9718
vn -0.2053 0.1040 -0.9732
vn -0.3601 -0.0627 -0.9308
vn -0.3220 -0.0020 -0.9467
vn -0.7978 0.6024 -0.0242
vn -0.8179 0.5750 -0.0204
vn -0.7884 0.6151 0.0136
vn -0.8501 0.5190 0.0895
vn -0.8404 0.5345 0.0898
vn -0.2898 0.0868 0.9531
vn -0.3008 0.1251 0.9454
vn -0.1282 0.1334 0.9827
vn -0.0684 0.1578 0.9851
vn -0.1610 0.2539 0.9537
vn 0.0046 -0.1144 0.9934
vn -0.0096 -0.1250 0.9921
vn 0.0902 -0.0830 0.9925
vn 0.2067 -0.0218 0.9782
vn 0.1870 0.0936 0.9779
vn 0.6766 -0.6742 0.2963
vn 0.7206 -0.6110 0.3278
vn 0.7612 -0.5718 0.3060
vn 0.7607 -0.6121 0.2163
vn 0.7783 -0.6089 0.1534
vn 0.9314 -0.3559 -0.0765
vn 0.8773 -0.2981 -0.3761
vn 0.0378 -0.0944 -0.9948
vn -0.9105 0.4099 -0.0540
vn -0.8098 0.5030 0.3020
vn 0.3200 0.4833 0.8149
vn 0.0617 0.5721 0.8179
vn 0.2620 0.3676 0.8923
vn -0.7498 0.6451 0.1472
vn -0.4949 0.7006 -0.5140
vn 0.0417 0.7034 -0.7096
vn 0.8736 -0.3133 -0.3724
vn 0.9988 -0.0314 0.0388
vn 0.2438 0.4370 0.8658
vn 0.8467 -0.4984 -0.1863
vn -0.3033 -0.1345 -0.9434
vn -0.9557 0.2384 0.1726
vn 0.1792 -0.1567 0.9713
vn -0.1726 -0.1292 -0.9765
vn 0.1106 0.0454 0.9928
vn -0.9661 0.2497 0.0659
vn 0.8930 -0.4466 -0.0551
vn 0.9519 -0.2894 -0.1003
vn 0.1627 0.1166 0.9798
vn 0.8681 -0.4957 0.0261
vn 0.9309 -0.3654 0.0007
vn 0.9426 -0.3336 0.0113
vn 0.9399 -0.3415 0.0059
vn 0.8697 -0.4825 0.1044
vn 0.8960 -0.4173 0.1520
vn 0.9288 -0.3555 0.1046
vn 0.9112 -0.4082 0.0548
vn 0.8319 -0.5190 -0.1962
vn 0.8105 -0.4418 -0.3847
vn 0.8702 -0.3581 -0.3384
vn 0.7289 -0.5806 -0.3627
vn -0.4826 0.0827 -0.8719
vn -0.6457 0.1589 -0.7469
vn -0.6978 0.0346 -0.7154
vn -0.7552 -0.0515 -0.6535
vn -0.8841 0.4672 0.0047
vn -0.9113 0.4047 0.0759
vn -0.9933 0.1055 0.0480
vn -0.9456 0.3144 0.0834
vn -0.9086 0.4177 0.0053
vn -0.9137 0.4056 -0.0238
vn -0.9824 0.1803 -0.0479
vn -0.9933 0.1154 0.0036
vn -0.3651 0.1892 0.9115
vn -0.3009 0.2093 0.9304
vn -0.3209 -0.0958 0.9423
vn -0.2332 -0.0880 0.9684
vn -0.7162 0.6755 0.1754
vn -0.8459 0.5281 -0.0742
vn -0.0390 0.1675 -0.9851
vn 0.3270 -0.9279 -0.1790
vn -0.1677 -0.9840 0.0598
vn -0.2569 0.1038 0.9609
vn -0.1596 -0.9665 0.2009
vn 0.9621 -0.2659 -0.0610
vn 0.1166 0.1591 0.9803
vn -0.3170 -0.2682 -0.9097
vn -0.9265 -0.2016 0.3178
vn 0.7472 -0.5997 0.2866
vn -0.0780 -0.9969 -0.0103
vn 0.8516 0.4932 0.1778
vn 0.3093 0.9089 0.2796
vn -0.1895 0.9563 0.2229
vn -0.5487 0.8328 0.0727
vn -0.9188 0.3613 -0.1588
vn 0.8446 -0.4715 -0.2537
vn 0.4097 -0.7496 -0.5198
vn 0.0568 -0.7536 -0.6549
vn -0.1943 -0.7339 -0.6508
vn -0.8774 -0.2151 -0.4288
vn 0.9731 0.1747 0.1502
vn 0.9065 0.0056 0.4222
vn 0.0007 -0.9999 0.0118
vn 0.9295 -0.0037 -0.3689
vn -0.9815 0.0016 0.1916
vn 0.1241 -0.0116 -0.9922
vn -0.5422 -0.0102 -0.8402
vn -0.9572 -0.0040 -0.2894
vn -0.9895 -0.0024 -0.1443
vn -0.9377 0.0035 0.3473
vn -0.5408 0.0095 0.8411
vn -0.0274 0.0117 0.9996
vn 0.8919 0.0059 0.4522
vn 0.2056 0.0116 0.9786
vn -0.9995 -0.0010 -0.0328
vn 0.9921 0.0021 0.1251
vn -0.4336 0.0721 -0.8982
vn -0.4258 -0.5172 -0.7424
vn -0.9954 0.0176 -0.0937
vn -0.9666 -0.1443 -0.2118
vn -0.8919 0.1255 0.4344
vn -0.8024 -0.4615 0.3784
vn -0.4958 0.0801 0.8647
vn -0.5226 -0.7204 0.4560
vn -0.3600 -0.7219 -0.5909
vn -0.5075 -0.8438 -0.1743
vn -0.4044 -0.9097 -0.0948
vn -0.2706 -0.9626 0.0109
vn -0.3998 -0.3360 -0.8528
vn -0.4069 0.0057 -0.9134
vn -0.3590 0.4344 -0.8261
vn -0.8931 -0.4281 -0.1380
vn -0.9837 -0.0007 -0.1799
vn -0.9570 0.2791 -0.0797
vn -0.9003 -0.3818 0.2092
vn -0.9271 -0.0961 0.3623
vn -0.8845 0.3834 0.2660
vn -0.3885 -0.2526 0.8861
vn -0.3234 -0.0383 0.9455
vn -0.2989 0.4215 0.8562
vn -0.3240 0.9022 0.2848
vn -0.3411 0.9212 -0.1872
s 0
usemtl 
f 2//1 1//1 7//1 8//1
f 3//2 2//2 8//2 9//2
f 4//3 3//3 9//3 10//3
f 5//4 4//4 10//4 11//4
f 6//5 5//5 11//5 12//5
f 8//6 7//6 13//6 14//6
f 9//7 8//7 14//7 15//7
f 10//8 9//8 15//8 16//8
f 11//9 10//9 16//9 17//9
f 12//10 11//10 17//10 18//10
f 14//11 13//11 19//11 20//11
f 15//12 14//12 20//12 21//12
f 16//13 15//13 21//13 22//13
f 17//14 16//14 22//14 23//14
f 18//15 17//15 23//15 24//15
f 20//16 19//16 25//16 26//16
f 21//17 20//17 26//17 27//17
f 22//18 21//18 27//18 28//18
f 23//19 22//19 28//19 29//19
f 24//20 23//20 29//20 30//20
f 26//21 25//21 31//21 32//21
f 27//22 26//22 32//22 33//22
f 28//23 27//23 33//23 34//23
f 29//24 28//24 34//24 35//24
f 30//25 29//25 35//25 36//25
f 32//26 31//26 37//26 38//26
f 33//27 32//27 38//27 39//27
f 34//28 33//28 39//28 40//28
f 35//29 34//29 40//29 41//29
f 36//30 35//30 41//30 42//30
f 43//31 42//31 41//31 44//31
f 44//32 41//32 40//32 45//32
f 45//33 40//33 39//33 46//33
f 46//34 39//34 38//34 47//34
f 47//35 38//35 37//35 48//35
f 1//36 2//36 47//36 48//36
f 2//37 3//37 46//37 47//37
f 3//38 4//38 45//38 46//38
f 4//39 5//39 44//39 45//39
f 5//40 6//40 43//40 44//40
f 50//41 12//41 18//41 51//41
f 51//42 18//42 24//42 52//42
f 52//43 24//43 30//43 53//43
f 53//44 30//44 36//44 54//44
f 54//45 36//45 42//45 55//45
f 55//46 42//46 43//46 49//46
f 50//47 56//47 6//47 12//47
f 43//48 6//48 56//48 49//48
f 55//49 58//49 57//49 49//49
f 58//50 59//50 54//50 55//50
f 59//51 60//51 53//51 54//51
f 60//52 61//52 52//52 53//52
f 61//53 62//53 51//53 52//53
f 62//54 63//54 50//54 51//54
f 49//55 56//55 64//55 57//55
f 56//56 50//56 63//56 64//56
f 59//57 58//57 72//57 71//57
f 66//58 67//58 63//58 64//58
f 67//59 68//59 62//59 63//59
f 68//60 69//60 61//60 62//60
f 69//61 70//61 60//61 61//61
f 70//62 71//62 59//62 60//62
f 58//63 57//63 65//63 72//63
f 57//64 64//64 66//64 65//64
f 73//65 65//65 66//65 74//65
f 74//66 66//66 67//66 75//66
f 75//67 67//67 68//67 76//67
f 76//68 68//68 69//68 77//68
f 78//69 77//69 69//69 79//69
f 79//70 69//70 70//70 80//70
f 80//71 70//71 71//71 81//71
f 81//72 71//72 72//72 82//72
f 82//73 72//73 65//73 83//73
f 84//74 85//74 7//74 1//74
f 85//75 86//75 13//75 7//75
f 86//76 87//76 19//76 13//76
f 87//77 88//77 25//77 19//77
f 88//78 89//78 31//78 25//78
f 89//79 90//79 37//79 31//79
f 91//80 92//80 37//80 90//80
f 93//81 48//81 37//81 92//81
f 94//82 1//82 48//82 93//82
f 84//83 1//83 94//83 95//83
f 85//84 84//84 95//84 96//84
f 97//85 98//85 85//85 96//85
f 98//86 99//86 86//86 85//86
f 99//87 100//87 87//87 86//87
f 100//88 101//88 88//88 87//88
f 101//89 102//89 89//89 88//89
f 102//90 103//90 90//90 89//90
f 104//91 106//91 98//91 97//91
f 105//92 107//92 106//92 104//92
f 106//93 108//93 99//93 98//93
f 107//94 109//94 108//94 106//94
f 108//95 110//95 100//95 99//95
f 109//96 111//96 110//96 108//96
f 110//97 112//97 101//97 100//97
f 111//98 113//98 112//98 110//98
f 112//99 114//99 102//99 101//99
f 113//100 115//100 114//100 112//100
f 114//101 116//101 103//101 102//101
f 115//102 117//102 116//102 114//102
f 103//103 116//103 119//103 118//103
f 116//104 117//104 120//104 119//104
f 90//105 103//105 118//105 91//105
f 121//106 122//106 107//106 105//106
f 122//107 123//107 109//107 107//107
f 123//108 124//108 111//108 109//108
f 124//109 125//109 113//109 111//109
f 125//110 126//110 115//110 113//110
f 126//111 127//111 117//111 115//111
f 127//112 128//112 120//112 117//112
f 129//113 126//113 125//113 130//113
f 130//114 125//114 124//114 131//114
f 132//115 131//115 124//115 123//115
f 132//116 123//116 133//116 134//116
f 122//117 121//117 135//117 136//117
f 122//118 136//118 133//118 123//118
f 137//119 139//119 136//119 135//119
f 138//120 140//120 139//120 147//120
f 139//121 141//121 133//121 136//121
f 140//122 142//122 141//122 139//122
f 141//123 143//123 134//123 133//123
f 142//124 144//124 143//124 141//124
f 129//125 144//125 142//125 126//125
f 126//126 142//126 140//126 127//126
f 145//127 127//127 140//127 138//127
f 128//128 127//128 145//128 146//128
f 148//129 147//129 139//129 137//129
f 149//130 131//130 132//130 154//130
f 150//131 149//131 154//131 155//131
f 151//132 150//132 155//132 156//132
f 152//133 151//133 156//133 157//133
f 153//134 152//134 157//134 158//134
f 154//135 132//135 134//135 159//135
f 155//136 154//136 159//136 160//136
f 156//137 155//137 160//137 161//137
f 157//138 156//138 161//138 162//138
f 158//139 157//139 162//139 163//139
f 159//140 134//140 143//140 164//140
f 160//141 159//141 164//141 165//141
f 161//142 160//142 165//142 166//142
f 162//143 161//143 166//143 167//143
f 163//144 162//144 167//144 168//144
f 164//145 143//145 144//145 169//145
f 165//146 164//146 169//146 170//146
f 166//147 165//147 170//147 171//147
f 167//148 166//148 171//148 172//148
f 168//149 167//149 172//149 173//149
f 169//150 144//150 129//150 174//150
f 170//151 169//151 174//151 175//151
f 171//152 170//152 175//152 176//152
f 172//153 171//153 176//153 177//153
f 173//154 172//154 177//154 178//154
f 174//155 129//155 130//155 179//155
f 175//156 174//156 179//156 180//156
f 176//157 175//157 180//157 181//157
f 177//158 176//158 181//158 182//158
f 178//159 177//159 182//159 183//159
f 130//160 131//160 149//160 179//160
f 150//161 180//161 179//161 149//161
f 151//162 181//162 180//162 150//162
f 152//163 182//163 181//163 151//163
f 153//164 183//164 182//164 152//164
f 185//165 184//165 186//165 187//165
f 187//166 186//166 188//166 189//166
f 189//167 188//167 190//167 191//167
f 191//168 190//168 192//168 193//168
f 193//169 192//169 194//169 195//169
f 195//170 194//170 196//170 197//170
f 178//171 196//171 194//171 173//171
f 197//172 196//172 184//172 185//172
f 173//173 194//173 192//173 168//173
f 168//174 192//174 190//174 163//174
f 163//175 190//175 188//175 158//175
f 158//176 188//176 186//176 153//176
f 153//177 186//177 184//177 183//177
f 183//178 184//178 196//178 178//178
f 199//179 198//179 200//179 201//179
f 201//180 200//180 202//180 203//180
f 203//181 202//181 204//181 205//181
f 205//182 204//182 198//182 199//182
f 202//183 200//183 209//183 206//183
f 198//184 204//184 207//184 208//184
f 204//185 202//185 206//185 207//185
f 200//186 198//186 208//186 209//186
f 187//187 247//187 245//187 185//187
f 185//188 245//188 246//188 197//188
f 211//189 210//189 215//189 216//189
f 212//190 211//190 216//190 217//190
f 213//191 212//191 217//191 218//191
f 214//192 213//192 218//192 219//192
f 216//193 215//193 220//193 221//193
f 217//194 216//194 221//194 222//194
f 218//195 217//195 222//195 223//195
f 219//196 218//196 223//196 224//196
f 221//197 220//197 225//197 226//197
f 222//198 221//198 226//198 227//198
f 223//199 222//199 227//199 228//199
f 224//200 223//200 228//200 229//200
f 226//201 225//201 230//201 231//201
f 227//202 226//202 231//202 232//202
f 228//203 227//203 232//203 233//203
f 229//204 228//204 233//204 234//204
f 231//205 230//205 235//205 236//205
f 232//206 231//206 236//206 237//206
f 233//207 232//207 237//207 238//207
f 234//208 233//208 238//208 239//208
f 236//209 235//209 240//209 241//209
f 237//210 236//210 241//210 242//210
f 238//211 237//211 242//211 243//211
f 239//212 238//212 243//212 244//212
f 241//213 240//213 210//213 211//213
f 242//214 241//214 211//214 212//214
f 243//215 242//215 212//215 213//215
f 244//216 243//216 213//216 214//216
f 195//217 240//217 235//217 193//217
f 193//218 235//218 230//218 191//218
f 191//219 230//219 225//219 189//219
f 189//220 225//220 220//220 187//220
f 187//221 220//221 215//221 247//221
f 197//222 210//222 240//222 195//222
f 199//223 201//223 203//223 205//223
f 245//224 247//224 209//224 208//224
f 246//225 245//225 208//225 207//225
f 247//226 215//226 206//226 209//226
f 246//227 207//227 206//227 215//227
f 215//228 210//228 197//228 246//228
f 214//229 219//229 224//229 229//229 234//229 239//229 244//229
f 248//230 249//230 82//230 83//230
f 249//231 250//231 81//231 82//231
f 250//232 251//232 80//232 81//232
f 251//233 252//233 79//233 80//233
f 252//234 253//234 78//234 79//234
f 254//235 255//235 252//235 253//235
f 255//236 256//236 251//236 252//236
f 256//237 257//237 250//237 251//237
f 257//238 258//238 249//238 250//238
f 258//239 259//239 248//239 249//239
f 73//240 248//240 83//240 65//240
f 258//241 259//241 272//241 271//241
f 260//242 261//242 262//242 263//242 264//242 265//242 266//242 267//242 268//242 269//242 270//242 271//242 272//242 273//242
f 73//243 74//243 261//243 260//243
f 253//244 254//244 267//244 266//244
f 74//245 75//245 262//245 261//245
f 75//246 76//246 263//246 262//246
f 78//247 253//247 266//247 265//247
f 76//248 77//248 264//248 263//248
f 254//249 255//249 268//249 267//249
f 255//250 256//250 269//250 268//250
f 256//251 257//251 270//251 269//251
f 259//252 248//252 273//252 272//252
f 257//253 258//253 271//253 270//253
f 77//254 78//254 265//254 264//254
f 248//255 73//255 260//255 273//255
f 274//256 276//256 147//256 148//256
f 275//257 277//257 276//257 274//257
f 276//258 278//258 138//258 147//258
f 277//259 279//259 278//259 276//259
f 278//260 280//260 145//260 138//260
f 279//261 281//261 280//261 278//261
f 280//262 282//262 146//262 145//262
f 281//263 283//263 282//263 280//263
f 284//264 285//264 277//264 275//264
f 285//265 286//265 279//265 277//265
f 286//266 287//266 281//266 279//266
f 287//267 288//267 283//267 281//267
f 289//268 292//268 285//268 284//268
f 290//269 293//269 292//269 289//269
f 291//270 294//270 293//270 290//270
f 292//271 295//271 286//271 285//271
f 293//272 296//272 295//272 292//272
f 294//273 297//273 296//273 293//273
f 295//274 298//274 287//274 286//274
f 296//275 299//275 298//275 295//275
f 297//276 300//276 299//276 296//276
f 298//277 301//277 288//277 287//277
f 299//278 302//278 301//278 298//278
f 300//279 303//279 302//279 299//279
f 304//280 303//280 300//280 297//280
f 291//281 304//281 297//281 294//281
f 306//282 312//282 311//282 305//282
f 307//283 313//283 312//283 306//283
f 308//284 314//284 313//284 307//284
f 309//285 315//285 314//285 308//285
f 310//286 316//286 315//286 309//286
f 312//287 318//287 317//287 311//287
f 313//288 319//288 318//288 312//288
f 314//289 320//289 319//289 313//289
f 315//290 321//290 320//290 314//290
f 316//291 322//291 321//291 315//291
f 318//292 324//292 323//292 317//292
f 319//293 325//293 324//293 318//293
f 320//294 326//294 325//294 319//294
f 321//295 327//295 326//295 320//295
f 322//296 328//296 327//296 321//296
f 324//297 330//297 329//297 323//297
f 325//298 331//298 330//298 324//298
f 326//299 332//299 331//299 325//299
f 327//300 333//300 332//300 326//300
f 328//301 334//301 333//301 327//301
f 330//302 336//302 335//302 329//302
f 331//303 337//303 336//303 330//303
f 332//304 338//304 337//304 331//304
f 333//305 339//305 338//305 332//305
f 334//306 340//306 339//306 333//306
f 336//307 342//307 341//307 335//307
f 337//308 343//308 342//308 336//308
f 338//309 344//309 343//309 337//309
f 339//310 345//310 344//310 338//310
f 340//311 346//311 345//311 339//311
f 347//312 348//312 345//312 346//312
f 348//313 349//313 344//313 345//313
f 349//314 350//314 343//314 344//314
f 350//315 351//315 342//315 343//315
f 351//316 352//316 341//316 342//316
f 305//317 352//317 351//317 306//317
f 306//318 351//318 350//318 307//318
f 307//319 350//319 349//319 308//319
f 308//320 349//320 348//320 309//320
f 309//321 348//321 347//321 310//321
f 354//322 355//322 322//322 316//322
f 355//323 356//323 328//323 322//323
f 356//324 357//324 334//324 328//324
f 357//325 358//325 340//325 334//325
f 358//326 359//326 346//326 340//326
f 359//327 353//327 347//327 346//327
f 354//328 316//328 310//328 360//328
f 347//329 353//329 360//329 310//329
f 359//330 353//330 361//330 362//330
f 362//331 359//331 358//331 363//331
f 363//332 358//332 357//332 364//332
f 364//333 357//333 356//333 365//333
f 365//334 356//334 355//334 366//334
f 366//335 355//335 354//335 367//335
f 353//336 361//336 368//336 360//336
f 360//337 368//337 367//337 354//337
f 363//338 375//338 376//338 362//338
f 370//339 368//339 367//339 371//339
f 371//340 367//340 366//340 372//340
f 372//341 366//341 365//341 373//341
f 373//342 365//342 364//342 374//342
f 374//343 364//343 363//343 375//343
f 362//344 376//344 369//344 361//344
f 361//345 369//345 370//345 368//345
f 377//346 378//346 370//346 369//346
f 378//347 379//347 371//347 370//347
f 379//348 380//348 372//348 371//348
f 380//349 381//349 373//349 372//349
f 382//350 383//350 373//350 381//350
f 383//351 384//351 374//351 373//351
f 384//352 385//352 375//352 374//352
f 385//353 386//353 376//353 375//353
f 386//354 387//354 369//354 376//354
f 388//355 305//355 311//355 389//355
f 389//356 311//356 317//356 390//356
f 390//357 317//357 323//357 391//357
f 391//358 323//358 329//358 392//358
f 392//359 329//359 335//359 393//359
f 393//360 335//360 341//360 394//360
f 91//361 394//361 341//361 92//361
f 395//362 92//362 341//362 352//362
f 94//363 395//363 352//363 305//363
f 388//364 95//364 94//364 305//364
f 389//365 96//365 95//365 388//365
f 97//366 96//366 389//366 396//366
f 396//367 389//367 390//367 397//367
f 397//368 390//368 391//368 398//368
f 398//369 391//369 392//369 399//369
f 399//370 392//370 393//370 400//370
f 400//371 393//371 394//371 401//371
f 104//372 97//372 396//372 402//372
f 105//373 104//373 402//373 403//373
f 402//374 396//374 397//374 404//374
f 403//375 402//375 404//375 405//375
f 404//376 397//376 398//376 406//376
f 405//377 404//377 406//377 407//377
f 406//378 398//378 399//378 408//378
f 407//379 406//379 408//379 409//379
f 408//380 399//380 400//380 410//380
f 409//381 408//381 410//381 411//381
f 410//382 400//382 401//382 412//382
f 411//383 410//383 412//383 413//383
f 401//384 118//384 119//384 412//384
f 412//385 119//385 120//385 413//385
f 394//386 91//386 118//386 401//386
f 121//387 105//387 403//387 414//387
f 414//388 403//388 405//388 415//388
f 415//389 405//389 407//389 416//389
f 416//390 407//390 409//390 417//390
f 417//391 409//391 411//391 418//391
f 418//392 411//392 413//392 419//392
f 419//393 413//393 120//393 128//393
f 420//394 421//394 417//394 418//394
f 421//395 422//395 416//395 417//395
f 423//396 415//396 416//396 422//396
f 423//397 425//397 424//397 415//397
f 414//398 426//398 135//398 121//398
f 414//399 415//399 424//399 426//399
f 137//400 135//400 426//400 428//400
f 427//401 435//401 428//401 429//401
f 428//402 426//402 424//402 430//402
f 429//403 428//403 430//403 431//403
f 430//404 424//404 425//404 432//404
f 431//405 430//405 432//405 433//405
f 420//406 418//406 431//406 433//406
f 418//407 419//407 429//407 431//407
f 434//408 427//408 429//408 419//408
f 128//409 146//409 434//409 419//409
f 148//410 137//410 428//410 435//410
f 436//411 441//411 423//411 422//411
f 437//412 442//412 441//412 436//412
f 438//413 443//413 442//413 437//413
f 439//414 444//414 443//414 438//414
f 440//415 445//415 444//415 439//415
f 441//416 446//416 425//416 423//416
f 442//417 447//417 446//417 441//417
f 443//418 448//418 447//418 442//418
f 444//419 449//419 448//419 443//419
f 445//420 450//420 449//420 444//420
f 446//421 451//421 432//421 425//421
f 447//422 452//422 451//422 446//422
f 448//423 453//423 452//423 447//423
f 449//424 454//424 453//424 448//424
f 450//425 455//425 454//425 449//425
f 451//426 456//426 433//426 432//426
f 452//427 457//427 456//427 451//427
f 453//428 458//428 457//428 452//428
f 454//429 459//429 458//429 453//429
f 455//430 460//430 459//430 454//430
f 456//431 461//431 420//431 433//431
f 457//432 462//432 461//432 456//432
f 458//433 463//433 462//433 457//433
f 459//434 464//434 463//434 458//434
f 460//435 465//435 464//435 459//435
f 461//436 466//436 421//436 420//436
f 462//437 467//437 466//437 461//437
f 463//438 468//438 467//438 462//438
f 464//439 469//439 468//439 463//439
f 465//440 470//440 469//440 464//440
f 421//441 466//441 436//441 422//441
f 437//442 436//442 466//442 467//442
f 438//443 437//443 467//443 468//443
f 439//444 438//444 468//444 469//444
f 440//445 439//445 469//445 470//445
f 472//446 474//446 473//446 471//446
f 474//447 476//447 475//447 473//447
f 476//448 478//448 477//448 475//448
f 478//449 480//449 479//449 477//449
f 480//450 482//450 481//450 479//450
f 482//451 484//451 483//451 481//451
f 465//452 460//452 481//452 483//452
f 484//453 472//453 471//453 483//453
f 460//454 455//454 479//454 481//454
f 455//455 450//455 477//455 479//455
f 450//456 445//456 475//456 477//456
f 445//457 440//457 473//457 475//457
f 440//458 470//458 471//458 473//458
f 470//459 465//459 483//459 471//459
f 486//460 488//460 487//460 485//460
f 488//461 490//461 489//461 487//461
f 490//462 492//462 491//462 489//462
f 492//463 486//463 485//463 491//463
f 489//464 493//464 496//464 487//464
f 485//465 495//465 494//465 491//465
f 491//466 494//466 493//466 489//466
f 487//467 496//467 495//467 485//467
f 474//468 472//468 532//468 534//468
f 472//469 484//469 533//469 532//469
f 498//470 503//470 502//470 497//470
f 499//471 504//471 503//471 498//471
f 500//472 505//472 504//472 499//472
f 501//473 506//473 505//473 500//473
f 503//474 508//474 507//474 502//474
f 504//475 509//475 508//475 503//475
f 505//476 510//476 509//476 504//476
f 506//477 511//477 510//477 505//477
f 508//478 513//478 512//478 507//478
f 509//479 514//479 513//479 508//479
f 510//480 515//480 514//480 509//480
f 511//481 516//481 515//481 510//481
f 513//482 518//482 517//482 512//482
f 514//483 519//483 518//483 513//483
f 515//484 520//484 519//484 514//484
f 516//485 521//485 520//485 515//485
f 518//486 523//486 522//486 517//486
f 519//487 524//487 523//487 518//487
f 520//488 525//488 524//488 519//488
f 521//489 526//489 525//489 520//489
f 523//490 528//490 527//490 522//490
f 524//491 529//491 528//491 523//491
f 525//492 530//492 529//492 524//492
f 526//493 531//493 530//493 525//493
f 528//494 498//494 497//494 527//494
f 529//495 499//495 498//495 528//495
f 530//496 500//496 499//496 529//496
f 531//497 501//497 500//497 530//497
f 482//498 480//498 522//498 527//498
f 480//499 478//499 517//499 522//499
f 478//500 476//500 512//500 517//500
f 476//501 474//501 507//501 512//501
f 474//502 534//502 502//502 507//502
f 484//503 482//503 527//503 497//503
f 486//504 492//504 490//504 488//504
f 532//505 495//505 496//505 534//505
f 533//506 494//506 495//506 532//506
f 534//507 496//507 493//507 502//507
f 533//508 502//508 493//508 494//508
f 502//509 533//509 484//509 497//509
f 501//510 531//510 526//510 521//510 516//510 511//510 506//510
f 535//511 387//511 386//511 536//511
f 536//512 386//512 385//512 537//512
f 537//513 385//513 384//513 538//513
f 538//514 384//514 383//514 539//514
f 539//515 383//515 382//515 540//515
f 541//516 540//516 539//516 542//516
f 542//517 539//517 538//517 543//517
f 543//518 538//518 537//518 544//518
f 544//519 537//519 536//519 545//519
f 545//520 536//520 535//520 546//520
f 377//521 369//521 387//521 535//521
f 545//522 558//522 559//522 546//522
f 547//523 560//523 559//523 558//523 557//523 556//523 555//523 554//523 553//523 552//523 551//523 550//523 549//523 548//523
f 377//524 547//524 548//524 378//524
f 540//525 553//525 554//525 541//525
f 378//526 548//526 549//526 379//526
f 379//527 549//527 550//527 380//527
f 382//528 552//528 553//528 540//528
f 380//529 550//529 551//529 381//529
f 541//530 554//530 555//530 542//530
f 542//531 555//531 556//531 543//531
f 543//532 556//532 557//532 544//532
f 546//533 559//533 560//533 535//533
f 544//534 557//534 558//534 545//534
f 381//535 551//535 552//535 382//535
f 535//536 560//536 547//536 377//536
f 274//537 148//537 435//537 561//537
f 275//538 274//538 561//538 562//538
f 561//539 435//539 427//539 563//539
f 562//540 561//540 563//540 564//540
f 563//541 427//541 434//541 565//541
f 564//542 563//542 565//542 566//542
f 565//543 434//543 146//543 282//543
f 566//544 565//544 282//544 283//544
f 284//545 275//545 562//545 567//545
f 567//546 562//546 564//546 568//546
f 568//547 564//547 566//547 569//547
f 569//548 566//548 283//548 288//548
f 289//549 284//549 567//549 570//549
f 290//550 289//550 570//550 571//550
f 291//551 290//551 571//551 572//551
f 570//552 567//552 568//552 573//552
f 571//553 570//553 573//553 574//553
f 572//554 571//554 574//554 575//554
f 573//555 568//555 569//555 576//555
f 574//556 573//556 576//556 577//556
f 575//557 574//557 577//557 578//557
f 576//558 569//558 288//558 301//558
f 577//559 576//559 301//559 302//559
f 578//560 577//560 302//560 303//560
f 304//561 575//561 578//561 303//561
f 291//562 572//562 575//562 304//562
o Coat
v 0.124375 1.448839 -0.275348
v 0.278677 1.485672 -0.199723
v 0.298626 1.506653 -0.059047
v 0.267542 1.481374 0.068125
v 0.228251 1.452890 0.143776
v 0.114447 1.401116 0.174826
v 0.127833 1.583886 -0.286562
v 0.260391 1.606954 -0.190978
v 0.278253 1.620666 -0.066309
v 0.256192 1.609995 0.048855
v 0.228155 1.589394 0.141715
v 0.136133 1.546863 0.193154
v 0.000000 1.452730 -0.290774
v 0.000000 1.568495 -0.298860
v 0.000000 1.687286 -0.244300
v 0.110415 1.689192 -0.235587
v 0.235022 1.698783 -0.156843
v 0.256220 1.698771 -0.052487
v 0.237562 1.690918 0.043769
v 0.214573 1.683360 0.123138
v 0.130439 1.671646 0.174127
v 0.000000 1.906938 -0.236707
v 0.000000 2.098155 -0.297413
v 0.109776 1.911901 -0.230189
v 0.108599 2.093845 -0.295667
v 0.240532 1.908826 -0.160750
v 0.263507 2.069909 -0.220437
v 0.267141 1.946957 -0.055482
v 0.297102 2.079215 -0.091333
v 0.245725 1.946945 0.042911
v 0.275848 2.124015 0.045730
v 0.219316 1.946244 0.123915
v 0.240746 2.179501 0.141944
v 0.129066 1.941499 0.169143
v 0.141271 2.256293 0.176698
v 0.557935 2.328399 -0.070833
v 0.000000 2.270617 -0.304749
v 0.105790 2.268887 -0.309343
v 0.285775 2.161508 -0.290055
v 0.301958 2.212675 0.098822
v 0.288197 2.305526 0.116892
v 0.175940 2.400533 0.063473
v 0.501035 2.338881 -0.250050
v 0.285775 2.314144 -0.289299
v 0.000000 2.462925 -0.263335
v 0.094141 2.471914 -0.256414
v 0.436830 2.213243 -0.304791
v 0.144189 2.489681 -0.207535
v 0.136587 2.492128 -0.013339
v 0.349980 2.439781 -0.198735
v 0.364325 2.429299 -0.019518
v 0.464321 2.224366 0.075540
v 0.288197 0.235612 0.103493
v 0.285775 0.235612 -0.299598
v 0.436830 0.235612 -0.299989
v 0.464321 0.235612 0.075540
v 0.000000 0.235612 -0.299988
v 0.105790 0.235612 -0.300103
v 0.436830 2.068017 -0.304438
v 0.464321 2.100425 0.075540
v 0.288197 2.176528 0.116057
v -0.124375 1.448839 -0.275348
v -0.278677 1.485672 -0.199723
v -0.298626 1.506653 -0.059047
v -0.267542 1.481374 0.068125
v -0.228251 1.452890 0.143776
v -0.114447 1.401116 0.174826
v -0.127833 1.583886 -0.286562
v -0.260391 1.606954 -0.190978
v -0.278253 1.620666 -0.066309
v -0.256192 1.609995 0.048855
v -0.228155 1.589394 0.141715
v -0.136133 1.546863 0.193154
v -0.110415 1.689192 -0.235587
v -0.235022 1.698783 -0.156843
v -0.256220 1.698771 -0.052487
v -0.237562 1.690918 0.043769
v -0.214573 1.683360 0.123138
v -0.130439 1.671646 0.174127
v -0.109776 1.911901 -0.230189
v -0.108599 2.093845 -0.295667
v -0.240532 1.908826 -0.160750
v -0.263507 2.069909 -0.220437
v -0.267141 1.946957 -0.055482
v -0.297102 2.079215 -0.091333
v -0.245725 1.946945 0.042911
v -0.275848 2.124015 0.045730
v -0.219316 1.946244 0.123915
v -0.240746 2.179501 0.141944
v -0.129066 1.941499 0.169143
v -0.141271 2.256293 0.176698
v -0.557935 2.328399 -0.070833
v -0.105790 2.268887 -0.309343
v -0.285775 2.161508 -0.290055
v -0.301958 2.212675 0.098822
v -0.288197 2.305526 0.116892
v -0.175940 2.400533 0.063473
v -0.501035 2.338881 -0.250050
v -0.285775 2.314144 -0.289299
v -0.094141 2.471914 -0.256414
v -0.436830 2.213243 -0.304791
v -0.144189 2.489681 -0.207535
v -0.136587 2.492128 -0.013339
v -0.349980 2.439781 -0.198735
v -0.364325 2.429299 -0.019518
v -0.464321 2.224366 0.075540
v -0.288197 0.235612 0.103493
v -0.285775 0.235612 -0.299598
v -0.436830 0.235612 -0.299989
v -0.464321 0.235612 0.075540
v -0.105790 0.235612 -0.300103
v -0.436830 2.068017 -0.304438
v -0.464321 2.100425 0.075540
v -0.288197 2.176528 0.116057
vn 0.5091 0.0212 -0.8604
vn 0.9739 0.1610 -0.1598
vn 0.9606 0.1511 0.2331
vn 0.9190 0.0709 0.3878
vn 0.4034 -0.0834 0.9112
vn 0.1124 -0.0778 -0.9906
vn 0.0484 0.4286 -0.9022
vn 0.4671 0.4340 -0.7704
vn 0.9337 0.3107 -0.1778
vn 0.9512 0.2320 0.2035
vn 0.9269 0.2126 0.3094
vn 0.4492 0.1897 0.8730
vn 0.0681 0.0294 -0.9972
vn 0.0368 -0.3200 -0.9467
vn 0.5020 -0.0027 -0.8649
vn 0.3999 -0.3365 -0.8525
vn 0.9757 -0.0382 -0.2156
vn 0.9517 -0.2358 -0.1967
vn 0.9791 -0.0355 0.2001
vn 0.9644 -0.1653 0.2062
vn 0.9558 -0.0237 0.2932
vn 0.9226 -0.1343 0.3617
vn 0.4828 0.0039 0.8757
vn 0.3663 -0.0658 0.9282
vn -0.0150 -0.0605 -0.9981
vn 0.1462 -0.3047 -0.9412
vn 0.6546 -0.3141 0.6876
vn 0.2341 0.3855 0.8925
vn 0.0029 0.2322 -0.9727
vn 0.0718 0.1512 -0.9859
vn 0.4467 0.5465 0.7084
vn 0.2483 0.5663 -0.7859
vn 0.2515 0.9677 0.0163
vn 0.2116 0.6691 0.7124
vn 0.4941 0.8681 -0.0474
vn 0.1088 0.4554 -0.8836
vn 0.1901 -0.0032 0.9818
vn -0.0484 0.0014 -0.9988
vn 0.0549 0.0001 -0.9985
vn -0.0223 -0.0034 -0.9997
vn -0.0976 0.0013 -0.9952
vn 0.2250 -0.0032 0.9743
vn -0.5091 0.0212 -0.8604
vn -0.9739 0.1610 -0.1598
vn -0.9606 0.1511 0.2331
vn -0.9190 0.0709 0.3878
vn -0.4034 -0.0834 0.9112
vn -0.1124 -0.0778 -0.9906
vn -0.0484 0.4286 -0.9022
vn -0.4671 0.4340 -0.7704
vn -0.9337 0.3107 -0.1778
vn -0.9512 0.2320 0.2035
vn -0.9269 0.2126 0.3094
vn -0.4492 0.1897 0.8730
vn -0.0681 0.0294 -0.9972
vn -0.0368 -0.3200 -0.9467
vn -0.5020 -0.0027 -0.8649
vn -0.3999 -0.3365 -0.8525
vn -0.9757 -0.0382 -0.2156
vn -0.9517 -0.2358 -0.1967
vn -0.9791 -0.0355 0.2001
vn -0.9644 -0.1653 0.2062
vn -0.9558 -0.0237 0.2932
vn -0.9226 -0.1343 0.3617
vn -0.4828 0.0039 0.8757
vn -0.3663 -0.0658 0.9282
vn 0.0150 -0.0605 -0.9981
vn -0.1462 -0.3047 -0.9412
vn -0.6546 -0.3141 0.6876
vn -0.2341 0.3855 0.8925
vn -0.0029 0.2322 -0.9727
vn -0.0718 0.1512 -0.9859
vn -0.4467 0.5465 0.7084
vn -0.2483 0.5663 -0.7859
vn -0.2515 0.9677 0.0163
vn -0.2116 0.6691 0.7124
vn -0.4941 0.8681 -0.0474
vn -0.1088 0.4554 -0.8836
vn -0.1901 -0.0032 0.9818
vn 0.0484 0.0014 -0.9988
vn -0.0549 0.0001 -0.9985
vn 0.0223 -0.0034 -0.9997
vn 0.0976 0.0013 -0.9952
vn -0.2250 -0.0032 0.9743
s 0
usemtl Material.004
f 585//563 586//563 580//563 579//563
f 586//564 587//564 581//564 580//564
f 587//565 588//565 582//565 581//565
f 588//566 589//566 583//566 582//566
f 589//567 590//567 584//567 583//567
f 585//568 579//568 591//568 592//568
f 593//569 594//569 585//569 592//569
f 594//570 595//570 586//570 585//570
f 595//571 596//571 587//571 586//571
f 596//572 597//572 588//572 587//572
f 597//573 598//573 589//573 588//573
f 598//574 599//574 590//574 589//574
f 600//575 602//575 594//575 593//575
f 601//576 603//576 602//576 600//576
f 602//577 604//577 595//577 594//577
f 603//578 605//578 604//578 602//578
f 604//579 606//579 596//579 595//579
f 605//580 607//580 606//580 604//580
f 606//581 608//581 597//581 596//581
f 607//582 609//582 608//582 606//582
f 608//583 610//583 598//583 597//583
f 609//584 611//584 610//584 608//584
f 610//585 612//585 599//585 598//585
f 611//586 613//586 612//586 610//586
f 615//587 616//587 603//587 601//587
f 616//588 617//588 605//588 603//588
f 618//589 619//589 611//589 609//589
f 619//590 620//590 613//590 611//590
f 616//591 615//591 623//591 624//591
f 616//592 624//592 622//592 617//592
f 629//593 619//593 630//593 614//593
f 626//594 628//594 622//594 624//594
f 627//595 629//595 628//595 626//595
f 619//596 629//596 627//596 620//596
f 628//597 629//597 614//597 621//597
f 622//598 628//598 621//598 625//598
f 638//599 639//599 631//599 634//599
f 617//600 637//600 633//600 632//600
f 616//601 617//601 632//601 636//601
f 615//602 616//602 636//602 635//602
f 622//603 625//603 637//603 617//603
f 630//604 619//604 639//604 638//604
f 646//605 640//605 641//605 647//605
f 647//606 641//606 642//606 648//606
f 648//607 642//607 643//607 649//607
f 649//608 643//608 644//608 650//608
f 650//609 644//609 645//609 651//609
f 646//610 592//610 591//610 640//610
f 593//611 592//611 646//611 652//611
f 652//612 646//612 647//612 653//612
f 653//613 647//613 648//613 654//613
f 654//614 648//614 649//614 655//614
f 655//615 649//615 650//615 656//615
f 656//616 650//616 651//616 657//616
f 600//617 593//617 652//617 658//617
f 601//618 600//618 658//618 659//618
f 658//619 652//619 653//619 660//619
f 659//620 658//620 660//620 661//620
f 660//621 653//621 654//621 662//621
f 661//622 660//622 662//622 663//622
f 662//623 654//623 655//623 664//623
f 663//624 662//624 664//624 665//624
f 664//625 655//625 656//625 666//625
f 665//626 664//626 666//626 667//626
f 666//627 656//627 657//627 668//627
f 667//628 666//628 668//628 669//628
f 615//629 601//629 659//629 671//629
f 671//630 659//630 661//630 672//630
f 673//631 665//631 667//631 674//631
f 674//632 667//632 669//632 675//632
f 671//633 678//633 623//633 615//633
f 671//634 672//634 677//634 678//634
f 683//635 670//635 684//635 674//635
f 680//636 678//636 677//636 682//636
f 681//637 680//637 682//637 683//637
f 674//638 675//638 681//638 683//638
f 682//639 676//639 670//639 683//639
f 677//640 679//640 676//640 682//640
f 691//641 688//641 685//641 692//641
f 672//642 686//642 687//642 690//642
f 671//643 689//643 686//643 672//643
f 615//644 635//644 689//644 671//644
f 677//645 672//645 690//645 679//645
f 684//646 691//646 692//646 674//646
o Vest
v 0.120666 1.450137 -0.255280
v 0.269442 1.484839 -0.193048
v 0.287363 1.504833 -0.059648
v 0.256742 1.480107 0.064576
v 0.164317 1.432108 0.135103
v 0.051758 1.381624 0.163782
v 0.124343 1.554838 -0.285942
v 0.251344 1.604048 -0.184633
v 0.267115 1.618130 -0.066512
v 0.245372 1.608001 0.045771
v 0.219795 1.588010 0.134048
v 0.133033 1.546650 0.182156
v 0.000000 1.544266 0.199763
v 0.000000 1.372486 0.174243
v 0.000000 1.455016 -0.270313
v 0.000000 1.540131 -0.297649
v 0.000000 1.684658 -0.233200
v 0.107226 1.686484 -0.224955
v 0.225781 1.696543 -0.150507
v 0.244875 1.697436 -0.052695
v 0.226545 1.689813 0.040950
v 0.205787 1.682134 0.115938
v 0.127190 1.670462 0.163238
v 0.000000 1.948894 -0.225382
v 0.000000 2.173597 -0.286088
v 0.106779 1.954116 -0.219288
v 0.106328 2.169751 -0.284640
v 0.231516 1.951089 -0.153941
v 0.256142 2.109501 -0.212629
v 0.255780 1.948162 -0.055454
v 0.286991 2.074397 -0.089518
v 0.234708 1.947860 0.040022
v 0.264032 2.113956 0.030731
v 0.210794 1.946722 0.116318
v 0.234500 2.153935 0.118315
v 0.126237 1.941316 0.158072
v 0.139520 2.099823 0.152201
v 0.000000 1.662164 0.176984
v 0.000000 1.943611 0.167334
v 0.000000 2.084114 0.176179
v 0.000000 2.251767 -0.285191
v 0.104358 2.250879 -0.284028
v 0.257010 2.179423 -0.235681
v 0.301053 2.116191 -0.062480
v 0.303933 2.166162 0.042034
v 0.290539 2.287847 0.079557
v 0.148703 2.245677 0.164888
v 0.000000 2.216577 0.167022
v 0.287918 2.317482 -0.253936
v 0.000000 2.391284 -0.252285
v 0.092379 2.400049 -0.245484
v 0.000000 2.480527 -0.247128
v 0.119183 2.476559 -0.035156
v 0.138995 2.481669 -0.201174
v 0.162511 2.474747 -0.013049
v 0.321804 2.413307 -0.193390
v 0.336483 2.402317 -0.024497
v 0.108733 2.375616 0.080476
v 0.000000 2.261165 0.177406
v 0.112217 2.515802 -0.158444
v 0.000000 2.517496 -0.216062
v -0.120666 1.450137 -0.255280
v -0.269442 1.484839 -0.193048
v -0.287363 1.504833 -0.059648
v -0.256742 1.480107 0.064576
v -0.164317 1.432108 0.135103
v -0.051758 1.381624 0.163782
v -0.124343 1.554838 -0.285942
v -0.251344 1.604048 -0.184633
v -0.267115 1.618130 -0.066512
v -0.245372 1.608001 0.045771
v -0.219795 1.588010 0.134048
v -0.133033 1.546650 0.182156
v -0.107226 1.686484 -0.224955
v -0.225781 1.696543 -0.150507
v -0.244875 1.697436 -0.052695
v -0.226545 1.689813 0.040950
v -0.205787 1.682134 0.115938
v -0.127190 1.670462 0.163238
v -0.106779 1.954116 -0.219288
v -0.106328 2.169751 -0.284640
v -0.231516 1.951089 -0.153941
v -0.256142 2.109501 -0.212629
v -0.255780 1.948162 -0.055454
v -0.286991 2.074397 -0.089518
v -0.234708 1.947860 0.040022
v -0.264032 2.113956 0.030731
v -0.210794 1.946722 0.116318
v -0.234500 2.153935 0.118315
v -0.126237 1.941316 0.158072
v -0.139520 2.099823 0.152201
v -0.104358 2.250879 -0.284028
v -0.257010 2.179423 -0.235681
v -0.301053 2.116191 -0.062480
v -0.303933 2.166162 0.042034
v -0.290539 2.287847 0.079557
v -0.148703 2.245677 0.164888
v -0.287918 2.317482 -0.253936
v -0.092379 2.400049 -0.245484
v -0.119183 2.476559 -0.035156
v -0.138995 2.481669 -0.201174
v -0.162511 2.474747 -0.013049
v -0.321804 2.413307 -0.193390
v -0.336483 2.402317 -0.024497
v -0.108733 2.375616 0.080476
v -0.112217 2.515802 -0.158444
vn 0.5209 -0.0511 -0.8521
vn 0.9750 0.1618 -0.1525
vn 0.9603 0.1509 0.2348
vn 0.8171 -0.0871 0.5699
vn 0.4418 -0.2350 0.8658
vn 0.1582 -0.1650 0.9735
vn 0.1153 -0.2923 -0.9493
vn 0.0486 0.4155 -0.9083
vn 0.4591 0.4197 -0.7830
vn 0.9355 0.3084 -0.1724
vn 0.9511 0.2310 0.2050
vn 0.9299 0.2127 0.3000
vn 0.4445 0.1893 0.8756
vn 0.0660 0.0253 -0.9975
vn 0.0358 -0.2750 -0.9608
vn 0.4982 -0.0013 -0.8670
vn 0.3659 -0.3142 -0.8760
vn 0.9758 -0.0348 -0.2159
vn 0.9223 -0.2708 -0.2758
vn 0.9787 -0.0352 0.2024
vn 0.9600 -0.1653 0.2260
vn 0.9592 -0.0239 0.2818
vn 0.9339 -0.1261 0.3345
vn 0.4788 0.0042 0.8779
vn 0.3966 -0.0304 0.9175
vn 0.0898 0.0269 0.9956
vn 0.1249 -0.0154 0.9921
vn 0.1109 0.1716 0.9789
vn 0.0126 0.0096 -0.9999
vn 0.3140 -0.1373 -0.9394
vn 0.9529 -0.1174 -0.2798
vn 0.7725 -0.5631 0.2933
vn 0.7311 -0.2854 0.6197
vn 0.4572 -0.0237 0.8890
vn 0.0926 -0.0157 0.9956
vn 0.0296 0.2413 -0.9700
vn 0.1400 0.0606 -0.9883
vn 0.2080 0.2192 -0.9533
vn 0.4740 0.8766 0.0835
vn 0.1744 0.4411 -0.8804
vn 0.3671 0.9301 0.0074
vn 0.2894 0.5768 0.7640
vn 0.0859 0.6587 0.7475
vn 0.1189 0.4107 0.9040
vn 0.2574 0.7408 -0.6204
vn -0.5209 -0.0511 -0.8521
vn -0.9750 0.1618 -0.1525
vn -0.9603 0.1509 0.2348
vn -0.8171 -0.0871 0.5699
vn -0.4418 -0.2350 0.8658
vn -0.1582 -0.1650 0.9735
vn -0.1153 -0.2923 -0.9493
vn -0.0486 0.4155 -0.9083
vn -0.4591 0.4197 -0.7830
vn -0.9355 0.3084 -0.1724
vn -0.9511 0.2310 0.2050
vn -0.9299 0.2127 0.3000
vn -0.4445 0.1893 0.8756
vn -0.0660 0.0253 -0.9975
vn -0.0358 -0.2750 -0.9608
vn -0.4982 -0.0013 -0.8670
vn -0.3659 -0.3142 -0.8760
vn -0.9758 -0.0348 -0.2159
vn -0.9223 -0.2708 -0.2758
vn -0.9787 -0.0352 0.2024
vn -0.9600 -0.1653 0.2260
vn -0.9592 -0.0239 0.2818
vn -0.9339 -0.1261 0.3345
vn -0.4788 0.0042 0.8779
vn -0.3966 -0.0304 0.9175
vn -0.0898 0.0269 0.9956
vn -0.1249 -0.0154 0.9921
vn -0.1109 0.1716 0.9789
vn -0.0126 0.0096 -0.9999
vn -0.3140 -0.1373 -0.9394
vn -0.9529 -0.1174 -0.2798
vn -0.7725 -0.5631 0.2933
vn -0.7311 -0.2854 0.6197
vn -0.4572 -0.0237 0.8890
vn -0.0926 -0.0157 0.9956
vn -0.0296 0.2413 -0.9700
vn -0.1400 0.0606 -0.9883
vn -0.2080 0.2192 -0.9533
vn -0.4740 0.8766 0.0835
vn -0.1744 0.4411 -0.8804
vn -0.3671 0.9301 0.0074
vn -0.2894 0.5768 0.7640
vn -0.0859 0.6587 0.7475
vn -0.1189 0.4107 0.9040
vn -0.2574 0.7408 -0.6204
s 0
usemtl Material.005
f 699//647 700//647 694//647 693//647
f 700//648 701//648 695//648 694//648
f 701//649 702//649 696//649 695//649
f 702//650 703//650 697//650 696//650
f 703//651 704//651 698//651 697//651
f 705//652 706//652 698//652 704//652
f 699//653 693//653 707//653 708//653
f 709//654 710//654 699//654 708//654
f 710//655 711//655 700//655 699//655
f 711//656 712//656 701//656 700//656
f 712//657 713//657 702//657 701//657
f 713//658 714//658 703//658 702//658
f 714//659 715//659 704//659 703//659
f 716//660 718//660 710//660 709//660
f 717//661 719//661 718//661 716//661
f 718//662 720//662 711//662 710//662
f 719//663 721//663 720//663 718//663
f 720//664 722//664 712//664 711//664
f 721//665 723//665 722//665 720//665
f 722//666 724//666 713//666 712//666
f 723//667 725//667 724//667 722//667
f 724//668 726//668 714//668 713//668
f 725//669 727//669 726//669 724//669
f 726//670 728//670 715//670 714//670
f 727//671 729//671 728//671 726//671
f 715//672 728//672 731//672 730//672
f 728//673 729//673 732//673 731//673
f 704//674 715//674 730//674 705//674
f 733//675 734//675 719//675 717//675
f 734//676 735//676 721//676 719//676
f 735//677 736//677 723//677 721//677
f 736//678 737//678 725//678 723//678
f 737//679 738//679 727//679 725//679
f 738//680 739//680 729//680 727//680
f 739//681 740//681 732//681 729//681
f 734//682 733//682 742//682 743//682
f 734//683 743//683 741//683 735//683
f 744//684 746//684 743//684 742//684
f 745//685 747//685 746//685 752//685
f 746//686 748//686 741//686 743//686
f 747//687 749//687 748//687 746//687
f 738//688 749//688 747//688 739//688
f 750//689 739//689 747//689 745//689
f 740//690 739//690 750//690 751//690
f 753//691 752//691 746//691 744//691
f 760//692 754//692 755//692 761//692
f 761//693 755//693 756//693 762//693
f 762//694 756//694 757//694 763//694
f 763//695 757//695 758//695 764//695
f 764//696 758//696 759//696 765//696
f 705//697 765//697 759//697 706//697
f 760//698 708//698 707//698 754//698
f 709//699 708//699 760//699 766//699
f 766//700 760//700 761//700 767//700
f 767//701 761//701 762//701 768//701
f 768//702 762//702 763//702 769//702
f 769//703 763//703 764//703 770//703
f 770//704 764//704 765//704 771//704
f 716//705 709//705 766//705 772//705
f 717//706 716//706 772//706 773//706
f 772//707 766//707 767//707 774//707
f 773//708 772//708 774//708 775//708
f 774//709 767//709 768//709 776//709
f 775//710 774//710 776//710 777//710
f 776//711 768//711 769//711 778//711
f 777//712 776//712 778//712 779//712
f 778//713 769//713 770//713 780//713
f 779//714 778//714 780//714 781//714
f 780//715 770//715 771//715 782//715
f 781//716 780//716 782//716 783//716
f 771//717 730//717 731//717 782//717
f 782//718 731//718 732//718 783//718
f 765//719 705//719 730//719 771//719
f 733//720 717//720 773//720 784//720
f 784//721 773//721 775//721 785//721
f 785//722 775//722 777//722 786//722
f 786//723 777//723 779//723 787//723
f 787//724 779//724 781//724 788//724
f 788//725 781//725 783//725 789//725
f 789//726 783//726 732//726 740//726
f 784//727 791//727 742//727 733//727
f 784//728 785//728 790//728 791//728
f 744//729 742//729 791//729 793//729
f 792//730 798//730 793//730 794//730
f 793//731 791//731 790//731 795//731
f 794//732 793//732 795//732 796//732
f 788//733 789//733 794//733 796//733
f 797//734 792//734 794//734 789//734
f 740//735 751//735 797//735 789//735
f 753//736 744//736 793//736 798//736
o Shirt
v 0.116456 1.452589 -0.243036
v 0.258823 1.484194 -0.185272
v 0.274375 1.502721 -0.060363
v 0.244957 1.480011 0.058680
v 0.156908 1.434747 0.124530
v 0.120392 1.553357 -0.273458
v 0.240906 1.600812 -0.177270
v 0.254269 1.615204 -0.066779
v 0.233007 1.606118 0.041622
v 0.210438 1.587399 0.124789
v 0.128886 1.547196 0.169660
v 0.000000 1.458977 -0.257833
v 0.000000 1.539654 -0.284532
v 0.000000 1.681608 -0.220401
v 0.103571 1.683342 -0.212690
v 0.215118 1.693955 -0.143210
v 0.231789 1.695906 -0.052966
v 0.213826 1.688536 0.037745
v 0.195642 1.680708 0.107648
v 0.123466 1.669088 0.150672
v 0.000000 1.950493 -0.212318
v 0.000000 2.175304 -0.273025
v 0.103339 1.956009 -0.206709
v 0.103719 2.172000 -0.271921
v 0.221117 1.953055 -0.146089
v 0.247579 2.153084 -0.203736
v 0.242677 1.949568 -0.055466
v 0.275326 2.124869 -0.087994
v 0.221994 1.948933 0.036728
v 0.253082 2.142055 0.025576
v 0.200890 1.947332 0.107647
v 0.225754 2.155529 0.108588
v 0.122681 1.941345 0.145383
v 0.136018 2.100201 0.139502
v 0.000000 2.250083 -0.272124
v 0.102740 2.250199 -0.270967
v 0.253953 2.185694 -0.219840
v 0.299304 2.124432 -0.061812
v 0.296888 2.187274 0.039547
v 0.284122 2.285021 0.068401
v 0.129735 2.242563 0.160507
v 0.383902 2.214416 0.000230
v 0.317922 2.146467 -0.011639
v 0.312854 2.123431 -0.089274
v 0.314593 2.144130 -0.181293
v 0.284625 2.315541 -0.241325
v 0.363168 2.202511 -0.207382
v 0.000000 2.388343 -0.239523
v 0.090494 2.396873 -0.232834
v 0.106591 2.472776 -0.036041
v 0.134518 2.471969 -0.193460
v 0.158163 2.463916 -0.019166
v 0.314868 2.404149 -0.186935
v 0.328806 2.392956 -0.029702
v 0.434180 2.242440 -0.184582
v 0.437092 2.241966 -0.014753
v 0.096531 2.372215 0.070412
v 0.102491 2.510025 -0.151686
v 0.000000 2.512131 -0.205147
v 0.394898 2.025238 -0.108640
v 0.483463 1.919113 -0.118136
v 0.557795 1.807242 -0.113068
v 0.677762 1.685530 -0.087160
v 0.739672 1.608405 -0.056619
v 0.412058 2.038414 -0.188628
v 0.506935 1.930801 -0.188240
v 0.576906 1.823076 -0.192963
v 0.699299 1.701743 -0.141864
v 0.743274 1.623992 -0.114730
v 0.466341 2.077989 -0.197406
v 0.554985 1.971254 -0.193552
v 0.642275 1.856040 -0.194075
v 0.746880 1.728966 -0.145363
v 0.786430 1.647123 -0.126615
v 0.519531 2.125710 -0.182254
v 0.600505 2.015303 -0.173910
v 0.698546 1.906756 -0.178821
v 0.790274 1.757136 -0.123264
v 0.831875 1.673419 -0.114111
v 0.524232 2.128927 -0.036606
v 0.611645 1.999600 -0.043022
v 0.692394 1.910086 -0.027512
v 0.770715 1.752585 -0.012564
v 0.831736 1.673013 -0.006749
v 0.487566 2.096456 -0.014994
v 0.571714 1.971887 -0.029399
v 0.639805 1.886026 -0.018208
v 0.732416 1.731325 -0.004049
v 0.798802 1.656791 0.009454
v 0.420472 2.047964 -0.019529
v 0.509287 1.929901 -0.037550
v 0.571376 1.832687 -0.032979
v 0.676342 1.701086 -0.020223
v 0.746422 1.625109 0.007345
v 0.639385 1.681753 -0.095129
v 0.670756 1.705589 -0.179576
v 0.743581 1.746580 -0.184369
v 0.809487 1.791523 -0.152844
v 0.782703 1.786014 0.016469
v 0.724089 1.754258 0.029138
v 0.639574 1.706182 0.005516
v 0.130507 2.531223 -0.036041
v 0.120446 2.430662 0.070412
v 0.112616 2.568471 -0.151686
v 0.000000 2.570577 -0.205147
v 0.206958 2.486846 -0.005165
v 0.201327 2.393326 0.066875
v 0.148296 2.515519 -0.173196
v 0.000000 2.532681 -0.233274
v -0.116456 1.452589 -0.243036
v -0.258823 1.484194 -0.185272
v -0.274375 1.502721 -0.060363
v -0.244957 1.480011 0.058680
v -0.156908 1.434747 0.124530
v -0.120392 1.553357 -0.273458
v -0.240906 1.600812 -0.177270
v -0.254269 1.615204 -0.066779
v -0.233007 1.606118 0.041622
v -0.210438 1.587399 0.124789
v -0.128886 1.547196 0.169660
v -0.103571 1.683342 -0.212690
v -0.215118 1.693955 -0.143210
v -0.231789 1.695906 -0.052966
v -0.213826 1.688536 0.037745
v -0.195642 1.680708 0.107648
v -0.123466 1.669088 0.150672
v -0.103339 1.956009 -0.206709
v -0.103719 2.172000 -0.271921
v -0.221117 1.953055 -0.146089
v -0.247579 2.153084 -0.203736
v -0.242677 1.949568 -0.055466
v -0.275326 2.124869 -0.087994
v -0.221994 1.948933 0.036728
v -0.253082 2.142055 0.025576
v -0.200890 1.947332 0.107647
v -0.225754 2.155529 0.108588
v -0.122681 1.941345 0.145383
v -0.136018 2.100201 0.139502
v -0.102740 2.250199 -0.270967
v -0.253953 2.185694 -0.219840
v -0.299304 2.124432 -0.061812
v -0.296888 2.187274 0.039547
v -0.284122 2.285021 0.068401
v -0.129735 2.242563 0.160507
v -0.383902 2.214416 0.000230
v -0.317922 2.146467 -0.011639
v -0.312854 2.123431 -0.089274
v -0.314593 2.144130 -0.181293
v -0.284625 2.315541 -0.241325
v -0.363168 2.202511 -0.207382
v -0.090494 2.396873 -0.232834
v -0.106591 2.472776 -0.036041
v -0.134518 2.471969 -0.193460
v -0.158163 2.463916 -0.019166
v -0.314868 2.404149 -0.186935
v -0.328806 2.392956 -0.029702
v -0.434180 2.242440 -0.184582
v -0.437092 2.241966 -0.014753
v -0.096531 2.372215 0.070412
v -0.102491 2.510025 -0.151686
v -0.394898 2.025238 -0.108640
v -0.483463 1.919113 -0.118136
v -0.557795 1.807242 -0.113068
v -0.677762 1.685530 -0.087160
v -0.739672 1.608405 -0.056619
v -0.412058 2.038414 -0.188628
v -0.506935 1.930801 -0.188240
v -0.576906 1.823076 -0.192963
v -0.699299 1.701743 -0.141864
v -0.743274 1.623992 -0.114730
v -0.466341 2.077989 -0.197406
v -0.554985 1.971254 -0.193552
v -0.642275 1.856040 -0.194075
v -0.746880 1.728966 -0.145363
v -0.786430 1.647123 -0.126615
v -0.519531 2.125710 -0.182254
v -0.600505 2.015303 -0.173910
v -0.698546 1.906756 -0.178821
v -0.790274 1.757136 -0.123264
v -0.831875 1.673419 -0.114111
v -0.524232 2.128927 -0.036606
v -0.611645 1.999600 -0.043022
v -0.692394 1.910086 -0.027512
v -0.770715 1.752585 -0.012564
v -0.831736 1.673013 -0.006749
v -0.487566 2.096456 -0.014994
v -0.571714 1.971887 -0.029399
v -0.639805 1.886026 -0.018208
v -0.732416 1.731325 -0.004049
v -0.798802 1.656791 0.009454
v -0.420472 2.047964 -0.019529
v -0.509287 1.929901 -0.037550
v -0.571376 1.832687 -0.032979
v -0.676342 1.701086 -0.020223
v -0.746422 1.625109 0.007345
v -0.639385 1.681753 -0.095129
v -0.670756 1.705589 -0.179576
v -0.743581 1.746580 -0.184369
v -0.809487 1.791523 -0.152844
v -0.782703 1.786014 0.016469
v -0.724089 1.754258 0.029138
v -0.639574 1.706182 0.005516
v -0.130507 2.531223 -0.036041
v -0.120446 2.430662 0.070412
v -0.112616 2.568471 -0.151686
v -0.206958 2.486846 -0.005165
v -0.201327 2.393326 0.066875
v -0.148296 2.515519 -0.173196
vn 0.5168 -0.0549 -0.8543
vn 0.9762 0.1630 -0.1427
vn 0.9600 0.1521 0.2352
vn 0.8175 -0.0876 0.5692
vn 0.1127 -0.3006 -0.9471
vn 0.0471 0.4193 -0.9066
vn 0.4551 0.4205 -0.7849
vn 0.9376 0.3058 -0.1652
vn 0.9510 0.2303 0.2064
vn 0.9339 0.2148 0.2859
vn 0.4387 0.1887 0.8786
vn 0.0633 0.0259 -0.9977
vn 0.0341 -0.2745 -0.9610
vn 0.4934 -0.0003 -0.8698
vn 0.4045 -0.2829 -0.8697
vn 0.9777 -0.0344 -0.2070
vn 0.9430 -0.2104 -0.2576
vn 0.9781 -0.0349 0.2051
vn 0.9667 -0.1420 0.2131
vn 0.9634 -0.0240 0.2672
vn 0.9438 -0.1238 0.3065
vn 0.4727 0.0047 0.8812
vn 0.3869 -0.0279 0.9217
vn 0.0111 0.0122 -0.9999
vn 0.3358 -0.1436 -0.9309
vn 0.7292 -0.5687 -0.3806
vn 0.3552 -0.8620 0.3617
vn 0.7289 -0.3368 0.5961
vn 0.4579 -0.0250 0.8887
vn 0.4743 -0.3508 0.8075
vn -0.1022 -0.8963 0.4315
vn -0.4646 -0.8623 -0.2016
vn 0.1539 -0.3025 -0.9406
vn 0.0285 0.2420 -0.9699
vn 0.1431 0.0500 -0.9884
vn 0.5069 0.8578 0.0855
vn 0.1673 0.4318 -0.8863
vn 0.3678 0.9298 0.0123
vn 0.4289 0.1922 -0.8827
vn 0.8089 0.5876 -0.0207
vn 0.5191 0.2947 0.8023
vn 0.2914 0.5782 0.7621
vn 0.1193 0.6516 0.7491
vn -0.7477 -0.6312 -0.2064
vn -0.7303 -0.6140 -0.2994
vn -0.7915 -0.5206 -0.3202
vn -0.7323 -0.5756 -0.3639
vn -0.7162 -0.6135 -0.3325
vn -0.1741 -0.1629 -0.9712
vn -0.0728 -0.0820 -0.9940
vn -0.0493 -0.0113 -0.9987
vn 0.0080 -0.0944 -0.9955
vn -0.0074 -0.2799 -0.9600
vn 0.2135 0.1174 -0.9699
vn 0.2265 0.1227 -0.9662
vn 0.1754 0.1688 -0.9699
vn 0.2782 0.1113 -0.9541
vn 0.3543 0.0161 -0.9350
vn 0.7985 0.6015 -0.0245
vn 0.8182 0.5745 -0.0209
vn 0.7418 0.6705 0.0163
vn 0.7509 0.6553 0.0816
vn 0.8397 0.5358 0.0880
vn 0.3129 0.1070 0.9437
vn 0.3209 0.1400 0.9367
vn 0.1065 0.2374 0.9656
vn 0.0129 0.3439 0.9389
vn 0.1850 0.2713 0.9445
vn -0.0161 -0.1214 0.9925
vn -0.0030 -0.1346 0.9909
vn -0.1548 -0.0250 0.9876
vn -0.3184 0.1244 0.9398
vn -0.2084 0.0771 0.9750
vn -0.6720 -0.6734 0.3083
vn -0.7176 -0.6092 0.3376
vn -0.8023 -0.5091 0.3116
vn -0.8617 -0.4685 0.1949
vn -0.7778 -0.6022 0.1801
vn 0.0378 -0.9719 0.2322
vn 0.2687 -0.7738 0.5737
vn 0.4866 -0.6615 0.5706
vn 0.9007 -0.4133 0.1342
vn 0.6349 -0.6794 -0.3678
vn 0.4296 -0.8075 -0.4042
vn 0.1496 -0.9638 -0.2205
vn 0.4442 -0.0385 -0.8951
vn 0.8935 -0.3656 -0.2609
vn 0.9447 -0.2751 -0.1784
vn -0.3665 -0.5528 0.7484
vn -0.2122 -0.6522 -0.7278
vn -0.6556 -0.7551 0.0014
vn -0.5168 -0.0549 -0.8543
vn -0.9762 0.1630 -0.1427
vn -0.9600 0.1521 0.2352
vn -0.8175 -0.0876 0.5692
vn -0.1127 -0.3006 -0.9471
vn -0.0471 0.4193 -0.9066
vn -0.4551 0.4205 -0.7849
vn -0.9376 0.3058 -0.1652
vn -0.9510 0.2303 0.2064
vn -0.9339 0.2148 0.2859
vn -0.4387 0.1887 0.8786
vn -0.0633 0.0259 -0.9977
vn -0.0341 -0.2745 -0.9610
vn -0.4934 -0.0003 -0.8698
vn -0.4045 -0.2829 -0.8697
vn -0.9777 -0.0344 -0.2070
vn -0.9430 -0.2104 -0.2576
vn -0.9781 -0.0349 0.2051
vn -0.9667 -0.1420 0.2131
vn -0.9634 -0.0240 0.2672
vn -0.9438 -0.1238 0.3065
vn -0.4727 0.0047 0.8812
vn -0.3869 -0.0279 0.9217
vn -0.0111 0.0122 -0.9999
vn -0.3358 -0.1436 -0.9309
vn -0.7292 -0.5687 -0.3806
vn -0.3552 -0.8620 0.3617
vn -0.7289 -0.3368 0.5961
vn -0.4579 -0.0250 0.8887
vn -0.4743 -0.3508 0.8075
vn 0.1022 -0.8963 0.4315
vn 0.4646 -0.8623 -0.2016
vn -0.1539 -0.3025 -0.9406
vn -0.0285 0.2420 -0.9699
vn -0.1431 0.0500 -0.9884
vn -0.5069 0.8578 0.0855
vn -0.1673 0.4318 -0.8863
vn -0.3678 0.9298 0.0123
vn -0.4289 0.1922 -0.8827
vn -0.8089 0.5876 -0.0207
vn -0.5191 0.2947 0.8023
vn -0.2914 0.5782 0.7621
vn -0.1193 0.6516 0.7491
vn 0.7477 -0.6312 -0.2064
vn 0.7303 -0.6140 -0.2994
vn 0.7915 -0.5206 -0.3202
vn 0.7323 -0.5756 -0.3639
vn 0.7162 -0.6135 -0.3325
vn 0.1741 -0.1629 -0.9712
vn 0.0728 -0.0820 -0.9940
vn 0.0493 -0.0113 -0.9987
vn -0.0080 -0.0944 -0.9955
vn 0.0074 -0.2799 -0.9600
vn -0.2135 0.1174 -0.9699
vn -0.2265 0.1227 -0.9662
vn -0.1754 0.1688 -0.9699
vn -0.2782 0.1113 -0.9541
vn -0.3543 0.0161 -0.9350
vn -0.7985 0.6015 -0.0245
vn -0.8182 0.5745 -0.0209
vn -0.7418 0.6705 0.0163
vn -0.7509 0.6553 0.0816
vn -0.8397 0.5358 0.0880
vn -0.3129 0.1070 0.9437
vn -0.3209 0.1400 0.9367
vn -0.1065 0.2374 0.9656
vn -0.0129 0.3439 0.9389
vn -0.1850 0.2713 0.9445
vn 0.0161 -0.1214 0.9925
vn 0.0030 -0.1346 0.9909
vn 0.1548 -0.0250 0.9876
vn 0.3184 0.1244 0.9398
vn 0.2084 0.0771 0.9750
vn 0.6720 -0.6734 0.3083
vn 0.7176 -0.6092 0.3376
vn 0.8023 -0.5091 0.3116
vn 0.8617 -0.4685 0.1949
vn 0.7778 -0.6022 0.1801
vn -0.0378 -0.9719 0.2322
vn -0.2687 -0.7738 0.5737
vn -0.4866 -0.6615 0.5706
vn -0.9007 -0.4133 0.1342
vn -0.6349 -0.6794 -0.3678
vn -0.4296 -0.8075 -0.4042
vn -0.1496 -0.9638 -0.2205
vn -0.4442 -0.0385 -0.8951
vn -0.8935 -0.3656 -0.2609
vn -0.9447 -0.2751 -0.1784
vn 0.3665 -0.5528 0.7484
vn 0.2122 -0.6522 -0.7278
vn 0.6556 -0.7551 0.0014
s 0
usemtl Material.006
f 804//737 805//737 800//737 799//737
f 805//738 806//738 801//738 800//738
f 806//739 807//739 802//739 801//739
f 807//740 808//740 803//740 802//740
f 804//741 799//741 810//741 811//741
f 812//742 813//742 804//742 811//742
f 813//743 814//743 805//743 804//743
f 814//744 815//744 806//744 805//744
f 815//745 816//745 807//745 806//745
f 816//746 817//746 808//746 807//746
f 817//747 818//747 809//747 808//747
f 819//748 821//748 813//748 812//748
f 820//749 822//749 821//749 819//749
f 821//750 823//750 814//750 813//750
f 822//751 824//751 823//751 821//751
f 823//752 825//752 815//752 814//752
f 824//753 826//753 825//753 823//753
f 825//754 827//754 816//754 815//754
f 826//755 828//755 827//755 825//755
f 827//756 829//756 817//756 816//756
f 828//757 830//757 829//757 827//757
f 829//758 831//758 818//758 817//758
f 830//759 832//759 831//759 829//759
f 833//760 834//760 822//760 820//760
f 834//761 835//761 824//761 822//761
f 835//762 836//762 826//762 824//762
f 836//763 837//763 828//763 826//763
f 837//764 838//764 830//764 828//764
f 838//765 839//765 832//765 830//765
f 840//766 838//766 837//766 841//766
f 841//767 837//767 836//767 842//767
f 843//768 842//768 836//768 835//768
f 843//769 835//769 844//769 845//769
f 834//770 833//770 846//770 847//770
f 834//771 847//771 844//771 835//771
f 848//772 850//772 849//772 856//772
f 849//773 851//773 844//773 847//773
f 850//774 852//774 851//774 849//774
f 851//775 853//775 845//775 844//775
f 852//776 854//776 853//776 851//776
f 840//777 854//777 852//777 838//777
f 838//778 852//778 850//778 839//778
f 855//779 839//779 850//779 848//779
f 858//780 842//780 843//780 863//780
f 859//781 858//781 863//781 864//781
f 860//782 859//782 864//782 865//782
f 893//783 860//783 865//783 894//783
f 862//784 861//784 866//784 867//784
f 863//785 843//785 845//785 868//785
f 864//786 863//786 868//786 869//786
f 865//787 864//787 869//787 870//787
f 894//788 865//788 870//788 895//788
f 867//789 866//789 871//789 872//789
f 868//790 845//790 853//790 873//790
f 869//791 868//791 873//791 874//791
f 870//792 869//792 874//792 875//792
f 895//793 870//793 875//793 896//793
f 872//794 871//794 876//794 877//794
f 873//795 853//795 854//795 878//795
f 874//796 873//796 878//796 879//796
f 875//797 874//797 879//797 880//797
f 896//798 875//798 880//798 897//798
f 877//799 876//799 881//799 882//799
f 878//800 854//800 840//800 883//800
f 879//801 878//801 883//801 884//801
f 880//802 879//802 884//802 885//802
f 897//803 880//803 885//803 898//803
f 882//804 881//804 886//804 887//804
f 883//805 840//805 841//805 888//805
f 884//806 883//806 888//806 889//806
f 885//807 884//807 889//807 890//807
f 898//808 885//808 890//808 899//808
f 887//809 886//809 891//809 892//809
f 841//810 842//810 858//810 888//810
f 859//811 889//811 888//811 858//811
f 860//812 890//812 889//812 859//812
f 893//813 899//813 890//813 860//813
f 862//814 892//814 891//814 861//814
f 861//815 891//815 899//815 893//815
f 886//816 898//816 899//816 891//816
f 881//817 897//817 898//817 886//817
f 876//818 896//818 897//818 881//818
f 871//819 895//819 896//819 876//819
f 866//820 894//820 895//820 871//820
f 861//821 893//821 894//821 866//821
f 856//822 857//822 903//822 902//822
f 855//823 848//823 900//823 901//823
f 848//824 856//824 902//824 900//824
f 902//825 903//825 907//825 906//825
f 901//826 900//826 904//826 905//826
f 900//827 902//827 906//827 904//827
f 913//828 908//828 909//828 914//828
f 914//829 909//829 910//829 915//829
f 915//830 910//830 911//830 916//830
f 916//831 911//831 912//831 917//831
f 913//832 811//832 810//832 908//832
f 812//833 811//833 913//833 919//833
f 919//834 913//834 914//834 920//834
f 920//835 914//835 915//835 921//835
f 921//836 915//836 916//836 922//836
f 922//837 916//837 917//837 923//837
f 923//838 917//838 918//838 924//838
f 819//839 812//839 919//839 925//839
f 820//840 819//840 925//840 926//840
f 925//841 919//841 920//841 927//841
f 926//842 925//842 927//842 928//842
f 927//843 920//843 921//843 929//843
f 928//844 927//844 929//844 930//844
f 929//845 921//845 922//845 931//845
f 930//846 929//846 931//846 932//846
f 931//847 922//847 923//847 933//847
f 932//848 931//848 933//848 934//848
f 933//849 923//849 924//849 935//849
f 934//850 933//850 935//850 936//850
f 833//851 820//851 926//851 937//851
f 937//852 926//852 928//852 938//852
f 938//853 928//853 930//853 939//853
f 939//854 930//854 932//854 940//854
f 940//855 932//855 934//855 941//855
f 941//856 934//856 936//856 942//856
f 943//857 944//857 940//857 941//857
f 944//858 945//858 939//858 940//858
f 946//859 938//859 939//859 945//859
f 946//860 948//860 947//860 938//860
f 937//861 949//861 846//861 833//861
f 937//862 938//862 947//862 949//862
f 950//863 958//863 951//863 952//863
f 951//864 949//864 947//864 953//864
f 952//865 951//865 953//865 954//865
f 953//866 947//866 948//866 955//866
f 954//867 953//867 955//867 956//867
f 943//868 941//868 954//868 956//868
f 941//869 942//869 952//869 954//869
f 957//870 950//870 952//870 942//870
f 959//871 964//871 946//871 945//871
f 960//872 965//872 964//872 959//872
f 961//873 966//873 965//873 960//873
f 994//874 995//874 966//874 961//874
f 963//875 968//875 967//875 962//875
f 964//876 969//876 948//876 946//876
f 965//877 970//877 969//877 964//877
f 966//878 971//878 970//878 965//878
f 995//879 996//879 971//879 966//879
f 968//880 973//880 972//880 967//880
f 969//881 974//881 955//881 948//881
f 970//882 975//882 974//882 969//882
f 971//883 976//883 975//883 970//883
f 996//884 997//884 976//884 971//884
f 973//885 978//885 977//885 972//885
f 974//886 979//886 956//886 955//886
f 975//887 980//887 979//887 974//887
f 976//888 981//888 980//888 975//888
f 997//889 998//889 981//889 976//889
f 978//890 983//890 982//890 977//890
f 979//891 984//891 943//891 956//891
f 980//892 985//892 984//892 979//892
f 981//893 986//893 985//893 980//893
f 998//894 999//894 986//894 981//894
f 983//895 988//895 987//895 982//895
f 984//896 989//896 944//896 943//896
f 985//897 990//897 989//897 984//897
f 986//898 991//898 990//898 985//898
f 999//899 1000//899 991//899 986//899
f 988//900 993//900 992//900 987//900
f 944//901 989//901 959//901 945//901
f 960//902 959//902 989//902 990//902
f 961//903 960//903 990//903 991//903
f 994//904 961//904 991//904 1000//904
f 963//905 962//905 992//905 993//905
f 962//906 994//906 1000//906 992//906
f 987//907 992//907 1000//907 999//907
f 982//908 987//908 999//908 998//908
f 977//909 982//909 998//909 997//909
f 972//910 977//910 997//910 996//910
f 967//911 972//911 996//911 995//911
f 962//912 967//912 995//912 994//912
f 958//913 1003//913 903//913 857//913
f 957//914 1002//914 1001//914 950//914
f 950//915 1001//915 1003//915 958//915
f 1003//916 1006//916 907//916 903//916
f 1002//917 1005//917 1004//917 1001//917
f 1001//918 1004//918 1006//918 1003//918
