# Blender 5.1.1
# www.blender.org
mtllib base.mtl
o BSurfaceMesh
v 0.027340 -0.012995 -0.127427
v 0.038896 -0.138552 -0.108465
v 0.071212 -0.299770 -0.103984
v 0.075947 -0.342474 -0.106195
v 0.079991 -0.379505 -0.111780
v 0.090081 -0.512789 -0.131757
v 0.091002 0.027406 -0.132304
v 0.104113 -0.125571 -0.115832
v 0.127350 -0.296201 -0.110555
v 0.130300 -0.336712 -0.112482
v 0.131334 -0.374242 -0.117710
v 0.145325 -0.515834 -0.138812
v 0.151802 0.061019 -0.108614
v 0.166643 -0.113367 -0.104459
v 0.178610 -0.290706 -0.096636
v 0.178772 -0.330811 -0.097436
v 0.179568 -0.373698 -0.105357
v 0.196211 -0.504367 -0.125264
v 0.160277 0.073485 -0.036630
v 0.176469 -0.111591 -0.040734
v 0.187953 -0.296047 -0.043358
v 0.188802 -0.335318 -0.045667
v 0.189994 -0.378365 -0.056862
v 0.207307 -0.502444 -0.072134
v 0.143016 0.058290 0.033102
v 0.161753 -0.116628 0.022091
v 0.174074 -0.298775 0.010157
v 0.173716 -0.338537 0.005997
v 0.178875 -0.385840 -0.008251
v 0.195474 -0.502426 -0.019248
v 0.091666 0.027448 0.070969
v 0.116003 -0.128709 0.059002
v 0.137447 -0.304726 0.045309
v 0.142690 -0.342720 0.044982
v 0.144148 -0.390367 0.024327
v 0.154044 -0.505809 0.010000
v 0.028132 -0.008541 0.086275
v 0.050412 -0.139298 0.058466
v 0.082187 -0.310891 0.036473
v 0.088796 -0.347970 0.038405
v 0.093149 -0.392899 0.019149
v 0.099750 -0.514842 0.002707
v 0.070786 -0.520908 -0.066515
v 0.064909 -0.405705 -0.049811
v 0.061822 -0.360220 -0.041124
v 0.057665 -0.325176 -0.036198
v 0.026346 -0.162020 -0.028884
v 0.004440 -0.041026 -0.020052
v 0.107167 -0.730807 -0.087908
v 0.163862 -0.724675 -0.139370
v 0.206039 -0.719537 -0.130126
v 0.218479 -0.723993 -0.087601
v 0.203907 -0.724962 -0.044300
v 0.172819 -0.719911 -0.021159
v 0.124913 -0.721712 -0.026518
v 0.118310 -0.722788 -0.135504
v 0.108693 -0.783970 -0.084667
v 0.132669 -0.767162 -0.028724
v 0.178989 -0.768349 -0.025894
v 0.210363 -0.764390 -0.048489
v 0.223068 -0.766615 -0.092341
v 0.212769 -0.769473 -0.134561
v 0.167475 -0.769628 -0.146290
v 0.122931 -0.771801 -0.144314
v 0.101276 -0.810156 -0.078896
v 0.116553 -0.801153 -0.157715
v 0.167917 -0.804894 -0.172384
v 0.223413 -0.800502 -0.156460
v 0.233281 -0.800829 -0.104515
v 0.214597 -0.774356 -0.033877
v 0.180526 -0.772256 -0.022265
v 0.130871 -0.777089 -0.024588
v 0.092943 -0.882723 -0.081112
v 0.126156 -0.890250 -0.164719
v 0.187008 -0.892230 -0.172307
v 0.235820 -0.888323 -0.140858
v 0.244618 -0.884560 -0.080566
v 0.247949 -0.883292 0.020777
v 0.244383 -0.847400 0.026525
v 0.220214 -0.826868 0.037876
v 0.186315 -0.817530 0.050244
v 0.133610 -0.828147 0.032340
v 0.114568 -0.851105 0.022219
v 0.046057 0.052638 -0.151075
v 0.071000 0.109666 -0.159911
v 0.141087 0.142503 -0.103948
v 0.148223 0.152842 -0.040328
v 0.135600 0.146865 0.023498
v 0.123154 0.134166 0.071626
v 0.076036 0.106200 0.097411
v 0.000000 0.103863 0.107469
v 0.000000 0.002732 0.092333
v -0.003367 -0.039233 -0.018823
v 0.000000 -0.015899 -0.126427
v 0.000000 0.045234 -0.150516
v 0.000000 0.100400 -0.166341
v 0.000000 0.199836 -0.127851
v 0.060986 0.201023 -0.123408
v 0.125475 0.208798 -0.083465
v 0.134597 0.210662 -0.032011
v 0.123915 0.205546 0.021534
v 0.113944 0.199926 0.061678
v 0.072940 0.191717 0.085949
v 0.000000 0.334072 -0.122881
v 0.000000 0.469474 -0.159433
v 0.060929 0.337506 -0.119685
v 0.061467 0.467685 -0.158897
v 0.129190 0.335760 -0.084984
v 0.145948 0.457298 -0.119230
v 0.141147 0.333449 -0.033420
v 0.161441 0.440902 -0.052480
v 0.128835 0.332944 0.020886
v 0.148178 0.450543 0.013322
v 0.117203 0.331791 0.061521
v 0.132869 0.456694 0.061434
v 0.072585 0.327929 0.082704
v 0.080838 0.475161 0.079257
v 0.000000 0.185832 0.093766
v 0.000000 0.329186 0.087885
v 0.000000 0.488066 0.087267
v 0.000000 0.513213 -0.158891
v 0.061240 0.513655 -0.158198
v 0.151749 0.481508 -0.127781
v 0.188274 0.448747 -0.038701
v 0.176050 0.477940 0.016181
v 0.166238 0.558718 0.019182
v 0.100835 0.593093 0.006821
v 0.000000 0.590843 0.020191
v 0.234441 0.496515 -0.001565
v 0.194098 0.454776 -0.008201
v 0.192605 0.440129 -0.056058
v 0.192500 0.453258 -0.113641
v 0.167150 0.549526 -0.140506
v 0.221386 0.489066 -0.129167
v 0.000000 0.596018 -0.139368
v 0.053765 0.601061 -0.135386
v 0.000000 0.650218 -0.109002
v 0.063200 0.651950 -0.022608
v 0.064289 0.648163 -0.090728
v 0.088268 0.644320 -0.032271
v 0.183986 0.600060 -0.110130
v 0.192287 0.593190 -0.019997
v 0.265940 0.512838 -0.116192
v 0.267777 0.512519 -0.009392
v 0.048440 0.633829 -0.002364
v 0.000000 0.624418 0.009454
v 0.050314 0.669665 -0.072903
v 0.000000 0.670759 -0.095783
v 0.247611 0.374348 -0.069012
v 0.306765 0.303471 -0.075161
v 0.361378 0.233138 -0.071164
v 0.439836 0.148972 -0.053111
v 0.477582 0.101986 -0.034886
v 0.257691 0.381915 -0.118021
v 0.320616 0.309979 -0.117453
v 0.370586 0.241456 -0.114104
v 0.450589 0.158117 -0.082480
v 0.478104 0.110983 -0.066506
v 0.290777 0.405862 -0.122443
v 0.349586 0.334617 -0.119895
v 0.405994 0.258732 -0.113733
v 0.476466 0.172499 -0.083585
v 0.500757 0.122800 -0.072146
v 0.322962 0.435220 -0.114361
v 0.376862 0.361620 -0.108881
v 0.436284 0.286132 -0.106791
v 0.499660 0.186953 -0.072655
v 0.525039 0.136017 -0.066989
v 0.325746 0.437326 -0.023938
v 0.384272 0.351060 -0.028466
v 0.433170 0.287576 -0.024540
v 0.488917 0.183580 -0.012039
v 0.525774 0.135074 -0.008192
v 0.304316 0.418163 -0.011906
v 0.360766 0.335097 -0.021551
v 0.405626 0.275711 -0.021019
v 0.469157 0.172490 -0.008600
v 0.509146 0.126860 -0.000350
v 0.262703 0.388311 -0.013894
v 0.322261 0.309506 -0.025768
v 0.368249 0.246717 -0.028261
v 0.438202 0.156875 -0.016791
v 0.480546 0.110202 -0.000461
v 0.480810 0.068458 0.021152
v 0.488090 0.043007 0.030831
v 0.479713 0.081310 -0.045319
v 0.499332 0.030798 -0.029132
v 0.510388 0.091896 -0.103347
v 0.513764 0.048580 -0.098817
v 0.567936 0.078756 -0.103735
v 0.571285 0.067331 -0.103328
v 0.557917 0.105215 -0.041084
v 0.573930 0.075628 -0.026380
v 0.543450 0.093504 0.025569
v 0.546792 0.075157 0.038801
v 0.531251 0.088627 0.024709
v 0.531492 0.066777 0.036724
v 0.507853 -0.005672 0.037318
v 0.518061 -0.026562 0.033886
v 0.514077 -0.008305 0.003145
v 0.528149 -0.029656 0.009228
v 0.543505 -0.000588 0.010022
v 0.550799 -0.024608 0.017276
v 0.539396 0.002798 0.042559
v 0.542824 -0.020551 0.041372
v 0.537417 0.020779 0.003423
v 0.531340 0.039119 0.037885
v 0.494583 0.026562 0.036480
v 0.498289 0.018111 -0.000442
v 0.559324 0.014193 0.042039
v 0.569999 -0.007314 0.042279
v 0.576505 -0.023182 0.041304
v 0.583934 -0.042633 0.037748
v 0.594371 -0.074134 0.027516
v 0.541790 0.040300 0.008175
v 0.570842 -0.008850 -0.012499
v 0.578767 -0.029749 -0.013167
v 0.585387 -0.050093 -0.012483
v 0.595738 -0.075995 -0.013057
v 0.545663 0.028157 -0.051211
v 0.560804 -0.009435 -0.063275
v 0.571520 -0.028849 -0.063399
v 0.581073 -0.049558 -0.060010
v 0.594406 -0.075719 -0.053431
v 0.547706 0.029484 -0.110697
v 0.577174 -0.001263 -0.106992
v 0.586477 -0.020589 -0.104558
v 0.592099 -0.042675 -0.101689
v 0.609187 -0.070029 -0.083744
v 0.587985 0.043221 -0.096790
v 0.608591 0.010730 -0.078777
v 0.620486 -0.016187 -0.072719
v 0.621675 -0.044063 -0.071362
v 0.631836 -0.071009 -0.053537
v 0.585816 0.053407 -0.036773
v 0.604601 0.011083 -0.027355
v 0.616489 -0.017696 -0.022008
v 0.621471 -0.047773 -0.023633
v 0.627264 -0.076166 -0.013742
v 0.586992 0.048742 0.023836
v 0.605026 0.010844 0.024428
v 0.618271 -0.016422 0.028719
v 0.623147 -0.041877 0.023518
v 0.623863 -0.069893 0.025654
v 0.491855 0.033472 0.034106
v 0.531383 0.046867 0.037560
v 0.498659 0.022614 -0.010624
v 0.116984 -0.884707 0.109589
v 0.131259 -0.858794 0.123481
v 0.182861 -0.839405 0.123403
v 0.220855 -0.839722 0.116086
v 0.250992 -0.853176 0.106911
v 0.270314 -0.883359 0.094742
v 0.264831 -0.886542 0.122856
v 0.252680 -0.884547 0.155646
v 0.226665 -0.885274 0.172382
v 0.190895 -0.887263 0.173388
v 0.143093 -0.885331 0.163320
v 0.130364 -0.887430 0.136015
v 0.092908 -0.935297 -0.080494
v 0.126121 -0.942823 -0.164101
v 0.186973 -0.944803 -0.171689
v 0.235785 -0.940896 -0.140240
v 0.244583 -0.937134 -0.079948
v 0.247914 -0.935866 0.021395
v 0.270279 -0.935932 0.095360
v 0.264796 -0.939115 0.123474
v 0.252645 -0.937121 0.156264
v 0.226630 -0.937847 0.173000
v 0.190860 -0.939836 0.174006
v 0.143058 -0.937904 0.163938
v 0.130329 -0.940004 0.136633
v 0.116949 -0.937281 0.110207
v 0.000000 0.679913 -0.091808
v 0.000000 0.712303 -0.087587
v 0.046796 0.676074 -0.074128
v 0.045682 0.712375 -0.062435
v 0.053853 0.665189 -0.028465
v 0.051640 0.705843 -0.014515
v 0.040806 0.658479 -0.005190
v 0.039811 0.698398 0.009400
v 0.000000 0.650715 0.009281
v 0.000000 0.689129 0.022834
v 0.000000 0.731005 -0.116507
v 0.066698 0.732367 -0.070985
v 0.070354 0.721153 0.015068
v 0.064063 0.707116 0.062068
v 0.000000 0.692855 0.089306
v 0.000000 0.787690 -0.132821
v 0.000000 0.876384 -0.126061
v 0.000000 0.935869 -0.084468
v 0.080262 0.789440 -0.085751
v 0.085382 0.862517 -0.086107
v 0.071728 0.910222 -0.070997
v 0.088299 0.780491 0.018580
v 0.091916 0.847994 0.020975
v 0.065299 0.924308 -0.006306
v 0.074265 0.771775 0.076295
v 0.077466 0.836570 0.080174
v 0.066259 0.908747 0.052557
v 0.000000 0.766372 0.107054
v 0.000000 0.851185 0.107478
v 0.000000 0.928615 0.064652
v 0.000000 0.954110 -0.007548
v -0.027340 -0.012995 -0.127427
v -0.038896 -0.138552 -0.108465
v -0.071212 -0.299770 -0.103984
v -0.075947 -0.342474 -0.106195
v -0.079991 -0.379505 -0.111780
v -0.090081 -0.512789 -0.131757
v -0.091002 0.027406 -0.132304
v -0.104113 -0.125571 -0.115832
v -0.127350 -0.296201 -0.110555
v -0.130300 -0.336712 -0.112482
v -0.131334 -0.374242 -0.117710
v -0.145325 -0.515834 -0.138812
v -0.151802 0.061019 -0.108614
v -0.166643 -0.113367 -0.104459
v -0.178610 -0.290706 -0.096636
v -0.178772 -0.330811 -0.097436
v -0.179568 -0.373698 -0.105357
v -0.196211 -0.504367 -0.125264
v -0.160277 0.073485 -0.036630
v -0.176469 -0.111591 -0.040734
v -0.187953 -0.296047 -0.043358
v -0.188802 -0.335318 -0.045667
v -0.189994 -0.378365 -0.056862
v -0.207307 -0.502444 -0.072134
v -0.143016 0.058290 0.033102
v -0.161753 -0.116628 0.022091
v -0.174074 -0.298775 0.010157
v -0.173716 -0.338537 0.005997
v -0.178875 -0.385840 -0.008251
v -0.195474 -0.502426 -0.019248
v -0.091666 0.027448 0.070969
v -0.116003 -0.128709 0.059002
v -0.137447 -0.304726 0.045309
v -0.142690 -0.342720 0.044982
v -0.144148 -0.390367 0.024327
v -0.154044 -0.505809 0.010000
v -0.028132 -0.008541 0.086275
v -0.050412 -0.139298 0.058466
v -0.082187 -0.310891 0.036473
v -0.088796 -0.347970 0.038405
v -0.093149 -0.392899 0.019149
v -0.099750 -0.514842 0.002707
v -0.070786 -0.520908 -0.066515
v -0.064909 -0.405705 -0.049811
v -0.061822 -0.360220 -0.041124
v -0.057665 -0.325176 -0.036198
v -0.026346 -0.162020 -0.028884
v -0.004440 -0.041026 -0.020052
v -0.107167 -0.730807 -0.087908
v -0.163862 -0.724675 -0.139370
v -0.206039 -0.719537 -0.130126
v -0.218479 -0.723993 -0.087601
v -0.203907 -0.724962 -0.044300
v -0.172819 -0.719911 -0.021159
v -0.124913 -0.721712 -0.026518
v -0.118310 -0.722788 -0.135504
v -0.108693 -0.783970 -0.084667
v -0.132669 -0.767162 -0.028724
v -0.178989 -0.768349 -0.025894
v -0.210363 -0.764390 -0.048489
v -0.223068 -0.766615 -0.092341
v -0.212769 -0.769473 -0.134561
v -0.167475 -0.769628 -0.146290
v -0.122931 -0.771801 -0.144314
v -0.101276 -0.810156 -0.078896
v -0.116553 -0.801153 -0.157715
v -0.167917 -0.804894 -0.172384
v -0.223413 -0.800502 -0.156460
v -0.233281 -0.800829 -0.104515
v -0.214597 -0.774356 -0.033877
v -0.180526 -0.772256 -0.022265
v -0.130871 -0.777089 -0.024588
v -0.092943 -0.882723 -0.081112
v -0.126156 -0.890250 -0.164719
v -0.187008 -0.892230 -0.172307
v -0.235820 -0.888323 -0.140858
v -0.244618 -0.884560 -0.080566
v -0.247949 -0.883292 0.020777
v -0.244383 -0.847400 0.026525
v -0.220214 -0.826868 0.037876
v -0.186315 -0.817530 0.050244
v -0.133610 -0.828147 0.032340
v -0.114568 -0.851105 0.022219
v -0.046057 0.052638 -0.151075
v -0.071000 0.109666 -0.159911
v -0.141087 0.142503 -0.103948
v -0.148223 0.152842 -0.040328
v -0.135600 0.146865 0.023498
v -0.123154 0.134166 0.071626
v -0.076036 0.106200 0.097411
v 0.003367 -0.039233 -0.018823
v -0.060986 0.201023 -0.123408
v -0.125475 0.208798 -0.083465
v -0.134597 0.210662 -0.032011
v -0.123915 0.205546 0.021534
v -0.113944 0.199926 0.061678
v -0.072940 0.191717 0.085949
v -0.060929 0.337506 -0.119685
v -0.061467 0.467685 -0.158897
v -0.129190 0.335760 -0.084984
v -0.145948 0.457298 -0.119230
v -0.141147 0.333449 -0.033420
v -0.161441 0.440902 -0.052480
v -0.128835 0.332944 0.020886
v -0.148178 0.450543 0.013322
v -0.117203 0.331791 0.061521
v -0.132869 0.456694 0.061434
v -0.072585 0.327929 0.082704
v -0.080838 0.475161 0.079257
v -0.061240 0.513655 -0.158198
v -0.151749 0.481508 -0.127781
v -0.188274 0.448747 -0.038701
v -0.176050 0.477940 0.016181
v -0.166238 0.558718 0.019182
v -0.100835 0.593093 0.006821
v -0.234441 0.496515 -0.001565
v -0.194098 0.454776 -0.008201
v -0.192605 0.440129 -0.056058
v -0.192500 0.453258 -0.113641
v -0.167150 0.549526 -0.140506
v -0.221386 0.489066 -0.129167
v -0.053765 0.601061 -0.135386
v -0.063200 0.651950 -0.022608
v -0.064289 0.648163 -0.090728
v -0.088268 0.644320 -0.032271
v -0.183986 0.600060 -0.110130
v -0.192287 0.593190 -0.019997
v -0.265940 0.512838 -0.116192
v -0.267777 0.512519 -0.009392
v -0.048440 0.633829 -0.002364
v -0.050314 0.669665 -0.072903
v -0.247611 0.374348 -0.069012
v -0.306765 0.303471 -0.075161
v -0.361378 0.233138 -0.071164
v -0.439836 0.148972 -0.053111
v -0.477582 0.101986 -0.034886
v -0.257691 0.381915 -0.118021
v -0.320616 0.309979 -0.117453
v -0.370586 0.241456 -0.114104
v -0.450589 0.158117 -0.082480
v -0.478104 0.110983 -0.066506
v -0.290777 0.405862 -0.122443
v -0.349586 0.334617 -0.119895
v -0.405994 0.258732 -0.113733
v -0.476466 0.172499 -0.083585
v -0.500757 0.122800 -0.072146
v -0.322962 0.435220 -0.114361
v -0.376862 0.361620 -0.108881
v -0.436284 0.286132 -0.106791
v -0.499660 0.186953 -0.072655
v -0.525039 0.136017 -0.066989
v -0.325746 0.437326 -0.023938
v -0.384272 0.351060 -0.028466
v -0.433170 0.287576 -0.024540
v -0.488917 0.183580 -0.012039
v -0.525774 0.135074 -0.008192
v -0.304316 0.418163 -0.011906
v -0.360766 0.335097 -0.021551
v -0.405626 0.275711 -0.021019
v -0.469157 0.172490 -0.008600
v -0.509146 0.126860 -0.000350
v -0.262703 0.388311 -0.013894
v -0.322261 0.309506 -0.025768
v -0.368249 0.246717 -0.028261
v -0.438202 0.156875 -0.016791
v -0.480546 0.110202 -0.000461
v -0.480810 0.068458 0.021152
v -0.488090 0.043007 0.030831
v -0.479713 0.081310 -0.045319
v -0.499332 0.030798 -0.029132
v -0.510388 0.091896 -0.103347
v -0.513764 0.048580 -0.098817
v -0.567936 0.078756 -0.103735
v -0.571285 0.067331 -0.103328
v -0.557917 0.105215 -0.041084
v -0.573930 0.075628 -0.026380
v -0.543450 0.093504 0.025569
v -0.546792 0.075157 0.038801
v -0.531251 0.088627 0.024709
v -0.531492 0.066777 0.036724
v -0.507853 -0.005672 0.037318
v -0.518061 -0.026562 0.033886
v -0.514077 -0.008305 0.003145
v -0.528149 -0.029656 0.009228
v -0.543505 -0.000588 0.010022
v -0.550799 -0.024608 0.017276
v -0.539396 0.002798 0.042559
v -0.542824 -0.020551 0.041372
v -0.537417 0.020779 0.003423
v -0.531340 0.039119 0.037885
v -0.494583 0.026562 0.036480
v -0.498289 0.018111 -0.000442
v -0.559324 0.014193 0.042039
v -0.569999 -0.007314 0.042279
v -0.576505 -0.023182 0.041304
v -0.583934 -0.042633 0.037748
v -0.594371 -0.074134 0.027516
v -0.541790 0.040300 0.008175
v -0.570842 -0.008850 -0.012499
v -0.578767 -0.029749 -0.013167
v -0.585387 -0.050093 -0.012483
v -0.595738 -0.075995 -0.013057
v -0.545663 0.028157 -0.051211
v -0.560804 -0.009435 -0.063275
v -0.571520 -0.028849 -0.063399
v -0.581073 -0.049558 -0.060010
v -0.594406 -0.075719 -0.053431
v -0.547706 0.029484 -0.110697
v -0.577174 -0.001263 -0.106992
v -0.586477 -0.020589 -0.104558
v -0.592099 -0.042675 -0.101689
v -0.609187 -0.070029 -0.083744
v -0.587985 0.043221 -0.096790
v -0.608591 0.010730 -0.078777
v -0.620486 -0.016187 -0.072719
v -0.621675 -0.044063 -0.071362
v -0.631836 -0.071009 -0.053537
v -0.585816 0.053407 -0.036773
v -0.604601 0.011083 -0.027355
v -0.616489 -0.017696 -0.022008
v -0.621471 -0.047773 -0.023633
v -0.627264 -0.076166 -0.013742
v -0.586992 0.048742 0.023836
v -0.605026 0.010844 0.024428
v -0.618271 -0.016422 0.028719
v -0.623147 -0.041877 0.023518
v -0.623863 -0.069893 0.025654
v -0.491855 0.033472 0.034106
v -0.531383 0.046867 0.037560
v -0.498659 0.022614 -0.010624
v -0.116984 -0.884707 0.109589
v -0.131259 -0.858794 0.123481
v -0.182861 -0.839405 0.123403
v -0.220855 -0.839722 0.116086
v -0.250992 -0.853176 0.106911
v -0.270314 -0.883359 0.094742
v -0.264831 -0.886542 0.122856
v -0.252680 -0.884547 0.155646
v -0.226665 -0.885274 0.172382
v -0.190895 -0.887263 0.173388
v -0.143093 -0.885331 0.163320
v -0.130364 -0.887430 0.136015
v -0.092908 -0.935297 -0.080494
v -0.126121 -0.942823 -0.164101
v -0.186973 -0.944803 -0.171689
v -0.235785 -0.940896 -0.140240
v -0.244583 -0.937134 -0.079948
v -0.247914 -0.935866 0.021395
v -0.270279 -0.935932 0.095360
v -0.264796 -0.939115 0.123474
v -0.252645 -0.937121 0.156264
v -0.226630 -0.937847 0.173000
v -0.190860 -0.939836 0.174006
v -0.143058 -0.937904 0.163938
v -0.130329 -0.940004 0.136633
v -0.116949 -0.937281 0.110207
v -0.046796 0.676074 -0.074128
v -0.045682 0.712375 -0.062435
v -0.053853 0.665189 -0.028465
v -0.051640 0.705843 -0.014515
v -0.040806 0.658479 -0.005190
v -0.039811 0.698398 0.009400
v -0.066698 0.732367 -0.070985
v -0.070354 0.721153 0.015068
v -0.064063 0.707116 0.062068
v -0.080262 0.789440 -0.085751
v -0.085382 0.862517 -0.086107
v -0.071728 0.910222 -0.070997
v -0.088299 0.780491 0.018580
v -0.091916 0.847994 0.020975
v -0.065299 0.924308 -0.006306
v -0.074265 0.771775 0.076295
v -0.077466 0.836570 0.080174
v -0.066259 0.908747 0.052557
vn -0.0404 -0.1296 -0.9907
vn -0.1076 -0.0472 -0.9931
vn -0.1187 0.0384 -0.9922
vn -0.1275 0.1338 -0.9828
vn -0.1226 0.1362 -0.9831
vn 0.2856 -0.0360 -0.9577
vn 0.2191 -0.0146 -0.9756
vn 0.2741 0.0431 -0.9607
vn 0.2590 0.1616 -0.9523
vn 0.2298 0.1702 -0.9582
vn 0.9862 0.0851 -0.1419
vn 0.9853 0.0616 -0.1595
vn 0.9836 0.0196 -0.1795
vn 0.9789 0.0657 -0.1937
vn 0.9671 0.1566 -0.2006
vn 0.9658 0.0834 0.2457
vn 0.9689 0.0533 0.2417
vn 0.9642 -0.0157 0.2646
vn 0.9676 -0.0031 0.2525
vn 0.9675 0.1116 0.2270
vn 0.6035 0.0232 0.7970
vn 0.6574 0.0081 0.7535
vn 0.7381 0.0075 0.6746
vn 0.7345 -0.1885 0.6519
vn 0.6310 -0.0126 0.7757
vn 0.1525 -0.1114 0.9820
vn -0.0615 -0.1112 0.9919
vn -0.1397 -0.0009 0.9902
vn -0.0729 -0.3987 0.9142
vn -0.1019 -0.1348 0.9856
vn -0.9140 -0.1029 0.3924
vn -0.9095 -0.1892 0.3701
vn -0.9278 -0.1526 0.3405
vn -0.9230 -0.2026 0.3271
vn -0.9348 -0.2062 0.2893
vn -0.9650 -0.1401 -0.2216
vn -0.9552 -0.1854 -0.2306
vn -0.9688 -0.0896 -0.2309
vn -0.9704 -0.0427 -0.2379
vn -0.9636 -0.0226 -0.2665
vn 0.2331 0.0280 -0.9721
vn 0.9698 0.0577 -0.2371
vn 0.9641 0.0184 0.2648
vn 0.5832 -0.0679 0.8095
vn -0.1055 -0.1520 0.9827
vn -0.9198 -0.1783 0.3496
vn -0.1078 -0.0018 -0.9942
vn -0.9525 -0.1301 -0.2755
vn -0.9329 -0.0841 0.3503
vn -0.0857 -0.0861 0.9926
vn 0.5908 0.0030 0.8068
vn 0.9504 0.0957 0.2961
vn 0.9567 0.1422 -0.2540
vn 0.2229 0.1397 -0.9648
vn -0.9702 -0.0454 -0.2381
vn -0.0644 0.1593 -0.9851
vn -0.0653 0.4894 0.8696
vn 0.1371 -0.5257 0.8395
vn -0.1872 -0.5964 0.7806
vn -0.8971 -0.3926 0.2027
vn -0.9326 -0.3147 -0.1768
vn -0.2555 -0.8068 -0.5327
vn -0.9024 0.3119 0.2974
vn -0.9520 0.2589 -0.1633
vn -0.9582 0.0088 -0.2860
vn -0.1942 0.0069 -0.9809
vn 0.4140 -0.0070 -0.9103
vn 0.9813 0.0975 -0.1662
vn 0.9923 0.1177 -0.0387
vn 0.8565 0.4881 0.1679
vn 0.3158 0.7968 0.5151
vn -0.2333 0.7726 0.5904
vn -0.8656 0.3896 0.3146
vn 0.2073 -0.3187 -0.9249
vn 0.5272 -0.0201 -0.8495
vn 0.9808 0.1397 -0.1364
vn 0.9629 0.1303 0.2361
vn 0.8186 -0.0748 0.5694
vn 0.4427 -0.2052 0.8729
vn 0.1386 -0.1499 0.9789
vn -0.2592 -0.9034 0.3415
vn 0.0161 -0.9729 -0.2305
vn 0.0302 -0.3562 -0.9339
vn 0.0815 -0.2312 -0.9695
vn 0.0474 0.3676 -0.9288
vn 0.4639 0.3669 -0.8063
vn 0.9514 0.2618 -0.1622
vn 0.9580 0.1967 0.2088
vn 0.9427 0.1849 0.2778
vn 0.4368 0.1608 0.8851
vn 0.0613 0.0320 -0.9976
vn 0.0330 -0.2742 -0.9611
vn 0.4901 0.0005 -0.8717
vn 0.4018 -0.2819 -0.8713
vn 0.9788 -0.0426 -0.2005
vn 0.9442 -0.2116 -0.2525
vn 0.9776 -0.0431 0.2062
vn 0.9655 -0.1444 0.2166
vn 0.9662 -0.0297 0.2559
vn 0.9471 -0.1274 0.2947
vn 0.4682 0.0061 0.8836
vn 0.3715 -0.0206 0.9282
vn 0.0879 0.0326 0.9956
vn 0.0867 0.0109 0.9962
vn 0.1096 0.1497 0.9826
vn 0.0102 0.0139 -0.9999
vn 0.3409 -0.1312 -0.9309
vn 0.6700 -0.6140 -0.4173
vn 0.4265 -0.8308 0.3574
vn 0.7506 -0.1600 0.6411
vn 0.2244 0.4072 0.8853
vn 0.1298 0.5214 0.8434
vn 0.3323 -0.1560 0.9302
vn -0.5911 -0.7623 0.2636
vn -0.6344 -0.7686 -0.0820
vn 0.0097 -0.2664 -0.9638
vn 0.0279 0.2424 -0.9698
vn 0.1458 0.0567 -0.9877
vn 0.1367 0.5804 -0.8028
vn 0.5813 0.8129 -0.0359
vn 0.1603 0.5728 -0.8038
vn 0.4048 0.9141 -0.0220
vn 0.3219 0.2644 -0.9091
vn 0.7296 0.6838 -0.0126
vn 0.3933 0.3347 0.8563
vn 0.2156 0.6398 0.7377
vn 0.3762 0.5955 0.7099
vn 0.1304 0.3415 0.9308
vn 0.2781 0.6287 -0.7262
vn -0.7498 -0.6329 -0.1930
vn -0.7336 -0.6159 -0.2872
vn -0.7529 -0.5832 -0.3051
vn -0.6298 -0.6973 -0.3423
vn -0.7218 -0.6155 -0.3165
vn -0.1627 -0.1565 -0.9742
vn -0.0559 -0.0693 -0.9960
vn 0.0072 -0.0604 -0.9981
vn 0.1162 -0.2473 -0.9619
vn 0.0103 -0.2672 -0.9636
vn 0.1965 0.1026 -0.9751
vn 0.2090 0.1088 -0.9718
vn 0.2053 0.1040 -0.9732
vn 0.3601 -0.0627 -0.9308
vn 0.3220 -0.0020 -0.9467
vn 0.7978 0.6024 -0.0242
vn 0.8179 0.5750 -0.0204
vn 0.7884 0.6151 0.0136
vn 0.8501 0.5190 0.0895
vn 0.8404 0.5345 0.0898
vn 0.2898 0.0868 0.9531
vn 0.3008 0.1251 0.9454
vn 0.1282 0.1334 0.9827
vn 0.0684 0.1578 0.9851
vn 0.1610 0.2539 0.9537
vn -0.0046 -0.1144 0.9934
vn 0.0096 -0.1250 0.9921
vn -0.0902 -0.0830 0.9925
vn -0.2067 -0.0218 0.9782
vn -0.1870 0.0936 0.9779
vn -0.6766 -0.6742 0.2963
vn -0.7206 -0.6110 0.3278
vn -0.7612 -0.5718 0.3060
vn -0.7607 -0.6121 0.2163
vn -0.7783 -0.6089 0.1534
vn -0.9314 -0.3559 -0.0765
vn -0.8773 -0.2981 -0.3761
vn -0.0378 -0.0944 -0.9948
vn 0.9105 0.4099 -0.0540
vn 0.8098 0.5030 0.3020
vn -0.3200 0.4833 0.8149
vn -0.0617 0.5721 0.8179
vn -0.2620 0.3676 0.8923
vn 0.7498 0.6451 0.1472
vn 0.4949 0.7006 -0.5140
vn -0.0417 0.7034 -0.7096
vn -0.8736 -0.3133 -0.3724
vn -0.9988 -0.0314 0.0388
vn -0.2438 0.4370 0.8658
vn -0.8467 -0.4984 -0.1863
vn 0.3033 -0.1345 -0.9434
vn 0.9557 0.2384 0.1726
vn -0.1792 -0.1567 0.9713
vn 0.1726 -0.1292 -0.9765
vn -0.1106 0.0454 0.9928
vn 0.9661 0.2497 0.0659
vn -0.8930 -0.4466 -0.0551
vn -0.9519 -0.2894 -0.1003
vn -0.1627 0.1166 0.9798
vn -0.8681 -0.4957 0.0261
vn -0.9309 -0.3654 0.0007
vn -0.9426 -0.3336 0.0113
vn -0.9399 -0.3415 0.0059
vn -0.8697 -0.4825 0.1044
vn -0.8960 -0.4173 0.1520
vn -0.9288 -0.3555 0.1046
vn -0.9112 -0.4082 0.0548
vn -0.8319 -0.5190 -0.1962
vn -0.8105 -0.4418 -0.3847
vn -0.8702 -0.3581 -0.3384
vn -0.7289 -0.5806 -0.3627
vn 0.4826 0.0827 -0.8719
vn 0.6457 0.1589 -0.7469
vn 0.6978 0.0346 -0.7154
vn 0.7552 -0.0515 -0.6535
vn 0.8841 0.4672 0.0047
vn 0.9113 0.4047 0.0759
vn 0.9933 0.1055 0.0480
vn 0.9456 0.3144 0.0834
vn 0.9086 0.4177 0.0053
vn 0.9137 0.4056 -0.0238
vn 0.9824 0.1803 -0.0479
vn 0.9933 0.1154 0.0036
vn 0.3651 0.1892 0.9115
vn 0.3009 0.2093 0.9304
vn 0.3209 -0.0958 0.9423
vn 0.2332 -0.0880 0.9684
vn 0.7162 0.6755 0.1754
vn 0.8459 0.5281 -0.0742
vn 0.0390 0.1675 -0.9851
vn -0.3270 -0.9279 -0.1790
vn 0.1677 -0.9840 0.0598
vn 0.2569 0.1038 0.9609
vn 0.1596 -0.9665 0.2009
vn -0.9621 -0.2659 -0.0610
vn -0.1166 0.1591 0.9803
vn 0.3170 -0.2682 -0.9097
vn 0.9265 -0.2016 0.3178
vn -0.7472 -0.5997 0.2866
vn 0.0780 -0.9969 -0.0103
vn -0.8516 0.4932 0.1778
vn -0.3093 0.9089 0.2796
vn 0.1895 0.9563 0.2229
vn 0.5487 0.8328 0.0727
vn 0.9188 0.3613 -0.1588
vn -0.8446 -0.4715 -0.2537
vn -0.4097 -0.7496 -0.5198
vn -0.0568 -0.7536 -0.6549
vn 0.1943 -0.7339 -0.6508
vn 0.8774 -0.2151 -0.4288
vn -0.9731 0.1747 0.1502
vn -0.9065 0.0056 0.4222
vn -0.0007 -0.9999 0.0118
vn -0.9295 -0.0037 -0.3689
vn 0.9815 0.0016 0.1916
vn -0.1241 -0.0116 -0.9922
vn 0.5422 -0.0102 -0.8402
vn 0.9572 -0.0040 -0.2894
vn 0.9895 -0.0024 -0.1443
vn 0.9377 0.0035 0.3473
vn 0.5408 0.0095 0.8411
vn 0.0274 0.0117 0.9996
vn -0.8919 0.0059 0.4522
vn -0.2056 0.0116 0.9786
vn 0.9995 -0.0010 -0.0328
vn -0.9921 0.0021 0.1251
vn 0.3843 0.2442 -0.8903
vn 0.4178 0.2115 -0.8836
vn 0.8385 0.5448 -0.0119
vn 0.9890 0.0834 -0.1220
vn 0.6290 0.4303 0.6474
vn 0.8926 -0.1185 0.4350
vn 0.2642 0.0961 0.9597
vn 0.3688 -0.3101 0.8762
vn 0.3634 -0.7424 -0.5628
vn 0.6986 -0.7011 -0.1430
vn 0.6054 -0.7914 -0.0850
vn 0.2401 -0.9693 0.0524
vn 0.5156 -0.2825 -0.8089
vn 0.4662 0.0203 -0.8845
vn 0.3878 0.4691 -0.7934
vn 0.9594 -0.2681 -0.0873
vn 0.9953 -0.0608 -0.0753
vn 0.9511 0.3089 0.0002
vn 0.9619 -0.2377 0.1351
vn 0.9721 -0.0608 0.2264
vn 0.9363 0.3037 0.1764
vn 0.4040 -0.2344 0.8842
vn 0.3554 -0.0345 0.9341
vn 0.3325 0.4220 0.8434
vn 0.3593 0.8913 0.2766
vn 0.3857 0.9031 -0.1887
vn 0.0404 -0.1296 -0.9907
vn 0.1076 -0.0472 -0.9931
vn 0.1187 0.0384 -0.9922
vn 0.1275 0.1338 -0.9828
vn 0.1226 0.1362 -0.9831
vn -0.2856 -0.0360 -0.9577
vn -0.2191 -0.0146 -0.9756
vn -0.2741 0.0431 -0.9607
vn -0.2590 0.1616 -0.9523
vn -0.2298 0.1702 -0.9582
vn -0.9862 0.0851 -0.1419
vn -0.9853 0.0616 -0.1595
vn -0.9836 0.0196 -0.1795
vn -0.9789 0.0657 -0.1937
vn -0.9671 0.1566 -0.2006
vn -0.9658 0.0834 0.2457
vn -0.9689 0.0533 0.2417
vn -0.9642 -0.0157 0.2646
vn -0.9676 -0.0031 0.2525
vn -0.9675 0.1116 0.2270
vn -0.6035 0.0232 0.7970
vn -0.6574 0.0081 0.7535
vn -0.7381 0.0075 0.6746
vn -0.7345 -0.1885 0.6519
vn -0.6310 -0.0126 0.7757
vn -0.1525 -0.1114 0.9820
vn 0.0615 -0.1112 0.9919
vn 0.1397 -0.0009 0.9902
vn 0.0729 -0.3987 0.9142
vn 0.1019 -0.1348 0.9856
vn 0.9140 -0.1029 0.3924
vn 0.9095 -0.1892 0.3701
vn 0.9278 -0.1526 0.3405
vn 0.9230 -0.2026 0.3271
vn 0.9348 -0.2062 0.2893
vn 0.9650 -0.1401 -0.2216
vn 0.9552 -0.1854 -0.2306
vn 0.9688 -0.0896 -0.2309
vn 0.9704 -0.0427 -0.2379
vn 0.9636 -0.0226 -0.2665
vn -0.2331 0.0280 -0.9721
vn -0.9698 0.0577 -0.2371
vn -0.9641 0.0184 0.2648
vn -0.5832 -0.0679 0.8095
vn 0.1055 -0.1520 0.9827
vn 0.9198 -0.1783 0.3496
vn 0.1078 -0.0018 -0.9942
vn 0.9525 -0.1301 -0.2755
vn 0.9329 -0.0841 0.3503
vn 0.0857 -0.0861 0.9926
vn -0.5908 0.0030 0.8068
vn -0.9504 0.0957 0.2961
vn -0.9567 0.1422 -0.2540
vn -0.2229 0.1397 -0.9648
vn 0.9702 -0.0454 -0.2381
vn 0.0644 0.1593 -0.9851
vn 0.0653 0.4894 0.8696
vn -0.1371 -0.5257 0.8395
vn 0.1872 -0.5964 0.7806
vn 0.8971 -0.3926 0.2027
vn 0.9326 -0.3147 -0.1768
vn 0.2555 -0.8068 -0.5327
vn 0.9024 0.3119 0.2974
vn 0.9520 0.2589 -0.1633
vn 0.9582 0.0088 -0.2860
vn 0.1942 0.0069 -0.9809
vn -0.4140 -0.0070 -0.9103
vn -0.9813 0.0975 -0.1662
vn -0.9923 0.1177 -0.0387
vn -0.8565 0.4881 0.1679
vn -0.3158 0.7968 0.5151
vn 0.2333 0.7726 0.5904
vn 0.8656 0.3896 0.3146
vn -0.2073 -0.3187 -0.9249
vn -0.5272 -0.0201 -0.8495
vn -0.9808 0.1397 -0.1364
vn -0.9629 0.1303 0.2361
vn -0.8186 -0.0748 0.5694
vn -0.4427 -0.2052 0.8729
vn -0.1386 -0.1499 0.9789
vn 0.2592 -0.9034 0.3415
vn -0.0161 -0.9729 -0.2305
vn -0.0302 -0.3562 -0.9339
vn -0.0815 -0.2312 -0.9695
vn -0.0474 0.3676 -0.9288
vn -0.4639 0.3669 -0.8063
vn -0.9514 0.2618 -0.1622
vn -0.9580 0.1967 0.2088
vn -0.9427 0.1849 0.2778
vn -0.4368 0.1608 0.8851
vn -0.0613 0.0320 -0.9976
vn -0.0330 -0.2742 -0.9611
vn -0.4901 0.0005 -0.8717
vn -0.4018 -0.2819 -0.8713
vn -0.9788 -0.0426 -0.2005
vn -0.9442 -0.2116 -0.2525
vn -0.9776 -0.0431 0.2062
vn -0.9655 -0.1444 0.2166
vn -0.9662 -0.0297 0.2559
vn -0.9471 -0.1274 0.2947
vn -0.4682 0.0061 0.8836
vn -0.3715 -0.0206 0.9282
vn -0.0879 0.0326 0.9956
vn -0.0867 0.0109 0.9962
vn -0.1096 0.1497 0.9826
vn -0.0102 0.0139 -0.9999
vn -0.3409 -0.1312 -0.9309
vn -0.6700 -0.6140 -0.4173
vn -0.4265 -0.8308 0.3574
vn -0.7506 -0.1600 0.6411
vn -0.2244 0.4072 0.8853
vn -0.1298 0.5214 0.8434
vn -0.3323 -0.1560 0.9302
vn 0.5911 -0.7623 0.2636
vn 0.6344 -0.7686 -0.0820
vn -0.0097 -0.2664 -0.9638
vn -0.0279 0.2424 -0.9698
vn -0.1458 0.0567 -0.9877
vn -0.1367 0.5804 -0.8028
vn -0.5813 0.8129 -0.0359
vn -0.1603 0.5728 -0.8038
vn -0.4048 0.9141 -0.0220
vn -0.3219 0.2644 -0.9091
vn -0.7296 0.6838 -0.0126
vn -0.3933 0.3347 0.8563
vn -0.2156 0.6398 0.7377
vn -0.3762 0.5955 0.7099
vn -0.1304 0.3415 0.9308
vn -0.2781 0.6287 -0.7262
vn 0.7498 -0.6329 -0.1930
vn 0.7336 -0.6159 -0.2872
vn 0.7529 -0.5832 -0.3051
vn 0.6298 -0.6973 -0.3423
vn 0.7218 -0.6155 -0.3165
vn 0.1627 -0.1565 -0.9742
vn 0.0559 -0.0693 -0.9960
vn -0.0072 -0.0604 -0.9981
vn -0.1162 -0.2473 -0.9619
vn -0.0103 -0.2672 -0.9636
vn -0.1965 0.1026 -0.9751
vn -0.2090 0.1088 -0.9718
vn -0.2053 0.1040 -0.9732
vn -0.3601 -0.0627 -0.9308
vn -0.3220 -0.0020 -0.9467
vn -0.7978 0.6024 -0.0242
vn -0.8179 0.5750 -0.0204
vn -0.7884 0.6151 0.0136
vn -0.8501 0.5190 0.0895
vn -0.8404 0.5345 0.0898
vn -0.2898 0.0868 0.9531
vn -0.3008 0.1251 0.9454
vn -0.1282 0.1334 0.9827
vn -0.0684 0.1578 0.9851
vn -0.1610 0.2539 0.9537
vn 0.0046 -0.1144 0.9934
vn -0.0096 -0.1250 0.9921
vn 0.0902 -0.0830 0.9925
vn 0.2067 -0.0218 0.9782
vn 0.1870 0.0936 0.9779
vn 0.6766 -0.6742 0.2963
vn 0.7206 -0.6110 0.3278
vn 0.7612 -0.5718 0.3060
vn 0.7607 -0.6121 0.2163
vn 0.7783 -0.6089 0.1534
vn 0.9314 -0.3559 -0.0765
vn 0.8773 -0.2981 -0.3761
vn 0.0378 -0.0944 -0.9948
vn -0.9105 0.4099 -0.0540
vn -0.8098 0.5030 0.3020
vn 0.3200 0.4833 0.8149
vn 0.0617 0.5721 0.8179
vn 0.2620 0.3676 0.8923
vn -0.7498 0.6451 0.1472
vn -0.4949 0.7006 -0.5140
vn 0.0417 0.7034 -0.7096
vn 0.8736 -0.3133 -0.3724
vn 0.9988 -0.0314 0.0388
vn 0.2438 0.4370 0.8658
vn 0.8467 -0.4984 -0.1863
vn -0.3033 -0.1345 -0.9434
vn -0.9557 0.2384 0.1726
vn 0.1792 -0.1567 0.9713
vn -0.1726 -0.1292 -0.9765
vn 0.1106 0.0454 0.9928
vn -0.9661 0.2497 0.0659
vn 0.8930 -0.4466 -0.0551
vn 0.9519 -0.2894 -0.1003
vn 0.1627 0.1166 0.9798
vn 0.8681 -0.4957 0.0261
vn 0.9309 -0.3654 0.0007
vn 0.9426 -0.3336 0.0113
vn 0.9399 -0.3415 0.0059
vn 0.8697 -0.4825 0.1044
vn 0.8960 -0.4173 0.1520
vn 0.9288 -0.3555 0.1046
vn 0.9112 -0.4082 0.0548
vn 0.8319 -0.5190 -0.1962
vn 0.8105 -0.4418 -0.3847
vn 0.8702 -0.3581 -0.3384
vn 0.7289 -0.5806 -0.3627
vn -0.4826 0.0827 -0.8719
vn -0.6457 0.1589 -0.7469
vn -0.6978 0.0346 -0.7154
vn -0.7552 -0.0515 -0.6535
vn -0.8841 0.4672 0.0047
vn -0.9113 0.4047 0.0759
vn -0.9933 0.1055 0.0480
vn -0.9456 0.3144 0.0834
vn -0.9086 0.4177 0.0053
vn -0.9137 0.4056 -0.0238
vn -0.9824 0.1803 -0.0479
vn -0.9933 0.1154 0.0036
vn -0.3651 0.1892 0.9115
vn -0.3009 0.2093 0.9304
vn -0.3209 -0.0958 0.9423
vn -0.2332 -0.0880 0.9684
vn -0.7162 0.6755 0.1754
vn -0.8459 0.5281 -0.0742
vn -0.0390 0.1675 -0.9851
vn 0.3270 -0.9279 -0.1790
vn -0.1677 -0.9840 0.0598
vn -0.2569 0.1038 0.9609
vn -0.1596 -0.9665 0.2009
vn 0.9621 -0.2659 -0.0610
vn 0.1166 0.1591 0.9803
vn -0.3170 -0.2682 -0.9097
vn -0.9265 -0.2016 0.3178
vn 0.7472 -0.5997 0.2866
vn -0.0780 -0.9969 -0.0103
vn 0.8516 0.4932 0.1778
vn 0.3093 0.9089 0.2796
vn -0.1895 0.9563 0.2229
vn -0.5487 0.8328 0.0727
vn -0.9188 0.3613 -0.1588
vn 0.8446 -0.4715 -0.2537
vn 0.4097 -0.7496 -0.5198
vn 0.0568 -0.7536 -0.6549
vn -0.1943 -0.7339 -0.6508
vn -0.8774 -0.2151 -0.4288
vn 0.9731 0.1747 0.1502
vn 0.9065 0.0056 0.4222
vn 0.0007 -0.9999 0.0118
vn 0.9295 -0.0037 -0.3689
vn -0.9815 0.0016 0.1916
vn 0.1241 -0.0116 -0.9922
vn -0.5422 -0.0102 -0.8402
vn -0.9572 -0.0040 -0.2894
vn -0.9895 -0.0024 -0.1443
vn -0.9377 0.0035 0.3473
vn -0.5408 0.0095 0.8411
vn -0.0274 0.0117 0.9996
vn 0.8919 0.0059 0.4522
vn 0.2056 0.0116 0.9786
vn -0.9995 -0.0010 -0.0328
vn 0.9921 0.0021 0.1251
vn -0.3843 0.2442 -0.8903
vn -0.4178 0.2115 -0.8836
vn -0.8385 0.5448 -0.0119
vn -0.9890 0.0834 -0.1220
vn -0.6290 0.4303 0.6474
vn -0.8926 -0.1185 0.4350
vn -0.2642 0.0961 0.9597
vn -0.3688 -0.3101 0.8762
vn -0.3634 -0.7424 -0.5628
vn -0.6986 -0.7011 -0.1430
vn -0.6054 -0.7914 -0.0850
vn -0.2401 -0.9693 0.0524
vn -0.5156 -0.2825 -0.8089
vn -0.4662 0.0203 -0.8845
vn -0.3878 0.4691 -0.7934
vn -0.9594 -0.2681 -0.0873
vn -0.9953 -0.0608 -0.0753
vn -0.9511 0.3089 0.0002
vn -0.9619 -0.2377 0.1351
vn -0.9721 -0.0608 0.2264
vn -0.9363 0.3037 0.1764
vn -0.4040 -0.2344 0.8842
vn -0.3554 -0.0345 0.9341
vn -0.3325 0.4220 0.8434
vn -0.3593 0.8913 0.2766
vn -0.3857 0.9031 -0.1887
s 0
usemtl BSurfaceMesh
f 1//36 2//36 47//36 48//36
f 2//37 3//37 46//37 47//37
f 3//38 4//38 45//38 46//38
f 4//39 5//39 44//39 45//39
f 5//40 6//40 43//40 44//40
f 50//47 56//47 6//47 12//47
f 43//48 6//48 56//48 49//48
f 55//49 49//49 57//49 58//49
f 49//55 56//55 64//55 57//55
f 56//56 50//56 63//56 64//56
f 59//57 58//57 72//57 71//57
f 58//63 57//63 65//63 72//63
f 57//64 64//64 66//64 65//64
f 93//81 48//81 37//81 92//81
f 94//82 1//82 48//82 93//82
f 84//83 1//83 94//83 95//83
f 85//84 84//84 95//84 96//84
f 102//90 103//90 90//90 89//90
f 90//105 103//105 118//105 91//105
f 132//115 131//115 124//115 123//115
f 132//116 123//116 133//116 134//116
f 122//118 136//118 133//118 123//118
f 129//125 144//125 142//125 126//125
f 126//126 142//126 140//126 127//126
f 145//127 127//127 140//127 138//127
f 128//128 127//128 145//128 146//128
f 148//129 147//129 139//129 137//129
f 130//160 131//160 149//160 179//160
f 150//161 180//161 179//161 149//161
f 151//162 181//162 180//162 150//162
f 152//163 182//163 181//163 151//163
f 153//164 183//164 182//164 152//164
f 178//171 196//171 194//171 173//171
f 173//173 194//173 192//173 168//173
f 168//174 192//174 190//174 163//174
f 163//175 190//175 188//175 158//175
f 158//176 188//176 186//176 153//176
f 153//177 186//177 184//177 183//177
f 183//178 184//178 196//178 178//178
f 202//183 200//183 209//183 206//183
f 198//184 204//184 207//184 208//184
f 204//185 202//185 206//185 207//185
f 200//186 198//186 208//186 209//186
f 187//187 247//187 245//187 185//187
f 185//188 245//188 246//188 197//188
f 195//217 240//217 235//217 193//217
f 193//218 235//218 230//218 191//218
f 191//219 230//219 225//219 189//219
f 189//220 225//220 220//220 187//220
f 187//221 220//221 215//221 247//221
f 197//222 210//222 240//222 195//222
f 199//223 201//223 203//223 205//223
f 245//224 247//224 209//224 208//224
f 246//225 245//225 208//225 207//225
f 247//226 215//226 206//226 209//226
f 246//227 207//227 206//227 215//227
f 215//228 210//228 197//228 246//228
f 214//229 219//229 224//229 229//229 234//229 239//229 244//229
f 73//240 248//240 83//240 65//240
f 260//242 261//242 262//242 263//242 264//242 265//242 266//242 267//242 268//242 269//242 270//242 271//242 272//242 273//242
f 248//255 73//255 260//255 273//255
f 304//280 303//280 300//280 297//280
f 291//281 304//281 297//281 294//281
f 305//317 352//317 351//317 306//317
f 306//318 351//318 350//318 307//318
f 307//319 350//319 349//319 308//319
f 308//320 349//320 348//320 309//320
f 309//321 348//321 347//321 310//321
f 354//328 316//328 310//328 360//328
f 347//329 353//329 360//329 310//329
f 359//330 362//330 361//330 353//330
f 353//336 361//336 368//336 360//336
f 360//337 368//337 367//337 354//337
f 363//338 375//338 376//338 362//338
f 362//344 376//344 369//344 361//344
f 361//345 369//345 370//345 368//345
f 395//362 92//362 341//362 352//362
f 94//363 395//363 352//363 305//363
f 388//364 95//364 94//364 305//364
f 389//365 96//365 95//365 388//365
f 400//371 393//371 394//371 401//371
f 394//386 91//386 118//386 401//386
f 423//396 415//396 416//396 422//396
f 423//397 425//397 424//397 415//397
f 414//399 415//399 424//399 426//399
f 420//406 418//406 431//406 433//406
f 418//407 419//407 429//407 431//407
f 434//408 427//408 429//408 419//408
f 128//409 146//409 434//409 419//409
f 148//410 137//410 428//410 435//410
f 421//441 466//441 436//441 422//441
f 437//442 436//442 466//442 467//442
f 438//443 437//443 467//443 468//443
f 439//444 438//444 468//444 469//444
f 440//445 439//445 469//445 470//445
f 465//452 460//452 481//452 483//452
f 460//454 455//454 479//454 481//454
f 455//455 450//455 477//455 479//455
f 450//456 445//456 475//456 477//456
f 445//457 440//457 473//457 475//457
f 440//458 470//458 471//458 473//458
f 470//459 465//459 483//459 471//459
f 489//464 493//464 496//464 487//464
f 485//465 495//465 494//465 491//465
f 491//466 494//466 493//466 489//466
f 487//467 496//467 495//467 485//467
f 474//468 472//468 532//468 534//468
f 472//469 484//469 533//469 532//469
f 482//498 480//498 522//498 527//498
f 480//499 478//499 517//499 522//499
f 478//500 476//500 512//500 517//500
f 476//501 474//501 507//501 512//501
f 474//502 534//502 502//502 507//502
f 484//503 482//503 527//503 497//503
f 486//504 492//504 490//504 488//504
f 532//505 495//505 496//505 534//505
f 533//506 494//506 495//506 532//506
f 534//507 496//507 493//507 502//507
f 533//508 502//508 493//508 494//508
f 502//509 533//509 484//509 497//509
f 501//510 531//510 526//510 521//510 516//510 511//510 506//510
f 377//521 369//521 387//521 535//521
f 547//523 560//523 559//523 558//523 557//523 556//523 555//523 554//523 553//523 552//523 551//523 550//523 549//523 548//523
f 535//536 560//536 547//536 377//536
f 304//561 575//561 578//561 303//561
f 291//562 572//562 575//562 304//562
usemtl 
f 2//1 1//1 7//1 8//1
f 3//2 2//2 8//2 9//2
f 4//3 3//3 9//3 10//3
f 5//4 4//4 10//4 11//4
f 6//5 5//5 11//5 12//5
f 8//6 7//6 13//6 14//6
f 9//7 8//7 14//7 15//7
f 10//8 9//8 15//8 16//8
f 11//9 10//9 16//9 17//9
f 12//10 11//10 17//10 18//10
f 14//11 13//11 19//11 20//11
f 15//12 14//12 20//12 21//12
f 16//13 15//13 21//13 22//13
f 17//14 16//14 22//14 23//14
f 18//15 17//15 23//15 24//15
f 20//16 19//16 25//16 26//16
f 21//17 20//17 26//17 27//17
f 22//18 21//18 27//18 28//18
f 23//19 22//19 28//19 29//19
f 24//20 23//20 29//20 30//20
f 26//21 25//21 31//21 32//21
f 27//22 26//22 32//22 33//22
f 28//23 27//23 33//23 34//23
f 29//24 28//24 34//24 35//24
f 30//25 29//25 35//25 36//25
f 32//26 31//26 37//26 38//26
f 33//27 32//27 38//27 39//27
f 34//28 33//28 39//28 40//28
f 35//29 34//29 40//29 41//29
f 36//30 35//30 41//30 42//30
f 43//31 42//31 41//31 44//31
f 44//32 41//32 40//32 45//32
f 45//33 40//33 39//33 46//33
f 46//34 39//34 38//34 47//34
f 47//35 38//35 37//35 48//35
f 50//41 12//41 18//41 51//41
f 51//42 18//42 24//42 52//42
f 52//43 24//43 30//43 53//43
f 53//44 30//44 36//44 54//44
f 54//45 36//45 42//45 55//45
f 55//46 42//46 43//46 49//46
f 58//50 59//50 54//50 55//50
f 59//51 60//51 53//51 54//51
f 60//52 61//52 52//52 53//52
f 61//53 62//53 51//53 52//53
f 62//54 63//54 50//54 51//54
f 66//58 67//58 63//58 64//58
f 67//59 68//59 62//59 63//59
f 68//60 69//60 61//60 62//60
f 69//61 70//61 60//61 61//61
f 70//62 71//62 59//62 60//62
f 73//65 65//65 66//65 74//65
f 74//66 66//66 67//66 75//66
f 75//67 67//67 68//67 76//67
f 76//68 68//68 69//68 77//68
f 78//69 77//69 69//69 79//69
f 79//70 69//70 70//70 80//70
f 80//71 70//71 71//71 81//71
f 81//72 71//72 72//72 82//72
f 82//73 72//73 65//73 83//73
f 84//74 85//74 7//74 1//74
f 85//75 86//75 13//75 7//75
f 86//76 87//76 19//76 13//76
f 87//77 88//77 25//77 19//77
f 88//78 89//78 31//78 25//78
f 89//79 90//79 37//79 31//79
f 91//80 92//80 37//80 90//80
f 97//85 98//85 85//85 96//85
f 98//86 99//86 86//86 85//86
f 99//87 100//87 87//87 86//87
f 100//88 101//88 88//88 87//88
f 101//89 102//89 89//89 88//89
f 104//91 106//91 98//91 97//91
f 105//92 107//92 106//92 104//92
f 106//93 108//93 99//93 98//93
f 107//94 109//94 108//94 106//94
f 108//95 110//95 100//95 99//95
f 109//96 111//96 110//96 108//96
f 110//97 112//97 101//97 100//97
f 111//98 113//98 112//98 110//98
f 112//99 114//99 102//99 101//99
f 113//100 115//100 114//100 112//100
f 114//101 116//101 103//101 102//101
f 115//102 117//102 116//102 114//102
f 103//103 116//103 119//103 118//103
f 116//104 117//104 120//104 119//104
f 121//106 122//106 107//106 105//106
f 122//107 123//107 109//107 107//107
f 123//108 124//108 111//108 109//108
f 124//109 125//109 113//109 111//109
f 125//110 126//110 115//110 113//110
f 126//111 127//111 117//111 115//111
f 127//112 128//112 120//112 117//112
f 129//113 126//113 125//113 130//113
f 130//114 125//114 124//114 131//114
f 122//117 121//117 135//117 136//117
f 137//119 139//119 136//119 135//119
f 138//120 140//120 139//120 147//120
f 139//121 141//121 133//121 136//121
f 140//122 142//122 141//122 139//122
f 141//123 143//123 134//123 133//123
f 142//124 144//124 143//124 141//124
f 149//130 131//130 132//130 154//130
f 150//131 149//131 154//131 155//131
f 151//132 150//132 155//132 156//132
f 152//133 151//133 156//133 157//133
f 153//134 152//134 157//134 158//134
f 154//135 132//135 134//135 159//135
f 155//136 154//136 159//136 160//136
f 156//137 155//137 160//137 161//137
f 157//138 156//138 161//138 162//138
f 158//139 157//139 162//139 163//139
f 159//140 134//140 143//140 164//140
f 160//141 159//141 164//141 165//141
f 161//142 160//142 165//142 166//142
f 162//143 161//143 166//143 167//143
f 163//144 162//144 167//144 168//144
f 164//145 143//145 144//145 169//145
f 165//146 164//146 169//146 170//146
f 166//147 165//147 170//147 171//147
f 167//148 166//148 171//148 172//148
f 168//149 167//149 172//149 173//149
f 169//150 144//150 129//150 174//150
f 170//151 169//151 174//151 175//151
f 171//152 170//152 175//152 176//152
f 172//153 171//153 176//153 177//153
f 173//154 172//154 177//154 178//154
f 174//155 129//155 130//155 179//155
f 175//156 174//156 179//156 180//156
f 176//157 175//157 180//157 181//157
f 177//158 176//158 181//158 182//158
f 178//159 177//159 182//159 183//159
f 185//165 184//165 186//165 187//165
f 187//166 186//166 188//166 189//166
f 189//167 188//167 190//167 191//167
f 191//168 190//168 192//168 193//168
f 193//169 192//169 194//169 195//169
f 195//170 194//170 196//170 197//170
f 197//172 196//172 184//172 185//172
f 199//179 198//179 200//179 201//179
f 201//180 200//180 202//180 203//180
f 203//181 202//181 204//181 205//181
f 205//182 204//182 198//182 199//182
f 211//189 210//189 215//189 216//189
f 212//190 211//190 216//190 217//190
f 213//191 212//191 217//191 218//191
f 214//192 213//192 218//192 219//192
f 216//193 215//193 220//193 221//193
f 217//194 216//194 221//194 222//194
f 218//195 217//195 222//195 223//195
f 219//196 218//196 223//196 224//196
f 221//197 220//197 225//197 226//197
f 222//198 221//198 226//198 227//198
f 223//199 222//199 227//199 228//199
f 224//200 223//200 228//200 229//200
f 226//201 225//201 230//201 231//201
f 227//202 226//202 231//202 232//202
f 228//203 227//203 232//203 233//203
f 229//204 228//204 233//204 234//204
f 231//205 230//205 235//205 236//205
f 232//206 231//206 236//206 237//206
f 233//207 232//207 237//207 238//207
f 234//208 233//208 238//208 239//208
f 236//209 235//209 240//209 241//209
f 237//210 236//210 241//210 242//210
f 238//211 237//211 242//211 243//211
f 239//212 238//212 243//212 244//212
f 241//213 240//213 210//213 211//213
f 242//214 241//214 211//214 212//214
f 243//215 242//215 212//215 213//215
f 244//216 243//216 213//216 214//216
f 248//230 249//230 82//230 83//230
f 249//231 250//231 81//231 82//231
f 250//232 251//232 80//232 81//232
f 251//233 252//233 79//233 80//233
f 252//234 253//234 78//234 79//234
f 254//235 255//235 252//235 253//235
f 255//236 256//236 251//236 252//236
f 256//237 257//237 250//237 251//237
f 257//238 258//238 249//238 250//238
f 258//239 259//239 248//239 249//239
f 258//241 259//241 272//241 271//241
f 73//243 74//243 261//243 260//243
f 253//244 254//244 267//244 266//244
f 74//245 75//245 262//245 261//245
f 75//246 76//246 263//246 262//246
f 78//247 253//247 266//247 265//247
f 76//248 77//248 264//248 263//248
f 254//249 255//249 268//249 267//249
f 255//250 256//250 269//250 268//250
f 256//251 257//251 270//251 269//251
f 259//252 248//252 273//252 272//252
f 257//253 258//253 271//253 270//253
f 77//254 78//254 265//254 264//254
f 274//256 276//256 147//256 148//256
f 275//257 277//257 276//257 274//257
f 276//258 278//258 138//258 147//258
f 277//259 279//259 278//259 276//259
f 278//260 280//260 145//260 138//260
f 279//261 281//261 280//261 278//261
f 280//262 282//262 146//262 145//262
f 281//263 283//263 282//263 280//263
f 284//264 285//264 277//264 275//264
f 285//265 286//265 279//265 277//265
f 286//266 287//266 281//266 279//266
f 287//267 288//267 283//267 281//267
f 289//268 292//268 285//268 284//268
f 290//269 293//269 292//269 289//269
f 291//270 294//270 293//270 290//270
f 292//271 295//271 286//271 285//271
f 293//272 296//272 295//272 292//272
f 294//273 297//273 296//273 293//273
f 295//274 298//274 287//274 286//274
f 296//275 299//275 298//275 295//275
f 297//276 300//276 299//276 296//276
f 298//277 301//277 288//277 287//277
f 299//278 302//278 301//278 298//278
f 300//279 303//279 302//279 299//279
f 306//282 312//282 311//282 305//282
f 307//283 313//283 312//283 306//283
f 308//284 314//284 313//284 307//284
f 309//285 315//285 314//285 308//285
f 310//286 316//286 315//286 309//286
f 312//287 318//287 317//287 311//287
f 313//288 319//288 318//288 312//288
f 314//289 320//289 319//289 313//289
f 315//290 321//290 320//290 314//290
f 316//291 322//291 321//291 315//291
f 318//292 324//292 323//292 317//292
f 319//293 325//293 324//293 318//293
f 320//294 326//294 325//294 319//294
f 321//295 327//295 326//295 320//295
f 322//296 328//296 327//296 321//296
f 324//297 330//297 329//297 323//297
f 325//298 331//298 330//298 324//298
f 326//299 332//299 331//299 325//299
f 327//300 333//300 332//300 326//300
f 328//301 334//301 333//301 327//301
f 330//302 336//302 335//302 329//302
f 331//303 337//303 336//303 330//303
f 332//304 338//304 337//304 331//304
f 333//305 339//305 338//305 332//305
f 334//306 340//306 339//306 333//306
f 336//307 342//307 341//307 335//307
f 337//308 343//308 342//308 336//308
f 338//309 344//309 343//309 337//309
f 339//310 345//310 344//310 338//310
f 340//311 346//311 345//311 339//311
f 347//312 348//312 345//312 346//312
f 348//313 349//313 344//313 345//313
f 349//314 350//314 343//314 344//314
f 350//315 351//315 342//315 343//315
f 351//316 352//316 341//316 342//316
f 354//322 355//322 322//322 316//322
f 355//323 356//323 328//323 322//323
f 356//324 357//324 334//324 328//324
f 357//325 358//325 340//325 334//325
f 358//326 359//326 346//326 340//326
f 359//327 353//327 347//327 346//327
f 362//331 359//331 358//331 363//331
f 363//332 358//332 357//332 364//332
f 364//333 357//333 356//333 365//333
f 365//334 356//334 355//334 366//334
f 366//335 355//335 354//335 367//335
f 370//339 368//339 367//339 371//339
f 371//340 367//340 366//340 372//340
f 372//341 366//341 365//341 373//341
f 373//342 365//342 364//342 374//342
f 374//343 364//343 363//343 375//343
f 377//346 378//346 370//346 369//346
f 378//347 379//347 371//347 370//347
f 379//348 380//348 372//348 371//348
f 380//349 381//349 373//349 372//349
f 382//350 383//350 373//350 381//350
f 383//351 384//351 374//351 373//351
f 384//352 385//352 375//352 374//352
f 385//353 386//353 376//353 375//353
f 386//354 387//354 369//354 376//354
f 388//355 305//355 311//355 389//355
f 389//356 311//356 317//356 390//356
f 390//357 317//357 323//357 391//357
f 391//358 323//358 329//358 392//358
f 392//359 329//359 335//359 393//359
f 393//360 335//360 341//360 394//360
f 91//361 394//361 341//361 92//361
f 97//366 96//366 389//366 396//366
f 396//367 389//367 390//367 397//367
f 397//368 390//368 391//368 398//368
f 398//369 391//369 392//369 399//369
f 399//370 392//370 393//370 400//370
f 104//372 97//372 396//372 402//372
f 105//373 104//373 402//373 403//373
f 402//374 396//374 397//374 404//374
f 403//375 402//375 404//375 405//375
f 404//376 397//376 398//376 406//376
f 405//377 404//377 406//377 407//377
f 406//378 398//378 399//378 408//378
f 407//379 406//379 408//379 409//379
f 408//380 399//380 400//380 410//380
f 409//381 408//381 410//381 411//381
f 410//382 400//382 401//382 412//382
f 411//383 410//383 412//383 413//383
f 401//384 118//384 119//384 412//384
f 412//385 119//385 120//385 413//385
f 121//387 105//387 403//387 414//387
f 414//388 403//388 405//388 415//388
f 415//389 405//389 407//389 416//389
f 416//390 407//390 409//390 417//390
f 417//391 409//391 411//391 418//391
f 418//392 411//392 413//392 419//392
f 419//393 413//393 120//393 128//393
f 420//394 421//394 417//394 418//394
f 421//395 422//395 416//395 417//395
f 414//398 426//398 135//398 121//398
f 137//400 135//400 426//400 428//400
f 427//401 435//401 428//401 429//401
f 428//402 426//402 424//402 430//402
f 429//403 428//403 430//403 431//403
f 430//404 424//404 425//404 432//404
f 431//405 430//405 432//405 433//405
f 436//411 441//411 423//411 422//411
f 437//412 442//412 441//412 436//412
f 438//413 443//413 442//413 437//413
f 439//414 444//414 443//414 438//414
f 440//415 445//415 444//415 439//415
f 441//416 446//416 425//416 423//416
f 442//417 447//417 446//417 441//417
f 443//418 448//418 447//418 442//418
f 444//419 449//419 448//419 443//419
f 445//420 450//420 449//420 444//420
f 446//421 451//421 432//421 425//421
f 447//422 452//422 451//422 446//422
f 448//423 453//423 452//423 447//423
f 449//424 454//424 453//424 448//424
f 450//425 455//425 454//425 449//425
f 451//426 456//426 433//426 432//426
f 452//427 457//427 456//427 451//427
f 453//428 458//428 457//428 452//428
f 454//429 459//429 458//429 453//429
f 455//430 460//430 459//430 454//430
f 456//431 461//431 420//431 433//431
f 457//432 462//432 461//432 456//432
f 458//433 463//433 462//433 457//433
f 459//434 464//434 463//434 458//434
f 460//435 465//435 464//435 459//435
f 461//436 466//436 421//436 420//436
f 462//437 467//437 466//437 461//437
f 463//438 468//438 467//438 462//438
f 464//439 469//439 468//439 463//439
f 465//440 470//440 469//440 464//440
f 472//446 474//446 473//446 471//446
f 474//447 476//447 475//447 473//447
f 476//448 478//448 477//448 475//448
f 478//449 480//449 479//449 477//449
f 480//450 482//450 481//450 479//450
f 482//451 484//451 483//451 481//451
f 484//453 472//453 471//453 483//453
f 486//460 488//460 487//460 485//460
f 488//461 490//461 489//461 487//461
f 490//462 492//462 491//462 489//462
f 492//463 486//463 485//463 491//463
f 498//470 503//470 502//470 497//470
f 499//471 504//471 503//471 498//471
f 500//472 505//472 504//472 499//472
f 501//473 506//473 505//473 500//473
f 503//474 508//474 507//474 502//474
f 504//475 509//475 508//475 503//475
f 505//476 510//476 509//476 504//476
f 506//477 511//477 510//477 505//477
f 508//478 513//478 512//478 507//478
f 509//479 514//479 513//479 508//479
f 510//480 515//480 514//480 509//480
f 511//481 516//481 515//481 510//481
f 513//482 518//482 517//482 512//482
f 514//483 519//483 518//483 513//483
f 515//484 520//484 519//484 514//484
f 516//485 521//485 520//485 515//485
f 518//486 523//486 522//486 517//486
f 519//487 524//487 523//487 518//487
f 520//488 525//488 524//488 519//488
f 521//489 526//489 525//489 520//489
f 523//490 528//490 527//490 522//490
f 524//491 529//491 528//491 523//491
f 525//492 530//492 529//492 524//492
f 526//493 531//493 530//493 525//493
f 528//494 498//494 497//494 527//494
f 529//495 499//495 498//495 528//495
f 530//496 500//496 499//496 529//496
f 531//497 501//497 500//497 530//497
f 535//511 387//511 386//511 536//511
f 536//512 386//512 385//512 537//512
f 537//513 385//513 384//513 538//513
f 538//514 384//514 383//514 539//514
f 539//515 383//515 382//515 540//515
f 541//516 540//516 539//516 542//516
f 542//517 539//517 538//517 543//517
f 543//518 538//518 537//518 544//518
f 544//519 537//519 536//519 545//519
f 545//520 536//520 535//520 546//520
f 545//522 558//522 559//522 546//522
f 377//524 547//524 548//524 378//524
f 540//525 553//525 554//525 541//525
f 378//526 548//526 549//526 379//526
f 379//527 549//527 550//527 380//527
f 382//528 552//528 553//528 540//528
f 380//529 550//529 551//529 381//529
f 541//530 554//530 555//530 542//530
f 542//531 555//531 556//531 543//531
f 543//532 556//532 557//532 544//532
f 546//533 559//533 560//533 535//533
f 544//534 557//534 558//534 545//534
f 381//535 551//535 552//535 382//535
f 274//537 148//537 435//537 561//537
f 275//538 274//538 561//538 562//538
f 561//539 435//539 427//539 563//539
f 562//540 561//540 563//540 564//540
f 563//541 427//541 434//541 565//541
f 564//542 563//542 565//542 566//542
f 565//543 434//543 146//543 282//543
f 566//544 565//544 282//544 283//544
f 284//545 275//545 562//545 567//545
f 567//546 562//546 564//546 568//546
f 568//547 564//547 566//547 569//547
f 569//548 566//548 283//548 288//548
f 289//549 284//549 567//549 570//549
f 290//550 289//550 570//550 571//550
f 291//551 290//551 571//551 572//551
f 570//552 567//552 568//552 573//552
f 571//553 570//553 573//553 574//553
f 572//554 571//554 574//554 575//554
f 573//555 568//555 569//555 576//555
f 574//556 573//556 576//556 577//556
f 575//557 574//557 577//557 578//557
f 576//558 569//558 288//558 301//558
f 577//559 576//559 301//559 302//559
f 578//560 577//560 302//560 303//560
