{
	"asset":{
		"generator":"Khronos glTF Blender I/O v5.1.19",
		"version":"2.0"
	},
	"extensionsUsed":[
		"KHR_materials_specular"
	],
	"scene":0,
	"scenes":[
		{
			"name":"Scene",
			"nodes":[
				45
			]
		}
	],
	"nodes":[
		{
			"mesh":0,
			"name":"FrondCard_000"
		},
		{
			"mesh":1,
			"name":"FrondCard_001"
		},
		{
			"mesh":2,
			"name":"FrondCard_002"
		},
		{
			"mesh":3,
			"name":"FrondCard_003"
		},
		{
			"mesh":4,
			"name":"FrondCard_004"
		},
		{
			"mesh":5,
			"name":"FrondCard_005"
		},
		{
			"mesh":6,
			"name":"FrondCard_006"
		},
		{
			"mesh":7,
			"name":"FrondCard_007"
		},
		{
			"mesh":8,
			"name":"FrondCard_008"
		},
		{
			"mesh":9,
			"name":"FrondCard_009"
		},
		{
			"mesh":10,
			"name":"FrondCard_010"
		},
		{
			"mesh":11,
			"name":"FrondCard_011"
		},
		{
			"mesh":12,
			"name":"FrondCard_012"
		},
		{
			"mesh":13,
			"name":"FrondCard_013"
		},
		{
			"mesh":14,
			"name":"FrondCard_014"
		},
		{
			"mesh":15,
			"name":"FrondCard_015"
		},
		{
			"mesh":16,
			"name":"FrondCard_016"
		},
		{
			"mesh":17,
			"name":"FrondCard_017"
		},
		{
			"mesh":18,
			"name":"FrondCard_018"
		},
		{
			"mesh":19,
			"name":"FrondCard_019"
		},
		{
			"mesh":20,
			"name":"FrondCard_020"
		},
		{
			"mesh":21,
			"name":"FrondCard_021"
		},
		{
			"mesh":22,
			"name":"FrondCard_022"
		},
		{
			"mesh":23,
			"name":"FrondCard_023"
		},
		{
			"mesh":24,
			"name":"FrondCard_024"
		},
		{
			"mesh":25,
			"name":"FrondCard_025"
		},
		{
			"mesh":26,
			"name":"FrondCard_026"
		},
		{
			"mesh":27,
			"name":"FrondCard_027"
		},
		{
			"mesh":28,
			"name":"FrondCard_028"
		},
		{
			"mesh":29,
			"name":"FrondCard_029"
		},
		{
			"mesh":30,
			"name":"FrondCard_030"
		},
		{
			"mesh":31,
			"name":"FrondCard_031"
		},
		{
			"mesh":32,
			"name":"FrondCard_032"
		},
		{
			"mesh":33,
			"name":"FrondCard_033"
		},
		{
			"mesh":34,
			"name":"FrondCard_034"
		},
		{
			"mesh":35,
			"name":"FrondCard_035"
		},
		{
			"mesh":36,
			"name":"FrondCard_036"
		},
		{
			"mesh":37,
			"name":"FrondCard_037"
		},
		{
			"mesh":38,
			"name":"FrondCard_038"
		},
		{
			"mesh":39,
			"name":"FrondCard_039"
		},
		{
			"mesh":40,
			"name":"FrondCard_040"
		},
		{
			"mesh":41,
			"name":"FrondCard_041"
		},
		{
			"mesh":42,
			"name":"Pot.004"
		},
		{
			"mesh":43,
			"name":"Saucer.004"
		},
		{
			"mesh":44,
			"name":"Soil.004"
		},
		{
			"children":[
				0,
				1,
				2,
				3,
				4,
				5,
				6,
				7,
				8,
				9,
				10,
				11,
				12,
				13,
				14,
				15,
				16,
				17,
				18,
				19,
				20,
				21,
				22,
				23,
				24,
				25,
				26,
				27,
				28,
				29,
				30,
				31,
				32,
				33,
				34,
				35,
				36,
				37,
				38,
				39,
				40,
				41,
				42,
				43,
				44
			],
			"name":"GRP_BostonFern_v13"
		}
	],
	"materials":[
		{
			"alphaMode":"BLEND",
			"doubleSided":true,
			"extensions":{
				"KHR_materials_specular":{
					"specularFactor":0.4000000059604645
				}
			},
			"name":"FrondCardMat",
			"pbrMetallicRoughness":{
				"baseColorTexture":{
					"index":0
				},
				"metallicFactor":0,
				"roughnessFactor":0.699999988079071
			}
		},
		{
			"doubleSided":true,
			"extensions":{
				"KHR_materials_specular":{
					"specularFactor":0.4000000059604645
				}
			},
			"name":"PotMat.004",
			"pbrMetallicRoughness":{
				"baseColorTexture":{
					"index":1
				},
				"metallicFactor":0,
				"roughnessFactor":0.8500000238418579
			}
		},
		{
			"doubleSided":true,
			"extensions":{
				"KHR_materials_specular":{
					"specularFactor":0.4000000059604645
				}
			},
			"name":"SaucerMat.004",
			"pbrMetallicRoughness":{
				"baseColorTexture":{
					"index":2
				},
				"metallicFactor":0,
				"roughnessFactor":0.8500000238418579
			}
		},
		{
			"doubleSided":true,
			"extensions":{
				"KHR_materials_specular":{
					"specularFactor":0.4000000059604645
				}
			},
			"name":"SoilMat.004",
			"pbrMetallicRoughness":{
				"baseColorTexture":{
					"index":3
				},
				"metallicFactor":0,
				"roughnessFactor":0.8500000238418579
			}
		}
	],
	"meshes":[
		{
			"name":"FrondCard_000",
			"primitives":[
				{
					"attributes":{
						"POSITION":0,
						"NORMAL":1,
						"TEXCOORD_0":2
					},
					"indices":3,
					"material":0
				}
			]
		},
		{
			"name":"FrondCard_001",
			"primitives":[
				{
					"attributes":{
						"POSITION":4,
						"NORMAL":5,
						"TEXCOORD_0":6
					},
					"indices":7,
					"material":0
				}
			]
		},
		{
			"name":"FrondCard_002",
			"primitives":[
				{
					"attributes":{
						"POSITION":8,
						"NORMAL":9,
						"TEXCOORD_0":10
					},
					"indices":11,
					"material":0
				}
			]
		},
		{
			"name":"FrondCard_003",
			"primitives":[
				{
					"attributes":{
						"POSITION":12,
						"NORMAL":13,
						"TEXCOORD_0":14
					},
					"indices":15,
					"material":0
				}
			]
		},
		{
			"name":"FrondCard_004",
			"primitives":[
				{
					"attributes":{
						"POSITION":16,
						"NORMAL":17,
						"TEXCOORD_0":18
					},
					"indices":19,
					"material":0
				}
			]
		},
		{
			"name":"FrondCard_005",
			"primitives":[
				{
					"attributes":{
						"POSITION":20,
						"NORMAL":21,
						"TEXCOORD_0":22
					},
					"indices":23,
					"material":0
				}
			]
		},
		{
			"name":"FrondCard_006",
			"primitives":[
				{
					"attributes":{
						"POSITION":24,
						"NORMAL":25,
						"TEXCOORD_0":26
					},
					"indices":23,
					"material":0
				}
			]
		},
		{
			"name":"FrondCard_007",
			"primitives":[
				{
					"attributes":{
						"POSITION":27,
						"NORMAL":28,
						"TEXCOORD_0":29
					},
					"indices":11,
					"material":0
				}
			]
		},
		{
			"name":"FrondCard_008",
			"primitives":[
				{
					"attributes":{
						"POSITION":30,
						"NORMAL":31,
						"TEXCOORD_0":32
					},
					"indices":15,
					"material":0
				}
			]
		},
		{
			"name":"FrondCard_009",
			"primitives":[
				{
					"attributes":{
						"POSITION":33,
						"NORMAL":34,
						"TEXCOORD_0":35
					},
					"indices":36,
					"material":0
				}
			]
		},
		{
			"name":"FrondCard_010",
			"primitives":[
				{
					"attributes":{
						"POSITION":37,
						"NORMAL":38,
						"TEXCOORD_0":39
					},
					"indices":15,
					"material":0
				}
			]
		},
		{
			"name":"FrondCard_011",
			"primitives":[
				{
					"attributes":{
						"POSITION":40,
						"NORMAL":41,
						"TEXCOORD_0":42
					},
					"indices":15,
					"material":0
				}
			]
		},
		{
			"name":"FrondCard_012",
			"primitives":[
				{
					"attributes":{
						"POSITION":43,
						"NORMAL":44,
						"TEXCOORD_0":45
					},
					"indices":15,
					"material":0
				}
			]
		},
		{
			"name":"FrondCard_013",
			"primitives":[
				{
					"attributes":{
						"POSITION":46,
						"NORMAL":47,
						"TEXCOORD_0":48
					},
					"indices":7,
					"material":0
				}
			]
		},
		{
			"name":"FrondCard_014",
			"primitives":[
				{
					"attributes":{
						"POSITION":49,
						"NORMAL":50,
						"TEXCOORD_0":51
					},
					"indices":3,
					"material":0
				}
			]
		},
		{
			"name":"FrondCard_015",
			"primitives":[
				{
					"attributes":{
						"POSITION":52,
						"NORMAL":53,
						"TEXCOORD_0":54
					},
					"indices":15,
					"material":0
				}
			]
		},
		{
			"name":"FrondCard_016",
			"primitives":[
				{
					"attributes":{
						"POSITION":55,
						"NORMAL":56,
						"TEXCOORD_0":57
					},
					"indices":58,
					"material":0
				}
			]
		},
		{
			"name":"FrondCard_017",
			"primitives":[
				{
					"attributes":{
						"POSITION":59,
						"NORMAL":60,
						"TEXCOORD_0":61
					},
					"indices":62,
					"material":0
				}
			]
		},
		{
			"name":"FrondCard_018",
			"primitives":[
				{
					"attributes":{
						"POSITION":63,
						"NORMAL":64,
						"TEXCOORD_0":65
					},
					"indices":19,
					"material":0
				}
			]
		},
		{
			"name":"FrondCard_019",
			"primitives":[
				{
					"attributes":{
						"POSITION":66,
						"NORMAL":67,
						"TEXCOORD_0":68
					},
					"indices":36,
					"material":0
				}
			]
		},
		{
			"name":"FrondCard_020",
			"primitives":[
				{
					"attributes":{
						"POSITION":69,
						"NORMAL":70,
						"TEXCOORD_0":71
					},
					"indices":11,
					"material":0
				}
			]
		},
		{
			"name":"FrondCard_021",
			"primitives":[
				{
					"attributes":{
						"POSITION":72,
						"NORMAL":73,
						"TEXCOORD_0":74
					},
					"indices":11,
					"material":0
				}
			]
		},
		{
			"name":"FrondCard_022",
			"primitives":[
				{
					"attributes":{
						"POSITION":75,
						"NORMAL":76,
						"TEXCOORD_0":77
					},
					"indices":7,
					"material":0
				}
			]
		},
		{
			"name":"FrondCard_023",
			"primitives":[
				{
					"attributes":{
						"POSITION":78,
						"NORMAL":79,
						"TEXCOORD_0":80
					},
					"indices":15,
					"material":0
				}
			]
		},
		{
			"name":"FrondCard_024",
			"primitives":[
				{
					"attributes":{
						"POSITION":81,
						"NORMAL":82,
						"TEXCOORD_0":83
					},
					"indices":62,
					"material":0
				}
			]
		},
		{
			"name":"FrondCard_025",
			"primitives":[
				{
					"attributes":{
						"POSITION":84,
						"NORMAL":85,
						"TEXCOORD_0":86
					},
					"indices":15,
					"material":0
				}
			]
		},
		{
			"name":"FrondCard_026",
			"primitives":[
				{
					"attributes":{
						"POSITION":87,
						"NORMAL":88,
						"TEXCOORD_0":89
					},
					"indices":58,
					"material":0
				}
			]
		},
		{
			"name":"FrondCard_027",
			"primitives":[
				{
					"attributes":{
						"POSITION":90,
						"NORMAL":91,
						"TEXCOORD_0":92
					},
					"indices":11,
					"material":0
				}
			]
		},
		{
			"name":"FrondCard_028",
			"primitives":[
				{
					"attributes":{
						"POSITION":93,
						"NORMAL":94,
						"TEXCOORD_0":95
					},
					"indices":3,
					"material":0
				}
			]
		},
		{
			"name":"FrondCard_029",
			"primitives":[
				{
					"attributes":{
						"POSITION":96,
						"NORMAL":97,
						"TEXCOORD_0":98
					},
					"indices":19,
					"material":0
				}
			]
		},
		{
			"name":"FrondCard_030",
			"primitives":[
				{
					"attributes":{
						"POSITION":99,
						"NORMAL":100,
						"TEXCOORD_0":101
					},
					"indices":3,
					"material":0
				}
			]
		},
		{
			"name":"FrondCard_031",
			"primitives":[
				{
					"attributes":{
						"POSITION":102,
						"NORMAL":103,
						"TEXCOORD_0":104
					},
					"indices":19,
					"material":0
				}
			]
		},
		{
			"name":"FrondCard_032",
			"primitives":[
				{
					"attributes":{
						"POSITION":105,
						"NORMAL":106,
						"TEXCOORD_0":107
					},
					"indices":58,
					"material":0
				}
			]
		},
		{
			"name":"FrondCard_033",
			"primitives":[
				{
					"attributes":{
						"POSITION":108,
						"NORMAL":109,
						"TEXCOORD_0":110
					},
					"indices":7,
					"material":0
				}
			]
		},
		{
			"name":"FrondCard_034",
			"primitives":[
				{
					"attributes":{
						"POSITION":111,
						"NORMAL":112,
						"TEXCOORD_0":113
					},
					"indices":7,
					"material":0
				}
			]
		},
		{
			"name":"FrondCard_035",
			"primitives":[
				{
					"attributes":{
						"POSITION":114,
						"NORMAL":115,
						"TEXCOORD_0":116
					},
					"indices":15,
					"material":0
				}
			]
		},
		{
			"name":"FrondCard_036",
			"primitives":[
				{
					"attributes":{
						"POSITION":117,
						"NORMAL":118,
						"TEXCOORD_0":119
					},
					"indices":58,
					"material":0
				}
			]
		},
		{
			"name":"FrondCard_037",
			"primitives":[
				{
					"attributes":{
						"POSITION":120,
						"NORMAL":121,
						"TEXCOORD_0":122
					},
					"indices":36,
					"material":0
				}
			]
		},
		{
			"name":"FrondCard_038",
			"primitives":[
				{
					"attributes":{
						"POSITION":123,
						"NORMAL":124,
						"TEXCOORD_0":125
					},
					"indices":3,
					"material":0
				}
			]
		},
		{
			"name":"FrondCard_039",
			"primitives":[
				{
					"attributes":{
						"POSITION":126,
						"NORMAL":127,
						"TEXCOORD_0":128
					},
					"indices":36,
					"material":0
				}
			]
		},
		{
			"name":"FrondCard_040",
			"primitives":[
				{
					"attributes":{
						"POSITION":129,
						"NORMAL":130,
						"TEXCOORD_0":131
					},
					"indices":36,
					"material":0
				}
			]
		},
		{
			"name":"FrondCard_041",
			"primitives":[
				{
					"attributes":{
						"POSITION":132,
						"NORMAL":133,
						"TEXCOORD_0":134
					},
					"indices":36,
					"material":0
				}
			]
		},
		{
			"name":"Pot.004",
			"primitives":[
				{
					"attributes":{
						"POSITION":135,
						"NORMAL":136,
						"TEXCOORD_0":137
					},
					"indices":138,
					"material":1
				}
			]
		},
		{
			"name":"Saucer.004",
			"primitives":[
				{
					"attributes":{
						"POSITION":139,
						"NORMAL":140,
						"TEXCOORD_0":141
					},
					"indices":142,
					"material":2
				}
			]
		},
		{
			"name":"Soil.004",
			"primitives":[
				{
					"attributes":{
						"POSITION":143,
						"NORMAL":144,
						"TEXCOORD_0":145
					},
					"indices":146,
					"material":3
				}
			]
		}
	],
	"textures":[
		{
			"sampler":0,
			"source":0
		},
		{
			"sampler":1,
			"source":1
		},
		{
			"sampler":1,
			"source":2
		},
		{
			"sampler":1,
			"source":3
		}
	],
	"images":[
		{
			"mimeType":"image/png",
			"name":"FrondCardTex",
			"uri":"FrondCardTex.png"
		},
		{
			"mimeType":"image/png",
			"name":"PotTex",
			"uri":"PotTex.png"
		},
		{
			"mimeType":"image/png",
			"name":"SaucerTex",
			"uri":"SaucerTex.png"
		},
		{
			"mimeType":"image/png",
			"name":"SoilTex",
			"uri":"SoilTex.png"
		}
	],
	"accessors":[
		{
			"bufferView":0,
			"componentType":5126,
			"count":88,
			"max":[
				1.1297082901000977,
				1.9127652645111084,
				-0.05586901307106018
			],
			"min":[
				-0.1772770881652832,
				1.1513330936431885,
				-1.9921479225158691
			],
			"type":"VEC3"
		},
		{
			"bufferView":1,
			"componentType":5126,
			"count":88,
			"type":"VEC3"
		},
		{
			"bufferView":2,
			"componentType":5126,
			"count":88,
			"type":"VEC2"
		},
		{
			"bufferView":3,
			"componentType":5123,
			"count":132,
			"type":"SCALAR"
		},
		{
			"bufferView":4,
			"componentType":5126,
			"count":88,
			"max":[
				-0.0549917072057724,
				1.9018498659133911,
				0.030057042837142944
			],
			"min":[
				-2.065859794616699,
				0.8597560524940491,
				-1.3186721801757812
			],
			"type":"VEC3"
		},
		{
			"bufferView":5,
			"componentType":5126,
			"count":88,
			"type":"VEC3"
		},
		{
			"bufferView":6,
			"componentType":5126,
			"count":88,
			"type":"VEC2"
		},
		{
			"bufferView":7,
			"componentType":5123,
			"count":132,
			"type":"SCALAR"
		},
		{
			"bufferView":8,
			"componentType":5126,
			"count":88,
			"max":[
				0.9539698362350464,
				2.062626838684082,
				-0.20163598656654358
			],
			"min":[
				-0.34069693088531494,
				1.4383068084716797,
				-2.301856756210327
			],
			"type":"VEC3"
		},
		{
			"bufferView":9,
			"componentType":5126,
			"count":88,
			"type":"VEC3"
		},
		{
			"bufferView":10,
			"componentType":5126,
			"count":88,
			"type":"VEC2"
		},
		{
			"bufferView":11,
			"componentType":5123,
			"count":132,
			"type":"SCALAR"
		},
		{
			"bufferView":12,
			"componentType":5126,
			"count":88,
			"max":[
				-0.1426023244857788,
				2.0418953895568848,
				0.42891421914100647
			],
			"min":[
				-3.4594058990478516,
				1.4258360862731934,
				-1.127918004989624
			],
			"type":"VEC3"
		},
		{
			"bufferView":13,
			"componentType":5126,
			"count":88,
			"type":"VEC3"
		},
		{
			"bufferView":14,
			"componentType":5126,
			"count":88,
			"type":"VEC2"
		},
		{
			"bufferView":15,
			"componentType":5123,
			"count":132,
			"type":"SCALAR"
		},
		{
			"bufferView":16,
			"componentType":5126,
			"count":88,
			"max":[
				1.131201982498169,
				2.557980537414551,
				2.0593883991241455
			],
			"min":[
				-0.2233140468597412,
				1.6899598836898804,
				0.1636931300163269
			],
			"type":"VEC3"
		},
		{
			"bufferView":17,
			"componentType":5126,
			"count":88,
			"type":"VEC3"
		},
		{
			"bufferView":18,
			"componentType":5126,
			"count":88,
			"type":"VEC2"
		},
		{
			"bufferView":19,
			"componentType":5123,
			"count":132,
			"type":"SCALAR"
		},
		{
			"bufferView":20,
			"componentType":5126,
			"count":88,
			"max":[
				0.4739797115325928,
				1.950362205505371,
				-0.06878463923931122
			],
			"min":[
				-0.7912789583206177,
				1.34353768825531,
				-2.325407028198242
			],
			"type":"VEC3"
		},
		{
			"bufferView":21,
			"componentType":5126,
			"count":88,
			"type":"VEC3"
		},
		{
			"bufferView":22,
			"componentType":5126,
			"count":88,
			"type":"VEC2"
		},
		{
			"bufferView":23,
			"componentType":5123,
			"count":132,
			"type":"SCALAR"
		},
		{
			"bufferView":24,
			"componentType":5126,
			"count":88,
			"max":[
				0.37331849336624146,
				2.2620723247528076,
				2.4486632347106934
			],
			"min":[
				-0.8442070484161377,
				1.57142174243927,
				0.1599663347005844
			],
			"type":"VEC3"
		},
		{
			"bufferView":25,
			"componentType":5126,
			"count":88,
			"type":"VEC3"
		},
		{
			"bufferView":26,
			"componentType":5126,
			"count":88,
			"type":"VEC2"
		},
		{
			"bufferView":27,
			"componentType":5126,
			"count":88,
			"max":[
				1.9189635515213013,
				2.049497365951538,
				0.377293199300766
			],
			"min":[
				0.07386280596256256,
				1.496969223022461,
				-1.1320804357528687
			],
			"type":"VEC3"
		},
		{
			"bufferView":28,
			"componentType":5126,
			"count":88,
			"type":"VEC3"
		},
		{
			"bufferView":29,
			"componentType":5126,
			"count":88,
			"type":"VEC2"
		},
		{
			"bufferView":30,
			"componentType":5126,
			"count":88,
			"max":[
				-0.13310353457927704,
				2.058039426803589,
				0.10477441549301147
			],
			"min":[
				-1.8458969593048096,
				1.5077762603759766,
				-1.119788646697998
			],
			"type":"VEC3"
		},
		{
			"bufferView":31,
			"componentType":5126,
			"count":88,
			"type":"VEC3"
		},
		{
			"bufferView":32,
			"componentType":5126,
			"count":88,
			"type":"VEC2"
		},
		{
			"bufferView":33,
			"componentType":5126,
			"count":88,
			"max":[
				-0.005514264106750488,
				1.9010494947433472,
				-0.10107353329658508
			],
			"min":[
				-1.5576282739639282,
				1.0169986486434937,
				-1.723880648612976
			],
			"type":"VEC3"
		},
		{
			"bufferView":34,
			"componentType":5126,
			"count":88,
			"type":"VEC3"
		},
		{
			"bufferView":35,
			"componentType":5126,
			"count":88,
			"type":"VEC2"
		},
		{
			"bufferView":36,
			"componentType":5123,
			"count":132,
			"type":"SCALAR"
		},
		{
			"bufferView":37,
			"componentType":5126,
			"count":88,
			"max":[
				-0.12105255573987961,
				2.0246615409851074,
				0.06694930791854858
			],
			"min":[
				-2.7660040855407715,
				1.4654860496520996,
				-1.5538052320480347
			],
			"type":"VEC3"
		},
		{
			"bufferView":38,
			"componentType":5126,
			"count":88,
			"type":"VEC3"
		},
		{
			"bufferView":39,
			"componentType":5126,
			"count":88,
			"type":"VEC2"
		},
		{
			"bufferView":40,
			"componentType":5126,
			"count":88,
			"max":[
				0.0769263207912445,
				2.0566394329071045,
				2.2667558193206787
			],
			"min":[
				-1.4307239055633545,
				1.1502710580825806,
				0.10009102523326874
			],
			"type":"VEC3"
		},
		{
			"bufferView":41,
			"componentType":5126,
			"count":88,
			"type":"VEC3"
		},
		{
			"bufferView":42,
			"componentType":5126,
			"count":88,
			"type":"VEC2"
		},
		{
			"bufferView":43,
			"componentType":5126,
			"count":88,
			"max":[
				1.5779006481170654,
				1.9384762048721313,
				-0.04917289689183235
			],
			"min":[
				0.043091341853141785,
				1.303820252418518,
				-1.8889341354370117
			],
			"type":"VEC3"
		},
		{
			"bufferView":44,
			"componentType":5126,
			"count":88,
			"type":"VEC3"
		},
		{
			"bufferView":45,
			"componentType":5126,
			"count":88,
			"type":"VEC2"
		},
		{
			"bufferView":46,
			"componentType":5126,
			"count":88,
			"max":[
				0.9469923377037048,
				1.8566651344299316,
				2.7016613483428955
			],
			"min":[
				-0.35548871755599976,
				0.3399771749973297,
				0.08616232126951218
			],
			"type":"VEC3"
		},
		{
			"bufferView":47,
			"componentType":5126,
			"count":88,
			"type":"VEC3"
		},
		{
			"bufferView":48,
			"componentType":5126,
			"count":88,
			"type":"VEC2"
		},
		{
			"bufferView":49,
			"componentType":5126,
			"count":88,
			"max":[
				2.4457318782806396,
				1.931005835533142,
				1.2952539920806885
			],
			"min":[
				0.0521431565284729,
				1.2079370021820068,
				-0.2305353283882141
			],
			"type":"VEC3"
		},
		{
			"bufferView":50,
			"componentType":5126,
			"count":88,
			"type":"VEC3"
		},
		{
			"bufferView":51,
			"componentType":5126,
			"count":88,
			"type":"VEC2"
		},
		{
			"bufferView":52,
			"componentType":5126,
			"count":88,
			"max":[
				1.0424476861953735,
				1.9776583909988403,
				-0.18897491693496704
			],
			"min":[
				-0.4129175543785095,
				0.9847313761711121,
				-2.5583245754241943
			],
			"type":"VEC3"
		},
		{
			"bufferView":53,
			"componentType":5126,
			"count":88,
			"type":"VEC3"
		},
		{
			"bufferView":54,
			"componentType":5126,
			"count":88,
			"type":"VEC2"
		},
		{
			"bufferView":55,
			"componentType":5126,
			"count":88,
			"max":[
				1.100398302078247,
				2.227130889892578,
				-0.1764681041240692
			],
			"min":[
				-0.19258588552474976,
				1.6819285154342651,
				-1.8250982761383057
			],
			"type":"VEC3"
		},
		{
			"bufferView":56,
			"componentType":5126,
			"count":88,
			"type":"VEC3"
		},
		{
			"bufferView":57,
			"componentType":5126,
			"count":88,
			"type":"VEC2"
		},
		{
			"bufferView":58,
			"componentType":5123,
			"count":132,
			"type":"SCALAR"
		},
		{
			"bufferView":59,
			"componentType":5126,
			"count":88,
			"max":[
				-0.1277669370174408,
				1.873037338256836,
				1.4042553901672363
			],
			"min":[
				-2.34130597114563,
				0.40223827958106995,
				-0.016808360815048218
			],
			"type":"VEC3"
		},
		{
			"bufferView":60,
			"componentType":5126,
			"count":88,
			"type":"VEC3"
		},
		{
			"bufferView":61,
			"componentType":5126,
			"count":88,
			"type":"VEC2"
		},
		{
			"bufferView":62,
			"componentType":5123,
			"count":132,
			"type":"SCALAR"
		},
		{
			"bufferView":63,
			"componentType":5126,
			"count":88,
			"max":[
				1.0418763160705566,
				2.060255289077759,
				2.539280652999878
			],
			"min":[
				-0.3817373514175415,
				1.5372248888015747,
				0.15988175570964813
			],
			"type":"VEC3"
		},
		{
			"bufferView":64,
			"componentType":5126,
			"count":88,
			"type":"VEC3"
		},
		{
			"bufferView":65,
			"componentType":5126,
			"count":88,
			"type":"VEC2"
		},
		{
			"bufferView":66,
			"componentType":5126,
			"count":88,
			"max":[
				2.999128818511963,
				1.8664660453796387,
				-0.006776586174964905
			],
			"min":[
				0.09647383540868759,
				0.5787855982780457,
				-1.7936069965362549
			],
			"type":"VEC3"
		},
		{
			"bufferView":67,
			"componentType":5126,
			"count":88,
			"type":"VEC3"
		},
		{
			"bufferView":68,
			"componentType":5126,
			"count":88,
			"type":"VEC2"
		},
		{
			"bufferView":69,
			"componentType":5126,
			"count":88,
			"max":[
				0.26778465509414673,
				2.2659993171691895,
				-0.10682156682014465
			],
			"min":[
				-1.0845561027526855,
				1.7271336317062378,
				-2.129180908203125
			],
			"type":"VEC3"
		},
		{
			"bufferView":70,
			"componentType":5126,
			"count":88,
			"type":"VEC3"
		},
		{
			"bufferView":71,
			"componentType":5126,
			"count":88,
			"type":"VEC2"
		},
		{
			"bufferView":72,
			"componentType":5126,
			"count":88,
			"max":[
				-0.16906920075416565,
				2.425354242324829,
				1.0001815557479858
			],
			"min":[
				-2.2191643714904785,
				1.7424989938735962,
				-0.33969005942344666
			],
			"type":"VEC3"
		},
		{
			"bufferView":73,
			"componentType":5126,
			"count":88,
			"type":"VEC3"
		},
		{
			"bufferView":74,
			"componentType":5126,
			"count":88,
			"type":"VEC2"
		},
		{
			"bufferView":75,
			"componentType":5126,
			"count":88,
			"max":[
				-0.1432361602783203,
				1.9061940908432007,
				0.9560009837150574
			],
			"min":[
				-3.56642746925354,
				0.6058781147003174,
				-0.4897017776966095
			],
			"type":"VEC3"
		},
		{
			"bufferView":76,
			"componentType":5126,
			"count":88,
			"type":"VEC3"
		},
		{
			"bufferView":77,
			"componentType":5126,
			"count":88,
			"type":"VEC2"
		},
		{
			"bufferView":78,
			"componentType":5126,
			"count":88,
			"max":[
				0.26006370782852173,
				2.026793956756592,
				-0.15531139075756073
			],
			"min":[
				-1.3508813381195068,
				1.314528465270996,
				-3.3369803428649902
			],
			"type":"VEC3"
		},
		{
			"bufferView":79,
			"componentType":5126,
			"count":88,
			"type":"VEC3"
		},
		{
			"bufferView":80,
			"componentType":5126,
			"count":88,
			"type":"VEC2"
		},
		{
			"bufferView":81,
			"componentType":5126,
			"count":88,
			"max":[
				-0.022434305399656296,
				1.8272837400436401,
				-0.054776985198259354
			],
			"min":[
				-1.9188767671585083,
				0.31199929118156433,
				-2.2765278816223145
			],
			"type":"VEC3"
		},
		{
			"bufferView":82,
			"componentType":5126,
			"count":88,
			"type":"VEC3"
		},
		{
			"bufferView":83,
			"componentType":5126,
			"count":88,
			"type":"VEC2"
		},
		{
			"bufferView":84,
			"componentType":5126,
			"count":88,
			"max":[
				0.5268886685371399,
				1.9453259706497192,
				2.4123644828796387
			],
			"min":[
				-1.0035388469696045,
				1.2369247674942017,
				0.0745241716504097
			],
			"type":"VEC3"
		},
		{
			"bufferView":85,
			"componentType":5126,
			"count":88,
			"type":"VEC3"
		},
		{
			"bufferView":86,
			"componentType":5126,
			"count":88,
			"type":"VEC2"
		},
		{
			"bufferView":87,
			"componentType":5126,
			"count":88,
			"max":[
				0.5281984210014343,
				2.3463327884674072,
				1.823944091796875
			],
			"min":[
				-0.9527702331542969,
				1.7459323406219482,
				0.12260545790195465
			],
			"type":"VEC3"
		},
		{
			"bufferView":88,
			"componentType":5126,
			"count":88,
			"type":"VEC3"
		},
		{
			"bufferView":89,
			"componentType":5126,
			"count":88,
			"type":"VEC2"
		},
		{
			"bufferView":90,
			"componentType":5126,
			"count":88,
			"max":[
				1.7979995012283325,
				2.1918981075286865,
				2.4265241622924805
			],
			"min":[
				0.025106094777584076,
				1.400908350944519,
				0.09882134199142456
			],
			"type":"VEC3"
		},
		{
			"bufferView":91,
			"componentType":5126,
			"count":88,
			"type":"VEC3"
		},
		{
			"bufferView":92,
			"componentType":5126,
			"count":88,
			"type":"VEC2"
		},
		{
			"bufferView":93,
			"componentType":5126,
			"count":88,
			"max":[
				3.43415904045105,
				1.895384430885315,
				1.05436110496521
			],
			"min":[
				0.08016851544380188,
				0.9830653667449951,
				-0.3799557387828827
			],
			"type":"VEC3"
		},
		{
			"bufferView":94,
			"componentType":5126,
			"count":88,
			"type":"VEC3"
		},
		{
			"bufferView":95,
			"componentType":5126,
			"count":88,
			"type":"VEC2"
		},
		{
			"bufferView":96,
			"componentType":5126,
			"count":88,
			"max":[
				-0.1328626424074173,
				2.399291753768921,
				0.47130852937698364
			],
			"min":[
				-2.792637825012207,
				1.7252789735794067,
				-0.7806727886199951
			],
			"type":"VEC3"
		},
		{
			"bufferView":97,
			"componentType":5126,
			"count":88,
			"type":"VEC3"
		},
		{
			"bufferView":98,
			"componentType":5126,
			"count":88,
			"type":"VEC2"
		},
		{
			"bufferView":99,
			"componentType":5126,
			"count":88,
			"max":[
				-0.029909610748291016,
				2.0237812995910645,
				1.910598874092102
			],
			"min":[
				-1.764380693435669,
				1.1375110149383545,
				0.063206747174263
			],
			"type":"VEC3"
		},
		{
			"bufferView":100,
			"componentType":5126,
			"count":88,
			"type":"VEC3"
		},
		{
			"bufferView":101,
			"componentType":5126,
			"count":88,
			"type":"VEC2"
		},
		{
			"bufferView":102,
			"componentType":5126,
			"count":88,
			"max":[
				2.1809699535369873,
				2.240596294403076,
				1.1296911239624023
			],
			"min":[
				0.03936336189508438,
				1.6855285167694092,
				-0.1682540774345398
			],
			"type":"VEC3"
		},
		{
			"bufferView":103,
			"componentType":5126,
			"count":88,
			"type":"VEC3"
		},
		{
			"bufferView":104,
			"componentType":5126,
			"count":88,
			"type":"VEC2"
		},
		{
			"bufferView":105,
			"componentType":5126,
			"count":88,
			"max":[
				2.0314571857452393,
				2.2373294830322266,
				1.1169594526290894
			],
			"min":[
				0.11087881773710251,
				1.6792242527008057,
				-0.18639376759529114
			],
			"type":"VEC3"
		},
		{
			"bufferView":106,
			"componentType":5126,
			"count":88,
			"type":"VEC3"
		},
		{
			"bufferView":107,
			"componentType":5126,
			"count":88,
			"type":"VEC2"
		},
		{
			"bufferView":108,
			"componentType":5126,
			"count":88,
			"max":[
				-0.12429860979318619,
				1.8844821453094482,
				1.6769194602966309
			],
			"min":[
				-3.379375696182251,
				0.6227089166641235,
				-0.08508548140525818
			],
			"type":"VEC3"
		},
		{
			"bufferView":109,
			"componentType":5126,
			"count":88,
			"type":"VEC3"
		},
		{
			"bufferView":110,
			"componentType":5126,
			"count":88,
			"type":"VEC2"
		},
		{
			"bufferView":111,
			"componentType":5126,
			"count":88,
			"max":[
				2.857361316680908,
				1.845337986946106,
				0.6978536248207092
			],
			"min":[
				0.10654270648956299,
				0.4686042368412018,
				-0.5929368138313293
			],
			"type":"VEC3"
		},
		{
			"bufferView":112,
			"componentType":5126,
			"count":88,
			"type":"VEC3"
		},
		{
			"bufferView":113,
			"componentType":5126,
			"count":88,
			"type":"VEC2"
		},
		{
			"bufferView":114,
			"componentType":5126,
			"count":88,
			"max":[
				2.208665370941162,
				1.932372808456421,
				2.2835521697998047
			],
			"min":[
				0.01922711730003357,
				1.2267521619796753,
				0.005469262599945068
			],
			"type":"VEC3"
		},
		{
			"bufferView":115,
			"componentType":5126,
			"count":88,
			"type":"VEC3"
		},
		{
			"bufferView":116,
			"componentType":5126,
			"count":88,
			"type":"VEC2"
		},
		{
			"bufferView":117,
			"componentType":5126,
			"count":88,
			"max":[
				-0.1414567232131958,
				2.3211326599121094,
				1.4828078746795654
			],
			"min":[
				-1.8726240396499634,
				1.7474702596664429,
				0.0721636414527893
			],
			"type":"VEC3"
		},
		{
			"bufferView":118,
			"componentType":5126,
			"count":88,
			"type":"VEC3"
		},
		{
			"bufferView":119,
			"componentType":5126,
			"count":88,
			"type":"VEC2"
		},
		{
			"bufferView":120,
			"componentType":5126,
			"count":88,
			"max":[
				2.0236425399780273,
				1.865372896194458,
				0.01591441035270691
			],
			"min":[
				0.007085483521223068,
				0.5773202180862427,
				-1.7827762365341187
			],
			"type":"VEC3"
		},
		{
			"bufferView":121,
			"componentType":5126,
			"count":88,
			"type":"VEC3"
		},
		{
			"bufferView":122,
			"componentType":5126,
			"count":88,
			"type":"VEC2"
		},
		{
			"bufferView":123,
			"componentType":5126,
			"count":88,
			"max":[
				2.029864549636841,
				1.8665326833724976,
				1.7990992069244385
			],
			"min":[
				0.014688290655612946,
				0.8817899227142334,
				0.012109141796827316
			],
			"type":"VEC3"
		},
		{
			"bufferView":124,
			"componentType":5126,
			"count":88,
			"type":"VEC3"
		},
		{
			"bufferView":125,
			"componentType":5126,
			"count":88,
			"type":"VEC2"
		},
		{
			"bufferView":126,
			"componentType":5126,
			"count":88,
			"max":[
				2.266624689102173,
				1.8911277055740356,
				0.014628902077674866
			],
			"min":[
				0.01870882511138916,
				0.851917028427124,
				-1.567725419998169
			],
			"type":"VEC3"
		},
		{
			"bufferView":127,
			"componentType":5126,
			"count":88,
			"type":"VEC3"
		},
		{
			"bufferView":128,
			"componentType":5126,
			"count":88,
			"type":"VEC2"
		},
		{
			"bufferView":129,
			"componentType":5126,
			"count":88,
			"max":[
				3.1422336101531982,
				1.913785457611084,
				0.3341842293739319
			],
			"min":[
				0.043955765664577484,
				0.8673058152198792,
				-1.2723380327224731
			],
			"type":"VEC3"
		},
		{
			"bufferView":130,
			"componentType":5126,
			"count":88,
			"type":"VEC3"
		},
		{
			"bufferView":131,
			"componentType":5126,
			"count":88,
			"type":"VEC2"
		},
		{
			"bufferView":132,
			"componentType":5126,
			"count":88,
			"max":[
				-0.1515970528125763,
				1.9318490028381348,
				0.1418755054473877
			],
			"min":[
				-3.3449594974517822,
				0.8171160817146301,
				-1.4063746929168701
			],
			"type":"VEC3"
		},
		{
			"bufferView":133,
			"componentType":5126,
			"count":88,
			"type":"VEC3"
		},
		{
			"bufferView":134,
			"componentType":5126,
			"count":88,
			"type":"VEC2"
		},
		{
			"bufferView":135,
			"componentType":5126,
			"count":384,
			"max":[
				0.949999988079071,
				1.7799999713897705,
				0.949999988079071
			],
			"min":[
				-0.949999988079071,
				0,
				-0.949999988079071
			],
			"type":"VEC3"
		},
		{
			"bufferView":136,
			"componentType":5126,
			"count":384,
			"type":"VEC3"
		},
		{
			"bufferView":137,
			"componentType":5126,
			"count":384,
			"type":"VEC2"
		},
		{
			"bufferView":138,
			"componentType":5123,
			"count":612,
			"type":"SCALAR"
		},
		{
			"bufferView":139,
			"componentType":5126,
			"count":80,
			"max":[
				1.0499999523162842,
				0.03999999910593033,
				1.0499999523162842
			],
			"min":[
				-1.0499999523162842,
				-0.07999999821186066,
				-1.0499999523162842
			],
			"type":"VEC3"
		},
		{
			"bufferView":140,
			"componentType":5126,
			"count":80,
			"type":"VEC3"
		},
		{
			"bufferView":141,
			"componentType":5126,
			"count":80,
			"type":"VEC2"
		},
		{
			"bufferView":142,
			"componentType":5123,
			"count":132,
			"type":"SCALAR"
		},
		{
			"bufferView":143,
			"componentType":5126,
			"count":56,
			"max":[
				0.7206260561943054,
				1.659999966621399,
				0.7206260561943054
			],
			"min":[
				-0.7206260561943054,
				1.6399999856948853,
				-0.7206260561943054
			],
			"type":"VEC3"
		},
		{
			"bufferView":144,
			"componentType":5126,
			"count":56,
			"type":"VEC3"
		},
		{
			"bufferView":145,
			"componentType":5126,
			"count":56,
			"type":"VEC2"
		},
		{
			"bufferView":146,
			"componentType":5123,
			"count":72,
			"type":"SCALAR"
		}
	],
	"bufferViews":[
		{
			"buffer":0,
			"byteLength":1056,
			"byteOffset":0,
			"target":34962
		},
		{
			"buffer":0,
			"byteLength":1056,
			"byteOffset":1056,
			"target":34962
		},
		{
			"buffer":0,
			"byteLength":704,
			"byteOffset":2112,
			"target":34962
		},
		{
			"buffer":0,
			"byteLength":264,
			"byteOffset":2816,
			"target":34963
		},
		{
			"buffer":0,
			"byteLength":1056,
			"byteOffset":3080,
			"target":34962
		},
		{
			"buffer":0,
			"byteLength":1056,
			"byteOffset":4136,
			"target":34962
		},
		{
			"buffer":0,
			"byteLength":704,
			"byteOffset":5192,
			"target":34962
		},
		{
			"buffer":0,
			"byteLength":264,
			"byteOffset":5896,
			"target":34963
		},
		{
			"buffer":0,
			"byteLength":1056,
			"byteOffset":6160,
			"target":34962
		},
		{
			"buffer":0,
			"byteLength":1056,
			"byteOffset":7216,
			"target":34962
		},
		{
			"buffer":0,
			"byteLength":704,
			"byteOffset":8272,
			"target":34962
		},
		{
			"buffer":0,
			"byteLength":264,
			"byteOffset":8976,
			"target":34963
		},
		{
			"buffer":0,
			"byteLength":1056,
			"byteOffset":9240,
			"target":34962
		},
		{
			"buffer":0,
			"byteLength":1056,
			"byteOffset":10296,
			"target":34962
		},
		{
			"buffer":0,
			"byteLength":704,
			"byteOffset":11352,
			"target":34962
		},
		{
			"buffer":0,
			"byteLength":264,
			"byteOffset":12056,
			"target":34963
		},
		{
			"buffer":0,
			"byteLength":1056,
			"byteOffset":12320,
			"target":34962
		},
		{
			"buffer":0,
			"byteLength":1056,
			"byteOffset":13376,
			"target":34962
		},
		{
			"buffer":0,
			"byteLength":704,
			"byteOffset":14432,
			"target":34962
		},
		{
			"buffer":0,
			"byteLength":264,
			"byteOffset":15136,
			"target":34963
		},
		{
			"buffer":0,
			"byteLength":1056,
			"byteOffset":15400,
			"target":34962
		},
		{
			"buffer":0,
			"byteLength":1056,
			"byteOffset":16456,
			"target":34962
		},
		{
			"buffer":0,
			"byteLength":704,
			"byteOffset":17512,
			"target":34962
		},
		{
			"buffer":0,
			"byteLength":264,
			"byteOffset":18216,
			"target":34963
		},
		{
			"buffer":0,
			"byteLength":1056,
			"byteOffset":18480,
			"target":34962
		},
		{
			"buffer":0,
			"byteLength":1056,
			"byteOffset":19536,
			"target":34962
		},
		{
			"buffer":0,
			"byteLength":704,
			"byteOffset":20592,
			"target":34962
		},
		{
			"buffer":0,
			"byteLength":1056,
			"byteOffset":21296,
			"target":34962
		},
		{
			"buffer":0,
			"byteLength":1056,
			"byteOffset":22352,
			"target":34962
		},
		{
			"buffer":0,
			"byteLength":704,
			"byteOffset":23408,
			"target":34962
		},
		{
			"buffer":0,
			"byteLength":1056,
			"byteOffset":24112,
			"target":34962
		},
		{
			"buffer":0,
			"byteLength":1056,
			"byteOffset":25168,
			"target":34962
		},
		{
			"buffer":0,
			"byteLength":704,
			"byteOffset":26224,
			"target":34962
		},
		{
			"buffer":0,
			"byteLength":1056,
			"byteOffset":26928,
			"target":34962
		},
		{
			"buffer":0,
			"byteLength":1056,
			"byteOffset":27984,
			"target":34962
		},
		{
			"buffer":0,
			"byteLength":704,
			"byteOffset":29040,
			"target":34962
		},
		{
			"buffer":0,
			"byteLength":264,
			"byteOffset":29744,
			"target":34963
		},
		{
			"buffer":0,
			"byteLength":1056,
			"byteOffset":30008,
			"target":34962
		},
		{
			"buffer":0,
			"byteLength":1056,
			"byteOffset":31064,
			"target":34962
		},
		{
			"buffer":0,
			"byteLength":704,
			"byteOffset":32120,
			"target":34962
		},
		{
			"buffer":0,
			"byteLength":1056,
			"byteOffset":32824,
			"target":34962
		},
		{
			"buffer":0,
			"byteLength":1056,
			"byteOffset":33880,
			"target":34962
		},
		{
			"buffer":0,
			"byteLength":704,
			"byteOffset":34936,
			"target":34962
		},
		{
			"buffer":0,
			"byteLength":1056,
			"byteOffset":35640,
			"target":34962
		},
		{
			"buffer":0,
			"byteLength":1056,
			"byteOffset":36696,
			"target":34962
		},
		{
			"buffer":0,
			"byteLength":704,
			"byteOffset":37752,
			"target":34962
		},
		{
			"buffer":0,
			"byteLength":1056,
			"byteOffset":38456,
			"target":34962
		},
		{
			"buffer":0,
			"byteLength":1056,
			"byteOffset":39512,
			"target":34962
		},
		{
			"buffer":0,
			"byteLength":704,
			"byteOffset":40568,
			"target":34962
		},
		{
			"buffer":0,
			"byteLength":1056,
			"byteOffset":41272,
			"target":34962
		},
		{
			"buffer":0,
			"byteLength":1056,
			"byteOffset":42328,
			"target":34962
		},
		{
			"buffer":0,
			"byteLength":704,
			"byteOffset":43384,
			"target":34962
		},
		{
			"buffer":0,
			"byteLength":1056,
			"byteOffset":44088,
			"target":34962
		},
		{
			"buffer":0,
			"byteLength":1056,
			"byteOffset":45144,
			"target":34962
		},
		{
			"buffer":0,
			"byteLength":704,
			"byteOffset":46200,
			"target":34962
		},
		{
			"buffer":0,
			"byteLength":1056,
			"byteOffset":46904,
			"target":34962
		},
		{
			"buffer":0,
			"byteLength":1056,
			"byteOffset":47960,
			"target":34962
		},
		{
			"buffer":0,
			"byteLength":704,
			"byteOffset":49016,
			"target":34962
		},
		{
			"buffer":0,
			"byteLength":264,
			"byteOffset":49720,
			"target":34963
		},
		{
			"buffer":0,
			"byteLength":1056,
			"byteOffset":49984,
			"target":34962
		},
		{
			"buffer":0,
			"byteLength":1056,
			"byteOffset":51040,
			"target":34962
		},
		{
			"buffer":0,
			"byteLength":704,
			"byteOffset":52096,
			"target":34962
		},
		{
			"buffer":0,
			"byteLength":264,
			"byteOffset":52800,
			"target":34963
		},
		{
			"buffer":0,
			"byteLength":1056,
			"byteOffset":53064,
			"target":34962
		},
		{
			"buffer":0,
			"byteLength":1056,
			"byteOffset":54120,
			"target":34962
		},
		{
			"buffer":0,
			"byteLength":704,
			"byteOffset":55176,
			"target":34962
		},
		{
			"buffer":0,
			"byteLength":1056,
			"byteOffset":55880,
			"target":34962
		},
		{
			"buffer":0,
			"byteLength":1056,
			"byteOffset":56936,
			"target":34962
		},
		{
			"buffer":0,
			"byteLength":704,
			"byteOffset":57992,
			"target":34962
		},
		{
			"buffer":0,
			"byteLength":1056,
			"byteOffset":58696,
			"target":34962
		},
		{
			"buffer":0,
			"byteLength":1056,
			"byteOffset":59752,
			"target":34962
		},
		{
			"buffer":0,
			"byteLength":704,
			"byteOffset":60808,
			"target":34962
		},
		{
			"buffer":0,
			"byteLength":1056,
			"byteOffset":61512,
			"target":34962
		},
		{
			"buffer":0,
			"byteLength":1056,
			"byteOffset":62568,
			"target":34962
		},
		{
			"buffer":0,
			"byteLength":704,
			"byteOffset":63624,
			"target":34962
		},
		{
			"buffer":0,
			"byteLength":1056,
			"byteOffset":64328,
			"target":34962
		},
		{
			"buffer":0,
			"byteLength":1056,
			"byteOffset":65384,
			"target":34962
		},
		{
			"buffer":0,
			"byteLength":704,
			"byteOffset":66440,
			"target":34962
		},
		{
			"buffer":0,
			"byteLength":1056,
			"byteOffset":67144,
			"target":34962
		},
		{
			"buffer":0,
			"byteLength":1056,
			"byteOffset":68200,
			"target":34962
		},
		{
			"buffer":0,
			"byteLength":704,
			"byteOffset":69256,
			"target":34962
		},
		{
			"buffer":0,
			"byteLength":1056,
			"byteOffset":69960,
			"target":34962
		},
		{
			"buffer":0,
			"byteLength":1056,
			"byteOffset":71016,
			"target":34962
		},
		{
			"buffer":0,
			"byteLength":704,
			"byteOffset":72072,
			"target":34962
		},
		{
			"buffer":0,
			"byteLength":1056,
			"byteOffset":72776,
			"target":34962
		},
		{
			"buffer":0,
			"byteLength":1056,
			"byteOffset":73832,
			"target":34962
		},
		{
			"buffer":0,
			"byteLength":704,
			"byteOffset":74888,
			"target":34962
		},
		{
			"buffer":0,
			"byteLength":1056,
			"byteOffset":75592,
			"target":34962
		},
		{
			"buffer":0,
			"byteLength":1056,
			"byteOffset":76648,
			"target":34962
		},
		{
			"buffer":0,
			"byteLength":704,
			"byteOffset":77704,
			"target":34962
		},
		{
			"buffer":0,
			"byteLength":1056,
			"byteOffset":78408,
			"target":34962
		},
		{
			"buffer":0,
			"byteLength":1056,
			"byteOffset":79464,
			"target":34962
		},
		{
			"buffer":0,
			"byteLength":704,
			"byteOffset":80520,
			"target":34962
		},
		{
			"buffer":0,
			"byteLength":1056,
			"byteOffset":81224,
			"target":34962
		},
		{
			"buffer":0,
			"byteLength":1056,
			"byteOffset":82280,
			"target":34962
		},
		{
			"buffer":0,
			"byteLength":704,
			"byteOffset":83336,
			"target":34962
		},
		{
			"buffer":0,
			"byteLength":1056,
			"byteOffset":84040,
			"target":34962
		},
		{
			"buffer":0,
			"byteLength":1056,
			"byteOffset":85096,
			"target":34962
		},
		{
			"buffer":0,
			"byteLength":704,
			"byteOffset":86152,
			"target":34962
		},
		{
			"buffer":0,
			"byteLength":1056,
			"byteOffset":86856,
			"target":34962
		},
		{
			"buffer":0,
			"byteLength":1056,
			"byteOffset":87912,
			"target":34962
		},
		{
			"buffer":0,
			"byteLength":704,
			"byteOffset":88968,
			"target":34962
		},
		{
			"buffer":0,
			"byteLength":1056,
			"byteOffset":89672,
			"target":34962
		},
		{
			"buffer":0,
			"byteLength":1056,
			"byteOffset":90728,
			"target":34962
		},
		{
			"buffer":0,
			"byteLength":704,
			"byteOffset":91784,
			"target":34962
		},
		{
			"buffer":0,
			"byteLength":1056,
			"byteOffset":92488,
			"target":34962
		},
		{
			"buffer":0,
			"byteLength":1056,
			"byteOffset":93544,
			"target":34962
		},
		{
			"buffer":0,
			"byteLength":704,
			"byteOffset":94600,
			"target":34962
		},
		{
			"buffer":0,
			"byteLength":1056,
			"byteOffset":95304,
			"target":34962
		},
		{
			"buffer":0,
			"byteLength":1056,
			"byteOffset":96360,
			"target":34962
		},
		{
			"buffer":0,
			"byteLength":704,
			"byteOffset":97416,
			"target":34962
		},
		{
			"buffer":0,
			"byteLength":1056,
			"byteOffset":98120,
			"target":34962
		},
		{
			"buffer":0,
			"byteLength":1056,
			"byteOffset":99176,
			"target":34962
		},
		{
			"buffer":0,
			"byteLength":704,
			"byteOffset":100232,
			"target":34962
		},
		{
			"buffer":0,
			"byteLength":1056,
			"byteOffset":100936,
			"target":34962
		},
		{
			"buffer":0,
			"byteLength":1056,
			"byteOffset":101992,
			"target":34962
		},
		{
			"buffer":0,
			"byteLength":704,
			"byteOffset":103048,
			"target":34962
		},
		{
			"buffer":0,
			"byteLength":1056,
			"byteOffset":103752,
			"target":34962
		},
		{
			"buffer":0,
			"byteLength":1056,
			"byteOffset":104808,
			"target":34962
		},
		{
			"buffer":0,
			"byteLength":704,
			"byteOffset":105864,
			"target":34962
		},
		{
			"buffer":0,
			"byteLength":1056,
			"byteOffset":106568,
			"target":34962
		},
		{
			"buffer":0,
			"byteLength":1056,
			"byteOffset":107624,
			"target":34962
		},
		{
			"buffer":0,
			"byteLength":704,
			"byteOffset":108680,
			"target":34962
		},
		{
			"buffer":0,
			"byteLength":1056,
			"byteOffset":109384,
			"target":34962
		},
		{
			"buffer":0,
			"byteLength":1056,
			"byteOffset":110440,
			"target":34962
		},
		{
			"buffer":0,
			"byteLength":704,
			"byteOffset":111496,
			"target":34962
		},
		{
			"buffer":0,
			"byteLength":1056,
			"byteOffset":112200,
			"target":34962
		},
		{
			"buffer":0,
			"byteLength":1056,
			"byteOffset":113256,
			"target":34962
		},
		{
			"buffer":0,
			"byteLength":704,
			"byteOffset":114312,
			"target":34962
		},
		{
			"buffer":0,
			"byteLength":1056,
			"byteOffset":115016,
			"target":34962
		},
		{
			"buffer":0,
			"byteLength":1056,
			"byteOffset":116072,
			"target":34962
		},
		{
			"buffer":0,
			"byteLength":704,
			"byteOffset":117128,
			"target":34962
		},
		{
			"buffer":0,
			"byteLength":1056,
			"byteOffset":117832,
			"target":34962
		},
		{
			"buffer":0,
			"byteLength":1056,
			"byteOffset":118888,
			"target":34962
		},
		{
			"buffer":0,
			"byteLength":704,
			"byteOffset":119944,
			"target":34962
		},
		{
			"buffer":0,
			"byteLength":4608,
			"byteOffset":120648,
			"target":34962
		},
		{
			"buffer":0,
			"byteLength":4608,
			"byteOffset":125256,
			"target":34962
		},
		{
			"buffer":0,
			"byteLength":3072,
			"byteOffset":129864,
			"target":34962
		},
		{
			"buffer":0,
			"byteLength":1224,
			"byteOffset":132936,
			"target":34963
		},
		{
			"buffer":0,
			"byteLength":960,
			"byteOffset":134160,
			"target":34962
		},
		{
			"buffer":0,
			"byteLength":960,
			"byteOffset":135120,
			"target":34962
		},
		{
			"buffer":0,
			"byteLength":640,
			"byteOffset":136080,
			"target":34962
		},
		{
			"buffer":0,
			"byteLength":264,
			"byteOffset":136720,
			"target":34963
		},
		{
			"buffer":0,
			"byteLength":672,
			"byteOffset":136984,
			"target":34962
		},
		{
			"buffer":0,
			"byteLength":672,
			"byteOffset":137656,
			"target":34962
		},
		{
			"buffer":0,
			"byteLength":448,
			"byteOffset":138328,
			"target":34962
		},
		{
			"buffer":0,
			"byteLength":144,
			"byteOffset":138776,
			"target":34963
		}
	],
	"samplers":[
		{
			"magFilter":9728,
			"minFilter":9984,
			"wrapS":33071,
			"wrapT":33071
		},
		{
			"magFilter":9728,
			"minFilter":9984
		}
	],
	"buffers":[
		{
			"byteLength":138920,
			"uri":"BostonFern_v13.bin"
		}
	]
}
