{
	"asset":{
		"generator":"Khronos glTF Blender I/O v5.1.19",
		"version":"2.0"
	},
	"extensionsUsed":[
		"KHR_materials_specular"
	],
	"scene":0,
	"scenes":[
		{
			"name":"Scene",
			"nodes":[
				60
			]
		}
	],
	"nodes":[
		{
			"mesh":0,
			"name":"Leaf_000.001"
		},
		{
			"mesh":1,
			"name":"Leaf_001.001"
		},
		{
			"mesh":2,
			"name":"Leaf_002.001"
		},
		{
			"mesh":3,
			"name":"Leaf_003.001"
		},
		{
			"mesh":4,
			"name":"Leaf_004.001"
		},
		{
			"mesh":5,
			"name":"Leaf_005.001"
		},
		{
			"mesh":6,
			"name":"Leaf_006.001"
		},
		{
			"mesh":7,
			"name":"Leaf_007.001"
		},
		{
			"mesh":8,
			"name":"Leaf_008.001"
		},
		{
			"mesh":9,
			"name":"Leaf_009.001"
		},
		{
			"mesh":10,
			"name":"Leaf_010.001"
		},
		{
			"mesh":11,
			"name":"Leaf_011.001"
		},
		{
			"mesh":12,
			"name":"Leaf_012.001"
		},
		{
			"mesh":13,
			"name":"Leaf_013"
		},
		{
			"mesh":14,
			"name":"Leaf_014.001"
		},
		{
			"mesh":15,
			"name":"Leaf_015.001"
		},
		{
			"mesh":16,
			"name":"Leaf_016.001"
		},
		{
			"mesh":17,
			"name":"Leaf_017.001"
		},
		{
			"mesh":18,
			"name":"Leaf_018.001"
		},
		{
			"mesh":19,
			"name":"Leaf_019.001"
		},
		{
			"mesh":20,
			"name":"Leaf_020.001"
		},
		{
			"mesh":21,
			"name":"Leaf_021.001"
		},
		{
			"mesh":22,
			"name":"Leaf_022.001"
		},
		{
			"mesh":23,
			"name":"Leaf_023"
		},
		{
			"mesh":24,
			"name":"Leaf_024.001"
		},
		{
			"mesh":25,
			"name":"Leaf_025.001"
		},
		{
			"mesh":26,
			"name":"Leaf_026.001"
		},
		{
			"mesh":27,
			"name":"Leaf_027"
		},
		{
			"mesh":28,
			"name":"Petiole_000"
		},
		{
			"mesh":29,
			"name":"Petiole_001"
		},
		{
			"mesh":30,
			"name":"Petiole_002"
		},
		{
			"mesh":31,
			"name":"Petiole_003"
		},
		{
			"mesh":32,
			"name":"Petiole_004"
		},
		{
			"mesh":33,
			"name":"Petiole_005"
		},
		{
			"mesh":34,
			"name":"Petiole_006"
		},
		{
			"mesh":35,
			"name":"Petiole_007"
		},
		{
			"mesh":36,
			"name":"Petiole_008"
		},
		{
			"mesh":37,
			"name":"Petiole_009"
		},
		{
			"mesh":38,
			"name":"Petiole_010"
		},
		{
			"mesh":39,
			"name":"Petiole_011"
		},
		{
			"mesh":40,
			"name":"Petiole_012"
		},
		{
			"mesh":41,
			"name":"Petiole_013"
		},
		{
			"mesh":42,
			"name":"Petiole_014"
		},
		{
			"mesh":43,
			"name":"Petiole_015"
		},
		{
			"mesh":44,
			"name":"Petiole_016"
		},
		{
			"mesh":45,
			"name":"Petiole_017"
		},
		{
			"mesh":46,
			"name":"Petiole_018"
		},
		{
			"mesh":47,
			"name":"Petiole_019"
		},
		{
			"mesh":48,
			"name":"Petiole_020"
		},
		{
			"mesh":49,
			"name":"Petiole_021"
		},
		{
			"mesh":50,
			"name":"Petiole_022"
		},
		{
			"mesh":51,
			"name":"Petiole_023"
		},
		{
			"mesh":52,
			"name":"Petiole_024"
		},
		{
			"mesh":53,
			"name":"Petiole_025"
		},
		{
			"mesh":54,
			"name":"Petiole_026"
		},
		{
			"mesh":55,
			"name":"Petiole_027"
		},
		{
			"mesh":56,
			"name":"PlantBase.001"
		},
		{
			"mesh":57,
			"name":"Pot.001"
		},
		{
			"mesh":58,
			"name":"Saucer.001"
		},
		{
			"mesh":59,
			"name":"Soil.001"
		},
		{
			"children":[
				0,
				1,
				2,
				3,
				4,
				5,
				6,
				7,
				8,
				9,
				10,
				11,
				12,
				13,
				14,
				15,
				16,
				17,
				18,
				19,
				20,
				21,
				22,
				23,
				24,
				25,
				26,
				27,
				28,
				29,
				30,
				31,
				32,
				33,
				34,
				35,
				36,
				37,
				38,
				39,
				40,
				41,
				42,
				43,
				44,
				45,
				46,
				47,
				48,
				49,
				50,
				51,
				52,
				53,
				54,
				55,
				56,
				57,
				58,
				59
			],
			"name":"GRP_Calathea"
		}
	],
	"materials":[
		{
			"alphaMode":"BLEND",
			"doubleSided":true,
			"extensions":{
				"KHR_materials_specular":{
					"specularFactor":0.4000000059604645
				}
			},
			"name":"LeafMat.001",
			"normalTexture":{
				"index":0
			},
			"pbrMetallicRoughness":{
				"baseColorTexture":{
					"index":1
				},
				"metallicFactor":0,
				"roughnessFactor":0.8500000238418579
			}
		},
		{
			"doubleSided":true,
			"extensions":{
				"KHR_materials_specular":{
					"specularFactor":0.4000000059604645
				}
			},
			"name":"PetioleMat",
			"pbrMetallicRoughness":{
				"baseColorTexture":{
					"index":2
				},
				"metallicFactor":0,
				"roughnessFactor":0.8500000238418579
			}
		},
		{
			"doubleSided":true,
			"extensions":{
				"KHR_materials_specular":{
					"specularFactor":0.4000000059604645
				}
			},
			"name":"PotMat.001",
			"pbrMetallicRoughness":{
				"baseColorTexture":{
					"index":3
				},
				"metallicFactor":0,
				"roughnessFactor":0.8500000238418579
			}
		},
		{
			"doubleSided":true,
			"extensions":{
				"KHR_materials_specular":{
					"specularFactor":0.4000000059604645
				}
			},
			"name":"SaucerMat.001",
			"pbrMetallicRoughness":{
				"baseColorTexture":{
					"index":4
				},
				"metallicFactor":0,
				"roughnessFactor":0.8500000238418579
			}
		},
		{
			"doubleSided":true,
			"extensions":{
				"KHR_materials_specular":{
					"specularFactor":0.4000000059604645
				}
			},
			"name":"SoilMat.001",
			"pbrMetallicRoughness":{
				"baseColorTexture":{
					"index":5
				},
				"metallicFactor":0,
				"roughnessFactor":0.8500000238418579
			}
		}
	],
	"meshes":[
		{
			"name":"Leaf_000",
			"primitives":[
				{
					"attributes":{
						"POSITION":0,
						"NORMAL":1,
						"TEXCOORD_0":2
					},
					"indices":3,
					"material":0
				}
			]
		},
		{
			"name":"Leaf_001",
			"primitives":[
				{
					"attributes":{
						"POSITION":4,
						"NORMAL":5,
						"TEXCOORD_0":6
					},
					"indices":7,
					"material":0
				}
			]
		},
		{
			"name":"Leaf_002",
			"primitives":[
				{
					"attributes":{
						"POSITION":8,
						"NORMAL":9,
						"TEXCOORD_0":10
					},
					"indices":11,
					"material":0
				}
			]
		},
		{
			"name":"Leaf_003",
			"primitives":[
				{
					"attributes":{
						"POSITION":12,
						"NORMAL":13,
						"TEXCOORD_0":14
					},
					"indices":15,
					"material":0
				}
			]
		},
		{
			"name":"Leaf_004",
			"primitives":[
				{
					"attributes":{
						"POSITION":16,
						"NORMAL":17,
						"TEXCOORD_0":18
					},
					"indices":19,
					"material":0
				}
			]
		},
		{
			"name":"Leaf_005",
			"primitives":[
				{
					"attributes":{
						"POSITION":20,
						"NORMAL":21,
						"TEXCOORD_0":22
					},
					"indices":23,
					"material":0
				}
			]
		},
		{
			"name":"Leaf_006",
			"primitives":[
				{
					"attributes":{
						"POSITION":24,
						"NORMAL":25,
						"TEXCOORD_0":26
					},
					"indices":3,
					"material":0
				}
			]
		},
		{
			"name":"Leaf_007",
			"primitives":[
				{
					"attributes":{
						"POSITION":27,
						"NORMAL":28,
						"TEXCOORD_0":29
					},
					"indices":30,
					"material":0
				}
			]
		},
		{
			"name":"Leaf_008",
			"primitives":[
				{
					"attributes":{
						"POSITION":31,
						"NORMAL":32,
						"TEXCOORD_0":33
					},
					"indices":34,
					"material":0
				}
			]
		},
		{
			"name":"Leaf_009",
			"primitives":[
				{
					"attributes":{
						"POSITION":35,
						"NORMAL":36,
						"TEXCOORD_0":37
					},
					"indices":38,
					"material":0
				}
			]
		},
		{
			"name":"Leaf_010",
			"primitives":[
				{
					"attributes":{
						"POSITION":39,
						"NORMAL":40,
						"TEXCOORD_0":41
					},
					"indices":42,
					"material":0
				}
			]
		},
		{
			"name":"Leaf_011",
			"primitives":[
				{
					"attributes":{
						"POSITION":43,
						"NORMAL":44,
						"TEXCOORD_0":45
					},
					"indices":46,
					"material":0
				}
			]
		},
		{
			"name":"Leaf_012",
			"primitives":[
				{
					"attributes":{
						"POSITION":47,
						"NORMAL":48,
						"TEXCOORD_0":49
					},
					"indices":50,
					"material":0
				}
			]
		},
		{
			"name":"Leaf_013",
			"primitives":[
				{
					"attributes":{
						"POSITION":51,
						"NORMAL":52,
						"TEXCOORD_0":53
					},
					"indices":54,
					"material":0
				}
			]
		},
		{
			"name":"Leaf_014",
			"primitives":[
				{
					"attributes":{
						"POSITION":55,
						"NORMAL":56,
						"TEXCOORD_0":57
					},
					"indices":58,
					"material":0
				}
			]
		},
		{
			"name":"Leaf_015",
			"primitives":[
				{
					"attributes":{
						"POSITION":59,
						"NORMAL":60,
						"TEXCOORD_0":61
					},
					"indices":62,
					"material":0
				}
			]
		},
		{
			"name":"Leaf_016",
			"primitives":[
				{
					"attributes":{
						"POSITION":63,
						"NORMAL":64,
						"TEXCOORD_0":65
					},
					"indices":66,
					"material":0
				}
			]
		},
		{
			"name":"Leaf_017",
			"primitives":[
				{
					"attributes":{
						"POSITION":67,
						"NORMAL":68,
						"TEXCOORD_0":69
					},
					"indices":70,
					"material":0
				}
			]
		},
		{
			"name":"Leaf_018",
			"primitives":[
				{
					"attributes":{
						"POSITION":71,
						"NORMAL":72,
						"TEXCOORD_0":73
					},
					"indices":62,
					"material":0
				}
			]
		},
		{
			"name":"Leaf_019",
			"primitives":[
				{
					"attributes":{
						"POSITION":74,
						"NORMAL":75,
						"TEXCOORD_0":76
					},
					"indices":77,
					"material":0
				}
			]
		},
		{
			"name":"Leaf_020",
			"primitives":[
				{
					"attributes":{
						"POSITION":78,
						"NORMAL":79,
						"TEXCOORD_0":80
					},
					"indices":81,
					"material":0
				}
			]
		},
		{
			"name":"Leaf_021",
			"primitives":[
				{
					"attributes":{
						"POSITION":82,
						"NORMAL":83,
						"TEXCOORD_0":84
					},
					"indices":85,
					"material":0
				}
			]
		},
		{
			"name":"Leaf_022",
			"primitives":[
				{
					"attributes":{
						"POSITION":86,
						"NORMAL":87,
						"TEXCOORD_0":88
					},
					"indices":89,
					"material":0
				}
			]
		},
		{
			"name":"Leaf_023",
			"primitives":[
				{
					"attributes":{
						"POSITION":90,
						"NORMAL":91,
						"TEXCOORD_0":92
					},
					"indices":93,
					"material":0
				}
			]
		},
		{
			"name":"Leaf_024",
			"primitives":[
				{
					"attributes":{
						"POSITION":94,
						"NORMAL":95,
						"TEXCOORD_0":96
					},
					"indices":97,
					"material":0
				}
			]
		},
		{
			"name":"Leaf_025",
			"primitives":[
				{
					"attributes":{
						"POSITION":98,
						"NORMAL":99,
						"TEXCOORD_0":100
					},
					"indices":50,
					"material":0
				}
			]
		},
		{
			"name":"Leaf_026",
			"primitives":[
				{
					"attributes":{
						"POSITION":101,
						"NORMAL":102,
						"TEXCOORD_0":103
					},
					"indices":104,
					"material":0
				}
			]
		},
		{
			"name":"Leaf_027",
			"primitives":[
				{
					"attributes":{
						"POSITION":105,
						"NORMAL":106,
						"TEXCOORD_0":107
					},
					"indices":108,
					"material":0
				}
			]
		},
		{
			"name":"Petiole_000",
			"primitives":[
				{
					"attributes":{
						"POSITION":109,
						"NORMAL":110,
						"TEXCOORD_0":111
					},
					"indices":112,
					"material":1
				}
			]
		},
		{
			"name":"Petiole_001",
			"primitives":[
				{
					"attributes":{
						"POSITION":113,
						"NORMAL":114,
						"TEXCOORD_0":115
					},
					"indices":116,
					"material":1
				}
			]
		},
		{
			"name":"Petiole_002",
			"primitives":[
				{
					"attributes":{
						"POSITION":117,
						"NORMAL":118,
						"TEXCOORD_0":119
					},
					"indices":120,
					"material":1
				}
			]
		},
		{
			"name":"Petiole_003",
			"primitives":[
				{
					"attributes":{
						"POSITION":121,
						"NORMAL":122,
						"TEXCOORD_0":123
					},
					"indices":124,
					"material":1
				}
			]
		},
		{
			"name":"Petiole_004",
			"primitives":[
				{
					"attributes":{
						"POSITION":125,
						"NORMAL":126,
						"TEXCOORD_0":127
					},
					"indices":128,
					"material":1
				}
			]
		},
		{
			"name":"Petiole_005",
			"primitives":[
				{
					"attributes":{
						"POSITION":129,
						"NORMAL":130,
						"TEXCOORD_0":131
					},
					"indices":132,
					"material":1
				}
			]
		},
		{
			"name":"Petiole_006",
			"primitives":[
				{
					"attributes":{
						"POSITION":133,
						"NORMAL":134,
						"TEXCOORD_0":135
					},
					"indices":136,
					"material":1
				}
			]
		},
		{
			"name":"Petiole_007",
			"primitives":[
				{
					"attributes":{
						"POSITION":137,
						"NORMAL":138,
						"TEXCOORD_0":139
					},
					"indices":140,
					"material":1
				}
			]
		},
		{
			"name":"Petiole_008",
			"primitives":[
				{
					"attributes":{
						"POSITION":141,
						"NORMAL":142,
						"TEXCOORD_0":143
					},
					"indices":144,
					"material":1
				}
			]
		},
		{
			"name":"Petiole_009",
			"primitives":[
				{
					"attributes":{
						"POSITION":145,
						"NORMAL":146,
						"TEXCOORD_0":147
					},
					"indices":148,
					"material":1
				}
			]
		},
		{
			"name":"Petiole_010",
			"primitives":[
				{
					"attributes":{
						"POSITION":149,
						"NORMAL":150,
						"TEXCOORD_0":151
					},
					"indices":152,
					"material":1
				}
			]
		},
		{
			"name":"Petiole_011",
			"primitives":[
				{
					"attributes":{
						"POSITION":153,
						"NORMAL":154,
						"TEXCOORD_0":155
					},
					"indices":156,
					"material":1
				}
			]
		},
		{
			"name":"Petiole_012",
			"primitives":[
				{
					"attributes":{
						"POSITION":157,
						"NORMAL":158,
						"TEXCOORD_0":159
					},
					"indices":160,
					"material":1
				}
			]
		},
		{
			"name":"Petiole_013",
			"primitives":[
				{
					"attributes":{
						"POSITION":161,
						"NORMAL":162,
						"TEXCOORD_0":163
					},
					"indices":164,
					"material":1
				}
			]
		},
		{
			"name":"Petiole_014",
			"primitives":[
				{
					"attributes":{
						"POSITION":165,
						"NORMAL":166,
						"TEXCOORD_0":167
					},
					"indices":168,
					"material":1
				}
			]
		},
		{
			"name":"Petiole_015",
			"primitives":[
				{
					"attributes":{
						"POSITION":169,
						"NORMAL":170,
						"TEXCOORD_0":171
					},
					"indices":172,
					"material":1
				}
			]
		},
		{
			"name":"Petiole_016",
			"primitives":[
				{
					"attributes":{
						"POSITION":173,
						"NORMAL":174,
						"TEXCOORD_0":175
					},
					"indices":176,
					"material":1
				}
			]
		},
		{
			"name":"Petiole_017",
			"primitives":[
				{
					"attributes":{
						"POSITION":177,
						"NORMAL":178,
						"TEXCOORD_0":179
					},
					"indices":180,
					"material":1
				}
			]
		},
		{
			"name":"Petiole_018",
			"primitives":[
				{
					"attributes":{
						"POSITION":181,
						"NORMAL":182,
						"TEXCOORD_0":183
					},
					"indices":184,
					"material":1
				}
			]
		},
		{
			"name":"Petiole_019",
			"primitives":[
				{
					"attributes":{
						"POSITION":185,
						"NORMAL":186,
						"TEXCOORD_0":187
					},
					"indices":188,
					"material":1
				}
			]
		},
		{
			"name":"Petiole_020",
			"primitives":[
				{
					"attributes":{
						"POSITION":189,
						"NORMAL":190,
						"TEXCOORD_0":191
					},
					"indices":192,
					"material":1
				}
			]
		},
		{
			"name":"Petiole_021",
			"primitives":[
				{
					"attributes":{
						"POSITION":193,
						"NORMAL":194,
						"TEXCOORD_0":195
					},
					"indices":196,
					"material":1
				}
			]
		},
		{
			"name":"Petiole_022",
			"primitives":[
				{
					"attributes":{
						"POSITION":197,
						"NORMAL":198,
						"TEXCOORD_0":199
					},
					"indices":200,
					"material":1
				}
			]
		},
		{
			"name":"Petiole_023",
			"primitives":[
				{
					"attributes":{
						"POSITION":201,
						"NORMAL":202,
						"TEXCOORD_0":203
					},
					"indices":204,
					"material":1
				}
			]
		},
		{
			"name":"Petiole_024",
			"primitives":[
				{
					"attributes":{
						"POSITION":205,
						"NORMAL":206,
						"TEXCOORD_0":207
					},
					"indices":208,
					"material":1
				}
			]
		},
		{
			"name":"Petiole_025",
			"primitives":[
				{
					"attributes":{
						"POSITION":209,
						"NORMAL":210,
						"TEXCOORD_0":211
					},
					"indices":212,
					"material":1
				}
			]
		},
		{
			"name":"Petiole_026",
			"primitives":[
				{
					"attributes":{
						"POSITION":213,
						"NORMAL":214,
						"TEXCOORD_0":215
					},
					"indices":216,
					"material":1
				}
			]
		},
		{
			"name":"Petiole_027",
			"primitives":[
				{
					"attributes":{
						"POSITION":217,
						"NORMAL":218,
						"TEXCOORD_0":219
					},
					"indices":220,
					"material":1
				}
			]
		},
		{
			"name":"PlantBase.001",
			"primitives":[
				{
					"attributes":{
						"POSITION":221,
						"NORMAL":222,
						"TEXCOORD_0":223
					},
					"indices":224,
					"material":1
				}
			]
		},
		{
			"name":"Pot.001",
			"primitives":[
				{
					"attributes":{
						"POSITION":225,
						"NORMAL":226,
						"TEXCOORD_0":227
					},
					"indices":228,
					"material":2
				}
			]
		},
		{
			"name":"Saucer.001",
			"primitives":[
				{
					"attributes":{
						"POSITION":229,
						"NORMAL":230,
						"TEXCOORD_0":231
					},
					"indices":232,
					"material":3
				}
			]
		},
		{
			"name":"Soil.001",
			"primitives":[
				{
					"attributes":{
						"POSITION":233,
						"NORMAL":234,
						"TEXCOORD_0":235
					},
					"indices":236,
					"material":4
				}
			]
		}
	],
	"textures":[
		{
			"sampler":0,
			"source":0
		},
		{
			"sampler":0,
			"source":0
		},
		{
			"sampler":1,
			"source":1
		},
		{
			"sampler":1,
			"source":2
		},
		{
			"sampler":1,
			"source":3
		},
		{
			"sampler":1,
			"source":4
		}
	],
	"images":[
		{
			"mimeType":"image/png",
			"name":"CalLeafTex",
			"uri":"CalLeafTex.png"
		},
		{
			"mimeType":"image/png",
			"name":"PetioleTex",
			"uri":"PetioleTex.png"
		},
		{
			"mimeType":"image/png",
			"name":"PotTex",
			"uri":"PotTex.png"
		},
		{
			"mimeType":"image/png",
			"name":"SaucerTex",
			"uri":"SaucerTex.png"
		},
		{
			"mimeType":"image/png",
			"name":"SoilTex",
			"uri":"SoilTex.png"
		}
	],
	"accessors":[
		{
			"bufferView":0,
			"componentType":5126,
			"count":48,
			"max":[
				0.9278786182403564,
				2.3152709007263184,
				-0.5617766380310059
			],
			"min":[
				-0.0947498232126236,
				2.0575766563415527,
				-1.9494038820266724
			],
			"type":"VEC3"
		},
		{
			"bufferView":1,
			"componentType":5126,
			"count":48,
			"type":"VEC3"
		},
		{
			"bufferView":2,
			"componentType":5126,
			"count":48,
			"type":"VEC2"
		},
		{
			"bufferView":3,
			"componentType":5123,
			"count":72,
			"type":"SCALAR"
		},
		{
			"bufferView":4,
			"componentType":5126,
			"count":48,
			"max":[
				-0.5883814096450806,
				2.3576138019561768,
				1.7830531597137451
			],
			"min":[
				-1.9714174270629883,
				2.1051993370056152,
				0.4586368203163147
			],
			"type":"VEC3"
		},
		{
			"bufferView":5,
			"componentType":5126,
			"count":48,
			"type":"VEC3"
		},
		{
			"bufferView":6,
			"componentType":5126,
			"count":48,
			"type":"VEC2"
		},
		{
			"bufferView":7,
			"componentType":5123,
			"count":72,
			"type":"SCALAR"
		},
		{
			"bufferView":8,
			"componentType":5126,
			"count":48,
			"max":[
				1.7976300716400146,
				1.623518705368042,
				1.0711266994476318
			],
			"min":[
				0.6303691864013672,
				1.388415813446045,
				0.16926343739032745
			],
			"type":"VEC3"
		},
		{
			"bufferView":9,
			"componentType":5126,
			"count":48,
			"type":"VEC3"
		},
		{
			"bufferView":10,
			"componentType":5126,
			"count":48,
			"type":"VEC2"
		},
		{
			"bufferView":11,
			"componentType":5123,
			"count":72,
			"type":"SCALAR"
		},
		{
			"bufferView":12,
			"componentType":5126,
			"count":48,
			"max":[
				-0.06895089149475098,
				1.708282232284546,
				-0.5896881818771362
			],
			"min":[
				-0.855056881904602,
				1.4662299156188965,
				-1.698756456375122
			],
			"type":"VEC3"
		},
		{
			"bufferView":13,
			"componentType":5126,
			"count":48,
			"type":"VEC3"
		},
		{
			"bufferView":14,
			"componentType":5126,
			"count":48,
			"type":"VEC2"
		},
		{
			"bufferView":15,
			"componentType":5123,
			"count":72,
			"type":"SCALAR"
		},
		{
			"bufferView":16,
			"componentType":5126,
			"count":48,
			"max":[
				1.577273964881897,
				1.6559487581253052,
				0.0908346027135849
			],
			"min":[
				0.433805912733078,
				1.4023520946502686,
				-0.7367007732391357
			],
			"type":"VEC3"
		},
		{
			"bufferView":17,
			"componentType":5126,
			"count":48,
			"type":"VEC3"
		},
		{
			"bufferView":18,
			"componentType":5126,
			"count":48,
			"type":"VEC2"
		},
		{
			"bufferView":19,
			"componentType":5123,
			"count":72,
			"type":"SCALAR"
		},
		{
			"bufferView":20,
			"componentType":5126,
			"count":48,
			"max":[
				1.3753857612609863,
				1.657459020614624,
				-0.07950156927108765
			],
			"min":[
				0.2713644504547119,
				1.4527876377105713,
				-1.038456678390503
			],
			"type":"VEC3"
		},
		{
			"bufferView":21,
			"componentType":5126,
			"count":48,
			"type":"VEC3"
		},
		{
			"bufferView":22,
			"componentType":5126,
			"count":48,
			"type":"VEC2"
		},
		{
			"bufferView":23,
			"componentType":5123,
			"count":72,
			"type":"SCALAR"
		},
		{
			"bufferView":24,
			"componentType":5126,
			"count":48,
			"max":[
				1.9355933666229248,
				2.252852439880371,
				-0.41491109132766724
			],
			"min":[
				0.5793805122375488,
				2.0111491680145264,
				-1.6808412075042725
			],
			"type":"VEC3"
		},
		{
			"bufferView":25,
			"componentType":5126,
			"count":48,
			"type":"VEC3"
		},
		{
			"bufferView":26,
			"componentType":5126,
			"count":48,
			"type":"VEC2"
		},
		{
			"bufferView":27,
			"componentType":5126,
			"count":48,
			"max":[
				-0.008873224258422852,
				2.3367581367492676,
				-0.7350021600723267
			],
			"min":[
				-0.9213175177574158,
				2.1654441356658936,
				-2.0596022605895996
			],
			"type":"VEC3"
		},
		{
			"bufferView":28,
			"componentType":5126,
			"count":48,
			"type":"VEC3"
		},
		{
			"bufferView":29,
			"componentType":5126,
			"count":48,
			"type":"VEC2"
		},
		{
			"bufferView":30,
			"componentType":5123,
			"count":72,
			"type":"SCALAR"
		},
		{
			"bufferView":31,
			"componentType":5126,
			"count":48,
			"max":[
				-0.34842216968536377,
				2.350800037384033,
				-0.5131478309631348
			],
			"min":[
				-1.6372230052947998,
				2.107583522796631,
				-1.8990838527679443
			],
			"type":"VEC3"
		},
		{
			"bufferView":32,
			"componentType":5126,
			"count":48,
			"type":"VEC3"
		},
		{
			"bufferView":33,
			"componentType":5126,
			"count":48,
			"type":"VEC2"
		},
		{
			"bufferView":34,
			"componentType":5123,
			"count":72,
			"type":"SCALAR"
		},
		{
			"bufferView":35,
			"componentType":5126,
			"count":48,
			"max":[
				1.776456594467163,
				2.115086317062378,
				0.6431335210800171
			],
			"min":[
				0.6354451179504395,
				1.9185903072357178,
				-0.07886625826358795
			],
			"type":"VEC3"
		},
		{
			"bufferView":36,
			"componentType":5126,
			"count":48,
			"type":"VEC3"
		},
		{
			"bufferView":37,
			"componentType":5126,
			"count":48,
			"type":"VEC2"
		},
		{
			"bufferView":38,
			"componentType":5123,
			"count":72,
			"type":"SCALAR"
		},
		{
			"bufferView":39,
			"componentType":5126,
			"count":48,
			"max":[
				0.0012079179286956787,
				1.838980793952942,
				1.4244649410247803
			],
			"min":[
				-0.680679440498352,
				1.6512701511383057,
				0.4855973422527313
			],
			"type":"VEC3"
		},
		{
			"bufferView":40,
			"componentType":5126,
			"count":48,
			"type":"VEC3"
		},
		{
			"bufferView":41,
			"componentType":5126,
			"count":48,
			"type":"VEC2"
		},
		{
			"bufferView":42,
			"componentType":5123,
			"count":72,
			"type":"SCALAR"
		},
		{
			"bufferView":43,
			"componentType":5126,
			"count":48,
			"max":[
				-0.6605379581451416,
				1.6343687772750854,
				0.8480178117752075
			],
			"min":[
				-1.6523332595825195,
				1.4709960222244263,
				0.079210564494133
			],
			"type":"VEC3"
		},
		{
			"bufferView":44,
			"componentType":5126,
			"count":48,
			"type":"VEC3"
		},
		{
			"bufferView":45,
			"componentType":5126,
			"count":48,
			"type":"VEC2"
		},
		{
			"bufferView":46,
			"componentType":5123,
			"count":72,
			"type":"SCALAR"
		},
		{
			"bufferView":47,
			"componentType":5126,
			"count":48,
			"max":[
				1.335700511932373,
				2.3453845977783203,
				2.0444095134735107
			],
			"min":[
				0.16237038373947144,
				2.143646240234375,
				0.6306989789009094
			],
			"type":"VEC3"
		},
		{
			"bufferView":48,
			"componentType":5126,
			"count":48,
			"type":"VEC3"
		},
		{
			"bufferView":49,
			"componentType":5126,
			"count":48,
			"type":"VEC2"
		},
		{
			"bufferView":50,
			"componentType":5123,
			"count":72,
			"type":"SCALAR"
		},
		{
			"bufferView":51,
			"componentType":5126,
			"count":48,
			"max":[
				0.8027652502059937,
				1.6818702220916748,
				-0.7497684955596924
			],
			"min":[
				0.08855974674224854,
				1.4768259525299072,
				-1.7393381595611572
			],
			"type":"VEC3"
		},
		{
			"bufferView":52,
			"componentType":5126,
			"count":48,
			"type":"VEC3"
		},
		{
			"bufferView":53,
			"componentType":5126,
			"count":48,
			"type":"VEC2"
		},
		{
			"bufferView":54,
			"componentType":5123,
			"count":72,
			"type":"SCALAR"
		},
		{
			"bufferView":55,
			"componentType":5126,
			"count":48,
			"max":[
				-0.9453242421150208,
				2.8906612396240234,
				0.7484126091003418
			],
			"min":[
				-2.308897018432617,
				2.5853939056396484,
				-0.14422307908535004
			],
			"type":"VEC3"
		},
		{
			"bufferView":56,
			"componentType":5126,
			"count":48,
			"type":"VEC3"
		},
		{
			"bufferView":57,
			"componentType":5126,
			"count":48,
			"type":"VEC2"
		},
		{
			"bufferView":58,
			"componentType":5123,
			"count":72,
			"type":"SCALAR"
		},
		{
			"bufferView":59,
			"componentType":5126,
			"count":48,
			"max":[
				-0.3191037178039551,
				1.783670425415039,
				-0.37557733058929443
			],
			"min":[
				-1.3127446174621582,
				1.589381456375122,
				-1.3877952098846436
			],
			"type":"VEC3"
		},
		{
			"bufferView":60,
			"componentType":5126,
			"count":48,
			"type":"VEC3"
		},
		{
			"bufferView":61,
			"componentType":5126,
			"count":48,
			"type":"VEC2"
		},
		{
			"bufferView":62,
			"componentType":5123,
			"count":72,
			"type":"SCALAR"
		},
		{
			"bufferView":63,
			"componentType":5126,
			"count":48,
			"max":[
				0.04284180700778961,
				2.277120351791382,
				2.065436363220215
			],
			"min":[
				-0.9315927624702454,
				2.06498646736145,
				0.6372272372245789
			],
			"type":"VEC3"
		},
		{
			"bufferView":64,
			"componentType":5126,
			"count":48,
			"type":"VEC3"
		},
		{
			"bufferView":65,
			"componentType":5126,
			"count":48,
			"type":"VEC2"
		},
		{
			"bufferView":66,
			"componentType":5123,
			"count":72,
			"type":"SCALAR"
		},
		{
			"bufferView":67,
			"componentType":5126,
			"count":48,
			"max":[
				1.477604627609253,
				2.370239734649658,
				2.005915880203247
			],
			"min":[
				0.43393051624298096,
				2.1674797534942627,
				0.7974150776863098
			],
			"type":"VEC3"
		},
		{
			"bufferView":68,
			"componentType":5126,
			"count":48,
			"type":"VEC3"
		},
		{
			"bufferView":69,
			"componentType":5126,
			"count":48,
			"type":"VEC2"
		},
		{
			"bufferView":70,
			"componentType":5123,
			"count":72,
			"type":"SCALAR"
		},
		{
			"bufferView":71,
			"componentType":5126,
			"count":48,
			"max":[
				-0.342941552400589,
				2.9856951236724854,
				-0.6813624501228333
			],
			"min":[
				-1.6883513927459717,
				2.7064826488494873,
				-2.207944393157959
			],
			"type":"VEC3"
		},
		{
			"bufferView":72,
			"componentType":5126,
			"count":48,
			"type":"VEC3"
		},
		{
			"bufferView":73,
			"componentType":5126,
			"count":48,
			"type":"VEC2"
		},
		{
			"bufferView":74,
			"componentType":5126,
			"count":48,
			"max":[
				2.3551671504974365,
				3.1945505142211914,
				0.5526589155197144
			],
			"min":[
				0.7434523701667786,
				2.815162420272827,
				-0.3545033633708954
			],
			"type":"VEC3"
		},
		{
			"bufferView":75,
			"componentType":5126,
			"count":48,
			"type":"VEC3"
		},
		{
			"bufferView":76,
			"componentType":5126,
			"count":48,
			"type":"VEC2"
		},
		{
			"bufferView":77,
			"componentType":5123,
			"count":72,
			"type":"SCALAR"
		},
		{
			"bufferView":78,
			"componentType":5126,
			"count":48,
			"max":[
				-0.8378379940986633,
				2.220461368560791,
				0.7827072143554688
			],
			"min":[
				-1.8996883630752563,
				2.0402846336364746,
				0.06039237976074219
			],
			"type":"VEC3"
		},
		{
			"bufferView":79,
			"componentType":5126,
			"count":48,
			"type":"VEC3"
		},
		{
			"bufferView":80,
			"componentType":5126,
			"count":48,
			"type":"VEC2"
		},
		{
			"bufferView":81,
			"componentType":5123,
			"count":72,
			"type":"SCALAR"
		},
		{
			"bufferView":82,
			"componentType":5126,
			"count":48,
			"max":[
				-0.6485380530357361,
				1.920072078704834,
				0.5030017495155334
			],
			"min":[
				-1.7413115501403809,
				1.6831979751586914,
				-0.16274911165237427
			],
			"type":"VEC3"
		},
		{
			"bufferView":83,
			"componentType":5126,
			"count":48,
			"type":"VEC3"
		},
		{
			"bufferView":84,
			"componentType":5126,
			"count":48,
			"type":"VEC2"
		},
		{
			"bufferView":85,
			"componentType":5123,
			"count":72,
			"type":"SCALAR"
		},
		{
			"bufferView":86,
			"componentType":5126,
			"count":48,
			"max":[
				1.8443862199783325,
				2.3364431858062744,
				0.11179518699645996
			],
			"min":[
				0.7980374693870544,
				2.202878475189209,
				-0.4714030623435974
			],
			"type":"VEC3"
		},
		{
			"bufferView":87,
			"componentType":5126,
			"count":48,
			"type":"VEC3"
		},
		{
			"bufferView":88,
			"componentType":5126,
			"count":48,
			"type":"VEC2"
		},
		{
			"bufferView":89,
			"componentType":5123,
			"count":72,
			"type":"SCALAR"
		},
		{
			"bufferView":90,
			"componentType":5126,
			"count":48,
			"max":[
				-0.06081712245941162,
				3.0097594261169434,
				2.186889410018921
			],
			"min":[
				-1.50453519821167,
				2.6610448360443115,
				0.4673411250114441
			],
			"type":"VEC3"
		},
		{
			"bufferView":91,
			"componentType":5126,
			"count":48,
			"type":"VEC3"
		},
		{
			"bufferView":92,
			"componentType":5126,
			"count":48,
			"type":"VEC2"
		},
		{
			"bufferView":93,
			"componentType":5123,
			"count":72,
			"type":"SCALAR"
		},
		{
			"bufferView":94,
			"componentType":5126,
			"count":48,
			"max":[
				-0.5497860908508301,
				2.055742025375366,
				0.06787782907485962
			],
			"min":[
				-1.8516854047775269,
				1.8408656120300293,
				-0.8745741844177246
			],
			"type":"VEC3"
		},
		{
			"bufferView":95,
			"componentType":5126,
			"count":48,
			"type":"VEC3"
		},
		{
			"bufferView":96,
			"componentType":5126,
			"count":48,
			"type":"VEC2"
		},
		{
			"bufferView":97,
			"componentType":5123,
			"count":72,
			"type":"SCALAR"
		},
		{
			"bufferView":98,
			"componentType":5126,
			"count":48,
			"max":[
				1.5303272008895874,
				3.0974998474121094,
				2.110028028488159
			],
			"min":[
				0.10144516825675964,
				2.7447268962860107,
				0.44121313095092773
			],
			"type":"VEC3"
		},
		{
			"bufferView":99,
			"componentType":5126,
			"count":48,
			"type":"VEC3"
		},
		{
			"bufferView":100,
			"componentType":5126,
			"count":48,
			"type":"VEC2"
		},
		{
			"bufferView":101,
			"componentType":5126,
			"count":48,
			"max":[
				0.8489052653312683,
				1.695294737815857,
				1.7342529296875
			],
			"min":[
				0.021962672472000122,
				1.4635765552520752,
				0.6420695185661316
			],
			"type":"VEC3"
		},
		{
			"bufferView":102,
			"componentType":5126,
			"count":48,
			"type":"VEC3"
		},
		{
			"bufferView":103,
			"componentType":5126,
			"count":48,
			"type":"VEC2"
		},
		{
			"bufferView":104,
			"componentType":5123,
			"count":72,
			"type":"SCALAR"
		},
		{
			"bufferView":105,
			"componentType":5126,
			"count":48,
			"max":[
				1.806096076965332,
				2.9959425926208496,
				-0.47928479313850403
			],
			"min":[
				0.5160516500473022,
				2.718801498413086,
				-1.7532507181167603
			],
			"type":"VEC3"
		},
		{
			"bufferView":106,
			"componentType":5126,
			"count":48,
			"type":"VEC3"
		},
		{
			"bufferView":107,
			"componentType":5126,
			"count":48,
			"type":"VEC2"
		},
		{
			"bufferView":108,
			"componentType":5123,
			"count":72,
			"type":"SCALAR"
		},
		{
			"bufferView":109,
			"componentType":5126,
			"count":90,
			"max":[
				0.2271670699119568,
				2.1104800701141357,
				-0.18137922883033752
			],
			"min":[
				0.05765308439731598,
				1.2112268209457397,
				-0.6751373410224915
			],
			"type":"VEC3"
		},
		{
			"bufferView":110,
			"componentType":5126,
			"count":90,
			"type":"VEC3"
		},
		{
			"bufferView":111,
			"componentType":5126,
			"count":90,
			"type":"VEC2"
		},
		{
			"bufferView":112,
			"componentType":5123,
			"count":138,
			"type":"SCALAR"
		},
		{
			"bufferView":113,
			"componentType":5126,
			"count":90,
			"max":[
				-0.057187795639038086,
				2.1501729488372803,
				0.7217170596122742
			],
			"min":[
				-0.8118022084236145,
				1.2190064191818237,
				0.058001257479190826
			],
			"type":"VEC3"
		},
		{
			"bufferView":114,
			"componentType":5126,
			"count":90,
			"type":"VEC3"
		},
		{
			"bufferView":115,
			"componentType":5126,
			"count":90,
			"type":"VEC2"
		},
		{
			"bufferView":116,
			"componentType":5123,
			"count":138,
			"type":"SCALAR"
		},
		{
			"bufferView":117,
			"componentType":5126,
			"count":90,
			"max":[
				0.746470034122467,
				1.5132132768630981,
				0.3974694609642029
			],
			"min":[
				0.18309742212295532,
				1.1911698579788208,
				0.1181674599647522
			],
			"type":"VEC3"
		},
		{
			"bufferView":118,
			"componentType":5126,
			"count":90,
			"type":"VEC3"
		},
		{
			"bufferView":119,
			"componentType":5126,
			"count":90,
			"type":"VEC2"
		},
		{
			"bufferView":120,
			"componentType":5123,
			"count":138,
			"type":"SCALAR"
		},
		{
			"bufferView":121,
			"componentType":5126,
			"count":90,
			"max":[
				-0.0335904061794281,
				1.59188711643219,
				-0.17702780663967133
			],
			"min":[
				-0.2866459786891937,
				1.2098720073699951,
				-0.6785581111907959
			],
			"type":"VEC3"
		},
		{
			"bufferView":122,
			"componentType":5126,
			"count":90,
			"type":"VEC3"
		},
		{
			"bufferView":123,
			"componentType":5126,
			"count":90,
			"type":"VEC2"
		},
		{
			"bufferView":124,
			"componentType":5123,
			"count":138,
			"type":"SCALAR"
		},
		{
			"bufferView":125,
			"componentType":5126,
			"count":90,
			"max":[
				0.5219751596450806,
				1.52056884765625,
				-0.007333435118198395
			],
			"min":[
				0.19861963391304016,
				1.2051246166229248,
				-0.1750214397907257
			],
			"type":"VEC3"
		},
		{
			"bufferView":126,
			"componentType":5126,
			"count":90,
			"type":"VEC3"
		},
		{
			"bufferView":127,
			"componentType":5126,
			"count":90,
			"type":"VEC2"
		},
		{
			"bufferView":128,
			"componentType":5123,
			"count":138,
			"type":"SCALAR"
		},
		{
			"bufferView":129,
			"componentType":5126,
			"count":90,
			"max":[
				0.4128448963165283,
				1.5471142530441284,
				-0.09912645816802979
			],
			"min":[
				0.15010593831539154,
				1.2177666425704956,
				-0.28743478655815125
			],
			"type":"VEC3"
		},
		{
			"bufferView":130,
			"componentType":5126,
			"count":90,
			"type":"VEC3"
		},
		{
			"bufferView":131,
			"componentType":5126,
			"count":90,
			"type":"VEC2"
		},
		{
			"bufferView":132,
			"componentType":5123,
			"count":138,
			"type":"SCALAR"
		},
		{
			"bufferView":133,
			"componentType":5126,
			"count":90,
			"max":[
				0.7759412527084351,
				2.0383055210113525,
				-0.11335466802120209
			],
			"min":[
				0.09271744638681412,
				1.215875506401062,
				-0.6549502611160278
			],
			"type":"VEC3"
		},
		{
			"bufferView":134,
			"componentType":5126,
			"count":90,
			"type":"VEC3"
		},
		{
			"bufferView":135,
			"componentType":5126,
			"count":90,
			"type":"VEC2"
		},
		{
			"bufferView":136,
			"componentType":5123,
			"count":138,
			"type":"SCALAR"
		},
		{
			"bufferView":137,
			"componentType":5126,
			"count":90,
			"max":[
				-0.07514113187789917,
				2.184053421020508,
				-0.2569303810596466
			],
			"min":[
				-0.2863091826438904,
				1.1936393976211548,
				-0.8312163949012756
			],
			"type":"VEC3"
		},
		{
			"bufferView":138,
			"componentType":5126,
			"count":90,
			"type":"VEC3"
		},
		{
			"bufferView":139,
			"componentType":5126,
			"count":90,
			"type":"VEC2"
		},
		{
			"bufferView":140,
			"componentType":5123,
			"count":138,
			"type":"SCALAR"
		},
		{
			"bufferView":141,
			"componentType":5126,
			"count":90,
			"max":[
				-0.10366422683000565,
				2.140638828277588,
				-0.09055890887975693
			],
			"min":[
				-0.5992041230201721,
				1.228743553161621,
				-0.7155510783195496
			],
			"type":"VEC3"
		},
		{
			"bufferView":142,
			"componentType":5126,
			"count":90,
			"type":"VEC3"
		},
		{
			"bufferView":143,
			"componentType":5126,
			"count":90,
			"type":"VEC2"
		},
		{
			"bufferView":144,
			"componentType":5123,
			"count":138,
			"type":"SCALAR"
		},
		{
			"bufferView":145,
			"componentType":5126,
			"count":90,
			"max":[
				0.6972528696060181,
				1.9553712606430054,
				0.1739601492881775
			],
			"min":[
				0.22349131107330322,
				1.2259166240692139,
				0.08730208873748779
			],
			"type":"VEC3"
		},
		{
			"bufferView":146,
			"componentType":5126,
			"count":90,
			"type":"VEC3"
		},
		{
			"bufferView":147,
			"componentType":5126,
			"count":90,
			"type":"VEC2"
		},
		{
			"bufferView":148,
			"componentType":5123,
			"count":138,
			"type":"SCALAR"
		},
		{
			"bufferView":149,
			"componentType":5126,
			"count":90,
			"max":[
				-0.0784328430891037,
				1.7185637950897217,
				0.5627725720405579
			],
			"min":[
				-0.2067430466413498,
				1.2245361804962158,
				0.21481969952583313
			],
			"type":"VEC3"
		},
		{
			"bufferView":150,
			"componentType":5126,
			"count":90,
			"type":"VEC3"
		},
		{
			"bufferView":151,
			"componentType":5126,
			"count":90,
			"type":"VEC2"
		},
		{
			"bufferView":152,
			"componentType":5123,
			"count":138,
			"type":"SCALAR"
		},
		{
			"bufferView":153,
			"componentType":5126,
			"count":90,
			"max":[
				-0.22521717846393585,
				1.5306649208068848,
				0.3071662485599518
			],
			"min":[
				-0.7523026466369629,
				1.2161269187927246,
				0.12309238314628601
			],
			"type":"VEC3"
		},
		{
			"bufferView":154,
			"componentType":5126,
			"count":90,
			"type":"VEC3"
		},
		{
			"bufferView":155,
			"componentType":5126,
			"count":90,
			"type":"VEC2"
		},
		{
			"bufferView":156,
			"componentType":5123,
			"count":138,
			"type":"SCALAR"
		},
		{
			"bufferView":157,
			"componentType":5126,
			"count":90,
			"max":[
				0.4465225338935852,
				2.169912099838257,
				0.7951031923294067
			],
			"min":[
				0.08343253284692764,
				1.2077062129974365,
				0.2137523591518402
			],
			"type":"VEC3"
		},
		{
			"bufferView":158,
			"componentType":5126,
			"count":90,
			"type":"VEC3"
		},
		{
			"bufferView":159,
			"componentType":5126,
			"count":90,
			"type":"VEC2"
		},
		{
			"bufferView":160,
			"componentType":5123,
			"count":138,
			"type":"SCALAR"
		},
		{
			"bufferView":161,
			"componentType":5126,
			"count":90,
			"max":[
				0.3036130368709564,
				1.5608071088790894,
				-0.19807220995426178
			],
			"min":[
				0.07119353860616684,
				1.1842044591903687,
				-0.8263586759567261
			],
			"type":"VEC3"
		},
		{
			"bufferView":162,
			"componentType":5126,
			"count":90,
			"type":"VEC3"
		},
		{
			"bufferView":163,
			"componentType":5126,
			"count":90,
			"type":"VEC2"
		},
		{
			"bufferView":164,
			"componentType":5123,
			"count":138,
			"type":"SCALAR"
		},
		{
			"bufferView":165,
			"componentType":5126,
			"count":90,
			"max":[
				-0.1276421844959259,
				2.6131134033203125,
				0.20106054842472076
			],
			"min":[
				-1.011824369430542,
				1.193880558013916,
				-0.012181675061583519
			],
			"type":"VEC3"
		},
		{
			"bufferView":166,
			"componentType":5126,
			"count":90,
			"type":"VEC3"
		},
		{
			"bufferView":167,
			"componentType":5126,
			"count":90,
			"type":"VEC2"
		},
		{
			"bufferView":168,
			"componentType":5123,
			"count":138,
			"type":"SCALAR"
		},
		{
			"bufferView":169,
			"componentType":5126,
			"count":90,
			"max":[
				-0.09878179430961609,
				1.6753391027450562,
				-0.07457923144102097
			],
			"min":[
				-0.5004016757011414,
				1.1875755786895752,
				-0.544274628162384
			],
			"type":"VEC3"
		},
		{
			"bufferView":170,
			"componentType":5126,
			"count":90,
			"type":"VEC3"
		},
		{
			"bufferView":171,
			"componentType":5126,
			"count":90,
			"type":"VEC2"
		},
		{
			"bufferView":172,
			"componentType":5123,
			"count":138,
			"type":"SCALAR"
		},
		{
			"bufferView":173,
			"componentType":5126,
			"count":90,
			"max":[
				-0.040861617773771286,
				2.0859127044677734,
				0.7392557263374329
			],
			"min":[
				-0.2513248026371002,
				1.22309148311615,
				0.18938620388507843
			],
			"type":"VEC3"
		},
		{
			"bufferView":174,
			"componentType":5126,
			"count":90,
			"type":"VEC3"
		},
		{
			"bufferView":175,
			"componentType":5126,
			"count":90,
			"type":"VEC2"
		},
		{
			"bufferView":176,
			"componentType":5123,
			"count":138,
			"type":"SCALAR"
		},
		{
			"bufferView":177,
			"componentType":5126,
			"count":90,
			"max":[
				0.6563833951950073,
				2.202817678451538,
				0.9455236792564392
			],
			"min":[
				0.06826425343751907,
				1.2079931497573853,
				0.09328976273536682
			],
			"type":"VEC3"
		},
		{
			"bufferView":178,
			"componentType":5126,
			"count":90,
			"type":"VEC3"
		},
		{
			"bufferView":179,
			"componentType":5126,
			"count":90,
			"type":"VEC2"
		},
		{
			"bufferView":180,
			"componentType":5123,
			"count":138,
			"type":"SCALAR"
		},
		{
			"bufferView":181,
			"componentType":5126,
			"count":90,
			"max":[
				-0.06078195571899414,
				2.727536678314209,
				-0.12572045624256134
			],
			"min":[
				-0.6241362690925598,
				1.2188810110092163,
				-0.8767868876457214
			],
			"type":"VEC3"
		},
		{
			"bufferView":182,
			"componentType":5126,
			"count":90,
			"type":"VEC3"
		},
		{
			"bufferView":183,
			"componentType":5126,
			"count":90,
			"type":"VEC2"
		},
		{
			"bufferView":184,
			"componentType":5123,
			"count":138,
			"type":"SCALAR"
		},
		{
			"bufferView":185,
			"componentType":5126,
			"count":90,
			"max":[
				0.7869335412979126,
				2.8507180213928223,
				0.05826876312494278
			],
			"min":[
				0.19531773030757904,
				1.2202014923095703,
				0.006515217944979668
			],
			"type":"VEC3"
		},
		{
			"bufferView":186,
			"componentType":5126,
			"count":90,
			"type":"VEC3"
		},
		{
			"bufferView":187,
			"componentType":5126,
			"count":90,
			"type":"VEC2"
		},
		{
			"bufferView":188,
			"componentType":5123,
			"count":138,
			"type":"SCALAR"
		},
		{
			"bufferView":189,
			"componentType":5126,
			"count":90,
			"max":[
				-0.18030841648578644,
				2.0658044815063477,
				0.29247090220451355
			],
			"min":[
				-0.9112695455551147,
				1.2165943384170532,
				0.035028889775276184
			],
			"type":"VEC3"
		},
		{
			"bufferView":190,
			"componentType":5126,
			"count":90,
			"type":"VEC3"
		},
		{
			"bufferView":191,
			"componentType":5126,
			"count":90,
			"type":"VEC2"
		},
		{
			"bufferView":192,
			"componentType":5123,
			"count":138,
			"type":"SCALAR"
		},
		{
			"bufferView":193,
			"componentType":5126,
			"count":90,
			"max":[
				-0.10589040815830231,
				1.759622573852539,
				0.10204076021909714
			],
			"min":[
				-0.6906972527503967,
				1.2077505588531494,
				-0.0015794280916452408
			],
			"type":"VEC3"
		},
		{
			"bufferView":194,
			"componentType":5126,
			"count":90,
			"type":"VEC3"
		},
		{
			"bufferView":195,
			"componentType":5126,
			"count":90,
			"type":"VEC2"
		},
		{
			"bufferView":196,
			"componentType":5123,
			"count":138,
			"type":"SCALAR"
		},
		{
			"bufferView":197,
			"componentType":5126,
			"count":90,
			"max":[
				0.8375954031944275,
				2.212117910385132,
				-0.017794843763113022
			],
			"min":[
				0.19279272854328156,
				1.200675129890442,
				-0.12225432693958282
			],
			"type":"VEC3"
		},
		{
			"bufferView":198,
			"componentType":5126,
			"count":90,
			"type":"VEC3"
		},
		{
			"bufferView":199,
			"componentType":5126,
			"count":90,
			"type":"VEC2"
		},
		{
			"bufferView":200,
			"componentType":5123,
			"count":138,
			"type":"SCALAR"
		},
		{
			"bufferView":201,
			"componentType":5126,
			"count":90,
			"max":[
				-0.08134898543357849,
				2.681201934814453,
				0.671250581741333
			],
			"min":[
				-0.4037117660045624,
				1.2041462659835815,
				0.11941982805728912
			],
			"type":"VEC3"
		},
		{
			"bufferView":202,
			"componentType":5126,
			"count":90,
			"type":"VEC3"
		},
		{
			"bufferView":203,
			"componentType":5126,
			"count":90,
			"type":"VEC2"
		},
		{
			"bufferView":204,
			"componentType":5123,
			"count":138,
			"type":"SCALAR"
		},
		{
			"bufferView":205,
			"componentType":5126,
			"count":90,
			"max":[
				-0.2572014331817627,
				1.851871371269226,
				-0.08945393562316895
			],
			"min":[
				-0.6529206037521362,
				1.220993995666504,
				-0.22639481723308563
			],
			"type":"VEC3"
		},
		{
			"bufferView":206,
			"componentType":5126,
			"count":90,
			"type":"VEC3"
		},
		{
			"bufferView":207,
			"componentType":5126,
			"count":90,
			"type":"VEC2"
		},
		{
			"bufferView":208,
			"componentType":5123,
			"count":138,
			"type":"SCALAR"
		},
		{
			"bufferView":209,
			"componentType":5126,
			"count":90,
			"max":[
				0.4187712073326111,
				2.7689783573150635,
				0.6522405743598938
			],
			"min":[
				0.044393595308065414,
				1.2213059663772583,
				0.12407507002353668
			],
			"type":"VEC3"
		},
		{
			"bufferView":210,
			"componentType":5126,
			"count":90,
			"type":"VEC3"
		},
		{
			"bufferView":211,
			"componentType":5126,
			"count":90,
			"type":"VEC2"
		},
		{
			"bufferView":212,
			"componentType":5123,
			"count":138,
			"type":"SCALAR"
		},
		{
			"bufferView":213,
			"componentType":5126,
			"count":90,
			"max":[
				0.2775070369243622,
				1.5684148073196411,
				0.7363377213478088
			],
			"min":[
				0.013585168868303299,
				1.204255223274231,
				0.08397248387336731
			],
			"type":"VEC3"
		},
		{
			"bufferView":214,
			"componentType":5126,
			"count":90,
			"type":"VEC3"
		},
		{
			"bufferView":215,
			"componentType":5126,
			"count":90,
			"type":"VEC2"
		},
		{
			"bufferView":216,
			"componentType":5123,
			"count":138,
			"type":"SCALAR"
		},
		{
			"bufferView":217,
			"componentType":5126,
			"count":90,
			"max":[
				0.7244064807891846,
				2.7439398765563965,
				-0.06213079392910004
			],
			"min":[
				0.038979340344667435,
				1.2110565900802612,
				-0.7032914161682129
			],
			"type":"VEC3"
		},
		{
			"bufferView":218,
			"componentType":5126,
			"count":90,
			"type":"VEC3"
		},
		{
			"bufferView":219,
			"componentType":5126,
			"count":90,
			"type":"VEC2"
		},
		{
			"bufferView":220,
			"componentType":5123,
			"count":138,
			"type":"SCALAR"
		},
		{
			"bufferView":221,
			"componentType":5126,
			"count":48,
			"max":[
				0.10000000149011612,
				1.2599999904632568,
				0.10000000149011612
			],
			"min":[
				-0.10000000149011612,
				1.1799999475479126,
				-0.10000000149011612
			],
			"type":"VEC3"
		},
		{
			"bufferView":222,
			"componentType":5126,
			"count":48,
			"type":"VEC3"
		},
		{
			"bufferView":223,
			"componentType":5126,
			"count":48,
			"type":"VEC2"
		},
		{
			"bufferView":224,
			"componentType":5123,
			"count":84,
			"type":"SCALAR"
		},
		{
			"bufferView":225,
			"componentType":5126,
			"count":384,
			"max":[
				0.8299999833106995,
				1.25,
				0.8299999833106995
			],
			"min":[
				-0.8299999833106995,
				0,
				-0.8299999833106995
			],
			"type":"VEC3"
		},
		{
			"bufferView":226,
			"componentType":5126,
			"count":384,
			"type":"VEC3"
		},
		{
			"bufferView":227,
			"componentType":5126,
			"count":384,
			"type":"VEC2"
		},
		{
			"bufferView":228,
			"componentType":5123,
			"count":612,
			"type":"SCALAR"
		},
		{
			"bufferView":229,
			"componentType":5126,
			"count":80,
			"max":[
				0.8999999761581421,
				0.03999999910593033,
				0.8999999761581421
			],
			"min":[
				-0.8999999761581421,
				-0.05999999865889549,
				-0.8999999761581421
			],
			"type":"VEC3"
		},
		{
			"bufferView":230,
			"componentType":5126,
			"count":80,
			"type":"VEC3"
		},
		{
			"bufferView":231,
			"componentType":5126,
			"count":80,
			"type":"VEC2"
		},
		{
			"bufferView":232,
			"componentType":5123,
			"count":132,
			"type":"SCALAR"
		},
		{
			"bufferView":233,
			"componentType":5126,
			"count":56,
			"max":[
				0.6097604632377625,
				1.190000057220459,
				0.6097604632377625
			],
			"min":[
				-0.6097604632377625,
				1.1699999570846558,
				-0.6097604632377625
			],
			"type":"VEC3"
		},
		{
			"bufferView":234,
			"componentType":5126,
			"count":56,
			"type":"VEC3"
		},
		{
			"bufferView":235,
			"componentType":5126,
			"count":56,
			"type":"VEC2"
		},
		{
			"bufferView":236,
			"componentType":5123,
			"count":72,
			"type":"SCALAR"
		}
	],
	"bufferViews":[
		{
			"buffer":0,
			"byteLength":576,
			"byteOffset":0,
			"target":34962
		},
		{
			"buffer":0,
			"byteLength":576,
			"byteOffset":576,
			"target":34962
		},
		{
			"buffer":0,
			"byteLength":384,
			"byteOffset":1152,
			"target":34962
		},
		{
			"buffer":0,
			"byteLength":144,
			"byteOffset":1536,
			"target":34963
		},
		{
			"buffer":0,
			"byteLength":576,
			"byteOffset":1680,
			"target":34962
		},
		{
			"buffer":0,
			"byteLength":576,
			"byteOffset":2256,
			"target":34962
		},
		{
			"buffer":0,
			"byteLength":384,
			"byteOffset":2832,
			"target":34962
		},
		{
			"buffer":0,
			"byteLength":144,
			"byteOffset":3216,
			"target":34963
		},
		{
			"buffer":0,
			"byteLength":576,
			"byteOffset":3360,
			"target":34962
		},
		{
			"buffer":0,
			"byteLength":576,
			"byteOffset":3936,
			"target":34962
		},
		{
			"buffer":0,
			"byteLength":384,
			"byteOffset":4512,
			"target":34962
		},
		{
			"buffer":0,
			"byteLength":144,
			"byteOffset":4896,
			"target":34963
		},
		{
			"buffer":0,
			"byteLength":576,
			"byteOffset":5040,
			"target":34962
		},
		{
			"buffer":0,
			"byteLength":576,
			"byteOffset":5616,
			"target":34962
		},
		{
			"buffer":0,
			"byteLength":384,
			"byteOffset":6192,
			"target":34962
		},
		{
			"buffer":0,
			"byteLength":144,
			"byteOffset":6576,
			"target":34963
		},
		{
			"buffer":0,
			"byteLength":576,
			"byteOffset":6720,
			"target":34962
		},
		{
			"buffer":0,
			"byteLength":576,
			"byteOffset":7296,
			"target":34962
		},
		{
			"buffer":0,
			"byteLength":384,
			"byteOffset":7872,
			"target":34962
		},
		{
			"buffer":0,
			"byteLength":144,
			"byteOffset":8256,
			"target":34963
		},
		{
			"buffer":0,
			"byteLength":576,
			"byteOffset":8400,
			"target":34962
		},
		{
			"buffer":0,
			"byteLength":576,
			"byteOffset":8976,
			"target":34962
		},
		{
			"buffer":0,
			"byteLength":384,
			"byteOffset":9552,
			"target":34962
		},
		{
			"buffer":0,
			"byteLength":144,
			"byteOffset":9936,
			"target":34963
		},
		{
			"buffer":0,
			"byteLength":576,
			"byteOffset":10080,
			"target":34962
		},
		{
			"buffer":0,
			"byteLength":576,
			"byteOffset":10656,
			"target":34962
		},
		{
			"buffer":0,
			"byteLength":384,
			"byteOffset":11232,
			"target":34962
		},
		{
			"buffer":0,
			"byteLength":576,
			"byteOffset":11616,
			"target":34962
		},
		{
			"buffer":0,
			"byteLength":576,
			"byteOffset":12192,
			"target":34962
		},
		{
			"buffer":0,
			"byteLength":384,
			"byteOffset":12768,
			"target":34962
		},
		{
			"buffer":0,
			"byteLength":144,
			"byteOffset":13152,
			"target":34963
		},
		{
			"buffer":0,
			"byteLength":576,
			"byteOffset":13296,
			"target":34962
		},
		{
			"buffer":0,
			"byteLength":576,
			"byteOffset":13872,
			"target":34962
		},
		{
			"buffer":0,
			"byteLength":384,
			"byteOffset":14448,
			"target":34962
		},
		{
			"buffer":0,
			"byteLength":144,
			"byteOffset":14832,
			"target":34963
		},
		{
			"buffer":0,
			"byteLength":576,
			"byteOffset":14976,
			"target":34962
		},
		{
			"buffer":0,
			"byteLength":576,
			"byteOffset":15552,
			"target":34962
		},
		{
			"buffer":0,
			"byteLength":384,
			"byteOffset":16128,
			"target":34962
		},
		{
			"buffer":0,
			"byteLength":144,
			"byteOffset":16512,
			"target":34963
		},
		{
			"buffer":0,
			"byteLength":576,
			"byteOffset":16656,
			"target":34962
		},
		{
			"buffer":0,
			"byteLength":576,
			"byteOffset":17232,
			"target":34962
		},
		{
			"buffer":0,
			"byteLength":384,
			"byteOffset":17808,
			"target":34962
		},
		{
			"buffer":0,
			"byteLength":144,
			"byteOffset":18192,
			"target":34963
		},
		{
			"buffer":0,
			"byteLength":576,
			"byteOffset":18336,
			"target":34962
		},
		{
			"buffer":0,
			"byteLength":576,
			"byteOffset":18912,
			"target":34962
		},
		{
			"buffer":0,
			"byteLength":384,
			"byteOffset":19488,
			"target":34962
		},
		{
			"buffer":0,
			"byteLength":144,
			"byteOffset":19872,
			"target":34963
		},
		{
			"buffer":0,
			"byteLength":576,
			"byteOffset":20016,
			"target":34962
		},
		{
			"buffer":0,
			"byteLength":576,
			"byteOffset":20592,
			"target":34962
		},
		{
			"buffer":0,
			"byteLength":384,
			"byteOffset":21168,
			"target":34962
		},
		{
			"buffer":0,
			"byteLength":144,
			"byteOffset":21552,
			"target":34963
		},
		{
			"buffer":0,
			"byteLength":576,
			"byteOffset":21696,
			"target":34962
		},
		{
			"buffer":0,
			"byteLength":576,
			"byteOffset":22272,
			"target":34962
		},
		{
			"buffer":0,
			"byteLength":384,
			"byteOffset":22848,
			"target":34962
		},
		{
			"buffer":0,
			"byteLength":144,
			"byteOffset":23232,
			"target":34963
		},
		{
			"buffer":0,
			"byteLength":576,
			"byteOffset":23376,
			"target":34962
		},
		{
			"buffer":0,
			"byteLength":576,
			"byteOffset":23952,
			"target":34962
		},
		{
			"buffer":0,
			"byteLength":384,
			"byteOffset":24528,
			"target":34962
		},
		{
			"buffer":0,
			"byteLength":144,
			"byteOffset":24912,
			"target":34963
		},
		{
			"buffer":0,
			"byteLength":576,
			"byteOffset":25056,
			"target":34962
		},
		{
			"buffer":0,
			"byteLength":576,
			"byteOffset":25632,
			"target":34962
		},
		{
			"buffer":0,
			"byteLength":384,
			"byteOffset":26208,
			"target":34962
		},
		{
			"buffer":0,
			"byteLength":144,
			"byteOffset":26592,
			"target":34963
		},
		{
			"buffer":0,
			"byteLength":576,
			"byteOffset":26736,
			"target":34962
		},
		{
			"buffer":0,
			"byteLength":576,
			"byteOffset":27312,
			"target":34962
		},
		{
			"buffer":0,
			"byteLength":384,
			"byteOffset":27888,
			"target":34962
		},
		{
			"buffer":0,
			"byteLength":144,
			"byteOffset":28272,
			"target":34963
		},
		{
			"buffer":0,
			"byteLength":576,
			"byteOffset":28416,
			"target":34962
		},
		{
			"buffer":0,
			"byteLength":576,
			"byteOffset":28992,
			"target":34962
		},
		{
			"buffer":0,
			"byteLength":384,
			"byteOffset":29568,
			"target":34962
		},
		{
			"buffer":0,
			"byteLength":144,
			"byteOffset":29952,
			"target":34963
		},
		{
			"buffer":0,
			"byteLength":576,
			"byteOffset":30096,
			"target":34962
		},
		{
			"buffer":0,
			"byteLength":576,
			"byteOffset":30672,
			"target":34962
		},
		{
			"buffer":0,
			"byteLength":384,
			"byteOffset":31248,
			"target":34962
		},
		{
			"buffer":0,
			"byteLength":576,
			"byteOffset":31632,
			"target":34962
		},
		{
			"buffer":0,
			"byteLength":576,
			"byteOffset":32208,
			"target":34962
		},
		{
			"buffer":0,
			"byteLength":384,
			"byteOffset":32784,
			"target":34962
		},
		{
			"buffer":0,
			"byteLength":144,
			"byteOffset":33168,
			"target":34963
		},
		{
			"buffer":0,
			"byteLength":576,
			"byteOffset":33312,
			"target":34962
		},
		{
			"buffer":0,
			"byteLength":576,
			"byteOffset":33888,
			"target":34962
		},
		{
			"buffer":0,
			"byteLength":384,
			"byteOffset":34464,
			"target":34962
		},
		{
			"buffer":0,
			"byteLength":144,
			"byteOffset":34848,
			"target":34963
		},
		{
			"buffer":0,
			"byteLength":576,
			"byteOffset":34992,
			"target":34962
		},
		{
			"buffer":0,
			"byteLength":576,
			"byteOffset":35568,
			"target":34962
		},
		{
			"buffer":0,
			"byteLength":384,
			"byteOffset":36144,
			"target":34962
		},
		{
			"buffer":0,
			"byteLength":144,
			"byteOffset":36528,
			"target":34963
		},
		{
			"buffer":0,
			"byteLength":576,
			"byteOffset":36672,
			"target":34962
		},
		{
			"buffer":0,
			"byteLength":576,
			"byteOffset":37248,
			"target":34962
		},
		{
			"buffer":0,
			"byteLength":384,
			"byteOffset":37824,
			"target":34962
		},
		{
			"buffer":0,
			"byteLength":144,
			"byteOffset":38208,
			"target":34963
		},
		{
			"buffer":0,
			"byteLength":576,
			"byteOffset":38352,
			"target":34962
		},
		{
			"buffer":0,
			"byteLength":576,
			"byteOffset":38928,
			"target":34962
		},
		{
			"buffer":0,
			"byteLength":384,
			"byteOffset":39504,
			"target":34962
		},
		{
			"buffer":0,
			"byteLength":144,
			"byteOffset":39888,
			"target":34963
		},
		{
			"buffer":0,
			"byteLength":576,
			"byteOffset":40032,
			"target":34962
		},
		{
			"buffer":0,
			"byteLength":576,
			"byteOffset":40608,
			"target":34962
		},
		{
			"buffer":0,
			"byteLength":384,
			"byteOffset":41184,
			"target":34962
		},
		{
			"buffer":0,
			"byteLength":144,
			"byteOffset":41568,
			"target":34963
		},
		{
			"buffer":0,
			"byteLength":576,
			"byteOffset":41712,
			"target":34962
		},
		{
			"buffer":0,
			"byteLength":576,
			"byteOffset":42288,
			"target":34962
		},
		{
			"buffer":0,
			"byteLength":384,
			"byteOffset":42864,
			"target":34962
		},
		{
			"buffer":0,
			"byteLength":576,
			"byteOffset":43248,
			"target":34962
		},
		{
			"buffer":0,
			"byteLength":576,
			"byteOffset":43824,
			"target":34962
		},
		{
			"buffer":0,
			"byteLength":384,
			"byteOffset":44400,
			"target":34962
		},
		{
			"buffer":0,
			"byteLength":144,
			"byteOffset":44784,
			"target":34963
		},
		{
			"buffer":0,
			"byteLength":576,
			"byteOffset":44928,
			"target":34962
		},
		{
			"buffer":0,
			"byteLength":576,
			"byteOffset":45504,
			"target":34962
		},
		{
			"buffer":0,
			"byteLength":384,
			"byteOffset":46080,
			"target":34962
		},
		{
			"buffer":0,
			"byteLength":144,
			"byteOffset":46464,
			"target":34963
		},
		{
			"buffer":0,
			"byteLength":1080,
			"byteOffset":46608,
			"target":34962
		},
		{
			"buffer":0,
			"byteLength":1080,
			"byteOffset":47688,
			"target":34962
		},
		{
			"buffer":0,
			"byteLength":720,
			"byteOffset":48768,
			"target":34962
		},
		{
			"buffer":0,
			"byteLength":276,
			"byteOffset":49488,
			"target":34963
		},
		{
			"buffer":0,
			"byteLength":1080,
			"byteOffset":49764,
			"target":34962
		},
		{
			"buffer":0,
			"byteLength":1080,
			"byteOffset":50844,
			"target":34962
		},
		{
			"buffer":0,
			"byteLength":720,
			"byteOffset":51924,
			"target":34962
		},
		{
			"buffer":0,
			"byteLength":276,
			"byteOffset":52644,
			"target":34963
		},
		{
			"buffer":0,
			"byteLength":1080,
			"byteOffset":52920,
			"target":34962
		},
		{
			"buffer":0,
			"byteLength":1080,
			"byteOffset":54000,
			"target":34962
		},
		{
			"buffer":0,
			"byteLength":720,
			"byteOffset":55080,
			"target":34962
		},
		{
			"buffer":0,
			"byteLength":276,
			"byteOffset":55800,
			"target":34963
		},
		{
			"buffer":0,
			"byteLength":1080,
			"byteOffset":56076,
			"target":34962
		},
		{
			"buffer":0,
			"byteLength":1080,
			"byteOffset":57156,
			"target":34962
		},
		{
			"buffer":0,
			"byteLength":720,
			"byteOffset":58236,
			"target":34962
		},
		{
			"buffer":0,
			"byteLength":276,
			"byteOffset":58956,
			"target":34963
		},
		{
			"buffer":0,
			"byteLength":1080,
			"byteOffset":59232,
			"target":34962
		},
		{
			"buffer":0,
			"byteLength":1080,
			"byteOffset":60312,
			"target":34962
		},
		{
			"buffer":0,
			"byteLength":720,
			"byteOffset":61392,
			"target":34962
		},
		{
			"buffer":0,
			"byteLength":276,
			"byteOffset":62112,
			"target":34963
		},
		{
			"buffer":0,
			"byteLength":1080,
			"byteOffset":62388,
			"target":34962
		},
		{
			"buffer":0,
			"byteLength":1080,
			"byteOffset":63468,
			"target":34962
		},
		{
			"buffer":0,
			"byteLength":720,
			"byteOffset":64548,
			"target":34962
		},
		{
			"buffer":0,
			"byteLength":276,
			"byteOffset":65268,
			"target":34963
		},
		{
			"buffer":0,
			"byteLength":1080,
			"byteOffset":65544,
			"target":34962
		},
		{
			"buffer":0,
			"byteLength":1080,
			"byteOffset":66624,
			"target":34962
		},
		{
			"buffer":0,
			"byteLength":720,
			"byteOffset":67704,
			"target":34962
		},
		{
			"buffer":0,
			"byteLength":276,
			"byteOffset":68424,
			"target":34963
		},
		{
			"buffer":0,
			"byteLength":1080,
			"byteOffset":68700,
			"target":34962
		},
		{
			"buffer":0,
			"byteLength":1080,
			"byteOffset":69780,
			"target":34962
		},
		{
			"buffer":0,
			"byteLength":720,
			"byteOffset":70860,
			"target":34962
		},
		{
			"buffer":0,
			"byteLength":276,
			"byteOffset":71580,
			"target":34963
		},
		{
			"buffer":0,
			"byteLength":1080,
			"byteOffset":71856,
			"target":34962
		},
		{
			"buffer":0,
			"byteLength":1080,
			"byteOffset":72936,
			"target":34962
		},
		{
			"buffer":0,
			"byteLength":720,
			"byteOffset":74016,
			"target":34962
		},
		{
			"buffer":0,
			"byteLength":276,
			"byteOffset":74736,
			"target":34963
		},
		{
			"buffer":0,
			"byteLength":1080,
			"byteOffset":75012,
			"target":34962
		},
		{
			"buffer":0,
			"byteLength":1080,
			"byteOffset":76092,
			"target":34962
		},
		{
			"buffer":0,
			"byteLength":720,
			"byteOffset":77172,
			"target":34962
		},
		{
			"buffer":0,
			"byteLength":276,
			"byteOffset":77892,
			"target":34963
		},
		{
			"buffer":0,
			"byteLength":1080,
			"byteOffset":78168,
			"target":34962
		},
		{
			"buffer":0,
			"byteLength":1080,
			"byteOffset":79248,
			"target":34962
		},
		{
			"buffer":0,
			"byteLength":720,
			"byteOffset":80328,
			"target":34962
		},
		{
			"buffer":0,
			"byteLength":276,
			"byteOffset":81048,
			"target":34963
		},
		{
			"buffer":0,
			"byteLength":1080,
			"byteOffset":81324,
			"target":34962
		},
		{
			"buffer":0,
			"byteLength":1080,
			"byteOffset":82404,
			"target":34962
		},
		{
			"buffer":0,
			"byteLength":720,
			"byteOffset":83484,
			"target":34962
		},
		{
			"buffer":0,
			"byteLength":276,
			"byteOffset":84204,
			"target":34963
		},
		{
			"buffer":0,
			"byteLength":1080,
			"byteOffset":84480,
			"target":34962
		},
		{
			"buffer":0,
			"byteLength":1080,
			"byteOffset":85560,
			"target":34962
		},
		{
			"buffer":0,
			"byteLength":720,
			"byteOffset":86640,
			"target":34962
		},
		{
			"buffer":0,
			"byteLength":276,
			"byteOffset":87360,
			"target":34963
		},
		{
			"buffer":0,
			"byteLength":1080,
			"byteOffset":87636,
			"target":34962
		},
		{
			"buffer":0,
			"byteLength":1080,
			"byteOffset":88716,
			"target":34962
		},
		{
			"buffer":0,
			"byteLength":720,
			"byteOffset":89796,
			"target":34962
		},
		{
			"buffer":0,
			"byteLength":276,
			"byteOffset":90516,
			"target":34963
		},
		{
			"buffer":0,
			"byteLength":1080,
			"byteOffset":90792,
			"target":34962
		},
		{
			"buffer":0,
			"byteLength":1080,
			"byteOffset":91872,
			"target":34962
		},
		{
			"buffer":0,
			"byteLength":720,
			"byteOffset":92952,
			"target":34962
		},
		{
			"buffer":0,
			"byteLength":276,
			"byteOffset":93672,
			"target":34963
		},
		{
			"buffer":0,
			"byteLength":1080,
			"byteOffset":93948,
			"target":34962
		},
		{
			"buffer":0,
			"byteLength":1080,
			"byteOffset":95028,
			"target":34962
		},
		{
			"buffer":0,
			"byteLength":720,
			"byteOffset":96108,
			"target":34962
		},
		{
			"buffer":0,
			"byteLength":276,
			"byteOffset":96828,
			"target":34963
		},
		{
			"buffer":0,
			"byteLength":1080,
			"byteOffset":97104,
			"target":34962
		},
		{
			"buffer":0,
			"byteLength":1080,
			"byteOffset":98184,
			"target":34962
		},
		{
			"buffer":0,
			"byteLength":720,
			"byteOffset":99264,
			"target":34962
		},
		{
			"buffer":0,
			"byteLength":276,
			"byteOffset":99984,
			"target":34963
		},
		{
			"buffer":0,
			"byteLength":1080,
			"byteOffset":100260,
			"target":34962
		},
		{
			"buffer":0,
			"byteLength":1080,
			"byteOffset":101340,
			"target":34962
		},
		{
			"buffer":0,
			"byteLength":720,
			"byteOffset":102420,
			"target":34962
		},
		{
			"buffer":0,
			"byteLength":276,
			"byteOffset":103140,
			"target":34963
		},
		{
			"buffer":0,
			"byteLength":1080,
			"byteOffset":103416,
			"target":34962
		},
		{
			"buffer":0,
			"byteLength":1080,
			"byteOffset":104496,
			"target":34962
		},
		{
			"buffer":0,
			"byteLength":720,
			"byteOffset":105576,
			"target":34962
		},
		{
			"buffer":0,
			"byteLength":276,
			"byteOffset":106296,
			"target":34963
		},
		{
			"buffer":0,
			"byteLength":1080,
			"byteOffset":106572,
			"target":34962
		},
		{
			"buffer":0,
			"byteLength":1080,
			"byteOffset":107652,
			"target":34962
		},
		{
			"buffer":0,
			"byteLength":720,
			"byteOffset":108732,
			"target":34962
		},
		{
			"buffer":0,
			"byteLength":276,
			"byteOffset":109452,
			"target":34963
		},
		{
			"buffer":0,
			"byteLength":1080,
			"byteOffset":109728,
			"target":34962
		},
		{
			"buffer":0,
			"byteLength":1080,
			"byteOffset":110808,
			"target":34962
		},
		{
			"buffer":0,
			"byteLength":720,
			"byteOffset":111888,
			"target":34962
		},
		{
			"buffer":0,
			"byteLength":276,
			"byteOffset":112608,
			"target":34963
		},
		{
			"buffer":0,
			"byteLength":1080,
			"byteOffset":112884,
			"target":34962
		},
		{
			"buffer":0,
			"byteLength":1080,
			"byteOffset":113964,
			"target":34962
		},
		{
			"buffer":0,
			"byteLength":720,
			"byteOffset":115044,
			"target":34962
		},
		{
			"buffer":0,
			"byteLength":276,
			"byteOffset":115764,
			"target":34963
		},
		{
			"buffer":0,
			"byteLength":1080,
			"byteOffset":116040,
			"target":34962
		},
		{
			"buffer":0,
			"byteLength":1080,
			"byteOffset":117120,
			"target":34962
		},
		{
			"buffer":0,
			"byteLength":720,
			"byteOffset":118200,
			"target":34962
		},
		{
			"buffer":0,
			"byteLength":276,
			"byteOffset":118920,
			"target":34963
		},
		{
			"buffer":0,
			"byteLength":1080,
			"byteOffset":119196,
			"target":34962
		},
		{
			"buffer":0,
			"byteLength":1080,
			"byteOffset":120276,
			"target":34962
		},
		{
			"buffer":0,
			"byteLength":720,
			"byteOffset":121356,
			"target":34962
		},
		{
			"buffer":0,
			"byteLength":276,
			"byteOffset":122076,
			"target":34963
		},
		{
			"buffer":0,
			"byteLength":1080,
			"byteOffset":122352,
			"target":34962
		},
		{
			"buffer":0,
			"byteLength":1080,
			"byteOffset":123432,
			"target":34962
		},
		{
			"buffer":0,
			"byteLength":720,
			"byteOffset":124512,
			"target":34962
		},
		{
			"buffer":0,
			"byteLength":276,
			"byteOffset":125232,
			"target":34963
		},
		{
			"buffer":0,
			"byteLength":1080,
			"byteOffset":125508,
			"target":34962
		},
		{
			"buffer":0,
			"byteLength":1080,
			"byteOffset":126588,
			"target":34962
		},
		{
			"buffer":0,
			"byteLength":720,
			"byteOffset":127668,
			"target":34962
		},
		{
			"buffer":0,
			"byteLength":276,
			"byteOffset":128388,
			"target":34963
		},
		{
			"buffer":0,
			"byteLength":1080,
			"byteOffset":128664,
			"target":34962
		},
		{
			"buffer":0,
			"byteLength":1080,
			"byteOffset":129744,
			"target":34962
		},
		{
			"buffer":0,
			"byteLength":720,
			"byteOffset":130824,
			"target":34962
		},
		{
			"buffer":0,
			"byteLength":276,
			"byteOffset":131544,
			"target":34963
		},
		{
			"buffer":0,
			"byteLength":1080,
			"byteOffset":131820,
			"target":34962
		},
		{
			"buffer":0,
			"byteLength":1080,
			"byteOffset":132900,
			"target":34962
		},
		{
			"buffer":0,
			"byteLength":720,
			"byteOffset":133980,
			"target":34962
		},
		{
			"buffer":0,
			"byteLength":276,
			"byteOffset":134700,
			"target":34963
		},
		{
			"buffer":0,
			"byteLength":576,
			"byteOffset":134976,
			"target":34962
		},
		{
			"buffer":0,
			"byteLength":576,
			"byteOffset":135552,
			"target":34962
		},
		{
			"buffer":0,
			"byteLength":384,
			"byteOffset":136128,
			"target":34962
		},
		{
			"buffer":0,
			"byteLength":168,
			"byteOffset":136512,
			"target":34963
		},
		{
			"buffer":0,
			"byteLength":4608,
			"byteOffset":136680,
			"target":34962
		},
		{
			"buffer":0,
			"byteLength":4608,
			"byteOffset":141288,
			"target":34962
		},
		{
			"buffer":0,
			"byteLength":3072,
			"byteOffset":145896,
			"target":34962
		},
		{
			"buffer":0,
			"byteLength":1224,
			"byteOffset":148968,
			"target":34963
		},
		{
			"buffer":0,
			"byteLength":960,
			"byteOffset":150192,
			"target":34962
		},
		{
			"buffer":0,
			"byteLength":960,
			"byteOffset":151152,
			"target":34962
		},
		{
			"buffer":0,
			"byteLength":640,
			"byteOffset":152112,
			"target":34962
		},
		{
			"buffer":0,
			"byteLength":264,
			"byteOffset":152752,
			"target":34963
		},
		{
			"buffer":0,
			"byteLength":672,
			"byteOffset":153016,
			"target":34962
		},
		{
			"buffer":0,
			"byteLength":672,
			"byteOffset":153688,
			"target":34962
		},
		{
			"buffer":0,
			"byteLength":448,
			"byteOffset":154360,
			"target":34962
		},
		{
			"buffer":0,
			"byteLength":144,
			"byteOffset":154808,
			"target":34963
		}
	],
	"samplers":[
		{
			"magFilter":9728,
			"minFilter":9984,
			"wrapS":33071,
			"wrapT":33071
		},
		{
			"magFilter":9728,
			"minFilter":9984
		}
	],
	"buffers":[
		{
			"byteLength":154952,
			"uri":"Calathea.bin"
		}
	]
}
