{
	"asset":{
		"generator":"Khronos glTF Blender I/O v5.1.19",
		"version":"2.0"
	},
	"extensionsUsed":[
		"KHR_materials_specular"
	],
	"scene":0,
	"scenes":[
		{
			"name":"Scene",
			"nodes":[
				64
			]
		}
	],
	"nodes":[
		{
			"mesh":0,
			"name":"Leaf_000.002"
		},
		{
			"mesh":1,
			"name":"Leaf_001.002"
		},
		{
			"mesh":2,
			"name":"Leaf_002.002"
		},
		{
			"mesh":3,
			"name":"Leaf_003.002"
		},
		{
			"mesh":4,
			"name":"Leaf_004.002"
		},
		{
			"mesh":5,
			"name":"Leaf_005.002"
		},
		{
			"mesh":6,
			"name":"Leaf_006.002"
		},
		{
			"mesh":7,
			"name":"Leaf_007.002"
		},
		{
			"mesh":8,
			"name":"Leaf_008.002"
		},
		{
			"mesh":9,
			"name":"Leaf_009.002"
		},
		{
			"mesh":10,
			"name":"Leaf_010.002"
		},
		{
			"mesh":11,
			"name":"Leaf_011.002"
		},
		{
			"mesh":12,
			"name":"Leaf_012.002"
		},
		{
			"mesh":13,
			"name":"Leaf_013.001"
		},
		{
			"mesh":14,
			"name":"Leaf_014.002"
		},
		{
			"mesh":15,
			"name":"Leaf_015.002"
		},
		{
			"mesh":16,
			"name":"Leaf_016.002"
		},
		{
			"mesh":17,
			"name":"Leaf_017.002"
		},
		{
			"mesh":18,
			"name":"Leaf_018.002"
		},
		{
			"mesh":19,
			"name":"Leaf_019.002"
		},
		{
			"mesh":20,
			"name":"Leaf_020.002"
		},
		{
			"mesh":21,
			"name":"Leaf_021.002"
		},
		{
			"mesh":22,
			"name":"Leaf_022.002"
		},
		{
			"mesh":23,
			"name":"Leaf_023.001"
		},
		{
			"mesh":24,
			"name":"Leaf_024.002"
		},
		{
			"mesh":25,
			"name":"Leaf_025.002"
		},
		{
			"mesh":26,
			"name":"Leaf_026.002"
		},
		{
			"mesh":27,
			"name":"Leaf_027.001"
		},
		{
			"mesh":28,
			"name":"Leaf_028.001"
		},
		{
			"mesh":29,
			"name":"Leaf_029.001"
		},
		{
			"mesh":30,
			"name":"Leaf_030.001"
		},
		{
			"mesh":31,
			"name":"Leaf_031.001"
		},
		{
			"mesh":32,
			"name":"Leaf_032.001"
		},
		{
			"mesh":33,
			"name":"Leaf_033"
		},
		{
			"mesh":34,
			"name":"Leaf_034"
		},
		{
			"mesh":35,
			"name":"Leaf_035"
		},
		{
			"mesh":36,
			"name":"Leaf_036"
		},
		{
			"mesh":37,
			"name":"Leaf_037"
		},
		{
			"mesh":38,
			"name":"Leaf_038"
		},
		{
			"mesh":39,
			"name":"Leaf_039"
		},
		{
			"mesh":40,
			"name":"Leaf_040"
		},
		{
			"mesh":41,
			"name":"Leaf_041"
		},
		{
			"mesh":42,
			"name":"Leaf_042"
		},
		{
			"mesh":43,
			"name":"Leaf_043"
		},
		{
			"mesh":44,
			"name":"Leaf_044"
		},
		{
			"mesh":45,
			"name":"Leaf_045"
		},
		{
			"mesh":46,
			"name":"Leaf_046"
		},
		{
			"mesh":47,
			"name":"Leaf_047"
		},
		{
			"mesh":48,
			"name":"Leaf_048"
		},
		{
			"mesh":49,
			"name":"Leaf_049"
		},
		{
			"mesh":50,
			"name":"Leaf_050"
		},
		{
			"mesh":51,
			"name":"Leaf_051"
		},
		{
			"mesh":52,
			"name":"Leaf_052"
		},
		{
			"mesh":53,
			"name":"Leaf_053"
		},
		{
			"mesh":54,
			"name":"Leaf_054"
		},
		{
			"mesh":55,
			"name":"Leaf_055"
		},
		{
			"mesh":56,
			"name":"Leaf_056"
		},
		{
			"mesh":57,
			"name":"Leaf_057"
		},
		{
			"mesh":58,
			"name":"Leaf_058"
		},
		{
			"mesh":59,
			"name":"Leaf_059"
		},
		{
			"mesh":60,
			"name":"Leaf_060"
		},
		{
			"mesh":61,
			"name":"Pot.002"
		},
		{
			"mesh":62,
			"name":"Saucer.002"
		},
		{
			"mesh":63,
			"name":"Soil.002"
		},
		{
			"children":[
				0,
				1,
				2,
				3,
				4,
				5,
				6,
				7,
				8,
				9,
				10,
				11,
				12,
				13,
				14,
				15,
				16,
				17,
				18,
				19,
				20,
				21,
				22,
				23,
				24,
				25,
				26,
				27,
				28,
				29,
				30,
				31,
				32,
				33,
				34,
				35,
				36,
				37,
				38,
				39,
				40,
				41,
				42,
				43,
				44,
				45,
				46,
				47,
				48,
				49,
				50,
				51,
				52,
				53,
				54,
				55,
				56,
				57,
				58,
				59,
				60,
				61,
				62,
				63
			],
			"name":"GRP_Haworthia"
		}
	],
	"materials":[
		{
			"alphaMode":"BLEND",
			"doubleSided":true,
			"extensions":{
				"KHR_materials_specular":{
					"specularFactor":0.6000000238418579
				}
			},
			"name":"LeafMat.002",
			"normalTexture":{
				"index":0
			},
			"pbrMetallicRoughness":{
				"baseColorTexture":{
					"index":1
				},
				"metallicFactor":0,
				"roughnessFactor":0.8500000238418579
			}
		},
		{
			"doubleSided":true,
			"extensions":{
				"KHR_materials_specular":{
					"specularFactor":0.6000000238418579
				}
			},
			"name":"PotMat.002",
			"pbrMetallicRoughness":{
				"baseColorTexture":{
					"index":2
				},
				"metallicFactor":0,
				"roughnessFactor":0.8500000238418579
			}
		},
		{
			"doubleSided":true,
			"extensions":{
				"KHR_materials_specular":{
					"specularFactor":0.6000000238418579
				}
			},
			"name":"SaucerMat.002",
			"pbrMetallicRoughness":{
				"baseColorTexture":{
					"index":3
				},
				"metallicFactor":0,
				"roughnessFactor":0.8500000238418579
			}
		},
		{
			"doubleSided":true,
			"extensions":{
				"KHR_materials_specular":{
					"specularFactor":0.6000000238418579
				}
			},
			"name":"SoilMat.002",
			"pbrMetallicRoughness":{
				"baseColorTexture":{
					"index":4
				},
				"metallicFactor":0,
				"roughnessFactor":0.8500000238418579
			}
		}
	],
	"meshes":[
		{
			"name":"Leaf_000.001",
			"primitives":[
				{
					"attributes":{
						"POSITION":0,
						"NORMAL":1,
						"TEXCOORD_0":2
					},
					"indices":3,
					"material":0
				}
			]
		},
		{
			"name":"Leaf_001.001",
			"primitives":[
				{
					"attributes":{
						"POSITION":4,
						"NORMAL":5,
						"TEXCOORD_0":6
					},
					"indices":7,
					"material":0
				}
			]
		},
		{
			"name":"Leaf_002.001",
			"primitives":[
				{
					"attributes":{
						"POSITION":8,
						"NORMAL":9,
						"TEXCOORD_0":10
					},
					"indices":11,
					"material":0
				}
			]
		},
		{
			"name":"Leaf_003.001",
			"primitives":[
				{
					"attributes":{
						"POSITION":12,
						"NORMAL":13,
						"TEXCOORD_0":14
					},
					"indices":15,
					"material":0
				}
			]
		},
		{
			"name":"Leaf_004.001",
			"primitives":[
				{
					"attributes":{
						"POSITION":16,
						"NORMAL":17,
						"TEXCOORD_0":18
					},
					"indices":19,
					"material":0
				}
			]
		},
		{
			"name":"Leaf_005.001",
			"primitives":[
				{
					"attributes":{
						"POSITION":20,
						"NORMAL":21,
						"TEXCOORD_0":22
					},
					"indices":23,
					"material":0
				}
			]
		},
		{
			"name":"Leaf_006.001",
			"primitives":[
				{
					"attributes":{
						"POSITION":24,
						"NORMAL":25,
						"TEXCOORD_0":26
					},
					"indices":27,
					"material":0
				}
			]
		},
		{
			"name":"Leaf_007.001",
			"primitives":[
				{
					"attributes":{
						"POSITION":28,
						"NORMAL":29,
						"TEXCOORD_0":30
					},
					"indices":31,
					"material":0
				}
			]
		},
		{
			"name":"Leaf_008.001",
			"primitives":[
				{
					"attributes":{
						"POSITION":32,
						"NORMAL":33,
						"TEXCOORD_0":34
					},
					"indices":35,
					"material":0
				}
			]
		},
		{
			"name":"Leaf_009.001",
			"primitives":[
				{
					"attributes":{
						"POSITION":36,
						"NORMAL":37,
						"TEXCOORD_0":38
					},
					"indices":39,
					"material":0
				}
			]
		},
		{
			"name":"Leaf_010.001",
			"primitives":[
				{
					"attributes":{
						"POSITION":40,
						"NORMAL":41,
						"TEXCOORD_0":42
					},
					"indices":43,
					"material":0
				}
			]
		},
		{
			"name":"Leaf_011.001",
			"primitives":[
				{
					"attributes":{
						"POSITION":44,
						"NORMAL":45,
						"TEXCOORD_0":46
					},
					"indices":47,
					"material":0
				}
			]
		},
		{
			"name":"Leaf_012.001",
			"primitives":[
				{
					"attributes":{
						"POSITION":48,
						"NORMAL":49,
						"TEXCOORD_0":50
					},
					"indices":51,
					"material":0
				}
			]
		},
		{
			"name":"Leaf_013.001",
			"primitives":[
				{
					"attributes":{
						"POSITION":52,
						"NORMAL":53,
						"TEXCOORD_0":54
					},
					"indices":55,
					"material":0
				}
			]
		},
		{
			"name":"Leaf_014.001",
			"primitives":[
				{
					"attributes":{
						"POSITION":56,
						"NORMAL":57,
						"TEXCOORD_0":58
					},
					"indices":59,
					"material":0
				}
			]
		},
		{
			"name":"Leaf_015.001",
			"primitives":[
				{
					"attributes":{
						"POSITION":60,
						"NORMAL":61,
						"TEXCOORD_0":62
					},
					"indices":63,
					"material":0
				}
			]
		},
		{
			"name":"Leaf_016.001",
			"primitives":[
				{
					"attributes":{
						"POSITION":64,
						"NORMAL":65,
						"TEXCOORD_0":66
					},
					"indices":67,
					"material":0
				}
			]
		},
		{
			"name":"Leaf_017.001",
			"primitives":[
				{
					"attributes":{
						"POSITION":68,
						"NORMAL":69,
						"TEXCOORD_0":70
					},
					"indices":71,
					"material":0
				}
			]
		},
		{
			"name":"Leaf_018.001",
			"primitives":[
				{
					"attributes":{
						"POSITION":72,
						"NORMAL":73,
						"TEXCOORD_0":74
					},
					"indices":75,
					"material":0
				}
			]
		},
		{
			"name":"Leaf_019.001",
			"primitives":[
				{
					"attributes":{
						"POSITION":76,
						"NORMAL":77,
						"TEXCOORD_0":78
					},
					"indices":79,
					"material":0
				}
			]
		},
		{
			"name":"Leaf_020.001",
			"primitives":[
				{
					"attributes":{
						"POSITION":80,
						"NORMAL":81,
						"TEXCOORD_0":82
					},
					"indices":83,
					"material":0
				}
			]
		},
		{
			"name":"Leaf_021.001",
			"primitives":[
				{
					"attributes":{
						"POSITION":84,
						"NORMAL":85,
						"TEXCOORD_0":86
					},
					"indices":7,
					"material":0
				}
			]
		},
		{
			"name":"Leaf_022.001",
			"primitives":[
				{
					"attributes":{
						"POSITION":87,
						"NORMAL":88,
						"TEXCOORD_0":89
					},
					"indices":90,
					"material":0
				}
			]
		},
		{
			"name":"Leaf_023.001",
			"primitives":[
				{
					"attributes":{
						"POSITION":91,
						"NORMAL":92,
						"TEXCOORD_0":93
					},
					"indices":15,
					"material":0
				}
			]
		},
		{
			"name":"Leaf_024.001",
			"primitives":[
				{
					"attributes":{
						"POSITION":94,
						"NORMAL":95,
						"TEXCOORD_0":96
					},
					"indices":23,
					"material":0
				}
			]
		},
		{
			"name":"Leaf_025.001",
			"primitives":[
				{
					"attributes":{
						"POSITION":97,
						"NORMAL":98,
						"TEXCOORD_0":99
					},
					"indices":100,
					"material":0
				}
			]
		},
		{
			"name":"Leaf_026.001",
			"primitives":[
				{
					"attributes":{
						"POSITION":101,
						"NORMAL":102,
						"TEXCOORD_0":103
					},
					"indices":104,
					"material":0
				}
			]
		},
		{
			"name":"Leaf_027.001",
			"primitives":[
				{
					"attributes":{
						"POSITION":105,
						"NORMAL":106,
						"TEXCOORD_0":107
					},
					"indices":108,
					"material":0
				}
			]
		},
		{
			"name":"Leaf_028",
			"primitives":[
				{
					"attributes":{
						"POSITION":109,
						"NORMAL":110,
						"TEXCOORD_0":111
					},
					"indices":112,
					"material":0
				}
			]
		},
		{
			"name":"Leaf_029",
			"primitives":[
				{
					"attributes":{
						"POSITION":113,
						"NORMAL":114,
						"TEXCOORD_0":115
					},
					"indices":116,
					"material":0
				}
			]
		},
		{
			"name":"Leaf_030",
			"primitives":[
				{
					"attributes":{
						"POSITION":117,
						"NORMAL":118,
						"TEXCOORD_0":119
					},
					"indices":120,
					"material":0
				}
			]
		},
		{
			"name":"Leaf_031",
			"primitives":[
				{
					"attributes":{
						"POSITION":121,
						"NORMAL":122,
						"TEXCOORD_0":123
					},
					"indices":63,
					"material":0
				}
			]
		},
		{
			"name":"Leaf_032",
			"primitives":[
				{
					"attributes":{
						"POSITION":124,
						"NORMAL":125,
						"TEXCOORD_0":126
					},
					"indices":127,
					"material":0
				}
			]
		},
		{
			"name":"Leaf_033",
			"primitives":[
				{
					"attributes":{
						"POSITION":128,
						"NORMAL":129,
						"TEXCOORD_0":130
					},
					"indices":131,
					"material":0
				}
			]
		},
		{
			"name":"Leaf_034",
			"primitives":[
				{
					"attributes":{
						"POSITION":132,
						"NORMAL":133,
						"TEXCOORD_0":134
					},
					"indices":135,
					"material":0
				}
			]
		},
		{
			"name":"Leaf_035",
			"primitives":[
				{
					"attributes":{
						"POSITION":136,
						"NORMAL":137,
						"TEXCOORD_0":138
					},
					"indices":139,
					"material":0
				}
			]
		},
		{
			"name":"Leaf_036",
			"primitives":[
				{
					"attributes":{
						"POSITION":140,
						"NORMAL":141,
						"TEXCOORD_0":142
					},
					"indices":143,
					"material":0
				}
			]
		},
		{
			"name":"Leaf_037",
			"primitives":[
				{
					"attributes":{
						"POSITION":144,
						"NORMAL":145,
						"TEXCOORD_0":146
					},
					"indices":147,
					"material":0
				}
			]
		},
		{
			"name":"Leaf_038",
			"primitives":[
				{
					"attributes":{
						"POSITION":148,
						"NORMAL":149,
						"TEXCOORD_0":150
					},
					"indices":151,
					"material":0
				}
			]
		},
		{
			"name":"Leaf_039",
			"primitives":[
				{
					"attributes":{
						"POSITION":152,
						"NORMAL":153,
						"TEXCOORD_0":154
					},
					"indices":27,
					"material":0
				}
			]
		},
		{
			"name":"Leaf_040",
			"primitives":[
				{
					"attributes":{
						"POSITION":155,
						"NORMAL":156,
						"TEXCOORD_0":157
					},
					"indices":158,
					"material":0
				}
			]
		},
		{
			"name":"Leaf_041",
			"primitives":[
				{
					"attributes":{
						"POSITION":159,
						"NORMAL":160,
						"TEXCOORD_0":161
					},
					"indices":162,
					"material":0
				}
			]
		},
		{
			"name":"Leaf_042",
			"primitives":[
				{
					"attributes":{
						"POSITION":163,
						"NORMAL":164,
						"TEXCOORD_0":165
					},
					"indices":166,
					"material":0
				}
			]
		},
		{
			"name":"Leaf_043",
			"primitives":[
				{
					"attributes":{
						"POSITION":167,
						"NORMAL":168,
						"TEXCOORD_0":169
					},
					"indices":170,
					"material":0
				}
			]
		},
		{
			"name":"Leaf_044",
			"primitives":[
				{
					"attributes":{
						"POSITION":171,
						"NORMAL":172,
						"TEXCOORD_0":173
					},
					"indices":59,
					"material":0
				}
			]
		},
		{
			"name":"Leaf_045",
			"primitives":[
				{
					"attributes":{
						"POSITION":174,
						"NORMAL":175,
						"TEXCOORD_0":176
					},
					"indices":177,
					"material":0
				}
			]
		},
		{
			"name":"Leaf_046",
			"primitives":[
				{
					"attributes":{
						"POSITION":178,
						"NORMAL":179,
						"TEXCOORD_0":180
					},
					"indices":75,
					"material":0
				}
			]
		},
		{
			"name":"Leaf_047",
			"primitives":[
				{
					"attributes":{
						"POSITION":181,
						"NORMAL":182,
						"TEXCOORD_0":183
					},
					"indices":184,
					"material":0
				}
			]
		},
		{
			"name":"Leaf_048",
			"primitives":[
				{
					"attributes":{
						"POSITION":185,
						"NORMAL":186,
						"TEXCOORD_0":187
					},
					"indices":188,
					"material":0
				}
			]
		},
		{
			"name":"Leaf_049",
			"primitives":[
				{
					"attributes":{
						"POSITION":189,
						"NORMAL":190,
						"TEXCOORD_0":191
					},
					"indices":192,
					"material":0
				}
			]
		},
		{
			"name":"Leaf_050",
			"primitives":[
				{
					"attributes":{
						"POSITION":193,
						"NORMAL":194,
						"TEXCOORD_0":195
					},
					"indices":196,
					"material":0
				}
			]
		},
		{
			"name":"Leaf_051",
			"primitives":[
				{
					"attributes":{
						"POSITION":197,
						"NORMAL":198,
						"TEXCOORD_0":199
					},
					"indices":184,
					"material":0
				}
			]
		},
		{
			"name":"Leaf_052",
			"primitives":[
				{
					"attributes":{
						"POSITION":200,
						"NORMAL":201,
						"TEXCOORD_0":202
					},
					"indices":203,
					"material":0
				}
			]
		},
		{
			"name":"Leaf_053",
			"primitives":[
				{
					"attributes":{
						"POSITION":204,
						"NORMAL":205,
						"TEXCOORD_0":206
					},
					"indices":207,
					"material":0
				}
			]
		},
		{
			"name":"Leaf_054",
			"primitives":[
				{
					"attributes":{
						"POSITION":208,
						"NORMAL":209,
						"TEXCOORD_0":210
					},
					"indices":177,
					"material":0
				}
			]
		},
		{
			"name":"Leaf_055",
			"primitives":[
				{
					"attributes":{
						"POSITION":211,
						"NORMAL":212,
						"TEXCOORD_0":213
					},
					"indices":162,
					"material":0
				}
			]
		},
		{
			"name":"Leaf_056",
			"primitives":[
				{
					"attributes":{
						"POSITION":214,
						"NORMAL":215,
						"TEXCOORD_0":216
					},
					"indices":116,
					"material":0
				}
			]
		},
		{
			"name":"Leaf_057",
			"primitives":[
				{
					"attributes":{
						"POSITION":217,
						"NORMAL":218,
						"TEXCOORD_0":219
					},
					"indices":27,
					"material":0
				}
			]
		},
		{
			"name":"Leaf_058",
			"primitives":[
				{
					"attributes":{
						"POSITION":220,
						"NORMAL":221,
						"TEXCOORD_0":222
					},
					"indices":223,
					"material":0
				}
			]
		},
		{
			"name":"Leaf_059",
			"primitives":[
				{
					"attributes":{
						"POSITION":224,
						"NORMAL":225,
						"TEXCOORD_0":226
					},
					"indices":63,
					"material":0
				}
			]
		},
		{
			"name":"Leaf_060",
			"primitives":[
				{
					"attributes":{
						"POSITION":227,
						"NORMAL":228,
						"TEXCOORD_0":229
					},
					"indices":162,
					"material":0
				}
			]
		},
		{
			"name":"Pot.002",
			"primitives":[
				{
					"attributes":{
						"POSITION":230,
						"NORMAL":231,
						"TEXCOORD_0":232
					},
					"indices":233,
					"material":1
				}
			]
		},
		{
			"name":"Saucer.002",
			"primitives":[
				{
					"attributes":{
						"POSITION":234,
						"NORMAL":235,
						"TEXCOORD_0":236
					},
					"indices":237,
					"material":2
				}
			]
		},
		{
			"name":"Soil.002",
			"primitives":[
				{
					"attributes":{
						"POSITION":238,
						"NORMAL":239,
						"TEXCOORD_0":240
					},
					"indices":241,
					"material":3
				}
			]
		}
	],
	"textures":[
		{
			"sampler":0,
			"source":0
		},
		{
			"sampler":0,
			"source":0
		},
		{
			"sampler":1,
			"source":1
		},
		{
			"sampler":1,
			"source":2
		},
		{
			"sampler":1,
			"source":3
		}
	],
	"images":[
		{
			"mimeType":"image/png",
			"name":"LeafTex",
			"uri":"LeafTex.png"
		},
		{
			"mimeType":"image/png",
			"name":"PotTex",
			"uri":"PotTex.png"
		},
		{
			"mimeType":"image/png",
			"name":"SaucerTex",
			"uri":"SaucerTex.png"
		},
		{
			"mimeType":"image/png",
			"name":"SoilTex",
			"uri":"SoilTex.png"
		}
	],
	"accessors":[
		{
			"bufferView":0,
			"componentType":5126,
			"count":64,
			"max":[
				0.7874107360839844,
				1.0648698806762695,
				0.1484709233045578
			],
			"min":[
				0.03884623944759369,
				0.6555723547935486,
				-0.14456962049007416
			],
			"type":"VEC3"
		},
		{
			"bufferView":1,
			"componentType":5126,
			"count":64,
			"type":"VEC3"
		},
		{
			"bufferView":2,
			"componentType":5126,
			"count":64,
			"type":"VEC2"
		},
		{
			"bufferView":3,
			"componentType":5123,
			"count":96,
			"type":"SCALAR"
		},
		{
			"bufferView":4,
			"componentType":5126,
			"count":64,
			"max":[
				0.6587580442428589,
				0.9961385130882263,
				0.11606398224830627
			],
			"min":[
				-0.017177488654851913,
				0.6558753252029419,
				-0.2589084208011627
			],
			"type":"VEC3"
		},
		{
			"bufferView":5,
			"componentType":5126,
			"count":64,
			"type":"VEC3"
		},
		{
			"bufferView":6,
			"componentType":5126,
			"count":64,
			"type":"VEC2"
		},
		{
			"bufferView":7,
			"componentType":5123,
			"count":96,
			"type":"SCALAR"
		},
		{
			"bufferView":8,
			"componentType":5126,
			"count":64,
			"max":[
				0.6705865859985352,
				1.0868102312088013,
				0.08661027252674103
			],
			"min":[
				-0.05896724388003349,
				0.6628299951553345,
				-0.5213178396224976
			],
			"type":"VEC3"
		},
		{
			"bufferView":9,
			"componentType":5126,
			"count":64,
			"type":"VEC3"
		},
		{
			"bufferView":10,
			"componentType":5126,
			"count":64,
			"type":"VEC2"
		},
		{
			"bufferView":11,
			"componentType":5123,
			"count":96,
			"type":"SCALAR"
		},
		{
			"bufferView":12,
			"componentType":5126,
			"count":64,
			"max":[
				0.33222725987434387,
				0.8900771737098694,
				0.05423678457736969
			],
			"min":[
				-0.1030617356300354,
				0.6658901572227478,
				-0.5230442881584167
			],
			"type":"VEC3"
		},
		{
			"bufferView":13,
			"componentType":5126,
			"count":64,
			"type":"VEC3"
		},
		{
			"bufferView":14,
			"componentType":5126,
			"count":64,
			"type":"VEC2"
		},
		{
			"bufferView":15,
			"componentType":5123,
			"count":96,
			"type":"SCALAR"
		},
		{
			"bufferView":16,
			"componentType":5126,
			"count":64,
			"max":[
				0.2264450639486313,
				0.9185503721237183,
				0.037128422409296036
			],
			"min":[
				-0.11133252084255219,
				0.66474449634552,
				-0.5509468913078308
			],
			"type":"VEC3"
		},
		{
			"bufferView":17,
			"componentType":5126,
			"count":64,
			"type":"VEC3"
		},
		{
			"bufferView":18,
			"componentType":5126,
			"count":64,
			"type":"VEC2"
		},
		{
			"bufferView":19,
			"componentType":5123,
			"count":96,
			"type":"SCALAR"
		},
		{
			"bufferView":20,
			"componentType":5126,
			"count":64,
			"max":[
				0.15843559801578522,
				0.9608498215675354,
				-0.04385329410433769
			],
			"min":[
				-0.15329892933368683,
				0.6548299789428711,
				-0.7966169118881226
			],
			"type":"VEC3"
		},
		{
			"bufferView":21,
			"componentType":5126,
			"count":64,
			"type":"VEC3"
		},
		{
			"bufferView":22,
			"componentType":5126,
			"count":64,
			"type":"VEC2"
		},
		{
			"bufferView":23,
			"componentType":5123,
			"count":96,
			"type":"SCALAR"
		},
		{
			"bufferView":24,
			"componentType":5126,
			"count":64,
			"max":[
				0.13932918012142181,
				0.9348147511482239,
				0.009847933426499367
			],
			"min":[
				-0.1657332479953766,
				0.6543030738830566,
				-0.6660420298576355
			],
			"type":"VEC3"
		},
		{
			"bufferView":25,
			"componentType":5126,
			"count":64,
			"type":"VEC3"
		},
		{
			"bufferView":26,
			"componentType":5126,
			"count":64,
			"type":"VEC2"
		},
		{
			"bufferView":27,
			"componentType":5123,
			"count":96,
			"type":"SCALAR"
		},
		{
			"bufferView":28,
			"componentType":5126,
			"count":64,
			"max":[
				0.12193001806735992,
				0.9405618906021118,
				0.07181728631258011
			],
			"min":[
				-0.3093521296977997,
				0.6647586226463318,
				-0.475329726934433
			],
			"type":"VEC3"
		},
		{
			"bufferView":29,
			"componentType":5126,
			"count":64,
			"type":"VEC3"
		},
		{
			"bufferView":30,
			"componentType":5126,
			"count":64,
			"type":"VEC2"
		},
		{
			"bufferView":31,
			"componentType":5123,
			"count":96,
			"type":"SCALAR"
		},
		{
			"bufferView":32,
			"componentType":5126,
			"count":64,
			"max":[
				0.053837552666664124,
				0.9419302940368652,
				0.1076153814792633
			],
			"min":[
				-0.5470390915870667,
				0.6623542308807373,
				-0.36811861395835876
			],
			"type":"VEC3"
		},
		{
			"bufferView":33,
			"componentType":5126,
			"count":64,
			"type":"VEC3"
		},
		{
			"bufferView":34,
			"componentType":5126,
			"count":64,
			"type":"VEC2"
		},
		{
			"bufferView":35,
			"componentType":5123,
			"count":96,
			"type":"SCALAR"
		},
		{
			"bufferView":36,
			"componentType":5126,
			"count":64,
			"max":[
				0.04924020171165466,
				0.8811033368110657,
				0.12919484078884125
			],
			"min":[
				-0.5059037804603577,
				0.6675176024436951,
				-0.21155476570129395
			],
			"type":"VEC3"
		},
		{
			"bufferView":37,
			"componentType":5126,
			"count":64,
			"type":"VEC3"
		},
		{
			"bufferView":38,
			"componentType":5126,
			"count":64,
			"type":"VEC2"
		},
		{
			"bufferView":39,
			"componentType":5123,
			"count":96,
			"type":"SCALAR"
		},
		{
			"bufferView":40,
			"componentType":5126,
			"count":64,
			"max":[
				-0.014996793121099472,
				0.8516621589660645,
				0.1599247008562088
			],
			"min":[
				-0.5397322773933411,
				0.6654804944992065,
				-0.1597098559141159
			],
			"type":"VEC3"
		},
		{
			"bufferView":41,
			"componentType":5126,
			"count":64,
			"type":"VEC3"
		},
		{
			"bufferView":42,
			"componentType":5126,
			"count":64,
			"type":"VEC2"
		},
		{
			"bufferView":43,
			"componentType":5123,
			"count":96,
			"type":"SCALAR"
		},
		{
			"bufferView":44,
			"componentType":5126,
			"count":64,
			"max":[
				0.0407073087990284,
				0.9341045618057251,
				0.16698651015758514
			],
			"min":[
				-0.6180267930030823,
				0.6496993899345398,
				-0.14265626668930054
			],
			"type":"VEC3"
		},
		{
			"bufferView":45,
			"componentType":5126,
			"count":64,
			"type":"VEC3"
		},
		{
			"bufferView":46,
			"componentType":5126,
			"count":64,
			"type":"VEC2"
		},
		{
			"bufferView":47,
			"componentType":5123,
			"count":96,
			"type":"SCALAR"
		},
		{
			"bufferView":48,
			"componentType":5126,
			"count":64,
			"max":[
				0.049746572971343994,
				0.9851279854774475,
				0.4246525764465332
			],
			"min":[
				-0.6365495920181274,
				0.6615063548088074,
				-0.08782731741666794
			],
			"type":"VEC3"
		},
		{
			"bufferView":49,
			"componentType":5126,
			"count":64,
			"type":"VEC3"
		},
		{
			"bufferView":50,
			"componentType":5126,
			"count":64,
			"type":"VEC2"
		},
		{
			"bufferView":51,
			"componentType":5123,
			"count":96,
			"type":"SCALAR"
		},
		{
			"bufferView":52,
			"componentType":5126,
			"count":64,
			"max":[
				0.0889395922422409,
				1.0259469747543335,
				0.6376584768295288
			],
			"min":[
				-0.4737778604030609,
				0.6626200079917908,
				-0.06522628664970398
			],
			"type":"VEC3"
		},
		{
			"bufferView":53,
			"componentType":5126,
			"count":64,
			"type":"VEC3"
		},
		{
			"bufferView":54,
			"componentType":5126,
			"count":64,
			"type":"VEC2"
		},
		{
			"bufferView":55,
			"componentType":5123,
			"count":96,
			"type":"SCALAR"
		},
		{
			"bufferView":56,
			"componentType":5126,
			"count":64,
			"max":[
				0.12072483450174332,
				0.897904098033905,
				0.5210632085800171
			],
			"min":[
				-0.1333252489566803,
				0.6515564322471619,
				-0.026825914159417152
			],
			"type":"VEC3"
		},
		{
			"bufferView":57,
			"componentType":5126,
			"count":64,
			"type":"VEC3"
		},
		{
			"bufferView":58,
			"componentType":5126,
			"count":64,
			"type":"VEC2"
		},
		{
			"bufferView":59,
			"componentType":5123,
			"count":96,
			"type":"SCALAR"
		},
		{
			"bufferView":60,
			"componentType":5126,
			"count":64,
			"max":[
				0.13780729472637177,
				0.9171293377876282,
				0.7159768342971802
			],
			"min":[
				-0.136129692196846,
				0.6555548906326294,
				0.03772414103150368
			],
			"type":"VEC3"
		},
		{
			"bufferView":61,
			"componentType":5126,
			"count":64,
			"type":"VEC3"
		},
		{
			"bufferView":62,
			"componentType":5126,
			"count":64,
			"type":"VEC2"
		},
		{
			"bufferView":63,
			"componentType":5123,
			"count":96,
			"type":"SCALAR"
		},
		{
			"bufferView":64,
			"componentType":5126,
			"count":64,
			"max":[
				0.19455213844776154,
				0.9541170597076416,
				0.8154429793357849
			],
			"min":[
				-0.10877104103565216,
				0.6569729447364807,
				0.019580427557229996
			],
			"type":"VEC3"
		},
		{
			"bufferView":65,
			"componentType":5126,
			"count":64,
			"type":"VEC3"
		},
		{
			"bufferView":66,
			"componentType":5126,
			"count":64,
			"type":"VEC2"
		},
		{
			"bufferView":67,
			"componentType":5123,
			"count":96,
			"type":"SCALAR"
		},
		{
			"bufferView":68,
			"componentType":5126,
			"count":64,
			"max":[
				0.4471648931503296,
				1.0118355751037598,
				0.685228705406189
			],
			"min":[
				-0.120206318795681,
				0.6561599969863892,
				-0.0760779082775116
			],
			"type":"VEC3"
		},
		{
			"bufferView":69,
			"componentType":5126,
			"count":64,
			"type":"VEC3"
		},
		{
			"bufferView":70,
			"componentType":5126,
			"count":64,
			"type":"VEC2"
		},
		{
			"bufferView":71,
			"componentType":5123,
			"count":96,
			"type":"SCALAR"
		},
		{
			"bufferView":72,
			"componentType":5126,
			"count":64,
			"max":[
				0.5380178093910217,
				0.9982497692108154,
				0.44688624143600464
			],
			"min":[
				-0.06548226624727249,
				0.65865558385849,
				-0.07526002079248428
			],
			"type":"VEC3"
		},
		{
			"bufferView":73,
			"componentType":5126,
			"count":64,
			"type":"VEC3"
		},
		{
			"bufferView":74,
			"componentType":5126,
			"count":64,
			"type":"VEC2"
		},
		{
			"bufferView":75,
			"componentType":5123,
			"count":96,
			"type":"SCALAR"
		},
		{
			"bufferView":76,
			"componentType":5126,
			"count":64,
			"max":[
				0.6258915662765503,
				0.9413195252418518,
				0.1798330843448639
			],
			"min":[
				-0.006596237421035767,
				0.6512921452522278,
				-0.14020530879497528
			],
			"type":"VEC3"
		},
		{
			"bufferView":77,
			"componentType":5126,
			"count":64,
			"type":"VEC3"
		},
		{
			"bufferView":78,
			"componentType":5126,
			"count":64,
			"type":"VEC2"
		},
		{
			"bufferView":79,
			"componentType":5123,
			"count":96,
			"type":"SCALAR"
		},
		{
			"bufferView":80,
			"componentType":5126,
			"count":64,
			"max":[
				0.5992381572723389,
				1.1476421356201172,
				0.11412259191274643
			],
			"min":[
				-0.010160667821764946,
				0.6608762145042419,
				-0.11444991081953049
			],
			"type":"VEC3"
		},
		{
			"bufferView":81,
			"componentType":5126,
			"count":64,
			"type":"VEC3"
		},
		{
			"bufferView":82,
			"componentType":5126,
			"count":64,
			"type":"VEC2"
		},
		{
			"bufferView":83,
			"componentType":5123,
			"count":96,
			"type":"SCALAR"
		},
		{
			"bufferView":84,
			"componentType":5126,
			"count":64,
			"max":[
				0.5164666175842285,
				1.2192825078964233,
				0.11689063906669617
			],
			"min":[
				-0.05175618827342987,
				0.6632819771766663,
				-0.31821173429489136
			],
			"type":"VEC3"
		},
		{
			"bufferView":85,
			"componentType":5126,
			"count":64,
			"type":"VEC3"
		},
		{
			"bufferView":86,
			"componentType":5126,
			"count":64,
			"type":"VEC2"
		},
		{
			"bufferView":87,
			"componentType":5126,
			"count":64,
			"max":[
				0.3554683327674866,
				1.049747347831726,
				0.06796200573444366
			],
			"min":[
				-0.07236719131469727,
				0.6612013578414917,
				-0.39387011528015137
			],
			"type":"VEC3"
		},
		{
			"bufferView":88,
			"componentType":5126,
			"count":64,
			"type":"VEC3"
		},
		{
			"bufferView":89,
			"componentType":5126,
			"count":64,
			"type":"VEC2"
		},
		{
			"bufferView":90,
			"componentType":5123,
			"count":96,
			"type":"SCALAR"
		},
		{
			"bufferView":91,
			"componentType":5126,
			"count":64,
			"max":[
				0.16506893932819366,
				1.0948158502578735,
				0.024715596809983253
			],
			"min":[
				-0.1415373980998993,
				0.6607638597488403,
				-0.42531919479370117
			],
			"type":"VEC3"
		},
		{
			"bufferView":92,
			"componentType":5126,
			"count":64,
			"type":"VEC3"
		},
		{
			"bufferView":93,
			"componentType":5126,
			"count":64,
			"type":"VEC2"
		},
		{
			"bufferView":94,
			"componentType":5126,
			"count":64,
			"max":[
				0.15260782837867737,
				1.0803667306900024,
				-0.011866693384945393
			],
			"min":[
				-0.1566220223903656,
				0.6690718531608582,
				-0.5537739992141724
			],
			"type":"VEC3"
		},
		{
			"bufferView":95,
			"componentType":5126,
			"count":64,
			"type":"VEC3"
		},
		{
			"bufferView":96,
			"componentType":5126,
			"count":64,
			"type":"VEC2"
		},
		{
			"bufferView":97,
			"componentType":5126,
			"count":64,
			"max":[
				0.12873558700084686,
				1.0118356943130493,
				0.062119681388139725
			],
			"min":[
				-0.22214177250862122,
				0.6629564762115479,
				-0.36645761132240295
			],
			"type":"VEC3"
		},
		{
			"bufferView":98,
			"componentType":5126,
			"count":64,
			"type":"VEC3"
		},
		{
			"bufferView":99,
			"componentType":5126,
			"count":64,
			"type":"VEC2"
		},
		{
			"bufferView":100,
			"componentType":5123,
			"count":96,
			"type":"SCALAR"
		},
		{
			"bufferView":101,
			"componentType":5126,
			"count":64,
			"max":[
				0.05763143301010132,
				1.137381911277771,
				0.09321674704551697
			],
			"min":[
				-0.4560248851776123,
				0.6673491597175598,
				-0.34799492359161377
			],
			"type":"VEC3"
		},
		{
			"bufferView":102,
			"componentType":5126,
			"count":64,
			"type":"VEC3"
		},
		{
			"bufferView":103,
			"componentType":5126,
			"count":64,
			"type":"VEC2"
		},
		{
			"bufferView":104,
			"componentType":5123,
			"count":96,
			"type":"SCALAR"
		},
		{
			"bufferView":105,
			"componentType":5126,
			"count":64,
			"max":[
				0.0027938447892665863,
				1.1348471641540527,
				0.08827930688858032
			],
			"min":[
				-0.6466298699378967,
				0.669979453086853,
				-0.2864319980144501
			],
			"type":"VEC3"
		},
		{
			"bufferView":106,
			"componentType":5126,
			"count":64,
			"type":"VEC3"
		},
		{
			"bufferView":107,
			"componentType":5126,
			"count":64,
			"type":"VEC2"
		},
		{
			"bufferView":108,
			"componentType":5123,
			"count":96,
			"type":"SCALAR"
		},
		{
			"bufferView":109,
			"componentType":5126,
			"count":64,
			"max":[
				-0.04319801926612854,
				1.100378155708313,
				0.139724463224411
			],
			"min":[
				-0.5737257599830627,
				0.6682196259498596,
				-0.14098939299583435
			],
			"type":"VEC3"
		},
		{
			"bufferView":110,
			"componentType":5126,
			"count":64,
			"type":"VEC3"
		},
		{
			"bufferView":111,
			"componentType":5126,
			"count":64,
			"type":"VEC2"
		},
		{
			"bufferView":112,
			"componentType":5123,
			"count":96,
			"type":"SCALAR"
		},
		{
			"bufferView":113,
			"componentType":5126,
			"count":64,
			"max":[
				0.019682377576828003,
				1.0473886728286743,
				0.22941263020038605
			],
			"min":[
				-0.4533151090145111,
				0.6632816195487976,
				-0.08183835446834564
			],
			"type":"VEC3"
		},
		{
			"bufferView":114,
			"componentType":5126,
			"count":64,
			"type":"VEC3"
		},
		{
			"bufferView":115,
			"componentType":5126,
			"count":64,
			"type":"VEC2"
		},
		{
			"bufferView":116,
			"componentType":5123,
			"count":96,
			"type":"SCALAR"
		},
		{
			"bufferView":117,
			"componentType":5126,
			"count":64,
			"max":[
				0.11850594729185104,
				1.2650164365768433,
				0.4670255184173584
			],
			"min":[
				-0.37780892848968506,
				0.6641457080841064,
				-0.08512479066848755
			],
			"type":"VEC3"
		},
		{
			"bufferView":118,
			"componentType":5126,
			"count":64,
			"type":"VEC3"
		},
		{
			"bufferView":119,
			"componentType":5126,
			"count":64,
			"type":"VEC2"
		},
		{
			"bufferView":120,
			"componentType":5123,
			"count":96,
			"type":"SCALAR"
		},
		{
			"bufferView":121,
			"componentType":5126,
			"count":64,
			"max":[
				0.12984250485897064,
				1.0091626644134521,
				0.45747044682502747
			],
			"min":[
				-0.17064817249774933,
				0.6659662127494812,
				-0.01649497076869011
			],
			"type":"VEC3"
		},
		{
			"bufferView":122,
			"componentType":5126,
			"count":64,
			"type":"VEC3"
		},
		{
			"bufferView":123,
			"componentType":5126,
			"count":64,
			"type":"VEC2"
		},
		{
			"bufferView":124,
			"componentType":5126,
			"count":64,
			"max":[
				0.12950900197029114,
				1.2297415733337402,
				0.6102858781814575
			],
			"min":[
				-0.12854695320129395,
				0.6673734784126282,
				0.02520062029361725
			],
			"type":"VEC3"
		},
		{
			"bufferView":125,
			"componentType":5126,
			"count":64,
			"type":"VEC3"
		},
		{
			"bufferView":126,
			"componentType":5126,
			"count":64,
			"type":"VEC2"
		},
		{
			"bufferView":127,
			"componentType":5123,
			"count":96,
			"type":"SCALAR"
		},
		{
			"bufferView":128,
			"componentType":5126,
			"count":64,
			"max":[
				0.35968878865242004,
				1.2376699447631836,
				0.572676956653595
			],
			"min":[
				-0.08578523993492126,
				0.6661142110824585,
				-0.023387569934129715
			],
			"type":"VEC3"
		},
		{
			"bufferView":129,
			"componentType":5126,
			"count":64,
			"type":"VEC3"
		},
		{
			"bufferView":130,
			"componentType":5126,
			"count":64,
			"type":"VEC2"
		},
		{
			"bufferView":131,
			"componentType":5123,
			"count":96,
			"type":"SCALAR"
		},
		{
			"bufferView":132,
			"componentType":5126,
			"count":64,
			"max":[
				0.3604196310043335,
				1.1223230361938477,
				0.3443838357925415
			],
			"min":[
				-0.1034255102276802,
				0.6667006611824036,
				-0.10415305197238922
			],
			"type":"VEC3"
		},
		{
			"bufferView":133,
			"componentType":5126,
			"count":64,
			"type":"VEC3"
		},
		{
			"bufferView":134,
			"componentType":5126,
			"count":64,
			"type":"VEC2"
		},
		{
			"bufferView":135,
			"componentType":5123,
			"count":96,
			"type":"SCALAR"
		},
		{
			"bufferView":136,
			"componentType":5126,
			"count":64,
			"max":[
				0.39295876026153564,
				1.0405820608139038,
				0.18865694105625153
			],
			"min":[
				-0.01309356838464737,
				0.6566376686096191,
				-0.10214738547801971
			],
			"type":"VEC3"
		},
		{
			"bufferView":137,
			"componentType":5126,
			"count":64,
			"type":"VEC3"
		},
		{
			"bufferView":138,
			"componentType":5126,
			"count":64,
			"type":"VEC2"
		},
		{
			"bufferView":139,
			"componentType":5123,
			"count":96,
			"type":"SCALAR"
		},
		{
			"bufferView":140,
			"componentType":5126,
			"count":64,
			"max":[
				0.26132461428642273,
				1.1087251901626587,
				0.12031011283397675
			],
			"min":[
				-0.01555713266134262,
				0.6653100252151489,
				-0.12044404447078705
			],
			"type":"VEC3"
		},
		{
			"bufferView":141,
			"componentType":5126,
			"count":64,
			"type":"VEC3"
		},
		{
			"bufferView":142,
			"componentType":5126,
			"count":64,
			"type":"VEC2"
		},
		{
			"bufferView":143,
			"componentType":5123,
			"count":96,
			"type":"SCALAR"
		},
		{
			"bufferView":144,
			"componentType":5126,
			"count":64,
			"max":[
				0.3184124529361725,
				1.3220176696777344,
				0.06142076477408409
			],
			"min":[
				-0.05553454905748367,
				0.6695524454116821,
				-0.29941651225090027
			],
			"type":"VEC3"
		},
		{
			"bufferView":145,
			"componentType":5126,
			"count":64,
			"type":"VEC3"
		},
		{
			"bufferView":146,
			"componentType":5126,
			"count":64,
			"type":"VEC2"
		},
		{
			"bufferView":147,
			"componentType":5123,
			"count":96,
			"type":"SCALAR"
		},
		{
			"bufferView":148,
			"componentType":5126,
			"count":64,
			"max":[
				0.20639668405056,
				1.2293872833251953,
				0.0158475823700428
			],
			"min":[
				-0.10480741411447525,
				0.6678885221481323,
				-0.4409809410572052
			],
			"type":"VEC3"
		},
		{
			"bufferView":149,
			"componentType":5126,
			"count":64,
			"type":"VEC3"
		},
		{
			"bufferView":150,
			"componentType":5126,
			"count":64,
			"type":"VEC2"
		},
		{
			"bufferView":151,
			"componentType":5123,
			"count":96,
			"type":"SCALAR"
		},
		{
			"bufferView":152,
			"componentType":5126,
			"count":64,
			"max":[
				0.14101123809814453,
				1.1742106676101685,
				-0.0027723144739866257
			],
			"min":[
				-0.14570102095603943,
				0.6607887744903564,
				-0.3172207474708557
			],
			"type":"VEC3"
		},
		{
			"bufferView":153,
			"componentType":5126,
			"count":64,
			"type":"VEC3"
		},
		{
			"bufferView":154,
			"componentType":5126,
			"count":64,
			"type":"VEC2"
		},
		{
			"bufferView":155,
			"componentType":5126,
			"count":64,
			"max":[
				0.06088676303625107,
				1.2550976276397705,
				0.04037965461611748
			],
			"min":[
				-0.36358609795570374,
				0.6604070663452148,
				-0.36978811025619507
			],
			"type":"VEC3"
		},
		{
			"bufferView":156,
			"componentType":5126,
			"count":64,
			"type":"VEC3"
		},
		{
			"bufferView":157,
			"componentType":5126,
			"count":64,
			"type":"VEC2"
		},
		{
			"bufferView":158,
			"componentType":5123,
			"count":96,
			"type":"SCALAR"
		},
		{
			"bufferView":159,
			"componentType":5126,
			"count":64,
			"max":[
				0.047607697546482086,
				1.1858114004135132,
				0.10562966763973236
			],
			"min":[
				-0.35567474365234375,
				0.6563296318054199,
				-0.17516200244426727
			],
			"type":"VEC3"
		},
		{
			"bufferView":160,
			"componentType":5126,
			"count":64,
			"type":"VEC3"
		},
		{
			"bufferView":161,
			"componentType":5126,
			"count":64,
			"type":"VEC2"
		},
		{
			"bufferView":162,
			"componentType":5123,
			"count":96,
			"type":"SCALAR"
		},
		{
			"bufferView":163,
			"componentType":5126,
			"count":64,
			"max":[
				-0.04244450479745865,
				1.0829318761825562,
				0.1524161845445633
			],
			"min":[
				-0.36619991064071655,
				0.6588479280471802,
				-0.1465170532464981
			],
			"type":"VEC3"
		},
		{
			"bufferView":164,
			"componentType":5126,
			"count":64,
			"type":"VEC3"
		},
		{
			"bufferView":165,
			"componentType":5126,
			"count":64,
			"type":"VEC2"
		},
		{
			"bufferView":166,
			"componentType":5123,
			"count":96,
			"type":"SCALAR"
		},
		{
			"bufferView":167,
			"componentType":5126,
			"count":64,
			"max":[
				0.07114499807357788,
				1.128052830696106,
				0.19266052544116974
			],
			"min":[
				-0.28458836674690247,
				0.6643455624580383,
				-0.09333404898643494
			],
			"type":"VEC3"
		},
		{
			"bufferView":168,
			"componentType":5126,
			"count":64,
			"type":"VEC3"
		},
		{
			"bufferView":169,
			"componentType":5126,
			"count":64,
			"type":"VEC2"
		},
		{
			"bufferView":170,
			"componentType":5123,
			"count":96,
			"type":"SCALAR"
		},
		{
			"bufferView":171,
			"componentType":5126,
			"count":64,
			"max":[
				0.10793149471282959,
				1.2613120079040527,
				0.4183952510356903
			],
			"min":[
				-0.22611647844314575,
				0.6671743392944336,
				-0.026058822870254517
			],
			"type":"VEC3"
		},
		{
			"bufferView":172,
			"componentType":5126,
			"count":64,
			"type":"VEC3"
		},
		{
			"bufferView":173,
			"componentType":5126,
			"count":64,
			"type":"VEC2"
		},
		{
			"bufferView":174,
			"componentType":5126,
			"count":64,
			"max":[
				0.15264034271240234,
				1.2158892154693604,
				0.4161731004714966
			],
			"min":[
				-0.14332315325737,
				0.6616011261940002,
				0.010049449279904366
			],
			"type":"VEC3"
		},
		{
			"bufferView":175,
			"componentType":5126,
			"count":64,
			"type":"VEC3"
		},
		{
			"bufferView":176,
			"componentType":5126,
			"count":64,
			"type":"VEC2"
		},
		{
			"bufferView":177,
			"componentType":5123,
			"count":96,
			"type":"SCALAR"
		},
		{
			"bufferView":178,
			"componentType":5126,
			"count":64,
			"max":[
				0.20424959063529968,
				1.1583501100540161,
				0.2857309579849243
			],
			"min":[
				-0.10210192203521729,
				0.6684345006942749,
				-0.06648111343383789
			],
			"type":"VEC3"
		},
		{
			"bufferView":179,
			"componentType":5126,
			"count":64,
			"type":"VEC3"
		},
		{
			"bufferView":180,
			"componentType":5126,
			"count":64,
			"type":"VEC2"
		},
		{
			"bufferView":181,
			"componentType":5126,
			"count":64,
			"max":[
				0.3727411925792694,
				1.2213414907455444,
				0.19501471519470215
			],
			"min":[
				-0.026807107031345367,
				0.6683377027511597,
				-0.11684776842594147
			],
			"type":"VEC3"
		},
		{
			"bufferView":182,
			"componentType":5126,
			"count":64,
			"type":"VEC3"
		},
		{
			"bufferView":183,
			"componentType":5126,
			"count":64,
			"type":"VEC2"
		},
		{
			"bufferView":184,
			"componentType":5123,
			"count":96,
			"type":"SCALAR"
		},
		{
			"bufferView":185,
			"componentType":5126,
			"count":64,
			"max":[
				0.28359609842300415,
				1.3392475843429565,
				0.10392118990421295
			],
			"min":[
				0.011933429166674614,
				0.6629645824432373,
				-0.12701676785945892
			],
			"type":"VEC3"
		},
		{
			"bufferView":186,
			"componentType":5126,
			"count":64,
			"type":"VEC3"
		},
		{
			"bufferView":187,
			"componentType":5126,
			"count":64,
			"type":"VEC2"
		},
		{
			"bufferView":188,
			"componentType":5123,
			"count":96,
			"type":"SCALAR"
		},
		{
			"bufferView":189,
			"componentType":5126,
			"count":64,
			"max":[
				0.14438967406749725,
				1.3115187883377075,
				0.05569516122341156
			],
			"min":[
				-0.10698948055505753,
				0.6691080927848816,
				-0.2267974317073822
			],
			"type":"VEC3"
		},
		{
			"bufferView":190,
			"componentType":5126,
			"count":64,
			"type":"VEC3"
		},
		{
			"bufferView":191,
			"componentType":5126,
			"count":64,
			"type":"VEC2"
		},
		{
			"bufferView":192,
			"componentType":5123,
			"count":96,
			"type":"SCALAR"
		},
		{
			"bufferView":193,
			"componentType":5126,
			"count":64,
			"max":[
				0.1332816779613495,
				1.2311325073242188,
				0.022149424999952316
			],
			"min":[
				-0.15151387453079224,
				0.6607627868652344,
				-0.21385438740253448
			],
			"type":"VEC3"
		},
		{
			"bufferView":194,
			"componentType":5126,
			"count":64,
			"type":"VEC3"
		},
		{
			"bufferView":195,
			"componentType":5126,
			"count":64,
			"type":"VEC2"
		},
		{
			"bufferView":196,
			"componentType":5123,
			"count":96,
			"type":"SCALAR"
		},
		{
			"bufferView":197,
			"componentType":5126,
			"count":64,
			"max":[
				0.03371880576014519,
				1.3528228998184204,
				0.10793386399745941
			],
			"min":[
				-0.2896466553211212,
				0.6674436330795288,
				-0.1692439168691635
			],
			"type":"VEC3"
		},
		{
			"bufferView":198,
			"componentType":5126,
			"count":64,
			"type":"VEC3"
		},
		{
			"bufferView":199,
			"componentType":5126,
			"count":64,
			"type":"VEC2"
		},
		{
			"bufferView":200,
			"componentType":5126,
			"count":64,
			"max":[
				0.04835311323404312,
				1.2089972496032715,
				0.14832036197185516
			],
			"min":[
				-0.2484193742275238,
				0.6623136401176453,
				-0.14110086858272552
			],
			"type":"VEC3"
		},
		{
			"bufferView":201,
			"componentType":5126,
			"count":64,
			"type":"VEC3"
		},
		{
			"bufferView":202,
			"componentType":5126,
			"count":64,
			"type":"VEC2"
		},
		{
			"bufferView":203,
			"componentType":5123,
			"count":96,
			"type":"SCALAR"
		},
		{
			"bufferView":204,
			"componentType":5126,
			"count":64,
			"max":[
				0.13220064342021942,
				1.2594681978225708,
				0.19239984452724457
			],
			"min":[
				-0.14005829393863678,
				0.6606086492538452,
				-0.07070364058017731
			],
			"type":"VEC3"
		},
		{
			"bufferView":205,
			"componentType":5126,
			"count":64,
			"type":"VEC3"
		},
		{
			"bufferView":206,
			"componentType":5126,
			"count":64,
			"type":"VEC2"
		},
		{
			"bufferView":207,
			"componentType":5123,
			"count":96,
			"type":"SCALAR"
		},
		{
			"bufferView":208,
			"componentType":5126,
			"count":64,
			"max":[
				0.16225844621658325,
				1.2920691967010498,
				0.28123223781585693
			],
			"min":[
				-0.1502055823802948,
				0.6643686890602112,
				0.004271918907761574
			],
			"type":"VEC3"
		},
		{
			"bufferView":209,
			"componentType":5126,
			"count":64,
			"type":"VEC3"
		},
		{
			"bufferView":210,
			"componentType":5126,
			"count":64,
			"type":"VEC2"
		},
		{
			"bufferView":211,
			"componentType":5126,
			"count":64,
			"max":[
				0.2868970036506653,
				1.283017873764038,
				0.1583404242992401
			],
			"min":[
				-0.045700300484895706,
				0.6625276803970337,
				-0.08029131591320038
			],
			"type":"VEC3"
		},
		{
			"bufferView":212,
			"componentType":5126,
			"count":64,
			"type":"VEC3"
		},
		{
			"bufferView":213,
			"componentType":5126,
			"count":64,
			"type":"VEC2"
		},
		{
			"bufferView":214,
			"componentType":5126,
			"count":64,
			"max":[
				0.2152501493692398,
				1.2714372873306274,
				0.10197816789150238
			],
			"min":[
				-0.022673390805721283,
				0.6696378588676453,
				-0.1482687145471573
			],
			"type":"VEC3"
		},
		{
			"bufferView":215,
			"componentType":5126,
			"count":64,
			"type":"VEC3"
		},
		{
			"bufferView":216,
			"componentType":5126,
			"count":64,
			"type":"VEC2"
		},
		{
			"bufferView":217,
			"componentType":5126,
			"count":64,
			"max":[
				0.09677183628082275,
				1.2749719619750977,
				-0.0015926510095596313
			],
			"min":[
				-0.11919619143009186,
				0.6688677668571472,
				-0.14842453598976135
			],
			"type":"VEC3"
		},
		{
			"bufferView":218,
			"componentType":5126,
			"count":64,
			"type":"VEC3"
		},
		{
			"bufferView":219,
			"componentType":5126,
			"count":64,
			"type":"VEC2"
		},
		{
			"bufferView":220,
			"componentType":5126,
			"count":64,
			"max":[
				-0.006105797365307808,
				1.2321114540100098,
				0.14733314514160156
			],
			"min":[
				-0.15760430693626404,
				0.6674243807792664,
				-0.14748957753181458
			],
			"type":"VEC3"
		},
		{
			"bufferView":221,
			"componentType":5126,
			"count":64,
			"type":"VEC3"
		},
		{
			"bufferView":222,
			"componentType":5126,
			"count":64,
			"type":"VEC2"
		},
		{
			"bufferView":223,
			"componentType":5123,
			"count":96,
			"type":"SCALAR"
		},
		{
			"bufferView":224,
			"componentType":5126,
			"count":64,
			"max":[
				0.11892922222614288,
				1.3026996850967407,
				0.2101651430130005
			],
			"min":[
				-0.1420043557882309,
				0.6657522916793823,
				0.012618977576494217
			],
			"type":"VEC3"
		},
		{
			"bufferView":225,
			"componentType":5126,
			"count":64,
			"type":"VEC3"
		},
		{
			"bufferView":226,
			"componentType":5126,
			"count":64,
			"type":"VEC2"
		},
		{
			"bufferView":227,
			"componentType":5126,
			"count":64,
			"max":[
				0.19753825664520264,
				1.3108365535736084,
				0.15728658437728882
			],
			"min":[
				-0.05323449522256851,
				0.6669137477874756,
				-0.09743780642747879
			],
			"type":"VEC3"
		},
		{
			"bufferView":228,
			"componentType":5126,
			"count":64,
			"type":"VEC3"
		},
		{
			"bufferView":229,
			"componentType":5126,
			"count":64,
			"type":"VEC2"
		},
		{
			"bufferView":230,
			"componentType":5126,
			"count":320,
			"max":[
				0.6600000262260437,
				0.699999988079071,
				0.6600000262260437
			],
			"min":[
				-0.6600000262260437,
				0,
				-0.6600000262260437
			],
			"type":"VEC3"
		},
		{
			"bufferView":231,
			"componentType":5126,
			"count":320,
			"type":"VEC3"
		},
		{
			"bufferView":232,
			"componentType":5126,
			"count":320,
			"type":"VEC2"
		},
		{
			"bufferView":233,
			"componentType":5123,
			"count":564,
			"type":"SCALAR"
		},
		{
			"bufferView":234,
			"componentType":5126,
			"count":80,
			"max":[
				0.7400000095367432,
				0.03999999910593033,
				0.7400000095367432
			],
			"min":[
				-0.7400000095367432,
				-0.05999999865889549,
				-0.7400000095367432
			],
			"type":"VEC3"
		},
		{
			"bufferView":235,
			"componentType":5126,
			"count":80,
			"type":"VEC3"
		},
		{
			"bufferView":236,
			"componentType":5126,
			"count":80,
			"type":"VEC2"
		},
		{
			"bufferView":237,
			"componentType":5123,
			"count":132,
			"type":"SCALAR"
		},
		{
			"bufferView":238,
			"componentType":5126,
			"count":56,
			"max":[
				0.5081337690353394,
				0.6600000262260437,
				0.5081337690353394
			],
			"min":[
				-0.5081337690353394,
				0.6399999856948853,
				-0.5081337690353394
			],
			"type":"VEC3"
		},
		{
			"bufferView":239,
			"componentType":5126,
			"count":56,
			"type":"VEC3"
		},
		{
			"bufferView":240,
			"componentType":5126,
			"count":56,
			"type":"VEC2"
		},
		{
			"bufferView":241,
			"componentType":5123,
			"count":72,
			"type":"SCALAR"
		}
	],
	"bufferViews":[
		{
			"buffer":0,
			"byteLength":768,
			"byteOffset":0,
			"target":34962
		},
		{
			"buffer":0,
			"byteLength":768,
			"byteOffset":768,
			"target":34962
		},
		{
			"buffer":0,
			"byteLength":512,
			"byteOffset":1536,
			"target":34962
		},
		{
			"buffer":0,
			"byteLength":192,
			"byteOffset":2048,
			"target":34963
		},
		{
			"buffer":0,
			"byteLength":768,
			"byteOffset":2240,
			"target":34962
		},
		{
			"buffer":0,
			"byteLength":768,
			"byteOffset":3008,
			"target":34962
		},
		{
			"buffer":0,
			"byteLength":512,
			"byteOffset":3776,
			"target":34962
		},
		{
			"buffer":0,
			"byteLength":192,
			"byteOffset":4288,
			"target":34963
		},
		{
			"buffer":0,
			"byteLength":768,
			"byteOffset":4480,
			"target":34962
		},
		{
			"buffer":0,
			"byteLength":768,
			"byteOffset":5248,
			"target":34962
		},
		{
			"buffer":0,
			"byteLength":512,
			"byteOffset":6016,
			"target":34962
		},
		{
			"buffer":0,
			"byteLength":192,
			"byteOffset":6528,
			"target":34963
		},
		{
			"buffer":0,
			"byteLength":768,
			"byteOffset":6720,
			"target":34962
		},
		{
			"buffer":0,
			"byteLength":768,
			"byteOffset":7488,
			"target":34962
		},
		{
			"buffer":0,
			"byteLength":512,
			"byteOffset":8256,
			"target":34962
		},
		{
			"buffer":0,
			"byteLength":192,
			"byteOffset":8768,
			"target":34963
		},
		{
			"buffer":0,
			"byteLength":768,
			"byteOffset":8960,
			"target":34962
		},
		{
			"buffer":0,
			"byteLength":768,
			"byteOffset":9728,
			"target":34962
		},
		{
			"buffer":0,
			"byteLength":512,
			"byteOffset":10496,
			"target":34962
		},
		{
			"buffer":0,
			"byteLength":192,
			"byteOffset":11008,
			"target":34963
		},
		{
			"buffer":0,
			"byteLength":768,
			"byteOffset":11200,
			"target":34962
		},
		{
			"buffer":0,
			"byteLength":768,
			"byteOffset":11968,
			"target":34962
		},
		{
			"buffer":0,
			"byteLength":512,
			"byteOffset":12736,
			"target":34962
		},
		{
			"buffer":0,
			"byteLength":192,
			"byteOffset":13248,
			"target":34963
		},
		{
			"buffer":0,
			"byteLength":768,
			"byteOffset":13440,
			"target":34962
		},
		{
			"buffer":0,
			"byteLength":768,
			"byteOffset":14208,
			"target":34962
		},
		{
			"buffer":0,
			"byteLength":512,
			"byteOffset":14976,
			"target":34962
		},
		{
			"buffer":0,
			"byteLength":192,
			"byteOffset":15488,
			"target":34963
		},
		{
			"buffer":0,
			"byteLength":768,
			"byteOffset":15680,
			"target":34962
		},
		{
			"buffer":0,
			"byteLength":768,
			"byteOffset":16448,
			"target":34962
		},
		{
			"buffer":0,
			"byteLength":512,
			"byteOffset":17216,
			"target":34962
		},
		{
			"buffer":0,
			"byteLength":192,
			"byteOffset":17728,
			"target":34963
		},
		{
			"buffer":0,
			"byteLength":768,
			"byteOffset":17920,
			"target":34962
		},
		{
			"buffer":0,
			"byteLength":768,
			"byteOffset":18688,
			"target":34962
		},
		{
			"buffer":0,
			"byteLength":512,
			"byteOffset":19456,
			"target":34962
		},
		{
			"buffer":0,
			"byteLength":192,
			"byteOffset":19968,
			"target":34963
		},
		{
			"buffer":0,
			"byteLength":768,
			"byteOffset":20160,
			"target":34962
		},
		{
			"buffer":0,
			"byteLength":768,
			"byteOffset":20928,
			"target":34962
		},
		{
			"buffer":0,
			"byteLength":512,
			"byteOffset":21696,
			"target":34962
		},
		{
			"buffer":0,
			"byteLength":192,
			"byteOffset":22208,
			"target":34963
		},
		{
			"buffer":0,
			"byteLength":768,
			"byteOffset":22400,
			"target":34962
		},
		{
			"buffer":0,
			"byteLength":768,
			"byteOffset":23168,
			"target":34962
		},
		{
			"buffer":0,
			"byteLength":512,
			"byteOffset":23936,
			"target":34962
		},
		{
			"buffer":0,
			"byteLength":192,
			"byteOffset":24448,
			"target":34963
		},
		{
			"buffer":0,
			"byteLength":768,
			"byteOffset":24640,
			"target":34962
		},
		{
			"buffer":0,
			"byteLength":768,
			"byteOffset":25408,
			"target":34962
		},
		{
			"buffer":0,
			"byteLength":512,
			"byteOffset":26176,
			"target":34962
		},
		{
			"buffer":0,
			"byteLength":192,
			"byteOffset":26688,
			"target":34963
		},
		{
			"buffer":0,
			"byteLength":768,
			"byteOffset":26880,
			"target":34962
		},
		{
			"buffer":0,
			"byteLength":768,
			"byteOffset":27648,
			"target":34962
		},
		{
			"buffer":0,
			"byteLength":512,
			"byteOffset":28416,
			"target":34962
		},
		{
			"buffer":0,
			"byteLength":192,
			"byteOffset":28928,
			"target":34963
		},
		{
			"buffer":0,
			"byteLength":768,
			"byteOffset":29120,
			"target":34962
		},
		{
			"buffer":0,
			"byteLength":768,
			"byteOffset":29888,
			"target":34962
		},
		{
			"buffer":0,
			"byteLength":512,
			"byteOffset":30656,
			"target":34962
		},
		{
			"buffer":0,
			"byteLength":192,
			"byteOffset":31168,
			"target":34963
		},
		{
			"buffer":0,
			"byteLength":768,
			"byteOffset":31360,
			"target":34962
		},
		{
			"buffer":0,
			"byteLength":768,
			"byteOffset":32128,
			"target":34962
		},
		{
			"buffer":0,
			"byteLength":512,
			"byteOffset":32896,
			"target":34962
		},
		{
			"buffer":0,
			"byteLength":192,
			"byteOffset":33408,
			"target":34963
		},
		{
			"buffer":0,
			"byteLength":768,
			"byteOffset":33600,
			"target":34962
		},
		{
			"buffer":0,
			"byteLength":768,
			"byteOffset":34368,
			"target":34962
		},
		{
			"buffer":0,
			"byteLength":512,
			"byteOffset":35136,
			"target":34962
		},
		{
			"buffer":0,
			"byteLength":192,
			"byteOffset":35648,
			"target":34963
		},
		{
			"buffer":0,
			"byteLength":768,
			"byteOffset":35840,
			"target":34962
		},
		{
			"buffer":0,
			"byteLength":768,
			"byteOffset":36608,
			"target":34962
		},
		{
			"buffer":0,
			"byteLength":512,
			"byteOffset":37376,
			"target":34962
		},
		{
			"buffer":0,
			"byteLength":192,
			"byteOffset":37888,
			"target":34963
		},
		{
			"buffer":0,
			"byteLength":768,
			"byteOffset":38080,
			"target":34962
		},
		{
			"buffer":0,
			"byteLength":768,
			"byteOffset":38848,
			"target":34962
		},
		{
			"buffer":0,
			"byteLength":512,
			"byteOffset":39616,
			"target":34962
		},
		{
			"buffer":0,
			"byteLength":192,
			"byteOffset":40128,
			"target":34963
		},
		{
			"buffer":0,
			"byteLength":768,
			"byteOffset":40320,
			"target":34962
		},
		{
			"buffer":0,
			"byteLength":768,
			"byteOffset":41088,
			"target":34962
		},
		{
			"buffer":0,
			"byteLength":512,
			"byteOffset":41856,
			"target":34962
		},
		{
			"buffer":0,
			"byteLength":192,
			"byteOffset":42368,
			"target":34963
		},
		{
			"buffer":0,
			"byteLength":768,
			"byteOffset":42560,
			"target":34962
		},
		{
			"buffer":0,
			"byteLength":768,
			"byteOffset":43328,
			"target":34962
		},
		{
			"buffer":0,
			"byteLength":512,
			"byteOffset":44096,
			"target":34962
		},
		{
			"buffer":0,
			"byteLength":192,
			"byteOffset":44608,
			"target":34963
		},
		{
			"buffer":0,
			"byteLength":768,
			"byteOffset":44800,
			"target":34962
		},
		{
			"buffer":0,
			"byteLength":768,
			"byteOffset":45568,
			"target":34962
		},
		{
			"buffer":0,
			"byteLength":512,
			"byteOffset":46336,
			"target":34962
		},
		{
			"buffer":0,
			"byteLength":192,
			"byteOffset":46848,
			"target":34963
		},
		{
			"buffer":0,
			"byteLength":768,
			"byteOffset":47040,
			"target":34962
		},
		{
			"buffer":0,
			"byteLength":768,
			"byteOffset":47808,
			"target":34962
		},
		{
			"buffer":0,
			"byteLength":512,
			"byteOffset":48576,
			"target":34962
		},
		{
			"buffer":0,
			"byteLength":768,
			"byteOffset":49088,
			"target":34962
		},
		{
			"buffer":0,
			"byteLength":768,
			"byteOffset":49856,
			"target":34962
		},
		{
			"buffer":0,
			"byteLength":512,
			"byteOffset":50624,
			"target":34962
		},
		{
			"buffer":0,
			"byteLength":192,
			"byteOffset":51136,
			"target":34963
		},
		{
			"buffer":0,
			"byteLength":768,
			"byteOffset":51328,
			"target":34962
		},
		{
			"buffer":0,
			"byteLength":768,
			"byteOffset":52096,
			"target":34962
		},
		{
			"buffer":0,
			"byteLength":512,
			"byteOffset":52864,
			"target":34962
		},
		{
			"buffer":0,
			"byteLength":768,
			"byteOffset":53376,
			"target":34962
		},
		{
			"buffer":0,
			"byteLength":768,
			"byteOffset":54144,
			"target":34962
		},
		{
			"buffer":0,
			"byteLength":512,
			"byteOffset":54912,
			"target":34962
		},
		{
			"buffer":0,
			"byteLength":768,
			"byteOffset":55424,
			"target":34962
		},
		{
			"buffer":0,
			"byteLength":768,
			"byteOffset":56192,
			"target":34962
		},
		{
			"buffer":0,
			"byteLength":512,
			"byteOffset":56960,
			"target":34962
		},
		{
			"buffer":0,
			"byteLength":192,
			"byteOffset":57472,
			"target":34963
		},
		{
			"buffer":0,
			"byteLength":768,
			"byteOffset":57664,
			"target":34962
		},
		{
			"buffer":0,
			"byteLength":768,
			"byteOffset":58432,
			"target":34962
		},
		{
			"buffer":0,
			"byteLength":512,
			"byteOffset":59200,
			"target":34962
		},
		{
			"buffer":0,
			"byteLength":192,
			"byteOffset":59712,
			"target":34963
		},
		{
			"buffer":0,
			"byteLength":768,
			"byteOffset":59904,
			"target":34962
		},
		{
			"buffer":0,
			"byteLength":768,
			"byteOffset":60672,
			"target":34962
		},
		{
			"buffer":0,
			"byteLength":512,
			"byteOffset":61440,
			"target":34962
		},
		{
			"buffer":0,
			"byteLength":192,
			"byteOffset":61952,
			"target":34963
		},
		{
			"buffer":0,
			"byteLength":768,
			"byteOffset":62144,
			"target":34962
		},
		{
			"buffer":0,
			"byteLength":768,
			"byteOffset":62912,
			"target":34962
		},
		{
			"buffer":0,
			"byteLength":512,
			"byteOffset":63680,
			"target":34962
		},
		{
			"buffer":0,
			"byteLength":192,
			"byteOffset":64192,
			"target":34963
		},
		{
			"buffer":0,
			"byteLength":768,
			"byteOffset":64384,
			"target":34962
		},
		{
			"buffer":0,
			"byteLength":768,
			"byteOffset":65152,
			"target":34962
		},
		{
			"buffer":0,
			"byteLength":512,
			"byteOffset":65920,
			"target":34962
		},
		{
			"buffer":0,
			"byteLength":192,
			"byteOffset":66432,
			"target":34963
		},
		{
			"buffer":0,
			"byteLength":768,
			"byteOffset":66624,
			"target":34962
		},
		{
			"buffer":0,
			"byteLength":768,
			"byteOffset":67392,
			"target":34962
		},
		{
			"buffer":0,
			"byteLength":512,
			"byteOffset":68160,
			"target":34962
		},
		{
			"buffer":0,
			"byteLength":192,
			"byteOffset":68672,
			"target":34963
		},
		{
			"buffer":0,
			"byteLength":768,
			"byteOffset":68864,
			"target":34962
		},
		{
			"buffer":0,
			"byteLength":768,
			"byteOffset":69632,
			"target":34962
		},
		{
			"buffer":0,
			"byteLength":512,
			"byteOffset":70400,
			"target":34962
		},
		{
			"buffer":0,
			"byteLength":768,
			"byteOffset":70912,
			"target":34962
		},
		{
			"buffer":0,
			"byteLength":768,
			"byteOffset":71680,
			"target":34962
		},
		{
			"buffer":0,
			"byteLength":512,
			"byteOffset":72448,
			"target":34962
		},
		{
			"buffer":0,
			"byteLength":192,
			"byteOffset":72960,
			"target":34963
		},
		{
			"buffer":0,
			"byteLength":768,
			"byteOffset":73152,
			"target":34962
		},
		{
			"buffer":0,
			"byteLength":768,
			"byteOffset":73920,
			"target":34962
		},
		{
			"buffer":0,
			"byteLength":512,
			"byteOffset":74688,
			"target":34962
		},
		{
			"buffer":0,
			"byteLength":192,
			"byteOffset":75200,
			"target":34963
		},
		{
			"buffer":0,
			"byteLength":768,
			"byteOffset":75392,
			"target":34962
		},
		{
			"buffer":0,
			"byteLength":768,
			"byteOffset":76160,
			"target":34962
		},
		{
			"buffer":0,
			"byteLength":512,
			"byteOffset":76928,
			"target":34962
		},
		{
			"buffer":0,
			"byteLength":192,
			"byteOffset":77440,
			"target":34963
		},
		{
			"buffer":0,
			"byteLength":768,
			"byteOffset":77632,
			"target":34962
		},
		{
			"buffer":0,
			"byteLength":768,
			"byteOffset":78400,
			"target":34962
		},
		{
			"buffer":0,
			"byteLength":512,
			"byteOffset":79168,
			"target":34962
		},
		{
			"buffer":0,
			"byteLength":192,
			"byteOffset":79680,
			"target":34963
		},
		{
			"buffer":0,
			"byteLength":768,
			"byteOffset":79872,
			"target":34962
		},
		{
			"buffer":0,
			"byteLength":768,
			"byteOffset":80640,
			"target":34962
		},
		{
			"buffer":0,
			"byteLength":512,
			"byteOffset":81408,
			"target":34962
		},
		{
			"buffer":0,
			"byteLength":192,
			"byteOffset":81920,
			"target":34963
		},
		{
			"buffer":0,
			"byteLength":768,
			"byteOffset":82112,
			"target":34962
		},
		{
			"buffer":0,
			"byteLength":768,
			"byteOffset":82880,
			"target":34962
		},
		{
			"buffer":0,
			"byteLength":512,
			"byteOffset":83648,
			"target":34962
		},
		{
			"buffer":0,
			"byteLength":192,
			"byteOffset":84160,
			"target":34963
		},
		{
			"buffer":0,
			"byteLength":768,
			"byteOffset":84352,
			"target":34962
		},
		{
			"buffer":0,
			"byteLength":768,
			"byteOffset":85120,
			"target":34962
		},
		{
			"buffer":0,
			"byteLength":512,
			"byteOffset":85888,
			"target":34962
		},
		{
			"buffer":0,
			"byteLength":192,
			"byteOffset":86400,
			"target":34963
		},
		{
			"buffer":0,
			"byteLength":768,
			"byteOffset":86592,
			"target":34962
		},
		{
			"buffer":0,
			"byteLength":768,
			"byteOffset":87360,
			"target":34962
		},
		{
			"buffer":0,
			"byteLength":512,
			"byteOffset":88128,
			"target":34962
		},
		{
			"buffer":0,
			"byteLength":768,
			"byteOffset":88640,
			"target":34962
		},
		{
			"buffer":0,
			"byteLength":768,
			"byteOffset":89408,
			"target":34962
		},
		{
			"buffer":0,
			"byteLength":512,
			"byteOffset":90176,
			"target":34962
		},
		{
			"buffer":0,
			"byteLength":192,
			"byteOffset":90688,
			"target":34963
		},
		{
			"buffer":0,
			"byteLength":768,
			"byteOffset":90880,
			"target":34962
		},
		{
			"buffer":0,
			"byteLength":768,
			"byteOffset":91648,
			"target":34962
		},
		{
			"buffer":0,
			"byteLength":512,
			"byteOffset":92416,
			"target":34962
		},
		{
			"buffer":0,
			"byteLength":192,
			"byteOffset":92928,
			"target":34963
		},
		{
			"buffer":0,
			"byteLength":768,
			"byteOffset":93120,
			"target":34962
		},
		{
			"buffer":0,
			"byteLength":768,
			"byteOffset":93888,
			"target":34962
		},
		{
			"buffer":0,
			"byteLength":512,
			"byteOffset":94656,
			"target":34962
		},
		{
			"buffer":0,
			"byteLength":192,
			"byteOffset":95168,
			"target":34963
		},
		{
			"buffer":0,
			"byteLength":768,
			"byteOffset":95360,
			"target":34962
		},
		{
			"buffer":0,
			"byteLength":768,
			"byteOffset":96128,
			"target":34962
		},
		{
			"buffer":0,
			"byteLength":512,
			"byteOffset":96896,
			"target":34962
		},
		{
			"buffer":0,
			"byteLength":192,
			"byteOffset":97408,
			"target":34963
		},
		{
			"buffer":0,
			"byteLength":768,
			"byteOffset":97600,
			"target":34962
		},
		{
			"buffer":0,
			"byteLength":768,
			"byteOffset":98368,
			"target":34962
		},
		{
			"buffer":0,
			"byteLength":512,
			"byteOffset":99136,
			"target":34962
		},
		{
			"buffer":0,
			"byteLength":768,
			"byteOffset":99648,
			"target":34962
		},
		{
			"buffer":0,
			"byteLength":768,
			"byteOffset":100416,
			"target":34962
		},
		{
			"buffer":0,
			"byteLength":512,
			"byteOffset":101184,
			"target":34962
		},
		{
			"buffer":0,
			"byteLength":192,
			"byteOffset":101696,
			"target":34963
		},
		{
			"buffer":0,
			"byteLength":768,
			"byteOffset":101888,
			"target":34962
		},
		{
			"buffer":0,
			"byteLength":768,
			"byteOffset":102656,
			"target":34962
		},
		{
			"buffer":0,
			"byteLength":512,
			"byteOffset":103424,
			"target":34962
		},
		{
			"buffer":0,
			"byteLength":768,
			"byteOffset":103936,
			"target":34962
		},
		{
			"buffer":0,
			"byteLength":768,
			"byteOffset":104704,
			"target":34962
		},
		{
			"buffer":0,
			"byteLength":512,
			"byteOffset":105472,
			"target":34962
		},
		{
			"buffer":0,
			"byteLength":192,
			"byteOffset":105984,
			"target":34963
		},
		{
			"buffer":0,
			"byteLength":768,
			"byteOffset":106176,
			"target":34962
		},
		{
			"buffer":0,
			"byteLength":768,
			"byteOffset":106944,
			"target":34962
		},
		{
			"buffer":0,
			"byteLength":512,
			"byteOffset":107712,
			"target":34962
		},
		{
			"buffer":0,
			"byteLength":192,
			"byteOffset":108224,
			"target":34963
		},
		{
			"buffer":0,
			"byteLength":768,
			"byteOffset":108416,
			"target":34962
		},
		{
			"buffer":0,
			"byteLength":768,
			"byteOffset":109184,
			"target":34962
		},
		{
			"buffer":0,
			"byteLength":512,
			"byteOffset":109952,
			"target":34962
		},
		{
			"buffer":0,
			"byteLength":192,
			"byteOffset":110464,
			"target":34963
		},
		{
			"buffer":0,
			"byteLength":768,
			"byteOffset":110656,
			"target":34962
		},
		{
			"buffer":0,
			"byteLength":768,
			"byteOffset":111424,
			"target":34962
		},
		{
			"buffer":0,
			"byteLength":512,
			"byteOffset":112192,
			"target":34962
		},
		{
			"buffer":0,
			"byteLength":192,
			"byteOffset":112704,
			"target":34963
		},
		{
			"buffer":0,
			"byteLength":768,
			"byteOffset":112896,
			"target":34962
		},
		{
			"buffer":0,
			"byteLength":768,
			"byteOffset":113664,
			"target":34962
		},
		{
			"buffer":0,
			"byteLength":512,
			"byteOffset":114432,
			"target":34962
		},
		{
			"buffer":0,
			"byteLength":768,
			"byteOffset":114944,
			"target":34962
		},
		{
			"buffer":0,
			"byteLength":768,
			"byteOffset":115712,
			"target":34962
		},
		{
			"buffer":0,
			"byteLength":512,
			"byteOffset":116480,
			"target":34962
		},
		{
			"buffer":0,
			"byteLength":192,
			"byteOffset":116992,
			"target":34963
		},
		{
			"buffer":0,
			"byteLength":768,
			"byteOffset":117184,
			"target":34962
		},
		{
			"buffer":0,
			"byteLength":768,
			"byteOffset":117952,
			"target":34962
		},
		{
			"buffer":0,
			"byteLength":512,
			"byteOffset":118720,
			"target":34962
		},
		{
			"buffer":0,
			"byteLength":192,
			"byteOffset":119232,
			"target":34963
		},
		{
			"buffer":0,
			"byteLength":768,
			"byteOffset":119424,
			"target":34962
		},
		{
			"buffer":0,
			"byteLength":768,
			"byteOffset":120192,
			"target":34962
		},
		{
			"buffer":0,
			"byteLength":512,
			"byteOffset":120960,
			"target":34962
		},
		{
			"buffer":0,
			"byteLength":768,
			"byteOffset":121472,
			"target":34962
		},
		{
			"buffer":0,
			"byteLength":768,
			"byteOffset":122240,
			"target":34962
		},
		{
			"buffer":0,
			"byteLength":512,
			"byteOffset":123008,
			"target":34962
		},
		{
			"buffer":0,
			"byteLength":768,
			"byteOffset":123520,
			"target":34962
		},
		{
			"buffer":0,
			"byteLength":768,
			"byteOffset":124288,
			"target":34962
		},
		{
			"buffer":0,
			"byteLength":512,
			"byteOffset":125056,
			"target":34962
		},
		{
			"buffer":0,
			"byteLength":768,
			"byteOffset":125568,
			"target":34962
		},
		{
			"buffer":0,
			"byteLength":768,
			"byteOffset":126336,
			"target":34962
		},
		{
			"buffer":0,
			"byteLength":512,
			"byteOffset":127104,
			"target":34962
		},
		{
			"buffer":0,
			"byteLength":768,
			"byteOffset":127616,
			"target":34962
		},
		{
			"buffer":0,
			"byteLength":768,
			"byteOffset":128384,
			"target":34962
		},
		{
			"buffer":0,
			"byteLength":512,
			"byteOffset":129152,
			"target":34962
		},
		{
			"buffer":0,
			"byteLength":192,
			"byteOffset":129664,
			"target":34963
		},
		{
			"buffer":0,
			"byteLength":768,
			"byteOffset":129856,
			"target":34962
		},
		{
			"buffer":0,
			"byteLength":768,
			"byteOffset":130624,
			"target":34962
		},
		{
			"buffer":0,
			"byteLength":512,
			"byteOffset":131392,
			"target":34962
		},
		{
			"buffer":0,
			"byteLength":768,
			"byteOffset":131904,
			"target":34962
		},
		{
			"buffer":0,
			"byteLength":768,
			"byteOffset":132672,
			"target":34962
		},
		{
			"buffer":0,
			"byteLength":512,
			"byteOffset":133440,
			"target":34962
		},
		{
			"buffer":0,
			"byteLength":3840,
			"byteOffset":133952,
			"target":34962
		},
		{
			"buffer":0,
			"byteLength":3840,
			"byteOffset":137792,
			"target":34962
		},
		{
			"buffer":0,
			"byteLength":2560,
			"byteOffset":141632,
			"target":34962
		},
		{
			"buffer":0,
			"byteLength":1128,
			"byteOffset":144192,
			"target":34963
		},
		{
			"buffer":0,
			"byteLength":960,
			"byteOffset":145320,
			"target":34962
		},
		{
			"buffer":0,
			"byteLength":960,
			"byteOffset":146280,
			"target":34962
		},
		{
			"buffer":0,
			"byteLength":640,
			"byteOffset":147240,
			"target":34962
		},
		{
			"buffer":0,
			"byteLength":264,
			"byteOffset":147880,
			"target":34963
		},
		{
			"buffer":0,
			"byteLength":672,
			"byteOffset":148144,
			"target":34962
		},
		{
			"buffer":0,
			"byteLength":672,
			"byteOffset":148816,
			"target":34962
		},
		{
			"buffer":0,
			"byteLength":448,
			"byteOffset":149488,
			"target":34962
		},
		{
			"buffer":0,
			"byteLength":144,
			"byteOffset":149936,
			"target":34963
		}
	],
	"samplers":[
		{
			"magFilter":9728,
			"minFilter":9984,
			"wrapS":33071,
			"wrapT":33071
		},
		{
			"magFilter":9728,
			"minFilter":9984
		}
	],
	"buffers":[
		{
			"byteLength":150080,
			"uri":"Haworthia.bin"
		}
	]
}
