{
	"asset":{
		"generator":"Khronos glTF Blender I/O v5.1.19",
		"version":"2.0"
	},
	"extensionsUsed":[
		"KHR_materials_specular"
	],
	"scene":0,
	"scenes":[
		{
			"name":"Scene",
			"nodes":[
				15
			]
		}
	],
	"nodes":[
		{
			"mesh":0,
			"name":"Branch_000"
		},
		{
			"mesh":1,
			"name":"Branch_001"
		},
		{
			"mesh":2,
			"name":"Branch_002"
		},
		{
			"mesh":3,
			"name":"Branch_003"
		},
		{
			"mesh":4,
			"name":"Branch_004"
		},
		{
			"mesh":5,
			"name":"Branch_005"
		},
		{
			"mesh":6,
			"name":"Branch_006"
		},
		{
			"mesh":7,
			"name":"Branch_007"
		},
		{
			"mesh":8,
			"name":"Branch_008"
		},
		{
			"mesh":9,
			"name":"Branch_009"
		},
		{
			"mesh":10,
			"name":"Branch_010"
		},
		{
			"mesh":11,
			"name":"Branch_011"
		},
		{
			"mesh":12,
			"name":"Pot.008"
		},
		{
			"mesh":13,
			"name":"Saucer.008"
		},
		{
			"mesh":14,
			"name":"Soil.008"
		},
		{
			"children":[
				0,
				1,
				2,
				3,
				4,
				5,
				6,
				7,
				8,
				9,
				10,
				11,
				12,
				13,
				14
			],
			"name":"GRP_Jasmine"
		}
	],
	"materials":[
		{
			"alphaMode":"BLEND",
			"doubleSided":true,
			"extensions":{
				"KHR_materials_specular":{
					"specularFactor":0.4000000059604645
				}
			},
			"name":"BranchMat",
			"pbrMetallicRoughness":{
				"baseColorTexture":{
					"index":0
				},
				"metallicFactor":0,
				"roughnessFactor":0.8500000238418579
			}
		},
		{
			"doubleSided":true,
			"extensions":{
				"KHR_materials_specular":{
					"specularFactor":0.4000000059604645
				}
			},
			"name":"PotMat.008",
			"pbrMetallicRoughness":{
				"baseColorTexture":{
					"index":1
				},
				"metallicFactor":0,
				"roughnessFactor":0.8500000238418579
			}
		},
		{
			"doubleSided":true,
			"extensions":{
				"KHR_materials_specular":{
					"specularFactor":0.4000000059604645
				}
			},
			"name":"SaucerMat.008",
			"pbrMetallicRoughness":{
				"baseColorTexture":{
					"index":2
				},
				"metallicFactor":0,
				"roughnessFactor":0.8500000238418579
			}
		},
		{
			"doubleSided":true,
			"extensions":{
				"KHR_materials_specular":{
					"specularFactor":0.4000000059604645
				}
			},
			"name":"SoilMat.008",
			"pbrMetallicRoughness":{
				"baseColorTexture":{
					"index":3
				},
				"metallicFactor":0,
				"roughnessFactor":0.8500000238418579
			}
		}
	],
	"meshes":[
		{
			"name":"Branch_000",
			"primitives":[
				{
					"attributes":{
						"POSITION":0,
						"NORMAL":1,
						"TEXCOORD_0":2
					},
					"indices":3,
					"material":0
				}
			]
		},
		{
			"name":"Branch_001",
			"primitives":[
				{
					"attributes":{
						"POSITION":4,
						"NORMAL":5,
						"TEXCOORD_0":6
					},
					"indices":3,
					"material":0
				}
			]
		},
		{
			"name":"Branch_002",
			"primitives":[
				{
					"attributes":{
						"POSITION":7,
						"NORMAL":8,
						"TEXCOORD_0":9
					},
					"indices":10,
					"material":0
				}
			]
		},
		{
			"name":"Branch_003",
			"primitives":[
				{
					"attributes":{
						"POSITION":11,
						"NORMAL":12,
						"TEXCOORD_0":13
					},
					"indices":14,
					"material":0
				}
			]
		},
		{
			"name":"Branch_004",
			"primitives":[
				{
					"attributes":{
						"POSITION":15,
						"NORMAL":16,
						"TEXCOORD_0":17
					},
					"indices":3,
					"material":0
				}
			]
		},
		{
			"name":"Branch_005",
			"primitives":[
				{
					"attributes":{
						"POSITION":18,
						"NORMAL":19,
						"TEXCOORD_0":20
					},
					"indices":14,
					"material":0
				}
			]
		},
		{
			"name":"Branch_006",
			"primitives":[
				{
					"attributes":{
						"POSITION":21,
						"NORMAL":22,
						"TEXCOORD_0":23
					},
					"indices":3,
					"material":0
				}
			]
		},
		{
			"name":"Branch_007",
			"primitives":[
				{
					"attributes":{
						"POSITION":24,
						"NORMAL":25,
						"TEXCOORD_0":26
					},
					"indices":3,
					"material":0
				}
			]
		},
		{
			"name":"Branch_008",
			"primitives":[
				{
					"attributes":{
						"POSITION":27,
						"NORMAL":28,
						"TEXCOORD_0":29
					},
					"indices":14,
					"material":0
				}
			]
		},
		{
			"name":"Branch_009",
			"primitives":[
				{
					"attributes":{
						"POSITION":30,
						"NORMAL":31,
						"TEXCOORD_0":32
					},
					"indices":33,
					"material":0
				}
			]
		},
		{
			"name":"Branch_010",
			"primitives":[
				{
					"attributes":{
						"POSITION":34,
						"NORMAL":35,
						"TEXCOORD_0":36
					},
					"indices":14,
					"material":0
				}
			]
		},
		{
			"name":"Branch_011",
			"primitives":[
				{
					"attributes":{
						"POSITION":37,
						"NORMAL":38,
						"TEXCOORD_0":39
					},
					"indices":40,
					"material":0
				}
			]
		},
		{
			"name":"Pot.008",
			"primitives":[
				{
					"attributes":{
						"POSITION":41,
						"NORMAL":42,
						"TEXCOORD_0":43
					},
					"indices":44,
					"material":1
				}
			]
		},
		{
			"name":"Saucer.008",
			"primitives":[
				{
					"attributes":{
						"POSITION":45,
						"NORMAL":46,
						"TEXCOORD_0":47
					},
					"indices":48,
					"material":2
				}
			]
		},
		{
			"name":"Soil.008",
			"primitives":[
				{
					"attributes":{
						"POSITION":49,
						"NORMAL":50,
						"TEXCOORD_0":51
					},
					"indices":52,
					"material":3
				}
			]
		}
	],
	"textures":[
		{
			"sampler":0,
			"source":0
		},
		{
			"sampler":1,
			"source":1
		},
		{
			"sampler":1,
			"source":2
		},
		{
			"sampler":1,
			"source":3
		}
	],
	"images":[
		{
			"mimeType":"image/png",
			"name":"JasmineBranchTex",
			"uri":"JasmineBranchTex.png"
		},
		{
			"mimeType":"image/png",
			"name":"PotTex",
			"uri":"PotTex.png"
		},
		{
			"mimeType":"image/png",
			"name":"SaucerTex",
			"uri":"SaucerTex.png"
		},
		{
			"mimeType":"image/png",
			"name":"SoilTex",
			"uri":"SoilTex.png"
		}
	],
	"accessors":[
		{
			"bufferView":0,
			"componentType":5126,
			"count":56,
			"max":[
				0.20157165825366974,
				2.7339465618133545,
				0.6352907419204712
			],
			"min":[
				-0.7252401113510132,
				1.0315824747085571,
				-0.31329232454299927
			],
			"type":"VEC3"
		},
		{
			"bufferView":1,
			"componentType":5126,
			"count":56,
			"type":"VEC3"
		},
		{
			"bufferView":2,
			"componentType":5126,
			"count":56,
			"type":"VEC2"
		},
		{
			"bufferView":3,
			"componentType":5123,
			"count":84,
			"type":"SCALAR"
		},
		{
			"bufferView":4,
			"componentType":5126,
			"count":56,
			"max":[
				0.1564141809940338,
				2.786436080932617,
				0.7426584362983704
			],
			"min":[
				-0.7508106231689453,
				1.036325454711914,
				-0.20596113801002502
			],
			"type":"VEC3"
		},
		{
			"bufferView":5,
			"componentType":5126,
			"count":56,
			"type":"VEC3"
		},
		{
			"bufferView":6,
			"componentType":5126,
			"count":56,
			"type":"VEC2"
		},
		{
			"bufferView":7,
			"componentType":5126,
			"count":56,
			"max":[
				0.4889655113220215,
				2.6822712421417236,
				0.1290416121482849
			],
			"min":[
				-0.36083346605300903,
				1.080344796180725,
				-0.7295874953269958
			],
			"type":"VEC3"
		},
		{
			"bufferView":8,
			"componentType":5126,
			"count":56,
			"type":"VEC3"
		},
		{
			"bufferView":9,
			"componentType":5126,
			"count":56,
			"type":"VEC2"
		},
		{
			"bufferView":10,
			"componentType":5123,
			"count":84,
			"type":"SCALAR"
		},
		{
			"bufferView":11,
			"componentType":5126,
			"count":56,
			"max":[
				0.5845930576324463,
				2.9187424182891846,
				0.7325482368469238
			],
			"min":[
				-0.3890289068222046,
				1.0818829536437988,
				-0.26868557929992676
			],
			"type":"VEC3"
		},
		{
			"bufferView":12,
			"componentType":5126,
			"count":56,
			"type":"VEC3"
		},
		{
			"bufferView":13,
			"componentType":5126,
			"count":56,
			"type":"VEC2"
		},
		{
			"bufferView":14,
			"componentType":5123,
			"count":84,
			"type":"SCALAR"
		},
		{
			"bufferView":15,
			"componentType":5126,
			"count":56,
			"max":[
				0.29138386249542236,
				3.128286361694336,
				0.07038196921348572
			],
			"min":[
				-0.6224474906921387,
				1.094749927520752,
				-1.0777475833892822
			],
			"type":"VEC3"
		},
		{
			"bufferView":16,
			"componentType":5126,
			"count":56,
			"type":"VEC3"
		},
		{
			"bufferView":17,
			"componentType":5126,
			"count":56,
			"type":"VEC2"
		},
		{
			"bufferView":18,
			"componentType":5126,
			"count":56,
			"max":[
				0.7928080558776855,
				2.505539894104004,
				0.8471091389656067
			],
			"min":[
				-0.16202548146247864,
				1.0665535926818848,
				-0.15085183084011078
			],
			"type":"VEC3"
		},
		{
			"bufferView":19,
			"componentType":5126,
			"count":56,
			"type":"VEC3"
		},
		{
			"bufferView":20,
			"componentType":5126,
			"count":56,
			"type":"VEC2"
		},
		{
			"bufferView":21,
			"componentType":5126,
			"count":56,
			"max":[
				0.11921709775924683,
				3.33701491355896,
				0.2699712812900543
			],
			"min":[
				-0.8509261608123779,
				1.0838757753372192,
				-0.6364320516586304
			],
			"type":"VEC3"
		},
		{
			"bufferView":22,
			"componentType":5126,
			"count":56,
			"type":"VEC3"
		},
		{
			"bufferView":23,
			"componentType":5126,
			"count":56,
			"type":"VEC2"
		},
		{
			"bufferView":24,
			"componentType":5126,
			"count":56,
			"max":[
				0.41193482279777527,
				2.8763227462768555,
				0.06913325935602188
			],
			"min":[
				-0.43039849400520325,
				1.033218264579773,
				-1.1083520650863647
			],
			"type":"VEC3"
		},
		{
			"bufferView":25,
			"componentType":5126,
			"count":56,
			"type":"VEC3"
		},
		{
			"bufferView":26,
			"componentType":5126,
			"count":56,
			"type":"VEC2"
		},
		{
			"bufferView":27,
			"componentType":5126,
			"count":56,
			"max":[
				1.1604492664337158,
				3.2310400009155273,
				0.12073144316673279
			],
			"min":[
				-0.08651488274335861,
				1.020624041557312,
				-0.6785445809364319
			],
			"type":"VEC3"
		},
		{
			"bufferView":28,
			"componentType":5126,
			"count":56,
			"type":"VEC3"
		},
		{
			"bufferView":29,
			"componentType":5126,
			"count":56,
			"type":"VEC2"
		},
		{
			"bufferView":30,
			"componentType":5126,
			"count":56,
			"max":[
				0.35071492195129395,
				3.0264570713043213,
				0.7780998349189758
			],
			"min":[
				-0.5254915952682495,
				1.070020079612732,
				-0.20792129635810852
			],
			"type":"VEC3"
		},
		{
			"bufferView":31,
			"componentType":5126,
			"count":56,
			"type":"VEC3"
		},
		{
			"bufferView":32,
			"componentType":5126,
			"count":56,
			"type":"VEC2"
		},
		{
			"bufferView":33,
			"componentType":5123,
			"count":84,
			"type":"SCALAR"
		},
		{
			"bufferView":34,
			"componentType":5126,
			"count":56,
			"max":[
				1.1544280052185059,
				3.3898720741271973,
				0.398457407951355
			],
			"min":[
				-0.10210183262825012,
				1.020913004875183,
				-0.5275138020515442
			],
			"type":"VEC3"
		},
		{
			"bufferView":35,
			"componentType":5126,
			"count":56,
			"type":"VEC3"
		},
		{
			"bufferView":36,
			"componentType":5126,
			"count":56,
			"type":"VEC2"
		},
		{
			"bufferView":37,
			"componentType":5126,
			"count":56,
			"max":[
				0.08695828914642334,
				2.7981619834899902,
				0.34735986590385437
			],
			"min":[
				-0.8611886501312256,
				1.0851826667785645,
				-0.5408969521522522
			],
			"type":"VEC3"
		},
		{
			"bufferView":38,
			"componentType":5126,
			"count":56,
			"type":"VEC3"
		},
		{
			"bufferView":39,
			"componentType":5126,
			"count":56,
			"type":"VEC2"
		},
		{
			"bufferView":40,
			"componentType":5123,
			"count":84,
			"type":"SCALAR"
		},
		{
			"bufferView":41,
			"componentType":5126,
			"count":352,
			"max":[
				0.7400000095367432,
				1.100000023841858,
				0.7400000095367432
			],
			"min":[
				-0.7400000095367432,
				0,
				-0.7400000095367432
			],
			"type":"VEC3"
		},
		{
			"bufferView":42,
			"componentType":5126,
			"count":352,
			"type":"VEC3"
		},
		{
			"bufferView":43,
			"componentType":5126,
			"count":352,
			"type":"VEC2"
		},
		{
			"bufferView":44,
			"componentType":5123,
			"count":564,
			"type":"SCALAR"
		},
		{
			"bufferView":45,
			"componentType":5126,
			"count":80,
			"max":[
				0.8199999928474426,
				0.03999999910593033,
				0.8199999928474426
			],
			"min":[
				-0.8199999928474426,
				-0.05999999865889549,
				-0.8199999928474426
			],
			"type":"VEC3"
		},
		{
			"bufferView":46,
			"componentType":5126,
			"count":80,
			"type":"VEC3"
		},
		{
			"bufferView":47,
			"componentType":5126,
			"count":80,
			"type":"VEC2"
		},
		{
			"bufferView":48,
			"componentType":5123,
			"count":132,
			"type":"SCALAR"
		},
		{
			"bufferView":49,
			"componentType":5126,
			"count":56,
			"max":[
				0.5728052854537964,
				1.059999942779541,
				0.5728052854537964
			],
			"min":[
				-0.5728052854537964,
				1.0399999618530273,
				-0.5728052854537964
			],
			"type":"VEC3"
		},
		{
			"bufferView":50,
			"componentType":5126,
			"count":56,
			"type":"VEC3"
		},
		{
			"bufferView":51,
			"componentType":5126,
			"count":56,
			"type":"VEC2"
		},
		{
			"bufferView":52,
			"componentType":5123,
			"count":72,
			"type":"SCALAR"
		}
	],
	"bufferViews":[
		{
			"buffer":0,
			"byteLength":672,
			"byteOffset":0,
			"target":34962
		},
		{
			"buffer":0,
			"byteLength":672,
			"byteOffset":672,
			"target":34962
		},
		{
			"buffer":0,
			"byteLength":448,
			"byteOffset":1344,
			"target":34962
		},
		{
			"buffer":0,
			"byteLength":168,
			"byteOffset":1792,
			"target":34963
		},
		{
			"buffer":0,
			"byteLength":672,
			"byteOffset":1960,
			"target":34962
		},
		{
			"buffer":0,
			"byteLength":672,
			"byteOffset":2632,
			"target":34962
		},
		{
			"buffer":0,
			"byteLength":448,
			"byteOffset":3304,
			"target":34962
		},
		{
			"buffer":0,
			"byteLength":672,
			"byteOffset":3752,
			"target":34962
		},
		{
			"buffer":0,
			"byteLength":672,
			"byteOffset":4424,
			"target":34962
		},
		{
			"buffer":0,
			"byteLength":448,
			"byteOffset":5096,
			"target":34962
		},
		{
			"buffer":0,
			"byteLength":168,
			"byteOffset":5544,
			"target":34963
		},
		{
			"buffer":0,
			"byteLength":672,
			"byteOffset":5712,
			"target":34962
		},
		{
			"buffer":0,
			"byteLength":672,
			"byteOffset":6384,
			"target":34962
		},
		{
			"buffer":0,
			"byteLength":448,
			"byteOffset":7056,
			"target":34962
		},
		{
			"buffer":0,
			"byteLength":168,
			"byteOffset":7504,
			"target":34963
		},
		{
			"buffer":0,
			"byteLength":672,
			"byteOffset":7672,
			"target":34962
		},
		{
			"buffer":0,
			"byteLength":672,
			"byteOffset":8344,
			"target":34962
		},
		{
			"buffer":0,
			"byteLength":448,
			"byteOffset":9016,
			"target":34962
		},
		{
			"buffer":0,
			"byteLength":672,
			"byteOffset":9464,
			"target":34962
		},
		{
			"buffer":0,
			"byteLength":672,
			"byteOffset":10136,
			"target":34962
		},
		{
			"buffer":0,
			"byteLength":448,
			"byteOffset":10808,
			"target":34962
		},
		{
			"buffer":0,
			"byteLength":672,
			"byteOffset":11256,
			"target":34962
		},
		{
			"buffer":0,
			"byteLength":672,
			"byteOffset":11928,
			"target":34962
		},
		{
			"buffer":0,
			"byteLength":448,
			"byteOffset":12600,
			"target":34962
		},
		{
			"buffer":0,
			"byteLength":672,
			"byteOffset":13048,
			"target":34962
		},
		{
			"buffer":0,
			"byteLength":672,
			"byteOffset":13720,
			"target":34962
		},
		{
			"buffer":0,
			"byteLength":448,
			"byteOffset":14392,
			"target":34962
		},
		{
			"buffer":0,
			"byteLength":672,
			"byteOffset":14840,
			"target":34962
		},
		{
			"buffer":0,
			"byteLength":672,
			"byteOffset":15512,
			"target":34962
		},
		{
			"buffer":0,
			"byteLength":448,
			"byteOffset":16184,
			"target":34962
		},
		{
			"buffer":0,
			"byteLength":672,
			"byteOffset":16632,
			"target":34962
		},
		{
			"buffer":0,
			"byteLength":672,
			"byteOffset":17304,
			"target":34962
		},
		{
			"buffer":0,
			"byteLength":448,
			"byteOffset":17976,
			"target":34962
		},
		{
			"buffer":0,
			"byteLength":168,
			"byteOffset":18424,
			"target":34963
		},
		{
			"buffer":0,
			"byteLength":672,
			"byteOffset":18592,
			"target":34962
		},
		{
			"buffer":0,
			"byteLength":672,
			"byteOffset":19264,
			"target":34962
		},
		{
			"buffer":0,
			"byteLength":448,
			"byteOffset":19936,
			"target":34962
		},
		{
			"buffer":0,
			"byteLength":672,
			"byteOffset":20384,
			"target":34962
		},
		{
			"buffer":0,
			"byteLength":672,
			"byteOffset":21056,
			"target":34962
		},
		{
			"buffer":0,
			"byteLength":448,
			"byteOffset":21728,
			"target":34962
		},
		{
			"buffer":0,
			"byteLength":168,
			"byteOffset":22176,
			"target":34963
		},
		{
			"buffer":0,
			"byteLength":4224,
			"byteOffset":22344,
			"target":34962
		},
		{
			"buffer":0,
			"byteLength":4224,
			"byteOffset":26568,
			"target":34962
		},
		{
			"buffer":0,
			"byteLength":2816,
			"byteOffset":30792,
			"target":34962
		},
		{
			"buffer":0,
			"byteLength":1128,
			"byteOffset":33608,
			"target":34963
		},
		{
			"buffer":0,
			"byteLength":960,
			"byteOffset":34736,
			"target":34962
		},
		{
			"buffer":0,
			"byteLength":960,
			"byteOffset":35696,
			"target":34962
		},
		{
			"buffer":0,
			"byteLength":640,
			"byteOffset":36656,
			"target":34962
		},
		{
			"buffer":0,
			"byteLength":264,
			"byteOffset":37296,
			"target":34963
		},
		{
			"buffer":0,
			"byteLength":672,
			"byteOffset":37560,
			"target":34962
		},
		{
			"buffer":0,
			"byteLength":672,
			"byteOffset":38232,
			"target":34962
		},
		{
			"buffer":0,
			"byteLength":448,
			"byteOffset":38904,
			"target":34962
		},
		{
			"buffer":0,
			"byteLength":144,
			"byteOffset":39352,
			"target":34963
		}
	],
	"samplers":[
		{
			"magFilter":9728,
			"minFilter":9984,
			"wrapS":33071,
			"wrapT":33071
		},
		{
			"magFilter":9728,
			"minFilter":9984
		}
	],
	"buffers":[
		{
			"byteLength":39496,
			"uri":"Jasmine.bin"
		}
	]
}
