{
	"asset":{
		"generator":"Khronos glTF Blender I/O v5.1.19",
		"version":"2.0"
	},
	"extensionsUsed":[
		"KHR_materials_specular"
	],
	"scene":0,
	"scenes":[
		{
			"name":"Scene",
			"nodes":[
				78
			]
		}
	],
	"nodes":[
		{
			"mesh":0,
			"name":"Leaf_000.004"
		},
		{
			"mesh":1,
			"name":"Leaf_001.004"
		},
		{
			"mesh":2,
			"name":"Leaf_002.004"
		},
		{
			"mesh":3,
			"name":"Leaf_003.004"
		},
		{
			"mesh":4,
			"name":"Leaf_004.004"
		},
		{
			"mesh":5,
			"name":"Leaf_005.004"
		},
		{
			"mesh":6,
			"name":"Leaf_006.004"
		},
		{
			"mesh":7,
			"name":"Leaf_007.004"
		},
		{
			"mesh":8,
			"name":"Leaf_008.004"
		},
		{
			"mesh":9,
			"name":"Leaf_009.004"
		},
		{
			"mesh":10,
			"name":"Leaf_010.004"
		},
		{
			"mesh":11,
			"name":"Leaf_011.004"
		},
		{
			"mesh":12,
			"name":"Leaf_012.004"
		},
		{
			"mesh":13,
			"name":"Leaf_013.003"
		},
		{
			"mesh":14,
			"name":"Leaf_014.004"
		},
		{
			"mesh":15,
			"name":"Leaf_015.004"
		},
		{
			"mesh":16,
			"name":"Leaf_016.004"
		},
		{
			"mesh":17,
			"name":"Leaf_017.004"
		},
		{
			"mesh":18,
			"name":"Leaf_018.004"
		},
		{
			"mesh":19,
			"name":"Leaf_019.004"
		},
		{
			"mesh":20,
			"name":"Leaf_020.004"
		},
		{
			"mesh":21,
			"name":"Leaf_021.004"
		},
		{
			"mesh":22,
			"name":"Leaf_022.004"
		},
		{
			"mesh":23,
			"name":"Leaf_023.003"
		},
		{
			"mesh":24,
			"name":"Leaf_024.004"
		},
		{
			"mesh":25,
			"name":"Leaf_025.004"
		},
		{
			"mesh":26,
			"name":"Leaf_026.004"
		},
		{
			"mesh":27,
			"name":"Leaf_027.003"
		},
		{
			"mesh":28,
			"name":"Leaf_028.003"
		},
		{
			"mesh":29,
			"name":"Leaf_029.003"
		},
		{
			"mesh":30,
			"name":"Leaf_030.003"
		},
		{
			"mesh":31,
			"name":"Leaf_031.003"
		},
		{
			"mesh":32,
			"name":"Petiole_000.001"
		},
		{
			"mesh":33,
			"name":"Petiole_001.001"
		},
		{
			"mesh":34,
			"name":"Petiole_002.001"
		},
		{
			"mesh":35,
			"name":"Petiole_003.001"
		},
		{
			"mesh":36,
			"name":"Petiole_004.001"
		},
		{
			"mesh":37,
			"name":"Petiole_005.001"
		},
		{
			"mesh":38,
			"name":"Petiole_006.001"
		},
		{
			"mesh":39,
			"name":"Petiole_007.001"
		},
		{
			"mesh":40,
			"name":"Petiole_008.001"
		},
		{
			"mesh":41,
			"name":"Petiole_009.001"
		},
		{
			"mesh":42,
			"name":"Petiole_010.001"
		},
		{
			"mesh":43,
			"name":"Petiole_011.001"
		},
		{
			"mesh":44,
			"name":"Petiole_012.001"
		},
		{
			"mesh":45,
			"name":"Petiole_013.001"
		},
		{
			"mesh":46,
			"name":"Petiole_014.001"
		},
		{
			"mesh":47,
			"name":"Petiole_015.001"
		},
		{
			"mesh":48,
			"name":"Petiole_016.001"
		},
		{
			"mesh":49,
			"name":"Petiole_017.001"
		},
		{
			"mesh":50,
			"name":"Petiole_018.001"
		},
		{
			"mesh":51,
			"name":"Petiole_019.001"
		},
		{
			"mesh":52,
			"name":"Petiole_020.001"
		},
		{
			"mesh":53,
			"name":"Petiole_021.001"
		},
		{
			"mesh":54,
			"name":"Petiole_022.001"
		},
		{
			"mesh":55,
			"name":"Petiole_023.001"
		},
		{
			"mesh":56,
			"name":"Petiole_024.001"
		},
		{
			"mesh":57,
			"name":"Petiole_025.001"
		},
		{
			"mesh":58,
			"name":"Petiole_026.001"
		},
		{
			"mesh":59,
			"name":"Petiole_027.001"
		},
		{
			"mesh":60,
			"name":"Petiole_028"
		},
		{
			"mesh":61,
			"name":"Petiole_029"
		},
		{
			"mesh":62,
			"name":"Petiole_030"
		},
		{
			"mesh":63,
			"name":"Petiole_031"
		},
		{
			"mesh":64,
			"name":"PlantBase.002"
		},
		{
			"mesh":65,
			"name":"Pot.005"
		},
		{
			"mesh":66,
			"name":"Saucer.005"
		},
		{
			"mesh":67,
			"name":"Soil.005"
		},
		{
			"mesh":68,
			"name":"Spathe_00"
		},
		{
			"mesh":69,
			"name":"Spathe_01"
		},
		{
			"mesh":70,
			"name":"Spathe_02"
		},
		{
			"mesh":71,
			"name":"Spathe_03"
		},
		{
			"mesh":72,
			"name":"Spathe_04"
		},
		{
			"mesh":73,
			"name":"SpathStalk_00"
		},
		{
			"mesh":74,
			"name":"SpathStalk_01"
		},
		{
			"mesh":75,
			"name":"SpathStalk_02"
		},
		{
			"mesh":76,
			"name":"SpathStalk_03"
		},
		{
			"mesh":77,
			"name":"SpathStalk_04"
		},
		{
			"children":[
				0,
				1,
				2,
				3,
				4,
				5,
				6,
				7,
				8,
				9,
				10,
				11,
				12,
				13,
				14,
				15,
				16,
				17,
				18,
				19,
				20,
				21,
				22,
				23,
				24,
				25,
				26,
				27,
				28,
				29,
				30,
				31,
				32,
				33,
				34,
				35,
				36,
				37,
				38,
				39,
				40,
				41,
				42,
				43,
				44,
				45,
				46,
				47,
				48,
				49,
				50,
				51,
				52,
				53,
				54,
				55,
				56,
				57,
				58,
				59,
				60,
				61,
				62,
				63,
				64,
				65,
				66,
				67,
				68,
				69,
				70,
				71,
				72,
				73,
				74,
				75,
				76,
				77
			],
			"name":"GRP_PeaceLily"
		}
	],
	"materials":[
		{
			"alphaMode":"BLEND",
			"doubleSided":true,
			"extensions":{
				"KHR_materials_specular":{
					"specularFactor":0.4000000059604645
				}
			},
			"name":"LeafMat.004",
			"normalTexture":{
				"index":0
			},
			"pbrMetallicRoughness":{
				"baseColorTexture":{
					"index":1
				},
				"metallicFactor":0,
				"roughnessFactor":0.8500000238418579
			}
		},
		{
			"doubleSided":true,
			"extensions":{
				"KHR_materials_specular":{
					"specularFactor":0.4000000059604645
				}
			},
			"name":"PetioleMat.001",
			"pbrMetallicRoughness":{
				"baseColorTexture":{
					"index":2
				},
				"metallicFactor":0,
				"roughnessFactor":0.8500000238418579
			}
		},
		{
			"doubleSided":true,
			"extensions":{
				"KHR_materials_specular":{
					"specularFactor":0.4000000059604645
				}
			},
			"name":"PotMat.005",
			"pbrMetallicRoughness":{
				"baseColorTexture":{
					"index":3
				},
				"metallicFactor":0,
				"roughnessFactor":0.8500000238418579
			}
		},
		{
			"doubleSided":true,
			"extensions":{
				"KHR_materials_specular":{
					"specularFactor":0.4000000059604645
				}
			},
			"name":"SaucerMat.005",
			"pbrMetallicRoughness":{
				"baseColorTexture":{
					"index":4
				},
				"metallicFactor":0,
				"roughnessFactor":0.8500000238418579
			}
		},
		{
			"doubleSided":true,
			"extensions":{
				"KHR_materials_specular":{
					"specularFactor":0.4000000059604645
				}
			},
			"name":"SoilMat.005",
			"pbrMetallicRoughness":{
				"baseColorTexture":{
					"index":5
				},
				"metallicFactor":0,
				"roughnessFactor":0.8500000238418579
			}
		},
		{
			"alphaMode":"BLEND",
			"doubleSided":true,
			"extensions":{
				"KHR_materials_specular":{
					"specularFactor":0.4000000059604645
				}
			},
			"name":"SpatheMat",
			"pbrMetallicRoughness":{
				"baseColorTexture":{
					"index":6
				},
				"metallicFactor":0,
				"roughnessFactor":0.8500000238418579
			}
		},
		{
			"doubleSided":true,
			"extensions":{
				"KHR_materials_specular":{
					"specularFactor":0.4000000059604645
				}
			},
			"name":"SpathStalkMat",
			"pbrMetallicRoughness":{
				"baseColorTexture":{
					"index":7
				},
				"metallicFactor":0,
				"roughnessFactor":0.8500000238418579
			}
		}
	],
	"meshes":[
		{
			"name":"Leaf_000.003",
			"primitives":[
				{
					"attributes":{
						"POSITION":0,
						"NORMAL":1,
						"TEXCOORD_0":2
					},
					"indices":3,
					"material":0
				}
			]
		},
		{
			"name":"Leaf_001.003",
			"primitives":[
				{
					"attributes":{
						"POSITION":4,
						"NORMAL":5,
						"TEXCOORD_0":6
					},
					"indices":7,
					"material":0
				}
			]
		},
		{
			"name":"Leaf_002.003",
			"primitives":[
				{
					"attributes":{
						"POSITION":8,
						"NORMAL":9,
						"TEXCOORD_0":10
					},
					"indices":11,
					"material":0
				}
			]
		},
		{
			"name":"Leaf_003.003",
			"primitives":[
				{
					"attributes":{
						"POSITION":12,
						"NORMAL":13,
						"TEXCOORD_0":14
					},
					"indices":15,
					"material":0
				}
			]
		},
		{
			"name":"Leaf_004.003",
			"primitives":[
				{
					"attributes":{
						"POSITION":16,
						"NORMAL":17,
						"TEXCOORD_0":18
					},
					"indices":19,
					"material":0
				}
			]
		},
		{
			"name":"Leaf_005.003",
			"primitives":[
				{
					"attributes":{
						"POSITION":20,
						"NORMAL":21,
						"TEXCOORD_0":22
					},
					"indices":23,
					"material":0
				}
			]
		},
		{
			"name":"Leaf_006.003",
			"primitives":[
				{
					"attributes":{
						"POSITION":24,
						"NORMAL":25,
						"TEXCOORD_0":26
					},
					"indices":27,
					"material":0
				}
			]
		},
		{
			"name":"Leaf_007.003",
			"primitives":[
				{
					"attributes":{
						"POSITION":28,
						"NORMAL":29,
						"TEXCOORD_0":30
					},
					"indices":31,
					"material":0
				}
			]
		},
		{
			"name":"Leaf_008.003",
			"primitives":[
				{
					"attributes":{
						"POSITION":32,
						"NORMAL":33,
						"TEXCOORD_0":34
					},
					"indices":35,
					"material":0
				}
			]
		},
		{
			"name":"Leaf_009.003",
			"primitives":[
				{
					"attributes":{
						"POSITION":36,
						"NORMAL":37,
						"TEXCOORD_0":38
					},
					"indices":39,
					"material":0
				}
			]
		},
		{
			"name":"Leaf_010.003",
			"primitives":[
				{
					"attributes":{
						"POSITION":40,
						"NORMAL":41,
						"TEXCOORD_0":42
					},
					"indices":43,
					"material":0
				}
			]
		},
		{
			"name":"Leaf_011.003",
			"primitives":[
				{
					"attributes":{
						"POSITION":44,
						"NORMAL":45,
						"TEXCOORD_0":46
					},
					"indices":47,
					"material":0
				}
			]
		},
		{
			"name":"Leaf_012.003",
			"primitives":[
				{
					"attributes":{
						"POSITION":48,
						"NORMAL":49,
						"TEXCOORD_0":50
					},
					"indices":51,
					"material":0
				}
			]
		},
		{
			"name":"Leaf_013.003",
			"primitives":[
				{
					"attributes":{
						"POSITION":52,
						"NORMAL":53,
						"TEXCOORD_0":54
					},
					"indices":55,
					"material":0
				}
			]
		},
		{
			"name":"Leaf_014.003",
			"primitives":[
				{
					"attributes":{
						"POSITION":56,
						"NORMAL":57,
						"TEXCOORD_0":58
					},
					"indices":31,
					"material":0
				}
			]
		},
		{
			"name":"Leaf_015.003",
			"primitives":[
				{
					"attributes":{
						"POSITION":59,
						"NORMAL":60,
						"TEXCOORD_0":61
					},
					"indices":62,
					"material":0
				}
			]
		},
		{
			"name":"Leaf_016.003",
			"primitives":[
				{
					"attributes":{
						"POSITION":63,
						"NORMAL":64,
						"TEXCOORD_0":65
					},
					"indices":66,
					"material":0
				}
			]
		},
		{
			"name":"Leaf_017.003",
			"primitives":[
				{
					"attributes":{
						"POSITION":67,
						"NORMAL":68,
						"TEXCOORD_0":69
					},
					"indices":62,
					"material":0
				}
			]
		},
		{
			"name":"Leaf_018.003",
			"primitives":[
				{
					"attributes":{
						"POSITION":70,
						"NORMAL":71,
						"TEXCOORD_0":72
					},
					"indices":73,
					"material":0
				}
			]
		},
		{
			"name":"Leaf_019.003",
			"primitives":[
				{
					"attributes":{
						"POSITION":74,
						"NORMAL":75,
						"TEXCOORD_0":76
					},
					"indices":77,
					"material":0
				}
			]
		},
		{
			"name":"Leaf_020.003",
			"primitives":[
				{
					"attributes":{
						"POSITION":78,
						"NORMAL":79,
						"TEXCOORD_0":80
					},
					"indices":81,
					"material":0
				}
			]
		},
		{
			"name":"Leaf_021.003",
			"primitives":[
				{
					"attributes":{
						"POSITION":82,
						"NORMAL":83,
						"TEXCOORD_0":84
					},
					"indices":85,
					"material":0
				}
			]
		},
		{
			"name":"Leaf_022.003",
			"primitives":[
				{
					"attributes":{
						"POSITION":86,
						"NORMAL":87,
						"TEXCOORD_0":88
					},
					"indices":89,
					"material":0
				}
			]
		},
		{
			"name":"Leaf_023.003",
			"primitives":[
				{
					"attributes":{
						"POSITION":90,
						"NORMAL":91,
						"TEXCOORD_0":92
					},
					"indices":93,
					"material":0
				}
			]
		},
		{
			"name":"Leaf_024.003",
			"primitives":[
				{
					"attributes":{
						"POSITION":94,
						"NORMAL":95,
						"TEXCOORD_0":96
					},
					"indices":97,
					"material":0
				}
			]
		},
		{
			"name":"Leaf_025.003",
			"primitives":[
				{
					"attributes":{
						"POSITION":98,
						"NORMAL":99,
						"TEXCOORD_0":100
					},
					"indices":101,
					"material":0
				}
			]
		},
		{
			"name":"Leaf_026.003",
			"primitives":[
				{
					"attributes":{
						"POSITION":102,
						"NORMAL":103,
						"TEXCOORD_0":104
					},
					"indices":105,
					"material":0
				}
			]
		},
		{
			"name":"Leaf_027.003",
			"primitives":[
				{
					"attributes":{
						"POSITION":106,
						"NORMAL":107,
						"TEXCOORD_0":108
					},
					"indices":109,
					"material":0
				}
			]
		},
		{
			"name":"Leaf_028.002",
			"primitives":[
				{
					"attributes":{
						"POSITION":110,
						"NORMAL":111,
						"TEXCOORD_0":112
					},
					"indices":113,
					"material":0
				}
			]
		},
		{
			"name":"Leaf_029.011",
			"primitives":[
				{
					"attributes":{
						"POSITION":114,
						"NORMAL":115,
						"TEXCOORD_0":116
					},
					"indices":117,
					"material":0
				}
			]
		},
		{
			"name":"Leaf_030.002",
			"primitives":[
				{
					"attributes":{
						"POSITION":118,
						"NORMAL":119,
						"TEXCOORD_0":120
					},
					"indices":121,
					"material":0
				}
			]
		},
		{
			"name":"Leaf_031.002",
			"primitives":[
				{
					"attributes":{
						"POSITION":122,
						"NORMAL":123,
						"TEXCOORD_0":124
					},
					"indices":125,
					"material":0
				}
			]
		},
		{
			"name":"Petiole_000.001",
			"primitives":[
				{
					"attributes":{
						"POSITION":126,
						"NORMAL":127,
						"TEXCOORD_0":128
					},
					"indices":129,
					"material":1
				}
			]
		},
		{
			"name":"Petiole_001.001",
			"primitives":[
				{
					"attributes":{
						"POSITION":130,
						"NORMAL":131,
						"TEXCOORD_0":132
					},
					"indices":133,
					"material":1
				}
			]
		},
		{
			"name":"Petiole_002.001",
			"primitives":[
				{
					"attributes":{
						"POSITION":134,
						"NORMAL":135,
						"TEXCOORD_0":136
					},
					"indices":137,
					"material":1
				}
			]
		},
		{
			"name":"Petiole_003.001",
			"primitives":[
				{
					"attributes":{
						"POSITION":138,
						"NORMAL":139,
						"TEXCOORD_0":140
					},
					"indices":141,
					"material":1
				}
			]
		},
		{
			"name":"Petiole_004.001",
			"primitives":[
				{
					"attributes":{
						"POSITION":142,
						"NORMAL":143,
						"TEXCOORD_0":144
					},
					"indices":145,
					"material":1
				}
			]
		},
		{
			"name":"Petiole_005.001",
			"primitives":[
				{
					"attributes":{
						"POSITION":146,
						"NORMAL":147,
						"TEXCOORD_0":148
					},
					"indices":149,
					"material":1
				}
			]
		},
		{
			"name":"Petiole_006.001",
			"primitives":[
				{
					"attributes":{
						"POSITION":150,
						"NORMAL":151,
						"TEXCOORD_0":152
					},
					"indices":153,
					"material":1
				}
			]
		},
		{
			"name":"Petiole_007.002",
			"primitives":[
				{
					"attributes":{
						"POSITION":154,
						"NORMAL":155,
						"TEXCOORD_0":156
					},
					"indices":157,
					"material":1
				}
			]
		},
		{
			"name":"Petiole_008.001",
			"primitives":[
				{
					"attributes":{
						"POSITION":158,
						"NORMAL":159,
						"TEXCOORD_0":160
					},
					"indices":161,
					"material":1
				}
			]
		},
		{
			"name":"Petiole_009.001",
			"primitives":[
				{
					"attributes":{
						"POSITION":162,
						"NORMAL":163,
						"TEXCOORD_0":164
					},
					"indices":165,
					"material":1
				}
			]
		},
		{
			"name":"Petiole_010.001",
			"primitives":[
				{
					"attributes":{
						"POSITION":166,
						"NORMAL":167,
						"TEXCOORD_0":168
					},
					"indices":169,
					"material":1
				}
			]
		},
		{
			"name":"Petiole_011.001",
			"primitives":[
				{
					"attributes":{
						"POSITION":170,
						"NORMAL":171,
						"TEXCOORD_0":172
					},
					"indices":173,
					"material":1
				}
			]
		},
		{
			"name":"Petiole_012.001",
			"primitives":[
				{
					"attributes":{
						"POSITION":174,
						"NORMAL":175,
						"TEXCOORD_0":176
					},
					"indices":177,
					"material":1
				}
			]
		},
		{
			"name":"Petiole_013.001",
			"primitives":[
				{
					"attributes":{
						"POSITION":178,
						"NORMAL":179,
						"TEXCOORD_0":180
					},
					"indices":181,
					"material":1
				}
			]
		},
		{
			"name":"Petiole_014.001",
			"primitives":[
				{
					"attributes":{
						"POSITION":182,
						"NORMAL":183,
						"TEXCOORD_0":184
					},
					"indices":185,
					"material":1
				}
			]
		},
		{
			"name":"Petiole_015.001",
			"primitives":[
				{
					"attributes":{
						"POSITION":186,
						"NORMAL":187,
						"TEXCOORD_0":188
					},
					"indices":189,
					"material":1
				}
			]
		},
		{
			"name":"Petiole_016.001",
			"primitives":[
				{
					"attributes":{
						"POSITION":190,
						"NORMAL":191,
						"TEXCOORD_0":192
					},
					"indices":193,
					"material":1
				}
			]
		},
		{
			"name":"Petiole_017.001",
			"primitives":[
				{
					"attributes":{
						"POSITION":194,
						"NORMAL":195,
						"TEXCOORD_0":196
					},
					"indices":197,
					"material":1
				}
			]
		},
		{
			"name":"Petiole_018.001",
			"primitives":[
				{
					"attributes":{
						"POSITION":198,
						"NORMAL":199,
						"TEXCOORD_0":200
					},
					"indices":201,
					"material":1
				}
			]
		},
		{
			"name":"Petiole_019.001",
			"primitives":[
				{
					"attributes":{
						"POSITION":202,
						"NORMAL":203,
						"TEXCOORD_0":204
					},
					"indices":205,
					"material":1
				}
			]
		},
		{
			"name":"Petiole_020.001",
			"primitives":[
				{
					"attributes":{
						"POSITION":206,
						"NORMAL":207,
						"TEXCOORD_0":208
					},
					"indices":209,
					"material":1
				}
			]
		},
		{
			"name":"Petiole_021.001",
			"primitives":[
				{
					"attributes":{
						"POSITION":210,
						"NORMAL":211,
						"TEXCOORD_0":212
					},
					"indices":213,
					"material":1
				}
			]
		},
		{
			"name":"Petiole_022.001",
			"primitives":[
				{
					"attributes":{
						"POSITION":214,
						"NORMAL":215,
						"TEXCOORD_0":216
					},
					"indices":217,
					"material":1
				}
			]
		},
		{
			"name":"Petiole_023.001",
			"primitives":[
				{
					"attributes":{
						"POSITION":218,
						"NORMAL":219,
						"TEXCOORD_0":220
					},
					"indices":221,
					"material":1
				}
			]
		},
		{
			"name":"Petiole_024.001",
			"primitives":[
				{
					"attributes":{
						"POSITION":222,
						"NORMAL":223,
						"TEXCOORD_0":224
					},
					"indices":225,
					"material":1
				}
			]
		},
		{
			"name":"Petiole_025.001",
			"primitives":[
				{
					"attributes":{
						"POSITION":226,
						"NORMAL":227,
						"TEXCOORD_0":228
					},
					"indices":229,
					"material":1
				}
			]
		},
		{
			"name":"Petiole_026.001",
			"primitives":[
				{
					"attributes":{
						"POSITION":230,
						"NORMAL":231,
						"TEXCOORD_0":232
					},
					"indices":233,
					"material":1
				}
			]
		},
		{
			"name":"Petiole_027.001",
			"primitives":[
				{
					"attributes":{
						"POSITION":234,
						"NORMAL":235,
						"TEXCOORD_0":236
					},
					"indices":237,
					"material":1
				}
			]
		},
		{
			"name":"Petiole_028",
			"primitives":[
				{
					"attributes":{
						"POSITION":238,
						"NORMAL":239,
						"TEXCOORD_0":240
					},
					"indices":241,
					"material":1
				}
			]
		},
		{
			"name":"Petiole_029.011",
			"primitives":[
				{
					"attributes":{
						"POSITION":242,
						"NORMAL":243,
						"TEXCOORD_0":244
					},
					"indices":245,
					"material":1
				}
			]
		},
		{
			"name":"Petiole_030",
			"primitives":[
				{
					"attributes":{
						"POSITION":246,
						"NORMAL":247,
						"TEXCOORD_0":248
					},
					"indices":249,
					"material":1
				}
			]
		},
		{
			"name":"Petiole_031",
			"primitives":[
				{
					"attributes":{
						"POSITION":250,
						"NORMAL":251,
						"TEXCOORD_0":252
					},
					"indices":253,
					"material":1
				}
			]
		},
		{
			"name":"PlantBase.002",
			"primitives":[
				{
					"attributes":{
						"POSITION":254,
						"NORMAL":255,
						"TEXCOORD_0":256
					},
					"indices":257,
					"material":1
				}
			]
		},
		{
			"name":"Pot.005",
			"primitives":[
				{
					"attributes":{
						"POSITION":258,
						"NORMAL":259,
						"TEXCOORD_0":260
					},
					"indices":261,
					"material":2
				}
			]
		},
		{
			"name":"Saucer.005",
			"primitives":[
				{
					"attributes":{
						"POSITION":262,
						"NORMAL":263,
						"TEXCOORD_0":264
					},
					"indices":265,
					"material":3
				}
			]
		},
		{
			"name":"Soil.005",
			"primitives":[
				{
					"attributes":{
						"POSITION":266,
						"NORMAL":267,
						"TEXCOORD_0":268
					},
					"indices":269,
					"material":4
				}
			]
		},
		{
			"name":"Spathe_00",
			"primitives":[
				{
					"attributes":{
						"POSITION":270,
						"NORMAL":271,
						"TEXCOORD_0":272
					},
					"indices":273,
					"material":5
				}
			]
		},
		{
			"name":"Spathe_01",
			"primitives":[
				{
					"attributes":{
						"POSITION":274,
						"NORMAL":275,
						"TEXCOORD_0":276
					},
					"indices":277,
					"material":5
				}
			]
		},
		{
			"name":"Spathe_02",
			"primitives":[
				{
					"attributes":{
						"POSITION":278,
						"NORMAL":279,
						"TEXCOORD_0":280
					},
					"indices":277,
					"material":5
				}
			]
		},
		{
			"name":"Spathe_03",
			"primitives":[
				{
					"attributes":{
						"POSITION":281,
						"NORMAL":282,
						"TEXCOORD_0":283
					},
					"indices":273,
					"material":5
				}
			]
		},
		{
			"name":"Spathe_04",
			"primitives":[
				{
					"attributes":{
						"POSITION":284,
						"NORMAL":285,
						"TEXCOORD_0":286
					},
					"indices":273,
					"material":5
				}
			]
		},
		{
			"name":"SpathStalk_00",
			"primitives":[
				{
					"attributes":{
						"POSITION":287,
						"NORMAL":288,
						"TEXCOORD_0":289
					},
					"indices":290,
					"material":6
				}
			]
		},
		{
			"name":"SpathStalk_01",
			"primitives":[
				{
					"attributes":{
						"POSITION":291,
						"NORMAL":292,
						"TEXCOORD_0":293
					},
					"indices":294,
					"material":6
				}
			]
		},
		{
			"name":"SpathStalk_02",
			"primitives":[
				{
					"attributes":{
						"POSITION":295,
						"NORMAL":296,
						"TEXCOORD_0":297
					},
					"indices":298,
					"material":6
				}
			]
		},
		{
			"name":"SpathStalk_03",
			"primitives":[
				{
					"attributes":{
						"POSITION":299,
						"NORMAL":300,
						"TEXCOORD_0":301
					},
					"indices":302,
					"material":6
				}
			]
		},
		{
			"name":"SpathStalk_04",
			"primitives":[
				{
					"attributes":{
						"POSITION":303,
						"NORMAL":304,
						"TEXCOORD_0":305
					},
					"indices":306,
					"material":6
				}
			]
		}
	],
	"textures":[
		{
			"sampler":0,
			"source":0
		},
		{
			"sampler":0,
			"source":0
		},
		{
			"sampler":1,
			"source":1
		},
		{
			"sampler":1,
			"source":2
		},
		{
			"sampler":1,
			"source":3
		},
		{
			"sampler":1,
			"source":4
		},
		{
			"sampler":0,
			"source":5
		},
		{
			"sampler":1,
			"source":6
		}
	],
	"images":[
		{
			"mimeType":"image/png",
			"name":"LeafTex",
			"uri":"LeafTex.png"
		},
		{
			"mimeType":"image/png",
			"name":"PetioleTex",
			"uri":"PetioleTex.png"
		},
		{
			"mimeType":"image/png",
			"name":"PotTex",
			"uri":"PotTex.png"
		},
		{
			"mimeType":"image/png",
			"name":"SaucerTex",
			"uri":"SaucerTex.png"
		},
		{
			"mimeType":"image/png",
			"name":"SoilTex",
			"uri":"SoilTex.png"
		},
		{
			"mimeType":"image/png",
			"name":"SpatheTex",
			"uri":"SpatheTex.png"
		},
		{
			"mimeType":"image/png",
			"name":"SpathStalkTex",
			"uri":"SpathStalkTex.png"
		}
	],
	"accessors":[
		{
			"bufferView":0,
			"componentType":5126,
			"count":48,
			"max":[
				0.42350059747695923,
				3.3324670791625977,
				1.9412449598312378
			],
			"min":[
				-0.25379639863967896,
				3.0785341262817383,
				0.6829193234443665
			],
			"type":"VEC3"
		},
		{
			"bufferView":1,
			"componentType":5126,
			"count":48,
			"type":"VEC3"
		},
		{
			"bufferView":2,
			"componentType":5126,
			"count":48,
			"type":"VEC2"
		},
		{
			"bufferView":3,
			"componentType":5123,
			"count":72,
			"type":"SCALAR"
		},
		{
			"bufferView":4,
			"componentType":5126,
			"count":48,
			"max":[
				1.7172390222549438,
				2.56242036819458,
				0.47284361720085144
			],
			"min":[
				0.5030818581581116,
				2.417072296142578,
				-0.17104977369308472
			],
			"type":"VEC3"
		},
		{
			"bufferView":5,
			"componentType":5126,
			"count":48,
			"type":"VEC3"
		},
		{
			"bufferView":6,
			"componentType":5126,
			"count":48,
			"type":"VEC2"
		},
		{
			"bufferView":7,
			"componentType":5123,
			"count":72,
			"type":"SCALAR"
		},
		{
			"bufferView":8,
			"componentType":5126,
			"count":48,
			"max":[
				-0.37450313568115234,
				2.4521515369415283,
				-0.585141122341156
			],
			"min":[
				-1.2426984310150146,
				2.302642345428467,
				-1.53708016872406
			],
			"type":"VEC3"
		},
		{
			"bufferView":9,
			"componentType":5126,
			"count":48,
			"type":"VEC3"
		},
		{
			"bufferView":10,
			"componentType":5126,
			"count":48,
			"type":"VEC2"
		},
		{
			"bufferView":11,
			"componentType":5123,
			"count":72,
			"type":"SCALAR"
		},
		{
			"bufferView":12,
			"componentType":5126,
			"count":48,
			"max":[
				0.2972613573074341,
				2.097022533416748,
				1.1895980834960938
			],
			"min":[
				-0.12299872189760208,
				1.9547005891799927,
				0.4543329179286957
			],
			"type":"VEC3"
		},
		{
			"bufferView":13,
			"componentType":5126,
			"count":48,
			"type":"VEC3"
		},
		{
			"bufferView":14,
			"componentType":5126,
			"count":48,
			"type":"VEC2"
		},
		{
			"bufferView":15,
			"componentType":5123,
			"count":72,
			"type":"SCALAR"
		},
		{
			"bufferView":16,
			"componentType":5126,
			"count":48,
			"max":[
				1.8112741708755493,
				2.5390772819519043,
				0.4895532727241516
			],
			"min":[
				0.5852128863334656,
				2.304471254348755,
				-0.22195954620838165
			],
			"type":"VEC3"
		},
		{
			"bufferView":17,
			"componentType":5126,
			"count":48,
			"type":"VEC3"
		},
		{
			"bufferView":18,
			"componentType":5126,
			"count":48,
			"type":"VEC2"
		},
		{
			"bufferView":19,
			"componentType":5123,
			"count":72,
			"type":"SCALAR"
		},
		{
			"bufferView":20,
			"componentType":5126,
			"count":48,
			"max":[
				0.15781164169311523,
				2.4868056774139404,
				-0.537817656993866
			],
			"min":[
				-0.41597795486450195,
				2.3522722721099854,
				-1.5894216299057007
			],
			"type":"VEC3"
		},
		{
			"bufferView":21,
			"componentType":5126,
			"count":48,
			"type":"VEC3"
		},
		{
			"bufferView":22,
			"componentType":5126,
			"count":48,
			"type":"VEC2"
		},
		{
			"bufferView":23,
			"componentType":5123,
			"count":72,
			"type":"SCALAR"
		},
		{
			"bufferView":24,
			"componentType":5126,
			"count":48,
			"max":[
				1.5747413635253906,
				3.378955602645874,
				1.7858147621154785
			],
			"min":[
				0.15701958537101746,
				3.0267393589019775,
				0.2762816548347473
			],
			"type":"VEC3"
		},
		{
			"bufferView":25,
			"componentType":5126,
			"count":48,
			"type":"VEC3"
		},
		{
			"bufferView":26,
			"componentType":5126,
			"count":48,
			"type":"VEC2"
		},
		{
			"bufferView":27,
			"componentType":5123,
			"count":72,
			"type":"SCALAR"
		},
		{
			"bufferView":28,
			"componentType":5126,
			"count":48,
			"max":[
				0.6421185731887817,
				2.642296075820923,
				-0.8198004364967346
			],
			"min":[
				-0.056036680936813354,
				2.4701128005981445,
				-1.9196367263793945
			],
			"type":"VEC3"
		},
		{
			"bufferView":29,
			"componentType":5126,
			"count":48,
			"type":"VEC3"
		},
		{
			"bufferView":30,
			"componentType":5126,
			"count":48,
			"type":"VEC2"
		},
		{
			"bufferView":31,
			"componentType":5123,
			"count":72,
			"type":"SCALAR"
		},
		{
			"bufferView":32,
			"componentType":5126,
			"count":48,
			"max":[
				1.0642014741897583,
				2.0023460388183594,
				1.0121049880981445
			],
			"min":[
				0.30398792028427124,
				1.843043327331543,
				0.26466119289398193
			],
			"type":"VEC3"
		},
		{
			"bufferView":33,
			"componentType":5126,
			"count":48,
			"type":"VEC3"
		},
		{
			"bufferView":34,
			"componentType":5126,
			"count":48,
			"type":"VEC2"
		},
		{
			"bufferView":35,
			"componentType":5123,
			"count":72,
			"type":"SCALAR"
		},
		{
			"bufferView":36,
			"componentType":5126,
			"count":48,
			"max":[
				1.546224594116211,
				2.7397494316101074,
				-0.30425208806991577
			],
			"min":[
				0.5234084725379944,
				2.5785300731658936,
				-1.2357659339904785
			],
			"type":"VEC3"
		},
		{
			"bufferView":37,
			"componentType":5126,
			"count":48,
			"type":"VEC3"
		},
		{
			"bufferView":38,
			"componentType":5126,
			"count":48,
			"type":"VEC2"
		},
		{
			"bufferView":39,
			"componentType":5123,
			"count":72,
			"type":"SCALAR"
		},
		{
			"bufferView":40,
			"componentType":5126,
			"count":48,
			"max":[
				1.761926531791687,
				3.2576961517333984,
				0.521844744682312
			],
			"min":[
				0.45799121260643005,
				2.9945178031921387,
				-0.18669575452804565
			],
			"type":"VEC3"
		},
		{
			"bufferView":41,
			"componentType":5126,
			"count":48,
			"type":"VEC3"
		},
		{
			"bufferView":42,
			"componentType":5126,
			"count":48,
			"type":"VEC2"
		},
		{
			"bufferView":43,
			"componentType":5123,
			"count":72,
			"type":"SCALAR"
		},
		{
			"bufferView":44,
			"componentType":5126,
			"count":48,
			"max":[
				-0.12908922135829926,
				3.243851900100708,
				1.4752373695373535
			],
			"min":[
				-1.263305425643921,
				2.980926990509033,
				0.23988229036331177
			],
			"type":"VEC3"
		},
		{
			"bufferView":45,
			"componentType":5126,
			"count":48,
			"type":"VEC3"
		},
		{
			"bufferView":46,
			"componentType":5126,
			"count":48,
			"type":"VEC2"
		},
		{
			"bufferView":47,
			"componentType":5123,
			"count":72,
			"type":"SCALAR"
		},
		{
			"bufferView":48,
			"componentType":5126,
			"count":48,
			"max":[
				1.665612816810608,
				2.6104960441589355,
				1.1576660871505737
			],
			"min":[
				0.4822551906108856,
				2.4039652347564697,
				0.16004915535449982
			],
			"type":"VEC3"
		},
		{
			"bufferView":49,
			"componentType":5126,
			"count":48,
			"type":"VEC3"
		},
		{
			"bufferView":50,
			"componentType":5126,
			"count":48,
			"type":"VEC2"
		},
		{
			"bufferView":51,
			"componentType":5123,
			"count":72,
			"type":"SCALAR"
		},
		{
			"bufferView":52,
			"componentType":5126,
			"count":48,
			"max":[
				-0.8758084177970886,
				2.7311182022094727,
				-0.07171235978603363
			],
			"min":[
				-1.9688712358474731,
				2.5670905113220215,
				-0.7833079099655151
			],
			"type":"VEC3"
		},
		{
			"bufferView":53,
			"componentType":5126,
			"count":48,
			"type":"VEC3"
		},
		{
			"bufferView":54,
			"componentType":5126,
			"count":48,
			"type":"VEC2"
		},
		{
			"bufferView":55,
			"componentType":5123,
			"count":72,
			"type":"SCALAR"
		},
		{
			"bufferView":56,
			"componentType":5126,
			"count":48,
			"max":[
				0.44688284397125244,
				3.7486178874969482,
				-0.6732083559036255
			],
			"min":[
				-0.13904353976249695,
				3.523983955383301,
				-1.790422797203064
			],
			"type":"VEC3"
		},
		{
			"bufferView":57,
			"componentType":5126,
			"count":48,
			"type":"VEC3"
		},
		{
			"bufferView":58,
			"componentType":5126,
			"count":48,
			"type":"VEC2"
		},
		{
			"bufferView":59,
			"componentType":5126,
			"count":48,
			"max":[
				0.7879930734634399,
				2.0496742725372314,
				-0.309009850025177
			],
			"min":[
				0.12150505185127258,
				1.8889473676681519,
				-1.0789306163787842
			],
			"type":"VEC3"
		},
		{
			"bufferView":60,
			"componentType":5126,
			"count":48,
			"type":"VEC3"
		},
		{
			"bufferView":61,
			"componentType":5126,
			"count":48,
			"type":"VEC2"
		},
		{
			"bufferView":62,
			"componentType":5123,
			"count":72,
			"type":"SCALAR"
		},
		{
			"bufferView":63,
			"componentType":5126,
			"count":48,
			"max":[
				-0.32803380489349365,
				2.7356364727020264,
				1.1949074268341064
			],
			"min":[
				-1.4679032564163208,
				2.525728225708008,
				0.17353223264217377
			],
			"type":"VEC3"
		},
		{
			"bufferView":64,
			"componentType":5126,
			"count":48,
			"type":"VEC3"
		},
		{
			"bufferView":65,
			"componentType":5126,
			"count":48,
			"type":"VEC2"
		},
		{
			"bufferView":66,
			"componentType":5123,
			"count":72,
			"type":"SCALAR"
		},
		{
			"bufferView":67,
			"componentType":5126,
			"count":48,
			"max":[
				0.9002148509025574,
				2.6051387786865234,
				-0.42432963848114014
			],
			"min":[
				0.09660007059574127,
				2.453535556793213,
				-1.4049254655838013
			],
			"type":"VEC3"
		},
		{
			"bufferView":68,
			"componentType":5126,
			"count":48,
			"type":"VEC3"
		},
		{
			"bufferView":69,
			"componentType":5126,
			"count":48,
			"type":"VEC2"
		},
		{
			"bufferView":70,
			"componentType":5126,
			"count":48,
			"max":[
				-0.5926331877708435,
				2.596097230911255,
				-0.3908728361129761
			],
			"min":[
				-1.6864197254180908,
				2.4467477798461914,
				-1.3861730098724365
			],
			"type":"VEC3"
		},
		{
			"bufferView":71,
			"componentType":5126,
			"count":48,
			"type":"VEC3"
		},
		{
			"bufferView":72,
			"componentType":5126,
			"count":48,
			"type":"VEC2"
		},
		{
			"bufferView":73,
			"componentType":5123,
			"count":72,
			"type":"SCALAR"
		},
		{
			"bufferView":74,
			"componentType":5126,
			"count":48,
			"max":[
				-0.016475871205329895,
				2.207275867462158,
				1.1987402439117432
			],
			"min":[
				-0.685685932636261,
				2.0004916191101074,
				0.32201260328292847
			],
			"type":"VEC3"
		},
		{
			"bufferView":75,
			"componentType":5126,
			"count":48,
			"type":"VEC3"
		},
		{
			"bufferView":76,
			"componentType":5126,
			"count":48,
			"type":"VEC2"
		},
		{
			"bufferView":77,
			"componentType":5123,
			"count":72,
			"type":"SCALAR"
		},
		{
			"bufferView":78,
			"componentType":5126,
			"count":48,
			"max":[
				-0.5991134643554688,
				2.1455225944519043,
				0.005653470754623413
			],
			"min":[
				-1.4424681663513184,
				1.9798905849456787,
				-0.5172603130340576
			],
			"type":"VEC3"
		},
		{
			"bufferView":79,
			"componentType":5126,
			"count":48,
			"type":"VEC3"
		},
		{
			"bufferView":80,
			"componentType":5126,
			"count":48,
			"type":"VEC2"
		},
		{
			"bufferView":81,
			"componentType":5123,
			"count":72,
			"type":"SCALAR"
		},
		{
			"bufferView":82,
			"componentType":5126,
			"count":48,
			"max":[
				1.524600625038147,
				3.2869505882263184,
				-0.22407186031341553
			],
			"min":[
				0.05940559506416321,
				2.9490981101989746,
				-1.813504934310913
			],
			"type":"VEC3"
		},
		{
			"bufferView":83,
			"componentType":5126,
			"count":48,
			"type":"VEC3"
		},
		{
			"bufferView":84,
			"componentType":5126,
			"count":48,
			"type":"VEC2"
		},
		{
			"bufferView":85,
			"componentType":5123,
			"count":72,
			"type":"SCALAR"
		},
		{
			"bufferView":86,
			"componentType":5126,
			"count":48,
			"max":[
				1.0470962524414062,
				2.8136260509490967,
				1.9033846855163574
			],
			"min":[
				0.14036402106285095,
				2.617295980453491,
				0.7025893330574036
			],
			"type":"VEC3"
		},
		{
			"bufferView":87,
			"componentType":5126,
			"count":48,
			"type":"VEC3"
		},
		{
			"bufferView":88,
			"componentType":5126,
			"count":48,
			"type":"VEC2"
		},
		{
			"bufferView":89,
			"componentType":5123,
			"count":72,
			"type":"SCALAR"
		},
		{
			"bufferView":90,
			"componentType":5126,
			"count":48,
			"max":[
				1.66985023021698,
				2.336777687072754,
				0.18623286485671997
			],
			"min":[
				0.7491469383239746,
				2.141352891921997,
				-0.2667817771434784
			],
			"type":"VEC3"
		},
		{
			"bufferView":91,
			"componentType":5126,
			"count":48,
			"type":"VEC3"
		},
		{
			"bufferView":92,
			"componentType":5126,
			"count":48,
			"type":"VEC2"
		},
		{
			"bufferView":93,
			"componentType":5123,
			"count":72,
			"type":"SCALAR"
		},
		{
			"bufferView":94,
			"componentType":5126,
			"count":48,
			"max":[
				0.4799652099609375,
				2.9462392330169678,
				1.9830721616744995
			],
			"min":[
				-0.19947198033332825,
				2.7681307792663574,
				0.7691043615341187
			],
			"type":"VEC3"
		},
		{
			"bufferView":95,
			"componentType":5126,
			"count":48,
			"type":"VEC3"
		},
		{
			"bufferView":96,
			"componentType":5126,
			"count":48,
			"type":"VEC2"
		},
		{
			"bufferView":97,
			"componentType":5123,
			"count":72,
			"type":"SCALAR"
		},
		{
			"bufferView":98,
			"componentType":5126,
			"count":48,
			"max":[
				-0.12110947072505951,
				2.400376796722412,
				1.4155006408691406
			],
			"min":[
				-1.2595497369766235,
				2.2134413719177246,
				0.21050526201725006
			],
			"type":"VEC3"
		},
		{
			"bufferView":99,
			"componentType":5126,
			"count":48,
			"type":"VEC3"
		},
		{
			"bufferView":100,
			"componentType":5126,
			"count":48,
			"type":"VEC2"
		},
		{
			"bufferView":101,
			"componentType":5123,
			"count":72,
			"type":"SCALAR"
		},
		{
			"bufferView":102,
			"componentType":5126,
			"count":48,
			"max":[
				0.12154442071914673,
				2.1014747619628906,
				-0.5780140161514282
			],
			"min":[
				-0.3472807705402374,
				1.9105539321899414,
				-1.3931366205215454
			],
			"type":"VEC3"
		},
		{
			"bufferView":103,
			"componentType":5126,
			"count":48,
			"type":"VEC3"
		},
		{
			"bufferView":104,
			"componentType":5126,
			"count":48,
			"type":"VEC2"
		},
		{
			"bufferView":105,
			"componentType":5123,
			"count":72,
			"type":"SCALAR"
		},
		{
			"bufferView":106,
			"componentType":5126,
			"count":48,
			"max":[
				-0.1140795648097992,
				1.9881103038787842,
				-0.47490519285202026
			],
			"min":[
				-0.6825283765792847,
				1.847097635269165,
				-1.2088804244995117
			],
			"type":"VEC3"
		},
		{
			"bufferView":107,
			"componentType":5126,
			"count":48,
			"type":"VEC3"
		},
		{
			"bufferView":108,
			"componentType":5126,
			"count":48,
			"type":"VEC2"
		},
		{
			"bufferView":109,
			"componentType":5123,
			"count":72,
			"type":"SCALAR"
		},
		{
			"bufferView":110,
			"componentType":5126,
			"count":48,
			"max":[
				-0.47825294733047485,
				3.6803860664367676,
				-0.35996347665786743
			],
			"min":[
				-1.8443440198898315,
				3.456986665725708,
				-1.6611871719360352
			],
			"type":"VEC3"
		},
		{
			"bufferView":111,
			"componentType":5126,
			"count":48,
			"type":"VEC3"
		},
		{
			"bufferView":112,
			"componentType":5126,
			"count":48,
			"type":"VEC2"
		},
		{
			"bufferView":113,
			"componentType":5123,
			"count":72,
			"type":"SCALAR"
		},
		{
			"bufferView":114,
			"componentType":5126,
			"count":48,
			"max":[
				-0.09297063946723938,
				2.9346842765808105,
				2.0453414916992188
			],
			"min":[
				-1.0114938020706177,
				2.735607862472534,
				0.8087413907051086
			],
			"type":"VEC3"
		},
		{
			"bufferView":115,
			"componentType":5126,
			"count":48,
			"type":"VEC3"
		},
		{
			"bufferView":116,
			"componentType":5126,
			"count":48,
			"type":"VEC2"
		},
		{
			"bufferView":117,
			"componentType":5123,
			"count":72,
			"type":"SCALAR"
		},
		{
			"bufferView":118,
			"componentType":5126,
			"count":48,
			"max":[
				-0.695495069026947,
				2.5211100578308105,
				0.39990419149398804
			],
			"min":[
				-1.6226493120193481,
				2.354125738143921,
				-0.08629712462425232
			],
			"type":"VEC3"
		},
		{
			"bufferView":119,
			"componentType":5126,
			"count":48,
			"type":"VEC3"
		},
		{
			"bufferView":120,
			"componentType":5126,
			"count":48,
			"type":"VEC2"
		},
		{
			"bufferView":121,
			"componentType":5123,
			"count":72,
			"type":"SCALAR"
		},
		{
			"bufferView":122,
			"componentType":5126,
			"count":48,
			"max":[
				-0.7008895874023438,
				3.3763129711151123,
				0.1952449083328247
			],
			"min":[
				-2.159818172454834,
				3.0431735515594482,
				-0.574757993221283
			],
			"type":"VEC3"
		},
		{
			"bufferView":123,
			"componentType":5126,
			"count":48,
			"type":"VEC3"
		},
		{
			"bufferView":124,
			"componentType":5126,
			"count":48,
			"type":"VEC2"
		},
		{
			"bufferView":125,
			"componentType":5123,
			"count":72,
			"type":"SCALAR"
		},
		{
			"bufferView":126,
			"componentType":5126,
			"count":90,
			"max":[
				0.058778516948223114,
				3.0973474979400635,
				0.7107344269752502
			],
			"min":[
				-0.023808209225535393,
				1.5511740446090698,
				0.14349350333213806
			],
			"type":"VEC3"
		},
		{
			"bufferView":127,
			"componentType":5126,
			"count":90,
			"type":"VEC3"
		},
		{
			"bufferView":128,
			"componentType":5126,
			"count":90,
			"type":"VEC2"
		},
		{
			"bufferView":129,
			"componentType":5123,
			"count":138,
			"type":"SCALAR"
		},
		{
			"bufferView":130,
			"componentType":5126,
			"count":90,
			"max":[
				0.5451202392578125,
				2.4376220703125,
				0.08843980729579926
			],
			"min":[
				0.23076093196868896,
				1.5332304239273071,
				0.022990357130765915
			],
			"type":"VEC3"
		},
		{
			"bufferView":131,
			"componentType":5126,
			"count":90,
			"type":"VEC3"
		},
		{
			"bufferView":132,
			"componentType":5126,
			"count":90,
			"type":"VEC2"
		},
		{
			"bufferView":133,
			"componentType":5123,
			"count":138,
			"type":"SCALAR"
		},
		{
			"bufferView":134,
			"componentType":5126,
			"count":90,
			"max":[
				-0.07894176989793777,
				2.3177332878112793,
				-0.10594054311513901
			],
			"min":[
				-0.5523586869239807,
				1.5379523038864136,
				-0.7218042612075806
			],
			"type":"VEC3"
		},
		{
			"bufferView":135,
			"componentType":5126,
			"count":90,
			"type":"VEC3"
		},
		{
			"bufferView":136,
			"componentType":5126,
			"count":90,
			"type":"VEC2"
		},
		{
			"bufferView":137,
			"componentType":5123,
			"count":138,
			"type":"SCALAR"
		},
		{
			"bufferView":138,
			"componentType":5126,
			"count":90,
			"max":[
				0.06050238013267517,
				2.018019437789917,
				0.4824167490005493
			],
			"min":[
				0.001760285347700119,
				1.5419321060180664,
				0.16887754201889038
			],
			"type":"VEC3"
		},
		{
			"bufferView":139,
			"componentType":5126,
			"count":90,
			"type":"VEC3"
		},
		{
			"bufferView":140,
			"componentType":5126,
			"count":90,
			"type":"VEC2"
		},
		{
			"bufferView":141,
			"componentType":5123,
			"count":138,
			"type":"SCALAR"
		},
		{
			"bufferView":142,
			"componentType":5126,
			"count":90,
			"max":[
				0.6278994679450989,
				2.330019950866699,
				0.07644544541835785
			],
			"min":[
				0.26184141635894775,
				1.5295982360839844,
				-0.03539201617240906
			],
			"type":"VEC3"
		},
		{
			"bufferView":143,
			"componentType":5126,
			"count":90,
			"type":"VEC3"
		},
		{
			"bufferView":144,
			"componentType":5126,
			"count":90,
			"type":"VEC2"
		},
		{
			"bufferView":145,
			"componentType":5123,
			"count":138,
			"type":"SCALAR"
		},
		{
			"bufferView":146,
			"componentType":5126,
			"count":90,
			"max":[
				-0.019454335793852806,
				2.3603947162628174,
				-0.17571040987968445
			],
			"min":[
				-0.08070217072963715,
				1.5282515287399292,
				-0.5755486488342285
			],
			"type":"VEC3"
		},
		{
			"bufferView":147,
			"componentType":5126,
			"count":90,
			"type":"VEC3"
		},
		{
			"bufferView":148,
			"componentType":5126,
			"count":90,
			"type":"VEC2"
		},
		{
			"bufferView":149,
			"componentType":5123,
			"count":138,
			"type":"SCALAR"
		},
		{
			"bufferView":150,
			"componentType":5126,
			"count":90,
			"max":[
				0.4258033335208893,
				3.068281888961792,
				0.5130301117897034
			],
			"min":[
				0.07588627189397812,
				1.5243806838989258,
				0.07502418011426926
			],
			"type":"VEC3"
		},
		{
			"bufferView":151,
			"componentType":5126,
			"count":90,
			"type":"VEC3"
		},
		{
			"bufferView":152,
			"componentType":5126,
			"count":90,
			"type":"VEC2"
		},
		{
			"bufferView":153,
			"componentType":5123,
			"count":138,
			"type":"SCALAR"
		},
		{
			"bufferView":154,
			"componentType":5126,
			"count":90,
			"max":[
				0.19535531103610992,
				2.4834651947021484,
				-0.2601126432418823
			],
			"min":[
				0.008158240467309952,
				1.5145528316497803,
				-0.8790413737297058
			],
			"type":"VEC3"
		},
		{
			"bufferView":155,
			"componentType":5126,
			"count":90,
			"type":"VEC3"
		},
		{
			"bufferView":156,
			"componentType":5126,
			"count":90,
			"type":"VEC2"
		},
		{
			"bufferView":157,
			"componentType":5123,
			"count":138,
			"type":"SCALAR"
		},
		{
			"bufferView":158,
			"componentType":5126,
			"count":90,
			"max":[
				0.4251756966114044,
				1.9070358276367188,
				0.3973402678966522
			],
			"min":[
				0.18951517343521118,
				1.524520993232727,
				0.22337782382965088
			],
			"type":"VEC3"
		},
		{
			"bufferView":159,
			"componentType":5126,
			"count":90,
			"type":"VEC3"
		},
		{
			"bufferView":160,
			"componentType":5126,
			"count":90,
			"type":"VEC2"
		},
		{
			"bufferView":161,
			"componentType":5123,
			"count":138,
			"type":"SCALAR"
		},
		{
			"bufferView":162,
			"componentType":5126,
			"count":90,
			"max":[
				0.6713225245475769,
				2.5993080139160156,
				-0.05655151233077049
			],
			"min":[
				0.09645086526870728,
				1.5179829597473145,
				-0.49972349405288696
			],
			"type":"VEC3"
		},
		{
			"bufferView":163,
			"componentType":5126,
			"count":90,
			"type":"VEC3"
		},
		{
			"bufferView":164,
			"componentType":5126,
			"count":90,
			"type":"VEC2"
		},
		{
			"bufferView":165,
			"componentType":5123,
			"count":138,
			"type":"SCALAR"
		},
		{
			"bufferView":166,
			"componentType":5126,
			"count":90,
			"max":[
				0.5078561305999756,
				3.0118508338928223,
				0.08264966309070587
			],
			"min":[
				0.0842754989862442,
				1.5448133945465088,
				-0.003985248506069183
			],
			"type":"VEC3"
		},
		{
			"bufferView":167,
			"componentType":5126,
			"count":90,
			"type":"VEC3"
		},
		{
			"bufferView":168,
			"componentType":5126,
			"count":90,
			"type":"VEC2"
		},
		{
			"bufferView":169,
			"componentType":5123,
			"count":138,
			"type":"SCALAR"
		},
		{
			"bufferView":170,
			"componentType":5126,
			"count":90,
			"max":[
				-0.17658548057079315,
				3.0004568099975586,
				0.411609023809433
			],
			"min":[
				-0.33396685123443604,
				1.5214276313781738,
				0.21332354843616486
			],
			"type":"VEC3"
		},
		{
			"bufferView":171,
			"componentType":5126,
			"count":90,
			"type":"VEC3"
		},
		{
			"bufferView":172,
			"componentType":5126,
			"count":90,
			"type":"VEC2"
		},
		{
			"bufferView":173,
			"componentType":5123,
			"count":138,
			"type":"SCALAR"
		},
		{
			"bufferView":174,
			"componentType":5126,
			"count":90,
			"max":[
				0.6236804127693176,
				2.437872886657715,
				0.3815249502658844
			],
			"min":[
				0.10875862091779709,
				1.5134968757629395,
				0.050720036029815674
			],
			"type":"VEC3"
		},
		{
			"bufferView":175,
			"componentType":5126,
			"count":90,
			"type":"VEC3"
		},
		{
			"bufferView":176,
			"componentType":5126,
			"count":90,
			"type":"VEC2"
		},
		{
			"bufferView":177,
			"componentType":5123,
			"count":138,
			"type":"SCALAR"
		},
		{
			"bufferView":178,
			"componentType":5126,
			"count":90,
			"max":[
				-0.10943609476089478,
				2.5962140560150146,
				-0.01626688800752163
			],
			"min":[
				-0.9466320276260376,
				1.5355561971664429,
				-0.3002115786075592
			],
			"type":"VEC3"
		},
		{
			"bufferView":179,
			"componentType":5126,
			"count":90,
			"type":"VEC3"
		},
		{
			"bufferView":180,
			"componentType":5126,
			"count":90,
			"type":"VEC2"
		},
		{
			"bufferView":181,
			"componentType":5123,
			"count":138,
			"type":"SCALAR"
		},
		{
			"bufferView":182,
			"componentType":5126,
			"count":90,
			"max":[
				0.10529419034719467,
				3.5446677207946777,
				-0.19510073959827423
			],
			"min":[
				0.000842362642288208,
				1.5485053062438965,
				-0.7095160484313965
			],
			"type":"VEC3"
		},
		{
			"bufferView":183,
			"componentType":5126,
			"count":90,
			"type":"VEC3"
		},
		{
			"bufferView":184,
			"componentType":5126,
			"count":90,
			"type":"VEC2"
		},
		{
			"bufferView":185,
			"componentType":5123,
			"count":138,
			"type":"SCALAR"
		},
		{
			"bufferView":186,
			"componentType":5126,
			"count":90,
			"max":[
				0.2750524878501892,
				1.9647104740142822,
				-0.11929991096258163
			],
			"min":[
				0.11111046373844147,
				1.5320031642913818,
				-0.4122507870197296
			],
			"type":"VEC3"
		},
		{
			"bufferView":187,
			"componentType":5126,
			"count":90,
			"type":"VEC3"
		},
		{
			"bufferView":188,
			"componentType":5126,
			"count":90,
			"type":"VEC2"
		},
		{
			"bufferView":189,
			"componentType":5123,
			"count":138,
			"type":"SCALAR"
		},
		{
			"bufferView":190,
			"componentType":5126,
			"count":90,
			"max":[
				-0.07845969498157501,
				2.5587146282196045,
				0.3747076094150543
			],
			"min":[
				-0.4787537455558777,
				1.5362389087677002,
				0.06235085800290108
			],
			"type":"VEC3"
		},
		{
			"bufferView":191,
			"componentType":5126,
			"count":90,
			"type":"VEC3"
		},
		{
			"bufferView":192,
			"componentType":5126,
			"count":90,
			"type":"VEC2"
		},
		{
			"bufferView":193,
			"componentType":5123,
			"count":138,
			"type":"SCALAR"
		},
		{
			"bufferView":194,
			"componentType":5126,
			"count":90,
			"max":[
				0.29955416917800903,
				2.4772517681121826,
				-0.06729713827371597
			],
			"min":[
				0.043869130313396454,
				1.5244698524475098,
				-0.5373160243034363
			],
			"type":"VEC3"
		},
		{
			"bufferView":195,
			"componentType":5126,
			"count":90,
			"type":"VEC3"
		},
		{
			"bufferView":196,
			"componentType":5126,
			"count":90,
			"type":"VEC2"
		},
		{
			"bufferView":197,
			"componentType":5123,
			"count":138,
			"type":"SCALAR"
		},
		{
			"bufferView":198,
			"componentType":5126,
			"count":90,
			"max":[
				-0.1605796217918396,
				2.4680099487304688,
				-0.10369960218667984
			],
			"min":[
				-0.7424620985984802,
				1.5256710052490234,
				-0.576478898525238
			],
			"type":"VEC3"
		},
		{
			"bufferView":199,
			"componentType":5126,
			"count":90,
			"type":"VEC3"
		},
		{
			"bufferView":200,
			"componentType":5126,
			"count":90,
			"type":"VEC2"
		},
		{
			"bufferView":201,
			"componentType":5123,
			"count":138,
			"type":"SCALAR"
		},
		{
			"bufferView":202,
			"componentType":5126,
			"count":90,
			"max":[
				-0.09742428362369537,
				2.103588819503784,
				0.4112447500228882
			],
			"min":[
				-0.20169906318187714,
				1.5292609930038452,
				0.14890016615390778
			],
			"type":"VEC3"
		},
		{
			"bufferView":203,
			"componentType":5126,
			"count":90,
			"type":"VEC3"
		},
		{
			"bufferView":204,
			"componentType":5126,
			"count":90,
			"type":"VEC2"
		},
		{
			"bufferView":205,
			"componentType":5123,
			"count":138,
			"type":"SCALAR"
		},
		{
			"bufferView":206,
			"componentType":5126,
			"count":90,
			"max":[
				-0.2717475891113281,
				2.0762979984283447,
				-0.02977062575519085
			],
			"min":[
				-0.650047242641449,
				1.519628643989563,
				-0.171299546957016
			],
			"type":"VEC3"
		},
		{
			"bufferView":207,
			"componentType":5126,
			"count":90,
			"type":"VEC3"
		},
		{
			"bufferView":208,
			"componentType":5126,
			"count":90,
			"type":"VEC2"
		},
		{
			"bufferView":209,
			"componentType":5123,
			"count":138,
			"type":"SCALAR"
		},
		{
			"bufferView":210,
			"componentType":5126,
			"count":90,
			"max":[
				0.35975420475006104,
				2.9557042121887207,
				-0.08054815232753754
			],
			"min":[
				0.06664840877056122,
				1.5244250297546387,
				-0.45998212695121765
			],
			"type":"VEC3"
		},
		{
			"bufferView":211,
			"componentType":5126,
			"count":90,
			"type":"VEC3"
		},
		{
			"bufferView":212,
			"componentType":5126,
			"count":90,
			"type":"VEC2"
		},
		{
			"bufferView":213,
			"componentType":5123,
			"count":138,
			"type":"SCALAR"
		},
		{
			"bufferView":214,
			"componentType":5126,
			"count":90,
			"max":[
				0.38198399543762207,
				2.6501007080078125,
				0.8135892152786255
			],
			"min":[
				0.1143801361322403,
				1.541439414024353,
				0.18382632732391357
			],
			"type":"VEC3"
		},
		{
			"bufferView":215,
			"componentType":5126,
			"count":90,
			"type":"VEC3"
		},
		{
			"bufferView":216,
			"componentType":5126,
			"count":90,
			"type":"VEC2"
		},
		{
			"bufferView":217,
			"componentType":5123,
			"count":138,
			"type":"SCALAR"
		},
		{
			"bufferView":218,
			"componentType":5126,
			"count":90,
			"max":[
				0.7613387703895569,
				2.214960813522339,
				0.01883932575583458
			],
			"min":[
				0.11817934364080429,
				1.549397587776184,
				-0.036406856030225754
			],
			"type":"VEC3"
		},
		{
			"bufferView":219,
			"componentType":5126,
			"count":90,
			"type":"VEC3"
		},
		{
			"bufferView":220,
			"componentType":5126,
			"count":90,
			"type":"VEC2"
		},
		{
			"bufferView":221,
			"componentType":5123,
			"count":138,
			"type":"SCALAR"
		},
		{
			"bufferView":222,
			"componentType":5126,
			"count":90,
			"max":[
				0.09154105186462402,
				2.7814457416534424,
				0.8057979941368103
			],
			"min":[
				0.009764740243554115,
				1.5220139026641846,
				0.13049456477165222
			],
			"type":"VEC3"
		},
		{
			"bufferView":223,
			"componentType":5126,
			"count":90,
			"type":"VEC3"
		},
		{
			"bufferView":224,
			"componentType":5126,
			"count":90,
			"type":"VEC2"
		},
		{
			"bufferView":225,
			"componentType":5123,
			"count":138,
			"type":"SCALAR"
		},
		{
			"bufferView":226,
			"componentType":5126,
			"count":90,
			"max":[
				-0.10355301946401596,
				2.2307302951812744,
				0.39949825406074524
			],
			"min":[
				-0.3413578271865845,
				1.5175714492797852,
				0.15059037506580353
			],
			"type":"VEC3"
		},
		{
			"bufferView":227,
			"componentType":5126,
			"count":90,
			"type":"VEC3"
		},
		{
			"bufferView":228,
			"componentType":5126,
			"count":90,
			"type":"VEC2"
		},
		{
			"bufferView":229,
			"componentType":5123,
			"count":138,
			"type":"SCALAR"
		},
		{
			"bufferView":230,
			"componentType":5126,
			"count":90,
			"max":[
				0.03436703979969025,
				1.9975875616073608,
				-0.2922383248806
			],
			"min":[
				-0.08154565095901489,
				1.5154086351394653,
				-0.6073834896087646
			],
			"type":"VEC3"
		},
		{
			"bufferView":231,
			"componentType":5126,
			"count":90,
			"type":"VEC3"
		},
		{
			"bufferView":232,
			"componentType":5126,
			"count":90,
			"type":"VEC2"
		},
		{
			"bufferView":233,
			"componentType":5123,
			"count":138,
			"type":"SCALAR"
		},
		{
			"bufferView":234,
			"componentType":5126,
			"count":90,
			"max":[
				-0.08699238300323486,
				1.9258770942687988,
				-0.13837727904319763
			],
			"min":[
				-0.2699213922023773,
				1.525290608406067,
				-0.5488495230674744
			],
			"type":"VEC3"
		},
		{
			"bufferView":235,
			"componentType":5126,
			"count":90,
			"type":"VEC3"
		},
		{
			"bufferView":236,
			"componentType":5126,
			"count":90,
			"type":"VEC2"
		},
		{
			"bufferView":237,
			"componentType":5123,
			"count":138,
			"type":"SCALAR"
		},
		{
			"bufferView":238,
			"componentType":5126,
			"count":90,
			"max":[
				-0.08772209286689758,
				3.471251964569092,
				-0.09275662899017334
			],
			"min":[
				-0.6901148557662964,
				1.5499131679534912,
				-0.5980207324028015
			],
			"type":"VEC3"
		},
		{
			"bufferView":239,
			"componentType":5126,
			"count":90,
			"type":"VEC3"
		},
		{
			"bufferView":240,
			"componentType":5126,
			"count":90,
			"type":"VEC2"
		},
		{
			"bufferView":241,
			"componentType":5123,
			"count":138,
			"type":"SCALAR"
		},
		{
			"bufferView":242,
			"componentType":5126,
			"count":90,
			"max":[
				-0.0183895081281662,
				2.757781982421875,
				0.9151174426078796
			],
			"min":[
				-0.36432307958602905,
				1.5463426113128662,
				0.0942550003528595
			],
			"type":"VEC3"
		},
		{
			"bufferView":243,
			"componentType":5126,
			"count":90,
			"type":"VEC3"
		},
		{
			"bufferView":244,
			"componentType":5126,
			"count":90,
			"type":"VEC2"
		},
		{
			"bufferView":245,
			"componentType":5123,
			"count":138,
			"type":"SCALAR"
		},
		{
			"bufferView":246,
			"componentType":5126,
			"count":90,
			"max":[
				-0.24813775718212128,
				2.3757236003875732,
				0.11148598045110703
			],
			"min":[
				-0.7296181321144104,
				1.5439934730529785,
				0.05909142643213272
			],
			"type":"VEC3"
		},
		{
			"bufferView":247,
			"componentType":5126,
			"count":90,
			"type":"VEC3"
		},
		{
			"bufferView":248,
			"componentType":5126,
			"count":90,
			"type":"VEC2"
		},
		{
			"bufferView":249,
			"componentType":5123,
			"count":138,
			"type":"SCALAR"
		},
		{
			"bufferView":250,
			"componentType":5126,
			"count":90,
			"max":[
				-0.2659481167793274,
				3.0794012546539307,
				0.030260534957051277
			],
			"min":[
				-0.7543898820877075,
				1.5193243026733398,
				-0.10324517637491226
			],
			"type":"VEC3"
		},
		{
			"bufferView":251,
			"componentType":5126,
			"count":90,
			"type":"VEC3"
		},
		{
			"bufferView":252,
			"componentType":5126,
			"count":90,
			"type":"VEC2"
		},
		{
			"bufferView":253,
			"componentType":5123,
			"count":138,
			"type":"SCALAR"
		},
		{
			"bufferView":254,
			"componentType":5126,
			"count":48,
			"max":[
				0.10000000149011612,
				1.5800000429153442,
				0.10000000149011612
			],
			"min":[
				-0.10000000149011612,
				1.5,
				-0.10000000149011612
			],
			"type":"VEC3"
		},
		{
			"bufferView":255,
			"componentType":5126,
			"count":48,
			"type":"VEC3"
		},
		{
			"bufferView":256,
			"componentType":5126,
			"count":48,
			"type":"VEC2"
		},
		{
			"bufferView":257,
			"componentType":5123,
			"count":84,
			"type":"SCALAR"
		},
		{
			"bufferView":258,
			"componentType":5126,
			"count":384,
			"max":[
				0.7400000095367432,
				1.5499999523162842,
				0.7400000095367432
			],
			"min":[
				-0.7400000095367432,
				0,
				-0.7400000095367432
			],
			"type":"VEC3"
		},
		{
			"bufferView":259,
			"componentType":5126,
			"count":384,
			"type":"VEC3"
		},
		{
			"bufferView":260,
			"componentType":5126,
			"count":384,
			"type":"VEC2"
		},
		{
			"bufferView":261,
			"componentType":5123,
			"count":612,
			"type":"SCALAR"
		},
		{
			"bufferView":262,
			"componentType":5126,
			"count":80,
			"max":[
				0.8199999928474426,
				0.03999999910593033,
				0.8199999928474426
			],
			"min":[
				-0.8199999928474426,
				-0.05999999865889549,
				-0.8199999928474426
			],
			"type":"VEC3"
		},
		{
			"bufferView":263,
			"componentType":5126,
			"count":80,
			"type":"VEC3"
		},
		{
			"bufferView":264,
			"componentType":5126,
			"count":80,
			"type":"VEC2"
		},
		{
			"bufferView":265,
			"componentType":5123,
			"count":132,
			"type":"SCALAR"
		},
		{
			"bufferView":266,
			"componentType":5126,
			"count":56,
			"max":[
				0.5728052854537964,
				1.5099999904632568,
				0.5728052854537964
			],
			"min":[
				-0.5728052854537964,
				1.4900000095367432,
				-0.5728052854537964
			],
			"type":"VEC3"
		},
		{
			"bufferView":267,
			"componentType":5126,
			"count":56,
			"type":"VEC3"
		},
		{
			"bufferView":268,
			"componentType":5126,
			"count":56,
			"type":"VEC2"
		},
		{
			"bufferView":269,
			"componentType":5123,
			"count":72,
			"type":"SCALAR"
		},
		{
			"bufferView":270,
			"componentType":5126,
			"count":32,
			"max":[
				0.634513258934021,
				4.331236362457275,
				0.050475798547267914
			],
			"min":[
				0.010148465633392334,
				3.3849563598632812,
				-0.7037832140922546
			],
			"type":"VEC3"
		},
		{
			"bufferView":271,
			"componentType":5126,
			"count":32,
			"type":"VEC3"
		},
		{
			"bufferView":272,
			"componentType":5126,
			"count":32,
			"type":"VEC2"
		},
		{
			"bufferView":273,
			"componentType":5123,
			"count":48,
			"type":"SCALAR"
		},
		{
			"bufferView":274,
			"componentType":5126,
			"count":32,
			"max":[
				0.43333497643470764,
				4.389841079711914,
				0.46064120531082153
			],
			"min":[
				-0.33082619309425354,
				3.440204381942749,
				-0.022257283329963684
			],
			"type":"VEC3"
		},
		{
			"bufferView":275,
			"componentType":5126,
			"count":32,
			"type":"VEC3"
		},
		{
			"bufferView":276,
			"componentType":5126,
			"count":32,
			"type":"VEC2"
		},
		{
			"bufferView":277,
			"componentType":5123,
			"count":48,
			"type":"SCALAR"
		},
		{
			"bufferView":278,
			"componentType":5126,
			"count":32,
			"max":[
				0.15437136590480804,
				4.568394660949707,
				0.1448257863521576
			],
			"min":[
				-0.5375458598136902,
				3.6210837364196777,
				-0.5506631135940552
			],
			"type":"VEC3"
		},
		{
			"bufferView":279,
			"componentType":5126,
			"count":32,
			"type":"VEC3"
		},
		{
			"bufferView":280,
			"componentType":5126,
			"count":32,
			"type":"VEC2"
		},
		{
			"bufferView":281,
			"componentType":5126,
			"count":32,
			"max":[
				0.5082912445068359,
				4.228489875793457,
				0.2774766683578491
			],
			"min":[
				-0.009709432721138,
				3.279750108718872,
				-0.4904608726501465
			],
			"type":"VEC3"
		},
		{
			"bufferView":282,
			"componentType":5126,
			"count":32,
			"type":"VEC3"
		},
		{
			"bufferView":283,
			"componentType":5126,
			"count":32,
			"type":"VEC2"
		},
		{
			"bufferView":284,
			"componentType":5126,
			"count":32,
			"max":[
				-0.10579821467399597,
				4.285109519958496,
				0.8168820738792419
			],
			"min":[
				-0.7669053673744202,
				3.337965250015259,
				0.05869852006435394
			],
			"type":"VEC3"
		},
		{
			"bufferView":285,
			"componentType":5126,
			"count":32,
			"type":"VEC3"
		},
		{
			"bufferView":286,
			"componentType":5126,
			"count":32,
			"type":"VEC2"
		},
		{
			"bufferView":287,
			"componentType":5126,
			"count":90,
			"max":[
				0.32195988297462463,
				3.388845205307007,
				-0.1221456527709961
			],
			"min":[
				0.06719577312469482,
				1.538238763809204,
				-0.3267554044723511
			],
			"type":"VEC3"
		},
		{
			"bufferView":288,
			"componentType":5126,
			"count":90,
			"type":"VEC3"
		},
		{
			"bufferView":289,
			"componentType":5126,
			"count":90,
			"type":"VEC2"
		},
		{
			"bufferView":290,
			"componentType":5123,
			"count":138,
			"type":"SCALAR"
		},
		{
			"bufferView":291,
			"componentType":5126,
			"count":90,
			"max":[
				0.06666504591703415,
				3.442640781402588,
				0.2323625534772873
			],
			"min":[
				0.013271952047944069,
				1.5391440391540527,
				0.06337134540081024
			],
			"type":"VEC3"
		},
		{
			"bufferView":292,
			"componentType":5126,
			"count":90,
			"type":"VEC3"
		},
		{
			"bufferView":293,
			"componentType":5126,
			"count":90,
			"type":"VEC2"
		},
		{
			"bufferView":294,
			"componentType":5123,
			"count":138,
			"type":"SCALAR"
		},
		{
			"bufferView":295,
			"componentType":5126,
			"count":90,
			"max":[
				-0.0714985653758049,
				3.6223132610321045,
				-0.08139485120773315
			],
			"min":[
				-0.20667152106761932,
				1.5391851663589478,
				-0.21806201338768005
			],
			"type":"VEC3"
		},
		{
			"bufferView":296,
			"componentType":5126,
			"count":90,
			"type":"VEC3"
		},
		{
			"bufferView":297,
			"componentType":5126,
			"count":90,
			"type":"VEC2"
		},
		{
			"bufferView":298,
			"componentType":5123,
			"count":138,
			"type":"SCALAR"
		},
		{
			"bufferView":299,
			"componentType":5126,
			"count":90,
			"max":[
				0.2617203891277313,
				3.2822892665863037,
				-0.01237314660102129
			],
			"min":[
				0.08991813659667969,
				1.5388518571853638,
				-0.11601687222719193
			],
			"type":"VEC3"
		},
		{
			"bufferView":300,
			"componentType":5126,
			"count":90,
			"type":"VEC3"
		},
		{
			"bufferView":301,
			"componentType":5126,
			"count":90,
			"type":"VEC2"
		},
		{
			"bufferView":302,
			"componentType":5123,
			"count":138,
			"type":"SCALAR"
		},
		{
			"bufferView":303,
			"componentType":5126,
			"count":90,
			"max":[
				-0.05918964743614197,
				3.3463776111602783,
				0.415680468082428
			],
			"min":[
				-0.42051389813423157,
				1.5368895530700684,
				0.044832102954387665
			],
			"type":"VEC3"
		},
		{
			"bufferView":304,
			"componentType":5126,
			"count":90,
			"type":"VEC3"
		},
		{
			"bufferView":305,
			"componentType":5126,
			"count":90,
			"type":"VEC2"
		},
		{
			"bufferView":306,
			"componentType":5123,
			"count":138,
			"type":"SCALAR"
		}
	],
	"bufferViews":[
		{
			"buffer":0,
			"byteLength":576,
			"byteOffset":0,
			"target":34962
		},
		{
			"buffer":0,
			"byteLength":576,
			"byteOffset":576,
			"target":34962
		},
		{
			"buffer":0,
			"byteLength":384,
			"byteOffset":1152,
			"target":34962
		},
		{
			"buffer":0,
			"byteLength":144,
			"byteOffset":1536,
			"target":34963
		},
		{
			"buffer":0,
			"byteLength":576,
			"byteOffset":1680,
			"target":34962
		},
		{
			"buffer":0,
			"byteLength":576,
			"byteOffset":2256,
			"target":34962
		},
		{
			"buffer":0,
			"byteLength":384,
			"byteOffset":2832,
			"target":34962
		},
		{
			"buffer":0,
			"byteLength":144,
			"byteOffset":3216,
			"target":34963
		},
		{
			"buffer":0,
			"byteLength":576,
			"byteOffset":3360,
			"target":34962
		},
		{
			"buffer":0,
			"byteLength":576,
			"byteOffset":3936,
			"target":34962
		},
		{
			"buffer":0,
			"byteLength":384,
			"byteOffset":4512,
			"target":34962
		},
		{
			"buffer":0,
			"byteLength":144,
			"byteOffset":4896,
			"target":34963
		},
		{
			"buffer":0,
			"byteLength":576,
			"byteOffset":5040,
			"target":34962
		},
		{
			"buffer":0,
			"byteLength":576,
			"byteOffset":5616,
			"target":34962
		},
		{
			"buffer":0,
			"byteLength":384,
			"byteOffset":6192,
			"target":34962
		},
		{
			"buffer":0,
			"byteLength":144,
			"byteOffset":6576,
			"target":34963
		},
		{
			"buffer":0,
			"byteLength":576,
			"byteOffset":6720,
			"target":34962
		},
		{
			"buffer":0,
			"byteLength":576,
			"byteOffset":7296,
			"target":34962
		},
		{
			"buffer":0,
			"byteLength":384,
			"byteOffset":7872,
			"target":34962
		},
		{
			"buffer":0,
			"byteLength":144,
			"byteOffset":8256,
			"target":34963
		},
		{
			"buffer":0,
			"byteLength":576,
			"byteOffset":8400,
			"target":34962
		},
		{
			"buffer":0,
			"byteLength":576,
			"byteOffset":8976,
			"target":34962
		},
		{
			"buffer":0,
			"byteLength":384,
			"byteOffset":9552,
			"target":34962
		},
		{
			"buffer":0,
			"byteLength":144,
			"byteOffset":9936,
			"target":34963
		},
		{
			"buffer":0,
			"byteLength":576,
			"byteOffset":10080,
			"target":34962
		},
		{
			"buffer":0,
			"byteLength":576,
			"byteOffset":10656,
			"target":34962
		},
		{
			"buffer":0,
			"byteLength":384,
			"byteOffset":11232,
			"target":34962
		},
		{
			"buffer":0,
			"byteLength":144,
			"byteOffset":11616,
			"target":34963
		},
		{
			"buffer":0,
			"byteLength":576,
			"byteOffset":11760,
			"target":34962
		},
		{
			"buffer":0,
			"byteLength":576,
			"byteOffset":12336,
			"target":34962
		},
		{
			"buffer":0,
			"byteLength":384,
			"byteOffset":12912,
			"target":34962
		},
		{
			"buffer":0,
			"byteLength":144,
			"byteOffset":13296,
			"target":34963
		},
		{
			"buffer":0,
			"byteLength":576,
			"byteOffset":13440,
			"target":34962
		},
		{
			"buffer":0,
			"byteLength":576,
			"byteOffset":14016,
			"target":34962
		},
		{
			"buffer":0,
			"byteLength":384,
			"byteOffset":14592,
			"target":34962
		},
		{
			"buffer":0,
			"byteLength":144,
			"byteOffset":14976,
			"target":34963
		},
		{
			"buffer":0,
			"byteLength":576,
			"byteOffset":15120,
			"target":34962
		},
		{
			"buffer":0,
			"byteLength":576,
			"byteOffset":15696,
			"target":34962
		},
		{
			"buffer":0,
			"byteLength":384,
			"byteOffset":16272,
			"target":34962
		},
		{
			"buffer":0,
			"byteLength":144,
			"byteOffset":16656,
			"target":34963
		},
		{
			"buffer":0,
			"byteLength":576,
			"byteOffset":16800,
			"target":34962
		},
		{
			"buffer":0,
			"byteLength":576,
			"byteOffset":17376,
			"target":34962
		},
		{
			"buffer":0,
			"byteLength":384,
			"byteOffset":17952,
			"target":34962
		},
		{
			"buffer":0,
			"byteLength":144,
			"byteOffset":18336,
			"target":34963
		},
		{
			"buffer":0,
			"byteLength":576,
			"byteOffset":18480,
			"target":34962
		},
		{
			"buffer":0,
			"byteLength":576,
			"byteOffset":19056,
			"target":34962
		},
		{
			"buffer":0,
			"byteLength":384,
			"byteOffset":19632,
			"target":34962
		},
		{
			"buffer":0,
			"byteLength":144,
			"byteOffset":20016,
			"target":34963
		},
		{
			"buffer":0,
			"byteLength":576,
			"byteOffset":20160,
			"target":34962
		},
		{
			"buffer":0,
			"byteLength":576,
			"byteOffset":20736,
			"target":34962
		},
		{
			"buffer":0,
			"byteLength":384,
			"byteOffset":21312,
			"target":34962
		},
		{
			"buffer":0,
			"byteLength":144,
			"byteOffset":21696,
			"target":34963
		},
		{
			"buffer":0,
			"byteLength":576,
			"byteOffset":21840,
			"target":34962
		},
		{
			"buffer":0,
			"byteLength":576,
			"byteOffset":22416,
			"target":34962
		},
		{
			"buffer":0,
			"byteLength":384,
			"byteOffset":22992,
			"target":34962
		},
		{
			"buffer":0,
			"byteLength":144,
			"byteOffset":23376,
			"target":34963
		},
		{
			"buffer":0,
			"byteLength":576,
			"byteOffset":23520,
			"target":34962
		},
		{
			"buffer":0,
			"byteLength":576,
			"byteOffset":24096,
			"target":34962
		},
		{
			"buffer":0,
			"byteLength":384,
			"byteOffset":24672,
			"target":34962
		},
		{
			"buffer":0,
			"byteLength":576,
			"byteOffset":25056,
			"target":34962
		},
		{
			"buffer":0,
			"byteLength":576,
			"byteOffset":25632,
			"target":34962
		},
		{
			"buffer":0,
			"byteLength":384,
			"byteOffset":26208,
			"target":34962
		},
		{
			"buffer":0,
			"byteLength":144,
			"byteOffset":26592,
			"target":34963
		},
		{
			"buffer":0,
			"byteLength":576,
			"byteOffset":26736,
			"target":34962
		},
		{
			"buffer":0,
			"byteLength":576,
			"byteOffset":27312,
			"target":34962
		},
		{
			"buffer":0,
			"byteLength":384,
			"byteOffset":27888,
			"target":34962
		},
		{
			"buffer":0,
			"byteLength":144,
			"byteOffset":28272,
			"target":34963
		},
		{
			"buffer":0,
			"byteLength":576,
			"byteOffset":28416,
			"target":34962
		},
		{
			"buffer":0,
			"byteLength":576,
			"byteOffset":28992,
			"target":34962
		},
		{
			"buffer":0,
			"byteLength":384,
			"byteOffset":29568,
			"target":34962
		},
		{
			"buffer":0,
			"byteLength":576,
			"byteOffset":29952,
			"target":34962
		},
		{
			"buffer":0,
			"byteLength":576,
			"byteOffset":30528,
			"target":34962
		},
		{
			"buffer":0,
			"byteLength":384,
			"byteOffset":31104,
			"target":34962
		},
		{
			"buffer":0,
			"byteLength":144,
			"byteOffset":31488,
			"target":34963
		},
		{
			"buffer":0,
			"byteLength":576,
			"byteOffset":31632,
			"target":34962
		},
		{
			"buffer":0,
			"byteLength":576,
			"byteOffset":32208,
			"target":34962
		},
		{
			"buffer":0,
			"byteLength":384,
			"byteOffset":32784,
			"target":34962
		},
		{
			"buffer":0,
			"byteLength":144,
			"byteOffset":33168,
			"target":34963
		},
		{
			"buffer":0,
			"byteLength":576,
			"byteOffset":33312,
			"target":34962
		},
		{
			"buffer":0,
			"byteLength":576,
			"byteOffset":33888,
			"target":34962
		},
		{
			"buffer":0,
			"byteLength":384,
			"byteOffset":34464,
			"target":34962
		},
		{
			"buffer":0,
			"byteLength":144,
			"byteOffset":34848,
			"target":34963
		},
		{
			"buffer":0,
			"byteLength":576,
			"byteOffset":34992,
			"target":34962
		},
		{
			"buffer":0,
			"byteLength":576,
			"byteOffset":35568,
			"target":34962
		},
		{
			"buffer":0,
			"byteLength":384,
			"byteOffset":36144,
			"target":34962
		},
		{
			"buffer":0,
			"byteLength":144,
			"byteOffset":36528,
			"target":34963
		},
		{
			"buffer":0,
			"byteLength":576,
			"byteOffset":36672,
			"target":34962
		},
		{
			"buffer":0,
			"byteLength":576,
			"byteOffset":37248,
			"target":34962
		},
		{
			"buffer":0,
			"byteLength":384,
			"byteOffset":37824,
			"target":34962
		},
		{
			"buffer":0,
			"byteLength":144,
			"byteOffset":38208,
			"target":34963
		},
		{
			"buffer":0,
			"byteLength":576,
			"byteOffset":38352,
			"target":34962
		},
		{
			"buffer":0,
			"byteLength":576,
			"byteOffset":38928,
			"target":34962
		},
		{
			"buffer":0,
			"byteLength":384,
			"byteOffset":39504,
			"target":34962
		},
		{
			"buffer":0,
			"byteLength":144,
			"byteOffset":39888,
			"target":34963
		},
		{
			"buffer":0,
			"byteLength":576,
			"byteOffset":40032,
			"target":34962
		},
		{
			"buffer":0,
			"byteLength":576,
			"byteOffset":40608,
			"target":34962
		},
		{
			"buffer":0,
			"byteLength":384,
			"byteOffset":41184,
			"target":34962
		},
		{
			"buffer":0,
			"byteLength":144,
			"byteOffset":41568,
			"target":34963
		},
		{
			"buffer":0,
			"byteLength":576,
			"byteOffset":41712,
			"target":34962
		},
		{
			"buffer":0,
			"byteLength":576,
			"byteOffset":42288,
			"target":34962
		},
		{
			"buffer":0,
			"byteLength":384,
			"byteOffset":42864,
			"target":34962
		},
		{
			"buffer":0,
			"byteLength":144,
			"byteOffset":43248,
			"target":34963
		},
		{
			"buffer":0,
			"byteLength":576,
			"byteOffset":43392,
			"target":34962
		},
		{
			"buffer":0,
			"byteLength":576,
			"byteOffset":43968,
			"target":34962
		},
		{
			"buffer":0,
			"byteLength":384,
			"byteOffset":44544,
			"target":34962
		},
		{
			"buffer":0,
			"byteLength":144,
			"byteOffset":44928,
			"target":34963
		},
		{
			"buffer":0,
			"byteLength":576,
			"byteOffset":45072,
			"target":34962
		},
		{
			"buffer":0,
			"byteLength":576,
			"byteOffset":45648,
			"target":34962
		},
		{
			"buffer":0,
			"byteLength":384,
			"byteOffset":46224,
			"target":34962
		},
		{
			"buffer":0,
			"byteLength":144,
			"byteOffset":46608,
			"target":34963
		},
		{
			"buffer":0,
			"byteLength":576,
			"byteOffset":46752,
			"target":34962
		},
		{
			"buffer":0,
			"byteLength":576,
			"byteOffset":47328,
			"target":34962
		},
		{
			"buffer":0,
			"byteLength":384,
			"byteOffset":47904,
			"target":34962
		},
		{
			"buffer":0,
			"byteLength":144,
			"byteOffset":48288,
			"target":34963
		},
		{
			"buffer":0,
			"byteLength":576,
			"byteOffset":48432,
			"target":34962
		},
		{
			"buffer":0,
			"byteLength":576,
			"byteOffset":49008,
			"target":34962
		},
		{
			"buffer":0,
			"byteLength":384,
			"byteOffset":49584,
			"target":34962
		},
		{
			"buffer":0,
			"byteLength":144,
			"byteOffset":49968,
			"target":34963
		},
		{
			"buffer":0,
			"byteLength":576,
			"byteOffset":50112,
			"target":34962
		},
		{
			"buffer":0,
			"byteLength":576,
			"byteOffset":50688,
			"target":34962
		},
		{
			"buffer":0,
			"byteLength":384,
			"byteOffset":51264,
			"target":34962
		},
		{
			"buffer":0,
			"byteLength":144,
			"byteOffset":51648,
			"target":34963
		},
		{
			"buffer":0,
			"byteLength":576,
			"byteOffset":51792,
			"target":34962
		},
		{
			"buffer":0,
			"byteLength":576,
			"byteOffset":52368,
			"target":34962
		},
		{
			"buffer":0,
			"byteLength":384,
			"byteOffset":52944,
			"target":34962
		},
		{
			"buffer":0,
			"byteLength":144,
			"byteOffset":53328,
			"target":34963
		},
		{
			"buffer":0,
			"byteLength":1080,
			"byteOffset":53472,
			"target":34962
		},
		{
			"buffer":0,
			"byteLength":1080,
			"byteOffset":54552,
			"target":34962
		},
		{
			"buffer":0,
			"byteLength":720,
			"byteOffset":55632,
			"target":34962
		},
		{
			"buffer":0,
			"byteLength":276,
			"byteOffset":56352,
			"target":34963
		},
		{
			"buffer":0,
			"byteLength":1080,
			"byteOffset":56628,
			"target":34962
		},
		{
			"buffer":0,
			"byteLength":1080,
			"byteOffset":57708,
			"target":34962
		},
		{
			"buffer":0,
			"byteLength":720,
			"byteOffset":58788,
			"target":34962
		},
		{
			"buffer":0,
			"byteLength":276,
			"byteOffset":59508,
			"target":34963
		},
		{
			"buffer":0,
			"byteLength":1080,
			"byteOffset":59784,
			"target":34962
		},
		{
			"buffer":0,
			"byteLength":1080,
			"byteOffset":60864,
			"target":34962
		},
		{
			"buffer":0,
			"byteLength":720,
			"byteOffset":61944,
			"target":34962
		},
		{
			"buffer":0,
			"byteLength":276,
			"byteOffset":62664,
			"target":34963
		},
		{
			"buffer":0,
			"byteLength":1080,
			"byteOffset":62940,
			"target":34962
		},
		{
			"buffer":0,
			"byteLength":1080,
			"byteOffset":64020,
			"target":34962
		},
		{
			"buffer":0,
			"byteLength":720,
			"byteOffset":65100,
			"target":34962
		},
		{
			"buffer":0,
			"byteLength":276,
			"byteOffset":65820,
			"target":34963
		},
		{
			"buffer":0,
			"byteLength":1080,
			"byteOffset":66096,
			"target":34962
		},
		{
			"buffer":0,
			"byteLength":1080,
			"byteOffset":67176,
			"target":34962
		},
		{
			"buffer":0,
			"byteLength":720,
			"byteOffset":68256,
			"target":34962
		},
		{
			"buffer":0,
			"byteLength":276,
			"byteOffset":68976,
			"target":34963
		},
		{
			"buffer":0,
			"byteLength":1080,
			"byteOffset":69252,
			"target":34962
		},
		{
			"buffer":0,
			"byteLength":1080,
			"byteOffset":70332,
			"target":34962
		},
		{
			"buffer":0,
			"byteLength":720,
			"byteOffset":71412,
			"target":34962
		},
		{
			"buffer":0,
			"byteLength":276,
			"byteOffset":72132,
			"target":34963
		},
		{
			"buffer":0,
			"byteLength":1080,
			"byteOffset":72408,
			"target":34962
		},
		{
			"buffer":0,
			"byteLength":1080,
			"byteOffset":73488,
			"target":34962
		},
		{
			"buffer":0,
			"byteLength":720,
			"byteOffset":74568,
			"target":34962
		},
		{
			"buffer":0,
			"byteLength":276,
			"byteOffset":75288,
			"target":34963
		},
		{
			"buffer":0,
			"byteLength":1080,
			"byteOffset":75564,
			"target":34962
		},
		{
			"buffer":0,
			"byteLength":1080,
			"byteOffset":76644,
			"target":34962
		},
		{
			"buffer":0,
			"byteLength":720,
			"byteOffset":77724,
			"target":34962
		},
		{
			"buffer":0,
			"byteLength":276,
			"byteOffset":78444,
			"target":34963
		},
		{
			"buffer":0,
			"byteLength":1080,
			"byteOffset":78720,
			"target":34962
		},
		{
			"buffer":0,
			"byteLength":1080,
			"byteOffset":79800,
			"target":34962
		},
		{
			"buffer":0,
			"byteLength":720,
			"byteOffset":80880,
			"target":34962
		},
		{
			"buffer":0,
			"byteLength":276,
			"byteOffset":81600,
			"target":34963
		},
		{
			"buffer":0,
			"byteLength":1080,
			"byteOffset":81876,
			"target":34962
		},
		{
			"buffer":0,
			"byteLength":1080,
			"byteOffset":82956,
			"target":34962
		},
		{
			"buffer":0,
			"byteLength":720,
			"byteOffset":84036,
			"target":34962
		},
		{
			"buffer":0,
			"byteLength":276,
			"byteOffset":84756,
			"target":34963
		},
		{
			"buffer":0,
			"byteLength":1080,
			"byteOffset":85032,
			"target":34962
		},
		{
			"buffer":0,
			"byteLength":1080,
			"byteOffset":86112,
			"target":34962
		},
		{
			"buffer":0,
			"byteLength":720,
			"byteOffset":87192,
			"target":34962
		},
		{
			"buffer":0,
			"byteLength":276,
			"byteOffset":87912,
			"target":34963
		},
		{
			"buffer":0,
			"byteLength":1080,
			"byteOffset":88188,
			"target":34962
		},
		{
			"buffer":0,
			"byteLength":1080,
			"byteOffset":89268,
			"target":34962
		},
		{
			"buffer":0,
			"byteLength":720,
			"byteOffset":90348,
			"target":34962
		},
		{
			"buffer":0,
			"byteLength":276,
			"byteOffset":91068,
			"target":34963
		},
		{
			"buffer":0,
			"byteLength":1080,
			"byteOffset":91344,
			"target":34962
		},
		{
			"buffer":0,
			"byteLength":1080,
			"byteOffset":92424,
			"target":34962
		},
		{
			"buffer":0,
			"byteLength":720,
			"byteOffset":93504,
			"target":34962
		},
		{
			"buffer":0,
			"byteLength":276,
			"byteOffset":94224,
			"target":34963
		},
		{
			"buffer":0,
			"byteLength":1080,
			"byteOffset":94500,
			"target":34962
		},
		{
			"buffer":0,
			"byteLength":1080,
			"byteOffset":95580,
			"target":34962
		},
		{
			"buffer":0,
			"byteLength":720,
			"byteOffset":96660,
			"target":34962
		},
		{
			"buffer":0,
			"byteLength":276,
			"byteOffset":97380,
			"target":34963
		},
		{
			"buffer":0,
			"byteLength":1080,
			"byteOffset":97656,
			"target":34962
		},
		{
			"buffer":0,
			"byteLength":1080,
			"byteOffset":98736,
			"target":34962
		},
		{
			"buffer":0,
			"byteLength":720,
			"byteOffset":99816,
			"target":34962
		},
		{
			"buffer":0,
			"byteLength":276,
			"byteOffset":100536,
			"target":34963
		},
		{
			"buffer":0,
			"byteLength":1080,
			"byteOffset":100812,
			"target":34962
		},
		{
			"buffer":0,
			"byteLength":1080,
			"byteOffset":101892,
			"target":34962
		},
		{
			"buffer":0,
			"byteLength":720,
			"byteOffset":102972,
			"target":34962
		},
		{
			"buffer":0,
			"byteLength":276,
			"byteOffset":103692,
			"target":34963
		},
		{
			"buffer":0,
			"byteLength":1080,
			"byteOffset":103968,
			"target":34962
		},
		{
			"buffer":0,
			"byteLength":1080,
			"byteOffset":105048,
			"target":34962
		},
		{
			"buffer":0,
			"byteLength":720,
			"byteOffset":106128,
			"target":34962
		},
		{
			"buffer":0,
			"byteLength":276,
			"byteOffset":106848,
			"target":34963
		},
		{
			"buffer":0,
			"byteLength":1080,
			"byteOffset":107124,
			"target":34962
		},
		{
			"buffer":0,
			"byteLength":1080,
			"byteOffset":108204,
			"target":34962
		},
		{
			"buffer":0,
			"byteLength":720,
			"byteOffset":109284,
			"target":34962
		},
		{
			"buffer":0,
			"byteLength":276,
			"byteOffset":110004,
			"target":34963
		},
		{
			"buffer":0,
			"byteLength":1080,
			"byteOffset":110280,
			"target":34962
		},
		{
			"buffer":0,
			"byteLength":1080,
			"byteOffset":111360,
			"target":34962
		},
		{
			"buffer":0,
			"byteLength":720,
			"byteOffset":112440,
			"target":34962
		},
		{
			"buffer":0,
			"byteLength":276,
			"byteOffset":113160,
			"target":34963
		},
		{
			"buffer":0,
			"byteLength":1080,
			"byteOffset":113436,
			"target":34962
		},
		{
			"buffer":0,
			"byteLength":1080,
			"byteOffset":114516,
			"target":34962
		},
		{
			"buffer":0,
			"byteLength":720,
			"byteOffset":115596,
			"target":34962
		},
		{
			"buffer":0,
			"byteLength":276,
			"byteOffset":116316,
			"target":34963
		},
		{
			"buffer":0,
			"byteLength":1080,
			"byteOffset":116592,
			"target":34962
		},
		{
			"buffer":0,
			"byteLength":1080,
			"byteOffset":117672,
			"target":34962
		},
		{
			"buffer":0,
			"byteLength":720,
			"byteOffset":118752,
			"target":34962
		},
		{
			"buffer":0,
			"byteLength":276,
			"byteOffset":119472,
			"target":34963
		},
		{
			"buffer":0,
			"byteLength":1080,
			"byteOffset":119748,
			"target":34962
		},
		{
			"buffer":0,
			"byteLength":1080,
			"byteOffset":120828,
			"target":34962
		},
		{
			"buffer":0,
			"byteLength":720,
			"byteOffset":121908,
			"target":34962
		},
		{
			"buffer":0,
			"byteLength":276,
			"byteOffset":122628,
			"target":34963
		},
		{
			"buffer":0,
			"byteLength":1080,
			"byteOffset":122904,
			"target":34962
		},
		{
			"buffer":0,
			"byteLength":1080,
			"byteOffset":123984,
			"target":34962
		},
		{
			"buffer":0,
			"byteLength":720,
			"byteOffset":125064,
			"target":34962
		},
		{
			"buffer":0,
			"byteLength":276,
			"byteOffset":125784,
			"target":34963
		},
		{
			"buffer":0,
			"byteLength":1080,
			"byteOffset":126060,
			"target":34962
		},
		{
			"buffer":0,
			"byteLength":1080,
			"byteOffset":127140,
			"target":34962
		},
		{
			"buffer":0,
			"byteLength":720,
			"byteOffset":128220,
			"target":34962
		},
		{
			"buffer":0,
			"byteLength":276,
			"byteOffset":128940,
			"target":34963
		},
		{
			"buffer":0,
			"byteLength":1080,
			"byteOffset":129216,
			"target":34962
		},
		{
			"buffer":0,
			"byteLength":1080,
			"byteOffset":130296,
			"target":34962
		},
		{
			"buffer":0,
			"byteLength":720,
			"byteOffset":131376,
			"target":34962
		},
		{
			"buffer":0,
			"byteLength":276,
			"byteOffset":132096,
			"target":34963
		},
		{
			"buffer":0,
			"byteLength":1080,
			"byteOffset":132372,
			"target":34962
		},
		{
			"buffer":0,
			"byteLength":1080,
			"byteOffset":133452,
			"target":34962
		},
		{
			"buffer":0,
			"byteLength":720,
			"byteOffset":134532,
			"target":34962
		},
		{
			"buffer":0,
			"byteLength":276,
			"byteOffset":135252,
			"target":34963
		},
		{
			"buffer":0,
			"byteLength":1080,
			"byteOffset":135528,
			"target":34962
		},
		{
			"buffer":0,
			"byteLength":1080,
			"byteOffset":136608,
			"target":34962
		},
		{
			"buffer":0,
			"byteLength":720,
			"byteOffset":137688,
			"target":34962
		},
		{
			"buffer":0,
			"byteLength":276,
			"byteOffset":138408,
			"target":34963
		},
		{
			"buffer":0,
			"byteLength":1080,
			"byteOffset":138684,
			"target":34962
		},
		{
			"buffer":0,
			"byteLength":1080,
			"byteOffset":139764,
			"target":34962
		},
		{
			"buffer":0,
			"byteLength":720,
			"byteOffset":140844,
			"target":34962
		},
		{
			"buffer":0,
			"byteLength":276,
			"byteOffset":141564,
			"target":34963
		},
		{
			"buffer":0,
			"byteLength":1080,
			"byteOffset":141840,
			"target":34962
		},
		{
			"buffer":0,
			"byteLength":1080,
			"byteOffset":142920,
			"target":34962
		},
		{
			"buffer":0,
			"byteLength":720,
			"byteOffset":144000,
			"target":34962
		},
		{
			"buffer":0,
			"byteLength":276,
			"byteOffset":144720,
			"target":34963
		},
		{
			"buffer":0,
			"byteLength":1080,
			"byteOffset":144996,
			"target":34962
		},
		{
			"buffer":0,
			"byteLength":1080,
			"byteOffset":146076,
			"target":34962
		},
		{
			"buffer":0,
			"byteLength":720,
			"byteOffset":147156,
			"target":34962
		},
		{
			"buffer":0,
			"byteLength":276,
			"byteOffset":147876,
			"target":34963
		},
		{
			"buffer":0,
			"byteLength":1080,
			"byteOffset":148152,
			"target":34962
		},
		{
			"buffer":0,
			"byteLength":1080,
			"byteOffset":149232,
			"target":34962
		},
		{
			"buffer":0,
			"byteLength":720,
			"byteOffset":150312,
			"target":34962
		},
		{
			"buffer":0,
			"byteLength":276,
			"byteOffset":151032,
			"target":34963
		},
		{
			"buffer":0,
			"byteLength":1080,
			"byteOffset":151308,
			"target":34962
		},
		{
			"buffer":0,
			"byteLength":1080,
			"byteOffset":152388,
			"target":34962
		},
		{
			"buffer":0,
			"byteLength":720,
			"byteOffset":153468,
			"target":34962
		},
		{
			"buffer":0,
			"byteLength":276,
			"byteOffset":154188,
			"target":34963
		},
		{
			"buffer":0,
			"byteLength":576,
			"byteOffset":154464,
			"target":34962
		},
		{
			"buffer":0,
			"byteLength":576,
			"byteOffset":155040,
			"target":34962
		},
		{
			"buffer":0,
			"byteLength":384,
			"byteOffset":155616,
			"target":34962
		},
		{
			"buffer":0,
			"byteLength":168,
			"byteOffset":156000,
			"target":34963
		},
		{
			"buffer":0,
			"byteLength":4608,
			"byteOffset":156168,
			"target":34962
		},
		{
			"buffer":0,
			"byteLength":4608,
			"byteOffset":160776,
			"target":34962
		},
		{
			"buffer":0,
			"byteLength":3072,
			"byteOffset":165384,
			"target":34962
		},
		{
			"buffer":0,
			"byteLength":1224,
			"byteOffset":168456,
			"target":34963
		},
		{
			"buffer":0,
			"byteLength":960,
			"byteOffset":169680,
			"target":34962
		},
		{
			"buffer":0,
			"byteLength":960,
			"byteOffset":170640,
			"target":34962
		},
		{
			"buffer":0,
			"byteLength":640,
			"byteOffset":171600,
			"target":34962
		},
		{
			"buffer":0,
			"byteLength":264,
			"byteOffset":172240,
			"target":34963
		},
		{
			"buffer":0,
			"byteLength":672,
			"byteOffset":172504,
			"target":34962
		},
		{
			"buffer":0,
			"byteLength":672,
			"byteOffset":173176,
			"target":34962
		},
		{
			"buffer":0,
			"byteLength":448,
			"byteOffset":173848,
			"target":34962
		},
		{
			"buffer":0,
			"byteLength":144,
			"byteOffset":174296,
			"target":34963
		},
		{
			"buffer":0,
			"byteLength":384,
			"byteOffset":174440,
			"target":34962
		},
		{
			"buffer":0,
			"byteLength":384,
			"byteOffset":174824,
			"target":34962
		},
		{
			"buffer":0,
			"byteLength":256,
			"byteOffset":175208,
			"target":34962
		},
		{
			"buffer":0,
			"byteLength":96,
			"byteOffset":175464,
			"target":34963
		},
		{
			"buffer":0,
			"byteLength":384,
			"byteOffset":175560,
			"target":34962
		},
		{
			"buffer":0,
			"byteLength":384,
			"byteOffset":175944,
			"target":34962
		},
		{
			"buffer":0,
			"byteLength":256,
			"byteOffset":176328,
			"target":34962
		},
		{
			"buffer":0,
			"byteLength":96,
			"byteOffset":176584,
			"target":34963
		},
		{
			"buffer":0,
			"byteLength":384,
			"byteOffset":176680,
			"target":34962
		},
		{
			"buffer":0,
			"byteLength":384,
			"byteOffset":177064,
			"target":34962
		},
		{
			"buffer":0,
			"byteLength":256,
			"byteOffset":177448,
			"target":34962
		},
		{
			"buffer":0,
			"byteLength":384,
			"byteOffset":177704,
			"target":34962
		},
		{
			"buffer":0,
			"byteLength":384,
			"byteOffset":178088,
			"target":34962
		},
		{
			"buffer":0,
			"byteLength":256,
			"byteOffset":178472,
			"target":34962
		},
		{
			"buffer":0,
			"byteLength":384,
			"byteOffset":178728,
			"target":34962
		},
		{
			"buffer":0,
			"byteLength":384,
			"byteOffset":179112,
			"target":34962
		},
		{
			"buffer":0,
			"byteLength":256,
			"byteOffset":179496,
			"target":34962
		},
		{
			"buffer":0,
			"byteLength":1080,
			"byteOffset":179752,
			"target":34962
		},
		{
			"buffer":0,
			"byteLength":1080,
			"byteOffset":180832,
			"target":34962
		},
		{
			"buffer":0,
			"byteLength":720,
			"byteOffset":181912,
			"target":34962
		},
		{
			"buffer":0,
			"byteLength":276,
			"byteOffset":182632,
			"target":34963
		},
		{
			"buffer":0,
			"byteLength":1080,
			"byteOffset":182908,
			"target":34962
		},
		{
			"buffer":0,
			"byteLength":1080,
			"byteOffset":183988,
			"target":34962
		},
		{
			"buffer":0,
			"byteLength":720,
			"byteOffset":185068,
			"target":34962
		},
		{
			"buffer":0,
			"byteLength":276,
			"byteOffset":185788,
			"target":34963
		},
		{
			"buffer":0,
			"byteLength":1080,
			"byteOffset":186064,
			"target":34962
		},
		{
			"buffer":0,
			"byteLength":1080,
			"byteOffset":187144,
			"target":34962
		},
		{
			"buffer":0,
			"byteLength":720,
			"byteOffset":188224,
			"target":34962
		},
		{
			"buffer":0,
			"byteLength":276,
			"byteOffset":188944,
			"target":34963
		},
		{
			"buffer":0,
			"byteLength":1080,
			"byteOffset":189220,
			"target":34962
		},
		{
			"buffer":0,
			"byteLength":1080,
			"byteOffset":190300,
			"target":34962
		},
		{
			"buffer":0,
			"byteLength":720,
			"byteOffset":191380,
			"target":34962
		},
		{
			"buffer":0,
			"byteLength":276,
			"byteOffset":192100,
			"target":34963
		},
		{
			"buffer":0,
			"byteLength":1080,
			"byteOffset":192376,
			"target":34962
		},
		{
			"buffer":0,
			"byteLength":1080,
			"byteOffset":193456,
			"target":34962
		},
		{
			"buffer":0,
			"byteLength":720,
			"byteOffset":194536,
			"target":34962
		},
		{
			"buffer":0,
			"byteLength":276,
			"byteOffset":195256,
			"target":34963
		}
	],
	"samplers":[
		{
			"magFilter":9728,
			"minFilter":9984,
			"wrapS":33071,
			"wrapT":33071
		},
		{
			"magFilter":9728,
			"minFilter":9984
		}
	],
	"buffers":[
		{
			"byteLength":195532,
			"uri":"PeaceLily.bin"
		}
	]
}
