{
	"asset":{
		"generator":"Khronos glTF Blender I/O v5.1.19",
		"version":"2.0"
	},
	"extensionsUsed":[
		"KHR_materials_specular"
	],
	"scene":0,
	"scenes":[
		{
			"name":"Scene",
			"nodes":[
				19
			]
		}
	],
	"nodes":[
		{
			"mesh":0,
			"name":"Pot.006"
		},
		{
			"mesh":1,
			"name":"Saucer.006"
		},
		{
			"mesh":2,
			"name":"Soil.006"
		},
		{
			"mesh":3,
			"name":"Vine_000"
		},
		{
			"mesh":4,
			"name":"Vine_001"
		},
		{
			"mesh":5,
			"name":"Vine_002"
		},
		{
			"mesh":6,
			"name":"Vine_003"
		},
		{
			"mesh":7,
			"name":"Vine_004"
		},
		{
			"mesh":8,
			"name":"Vine_005"
		},
		{
			"mesh":9,
			"name":"Vine_006"
		},
		{
			"mesh":10,
			"name":"Vine_007"
		},
		{
			"mesh":11,
			"name":"Vine_008"
		},
		{
			"mesh":12,
			"name":"Vine_009"
		},
		{
			"mesh":13,
			"name":"Vine_010"
		},
		{
			"mesh":14,
			"name":"Vine_011"
		},
		{
			"mesh":15,
			"name":"Vine_012"
		},
		{
			"mesh":16,
			"name":"Vine_013"
		},
		{
			"mesh":17,
			"name":"Vine_014"
		},
		{
			"mesh":18,
			"name":"Vine_015"
		},
		{
			"children":[
				0,
				1,
				2,
				3,
				4,
				5,
				6,
				7,
				8,
				9,
				10,
				11,
				12,
				13,
				14,
				15,
				16,
				17,
				18
			],
			"name":"GRP_Pothos"
		}
	],
	"materials":[
		{
			"doubleSided":true,
			"extensions":{
				"KHR_materials_specular":{
					"specularFactor":0.4000000059604645
				}
			},
			"name":"PotMat.006",
			"pbrMetallicRoughness":{
				"baseColorTexture":{
					"index":0
				},
				"metallicFactor":0,
				"roughnessFactor":0.8500000238418579
			}
		},
		{
			"doubleSided":true,
			"extensions":{
				"KHR_materials_specular":{
					"specularFactor":0.4000000059604645
				}
			},
			"name":"SaucerMat.006",
			"pbrMetallicRoughness":{
				"baseColorTexture":{
					"index":1
				},
				"metallicFactor":0,
				"roughnessFactor":0.8500000238418579
			}
		},
		{
			"doubleSided":true,
			"extensions":{
				"KHR_materials_specular":{
					"specularFactor":0.4000000059604645
				}
			},
			"name":"SoilMat.006",
			"pbrMetallicRoughness":{
				"baseColorTexture":{
					"index":2
				},
				"metallicFactor":0,
				"roughnessFactor":0.8500000238418579
			}
		},
		{
			"alphaMode":"BLEND",
			"doubleSided":true,
			"extensions":{
				"KHR_materials_specular":{
					"specularFactor":0.4000000059604645
				}
			},
			"name":"VineMat",
			"pbrMetallicRoughness":{
				"baseColorTexture":{
					"index":3
				},
				"metallicFactor":0,
				"roughnessFactor":0.8500000238418579
			}
		}
	],
	"meshes":[
		{
			"name":"Pot.006",
			"primitives":[
				{
					"attributes":{
						"POSITION":0,
						"NORMAL":1,
						"TEXCOORD_0":2
					},
					"indices":3,
					"material":0
				}
			]
		},
		{
			"name":"Saucer.006",
			"primitives":[
				{
					"attributes":{
						"POSITION":4,
						"NORMAL":5,
						"TEXCOORD_0":6
					},
					"indices":7,
					"material":1
				}
			]
		},
		{
			"name":"Soil.006",
			"primitives":[
				{
					"attributes":{
						"POSITION":8,
						"NORMAL":9,
						"TEXCOORD_0":10
					},
					"indices":11,
					"material":2
				}
			]
		},
		{
			"name":"Vine_000",
			"primitives":[
				{
					"attributes":{
						"POSITION":12,
						"NORMAL":13,
						"TEXCOORD_0":14
					},
					"indices":15,
					"material":3
				}
			]
		},
		{
			"name":"Vine_001",
			"primitives":[
				{
					"attributes":{
						"POSITION":16,
						"NORMAL":17,
						"TEXCOORD_0":18
					},
					"indices":19,
					"material":3
				}
			]
		},
		{
			"name":"Vine_002",
			"primitives":[
				{
					"attributes":{
						"POSITION":20,
						"NORMAL":21,
						"TEXCOORD_0":22
					},
					"indices":23,
					"material":3
				}
			]
		},
		{
			"name":"Vine_003",
			"primitives":[
				{
					"attributes":{
						"POSITION":24,
						"NORMAL":25,
						"TEXCOORD_0":26
					},
					"indices":27,
					"material":3
				}
			]
		},
		{
			"name":"Vine_004",
			"primitives":[
				{
					"attributes":{
						"POSITION":28,
						"NORMAL":29,
						"TEXCOORD_0":30
					},
					"indices":31,
					"material":3
				}
			]
		},
		{
			"name":"Vine_005",
			"primitives":[
				{
					"attributes":{
						"POSITION":32,
						"NORMAL":33,
						"TEXCOORD_0":34
					},
					"indices":35,
					"material":3
				}
			]
		},
		{
			"name":"Vine_006",
			"primitives":[
				{
					"attributes":{
						"POSITION":36,
						"NORMAL":37,
						"TEXCOORD_0":38
					},
					"indices":39,
					"material":3
				}
			]
		},
		{
			"name":"Vine_007",
			"primitives":[
				{
					"attributes":{
						"POSITION":40,
						"NORMAL":41,
						"TEXCOORD_0":42
					},
					"indices":19,
					"material":3
				}
			]
		},
		{
			"name":"Vine_008",
			"primitives":[
				{
					"attributes":{
						"POSITION":43,
						"NORMAL":44,
						"TEXCOORD_0":45
					},
					"indices":27,
					"material":3
				}
			]
		},
		{
			"name":"Vine_009",
			"primitives":[
				{
					"attributes":{
						"POSITION":46,
						"NORMAL":47,
						"TEXCOORD_0":48
					},
					"indices":49,
					"material":3
				}
			]
		},
		{
			"name":"Vine_010",
			"primitives":[
				{
					"attributes":{
						"POSITION":50,
						"NORMAL":51,
						"TEXCOORD_0":52
					},
					"indices":27,
					"material":3
				}
			]
		},
		{
			"name":"Vine_011",
			"primitives":[
				{
					"attributes":{
						"POSITION":53,
						"NORMAL":54,
						"TEXCOORD_0":55
					},
					"indices":56,
					"material":3
				}
			]
		},
		{
			"name":"Vine_012",
			"primitives":[
				{
					"attributes":{
						"POSITION":57,
						"NORMAL":58,
						"TEXCOORD_0":59
					},
					"indices":60,
					"material":3
				}
			]
		},
		{
			"name":"Vine_013",
			"primitives":[
				{
					"attributes":{
						"POSITION":61,
						"NORMAL":62,
						"TEXCOORD_0":63
					},
					"indices":19,
					"material":3
				}
			]
		},
		{
			"name":"Vine_014",
			"primitives":[
				{
					"attributes":{
						"POSITION":64,
						"NORMAL":65,
						"TEXCOORD_0":66
					},
					"indices":56,
					"material":3
				}
			]
		},
		{
			"name":"Vine_015",
			"primitives":[
				{
					"attributes":{
						"POSITION":67,
						"NORMAL":68,
						"TEXCOORD_0":69
					},
					"indices":27,
					"material":3
				}
			]
		}
	],
	"textures":[
		{
			"sampler":0,
			"source":0
		},
		{
			"sampler":0,
			"source":1
		},
		{
			"sampler":0,
			"source":2
		},
		{
			"sampler":1,
			"source":3
		}
	],
	"images":[
		{
			"mimeType":"image/png",
			"name":"PotTex",
			"uri":"PotTex.png"
		},
		{
			"mimeType":"image/png",
			"name":"SaucerTex",
			"uri":"SaucerTex.png"
		},
		{
			"mimeType":"image/png",
			"name":"SoilTex",
			"uri":"SoilTex.png"
		},
		{
			"mimeType":"image/png",
			"name":"VineTex",
			"uri":"VineTex.png"
		}
	],
	"accessors":[
		{
			"bufferView":0,
			"componentType":5126,
			"count":352,
			"max":[
				0.7799999713897705,
				1.5499999523162842,
				0.7799999713897705
			],
			"min":[
				-0.7799999713897705,
				0,
				-0.7799999713897705
			],
			"type":"VEC3"
		},
		{
			"bufferView":1,
			"componentType":5126,
			"count":352,
			"type":"VEC3"
		},
		{
			"bufferView":2,
			"componentType":5126,
			"count":352,
			"type":"VEC2"
		},
		{
			"bufferView":3,
			"componentType":5123,
			"count":612,
			"type":"SCALAR"
		},
		{
			"bufferView":4,
			"componentType":5126,
			"count":80,
			"max":[
				0.8600000143051147,
				0.03999999910593033,
				0.8600000143051147
			],
			"min":[
				-0.8600000143051147,
				-0.05999999865889549,
				-0.8600000143051147
			],
			"type":"VEC3"
		},
		{
			"bufferView":5,
			"componentType":5126,
			"count":80,
			"type":"VEC3"
		},
		{
			"bufferView":6,
			"componentType":5126,
			"count":80,
			"type":"VEC2"
		},
		{
			"bufferView":7,
			"componentType":5123,
			"count":132,
			"type":"SCALAR"
		},
		{
			"bufferView":8,
			"componentType":5126,
			"count":56,
			"max":[
				0.6097604632377625,
				1.4900000095367432,
				0.6097604632377625
			],
			"min":[
				-0.6097604632377625,
				1.4700000286102295,
				-0.6097604632377625
			],
			"type":"VEC3"
		},
		{
			"bufferView":9,
			"componentType":5126,
			"count":56,
			"type":"VEC3"
		},
		{
			"bufferView":10,
			"componentType":5126,
			"count":56,
			"type":"VEC2"
		},
		{
			"bufferView":11,
			"componentType":5123,
			"count":72,
			"type":"SCALAR"
		},
		{
			"bufferView":12,
			"componentType":5126,
			"count":96,
			"max":[
				1.3081251382827759,
				2.2328567504882812,
				0.039479877799749374
			],
			"min":[
				-0.02242281287908554,
				-0.0464329868555069,
				-1.102608323097229
			],
			"type":"VEC3"
		},
		{
			"bufferView":13,
			"componentType":5126,
			"count":96,
			"type":"VEC3"
		},
		{
			"bufferView":14,
			"componentType":5126,
			"count":96,
			"type":"VEC2"
		},
		{
			"bufferView":15,
			"componentType":5123,
			"count":144,
			"type":"SCALAR"
		},
		{
			"bufferView":16,
			"componentType":5126,
			"count":96,
			"max":[
				0.06011752039194107,
				2.204653024673462,
				0.27338725328445435
			],
			"min":[
				-1.5944157838821411,
				0.46616601943969727,
				0.008662202395498753
			],
			"type":"VEC3"
		},
		{
			"bufferView":17,
			"componentType":5126,
			"count":96,
			"type":"VEC3"
		},
		{
			"bufferView":18,
			"componentType":5126,
			"count":96,
			"type":"VEC2"
		},
		{
			"bufferView":19,
			"componentType":5123,
			"count":144,
			"type":"SCALAR"
		},
		{
			"bufferView":20,
			"componentType":5126,
			"count":96,
			"max":[
				0.21495166420936584,
				2.195535659790039,
				0.06707414984703064
			],
			"min":[
				-0.0904819443821907,
				0.5057576298713684,
				-1.703038215637207
			],
			"type":"VEC3"
		},
		{
			"bufferView":21,
			"componentType":5126,
			"count":96,
			"type":"VEC3"
		},
		{
			"bufferView":22,
			"componentType":5126,
			"count":96,
			"type":"VEC2"
		},
		{
			"bufferView":23,
			"componentType":5123,
			"count":144,
			"type":"SCALAR"
		},
		{
			"bufferView":24,
			"componentType":5126,
			"count":96,
			"max":[
				0.11645530164241791,
				2.1103930473327637,
				0.044134240597486496
			],
			"min":[
				-0.6027880311012268,
				0.19635185599327087,
				-1.390710473060608
			],
			"type":"VEC3"
		},
		{
			"bufferView":25,
			"componentType":5126,
			"count":96,
			"type":"VEC3"
		},
		{
			"bufferView":26,
			"componentType":5126,
			"count":96,
			"type":"VEC2"
		},
		{
			"bufferView":27,
			"componentType":5123,
			"count":144,
			"type":"SCALAR"
		},
		{
			"bufferView":28,
			"componentType":5126,
			"count":96,
			"max":[
				0.05332200974225998,
				2.143981456756592,
				1.3979064226150513
			],
			"min":[
				-0.10102003812789917,
				-0.043998051434755325,
				-0.09026515483856201
			],
			"type":"VEC3"
		},
		{
			"bufferView":29,
			"componentType":5126,
			"count":96,
			"type":"VEC3"
		},
		{
			"bufferView":30,
			"componentType":5126,
			"count":96,
			"type":"VEC2"
		},
		{
			"bufferView":31,
			"componentType":5123,
			"count":144,
			"type":"SCALAR"
		},
		{
			"bufferView":32,
			"componentType":5126,
			"count":96,
			"max":[
				1.469570279121399,
				1.864814043045044,
				0.434288889169693
			],
			"min":[
				0.006056224927306175,
				-0.04114192724227905,
				-0.4055514633655548
			],
			"type":"VEC3"
		},
		{
			"bufferView":33,
			"componentType":5126,
			"count":96,
			"type":"VEC3"
		},
		{
			"bufferView":34,
			"componentType":5126,
			"count":96,
			"type":"VEC2"
		},
		{
			"bufferView":35,
			"componentType":5123,
			"count":144,
			"type":"SCALAR"
		},
		{
			"bufferView":36,
			"componentType":5126,
			"count":96,
			"max":[
				0.026282161474227905,
				1.8914810419082642,
				1.0673844814300537
			],
			"min":[
				-1.2987427711486816,
				0.2783621847629547,
				-0.10352736711502075
			],
			"type":"VEC3"
		},
		{
			"bufferView":37,
			"componentType":5126,
			"count":96,
			"type":"VEC3"
		},
		{
			"bufferView":38,
			"componentType":5126,
			"count":96,
			"type":"VEC2"
		},
		{
			"bufferView":39,
			"componentType":5123,
			"count":144,
			"type":"SCALAR"
		},
		{
			"bufferView":40,
			"componentType":5126,
			"count":96,
			"max":[
				0.213156595826149,
				1.9382175207138062,
				1.3983842134475708
			],
			"min":[
				-0.6821497678756714,
				0.09330124408006668,
				0.010259625501930714
			],
			"type":"VEC3"
		},
		{
			"bufferView":41,
			"componentType":5126,
			"count":96,
			"type":"VEC3"
		},
		{
			"bufferView":42,
			"componentType":5126,
			"count":96,
			"type":"VEC2"
		},
		{
			"bufferView":43,
			"componentType":5126,
			"count":96,
			"max":[
				1.5888111591339111,
				2.2186617851257324,
				0.3476584553718567
			],
			"min":[
				-0.07954051345586777,
				0.18556319177150726,
				-0.010681573301553726
			],
			"type":"VEC3"
		},
		{
			"bufferView":44,
			"componentType":5126,
			"count":96,
			"type":"VEC3"
		},
		{
			"bufferView":45,
			"componentType":5126,
			"count":96,
			"type":"VEC2"
		},
		{
			"bufferView":46,
			"componentType":5126,
			"count":96,
			"max":[
				0.018614016473293304,
				2.0912790298461914,
				0.17718403041362762
			],
			"min":[
				-1.4303622245788574,
				0.169962078332901,
				-0.6001255512237549
			],
			"type":"VEC3"
		},
		{
			"bufferView":47,
			"componentType":5126,
			"count":96,
			"type":"VEC3"
		},
		{
			"bufferView":48,
			"componentType":5126,
			"count":96,
			"type":"VEC2"
		},
		{
			"bufferView":49,
			"componentType":5123,
			"count":144,
			"type":"SCALAR"
		},
		{
			"bufferView":50,
			"componentType":5126,
			"count":96,
			"max":[
				0.09320145100355148,
				2.2955610752105713,
				0.0015661073848605156
			],
			"min":[
				-1.6076557636260986,
				0.6134305000305176,
				-0.24511940777301788
			],
			"type":"VEC3"
		},
		{
			"bufferView":51,
			"componentType":5126,
			"count":96,
			"type":"VEC3"
		},
		{
			"bufferView":52,
			"componentType":5126,
			"count":96,
			"type":"VEC2"
		},
		{
			"bufferView":53,
			"componentType":5126,
			"count":96,
			"max":[
				0.5652638673782349,
				1.889674425125122,
				1.338385820388794
			],
			"min":[
				-0.21974965929985046,
				0.3911915719509125,
				0.01828611269593239
			],
			"type":"VEC3"
		},
		{
			"bufferView":54,
			"componentType":5126,
			"count":96,
			"type":"VEC3"
		},
		{
			"bufferView":55,
			"componentType":5126,
			"count":96,
			"type":"VEC2"
		},
		{
			"bufferView":56,
			"componentType":5123,
			"count":144,
			"type":"SCALAR"
		},
		{
			"bufferView":57,
			"componentType":5126,
			"count":96,
			"max":[
				0.6704583168029785,
				1.8923745155334473,
				-0.014431273564696312
			],
			"min":[
				-0.22451132535934448,
				-0.03670964390039444,
				-1.4146273136138916
			],
			"type":"VEC3"
		},
		{
			"bufferView":58,
			"componentType":5126,
			"count":96,
			"type":"VEC3"
		},
		{
			"bufferView":59,
			"componentType":5126,
			"count":96,
			"type":"VEC2"
		},
		{
			"bufferView":60,
			"componentType":5123,
			"count":144,
			"type":"SCALAR"
		},
		{
			"bufferView":61,
			"componentType":5126,
			"count":96,
			"max":[
				1.2949199676513672,
				2.1998820304870605,
				0.016605256125330925
			],
			"min":[
				-0.06617259979248047,
				0.2996518909931183,
				-0.9169034361839294
			],
			"type":"VEC3"
		},
		{
			"bufferView":62,
			"componentType":5126,
			"count":96,
			"type":"VEC3"
		},
		{
			"bufferView":63,
			"componentType":5126,
			"count":96,
			"type":"VEC2"
		},
		{
			"bufferView":64,
			"componentType":5126,
			"count":96,
			"max":[
				1.0286176204681396,
				1.9857456684112549,
				1.131330966949463
			],
			"min":[
				-0.11497647315263748,
				0.47739195823669434,
				-0.05151847004890442
			],
			"type":"VEC3"
		},
		{
			"bufferView":65,
			"componentType":5126,
			"count":96,
			"type":"VEC3"
		},
		{
			"bufferView":66,
			"componentType":5126,
			"count":96,
			"type":"VEC2"
		},
		{
			"bufferView":67,
			"componentType":5126,
			"count":96,
			"max":[
				0.05931999534368515,
				2.144531011581421,
				0.05031431466341019
			],
			"min":[
				-1.0409798622131348,
				0.43340906500816345,
				-1.1497101783752441
			],
			"type":"VEC3"
		},
		{
			"bufferView":68,
			"componentType":5126,
			"count":96,
			"type":"VEC3"
		},
		{
			"bufferView":69,
			"componentType":5126,
			"count":96,
			"type":"VEC2"
		}
	],
	"bufferViews":[
		{
			"buffer":0,
			"byteLength":4224,
			"byteOffset":0,
			"target":34962
		},
		{
			"buffer":0,
			"byteLength":4224,
			"byteOffset":4224,
			"target":34962
		},
		{
			"buffer":0,
			"byteLength":2816,
			"byteOffset":8448,
			"target":34962
		},
		{
			"buffer":0,
			"byteLength":1224,
			"byteOffset":11264,
			"target":34963
		},
		{
			"buffer":0,
			"byteLength":960,
			"byteOffset":12488,
			"target":34962
		},
		{
			"buffer":0,
			"byteLength":960,
			"byteOffset":13448,
			"target":34962
		},
		{
			"buffer":0,
			"byteLength":640,
			"byteOffset":14408,
			"target":34962
		},
		{
			"buffer":0,
			"byteLength":264,
			"byteOffset":15048,
			"target":34963
		},
		{
			"buffer":0,
			"byteLength":672,
			"byteOffset":15312,
			"target":34962
		},
		{
			"buffer":0,
			"byteLength":672,
			"byteOffset":15984,
			"target":34962
		},
		{
			"buffer":0,
			"byteLength":448,
			"byteOffset":16656,
			"target":34962
		},
		{
			"buffer":0,
			"byteLength":144,
			"byteOffset":17104,
			"target":34963
		},
		{
			"buffer":0,
			"byteLength":1152,
			"byteOffset":17248,
			"target":34962
		},
		{
			"buffer":0,
			"byteLength":1152,
			"byteOffset":18400,
			"target":34962
		},
		{
			"buffer":0,
			"byteLength":768,
			"byteOffset":19552,
			"target":34962
		},
		{
			"buffer":0,
			"byteLength":288,
			"byteOffset":20320,
			"target":34963
		},
		{
			"buffer":0,
			"byteLength":1152,
			"byteOffset":20608,
			"target":34962
		},
		{
			"buffer":0,
			"byteLength":1152,
			"byteOffset":21760,
			"target":34962
		},
		{
			"buffer":0,
			"byteLength":768,
			"byteOffset":22912,
			"target":34962
		},
		{
			"buffer":0,
			"byteLength":288,
			"byteOffset":23680,
			"target":34963
		},
		{
			"buffer":0,
			"byteLength":1152,
			"byteOffset":23968,
			"target":34962
		},
		{
			"buffer":0,
			"byteLength":1152,
			"byteOffset":25120,
			"target":34962
		},
		{
			"buffer":0,
			"byteLength":768,
			"byteOffset":26272,
			"target":34962
		},
		{
			"buffer":0,
			"byteLength":288,
			"byteOffset":27040,
			"target":34963
		},
		{
			"buffer":0,
			"byteLength":1152,
			"byteOffset":27328,
			"target":34962
		},
		{
			"buffer":0,
			"byteLength":1152,
			"byteOffset":28480,
			"target":34962
		},
		{
			"buffer":0,
			"byteLength":768,
			"byteOffset":29632,
			"target":34962
		},
		{
			"buffer":0,
			"byteLength":288,
			"byteOffset":30400,
			"target":34963
		},
		{
			"buffer":0,
			"byteLength":1152,
			"byteOffset":30688,
			"target":34962
		},
		{
			"buffer":0,
			"byteLength":1152,
			"byteOffset":31840,
			"target":34962
		},
		{
			"buffer":0,
			"byteLength":768,
			"byteOffset":32992,
			"target":34962
		},
		{
			"buffer":0,
			"byteLength":288,
			"byteOffset":33760,
			"target":34963
		},
		{
			"buffer":0,
			"byteLength":1152,
			"byteOffset":34048,
			"target":34962
		},
		{
			"buffer":0,
			"byteLength":1152,
			"byteOffset":35200,
			"target":34962
		},
		{
			"buffer":0,
			"byteLength":768,
			"byteOffset":36352,
			"target":34962
		},
		{
			"buffer":0,
			"byteLength":288,
			"byteOffset":37120,
			"target":34963
		},
		{
			"buffer":0,
			"byteLength":1152,
			"byteOffset":37408,
			"target":34962
		},
		{
			"buffer":0,
			"byteLength":1152,
			"byteOffset":38560,
			"target":34962
		},
		{
			"buffer":0,
			"byteLength":768,
			"byteOffset":39712,
			"target":34962
		},
		{
			"buffer":0,
			"byteLength":288,
			"byteOffset":40480,
			"target":34963
		},
		{
			"buffer":0,
			"byteLength":1152,
			"byteOffset":40768,
			"target":34962
		},
		{
			"buffer":0,
			"byteLength":1152,
			"byteOffset":41920,
			"target":34962
		},
		{
			"buffer":0,
			"byteLength":768,
			"byteOffset":43072,
			"target":34962
		},
		{
			"buffer":0,
			"byteLength":1152,
			"byteOffset":43840,
			"target":34962
		},
		{
			"buffer":0,
			"byteLength":1152,
			"byteOffset":44992,
			"target":34962
		},
		{
			"buffer":0,
			"byteLength":768,
			"byteOffset":46144,
			"target":34962
		},
		{
			"buffer":0,
			"byteLength":1152,
			"byteOffset":46912,
			"target":34962
		},
		{
			"buffer":0,
			"byteLength":1152,
			"byteOffset":48064,
			"target":34962
		},
		{
			"buffer":0,
			"byteLength":768,
			"byteOffset":49216,
			"target":34962
		},
		{
			"buffer":0,
			"byteLength":288,
			"byteOffset":49984,
			"target":34963
		},
		{
			"buffer":0,
			"byteLength":1152,
			"byteOffset":50272,
			"target":34962
		},
		{
			"buffer":0,
			"byteLength":1152,
			"byteOffset":51424,
			"target":34962
		},
		{
			"buffer":0,
			"byteLength":768,
			"byteOffset":52576,
			"target":34962
		},
		{
			"buffer":0,
			"byteLength":1152,
			"byteOffset":53344,
			"target":34962
		},
		{
			"buffer":0,
			"byteLength":1152,
			"byteOffset":54496,
			"target":34962
		},
		{
			"buffer":0,
			"byteLength":768,
			"byteOffset":55648,
			"target":34962
		},
		{
			"buffer":0,
			"byteLength":288,
			"byteOffset":56416,
			"target":34963
		},
		{
			"buffer":0,
			"byteLength":1152,
			"byteOffset":56704,
			"target":34962
		},
		{
			"buffer":0,
			"byteLength":1152,
			"byteOffset":57856,
			"target":34962
		},
		{
			"buffer":0,
			"byteLength":768,
			"byteOffset":59008,
			"target":34962
		},
		{
			"buffer":0,
			"byteLength":288,
			"byteOffset":59776,
			"target":34963
		},
		{
			"buffer":0,
			"byteLength":1152,
			"byteOffset":60064,
			"target":34962
		},
		{
			"buffer":0,
			"byteLength":1152,
			"byteOffset":61216,
			"target":34962
		},
		{
			"buffer":0,
			"byteLength":768,
			"byteOffset":62368,
			"target":34962
		},
		{
			"buffer":0,
			"byteLength":1152,
			"byteOffset":63136,
			"target":34962
		},
		{
			"buffer":0,
			"byteLength":1152,
			"byteOffset":64288,
			"target":34962
		},
		{
			"buffer":0,
			"byteLength":768,
			"byteOffset":65440,
			"target":34962
		},
		{
			"buffer":0,
			"byteLength":1152,
			"byteOffset":66208,
			"target":34962
		},
		{
			"buffer":0,
			"byteLength":1152,
			"byteOffset":67360,
			"target":34962
		},
		{
			"buffer":0,
			"byteLength":768,
			"byteOffset":68512,
			"target":34962
		}
	],
	"samplers":[
		{
			"magFilter":9728,
			"minFilter":9984
		},
		{
			"magFilter":9728,
			"minFilter":9984,
			"wrapS":33071,
			"wrapT":33071
		}
	],
	"buffers":[
		{
			"byteLength":69280,
			"uri":"Pothos.bin"
		}
	]
}
