{
	"asset":{
		"generator":"Khronos glTF Blender I/O v5.1.19",
		"version":"2.0"
	},
	"extensionsUsed":[
		"KHR_materials_specular"
	],
	"scene":0,
	"scenes":[
		{
			"name":"Scene",
			"nodes":[
				53
			]
		}
	],
	"nodes":[
		{
			"mesh":0,
			"name":"Leaf_000.003"
		},
		{
			"mesh":1,
			"name":"Leaf_001.003"
		},
		{
			"mesh":2,
			"name":"Leaf_002.003"
		},
		{
			"mesh":3,
			"name":"Leaf_003.003"
		},
		{
			"mesh":4,
			"name":"Leaf_004.003"
		},
		{
			"mesh":5,
			"name":"Leaf_005.003"
		},
		{
			"mesh":6,
			"name":"Leaf_006.003"
		},
		{
			"mesh":7,
			"name":"Leaf_007.003"
		},
		{
			"mesh":8,
			"name":"Leaf_008.003"
		},
		{
			"mesh":9,
			"name":"Leaf_009.003"
		},
		{
			"mesh":10,
			"name":"Leaf_010.003"
		},
		{
			"mesh":11,
			"name":"Leaf_011.003"
		},
		{
			"mesh":12,
			"name":"Leaf_012.003"
		},
		{
			"mesh":13,
			"name":"Leaf_013.002"
		},
		{
			"mesh":14,
			"name":"Leaf_014.003"
		},
		{
			"mesh":15,
			"name":"Leaf_015.003"
		},
		{
			"mesh":16,
			"name":"Leaf_016.003"
		},
		{
			"mesh":17,
			"name":"Leaf_017.003"
		},
		{
			"mesh":18,
			"name":"Leaf_018.003"
		},
		{
			"mesh":19,
			"name":"Leaf_019.003"
		},
		{
			"mesh":20,
			"name":"Leaf_020.003"
		},
		{
			"mesh":21,
			"name":"Leaf_021.003"
		},
		{
			"mesh":22,
			"name":"Leaf_022.003"
		},
		{
			"mesh":23,
			"name":"Leaf_023.002"
		},
		{
			"mesh":24,
			"name":"Leaf_024.003"
		},
		{
			"mesh":25,
			"name":"Leaf_025.003"
		},
		{
			"mesh":26,
			"name":"Leaf_026.003"
		},
		{
			"mesh":27,
			"name":"Leaf_027.002"
		},
		{
			"mesh":28,
			"name":"Leaf_028.002"
		},
		{
			"mesh":29,
			"name":"Leaf_029.002"
		},
		{
			"mesh":30,
			"name":"Leaf_030.002"
		},
		{
			"mesh":31,
			"name":"Leaf_031.002"
		},
		{
			"mesh":32,
			"name":"Leaf_032.002"
		},
		{
			"mesh":33,
			"name":"Leaf_033.001"
		},
		{
			"mesh":34,
			"name":"Leaf_034.001"
		},
		{
			"mesh":35,
			"name":"Leaf_035.001"
		},
		{
			"mesh":36,
			"name":"Leaf_036.001"
		},
		{
			"mesh":37,
			"name":"Leaf_037.001"
		},
		{
			"mesh":38,
			"name":"Leaf_038.001"
		},
		{
			"mesh":39,
			"name":"Leaf_039.001"
		},
		{
			"mesh":40,
			"name":"Leaf_040.001"
		},
		{
			"mesh":41,
			"name":"Leaf_041.001"
		},
		{
			"mesh":42,
			"name":"Leaf_042.001"
		},
		{
			"mesh":43,
			"name":"Leaf_043.001"
		},
		{
			"mesh":44,
			"name":"Leaf_044.001"
		},
		{
			"mesh":45,
			"name":"Leaf_045.001"
		},
		{
			"mesh":46,
			"name":"Leaf_046.001"
		},
		{
			"mesh":47,
			"name":"Leaf_047.001"
		},
		{
			"mesh":48,
			"name":"Leaf_048.001"
		},
		{
			"mesh":49,
			"name":"Leaf_049.001"
		},
		{
			"mesh":50,
			"name":"Pot.003"
		},
		{
			"mesh":51,
			"name":"Saucer.003"
		},
		{
			"mesh":52,
			"name":"Soil.003"
		},
		{
			"children":[
				0,
				1,
				2,
				3,
				4,
				5,
				6,
				7,
				8,
				9,
				10,
				11,
				12,
				13,
				14,
				15,
				16,
				17,
				18,
				19,
				20,
				21,
				22,
				23,
				24,
				25,
				26,
				27,
				28,
				29,
				30,
				31,
				32,
				33,
				34,
				35,
				36,
				37,
				38,
				39,
				40,
				41,
				42,
				43,
				44,
				45,
				46,
				47,
				48,
				49,
				50,
				51,
				52
			],
			"name":"GRP_Spider"
		}
	],
	"materials":[
		{
			"alphaMode":"BLEND",
			"doubleSided":true,
			"extensions":{
				"KHR_materials_specular":{
					"specularFactor":0.4000000059604645
				}
			},
			"name":"LeafMat.003",
			"pbrMetallicRoughness":{
				"baseColorTexture":{
					"index":0
				},
				"metallicFactor":0,
				"roughnessFactor":0.8500000238418579
			}
		},
		{
			"doubleSided":true,
			"extensions":{
				"KHR_materials_specular":{
					"specularFactor":0.4000000059604645
				}
			},
			"name":"PotMat.003",
			"pbrMetallicRoughness":{
				"baseColorTexture":{
					"index":1
				},
				"metallicFactor":0,
				"roughnessFactor":0.8500000238418579
			}
		},
		{
			"doubleSided":true,
			"extensions":{
				"KHR_materials_specular":{
					"specularFactor":0.4000000059604645
				}
			},
			"name":"SaucerMat.003",
			"pbrMetallicRoughness":{
				"baseColorTexture":{
					"index":2
				},
				"metallicFactor":0,
				"roughnessFactor":0.8500000238418579
			}
		},
		{
			"doubleSided":true,
			"extensions":{
				"KHR_materials_specular":{
					"specularFactor":0.4000000059604645
				}
			},
			"name":"SoilMat.003",
			"pbrMetallicRoughness":{
				"baseColorTexture":{
					"index":3
				},
				"metallicFactor":0,
				"roughnessFactor":0.8500000238418579
			}
		}
	],
	"meshes":[
		{
			"name":"Leaf_000.002",
			"primitives":[
				{
					"attributes":{
						"POSITION":0,
						"NORMAL":1,
						"TEXCOORD_0":2
					},
					"indices":3,
					"material":0
				}
			]
		},
		{
			"name":"Leaf_001.002",
			"primitives":[
				{
					"attributes":{
						"POSITION":4,
						"NORMAL":5,
						"TEXCOORD_0":6
					},
					"indices":7,
					"material":0
				}
			]
		},
		{
			"name":"Leaf_002.002",
			"primitives":[
				{
					"attributes":{
						"POSITION":8,
						"NORMAL":9,
						"TEXCOORD_0":10
					},
					"indices":11,
					"material":0
				}
			]
		},
		{
			"name":"Leaf_003.002",
			"primitives":[
				{
					"attributes":{
						"POSITION":12,
						"NORMAL":13,
						"TEXCOORD_0":14
					},
					"indices":15,
					"material":0
				}
			]
		},
		{
			"name":"Leaf_004.002",
			"primitives":[
				{
					"attributes":{
						"POSITION":16,
						"NORMAL":17,
						"TEXCOORD_0":18
					},
					"indices":7,
					"material":0
				}
			]
		},
		{
			"name":"Leaf_005.002",
			"primitives":[
				{
					"attributes":{
						"POSITION":19,
						"NORMAL":20,
						"TEXCOORD_0":21
					},
					"indices":3,
					"material":0
				}
			]
		},
		{
			"name":"Leaf_006.002",
			"primitives":[
				{
					"attributes":{
						"POSITION":22,
						"NORMAL":23,
						"TEXCOORD_0":24
					},
					"indices":25,
					"material":0
				}
			]
		},
		{
			"name":"Leaf_007.002",
			"primitives":[
				{
					"attributes":{
						"POSITION":26,
						"NORMAL":27,
						"TEXCOORD_0":28
					},
					"indices":29,
					"material":0
				}
			]
		},
		{
			"name":"Leaf_008.002",
			"primitives":[
				{
					"attributes":{
						"POSITION":30,
						"NORMAL":31,
						"TEXCOORD_0":32
					},
					"indices":3,
					"material":0
				}
			]
		},
		{
			"name":"Leaf_009.002",
			"primitives":[
				{
					"attributes":{
						"POSITION":33,
						"NORMAL":34,
						"TEXCOORD_0":35
					},
					"indices":36,
					"material":0
				}
			]
		},
		{
			"name":"Leaf_010.002",
			"primitives":[
				{
					"attributes":{
						"POSITION":37,
						"NORMAL":38,
						"TEXCOORD_0":39
					},
					"indices":40,
					"material":0
				}
			]
		},
		{
			"name":"Leaf_011.002",
			"primitives":[
				{
					"attributes":{
						"POSITION":41,
						"NORMAL":42,
						"TEXCOORD_0":43
					},
					"indices":11,
					"material":0
				}
			]
		},
		{
			"name":"Leaf_012.002",
			"primitives":[
				{
					"attributes":{
						"POSITION":44,
						"NORMAL":45,
						"TEXCOORD_0":46
					},
					"indices":47,
					"material":0
				}
			]
		},
		{
			"name":"Leaf_013.002",
			"primitives":[
				{
					"attributes":{
						"POSITION":48,
						"NORMAL":49,
						"TEXCOORD_0":50
					},
					"indices":25,
					"material":0
				}
			]
		},
		{
			"name":"Leaf_014.002",
			"primitives":[
				{
					"attributes":{
						"POSITION":51,
						"NORMAL":52,
						"TEXCOORD_0":53
					},
					"indices":54,
					"material":0
				}
			]
		},
		{
			"name":"Leaf_015.002",
			"primitives":[
				{
					"attributes":{
						"POSITION":55,
						"NORMAL":56,
						"TEXCOORD_0":57
					},
					"indices":58,
					"material":0
				}
			]
		},
		{
			"name":"Leaf_016.002",
			"primitives":[
				{
					"attributes":{
						"POSITION":59,
						"NORMAL":60,
						"TEXCOORD_0":61
					},
					"indices":62,
					"material":0
				}
			]
		},
		{
			"name":"Leaf_017.002",
			"primitives":[
				{
					"attributes":{
						"POSITION":63,
						"NORMAL":64,
						"TEXCOORD_0":65
					},
					"indices":66,
					"material":0
				}
			]
		},
		{
			"name":"Leaf_018.002",
			"primitives":[
				{
					"attributes":{
						"POSITION":67,
						"NORMAL":68,
						"TEXCOORD_0":69
					},
					"indices":70,
					"material":0
				}
			]
		},
		{
			"name":"Leaf_019.002",
			"primitives":[
				{
					"attributes":{
						"POSITION":71,
						"NORMAL":72,
						"TEXCOORD_0":73
					},
					"indices":74,
					"material":0
				}
			]
		},
		{
			"name":"Leaf_020.002",
			"primitives":[
				{
					"attributes":{
						"POSITION":75,
						"NORMAL":76,
						"TEXCOORD_0":77
					},
					"indices":78,
					"material":0
				}
			]
		},
		{
			"name":"Leaf_021.002",
			"primitives":[
				{
					"attributes":{
						"POSITION":79,
						"NORMAL":80,
						"TEXCOORD_0":81
					},
					"indices":3,
					"material":0
				}
			]
		},
		{
			"name":"Leaf_022.002",
			"primitives":[
				{
					"attributes":{
						"POSITION":82,
						"NORMAL":83,
						"TEXCOORD_0":84
					},
					"indices":29,
					"material":0
				}
			]
		},
		{
			"name":"Leaf_023.002",
			"primitives":[
				{
					"attributes":{
						"POSITION":85,
						"NORMAL":86,
						"TEXCOORD_0":87
					},
					"indices":66,
					"material":0
				}
			]
		},
		{
			"name":"Leaf_024.002",
			"primitives":[
				{
					"attributes":{
						"POSITION":88,
						"NORMAL":89,
						"TEXCOORD_0":90
					},
					"indices":29,
					"material":0
				}
			]
		},
		{
			"name":"Leaf_025.002",
			"primitives":[
				{
					"attributes":{
						"POSITION":91,
						"NORMAL":92,
						"TEXCOORD_0":93
					},
					"indices":94,
					"material":0
				}
			]
		},
		{
			"name":"Leaf_026.002",
			"primitives":[
				{
					"attributes":{
						"POSITION":95,
						"NORMAL":96,
						"TEXCOORD_0":97
					},
					"indices":54,
					"material":0
				}
			]
		},
		{
			"name":"Leaf_027.002",
			"primitives":[
				{
					"attributes":{
						"POSITION":98,
						"NORMAL":99,
						"TEXCOORD_0":100
					},
					"indices":29,
					"material":0
				}
			]
		},
		{
			"name":"Leaf_028.001",
			"primitives":[
				{
					"attributes":{
						"POSITION":101,
						"NORMAL":102,
						"TEXCOORD_0":103
					},
					"indices":66,
					"material":0
				}
			]
		},
		{
			"name":"Leaf_029.001",
			"primitives":[
				{
					"attributes":{
						"POSITION":104,
						"NORMAL":105,
						"TEXCOORD_0":106
					},
					"indices":66,
					"material":0
				}
			]
		},
		{
			"name":"Leaf_030.001",
			"primitives":[
				{
					"attributes":{
						"POSITION":107,
						"NORMAL":108,
						"TEXCOORD_0":109
					},
					"indices":66,
					"material":0
				}
			]
		},
		{
			"name":"Leaf_031.001",
			"primitives":[
				{
					"attributes":{
						"POSITION":110,
						"NORMAL":111,
						"TEXCOORD_0":112
					},
					"indices":66,
					"material":0
				}
			]
		},
		{
			"name":"Leaf_032.001",
			"primitives":[
				{
					"attributes":{
						"POSITION":113,
						"NORMAL":114,
						"TEXCOORD_0":115
					},
					"indices":116,
					"material":0
				}
			]
		},
		{
			"name":"Leaf_033.001",
			"primitives":[
				{
					"attributes":{
						"POSITION":117,
						"NORMAL":118,
						"TEXCOORD_0":119
					},
					"indices":120,
					"material":0
				}
			]
		},
		{
			"name":"Leaf_034.001",
			"primitives":[
				{
					"attributes":{
						"POSITION":121,
						"NORMAL":122,
						"TEXCOORD_0":123
					},
					"indices":3,
					"material":0
				}
			]
		},
		{
			"name":"Leaf_035.001",
			"primitives":[
				{
					"attributes":{
						"POSITION":124,
						"NORMAL":125,
						"TEXCOORD_0":126
					},
					"indices":3,
					"material":0
				}
			]
		},
		{
			"name":"Leaf_036.001",
			"primitives":[
				{
					"attributes":{
						"POSITION":127,
						"NORMAL":128,
						"TEXCOORD_0":129
					},
					"indices":130,
					"material":0
				}
			]
		},
		{
			"name":"Leaf_037.001",
			"primitives":[
				{
					"attributes":{
						"POSITION":131,
						"NORMAL":132,
						"TEXCOORD_0":133
					},
					"indices":11,
					"material":0
				}
			]
		},
		{
			"name":"Leaf_038.001",
			"primitives":[
				{
					"attributes":{
						"POSITION":134,
						"NORMAL":135,
						"TEXCOORD_0":136
					},
					"indices":29,
					"material":0
				}
			]
		},
		{
			"name":"Leaf_039.001",
			"primitives":[
				{
					"attributes":{
						"POSITION":137,
						"NORMAL":138,
						"TEXCOORD_0":139
					},
					"indices":3,
					"material":0
				}
			]
		},
		{
			"name":"Leaf_040.001",
			"primitives":[
				{
					"attributes":{
						"POSITION":140,
						"NORMAL":141,
						"TEXCOORD_0":142
					},
					"indices":11,
					"material":0
				}
			]
		},
		{
			"name":"Leaf_041.001",
			"primitives":[
				{
					"attributes":{
						"POSITION":143,
						"NORMAL":144,
						"TEXCOORD_0":145
					},
					"indices":11,
					"material":0
				}
			]
		},
		{
			"name":"Leaf_042.001",
			"primitives":[
				{
					"attributes":{
						"POSITION":146,
						"NORMAL":147,
						"TEXCOORD_0":148
					},
					"indices":29,
					"material":0
				}
			]
		},
		{
			"name":"Leaf_043.001",
			"primitives":[
				{
					"attributes":{
						"POSITION":149,
						"NORMAL":150,
						"TEXCOORD_0":151
					},
					"indices":3,
					"material":0
				}
			]
		},
		{
			"name":"Leaf_044.001",
			"primitives":[
				{
					"attributes":{
						"POSITION":152,
						"NORMAL":153,
						"TEXCOORD_0":154
					},
					"indices":29,
					"material":0
				}
			]
		},
		{
			"name":"Leaf_045.001",
			"primitives":[
				{
					"attributes":{
						"POSITION":155,
						"NORMAL":156,
						"TEXCOORD_0":157
					},
					"indices":66,
					"material":0
				}
			]
		},
		{
			"name":"Leaf_046.001",
			"primitives":[
				{
					"attributes":{
						"POSITION":158,
						"NORMAL":159,
						"TEXCOORD_0":160
					},
					"indices":94,
					"material":0
				}
			]
		},
		{
			"name":"Leaf_047.001",
			"primitives":[
				{
					"attributes":{
						"POSITION":161,
						"NORMAL":162,
						"TEXCOORD_0":163
					},
					"indices":164,
					"material":0
				}
			]
		},
		{
			"name":"Leaf_048.001",
			"primitives":[
				{
					"attributes":{
						"POSITION":165,
						"NORMAL":166,
						"TEXCOORD_0":167
					},
					"indices":168,
					"material":0
				}
			]
		},
		{
			"name":"Leaf_049.001",
			"primitives":[
				{
					"attributes":{
						"POSITION":169,
						"NORMAL":170,
						"TEXCOORD_0":171
					},
					"indices":29,
					"material":0
				}
			]
		},
		{
			"name":"Pot.003",
			"primitives":[
				{
					"attributes":{
						"POSITION":172,
						"NORMAL":173,
						"TEXCOORD_0":174
					},
					"indices":175,
					"material":1
				}
			]
		},
		{
			"name":"Saucer.003",
			"primitives":[
				{
					"attributes":{
						"POSITION":176,
						"NORMAL":177,
						"TEXCOORD_0":178
					},
					"indices":179,
					"material":2
				}
			]
		},
		{
			"name":"Soil.003",
			"primitives":[
				{
					"attributes":{
						"POSITION":180,
						"NORMAL":181,
						"TEXCOORD_0":182
					},
					"indices":183,
					"material":3
				}
			]
		}
	],
	"textures":[
		{
			"sampler":0,
			"source":0
		},
		{
			"sampler":1,
			"source":1
		},
		{
			"sampler":1,
			"source":2
		},
		{
			"sampler":1,
			"source":3
		}
	],
	"images":[
		{
			"mimeType":"image/png",
			"name":"LeafTex",
			"uri":"LeafTex.png"
		},
		{
			"mimeType":"image/png",
			"name":"PotTex",
			"uri":"PotTex.png"
		},
		{
			"mimeType":"image/png",
			"name":"SaucerTex",
			"uri":"SaucerTex.png"
		},
		{
			"mimeType":"image/png",
			"name":"SoilTex",
			"uri":"SoilTex.png"
		}
	],
	"accessors":[
		{
			"bufferView":0,
			"componentType":5126,
			"count":80,
			"max":[
				1.4142001867294312,
				3.5943171977996826,
				0.6234053373336792
			],
			"min":[
				0.05025627836585045,
				1.0793389081954956,
				0.014618304558098316
			],
			"type":"VEC3"
		},
		{
			"bufferView":1,
			"componentType":5126,
			"count":80,
			"type":"VEC3"
		},
		{
			"bufferView":2,
			"componentType":5126,
			"count":80,
			"type":"VEC2"
		},
		{
			"bufferView":3,
			"componentType":5123,
			"count":120,
			"type":"SCALAR"
		},
		{
			"bufferView":4,
			"componentType":5126,
			"count":80,
			"max":[
				0.11814839392900467,
				2.81884503364563,
				1.5119314193725586
			],
			"min":[
				-0.121356301009655,
				1.0710644721984863,
				0.13459157943725586
			],
			"type":"VEC3"
		},
		{
			"bufferView":5,
			"componentType":5126,
			"count":80,
			"type":"VEC3"
		},
		{
			"bufferView":6,
			"componentType":5126,
			"count":80,
			"type":"VEC2"
		},
		{
			"bufferView":7,
			"componentType":5123,
			"count":120,
			"type":"SCALAR"
		},
		{
			"bufferView":8,
			"componentType":5126,
			"count":80,
			"max":[
				-0.0638856291770935,
				2.0231902599334717,
				1.2401617765426636
			],
			"min":[
				-2.6176438331604004,
				1.0662819147109985,
				0.04189149662852287
			],
			"type":"VEC3"
		},
		{
			"bufferView":9,
			"componentType":5126,
			"count":80,
			"type":"VEC3"
		},
		{
			"bufferView":10,
			"componentType":5126,
			"count":80,
			"type":"VEC2"
		},
		{
			"bufferView":11,
			"componentType":5123,
			"count":120,
			"type":"SCALAR"
		},
		{
			"bufferView":12,
			"componentType":5126,
			"count":80,
			"max":[
				2.679975986480713,
				1.6262332201004028,
				0.354084312915802
			],
			"min":[
				0.045912787318229675,
				0.8548318147659302,
				-0.028238318860530853
			],
			"type":"VEC3"
		},
		{
			"bufferView":13,
			"componentType":5126,
			"count":80,
			"type":"VEC3"
		},
		{
			"bufferView":14,
			"componentType":5126,
			"count":80,
			"type":"VEC2"
		},
		{
			"bufferView":15,
			"componentType":5123,
			"count":120,
			"type":"SCALAR"
		},
		{
			"bufferView":16,
			"componentType":5126,
			"count":80,
			"max":[
				-0.10943087935447693,
				1.3558173179626465,
				-0.023301366716623306
			],
			"min":[
				-1.7292096614837646,
				0.634920060634613,
				-0.6741793155670166
			],
			"type":"VEC3"
		},
		{
			"bufferView":17,
			"componentType":5126,
			"count":80,
			"type":"VEC3"
		},
		{
			"bufferView":18,
			"componentType":5126,
			"count":80,
			"type":"VEC2"
		},
		{
			"bufferView":19,
			"componentType":5126,
			"count":80,
			"max":[
				0.007728889584541321,
				2.6464028358459473,
				-0.0648302435874939
			],
			"min":[
				-0.42227688431739807,
				1.0695416927337646,
				-0.9396193623542786
			],
			"type":"VEC3"
		},
		{
			"bufferView":20,
			"componentType":5126,
			"count":80,
			"type":"VEC3"
		},
		{
			"bufferView":21,
			"componentType":5126,
			"count":80,
			"type":"VEC2"
		},
		{
			"bufferView":22,
			"componentType":5126,
			"count":80,
			"max":[
				-0.06899244338274002,
				1.444342017173767,
				0.13119204342365265
			],
			"min":[
				-2.0613510608673096,
				0.9565251469612122,
				-0.05396660044789314
			],
			"type":"VEC3"
		},
		{
			"bufferView":23,
			"componentType":5126,
			"count":80,
			"type":"VEC3"
		},
		{
			"bufferView":24,
			"componentType":5126,
			"count":80,
			"type":"VEC2"
		},
		{
			"bufferView":25,
			"componentType":5123,
			"count":120,
			"type":"SCALAR"
		},
		{
			"bufferView":26,
			"componentType":5126,
			"count":80,
			"max":[
				-0.06782077252864838,
				1.920152187347412,
				-0.0748308002948761
			],
			"min":[
				-1.746023416519165,
				1.1033968925476074,
				-1.4724777936935425
			],
			"type":"VEC3"
		},
		{
			"bufferView":27,
			"componentType":5126,
			"count":80,
			"type":"VEC3"
		},
		{
			"bufferView":28,
			"componentType":5126,
			"count":80,
			"type":"VEC2"
		},
		{
			"bufferView":29,
			"componentType":5123,
			"count":120,
			"type":"SCALAR"
		},
		{
			"bufferView":30,
			"componentType":5126,
			"count":80,
			"max":[
				0.30471158027648926,
				1.6210051774978638,
				1.995821237564087
			],
			"min":[
				-0.01448274776339531,
				1.0600790977478027,
				0.05295770987868309
			],
			"type":"VEC3"
		},
		{
			"bufferView":31,
			"componentType":5126,
			"count":80,
			"type":"VEC3"
		},
		{
			"bufferView":32,
			"componentType":5126,
			"count":80,
			"type":"VEC2"
		},
		{
			"bufferView":33,
			"componentType":5126,
			"count":80,
			"max":[
				0.023447204381227493,
				1.6334939002990723,
				-0.10192058980464935
			],
			"min":[
				-0.0500405989587307,
				1.0746959447860718,
				-1.4928101301193237
			],
			"type":"VEC3"
		},
		{
			"bufferView":34,
			"componentType":5126,
			"count":80,
			"type":"VEC3"
		},
		{
			"bufferView":35,
			"componentType":5126,
			"count":80,
			"type":"VEC2"
		},
		{
			"bufferView":36,
			"componentType":5123,
			"count":120,
			"type":"SCALAR"
		},
		{
			"bufferView":37,
			"componentType":5126,
			"count":80,
			"max":[
				2.793771982192993,
				1.768149495124817,
				0.19883131980895996
			],
			"min":[
				0.06409255415201187,
				1.0938475131988525,
				-0.06452490389347076
			],
			"type":"VEC3"
		},
		{
			"bufferView":38,
			"componentType":5126,
			"count":80,
			"type":"VEC3"
		},
		{
			"bufferView":39,
			"componentType":5126,
			"count":80,
			"type":"VEC2"
		},
		{
			"bufferView":40,
			"componentType":5123,
			"count":120,
			"type":"SCALAR"
		},
		{
			"bufferView":41,
			"componentType":5126,
			"count":80,
			"max":[
				-0.10930907726287842,
				1.365523338317871,
				0.4374693036079407
			],
			"min":[
				-2.7447071075439453,
				0.39851289987564087,
				0.028506163507699966
			],
			"type":"VEC3"
		},
		{
			"bufferView":42,
			"componentType":5126,
			"count":80,
			"type":"VEC3"
		},
		{
			"bufferView":43,
			"componentType":5126,
			"count":80,
			"type":"VEC2"
		},
		{
			"bufferView":44,
			"componentType":5126,
			"count":80,
			"max":[
				-0.10946500301361084,
				3.1415863037109375,
				0.037107907235622406
			],
			"min":[
				-0.8372657895088196,
				1.0902382135391235,
				-0.17894648015499115
			],
			"type":"VEC3"
		},
		{
			"bufferView":45,
			"componentType":5126,
			"count":80,
			"type":"VEC3"
		},
		{
			"bufferView":46,
			"componentType":5126,
			"count":80,
			"type":"VEC2"
		},
		{
			"bufferView":47,
			"componentType":5123,
			"count":120,
			"type":"SCALAR"
		},
		{
			"bufferView":48,
			"componentType":5126,
			"count":80,
			"max":[
				-0.08996836841106415,
				1.373762845993042,
				0.20450712740421295
			],
			"min":[
				-2.471536874771118,
				0.7898865938186646,
				-0.013500303961336613
			],
			"type":"VEC3"
		},
		{
			"bufferView":49,
			"componentType":5126,
			"count":80,
			"type":"VEC3"
		},
		{
			"bufferView":50,
			"componentType":5126,
			"count":80,
			"type":"VEC2"
		},
		{
			"bufferView":51,
			"componentType":5126,
			"count":80,
			"max":[
				-0.009021878242492676,
				1.5991990566253662,
				1.5415593385696411
			],
			"min":[
				-1.3356372117996216,
				1.0891348123550415,
				0.018763907253742218
			],
			"type":"VEC3"
		},
		{
			"bufferView":52,
			"componentType":5126,
			"count":80,
			"type":"VEC3"
		},
		{
			"bufferView":53,
			"componentType":5126,
			"count":80,
			"type":"VEC2"
		},
		{
			"bufferView":54,
			"componentType":5123,
			"count":120,
			"type":"SCALAR"
		},
		{
			"bufferView":55,
			"componentType":5126,
			"count":80,
			"max":[
				-0.05651440471410751,
				1.4393677711486816,
				0.012344077229499817
			],
			"min":[
				-2.6643123626708984,
				0.6669290661811829,
				-0.6504257917404175
			],
			"type":"VEC3"
		},
		{
			"bufferView":56,
			"componentType":5126,
			"count":80,
			"type":"VEC3"
		},
		{
			"bufferView":57,
			"componentType":5126,
			"count":80,
			"type":"VEC2"
		},
		{
			"bufferView":58,
			"componentType":5123,
			"count":120,
			"type":"SCALAR"
		},
		{
			"bufferView":59,
			"componentType":5126,
			"count":80,
			"max":[
				-0.0658339411020279,
				1.1792856454849243,
				2.115250825881958
			],
			"min":[
				-1.5643835067749023,
				-0.05228358134627342,
				0.06957349926233292
			],
			"type":"VEC3"
		},
		{
			"bufferView":60,
			"componentType":5126,
			"count":80,
			"type":"VEC3"
		},
		{
			"bufferView":61,
			"componentType":5126,
			"count":80,
			"type":"VEC2"
		},
		{
			"bufferView":62,
			"componentType":5123,
			"count":120,
			"type":"SCALAR"
		},
		{
			"bufferView":63,
			"componentType":5126,
			"count":80,
			"max":[
				0.012980908155441284,
				2.5743918418884277,
				1.1358370780944824
			],
			"min":[
				-0.3265795409679413,
				1.114777684211731,
				0.11439873278141022
			],
			"type":"VEC3"
		},
		{
			"bufferView":64,
			"componentType":5126,
			"count":80,
			"type":"VEC3"
		},
		{
			"bufferView":65,
			"componentType":5126,
			"count":80,
			"type":"VEC2"
		},
		{
			"bufferView":66,
			"componentType":5123,
			"count":120,
			"type":"SCALAR"
		},
		{
			"bufferView":67,
			"componentType":5126,
			"count":80,
			"max":[
				1.9045021533966064,
				1.8197218179702759,
				1.2666959762573242
			],
			"min":[
				0.04774993658065796,
				1.0923877954483032,
				-0.002487555146217346
			],
			"type":"VEC3"
		},
		{
			"bufferView":68,
			"componentType":5126,
			"count":80,
			"type":"VEC3"
		},
		{
			"bufferView":69,
			"componentType":5126,
			"count":80,
			"type":"VEC2"
		},
		{
			"bufferView":70,
			"componentType":5123,
			"count":120,
			"type":"SCALAR"
		},
		{
			"bufferView":71,
			"componentType":5126,
			"count":80,
			"max":[
				-0.025598861277103424,
				1.4644938707351685,
				-0.0034343525767326355
			],
			"min":[
				-1.7764530181884766,
				0.9127668142318726,
				-1.483864665031433
			],
			"type":"VEC3"
		},
		{
			"bufferView":72,
			"componentType":5126,
			"count":80,
			"type":"VEC3"
		},
		{
			"bufferView":73,
			"componentType":5126,
			"count":80,
			"type":"VEC2"
		},
		{
			"bufferView":74,
			"componentType":5123,
			"count":120,
			"type":"SCALAR"
		},
		{
			"bufferView":75,
			"componentType":5126,
			"count":80,
			"max":[
				1.1478995084762573,
				1.427233338356018,
				-0.07166670262813568
			],
			"min":[
				0.0467105396091938,
				0.9264881014823914,
				-1.9449249505996704
			],
			"type":"VEC3"
		},
		{
			"bufferView":76,
			"componentType":5126,
			"count":80,
			"type":"VEC3"
		},
		{
			"bufferView":77,
			"componentType":5126,
			"count":80,
			"type":"VEC2"
		},
		{
			"bufferView":78,
			"componentType":5123,
			"count":120,
			"type":"SCALAR"
		},
		{
			"bufferView":79,
			"componentType":5126,
			"count":80,
			"max":[
				0.011366412043571472,
				2.577889919281006,
				-0.04502096027135849
			],
			"min":[
				-0.6395031213760376,
				1.1185928583145142,
				-0.9997814893722534
			],
			"type":"VEC3"
		},
		{
			"bufferView":80,
			"componentType":5126,
			"count":80,
			"type":"VEC3"
		},
		{
			"bufferView":81,
			"componentType":5126,
			"count":80,
			"type":"VEC2"
		},
		{
			"bufferView":82,
			"componentType":5126,
			"count":80,
			"max":[
				-0.055570583790540695,
				1.5903633832931519,
				-0.02530769817531109
			],
			"min":[
				-2.000300168991089,
				1.0057873725891113,
				-1.6267579793930054
			],
			"type":"VEC3"
		},
		{
			"bufferView":83,
			"componentType":5126,
			"count":80,
			"type":"VEC3"
		},
		{
			"bufferView":84,
			"componentType":5126,
			"count":80,
			"type":"VEC2"
		},
		{
			"bufferView":85,
			"componentType":5126,
			"count":80,
			"max":[
				-0.0408368855714798,
				1.659704327583313,
				1.8976415395736694
			],
			"min":[
				-1.5092188119888306,
				1.0566623210906982,
				0.056199755519628525
			],
			"type":"VEC3"
		},
		{
			"bufferView":86,
			"componentType":5126,
			"count":80,
			"type":"VEC3"
		},
		{
			"bufferView":87,
			"componentType":5126,
			"count":80,
			"type":"VEC2"
		},
		{
			"bufferView":88,
			"componentType":5126,
			"count":80,
			"max":[
				-0.048394691199064255,
				1.3675172328948975,
				-0.04219427704811096
			],
			"min":[
				-1.7829805612564087,
				0.49207401275634766,
				-2.1660122871398926
			],
			"type":"VEC3"
		},
		{
			"bufferView":89,
			"componentType":5126,
			"count":80,
			"type":"VEC3"
		},
		{
			"bufferView":90,
			"componentType":5126,
			"count":80,
			"type":"VEC2"
		},
		{
			"bufferView":91,
			"componentType":5126,
			"count":80,
			"max":[
				2.1582531929016113,
				1.5335562229156494,
				-0.019999872893095016
			],
			"min":[
				0.10478775203227997,
				0.861449122428894,
				-0.5524105429649353
			],
			"type":"VEC3"
		},
		{
			"bufferView":92,
			"componentType":5126,
			"count":80,
			"type":"VEC3"
		},
		{
			"bufferView":93,
			"componentType":5126,
			"count":80,
			"type":"VEC2"
		},
		{
			"bufferView":94,
			"componentType":5123,
			"count":120,
			"type":"SCALAR"
		},
		{
			"bufferView":95,
			"componentType":5126,
			"count":80,
			"max":[
				2.8610024452209473,
				1.2429006099700928,
				0.0002306923270225525
			],
			"min":[
				0.030814899131655693,
				0.40940216183662415,
				-1.6152279376983643
			],
			"type":"VEC3"
		},
		{
			"bufferView":96,
			"componentType":5126,
			"count":80,
			"type":"VEC3"
		},
		{
			"bufferView":97,
			"componentType":5126,
			"count":80,
			"type":"VEC2"
		},
		{
			"bufferView":98,
			"componentType":5126,
			"count":80,
			"max":[
				1.0082063674926758,
				1.7259502410888672,
				2.543835163116455
			],
			"min":[
				0.02028452605009079,
				0.9438552856445312,
				0.03130858391523361
			],
			"type":"VEC3"
		},
		{
			"bufferView":99,
			"componentType":5126,
			"count":80,
			"type":"VEC3"
		},
		{
			"bufferView":100,
			"componentType":5126,
			"count":80,
			"type":"VEC2"
		},
		{
			"bufferView":101,
			"componentType":5126,
			"count":80,
			"max":[
				0.014154871925711632,
				3.1583242416381836,
				0.9343339204788208
			],
			"min":[
				-0.2442595660686493,
				1.0889464616775513,
				0.06873973459005356
			],
			"type":"VEC3"
		},
		{
			"bufferView":102,
			"componentType":5126,
			"count":80,
			"type":"VEC3"
		},
		{
			"bufferView":103,
			"componentType":5126,
			"count":80,
			"type":"VEC2"
		},
		{
			"bufferView":104,
			"componentType":5126,
			"count":80,
			"max":[
				0.24610474705696106,
				2.6708643436431885,
				-0.019299302250146866
			],
			"min":[
				0.008148224093019962,
				1.0781550407409668,
				-0.8070186376571655
			],
			"type":"VEC3"
		},
		{
			"bufferView":105,
			"componentType":5126,
			"count":80,
			"type":"VEC3"
		},
		{
			"bufferView":106,
			"componentType":5126,
			"count":80,
			"type":"VEC2"
		},
		{
			"bufferView":107,
			"componentType":5126,
			"count":80,
			"max":[
				1.0445669889450073,
				1.7991760969161987,
				-0.11208476126194
			],
			"min":[
				0.03154342994093895,
				0.9099566340446472,
				-2.534904718399048
			],
			"type":"VEC3"
		},
		{
			"bufferView":108,
			"componentType":5126,
			"count":80,
			"type":"VEC3"
		},
		{
			"bufferView":109,
			"componentType":5126,
			"count":80,
			"type":"VEC2"
		},
		{
			"bufferView":110,
			"componentType":5126,
			"count":80,
			"max":[
				1.6378686428070068,
				1.3542819023132324,
				-0.04876861721277237
			],
			"min":[
				0.03344925120472908,
				0.1645171195268631,
				-2.923278331756592
			],
			"type":"VEC3"
		},
		{
			"bufferView":111,
			"componentType":5126,
			"count":80,
			"type":"VEC3"
		},
		{
			"bufferView":112,
			"componentType":5126,
			"count":80,
			"type":"VEC2"
		},
		{
			"bufferView":113,
			"componentType":5126,
			"count":80,
			"max":[
				1.7527211904525757,
				1.270363211631775,
				2.380805253982544
			],
			"min":[
				0.026053719222545624,
				0.5658963322639465,
				0.05893673002719879
			],
			"type":"VEC3"
		},
		{
			"bufferView":114,
			"componentType":5126,
			"count":80,
			"type":"VEC3"
		},
		{
			"bufferView":115,
			"componentType":5126,
			"count":80,
			"type":"VEC2"
		},
		{
			"bufferView":116,
			"componentType":5123,
			"count":120,
			"type":"SCALAR"
		},
		{
			"bufferView":117,
			"componentType":5126,
			"count":80,
			"max":[
				1.5391545295715332,
				1.859100580215454,
				-0.0578269436955452
			],
			"min":[
				0.07431952655315399,
				1.1143163442611694,
				-1.1974824666976929
			],
			"type":"VEC3"
		},
		{
			"bufferView":118,
			"componentType":5126,
			"count":80,
			"type":"VEC3"
		},
		{
			"bufferView":119,
			"componentType":5126,
			"count":80,
			"type":"VEC2"
		},
		{
			"bufferView":120,
			"componentType":5123,
			"count":120,
			"type":"SCALAR"
		},
		{
			"bufferView":121,
			"componentType":5126,
			"count":80,
			"max":[
				0.002428334206342697,
				1.6553218364715576,
				-0.09943041950464249
			],
			"min":[
				-0.9770042896270752,
				1.021041989326477,
				-1.798041820526123
			],
			"type":"VEC3"
		},
		{
			"bufferView":122,
			"componentType":5126,
			"count":80,
			"type":"VEC3"
		},
		{
			"bufferView":123,
			"componentType":5126,
			"count":80,
			"type":"VEC2"
		},
		{
			"bufferView":124,
			"componentType":5126,
			"count":80,
			"max":[
				2.49336314201355,
				1.3585201501846313,
				1.5716758966445923
			],
			"min":[
				0.018104366958141327,
				0.6136949062347412,
				0.014642713591456413
			],
			"type":"VEC3"
		},
		{
			"bufferView":125,
			"componentType":5126,
			"count":80,
			"type":"VEC3"
		},
		{
			"bufferView":126,
			"componentType":5126,
			"count":80,
			"type":"VEC2"
		},
		{
			"bufferView":127,
			"componentType":5126,
			"count":80,
			"max":[
				1.6687684059143066,
				3.878160238265991,
				-0.0012921683955937624
			],
			"min":[
				0.0458572581410408,
				1.0869004726409912,
				-0.3136865794658661
			],
			"type":"VEC3"
		},
		{
			"bufferView":128,
			"componentType":5126,
			"count":80,
			"type":"VEC3"
		},
		{
			"bufferView":129,
			"componentType":5126,
			"count":80,
			"type":"VEC2"
		},
		{
			"bufferView":130,
			"componentType":5123,
			"count":120,
			"type":"SCALAR"
		},
		{
			"bufferView":131,
			"componentType":5126,
			"count":80,
			"max":[
				0.0006878841668367386,
				1.636285424232483,
				2.8177456855773926
			],
			"min":[
				-1.020596981048584,
				0.8389518857002258,
				0.056251298636198044
			],
			"type":"VEC3"
		},
		{
			"bufferView":132,
			"componentType":5126,
			"count":80,
			"type":"VEC3"
		},
		{
			"bufferView":133,
			"componentType":5126,
			"count":80,
			"type":"VEC2"
		},
		{
			"bufferView":134,
			"componentType":5126,
			"count":80,
			"max":[
				0.5000559091567993,
				2.8763139247894287,
				-0.033570658415555954
			],
			"min":[
				0.036747559905052185,
				1.0760233402252197,
				-0.663354754447937
			],
			"type":"VEC3"
		},
		{
			"bufferView":135,
			"componentType":5126,
			"count":80,
			"type":"VEC3"
		},
		{
			"bufferView":136,
			"componentType":5126,
			"count":80,
			"type":"VEC2"
		},
		{
			"bufferView":137,
			"componentType":5126,
			"count":80,
			"max":[
				1.742733120918274,
				1.3360214233398438,
				1.6489650011062622
			],
			"min":[
				0.03962954878807068,
				0.9333786368370056,
				0.06340793520212173
			],
			"type":"VEC3"
		},
		{
			"bufferView":138,
			"componentType":5126,
			"count":80,
			"type":"VEC3"
		},
		{
			"bufferView":139,
			"componentType":5126,
			"count":80,
			"type":"VEC2"
		},
		{
			"bufferView":140,
			"componentType":5126,
			"count":80,
			"max":[
				-0.10279494524002075,
				1.252753734588623,
				0.878883421421051
			],
			"min":[
				-2.454810857772827,
				0.2152363806962967,
				0.03170805424451828
			],
			"type":"VEC3"
		},
		{
			"bufferView":141,
			"componentType":5126,
			"count":80,
			"type":"VEC3"
		},
		{
			"bufferView":142,
			"componentType":5126,
			"count":80,
			"type":"VEC2"
		},
		{
			"bufferView":143,
			"componentType":5126,
			"count":80,
			"max":[
				2.3759562969207764,
				1.6574161052703857,
				-0.019756101071834564
			],
			"min":[
				0.021851878613233566,
				0.882011353969574,
				-1.3318489789962769
			],
			"type":"VEC3"
		},
		{
			"bufferView":144,
			"componentType":5126,
			"count":80,
			"type":"VEC3"
		},
		{
			"bufferView":145,
			"componentType":5126,
			"count":80,
			"type":"VEC2"
		},
		{
			"bufferView":146,
			"componentType":5126,
			"count":80,
			"max":[
				0.8428764939308167,
				3.2897748947143555,
				1.2830103635787964
			],
			"min":[
				0.010777316987514496,
				1.0672688484191895,
				0.05487517639994621
			],
			"type":"VEC3"
		},
		{
			"bufferView":147,
			"componentType":5126,
			"count":80,
			"type":"VEC3"
		},
		{
			"bufferView":148,
			"componentType":5126,
			"count":80,
			"type":"VEC2"
		},
		{
			"bufferView":149,
			"componentType":5126,
			"count":80,
			"max":[
				0.512508749961853,
				1.370429277420044,
				2.5383450984954834
			],
			"min":[
				0.008771785534918308,
				0.01097841002047062,
				0.11989689618349075
			],
			"type":"VEC3"
		},
		{
			"bufferView":150,
			"componentType":5126,
			"count":80,
			"type":"VEC3"
		},
		{
			"bufferView":151,
			"componentType":5126,
			"count":80,
			"type":"VEC2"
		},
		{
			"bufferView":152,
			"componentType":5126,
			"count":80,
			"max":[
				-0.05883870646357536,
				1.5451067686080933,
				-0.07325482368469238
			],
			"min":[
				-1.03463613986969,
				1.063063383102417,
				-1.688942790031433
			],
			"type":"VEC3"
		},
		{
			"bufferView":153,
			"componentType":5126,
			"count":80,
			"type":"VEC3"
		},
		{
			"bufferView":154,
			"componentType":5126,
			"count":80,
			"type":"VEC2"
		},
		{
			"bufferView":155,
			"componentType":5126,
			"count":80,
			"max":[
				0.8723488450050354,
				3.2151248455047607,
				0.3466551601886749
			],
			"min":[
				0.1332329660654068,
				1.1110039949417114,
				-0.02836446464061737
			],
			"type":"VEC3"
		},
		{
			"bufferView":156,
			"componentType":5126,
			"count":80,
			"type":"VEC3"
		},
		{
			"bufferView":157,
			"componentType":5126,
			"count":80,
			"type":"VEC2"
		},
		{
			"bufferView":158,
			"componentType":5126,
			"count":80,
			"max":[
				1.3554356098175049,
				1.16190767288208,
				-0.05608709156513214
			],
			"min":[
				0.02190541662275791,
				0.009824256412684917,
				-1.7763755321502686
			],
			"type":"VEC3"
		},
		{
			"bufferView":159,
			"componentType":5126,
			"count":80,
			"type":"VEC3"
		},
		{
			"bufferView":160,
			"componentType":5126,
			"count":80,
			"type":"VEC2"
		},
		{
			"bufferView":161,
			"componentType":5126,
			"count":80,
			"max":[
				-0.0922769084572792,
				1.6841223239898682,
				0.8869626522064209
			],
			"min":[
				-1.7189016342163086,
				1.0513018369674683,
				0.025764979422092438
			],
			"type":"VEC3"
		},
		{
			"bufferView":162,
			"componentType":5126,
			"count":80,
			"type":"VEC3"
		},
		{
			"bufferView":163,
			"componentType":5126,
			"count":80,
			"type":"VEC2"
		},
		{
			"bufferView":164,
			"componentType":5123,
			"count":120,
			"type":"SCALAR"
		},
		{
			"bufferView":165,
			"componentType":5126,
			"count":80,
			"max":[
				0.15508857369422913,
				1.4751274585723877,
				-0.13562063872814178
			],
			"min":[
				-0.07006879895925522,
				0.8428363800048828,
				-2.09403133392334
			],
			"type":"VEC3"
		},
		{
			"bufferView":166,
			"componentType":5126,
			"count":80,
			"type":"VEC3"
		},
		{
			"bufferView":167,
			"componentType":5126,
			"count":80,
			"type":"VEC2"
		},
		{
			"bufferView":168,
			"componentType":5123,
			"count":120,
			"type":"SCALAR"
		},
		{
			"bufferView":169,
			"componentType":5126,
			"count":80,
			"max":[
				1.958382248878479,
				1.6802160739898682,
				1.018982172012329
			],
			"min":[
				0.050165362656116486,
				1.049018383026123,
				0.028870902955532074
			],
			"type":"VEC3"
		},
		{
			"bufferView":170,
			"componentType":5126,
			"count":80,
			"type":"VEC3"
		},
		{
			"bufferView":171,
			"componentType":5126,
			"count":80,
			"type":"VEC2"
		},
		{
			"bufferView":172,
			"componentType":5126,
			"count":352,
			"max":[
				0.7400000095367432,
				1.100000023841858,
				0.7400000095367432
			],
			"min":[
				-0.7400000095367432,
				0,
				-0.7400000095367432
			],
			"type":"VEC3"
		},
		{
			"bufferView":173,
			"componentType":5126,
			"count":352,
			"type":"VEC3"
		},
		{
			"bufferView":174,
			"componentType":5126,
			"count":352,
			"type":"VEC2"
		},
		{
			"bufferView":175,
			"componentType":5123,
			"count":564,
			"type":"SCALAR"
		},
		{
			"bufferView":176,
			"componentType":5126,
			"count":80,
			"max":[
				0.8199999928474426,
				0.03999999910593033,
				0.8199999928474426
			],
			"min":[
				-0.8199999928474426,
				-0.05999999865889549,
				-0.8199999928474426
			],
			"type":"VEC3"
		},
		{
			"bufferView":177,
			"componentType":5126,
			"count":80,
			"type":"VEC3"
		},
		{
			"bufferView":178,
			"componentType":5126,
			"count":80,
			"type":"VEC2"
		},
		{
			"bufferView":179,
			"componentType":5123,
			"count":132,
			"type":"SCALAR"
		},
		{
			"bufferView":180,
			"componentType":5126,
			"count":56,
			"max":[
				0.5728052854537964,
				1.059999942779541,
				0.5728052854537964
			],
			"min":[
				-0.5728052854537964,
				1.0399999618530273,
				-0.5728052854537964
			],
			"type":"VEC3"
		},
		{
			"bufferView":181,
			"componentType":5126,
			"count":56,
			"type":"VEC3"
		},
		{
			"bufferView":182,
			"componentType":5126,
			"count":56,
			"type":"VEC2"
		},
		{
			"bufferView":183,
			"componentType":5123,
			"count":72,
			"type":"SCALAR"
		}
	],
	"bufferViews":[
		{
			"buffer":0,
			"byteLength":960,
			"byteOffset":0,
			"target":34962
		},
		{
			"buffer":0,
			"byteLength":960,
			"byteOffset":960,
			"target":34962
		},
		{
			"buffer":0,
			"byteLength":640,
			"byteOffset":1920,
			"target":34962
		},
		{
			"buffer":0,
			"byteLength":240,
			"byteOffset":2560,
			"target":34963
		},
		{
			"buffer":0,
			"byteLength":960,
			"byteOffset":2800,
			"target":34962
		},
		{
			"buffer":0,
			"byteLength":960,
			"byteOffset":3760,
			"target":34962
		},
		{
			"buffer":0,
			"byteLength":640,
			"byteOffset":4720,
			"target":34962
		},
		{
			"buffer":0,
			"byteLength":240,
			"byteOffset":5360,
			"target":34963
		},
		{
			"buffer":0,
			"byteLength":960,
			"byteOffset":5600,
			"target":34962
		},
		{
			"buffer":0,
			"byteLength":960,
			"byteOffset":6560,
			"target":34962
		},
		{
			"buffer":0,
			"byteLength":640,
			"byteOffset":7520,
			"target":34962
		},
		{
			"buffer":0,
			"byteLength":240,
			"byteOffset":8160,
			"target":34963
		},
		{
			"buffer":0,
			"byteLength":960,
			"byteOffset":8400,
			"target":34962
		},
		{
			"buffer":0,
			"byteLength":960,
			"byteOffset":9360,
			"target":34962
		},
		{
			"buffer":0,
			"byteLength":640,
			"byteOffset":10320,
			"target":34962
		},
		{
			"buffer":0,
			"byteLength":240,
			"byteOffset":10960,
			"target":34963
		},
		{
			"buffer":0,
			"byteLength":960,
			"byteOffset":11200,
			"target":34962
		},
		{
			"buffer":0,
			"byteLength":960,
			"byteOffset":12160,
			"target":34962
		},
		{
			"buffer":0,
			"byteLength":640,
			"byteOffset":13120,
			"target":34962
		},
		{
			"buffer":0,
			"byteLength":960,
			"byteOffset":13760,
			"target":34962
		},
		{
			"buffer":0,
			"byteLength":960,
			"byteOffset":14720,
			"target":34962
		},
		{
			"buffer":0,
			"byteLength":640,
			"byteOffset":15680,
			"target":34962
		},
		{
			"buffer":0,
			"byteLength":960,
			"byteOffset":16320,
			"target":34962
		},
		{
			"buffer":0,
			"byteLength":960,
			"byteOffset":17280,
			"target":34962
		},
		{
			"buffer":0,
			"byteLength":640,
			"byteOffset":18240,
			"target":34962
		},
		{
			"buffer":0,
			"byteLength":240,
			"byteOffset":18880,
			"target":34963
		},
		{
			"buffer":0,
			"byteLength":960,
			"byteOffset":19120,
			"target":34962
		},
		{
			"buffer":0,
			"byteLength":960,
			"byteOffset":20080,
			"target":34962
		},
		{
			"buffer":0,
			"byteLength":640,
			"byteOffset":21040,
			"target":34962
		},
		{
			"buffer":0,
			"byteLength":240,
			"byteOffset":21680,
			"target":34963
		},
		{
			"buffer":0,
			"byteLength":960,
			"byteOffset":21920,
			"target":34962
		},
		{
			"buffer":0,
			"byteLength":960,
			"byteOffset":22880,
			"target":34962
		},
		{
			"buffer":0,
			"byteLength":640,
			"byteOffset":23840,
			"target":34962
		},
		{
			"buffer":0,
			"byteLength":960,
			"byteOffset":24480,
			"target":34962
		},
		{
			"buffer":0,
			"byteLength":960,
			"byteOffset":25440,
			"target":34962
		},
		{
			"buffer":0,
			"byteLength":640,
			"byteOffset":26400,
			"target":34962
		},
		{
			"buffer":0,
			"byteLength":240,
			"byteOffset":27040,
			"target":34963
		},
		{
			"buffer":0,
			"byteLength":960,
			"byteOffset":27280,
			"target":34962
		},
		{
			"buffer":0,
			"byteLength":960,
			"byteOffset":28240,
			"target":34962
		},
		{
			"buffer":0,
			"byteLength":640,
			"byteOffset":29200,
			"target":34962
		},
		{
			"buffer":0,
			"byteLength":240,
			"byteOffset":29840,
			"target":34963
		},
		{
			"buffer":0,
			"byteLength":960,
			"byteOffset":30080,
			"target":34962
		},
		{
			"buffer":0,
			"byteLength":960,
			"byteOffset":31040,
			"target":34962
		},
		{
			"buffer":0,
			"byteLength":640,
			"byteOffset":32000,
			"target":34962
		},
		{
			"buffer":0,
			"byteLength":960,
			"byteOffset":32640,
			"target":34962
		},
		{
			"buffer":0,
			"byteLength":960,
			"byteOffset":33600,
			"target":34962
		},
		{
			"buffer":0,
			"byteLength":640,
			"byteOffset":34560,
			"target":34962
		},
		{
			"buffer":0,
			"byteLength":240,
			"byteOffset":35200,
			"target":34963
		},
		{
			"buffer":0,
			"byteLength":960,
			"byteOffset":35440,
			"target":34962
		},
		{
			"buffer":0,
			"byteLength":960,
			"byteOffset":36400,
			"target":34962
		},
		{
			"buffer":0,
			"byteLength":640,
			"byteOffset":37360,
			"target":34962
		},
		{
			"buffer":0,
			"byteLength":960,
			"byteOffset":38000,
			"target":34962
		},
		{
			"buffer":0,
			"byteLength":960,
			"byteOffset":38960,
			"target":34962
		},
		{
			"buffer":0,
			"byteLength":640,
			"byteOffset":39920,
			"target":34962
		},
		{
			"buffer":0,
			"byteLength":240,
			"byteOffset":40560,
			"target":34963
		},
		{
			"buffer":0,
			"byteLength":960,
			"byteOffset":40800,
			"target":34962
		},
		{
			"buffer":0,
			"byteLength":960,
			"byteOffset":41760,
			"target":34962
		},
		{
			"buffer":0,
			"byteLength":640,
			"byteOffset":42720,
			"target":34962
		},
		{
			"buffer":0,
			"byteLength":240,
			"byteOffset":43360,
			"target":34963
		},
		{
			"buffer":0,
			"byteLength":960,
			"byteOffset":43600,
			"target":34962
		},
		{
			"buffer":0,
			"byteLength":960,
			"byteOffset":44560,
			"target":34962
		},
		{
			"buffer":0,
			"byteLength":640,
			"byteOffset":45520,
			"target":34962
		},
		{
			"buffer":0,
			"byteLength":240,
			"byteOffset":46160,
			"target":34963
		},
		{
			"buffer":0,
			"byteLength":960,
			"byteOffset":46400,
			"target":34962
		},
		{
			"buffer":0,
			"byteLength":960,
			"byteOffset":47360,
			"target":34962
		},
		{
			"buffer":0,
			"byteLength":640,
			"byteOffset":48320,
			"target":34962
		},
		{
			"buffer":0,
			"byteLength":240,
			"byteOffset":48960,
			"target":34963
		},
		{
			"buffer":0,
			"byteLength":960,
			"byteOffset":49200,
			"target":34962
		},
		{
			"buffer":0,
			"byteLength":960,
			"byteOffset":50160,
			"target":34962
		},
		{
			"buffer":0,
			"byteLength":640,
			"byteOffset":51120,
			"target":34962
		},
		{
			"buffer":0,
			"byteLength":240,
			"byteOffset":51760,
			"target":34963
		},
		{
			"buffer":0,
			"byteLength":960,
			"byteOffset":52000,
			"target":34962
		},
		{
			"buffer":0,
			"byteLength":960,
			"byteOffset":52960,
			"target":34962
		},
		{
			"buffer":0,
			"byteLength":640,
			"byteOffset":53920,
			"target":34962
		},
		{
			"buffer":0,
			"byteLength":240,
			"byteOffset":54560,
			"target":34963
		},
		{
			"buffer":0,
			"byteLength":960,
			"byteOffset":54800,
			"target":34962
		},
		{
			"buffer":0,
			"byteLength":960,
			"byteOffset":55760,
			"target":34962
		},
		{
			"buffer":0,
			"byteLength":640,
			"byteOffset":56720,
			"target":34962
		},
		{
			"buffer":0,
			"byteLength":240,
			"byteOffset":57360,
			"target":34963
		},
		{
			"buffer":0,
			"byteLength":960,
			"byteOffset":57600,
			"target":34962
		},
		{
			"buffer":0,
			"byteLength":960,
			"byteOffset":58560,
			"target":34962
		},
		{
			"buffer":0,
			"byteLength":640,
			"byteOffset":59520,
			"target":34962
		},
		{
			"buffer":0,
			"byteLength":960,
			"byteOffset":60160,
			"target":34962
		},
		{
			"buffer":0,
			"byteLength":960,
			"byteOffset":61120,
			"target":34962
		},
		{
			"buffer":0,
			"byteLength":640,
			"byteOffset":62080,
			"target":34962
		},
		{
			"buffer":0,
			"byteLength":960,
			"byteOffset":62720,
			"target":34962
		},
		{
			"buffer":0,
			"byteLength":960,
			"byteOffset":63680,
			"target":34962
		},
		{
			"buffer":0,
			"byteLength":640,
			"byteOffset":64640,
			"target":34962
		},
		{
			"buffer":0,
			"byteLength":960,
			"byteOffset":65280,
			"target":34962
		},
		{
			"buffer":0,
			"byteLength":960,
			"byteOffset":66240,
			"target":34962
		},
		{
			"buffer":0,
			"byteLength":640,
			"byteOffset":67200,
			"target":34962
		},
		{
			"buffer":0,
			"byteLength":960,
			"byteOffset":67840,
			"target":34962
		},
		{
			"buffer":0,
			"byteLength":960,
			"byteOffset":68800,
			"target":34962
		},
		{
			"buffer":0,
			"byteLength":640,
			"byteOffset":69760,
			"target":34962
		},
		{
			"buffer":0,
			"byteLength":240,
			"byteOffset":70400,
			"target":34963
		},
		{
			"buffer":0,
			"byteLength":960,
			"byteOffset":70640,
			"target":34962
		},
		{
			"buffer":0,
			"byteLength":960,
			"byteOffset":71600,
			"target":34962
		},
		{
			"buffer":0,
			"byteLength":640,
			"byteOffset":72560,
			"target":34962
		},
		{
			"buffer":0,
			"byteLength":960,
			"byteOffset":73200,
			"target":34962
		},
		{
			"buffer":0,
			"byteLength":960,
			"byteOffset":74160,
			"target":34962
		},
		{
			"buffer":0,
			"byteLength":640,
			"byteOffset":75120,
			"target":34962
		},
		{
			"buffer":0,
			"byteLength":960,
			"byteOffset":75760,
			"target":34962
		},
		{
			"buffer":0,
			"byteLength":960,
			"byteOffset":76720,
			"target":34962
		},
		{
			"buffer":0,
			"byteLength":640,
			"byteOffset":77680,
			"target":34962
		},
		{
			"buffer":0,
			"byteLength":960,
			"byteOffset":78320,
			"target":34962
		},
		{
			"buffer":0,
			"byteLength":960,
			"byteOffset":79280,
			"target":34962
		},
		{
			"buffer":0,
			"byteLength":640,
			"byteOffset":80240,
			"target":34962
		},
		{
			"buffer":0,
			"byteLength":960,
			"byteOffset":80880,
			"target":34962
		},
		{
			"buffer":0,
			"byteLength":960,
			"byteOffset":81840,
			"target":34962
		},
		{
			"buffer":0,
			"byteLength":640,
			"byteOffset":82800,
			"target":34962
		},
		{
			"buffer":0,
			"byteLength":960,
			"byteOffset":83440,
			"target":34962
		},
		{
			"buffer":0,
			"byteLength":960,
			"byteOffset":84400,
			"target":34962
		},
		{
			"buffer":0,
			"byteLength":640,
			"byteOffset":85360,
			"target":34962
		},
		{
			"buffer":0,
			"byteLength":960,
			"byteOffset":86000,
			"target":34962
		},
		{
			"buffer":0,
			"byteLength":960,
			"byteOffset":86960,
			"target":34962
		},
		{
			"buffer":0,
			"byteLength":640,
			"byteOffset":87920,
			"target":34962
		},
		{
			"buffer":0,
			"byteLength":240,
			"byteOffset":88560,
			"target":34963
		},
		{
			"buffer":0,
			"byteLength":960,
			"byteOffset":88800,
			"target":34962
		},
		{
			"buffer":0,
			"byteLength":960,
			"byteOffset":89760,
			"target":34962
		},
		{
			"buffer":0,
			"byteLength":640,
			"byteOffset":90720,
			"target":34962
		},
		{
			"buffer":0,
			"byteLength":240,
			"byteOffset":91360,
			"target":34963
		},
		{
			"buffer":0,
			"byteLength":960,
			"byteOffset":91600,
			"target":34962
		},
		{
			"buffer":0,
			"byteLength":960,
			"byteOffset":92560,
			"target":34962
		},
		{
			"buffer":0,
			"byteLength":640,
			"byteOffset":93520,
			"target":34962
		},
		{
			"buffer":0,
			"byteLength":960,
			"byteOffset":94160,
			"target":34962
		},
		{
			"buffer":0,
			"byteLength":960,
			"byteOffset":95120,
			"target":34962
		},
		{
			"buffer":0,
			"byteLength":640,
			"byteOffset":96080,
			"target":34962
		},
		{
			"buffer":0,
			"byteLength":960,
			"byteOffset":96720,
			"target":34962
		},
		{
			"buffer":0,
			"byteLength":960,
			"byteOffset":97680,
			"target":34962
		},
		{
			"buffer":0,
			"byteLength":640,
			"byteOffset":98640,
			"target":34962
		},
		{
			"buffer":0,
			"byteLength":240,
			"byteOffset":99280,
			"target":34963
		},
		{
			"buffer":0,
			"byteLength":960,
			"byteOffset":99520,
			"target":34962
		},
		{
			"buffer":0,
			"byteLength":960,
			"byteOffset":100480,
			"target":34962
		},
		{
			"buffer":0,
			"byteLength":640,
			"byteOffset":101440,
			"target":34962
		},
		{
			"buffer":0,
			"byteLength":960,
			"byteOffset":102080,
			"target":34962
		},
		{
			"buffer":0,
			"byteLength":960,
			"byteOffset":103040,
			"target":34962
		},
		{
			"buffer":0,
			"byteLength":640,
			"byteOffset":104000,
			"target":34962
		},
		{
			"buffer":0,
			"byteLength":960,
			"byteOffset":104640,
			"target":34962
		},
		{
			"buffer":0,
			"byteLength":960,
			"byteOffset":105600,
			"target":34962
		},
		{
			"buffer":0,
			"byteLength":640,
			"byteOffset":106560,
			"target":34962
		},
		{
			"buffer":0,
			"byteLength":960,
			"byteOffset":107200,
			"target":34962
		},
		{
			"buffer":0,
			"byteLength":960,
			"byteOffset":108160,
			"target":34962
		},
		{
			"buffer":0,
			"byteLength":640,
			"byteOffset":109120,
			"target":34962
		},
		{
			"buffer":0,
			"byteLength":960,
			"byteOffset":109760,
			"target":34962
		},
		{
			"buffer":0,
			"byteLength":960,
			"byteOffset":110720,
			"target":34962
		},
		{
			"buffer":0,
			"byteLength":640,
			"byteOffset":111680,
			"target":34962
		},
		{
			"buffer":0,
			"byteLength":960,
			"byteOffset":112320,
			"target":34962
		},
		{
			"buffer":0,
			"byteLength":960,
			"byteOffset":113280,
			"target":34962
		},
		{
			"buffer":0,
			"byteLength":640,
			"byteOffset":114240,
			"target":34962
		},
		{
			"buffer":0,
			"byteLength":960,
			"byteOffset":114880,
			"target":34962
		},
		{
			"buffer":0,
			"byteLength":960,
			"byteOffset":115840,
			"target":34962
		},
		{
			"buffer":0,
			"byteLength":640,
			"byteOffset":116800,
			"target":34962
		},
		{
			"buffer":0,
			"byteLength":960,
			"byteOffset":117440,
			"target":34962
		},
		{
			"buffer":0,
			"byteLength":960,
			"byteOffset":118400,
			"target":34962
		},
		{
			"buffer":0,
			"byteLength":640,
			"byteOffset":119360,
			"target":34962
		},
		{
			"buffer":0,
			"byteLength":960,
			"byteOffset":120000,
			"target":34962
		},
		{
			"buffer":0,
			"byteLength":960,
			"byteOffset":120960,
			"target":34962
		},
		{
			"buffer":0,
			"byteLength":640,
			"byteOffset":121920,
			"target":34962
		},
		{
			"buffer":0,
			"byteLength":960,
			"byteOffset":122560,
			"target":34962
		},
		{
			"buffer":0,
			"byteLength":960,
			"byteOffset":123520,
			"target":34962
		},
		{
			"buffer":0,
			"byteLength":640,
			"byteOffset":124480,
			"target":34962
		},
		{
			"buffer":0,
			"byteLength":960,
			"byteOffset":125120,
			"target":34962
		},
		{
			"buffer":0,
			"byteLength":960,
			"byteOffset":126080,
			"target":34962
		},
		{
			"buffer":0,
			"byteLength":640,
			"byteOffset":127040,
			"target":34962
		},
		{
			"buffer":0,
			"byteLength":240,
			"byteOffset":127680,
			"target":34963
		},
		{
			"buffer":0,
			"byteLength":960,
			"byteOffset":127920,
			"target":34962
		},
		{
			"buffer":0,
			"byteLength":960,
			"byteOffset":128880,
			"target":34962
		},
		{
			"buffer":0,
			"byteLength":640,
			"byteOffset":129840,
			"target":34962
		},
		{
			"buffer":0,
			"byteLength":240,
			"byteOffset":130480,
			"target":34963
		},
		{
			"buffer":0,
			"byteLength":960,
			"byteOffset":130720,
			"target":34962
		},
		{
			"buffer":0,
			"byteLength":960,
			"byteOffset":131680,
			"target":34962
		},
		{
			"buffer":0,
			"byteLength":640,
			"byteOffset":132640,
			"target":34962
		},
		{
			"buffer":0,
			"byteLength":4224,
			"byteOffset":133280,
			"target":34962
		},
		{
			"buffer":0,
			"byteLength":4224,
			"byteOffset":137504,
			"target":34962
		},
		{
			"buffer":0,
			"byteLength":2816,
			"byteOffset":141728,
			"target":34962
		},
		{
			"buffer":0,
			"byteLength":1128,
			"byteOffset":144544,
			"target":34963
		},
		{
			"buffer":0,
			"byteLength":960,
			"byteOffset":145672,
			"target":34962
		},
		{
			"buffer":0,
			"byteLength":960,
			"byteOffset":146632,
			"target":34962
		},
		{
			"buffer":0,
			"byteLength":640,
			"byteOffset":147592,
			"target":34962
		},
		{
			"buffer":0,
			"byteLength":264,
			"byteOffset":148232,
			"target":34963
		},
		{
			"buffer":0,
			"byteLength":672,
			"byteOffset":148496,
			"target":34962
		},
		{
			"buffer":0,
			"byteLength":672,
			"byteOffset":149168,
			"target":34962
		},
		{
			"buffer":0,
			"byteLength":448,
			"byteOffset":149840,
			"target":34962
		},
		{
			"buffer":0,
			"byteLength":144,
			"byteOffset":150288,
			"target":34963
		}
	],
	"samplers":[
		{
			"magFilter":9728,
			"minFilter":9984,
			"wrapS":33071,
			"wrapT":33071
		},
		{
			"magFilter":9728,
			"minFilter":9984
		}
	],
	"buffers":[
		{
			"byteLength":150432,
			"uri":"Spider.bin"
		}
	]
}
