{
	"asset":{
		"generator":"Khronos glTF Blender I/O v5.1.19",
		"version":"2.0"
	},
	"extensionsUsed":[
		"KHR_materials_emissive_strength",
		"KHR_texture_transform"
	],
	"extensionsRequired":[
		"KHR_texture_transform"
	],
	"scene":0,
	"scenes":[
		{
			"name":"Scene",
			"nodes":[
				0,
				1,
				2,
				3,
				4,
				5,
				6,
				7,
				8,
				9,
				10,
				11,
				12,
				13,
				14,
				15,
				16,
				17,
				18,
				19,
				20
			]
		}
	],
	"nodes":[
		{
			"mesh":0,
			"name":"Pedestal"
		},
		{
			"mesh":1,
			"name":"PedestalTop"
		},
		{
			"mesh":2,
			"name":"PedestalRimGlow"
		},
		{
			"mesh":3,
			"name":"Bead_Bot",
			"translation":[
				0,
				1.0499999523162842,
				0
			]
		},
		{
			"mesh":4,
			"name":"Bead_E0",
			"translation":[
				0.5,
				1.5846409797668457,
				0
			]
		},
		{
			"mesh":5,
			"name":"Bead_E1",
			"translation":[
				0,
				1.5846409797668457,
				-0.5
			]
		},
		{
			"mesh":6,
			"name":"Bead_E2",
			"translation":[
				-0.5,
				1.5499999523162842,
				0
			]
		},
		{
			"mesh":7,
			"name":"Bead_E3",
			"translation":[
				0,
				1.5153589248657227,
				0.5
			]
		},
		{
			"mesh":8,
			"name":"Bead_Top",
			"translation":[
				0,
				2.0153589248657227,
				0
			]
		},
		{
			"mesh":9,
			"name":"Beam_Bot_E0",
			"rotation":[
				0.5,
				-0.5,
				0,
				0.7071067690849304
			],
			"translation":[
				0,
				1.0499999523162842,
				0
			]
		},
		{
			"mesh":10,
			"name":"Beam_Bot_E1",
			"rotation":[
				0.3826833963394165,
				0,
				0,
				0.9238795638084412
			],
			"translation":[
				0,
				1.0499999523162842,
				0
			]
		},
		{
			"mesh":11,
			"name":"Beam_Bot_E2",
			"rotation":[
				0.5,
				0.5,
				0,
				0.7071067690849304
			],
			"translation":[
				0,
				1.0499999523162842,
				0
			]
		},
		{
			"mesh":12,
			"name":"Beam_Bot_E3",
			"rotation":[
				0.9238795638084412,
				0,
				0,
				0.3826834559440613
			],
			"translation":[
				0,
				1.0499999523162842,
				0
			]
		},
		{
			"mesh":13,
			"name":"Beam_E0_E1",
			"rotation":[
				0,
				0.3826833963394165,
				0,
				0.9238795638084412
			],
			"translation":[
				0.5,
				1.5499999523162842,
				0
			]
		},
		{
			"mesh":14,
			"name":"Beam_E1_E2",
			"rotation":[
				0,
				0.9238795638084412,
				0,
				0.3826834559440613
			],
			"translation":[
				0,
				1.5499999523162842,
				-0.5
			]
		},
		{
			"mesh":15,
			"name":"Beam_E2_E3",
			"rotation":[
				0,
				-0.9238795638084412,
				0,
				0.3826834559440613
			],
			"translation":[
				-0.5,
				1.5499999523162842,
				0
			]
		},
		{
			"mesh":16,
			"name":"Beam_E3_E0",
			"rotation":[
				0,
				-0.3826833963394165,
				0,
				0.9238795638084412
			],
			"translation":[
				0,
				1.5499999523162842,
				0.5
			]
		},
		{
			"mesh":17,
			"name":"Beam_Top_E0",
			"rotation":[
				-0.5,
				-0.5,
				0,
				0.7071067690849304
			],
			"translation":[
				0,
				2.049999952316284,
				0
			]
		},
		{
			"mesh":18,
			"name":"Beam_Top_E1",
			"rotation":[
				-0.3826833963394165,
				0,
				0,
				0.9238795638084412
			],
			"translation":[
				0,
				2.049999952316284,
				0
			]
		},
		{
			"mesh":19,
			"name":"Beam_Top_E2",
			"rotation":[
				-0.5,
				0.5,
				0,
				0.7071067690849304
			],
			"translation":[
				0,
				2.049999952316284,
				0
			]
		},
		{
			"mesh":20,
			"name":"Beam_Top_E3",
			"rotation":[
				-0.9238795638084412,
				0,
				0,
				0.3826834559440613
			],
			"translation":[
				0,
				2.049999952316284,
				0
			]
		}
	],
	"animations":[
		{
			"channels":[
				{
					"sampler":0,
					"target":{
						"node":3,
						"path":"translation"
					}
				},
				{
					"sampler":1,
					"target":{
						"node":3,
						"path":"rotation"
					}
				}
			],
			"name":"Bead_BotAction",
			"samplers":[
				{
					"input":56,
					"interpolation":"LINEAR",
					"output":57
				},
				{
					"input":56,
					"interpolation":"LINEAR",
					"output":58
				}
			]
		},
		{
			"channels":[
				{
					"sampler":0,
					"target":{
						"node":4,
						"path":"translation"
					}
				},
				{
					"sampler":1,
					"target":{
						"node":4,
						"path":"rotation"
					}
				}
			],
			"name":"Bead_E0Action",
			"samplers":[
				{
					"input":56,
					"interpolation":"LINEAR",
					"output":59
				},
				{
					"input":56,
					"interpolation":"LINEAR",
					"output":58
				}
			]
		},
		{
			"channels":[
				{
					"sampler":0,
					"target":{
						"node":5,
						"path":"translation"
					}
				},
				{
					"sampler":1,
					"target":{
						"node":5,
						"path":"rotation"
					}
				}
			],
			"name":"Bead_E1Action",
			"samplers":[
				{
					"input":56,
					"interpolation":"LINEAR",
					"output":60
				},
				{
					"input":56,
					"interpolation":"LINEAR",
					"output":58
				}
			]
		},
		{
			"channels":[
				{
					"sampler":0,
					"target":{
						"node":6,
						"path":"translation"
					}
				},
				{
					"sampler":1,
					"target":{
						"node":6,
						"path":"rotation"
					}
				}
			],
			"name":"Bead_E2Action",
			"samplers":[
				{
					"input":56,
					"interpolation":"LINEAR",
					"output":61
				},
				{
					"input":56,
					"interpolation":"LINEAR",
					"output":58
				}
			]
		},
		{
			"channels":[
				{
					"sampler":0,
					"target":{
						"node":7,
						"path":"translation"
					}
				},
				{
					"sampler":1,
					"target":{
						"node":7,
						"path":"rotation"
					}
				}
			],
			"name":"Bead_E3Action",
			"samplers":[
				{
					"input":56,
					"interpolation":"LINEAR",
					"output":62
				},
				{
					"input":56,
					"interpolation":"LINEAR",
					"output":58
				}
			]
		},
		{
			"channels":[
				{
					"sampler":0,
					"target":{
						"node":8,
						"path":"translation"
					}
				},
				{
					"sampler":1,
					"target":{
						"node":8,
						"path":"rotation"
					}
				}
			],
			"name":"Bead_TopAction",
			"samplers":[
				{
					"input":56,
					"interpolation":"LINEAR",
					"output":63
				},
				{
					"input":56,
					"interpolation":"LINEAR",
					"output":58
				}
			]
		}
	],
	"materials":[
		{
			"doubleSided":true,
			"name":"PedestalMat",
			"pbrMetallicRoughness":{
				"baseColorTexture":{
					"extensions":{
						"KHR_texture_transform":{
							"offset":[
								0,
								0.25
							],
							"scale":[
								0.25,
								0.25
							]
						}
					},
					"index":0
				},
				"metallicFactor":0,
				"roughnessFactor":0.949999988079071
			}
		},
		{
			"doubleSided":true,
			"name":"PedestalTopMat",
			"pbrMetallicRoughness":{
				"baseColorTexture":{
					"extensions":{
						"KHR_texture_transform":{
							"offset":[
								0.25,
								0.25
							],
							"scale":[
								0.25,
								0.25
							]
						}
					},
					"index":1
				},
				"metallicFactor":0.10000000149011612,
				"roughnessFactor":0.8500000238418579
			}
		},
		{
			"doubleSided":true,
			"emissiveFactor":[
				0.44999998807907104,
				1,
				0.800000011920929
			],
			"extensions":{
				"KHR_materials_emissive_strength":{
					"emissiveStrength":4
				}
			},
			"name":"BeamMat",
			"pbrMetallicRoughness":{
				"baseColorFactor":[
					0,
					0,
					0,
					1
				]
			}
		},
		{
			"doubleSided":true,
			"emissiveFactor":[
				0.8210526117657688,
				1,
				0.8947368784294238
			],
			"extensions":{
				"KHR_materials_emissive_strength":{
					"emissiveStrength":2.3749999701976776
				}
			},
			"name":"BeadWhite",
			"pbrMetallicRoughness":{
				"baseColorFactor":[
					0,
					0,
					0,
					1
				]
			}
		},
		{
			"doubleSided":true,
			"emissiveFactor":[
				0.6707317277053367,
				1,
				0.8780488230372245
			],
			"extensions":{
				"KHR_materials_emissive_strength":{
					"emissiveStrength":2.0499999821186066
				}
			},
			"name":"BeadCyan",
			"pbrMetallicRoughness":{
				"baseColorFactor":[
					0,
					0,
					0,
					1
				]
			}
		},
		{
			"doubleSided":true,
			"emissiveFactor":[
				0.5833333002196431,
				1,
				0.8666666004392862
			],
			"extensions":{
				"KHR_materials_emissive_strength":{
					"emissiveStrength":1.5000000596046448
				}
			},
			"name":"BeadMagenta",
			"pbrMetallicRoughness":{
				"baseColorFactor":[
					0,
					0,
					0,
					1
				]
			}
		}
	],
	"meshes":[
		{
			"name":"Pedestal",
			"primitives":[
				{
					"attributes":{
						"POSITION":0,
						"NORMAL":1,
						"TEXCOORD_0":2
					},
					"indices":3,
					"material":0
				}
			]
		},
		{
			"name":"PedestalTop",
			"primitives":[
				{
					"attributes":{
						"POSITION":4,
						"NORMAL":5,
						"TEXCOORD_0":6
					},
					"indices":7,
					"material":1
				}
			]
		},
		{
			"name":"PedestalRimGlow",
			"primitives":[
				{
					"attributes":{
						"POSITION":8,
						"NORMAL":9,
						"TEXCOORD_0":10
					},
					"indices":11,
					"material":2
				}
			]
		},
		{
			"name":"Cube.001",
			"primitives":[
				{
					"attributes":{
						"POSITION":12,
						"NORMAL":13,
						"TEXCOORD_0":14
					},
					"indices":15,
					"material":3
				}
			]
		},
		{
			"name":"Cube.002",
			"primitives":[
				{
					"attributes":{
						"POSITION":16,
						"NORMAL":17,
						"TEXCOORD_0":18
					},
					"indices":15,
					"material":4
				}
			]
		},
		{
			"name":"Cube.003",
			"primitives":[
				{
					"attributes":{
						"POSITION":19,
						"NORMAL":20,
						"TEXCOORD_0":21
					},
					"indices":15,
					"material":5
				}
			]
		},
		{
			"name":"Cube.004",
			"primitives":[
				{
					"attributes":{
						"POSITION":22,
						"NORMAL":23,
						"TEXCOORD_0":24
					},
					"indices":15,
					"material":4
				}
			]
		},
		{
			"name":"Cube.005",
			"primitives":[
				{
					"attributes":{
						"POSITION":25,
						"NORMAL":26,
						"TEXCOORD_0":27
					},
					"indices":15,
					"material":5
				}
			]
		},
		{
			"name":"Cube",
			"primitives":[
				{
					"attributes":{
						"POSITION":28,
						"NORMAL":29,
						"TEXCOORD_0":30
					},
					"indices":15,
					"material":3
				}
			]
		},
		{
			"name":"Beam_Bot_E0",
			"primitives":[
				{
					"attributes":{
						"POSITION":31,
						"NORMAL":32
					},
					"indices":33,
					"material":2
				}
			]
		},
		{
			"name":"Beam_Bot_E1",
			"primitives":[
				{
					"attributes":{
						"POSITION":34,
						"NORMAL":35
					},
					"indices":33,
					"material":2
				}
			]
		},
		{
			"name":"Beam_Bot_E2",
			"primitives":[
				{
					"attributes":{
						"POSITION":36,
						"NORMAL":37
					},
					"indices":33,
					"material":2
				}
			]
		},
		{
			"name":"Beam_Bot_E3",
			"primitives":[
				{
					"attributes":{
						"POSITION":38,
						"NORMAL":39
					},
					"indices":33,
					"material":2
				}
			]
		},
		{
			"name":"Beam_E0_E1",
			"primitives":[
				{
					"attributes":{
						"POSITION":40,
						"NORMAL":41
					},
					"indices":33,
					"material":2
				}
			]
		},
		{
			"name":"Beam_E1_E2",
			"primitives":[
				{
					"attributes":{
						"POSITION":42,
						"NORMAL":43
					},
					"indices":33,
					"material":2
				}
			]
		},
		{
			"name":"Beam_E2_E3",
			"primitives":[
				{
					"attributes":{
						"POSITION":44,
						"NORMAL":45
					},
					"indices":33,
					"material":2
				}
			]
		},
		{
			"name":"Beam_E3_E0",
			"primitives":[
				{
					"attributes":{
						"POSITION":46,
						"NORMAL":47
					},
					"indices":33,
					"material":2
				}
			]
		},
		{
			"name":"Beam_Top_E0",
			"primitives":[
				{
					"attributes":{
						"POSITION":48,
						"NORMAL":49
					},
					"indices":33,
					"material":2
				}
			]
		},
		{
			"name":"Beam_Top_E1",
			"primitives":[
				{
					"attributes":{
						"POSITION":50,
						"NORMAL":51
					},
					"indices":33,
					"material":2
				}
			]
		},
		{
			"name":"Beam_Top_E2",
			"primitives":[
				{
					"attributes":{
						"POSITION":52,
						"NORMAL":53
					},
					"indices":33,
					"material":2
				}
			]
		},
		{
			"name":"Beam_Top_E3",
			"primitives":[
				{
					"attributes":{
						"POSITION":54,
						"NORMAL":55
					},
					"indices":33,
					"material":2
				}
			]
		}
	],
	"textures":[
		{
			"sampler":0,
			"source":0
		},
		{
			"sampler":0,
			"source":0
		}
	],
	"images":[
		{
			"mimeType":"image/png",
			"name":"teal_atlas",
			"uri":"teal_atlas.png"
		}
	],
	"accessors":[
		{
			"bufferView":0,
			"componentType":5126,
			"count":384,
			"max":[
				0.8500000238418579,
				0.6800000071525574,
				0.8500000238418579
			],
			"min":[
				-0.8500000238418579,
				0,
				-0.8500000238418579
			],
			"type":"VEC3"
		},
		{
			"bufferView":1,
			"componentType":5126,
			"count":384,
			"type":"VEC3"
		},
		{
			"bufferView":2,
			"componentType":5126,
			"count":384,
			"type":"VEC2"
		},
		{
			"bufferView":3,
			"componentType":5123,
			"count":636,
			"type":"SCALAR"
		},
		{
			"bufferView":4,
			"componentType":5126,
			"count":13,
			"max":[
				0.7400000095367432,
				0.699999988079071,
				0.7400000095367432
			],
			"min":[
				-0.7400000095367432,
				0.699999988079071,
				-0.7400000095367432
			],
			"type":"VEC3"
		},
		{
			"bufferView":5,
			"componentType":5126,
			"count":13,
			"type":"VEC3"
		},
		{
			"bufferView":6,
			"componentType":5126,
			"count":13,
			"type":"VEC2"
		},
		{
			"bufferView":7,
			"componentType":5123,
			"count":36,
			"type":"SCALAR"
		},
		{
			"bufferView":8,
			"componentType":5126,
			"count":168,
			"max":[
				0.7599999904632568,
				0.7149999737739563,
				0.7599999904632568
			],
			"min":[
				-0.7599999904632568,
				0.6850000023841858,
				-0.7599999904632568
			],
			"type":"VEC3"
		},
		{
			"bufferView":9,
			"componentType":5126,
			"count":168,
			"type":"VEC3"
		},
		{
			"bufferView":10,
			"componentType":5126,
			"count":168,
			"type":"VEC2"
		},
		{
			"bufferView":11,
			"componentType":5123,
			"count":276,
			"type":"SCALAR"
		},
		{
			"bufferView":12,
			"componentType":5126,
			"count":216,
			"max":[
				0.11758942157030106,
				0.11758942157030106,
				0.11758942157030106
			],
			"min":[
				-0.11758942157030106,
				-0.11758942157030106,
				-0.11758942157030106
			],
			"type":"VEC3"
		},
		{
			"bufferView":13,
			"componentType":5126,
			"count":216,
			"type":"VEC3"
		},
		{
			"bufferView":14,
			"componentType":5126,
			"count":216,
			"type":"VEC2"
		},
		{
			"bufferView":15,
			"componentType":5123,
			"count":324,
			"type":"SCALAR"
		},
		{
			"bufferView":16,
			"componentType":5126,
			"count":216,
			"max":[
				0.11758942157030106,
				0.11758942157030106,
				0.11758942157030106
			],
			"min":[
				-0.11758942157030106,
				-0.11758942157030106,
				-0.11758942157030106
			],
			"type":"VEC3"
		},
		{
			"bufferView":17,
			"componentType":5126,
			"count":216,
			"type":"VEC3"
		},
		{
			"bufferView":18,
			"componentType":5126,
			"count":216,
			"type":"VEC2"
		},
		{
			"bufferView":19,
			"componentType":5126,
			"count":216,
			"max":[
				0.11758942157030106,
				0.11758942157030106,
				0.11758942157030106
			],
			"min":[
				-0.11758942157030106,
				-0.11758942157030106,
				-0.11758942157030106
			],
			"type":"VEC3"
		},
		{
			"bufferView":20,
			"componentType":5126,
			"count":216,
			"type":"VEC3"
		},
		{
			"bufferView":21,
			"componentType":5126,
			"count":216,
			"type":"VEC2"
		},
		{
			"bufferView":22,
			"componentType":5126,
			"count":216,
			"max":[
				0.11758942157030106,
				0.11758942157030106,
				0.11758942157030106
			],
			"min":[
				-0.11758942157030106,
				-0.11758942157030106,
				-0.11758942157030106
			],
			"type":"VEC3"
		},
		{
			"bufferView":23,
			"componentType":5126,
			"count":216,
			"type":"VEC3"
		},
		{
			"bufferView":24,
			"componentType":5126,
			"count":216,
			"type":"VEC2"
		},
		{
			"bufferView":25,
			"componentType":5126,
			"count":216,
			"max":[
				0.11758942157030106,
				0.11758942157030106,
				0.11758942157030106
			],
			"min":[
				-0.11758942157030106,
				-0.11758942157030106,
				-0.11758942157030106
			],
			"type":"VEC3"
		},
		{
			"bufferView":26,
			"componentType":5126,
			"count":216,
			"type":"VEC3"
		},
		{
			"bufferView":27,
			"componentType":5126,
			"count":216,
			"type":"VEC2"
		},
		{
			"bufferView":28,
			"componentType":5126,
			"count":216,
			"max":[
				0.11758942157030106,
				0.11758942157030106,
				0.11758942157030106
			],
			"min":[
				-0.11758942157030106,
				-0.11758942157030106,
				-0.11758942157030106
			],
			"type":"VEC3"
		},
		{
			"bufferView":29,
			"componentType":5126,
			"count":216,
			"type":"VEC3"
		},
		{
			"bufferView":30,
			"componentType":5126,
			"count":216,
			"type":"VEC2"
		},
		{
			"bufferView":31,
			"componentType":5126,
			"count":36,
			"max":[
				0.012000000104308128,
				0.010392304509878159,
				0
			],
			"min":[
				-0.012000000104308128,
				-0.010392304509878159,
				-0.7071067690849304
			],
			"type":"VEC3"
		},
		{
			"bufferView":32,
			"componentType":5126,
			"count":36,
			"type":"VEC3"
		},
		{
			"bufferView":33,
			"componentType":5123,
			"count":60,
			"type":"SCALAR"
		},
		{
			"bufferView":34,
			"componentType":5126,
			"count":36,
			"max":[
				0.012000000104308128,
				0.010392304509878159,
				0
			],
			"min":[
				-0.012000000104308128,
				-0.010392304509878159,
				-0.7071067690849304
			],
			"type":"VEC3"
		},
		{
			"bufferView":35,
			"componentType":5126,
			"count":36,
			"type":"VEC3"
		},
		{
			"bufferView":36,
			"componentType":5126,
			"count":36,
			"max":[
				0.012000000104308128,
				0.010392304509878159,
				0
			],
			"min":[
				-0.012000000104308128,
				-0.010392304509878159,
				-0.7071067690849304
			],
			"type":"VEC3"
		},
		{
			"bufferView":37,
			"componentType":5126,
			"count":36,
			"type":"VEC3"
		},
		{
			"bufferView":38,
			"componentType":5126,
			"count":36,
			"max":[
				0.012000000104308128,
				0.010392304509878159,
				0
			],
			"min":[
				-0.012000000104308128,
				-0.010392304509878159,
				-0.7071067690849304
			],
			"type":"VEC3"
		},
		{
			"bufferView":39,
			"componentType":5126,
			"count":36,
			"type":"VEC3"
		},
		{
			"bufferView":40,
			"componentType":5126,
			"count":36,
			"max":[
				0.012000000104308128,
				0.010392304509878159,
				0
			],
			"min":[
				-0.012000000104308128,
				-0.010392304509878159,
				-0.7071067690849304
			],
			"type":"VEC3"
		},
		{
			"bufferView":41,
			"componentType":5126,
			"count":36,
			"type":"VEC3"
		},
		{
			"bufferView":42,
			"componentType":5126,
			"count":36,
			"max":[
				0.012000000104308128,
				0.010392304509878159,
				0
			],
			"min":[
				-0.012000000104308128,
				-0.010392304509878159,
				-0.7071067690849304
			],
			"type":"VEC3"
		},
		{
			"bufferView":43,
			"componentType":5126,
			"count":36,
			"type":"VEC3"
		},
		{
			"bufferView":44,
			"componentType":5126,
			"count":36,
			"max":[
				0.012000000104308128,
				0.010392304509878159,
				0
			],
			"min":[
				-0.012000000104308128,
				-0.010392304509878159,
				-0.7071067690849304
			],
			"type":"VEC3"
		},
		{
			"bufferView":45,
			"componentType":5126,
			"count":36,
			"type":"VEC3"
		},
		{
			"bufferView":46,
			"componentType":5126,
			"count":36,
			"max":[
				0.012000000104308128,
				0.010392304509878159,
				0
			],
			"min":[
				-0.012000000104308128,
				-0.010392304509878159,
				-0.7071067690849304
			],
			"type":"VEC3"
		},
		{
			"bufferView":47,
			"componentType":5126,
			"count":36,
			"type":"VEC3"
		},
		{
			"bufferView":48,
			"componentType":5126,
			"count":36,
			"max":[
				0.012000000104308128,
				0.010392304509878159,
				0
			],
			"min":[
				-0.012000000104308128,
				-0.010392304509878159,
				-0.7071067690849304
			],
			"type":"VEC3"
		},
		{
			"bufferView":49,
			"componentType":5126,
			"count":36,
			"type":"VEC3"
		},
		{
			"bufferView":50,
			"componentType":5126,
			"count":36,
			"max":[
				0.012000000104308128,
				0.010392304509878159,
				0
			],
			"min":[
				-0.012000000104308128,
				-0.010392304509878159,
				-0.7071067690849304
			],
			"type":"VEC3"
		},
		{
			"bufferView":51,
			"componentType":5126,
			"count":36,
			"type":"VEC3"
		},
		{
			"bufferView":52,
			"componentType":5126,
			"count":36,
			"max":[
				0.012000000104308128,
				0.010392304509878159,
				0
			],
			"min":[
				-0.012000000104308128,
				-0.010392304509878159,
				-0.7071067690849304
			],
			"type":"VEC3"
		},
		{
			"bufferView":53,
			"componentType":5126,
			"count":36,
			"type":"VEC3"
		},
		{
			"bufferView":54,
			"componentType":5126,
			"count":36,
			"max":[
				0.012000000104308128,
				0.010392304509878159,
				0
			],
			"min":[
				-0.012000000104308128,
				-0.010392304509878159,
				-0.7071067690849304
			],
			"type":"VEC3"
		},
		{
			"bufferView":55,
			"componentType":5126,
			"count":36,
			"type":"VEC3"
		},
		{
			"bufferView":56,
			"componentType":5126,
			"count":85,
			"max":[
				3.5416666666666665
			],
			"min":[
				0.041666666666666664
			],
			"type":"SCALAR"
		},
		{
			"bufferView":57,
			"componentType":5126,
			"count":85,
			"type":"VEC3"
		},
		{
			"bufferView":58,
			"componentType":5126,
			"count":85,
			"type":"VEC4"
		},
		{
			"bufferView":59,
			"componentType":5126,
			"count":85,
			"type":"VEC3"
		},
		{
			"bufferView":60,
			"componentType":5126,
			"count":85,
			"type":"VEC3"
		},
		{
			"bufferView":61,
			"componentType":5126,
			"count":85,
			"type":"VEC3"
		},
		{
			"bufferView":62,
			"componentType":5126,
			"count":85,
			"type":"VEC3"
		},
		{
			"bufferView":63,
			"componentType":5126,
			"count":85,
			"type":"VEC3"
		}
	],
	"bufferViews":[
		{
			"buffer":0,
			"byteLength":4608,
			"byteOffset":0,
			"target":34962
		},
		{
			"buffer":0,
			"byteLength":4608,
			"byteOffset":4608,
			"target":34962
		},
		{
			"buffer":0,
			"byteLength":3072,
			"byteOffset":9216,
			"target":34962
		},
		{
			"buffer":0,
			"byteLength":1272,
			"byteOffset":12288,
			"target":34963
		},
		{
			"buffer":0,
			"byteLength":156,
			"byteOffset":13560,
			"target":34962
		},
		{
			"buffer":0,
			"byteLength":156,
			"byteOffset":13716,
			"target":34962
		},
		{
			"buffer":0,
			"byteLength":104,
			"byteOffset":13872,
			"target":34962
		},
		{
			"buffer":0,
			"byteLength":72,
			"byteOffset":13976,
			"target":34963
		},
		{
			"buffer":0,
			"byteLength":2016,
			"byteOffset":14048,
			"target":34962
		},
		{
			"buffer":0,
			"byteLength":2016,
			"byteOffset":16064,
			"target":34962
		},
		{
			"buffer":0,
			"byteLength":1344,
			"byteOffset":18080,
			"target":34962
		},
		{
			"buffer":0,
			"byteLength":552,
			"byteOffset":19424,
			"target":34963
		},
		{
			"buffer":0,
			"byteLength":2592,
			"byteOffset":19976,
			"target":34962
		},
		{
			"buffer":0,
			"byteLength":2592,
			"byteOffset":22568,
			"target":34962
		},
		{
			"buffer":0,
			"byteLength":1728,
			"byteOffset":25160,
			"target":34962
		},
		{
			"buffer":0,
			"byteLength":648,
			"byteOffset":26888,
			"target":34963
		},
		{
			"buffer":0,
			"byteLength":2592,
			"byteOffset":27536,
			"target":34962
		},
		{
			"buffer":0,
			"byteLength":2592,
			"byteOffset":30128,
			"target":34962
		},
		{
			"buffer":0,
			"byteLength":1728,
			"byteOffset":32720,
			"target":34962
		},
		{
			"buffer":0,
			"byteLength":2592,
			"byteOffset":34448,
			"target":34962
		},
		{
			"buffer":0,
			"byteLength":2592,
			"byteOffset":37040,
			"target":34962
		},
		{
			"buffer":0,
			"byteLength":1728,
			"byteOffset":39632,
			"target":34962
		},
		{
			"buffer":0,
			"byteLength":2592,
			"byteOffset":41360,
			"target":34962
		},
		{
			"buffer":0,
			"byteLength":2592,
			"byteOffset":43952,
			"target":34962
		},
		{
			"buffer":0,
			"byteLength":1728,
			"byteOffset":46544,
			"target":34962
		},
		{
			"buffer":0,
			"byteLength":2592,
			"byteOffset":48272,
			"target":34962
		},
		{
			"buffer":0,
			"byteLength":2592,
			"byteOffset":50864,
			"target":34962
		},
		{
			"buffer":0,
			"byteLength":1728,
			"byteOffset":53456,
			"target":34962
		},
		{
			"buffer":0,
			"byteLength":2592,
			"byteOffset":55184,
			"target":34962
		},
		{
			"buffer":0,
			"byteLength":2592,
			"byteOffset":57776,
			"target":34962
		},
		{
			"buffer":0,
			"byteLength":1728,
			"byteOffset":60368,
			"target":34962
		},
		{
			"buffer":0,
			"byteLength":432,
			"byteOffset":62096,
			"target":34962
		},
		{
			"buffer":0,
			"byteLength":432,
			"byteOffset":62528,
			"target":34962
		},
		{
			"buffer":0,
			"byteLength":120,
			"byteOffset":62960,
			"target":34963
		},
		{
			"buffer":0,
			"byteLength":432,
			"byteOffset":63080,
			"target":34962
		},
		{
			"buffer":0,
			"byteLength":432,
			"byteOffset":63512,
			"target":34962
		},
		{
			"buffer":0,
			"byteLength":432,
			"byteOffset":63944,
			"target":34962
		},
		{
			"buffer":0,
			"byteLength":432,
			"byteOffset":64376,
			"target":34962
		},
		{
			"buffer":0,
			"byteLength":432,
			"byteOffset":64808,
			"target":34962
		},
		{
			"buffer":0,
			"byteLength":432,
			"byteOffset":65240,
			"target":34962
		},
		{
			"buffer":0,
			"byteLength":432,
			"byteOffset":65672,
			"target":34962
		},
		{
			"buffer":0,
			"byteLength":432,
			"byteOffset":66104,
			"target":34962
		},
		{
			"buffer":0,
			"byteLength":432,
			"byteOffset":66536,
			"target":34962
		},
		{
			"buffer":0,
			"byteLength":432,
			"byteOffset":66968,
			"target":34962
		},
		{
			"buffer":0,
			"byteLength":432,
			"byteOffset":67400,
			"target":34962
		},
		{
			"buffer":0,
			"byteLength":432,
			"byteOffset":67832,
			"target":34962
		},
		{
			"buffer":0,
			"byteLength":432,
			"byteOffset":68264,
			"target":34962
		},
		{
			"buffer":0,
			"byteLength":432,
			"byteOffset":68696,
			"target":34962
		},
		{
			"buffer":0,
			"byteLength":432,
			"byteOffset":69128,
			"target":34962
		},
		{
			"buffer":0,
			"byteLength":432,
			"byteOffset":69560,
			"target":34962
		},
		{
			"buffer":0,
			"byteLength":432,
			"byteOffset":69992,
			"target":34962
		},
		{
			"buffer":0,
			"byteLength":432,
			"byteOffset":70424,
			"target":34962
		},
		{
			"buffer":0,
			"byteLength":432,
			"byteOffset":70856,
			"target":34962
		},
		{
			"buffer":0,
			"byteLength":432,
			"byteOffset":71288,
			"target":34962
		},
		{
			"buffer":0,
			"byteLength":432,
			"byteOffset":71720,
			"target":34962
		},
		{
			"buffer":0,
			"byteLength":432,
			"byteOffset":72152,
			"target":34962
		},
		{
			"buffer":0,
			"byteLength":340,
			"byteOffset":72584
		},
		{
			"buffer":0,
			"byteLength":1020,
			"byteOffset":72924
		},
		{
			"buffer":0,
			"byteLength":1360,
			"byteOffset":73944
		},
		{
			"buffer":0,
			"byteLength":1020,
			"byteOffset":75304
		},
		{
			"buffer":0,
			"byteLength":1020,
			"byteOffset":76324
		},
		{
			"buffer":0,
			"byteLength":1020,
			"byteOffset":77344
		},
		{
			"buffer":0,
			"byteLength":1020,
			"byteOffset":78364
		},
		{
			"buffer":0,
			"byteLength":1020,
			"byteOffset":79384
		}
	],
	"samplers":[
		{
			"magFilter":9728,
			"minFilter":9984
		}
	],
	"buffers":[
		{
			"byteLength":80404,
			"uri":"bead_statue.bin"
		}
	]
}
