{
	"asset":{
		"generator":"Khronos glTF Blender I/O v5.1.19",
		"version":"2.0"
	},
	"extensionsUsed":[
		"KHR_materials_emissive_strength",
		"KHR_materials_sheen"
	],
	"scene":0,
	"scenes":[
		{
			"name":"Scene",
			"nodes":[
				0,
				1,
				2,
				3,
				4,
				5,
				6,
				7,
				8,
				9,
				10,
				11,
				12,
				13,
				14
			]
		}
	],
	"nodes":[
		{
			"mesh":0,
			"name":"PuckBase"
		},
		{
			"mesh":1,
			"name":"PuckGlowRim"
		},
		{
			"mesh":2,
			"name":"PuckTopRing"
		},
		{
			"mesh":3,
			"name":"SupportPost"
		},
		{
			"mesh":4,
			"name":"PostGlow"
		},
		{
			"mesh":5,
			"name":"SeatShell"
		},
		{
			"mesh":6,
			"name":"ArmTube_-1"
		},
		{
			"mesh":7,
			"name":"ArmTube_+1"
		},
		{
			"mesh":8,
			"name":"SeatCushion"
		},
		{
			"mesh":9,
			"name":"BackCushion_Lumbar",
			"rotation":[
				-0.19080901145935059,
				0,
				0,
				0.9816272854804993
			],
			"translation":[
				0,
				0.9599999785423279,
				-0.4000000059604645
			]
		},
		{
			"mesh":10,
			"name":"BackCushion_Main",
			"rotation":[
				-0.19080901145935059,
				0,
				0,
				0.9816272854804993
			],
			"translation":[
				0,
				0.9599999785423279,
				-0.4000000059604645
			]
		},
		{
			"mesh":11,
			"name":"BackCushion_Head",
			"rotation":[
				-0.19080901145935059,
				0,
				0,
				0.9816272854804993
			],
			"translation":[
				0,
				0.9599999785423279,
				-0.4000000059604645
			]
		},
		{
			"mesh":12,
			"name":"ArmPad_-1"
		},
		{
			"mesh":13,
			"name":"ArmPad_+1"
		},
		{
			"mesh":14,
			"name":"BackRest",
			"rotation":[
				-0.19080901145935059,
				0,
				0,
				0.9816272854804993
			],
			"translation":[
				0,
				0.9599999785423279,
				-0.4000000059604645
			]
		}
	],
	"materials":[
		{
			"doubleSided":true,
			"name":"PuckMat",
			"pbrMetallicRoughness":{
				"baseColorTexture":{
					"index":0
				},
				"metallicFactor":0.5,
				"roughnessFactor":0.3499999940395355
			}
		},
		{
			"doubleSided":true,
			"emissiveFactor":[
				0.20000000298023224,
				0.550000011920929,
				1
			],
			"extensions":{
				"KHR_materials_emissive_strength":{
					"emissiveStrength":35
				}
			},
			"name":"GlowOuter",
			"pbrMetallicRoughness":{
				"baseColorFactor":[
					0,
					0,
					0,
					1
				]
			}
		},
		{
			"doubleSided":true,
			"name":"ChromeMat",
			"pbrMetallicRoughness":{
				"baseColorTexture":{
					"index":1
				},
				"roughnessFactor":0.20000000298023224
			}
		},
		{
			"doubleSided":true,
			"emissiveFactor":[
				0.550000011920929,
				0.8500000238418579,
				1
			],
			"extensions":{
				"KHR_materials_emissive_strength":{
					"emissiveStrength":22
				}
			},
			"name":"GlowInner",
			"pbrMetallicRoughness":{
				"baseColorFactor":[
					0,
					0,
					0,
					1
				]
			}
		},
		{
			"doubleSided":true,
			"name":"ShellMat",
			"pbrMetallicRoughness":{
				"baseColorTexture":{
					"index":2
				},
				"metallicFactor":0.30000001192092896,
				"roughnessFactor":0.44999998807907104
			}
		},
		{
			"doubleSided":true,
			"extensions":{
				"KHR_materials_sheen":{
					"sheenColorFactor":[
						1.0,
						1.0,
						1.0
					],
					"sheenRoughnessFactor":0.5
				}
			},
			"name":"CushionMat",
			"pbrMetallicRoughness":{
				"baseColorTexture":{
					"index":3
				},
				"metallicFactor":0,
				"roughnessFactor":0.949999988079071
			}
		}
	],
	"meshes":[
		{
			"name":"PuckBase",
			"primitives":[
				{
					"attributes":{
						"POSITION":0,
						"NORMAL":1
					},
					"indices":2,
					"material":0
				}
			]
		},
		{
			"name":"PuckGlowRim",
			"primitives":[
				{
					"attributes":{
						"POSITION":3,
						"NORMAL":4
					},
					"indices":5,
					"material":1
				}
			]
		},
		{
			"name":"PuckTopRing",
			"primitives":[
				{
					"attributes":{
						"POSITION":6,
						"NORMAL":7
					},
					"indices":8,
					"material":2
				}
			]
		},
		{
			"name":"SupportPost",
			"primitives":[
				{
					"attributes":{
						"POSITION":9,
						"NORMAL":10
					},
					"indices":11,
					"material":2
				}
			]
		},
		{
			"name":"PostGlow",
			"primitives":[
				{
					"attributes":{
						"POSITION":12,
						"NORMAL":13
					},
					"indices":11,
					"material":3
				}
			]
		},
		{
			"name":"SeatShell",
			"primitives":[
				{
					"attributes":{
						"POSITION":14,
						"NORMAL":15
					},
					"indices":16,
					"material":4
				}
			]
		},
		{
			"name":"ArmTube_-1",
			"primitives":[
				{
					"attributes":{
						"POSITION":17,
						"NORMAL":18
					},
					"indices":19,
					"material":2
				}
			]
		},
		{
			"name":"ArmTube_+1",
			"primitives":[
				{
					"attributes":{
						"POSITION":20,
						"NORMAL":21
					},
					"indices":22,
					"material":2
				}
			]
		},
		{
			"name":"SeatCushion",
			"primitives":[
				{
					"attributes":{
						"POSITION":23,
						"NORMAL":24
					},
					"indices":25,
					"material":5
				}
			]
		},
		{
			"name":"BackCushion_Lumbar",
			"primitives":[
				{
					"attributes":{
						"POSITION":26,
						"NORMAL":27
					},
					"indices":28,
					"material":5
				}
			]
		},
		{
			"name":"BackCushion_Main",
			"primitives":[
				{
					"attributes":{
						"POSITION":29,
						"NORMAL":30
					},
					"indices":31,
					"material":5
				}
			]
		},
		{
			"name":"BackCushion_Head",
			"primitives":[
				{
					"attributes":{
						"POSITION":32,
						"NORMAL":33
					},
					"indices":34,
					"material":5
				}
			]
		},
		{
			"name":"ArmPad_-1",
			"primitives":[
				{
					"attributes":{
						"POSITION":35,
						"NORMAL":36
					},
					"indices":25,
					"material":5
				}
			]
		},
		{
			"name":"ArmPad_+1",
			"primitives":[
				{
					"attributes":{
						"POSITION":37,
						"NORMAL":38
					},
					"indices":25,
					"material":5
				}
			]
		},
		{
			"name":"BackRest",
			"primitives":[
				{
					"attributes":{
						"POSITION":39,
						"NORMAL":40
					},
					"indices":41,
					"material":4
				}
			]
		}
	],
	"textures":[
		{
			"sampler":0,
			"source":0
		},
		{
			"sampler":0,
			"source":1
		},
		{
			"sampler":0,
			"source":2
		},
		{
			"sampler":0,
			"source":3
		}
	],
	"images":[
		{
			"mimeType":"image/png",
			"name":"PuckTex",
			"uri":"PuckTex.png"
		},
		{
			"mimeType":"image/png",
			"name":"ChromeTex",
			"uri":"ChromeTex.png"
		},
		{
			"mimeType":"image/png",
			"name":"ShellTex",
			"uri":"ShellTex.png"
		},
		{
			"mimeType":"image/png",
			"name":"CushionTex",
			"uri":"CushionTex.png"
		}
	],
	"accessors":[
		{
			"bufferView":0,
			"componentType":5126,
			"count":216,
			"max":[
				0.6499999761581421,
				0.1599999964237213,
				0.6499999761581421
			],
			"min":[
				-0.6499999761581421,
				0,
				-0.6499999761581421
			],
			"type":"VEC3"
		},
		{
			"bufferView":1,
			"componentType":5126,
			"count":216,
			"type":"VEC3"
		},
		{
			"bufferView":2,
			"componentType":5123,
			"count":348,
			"type":"SCALAR"
		},
		{
			"bufferView":3,
			"componentType":5126,
			"count":216,
			"max":[
				0.6800000071525574,
				0.04500000178813934,
				0.6800000071525574
			],
			"min":[
				-0.6800000071525574,
				0,
				-0.6800000071525574
			],
			"type":"VEC3"
		},
		{
			"bufferView":4,
			"componentType":5126,
			"count":216,
			"type":"VEC3"
		},
		{
			"bufferView":5,
			"componentType":5123,
			"count":348,
			"type":"SCALAR"
		},
		{
			"bufferView":6,
			"componentType":5126,
			"count":96,
			"max":[
				0.5,
				0.16500000655651093,
				0.5
			],
			"min":[
				-0.5,
				0.1550000011920929,
				-0.5
			],
			"type":"VEC3"
		},
		{
			"bufferView":7,
			"componentType":5126,
			"count":96,
			"type":"VEC3"
		},
		{
			"bufferView":8,
			"componentType":5123,
			"count":276,
			"type":"SCALAR"
		},
		{
			"bufferView":9,
			"componentType":5126,
			"count":112,
			"max":[
				0.18000000715255737,
				0.7799999713897705,
				0.18000000715255737
			],
			"min":[
				-0.18000000715255737,
				0.1599999964237213,
				-0.18000000715255737
			],
			"type":"VEC3"
		},
		{
			"bufferView":10,
			"componentType":5126,
			"count":112,
			"type":"VEC3"
		},
		{
			"bufferView":11,
			"componentType":5123,
			"count":180,
			"type":"SCALAR"
		},
		{
			"bufferView":12,
			"componentType":5126,
			"count":112,
			"max":[
				0.15000000596046448,
				0.4699999988079071,
				0.15000000596046448
			],
			"min":[
				-0.15000000596046448,
				0.41999998688697815,
				-0.15000000596046448
			],
			"type":"VEC3"
		},
		{
			"bufferView":13,
			"componentType":5126,
			"count":112,
			"type":"VEC3"
		},
		{
			"bufferView":14,
			"componentType":5126,
			"count":264,
			"max":[
				0.6200000047683716,
				1.0199999809265137,
				0.5703999996185303
			],
			"min":[
				-0.6200000047683716,
				0.7799999713897705,
				-0.5703999996185303
			],
			"type":"VEC3"
		},
		{
			"bufferView":15,
			"componentType":5126,
			"count":264,
			"type":"VEC3"
		},
		{
			"bufferView":16,
			"componentType":5123,
			"count":420,
			"type":"SCALAR"
		},
		{
			"bufferView":17,
			"componentType":5126,
			"count":368,
			"max":[
				-0.49823418259620667,
				1.1976542472839355,
				0.26118776202201843
			],
			"min":[
				-0.6435010433197021,
				0.9041081666946411,
				-0.15175844728946686
			],
			"type":"VEC3"
		},
		{
			"bufferView":18,
			"componentType":5126,
			"count":368,
			"type":"VEC3"
		},
		{
			"bufferView":19,
			"componentType":5123,
			"count":564,
			"type":"SCALAR"
		},
		{
			"bufferView":20,
			"componentType":5126,
			"count":368,
			"max":[
				0.6435010433197021,
				1.1976542472839355,
				0.26118776202201843
			],
			"min":[
				0.49823418259620667,
				0.9041081666946411,
				-0.15175844728946686
			],
			"type":"VEC3"
		},
		{
			"bufferView":21,
			"componentType":5126,
			"count":368,
			"type":"VEC3"
		},
		{
			"bufferView":22,
			"componentType":5123,
			"count":564,
			"type":"SCALAR"
		},
		{
			"bufferView":23,
			"componentType":5126,
			"count":96,
			"max":[
				0.46000000834465027,
				1.0750000476837158,
				0.3700000047683716
			],
			"min":[
				-0.46000000834465027,
				0.9399999976158142,
				-0.4099999964237213
			],
			"type":"VEC3"
		},
		{
			"bufferView":24,
			"componentType":5126,
			"count":96,
			"type":"VEC3"
		},
		{
			"bufferView":25,
			"componentType":5123,
			"count":138,
			"type":"SCALAR"
		},
		{
			"bufferView":26,
			"componentType":5126,
			"count":96,
			"max":[
				0.2750000059604645,
				0.3100000023841858,
				0.15000000596046448
			],
			"min":[
				-0.2750000059604645,
				0.05000000074505806,
				0.009999999776482582
			],
			"type":"VEC3"
		},
		{
			"bufferView":27,
			"componentType":5126,
			"count":96,
			"type":"VEC3"
		},
		{
			"bufferView":28,
			"componentType":5123,
			"count":138,
			"type":"SCALAR"
		},
		{
			"bufferView":29,
			"componentType":5126,
			"count":92,
			"max":[
				0.32499998807907104,
				0.8619999885559082,
				0.15000000596046448
			],
			"min":[
				-0.32499998807907104,
				0.3199999928474426,
				0.009999999776482582
			],
			"type":"VEC3"
		},
		{
			"bufferView":30,
			"componentType":5126,
			"count":92,
			"type":"VEC3"
		},
		{
			"bufferView":31,
			"componentType":5123,
			"count":138,
			"type":"SCALAR"
		},
		{
			"bufferView":32,
			"componentType":5126,
			"count":96,
			"max":[
				0.25,
				1.059999942779541,
				0.14000000059604645
			],
			"min":[
				-0.25,
				0.8799999952316284,
				0.009999999776482582
			],
			"type":"VEC3"
		},
		{
			"bufferView":33,
			"componentType":5126,
			"count":96,
			"type":"VEC3"
		},
		{
			"bufferView":34,
			"componentType":5123,
			"count":138,
			"type":"SCALAR"
		},
		{
			"bufferView":35,
			"componentType":5126,
			"count":96,
			"max":[
				-0.47999998927116394,
				1.2100000381469727,
				0.44999998807907104
			],
			"min":[
				-0.6200000047683716,
				1.1549999713897705,
				0.05000000074505806
			],
			"type":"VEC3"
		},
		{
			"bufferView":36,
			"componentType":5126,
			"count":96,
			"type":"VEC3"
		},
		{
			"bufferView":37,
			"componentType":5126,
			"count":96,
			"max":[
				0.6200000047683716,
				1.2100000381469727,
				0.44999998807907104
			],
			"min":[
				0.47999998927116394,
				1.1549999713897705,
				0.05000000074505806
			],
			"type":"VEC3"
		},
		{
			"bufferView":38,
			"componentType":5126,
			"count":96,
			"type":"VEC3"
		},
		{
			"bufferView":39,
			"componentType":5126,
			"count":312,
			"max":[
				0.41999998688697815,
				1.1399999856948853,
				0.05000000074505806
			],
			"min":[
				-0.41999998688697815,
				0,
				-0.10000000149011612
			],
			"type":"VEC3"
		},
		{
			"bufferView":40,
			"componentType":5126,
			"count":312,
			"type":"VEC3"
		},
		{
			"bufferView":41,
			"componentType":5123,
			"count":708,
			"type":"SCALAR"
		}
	],
	"bufferViews":[
		{
			"buffer":0,
			"byteLength":2592,
			"byteOffset":0,
			"target":34962
		},
		{
			"buffer":0,
			"byteLength":2592,
			"byteOffset":2592,
			"target":34962
		},
		{
			"buffer":0,
			"byteLength":696,
			"byteOffset":5184,
			"target":34963
		},
		{
			"buffer":0,
			"byteLength":2592,
			"byteOffset":5880,
			"target":34962
		},
		{
			"buffer":0,
			"byteLength":2592,
			"byteOffset":8472,
			"target":34962
		},
		{
			"buffer":0,
			"byteLength":696,
			"byteOffset":11064,
			"target":34963
		},
		{
			"buffer":0,
			"byteLength":1152,
			"byteOffset":11760,
			"target":34962
		},
		{
			"buffer":0,
			"byteLength":1152,
			"byteOffset":12912,
			"target":34962
		},
		{
			"buffer":0,
			"byteLength":552,
			"byteOffset":14064,
			"target":34963
		},
		{
			"buffer":0,
			"byteLength":1344,
			"byteOffset":14616,
			"target":34962
		},
		{
			"buffer":0,
			"byteLength":1344,
			"byteOffset":15960,
			"target":34962
		},
		{
			"buffer":0,
			"byteLength":360,
			"byteOffset":17304,
			"target":34963
		},
		{
			"buffer":0,
			"byteLength":1344,
			"byteOffset":17664,
			"target":34962
		},
		{
			"buffer":0,
			"byteLength":1344,
			"byteOffset":19008,
			"target":34962
		},
		{
			"buffer":0,
			"byteLength":3168,
			"byteOffset":20352,
			"target":34962
		},
		{
			"buffer":0,
			"byteLength":3168,
			"byteOffset":23520,
			"target":34962
		},
		{
			"buffer":0,
			"byteLength":840,
			"byteOffset":26688,
			"target":34963
		},
		{
			"buffer":0,
			"byteLength":4416,
			"byteOffset":27528,
			"target":34962
		},
		{
			"buffer":0,
			"byteLength":4416,
			"byteOffset":31944,
			"target":34962
		},
		{
			"buffer":0,
			"byteLength":1128,
			"byteOffset":36360,
			"target":34963
		},
		{
			"buffer":0,
			"byteLength":4416,
			"byteOffset":37488,
			"target":34962
		},
		{
			"buffer":0,
			"byteLength":4416,
			"byteOffset":41904,
			"target":34962
		},
		{
			"buffer":0,
			"byteLength":1128,
			"byteOffset":46320,
			"target":34963
		},
		{
			"buffer":0,
			"byteLength":1152,
			"byteOffset":47448,
			"target":34962
		},
		{
			"buffer":0,
			"byteLength":1152,
			"byteOffset":48600,
			"target":34962
		},
		{
			"buffer":0,
			"byteLength":276,
			"byteOffset":49752,
			"target":34963
		},
		{
			"buffer":0,
			"byteLength":1152,
			"byteOffset":50028,
			"target":34962
		},
		{
			"buffer":0,
			"byteLength":1152,
			"byteOffset":51180,
			"target":34962
		},
		{
			"buffer":0,
			"byteLength":276,
			"byteOffset":52332,
			"target":34963
		},
		{
			"buffer":0,
			"byteLength":1104,
			"byteOffset":52608,
			"target":34962
		},
		{
			"buffer":0,
			"byteLength":1104,
			"byteOffset":53712,
			"target":34962
		},
		{
			"buffer":0,
			"byteLength":276,
			"byteOffset":54816,
			"target":34963
		},
		{
			"buffer":0,
			"byteLength":1152,
			"byteOffset":55092,
			"target":34962
		},
		{
			"buffer":0,
			"byteLength":1152,
			"byteOffset":56244,
			"target":34962
		},
		{
			"buffer":0,
			"byteLength":276,
			"byteOffset":57396,
			"target":34963
		},
		{
			"buffer":0,
			"byteLength":1152,
			"byteOffset":57672,
			"target":34962
		},
		{
			"buffer":0,
			"byteLength":1152,
			"byteOffset":58824,
			"target":34962
		},
		{
			"buffer":0,
			"byteLength":1152,
			"byteOffset":59976,
			"target":34962
		},
		{
			"buffer":0,
			"byteLength":1152,
			"byteOffset":61128,
			"target":34962
		},
		{
			"buffer":0,
			"byteLength":3744,
			"byteOffset":62280,
			"target":34962
		},
		{
			"buffer":0,
			"byteLength":3744,
			"byteOffset":66024,
			"target":34962
		},
		{
			"buffer":0,
			"byteLength":1416,
			"byteOffset":69768,
			"target":34963
		}
	],
	"samplers":[
		{
			"magFilter":9728,
			"minFilter":9984
		}
	],
	"buffers":[
		{
			"byteLength":71184,
			"uri":"futuristic_floating_chair_v4.bin"
		}
	]
}
