{
	"asset":{
		"generator":"Khronos glTF Blender I/O v5.1.19",
		"version":"2.0"
	},
	"extensionsUsed":[
		"KHR_materials_emissive_strength"
	],
	"scene":0,
	"scenes":[
		{
			"name":"Scene",
			"nodes":[
				0,
				1,
				2,
				3,
				4,
				5,
				6,
				7,
				8,
				9,
				10,
				11,
				12,
				13,
				14
			]
		}
	],
	"nodes":[
		{
			"mesh":0,
			"name":"PuckBase"
		},
		{
			"mesh":1,
			"name":"PuckGlowRim"
		},
		{
			"mesh":2,
			"name":"PuckTopRing"
		},
		{
			"mesh":3,
			"name":"SupportPost"
		},
		{
			"mesh":4,
			"name":"PostGlow"
		},
		{
			"mesh":5,
			"name":"SeatShell"
		},
		{
			"mesh":6,
			"name":"ArmTube_-1"
		},
		{
			"mesh":7,
			"name":"ArmTube_+1"
		},
		{
			"mesh":8,
			"name":"SeatCushion"
		},
		{
			"mesh":9,
			"name":"BackCushion_Lumbar",
			"rotation":[
				-0.19080901145935059,
				0,
				0,
				0.9816272854804993
			],
			"translation":[
				0,
				0.9599999785423279,
				-0.4000000059604645
			]
		},
		{
			"mesh":10,
			"name":"BackCushion_Main",
			"rotation":[
				-0.19080901145935059,
				0,
				0,
				0.9816272854804993
			],
			"translation":[
				0,
				0.9599999785423279,
				-0.4000000059604645
			]
		},
		{
			"mesh":11,
			"name":"BackCushion_Head",
			"rotation":[
				-0.19080901145935059,
				0,
				0,
				0.9816272854804993
			],
			"translation":[
				0,
				0.9599999785423279,
				-0.4000000059604645
			]
		},
		{
			"mesh":12,
			"name":"ArmPad_-1"
		},
		{
			"mesh":13,
			"name":"ArmPad_+1"
		},
		{
			"mesh":14,
			"name":"BackRest",
			"rotation":[
				-0.19080901145935059,
				0,
				0,
				0.9816272854804993
			],
			"translation":[
				0,
				0.9599999785423279,
				-0.4000000059604645
			]
		}
	],
	"materials":[
		{
			"doubleSided":true,
			"name":"Mat_PuckBase_Baked",
			"pbrMetallicRoughness":{
				"baseColorTexture":{
					"index":0
				},
				"metallicFactor":0.25,
				"roughnessFactor":0.8500000238418579
			}
		},
		{
			"doubleSided":true,
			"emissiveFactor":[
				1,
				1,
				1
			],
			"emissiveTexture":{
				"index":1
			},
			"extensions":{
				"KHR_materials_emissive_strength":{
					"emissiveStrength":2
				}
			},
			"name":"Mat_Emit",
			"pbrMetallicRoughness":{
				"baseColorFactor":[
					0,
					0,
					0,
					1
				]
			}
		},
		{
			"doubleSided":true,
			"name":"Mat_PuckTopRing_Baked",
			"pbrMetallicRoughness":{
				"baseColorTexture":{
					"index":2
				},
				"metallicFactor":0.8500000238418579,
				"roughnessFactor":0.30000001192092896
			}
		},
		{
			"doubleSided":true,
			"name":"Mat_SupportPost_Baked",
			"pbrMetallicRoughness":{
				"baseColorTexture":{
					"index":3
				},
				"metallicFactor":0.8500000238418579,
				"roughnessFactor":0.30000001192092896
			}
		},
		{
			"doubleSided":true,
			"name":"Mat_SeatShell_Baked",
			"pbrMetallicRoughness":{
				"baseColorTexture":{
					"index":4
				},
				"metallicFactor":0.25,
				"roughnessFactor":0.8500000238418579
			}
		},
		{
			"doubleSided":true,
			"name":"Mat_ArmTube_-1_Baked",
			"pbrMetallicRoughness":{
				"baseColorTexture":{
					"index":5
				},
				"metallicFactor":0.8500000238418579,
				"roughnessFactor":0.30000001192092896
			}
		},
		{
			"doubleSided":true,
			"name":"Mat_ArmTube_+1_Baked",
			"pbrMetallicRoughness":{
				"baseColorTexture":{
					"index":6
				},
				"metallicFactor":0.8500000238418579,
				"roughnessFactor":0.30000001192092896
			}
		},
		{
			"doubleSided":true,
			"name":"Mat_SeatCushion_Baked",
			"pbrMetallicRoughness":{
				"baseColorTexture":{
					"index":7
				},
				"metallicFactor":0.25,
				"roughnessFactor":0.8500000238418579
			}
		},
		{
			"doubleSided":true,
			"name":"Mat_BackCushion_Lumbar_Baked",
			"pbrMetallicRoughness":{
				"baseColorTexture":{
					"index":8
				},
				"metallicFactor":0.25,
				"roughnessFactor":0.8500000238418579
			}
		},
		{
			"doubleSided":true,
			"name":"Mat_BackCushion_Main_Baked",
			"pbrMetallicRoughness":{
				"baseColorTexture":{
					"index":9
				},
				"metallicFactor":0.25,
				"roughnessFactor":0.8500000238418579
			}
		},
		{
			"doubleSided":true,
			"name":"Mat_BackCushion_Head_Baked",
			"pbrMetallicRoughness":{
				"baseColorTexture":{
					"index":10
				},
				"metallicFactor":0.25,
				"roughnessFactor":0.8500000238418579
			}
		},
		{
			"doubleSided":true,
			"name":"Mat_ArmPad_-1_Baked",
			"pbrMetallicRoughness":{
				"baseColorTexture":{
					"index":11
				},
				"metallicFactor":0.25,
				"roughnessFactor":0.8500000238418579
			}
		},
		{
			"doubleSided":true,
			"name":"Mat_ArmPad_+1_Baked",
			"pbrMetallicRoughness":{
				"baseColorTexture":{
					"index":12
				},
				"metallicFactor":0.25,
				"roughnessFactor":0.8500000238418579
			}
		},
		{
			"doubleSided":true,
			"name":"Mat_BackRest_Baked",
			"pbrMetallicRoughness":{
				"baseColorTexture":{
					"index":13
				},
				"metallicFactor":0.25,
				"roughnessFactor":0.8500000238418579
			}
		}
	],
	"meshes":[
		{
			"name":"PuckBase",
			"primitives":[
				{
					"attributes":{
						"POSITION":0,
						"NORMAL":1,
						"TEXCOORD_0":2
					},
					"indices":3,
					"material":0
				}
			]
		},
		{
			"name":"PuckGlowRim",
			"primitives":[
				{
					"attributes":{
						"POSITION":4,
						"NORMAL":5,
						"TEXCOORD_0":6
					},
					"indices":7,
					"material":1
				}
			]
		},
		{
			"name":"PuckTopRing",
			"primitives":[
				{
					"attributes":{
						"POSITION":8,
						"NORMAL":9,
						"TEXCOORD_0":10
					},
					"indices":11,
					"material":2
				}
			]
		},
		{
			"name":"SupportPost",
			"primitives":[
				{
					"attributes":{
						"POSITION":12,
						"NORMAL":13,
						"TEXCOORD_0":14
					},
					"indices":15,
					"material":3
				}
			]
		},
		{
			"name":"PostGlow",
			"primitives":[
				{
					"attributes":{
						"POSITION":16,
						"NORMAL":17,
						"TEXCOORD_0":18
					},
					"indices":15,
					"material":1
				}
			]
		},
		{
			"name":"SeatShell",
			"primitives":[
				{
					"attributes":{
						"POSITION":19,
						"NORMAL":20,
						"TEXCOORD_0":21
					},
					"indices":22,
					"material":4
				}
			]
		},
		{
			"name":"ArmTube_-1",
			"primitives":[
				{
					"attributes":{
						"POSITION":23,
						"NORMAL":24,
						"TEXCOORD_0":25
					},
					"indices":26,
					"material":5
				}
			]
		},
		{
			"name":"ArmTube_+1",
			"primitives":[
				{
					"attributes":{
						"POSITION":27,
						"NORMAL":28,
						"TEXCOORD_0":29
					},
					"indices":30,
					"material":6
				}
			]
		},
		{
			"name":"SeatCushion",
			"primitives":[
				{
					"attributes":{
						"POSITION":31,
						"NORMAL":32,
						"TEXCOORD_0":33
					},
					"indices":34,
					"material":7
				}
			]
		},
		{
			"name":"BackCushion_Lumbar",
			"primitives":[
				{
					"attributes":{
						"POSITION":35,
						"NORMAL":36,
						"TEXCOORD_0":37
					},
					"indices":38,
					"material":8
				}
			]
		},
		{
			"name":"BackCushion_Main",
			"primitives":[
				{
					"attributes":{
						"POSITION":39,
						"NORMAL":40,
						"TEXCOORD_0":41
					},
					"indices":42,
					"material":9
				}
			]
		},
		{
			"name":"BackCushion_Head",
			"primitives":[
				{
					"attributes":{
						"POSITION":43,
						"NORMAL":44,
						"TEXCOORD_0":45
					},
					"indices":46,
					"material":10
				}
			]
		},
		{
			"name":"ArmPad_-1",
			"primitives":[
				{
					"attributes":{
						"POSITION":47,
						"NORMAL":48,
						"TEXCOORD_0":49
					},
					"indices":34,
					"material":11
				}
			]
		},
		{
			"name":"ArmPad_+1",
			"primitives":[
				{
					"attributes":{
						"POSITION":50,
						"NORMAL":51,
						"TEXCOORD_0":52
					},
					"indices":34,
					"material":12
				}
			]
		},
		{
			"name":"BackRest",
			"primitives":[
				{
					"attributes":{
						"POSITION":53,
						"NORMAL":54,
						"TEXCOORD_0":55
					},
					"indices":56,
					"material":13
				}
			]
		}
	],
	"textures":[
		{
			"sampler":0,
			"source":0
		},
		{
			"sampler":1,
			"source":1
		},
		{
			"sampler":0,
			"source":2
		},
		{
			"sampler":0,
			"source":3
		},
		{
			"sampler":0,
			"source":4
		},
		{
			"sampler":0,
			"source":5
		},
		{
			"sampler":0,
			"source":6
		},
		{
			"sampler":0,
			"source":7
		},
		{
			"sampler":0,
			"source":8
		},
		{
			"sampler":0,
			"source":9
		},
		{
			"sampler":0,
			"source":10
		},
		{
			"sampler":0,
			"source":11
		},
		{
			"sampler":0,
			"source":12
		},
		{
			"sampler":0,
			"source":13
		}
	],
	"images":[
		{
			"mimeType":"image/png",
			"name":"BakedEdges_PuckBase",
			"uri":"BakedEdges_PuckBase.png"
		},
		{
			"mimeType":"image/png",
			"name":"teal_atlas",
			"uri":"teal_atlas.png"
		},
		{
			"mimeType":"image/png",
			"name":"BakedEdges_PuckTopRing",
			"uri":"BakedEdges_PuckTopRing.png"
		},
		{
			"mimeType":"image/png",
			"name":"BakedEdges_SupportPost",
			"uri":"BakedEdges_SupportPost.png"
		},
		{
			"mimeType":"image/png",
			"name":"BakedEdges_SeatShell",
			"uri":"BakedEdges_SeatShell.png"
		},
		{
			"mimeType":"image/png",
			"name":"BakedEdges_ArmTube_-1",
			"uri":"BakedEdges_ArmTube_-1.png"
		},
		{
			"mimeType":"image/png",
			"name":"BakedEdges_ArmTube_+1",
			"uri":"BakedEdges_ArmTube_%2B1.png"
		},
		{
			"mimeType":"image/png",
			"name":"BakedEdges_SeatCushion",
			"uri":"BakedEdges_SeatCushion.png"
		},
		{
			"mimeType":"image/png",
			"name":"BakedEdges_BackCushion_Lumbar",
			"uri":"BakedEdges_BackCushion_Lumbar.png"
		},
		{
			"mimeType":"image/png",
			"name":"BakedEdges_BackCushion_Main",
			"uri":"BakedEdges_BackCushion_Main.png"
		},
		{
			"mimeType":"image/png",
			"name":"BakedEdges_BackCushion_Head",
			"uri":"BakedEdges_BackCushion_Head.png"
		},
		{
			"mimeType":"image/png",
			"name":"BakedEdges_ArmPad_-1",
			"uri":"BakedEdges_ArmPad_-1.png"
		},
		{
			"mimeType":"image/png",
			"name":"BakedEdges_ArmPad_+1",
			"uri":"BakedEdges_ArmPad_%2B1.png"
		},
		{
			"mimeType":"image/png",
			"name":"BakedEdges_BackRest",
			"uri":"BakedEdges_BackRest.png"
		}
	],
	"accessors":[
		{
			"bufferView":0,
			"componentType":5126,
			"count":216,
			"max":[
				0.6499999761581421,
				0.1599999964237213,
				0.6499999761581421
			],
			"min":[
				-0.6499999761581421,
				0,
				-0.6499999761581421
			],
			"type":"VEC3"
		},
		{
			"bufferView":1,
			"componentType":5126,
			"count":216,
			"type":"VEC3"
		},
		{
			"bufferView":2,
			"componentType":5126,
			"count":216,
			"type":"VEC2"
		},
		{
			"bufferView":3,
			"componentType":5123,
			"count":348,
			"type":"SCALAR"
		},
		{
			"bufferView":4,
			"componentType":5126,
			"count":216,
			"max":[
				0.6800000071525574,
				0.04500000178813934,
				0.6800000071525574
			],
			"min":[
				-0.6800000071525574,
				0,
				-0.6800000071525574
			],
			"type":"VEC3"
		},
		{
			"bufferView":5,
			"componentType":5126,
			"count":216,
			"type":"VEC3"
		},
		{
			"bufferView":6,
			"componentType":5126,
			"count":216,
			"type":"VEC2"
		},
		{
			"bufferView":7,
			"componentType":5123,
			"count":348,
			"type":"SCALAR"
		},
		{
			"bufferView":8,
			"componentType":5126,
			"count":96,
			"max":[
				0.5,
				0.16500000655651093,
				0.5
			],
			"min":[
				-0.5,
				0.1550000011920929,
				-0.5
			],
			"type":"VEC3"
		},
		{
			"bufferView":9,
			"componentType":5126,
			"count":96,
			"type":"VEC3"
		},
		{
			"bufferView":10,
			"componentType":5126,
			"count":96,
			"type":"VEC2"
		},
		{
			"bufferView":11,
			"componentType":5123,
			"count":276,
			"type":"SCALAR"
		},
		{
			"bufferView":12,
			"componentType":5126,
			"count":112,
			"max":[
				0.18000000715255737,
				0.7799999713897705,
				0.18000000715255737
			],
			"min":[
				-0.18000000715255737,
				0.1599999964237213,
				-0.18000000715255737
			],
			"type":"VEC3"
		},
		{
			"bufferView":13,
			"componentType":5126,
			"count":112,
			"type":"VEC3"
		},
		{
			"bufferView":14,
			"componentType":5126,
			"count":112,
			"type":"VEC2"
		},
		{
			"bufferView":15,
			"componentType":5123,
			"count":180,
			"type":"SCALAR"
		},
		{
			"bufferView":16,
			"componentType":5126,
			"count":112,
			"max":[
				0.15000000596046448,
				0.4699999988079071,
				0.15000000596046448
			],
			"min":[
				-0.15000000596046448,
				0.41999998688697815,
				-0.15000000596046448
			],
			"type":"VEC3"
		},
		{
			"bufferView":17,
			"componentType":5126,
			"count":112,
			"type":"VEC3"
		},
		{
			"bufferView":18,
			"componentType":5126,
			"count":112,
			"type":"VEC2"
		},
		{
			"bufferView":19,
			"componentType":5126,
			"count":264,
			"max":[
				0.6200000047683716,
				1.0199999809265137,
				0.5703999996185303
			],
			"min":[
				-0.6200000047683716,
				0.7799999713897705,
				-0.5703999996185303
			],
			"type":"VEC3"
		},
		{
			"bufferView":20,
			"componentType":5126,
			"count":264,
			"type":"VEC3"
		},
		{
			"bufferView":21,
			"componentType":5126,
			"count":264,
			"type":"VEC2"
		},
		{
			"bufferView":22,
			"componentType":5123,
			"count":420,
			"type":"SCALAR"
		},
		{
			"bufferView":23,
			"componentType":5126,
			"count":368,
			"max":[
				-0.49823418259620667,
				1.1976542472839355,
				0.26118776202201843
			],
			"min":[
				-0.6435010433197021,
				0.9041081666946411,
				-0.15175844728946686
			],
			"type":"VEC3"
		},
		{
			"bufferView":24,
			"componentType":5126,
			"count":368,
			"type":"VEC3"
		},
		{
			"bufferView":25,
			"componentType":5126,
			"count":368,
			"type":"VEC2"
		},
		{
			"bufferView":26,
			"componentType":5123,
			"count":564,
			"type":"SCALAR"
		},
		{
			"bufferView":27,
			"componentType":5126,
			"count":368,
			"max":[
				0.6435010433197021,
				1.1976542472839355,
				0.26118776202201843
			],
			"min":[
				0.49823418259620667,
				0.9041081666946411,
				-0.15175844728946686
			],
			"type":"VEC3"
		},
		{
			"bufferView":28,
			"componentType":5126,
			"count":368,
			"type":"VEC3"
		},
		{
			"bufferView":29,
			"componentType":5126,
			"count":368,
			"type":"VEC2"
		},
		{
			"bufferView":30,
			"componentType":5123,
			"count":564,
			"type":"SCALAR"
		},
		{
			"bufferView":31,
			"componentType":5126,
			"count":96,
			"max":[
				0.46000000834465027,
				1.0750000476837158,
				0.3700000047683716
			],
			"min":[
				-0.46000000834465027,
				0.9399999976158142,
				-0.4099999964237213
			],
			"type":"VEC3"
		},
		{
			"bufferView":32,
			"componentType":5126,
			"count":96,
			"type":"VEC3"
		},
		{
			"bufferView":33,
			"componentType":5126,
			"count":96,
			"type":"VEC2"
		},
		{
			"bufferView":34,
			"componentType":5123,
			"count":138,
			"type":"SCALAR"
		},
		{
			"bufferView":35,
			"componentType":5126,
			"count":96,
			"max":[
				0.2750000059604645,
				0.3100000023841858,
				0.15000000596046448
			],
			"min":[
				-0.2750000059604645,
				0.05000000074505806,
				0.009999999776482582
			],
			"type":"VEC3"
		},
		{
			"bufferView":36,
			"componentType":5126,
			"count":96,
			"type":"VEC3"
		},
		{
			"bufferView":37,
			"componentType":5126,
			"count":96,
			"type":"VEC2"
		},
		{
			"bufferView":38,
			"componentType":5123,
			"count":138,
			"type":"SCALAR"
		},
		{
			"bufferView":39,
			"componentType":5126,
			"count":92,
			"max":[
				0.32499998807907104,
				0.8619999885559082,
				0.15000000596046448
			],
			"min":[
				-0.32499998807907104,
				0.3199999928474426,
				0.009999999776482582
			],
			"type":"VEC3"
		},
		{
			"bufferView":40,
			"componentType":5126,
			"count":92,
			"type":"VEC3"
		},
		{
			"bufferView":41,
			"componentType":5126,
			"count":92,
			"type":"VEC2"
		},
		{
			"bufferView":42,
			"componentType":5123,
			"count":138,
			"type":"SCALAR"
		},
		{
			"bufferView":43,
			"componentType":5126,
			"count":96,
			"max":[
				0.25,
				1.059999942779541,
				0.14000000059604645
			],
			"min":[
				-0.25,
				0.8799999952316284,
				0.009999999776482582
			],
			"type":"VEC3"
		},
		{
			"bufferView":44,
			"componentType":5126,
			"count":96,
			"type":"VEC3"
		},
		{
			"bufferView":45,
			"componentType":5126,
			"count":96,
			"type":"VEC2"
		},
		{
			"bufferView":46,
			"componentType":5123,
			"count":138,
			"type":"SCALAR"
		},
		{
			"bufferView":47,
			"componentType":5126,
			"count":96,
			"max":[
				-0.47999998927116394,
				1.2100000381469727,
				0.44999998807907104
			],
			"min":[
				-0.6200000047683716,
				1.1549999713897705,
				0.05000000074505806
			],
			"type":"VEC3"
		},
		{
			"bufferView":48,
			"componentType":5126,
			"count":96,
			"type":"VEC3"
		},
		{
			"bufferView":49,
			"componentType":5126,
			"count":96,
			"type":"VEC2"
		},
		{
			"bufferView":50,
			"componentType":5126,
			"count":96,
			"max":[
				0.6200000047683716,
				1.2100000381469727,
				0.44999998807907104
			],
			"min":[
				0.47999998927116394,
				1.1549999713897705,
				0.05000000074505806
			],
			"type":"VEC3"
		},
		{
			"bufferView":51,
			"componentType":5126,
			"count":96,
			"type":"VEC3"
		},
		{
			"bufferView":52,
			"componentType":5126,
			"count":96,
			"type":"VEC2"
		},
		{
			"bufferView":53,
			"componentType":5126,
			"count":312,
			"max":[
				0.41999998688697815,
				1.1399999856948853,
				0.05000000074505806
			],
			"min":[
				-0.41999998688697815,
				0,
				-0.10000000149011612
			],
			"type":"VEC3"
		},
		{
			"bufferView":54,
			"componentType":5126,
			"count":312,
			"type":"VEC3"
		},
		{
			"bufferView":55,
			"componentType":5126,
			"count":312,
			"type":"VEC2"
		},
		{
			"bufferView":56,
			"componentType":5123,
			"count":708,
			"type":"SCALAR"
		}
	],
	"bufferViews":[
		{
			"buffer":0,
			"byteLength":2592,
			"byteOffset":0,
			"target":34962
		},
		{
			"buffer":0,
			"byteLength":2592,
			"byteOffset":2592,
			"target":34962
		},
		{
			"buffer":0,
			"byteLength":1728,
			"byteOffset":5184,
			"target":34962
		},
		{
			"buffer":0,
			"byteLength":696,
			"byteOffset":6912,
			"target":34963
		},
		{
			"buffer":0,
			"byteLength":2592,
			"byteOffset":7608,
			"target":34962
		},
		{
			"buffer":0,
			"byteLength":2592,
			"byteOffset":10200,
			"target":34962
		},
		{
			"buffer":0,
			"byteLength":1728,
			"byteOffset":12792,
			"target":34962
		},
		{
			"buffer":0,
			"byteLength":696,
			"byteOffset":14520,
			"target":34963
		},
		{
			"buffer":0,
			"byteLength":1152,
			"byteOffset":15216,
			"target":34962
		},
		{
			"buffer":0,
			"byteLength":1152,
			"byteOffset":16368,
			"target":34962
		},
		{
			"buffer":0,
			"byteLength":768,
			"byteOffset":17520,
			"target":34962
		},
		{
			"buffer":0,
			"byteLength":552,
			"byteOffset":18288,
			"target":34963
		},
		{
			"buffer":0,
			"byteLength":1344,
			"byteOffset":18840,
			"target":34962
		},
		{
			"buffer":0,
			"byteLength":1344,
			"byteOffset":20184,
			"target":34962
		},
		{
			"buffer":0,
			"byteLength":896,
			"byteOffset":21528,
			"target":34962
		},
		{
			"buffer":0,
			"byteLength":360,
			"byteOffset":22424,
			"target":34963
		},
		{
			"buffer":0,
			"byteLength":1344,
			"byteOffset":22784,
			"target":34962
		},
		{
			"buffer":0,
			"byteLength":1344,
			"byteOffset":24128,
			"target":34962
		},
		{
			"buffer":0,
			"byteLength":896,
			"byteOffset":25472,
			"target":34962
		},
		{
			"buffer":0,
			"byteLength":3168,
			"byteOffset":26368,
			"target":34962
		},
		{
			"buffer":0,
			"byteLength":3168,
			"byteOffset":29536,
			"target":34962
		},
		{
			"buffer":0,
			"byteLength":2112,
			"byteOffset":32704,
			"target":34962
		},
		{
			"buffer":0,
			"byteLength":840,
			"byteOffset":34816,
			"target":34963
		},
		{
			"buffer":0,
			"byteLength":4416,
			"byteOffset":35656,
			"target":34962
		},
		{
			"buffer":0,
			"byteLength":4416,
			"byteOffset":40072,
			"target":34962
		},
		{
			"buffer":0,
			"byteLength":2944,
			"byteOffset":44488,
			"target":34962
		},
		{
			"buffer":0,
			"byteLength":1128,
			"byteOffset":47432,
			"target":34963
		},
		{
			"buffer":0,
			"byteLength":4416,
			"byteOffset":48560,
			"target":34962
		},
		{
			"buffer":0,
			"byteLength":4416,
			"byteOffset":52976,
			"target":34962
		},
		{
			"buffer":0,
			"byteLength":2944,
			"byteOffset":57392,
			"target":34962
		},
		{
			"buffer":0,
			"byteLength":1128,
			"byteOffset":60336,
			"target":34963
		},
		{
			"buffer":0,
			"byteLength":1152,
			"byteOffset":61464,
			"target":34962
		},
		{
			"buffer":0,
			"byteLength":1152,
			"byteOffset":62616,
			"target":34962
		},
		{
			"buffer":0,
			"byteLength":768,
			"byteOffset":63768,
			"target":34962
		},
		{
			"buffer":0,
			"byteLength":276,
			"byteOffset":64536,
			"target":34963
		},
		{
			"buffer":0,
			"byteLength":1152,
			"byteOffset":64812,
			"target":34962
		},
		{
			"buffer":0,
			"byteLength":1152,
			"byteOffset":65964,
			"target":34962
		},
		{
			"buffer":0,
			"byteLength":768,
			"byteOffset":67116,
			"target":34962
		},
		{
			"buffer":0,
			"byteLength":276,
			"byteOffset":67884,
			"target":34963
		},
		{
			"buffer":0,
			"byteLength":1104,
			"byteOffset":68160,
			"target":34962
		},
		{
			"buffer":0,
			"byteLength":1104,
			"byteOffset":69264,
			"target":34962
		},
		{
			"buffer":0,
			"byteLength":736,
			"byteOffset":70368,
			"target":34962
		},
		{
			"buffer":0,
			"byteLength":276,
			"byteOffset":71104,
			"target":34963
		},
		{
			"buffer":0,
			"byteLength":1152,
			"byteOffset":71380,
			"target":34962
		},
		{
			"buffer":0,
			"byteLength":1152,
			"byteOffset":72532,
			"target":34962
		},
		{
			"buffer":0,
			"byteLength":768,
			"byteOffset":73684,
			"target":34962
		},
		{
			"buffer":0,
			"byteLength":276,
			"byteOffset":74452,
			"target":34963
		},
		{
			"buffer":0,
			"byteLength":1152,
			"byteOffset":74728,
			"target":34962
		},
		{
			"buffer":0,
			"byteLength":1152,
			"byteOffset":75880,
			"target":34962
		},
		{
			"buffer":0,
			"byteLength":768,
			"byteOffset":77032,
			"target":34962
		},
		{
			"buffer":0,
			"byteLength":1152,
			"byteOffset":77800,
			"target":34962
		},
		{
			"buffer":0,
			"byteLength":1152,
			"byteOffset":78952,
			"target":34962
		},
		{
			"buffer":0,
			"byteLength":768,
			"byteOffset":80104,
			"target":34962
		},
		{
			"buffer":0,
			"byteLength":3744,
			"byteOffset":80872,
			"target":34962
		},
		{
			"buffer":0,
			"byteLength":3744,
			"byteOffset":84616,
			"target":34962
		},
		{
			"buffer":0,
			"byteLength":2496,
			"byteOffset":88360,
			"target":34962
		},
		{
			"buffer":0,
			"byteLength":1416,
			"byteOffset":90856,
			"target":34963
		}
	],
	"samplers":[
		{
			"magFilter":9728,
			"minFilter":9984,
			"wrapS":33071,
			"wrapT":33071
		},
		{
			"magFilter":9728,
			"minFilter":9984
		}
	],
	"buffers":[
		{
			"byteLength":92272,
			"uri":"futuristic_floating_chair.bin"
		}
	]
}
