# Blender 5.1.1
# www.blender.org
mtllib Armchair.mtl
o Armchair
v -0.470000 0.120000 0.400000
v -0.470000 0.460000 0.400000
v -0.470000 0.120000 -0.400000
v -0.470000 0.460000 -0.400000
v 0.470000 0.120000 0.400000
v 0.470000 0.460000 0.400000
v 0.470000 0.120000 -0.400000
v 0.470000 0.460000 -0.400000
v -0.470000 0.120000 -0.220000
v -0.470000 1.150000 -0.220000
v -0.470000 0.120000 -0.400000
v -0.470000 1.150000 -0.400000
v 0.470000 0.120000 -0.220000
v 0.470000 1.150000 -0.220000
v 0.470000 0.120000 -0.400000
v 0.470000 1.150000 -0.400000
v -0.507500 0.120000 0.400000
v -0.507500 0.620000 0.400000
v -0.507500 0.120000 -0.320000
v -0.507500 0.620000 -0.320000
v -0.362500 0.120000 0.400000
v -0.362500 0.620000 0.400000
v -0.362500 0.120000 -0.320000
v -0.362500 0.620000 -0.320000
v 0.362500 0.120000 0.400000
v 0.362500 0.620000 0.400000
v 0.362500 0.120000 -0.320000
v 0.362500 0.620000 -0.320000
v 0.507500 0.120000 0.400000
v 0.507500 0.620000 0.400000
v 0.507500 0.120000 -0.320000
v 0.507500 0.620000 -0.320000
v -0.310000 0.460000 0.350000
v -0.310000 0.560000 0.350000
v -0.310000 0.460000 -0.230000
v -0.310000 0.560000 -0.230000
v 0.310000 0.460000 0.350000
v 0.310000 0.560000 0.350000
v 0.310000 0.460000 -0.230000
v 0.310000 0.560000 -0.230000
v -0.300000 0.530000 -0.185000
v -0.300000 0.950000 -0.185000
v -0.300000 0.530000 -0.305000
v -0.300000 0.950000 -0.305000
v 0.300000 0.530000 -0.185000
v 0.300000 0.950000 -0.185000
v 0.300000 0.530000 -0.305000
v 0.300000 0.950000 -0.305000
v -0.440000 0.000000 0.370000
v -0.440000 0.120000 0.370000
v -0.440000 0.000000 0.290000
v -0.440000 0.120000 0.290000
v -0.360000 0.000000 0.370000
v -0.360000 0.120000 0.370000
v -0.360000 0.000000 0.290000
v -0.360000 0.120000 0.290000
v -0.440000 0.000000 -0.290000
v -0.440000 0.120000 -0.290000
v -0.440000 0.000000 -0.370000
v -0.440000 0.120000 -0.370000
v -0.360000 0.000000 -0.290000
v -0.360000 0.120000 -0.290000
v -0.360000 0.000000 -0.370000
v -0.360000 0.120000 -0.370000
v 0.360000 0.000000 0.370000
v 0.360000 0.120000 0.370000
v 0.360000 0.000000 0.290000
v 0.360000 0.120000 0.290000
v 0.440000 0.000000 0.370000
v 0.440000 0.120000 0.370000
v 0.440000 0.000000 0.290000
v 0.440000 0.120000 0.290000
v 0.360000 0.000000 -0.290000
v 0.360000 0.120000 -0.290000
v 0.360000 0.000000 -0.370000
v 0.360000 0.120000 -0.370000
v 0.440000 0.000000 -0.290000
v 0.440000 0.120000 -0.290000
v 0.440000 0.000000 -0.370000
v 0.440000 0.120000 -0.370000
vn -0.0000 1.0000 -0.0000
vn 1.0000 -0.0000 -0.0000
vn -1.0000 -0.0000 -0.0000
vn -0.0000 -0.0000 -1.0000
vn -0.0000 -0.0000 1.0000
vn -0.0000 -1.0000 -0.0000
vt 0.109375 0.152344
vt 0.226562 0.152344
vt 0.226562 0.253906
vt 0.109375 0.253906
vt 0.226562 0.109375
vt 0.328125 0.109375
vt 0.328125 0.152344
vt 0.007812 0.109375
vt 0.109375 0.109375
vt 0.007812 0.152344
vt 0.445312 0.109375
vt 0.445312 0.152344
vt 0.031250 0.414062
vt 0.148438 0.414062
vt 0.148438 0.437500
vt 0.031250 0.437500
vt 0.031250 0.261719
vt 0.148438 0.261719
vt 0.148438 0.285156
vt 0.031250 0.285156
vt 0.171875 0.285156
vt 0.171875 0.414062
vt 0.007812 0.285156
vt 0.007812 0.414062
vt 0.289062 0.285156
vt 0.289062 0.414062
vt 0.542969 0.160156
vt 0.562500 0.160156
vt 0.562500 0.250000
vt 0.542969 0.250000
vt 0.542969 0.007812
vt 0.562500 0.007812
vt 0.562500 0.097656
vt 0.542969 0.097656
vt 0.652344 0.097656
vt 0.652344 0.160156
vt 0.453125 0.097656
vt 0.453125 0.160156
vt 0.671875 0.097656
vt 0.671875 0.160156
vt 0.769531 0.160156
vt 0.789062 0.160156
vt 0.789062 0.250000
vt 0.769531 0.250000
vt 0.769531 0.007812
vt 0.789062 0.007812
vt 0.789062 0.097656
vt 0.769531 0.097656
vt 0.878906 0.097656
vt 0.878906 0.160156
vt 0.679688 0.097656
vt 0.679688 0.160156
vt 0.898438 0.097656
vt 0.898438 0.160156
vt 0.371094 0.347656
vt 0.449219 0.347656
vt 0.449219 0.421875
vt 0.371094 0.421875
vt 0.371094 0.261719
vt 0.449219 0.261719
vt 0.449219 0.335938
vt 0.371094 0.335938
vt 0.523438 0.335938
vt 0.523438 0.347656
vt 0.296875 0.335938
vt 0.296875 0.347656
vt 0.601562 0.335938
vt 0.601562 0.347656
vt 0.625000 0.328125
vt 0.699219 0.328125
vt 0.699219 0.343750
vt 0.625000 0.343750
vt 0.625000 0.261719
vt 0.699219 0.261719
vt 0.699219 0.277344
vt 0.625000 0.277344
vt 0.714844 0.277344
vt 0.714844 0.328125
vt 0.609375 0.277344
vt 0.609375 0.328125
vt 0.789062 0.277344
vt 0.789062 0.328125
vt 0.808594 0.261719
vt 0.820312 0.261719
vt 0.820312 0.273438
vt 0.808594 0.273438
vt 0.832031 0.273438
vt 0.832031 0.289062
vt 0.820312 0.289062
vt 0.796875 0.273438
vt 0.808594 0.289062
vt 0.796875 0.289062
vt 0.843750 0.273438
vt 0.843750 0.289062
vt 0.863281 0.261719
vt 0.875000 0.261719
vt 0.875000 0.273438
vt 0.863281 0.273438
vt 0.886719 0.273438
vt 0.886719 0.289062
vt 0.875000 0.289062
vt 0.851562 0.273438
vt 0.863281 0.289062
vt 0.851562 0.289062
vt 0.898438 0.273438
vt 0.898438 0.289062
vt 0.917969 0.261719
vt 0.929688 0.261719
vt 0.929688 0.273438
vt 0.917969 0.273438
vt 0.941406 0.273438
vt 0.941406 0.289062
vt 0.929688 0.289062
vt 0.906250 0.273438
vt 0.917969 0.289062
vt 0.906250 0.289062
vt 0.953125 0.273438
vt 0.953125 0.289062
vt 0.019531 0.445312
vt 0.031250 0.445312
vt 0.031250 0.457031
vt 0.019531 0.457031
vt 0.042969 0.457031
vt 0.042969 0.472656
vt 0.031250 0.472656
vt 0.007812 0.457031
vt 0.019531 0.472656
vt 0.007812 0.472656
vt 0.054688 0.457031
vt 0.054688 0.472656
s 0
usemtl ArmchairTex
f 2/1/1 6/2/1 8/3/1 4/4/1
f 5/5/2 7/6/2 8/7/2 6/2/2
f 3/8/3 1/9/3 2/1/3 4/10/3
f 7/6/4 3/11/4 4/12/4 8/7/4
f 1/9/5 5/5/5 6/2/5 2/1/5
f 10/13/1 14/14/1 16/15/1 12/16/1
f 11/17/6 15/18/6 13/19/6 9/20/6
f 13/19/2 15/21/2 16/22/2 14/14/2
f 11/23/3 9/20/3 10/13/3 12/24/3
f 15/21/4 11/25/4 12/26/4 16/22/4
f 9/20/5 13/19/5 14/14/5 10/13/5
f 18/27/1 22/28/1 24/29/1 20/30/1
f 19/31/6 23/32/6 21/33/6 17/34/6
f 21/33/2 23/35/2 24/36/2 22/28/2
f 19/37/3 17/34/3 18/27/3 20/38/3
f 23/35/4 19/39/4 20/40/4 24/36/4
f 17/34/5 21/33/5 22/28/5 18/27/5
f 26/41/1 30/42/1 32/43/1 28/44/1
f 27/45/6 31/46/6 29/47/6 25/48/6
f 29/47/2 31/49/2 32/50/2 30/42/2
f 27/51/3 25/48/3 26/41/3 28/52/3
f 31/49/4 27/53/4 28/54/4 32/50/4
f 25/48/5 29/47/5 30/42/5 26/41/5
f 34/55/1 38/56/1 40/57/1 36/58/1
f 35/59/6 39/60/6 37/61/6 33/62/6
f 37/61/2 39/63/2 40/64/2 38/56/2
f 35/65/3 33/62/3 34/55/3 36/66/3
f 39/63/4 35/67/4 36/68/4 40/64/4
f 33/62/5 37/61/5 38/56/5 34/55/5
f 42/69/1 46/70/1 48/71/1 44/72/1
f 43/73/6 47/74/6 45/75/6 41/76/6
f 45/75/2 47/77/2 48/78/2 46/70/2
f 43/79/3 41/76/3 42/69/3 44/80/3
f 47/77/4 43/81/4 44/82/4 48/78/4
f 41/76/5 45/75/5 46/70/5 42/69/5
f 51/83/6 55/84/6 53/85/6 49/86/6
f 53/85/2 55/87/2 56/88/2 54/89/2
f 51/90/3 49/86/3 50/91/3 52/92/3
f 55/87/4 51/93/4 52/94/4 56/88/4
f 49/86/5 53/85/5 54/89/5 50/91/5
f 59/95/6 63/96/6 61/97/6 57/98/6
f 61/97/2 63/99/2 64/100/2 62/101/2
f 59/102/3 57/98/3 58/103/3 60/104/3
f 63/99/4 59/105/4 60/106/4 64/100/4
f 57/98/5 61/97/5 62/101/5 58/103/5
f 67/107/6 71/108/6 69/109/6 65/110/6
f 69/109/2 71/111/2 72/112/2 70/113/2
f 67/114/3 65/110/3 66/115/3 68/116/3
f 71/111/4 67/117/4 68/118/4 72/112/4
f 65/110/5 69/109/5 70/113/5 66/115/5
f 75/119/6 79/120/6 77/121/6 73/122/6
f 77/121/2 79/123/2 80/124/2 78/125/2
f 75/126/3 73/122/3 74/127/3 76/128/3
f 79/123/4 75/129/4 76/130/4 80/124/4
f 73/122/5 77/121/5 78/125/5 74/127/5
