# Blender 5.1.1
# www.blender.org
mtllib Bookshelf.mtl
o Bookshelf
v -0.555000 0.045000 -0.220000
v -0.555000 1.555000 -0.220000
v -0.555000 0.045000 -0.250000
v -0.555000 1.555000 -0.250000
v 0.555000 0.045000 -0.220000
v 0.555000 1.555000 -0.220000
v 0.555000 0.045000 -0.250000
v 0.555000 1.555000 -0.250000
v -0.600000 0.000000 0.250000
v -0.600000 1.600000 0.250000
v -0.600000 0.000000 -0.250000
v -0.600000 1.600000 -0.250000
v -0.555000 0.000000 0.250000
v -0.555000 1.600000 0.250000
v -0.555000 0.000000 -0.250000
v -0.555000 1.600000 -0.250000
v 0.555000 0.000000 0.250000
v 0.555000 1.600000 0.250000
v 0.555000 0.000000 -0.250000
v 0.555000 1.600000 -0.250000
v 0.600000 0.000000 0.250000
v 0.600000 1.600000 0.250000
v 0.600000 0.000000 -0.250000
v 0.600000 1.600000 -0.250000
v -0.555000 1.555000 0.250000
v -0.555000 1.600000 0.250000
v -0.555000 1.555000 -0.250000
v -0.555000 1.600000 -0.250000
v 0.555000 1.555000 0.250000
v 0.555000 1.600000 0.250000
v 0.555000 1.555000 -0.250000
v 0.555000 1.600000 -0.250000
v -0.555000 0.000000 0.250000
v -0.555000 0.420000 0.250000
v -0.555000 0.000000 -0.250000
v -0.555000 0.420000 -0.250000
v 0.555000 0.000000 0.250000
v 0.555000 0.420000 0.250000
v 0.555000 0.000000 -0.250000
v 0.555000 0.420000 -0.250000
v -0.555000 0.697500 0.225000
v -0.555000 0.742500 0.225000
v -0.555000 0.697500 -0.225000
v -0.555000 0.742500 -0.225000
v 0.555000 0.697500 0.225000
v 0.555000 0.742500 0.225000
v 0.555000 0.697500 -0.225000
v 0.555000 0.742500 -0.225000
v -0.555000 1.127500 0.225000
v -0.555000 1.172500 0.225000
v -0.555000 1.127500 -0.225000
v -0.555000 1.172500 -0.225000
v 0.555000 1.127500 0.225000
v 0.555000 1.172500 0.225000
v 0.555000 1.127500 -0.225000
v 0.555000 1.172500 -0.225000
vn -0.0000 1.0000 -0.0000
vn -0.0000 -1.0000 -0.0000
vn 1.0000 -0.0000 -0.0000
vn -1.0000 -0.0000 -0.0000
vn -0.0000 -0.0000 -1.0000
vn -0.0000 -0.0000 1.0000
vt 0.292969 0.199219
vt 0.433594 0.199219
vt 0.433594 0.203125
vt 0.292969 0.203125
vt 0.292969 0.007812
vt 0.433594 0.007812
vt 0.433594 0.011719
vt 0.292969 0.011719
vt 0.437500 0.011719
vt 0.437500 0.199219
vt 0.289062 0.011719
vt 0.289062 0.199219
vt 0.578125 0.011719
vt 0.578125 0.199219
vt 0.070312 0.269531
vt 0.074219 0.269531
vt 0.074219 0.332031
vt 0.070312 0.332031
vt 0.070312 0.007812
vt 0.074219 0.007812
vt 0.074219 0.070312
vt 0.070312 0.070312
vt 0.136719 0.070312
vt 0.136719 0.269531
vt 0.007812 0.070312
vt 0.007812 0.269531
vt 0.140625 0.070312
vt 0.140625 0.269531
vt 0.210938 0.269531
vt 0.214844 0.269531
vt 0.214844 0.332031
vt 0.210938 0.332031
vt 0.210938 0.007812
vt 0.214844 0.007812
vt 0.214844 0.070312
vt 0.210938 0.070312
vt 0.277344 0.070312
vt 0.277344 0.269531
vt 0.148438 0.070312
vt 0.148438 0.269531
vt 0.281250 0.070312
vt 0.281250 0.269531
vt 0.070312 0.406250
vt 0.210938 0.406250
vt 0.210938 0.468750
vt 0.070312 0.468750
vt 0.070312 0.339844
vt 0.210938 0.339844
vt 0.210938 0.402344
vt 0.070312 0.402344
vt 0.273438 0.402344
vt 0.273438 0.406250
vt 0.007812 0.402344
vt 0.007812 0.406250
vt 0.414062 0.402344
vt 0.414062 0.406250
vt 0.648438 0.121094
vt 0.789062 0.121094
vt 0.789062 0.183594
vt 0.648438 0.183594
vt 0.648438 0.007812
vt 0.789062 0.007812
vt 0.789062 0.070312
vt 0.648438 0.070312
vt 0.851562 0.070312
vt 0.851562 0.121094
vt 0.585938 0.070312
vt 0.585938 0.121094
vt 0.992188 0.070312
vt 0.992188 0.121094
vt 0.476562 0.398438
vt 0.617188 0.398438
vt 0.617188 0.453125
vt 0.476562 0.453125
vt 0.476562 0.339844
vt 0.617188 0.339844
vt 0.617188 0.394531
vt 0.476562 0.394531
vt 0.671875 0.394531
vt 0.671875 0.398438
vt 0.421875 0.394531
vt 0.421875 0.398438
vt 0.812500 0.394531
vt 0.812500 0.398438
vt 0.062500 0.535156
vt 0.203125 0.535156
vt 0.203125 0.589844
vt 0.062500 0.589844
vt 0.062500 0.476562
vt 0.203125 0.476562
vt 0.203125 0.531250
vt 0.062500 0.531250
vt 0.257812 0.531250
vt 0.257812 0.535156
vt 0.007812 0.531250
vt 0.007812 0.535156
vt 0.398438 0.531250
vt 0.398438 0.535156
s 0
usemtl BookshelfTex
f 2/1/1 6/2/1 8/3/1 4/4/1
f 3/5/2 7/6/2 5/7/2 1/8/2
f 5/7/3 7/9/3 8/10/3 6/2/3
f 3/11/4 1/8/4 2/1/4 4/12/4
f 7/9/5 3/13/5 4/14/5 8/10/5
f 1/8/6 5/7/6 6/2/6 2/1/6
f 10/15/1 14/16/1 16/17/1 12/18/1
f 11/19/2 15/20/2 13/21/2 9/22/2
f 13/21/3 15/23/3 16/24/3 14/16/3
f 11/25/4 9/22/4 10/15/4 12/26/4
f 15/23/5 11/27/5 12/28/5 16/24/5
f 9/22/6 13/21/6 14/16/6 10/15/6
f 18/29/1 22/30/1 24/31/1 20/32/1
f 19/33/2 23/34/2 21/35/2 17/36/2
f 21/35/3 23/37/3 24/38/3 22/30/3
f 19/39/4 17/36/4 18/29/4 20/40/4
f 23/37/5 19/41/5 20/42/5 24/38/5
f 17/36/6 21/35/6 22/30/6 18/29/6
f 26/43/1 30/44/1 32/45/1 28/46/1
f 27/47/2 31/48/2 29/49/2 25/50/2
f 29/49/3 31/51/3 32/52/3 30/44/3
f 27/53/4 25/50/4 26/43/4 28/54/4
f 31/51/5 27/55/5 28/56/5 32/52/5
f 25/50/6 29/49/6 30/44/6 26/43/6
f 34/57/1 38/58/1 40/59/1 36/60/1
f 35/61/2 39/62/2 37/63/2 33/64/2
f 37/63/3 39/65/3 40/66/3 38/58/3
f 35/67/4 33/64/4 34/57/4 36/68/4
f 39/65/5 35/69/5 36/70/5 40/66/5
f 33/64/6 37/63/6 38/58/6 34/57/6
f 42/71/1 46/72/1 48/73/1 44/74/1
f 43/75/2 47/76/2 45/77/2 41/78/2
f 45/77/3 47/79/3 48/80/3 46/72/3
f 43/81/4 41/78/4 42/71/4 44/82/4
f 47/79/5 43/83/5 44/84/5 48/80/5
f 41/78/6 45/77/6 46/72/6 42/71/6
f 50/85/1 54/86/1 56/87/1 52/88/1
f 51/89/2 55/90/2 53/91/2 49/92/2
f 53/91/3 55/93/3 56/94/3 54/86/3
f 51/95/4 49/92/4 50/85/4 52/96/4
f 55/93/5 51/97/5 52/98/5 56/94/5
f 49/92/6 53/91/6 54/86/6 50/85/6
