# Blender 5.1.1
# www.blender.org
mtllib BookStack.mtl
o BookStack
v -0.100000 0.000000 0.075000
v -0.100000 0.040000 0.075000
v -0.100000 0.000000 -0.075000
v -0.100000 0.040000 -0.075000
v 0.100000 0.000000 0.075000
v 0.100000 0.040000 0.075000
v 0.100000 0.000000 -0.075000
v 0.100000 0.040000 -0.075000
v -0.078000 0.040000 0.075000
v -0.078000 0.070000 0.075000
v -0.078000 0.040000 -0.055000
v -0.078000 0.070000 -0.055000
v 0.102000 0.040000 0.075000
v 0.102000 0.070000 0.075000
v 0.102000 0.040000 -0.055000
v 0.102000 0.070000 -0.055000
v -0.090000 0.070000 0.052000
v -0.090000 0.105000 0.052000
v -0.090000 0.070000 -0.068000
v -0.090000 0.105000 -0.068000
v 0.070000 0.070000 0.052000
v 0.070000 0.105000 0.052000
v 0.070000 0.070000 -0.068000
v 0.070000 0.105000 -0.068000
vn -0.0000 1.0000 -0.0000
vn -0.0000 -1.0000 -0.0000
vn 1.0000 -0.0000 -0.0000
vn -1.0000 -0.0000 -0.0000
vn -0.0000 -0.0000 -1.0000
vn -0.0000 -0.0000 1.0000
vt 0.109375 0.125000
vt 0.203125 0.125000
vt 0.203125 0.203125
vt 0.109375 0.203125
vt 0.109375 0.031250
vt 0.203125 0.031250
vt 0.203125 0.109375
vt 0.109375 0.109375
vt 0.281250 0.109375
vt 0.281250 0.125000
vt 0.031250 0.109375
vt 0.031250 0.125000
vt 0.375000 0.109375
vt 0.375000 0.125000
vt 0.468750 0.109375
vt 0.562500 0.109375
vt 0.562500 0.171875
vt 0.468750 0.171875
vt 0.468750 0.031250
vt 0.562500 0.031250
vt 0.562500 0.093750
vt 0.468750 0.093750
vt 0.625000 0.093750
vt 0.625000 0.109375
vt 0.406250 0.093750
vt 0.406250 0.109375
vt 0.718750 0.093750
vt 0.718750 0.109375
vt 0.093750 0.312500
vt 0.171875 0.312500
vt 0.171875 0.375000
vt 0.093750 0.375000
vt 0.093750 0.234375
vt 0.171875 0.234375
vt 0.171875 0.296875
vt 0.093750 0.296875
vt 0.234375 0.296875
vt 0.234375 0.312500
vt 0.031250 0.296875
vt 0.031250 0.312500
vt 0.312500 0.296875
vt 0.312500 0.312500
s 0
usemtl BookStackTex
f 2/1/1 6/2/1 8/3/1 4/4/1
f 3/5/2 7/6/2 5/7/2 1/8/2
f 5/7/3 7/9/3 8/10/3 6/2/3
f 3/11/4 1/8/4 2/1/4 4/12/4
f 7/9/5 3/13/5 4/14/5 8/10/5
f 1/8/6 5/7/6 6/2/6 2/1/6
f 10/15/1 14/16/1 16/17/1 12/18/1
f 11/19/2 15/20/2 13/21/2 9/22/2
f 13/21/3 15/23/3 16/24/3 14/16/3
f 11/25/4 9/22/4 10/15/4 12/26/4
f 15/23/5 11/27/5 12/28/5 16/24/5
f 9/22/6 13/21/6 14/16/6 10/15/6
f 18/29/1 22/30/1 24/31/1 20/32/1
f 19/33/2 23/34/2 21/35/2 17/36/2
f 21/35/3 23/37/3 24/38/3 22/30/3
f 19/39/4 17/36/4 18/29/4 20/40/4
f 23/37/5 19/41/5 20/42/5 24/38/5
f 17/36/6 21/35/6 22/30/6 18/29/6
