# Blender 5.1.1
# www.blender.org
mtllib CoffeeTable.mtl
o CoffeeTable
v -0.500000 0.400000 0.300000
v -0.500000 0.460000 0.300000
v -0.500000 0.400000 -0.300000
v -0.500000 0.460000 -0.300000
v 0.500000 0.400000 0.300000
v 0.500000 0.460000 0.300000
v 0.500000 0.400000 -0.300000
v 0.500000 0.460000 -0.300000
v -0.430000 0.340000 0.230000
v -0.430000 0.400000 0.230000
v -0.430000 0.340000 -0.230000
v -0.430000 0.400000 -0.230000
v 0.430000 0.340000 0.230000
v 0.430000 0.400000 0.230000
v 0.430000 0.340000 -0.230000
v 0.430000 0.400000 -0.230000
v -0.475000 0.000000 0.275000
v -0.475000 0.400000 0.275000
v -0.475000 0.000000 0.205000
v -0.475000 0.400000 0.205000
v -0.405000 0.000000 0.275000
v -0.405000 0.400000 0.275000
v -0.405000 0.000000 0.205000
v -0.405000 0.400000 0.205000
v -0.475000 0.000000 -0.205000
v -0.475000 0.400000 -0.205000
v -0.475000 0.000000 -0.275000
v -0.475000 0.400000 -0.275000
v -0.405000 0.000000 -0.205000
v -0.405000 0.400000 -0.205000
v -0.405000 0.000000 -0.275000
v -0.405000 0.400000 -0.275000
v 0.405000 0.000000 0.275000
v 0.405000 0.400000 0.275000
v 0.405000 0.000000 0.205000
v 0.405000 0.400000 0.205000
v 0.475000 0.000000 0.275000
v 0.475000 0.400000 0.275000
v 0.475000 0.000000 0.205000
v 0.475000 0.400000 0.205000
v 0.405000 0.000000 -0.205000
v 0.405000 0.400000 -0.205000
v 0.405000 0.000000 -0.275000
v 0.405000 0.400000 -0.275000
v 0.475000 0.000000 -0.205000
v 0.475000 0.400000 -0.205000
v 0.475000 0.000000 -0.275000
v 0.475000 0.400000 -0.275000
vn -0.0000 1.0000 -0.0000
vn -0.0000 -1.0000 -0.0000
vn 1.0000 -0.0000 -0.0000
vn -1.0000 -0.0000 -0.0000
vn -0.0000 -0.0000 -1.0000
vn -0.0000 -0.0000 1.0000
vt 0.164062 0.179688
vt 0.414062 0.179688
vt 0.414062 0.328125
vt 0.164062 0.328125
vt 0.164062 0.015625
vt 0.414062 0.015625
vt 0.414062 0.164062
vt 0.164062 0.164062
vt 0.562500 0.164062
vt 0.562500 0.179688
vt 0.015625 0.164062
vt 0.015625 0.179688
vt 0.812500 0.164062
vt 0.812500 0.179688
vt 0.132812 0.343750
vt 0.351562 0.343750
vt 0.351562 0.460938
vt 0.132812 0.460938
vt 0.468750 0.460938
vt 0.468750 0.476562
vt 0.351562 0.476562
vt 0.015625 0.460938
vt 0.132812 0.476562
vt 0.015625 0.476562
vt 0.687500 0.460938
vt 0.687500 0.476562
vt 0.718750 0.343750
vt 0.734375 0.343750
vt 0.734375 0.359375
vt 0.718750 0.359375
vt 0.750000 0.359375
vt 0.750000 0.460938
vt 0.734375 0.460938
vt 0.703125 0.359375
vt 0.718750 0.460938
vt 0.703125 0.460938
vt 0.765625 0.359375
vt 0.765625 0.460938
vt 0.796875 0.343750
vt 0.812500 0.343750
vt 0.812500 0.359375
vt 0.796875 0.359375
vt 0.828125 0.359375
vt 0.828125 0.460938
vt 0.812500 0.460938
vt 0.781250 0.359375
vt 0.796875 0.460938
vt 0.781250 0.460938
vt 0.843750 0.359375
vt 0.843750 0.460938
vt 0.875000 0.343750
vt 0.890625 0.343750
vt 0.890625 0.359375
vt 0.875000 0.359375
vt 0.906250 0.359375
vt 0.906250 0.460938
vt 0.890625 0.460938
vt 0.859375 0.359375
vt 0.875000 0.460938
vt 0.859375 0.460938
vt 0.921875 0.359375
vt 0.921875 0.460938
vt 0.031250 0.609375
vt 0.046875 0.609375
vt 0.046875 0.625000
vt 0.031250 0.625000
vt 0.062500 0.625000
vt 0.062500 0.726562
vt 0.046875 0.726562
vt 0.015625 0.625000
vt 0.031250 0.726562
vt 0.015625 0.726562
vt 0.078125 0.625000
vt 0.078125 0.726562
s 0
usemtl CoffeeTableTex
f 2/1/1 6/2/1 8/3/1 4/4/1
f 3/5/2 7/6/2 5/7/2 1/8/2
f 5/7/3 7/9/3 8/10/3 6/2/3
f 3/11/4 1/8/4 2/1/4 4/12/4
f 7/9/5 3/13/5 4/14/5 8/10/5
f 1/8/6 5/7/6 6/2/6 2/1/6
f 11/15/2 15/16/2 13/17/2 9/18/2
f 13/17/3 15/19/3 16/20/3 14/21/3
f 11/22/4 9/18/4 10/23/4 12/24/4
f 15/19/5 11/25/5 12/26/5 16/20/5
f 9/18/6 13/17/6 14/21/6 10/23/6
f 19/27/2 23/28/2 21/29/2 17/30/2
f 21/29/3 23/31/3 24/32/3 22/33/3
f 19/34/4 17/30/4 18/35/4 20/36/4
f 23/31/5 19/37/5 20/38/5 24/32/5
f 17/30/6 21/29/6 22/33/6 18/35/6
f 27/39/2 31/40/2 29/41/2 25/42/2
f 29/41/3 31/43/3 32/44/3 30/45/3
f 27/46/4 25/42/4 26/47/4 28/48/4
f 31/43/5 27/49/5 28/50/5 32/44/5
f 25/42/6 29/41/6 30/45/6 26/47/6
f 35/51/2 39/52/2 37/53/2 33/54/2
f 37/53/3 39/55/3 40/56/3 38/57/3
f 35/58/4 33/54/4 34/59/4 36/60/4
f 39/55/5 35/61/5 36/62/5 40/56/5
f 33/54/6 37/53/6 38/57/6 34/59/6
f 43/63/2 47/64/2 45/65/2 41/66/2
f 45/65/3 47/67/3 48/68/3 46/69/3
f 43/70/4 41/66/4 42/71/4 44/72/4
f 47/67/5 43/73/5 44/74/5 48/68/5
f 41/66/6 45/65/6 46/69/6 42/71/6
