# Blender 5.1.1
# www.blender.org
mtllib CupSaucer.mtl
o CupSaucer
v 0.060000 0.000000 0.000000
v 0.042426 0.000000 -0.042426
v 0.000000 0.000000 -0.060000
v -0.042426 0.000000 -0.042426
v -0.060000 0.000000 -0.000000
v -0.042426 0.000000 0.042426
v -0.000000 0.000000 0.060000
v 0.042426 0.000000 0.042426
v 0.075000 0.018000 0.000000
v 0.053033 0.018000 -0.053033
v 0.000000 0.018000 -0.075000
v -0.053033 0.018000 -0.053033
v -0.075000 0.018000 -0.000000
v -0.053033 0.018000 0.053033
v -0.000000 0.018000 0.075000
v 0.053033 0.018000 0.053033
v 0.034000 0.018000 0.000000
v 0.024042 0.018000 -0.024042
v 0.000000 0.018000 -0.034000
v -0.024042 0.018000 -0.024042
v -0.034000 0.018000 -0.000000
v -0.024042 0.018000 0.024042
v -0.000000 0.018000 0.034000
v 0.024042 0.018000 0.024042
v 0.042000 0.063000 0.000000
v 0.029698 0.063000 -0.029698
v 0.000000 0.063000 -0.042000
v -0.029698 0.063000 -0.029698
v -0.042000 0.063000 -0.000000
v -0.029698 0.063000 0.029698
v -0.000000 0.063000 0.042000
v 0.029698 0.063000 0.029698
vn 0.7321 -0.6100 -0.3032
vn 0.3032 -0.6100 -0.7321
vn -0.3032 -0.6100 -0.7321
vn -0.7321 -0.6100 -0.3032
vn -0.7321 -0.6100 0.3032
vn -0.3032 -0.6100 0.7321
vn 0.3032 -0.6100 0.7321
vn 0.7321 -0.6100 0.3032
vn -0.0000 1.0000 -0.0000
vn -0.0000 -1.0000 -0.0000
vn 0.9117 -0.1621 -0.3776
vn 0.3776 -0.1621 -0.9117
vn -0.3776 -0.1621 -0.9117
vn -0.9117 -0.1621 -0.3776
vn -0.9117 -0.1621 0.3776
vn -0.3776 -0.1621 0.9117
vn 0.3776 -0.1621 0.9117
vn 0.9117 -0.1621 0.3776
vt 0.062500 0.062500
vt 0.156250 0.062500
vt 0.156250 0.093750
vt 0.062500 0.093750
vt 0.250000 0.062500
vt 0.250000 0.093750
vt 0.343750 0.062500
vt 0.343750 0.093750
vt 0.437500 0.062500
vt 0.437500 0.093750
vt 0.531250 0.062500
vt 0.531250 0.093750
vt 0.625000 0.062500
vt 0.625000 0.093750
vt 0.718750 0.062500
vt 0.718750 0.093750
vt 0.812500 0.062500
vt 0.812500 0.093750
vt 0.343750 0.187500
vt 0.375000 0.312500
vt 0.343750 0.437500
vt 0.218750 0.468750
vt 0.093750 0.437500
vt 0.062500 0.312500
vt 0.093750 0.187500
vt 0.218750 0.156250
vt 0.750000 0.312500
vt 0.718750 0.187500
vt 0.593750 0.156250
vt 0.468750 0.187500
vt 0.437500 0.312500
vt 0.468750 0.437500
vt 0.593750 0.468750
vt 0.718750 0.437500
vt 0.062500 0.531250
vt 0.125000 0.531250
vt 0.125000 0.625000
vt 0.062500 0.625000
vt 0.187500 0.531250
vt 0.187500 0.625000
vt 0.250000 0.531250
vt 0.250000 0.625000
vt 0.312500 0.531250
vt 0.312500 0.625000
vt 0.375000 0.531250
vt 0.375000 0.625000
vt 0.437500 0.531250
vt 0.437500 0.625000
vt 0.500000 0.531250
vt 0.500000 0.625000
vt 0.562500 0.531250
vt 0.562500 0.625000
vt 0.250000 0.781250
vt 0.218750 0.718750
vt 0.156250 0.687500
vt 0.093750 0.718750
vt 0.062500 0.781250
vt 0.093750 0.843750
vt 0.156250 0.875000
vt 0.218750 0.843750
s 0
usemtl CupSaucerTex
f 1/1/1 2/2/1 10/3/1 9/4/1
f 2/2/2 3/5/2 11/6/2 10/3/2
f 3/5/3 4/7/3 12/8/3 11/6/3
f 4/7/4 5/9/4 13/10/4 12/8/4
f 5/9/5 6/11/5 14/12/5 13/10/5
f 6/11/6 7/13/6 15/14/6 14/12/6
f 7/13/7 8/15/7 16/16/7 15/14/7
f 8/15/8 1/17/8 9/18/8 16/16/8
f 16/19/9 9/20/9 10/21/9 11/22/9 12/23/9 13/24/9 14/25/9 15/26/9
f 1/27/10 8/28/10 7/29/10 6/30/10 5/31/10 4/32/10 3/33/10 2/34/10
f 17/35/11 18/36/11 26/37/11 25/38/11
f 18/36/12 19/39/12 27/40/12 26/37/12
f 19/39/13 20/41/13 28/42/13 27/40/13
f 20/41/14 21/43/14 29/44/14 28/42/14
f 21/43/15 22/45/15 30/46/15 29/44/15
f 22/45/16 23/47/16 31/48/16 30/46/16
f 23/47/17 24/49/17 32/50/17 31/48/17
f 24/49/18 17/51/18 25/52/18 32/50/18
f 17/53/10 24/54/10 23/55/10 22/56/10 21/57/10 20/58/10 19/59/10 18/60/10
