# Blender 5.1.1
# www.blender.org
mtllib FloorPlinth.mtl
o FloorPlinth
v -0.260000 0.000000 0.260000
v -0.260000 0.100000 0.260000
v -0.260000 0.000000 -0.260000
v -0.260000 0.100000 -0.260000
v 0.260000 0.000000 0.260000
v 0.260000 0.100000 0.260000
v 0.260000 0.000000 -0.260000
v 0.260000 0.100000 -0.260000
v -0.220000 0.100000 0.220000
v -0.220000 0.130000 0.220000
v -0.220000 0.100000 -0.220000
v -0.220000 0.130000 -0.220000
v 0.220000 0.100000 0.220000
v 0.220000 0.130000 0.220000
v 0.220000 0.100000 -0.220000
v 0.220000 0.130000 -0.220000
vn -0.0000 1.0000 -0.0000
vn -0.0000 -1.0000 -0.0000
vn 1.0000 -0.0000 -0.0000
vn -1.0000 -0.0000 -0.0000
vn -0.0000 -0.0000 -1.0000
vn -0.0000 -0.0000 1.0000
vt 0.148438 0.171875
vt 0.281250 0.171875
vt 0.281250 0.304688
vt 0.148438 0.304688
vt 0.148438 0.015625
vt 0.281250 0.015625
vt 0.281250 0.148438
vt 0.148438 0.148438
vt 0.414062 0.148438
vt 0.414062 0.171875
vt 0.015625 0.148438
vt 0.015625 0.171875
vt 0.546875 0.148438
vt 0.546875 0.171875
vt 0.125000 0.437500
vt 0.234375 0.437500
vt 0.234375 0.546875
vt 0.125000 0.546875
vt 0.125000 0.320312
vt 0.234375 0.320312
vt 0.234375 0.429688
vt 0.125000 0.429688
vt 0.343750 0.429688
vt 0.343750 0.437500
vt 0.015625 0.429688
vt 0.015625 0.437500
vt 0.453125 0.429688
vt 0.453125 0.437500
s 0
usemtl FloorPlinthTex
f 2/1/1 6/2/1 8/3/1 4/4/1
f 3/5/2 7/6/2 5/7/2 1/8/2
f 5/7/3 7/9/3 8/10/3 6/2/3
f 3/11/4 1/8/4 2/1/4 4/12/4
f 7/9/5 3/13/5 4/14/5 8/10/5
f 1/8/6 5/7/6 6/2/6 2/1/6
f 10/15/1 14/16/1 16/17/1 12/18/1
f 11/19/2 15/20/2 13/21/2 9/22/2
f 13/21/3 15/23/3 16/24/3 14/16/3
f 11/25/4 9/22/4 10/15/4 12/26/4
f 15/23/5 11/27/5 12/28/5 16/24/5
f 9/22/6 13/21/6 14/16/6 10/15/6
