# Blender 5.1.1
# www.blender.org
mtllib HangingArm.mtl
o HangingArm
v -0.060000 0.530000 -0.340000
v -0.060000 0.870000 -0.340000
v -0.060000 0.530000 -0.380000
v -0.060000 0.870000 -0.380000
v 0.060000 0.530000 -0.340000
v 0.060000 0.870000 -0.340000
v 0.060000 0.530000 -0.380000
v 0.060000 0.870000 -0.380000
v -0.027500 0.777500 0.040000
v -0.027500 0.832500 0.040000
v -0.027500 0.777500 -0.380000
v -0.027500 0.832500 -0.380000
v 0.027500 0.777500 0.040000
v 0.027500 0.832500 0.040000
v 0.027500 0.777500 -0.380000
v 0.027500 0.832500 -0.380000
v -0.020000 0.650000 0.040000
v -0.020000 0.790000 0.040000
v -0.020000 0.650000 0.000000
v -0.020000 0.790000 0.000000
v 0.020000 0.650000 0.040000
v 0.020000 0.790000 0.040000
v 0.020000 0.650000 0.000000
v 0.020000 0.790000 0.000000
v -0.008000 0.651840 0.012214
v -0.008000 0.101840 -0.117785
v -0.008000 0.648160 0.027785
v -0.008000 0.098160 -0.102214
v 0.008000 0.651840 0.012214
v 0.008000 0.101840 -0.117785
v 0.008000 0.648160 0.027785
v 0.008000 0.098160 -0.102214
v 0.010674 0.647486 0.017218
v -0.101909 0.097486 0.082218
v -0.002996 0.649326 0.009111
v -0.115579 0.099326 0.074111
v 0.002996 0.650674 0.030889
v -0.109587 0.100674 0.095889
v -0.010674 0.652514 0.022782
v -0.123258 0.102514 0.087782
v -0.002996 0.650674 0.030889
v 0.109587 0.100674 0.095889
v 0.010674 0.652514 0.022782
v 0.123258 0.102514 0.087782
v -0.010674 0.647486 0.017218
v 0.101909 0.097486 0.082218
v 0.002996 0.649326 0.009111
v 0.115579 0.099326 0.074111
vn -0.0000 1.0000 -0.0000
vn -0.0000 -1.0000 -0.0000
vn 1.0000 -0.0000 -0.0000
vn -1.0000 -0.0000 -0.0000
vn -0.0000 -0.0000 -1.0000
vn -0.0000 -0.0000 1.0000
vn -0.0000 -0.9732 -0.2300
vn -0.0000 0.9732 0.2300
vn -0.0000 -0.2300 0.9732
vn -0.0000 0.2300 -0.9732
vn -0.1992 -0.9732 0.1150
vn 0.1992 0.9732 -0.1150
vn -0.4799 0.1992 0.8544
vn 0.4799 -0.1992 -0.8544
vn -0.8544 0.1150 -0.5067
vn 0.8544 -0.1150 0.5067
vn 0.1992 -0.9732 0.1150
vn -0.1992 0.9732 -0.1150
vn -0.4799 -0.1992 -0.8544
vn 0.4799 0.1992 0.8544
vn 0.8544 0.1150 -0.5067
vn -0.8544 -0.1150 0.5067
vt 0.828125 0.218750
vt 0.890625 0.218750
vt 0.890625 0.234375
vt 0.828125 0.234375
vt 0.828125 0.031250
vt 0.890625 0.031250
vt 0.890625 0.046875
vt 0.828125 0.046875
vt 0.906250 0.046875
vt 0.906250 0.218750
vt 0.812500 0.046875
vt 0.812500 0.218750
vt 0.968750 0.046875
vt 0.968750 0.218750
vt 0.234375 0.265625
vt 0.265625 0.265625
vt 0.265625 0.468750
vt 0.234375 0.468750
vt 0.234375 0.031250
vt 0.265625 0.031250
vt 0.265625 0.234375
vt 0.234375 0.234375
vt 0.468750 0.234375
vt 0.468750 0.265625
vt 0.031250 0.234375
vt 0.031250 0.265625
vt 0.500000 0.234375
vt 0.500000 0.265625
vt 0.046875 0.578125
vt 0.062500 0.578125
vt 0.062500 0.593750
vt 0.046875 0.593750
vt 0.046875 0.500000
vt 0.062500 0.500000
vt 0.062500 0.515625
vt 0.046875 0.515625
vt 0.078125 0.515625
vt 0.078125 0.578125
vt 0.031250 0.515625
vt 0.031250 0.578125
vt 0.093750 0.515625
vt 0.093750 0.578125
vt 0.546875 0.328125
vt 0.562500 0.328125
vt 0.562500 0.343750
vt 0.546875 0.343750
vt 0.546875 0.031250
vt 0.562500 0.031250
vt 0.562500 0.046875
vt 0.546875 0.046875
vt 0.578125 0.046875
vt 0.578125 0.328125
vt 0.531250 0.046875
vt 0.531250 0.328125
vt 0.593750 0.046875
vt 0.593750 0.328125
vt 0.640625 0.328125
vt 0.656250 0.328125
vt 0.656250 0.343750
vt 0.640625 0.343750
vt 0.640625 0.031250
vt 0.656250 0.031250
vt 0.656250 0.046875
vt 0.640625 0.046875
vt 0.671875 0.046875
vt 0.671875 0.328125
vt 0.625000 0.046875
vt 0.625000 0.328125
vt 0.687500 0.046875
vt 0.687500 0.328125
vt 0.734375 0.328125
vt 0.750000 0.328125
vt 0.750000 0.343750
vt 0.734375 0.343750
vt 0.734375 0.031250
vt 0.750000 0.031250
vt 0.750000 0.046875
vt 0.734375 0.046875
vt 0.765625 0.046875
vt 0.765625 0.328125
vt 0.718750 0.046875
vt 0.718750 0.328125
vt 0.781250 0.046875
vt 0.781250 0.328125
s 0
usemtl HangingArmTex
f 2/1/1 6/2/1 8/3/1 4/4/1
f 3/5/2 7/6/2 5/7/2 1/8/2
f 5/7/3 7/9/3 8/10/3 6/2/3
f 3/11/4 1/8/4 2/1/4 4/12/4
f 7/9/5 3/13/5 4/14/5 8/10/5
f 1/8/6 5/7/6 6/2/6 2/1/6
f 10/15/1 14/16/1 16/17/1 12/18/1
f 11/19/2 15/20/2 13/21/2 9/22/2
f 13/21/3 15/23/3 16/24/3 14/16/3
f 11/25/4 9/22/4 10/15/4 12/26/4
f 15/23/5 11/27/5 12/28/5 16/24/5
f 9/22/6 13/21/6 14/16/6 10/15/6
f 18/29/1 22/30/1 24/31/1 20/32/1
f 19/33/2 23/34/2 21/35/2 17/36/2
f 21/35/3 23/37/3 24/38/3 22/30/3
f 19/39/4 17/36/4 18/29/4 20/40/4
f 23/37/5 19/41/5 20/42/5 24/38/5
f 17/36/6 21/35/6 22/30/6 18/29/6
f 26/43/7 30/44/7 32/45/7 28/46/7
f 27/47/8 31/48/8 29/49/8 25/50/8
f 29/49/3 31/51/3 32/52/3 30/44/3
f 27/53/4 25/50/4 26/43/4 28/54/4
f 31/51/9 27/55/9 28/56/9 32/52/9
f 25/50/10 29/49/10 30/44/10 26/43/10
f 34/57/11 38/58/11 40/59/11 36/60/11
f 35/61/12 39/62/12 37/63/12 33/64/12
f 37/63/13 39/65/13 40/66/13 38/58/13
f 35/67/14 33/64/14 34/57/14 36/68/14
f 39/65/15 35/69/15 36/70/15 40/66/15
f 33/64/16 37/63/16 38/58/16 34/57/16
f 42/71/17 46/72/17 48/73/17 44/74/17
f 43/75/18 47/76/18 45/77/18 41/78/18
f 45/77/19 47/79/19 48/80/19 46/72/19
f 43/81/20 41/78/20 42/71/20 44/82/20
f 47/79/21 43/83/21 44/84/21 48/80/21
f 41/78/22 45/77/22 46/72/22 42/71/22
