# Blender 5.1.1
# www.blender.org
mtllib Jar.mtl
o Jar
v 0.050000 0.000000 0.000000
v 0.035355 0.000000 -0.035355
v 0.000000 0.000000 -0.050000
v -0.035355 0.000000 -0.035355
v -0.050000 0.000000 -0.000000
v -0.035355 0.000000 0.035355
v -0.000000 0.000000 0.050000
v 0.035355 0.000000 0.035355
v 0.045000 0.075000 0.000000
v 0.031820 0.075000 -0.031820
v 0.000000 0.075000 -0.045000
v -0.031820 0.075000 -0.031820
v -0.045000 0.075000 -0.000000
v -0.031820 0.075000 0.031820
v -0.000000 0.075000 0.045000
v 0.031820 0.075000 0.031820
v 0.052000 0.075000 0.000000
v 0.036770 0.075000 -0.036770
v 0.000000 0.075000 -0.052000
v -0.036770 0.075000 -0.036770
v -0.052000 0.075000 -0.000000
v -0.036770 0.075000 0.036770
v -0.000000 0.075000 0.052000
v 0.036770 0.075000 0.036770
v 0.052000 0.100000 0.000000
v 0.036770 0.100000 -0.036770
v 0.000000 0.100000 -0.052000
v -0.036770 0.100000 -0.036770
v -0.052000 0.100000 -0.000000
v -0.036770 0.100000 0.036770
v -0.000000 0.100000 0.052000
v 0.036770 0.100000 0.036770
vn 0.9221 0.0615 -0.3820
vn 0.3820 0.0615 -0.9221
vn -0.3820 0.0615 -0.9221
vn -0.9221 0.0615 -0.3820
vn -0.9221 0.0615 0.3820
vn -0.3820 0.0615 0.9221
vn 0.3820 0.0615 0.9221
vn 0.9221 0.0615 0.3820
vn -0.0000 -1.0000 -0.0000
vn 0.9239 -0.0000 -0.3827
vn 0.3827 -0.0000 -0.9239
vn -0.3827 -0.0000 -0.9239
vn -0.9239 -0.0000 -0.3827
vn -0.9239 -0.0000 0.3827
vn -0.3827 -0.0000 0.9239
vn 0.3827 -0.0000 0.9239
vn 0.9239 -0.0000 0.3827
vn -0.0000 1.0000 -0.0000
vt 0.062500 0.062500
vt 0.125000 0.062500
vt 0.125000 0.218750
vt 0.062500 0.218750
vt 0.187500 0.062500
vt 0.187500 0.218750
vt 0.250000 0.062500
vt 0.250000 0.218750
vt 0.312500 0.062500
vt 0.312500 0.218750
vt 0.375000 0.062500
vt 0.375000 0.218750
vt 0.437500 0.062500
vt 0.437500 0.218750
vt 0.500000 0.062500
vt 0.500000 0.218750
vt 0.562500 0.062500
vt 0.562500 0.218750
vt 0.250000 0.375000
vt 0.218750 0.312500
vt 0.156250 0.281250
vt 0.093750 0.312500
vt 0.062500 0.375000
vt 0.093750 0.437500
vt 0.156250 0.468750
vt 0.218750 0.437500
vt 0.062500 0.531250
vt 0.156250 0.531250
vt 0.156250 0.593750
vt 0.062500 0.593750
vt 0.250000 0.531250
vt 0.250000 0.593750
vt 0.343750 0.531250
vt 0.343750 0.593750
vt 0.437500 0.531250
vt 0.437500 0.593750
vt 0.531250 0.531250
vt 0.531250 0.593750
vt 0.625000 0.531250
vt 0.625000 0.593750
vt 0.718750 0.531250
vt 0.718750 0.593750
vt 0.812500 0.531250
vt 0.812500 0.593750
vt 0.218750 0.687500
vt 0.250000 0.750000
vt 0.218750 0.812500
vt 0.156250 0.843750
vt 0.093750 0.812500
vt 0.062500 0.750000
vt 0.093750 0.687500
vt 0.156250 0.656250
vt 0.500000 0.750000
vt 0.468750 0.687500
vt 0.406250 0.656250
vt 0.343750 0.687500
vt 0.312500 0.750000
vt 0.343750 0.812500
vt 0.406250 0.843750
vt 0.468750 0.812500
s 0
usemtl JarTex
f 1/1/1 2/2/1 10/3/1 9/4/1
f 2/2/2 3/5/2 11/6/2 10/3/2
f 3/5/3 4/7/3 12/8/3 11/6/3
f 4/7/4 5/9/4 13/10/4 12/8/4
f 5/9/5 6/11/5 14/12/5 13/10/5
f 6/11/6 7/13/6 15/14/6 14/12/6
f 7/13/7 8/15/7 16/16/7 15/14/7
f 8/15/8 1/17/8 9/18/8 16/16/8
f 1/19/9 8/20/9 7/21/9 6/22/9 5/23/9 4/24/9 3/25/9 2/26/9
f 17/27/10 18/28/10 26/29/10 25/30/10
f 18/28/11 19/31/11 27/32/11 26/29/11
f 19/31/12 20/33/12 28/34/12 27/32/12
f 20/33/13 21/35/13 29/36/13 28/34/13
f 21/35/14 22/37/14 30/38/14 29/36/14
f 22/37/15 23/39/15 31/40/15 30/38/15
f 23/39/16 24/41/16 32/42/16 31/40/16
f 24/41/17 17/43/17 25/44/17 32/42/17
f 32/45/18 25/46/18 26/47/18 27/48/18 28/49/18 29/50/18 30/51/18 31/52/18
f 17/53/9 24/54/9 23/55/9 22/56/9 21/57/9 20/58/9 19/59/9 18/60/9
