# Blender 5.1.1
# www.blender.org
mtllib JStore_Purple.mtl
o JStore_Purple
v 0.125000 0.437500 -0.187500
v 0.125000 0.437500 0.187500
v 0.125000 0.062500 0.187500
v 0.125000 0.437500 -0.187500
v 0.125000 0.437500 0.187500
v 0.125000 0.437500 0.187500
v 0.125000 0.437500 -0.187500
v 0.125000 0.062500 0.187500
v 0.125000 0.062500 -0.187500
v 0.125000 0.437500 -0.187500
v 0.125000 0.062500 0.187500
v 0.125000 0.062500 0.187500
v -0.125000 0.062500 0.187500
v -0.125000 0.437500 0.187500
v -0.125000 0.437500 -0.187500
v -0.125000 0.062500 0.187500
v -0.125000 0.437500 0.187500
v -0.125000 0.437500 0.187500
v -0.125000 0.062500 0.187500
v -0.125000 0.437500 -0.187500
v -0.125000 0.062500 -0.187500
v -0.125000 0.062500 0.187500
v -0.125000 0.437500 -0.187500
v -0.125000 0.437500 -0.187500
v 0.093750 0.500000 0.187500
v 0.093750 0.500000 -0.187500
v -0.093750 0.500000 -0.187500
v 0.093750 0.500000 0.187500
v 0.093750 0.500000 -0.187500
v 0.093750 0.500000 -0.187500
v 0.093750 0.500000 0.187500
v -0.093750 0.500000 -0.187500
v -0.093750 0.500000 0.187500
v 0.093750 0.500000 0.187500
v -0.093750 0.500000 -0.187500
v -0.093750 0.500000 -0.187500
v -0.093750 0.000000 -0.187500
v 0.093750 0.000000 -0.187500
v 0.093750 0.000000 0.187500
v -0.093750 0.000000 -0.187500
v 0.093750 0.000000 -0.187500
v 0.093750 0.000000 -0.187500
v -0.093750 0.000000 -0.187500
v 0.093750 0.000000 0.187500
v -0.093750 0.000000 0.187500
v -0.093750 0.000000 -0.187500
v 0.093750 0.000000 0.187500
v 0.093750 0.000000 0.187500
v 0.093750 0.062500 0.250000
v 0.093750 0.437500 0.250000
v -0.093750 0.437500 0.250000
v 0.093750 0.062500 0.250000
v 0.093750 0.437500 0.250000
v 0.093750 0.437500 0.250000
v 0.093750 0.062500 0.250000
v -0.093750 0.437500 0.250000
v -0.093750 0.062500 0.250000
v 0.093750 0.062500 0.250000
v -0.093750 0.437500 0.250000
v -0.093750 0.437500 0.250000
v -0.093750 0.437500 -0.250000
v 0.093750 0.437500 -0.250000
v 0.093750 0.062500 -0.250000
v -0.093750 0.437500 -0.250000
v 0.093750 0.437500 -0.250000
v 0.093750 0.437500 -0.250000
v -0.093750 0.437500 -0.250000
v 0.093750 0.062500 -0.250000
v -0.093750 0.062500 -0.250000
v -0.093750 0.437500 -0.250000
v 0.093750 0.062500 -0.250000
v 0.093750 0.062500 -0.250000
v 0.093750 0.500000 -0.187500
v 0.093750 0.500000 0.187500
v 0.125000 0.437500 0.187500
v 0.093750 0.500000 -0.187500
v 0.093750 0.500000 0.187500
v 0.093750 0.500000 0.187500
v 0.093750 0.500000 -0.187500
v 0.125000 0.437500 0.187500
v 0.125000 0.437500 -0.187500
v 0.093750 0.500000 -0.187500
v 0.125000 0.437500 0.187500
v 0.125000 0.437500 0.187500
v -0.125000 0.437500 0.187500
v -0.093750 0.500000 0.187500
v -0.093750 0.500000 -0.187500
v -0.125000 0.437500 0.187500
v -0.093750 0.500000 0.187500
v -0.093750 0.500000 0.187500
v -0.125000 0.437500 0.187500
v -0.093750 0.500000 -0.187500
v -0.125000 0.437500 -0.187500
v -0.125000 0.437500 0.187500
v -0.093750 0.500000 -0.187500
v -0.093750 0.500000 -0.187500
v 0.093750 0.437500 0.250000
v 0.093750 0.500000 0.187500
v -0.093750 0.500000 0.187500
v 0.093750 0.437500 0.250000
v 0.093750 0.500000 0.187500
v 0.093750 0.500000 0.187500
v 0.093750 0.437500 0.250000
v -0.093750 0.500000 0.187500
v -0.093750 0.437500 0.250000
v 0.093750 0.437500 0.250000
v -0.093750 0.500000 0.187500
v -0.093750 0.500000 0.187500
v -0.093750 0.500000 -0.187500
v 0.093750 0.500000 -0.187500
v 0.093750 0.437500 -0.250000
v -0.093750 0.500000 -0.187500
v 0.093750 0.500000 -0.187500
v 0.093750 0.500000 -0.187500
v -0.093750 0.500000 -0.187500
v 0.093750 0.437500 -0.250000
v -0.093750 0.437500 -0.250000
v -0.093750 0.500000 -0.187500
v 0.093750 0.437500 -0.250000
v 0.093750 0.437500 -0.250000
v 0.125000 0.062500 0.187500
v 0.093750 0.000000 0.187500
v 0.093750 0.000000 -0.187500
v 0.125000 0.062500 0.187500
v 0.093750 0.000000 0.187500
v 0.093750 0.000000 0.187500
v 0.125000 0.062500 0.187500
v 0.093750 0.000000 -0.187500
v 0.125000 0.062500 -0.187500
v 0.125000 0.062500 0.187500
v 0.093750 0.000000 -0.187500
v 0.093750 0.000000 -0.187500
v -0.093750 0.000000 -0.187500
v -0.093750 0.000000 0.187500
v -0.125000 0.062500 0.187500
v -0.093750 0.000000 -0.187500
v -0.093750 0.000000 0.187500
v -0.093750 0.000000 0.187500
v -0.093750 0.000000 -0.187500
v -0.125000 0.062500 0.187500
v -0.125000 0.062500 -0.187500
v -0.093750 0.000000 -0.187500
v -0.125000 0.062500 0.187500
v -0.125000 0.062500 0.187500
v -0.093750 0.000000 0.187500
v 0.093750 0.000000 0.187500
v 0.093750 0.062500 0.250000
v -0.093750 0.000000 0.187500
v 0.093750 0.000000 0.187500
v 0.093750 0.000000 0.187500
v -0.093750 0.000000 0.187500
v 0.093750 0.062500 0.250000
v -0.093750 0.062500 0.250000
v -0.093750 0.000000 0.187500
v 0.093750 0.062500 0.250000
v 0.093750 0.062500 0.250000
v 0.093750 0.062500 -0.250000
v 0.093750 0.000000 -0.187500
v -0.093750 0.000000 -0.187500
v 0.093750 0.062500 -0.250000
v 0.093750 0.000000 -0.187500
v 0.093750 0.000000 -0.187500
v 0.093750 0.062500 -0.250000
v -0.093750 0.000000 -0.187500
v -0.093750 0.062500 -0.250000
v 0.093750 0.062500 -0.250000
v -0.093750 0.000000 -0.187500
v -0.093750 0.000000 -0.187500
v 0.125000 0.062500 -0.187500
v 0.093750 0.062500 -0.250000
v 0.093750 0.437500 -0.250000
v 0.125000 0.062500 -0.187500
v 0.093750 0.062500 -0.250000
v 0.093750 0.062500 -0.250000
v 0.125000 0.062500 -0.187500
v 0.093750 0.437500 -0.250000
v 0.125000 0.437500 -0.187500
v 0.125000 0.062500 -0.187500
v 0.093750 0.437500 -0.250000
v 0.093750 0.437500 -0.250000
v 0.093750 0.437500 0.250000
v 0.093750 0.062500 0.250000
v 0.125000 0.062500 0.187500
v 0.093750 0.437500 0.250000
v 0.093750 0.062500 0.250000
v 0.093750 0.062500 0.250000
v 0.093750 0.437500 0.250000
v 0.125000 0.062500 0.187500
v 0.125000 0.437500 0.187500
v 0.093750 0.437500 0.250000
v 0.125000 0.062500 0.187500
v 0.125000 0.062500 0.187500
v -0.093750 0.437500 -0.250000
v -0.093750 0.062500 -0.250000
v -0.125000 0.062500 -0.187500
v -0.093750 0.437500 -0.250000
v -0.093750 0.062500 -0.250000
v -0.093750 0.062500 -0.250000
v -0.093750 0.437500 -0.250000
v -0.125000 0.062500 -0.187500
v -0.125000 0.437500 -0.187500
v -0.093750 0.437500 -0.250000
v -0.125000 0.062500 -0.187500
v -0.125000 0.062500 -0.187500
v -0.125000 0.062500 0.187500
v -0.093750 0.062500 0.250000
v -0.093750 0.437500 0.250000
v -0.125000 0.062500 0.187500
v -0.093750 0.062500 0.250000
v -0.093750 0.062500 0.250000
v -0.125000 0.062500 0.187500
v -0.093750 0.437500 0.250000
v -0.125000 0.437500 0.187500
v -0.125000 0.062500 0.187500
v -0.093750 0.437500 0.250000
v -0.093750 0.437500 0.250000
v 0.093750 0.000000 0.187500
v 0.125000 0.062500 0.187500
v 0.093750 0.062500 0.250000
v 0.093750 0.000000 0.187500
v 0.125000 0.062500 0.187500
v 0.125000 0.062500 0.187500
v -0.093750 0.000000 0.187500
v -0.093750 0.062500 0.250000
v -0.125000 0.062500 0.187500
v -0.093750 0.000000 0.187500
v -0.093750 0.062500 0.250000
v -0.093750 0.062500 0.250000
v 0.093750 0.000000 -0.187500
v 0.093750 0.062500 -0.250000
v 0.125000 0.062500 -0.187500
v 0.093750 0.000000 -0.187500
v 0.093750 0.062500 -0.250000
v 0.093750 0.062500 -0.250000
v -0.093750 0.000000 -0.187500
v -0.125000 0.062500 -0.187500
v -0.093750 0.062500 -0.250000
v -0.093750 0.000000 -0.187500
v -0.125000 0.062500 -0.187500
v -0.125000 0.062500 -0.187500
v 0.093750 0.500000 0.187500
v 0.093750 0.437500 0.250000
v 0.125000 0.437500 0.187500
v 0.093750 0.500000 0.187500
v 0.093750 0.437500 0.250000
v 0.093750 0.437500 0.250000
v -0.093750 0.500000 0.187500
v -0.125000 0.437500 0.187500
v -0.093750 0.437500 0.250000
v -0.093750 0.500000 0.187500
v -0.125000 0.437500 0.187500
v -0.125000 0.437500 0.187500
v 0.093750 0.500000 -0.187500
v 0.125000 0.437500 -0.187500
v 0.093750 0.437500 -0.250000
v 0.093750 0.500000 -0.187500
v 0.125000 0.437500 -0.187500
v 0.125000 0.437500 -0.187500
v -0.093750 0.500000 -0.187500
v -0.093750 0.437500 -0.250000
v -0.125000 0.437500 -0.187500
v -0.093750 0.500000 -0.187500
v -0.093750 0.437500 -0.250000
v -0.093750 0.437500 -0.250000
vn 1.0000 -0.0000 -0.0000
vn -0.0000 -1.0000 -0.0000
vn -0.0000 1.0000 -0.0000
vn 1.0000 0.0001 -0.0000
vn -1.0000 -0.0000 -0.0000
vn -0.0000 -0.0000 -0.0000
vn 1.0000 -0.0000 0.0001
vn -0.0000 -0.0000 1.0000
vn 1.0000 -0.0000 -0.0001
vn -0.0000 -0.0000 -1.0000
vn 1.0000 -0.0001 -0.0000
vn 0.8944 0.4472 -0.0000
vn -0.8944 0.4472 -0.0000
vn -0.0000 0.7071 0.7071
vn -0.0000 0.7071 -0.7071
vn 0.8944 -0.4472 -0.0000
vn -0.8944 -0.4472 -0.0000
vn -0.0000 -0.7071 0.7071
vn -0.0000 -0.7071 -0.7071
vn 0.8944 -0.0000 -0.4472
vn 1.0000 -0.0001 0.0001
vn 0.8944 -0.0000 0.4472
vn -0.8944 -0.0000 -0.4472
vn 1.0000 -0.0001 -0.0001
vn -0.8944 -0.0000 0.4472
vn 0.8165 -0.4082 0.4082
vn -0.8165 -0.4082 0.4082
vn 0.8165 -0.4082 -0.4082
vn -0.8165 -0.4082 -0.4082
vn 0.8165 0.4082 0.4082
vn -0.8165 0.4082 0.4082
vn 0.8165 0.4082 -0.4082
vn -0.8165 0.4082 -0.4082
vt 0.234375 0.965062
vt 0.046875 0.965062
vt 0.046875 0.777562
vt 0.234375 0.777562
vt 0.515625 0.496312
vt 0.515625 0.683812
vt 0.328125 0.683812
vt 0.328125 0.496312
vt 0.093750 0.500000
vt 0.093750 0.687500
vt 0.000000 0.687500
vt 0.000000 0.500000
vt 0.312500 0.812500
vt 0.406250 0.812500
vt 0.406250 1.000000
vt 0.312500 1.000000
vt 0.218750 0.500000
vt 0.218750 0.687500
vt 0.125000 0.687500
vt 0.125000 0.500000
vt 0.531250 1.000000
vt 0.437500 1.000000
vt 0.437500 0.812500
vt 0.531250 0.812500
vt 0.234375 1.000000
vt 0.046875 1.000000
vt 0.515625 0.718750
vt 0.328125 0.718750
vt 0.406250 0.750000
vt 0.406250 0.781250
vt 0.312500 0.781250
vt 0.312500 0.750000
vt 0.531250 0.781250
vt 0.437500 0.781250
vt 0.437500 0.750000
vt 0.531250 0.750000
vt 0.046875 0.742622
vt 0.234375 0.742622
vt 0.328125 0.461372
vt 0.515625 0.461372
vt 0.000000 0.437500
vt 0.093750 0.437500
vt 0.093750 0.468750
vt 0.000000 0.468750
vt 0.125000 0.468750
vt 0.125000 0.437500
vt 0.218750 0.437500
vt 0.218750 0.468750
vt 0.269313 0.777562
vt 0.269313 0.965062
vt 0.011937 0.965062
vt 0.011937 0.777562
vt 0.293187 0.683812
vt 0.293187 0.496312
vt 0.550563 0.496312
vt 0.550563 0.683812
vt 0.046875 0.777562
vt 0.012643 0.770575
vt 0.522613 0.462078
vt 0.268607 0.770575
vt 0.234375 0.777562
vt 0.321137 0.462078
vt 0.012643 0.972050
vt 0.046875 0.965063
vt 0.522613 0.718044
vt 0.234375 0.965063
vt 0.268607 0.972050
vt 0.321137 0.718044
s 0
usemtl JStore_purple
f 1/1/1 2/2/1 3/3/1
s 1
f 4/1/1 5/1/2 6/2/1
s 0
f 7/1/1 8/3/1 9/4/1
s 1
f 10/1/1 11/1/3 12/3/4
s 0
f 13/5/5 14/6/5 15/7/5
s 1
f 16/5/6 17/5/6 18/6/6
s 0
f 19/5/5 20/7/5 21/8/5
s 1
f 22/5/1 23/5/2 24/7/1
s 0
f 25/9/3 26/10/3 27/11/3
s 1
f 28/9/1 29/9/2 30/10/1
s 0
f 31/9/3 32/11/3 33/12/3
s 1
f 34/9/7 35/9/2 36/11/1
s 0
f 37/13/2 38/14/2 39/15/2
s 1
f 40/13/1 41/13/2 42/14/1
s 0
f 43/13/2 44/15/2 45/16/2
s 1
f 46/13/1 47/13/2 48/15/1
s 0
f 49/17/8 50/18/8 51/19/8
s 1
f 52/17/6 53/17/6 54/18/6
s 0
f 55/17/8 56/19/8 57/20/8
s 1
f 58/17/9 59/17/3 60/19/1
s 0
f 61/21/10 62/22/10 63/23/10
s 1
f 64/21/1 65/21/2 66/22/1
s 0
f 67/21/10 68/23/10 69/24/10
s 1
f 70/21/1 71/21/2 72/23/11
s 0
f 73/25/12 74/26/12 75/2/12
s 1
f 76/25/1 77/25/2 78/26/1
s 0
f 79/25/12 80/2/12 81/1/12
s 1
f 82/25/1 83/25/3 84/2/9
s 0
f 85/6/13 86/27/13 87/28/13
s 1
f 88/6/1 89/6/3 90/27/1
s 0
f 91/6/13 92/28/13 93/7/13
s 1
f 94/6/1 95/6/2 96/28/1
s 0
f 97/29/14 98/30/14 99/31/14
s 1
f 100/29/1 101/29/2 102/30/1
s 0
f 103/29/14 104/31/14 105/32/14
s 1
f 106/29/7 107/29/2 108/31/1
s 0
f 109/33/15 110/34/15 111/35/15
s 1
f 112/33/1 113/33/2 114/34/1
s 0
f 115/33/15 116/35/15 117/36/15
s 1
f 118/33/1 119/33/3 120/35/4
s 0
f 121/3/16 122/37/16 123/38/16
s 1
f 124/3/9 125/3/2 126/37/11
s 0
f 127/3/16 128/38/16 129/4/16
s 1
f 130/3/9 131/3/3 132/38/9
s 0
f 133/39/17 134/40/17 135/5/17
s 1
f 136/39/1 137/39/2 138/40/1
s 0
f 139/39/17 140/5/17 141/8/17
s 1
f 142/39/7 143/39/2 144/5/7
s 0
f 145/41/18 146/42/18 147/43/18
s 1
f 148/41/1 149/41/2 150/42/1
s 0
f 151/41/18 152/43/18 153/44/18
s 1
f 154/41/1 155/41/2 156/43/7
s 0
f 157/45/19 158/46/19 159/47/19
s 1
f 160/45/1 161/45/3 162/46/4
s 0
f 163/45/19 164/47/19 165/48/19
s 1
f 166/45/9 167/45/3 168/47/4
s 0
f 169/4/20 170/49/20 171/50/20
s 1
f 172/4/7 173/4/2 174/49/1
s 0
f 175/4/20 176/50/20 177/1/20
s 1
f 178/4/21 179/4/3 180/50/1
s 0
f 181/51/22 182/52/22 183/3/22
s 1
f 184/51/6 185/51/6 186/52/6
s 0
f 187/51/22 188/3/22 189/2/22
s 1
f 190/51/1 191/51/2 192/3/11
s 0
f 193/53/23 194/54/23 195/8/23
s 1
f 196/53/6 197/53/6 198/54/6
s 0
f 199/53/23 200/8/23 201/7/23
s 1
f 202/53/9 203/53/2 204/8/24
s 0
f 205/5/25 206/55/25 207/56/25
s 1
f 208/5/1 209/5/2 210/55/1
s 0
f 211/5/25 212/56/25 213/6/25
s 1
f 214/5/11 215/5/3 216/56/1
s 0
f 217/37/26 218/57/26 219/58/26
s 1
f 220/37/1 221/37/3 222/57/1
s 0
f 223/59/27 224/55/27 225/5/27
s 1
f 226/59/1 227/59/2 228/55/1
s 0
f 229/38/28 230/60/28 231/61/28
s 1
f 232/38/1 233/38/2 234/60/1
s 0
f 235/62/29 236/8/29 237/54/29
s 1
f 238/62/9 239/62/3 240/8/1
s 0
f 241/26/30 242/63/30 243/64/30
s 1
f 244/26/1 245/26/3 246/63/4
s 0
f 247/65/31 248/6/31 249/56/31
s 1
f 250/65/9 251/65/2 252/6/11
s 0
f 253/25/32 254/66/32 255/67/32
s 1
f 256/25/1 257/25/2 258/66/11
s 0
f 259/68/33 260/53/33 261/7/33
s 1
f 262/68/1 263/68/3 264/53/4
