# Blender 5.1.1
# www.blender.org
mtllib Kiosk.mtl
o Kiosk
v -0.350000 0.000000 0.275000
v -0.350000 0.900000 0.275000
v -0.350000 0.000000 -0.275000
v -0.350000 0.900000 -0.275000
v 0.350000 0.000000 0.275000
v 0.350000 0.900000 0.275000
v 0.350000 0.000000 -0.275000
v 0.350000 0.900000 -0.275000
v -0.310000 0.900000 0.150000
v -0.310000 1.140000 0.150000
v -0.310000 0.900000 -0.250000
v -0.310000 1.140000 -0.250000
v 0.310000 0.900000 0.150000
v 0.310000 1.140000 0.150000
v 0.310000 0.900000 -0.250000
v 0.310000 1.140000 -0.250000
v -0.290000 1.040000 0.210000
v -0.290000 1.440000 0.210000
v -0.290000 1.040000 0.110000
v -0.290000 1.440000 0.110000
v 0.290000 1.040000 0.210000
v 0.290000 1.440000 0.210000
v 0.290000 1.040000 0.110000
v 0.290000 1.440000 0.110000
v -0.240000 1.090000 0.221000
v -0.240000 1.390000 0.221000
v -0.240000 1.090000 0.209000
v -0.240000 1.390000 0.209000
v 0.240000 1.090000 0.221000
v 0.240000 1.390000 0.221000
v 0.240000 1.090000 0.209000
v 0.240000 1.390000 0.209000
v -0.280000 0.895000 0.410000
v -0.280000 0.945000 0.410000
v -0.280000 0.895000 0.250000
v -0.280000 0.945000 0.250000
v 0.280000 0.895000 0.410000
v 0.280000 0.945000 0.410000
v 0.280000 0.895000 0.250000
v 0.280000 0.945000 0.250000
vn -0.0000 1.0000 -0.0000
vn -0.0000 -1.0000 -0.0000
vn 1.0000 -0.0000 -0.0000
vn -1.0000 -0.0000 -0.0000
vn -0.0000 -0.0000 -1.0000
vn -0.0000 -0.0000 1.0000
vt 0.156250 0.382812
vt 0.328125 0.382812
vt 0.328125 0.523438
vt 0.156250 0.523438
vt 0.156250 0.015625
vt 0.328125 0.015625
vt 0.328125 0.156250
vt 0.156250 0.156250
vt 0.468750 0.156250
vt 0.468750 0.382812
vt 0.015625 0.156250
vt 0.015625 0.382812
vt 0.640625 0.156250
vt 0.640625 0.382812
vt 0.117188 0.703125
vt 0.273438 0.703125
vt 0.273438 0.804688
vt 0.117188 0.804688
vt 0.117188 0.539062
vt 0.273438 0.539062
vt 0.273438 0.640625
vt 0.117188 0.640625
vt 0.375000 0.640625
vt 0.375000 0.703125
vt 0.015625 0.640625
vt 0.015625 0.703125
vt 0.531250 0.640625
vt 0.531250 0.703125
vt 0.570312 0.664062
vt 0.718750 0.664062
vt 0.718750 0.687500
vt 0.570312 0.687500
vt 0.570312 0.539062
vt 0.718750 0.539062
vt 0.718750 0.562500
vt 0.570312 0.562500
vt 0.742188 0.562500
vt 0.742188 0.664062
vt 0.546875 0.562500
vt 0.546875 0.664062
vt 0.890625 0.562500
vt 0.890625 0.664062
vt 0.023438 0.828125
vt 0.023438 0.906250
vt 0.140625 0.906250
vt 0.140625 0.828125
vt 0.320312 0.875000
vt 0.460938 0.875000
vt 0.460938 0.914062
vt 0.320312 0.914062
vt 0.320312 0.820312
vt 0.460938 0.820312
vt 0.460938 0.859375
vt 0.320312 0.859375
vt 0.500000 0.859375
vt 0.500000 0.875000
vt 0.281250 0.859375
vt 0.281250 0.875000
vt 0.640625 0.859375
vt 0.640625 0.875000
s 0
usemtl KioskTex
f 2/1/1 6/2/1 8/3/1 4/4/1
f 3/5/2 7/6/2 5/7/2 1/8/2
f 5/7/3 7/9/3 8/10/3 6/2/3
f 3/11/4 1/8/4 2/1/4 4/12/4
f 7/9/5 3/13/5 4/14/5 8/10/5
f 1/8/6 5/7/6 6/2/6 2/1/6
f 10/15/1 14/16/1 16/17/1 12/18/1
f 11/19/2 15/20/2 13/21/2 9/22/2
f 13/21/3 15/23/3 16/24/3 14/16/3
f 11/25/4 9/22/4 10/15/4 12/26/4
f 15/23/5 11/27/5 12/28/5 16/24/5
f 9/22/6 13/21/6 14/16/6 10/15/6
f 18/29/1 22/30/1 24/31/1 20/32/1
f 19/33/2 23/34/2 21/35/2 17/36/2
f 21/35/3 23/37/3 24/38/3 22/30/3
f 19/39/4 17/36/4 18/29/4 20/40/4
f 23/37/5 19/41/5 20/42/5 24/38/5
f 17/36/6 21/35/6 22/30/6 18/29/6
f 25/43/5 26/44/5 30/45/5 29/46/5
f 34/47/1 38/48/1 40/49/1 36/50/1
f 35/51/2 39/52/2 37/53/2 33/54/2
f 37/53/3 39/55/3 40/56/3 38/48/3
f 35/57/4 33/54/4 34/47/4 36/58/4
f 39/55/5 35/59/5 36/60/5 40/56/5
f 33/54/6 37/53/6 38/48/6 34/47/6
