# Blender 5.1.1
# www.blender.org
mtllib LogbookHousing.mtl
o LogbookHousing
v -0.275000 -0.500000 0.200000
v -0.275000 0.500000 0.200000
v -0.275000 -0.500000 -0.200000
v -0.275000 0.500000 -0.200000
v 0.275000 -0.500000 0.200000
v 0.275000 0.500000 0.200000
v 0.275000 -0.500000 -0.200000
v 0.275000 0.500000 -0.200000
v -0.310000 0.500000 0.250000
v -0.310000 0.550000 0.250000
v -0.310000 0.500000 -0.250000
v -0.310000 0.550000 -0.250000
v 0.310000 0.500000 0.250000
v 0.310000 0.550000 0.250000
v 0.310000 0.500000 -0.250000
v 0.310000 0.550000 -0.250000
v -0.310000 -0.500000 0.270000
v -0.310000 -0.440000 0.270000
v -0.310000 -0.500000 -0.270000
v -0.310000 -0.440000 -0.270000
v 0.350000 -0.500000 0.270000
v 0.350000 -0.440000 0.270000
v 0.350000 -0.500000 -0.270000
v 0.350000 -0.440000 -0.270000
v 0.071228 0.559108 0.230000
v -0.058559 0.958551 0.230000
v 0.071228 0.559108 -0.230000
v -0.058559 0.958551 -0.230000
v 0.147313 0.583829 0.230000
v 0.017526 0.983273 0.230000
v 0.147313 0.583829 -0.230000
v 0.017526 0.983273 -0.230000
vn -0.0000 1.0000 -0.0000
vn -0.0000 -1.0000 -0.0000
vn 1.0000 -0.0000 -0.0000
vn -1.0000 -0.0000 -0.0000
vn -0.0000 -0.0000 -1.0000
vn -0.0000 -0.0000 1.0000
vn -0.3090 0.9511 -0.0000
vn 0.3090 -0.9511 -0.0000
vn 0.9511 0.3090 -0.0000
vn -0.9511 -0.3090 -0.0000
vt 0.058594 0.183594
vt 0.128906 0.183594
vt 0.128906 0.234375
vt 0.058594 0.234375
vt 0.058594 0.007812
vt 0.128906 0.007812
vt 0.128906 0.058594
vt 0.058594 0.058594
vt 0.179688 0.058594
vt 0.179688 0.183594
vt 0.007812 0.058594
vt 0.007812 0.183594
vt 0.250000 0.058594
vt 0.250000 0.183594
vt 0.773438 0.078125
vt 0.851562 0.078125
vt 0.851562 0.140625
vt 0.773438 0.140625
vt 0.773438 0.007812
vt 0.851562 0.007812
vt 0.851562 0.070312
vt 0.773438 0.070312
vt 0.914062 0.070312
vt 0.914062 0.078125
vt 0.710938 0.070312
vt 0.710938 0.078125
vt 0.992188 0.070312
vt 0.992188 0.078125
vt 0.472656 0.082031
vt 0.554688 0.082031
vt 0.554688 0.148438
vt 0.472656 0.148438
vt 0.472656 0.007812
vt 0.554688 0.007812
vt 0.554688 0.074219
vt 0.472656 0.074219
vt 0.621094 0.074219
vt 0.621094 0.082031
vt 0.406250 0.074219
vt 0.406250 0.082031
vt 0.703125 0.074219
vt 0.703125 0.082031
vt 0.316406 0.117188
vt 0.328125 0.117188
vt 0.328125 0.175781
vt 0.316406 0.175781
vt 0.316406 0.007812
vt 0.328125 0.007812
vt 0.328125 0.066406
vt 0.316406 0.066406
vt 0.386719 0.066406
vt 0.386719 0.117188
vt 0.257812 0.066406
vt 0.257812 0.117188
vt 0.398438 0.066406
vt 0.398438 0.117188
s 0
usemtl LogbookHousingTex
f 2/1/1 6/2/1 8/3/1 4/4/1
f 3/5/2 7/6/2 5/7/2 1/8/2
f 5/7/3 7/9/3 8/10/3 6/2/3
f 3/11/4 1/8/4 2/1/4 4/12/4
f 7/9/5 3/13/5 4/14/5 8/10/5
f 1/8/6 5/7/6 6/2/6 2/1/6
f 10/15/1 14/16/1 16/17/1 12/18/1
f 11/19/2 15/20/2 13/21/2 9/22/2
f 13/21/3 15/23/3 16/24/3 14/16/3
f 11/25/4 9/22/4 10/15/4 12/26/4
f 15/23/5 11/27/5 12/28/5 16/24/5
f 9/22/6 13/21/6 14/16/6 10/15/6
f 18/29/1 22/30/1 24/31/1 20/32/1
f 19/33/2 23/34/2 21/35/2 17/36/2
f 21/35/3 23/37/3 24/38/3 22/30/3
f 19/39/4 17/36/4 18/29/4 20/40/4
f 23/37/5 19/41/5 20/42/5 24/38/5
f 17/36/6 21/35/6 22/30/6 18/29/6
f 26/43/7 30/44/7 32/45/7 28/46/7
f 27/47/8 31/48/8 29/49/8 25/50/8
f 29/49/9 31/51/9 32/52/9 30/44/9
f 27/53/10 25/50/10 26/43/10 28/54/10
f 31/51/5 27/55/5 28/56/5 32/52/5
f 25/50/6 29/49/6 30/44/6 26/43/6
