# Blender 5.1.1
# www.blender.org
mtllib MonosRoom.mtl
o MonosRoomShell
v -3.500000 -0.120000 0.000000
v -3.500000 0.000000 0.000000
v -3.500000 -0.120000 -5.600000
v -3.500000 0.000000 -5.600000
v 3.500000 -0.120000 0.000000
v 3.500000 0.000000 0.000000
v 3.500000 -0.120000 -5.600000
v 3.500000 0.000000 -5.600000
v -3.500000 0.000000 -5.480000
v -3.500000 3.600000 -5.480000
v -3.500000 0.000000 -5.600000
v -3.500000 3.600000 -5.600000
v 3.500000 0.000000 -5.480000
v 3.500000 3.600000 -5.480000
v 3.500000 0.000000 -5.600000
v 3.500000 3.600000 -5.600000
v -3.500000 0.000000 0.000000
v -3.500000 3.600000 0.000000
v -3.500000 0.000000 -5.600000
v -3.500000 3.600000 -5.600000
v -3.380000 0.000000 0.000000
v -3.380000 3.600000 0.000000
v -3.380000 0.000000 -5.600000
v -3.380000 3.600000 -5.600000
v 3.380000 0.000000 0.000000
v 3.380000 3.600000 0.000000
v 3.380000 0.000000 -5.600000
v 3.380000 3.600000 -5.600000
v 3.500000 0.000000 0.000000
v 3.500000 3.600000 0.000000
v 3.500000 0.000000 -5.600000
v 3.500000 3.600000 -5.600000
v -3.500000 3.600000 0.000000
v -3.500000 3.720000 0.000000
v -3.500000 3.600000 -5.600000
v -3.500000 3.720000 -5.600000
v 3.500000 3.600000 0.000000
v 3.500000 3.720000 0.000000
v 3.500000 3.600000 -5.600000
v 3.500000 3.720000 -5.600000
v -3.380000 0.000000 -5.440000
v -3.380000 0.900000 -5.440000
v -3.380000 0.000000 -5.480000
v -3.380000 0.900000 -5.480000
v 3.380000 0.000000 -5.440000
v 3.380000 0.900000 -5.440000
v 3.380000 0.000000 -5.480000
v 3.380000 0.900000 -5.480000
v -1.300000 3.470000 -2.550000
v -1.300000 3.530000 -2.550000
v -1.300000 3.470000 -3.050000
v -1.300000 3.530000 -3.050000
v 1.300000 3.470000 -2.550000
v 1.300000 3.530000 -2.550000
v 1.300000 3.470000 -3.050000
v 1.300000 3.530000 -3.050000
vn -0.0000 1.0000 -0.0000
vn -0.0000 -1.0000 -0.0000
vn 1.0000 -0.0000 -0.0000
vn -1.0000 -0.0000 -0.0000
vn -0.0000 -0.0000 -1.0000
vn -0.0000 -0.0000 1.0000
vt 0.453125 0.091797
vt 0.562500 0.091797
vt 0.562500 0.179688
vt 0.453125 0.179688
vt 0.453125 0.001953
vt 0.562500 0.001953
vt 0.562500 0.089844
vt 0.453125 0.089844
vt 0.650391 0.089844
vt 0.650391 0.091797
vt 0.365234 0.089844
vt 0.365234 0.091797
vt 0.759766 0.089844
vt 0.759766 0.091797
vt 0.400391 0.294922
vt 0.509766 0.294922
vt 0.509766 0.296875
vt 0.400391 0.296875
vt 0.400391 0.236328
vt 0.509766 0.236328
vt 0.509766 0.238281
vt 0.400391 0.238281
vt 0.511719 0.238281
vt 0.511719 0.294922
vt 0.398438 0.238281
vt 0.398438 0.294922
vt 0.621094 0.238281
vt 0.621094 0.294922
vt 0.089844 0.146484
vt 0.091797 0.146484
vt 0.091797 0.234375
vt 0.089844 0.234375
vt 0.089844 0.001953
vt 0.091797 0.001953
vt 0.091797 0.089844
vt 0.089844 0.089844
vt 0.179688 0.089844
vt 0.179688 0.146484
vt 0.001953 0.089844
vt 0.001953 0.146484
vt 0.181641 0.089844
vt 0.181641 0.146484
vt 0.271484 0.146484
vt 0.273438 0.146484
vt 0.273438 0.234375
vt 0.271484 0.234375
vt 0.271484 0.001953
vt 0.273438 0.001953
vt 0.273438 0.089844
vt 0.271484 0.089844
vt 0.361328 0.089844
vt 0.361328 0.146484
vt 0.183594 0.089844
vt 0.183594 0.146484
vt 0.363281 0.089844
vt 0.363281 0.146484
vt 0.089844 0.326172
vt 0.199219 0.326172
vt 0.199219 0.414062
vt 0.089844 0.414062
vt 0.089844 0.236328
vt 0.199219 0.236328
vt 0.199219 0.324219
vt 0.089844 0.324219
vt 0.287109 0.324219
vt 0.287109 0.326172
vt 0.001953 0.324219
vt 0.001953 0.326172
vt 0.396484 0.324219
vt 0.396484 0.326172
vt 0.723633 0.237305
vt 0.829102 0.237305
vt 0.829102 0.250977
vt 0.723633 0.250977
vt 0.630859 0.245117
vt 0.671875 0.245117
vt 0.671875 0.252930
vt 0.630859 0.252930
vt 0.630859 0.236328
vt 0.671875 0.236328
vt 0.671875 0.244141
vt 0.630859 0.244141
vt 0.679688 0.244141
vt 0.679688 0.245117
vt 0.623047 0.244141
vt 0.623047 0.245117
vt 0.720703 0.244141
vt 0.720703 0.245117
s 0
usemtl MonosRoomShellTex
f 2/1/1 6/2/1 8/3/1 4/4/1
f 3/5/2 7/6/2 5/7/2 1/8/2
f 5/7/3 7/9/3 8/10/3 6/2/3
f 3/11/4 1/8/4 2/1/4 4/12/4
f 7/9/5 3/13/5 4/14/5 8/10/5
f 1/8/6 5/7/6 6/2/6 2/1/6
f 10/15/1 14/16/1 16/17/1 12/18/1
f 11/19/2 15/20/2 13/21/2 9/22/2
f 13/21/3 15/23/3 16/24/3 14/16/3
f 11/25/4 9/22/4 10/15/4 12/26/4
f 15/23/5 11/27/5 12/28/5 16/24/5
f 9/22/6 13/21/6 14/16/6 10/15/6
f 18/29/1 22/30/1 24/31/1 20/32/1
f 19/33/2 23/34/2 21/35/2 17/36/2
f 21/35/3 23/37/3 24/38/3 22/30/3
f 19/39/4 17/36/4 18/29/4 20/40/4
f 23/37/5 19/41/5 20/42/5 24/38/5
f 17/36/6 21/35/6 22/30/6 18/29/6
f 26/43/1 30/44/1 32/45/1 28/46/1
f 27/47/2 31/48/2 29/49/2 25/50/2
f 29/49/3 31/51/3 32/52/3 30/44/3
f 27/53/4 25/50/4 26/43/4 28/54/4
f 31/51/5 27/55/5 28/56/5 32/52/5
f 25/50/6 29/49/6 30/44/6 26/43/6
f 34/57/1 38/58/1 40/59/1 36/60/1
f 35/61/2 39/62/2 37/63/2 33/64/2
f 37/63/3 39/65/3 40/66/3 38/58/3
f 35/67/4 33/64/4 34/57/4 36/68/4
f 39/65/5 35/69/5 36/70/5 40/66/5
f 33/64/6 37/63/6 38/58/6 34/57/6
f 41/71/6 45/72/6 46/73/6 42/74/6
f 50/75/1 54/76/1 56/77/1 52/78/1
f 51/79/2 55/80/2 53/81/2 49/82/2
f 53/81/3 55/83/3 56/84/3 54/76/3
f 51/85/4 49/82/4 50/75/4 52/86/4
f 55/83/5 51/87/5 52/88/5 56/84/5
f 49/82/6 53/81/6 54/76/6 50/75/6
o MonosPortal
v 1.500000 2.100000 -5.430000
v 1.448889 2.488229 -5.430000
v 1.299038 2.850000 -5.430000
v 1.060660 3.160660 -5.430000
v 0.750000 3.399038 -5.430000
v 0.388229 3.548889 -5.430000
v 0.000000 3.600000 -5.430000
v -0.388229 3.548889 -5.430000
v -0.750000 3.399038 -5.430000
v -1.060660 3.160660 -5.430000
v -1.299038 2.850000 -5.430000
v -1.448889 2.488229 -5.430000
v -1.500000 2.100000 -5.430000
v -1.448889 1.711771 -5.430000
v -1.299038 1.350000 -5.430000
v -1.060660 1.039340 -5.430000
v -0.750000 0.800962 -5.430000
v -0.388229 0.651111 -5.430000
v -0.000000 0.600000 -5.430000
v 0.388229 0.651111 -5.430000
v 0.750000 0.800962 -5.430000
v 1.060660 1.039340 -5.430000
v 1.299038 1.350000 -5.430000
v 1.448889 1.711771 -5.430000
v 1.500000 2.100000 -5.610000
v 1.448889 2.488229 -5.610000
v 1.299038 2.850000 -5.610000
v 1.060660 3.160660 -5.610000
v 0.750000 3.399038 -5.610000
v 0.388229 3.548889 -5.610000
v 0.000000 3.600000 -5.610000
v -0.388229 3.548889 -5.610000
v -0.750000 3.399038 -5.610000
v -1.060660 3.160660 -5.610000
v -1.299038 2.850000 -5.610000
v -1.448889 2.488229 -5.610000
v -1.500000 2.100000 -5.610000
v -1.448889 1.711771 -5.610000
v -1.299038 1.350000 -5.610000
v -1.060660 1.039340 -5.610000
v -0.750000 0.800962 -5.610000
v -0.388229 0.651111 -5.610000
v -0.000000 0.600000 -5.610000
v 0.388229 0.651111 -5.610000
v 0.750000 0.800962 -5.610000
v 1.060660 1.039340 -5.610000
v 1.299038 1.350000 -5.610000
v 1.448889 1.711771 -5.610000
v 1.170000 2.100000 -5.430000
v 1.130133 2.402818 -5.430000
v 1.013250 2.685000 -5.430000
v 0.827315 2.927315 -5.430000
v 0.585000 3.113250 -5.430000
v 0.302818 3.230133 -5.430000
v 0.000000 3.270000 -5.430000
v -0.302818 3.230133 -5.430000
v -0.585000 3.113250 -5.430000
v -0.827315 2.927315 -5.430000
v -1.013250 2.685000 -5.430000
v -1.130133 2.402818 -5.430000
v -1.170000 2.100000 -5.430000
v -1.130133 1.797182 -5.430000
v -1.013250 1.515000 -5.430000
v -0.827315 1.272685 -5.430000
v -0.585000 1.086750 -5.430000
v -0.302818 0.969867 -5.430000
v -0.000000 0.930000 -5.430000
v 0.302818 0.969867 -5.430000
v 0.585000 1.086750 -5.430000
v 0.827315 1.272685 -5.430000
v 1.013250 1.515000 -5.430000
v 1.130133 1.797182 -5.430000
v 1.170000 2.100000 -5.610000
v 1.130133 2.402818 -5.610000
v 1.013250 2.685000 -5.610000
v 0.827315 2.927315 -5.610000
v 0.585000 3.113250 -5.610000
v 0.302818 3.230133 -5.610000
v 0.000000 3.270000 -5.610000
v -0.302818 3.230133 -5.610000
v -0.585000 3.113250 -5.610000
v -0.827315 2.927315 -5.610000
v -1.013250 2.685000 -5.610000
v -1.130133 2.402818 -5.610000
v -1.170000 2.100000 -5.610000
v -1.130133 1.797182 -5.610000
v -1.013250 1.515000 -5.610000
v -0.827315 1.272685 -5.610000
v -0.585000 1.086750 -5.610000
v -0.302818 0.969867 -5.610000
v -0.000000 0.930000 -5.610000
v 0.302818 0.969867 -5.610000
v 0.585000 1.086750 -5.610000
v 0.827315 1.272685 -5.610000
v 1.013250 1.515000 -5.610000
v 1.130133 1.797182 -5.610000
v 1.170000 2.100000 -5.430000
v 1.130133 2.402818 -5.430000
v 1.013250 2.685000 -5.430000
v 0.827315 2.927315 -5.430000
v 0.585000 3.113250 -5.430000
v 0.302818 3.230133 -5.430000
v 0.000000 3.270000 -5.430000
v -0.302818 3.230133 -5.430000
v -0.585000 3.113250 -5.430000
v -0.827315 2.927315 -5.430000
v -1.013250 2.685000 -5.430000
v -1.130133 2.402818 -5.430000
v -1.170000 2.100000 -5.430000
v -1.130133 1.797182 -5.430000
v -1.013250 1.515000 -5.430000
v -0.827315 1.272685 -5.430000
v -0.585000 1.086750 -5.430000
v -0.302818 0.969867 -5.430000
v -0.000000 0.930000 -5.430000
v 0.302818 0.969867 -5.430000
v 0.585000 1.086750 -5.430000
v 0.827315 1.272685 -5.430000
v 1.013250 1.515000 -5.430000
v 1.130133 1.797182 -5.430000
v 1.170000 2.100000 -5.490000
v 1.130133 2.402818 -5.490000
v 1.013250 2.685000 -5.490000
v 0.827315 2.927315 -5.490000
v 0.585000 3.113250 -5.490000
v 0.302818 3.230133 -5.490000
v 0.000000 3.270000 -5.490000
v -0.302818 3.230133 -5.490000
v -0.585000 3.113250 -5.490000
v -0.827315 2.927315 -5.490000
v -1.013250 2.685000 -5.490000
v -1.130133 2.402818 -5.490000
v -1.170000 2.100000 -5.490000
v -1.130133 1.797182 -5.490000
v -1.013250 1.515000 -5.490000
v -0.827315 1.272685 -5.490000
v -0.585000 1.086750 -5.490000
v -0.302818 0.969867 -5.490000
v -0.000000 0.930000 -5.490000
v 0.302818 0.969867 -5.490000
v 0.585000 1.086750 -5.490000
v 0.827315 1.272685 -5.490000
v 1.013250 1.515000 -5.490000
v 1.130133 1.797182 -5.490000
v 1.020000 2.100000 -5.430000
v 0.985244 2.363995 -5.430000
v 0.883346 2.610000 -5.430000
v 0.721249 2.821249 -5.430000
v 0.510000 2.983346 -5.430000
v 0.263995 3.085244 -5.430000
v 0.000000 3.120000 -5.430000
v -0.263995 3.085244 -5.430000
v -0.510000 2.983346 -5.430000
v -0.721249 2.821249 -5.430000
v -0.883346 2.610000 -5.430000
v -0.985244 2.363995 -5.430000
v -1.020000 2.100000 -5.430000
v -0.985244 1.836004 -5.430000
v -0.883346 1.590000 -5.430000
v -0.721249 1.378751 -5.430000
v -0.510000 1.216654 -5.430000
v -0.263995 1.114756 -5.430000
v -0.000000 1.080000 -5.430000
v 0.263995 1.114756 -5.430000
v 0.510000 1.216654 -5.430000
v 0.721249 1.378751 -5.430000
v 0.883346 1.590000 -5.430000
v 0.985244 1.836004 -5.430000
v 1.020000 2.100000 -5.490000
v 0.985244 2.363995 -5.490000
v 0.883346 2.610000 -5.490000
v 0.721249 2.821249 -5.490000
v 0.510000 2.983346 -5.490000
v 0.263995 3.085244 -5.490000
v 0.000000 3.120000 -5.490000
v -0.263995 3.085244 -5.490000
v -0.510000 2.983346 -5.490000
v -0.721249 2.821249 -5.490000
v -0.883346 2.610000 -5.490000
v -0.985244 2.363995 -5.490000
v -1.020000 2.100000 -5.490000
v -0.985244 1.836004 -5.490000
v -0.883346 1.590000 -5.490000
v -0.721249 1.378751 -5.490000
v -0.510000 1.216654 -5.490000
v -0.263995 1.114756 -5.490000
v -0.000000 1.080000 -5.490000
v 0.263995 1.114756 -5.490000
v 0.510000 1.216654 -5.490000
v 0.721249 1.378751 -5.490000
v 0.883346 1.590000 -5.490000
v 0.985244 1.836004 -5.490000
v 1.140000 2.100000 -5.480000
v 1.101155 2.395054 -5.480000
v 0.987269 2.670000 -5.480000
v 0.806102 2.906102 -5.480000
v 0.570000 3.087269 -5.480000
v 0.295054 3.201155 -5.480000
v 0.000000 3.240000 -5.480000
v -0.295054 3.201155 -5.480000
v -0.570000 3.087269 -5.480000
v -0.806102 2.906102 -5.480000
v -0.987269 2.670000 -5.480000
v -1.101155 2.395054 -5.480000
v -1.140000 2.100000 -5.480000
v -1.101155 1.804946 -5.480000
v -0.987269 1.530000 -5.480000
v -0.806102 1.293898 -5.480000
v -0.570000 1.112731 -5.480000
v -0.295054 0.998845 -5.480000
v -0.000000 0.960000 -5.480000
v 0.295054 0.998845 -5.480000
v 0.570000 1.112731 -5.480000
v 0.806102 1.293898 -5.480000
v 0.987269 1.530000 -5.480000
v 1.101155 1.804946 -5.480000
vn 0.9914 0.1305 -0.0000
vn -0.9914 -0.1305 -0.0000
vn -0.0000 -0.0000 1.0000
vn -0.0000 -0.0000 -1.0000
vn 0.9239 0.3827 -0.0000
vn -0.9239 -0.3827 -0.0000
vn 0.7934 0.6088 -0.0000
vn -0.7934 -0.6088 -0.0000
vn 0.6088 0.7934 -0.0000
vn -0.6088 -0.7934 -0.0000
vn 0.3827 0.9239 -0.0000
vn -0.3827 -0.9239 -0.0000
vn 0.1305 0.9914 -0.0000
vn -0.1305 -0.9914 -0.0000
vn -0.1305 0.9914 -0.0000
vn 0.1305 -0.9914 -0.0000
vn -0.3827 0.9239 -0.0000
vn 0.3827 -0.9239 -0.0000
vn -0.6088 0.7934 -0.0000
vn 0.6088 -0.7934 -0.0000
vn -0.7934 0.6088 -0.0000
vn 0.7934 -0.6088 -0.0000
vn -0.9239 0.3827 -0.0000
vn 0.9239 -0.3827 -0.0000
vn -0.9914 0.1305 -0.0000
vn 0.9914 -0.1305 -0.0000
vt 0.156250 0.007812
vt 0.156250 0.019531
vt 0.179688 0.019531
vt 0.179688 0.007812
vt 0.156250 0.027344
vt 0.156250 0.039062
vt 0.175781 0.039062
vt 0.175781 0.027344
vt 0.156250 0.046875
vt 0.156250 0.066406
vt 0.179688 0.066406
vt 0.179688 0.046875
vt 0.156250 0.074219
vt 0.156250 0.093750
vt 0.179688 0.093750
vt 0.179688 0.074219
vt 0.203125 0.019531
vt 0.203125 0.007812
vt 0.195312 0.039062
vt 0.195312 0.027344
vt 0.203125 0.066406
vt 0.203125 0.046875
vt 0.203125 0.093750
vt 0.203125 0.074219
vt 0.226562 0.019531
vt 0.226562 0.007812
vt 0.214844 0.039062
vt 0.214844 0.027344
vt 0.226562 0.066406
vt 0.226562 0.046875
vt 0.226562 0.093750
vt 0.226562 0.074219
vt 0.250000 0.019531
vt 0.250000 0.007812
vt 0.234375 0.039062
vt 0.234375 0.027344
vt 0.250000 0.066406
vt 0.250000 0.046875
vt 0.250000 0.093750
vt 0.250000 0.074219
vt 0.273438 0.019531
vt 0.273438 0.007812
vt 0.253906 0.039062
vt 0.253906 0.027344
vt 0.273438 0.066406
vt 0.273438 0.046875
vt 0.273438 0.093750
vt 0.273438 0.074219
vt 0.296875 0.019531
vt 0.296875 0.007812
vt 0.273438 0.039062
vt 0.273438 0.027344
vt 0.296875 0.066406
vt 0.296875 0.046875
vt 0.296875 0.093750
vt 0.296875 0.074219
vt 0.320312 0.019531
vt 0.320312 0.007812
vt 0.292969 0.039062
vt 0.292969 0.027344
vt 0.320312 0.066406
vt 0.320312 0.046875
vt 0.320312 0.093750
vt 0.320312 0.074219
vt 0.343750 0.019531
vt 0.343750 0.007812
vt 0.312500 0.039062
vt 0.312500 0.027344
vt 0.343750 0.066406
vt 0.343750 0.046875
vt 0.343750 0.093750
vt 0.343750 0.074219
vt 0.367188 0.019531
vt 0.367188 0.007812
vt 0.332031 0.039062
vt 0.332031 0.027344
vt 0.367188 0.066406
vt 0.367188 0.046875
vt 0.367188 0.093750
vt 0.367188 0.074219
vt 0.390625 0.019531
vt 0.390625 0.007812
vt 0.351562 0.039062
vt 0.351562 0.027344
vt 0.390625 0.066406
vt 0.390625 0.046875
vt 0.390625 0.093750
vt 0.390625 0.074219
vt 0.414062 0.019531
vt 0.414062 0.007812
vt 0.371094 0.039062
vt 0.371094 0.027344
vt 0.414062 0.066406
vt 0.414062 0.046875
vt 0.414062 0.093750
vt 0.414062 0.074219
vt 0.437500 0.019531
vt 0.437500 0.007812
vt 0.390625 0.039062
vt 0.390625 0.027344
vt 0.437500 0.066406
vt 0.437500 0.046875
vt 0.437500 0.093750
vt 0.437500 0.074219
vt 0.460938 0.019531
vt 0.460938 0.007812
vt 0.410156 0.039062
vt 0.410156 0.027344
vt 0.460938 0.066406
vt 0.460938 0.046875
vt 0.460938 0.093750
vt 0.460938 0.074219
vt 0.484375 0.019531
vt 0.484375 0.007812
vt 0.429688 0.039062
vt 0.429688 0.027344
vt 0.484375 0.066406
vt 0.484375 0.046875
vt 0.484375 0.093750
vt 0.484375 0.074219
vt 0.507812 0.019531
vt 0.507812 0.007812
vt 0.449219 0.039062
vt 0.449219 0.027344
vt 0.507812 0.066406
vt 0.507812 0.046875
vt 0.507812 0.093750
vt 0.507812 0.074219
vt 0.531250 0.019531
vt 0.531250 0.007812
vt 0.468750 0.039062
vt 0.468750 0.027344
vt 0.531250 0.066406
vt 0.531250 0.046875
vt 0.531250 0.093750
vt 0.531250 0.074219
vt 0.554688 0.019531
vt 0.554688 0.007812
vt 0.488281 0.039062
vt 0.488281 0.027344
vt 0.554688 0.066406
vt 0.554688 0.046875
vt 0.554688 0.093750
vt 0.554688 0.074219
vt 0.578125 0.019531
vt 0.578125 0.007812
vt 0.507812 0.039062
vt 0.507812 0.027344
vt 0.578125 0.066406
vt 0.578125 0.046875
vt 0.578125 0.093750
vt 0.578125 0.074219
vt 0.601562 0.019531
vt 0.601562 0.007812
vt 0.527344 0.039062
vt 0.527344 0.027344
vt 0.601562 0.066406
vt 0.601562 0.046875
vt 0.601562 0.093750
vt 0.601562 0.074219
vt 0.625000 0.019531
vt 0.625000 0.007812
vt 0.546875 0.039062
vt 0.546875 0.027344
vt 0.625000 0.066406
vt 0.625000 0.046875
vt 0.625000 0.093750
vt 0.625000 0.074219
vt 0.648438 0.019531
vt 0.648438 0.007812
vt 0.566406 0.039062
vt 0.566406 0.027344
vt 0.648438 0.066406
vt 0.648438 0.046875
vt 0.648438 0.093750
vt 0.648438 0.074219
vt 0.671875 0.019531
vt 0.671875 0.007812
vt 0.585938 0.039062
vt 0.585938 0.027344
vt 0.671875 0.066406
vt 0.671875 0.046875
vt 0.671875 0.093750
vt 0.671875 0.074219
vt 0.695312 0.019531
vt 0.695312 0.007812
vt 0.605469 0.039062
vt 0.605469 0.027344
vt 0.695312 0.066406
vt 0.695312 0.046875
vt 0.695312 0.093750
vt 0.695312 0.074219
vt 0.718750 0.019531
vt 0.718750 0.007812
vt 0.625000 0.039062
vt 0.625000 0.027344
vt 0.718750 0.066406
vt 0.718750 0.046875
vt 0.718750 0.093750
vt 0.718750 0.074219
vt 0.007812 0.156250
vt 0.007812 0.160156
vt 0.027344 0.160156
vt 0.027344 0.156250
vt 0.007812 0.167969
vt 0.007812 0.171875
vt 0.023438 0.171875
vt 0.023438 0.167969
vt 0.007812 0.179688
vt 0.007812 0.187500
vt 0.027344 0.187500
vt 0.027344 0.179688
vt 0.007812 0.195312
vt 0.007812 0.203125
vt 0.027344 0.203125
vt 0.027344 0.195312
vt 0.046875 0.160156
vt 0.046875 0.156250
vt 0.039062 0.171875
vt 0.039062 0.167969
vt 0.046875 0.187500
vt 0.046875 0.179688
vt 0.046875 0.203125
vt 0.046875 0.195312
vt 0.066406 0.160156
vt 0.066406 0.156250
vt 0.054688 0.171875
vt 0.054688 0.167969
vt 0.066406 0.187500
vt 0.066406 0.179688
vt 0.066406 0.203125
vt 0.066406 0.195312
vt 0.085938 0.160156
vt 0.085938 0.156250
vt 0.070312 0.171875
vt 0.070312 0.167969
vt 0.085938 0.187500
vt 0.085938 0.179688
vt 0.085938 0.203125
vt 0.085938 0.195312
vt 0.105469 0.160156
vt 0.105469 0.156250
vt 0.085938 0.171875
vt 0.085938 0.167969
vt 0.105469 0.187500
vt 0.105469 0.179688
vt 0.105469 0.203125
vt 0.105469 0.195312
vt 0.125000 0.160156
vt 0.125000 0.156250
vt 0.101562 0.171875
vt 0.101562 0.167969
vt 0.125000 0.187500
vt 0.125000 0.179688
vt 0.125000 0.203125
vt 0.125000 0.195312
vt 0.144531 0.160156
vt 0.144531 0.156250
vt 0.117188 0.171875
vt 0.117188 0.167969
vt 0.144531 0.187500
vt 0.144531 0.179688
vt 0.144531 0.203125
vt 0.144531 0.195312
vt 0.164062 0.160156
vt 0.164062 0.156250
vt 0.132812 0.171875
vt 0.132812 0.167969
vt 0.164062 0.187500
vt 0.164062 0.179688
vt 0.164062 0.203125
vt 0.164062 0.195312
vt 0.183594 0.160156
vt 0.183594 0.156250
vt 0.148438 0.171875
vt 0.148438 0.167969
vt 0.183594 0.187500
vt 0.183594 0.179688
vt 0.183594 0.203125
vt 0.183594 0.195312
vt 0.203125 0.160156
vt 0.203125 0.156250
vt 0.164062 0.171875
vt 0.164062 0.167969
vt 0.203125 0.187500
vt 0.203125 0.179688
vt 0.203125 0.203125
vt 0.203125 0.195312
vt 0.222656 0.160156
vt 0.222656 0.156250
vt 0.179688 0.171875
vt 0.179688 0.167969
vt 0.222656 0.187500
vt 0.222656 0.179688
vt 0.222656 0.203125
vt 0.222656 0.195312
vt 0.242188 0.160156
vt 0.242188 0.156250
vt 0.195312 0.171875
vt 0.195312 0.167969
vt 0.242188 0.187500
vt 0.242188 0.179688
vt 0.242188 0.203125
vt 0.242188 0.195312
vt 0.261719 0.160156
vt 0.261719 0.156250
vt 0.210938 0.171875
vt 0.210938 0.167969
vt 0.261719 0.187500
vt 0.261719 0.179688
vt 0.261719 0.203125
vt 0.261719 0.195312
vt 0.281250 0.160156
vt 0.281250 0.156250
vt 0.226562 0.171875
vt 0.226562 0.167969
vt 0.281250 0.187500
vt 0.281250 0.179688
vt 0.281250 0.203125
vt 0.281250 0.195312
vt 0.300781 0.160156
vt 0.300781 0.156250
vt 0.242188 0.171875
vt 0.242188 0.167969
vt 0.300781 0.187500
vt 0.300781 0.179688
vt 0.300781 0.203125
vt 0.300781 0.195312
vt 0.320312 0.160156
vt 0.320312 0.156250
vt 0.257812 0.171875
vt 0.257812 0.167969
vt 0.320312 0.187500
vt 0.320312 0.179688
vt 0.320312 0.203125
vt 0.320312 0.195312
vt 0.339844 0.160156
vt 0.339844 0.156250
vt 0.273438 0.171875
vt 0.273438 0.167969
vt 0.339844 0.187500
vt 0.339844 0.179688
vt 0.339844 0.203125
vt 0.339844 0.195312
vt 0.359375 0.160156
vt 0.359375 0.156250
vt 0.289062 0.171875
vt 0.289062 0.167969
vt 0.359375 0.187500
vt 0.359375 0.179688
vt 0.359375 0.203125
vt 0.359375 0.195312
vt 0.378906 0.160156
vt 0.378906 0.156250
vt 0.304688 0.171875
vt 0.304688 0.167969
vt 0.378906 0.187500
vt 0.378906 0.179688
vt 0.378906 0.203125
vt 0.378906 0.195312
vt 0.398438 0.160156
vt 0.398438 0.156250
vt 0.320312 0.171875
vt 0.320312 0.167969
vt 0.398438 0.187500
vt 0.398438 0.179688
vt 0.398438 0.203125
vt 0.398438 0.195312
vt 0.417969 0.160156
vt 0.417969 0.156250
vt 0.335938 0.171875
vt 0.335938 0.167969
vt 0.417969 0.187500
vt 0.417969 0.179688
vt 0.417969 0.203125
vt 0.417969 0.195312
vt 0.437500 0.160156
vt 0.437500 0.156250
vt 0.351562 0.171875
vt 0.351562 0.167969
vt 0.437500 0.187500
vt 0.437500 0.179688
vt 0.437500 0.203125
vt 0.437500 0.195312
vt 0.457031 0.160156
vt 0.457031 0.156250
vt 0.367188 0.171875
vt 0.367188 0.167969
vt 0.457031 0.187500
vt 0.457031 0.179688
vt 0.457031 0.203125
vt 0.457031 0.195312
vt 0.476562 0.160156
vt 0.476562 0.156250
vt 0.382812 0.171875
vt 0.382812 0.167969
vt 0.476562 0.187500
vt 0.476562 0.179688
vt 0.476562 0.203125
vt 0.476562 0.195312
vt 0.148438 0.078125
vt 0.144531 0.058594
vt 0.140625 0.042969
vt 0.128906 0.027344
vt 0.113281 0.015625
vt 0.097656 0.011719
vt 0.078125 0.007812
vt 0.058594 0.011719
vt 0.042969 0.015625
vt 0.027344 0.027344
vt 0.015625 0.042969
vt 0.011719 0.058594
vt 0.007812 0.078125
vt 0.011719 0.097656
vt 0.015625 0.113281
vt 0.027344 0.128906
vt 0.042969 0.140625
vt 0.058594 0.144531
vt 0.078125 0.148438
vt 0.097656 0.144531
vt 0.113281 0.140625
vt 0.128906 0.128906
vt 0.140625 0.113281
vt 0.144531 0.097656
s 0
usemtl MonosPortalTex
f 57/89/7 81/90/7 82/91/7 58/92/7
f 129/93/8 105/94/8 106/95/8 130/96/8
f 105/97/9 57/98/9 58/99/9 106/100/9
f 81/101/10 129/102/10 130/103/10 82/104/10
f 58/92/11 82/91/11 83/105/11 59/106/11
f 130/96/12 106/95/12 107/107/12 131/108/12
f 106/100/9 58/99/9 59/109/9 107/110/9
f 82/104/10 130/103/10 131/111/10 83/112/10
f 59/106/13 83/105/13 84/113/13 60/114/13
f 131/108/14 107/107/14 108/115/14 132/116/14
f 107/110/9 59/109/9 60/117/9 108/118/9
f 83/112/10 131/111/10 132/119/10 84/120/10
f 60/114/15 84/113/15 85/121/15 61/122/15
f 132/116/16 108/115/16 109/123/16 133/124/16
f 108/118/9 60/117/9 61/125/9 109/126/9
f 84/120/10 132/119/10 133/127/10 85/128/10
f 61/122/17 85/121/17 86/129/17 62/130/17
f 133/124/18 109/123/18 110/131/18 134/132/18
f 109/126/9 61/125/9 62/133/9 110/134/9
f 85/128/10 133/127/10 134/135/10 86/136/10
f 62/130/19 86/129/19 87/137/19 63/138/19
f 134/132/20 110/131/20 111/139/20 135/140/20
f 110/134/9 62/133/9 63/141/9 111/142/9
f 86/136/10 134/135/10 135/143/10 87/144/10
f 63/138/21 87/137/21 88/145/21 64/146/21
f 135/140/22 111/139/22 112/147/22 136/148/22
f 111/142/9 63/141/9 64/149/9 112/150/9
f 87/144/10 135/143/10 136/151/10 88/152/10
f 64/146/23 88/145/23 89/153/23 65/154/23
f 136/148/24 112/147/24 113/155/24 137/156/24
f 112/150/9 64/149/9 65/157/9 113/158/9
f 88/152/10 136/151/10 137/159/10 89/160/10
f 65/154/25 89/153/25 90/161/25 66/162/25
f 137/156/26 113/155/26 114/163/26 138/164/26
f 113/158/9 65/157/9 66/165/9 114/166/9
f 89/160/10 137/159/10 138/167/10 90/168/10
f 66/162/27 90/161/27 91/169/27 67/170/27
f 138/164/28 114/163/28 115/171/28 139/172/28
f 114/166/9 66/165/9 67/173/9 115/174/9
f 90/168/10 138/167/10 139/175/10 91/176/10
f 67/170/29 91/169/29 92/177/29 68/178/29
f 139/172/30 115/171/30 116/179/30 140/180/30
f 115/174/9 67/173/9 68/181/9 116/182/9
f 91/176/10 139/175/10 140/183/10 92/184/10
f 68/178/31 92/177/31 93/185/31 69/186/31
f 140/180/32 116/179/32 117/187/32 141/188/32
f 116/182/9 68/181/9 69/189/9 117/190/9
f 92/184/10 140/183/10 141/191/10 93/192/10
f 69/186/8 93/185/8 94/193/8 70/194/8
f 141/188/7 117/187/7 118/195/7 142/196/7
f 117/190/9 69/189/9 70/197/9 118/198/9
f 93/192/10 141/191/10 142/199/10 94/200/10
f 70/194/12 94/193/12 95/201/12 71/202/12
f 142/196/11 118/195/11 119/203/11 143/204/11
f 118/198/9 70/197/9 71/205/9 119/206/9
f 94/200/10 142/199/10 143/207/10 95/208/10
f 71/202/14 95/201/14 96/209/14 72/210/14
f 143/204/13 119/203/13 120/211/13 144/212/13
f 119/206/9 71/205/9 72/213/9 120/214/9
f 95/208/10 143/207/10 144/215/10 96/216/10
f 72/210/16 96/209/16 97/217/16 73/218/16
f 144/212/15 120/211/15 121/219/15 145/220/15
f 120/214/9 72/213/9 73/221/9 121/222/9
f 96/216/10 144/215/10 145/223/10 97/224/10
f 73/218/18 97/217/18 98/225/18 74/226/18
f 145/220/17 121/219/17 122/227/17 146/228/17
f 121/222/9 73/221/9 74/229/9 122/230/9
f 97/224/10 145/223/10 146/231/10 98/232/10
f 74/226/20 98/225/20 99/233/20 75/234/20
f 146/228/19 122/227/19 123/235/19 147/236/19
f 122/230/9 74/229/9 75/237/9 123/238/9
f 98/232/10 146/231/10 147/239/10 99/240/10
f 75/234/22 99/233/22 100/241/22 76/242/22
f 147/236/21 123/235/21 124/243/21 148/244/21
f 123/238/9 75/237/9 76/245/9 124/246/9
f 99/240/10 147/239/10 148/247/10 100/248/10
f 76/242/24 100/241/24 101/249/24 77/250/24
f 148/244/23 124/243/23 125/251/23 149/252/23
f 124/246/9 76/245/9 77/253/9 125/254/9
f 100/248/10 148/247/10 149/255/10 101/256/10
f 77/250/26 101/249/26 102/257/26 78/258/26
f 149/252/25 125/251/25 126/259/25 150/260/25
f 125/254/9 77/253/9 78/261/9 126/262/9
f 101/256/10 149/255/10 150/263/10 102/264/10
f 78/258/28 102/257/28 103/265/28 79/266/28
f 150/260/27 126/259/27 127/267/27 151/268/27
f 126/262/9 78/261/9 79/269/9 127/270/9
f 102/264/10 150/263/10 151/271/10 103/272/10
f 79/266/30 103/265/30 104/273/30 80/274/30
f 151/268/29 127/267/29 128/275/29 152/276/29
f 127/270/9 79/269/9 80/277/9 128/278/9
f 103/272/10 151/271/10 152/279/10 104/280/10
f 80/274/32 104/273/32 81/281/32 57/282/32
f 152/276/31 128/275/31 105/283/31 129/284/31
f 128/278/9 80/277/9 57/285/9 105/286/9
f 104/280/10 152/279/10 129/287/10 81/288/10
f 153/289/7 177/290/7 178/291/7 154/292/7
f 225/293/8 201/294/8 202/295/8 226/296/8
f 201/297/9 153/298/9 154/299/9 202/300/9
f 177/301/10 225/302/10 226/303/10 178/304/10
f 154/292/11 178/291/11 179/305/11 155/306/11
f 226/296/12 202/295/12 203/307/12 227/308/12
f 202/300/9 154/299/9 155/309/9 203/310/9
f 178/304/10 226/303/10 227/311/10 179/312/10
f 155/306/13 179/305/13 180/313/13 156/314/13
f 227/308/14 203/307/14 204/315/14 228/316/14
f 203/310/9 155/309/9 156/317/9 204/318/9
f 179/312/10 227/311/10 228/319/10 180/320/10
f 156/314/15 180/313/15 181/321/15 157/322/15
f 228/316/16 204/315/16 205/323/16 229/324/16
f 204/318/9 156/317/9 157/325/9 205/326/9
f 180/320/10 228/319/10 229/327/10 181/328/10
f 157/322/17 181/321/17 182/329/17 158/330/17
f 229/324/18 205/323/18 206/331/18 230/332/18
f 205/326/9 157/325/9 158/333/9 206/334/9
f 181/328/10 229/327/10 230/335/10 182/336/10
f 158/330/19 182/329/19 183/337/19 159/338/19
f 230/332/20 206/331/20 207/339/20 231/340/20
f 206/334/9 158/333/9 159/341/9 207/342/9
f 182/336/10 230/335/10 231/343/10 183/344/10
f 159/338/21 183/337/21 184/345/21 160/346/21
f 231/340/22 207/339/22 208/347/22 232/348/22
f 207/342/9 159/341/9 160/349/9 208/350/9
f 183/344/10 231/343/10 232/351/10 184/352/10
f 160/346/23 184/345/23 185/353/23 161/354/23
f 232/348/24 208/347/24 209/355/24 233/356/24
f 208/350/9 160/349/9 161/357/9 209/358/9
f 184/352/10 232/351/10 233/359/10 185/360/10
f 161/354/25 185/353/25 186/361/25 162/362/25
f 233/356/26 209/355/26 210/363/26 234/364/26
f 209/358/9 161/357/9 162/365/9 210/366/9
f 185/360/10 233/359/10 234/367/10 186/368/10
f 162/362/27 186/361/27 187/369/27 163/370/27
f 234/364/28 210/363/28 211/371/28 235/372/28
f 210/366/9 162/365/9 163/373/9 211/374/9
f 186/368/10 234/367/10 235/375/10 187/376/10
f 163/370/29 187/369/29 188/377/29 164/378/29
f 235/372/30 211/371/30 212/379/30 236/380/30
f 211/374/9 163/373/9 164/381/9 212/382/9
f 187/376/10 235/375/10 236/383/10 188/384/10
f 164/378/31 188/377/31 189/385/31 165/386/31
f 236/380/32 212/379/32 213/387/32 237/388/32
f 212/382/9 164/381/9 165/389/9 213/390/9
f 188/384/10 236/383/10 237/391/10 189/392/10
f 165/386/8 189/385/8 190/393/8 166/394/8
f 237/388/7 213/387/7 214/395/7 238/396/7
f 213/390/9 165/389/9 166/397/9 214/398/9
f 189/392/10 237/391/10 238/399/10 190/400/10
f 166/394/12 190/393/12 191/401/12 167/402/12
f 238/396/11 214/395/11 215/403/11 239/404/11
f 214/398/9 166/397/9 167/405/9 215/406/9
f 190/400/10 238/399/10 239/407/10 191/408/10
f 167/402/14 191/401/14 192/409/14 168/410/14
f 239/404/13 215/403/13 216/411/13 240/412/13
f 215/406/9 167/405/9 168/413/9 216/414/9
f 191/408/10 239/407/10 240/415/10 192/416/10
f 168/410/16 192/409/16 193/417/16 169/418/16
f 240/412/15 216/411/15 217/419/15 241/420/15
f 216/414/9 168/413/9 169/421/9 217/422/9
f 192/416/10 240/415/10 241/423/10 193/424/10
f 169/418/18 193/417/18 194/425/18 170/426/18
f 241/420/17 217/419/17 218/427/17 242/428/17
f 217/422/9 169/421/9 170/429/9 218/430/9
f 193/424/10 241/423/10 242/431/10 194/432/10
f 170/426/20 194/425/20 195/433/20 171/434/20
f 242/428/19 218/427/19 219/435/19 243/436/19
f 218/430/9 170/429/9 171/437/9 219/438/9
f 194/432/10 242/431/10 243/439/10 195/440/10
f 171/434/22 195/433/22 196/441/22 172/442/22
f 243/436/21 219/435/21 220/443/21 244/444/21
f 219/438/9 171/437/9 172/445/9 220/446/9
f 195/440/10 243/439/10 244/447/10 196/448/10
f 172/442/24 196/441/24 197/449/24 173/450/24
f 244/444/23 220/443/23 221/451/23 245/452/23
f 220/446/9 172/445/9 173/453/9 221/454/9
f 196/448/10 244/447/10 245/455/10 197/456/10
f 173/450/26 197/449/26 198/457/26 174/458/26
f 245/452/25 221/451/25 222/459/25 246/460/25
f 221/454/9 173/453/9 174/461/9 222/462/9
f 197/456/10 245/455/10 246/463/10 198/464/10
f 174/458/28 198/457/28 199/465/28 175/466/28
f 246/460/27 222/459/27 223/467/27 247/468/27
f 222/462/9 174/461/9 175/469/9 223/470/9
f 198/464/10 246/463/10 247/471/10 199/472/10
f 175/466/30 199/465/30 200/473/30 176/474/30
f 247/468/29 223/467/29 224/475/29 248/476/29
f 223/470/9 175/469/9 176/477/9 224/478/9
f 199/472/10 247/471/10 248/479/10 200/480/10
f 176/474/32 200/473/32 177/481/32 153/482/32
f 248/476/31 224/475/31 201/483/31 225/484/31
f 224/478/9 176/477/9 153/485/9 201/486/9
f 200/480/10 248/479/10 225/487/10 177/488/10
f 249/489/10 272/490/10 271/491/10 270/492/10 269/493/10 268/494/10 267/495/10 266/496/10 265/497/10 264/498/10 263/499/10 262/500/10 261/501/10 260/502/10 259/503/10 258/504/10 257/505/10 256/506/10 255/507/10 254/508/10 253/509/10 252/510/10 251/511/10 250/512/10
o MonosConsole
v 2.134837 0.000000 -4.878122
v 2.134837 0.900000 -4.878122
v 2.322948 0.000000 -4.361291
v 2.322948 0.900000 -4.361291
v 1.477052 0.000000 -4.638709
v 1.477052 0.900000 -4.638709
v 1.665163 0.000000 -4.121878
v 1.665163 0.900000 -4.121878
v 2.140002 0.900000 -4.746980
v 2.140002 1.140000 -4.746980
v 2.276810 0.900000 -4.371103
v 2.276810 1.140000 -4.371103
v 1.557392 0.900000 -4.534928
v 1.557392 1.140000 -4.534928
v 1.694200 0.900000 -4.159050
v 1.694200 1.140000 -4.159050
v 2.100687 1.040000 -4.796521
v 2.100687 1.440000 -4.796521
v 2.134889 1.040000 -4.702552
v 2.134889 1.440000 -4.702552
v 1.555665 1.040000 -4.598150
v 1.555665 1.440000 -4.598150
v 1.589867 1.040000 -4.504180
v 1.589867 1.440000 -4.504180
v 2.049940 1.090000 -4.789757
v 2.049940 1.390000 -4.789757
v 2.054044 1.090000 -4.778481
v 2.054044 1.390000 -4.778481
v 1.598887 1.090000 -4.625587
v 1.598887 1.390000 -4.625587
v 1.602992 1.090000 -4.614311
v 1.602992 1.390000 -4.614311
v 2.022886 0.895000 -4.981040
v 2.022886 0.945000 -4.981040
v 2.077609 0.895000 -4.830689
v 2.077609 0.945000 -4.830689
v 1.496658 0.895000 -4.789508
v 1.496658 0.945000 -4.789508
v 1.551381 0.895000 -4.639157
v 1.551381 0.945000 -4.639157
vn -0.0000 1.0000 -0.0000
vn -0.0000 -1.0000 -0.0000
vn -0.9397 -0.0000 0.3420
vn 0.9397 -0.0000 -0.3420
vn 0.3420 -0.0000 0.9397
vn -0.3420 -0.0000 -0.9397
vt 0.171875 0.390625
vt 0.343750 0.390625
vt 0.343750 0.531250
vt 0.171875 0.531250
vt 0.171875 0.031250
vt 0.343750 0.031250
vt 0.343750 0.171875
vt 0.171875 0.171875
vt 0.484375 0.171875
vt 0.484375 0.390625
vt 0.031250 0.171875
vt 0.031250 0.390625
vt 0.656250 0.171875
vt 0.656250 0.390625
vt 0.125000 0.718750
vt 0.281250 0.718750
vt 0.281250 0.812500
vt 0.125000 0.812500
vt 0.125000 0.562500
vt 0.281250 0.562500
vt 0.281250 0.656250
vt 0.125000 0.656250
vt 0.375000 0.656250
vt 0.375000 0.718750
vt 0.031250 0.656250
vt 0.031250 0.718750
vt 0.531250 0.656250
vt 0.531250 0.718750
vt 0.593750 0.687500
vt 0.734375 0.687500
vt 0.734375 0.718750
vt 0.593750 0.718750
vt 0.593750 0.562500
vt 0.734375 0.562500
vt 0.734375 0.593750
vt 0.593750 0.593750
vt 0.765625 0.593750
vt 0.765625 0.687500
vt 0.562500 0.593750
vt 0.562500 0.687500
vt 0.906250 0.593750
vt 0.906250 0.687500
vt 0.046875 0.859375
vt 0.046875 0.937500
vt 0.171875 0.937500
vt 0.171875 0.859375
vt 0.390625 0.906250
vt 0.531250 0.906250
vt 0.531250 0.953125
vt 0.390625 0.953125
vt 0.390625 0.843750
vt 0.531250 0.843750
vt 0.531250 0.890625
vt 0.390625 0.890625
vt 0.578125 0.890625
vt 0.578125 0.906250
vt 0.343750 0.890625
vt 0.343750 0.906250
vt 0.718750 0.890625
vt 0.718750 0.906250
s 0
usemtl MonosConsoleTex
f 274/513/33 278/514/33 280/515/33 276/516/33
f 275/517/34 279/518/34 277/519/34 273/520/34
f 277/519/35 279/521/35 280/522/35 278/514/35
f 275/523/36 273/520/36 274/513/36 276/524/36
f 279/521/37 275/525/37 276/526/37 280/522/37
f 273/520/38 277/519/38 278/514/38 274/513/38
f 282/527/33 286/528/33 288/529/33 284/530/33
f 283/531/34 287/532/34 285/533/34 281/534/34
f 285/533/35 287/535/35 288/536/35 286/528/35
f 283/537/36 281/534/36 282/527/36 284/538/36
f 287/535/37 283/539/37 284/540/37 288/536/37
f 281/534/38 285/533/38 286/528/38 282/527/38
f 290/541/33 294/542/33 296/543/33 292/544/33
f 291/545/34 295/546/34 293/547/34 289/548/34
f 293/547/35 295/549/35 296/550/35 294/542/35
f 291/551/36 289/548/36 290/541/36 292/552/36
f 295/549/37 291/553/37 292/554/37 296/550/37
f 289/548/38 293/547/38 294/542/38 290/541/38
f 297/555/37 298/556/37 302/557/37 301/558/37
f 306/559/33 310/560/33 312/561/33 308/562/33
f 307/563/34 311/564/34 309/565/34 305/566/34
f 309/565/35 311/567/35 312/568/35 310/560/35
f 307/569/36 305/566/36 306/559/36 308/570/36
f 311/567/37 307/571/37 308/572/37 312/568/37
f 305/566/38 309/565/38 310/560/38 306/559/38
o MonosShelf
v -3.170000 0.045000 -4.295000
v -3.170000 1.555000 -4.295000
v -3.200000 0.045000 -4.295000
v -3.200000 1.555000 -4.295000
v -3.170000 0.045000 -5.405000
v -3.170000 1.555000 -5.405000
v -3.200000 0.045000 -5.405000
v -3.200000 1.555000 -5.405000
v -2.700000 0.000000 -4.250000
v -2.700000 1.600000 -4.250000
v -3.200000 0.000000 -4.250000
v -3.200000 1.600000 -4.250000
v -2.700000 0.000000 -4.295000
v -2.700000 1.600000 -4.295000
v -3.200000 0.000000 -4.295000
v -3.200000 1.600000 -4.295000
v -2.700000 0.000000 -5.405000
v -2.700000 1.600000 -5.405000
v -3.200000 0.000000 -5.405000
v -3.200000 1.600000 -5.405000
v -2.700000 0.000000 -5.450000
v -2.700000 1.600000 -5.450000
v -3.200000 0.000000 -5.450000
v -3.200000 1.600000 -5.450000
v -2.700000 1.555000 -4.295000
v -2.700000 1.600000 -4.295000
v -3.200000 1.555000 -4.295000
v -3.200000 1.600000 -4.295000
v -2.700000 1.555000 -5.405000
v -2.700000 1.600000 -5.405000
v -3.200000 1.555000 -5.405000
v -3.200000 1.600000 -5.405000
v -2.700000 0.000000 -4.295000
v -2.700000 0.420000 -4.295000
v -3.200000 0.000000 -4.295000
v -3.200000 0.420000 -4.295000
v -2.700000 0.000000 -5.405000
v -2.700000 0.420000 -5.405000
v -3.200000 0.000000 -5.405000
v -3.200000 0.420000 -5.405000
v -2.725000 0.697500 -4.295000
v -2.725000 0.742500 -4.295000
v -3.175000 0.697500 -4.295000
v -3.175000 0.742500 -4.295000
v -2.725000 0.697500 -5.405000
v -2.725000 0.742500 -5.405000
v -3.175000 0.697500 -5.405000
v -3.175000 0.742500 -5.405000
v -2.725000 1.127500 -4.295000
v -2.725000 1.172500 -4.295000
v -3.175000 1.127500 -4.295000
v -3.175000 1.172500 -4.295000
v -2.725000 1.127500 -5.405000
v -2.725000 1.172500 -5.405000
v -3.175000 1.127500 -5.405000
v -3.175000 1.172500 -5.405000
vn -0.0000 1.0000 -0.0000
vn -0.0000 -1.0000 -0.0000
vn -0.0000 -0.0000 -1.0000
vn -0.0000 -0.0000 1.0000
vn -1.0000 -0.0000 -0.0000
vn 1.0000 -0.0000 -0.0000
vt 0.335938 0.210938
vt 0.476562 0.210938
vt 0.476562 0.218750
vt 0.335938 0.218750
vt 0.335938 0.015625
vt 0.476562 0.015625
vt 0.476562 0.023438
vt 0.335938 0.023438
vt 0.484375 0.023438
vt 0.484375 0.210938
vt 0.328125 0.023438
vt 0.328125 0.210938
vt 0.625000 0.023438
vt 0.625000 0.210938
vt 0.078125 0.281250
vt 0.085938 0.281250
vt 0.085938 0.343750
vt 0.078125 0.343750
vt 0.078125 0.015625
vt 0.085938 0.015625
vt 0.085938 0.078125
vt 0.078125 0.078125
vt 0.148438 0.078125
vt 0.148438 0.281250
vt 0.015625 0.078125
vt 0.015625 0.281250
vt 0.156250 0.078125
vt 0.156250 0.281250
vt 0.234375 0.281250
vt 0.242188 0.281250
vt 0.242188 0.343750
vt 0.234375 0.343750
vt 0.234375 0.015625
vt 0.242188 0.015625
vt 0.242188 0.078125
vt 0.234375 0.078125
vt 0.304688 0.078125
vt 0.304688 0.281250
vt 0.171875 0.078125
vt 0.171875 0.281250
vt 0.312500 0.078125
vt 0.312500 0.281250
vt 0.500000 0.429688
vt 0.640625 0.429688
vt 0.640625 0.492188
vt 0.500000 0.492188
vt 0.500000 0.359375
vt 0.640625 0.359375
vt 0.640625 0.421875
vt 0.500000 0.421875
vt 0.703125 0.421875
vt 0.703125 0.429688
vt 0.437500 0.421875
vt 0.437500 0.429688
vt 0.843750 0.421875
vt 0.843750 0.429688
vt 0.078125 0.476562
vt 0.218750 0.476562
vt 0.218750 0.539062
vt 0.078125 0.539062
vt 0.078125 0.359375
vt 0.218750 0.359375
vt 0.218750 0.421875
vt 0.078125 0.421875
vt 0.281250 0.421875
vt 0.281250 0.476562
vt 0.015625 0.421875
vt 0.015625 0.476562
vt 0.421875 0.421875
vt 0.421875 0.476562
vt 0.070312 0.617188
vt 0.210938 0.617188
vt 0.210938 0.671875
vt 0.070312 0.671875
vt 0.070312 0.554688
vt 0.210938 0.554688
vt 0.210938 0.609375
vt 0.070312 0.609375
vt 0.265625 0.609375
vt 0.265625 0.617188
vt 0.015625 0.609375
vt 0.015625 0.617188
vt 0.406250 0.609375
vt 0.406250 0.617188
vt 0.476562 0.617188
vt 0.617188 0.617188
vt 0.617188 0.671875
vt 0.476562 0.671875
vt 0.476562 0.554688
vt 0.617188 0.554688
vt 0.617188 0.609375
vt 0.476562 0.609375
vt 0.671875 0.609375
vt 0.671875 0.617188
vt 0.421875 0.609375
vt 0.421875 0.617188
vt 0.812500 0.609375
vt 0.812500 0.617188
s 0
usemtl MonosShelfTex
f 314/573/39 318/574/39 320/575/39 316/576/39
f 315/577/40 319/578/40 317/579/40 313/580/40
f 317/579/41 319/581/41 320/582/41 318/574/41
f 315/583/42 313/580/42 314/573/42 316/584/42
f 319/581/43 315/585/43 316/586/43 320/582/43
f 313/580/44 317/579/44 318/574/44 314/573/44
f 322/587/39 326/588/39 328/589/39 324/590/39
f 323/591/40 327/592/40 325/593/40 321/594/40
f 325/593/41 327/595/41 328/596/41 326/588/41
f 323/597/42 321/594/42 322/587/42 324/598/42
f 327/595/43 323/599/43 324/600/43 328/596/43
f 321/594/44 325/593/44 326/588/44 322/587/44
f 330/601/39 334/602/39 336/603/39 332/604/39
f 331/605/40 335/606/40 333/607/40 329/608/40
f 333/607/41 335/609/41 336/610/41 334/602/41
f 331/611/42 329/608/42 330/601/42 332/612/42
f 335/609/43 331/613/43 332/614/43 336/610/43
f 329/608/44 333/607/44 334/602/44 330/601/44
f 338/615/39 342/616/39 344/617/39 340/618/39
f 339/619/40 343/620/40 341/621/40 337/622/40
f 341/621/41 343/623/41 344/624/41 342/616/41
f 339/625/42 337/622/42 338/615/42 340/626/42
f 343/623/43 339/627/43 340/628/43 344/624/43
f 337/622/44 341/621/44 342/616/44 338/615/44
f 346/629/39 350/630/39 352/631/39 348/632/39
f 347/633/40 351/634/40 349/635/40 345/636/40
f 349/635/41 351/637/41 352/638/41 350/630/41
f 347/639/42 345/636/42 346/629/42 348/640/42
f 351/637/43 347/641/43 348/642/43 352/638/43
f 345/636/44 349/635/44 350/630/44 346/629/44
f 354/643/39 358/644/39 360/645/39 356/646/39
f 355/647/40 359/648/40 357/649/40 353/650/40
f 357/649/41 359/651/41 360/652/41 358/644/41
f 355/653/42 353/650/42 354/643/42 356/654/42
f 359/651/43 355/655/43 356/656/43 360/652/43
f 353/650/44 357/649/44 358/644/44 354/643/44
f 362/657/39 366/658/39 368/659/39 364/660/39
f 363/661/40 367/662/40 365/663/40 361/664/40
f 365/663/41 367/665/41 368/666/41 366/658/41
f 363/667/42 361/664/42 362/657/42 364/668/42
f 367/665/43 363/669/43 364/670/43 368/666/43
f 361/664/44 365/663/44 366/658/44 362/657/44
