# Blender 5.1.1
# www.blender.org
mtllib Mug_Teal.mtl
o Mug_Teal
v 0.042000 0.000000 0.000000
v 0.029698 0.000000 -0.029698
v 0.000000 0.000000 -0.042000
v -0.029698 0.000000 -0.029698
v -0.042000 0.000000 -0.000000
v -0.029698 0.000000 0.029698
v -0.000000 0.000000 0.042000
v 0.029698 0.000000 0.029698
v 0.048000 0.105000 0.000000
v 0.033941 0.105000 -0.033941
v 0.000000 0.105000 -0.048000
v -0.033941 0.105000 -0.033941
v -0.048000 0.105000 -0.000000
v -0.033941 0.105000 0.033941
v -0.000000 0.105000 0.048000
v 0.033941 0.105000 0.033941
v 0.036000 0.020000 0.000000
v 0.025456 0.020000 -0.025456
v 0.000000 0.020000 -0.036000
v -0.025456 0.020000 -0.025456
v -0.036000 0.020000 -0.000000
v -0.025456 0.020000 0.025456
v -0.000000 0.020000 0.036000
v 0.025456 0.020000 0.025456
v 0.036000 0.024000 0.000000
v 0.025456 0.024000 -0.025456
v 0.000000 0.024000 -0.036000
v -0.025456 0.024000 -0.025456
v -0.036000 0.024000 -0.000000
v -0.025456 0.024000 0.025456
v -0.000000 0.024000 0.036000
v 0.025456 0.024000 0.025456
v 0.048000 0.030500 0.010000
v 0.048000 0.085500 0.010000
v 0.048000 0.030500 -0.010000
v 0.048000 0.085500 -0.010000
v 0.076000 0.030500 0.010000
v 0.076000 0.085500 0.010000
v 0.076000 0.030500 -0.010000
v 0.076000 0.085500 -0.010000
vn 0.9226 -0.0527 -0.3822
vn 0.3822 -0.0527 -0.9226
vn -0.3822 -0.0527 -0.9226
vn -0.9226 -0.0527 -0.3822
vn -0.9226 -0.0527 0.3822
vn -0.3822 -0.0527 0.9226
vn 0.3822 -0.0527 0.9226
vn 0.9226 -0.0527 0.3822
vn -0.0000 -1.0000 -0.0000
vn 0.9239 -0.0000 -0.3827
vn 0.3827 -0.0000 -0.9239
vn -0.3827 -0.0000 -0.9239
vn -0.9239 -0.0000 -0.3827
vn -0.9239 -0.0000 0.3827
vn -0.3827 -0.0000 0.9239
vn 0.3827 -0.0000 0.9239
vn 0.9239 -0.0000 0.3827
vn -0.0000 1.0000 -0.0000
vn 1.0000 -0.0000 -0.0000
vn -1.0000 -0.0000 -0.0000
vn -0.0000 -0.0000 -1.0000
vn -0.0000 -0.0000 1.0000
vt 0.031250 0.031250
vt 0.062500 0.031250
vt 0.062500 0.140625
vt 0.031250 0.140625
vt 0.093750 0.031250
vt 0.093750 0.140625
vt 0.125000 0.031250
vt 0.125000 0.140625
vt 0.156250 0.031250
vt 0.156250 0.140625
vt 0.187500 0.031250
vt 0.187500 0.140625
vt 0.218750 0.031250
vt 0.218750 0.140625
vt 0.250000 0.031250
vt 0.250000 0.140625
vt 0.281250 0.031250
vt 0.281250 0.140625
vt 0.125000 0.218750
vt 0.109375 0.187500
vt 0.078125 0.171875
vt 0.046875 0.187500
vt 0.031250 0.218750
vt 0.046875 0.250000
vt 0.078125 0.265625
vt 0.109375 0.250000
vt 0.312500 0.031250
vt 0.343750 0.031250
vt 0.343750 0.046875
vt 0.312500 0.046875
vt 0.375000 0.031250
vt 0.375000 0.046875
vt 0.406250 0.031250
vt 0.406250 0.046875
vt 0.437500 0.031250
vt 0.437500 0.046875
vt 0.468750 0.031250
vt 0.468750 0.046875
vt 0.500000 0.031250
vt 0.500000 0.046875
vt 0.531250 0.031250
vt 0.531250 0.046875
vt 0.562500 0.031250
vt 0.562500 0.046875
vt 0.359375 0.093750
vt 0.375000 0.109375
vt 0.359375 0.125000
vt 0.343750 0.140625
vt 0.328125 0.125000
vt 0.312500 0.109375
vt 0.328125 0.093750
vt 0.343750 0.078125
vt 0.468750 0.109375
vt 0.453125 0.093750
vt 0.437500 0.078125
vt 0.421875 0.093750
vt 0.406250 0.109375
vt 0.421875 0.125000
vt 0.437500 0.140625
vt 0.453125 0.125000
vt 0.609375 0.109375
vt 0.640625 0.109375
vt 0.640625 0.125000
vt 0.609375 0.125000
vt 0.609375 0.031250
vt 0.640625 0.031250
vt 0.640625 0.046875
vt 0.609375 0.046875
vt 0.656250 0.046875
vt 0.656250 0.109375
vt 0.593750 0.046875
vt 0.593750 0.109375
vt 0.687500 0.046875
vt 0.687500 0.109375
s 0
usemtl Mug_TealTex
f 1/1/1 2/2/1 10/3/1 9/4/1
f 2/2/2 3/5/2 11/6/2 10/3/2
f 3/5/3 4/7/3 12/8/3 11/6/3
f 4/7/4 5/9/4 13/10/4 12/8/4
f 5/9/5 6/11/5 14/12/5 13/10/5
f 6/11/6 7/13/6 15/14/6 14/12/6
f 7/13/7 8/15/7 16/16/7 15/14/7
f 8/15/8 1/17/8 9/18/8 16/16/8
f 1/19/9 8/20/9 7/21/9 6/22/9 5/23/9 4/24/9 3/25/9 2/26/9
f 17/27/10 18/28/10 26/29/10 25/30/10
f 18/28/11 19/31/11 27/32/11 26/29/11
f 19/31/12 20/33/12 28/34/12 27/32/12
f 20/33/13 21/35/13 29/36/13 28/34/13
f 21/35/14 22/37/14 30/38/14 29/36/14
f 22/37/15 23/39/15 31/40/15 30/38/15
f 23/39/16 24/41/16 32/42/16 31/40/16
f 24/41/17 17/43/17 25/44/17 32/42/17
f 32/45/18 25/46/18 26/47/18 27/48/18 28/49/18 29/50/18 30/51/18 31/52/18
f 17/53/9 24/54/9 23/55/9 22/56/9 21/57/9 20/58/9 19/59/9 18/60/9
f 34/61/18 38/62/18 40/63/18 36/64/18
f 35/65/9 39/66/9 37/67/9 33/68/9
f 37/67/19 39/69/19 40/70/19 38/62/19
f 35/71/20 33/68/20 34/61/20 36/72/20
f 39/69/21 35/73/21 36/74/21 40/70/21
f 33/68/22 37/67/22 38/62/22 34/61/22
