# Blender 5.1.1
# www.blender.org
mtllib Photo.mtl
o Photo
v -0.110000 0.000000 0.015000
v -0.110000 0.180000 0.015000
v -0.110000 0.000000 -0.015000
v -0.110000 0.180000 -0.015000
v 0.110000 0.000000 0.015000
v 0.110000 0.180000 0.015000
v 0.110000 0.000000 -0.015000
v 0.110000 0.180000 -0.015000
v -0.085000 0.030000 0.020000
v -0.085000 0.160000 0.020000
v -0.085000 0.030000 0.014000
v -0.085000 0.160000 0.014000
v 0.085000 0.030000 0.020000
v 0.085000 0.160000 0.020000
v 0.085000 0.030000 0.014000
v 0.085000 0.160000 0.014000
vn -0.0000 1.0000 -0.0000
vn -0.0000 -1.0000 -0.0000
vn 1.0000 -0.0000 -0.0000
vn -1.0000 -0.0000 -0.0000
vn -0.0000 -0.0000 -1.0000
vn -0.0000 -0.0000 1.0000
vt 0.062500 0.250000
vt 0.281250 0.250000
vt 0.281250 0.281250
vt 0.062500 0.281250
vt 0.062500 0.031250
vt 0.281250 0.031250
vt 0.281250 0.062500
vt 0.062500 0.062500
vt 0.312500 0.062500
vt 0.312500 0.250000
vt 0.031250 0.062500
vt 0.031250 0.250000
vt 0.531250 0.062500
vt 0.531250 0.250000
vt 0.578125 0.046875
vt 0.750000 0.046875
vt 0.750000 0.171875
vt 0.578125 0.171875
s 0
usemtl PhotoTex
f 2/1/1 6/2/1 8/3/1 4/4/1
f 3/5/2 7/6/2 5/7/2 1/8/2
f 5/7/3 7/9/3 8/10/3 6/2/3
f 3/11/4 1/8/4 2/1/4 4/12/4
f 7/9/5 3/13/5 4/14/5 8/10/5
f 1/8/6 5/7/6 6/2/6 2/1/6
f 9/15/6 13/16/6 14/17/6 10/18/6
