# Blender 5.1.1
# www.blender.org
mtllib PlantStandShort.mtl
o PlantStandShort
v -0.200000 0.240000 0.200000
v -0.200000 0.280000 0.200000
v -0.200000 0.240000 -0.200000
v -0.200000 0.280000 -0.200000
v 0.200000 0.240000 0.200000
v 0.200000 0.280000 0.200000
v 0.200000 0.240000 -0.200000
v 0.200000 0.280000 -0.200000
v -0.177500 0.000000 0.177500
v -0.177500 0.240000 0.177500
v -0.177500 0.000000 0.122500
v -0.177500 0.240000 0.122500
v -0.122500 0.000000 0.177500
v -0.122500 0.240000 0.177500
v -0.122500 0.000000 0.122500
v -0.122500 0.240000 0.122500
v -0.177500 0.000000 -0.122500
v -0.177500 0.240000 -0.122500
v -0.177500 0.000000 -0.177500
v -0.177500 0.240000 -0.177500
v -0.122500 0.000000 -0.122500
v -0.122500 0.240000 -0.122500
v -0.122500 0.000000 -0.177500
v -0.122500 0.240000 -0.177500
v 0.122500 0.000000 0.177500
v 0.122500 0.240000 0.177500
v 0.122500 0.000000 0.122500
v 0.122500 0.240000 0.122500
v 0.177500 0.000000 0.177500
v 0.177500 0.240000 0.177500
v 0.177500 0.000000 0.122500
v 0.177500 0.240000 0.122500
v 0.122500 0.000000 -0.122500
v 0.122500 0.240000 -0.122500
v 0.122500 0.000000 -0.177500
v 0.122500 0.240000 -0.177500
v 0.177500 0.000000 -0.122500
v 0.177500 0.240000 -0.122500
v 0.177500 0.000000 -0.177500
v 0.177500 0.240000 -0.177500
vn -0.0000 1.0000 -0.0000
vn -0.0000 -1.0000 -0.0000
vn 1.0000 -0.0000 -0.0000
vn -1.0000 -0.0000 -0.0000
vn -0.0000 -0.0000 -1.0000
vn -0.0000 -0.0000 1.0000
vt 0.234375 0.250000
vt 0.437500 0.250000
vt 0.437500 0.453125
vt 0.234375 0.453125
vt 0.234375 0.031250
vt 0.437500 0.031250
vt 0.437500 0.234375
vt 0.234375 0.234375
vt 0.640625 0.234375
vt 0.640625 0.250000
vt 0.031250 0.234375
vt 0.031250 0.250000
vt 0.843750 0.234375
vt 0.843750 0.250000
vt 0.062500 0.484375
vt 0.093750 0.484375
vt 0.093750 0.515625
vt 0.062500 0.515625
vt 0.125000 0.515625
vt 0.125000 0.640625
vt 0.093750 0.640625
vt 0.031250 0.515625
vt 0.062500 0.640625
vt 0.031250 0.640625
vt 0.156250 0.515625
vt 0.156250 0.640625
vt 0.218750 0.484375
vt 0.250000 0.484375
vt 0.250000 0.515625
vt 0.218750 0.515625
vt 0.281250 0.515625
vt 0.281250 0.640625
vt 0.250000 0.640625
vt 0.187500 0.515625
vt 0.218750 0.640625
vt 0.187500 0.640625
vt 0.312500 0.515625
vt 0.312500 0.640625
vt 0.375000 0.484375
vt 0.406250 0.484375
vt 0.406250 0.515625
vt 0.375000 0.515625
vt 0.437500 0.515625
vt 0.437500 0.640625
vt 0.406250 0.640625
vt 0.343750 0.515625
vt 0.375000 0.640625
vt 0.343750 0.640625
vt 0.468750 0.515625
vt 0.468750 0.640625
vt 0.531250 0.484375
vt 0.562500 0.484375
vt 0.562500 0.515625
vt 0.531250 0.515625
vt 0.593750 0.515625
vt 0.593750 0.640625
vt 0.562500 0.640625
vt 0.500000 0.515625
vt 0.531250 0.640625
vt 0.500000 0.640625
vt 0.625000 0.515625
vt 0.625000 0.640625
s 0
usemtl PlantStandShortTex
f 2/1/1 6/2/1 8/3/1 4/4/1
f 3/5/2 7/6/2 5/7/2 1/8/2
f 5/7/3 7/9/3 8/10/3 6/2/3
f 3/11/4 1/8/4 2/1/4 4/12/4
f 7/9/5 3/13/5 4/14/5 8/10/5
f 1/8/6 5/7/6 6/2/6 2/1/6
f 11/15/2 15/16/2 13/17/2 9/18/2
f 13/17/3 15/19/3 16/20/3 14/21/3
f 11/22/4 9/18/4 10/23/4 12/24/4
f 15/19/5 11/25/5 12/26/5 16/20/5
f 9/18/6 13/17/6 14/21/6 10/23/6
f 19/27/2 23/28/2 21/29/2 17/30/2
f 21/29/3 23/31/3 24/32/3 22/33/3
f 19/34/4 17/30/4 18/35/4 20/36/4
f 23/31/5 19/37/5 20/38/5 24/32/5
f 17/30/6 21/29/6 22/33/6 18/35/6
f 27/39/2 31/40/2 29/41/2 25/42/2
f 29/41/3 31/43/3 32/44/3 30/45/3
f 27/46/4 25/42/4 26/47/4 28/48/4
f 31/43/5 27/49/5 28/50/5 32/44/5
f 25/42/6 29/41/6 30/45/6 26/47/6
f 35/51/2 39/52/2 37/53/2 33/54/2
f 37/53/3 39/55/3 40/56/3 38/57/3
f 35/58/4 33/54/4 34/59/4 36/60/4
f 39/55/5 35/61/5 36/62/5 40/56/5
f 33/54/6 37/53/6 38/57/6 34/59/6
