# Blender 5.1.1
# www.blender.org
mtllib Plush_Bear.mtl
o Plush_Bear
v -0.082500 0.002000 0.082500
v -0.082500 0.062000 0.082500
v -0.082500 0.002000 0.007500
v -0.082500 0.062000 0.007500
v -0.017500 0.002000 0.082500
v -0.017500 0.062000 0.082500
v -0.017500 0.002000 0.007500
v -0.017500 0.062000 0.007500
v 0.017500 0.002000 0.082500
v 0.017500 0.062000 0.082500
v 0.017500 0.002000 0.007500
v 0.017500 0.062000 0.007500
v 0.082500 0.002000 0.082500
v 0.082500 0.062000 0.082500
v 0.082500 0.002000 0.007500
v 0.082500 0.062000 0.007500
v -0.100000 0.020000 0.080000
v -0.075000 0.190000 0.060000
v -0.100000 0.020000 -0.080000
v -0.075000 0.190000 -0.060000
v 0.100000 0.020000 0.080000
v 0.075000 0.190000 0.060000
v 0.100000 0.020000 -0.080000
v 0.075000 0.190000 -0.060000
v -0.130000 0.095000 0.040000
v -0.130000 0.195000 0.040000
v -0.130000 0.095000 -0.020000
v -0.130000 0.195000 -0.020000
v -0.080000 0.095000 0.040000
v -0.080000 0.195000 0.040000
v -0.080000 0.095000 -0.020000
v -0.080000 0.195000 -0.020000
v 0.080000 0.095000 0.040000
v 0.080000 0.195000 0.040000
v 0.080000 0.095000 -0.020000
v 0.080000 0.195000 -0.020000
v 0.130000 0.095000 0.040000
v 0.130000 0.195000 0.040000
v 0.130000 0.095000 -0.020000
v 0.130000 0.195000 -0.020000
v -0.075000 0.185000 0.067000
v -0.075000 0.305000 0.067000
v -0.075000 0.185000 -0.063000
v -0.075000 0.305000 -0.063000
v 0.075000 0.185000 0.067000
v 0.075000 0.305000 0.067000
v 0.075000 0.185000 -0.063000
v 0.075000 0.305000 -0.063000
v -0.035000 0.200000 0.090000
v -0.035000 0.250000 0.090000
v -0.035000 0.200000 0.060000
v -0.035000 0.250000 0.060000
v 0.035000 0.200000 0.090000
v 0.035000 0.250000 0.090000
v 0.035000 0.200000 0.060000
v 0.035000 0.250000 0.060000
v -0.083000 0.292500 0.015000
v -0.083000 0.337500 0.015000
v -0.083000 0.292500 -0.015000
v -0.083000 0.337500 -0.015000
v -0.033000 0.292500 0.015000
v -0.033000 0.337500 0.015000
v -0.033000 0.292500 -0.015000
v -0.033000 0.337500 -0.015000
v 0.033000 0.292500 0.015000
v 0.033000 0.337500 0.015000
v 0.033000 0.292500 -0.015000
v 0.033000 0.337500 -0.015000
v 0.083000 0.292500 0.015000
v 0.083000 0.337500 0.015000
v 0.083000 0.292500 -0.015000
v 0.083000 0.337500 -0.015000
vn -0.0000 1.0000 -0.0000
vn -0.0000 -1.0000 -0.0000
vn 1.0000 -0.0000 -0.0000
vn -1.0000 -0.0000 -0.0000
vn -0.0000 -0.0000 -1.0000
vn -0.0000 -0.0000 1.0000
vn 0.9894 0.1455 -0.0000
vn -0.9894 0.1455 -0.0000
vn -0.0000 0.1168 -0.9932
vn -0.0000 0.1168 0.9932
vt 0.726562 0.085938
vt 0.757812 0.085938
vt 0.757812 0.125000
vt 0.726562 0.125000
vt 0.726562 0.015625
vt 0.757812 0.015625
vt 0.757812 0.054688
vt 0.726562 0.054688
vt 0.796875 0.054688
vt 0.796875 0.085938
vt 0.687500 0.054688
vt 0.687500 0.085938
vt 0.828125 0.054688
vt 0.828125 0.085938
vt 0.882812 0.085938
vt 0.914062 0.085938
vt 0.914062 0.125000
vt 0.882812 0.125000
vt 0.882812 0.015625
vt 0.914062 0.015625
vt 0.914062 0.054688
vt 0.882812 0.054688
vt 0.953125 0.054688
vt 0.953125 0.085938
vt 0.843750 0.054688
vt 0.843750 0.085938
vt 0.984375 0.054688
vt 0.984375 0.085938
vt 0.093750 0.179688
vt 0.195312 0.179688
vt 0.195312 0.257812
vt 0.093750 0.257812
vt 0.093750 0.015625
vt 0.195312 0.015625
vt 0.195312 0.093750
vt 0.093750 0.093750
vt 0.273438 0.093750
vt 0.273438 0.179688
vt 0.015625 0.093750
vt 0.015625 0.179688
vt 0.375000 0.093750
vt 0.375000 0.179688
vt 0.046875 0.351562
vt 0.070312 0.351562
vt 0.070312 0.382812
vt 0.046875 0.382812
vt 0.046875 0.273438
vt 0.070312 0.273438
vt 0.070312 0.304688
vt 0.046875 0.304688
vt 0.101562 0.304688
vt 0.101562 0.351562
vt 0.015625 0.304688
vt 0.015625 0.351562
vt 0.125000 0.304688
vt 0.125000 0.351562
vt 0.171875 0.351562
vt 0.195312 0.351562
vt 0.195312 0.382812
vt 0.171875 0.382812
vt 0.171875 0.273438
vt 0.195312 0.273438
vt 0.195312 0.304688
vt 0.171875 0.304688
vt 0.226562 0.304688
vt 0.226562 0.351562
vt 0.140625 0.304688
vt 0.140625 0.351562
vt 0.250000 0.304688
vt 0.250000 0.351562
vt 0.453125 0.140625
vt 0.531250 0.140625
vt 0.531250 0.203125
vt 0.453125 0.203125
vt 0.453125 0.015625
vt 0.531250 0.015625
vt 0.531250 0.078125
vt 0.453125 0.078125
vt 0.593750 0.078125
vt 0.593750 0.140625
vt 0.390625 0.078125
vt 0.390625 0.140625
vt 0.671875 0.078125
vt 0.671875 0.140625
vt 0.281250 0.312500
vt 0.312500 0.312500
vt 0.312500 0.328125
vt 0.281250 0.328125
vt 0.281250 0.273438
vt 0.312500 0.273438
vt 0.312500 0.289062
vt 0.281250 0.289062
vt 0.328125 0.289062
vt 0.328125 0.312500
vt 0.265625 0.289062
vt 0.265625 0.312500
vt 0.359375 0.289062
vt 0.359375 0.312500
vt 0.390625 0.312500
vt 0.414062 0.312500
vt 0.414062 0.328125
vt 0.390625 0.328125
vt 0.390625 0.273438
vt 0.414062 0.273438
vt 0.414062 0.289062
vt 0.390625 0.289062
vt 0.429688 0.289062
vt 0.429688 0.312500
vt 0.375000 0.289062
vt 0.375000 0.312500
vt 0.453125 0.289062
vt 0.453125 0.312500
vt 0.484375 0.312500
vt 0.507812 0.312500
vt 0.507812 0.328125
vt 0.484375 0.328125
vt 0.484375 0.273438
vt 0.507812 0.273438
vt 0.507812 0.289062
vt 0.484375 0.289062
vt 0.523438 0.289062
vt 0.523438 0.312500
vt 0.468750 0.289062
vt 0.468750 0.312500
vt 0.546875 0.289062
vt 0.546875 0.312500
s 0
usemtl Plush_BearTex
f 2/1/1 6/2/1 8/3/1 4/4/1
f 3/5/2 7/6/2 5/7/2 1/8/2
f 5/7/3 7/9/3 8/10/3 6/2/3
f 3/11/4 1/8/4 2/1/4 4/12/4
f 7/9/5 3/13/5 4/14/5 8/10/5
f 1/8/6 5/7/6 6/2/6 2/1/6
f 10/15/1 14/16/1 16/17/1 12/18/1
f 11/19/2 15/20/2 13/21/2 9/22/2
f 13/21/3 15/23/3 16/24/3 14/16/3
f 11/25/4 9/22/4 10/15/4 12/26/4
f 15/23/5 11/27/5 12/28/5 16/24/5
f 9/22/6 13/21/6 14/16/6 10/15/6
f 18/29/1 22/30/1 24/31/1 20/32/1
f 19/33/2 23/34/2 21/35/2 17/36/2
f 21/35/7 23/37/7 24/38/7 22/30/7
f 19/39/8 17/36/8 18/29/8 20/40/8
f 23/37/9 19/41/9 20/42/9 24/38/9
f 17/36/10 21/35/10 22/30/10 18/29/10
f 26/43/1 30/44/1 32/45/1 28/46/1
f 27/47/2 31/48/2 29/49/2 25/50/2
f 29/49/3 31/51/3 32/52/3 30/44/3
f 27/53/4 25/50/4 26/43/4 28/54/4
f 31/51/5 27/55/5 28/56/5 32/52/5
f 25/50/6 29/49/6 30/44/6 26/43/6
f 34/57/1 38/58/1 40/59/1 36/60/1
f 35/61/2 39/62/2 37/63/2 33/64/2
f 37/63/3 39/65/3 40/66/3 38/58/3
f 35/67/4 33/64/4 34/57/4 36/68/4
f 39/65/5 35/69/5 36/70/5 40/66/5
f 33/64/6 37/63/6 38/58/6 34/57/6
f 42/71/1 46/72/1 48/73/1 44/74/1
f 43/75/2 47/76/2 45/77/2 41/78/2
f 45/77/3 47/79/3 48/80/3 46/72/3
f 43/81/4 41/78/4 42/71/4 44/82/4
f 47/79/5 43/83/5 44/84/5 48/80/5
f 41/78/6 45/77/6 46/72/6 42/71/6
f 50/85/1 54/86/1 56/87/1 52/88/1
f 51/89/2 55/90/2 53/91/2 49/92/2
f 53/91/3 55/93/3 56/94/3 54/86/3
f 51/95/4 49/92/4 50/85/4 52/96/4
f 55/93/5 51/97/5 52/98/5 56/94/5
f 49/92/6 53/91/6 54/86/6 50/85/6
f 58/99/1 62/100/1 64/101/1 60/102/1
f 59/103/2 63/104/2 61/105/2 57/106/2
f 61/105/3 63/107/3 64/108/3 62/100/3
f 59/109/4 57/106/4 58/99/4 60/110/4
f 63/107/5 59/111/5 60/112/5 64/108/5
f 57/106/6 61/105/6 62/100/6 58/99/6
f 66/113/1 70/114/1 72/115/1 68/116/1
f 67/117/2 71/118/2 69/119/2 65/120/2
f 69/119/3 71/121/3 72/122/3 70/114/3
f 67/123/4 65/120/4 66/113/4 68/124/4
f 71/121/5 67/125/5 68/126/5 72/122/5
f 65/120/6 69/119/6 70/114/6 66/113/6
