# Blender 5.1.1
# www.blender.org
mtllib Plush_Cat.mtl
o Plush_Cat
v -0.085000 0.015000 0.060000
v -0.065000 0.155000 0.045000
v -0.085000 0.015000 -0.080000
v -0.065000 0.155000 -0.065000
v 0.085000 0.015000 0.060000
v 0.065000 0.155000 0.045000
v 0.085000 0.015000 -0.080000
v 0.065000 0.155000 -0.065000
v -0.100000 0.015000 0.025000
v -0.100000 0.095000 0.025000
v -0.100000 0.015000 -0.065000
v -0.100000 0.095000 -0.065000
v -0.050000 0.015000 0.025000
v -0.050000 0.095000 0.025000
v -0.050000 0.015000 -0.065000
v -0.050000 0.095000 -0.065000
v -0.065000 0.000000 0.080000
v -0.065000 0.080000 0.080000
v -0.065000 0.000000 0.030000
v -0.065000 0.080000 0.030000
v -0.025000 0.000000 0.080000
v -0.025000 0.080000 0.080000
v -0.025000 0.000000 0.030000
v -0.025000 0.080000 0.030000
v 0.050000 0.015000 0.025000
v 0.050000 0.095000 0.025000
v 0.050000 0.015000 -0.065000
v 0.050000 0.095000 -0.065000
v 0.100000 0.015000 0.025000
v 0.100000 0.095000 0.025000
v 0.100000 0.015000 -0.065000
v 0.100000 0.095000 -0.065000
v 0.025000 0.000000 0.080000
v 0.025000 0.080000 0.080000
v 0.025000 0.000000 0.030000
v 0.025000 0.080000 0.030000
v 0.065000 0.000000 0.080000
v 0.065000 0.080000 0.080000
v 0.065000 0.000000 0.030000
v 0.065000 0.080000 0.030000
v -0.065000 0.155000 0.060000
v -0.065000 0.265000 0.060000
v -0.065000 0.155000 -0.050000
v -0.065000 0.265000 -0.050000
v 0.065000 0.155000 0.060000
v 0.065000 0.265000 0.060000
v 0.065000 0.155000 -0.050000
v 0.065000 0.265000 -0.050000
v -0.066000 0.263000 0.016000
v -0.046000 0.318000 0.012000
v -0.066000 0.263000 -0.012000
v -0.046000 0.318000 -0.008000
v -0.018000 0.263000 0.016000
v -0.038000 0.318000 0.012000
v -0.018000 0.263000 -0.012000
v -0.038000 0.318000 -0.008000
v 0.018000 0.263000 0.016000
v 0.038000 0.318000 0.012000
v 0.018000 0.263000 -0.012000
v 0.038000 0.318000 -0.008000
v 0.066000 0.263000 0.016000
v 0.046000 0.318000 0.012000
v 0.066000 0.263000 -0.012000
v 0.046000 0.318000 -0.008000
v 0.057500 0.007500 -0.040000
v 0.057500 0.042500 -0.040000
v 0.057500 0.007500 -0.130000
v 0.057500 0.042500 -0.130000
v 0.092500 0.007500 -0.040000
v 0.092500 0.042500 -0.040000
v 0.092500 0.007500 -0.130000
v 0.092500 0.042500 -0.130000
v 0.057500 0.037500 -0.100000
v 0.057500 0.112500 -0.100000
v 0.057500 0.037500 -0.130000
v 0.057500 0.112500 -0.130000
v 0.092500 0.037500 -0.100000
v 0.092500 0.112500 -0.100000
v 0.092500 0.037500 -0.130000
v 0.092500 0.112500 -0.130000
vn -0.0000 1.0000 -0.0000
vn -0.0000 -1.0000 -0.0000
vn 0.9899 0.1414 -0.0000
vn -0.9899 0.1414 -0.0000
vn -0.0000 0.1065 -0.9943
vn -0.0000 0.1065 0.9943
vn 1.0000 -0.0000 -0.0000
vn -1.0000 -0.0000 -0.0000
vn -0.0000 -0.0000 -1.0000
vn -0.0000 -0.0000 1.0000
vn 0.9398 0.3417 -0.0000
vn -0.9398 0.3417 -0.0000
vn -0.0000 0.0725 -0.9974
vn -0.0000 0.0725 0.9974
vt 0.085938 0.156250
vt 0.171875 0.156250
vt 0.171875 0.226562
vt 0.085938 0.226562
vt 0.085938 0.015625
vt 0.171875 0.015625
vt 0.171875 0.085938
vt 0.085938 0.085938
vt 0.242188 0.085938
vt 0.242188 0.156250
vt 0.015625 0.085938
vt 0.015625 0.156250
vt 0.328125 0.085938
vt 0.328125 0.156250
vt 0.640625 0.101562
vt 0.664062 0.101562
vt 0.664062 0.148438
vt 0.640625 0.148438
vt 0.640625 0.015625
vt 0.664062 0.015625
vt 0.664062 0.062500
vt 0.640625 0.062500
vt 0.710938 0.062500
vt 0.710938 0.101562
vt 0.593750 0.062500
vt 0.593750 0.101562
vt 0.734375 0.062500
vt 0.734375 0.101562
vt 0.179688 0.304688
vt 0.203125 0.304688
vt 0.203125 0.328125
vt 0.179688 0.328125
vt 0.179688 0.242188
vt 0.203125 0.242188
vt 0.203125 0.265625
vt 0.179688 0.265625
vt 0.226562 0.265625
vt 0.226562 0.304688
vt 0.156250 0.265625
vt 0.156250 0.304688
vt 0.250000 0.265625
vt 0.250000 0.304688
vt 0.796875 0.101562
vt 0.820312 0.101562
vt 0.820312 0.148438
vt 0.796875 0.148438
vt 0.796875 0.015625
vt 0.820312 0.015625
vt 0.820312 0.062500
vt 0.796875 0.062500
vt 0.867188 0.062500
vt 0.867188 0.101562
vt 0.750000 0.062500
vt 0.750000 0.101562
vt 0.890625 0.062500
vt 0.890625 0.101562
vt 0.289062 0.304688
vt 0.312500 0.304688
vt 0.312500 0.328125
vt 0.289062 0.328125
vt 0.289062 0.242188
vt 0.312500 0.242188
vt 0.312500 0.265625
vt 0.289062 0.265625
vt 0.335938 0.265625
vt 0.335938 0.304688
vt 0.265625 0.265625
vt 0.265625 0.304688
vt 0.359375 0.265625
vt 0.359375 0.304688
vt 0.398438 0.125000
vt 0.460938 0.125000
vt 0.460938 0.179688
vt 0.398438 0.179688
vt 0.398438 0.015625
vt 0.460938 0.015625
vt 0.460938 0.070312
vt 0.398438 0.070312
vt 0.515625 0.070312
vt 0.515625 0.125000
vt 0.343750 0.070312
vt 0.343750 0.125000
vt 0.578125 0.070312
vt 0.578125 0.125000
vt 0.468750 0.289062
vt 0.492188 0.289062
vt 0.492188 0.304688
vt 0.468750 0.304688
vt 0.468750 0.242188
vt 0.492188 0.242188
vt 0.492188 0.257812
vt 0.468750 0.257812
vt 0.507812 0.257812
vt 0.507812 0.289062
vt 0.453125 0.257812
vt 0.453125 0.289062
vt 0.531250 0.257812
vt 0.531250 0.289062
vt 0.562500 0.289062
vt 0.585938 0.289062
vt 0.585938 0.304688
vt 0.562500 0.304688
vt 0.562500 0.242188
vt 0.585938 0.242188
vt 0.585938 0.257812
vt 0.562500 0.257812
vt 0.601562 0.257812
vt 0.601562 0.289062
vt 0.546875 0.257812
vt 0.546875 0.289062
vt 0.625000 0.257812
vt 0.625000 0.289062
vt 0.062500 0.304688
vt 0.078125 0.304688
vt 0.078125 0.351562
vt 0.062500 0.351562
vt 0.062500 0.242188
vt 0.078125 0.242188
vt 0.078125 0.289062
vt 0.062500 0.289062
vt 0.125000 0.289062
vt 0.125000 0.304688
vt 0.015625 0.289062
vt 0.015625 0.304688
vt 0.140625 0.289062
vt 0.140625 0.304688
vt 0.390625 0.296875
vt 0.406250 0.296875
vt 0.406250 0.312500
vt 0.390625 0.312500
vt 0.390625 0.242188
vt 0.406250 0.242188
vt 0.406250 0.257812
vt 0.390625 0.257812
vt 0.421875 0.257812
vt 0.421875 0.296875
vt 0.375000 0.257812
vt 0.375000 0.296875
vt 0.437500 0.257812
vt 0.437500 0.296875
s 0
usemtl Plush_CatTex
f 2/1/1 6/2/1 8/3/1 4/4/1
f 3/5/2 7/6/2 5/7/2 1/8/2
f 5/7/3 7/9/3 8/10/3 6/2/3
f 3/11/4 1/8/4 2/1/4 4/12/4
f 7/9/5 3/13/5 4/14/5 8/10/5
f 1/8/6 5/7/6 6/2/6 2/1/6
f 10/15/1 14/16/1 16/17/1 12/18/1
f 11/19/2 15/20/2 13/21/2 9/22/2
f 13/21/7 15/23/7 16/24/7 14/16/7
f 11/25/8 9/22/8 10/15/8 12/26/8
f 15/23/9 11/27/9 12/28/9 16/24/9
f 9/22/10 13/21/10 14/16/10 10/15/10
f 18/29/1 22/30/1 24/31/1 20/32/1
f 19/33/2 23/34/2 21/35/2 17/36/2
f 21/35/7 23/37/7 24/38/7 22/30/7
f 19/39/8 17/36/8 18/29/8 20/40/8
f 23/37/9 19/41/9 20/42/9 24/38/9
f 17/36/10 21/35/10 22/30/10 18/29/10
f 26/43/1 30/44/1 32/45/1 28/46/1
f 27/47/2 31/48/2 29/49/2 25/50/2
f 29/49/7 31/51/7 32/52/7 30/44/7
f 27/53/8 25/50/8 26/43/8 28/54/8
f 31/51/9 27/55/9 28/56/9 32/52/9
f 25/50/10 29/49/10 30/44/10 26/43/10
f 34/57/1 38/58/1 40/59/1 36/60/1
f 35/61/2 39/62/2 37/63/2 33/64/2
f 37/63/7 39/65/7 40/66/7 38/58/7
f 35/67/8 33/64/8 34/57/8 36/68/8
f 39/65/9 35/69/9 36/70/9 40/66/9
f 33/64/10 37/63/10 38/58/10 34/57/10
f 42/71/1 46/72/1 48/73/1 44/74/1
f 43/75/2 47/76/2 45/77/2 41/78/2
f 45/77/7 47/79/7 48/80/7 46/72/7
f 43/81/8 41/78/8 42/71/8 44/82/8
f 47/79/9 43/83/9 44/84/9 48/80/9
f 41/78/10 45/77/10 46/72/10 42/71/10
f 50/85/1 54/86/1 56/87/1 52/88/1
f 51/89/2 55/90/2 53/91/2 49/92/2
f 53/91/11 55/93/11 56/94/11 54/86/11
f 51/95/12 49/92/12 50/85/12 52/96/12
f 55/93/13 51/97/13 52/98/13 56/94/13
f 49/92/14 53/91/14 54/86/14 50/85/14
f 58/99/1 62/100/1 64/101/1 60/102/1
f 59/103/2 63/104/2 61/105/2 57/106/2
f 61/105/11 63/107/11 64/108/11 62/100/11
f 59/109/12 57/106/12 58/99/12 60/110/12
f 63/107/13 59/111/13 60/112/13 64/108/13
f 57/106/14 61/105/14 62/100/14 58/99/14
f 66/113/1 70/114/1 72/115/1 68/116/1
f 67/117/2 71/118/2 69/119/2 65/120/2
f 69/119/7 71/121/7 72/122/7 70/114/7
f 67/123/8 65/120/8 66/113/8 68/124/8
f 71/121/9 67/125/9 68/126/9 72/122/9
f 65/120/10 69/119/10 70/114/10 66/113/10
f 74/127/1 78/128/1 80/129/1 76/130/1
f 75/131/2 79/132/2 77/133/2 73/134/2
f 77/133/7 79/135/7 80/136/7 78/128/7
f 75/137/8 73/134/8 74/127/8 76/138/8
f 79/135/9 75/139/9 76/140/9 80/136/9
f 73/134/10 77/133/10 78/128/10 74/127/10
