# Blender 5.1.1
# www.blender.org
mtllib Portal.mtl
o Portal_Frame
v 1.500000 0.000000 0.115000
v 1.448889 0.388229 0.115000
v 1.299038 0.750000 0.115000
v 1.060660 1.060660 0.115000
v 0.750000 1.299038 0.115000
v 0.388229 1.448889 0.115000
v 0.000000 1.500000 0.115000
v -0.388229 1.448889 0.115000
v -0.750000 1.299038 0.115000
v -1.060660 1.060660 0.115000
v -1.299038 0.750000 0.115000
v -1.448889 0.388229 0.115000
v -1.500000 0.000000 0.115000
v -1.448889 -0.388229 0.115000
v -1.299038 -0.750000 0.115000
v -1.060660 -1.060660 0.115000
v -0.750000 -1.299038 0.115000
v -0.388229 -1.448889 0.115000
v -0.000000 -1.500000 0.115000
v 0.388229 -1.448889 0.115000
v 0.750000 -1.299038 0.115000
v 1.060660 -1.060660 0.115000
v 1.299038 -0.750000 0.115000
v 1.448889 -0.388229 0.115000
v 1.500000 0.000000 -0.115000
v 1.448889 0.388229 -0.115000
v 1.299038 0.750000 -0.115000
v 1.060660 1.060660 -0.115000
v 0.750000 1.299038 -0.115000
v 0.388229 1.448889 -0.115000
v 0.000000 1.500000 -0.115000
v -0.388229 1.448889 -0.115000
v -0.750000 1.299038 -0.115000
v -1.060660 1.060660 -0.115000
v -1.299038 0.750000 -0.115000
v -1.448889 0.388229 -0.115000
v -1.500000 0.000000 -0.115000
v -1.448889 -0.388229 -0.115000
v -1.299038 -0.750000 -0.115000
v -1.060660 -1.060660 -0.115000
v -0.750000 -1.299038 -0.115000
v -0.388229 -1.448889 -0.115000
v -0.000000 -1.500000 -0.115000
v 0.388229 -1.448889 -0.115000
v 0.750000 -1.299038 -0.115000
v 1.060660 -1.060660 -0.115000
v 1.299038 -0.750000 -0.115000
v 1.448889 -0.388229 -0.115000
v 1.170000 0.000000 0.115000
v 1.130133 0.302818 0.115000
v 1.013250 0.585000 0.115000
v 0.827315 0.827315 0.115000
v 0.585000 1.013250 0.115000
v 0.302818 1.130133 0.115000
v 0.000000 1.170000 0.115000
v -0.302818 1.130133 0.115000
v -0.585000 1.013250 0.115000
v -0.827315 0.827315 0.115000
v -1.013250 0.585000 0.115000
v -1.130133 0.302818 0.115000
v -1.170000 0.000000 0.115000
v -1.130133 -0.302818 0.115000
v -1.013250 -0.585000 0.115000
v -0.827315 -0.827315 0.115000
v -0.585000 -1.013250 0.115000
v -0.302818 -1.130133 0.115000
v -0.000000 -1.170000 0.115000
v 0.302818 -1.130133 0.115000
v 0.585000 -1.013250 0.115000
v 0.827315 -0.827315 0.115000
v 1.013250 -0.585000 0.115000
v 1.130133 -0.302818 0.115000
v 1.170000 0.000000 -0.115000
v 1.130133 0.302818 -0.115000
v 1.013250 0.585000 -0.115000
v 0.827315 0.827315 -0.115000
v 0.585000 1.013250 -0.115000
v 0.302818 1.130133 -0.115000
v 0.000000 1.170000 -0.115000
v -0.302818 1.130133 -0.115000
v -0.585000 1.013250 -0.115000
v -0.827315 0.827315 -0.115000
v -1.013250 0.585000 -0.115000
v -1.130133 0.302818 -0.115000
v -1.170000 0.000000 -0.115000
v -1.130133 -0.302818 -0.115000
v -1.013250 -0.585000 -0.115000
v -0.827315 -0.827315 -0.115000
v -0.585000 -1.013250 -0.115000
v -0.302818 -1.130133 -0.115000
v -0.000000 -1.170000 -0.115000
v 0.302818 -1.130133 -0.115000
v 0.585000 -1.013250 -0.115000
v 0.827315 -0.827315 -0.115000
v 1.013250 -0.585000 -0.115000
v 1.130133 -0.302818 -0.115000
vn 0.9914 0.1305 -0.0000
vn -0.9914 -0.1305 -0.0000
vn -0.0000 -0.0000 1.0000
vn -0.0000 -0.0000 -1.0000
vn 0.9239 0.3827 -0.0000
vn -0.9239 -0.3827 -0.0000
vn 0.7934 0.6088 -0.0000
vn -0.7934 -0.6088 -0.0000
vn 0.6088 0.7934 -0.0000
vn -0.6088 -0.7934 -0.0000
vn 0.3827 0.9239 -0.0000
vn -0.3827 -0.9239 -0.0000
vn 0.1305 0.9914 -0.0000
vn -0.1305 -0.9914 -0.0000
vn -0.1305 0.9914 -0.0000
vn 0.1305 -0.9914 -0.0000
vn -0.3827 0.9239 -0.0000
vn 0.3827 -0.9239 -0.0000
vn -0.6088 0.7934 -0.0000
vn 0.6088 -0.7934 -0.0000
vn -0.7934 0.6088 -0.0000
vn 0.7934 -0.6088 -0.0000
vn -0.9239 0.3827 -0.0000
vn 0.9239 -0.3827 -0.0000
vn -0.9914 0.1305 -0.0000
vn 0.9914 -0.1305 -0.0000
vt 0.003906 0.003906
vt 0.003906 0.017578
vt 0.029297 0.017578
vt 0.029297 0.003906
vt 0.003906 0.021484
vt 0.003906 0.035156
vt 0.023438 0.035156
vt 0.023438 0.021484
vt 0.003906 0.039062
vt 0.003906 0.060547
vt 0.025391 0.060547
vt 0.025391 0.039062
vt 0.003906 0.064453
vt 0.003906 0.085938
vt 0.025391 0.085938
vt 0.025391 0.064453
vt 0.054688 0.017578
vt 0.054688 0.003906
vt 0.042969 0.035156
vt 0.042969 0.021484
vt 0.046875 0.060547
vt 0.046875 0.039062
vt 0.046875 0.085938
vt 0.046875 0.064453
vt 0.080078 0.017578
vt 0.080078 0.003906
vt 0.062500 0.035156
vt 0.062500 0.021484
vt 0.068359 0.060547
vt 0.068359 0.039062
vt 0.068359 0.085938
vt 0.068359 0.064453
vt 0.105469 0.017578
vt 0.105469 0.003906
vt 0.082031 0.035156
vt 0.082031 0.021484
vt 0.089844 0.060547
vt 0.089844 0.039062
vt 0.089844 0.085938
vt 0.089844 0.064453
vt 0.130859 0.017578
vt 0.130859 0.003906
vt 0.101562 0.035156
vt 0.101562 0.021484
vt 0.111328 0.060547
vt 0.111328 0.039062
vt 0.111328 0.085938
vt 0.111328 0.064453
vt 0.156250 0.017578
vt 0.156250 0.003906
vt 0.121094 0.035156
vt 0.121094 0.021484
vt 0.132812 0.060547
vt 0.132812 0.039062
vt 0.132812 0.085938
vt 0.132812 0.064453
vt 0.181641 0.017578
vt 0.181641 0.003906
vt 0.140625 0.035156
vt 0.140625 0.021484
vt 0.154297 0.060547
vt 0.154297 0.039062
vt 0.154297 0.085938
vt 0.154297 0.064453
vt 0.207031 0.017578
vt 0.207031 0.003906
vt 0.160156 0.035156
vt 0.160156 0.021484
vt 0.175781 0.060547
vt 0.175781 0.039062
vt 0.175781 0.085938
vt 0.175781 0.064453
vt 0.232422 0.017578
vt 0.232422 0.003906
vt 0.179688 0.035156
vt 0.179688 0.021484
vt 0.197266 0.060547
vt 0.197266 0.039062
vt 0.197266 0.085938
vt 0.197266 0.064453
vt 0.257812 0.017578
vt 0.257812 0.003906
vt 0.199219 0.035156
vt 0.199219 0.021484
vt 0.218750 0.060547
vt 0.218750 0.039062
vt 0.218750 0.085938
vt 0.218750 0.064453
vt 0.283203 0.017578
vt 0.283203 0.003906
vt 0.218750 0.035156
vt 0.218750 0.021484
vt 0.240234 0.060547
vt 0.240234 0.039062
vt 0.240234 0.085938
vt 0.240234 0.064453
vt 0.308594 0.017578
vt 0.308594 0.003906
vt 0.238281 0.035156
vt 0.238281 0.021484
vt 0.261719 0.060547
vt 0.261719 0.039062
vt 0.261719 0.085938
vt 0.261719 0.064453
vt 0.333984 0.017578
vt 0.333984 0.003906
vt 0.257812 0.035156
vt 0.257812 0.021484
vt 0.283203 0.060547
vt 0.283203 0.039062
vt 0.283203 0.085938
vt 0.283203 0.064453
vt 0.359375 0.017578
vt 0.359375 0.003906
vt 0.277344 0.035156
vt 0.277344 0.021484
vt 0.304688 0.060547
vt 0.304688 0.039062
vt 0.304688 0.085938
vt 0.304688 0.064453
vt 0.384766 0.017578
vt 0.384766 0.003906
vt 0.296875 0.035156
vt 0.296875 0.021484
vt 0.326172 0.060547
vt 0.326172 0.039062
vt 0.326172 0.085938
vt 0.326172 0.064453
vt 0.410156 0.017578
vt 0.410156 0.003906
vt 0.316406 0.035156
vt 0.316406 0.021484
vt 0.347656 0.060547
vt 0.347656 0.039062
vt 0.347656 0.085938
vt 0.347656 0.064453
vt 0.435547 0.017578
vt 0.435547 0.003906
vt 0.335938 0.035156
vt 0.335938 0.021484
vt 0.369141 0.060547
vt 0.369141 0.039062
vt 0.369141 0.085938
vt 0.369141 0.064453
vt 0.460938 0.017578
vt 0.460938 0.003906
vt 0.355469 0.035156
vt 0.355469 0.021484
vt 0.390625 0.060547
vt 0.390625 0.039062
vt 0.390625 0.085938
vt 0.390625 0.064453
vt 0.486328 0.017578
vt 0.486328 0.003906
vt 0.375000 0.035156
vt 0.375000 0.021484
vt 0.412109 0.060547
vt 0.412109 0.039062
vt 0.412109 0.085938
vt 0.412109 0.064453
vt 0.511719 0.017578
vt 0.511719 0.003906
vt 0.394531 0.035156
vt 0.394531 0.021484
vt 0.433594 0.060547
vt 0.433594 0.039062
vt 0.433594 0.085938
vt 0.433594 0.064453
vt 0.537109 0.017578
vt 0.537109 0.003906
vt 0.414062 0.035156
vt 0.414062 0.021484
vt 0.455078 0.060547
vt 0.455078 0.039062
vt 0.455078 0.085938
vt 0.455078 0.064453
vt 0.562500 0.017578
vt 0.562500 0.003906
vt 0.433594 0.035156
vt 0.433594 0.021484
vt 0.476562 0.060547
vt 0.476562 0.039062
vt 0.476562 0.085938
vt 0.476562 0.064453
vt 0.587891 0.017578
vt 0.587891 0.003906
vt 0.453125 0.035156
vt 0.453125 0.021484
vt 0.498047 0.060547
vt 0.498047 0.039062
vt 0.498047 0.085938
vt 0.498047 0.064453
vt 0.613281 0.017578
vt 0.613281 0.003906
vt 0.472656 0.035156
vt 0.472656 0.021484
vt 0.519531 0.060547
vt 0.519531 0.039062
vt 0.519531 0.085938
vt 0.519531 0.064453
s 0
usemtl Portal_FrameTex
f 1/1/1 25/2/1 26/3/1 2/4/1
f 73/5/2 49/6/2 50/7/2 74/8/2
f 49/9/3 1/10/3 2/11/3 50/12/3
f 25/13/4 73/14/4 74/15/4 26/16/4
f 2/4/5 26/3/5 27/17/5 3/18/5
f 74/8/6 50/7/6 51/19/6 75/20/6
f 50/12/3 2/11/3 3/21/3 51/22/3
f 26/16/4 74/15/4 75/23/4 27/24/4
f 3/18/7 27/17/7 28/25/7 4/26/7
f 75/20/8 51/19/8 52/27/8 76/28/8
f 51/22/3 3/21/3 4/29/3 52/30/3
f 27/24/4 75/23/4 76/31/4 28/32/4
f 4/26/9 28/25/9 29/33/9 5/34/9
f 76/28/10 52/27/10 53/35/10 77/36/10
f 52/30/3 4/29/3 5/37/3 53/38/3
f 28/32/4 76/31/4 77/39/4 29/40/4
f 5/34/11 29/33/11 30/41/11 6/42/11
f 77/36/12 53/35/12 54/43/12 78/44/12
f 53/38/3 5/37/3 6/45/3 54/46/3
f 29/40/4 77/39/4 78/47/4 30/48/4
f 6/42/13 30/41/13 31/49/13 7/50/13
f 78/44/14 54/43/14 55/51/14 79/52/14
f 54/46/3 6/45/3 7/53/3 55/54/3
f 30/48/4 78/47/4 79/55/4 31/56/4
f 7/50/15 31/49/15 32/57/15 8/58/15
f 79/52/16 55/51/16 56/59/16 80/60/16
f 55/54/3 7/53/3 8/61/3 56/62/3
f 31/56/4 79/55/4 80/63/4 32/64/4
f 8/58/17 32/57/17 33/65/17 9/66/17
f 80/60/18 56/59/18 57/67/18 81/68/18
f 56/62/3 8/61/3 9/69/3 57/70/3
f 32/64/4 80/63/4 81/71/4 33/72/4
f 9/66/19 33/65/19 34/73/19 10/74/19
f 81/68/20 57/67/20 58/75/20 82/76/20
f 57/70/3 9/69/3 10/77/3 58/78/3
f 33/72/4 81/71/4 82/79/4 34/80/4
f 10/74/21 34/73/21 35/81/21 11/82/21
f 82/76/22 58/75/22 59/83/22 83/84/22
f 58/78/3 10/77/3 11/85/3 59/86/3
f 34/80/4 82/79/4 83/87/4 35/88/4
f 11/82/23 35/81/23 36/89/23 12/90/23
f 83/84/24 59/83/24 60/91/24 84/92/24
f 59/86/3 11/85/3 12/93/3 60/94/3
f 35/88/4 83/87/4 84/95/4 36/96/4
f 12/90/25 36/89/25 37/97/25 13/98/25
f 84/92/26 60/91/26 61/99/26 85/100/26
f 60/94/3 12/93/3 13/101/3 61/102/3
f 36/96/4 84/95/4 85/103/4 37/104/4
f 13/98/2 37/97/2 38/105/2 14/106/2
f 85/100/1 61/99/1 62/107/1 86/108/1
f 61/102/3 13/101/3 14/109/3 62/110/3
f 37/104/4 85/103/4 86/111/4 38/112/4
f 14/106/6 38/105/6 39/113/6 15/114/6
f 86/108/5 62/107/5 63/115/5 87/116/5
f 62/110/3 14/109/3 15/117/3 63/118/3
f 38/112/4 86/111/4 87/119/4 39/120/4
f 15/114/8 39/113/8 40/121/8 16/122/8
f 87/116/7 63/115/7 64/123/7 88/124/7
f 63/118/3 15/117/3 16/125/3 64/126/3
f 39/120/4 87/119/4 88/127/4 40/128/4
f 16/122/10 40/121/10 41/129/10 17/130/10
f 88/124/9 64/123/9 65/131/9 89/132/9
f 64/126/3 16/125/3 17/133/3 65/134/3
f 40/128/4 88/127/4 89/135/4 41/136/4
f 17/130/12 41/129/12 42/137/12 18/138/12
f 89/132/11 65/131/11 66/139/11 90/140/11
f 65/134/3 17/133/3 18/141/3 66/142/3
f 41/136/4 89/135/4 90/143/4 42/144/4
f 18/138/14 42/137/14 43/145/14 19/146/14
f 90/140/13 66/139/13 67/147/13 91/148/13
f 66/142/3 18/141/3 19/149/3 67/150/3
f 42/144/4 90/143/4 91/151/4 43/152/4
f 19/146/16 43/145/16 44/153/16 20/154/16
f 91/148/15 67/147/15 68/155/15 92/156/15
f 67/150/3 19/149/3 20/157/3 68/158/3
f 43/152/4 91/151/4 92/159/4 44/160/4
f 20/154/18 44/153/18 45/161/18 21/162/18
f 92/156/17 68/155/17 69/163/17 93/164/17
f 68/158/3 20/157/3 21/165/3 69/166/3
f 44/160/4 92/159/4 93/167/4 45/168/4
f 21/162/20 45/161/20 46/169/20 22/170/20
f 93/164/19 69/163/19 70/171/19 94/172/19
f 69/166/3 21/165/3 22/173/3 70/174/3
f 45/168/4 93/167/4 94/175/4 46/176/4
f 22/170/22 46/169/22 47/177/22 23/178/22
f 94/172/21 70/171/21 71/179/21 95/180/21
f 70/174/3 22/173/3 23/181/3 71/182/3
f 46/176/4 94/175/4 95/183/4 47/184/4
f 23/178/24 47/177/24 48/185/24 24/186/24
f 95/180/23 71/179/23 72/187/23 96/188/23
f 71/182/3 23/181/3 24/189/3 72/190/3
f 47/184/4 95/183/4 96/191/4 48/192/4
f 24/186/26 48/185/26 25/193/26 1/194/26
f 96/188/25 72/187/25 49/195/25 73/196/25
f 72/190/3 24/189/3 1/197/3 49/198/3
f 48/192/4 96/191/4 73/199/4 25/200/4
o Portal_AccentRing
v 1.170000 0.000000 0.090000
v 1.130133 0.302818 0.090000
v 1.013250 0.585000 0.090000
v 0.827315 0.827315 0.090000
v 0.585000 1.013250 0.090000
v 0.302818 1.130133 0.090000
v 0.000000 1.170000 0.090000
v -0.302818 1.130133 0.090000
v -0.585000 1.013250 0.090000
v -0.827315 0.827315 0.090000
v -1.013250 0.585000 0.090000
v -1.130133 0.302818 0.090000
v -1.170000 0.000000 0.090000
v -1.130133 -0.302818 0.090000
v -1.013250 -0.585000 0.090000
v -0.827315 -0.827315 0.090000
v -0.585000 -1.013250 0.090000
v -0.302818 -1.130133 0.090000
v -0.000000 -1.170000 0.090000
v 0.302818 -1.130133 0.090000
v 0.585000 -1.013250 0.090000
v 0.827315 -0.827315 0.090000
v 1.013250 -0.585000 0.090000
v 1.130133 -0.302818 0.090000
v 1.170000 0.000000 0.020000
v 1.130133 0.302818 0.020000
v 1.013250 0.585000 0.020000
v 0.827315 0.827315 0.020000
v 0.585000 1.013250 0.020000
v 0.302818 1.130133 0.020000
v 0.000000 1.170000 0.020000
v -0.302818 1.130133 0.020000
v -0.585000 1.013250 0.020000
v -0.827315 0.827315 0.020000
v -1.013250 0.585000 0.020000
v -1.130133 0.302818 0.020000
v -1.170000 0.000000 0.020000
v -1.130133 -0.302818 0.020000
v -1.013250 -0.585000 0.020000
v -0.827315 -0.827315 0.020000
v -0.585000 -1.013250 0.020000
v -0.302818 -1.130133 0.020000
v -0.000000 -1.170000 0.020000
v 0.302818 -1.130133 0.020000
v 0.585000 -1.013250 0.020000
v 0.827315 -0.827315 0.020000
v 1.013250 -0.585000 0.020000
v 1.130133 -0.302818 0.020000
v 1.020000 0.000000 0.090000
v 0.985244 0.263995 0.090000
v 0.883346 0.510000 0.090000
v 0.721249 0.721249 0.090000
v 0.510000 0.883346 0.090000
v 0.263995 0.985244 0.090000
v 0.000000 1.020000 0.090000
v -0.263995 0.985244 0.090000
v -0.510000 0.883346 0.090000
v -0.721249 0.721249 0.090000
v -0.883346 0.510000 0.090000
v -0.985244 0.263995 0.090000
v -1.020000 0.000000 0.090000
v -0.985244 -0.263995 0.090000
v -0.883346 -0.510000 0.090000
v -0.721249 -0.721249 0.090000
v -0.510000 -0.883346 0.090000
v -0.263995 -0.985244 0.090000
v -0.000000 -1.020000 0.090000
v 0.263995 -0.985244 0.090000
v 0.510000 -0.883346 0.090000
v 0.721249 -0.721249 0.090000
v 0.883346 -0.510000 0.090000
v 0.985244 -0.263995 0.090000
v 1.020000 0.000000 0.020000
v 0.985244 0.263995 0.020000
v 0.883346 0.510000 0.020000
v 0.721249 0.721249 0.020000
v 0.510000 0.883346 0.020000
v 0.263995 0.985244 0.020000
v 0.000000 1.020000 0.020000
v -0.263995 0.985244 0.020000
v -0.510000 0.883346 0.020000
v -0.721249 0.721249 0.020000
v -0.883346 0.510000 0.020000
v -0.985244 0.263995 0.020000
v -1.020000 0.000000 0.020000
v -0.985244 -0.263995 0.020000
v -0.883346 -0.510000 0.020000
v -0.721249 -0.721249 0.020000
v -0.510000 -0.883346 0.020000
v -0.263995 -0.985244 0.020000
v -0.000000 -1.020000 0.020000
v 0.263995 -0.985244 0.020000
v 0.510000 -0.883346 0.020000
v 0.721249 -0.721249 0.020000
v 0.883346 -0.510000 0.020000
v 0.985244 -0.263995 0.020000
vn 0.9914 0.1305 -0.0000
vn -0.9914 -0.1305 -0.0000
vn -0.0000 -0.0000 1.0000
vn -0.0000 -0.0000 -1.0000
vn 0.9239 0.3827 -0.0000
vn -0.9239 -0.3827 -0.0000
vn 0.7934 0.6088 -0.0000
vn -0.7934 -0.6088 -0.0000
vn 0.6088 0.7934 -0.0000
vn -0.6088 -0.7934 -0.0000
vn 0.3827 0.9239 -0.0000
vn -0.3827 -0.9239 -0.0000
vn 0.1305 0.9914 -0.0000
vn -0.1305 -0.9914 -0.0000
vn -0.1305 0.9914 -0.0000
vn 0.1305 -0.9914 -0.0000
vn -0.3827 0.9239 -0.0000
vn 0.3827 -0.9239 -0.0000
vn -0.6088 0.7934 -0.0000
vn 0.6088 -0.7934 -0.0000
vn -0.7934 0.6088 -0.0000
vn 0.7934 -0.6088 -0.0000
vn -0.9239 0.3827 -0.0000
vn 0.9239 -0.3827 -0.0000
vn -0.9914 0.1305 -0.0000
vn 0.9914 -0.1305 -0.0000
vt 0.007812 0.007812
vt 0.007812 0.015625
vt 0.046875 0.015625
vt 0.046875 0.007812
vt 0.007812 0.023438
vt 0.007812 0.031250
vt 0.042969 0.031250
vt 0.042969 0.023438
vt 0.007812 0.039062
vt 0.007812 0.058594
vt 0.042969 0.058594
vt 0.042969 0.039062
vt 0.007812 0.066406
vt 0.007812 0.085938
vt 0.042969 0.085938
vt 0.042969 0.066406
vt 0.085938 0.015625
vt 0.085938 0.007812
vt 0.078125 0.031250
vt 0.078125 0.023438
vt 0.078125 0.058594
vt 0.078125 0.039062
vt 0.078125 0.085938
vt 0.078125 0.066406
vt 0.125000 0.015625
vt 0.125000 0.007812
vt 0.113281 0.031250
vt 0.113281 0.023438
vt 0.113281 0.058594
vt 0.113281 0.039062
vt 0.113281 0.085938
vt 0.113281 0.066406
vt 0.164062 0.015625
vt 0.164062 0.007812
vt 0.148438 0.031250
vt 0.148438 0.023438
vt 0.148438 0.058594
vt 0.148438 0.039062
vt 0.148438 0.085938
vt 0.148438 0.066406
vt 0.203125 0.015625
vt 0.203125 0.007812
vt 0.183594 0.031250
vt 0.183594 0.023438
vt 0.183594 0.058594
vt 0.183594 0.039062
vt 0.183594 0.085938
vt 0.183594 0.066406
vt 0.242188 0.015625
vt 0.242188 0.007812
vt 0.218750 0.031250
vt 0.218750 0.023438
vt 0.218750 0.058594
vt 0.218750 0.039062
vt 0.218750 0.085938
vt 0.218750 0.066406
vt 0.281250 0.015625
vt 0.281250 0.007812
vt 0.253906 0.031250
vt 0.253906 0.023438
vt 0.253906 0.058594
vt 0.253906 0.039062
vt 0.253906 0.085938
vt 0.253906 0.066406
vt 0.320312 0.015625
vt 0.320312 0.007812
vt 0.289062 0.031250
vt 0.289062 0.023438
vt 0.289062 0.058594
vt 0.289062 0.039062
vt 0.289062 0.085938
vt 0.289062 0.066406
vt 0.359375 0.015625
vt 0.359375 0.007812
vt 0.324219 0.031250
vt 0.324219 0.023438
vt 0.324219 0.058594
vt 0.324219 0.039062
vt 0.324219 0.085938
vt 0.324219 0.066406
vt 0.398438 0.015625
vt 0.398438 0.007812
vt 0.359375 0.031250
vt 0.359375 0.023438
vt 0.359375 0.058594
vt 0.359375 0.039062
vt 0.359375 0.085938
vt 0.359375 0.066406
vt 0.437500 0.015625
vt 0.437500 0.007812
vt 0.394531 0.031250
vt 0.394531 0.023438
vt 0.394531 0.058594
vt 0.394531 0.039062
vt 0.394531 0.085938
vt 0.394531 0.066406
vt 0.476562 0.015625
vt 0.476562 0.007812
vt 0.429688 0.031250
vt 0.429688 0.023438
vt 0.429688 0.058594
vt 0.429688 0.039062
vt 0.429688 0.085938
vt 0.429688 0.066406
vt 0.515625 0.015625
vt 0.515625 0.007812
vt 0.464844 0.031250
vt 0.464844 0.023438
vt 0.464844 0.058594
vt 0.464844 0.039062
vt 0.464844 0.085938
vt 0.464844 0.066406
vt 0.554688 0.015625
vt 0.554688 0.007812
vt 0.500000 0.031250
vt 0.500000 0.023438
vt 0.500000 0.058594
vt 0.500000 0.039062
vt 0.500000 0.085938
vt 0.500000 0.066406
vt 0.593750 0.015625
vt 0.593750 0.007812
vt 0.535156 0.031250
vt 0.535156 0.023438
vt 0.535156 0.058594
vt 0.535156 0.039062
vt 0.535156 0.085938
vt 0.535156 0.066406
vt 0.632812 0.015625
vt 0.632812 0.007812
vt 0.570312 0.031250
vt 0.570312 0.023438
vt 0.570312 0.058594
vt 0.570312 0.039062
vt 0.570312 0.085938
vt 0.570312 0.066406
vt 0.671875 0.015625
vt 0.671875 0.007812
vt 0.605469 0.031250
vt 0.605469 0.023438
vt 0.605469 0.058594
vt 0.605469 0.039062
vt 0.605469 0.085938
vt 0.605469 0.066406
vt 0.710938 0.015625
vt 0.710938 0.007812
vt 0.640625 0.031250
vt 0.640625 0.023438
vt 0.640625 0.058594
vt 0.640625 0.039062
vt 0.640625 0.085938
vt 0.640625 0.066406
vt 0.750000 0.015625
vt 0.750000 0.007812
vt 0.675781 0.031250
vt 0.675781 0.023438
vt 0.675781 0.058594
vt 0.675781 0.039062
vt 0.675781 0.085938
vt 0.675781 0.066406
vt 0.789062 0.015625
vt 0.789062 0.007812
vt 0.710938 0.031250
vt 0.710938 0.023438
vt 0.710938 0.058594
vt 0.710938 0.039062
vt 0.710938 0.085938
vt 0.710938 0.066406
vt 0.828125 0.015625
vt 0.828125 0.007812
vt 0.746094 0.031250
vt 0.746094 0.023438
vt 0.746094 0.058594
vt 0.746094 0.039062
vt 0.746094 0.085938
vt 0.746094 0.066406
vt 0.867188 0.015625
vt 0.867188 0.007812
vt 0.781250 0.031250
vt 0.781250 0.023438
vt 0.781250 0.058594
vt 0.781250 0.039062
vt 0.781250 0.085938
vt 0.781250 0.066406
vt 0.906250 0.015625
vt 0.906250 0.007812
vt 0.816406 0.031250
vt 0.816406 0.023438
vt 0.816406 0.058594
vt 0.816406 0.039062
vt 0.816406 0.085938
vt 0.816406 0.066406
vt 0.945312 0.015625
vt 0.945312 0.007812
vt 0.851562 0.031250
vt 0.851562 0.023438
vt 0.851562 0.058594
vt 0.851562 0.039062
vt 0.851562 0.085938
vt 0.851562 0.066406
s 0
usemtl Portal_AccentRingTex
f 97/201/27 121/202/27 122/203/27 98/204/27
f 169/205/28 145/206/28 146/207/28 170/208/28
f 145/209/29 97/210/29 98/211/29 146/212/29
f 121/213/30 169/214/30 170/215/30 122/216/30
f 98/204/31 122/203/31 123/217/31 99/218/31
f 170/208/32 146/207/32 147/219/32 171/220/32
f 146/212/29 98/211/29 99/221/29 147/222/29
f 122/216/30 170/215/30 171/223/30 123/224/30
f 99/218/33 123/217/33 124/225/33 100/226/33
f 171/220/34 147/219/34 148/227/34 172/228/34
f 147/222/29 99/221/29 100/229/29 148/230/29
f 123/224/30 171/223/30 172/231/30 124/232/30
f 100/226/35 124/225/35 125/233/35 101/234/35
f 172/228/36 148/227/36 149/235/36 173/236/36
f 148/230/29 100/229/29 101/237/29 149/238/29
f 124/232/30 172/231/30 173/239/30 125/240/30
f 101/234/37 125/233/37 126/241/37 102/242/37
f 173/236/38 149/235/38 150/243/38 174/244/38
f 149/238/29 101/237/29 102/245/29 150/246/29
f 125/240/30 173/239/30 174/247/30 126/248/30
f 102/242/39 126/241/39 127/249/39 103/250/39
f 174/244/40 150/243/40 151/251/40 175/252/40
f 150/246/29 102/245/29 103/253/29 151/254/29
f 126/248/30 174/247/30 175/255/30 127/256/30
f 103/250/41 127/249/41 128/257/41 104/258/41
f 175/252/42 151/251/42 152/259/42 176/260/42
f 151/254/29 103/253/29 104/261/29 152/262/29
f 127/256/30 175/255/30 176/263/30 128/264/30
f 104/258/43 128/257/43 129/265/43 105/266/43
f 176/260/44 152/259/44 153/267/44 177/268/44
f 152/262/29 104/261/29 105/269/29 153/270/29
f 128/264/30 176/263/30 177/271/30 129/272/30
f 105/266/45 129/265/45 130/273/45 106/274/45
f 177/268/46 153/267/46 154/275/46 178/276/46
f 153/270/29 105/269/29 106/277/29 154/278/29
f 129/272/30 177/271/30 178/279/30 130/280/30
f 106/274/47 130/273/47 131/281/47 107/282/47
f 178/276/48 154/275/48 155/283/48 179/284/48
f 154/278/29 106/277/29 107/285/29 155/286/29
f 130/280/30 178/279/30 179/287/30 131/288/30
f 107/282/49 131/281/49 132/289/49 108/290/49
f 179/284/50 155/283/50 156/291/50 180/292/50
f 155/286/29 107/285/29 108/293/29 156/294/29
f 131/288/30 179/287/30 180/295/30 132/296/30
f 108/290/51 132/289/51 133/297/51 109/298/51
f 180/292/52 156/291/52 157/299/52 181/300/52
f 156/294/29 108/293/29 109/301/29 157/302/29
f 132/296/30 180/295/30 181/303/30 133/304/30
f 109/298/28 133/297/28 134/305/28 110/306/28
f 181/300/27 157/299/27 158/307/27 182/308/27
f 157/302/29 109/301/29 110/309/29 158/310/29
f 133/304/30 181/303/30 182/311/30 134/312/30
f 110/306/32 134/305/32 135/313/32 111/314/32
f 182/308/31 158/307/31 159/315/31 183/316/31
f 158/310/29 110/309/29 111/317/29 159/318/29
f 134/312/30 182/311/30 183/319/30 135/320/30
f 111/314/34 135/313/34 136/321/34 112/322/34
f 183/316/33 159/315/33 160/323/33 184/324/33
f 159/318/29 111/317/29 112/325/29 160/326/29
f 135/320/30 183/319/30 184/327/30 136/328/30
f 112/322/36 136/321/36 137/329/36 113/330/36
f 184/324/35 160/323/35 161/331/35 185/332/35
f 160/326/29 112/325/29 113/333/29 161/334/29
f 136/328/30 184/327/30 185/335/30 137/336/30
f 113/330/38 137/329/38 138/337/38 114/338/38
f 185/332/37 161/331/37 162/339/37 186/340/37
f 161/334/29 113/333/29 114/341/29 162/342/29
f 137/336/30 185/335/30 186/343/30 138/344/30
f 114/338/40 138/337/40 139/345/40 115/346/40
f 186/340/39 162/339/39 163/347/39 187/348/39
f 162/342/29 114/341/29 115/349/29 163/350/29
f 138/344/30 186/343/30 187/351/30 139/352/30
f 115/346/42 139/345/42 140/353/42 116/354/42
f 187/348/41 163/347/41 164/355/41 188/356/41
f 163/350/29 115/349/29 116/357/29 164/358/29
f 139/352/30 187/351/30 188/359/30 140/360/30
f 116/354/44 140/353/44 141/361/44 117/362/44
f 188/356/43 164/355/43 165/363/43 189/364/43
f 164/358/29 116/357/29 117/365/29 165/366/29
f 140/360/30 188/359/30 189/367/30 141/368/30
f 117/362/46 141/361/46 142/369/46 118/370/46
f 189/364/45 165/363/45 166/371/45 190/372/45
f 165/366/29 117/365/29 118/373/29 166/374/29
f 141/368/30 189/367/30 190/375/30 142/376/30
f 118/370/48 142/369/48 143/377/48 119/378/48
f 190/372/47 166/371/47 167/379/47 191/380/47
f 166/374/29 118/373/29 119/381/29 167/382/29
f 142/376/30 190/375/30 191/383/30 143/384/30
f 119/378/50 143/377/50 144/385/50 120/386/50
f 191/380/49 167/379/49 168/387/49 192/388/49
f 167/382/29 119/381/29 120/389/29 168/390/29
f 143/384/30 191/383/30 192/391/30 144/392/30
f 120/386/52 144/385/52 121/393/52 97/394/52
f 192/388/51 168/387/51 145/395/51 169/396/51
f 168/390/29 120/389/29 97/397/29 145/398/29
f 144/392/30 192/391/30 169/399/30 121/400/30
o Portal_Surface
v 1.140000 0.000000 0.020000
v 1.101155 0.295054 0.020000
v 0.987269 0.570000 0.020000
v 0.806102 0.806102 0.020000
v 0.570000 0.987269 0.020000
v 0.295054 1.101155 0.020000
v 0.000000 1.140000 0.020000
v -0.295054 1.101155 0.020000
v -0.570000 0.987269 0.020000
v -0.806102 0.806102 0.020000
v -0.987269 0.570000 0.020000
v -1.101155 0.295054 0.020000
v -1.140000 0.000000 0.020000
v -1.101155 -0.295054 0.020000
v -0.987269 -0.570000 0.020000
v -0.806102 -0.806102 0.020000
v -0.570000 -0.987269 0.020000
v -0.295054 -1.101155 0.020000
v -0.000000 -1.140000 0.020000
v 0.295054 -1.101155 0.020000
v 0.570000 -0.987269 0.020000
v 0.806102 -0.806102 0.020000
v 0.987269 -0.570000 0.020000
v 1.101155 -0.295054 0.020000
vn -0.0000 -0.0000 1.0000
vt 0.570312 0.226562
vt 0.578125 0.296875
vt 0.570312 0.367188
vt 0.539062 0.437500
vt 0.492188 0.492188
vt 0.437500 0.539062
vt 0.367188 0.570312
vt 0.296875 0.578125
vt 0.226562 0.570312
vt 0.156250 0.539062
vt 0.101562 0.492188
vt 0.054688 0.437500
vt 0.023438 0.367188
vt 0.015625 0.296875
vt 0.023438 0.226562
vt 0.054688 0.156250
vt 0.101562 0.101562
vt 0.156250 0.054688
vt 0.226562 0.023438
vt 0.296875 0.015625
vt 0.367188 0.023438
vt 0.437500 0.054688
vt 0.492188 0.101562
vt 0.539062 0.156250
s 0
usemtl Portal_SurfaceTex
f 216/401/53 193/402/53 194/403/53 195/404/53 196/405/53 197/406/53 198/407/53 199/408/53 200/409/53 201/410/53 202/411/53 203/412/53 204/413/53 205/414/53 206/415/53 207/416/53 208/417/53 209/418/53 210/419/53 211/420/53 212/421/53 213/422/53 214/423/53 215/424/53
o Portal_Node0
v -0.100000 1.235000 0.130000
v -0.100000 1.435000 0.130000
v -0.100000 1.235000 -0.130000
v -0.100000 1.435000 -0.130000
v 0.100000 1.235000 0.130000
v 0.100000 1.435000 0.130000
v 0.100000 1.235000 -0.130000
v 0.100000 1.435000 -0.130000
vn -0.0000 1.0000 -0.0000
vn -0.0000 -1.0000 -0.0000
vn 1.0000 -0.0000 -0.0000
vn -1.0000 -0.0000 -0.0000
vn -0.0000 -0.0000 -1.0000
vn -0.0000 -0.0000 1.0000
vt 0.312500 0.500000
vt 0.500000 0.500000
vt 0.500000 0.750000
vt 0.312500 0.750000
vt 0.312500 0.062500
vt 0.500000 0.062500
vt 0.500000 0.312500
vt 0.312500 0.312500
vt 0.750000 0.312500
vt 0.750000 0.500000
vt 0.062500 0.312500
vt 0.062500 0.500000
vt 0.937500 0.312500
vt 0.937500 0.500000
s 0
usemtl Portal_Node0Tex
f 218/425/54 222/426/54 224/427/54 220/428/54
f 219/429/55 223/430/55 221/431/55 217/432/55
f 221/431/56 223/433/56 224/434/56 222/426/56
f 219/435/57 217/432/57 218/425/57 220/436/57
f 223/433/58 219/437/58 220/438/58 224/434/58
f 217/432/59 221/431/59 222/426/59 218/425/59
o Portal_Node1
v -1.256144 -0.767500 0.130000
v -1.256144 -0.567500 0.130000
v -1.256144 -0.767500 -0.130000
v -1.256144 -0.567500 -0.130000
v -1.056144 -0.767500 0.130000
v -1.056144 -0.567500 0.130000
v -1.056144 -0.767500 -0.130000
v -1.056144 -0.567500 -0.130000
vn -0.0000 1.0000 -0.0000
vn -0.0000 -1.0000 -0.0000
vn 1.0000 -0.0000 -0.0000
vn -1.0000 -0.0000 -0.0000
vn -0.0000 -0.0000 -1.0000
vn -0.0000 -0.0000 1.0000
vt 0.312500 0.500000
vt 0.500000 0.500000
vt 0.500000 0.750000
vt 0.312500 0.750000
vt 0.312500 0.062500
vt 0.500000 0.062500
vt 0.500000 0.312500
vt 0.312500 0.312500
vt 0.750000 0.312500
vt 0.750000 0.500000
vt 0.062500 0.312500
vt 0.062500 0.500000
vt 0.937500 0.312500
vt 0.937500 0.500000
s 0
usemtl Portal_Node1Tex
f 226/439/60 230/440/60 232/441/60 228/442/60
f 227/443/61 231/444/61 229/445/61 225/446/61
f 229/445/62 231/447/62 232/448/62 230/440/62
f 227/449/63 225/446/63 226/439/63 228/450/63
f 231/447/64 227/451/64 228/452/64 232/448/64
f 225/446/65 229/445/65 230/440/65 226/439/65
o Portal_Node2
v 1.056144 -0.767500 0.130000
v 1.056144 -0.567500 0.130000
v 1.056144 -0.767500 -0.130000
v 1.056144 -0.567500 -0.130000
v 1.256144 -0.767500 0.130000
v 1.256144 -0.567500 0.130000
v 1.256144 -0.767500 -0.130000
v 1.256144 -0.567500 -0.130000
vn -0.0000 1.0000 -0.0000
vn -0.0000 -1.0000 -0.0000
vn 1.0000 -0.0000 -0.0000
vn -1.0000 -0.0000 -0.0000
vn -0.0000 -0.0000 -1.0000
vn -0.0000 -0.0000 1.0000
vt 0.312500 0.500000
vt 0.500000 0.500000
vt 0.500000 0.750000
vt 0.312500 0.750000
vt 0.312500 0.062500
vt 0.500000 0.062500
vt 0.500000 0.312500
vt 0.312500 0.312500
vt 0.750000 0.312500
vt 0.750000 0.500000
vt 0.062500 0.312500
vt 0.062500 0.500000
vt 0.937500 0.312500
vt 0.937500 0.500000
s 0
usemtl Portal_Node2Tex
f 234/453/66 238/454/66 240/455/66 236/456/66
f 235/457/67 239/458/67 237/459/67 233/460/67
f 237/459/68 239/461/68 240/462/68 238/454/68
f 235/463/69 233/460/69 234/453/69 236/464/69
f 239/461/70 235/465/70 236/466/70 240/462/70
f 233/460/71 237/459/71 238/454/71 234/453/71
