# Blender 5.1.1
# www.blender.org
mtllib Rug.mtl
o Rug
v -1.300000 0.000000 0.850000
v -1.300000 0.022000 0.850000
v -1.300000 0.000000 -0.850000
v -1.300000 0.022000 -0.850000
v 1.300000 0.000000 0.850000
v 1.300000 0.022000 0.850000
v 1.300000 0.000000 -0.850000
v 1.300000 0.022000 -0.850000
vn -0.0000 1.0000 -0.0000
vn 1.0000 -0.0000 -0.0000
vn -1.0000 -0.0000 -0.0000
vn -0.0000 -0.0000 -1.0000
vn -0.0000 -0.0000 1.0000
vt 0.109375 0.111328
vt 0.271484 0.111328
vt 0.271484 0.216797
vt 0.109375 0.216797
vt 0.271484 0.109375
vt 0.376953 0.109375
vt 0.376953 0.111328
vt 0.003906 0.109375
vt 0.109375 0.109375
vt 0.003906 0.111328
vt 0.539062 0.109375
vt 0.539062 0.111328
s 0
usemtl RugTex
f 2/1/1 6/2/1 8/3/1 4/4/1
f 5/5/2 7/6/2 8/7/2 6/2/2
f 3/8/3 1/9/3 2/1/3 4/10/3
f 7/6/4 3/11/4 4/12/4 8/7/4
f 1/9/5 5/5/5 6/2/5 2/1/5
