# Blender 5.1.1
# www.blender.org
mtllib ShelfTray.mtl
o ShelfTray
v -0.150000 0.000000 0.120000
v -0.150000 0.030000 0.120000
v -0.150000 0.000000 -0.120000
v -0.150000 0.030000 -0.120000
v 0.150000 0.000000 0.120000
v 0.150000 0.030000 0.120000
v 0.150000 0.000000 -0.120000
v 0.150000 0.030000 -0.120000
vn -0.0000 1.0000 -0.0000
vn -0.0000 -1.0000 -0.0000
vn 1.0000 -0.0000 -0.0000
vn -1.0000 -0.0000 -0.0000
vn -0.0000 -0.0000 -1.0000
vn -0.0000 -0.0000 1.0000
vt 0.156250 0.171875
vt 0.312500 0.171875
vt 0.312500 0.296875
vt 0.156250 0.296875
vt 0.156250 0.031250
vt 0.312500 0.031250
vt 0.312500 0.156250
vt 0.156250 0.156250
vt 0.437500 0.156250
vt 0.437500 0.171875
vt 0.031250 0.156250
vt 0.031250 0.171875
vt 0.593750 0.156250
vt 0.593750 0.171875
s 0
usemtl ShelfTrayTex
f 2/1/1 6/2/1 8/3/1 4/4/1
f 3/5/2 7/6/2 5/7/2 1/8/2
f 5/7/3 7/9/3 8/10/3 6/2/3
f 3/11/4 1/8/4 2/1/4 4/12/4
f 7/9/5 3/13/5 4/14/5 8/10/5
f 1/8/6 5/7/6 6/2/6 2/1/6
