# Blender 5.1.1
# www.blender.org
mtllib WallArtFrame.mtl
o WallArtFrame
v -1.000000 0.580000 0.030000
v -1.000000 0.650000 0.030000
v -1.000000 0.580000 -0.030000
v -1.000000 0.650000 -0.030000
v 1.000000 0.580000 0.030000
v 1.000000 0.650000 0.030000
v 1.000000 0.580000 -0.030000
v 1.000000 0.650000 -0.030000
v -1.000000 -0.650000 0.030000
v -1.000000 -0.580000 0.030000
v -1.000000 -0.650000 -0.030000
v -1.000000 -0.580000 -0.030000
v 1.000000 -0.650000 0.030000
v 1.000000 -0.580000 0.030000
v 1.000000 -0.650000 -0.030000
v 1.000000 -0.580000 -0.030000
v -1.000000 -0.580000 0.030000
v -1.000000 0.580000 0.030000
v -1.000000 -0.580000 -0.030000
v -1.000000 0.580000 -0.030000
v -0.930000 -0.580000 0.030000
v -0.930000 0.580000 0.030000
v -0.930000 -0.580000 -0.030000
v -0.930000 0.580000 -0.030000
v 0.930000 -0.580000 0.030000
v 0.930000 0.580000 0.030000
v 0.930000 -0.580000 -0.030000
v 0.930000 0.580000 -0.030000
v 1.000000 -0.580000 0.030000
v 1.000000 0.580000 0.030000
v 1.000000 -0.580000 -0.030000
v 1.000000 0.580000 -0.030000
vn -0.0000 1.0000 -0.0000
vn -0.0000 -1.0000 -0.0000
vn 1.0000 -0.0000 -0.0000
vn -1.0000 -0.0000 -0.0000
vn -0.0000 -0.0000 -1.0000
vn -0.0000 -0.0000 1.0000
vt 0.093750 0.023438
vt 0.343750 0.023438
vt 0.343750 0.031250
vt 0.093750 0.031250
vt 0.093750 0.007812
vt 0.343750 0.007812
vt 0.343750 0.015625
vt 0.093750 0.015625
vt 0.351562 0.015625
vt 0.351562 0.023438
vt 0.085938 0.015625
vt 0.085938 0.023438
vt 0.601562 0.015625
vt 0.601562 0.023438
vt 0.015625 0.191406
vt 0.265625 0.191406
vt 0.265625 0.199219
vt 0.015625 0.199219
vt 0.015625 0.175781
vt 0.265625 0.175781
vt 0.265625 0.183594
vt 0.015625 0.183594
vt 0.273438 0.183594
vt 0.273438 0.191406
vt 0.007812 0.183594
vt 0.007812 0.191406
vt 0.523438 0.183594
vt 0.523438 0.191406
vt 0.015625 0.160156
vt 0.023438 0.160156
vt 0.023438 0.167969
vt 0.015625 0.167969
vt 0.015625 0.007812
vt 0.023438 0.007812
vt 0.023438 0.015625
vt 0.015625 0.015625
vt 0.031250 0.015625
vt 0.031250 0.160156
vt 0.007812 0.015625
vt 0.007812 0.160156
vt 0.039062 0.015625
vt 0.039062 0.160156
vt 0.054688 0.160156
vt 0.062500 0.160156
vt 0.062500 0.167969
vt 0.054688 0.167969
vt 0.054688 0.007812
vt 0.062500 0.007812
vt 0.062500 0.015625
vt 0.054688 0.015625
vt 0.070312 0.015625
vt 0.070312 0.160156
vt 0.046875 0.015625
vt 0.046875 0.160156
vt 0.078125 0.015625
vt 0.078125 0.160156
s 0
usemtl WallArtFrameTex
f 2/1/1 6/2/1 8/3/1 4/4/1
f 3/5/2 7/6/2 5/7/2 1/8/2
f 5/7/3 7/9/3 8/10/3 6/2/3
f 3/11/4 1/8/4 2/1/4 4/12/4
f 7/9/5 3/13/5 4/14/5 8/10/5
f 1/8/6 5/7/6 6/2/6 2/1/6
f 10/15/1 14/16/1 16/17/1 12/18/1
f 11/19/2 15/20/2 13/21/2 9/22/2
f 13/21/3 15/23/3 16/24/3 14/16/3
f 11/25/4 9/22/4 10/15/4 12/26/4
f 15/23/5 11/27/5 12/28/5 16/24/5
f 9/22/6 13/21/6 14/16/6 10/15/6
f 18/29/1 22/30/1 24/31/1 20/32/1
f 19/33/2 23/34/2 21/35/2 17/36/2
f 21/35/3 23/37/3 24/38/3 22/30/3
f 19/39/4 17/36/4 18/29/4 20/40/4
f 23/37/5 19/41/5 20/42/5 24/38/5
f 17/36/6 21/35/6 22/30/6 18/29/6
f 26/43/1 30/44/1 32/45/1 28/46/1
f 27/47/2 31/48/2 29/49/2 25/50/2
f 29/49/3 31/51/3 32/52/3 30/44/3
f 27/53/4 25/50/4 26/43/4 28/54/4
f 31/51/5 27/55/5 28/56/5 32/52/5
f 25/50/6 29/49/6 30/44/6 26/43/6
