# Blender 5.1.1
# www.blender.org
mtllib WateringCan.mtl
o WateringCan
v 0.130000 0.000000 0.000000
v 0.091924 0.000000 -0.091924
v 0.000000 0.000000 -0.130000
v -0.091924 0.000000 -0.091924
v -0.130000 0.000000 -0.000000
v -0.091924 0.000000 0.091924
v -0.000000 0.000000 0.130000
v 0.091924 0.000000 0.091924
v 0.105000 0.220000 0.000000
v 0.074246 0.220000 -0.074246
v 0.000000 0.220000 -0.105000
v -0.074246 0.220000 -0.074246
v -0.105000 0.220000 -0.000000
v -0.074246 0.220000 0.074246
v -0.000000 0.220000 0.105000
v 0.074246 0.220000 0.074246
v 0.055000 0.210000 0.000000
v 0.038891 0.210000 -0.038891
v 0.000000 0.210000 -0.055000
v -0.038891 0.210000 -0.038891
v -0.055000 0.210000 -0.000000
v -0.038891 0.210000 0.038891
v -0.000000 0.210000 0.055000
v 0.038891 0.210000 0.038891
v 0.055000 0.222000 0.000000
v 0.038891 0.222000 -0.038891
v 0.000000 0.222000 -0.055000
v -0.038891 0.222000 -0.038891
v -0.055000 0.222000 -0.000000
v -0.038891 0.222000 0.038891
v -0.000000 0.222000 0.055000
v 0.038891 0.222000 0.038891
v 0.117373 0.105683 0.022500
v 0.091562 0.142545 0.022500
v 0.117373 0.105683 -0.022500
v 0.091562 0.142545 -0.022500
v 0.248438 0.197455 0.022500
v 0.222627 0.234317 0.022500
v 0.248438 0.197455 -0.022500
v 0.222627 0.234317 -0.022500
v 0.210000 0.235000 0.030000
v 0.210000 0.255000 0.030000
v 0.210000 0.235000 -0.030000
v 0.210000 0.255000 -0.030000
v 0.260000 0.235000 0.030000
v 0.260000 0.255000 0.030000
v 0.260000 0.235000 -0.030000
v 0.260000 0.255000 -0.030000
v -0.170000 0.242500 0.017500
v -0.170000 0.277500 0.017500
v -0.170000 0.242500 -0.017500
v -0.170000 0.277500 -0.017500
v -0.030000 0.242500 0.017500
v -0.030000 0.277500 0.017500
v -0.030000 0.242500 -0.017500
v -0.030000 0.277500 -0.017500
v -0.177500 0.130000 0.017500
v -0.177500 0.250000 0.017500
v -0.177500 0.130000 -0.017500
v -0.177500 0.250000 -0.017500
v -0.142500 0.130000 0.017500
v -0.142500 0.250000 0.017500
v -0.142500 0.130000 -0.017500
v -0.142500 0.250000 -0.017500
vn 0.9188 0.1044 -0.3806
vn 0.3806 0.1044 -0.9188
vn -0.3806 0.1044 -0.9188
vn -0.9188 0.1044 -0.3806
vn -0.9188 0.1044 0.3806
vn -0.3806 0.1044 0.9188
vn 0.3806 0.1044 0.9188
vn 0.9188 0.1044 0.3806
vn -0.0000 -1.0000 -0.0000
vn 0.9239 -0.0000 -0.3827
vn 0.3827 -0.0000 -0.9239
vn -0.3827 -0.0000 -0.9239
vn -0.9239 -0.0000 -0.3827
vn -0.9239 -0.0000 0.3827
vn -0.3827 -0.0000 0.9239
vn 0.3827 -0.0000 0.9239
vn 0.9239 -0.0000 0.3827
vn -0.0000 1.0000 -0.0000
vn -0.5736 0.8192 -0.0000
vn 0.5736 -0.8192 -0.0000
vn 0.8192 0.5736 -0.0000
vn -0.8192 -0.5736 -0.0000
vn -0.0000 -0.0000 -1.0000
vn -0.0000 -0.0000 1.0000
vn 1.0000 -0.0000 -0.0000
vn -1.0000 -0.0000 -0.0000
vt 0.031250 0.031250
vt 0.125000 0.031250
vt 0.125000 0.250000
vt 0.031250 0.250000
vt 0.218750 0.031250
vt 0.218750 0.250000
vt 0.312500 0.031250
vt 0.312500 0.250000
vt 0.406250 0.031250
vt 0.406250 0.250000
vt 0.500000 0.031250
vt 0.500000 0.250000
vt 0.593750 0.031250
vt 0.593750 0.250000
vt 0.687500 0.031250
vt 0.687500 0.250000
vt 0.781250 0.031250
vt 0.781250 0.250000
vt 0.281250 0.406250
vt 0.250000 0.312500
vt 0.156250 0.281250
vt 0.062500 0.312500
vt 0.031250 0.406250
vt 0.062500 0.500000
vt 0.156250 0.531250
vt 0.250000 0.500000
vt 0.031250 0.562500
vt 0.078125 0.562500
vt 0.078125 0.578125
vt 0.031250 0.578125
vt 0.125000 0.562500
vt 0.125000 0.578125
vt 0.171875 0.562500
vt 0.171875 0.578125
vt 0.218750 0.562500
vt 0.218750 0.578125
vt 0.265625 0.562500
vt 0.265625 0.578125
vt 0.312500 0.562500
vt 0.312500 0.578125
vt 0.359375 0.562500
vt 0.359375 0.578125
vt 0.406250 0.562500
vt 0.406250 0.578125
vt 0.140625 0.625000
vt 0.156250 0.671875
vt 0.140625 0.718750
vt 0.093750 0.734375
vt 0.046875 0.718750
vt 0.031250 0.671875
vt 0.046875 0.625000
vt 0.093750 0.609375
vt 0.312500 0.671875
vt 0.296875 0.625000
vt 0.250000 0.609375
vt 0.203125 0.625000
vt 0.187500 0.671875
vt 0.203125 0.718750
vt 0.250000 0.734375
vt 0.296875 0.718750
vt 0.484375 0.656250
vt 0.640625 0.656250
vt 0.640625 0.703125
vt 0.484375 0.703125
vt 0.484375 0.562500
vt 0.640625 0.562500
vt 0.640625 0.609375
vt 0.484375 0.609375
vt 0.687500 0.609375
vt 0.687500 0.656250
vt 0.437500 0.609375
vt 0.437500 0.656250
vt 0.843750 0.609375
vt 0.843750 0.656250
vt 0.093750 0.843750
vt 0.140625 0.843750
vt 0.140625 0.906250
vt 0.093750 0.906250
vt 0.093750 0.765625
vt 0.140625 0.765625
vt 0.140625 0.828125
vt 0.093750 0.828125
vt 0.203125 0.828125
vt 0.203125 0.843750
vt 0.031250 0.828125
vt 0.031250 0.843750
vt 0.250000 0.828125
vt 0.250000 0.843750
vt 0.312500 0.828125
vt 0.453125 0.828125
vt 0.453125 0.859375
vt 0.312500 0.859375
vt 0.312500 0.765625
vt 0.453125 0.765625
vt 0.453125 0.796875
vt 0.312500 0.796875
vt 0.484375 0.796875
vt 0.484375 0.828125
vt 0.281250 0.796875
vt 0.281250 0.828125
vt 0.625000 0.796875
vt 0.625000 0.828125
vt 0.843750 0.187500
vt 0.875000 0.187500
vt 0.875000 0.218750
vt 0.843750 0.218750
vt 0.843750 0.031250
vt 0.875000 0.031250
vt 0.875000 0.062500
vt 0.843750 0.062500
vt 0.906250 0.062500
vt 0.906250 0.187500
vt 0.812500 0.062500
vt 0.812500 0.187500
vt 0.937500 0.062500
vt 0.937500 0.187500
s 0
usemtl WateringCanTex
f 1/1/1 2/2/1 10/3/1 9/4/1
f 2/2/2 3/5/2 11/6/2 10/3/2
f 3/5/3 4/7/3 12/8/3 11/6/3
f 4/7/4 5/9/4 13/10/4 12/8/4
f 5/9/5 6/11/5 14/12/5 13/10/5
f 6/11/6 7/13/6 15/14/6 14/12/6
f 7/13/7 8/15/7 16/16/7 15/14/7
f 8/15/8 1/17/8 9/18/8 16/16/8
f 1/19/9 8/20/9 7/21/9 6/22/9 5/23/9 4/24/9 3/25/9 2/26/9
f 17/27/10 18/28/10 26/29/10 25/30/10
f 18/28/11 19/31/11 27/32/11 26/29/11
f 19/31/12 20/33/12 28/34/12 27/32/12
f 20/33/13 21/35/13 29/36/13 28/34/13
f 21/35/14 22/37/14 30/38/14 29/36/14
f 22/37/15 23/39/15 31/40/15 30/38/15
f 23/39/16 24/41/16 32/42/16 31/40/16
f 24/41/17 17/43/17 25/44/17 32/42/17
f 32/45/18 25/46/18 26/47/18 27/48/18 28/49/18 29/50/18 30/51/18 31/52/18
f 17/53/9 24/54/9 23/55/9 22/56/9 21/57/9 20/58/9 19/59/9 18/60/9
f 34/61/19 38/62/19 40/63/19 36/64/19
f 35/65/20 39/66/20 37/67/20 33/68/20
f 37/67/21 39/69/21 40/70/21 38/62/21
f 35/71/22 33/68/22 34/61/22 36/72/22
f 39/69/23 35/73/23 36/74/23 40/70/23
f 33/68/24 37/67/24 38/62/24 34/61/24
f 42/75/18 46/76/18 48/77/18 44/78/18
f 43/79/9 47/80/9 45/81/9 41/82/9
f 45/81/25 47/83/25 48/84/25 46/76/25
f 43/85/26 41/82/26 42/75/26 44/86/26
f 47/83/23 43/87/23 44/88/23 48/84/23
f 41/82/24 45/81/24 46/76/24 42/75/24
f 50/89/18 54/90/18 56/91/18 52/92/18
f 51/93/9 55/94/9 53/95/9 49/96/9
f 53/95/25 55/97/25 56/98/25 54/90/25
f 51/99/26 49/96/26 50/89/26 52/100/26
f 55/97/23 51/101/23 52/102/23 56/98/23
f 49/96/24 53/95/24 54/90/24 50/89/24
f 58/103/18 62/104/18 64/105/18 60/106/18
f 59/107/9 63/108/9 61/109/9 57/110/9
f 61/109/25 63/111/25 64/112/25 62/104/25
f 59/113/26 57/110/26 58/103/26 60/114/26
f 63/111/23 59/115/23 60/116/23 64/112/23
f 57/110/24 61/109/24 62/104/24 58/103/24
