# Blender 5.1.1
# www.blender.org
mtllib Barrier.mtl
o Barrier
v -0.950000 0.000000 0.280000
v -0.950000 0.140000 0.280000
v -0.950000 0.000000 -0.280000
v -0.950000 0.140000 -0.280000
v 0.950000 0.000000 0.280000
v 0.950000 0.140000 0.280000
v 0.950000 0.000000 -0.280000
v 0.950000 0.140000 -0.280000
v -0.950000 0.100000 0.250000
v -0.950000 2.000000 0.250000
v -0.950000 0.100000 -0.250000
v -0.950000 2.000000 -0.250000
v 0.950000 0.100000 0.250000
v 0.950000 2.000000 0.250000
v 0.950000 0.100000 -0.250000
v 0.950000 2.000000 -0.250000
v -0.970000 0.100000 0.270000
v -0.970000 2.000000 0.270000
v -0.970000 0.100000 -0.270000
v -0.970000 2.000000 -0.270000
v -0.890000 0.100000 0.270000
v -0.890000 2.000000 0.270000
v -0.890000 0.100000 -0.270000
v -0.890000 2.000000 -0.270000
v 0.890000 0.100000 0.270000
v 0.890000 2.000000 0.270000
v 0.890000 0.100000 -0.270000
v 0.890000 2.000000 -0.270000
v 0.970000 0.100000 0.270000
v 0.970000 2.000000 0.270000
v 0.970000 0.100000 -0.270000
v 0.970000 2.000000 -0.270000
v -0.870000 0.150000 0.255000
v 0.870000 0.150000 0.255000
v -0.870000 1.950000 0.255000
v 0.870000 1.950000 0.255000
v -0.870000 0.985000 0.262000
v 0.870000 0.985000 0.262000
v -0.870000 1.055000 0.262000
v 0.870000 1.055000 0.262000
v -0.990000 2.000000 0.290000
v -0.990000 2.080000 0.290000
v -0.990000 2.000000 -0.290000
v -0.990000 2.080000 -0.290000
v 0.990000 2.000000 0.290000
v 0.990000 2.080000 0.290000
v 0.990000 2.000000 -0.290000
v 0.990000 2.080000 -0.290000
vn -0.0000 1.0000 -0.0000
vn 1.0000 -0.0000 -0.0000
vn -1.0000 -0.0000 -0.0000
vn -0.0000 -0.0000 -1.0000
vn -0.0000 -0.0000 1.0000
vn -0.0000 -1.0000 -0.0000
vt 0.078125 0.707031
vt 0.316406 0.707031
vt 0.316406 0.777344
vt 0.078125 0.777344
vt 0.316406 0.691406
vt 0.386719 0.691406
vt 0.386719 0.707031
vt 0.007812 0.691406
vt 0.078125 0.691406
vt 0.007812 0.707031
vt 0.625000 0.691406
vt 0.625000 0.707031
vt 0.398438 0.308594
vt 0.636719 0.308594
vt 0.636719 0.371094
vt 0.398438 0.371094
vt 0.398438 0.007812
vt 0.636719 0.007812
vt 0.636719 0.070312
vt 0.398438 0.070312
vt 0.699219 0.070312
vt 0.699219 0.308594
vt 0.335938 0.070312
vt 0.335938 0.308594
vt 0.937500 0.070312
vt 0.937500 0.308594
vt 0.074219 0.312500
vt 0.085938 0.312500
vt 0.085938 0.378906
vt 0.074219 0.378906
vt 0.074219 0.007812
vt 0.085938 0.007812
vt 0.085938 0.074219
vt 0.074219 0.074219
vt 0.152344 0.074219
vt 0.152344 0.312500
vt 0.007812 0.074219
vt 0.007812 0.312500
vt 0.164062 0.074219
vt 0.164062 0.312500
vt 0.238281 0.312500
vt 0.250000 0.312500
vt 0.250000 0.378906
vt 0.238281 0.378906
vt 0.238281 0.007812
vt 0.250000 0.007812
vt 0.250000 0.074219
vt 0.238281 0.074219
vt 0.316406 0.074219
vt 0.316406 0.312500
vt 0.171875 0.074219
vt 0.171875 0.312500
vt 0.328125 0.074219
vt 0.328125 0.312500
vt 0.007812 0.386719
vt 0.226562 0.386719
vt 0.226562 0.613281
vt 0.007812 0.613281
vt 0.632812 0.621094
vt 0.851562 0.621094
vt 0.851562 0.628906
vt 0.632812 0.628906
vt 0.308594 0.472656
vt 0.554688 0.472656
vt 0.554688 0.546875
vt 0.308594 0.546875
vt 0.308594 0.386719
vt 0.554688 0.386719
vt 0.554688 0.460938
vt 0.308594 0.460938
vt 0.628906 0.460938
vt 0.628906 0.472656
vt 0.234375 0.460938
vt 0.234375 0.472656
vt 0.875000 0.460938
vt 0.875000 0.472656
s 0
usemtl BarrierTex
f 2/1/1 6/2/1 8/3/1 4/4/1
f 5/5/2 7/6/2 8/7/2 6/2/2
f 3/8/3 1/9/3 2/1/3 4/10/3
f 7/6/4 3/11/4 4/12/4 8/7/4
f 1/9/5 5/5/5 6/2/5 2/1/5
f 10/13/1 14/14/1 16/15/1 12/16/1
f 11/17/6 15/18/6 13/19/6 9/20/6
f 13/19/2 15/21/2 16/22/2 14/14/2
f 11/23/3 9/20/3 10/13/3 12/24/3
f 15/21/4 11/25/4 12/26/4 16/22/4
f 9/20/5 13/19/5 14/14/5 10/13/5
f 18/27/1 22/28/1 24/29/1 20/30/1
f 19/31/6 23/32/6 21/33/6 17/34/6
f 21/33/2 23/35/2 24/36/2 22/28/2
f 19/37/3 17/34/3 18/27/3 20/38/3
f 23/35/4 19/39/4 20/40/4 24/36/4
f 17/34/5 21/33/5 22/28/5 18/27/5
f 26/41/1 30/42/1 32/43/1 28/44/1
f 27/45/6 31/46/6 29/47/6 25/48/6
f 29/47/2 31/49/2 32/50/2 30/42/2
f 27/51/3 25/48/3 26/41/3 28/52/3
f 31/49/4 27/53/4 28/54/4 32/50/4
f 25/48/5 29/47/5 30/42/5 26/41/5
f 33/55/5 34/56/5 36/57/5 35/58/5
f 37/59/5 38/60/5 40/61/5 39/62/5
f 42/63/1 46/64/1 48/65/1 44/66/1
f 43/67/6 47/68/6 45/69/6 41/70/6
f 45/69/2 47/71/2 48/72/2 46/64/2
f 43/73/3 41/70/3 42/63/3 44/74/3
f 47/71/4 43/75/4 44/76/4 48/72/4
f 41/70/5 45/69/5 46/64/5 42/63/5
