# Blender 5.1.1
# www.blender.org
mtllib DepartmentSign.mtl
o DepartmentSign
v -0.750000 1.340000 0.035000
v -0.750000 1.860000 0.035000
v -0.750000 1.340000 -0.035000
v -0.750000 1.860000 -0.035000
v 0.750000 1.340000 0.035000
v 0.750000 1.860000 0.035000
v 0.750000 1.340000 -0.035000
v 0.750000 1.860000 -0.035000
v -0.670000 1.510000 0.055000
v -0.670000 1.810000 0.055000
v -0.670000 1.510000 0.035000
v -0.670000 1.810000 0.035000
v 0.670000 1.510000 0.055000
v 0.670000 1.810000 0.055000
v 0.670000 1.510000 0.035000
v 0.670000 1.810000 0.035000
v -0.670000 1.375000 0.060000
v -0.670000 1.465000 0.060000
v -0.670000 1.375000 0.040000
v -0.670000 1.465000 0.040000
v 0.670000 1.375000 0.060000
v 0.670000 1.465000 0.060000
v 0.670000 1.375000 0.040000
v 0.670000 1.465000 0.040000
v -0.645000 1.820000 -0.015000
v -0.645000 2.180000 -0.015000
v -0.645000 1.820000 -0.065000
v -0.645000 2.180000 -0.065000
v -0.595000 1.820000 -0.015000
v -0.595000 2.180000 -0.015000
v -0.595000 1.820000 -0.065000
v -0.595000 2.180000 -0.065000
v 0.595000 1.820000 -0.015000
v 0.595000 2.180000 -0.015000
v 0.595000 1.820000 -0.065000
v 0.595000 2.180000 -0.065000
v 0.645000 1.820000 -0.015000
v 0.645000 2.180000 -0.015000
v 0.645000 1.820000 -0.065000
v 0.645000 2.180000 -0.065000
v -0.750000 2.160000 -0.010000
v -0.750000 2.220000 -0.010000
v -0.750000 2.160000 -0.070000
v -0.750000 2.220000 -0.070000
v 0.750000 2.160000 -0.010000
v 0.750000 2.220000 -0.010000
v 0.750000 2.160000 -0.070000
v 0.750000 2.220000 -0.070000
vn -0.0000 1.0000 -0.0000
vn -0.0000 -1.0000 -0.0000
vn 1.0000 -0.0000 -0.0000
vn -1.0000 -0.0000 -0.0000
vn -0.0000 -0.0000 -1.0000
vn -0.0000 -0.0000 1.0000
vt 0.019531 0.117188
vt 0.300781 0.117188
vt 0.300781 0.128906
vt 0.019531 0.128906
vt 0.019531 0.007812
vt 0.300781 0.007812
vt 0.300781 0.019531
vt 0.019531 0.019531
vt 0.312500 0.019531
vt 0.312500 0.117188
vt 0.007812 0.019531
vt 0.007812 0.117188
vt 0.593750 0.019531
vt 0.593750 0.117188
vt 0.011719 0.195312
vt 0.261719 0.195312
vt 0.261719 0.199219
vt 0.011719 0.199219
vt 0.011719 0.136719
vt 0.261719 0.136719
vt 0.261719 0.140625
vt 0.011719 0.140625
vt 0.265625 0.140625
vt 0.265625 0.195312
vt 0.007812 0.140625
vt 0.007812 0.195312
vt 0.515625 0.140625
vt 0.515625 0.195312
vt 0.011719 0.269531
vt 0.261719 0.269531
vt 0.261719 0.273438
vt 0.011719 0.273438
vt 0.011719 0.250000
vt 0.261719 0.250000
vt 0.261719 0.253906
vt 0.011719 0.253906
vt 0.265625 0.253906
vt 0.265625 0.269531
vt 0.007812 0.253906
vt 0.007812 0.269531
vt 0.515625 0.253906
vt 0.515625 0.269531
vt 0.609375 0.082031
vt 0.617188 0.082031
vt 0.617188 0.089844
vt 0.609375 0.089844
vt 0.609375 0.007812
vt 0.617188 0.007812
vt 0.617188 0.015625
vt 0.609375 0.015625
vt 0.625000 0.015625
vt 0.625000 0.082031
vt 0.601562 0.015625
vt 0.601562 0.082031
vt 0.632812 0.015625
vt 0.632812 0.082031
vt 0.648438 0.082031
vt 0.656250 0.082031
vt 0.656250 0.089844
vt 0.648438 0.089844
vt 0.648438 0.007812
vt 0.656250 0.007812
vt 0.656250 0.015625
vt 0.648438 0.015625
vt 0.664062 0.015625
vt 0.664062 0.082031
vt 0.640625 0.015625
vt 0.640625 0.082031
vt 0.671875 0.015625
vt 0.671875 0.082031
vt 0.019531 0.230469
vt 0.300781 0.230469
vt 0.300781 0.242188
vt 0.019531 0.242188
vt 0.019531 0.207031
vt 0.300781 0.207031
vt 0.300781 0.218750
vt 0.019531 0.218750
vt 0.312500 0.218750
vt 0.312500 0.230469
vt 0.007812 0.218750
vt 0.007812 0.230469
vt 0.593750 0.218750
vt 0.593750 0.230469
s 0
usemtl DepartmentSignTex
f 2/1/1 6/2/1 8/3/1 4/4/1
f 3/5/2 7/6/2 5/7/2 1/8/2
f 5/7/3 7/9/3 8/10/3 6/2/3
f 3/11/4 1/8/4 2/1/4 4/12/4
f 7/9/5 3/13/5 4/14/5 8/10/5
f 1/8/6 5/7/6 6/2/6 2/1/6
f 10/15/1 14/16/1 16/17/1 12/18/1
f 11/19/2 15/20/2 13/21/2 9/22/2
f 13/21/3 15/23/3 16/24/3 14/16/3
f 11/25/4 9/22/4 10/15/4 12/26/4
f 15/23/5 11/27/5 12/28/5 16/24/5
f 9/22/6 13/21/6 14/16/6 10/15/6
f 18/29/1 22/30/1 24/31/1 20/32/1
f 19/33/2 23/34/2 21/35/2 17/36/2
f 21/35/3 23/37/3 24/38/3 22/30/3
f 19/39/4 17/36/4 18/29/4 20/40/4
f 23/37/5 19/41/5 20/42/5 24/38/5
f 17/36/6 21/35/6 22/30/6 18/29/6
f 26/43/1 30/44/1 32/45/1 28/46/1
f 27/47/2 31/48/2 29/49/2 25/50/2
f 29/49/3 31/51/3 32/52/3 30/44/3
f 27/53/4 25/50/4 26/43/4 28/54/4
f 31/51/5 27/55/5 28/56/5 32/52/5
f 25/50/6 29/49/6 30/44/6 26/43/6
f 34/57/1 38/58/1 40/59/1 36/60/1
f 35/61/2 39/62/2 37/63/2 33/64/2
f 37/63/3 39/65/3 40/66/3 38/58/3
f 35/67/4 33/64/4 34/57/4 36/68/4
f 39/65/5 35/69/5 36/70/5 40/66/5
f 33/64/6 37/63/6 38/58/6 34/57/6
f 42/71/1 46/72/1 48/73/1 44/74/1
f 43/75/2 47/76/2 45/77/2 41/78/2
f 45/77/3 47/79/3 48/80/3 46/72/3
f 43/81/4 41/78/4 42/71/4 44/82/4
f 47/79/5 43/83/5 44/84/5 48/80/5
f 41/78/6 45/77/6 46/72/6 42/71/6
