# Blender 5.1.1
# www.blender.org
mtllib DrawerSpire.mtl
o DrawerSpire
v -0.575000 0.000000 0.575000
v -0.575000 0.200000 0.575000
v -0.575000 0.000000 -0.575000
v -0.575000 0.200000 -0.575000
v 0.575000 0.000000 0.575000
v 0.575000 0.200000 0.575000
v 0.575000 0.000000 -0.575000
v 0.575000 0.200000 -0.575000
v -0.500000 0.200000 0.500000
v -0.500000 3.300000 0.500000
v -0.500000 0.200000 -0.500000
v -0.500000 3.300000 -0.500000
v 0.500000 0.200000 0.500000
v 0.500000 3.300000 0.500000
v 0.500000 0.200000 -0.500000
v 0.500000 3.300000 -0.500000
v -0.535000 0.200000 0.530000
v -0.535000 3.300000 0.530000
v -0.535000 0.200000 -0.530000
v -0.535000 3.300000 -0.530000
v -0.465000 0.200000 0.530000
v -0.465000 3.300000 0.530000
v -0.465000 0.200000 -0.530000
v -0.465000 3.300000 -0.530000
v 0.465000 0.200000 0.530000
v 0.465000 3.300000 0.530000
v 0.465000 0.200000 -0.530000
v 0.465000 3.300000 -0.530000
v 0.535000 0.200000 0.530000
v 0.535000 3.300000 0.530000
v 0.535000 0.200000 -0.530000
v 0.535000 3.300000 -0.530000
v -0.430000 0.300000 0.505000
v 0.430000 0.300000 0.505000
v -0.430000 3.200000 0.505000
v 0.430000 3.200000 0.505000
v -0.430000 1.160000 0.511000
v 0.430000 1.160000 0.511000
v -0.430000 1.240000 0.511000
v 0.430000 1.240000 0.511000
v 0.430000 0.300000 -0.505000
v -0.430000 0.300000 -0.505000
v 0.430000 3.200000 -0.505000
v -0.430000 3.200000 -0.505000
v 0.430000 1.160000 -0.511000
v -0.430000 1.160000 -0.511000
v 0.430000 1.240000 -0.511000
v -0.430000 1.240000 -0.511000
v -0.600000 3.300000 0.600000
v -0.600000 3.420000 0.600000
v -0.600000 3.300000 -0.600000
v -0.600000 3.420000 -0.600000
v 0.600000 3.300000 0.600000
v 0.600000 3.420000 0.600000
v 0.600000 3.300000 -0.600000
v 0.600000 3.420000 -0.600000
vn -0.0000 1.0000 -0.0000
vn 1.0000 -0.0000 -0.0000
vn -1.0000 -0.0000 -0.0000
vn -0.0000 -0.0000 -1.0000
vn -0.0000 -0.0000 1.0000
vn -0.0000 -1.0000 -0.0000
vt 0.736328 0.087891
vt 0.808594 0.087891
vt 0.808594 0.160156
vt 0.736328 0.160156
vt 0.808594 0.076172
vt 0.880859 0.076172
vt 0.880859 0.087891
vt 0.664062 0.076172
vt 0.736328 0.076172
vt 0.664062 0.087891
vt 0.953125 0.076172
vt 0.953125 0.087891
vt 0.355469 0.259766
vt 0.417969 0.259766
vt 0.417969 0.322266
vt 0.355469 0.322266
vt 0.355469 0.003906
vt 0.417969 0.003906
vt 0.417969 0.066406
vt 0.355469 0.066406
vt 0.480469 0.066406
vt 0.480469 0.259766
vt 0.292969 0.066406
vt 0.292969 0.259766
vt 0.542969 0.066406
vt 0.542969 0.259766
vt 0.070312 0.263672
vt 0.074219 0.263672
vt 0.074219 0.330078
vt 0.070312 0.330078
vt 0.070312 0.003906
vt 0.074219 0.003906
vt 0.074219 0.070312
vt 0.070312 0.070312
vt 0.140625 0.070312
vt 0.140625 0.263672
vt 0.003906 0.070312
vt 0.003906 0.263672
vt 0.144531 0.070312
vt 0.144531 0.263672
vt 0.214844 0.263672
vt 0.218750 0.263672
vt 0.218750 0.330078
vt 0.214844 0.330078
vt 0.214844 0.003906
vt 0.218750 0.003906
vt 0.218750 0.070312
vt 0.214844 0.070312
vt 0.285156 0.070312
vt 0.285156 0.263672
vt 0.148438 0.070312
vt 0.148438 0.263672
vt 0.289062 0.070312
vt 0.289062 0.263672
vt 0.546875 0.003906
vt 0.546875 0.185547
vt 0.601562 0.185547
vt 0.601562 0.003906
vt 0.304688 0.333984
vt 0.359375 0.333984
vt 0.359375 0.339844
vt 0.304688 0.339844
vt 0.605469 0.003906
vt 0.605469 0.185547
vt 0.660156 0.185547
vt 0.660156 0.003906
vt 0.363281 0.333984
vt 0.363281 0.339844
vt 0.417969 0.339844
vt 0.417969 0.333984
vt 0.078125 0.416016
vt 0.152344 0.416016
vt 0.152344 0.490234
vt 0.078125 0.490234
vt 0.078125 0.333984
vt 0.152344 0.333984
vt 0.152344 0.408203
vt 0.078125 0.408203
vt 0.226562 0.408203
vt 0.226562 0.416016
vt 0.003906 0.408203
vt 0.003906 0.416016
vt 0.300781 0.408203
vt 0.300781 0.416016
s 0
usemtl DrawerSpireTex
f 2/1/1 6/2/1 8/3/1 4/4/1
f 5/5/2 7/6/2 8/7/2 6/2/2
f 3/8/3 1/9/3 2/1/3 4/10/3
f 7/6/4 3/11/4 4/12/4 8/7/4
f 1/9/5 5/5/5 6/2/5 2/1/5
f 10/13/1 14/14/1 16/15/1 12/16/1
f 11/17/6 15/18/6 13/19/6 9/20/6
f 13/19/2 15/21/2 16/22/2 14/14/2
f 11/23/3 9/20/3 10/13/3 12/24/3
f 15/21/4 11/25/4 12/26/4 16/22/4
f 9/20/5 13/19/5 14/14/5 10/13/5
f 18/27/1 22/28/1 24/29/1 20/30/1
f 19/31/6 23/32/6 21/33/6 17/34/6
f 21/33/2 23/35/2 24/36/2 22/28/2
f 19/37/3 17/34/3 18/27/3 20/38/3
f 23/35/4 19/39/4 20/40/4 24/36/4
f 17/34/5 21/33/5 22/28/5 18/27/5
f 26/41/1 30/42/1 32/43/1 28/44/1
f 27/45/6 31/46/6 29/47/6 25/48/6
f 29/47/2 31/49/2 32/50/2 30/42/2
f 27/51/3 25/48/3 26/41/3 28/52/3
f 31/49/4 27/53/4 28/54/4 32/50/4
f 25/48/5 29/47/5 30/42/5 26/41/5
f 33/55/4 35/56/4 36/57/4 34/58/4
f 37/59/5 38/60/5 40/61/5 39/62/5
f 41/63/5 43/64/5 44/65/5 42/66/5
f 45/67/5 47/68/5 48/69/5 46/70/5
f 50/71/1 54/72/1 56/73/1 52/74/1
f 51/75/6 55/76/6 53/77/6 49/78/6
f 53/77/2 55/79/2 56/80/2 54/72/2
f 51/81/3 49/78/3 50/71/3 52/82/3
f 55/79/4 51/83/4 52/84/4 56/80/4
f 49/78/5 53/77/5 54/72/5 50/71/5
