# Blender 5.1.1
# www.blender.org
mtllib FloorTile.mtl
o FloorTile
v -1.000000 -0.060000 1.000000
v -1.000000 0.000000 1.000000
v -1.000000 -0.060000 -1.000000
v -1.000000 0.000000 -1.000000
v 1.000000 -0.060000 1.000000
v 1.000000 0.000000 1.000000
v 1.000000 -0.060000 -1.000000
v 1.000000 0.000000 -1.000000
v -1.000000 0.005000 1.000000
v 1.000000 0.005000 1.000000
v -1.000000 0.005000 -1.000000
v 1.000000 0.005000 -1.000000
vn -0.0000 -1.0000 -0.0000
vn 1.0000 -0.0000 -0.0000
vn -1.0000 -0.0000 -0.0000
vn -0.0000 -0.0000 -1.0000
vn -0.0000 -0.0000 1.0000
vn -0.0000 1.0000 -0.0000
vt 0.128906 0.003906
vt 0.253906 0.003906
vt 0.253906 0.128906
vt 0.128906 0.128906
vt 0.378906 0.128906
vt 0.378906 0.132812
vt 0.253906 0.132812
vt 0.003906 0.128906
vt 0.128906 0.132812
vt 0.003906 0.132812
vt 0.503906 0.128906
vt 0.503906 0.132812
vt 0.507812 0.003906
vt 0.632812 0.003906
vt 0.632812 0.128906
vt 0.507812 0.128906
s 0
usemtl FloorTileTex
f 3/1/1 7/2/1 5/3/1 1/4/1
f 5/3/2 7/5/2 8/6/2 6/7/2
f 3/8/3 1/4/3 2/9/3 4/10/3
f 7/5/4 3/11/4 4/12/4 8/6/4
f 1/4/5 5/3/5 6/7/5 2/9/5
f 9/13/6 10/14/6 12/15/6 11/16/6
