# Blender 5.1.1
# www.blender.org
mtllib Junction.mtl
o Junction
v 0.260000 0.000000 0.000000
v 0.183848 0.000000 -0.183848
v 0.000000 0.000000 -0.260000
v -0.183848 0.000000 -0.183848
v -0.260000 0.000000 -0.000000
v -0.183848 0.000000 0.183848
v -0.000000 0.000000 0.260000
v 0.183848 0.000000 0.183848
v 0.220000 0.080000 0.000000
v 0.155563 0.080000 -0.155563
v 0.000000 0.080000 -0.220000
v -0.155563 0.080000 -0.155563
v -0.220000 0.080000 -0.000000
v -0.155563 0.080000 0.155563
v -0.000000 0.080000 0.220000
v 0.155563 0.080000 0.155563
v 0.100000 0.080000 0.000000
v 0.070711 0.080000 -0.070711
v 0.000000 0.080000 -0.100000
v -0.070711 0.080000 -0.070711
v -0.100000 0.080000 -0.000000
v -0.070711 0.080000 0.070711
v -0.000000 0.080000 0.100000
v 0.070711 0.080000 0.070711
v 0.090000 1.580000 0.000000
v 0.063640 1.580000 -0.063640
v 0.000000 1.580000 -0.090000
v -0.063640 1.580000 -0.063640
v -0.090000 1.580000 -0.000000
v -0.063640 1.580000 0.063640
v -0.000000 1.580000 0.090000
v 0.063640 1.580000 0.063640
v -0.075761 0.570000 -0.165723
v -0.075761 0.670000 -0.165723
v -0.075761 0.570000 -0.325723
v -0.075761 0.670000 -0.325723
v 0.344239 0.570000 -0.165723
v 0.344239 0.670000 -0.165723
v 0.344239 0.570000 -0.325723
v 0.344239 0.670000 -0.325723
v 0.130947 0.672500 -0.336136
v 0.130947 0.687500 -0.336136
v 0.130947 0.672500 -0.436136
v 0.130947 0.687500 -0.436136
v 0.290947 0.672500 -0.336136
v 0.290947 0.687500 -0.336136
v 0.290947 0.672500 -0.436136
v 0.290947 0.687500 -0.436136
v -0.065660 0.890000 0.319929
v -0.065660 0.990000 0.319929
v -0.065660 0.890000 0.159929
v -0.065660 0.990000 0.159929
v 0.354340 0.890000 0.319929
v 0.354340 0.990000 0.319929
v 0.354340 0.890000 0.159929
v 0.354340 0.990000 0.159929
v 0.146821 0.992500 0.427031
v 0.146821 1.007500 0.427031
v 0.146821 0.992500 0.327031
v 0.146821 1.007500 0.327031
v 0.306821 0.992500 0.427031
v 0.306821 1.007500 0.427031
v 0.306821 0.992500 0.327031
v 0.306821 1.007500 0.327031
v -0.476449 1.210000 0.166053
v -0.476449 1.310000 0.166053
v -0.476449 1.210000 0.006053
v -0.476449 1.310000 0.006053
v -0.056449 1.210000 0.166053
v -0.056449 1.310000 0.166053
v -0.056449 1.210000 0.006053
v -0.056449 1.310000 0.006053
v -0.498705 1.312500 0.185226
v -0.498705 1.327500 0.185226
v -0.498705 1.312500 0.085226
v -0.498705 1.327500 0.085226
v -0.338705 1.312500 0.185226
v -0.338705 1.327500 0.185226
v -0.338705 1.312500 0.085226
v -0.338705 1.327500 0.085226
v 0.130000 1.440000 0.000000
v 0.091924 1.440000 -0.091924
v 0.000000 1.440000 -0.130000
v -0.091924 1.440000 -0.091924
v -0.130000 1.440000 -0.000000
v -0.091924 1.440000 0.091924
v -0.000000 1.440000 0.130000
v 0.091924 1.440000 0.091924
v 0.130000 1.510000 0.000000
v 0.091924 1.510000 -0.091924
v 0.000000 1.510000 -0.130000
v -0.091924 1.510000 -0.091924
v -0.130000 1.510000 -0.000000
v -0.091924 1.510000 0.091924
v -0.000000 1.510000 0.130000
v 0.091924 1.510000 0.091924
v 0.120000 1.510000 0.000000
v 0.084853 1.510000 -0.084853
v 0.000000 1.510000 -0.120000
v -0.084853 1.510000 -0.084853
v -0.120000 1.510000 -0.000000
v -0.084853 1.510000 0.084853
v -0.000000 1.510000 0.120000
v 0.084853 1.510000 0.084853
v 0.150000 1.610000 0.000000
v 0.106066 1.610000 -0.106066
v 0.000000 1.610000 -0.150000
v -0.106066 1.610000 -0.106066
v -0.150000 1.610000 -0.000000
v -0.106066 1.610000 0.106066
v -0.000000 1.610000 0.150000
v 0.106066 1.610000 0.106066
vn 0.8387 0.4194 -0.3474
vn 0.3474 0.4194 -0.8387
vn -0.3474 0.4194 -0.8387
vn -0.8387 0.4194 -0.3474
vn -0.8387 0.4194 0.3474
vn -0.3474 0.4194 0.8387
vn 0.3474 0.4194 0.8387
vn 0.8387 0.4194 0.3474
vn -0.0000 1.0000 -0.0000
vn -0.0000 -1.0000 -0.0000
vn 0.9239 0.0062 -0.3827
vn 0.3827 0.0062 -0.9239
vn -0.3827 0.0062 -0.9239
vn -0.9239 0.0062 -0.3827
vn -0.9239 0.0062 0.3827
vn -0.3827 0.0062 0.9239
vn 0.3827 0.0062 0.9239
vn 0.9239 0.0062 0.3827
vn 1.0000 -0.0000 -0.0000
vn -1.0000 -0.0000 -0.0000
vn -0.0000 -0.0000 -1.0000
vn -0.0000 -0.0000 1.0000
vn 0.9239 -0.0000 -0.3827
vn 0.3827 -0.0000 -0.9239
vn -0.3827 -0.0000 -0.9239
vn -0.9239 -0.0000 -0.3827
vn -0.9239 -0.0000 0.3827
vn -0.3827 -0.0000 0.9239
vn 0.3827 -0.0000 0.9239
vn 0.9239 -0.0000 0.3827
vn 0.8903 -0.2671 -0.3688
vn 0.3688 -0.2671 -0.8903
vn -0.3688 -0.2671 -0.8903
vn -0.8903 -0.2671 -0.3688
vn -0.8903 -0.2671 0.3688
vn -0.3688 -0.2671 0.8903
vn 0.3688 -0.2671 0.8903
vn 0.8903 -0.2671 0.3688
vt 0.156250 0.015625
vt 0.203125 0.015625
vt 0.203125 0.039062
vt 0.156250 0.039062
vt 0.250000 0.015625
vt 0.250000 0.039062
vt 0.296875 0.015625
vt 0.296875 0.039062
vt 0.343750 0.015625
vt 0.343750 0.039062
vt 0.390625 0.015625
vt 0.390625 0.039062
vt 0.437500 0.015625
vt 0.437500 0.039062
vt 0.484375 0.015625
vt 0.484375 0.039062
vt 0.531250 0.015625
vt 0.531250 0.039062
vt 0.265625 0.070312
vt 0.281250 0.117188
vt 0.265625 0.164062
vt 0.218750 0.179688
vt 0.171875 0.164062
vt 0.156250 0.117188
vt 0.171875 0.070312
vt 0.218750 0.054688
vt 0.421875 0.117188
vt 0.406250 0.070312
vt 0.359375 0.054688
vt 0.312500 0.070312
vt 0.296875 0.117188
vt 0.312500 0.164062
vt 0.359375 0.179688
vt 0.406250 0.164062
vt 0.015625 0.015625
vt 0.031250 0.015625
vt 0.031250 0.390625
vt 0.015625 0.390625
vt 0.046875 0.015625
vt 0.046875 0.390625
vt 0.062500 0.015625
vt 0.062500 0.390625
vt 0.078125 0.015625
vt 0.078125 0.390625
vt 0.093750 0.015625
vt 0.093750 0.390625
vt 0.109375 0.015625
vt 0.109375 0.390625
vt 0.125000 0.015625
vt 0.125000 0.390625
vt 0.140625 0.015625
vt 0.140625 0.390625
vt 0.054688 0.414062
vt 0.062500 0.429688
vt 0.054688 0.445312
vt 0.039062 0.453125
vt 0.023438 0.445312
vt 0.015625 0.429688
vt 0.023438 0.414062
vt 0.039062 0.406250
vt 0.125000 0.429688
vt 0.117188 0.414062
vt 0.101562 0.406250
vt 0.085938 0.414062
vt 0.078125 0.429688
vt 0.085938 0.445312
vt 0.101562 0.453125
vt 0.117188 0.445312
vt 0.054688 0.531250
vt 0.156250 0.531250
vt 0.156250 0.570312
vt 0.054688 0.570312
vt 0.054688 0.468750
vt 0.156250 0.468750
vt 0.156250 0.507812
vt 0.054688 0.507812
vt 0.195312 0.507812
vt 0.195312 0.531250
vt 0.015625 0.507812
vt 0.015625 0.531250
vt 0.296875 0.507812
vt 0.296875 0.531250
vt 0.242188 0.617188
vt 0.281250 0.617188
vt 0.281250 0.640625
vt 0.242188 0.640625
vt 0.242188 0.585938
vt 0.281250 0.585938
vt 0.281250 0.609375
vt 0.242188 0.609375
vt 0.304688 0.609375
vt 0.304688 0.617188
vt 0.218750 0.609375
vt 0.218750 0.617188
vt 0.343750 0.609375
vt 0.343750 0.617188
vt 0.351562 0.531250
vt 0.453125 0.531250
vt 0.453125 0.570312
vt 0.351562 0.570312
vt 0.351562 0.468750
vt 0.453125 0.468750
vt 0.453125 0.507812
vt 0.351562 0.507812
vt 0.492188 0.507812
vt 0.492188 0.531250
vt 0.312500 0.507812
vt 0.312500 0.531250
vt 0.593750 0.507812
vt 0.593750 0.531250
vt 0.382812 0.617188
vt 0.421875 0.617188
vt 0.421875 0.640625
vt 0.382812 0.640625
vt 0.382812 0.585938
vt 0.421875 0.585938
vt 0.421875 0.609375
vt 0.382812 0.609375
vt 0.445312 0.609375
vt 0.445312 0.617188
vt 0.359375 0.609375
vt 0.359375 0.617188
vt 0.484375 0.609375
vt 0.484375 0.617188
vt 0.648438 0.531250
vt 0.750000 0.531250
vt 0.750000 0.570312
vt 0.648438 0.570312
vt 0.648438 0.468750
vt 0.750000 0.468750
vt 0.750000 0.507812
vt 0.648438 0.507812
vt 0.789062 0.507812
vt 0.789062 0.531250
vt 0.609375 0.507812
vt 0.609375 0.531250
vt 0.890625 0.507812
vt 0.890625 0.531250
vt 0.523438 0.617188
vt 0.562500 0.617188
vt 0.562500 0.640625
vt 0.523438 0.640625
vt 0.523438 0.585938
vt 0.562500 0.585938
vt 0.562500 0.609375
vt 0.523438 0.609375
vt 0.585938 0.609375
vt 0.585938 0.617188
vt 0.500000 0.609375
vt 0.500000 0.617188
vt 0.625000 0.609375
vt 0.625000 0.617188
vt 0.015625 0.585938
vt 0.039062 0.585938
vt 0.039062 0.601562
vt 0.015625 0.601562
vt 0.062500 0.585938
vt 0.062500 0.601562
vt 0.085938 0.585938
vt 0.085938 0.601562
vt 0.109375 0.585938
vt 0.109375 0.601562
vt 0.132812 0.585938
vt 0.132812 0.601562
vt 0.156250 0.585938
vt 0.156250 0.601562
vt 0.179688 0.585938
vt 0.179688 0.601562
vt 0.203125 0.585938
vt 0.203125 0.601562
vt 0.070312 0.625000
vt 0.078125 0.648438
vt 0.070312 0.671875
vt 0.046875 0.679688
vt 0.023438 0.671875
vt 0.015625 0.648438
vt 0.023438 0.625000
vt 0.046875 0.617188
vt 0.156250 0.648438
vt 0.148438 0.625000
vt 0.125000 0.617188
vt 0.101562 0.625000
vt 0.093750 0.648438
vt 0.101562 0.671875
vt 0.125000 0.679688
vt 0.148438 0.671875
vt 0.546875 0.015625
vt 0.570312 0.015625
vt 0.570312 0.039062
vt 0.546875 0.039062
vt 0.593750 0.015625
vt 0.593750 0.039062
vt 0.617188 0.015625
vt 0.617188 0.039062
vt 0.640625 0.015625
vt 0.640625 0.039062
vt 0.664062 0.015625
vt 0.664062 0.039062
vt 0.687500 0.015625
vt 0.687500 0.039062
vt 0.710938 0.015625
vt 0.710938 0.039062
vt 0.734375 0.015625
vt 0.734375 0.039062
vt 0.617188 0.062500
vt 0.625000 0.093750
vt 0.617188 0.125000
vt 0.585938 0.132812
vt 0.554688 0.125000
vt 0.546875 0.093750
vt 0.554688 0.062500
vt 0.585938 0.054688
vt 0.718750 0.093750
vt 0.710938 0.062500
vt 0.679688 0.054688
vt 0.648438 0.062500
vt 0.640625 0.093750
vt 0.648438 0.125000
vt 0.679688 0.132812
vt 0.710938 0.125000
s 0
usemtl JunctionTex
f 1/1/1 2/2/1 10/3/1 9/4/1
f 2/2/2 3/5/2 11/6/2 10/3/2
f 3/5/3 4/7/3 12/8/3 11/6/3
f 4/7/4 5/9/4 13/10/4 12/8/4
f 5/9/5 6/11/5 14/12/5 13/10/5
f 6/11/6 7/13/6 15/14/6 14/12/6
f 7/13/7 8/15/7 16/16/7 15/14/7
f 8/15/8 1/17/8 9/18/8 16/16/8
f 16/19/9 9/20/9 10/21/9 11/22/9 12/23/9 13/24/9 14/25/9 15/26/9
f 1/27/10 8/28/10 7/29/10 6/30/10 5/31/10 4/32/10 3/33/10 2/34/10
f 17/35/11 18/36/11 26/37/11 25/38/11
f 18/36/12 19/39/12 27/40/12 26/37/12
f 19/39/13 20/41/13 28/42/13 27/40/13
f 20/41/14 21/43/14 29/44/14 28/42/14
f 21/43/15 22/45/15 30/46/15 29/44/15
f 22/45/16 23/47/16 31/48/16 30/46/16
f 23/47/17 24/49/17 32/50/17 31/48/17
f 24/49/18 17/51/18 25/52/18 32/50/18
f 32/53/9 25/54/9 26/55/9 27/56/9 28/57/9 29/58/9 30/59/9 31/60/9
f 17/61/10 24/62/10 23/63/10 22/64/10 21/65/10 20/66/10 19/67/10 18/68/10
f 34/69/9 38/70/9 40/71/9 36/72/9
f 35/73/10 39/74/10 37/75/10 33/76/10
f 37/75/19 39/77/19 40/78/19 38/70/19
f 35/79/20 33/76/20 34/69/20 36/80/20
f 39/77/21 35/81/21 36/82/21 40/78/21
f 33/76/22 37/75/22 38/70/22 34/69/22
f 42/83/9 46/84/9 48/85/9 44/86/9
f 43/87/10 47/88/10 45/89/10 41/90/10
f 45/89/19 47/91/19 48/92/19 46/84/19
f 43/93/20 41/90/20 42/83/20 44/94/20
f 47/91/21 43/95/21 44/96/21 48/92/21
f 41/90/22 45/89/22 46/84/22 42/83/22
f 50/97/9 54/98/9 56/99/9 52/100/9
f 51/101/10 55/102/10 53/103/10 49/104/10
f 53/103/19 55/105/19 56/106/19 54/98/19
f 51/107/20 49/104/20 50/97/20 52/108/20
f 55/105/21 51/109/21 52/110/21 56/106/21
f 49/104/22 53/103/22 54/98/22 50/97/22
f 58/111/9 62/112/9 64/113/9 60/114/9
f 59/115/10 63/116/10 61/117/10 57/118/10
f 61/117/19 63/119/19 64/120/19 62/112/19
f 59/121/20 57/118/20 58/111/20 60/122/20
f 63/119/21 59/123/21 60/124/21 64/120/21
f 57/118/22 61/117/22 62/112/22 58/111/22
f 66/125/9 70/126/9 72/127/9 68/128/9
f 67/129/10 71/130/10 69/131/10 65/132/10
f 69/131/19 71/133/19 72/134/19 70/126/19
f 67/135/20 65/132/20 66/125/20 68/136/20
f 71/133/21 67/137/21 68/138/21 72/134/21
f 65/132/22 69/131/22 70/126/22 66/125/22
f 74/139/9 78/140/9 80/141/9 76/142/9
f 75/143/10 79/144/10 77/145/10 73/146/10
f 77/145/19 79/147/19 80/148/19 78/140/19
f 75/149/20 73/146/20 74/139/20 76/150/20
f 79/147/21 75/151/21 76/152/21 80/148/21
f 73/146/22 77/145/22 78/140/22 74/139/22
f 81/153/23 82/154/23 90/155/23 89/156/23
f 82/154/24 83/157/24 91/158/24 90/155/24
f 83/157/25 84/159/25 92/160/25 91/158/25
f 84/159/26 85/161/26 93/162/26 92/160/26
f 85/161/27 86/163/27 94/164/27 93/162/27
f 86/163/28 87/165/28 95/166/28 94/164/28
f 87/165/29 88/167/29 96/168/29 95/166/29
f 88/167/30 81/169/30 89/170/30 96/168/30
f 96/171/9 89/172/9 90/173/9 91/174/9 92/175/9 93/176/9 94/177/9 95/178/9
f 81/179/10 88/180/10 87/181/10 86/182/10 85/183/10 84/184/10 83/185/10 82/186/10
f 97/187/31 98/188/31 106/189/31 105/190/31
f 98/188/32 99/191/32 107/192/32 106/189/32
f 99/191/33 100/193/33 108/194/33 107/192/33
f 100/193/34 101/195/34 109/196/34 108/194/34
f 101/195/35 102/197/35 110/198/35 109/196/35
f 102/197/36 103/199/36 111/200/36 110/198/36
f 103/199/37 104/201/37 112/202/37 111/200/37
f 104/201/38 97/203/38 105/204/38 112/202/38
f 112/205/9 105/206/9 106/207/9 107/208/9 108/209/9 109/210/9 110/211/9 111/212/9
f 97/213/10 104/214/10 103/215/10 102/216/10 101/217/10 100/218/10 99/219/10 98/220/10
