# Blender 5.1.1
# www.blender.org
mtllib ReadingLamp.mtl
o ReadingLamp
v 0.090000 0.000000 0.000000
v 0.072812 0.000000 -0.052901
v 0.027812 0.000000 -0.085595
v -0.027812 0.000000 -0.085595
v -0.072812 0.000000 -0.052901
v -0.090000 0.000000 -0.000000
v -0.072812 0.000000 0.052901
v -0.027812 0.000000 0.085595
v 0.027812 0.000000 0.085595
v 0.072812 0.000000 0.052901
v 0.110000 0.030000 0.000000
v 0.088992 0.030000 -0.064656
v 0.033992 0.030000 -0.104616
v -0.033992 0.030000 -0.104616
v -0.088992 0.030000 -0.064656
v -0.110000 0.030000 -0.000000
v -0.088992 0.030000 0.064656
v -0.033992 0.030000 0.104616
v 0.033992 0.030000 0.104616
v 0.088992 0.030000 0.064656
v -0.015000 0.000000 0.015000
v -0.015000 0.400000 0.015000
v -0.015000 0.000000 -0.015000
v -0.015000 0.400000 -0.015000
v 0.015000 0.000000 0.015000
v 0.015000 0.400000 0.015000
v 0.015000 0.000000 -0.015000
v 0.015000 0.400000 -0.015000
v 0.220000 0.400000 0.000000
v 0.177984 0.400000 -0.129313
v 0.067984 0.400000 -0.209232
v -0.067984 0.400000 -0.209232
v -0.177984 0.400000 -0.129313
v -0.220000 0.400000 -0.000000
v -0.177984 0.400000 0.129313
v -0.067984 0.400000 0.209232
v 0.067984 0.400000 0.209232
v 0.177984 0.400000 0.129313
v 0.060000 0.560000 0.000000
v 0.048541 0.560000 -0.035267
v 0.018541 0.560000 -0.057063
v -0.018541 0.560000 -0.057063
v -0.048541 0.560000 -0.035267
v -0.060000 0.560000 -0.000000
v -0.048541 0.560000 0.035267
v -0.018541 0.560000 0.057063
v 0.018541 0.560000 0.057063
v 0.048541 0.560000 0.035267
v 0.190000 0.550000 0.000000
v 0.153713 0.550000 -0.111679
v 0.058713 0.550000 -0.180701
v -0.058713 0.550000 -0.180701
v -0.153713 0.550000 -0.111679
v -0.190000 0.550000 -0.000000
v -0.153713 0.550000 0.111679
v -0.058713 0.550000 0.180701
v 0.058713 0.550000 0.180701
v 0.153713 0.550000 0.111679
v 0.200000 0.570000 0.000000
v 0.161803 0.570000 -0.117557
v 0.061803 0.570000 -0.190211
v -0.061803 0.570000 -0.190211
v -0.161803 0.570000 -0.117557
v -0.200000 0.570000 -0.000000
v -0.161803 0.570000 0.117557
v -0.061803 0.570000 0.190211
v 0.061803 0.570000 0.190211
v 0.161803 0.570000 0.117557
v 0.062095 0.400000 -0.157791
v 0.062095 0.600000 -0.157791
v 0.062095 0.400000 -0.173791
v 0.062095 0.600000 -0.173791
v 0.078095 0.400000 -0.157791
v 0.078095 0.600000 -0.157791
v 0.078095 0.400000 -0.173791
v 0.078095 0.600000 -0.173791
v 0.157791 0.400000 0.078095
v 0.157791 0.600000 0.078095
v 0.157791 0.400000 0.062095
v 0.157791 0.600000 0.062095
v 0.173791 0.400000 0.078095
v 0.173791 0.600000 0.078095
v 0.173791 0.400000 0.062095
v 0.173791 0.600000 0.062095
v -0.078095 0.400000 0.173791
v -0.078095 0.600000 0.173791
v -0.078095 0.400000 0.157791
v -0.078095 0.600000 0.157791
v -0.062095 0.400000 0.173791
v -0.062095 0.600000 0.173791
v -0.062095 0.400000 0.157791
v -0.062095 0.600000 0.157791
v -0.173791 0.400000 -0.062095
v -0.173791 0.600000 -0.062095
v -0.173791 0.400000 -0.078095
v -0.173791 0.600000 -0.078095
v -0.157791 0.400000 -0.062095
v -0.157791 0.600000 -0.062095
v -0.157791 0.400000 -0.078095
v -0.157791 0.600000 -0.078095
vn 0.8032 -0.5355 -0.2610
vn 0.4964 -0.5355 -0.6833
vn -0.0000 -0.5355 -0.8446
vn -0.4964 -0.5355 -0.6833
vn -0.8032 -0.5355 -0.2610
vn -0.8032 -0.5355 0.2610
vn -0.4964 -0.5355 0.6833
vn -0.0000 -0.5355 0.8445
vn 0.4964 -0.5355 0.6833
vn 0.8032 -0.5355 0.2610
vn -0.0000 1.0000 -0.0000
vn -0.0000 -1.0000 -0.0000
vn 1.0000 -0.0000 -0.0000
vn -1.0000 -0.0000 -0.0000
vn -0.0000 -0.0000 -1.0000
vn -0.0000 -0.0000 1.0000
vn 0.6892 0.6892 -0.2239
vn 0.4259 0.6892 -0.5862
vn -0.0000 0.6892 -0.7246
vn -0.4259 0.6892 -0.5862
vn -0.6892 0.6892 -0.2239
vn -0.6892 0.6892 0.2239
vn -0.4259 0.6892 0.5862
vn -0.0000 0.6892 0.7246
vn 0.4259 0.6892 0.5862
vn 0.6892 0.6892 0.2239
vn 0.8589 -0.4294 -0.2791
vn 0.5308 -0.4294 -0.7306
vn -0.0000 -0.4294 -0.9031
vn -0.5308 -0.4294 -0.7306
vn -0.8589 -0.4294 -0.2791
vn -0.8589 -0.4294 0.2791
vn -0.5308 -0.4294 0.7306
vn -0.0000 -0.4294 0.9031
vn 0.5308 -0.4294 0.7306
vn 0.8589 -0.4294 0.2791
vt 0.656250 0.343750
vt 0.687500 0.343750
vt 0.687500 0.359375
vt 0.656250 0.359375
vt 0.718750 0.343750
vt 0.718750 0.359375
vt 0.750000 0.343750
vt 0.750000 0.359375
vt 0.781250 0.343750
vt 0.781250 0.359375
vt 0.812500 0.343750
vt 0.812500 0.359375
vt 0.843750 0.343750
vt 0.843750 0.359375
vt 0.875000 0.343750
vt 0.875000 0.359375
vt 0.906250 0.343750
vt 0.906250 0.359375
vt 0.937500 0.343750
vt 0.937500 0.359375
vt 0.968750 0.343750
vt 0.968750 0.359375
vt 0.757812 0.398438
vt 0.765625 0.429688
vt 0.757812 0.460938
vt 0.726562 0.484375
vt 0.695312 0.484375
vt 0.664062 0.460938
vt 0.656250 0.429688
vt 0.664062 0.398438
vt 0.695312 0.375000
vt 0.726562 0.375000
vt 0.890625 0.429688
vt 0.882812 0.398438
vt 0.851562 0.375000
vt 0.820312 0.375000
vt 0.789062 0.398438
vt 0.781250 0.429688
vt 0.789062 0.460938
vt 0.820312 0.484375
vt 0.851562 0.484375
vt 0.882812 0.460938
vt 0.515625 0.234375
vt 0.531250 0.234375
vt 0.531250 0.250000
vt 0.515625 0.250000
vt 0.515625 0.015625
vt 0.531250 0.015625
vt 0.531250 0.031250
vt 0.515625 0.031250
vt 0.546875 0.031250
vt 0.546875 0.234375
vt 0.500000 0.031250
vt 0.500000 0.234375
vt 0.562500 0.031250
vt 0.562500 0.234375
vt 0.015625 0.015625
vt 0.062500 0.015625
vt 0.062500 0.093750
vt 0.015625 0.093750
vt 0.109375 0.015625
vt 0.109375 0.093750
vt 0.156250 0.015625
vt 0.156250 0.093750
vt 0.203125 0.015625
vt 0.203125 0.093750
vt 0.250000 0.015625
vt 0.250000 0.093750
vt 0.296875 0.015625
vt 0.296875 0.093750
vt 0.343750 0.015625
vt 0.343750 0.093750
vt 0.390625 0.015625
vt 0.390625 0.093750
vt 0.437500 0.015625
vt 0.437500 0.093750
vt 0.484375 0.015625
vt 0.484375 0.093750
vt 0.210938 0.156250
vt 0.234375 0.218750
vt 0.210938 0.281250
vt 0.156250 0.320312
vt 0.093750 0.320312
vt 0.039062 0.281250
vt 0.015625 0.218750
vt 0.039062 0.156250
vt 0.093750 0.117188
vt 0.156250 0.117188
vt 0.468750 0.218750
vt 0.445312 0.156250
vt 0.390625 0.117188
vt 0.328125 0.117188
vt 0.273438 0.156250
vt 0.250000 0.218750
vt 0.273438 0.281250
vt 0.328125 0.320312
vt 0.390625 0.320312
vt 0.445312 0.281250
vt 0.015625 0.343750
vt 0.078125 0.343750
vt 0.078125 0.351562
vt 0.015625 0.351562
vt 0.140625 0.343750
vt 0.140625 0.351562
vt 0.203125 0.343750
vt 0.203125 0.351562
vt 0.265625 0.343750
vt 0.265625 0.351562
vt 0.328125 0.343750
vt 0.328125 0.351562
vt 0.390625 0.343750
vt 0.390625 0.351562
vt 0.453125 0.343750
vt 0.453125 0.351562
vt 0.515625 0.343750
vt 0.515625 0.351562
vt 0.578125 0.343750
vt 0.578125 0.351562
vt 0.640625 0.343750
vt 0.640625 0.351562
vt 0.203125 0.406250
vt 0.218750 0.468750
vt 0.203125 0.531250
vt 0.148438 0.562500
vt 0.085938 0.562500
vt 0.031250 0.531250
vt 0.015625 0.468750
vt 0.031250 0.406250
vt 0.085938 0.375000
vt 0.148438 0.375000
vt 0.437500 0.468750
vt 0.421875 0.406250
vt 0.367188 0.375000
vt 0.304688 0.375000
vt 0.250000 0.406250
vt 0.234375 0.468750
vt 0.250000 0.531250
vt 0.304688 0.562500
vt 0.367188 0.562500
vt 0.421875 0.531250
vt 0.023438 0.695312
vt 0.031250 0.695312
vt 0.031250 0.703125
vt 0.023438 0.703125
vt 0.023438 0.585938
vt 0.031250 0.585938
vt 0.031250 0.593750
vt 0.023438 0.593750
vt 0.039062 0.593750
vt 0.039062 0.695312
vt 0.015625 0.593750
vt 0.015625 0.695312
vt 0.046875 0.593750
vt 0.046875 0.695312
vt 0.070312 0.695312
vt 0.078125 0.695312
vt 0.078125 0.703125
vt 0.070312 0.703125
vt 0.070312 0.585938
vt 0.078125 0.585938
vt 0.078125 0.593750
vt 0.070312 0.593750
vt 0.085938 0.593750
vt 0.085938 0.695312
vt 0.062500 0.593750
vt 0.062500 0.695312
vt 0.093750 0.593750
vt 0.093750 0.695312
vt 0.117188 0.695312
vt 0.125000 0.695312
vt 0.125000 0.703125
vt 0.117188 0.703125
vt 0.117188 0.585938
vt 0.125000 0.585938
vt 0.125000 0.593750
vt 0.117188 0.593750
vt 0.132812 0.593750
vt 0.132812 0.695312
vt 0.109375 0.593750
vt 0.109375 0.695312
vt 0.140625 0.593750
vt 0.140625 0.695312
vt 0.164062 0.695312
vt 0.171875 0.695312
vt 0.171875 0.703125
vt 0.164062 0.703125
vt 0.164062 0.585938
vt 0.171875 0.585938
vt 0.171875 0.593750
vt 0.164062 0.593750
vt 0.179688 0.593750
vt 0.179688 0.695312
vt 0.156250 0.593750
vt 0.156250 0.695312
vt 0.187500 0.593750
vt 0.187500 0.695312
s 0
usemtl ReadingLampTex
f 1/1/1 2/2/1 12/3/1 11/4/1
f 2/2/2 3/5/2 13/6/2 12/3/2
f 3/5/3 4/7/3 14/8/3 13/6/3
f 4/7/4 5/9/4 15/10/4 14/8/4
f 5/9/5 6/11/5 16/12/5 15/10/5
f 6/11/6 7/13/6 17/14/6 16/12/6
f 7/13/7 8/15/7 18/16/7 17/14/7
f 8/15/8 9/17/8 19/18/8 18/16/8
f 9/17/9 10/19/9 20/20/9 19/18/9
f 10/19/10 1/21/10 11/22/10 20/20/10
f 20/23/11 11/24/11 12/25/11 13/26/11 14/27/11 15/28/11 16/29/11 17/30/11 18/31/11 19/32/11
f 1/33/12 10/34/12 9/35/12 8/36/12 7/37/12 6/38/12 5/39/12 4/40/12 3/41/12 2/42/12
f 22/43/11 26/44/11 28/45/11 24/46/11
f 23/47/12 27/48/12 25/49/12 21/50/12
f 25/49/13 27/51/13 28/52/13 26/44/13
f 23/53/14 21/50/14 22/43/14 24/54/14
f 27/51/15 23/55/15 24/56/15 28/52/15
f 21/50/16 25/49/16 26/44/16 22/43/16
f 29/57/17 30/58/17 40/59/17 39/60/17
f 30/58/18 31/61/18 41/62/18 40/59/18
f 31/61/19 32/63/19 42/64/19 41/62/19
f 32/63/20 33/65/20 43/66/20 42/64/20
f 33/65/21 34/67/21 44/68/21 43/66/21
f 34/67/22 35/69/22 45/70/22 44/68/22
f 35/69/23 36/71/23 46/72/23 45/70/23
f 36/71/24 37/73/24 47/74/24 46/72/24
f 37/73/25 38/75/25 48/76/25 47/74/25
f 38/75/26 29/77/26 39/78/26 48/76/26
f 48/79/11 39/80/11 40/81/11 41/82/11 42/83/11 43/84/11 44/85/11 45/86/11 46/87/11 47/88/11
f 29/89/12 38/90/12 37/91/12 36/92/12 35/93/12 34/94/12 33/95/12 32/96/12 31/97/12 30/98/12
f 49/99/27 50/100/27 60/101/27 59/102/27
f 50/100/28 51/103/28 61/104/28 60/101/28
f 51/103/29 52/105/29 62/106/29 61/104/29
f 52/105/30 53/107/30 63/108/30 62/106/30
f 53/107/31 54/109/31 64/110/31 63/108/31
f 54/109/32 55/111/32 65/112/32 64/110/32
f 55/111/33 56/113/33 66/114/33 65/112/33
f 56/113/34 57/115/34 67/116/34 66/114/34
f 57/115/35 58/117/35 68/118/35 67/116/35
f 58/117/36 49/119/36 59/120/36 68/118/36
f 68/121/11 59/122/11 60/123/11 61/124/11 62/125/11 63/126/11 64/127/11 65/128/11 66/129/11 67/130/11
f 49/131/12 58/132/12 57/133/12 56/134/12 55/135/12 54/136/12 53/137/12 52/138/12 51/139/12 50/140/12
f 70/141/11 74/142/11 76/143/11 72/144/11
f 71/145/12 75/146/12 73/147/12 69/148/12
f 73/147/13 75/149/13 76/150/13 74/142/13
f 71/151/14 69/148/14 70/141/14 72/152/14
f 75/149/15 71/153/15 72/154/15 76/150/15
f 69/148/16 73/147/16 74/142/16 70/141/16
f 78/155/11 82/156/11 84/157/11 80/158/11
f 79/159/12 83/160/12 81/161/12 77/162/12
f 81/161/13 83/163/13 84/164/13 82/156/13
f 79/165/14 77/162/14 78/155/14 80/166/14
f 83/163/15 79/167/15 80/168/15 84/164/15
f 77/162/16 81/161/16 82/156/16 78/155/16
f 86/169/11 90/170/11 92/171/11 88/172/11
f 87/173/12 91/174/12 89/175/12 85/176/12
f 89/175/13 91/177/13 92/178/13 90/170/13
f 87/179/14 85/176/14 86/169/14 88/180/14
f 91/177/15 87/181/15 88/182/15 92/178/15
f 85/176/16 89/175/16 90/170/16 86/169/16
f 94/183/11 98/184/11 100/185/11 96/186/11
f 95/187/12 99/188/12 97/189/12 93/190/12
f 97/189/13 99/191/13 100/192/13 98/184/13
f 95/193/14 93/190/14 94/183/14 96/194/14
f 99/191/15 95/195/15 96/196/15 100/192/15
f 93/190/16 97/189/16 98/184/16 94/183/16
