# Blender 5.1.1
# www.blender.org
mtllib RecordsDoor.mtl
o RecordsDoor
v -0.550000 0.000000 0.060000
v -0.550000 2.100000 0.060000
v -0.550000 0.000000 -0.060000
v -0.550000 2.100000 -0.060000
v 0.550000 0.000000 0.060000
v 0.550000 2.100000 0.060000
v 0.550000 0.000000 -0.060000
v 0.550000 2.100000 -0.060000
v -0.570000 0.295000 0.075000
v -0.570000 0.405000 0.075000
v -0.570000 0.295000 -0.065000
v -0.570000 0.405000 -0.065000
v 0.570000 0.295000 0.075000
v 0.570000 0.405000 0.075000
v 0.570000 0.295000 -0.065000
v 0.570000 0.405000 -0.065000
v -0.570000 0.995000 0.075000
v -0.570000 1.105000 0.075000
v -0.570000 0.995000 -0.065000
v -0.570000 1.105000 -0.065000
v 0.570000 0.995000 0.075000
v 0.570000 1.105000 0.075000
v 0.570000 0.995000 -0.065000
v 0.570000 1.105000 -0.065000
v -0.570000 1.695000 0.075000
v -0.570000 1.805000 0.075000
v -0.570000 1.695000 -0.065000
v -0.570000 1.805000 -0.065000
v 0.570000 1.695000 0.075000
v 0.570000 1.805000 0.075000
v 0.570000 1.695000 -0.065000
v 0.570000 1.805000 -0.065000
v -0.220000 1.400000 0.080000
v -0.220000 1.600000 0.080000
v -0.220000 1.400000 0.060000
v -0.220000 1.600000 0.060000
v 0.220000 1.400000 0.080000
v 0.220000 1.600000 0.080000
v 0.220000 1.400000 0.060000
v 0.220000 1.600000 0.060000
v -0.240000 1.380000 0.082500
v -0.240000 1.620000 0.082500
v -0.240000 1.380000 0.067500
v -0.240000 1.620000 0.067500
v 0.240000 1.380000 0.082500
v 0.240000 1.620000 0.082500
v 0.240000 1.380000 0.067500
v 0.240000 1.620000 0.067500
v -0.210000 0.690000 0.075000
v -0.210000 0.750000 0.075000
v -0.210000 0.690000 0.045000
v -0.210000 0.750000 0.045000
v 0.210000 0.690000 0.075000
v 0.210000 0.750000 0.075000
v 0.210000 0.690000 0.045000
v 0.210000 0.750000 0.045000
v 0.455000 0.980000 0.090000
v 0.444749 0.980000 0.065251
v 0.420000 0.980000 0.055000
v 0.395251 0.980000 0.065251
v 0.385000 0.980000 0.090000
v 0.395251 0.980000 0.114749
v 0.420000 0.980000 0.125000
v 0.444749 0.980000 0.114749
v 0.455000 1.100000 0.090000
v 0.444749 1.100000 0.065251
v 0.420000 1.100000 0.055000
v 0.395251 1.100000 0.065251
v 0.385000 1.100000 0.090000
v 0.395251 1.100000 0.114749
v 0.420000 1.100000 0.125000
v 0.444749 1.100000 0.114749
vn -0.0000 1.0000 -0.0000
vn -0.0000 -1.0000 -0.0000
vn 1.0000 -0.0000 -0.0000
vn -1.0000 -0.0000 -0.0000
vn -0.0000 -0.0000 -1.0000
vn -0.0000 -0.0000 1.0000
vn 0.9239 -0.0000 -0.3827
vn 0.3827 -0.0000 -0.9239
vn -0.3827 -0.0000 -0.9239
vn -0.9239 -0.0000 -0.3827
vn -0.9239 -0.0000 0.3827
vn -0.3827 -0.0000 0.9239
vn 0.3827 -0.0000 0.9239
vn 0.9239 -0.0000 0.3827
vt 0.031250 0.425781
vt 0.238281 0.425781
vt 0.238281 0.449219
vt 0.031250 0.449219
vt 0.031250 0.007812
vt 0.238281 0.007812
vt 0.238281 0.031250
vt 0.031250 0.031250
vt 0.261719 0.031250
vt 0.261719 0.425781
vt 0.007812 0.031250
vt 0.007812 0.425781
vt 0.468750 0.031250
vt 0.468750 0.425781
vt 0.503906 0.054688
vt 0.718750 0.054688
vt 0.718750 0.082031
vt 0.503906 0.082031
vt 0.503906 0.007812
vt 0.718750 0.007812
vt 0.718750 0.035156
vt 0.503906 0.035156
vt 0.746094 0.035156
vt 0.746094 0.054688
vt 0.476562 0.035156
vt 0.476562 0.054688
vt 0.960938 0.035156
vt 0.960938 0.054688
vt 0.035156 0.503906
vt 0.250000 0.503906
vt 0.250000 0.531250
vt 0.035156 0.531250
vt 0.035156 0.457031
vt 0.250000 0.457031
vt 0.250000 0.484375
vt 0.035156 0.484375
vt 0.277344 0.484375
vt 0.277344 0.503906
vt 0.007812 0.484375
vt 0.007812 0.503906
vt 0.492188 0.484375
vt 0.492188 0.503906
vt 0.527344 0.503906
vt 0.742188 0.503906
vt 0.742188 0.531250
vt 0.527344 0.531250
vt 0.527344 0.457031
vt 0.742188 0.457031
vt 0.742188 0.484375
vt 0.527344 0.484375
vt 0.769531 0.484375
vt 0.769531 0.503906
vt 0.500000 0.484375
vt 0.500000 0.503906
vt 0.984375 0.484375
vt 0.984375 0.503906
vt 0.207031 0.582031
vt 0.289062 0.582031
vt 0.289062 0.585938
vt 0.207031 0.585938
vt 0.207031 0.539062
vt 0.289062 0.539062
vt 0.289062 0.542969
vt 0.207031 0.542969
vt 0.292969 0.542969
vt 0.292969 0.582031
vt 0.203125 0.542969
vt 0.203125 0.582031
vt 0.375000 0.542969
vt 0.375000 0.582031
vt 0.011719 0.589844
vt 0.101562 0.589844
vt 0.101562 0.593750
vt 0.011719 0.593750
vt 0.011719 0.539062
vt 0.101562 0.539062
vt 0.101562 0.542969
vt 0.011719 0.542969
vt 0.105469 0.542969
vt 0.105469 0.589844
vt 0.007812 0.542969
vt 0.007812 0.589844
vt 0.195312 0.542969
vt 0.195312 0.589844
vt 0.433594 0.554688
vt 0.511719 0.554688
vt 0.511719 0.558594
vt 0.433594 0.558594
vt 0.433594 0.539062
vt 0.511719 0.539062
vt 0.511719 0.542969
vt 0.433594 0.542969
vt 0.515625 0.542969
vt 0.515625 0.554688
vt 0.429688 0.542969
vt 0.429688 0.554688
vt 0.593750 0.542969
vt 0.593750 0.554688
vt 0.382812 0.539062
vt 0.386719 0.539062
vt 0.386719 0.562500
vt 0.382812 0.562500
vt 0.390625 0.539062
vt 0.390625 0.562500
vt 0.394531 0.539062
vt 0.394531 0.562500
vt 0.398438 0.539062
vt 0.398438 0.562500
vt 0.402344 0.539062
vt 0.402344 0.562500
vt 0.406250 0.539062
vt 0.406250 0.562500
vt 0.410156 0.539062
vt 0.410156 0.562500
vt 0.414062 0.539062
vt 0.414062 0.562500
vt 0.394531 0.574219
vt 0.398438 0.578125
vt 0.394531 0.582031
vt 0.390625 0.585938
vt 0.386719 0.582031
vt 0.382812 0.578125
vt 0.386719 0.574219
vt 0.390625 0.570312
vt 0.421875 0.578125
vt 0.417969 0.574219
vt 0.414062 0.570312
vt 0.410156 0.574219
vt 0.406250 0.578125
vt 0.410156 0.582031
vt 0.414062 0.585938
vt 0.417969 0.582031
s 0
usemtl RecordsDoorTex
f 2/1/1 6/2/1 8/3/1 4/4/1
f 3/5/2 7/6/2 5/7/2 1/8/2
f 5/7/3 7/9/3 8/10/3 6/2/3
f 3/11/4 1/8/4 2/1/4 4/12/4
f 7/9/5 3/13/5 4/14/5 8/10/5
f 1/8/6 5/7/6 6/2/6 2/1/6
f 10/15/1 14/16/1 16/17/1 12/18/1
f 11/19/2 15/20/2 13/21/2 9/22/2
f 13/21/3 15/23/3 16/24/3 14/16/3
f 11/25/4 9/22/4 10/15/4 12/26/4
f 15/23/5 11/27/5 12/28/5 16/24/5
f 9/22/6 13/21/6 14/16/6 10/15/6
f 18/29/1 22/30/1 24/31/1 20/32/1
f 19/33/2 23/34/2 21/35/2 17/36/2
f 21/35/3 23/37/3 24/38/3 22/30/3
f 19/39/4 17/36/4 18/29/4 20/40/4
f 23/37/5 19/41/5 20/42/5 24/38/5
f 17/36/6 21/35/6 22/30/6 18/29/6
f 26/43/1 30/44/1 32/45/1 28/46/1
f 27/47/2 31/48/2 29/49/2 25/50/2
f 29/49/3 31/51/3 32/52/3 30/44/3
f 27/53/4 25/50/4 26/43/4 28/54/4
f 31/51/5 27/55/5 28/56/5 32/52/5
f 25/50/6 29/49/6 30/44/6 26/43/6
f 34/57/1 38/58/1 40/59/1 36/60/1
f 35/61/2 39/62/2 37/63/2 33/64/2
f 37/63/3 39/65/3 40/66/3 38/58/3
f 35/67/4 33/64/4 34/57/4 36/68/4
f 39/65/5 35/69/5 36/70/5 40/66/5
f 33/64/6 37/63/6 38/58/6 34/57/6
f 42/71/1 46/72/1 48/73/1 44/74/1
f 43/75/2 47/76/2 45/77/2 41/78/2
f 45/77/3 47/79/3 48/80/3 46/72/3
f 43/81/4 41/78/4 42/71/4 44/82/4
f 47/79/5 43/83/5 44/84/5 48/80/5
f 41/78/6 45/77/6 46/72/6 42/71/6
f 50/85/1 54/86/1 56/87/1 52/88/1
f 51/89/2 55/90/2 53/91/2 49/92/2
f 53/91/3 55/93/3 56/94/3 54/86/3
f 51/95/4 49/92/4 50/85/4 52/96/4
f 55/93/5 51/97/5 52/98/5 56/94/5
f 49/92/6 53/91/6 54/86/6 50/85/6
f 57/99/7 58/100/7 66/101/7 65/102/7
f 58/100/8 59/103/8 67/104/8 66/101/8
f 59/103/9 60/105/9 68/106/9 67/104/9
f 60/105/10 61/107/10 69/108/10 68/106/10
f 61/107/11 62/109/11 70/110/11 69/108/11
f 62/109/12 63/111/12 71/112/12 70/110/12
f 63/111/13 64/113/13 72/114/13 71/112/13
f 64/113/14 57/115/14 65/116/14 72/114/14
f 72/117/1 65/118/1 66/119/1 67/120/1 68/121/1 69/122/1 70/123/1 71/124/1
f 57/125/2 64/126/2 63/127/2 62/128/2 61/129/2 60/130/2 59/131/2 58/132/2
