# Blender 5.1.1
# www.blender.org
mtllib ScanArch.mtl
o ScanArch
v -1.220000 0.000000 0.300000
v -1.220000 0.180000 0.300000
v -1.220000 0.000000 -0.300000
v -1.220000 0.180000 -0.300000
v -0.780000 0.000000 0.300000
v -0.780000 0.180000 0.300000
v -0.780000 0.000000 -0.300000
v -0.780000 0.180000 -0.300000
v -1.140000 0.000000 0.210000
v -1.140000 2.400000 0.210000
v -1.140000 0.000000 -0.210000
v -1.140000 2.400000 -0.210000
v -0.860000 0.000000 0.210000
v -0.860000 2.400000 0.210000
v -0.860000 0.000000 -0.210000
v -0.860000 2.400000 -0.210000
v -1.050000 0.200000 0.235000
v -1.050000 2.200000 0.235000
v -1.050000 0.200000 0.205000
v -1.050000 2.200000 0.205000
v -0.950000 0.200000 0.235000
v -0.950000 2.200000 0.235000
v -0.950000 0.200000 0.205000
v -0.950000 2.200000 0.205000
v 0.780000 0.000000 0.300000
v 0.780000 0.180000 0.300000
v 0.780000 0.000000 -0.300000
v 0.780000 0.180000 -0.300000
v 1.220000 0.000000 0.300000
v 1.220000 0.180000 0.300000
v 1.220000 0.000000 -0.300000
v 1.220000 0.180000 -0.300000
v 0.860000 0.000000 0.210000
v 0.860000 2.400000 0.210000
v 0.860000 0.000000 -0.210000
v 0.860000 2.400000 -0.210000
v 1.140000 0.000000 0.210000
v 1.140000 2.400000 0.210000
v 1.140000 0.000000 -0.210000
v 1.140000 2.400000 -0.210000
v 0.950000 0.200000 0.235000
v 0.950000 2.200000 0.235000
v 0.950000 0.200000 0.205000
v 0.950000 2.200000 0.205000
v 1.050000 0.200000 0.235000
v 1.050000 2.200000 0.235000
v 1.050000 0.200000 0.205000
v 1.050000 2.200000 0.205000
v -1.150000 2.390000 0.230000
v -1.150000 2.650000 0.230000
v -1.150000 2.390000 -0.230000
v -1.150000 2.650000 -0.230000
v 1.150000 2.390000 0.230000
v 1.150000 2.650000 0.230000
v 1.150000 2.390000 -0.230000
v 1.150000 2.650000 -0.230000
v -0.670000 2.380000 0.250000
v -0.670000 2.500000 0.250000
v -0.670000 2.380000 0.150000
v -0.670000 2.500000 0.150000
v -0.530000 2.380000 0.250000
v -0.530000 2.500000 0.250000
v -0.530000 2.380000 0.150000
v -0.530000 2.500000 0.150000
v -0.640000 2.410000 0.265000
v -0.640000 2.470000 0.265000
v -0.640000 2.410000 0.245000
v -0.640000 2.470000 0.245000
v -0.560000 2.410000 0.265000
v -0.560000 2.470000 0.265000
v -0.560000 2.410000 0.245000
v -0.560000 2.470000 0.245000
v -0.270000 2.380000 0.250000
v -0.270000 2.500000 0.250000
v -0.270000 2.380000 0.150000
v -0.270000 2.500000 0.150000
v -0.130000 2.380000 0.250000
v -0.130000 2.500000 0.250000
v -0.130000 2.380000 0.150000
v -0.130000 2.500000 0.150000
v -0.240000 2.410000 0.265000
v -0.240000 2.470000 0.265000
v -0.240000 2.410000 0.245000
v -0.240000 2.470000 0.245000
v -0.160000 2.410000 0.265000
v -0.160000 2.470000 0.265000
v -0.160000 2.410000 0.245000
v -0.160000 2.470000 0.245000
v 0.130000 2.380000 0.250000
v 0.130000 2.500000 0.250000
v 0.130000 2.380000 0.150000
v 0.130000 2.500000 0.150000
v 0.270000 2.380000 0.250000
v 0.270000 2.500000 0.250000
v 0.270000 2.380000 0.150000
v 0.270000 2.500000 0.150000
v 0.160000 2.410000 0.265000
v 0.160000 2.470000 0.265000
v 0.160000 2.410000 0.245000
v 0.160000 2.470000 0.245000
v 0.240000 2.410000 0.265000
v 0.240000 2.470000 0.265000
v 0.240000 2.410000 0.245000
v 0.240000 2.470000 0.245000
v 0.530000 2.380000 0.250000
v 0.530000 2.500000 0.250000
v 0.530000 2.380000 0.150000
v 0.530000 2.500000 0.150000
v 0.670000 2.380000 0.250000
v 0.670000 2.500000 0.250000
v 0.670000 2.380000 0.150000
v 0.670000 2.500000 0.150000
v 0.560000 2.410000 0.265000
v 0.560000 2.470000 0.265000
v 0.560000 2.410000 0.245000
v 0.560000 2.470000 0.245000
v 0.640000 2.410000 0.265000
v 0.640000 2.470000 0.265000
v 0.640000 2.410000 0.245000
v 0.640000 2.470000 0.245000
v -0.860000 0.200000 0.000000
v 0.860000 0.200000 0.000000
v -0.860000 2.400000 0.000000
v 0.860000 2.400000 0.000000
vn -0.0000 1.0000 -0.0000
vn 1.0000 -0.0000 -0.0000
vn -1.0000 -0.0000 -0.0000
vn -0.0000 -0.0000 -1.0000
vn -0.0000 -0.0000 1.0000
vn -0.0000 -1.0000 -0.0000
vt 0.742188 0.105469
vt 0.796875 0.105469
vt 0.796875 0.179688
vt 0.742188 0.179688
vt 0.796875 0.082031
vt 0.871094 0.082031
vt 0.871094 0.105469
vt 0.667969 0.082031
vt 0.742188 0.082031
vt 0.667969 0.105469
vt 0.925781 0.082031
vt 0.925781 0.105469
vt 0.058594 0.359375
vt 0.093750 0.359375
vt 0.093750 0.410156
vt 0.058594 0.410156
vt 0.058594 0.007812
vt 0.093750 0.007812
vt 0.093750 0.058594
vt 0.058594 0.058594
vt 0.144531 0.058594
vt 0.144531 0.359375
vt 0.007812 0.058594
vt 0.007812 0.359375
vt 0.179688 0.058594
vt 0.179688 0.359375
vt 0.593750 0.261719
vt 0.605469 0.261719
vt 0.605469 0.265625
vt 0.593750 0.265625
vt 0.593750 0.007812
vt 0.605469 0.007812
vt 0.605469 0.011719
vt 0.593750 0.011719
vt 0.609375 0.011719
vt 0.609375 0.261719
vt 0.589844 0.011719
vt 0.589844 0.261719
vt 0.621094 0.011719
vt 0.621094 0.261719
vt 0.082031 0.515625
vt 0.136719 0.515625
vt 0.136719 0.589844
vt 0.082031 0.589844
vt 0.136719 0.492188
vt 0.210938 0.492188
vt 0.210938 0.515625
vt 0.007812 0.492188
vt 0.082031 0.492188
vt 0.007812 0.515625
vt 0.265625 0.492188
vt 0.265625 0.515625
vt 0.238281 0.359375
vt 0.273438 0.359375
vt 0.273438 0.410156
vt 0.238281 0.410156
vt 0.238281 0.007812
vt 0.273438 0.007812
vt 0.273438 0.058594
vt 0.238281 0.058594
vt 0.324219 0.058594
vt 0.324219 0.359375
vt 0.187500 0.058594
vt 0.187500 0.359375
vt 0.359375 0.058594
vt 0.359375 0.359375
vt 0.632812 0.261719
vt 0.644531 0.261719
vt 0.644531 0.265625
vt 0.632812 0.265625
vt 0.632812 0.007812
vt 0.644531 0.007812
vt 0.644531 0.011719
vt 0.632812 0.011719
vt 0.648438 0.011719
vt 0.648438 0.261719
vt 0.628906 0.011719
vt 0.628906 0.261719
vt 0.660156 0.011719
vt 0.660156 0.261719
vt 0.332031 0.507812
vt 0.621094 0.507812
vt 0.621094 0.566406
vt 0.332031 0.566406
vt 0.332031 0.417969
vt 0.621094 0.417969
vt 0.621094 0.476562
vt 0.332031 0.476562
vt 0.679688 0.476562
vt 0.679688 0.507812
vt 0.273438 0.476562
vt 0.273438 0.507812
vt 0.968750 0.476562
vt 0.968750 0.507812
vt 0.019531 0.625000
vt 0.035156 0.625000
vt 0.035156 0.636719
vt 0.019531 0.636719
vt 0.019531 0.597656
vt 0.035156 0.597656
vt 0.035156 0.609375
vt 0.019531 0.609375
vt 0.046875 0.609375
vt 0.046875 0.625000
vt 0.007812 0.609375
vt 0.007812 0.625000
vt 0.062500 0.609375
vt 0.062500 0.625000
vt 0.261719 0.609375
vt 0.273438 0.609375
vt 0.273438 0.613281
vt 0.261719 0.613281
vt 0.261719 0.597656
vt 0.273438 0.597656
vt 0.273438 0.601562
vt 0.261719 0.601562
vt 0.277344 0.601562
vt 0.277344 0.609375
vt 0.257812 0.601562
vt 0.257812 0.609375
vt 0.289062 0.601562
vt 0.289062 0.609375
vt 0.082031 0.625000
vt 0.097656 0.625000
vt 0.097656 0.636719
vt 0.082031 0.636719
vt 0.082031 0.597656
vt 0.097656 0.597656
vt 0.097656 0.609375
vt 0.082031 0.609375
vt 0.109375 0.609375
vt 0.109375 0.625000
vt 0.070312 0.609375
vt 0.070312 0.625000
vt 0.125000 0.609375
vt 0.125000 0.625000
vt 0.300781 0.609375
vt 0.312500 0.609375
vt 0.312500 0.613281
vt 0.300781 0.613281
vt 0.300781 0.597656
vt 0.312500 0.597656
vt 0.312500 0.601562
vt 0.300781 0.601562
vt 0.316406 0.601562
vt 0.316406 0.609375
vt 0.296875 0.601562
vt 0.296875 0.609375
vt 0.328125 0.601562
vt 0.328125 0.609375
vt 0.144531 0.625000
vt 0.160156 0.625000
vt 0.160156 0.636719
vt 0.144531 0.636719
vt 0.144531 0.597656
vt 0.160156 0.597656
vt 0.160156 0.609375
vt 0.144531 0.609375
vt 0.171875 0.609375
vt 0.171875 0.625000
vt 0.132812 0.609375
vt 0.132812 0.625000
vt 0.187500 0.609375
vt 0.187500 0.625000
vt 0.339844 0.609375
vt 0.351562 0.609375
vt 0.351562 0.613281
vt 0.339844 0.613281
vt 0.339844 0.597656
vt 0.351562 0.597656
vt 0.351562 0.601562
vt 0.339844 0.601562
vt 0.355469 0.601562
vt 0.355469 0.609375
vt 0.335938 0.601562
vt 0.335938 0.609375
vt 0.367188 0.601562
vt 0.367188 0.609375
vt 0.207031 0.625000
vt 0.222656 0.625000
vt 0.222656 0.636719
vt 0.207031 0.636719
vt 0.207031 0.597656
vt 0.222656 0.597656
vt 0.222656 0.609375
vt 0.207031 0.609375
vt 0.234375 0.609375
vt 0.234375 0.625000
vt 0.195312 0.609375
vt 0.195312 0.625000
vt 0.250000 0.609375
vt 0.250000 0.625000
vt 0.378906 0.609375
vt 0.390625 0.609375
vt 0.390625 0.613281
vt 0.378906 0.613281
vt 0.378906 0.597656
vt 0.390625 0.597656
vt 0.390625 0.601562
vt 0.378906 0.601562
vt 0.394531 0.601562
vt 0.394531 0.609375
vt 0.375000 0.601562
vt 0.375000 0.609375
vt 0.406250 0.601562
vt 0.406250 0.609375
vt 0.367188 0.007812
vt 0.582031 0.007812
vt 0.582031 0.281250
vt 0.367188 0.281250
s 0
usemtl ScanArchTex
f 2/1/1 6/2/1 8/3/1 4/4/1
f 5/5/2 7/6/2 8/7/2 6/2/2
f 3/8/3 1/9/3 2/1/3 4/10/3
f 7/6/4 3/11/4 4/12/4 8/7/4
f 1/9/5 5/5/5 6/2/5 2/1/5
f 10/13/1 14/14/1 16/15/1 12/16/1
f 11/17/6 15/18/6 13/19/6 9/20/6
f 13/19/2 15/21/2 16/22/2 14/14/2
f 11/23/3 9/20/3 10/13/3 12/24/3
f 15/21/4 11/25/4 12/26/4 16/22/4
f 9/20/5 13/19/5 14/14/5 10/13/5
f 18/27/1 22/28/1 24/29/1 20/30/1
f 19/31/6 23/32/6 21/33/6 17/34/6
f 21/33/2 23/35/2 24/36/2 22/28/2
f 19/37/3 17/34/3 18/27/3 20/38/3
f 23/35/4 19/39/4 20/40/4 24/36/4
f 17/34/5 21/33/5 22/28/5 18/27/5
f 26/41/1 30/42/1 32/43/1 28/44/1
f 29/45/2 31/46/2 32/47/2 30/42/2
f 27/48/3 25/49/3 26/41/3 28/50/3
f 31/46/4 27/51/4 28/52/4 32/47/4
f 25/49/5 29/45/5 30/42/5 26/41/5
f 34/53/1 38/54/1 40/55/1 36/56/1
f 35/57/6 39/58/6 37/59/6 33/60/6
f 37/59/2 39/61/2 40/62/2 38/54/2
f 35/63/3 33/60/3 34/53/3 36/64/3
f 39/61/4 35/65/4 36/66/4 40/62/4
f 33/60/5 37/59/5 38/54/5 34/53/5
f 42/67/1 46/68/1 48/69/1 44/70/1
f 43/71/6 47/72/6 45/73/6 41/74/6
f 45/73/2 47/75/2 48/76/2 46/68/2
f 43/77/3 41/74/3 42/67/3 44/78/3
f 47/75/4 43/79/4 44/80/4 48/76/4
f 41/74/5 45/73/5 46/68/5 42/67/5
f 50/81/1 54/82/1 56/83/1 52/84/1
f 51/85/6 55/86/6 53/87/6 49/88/6
f 53/87/2 55/89/2 56/90/2 54/82/2
f 51/91/3 49/88/3 50/81/3 52/92/3
f 55/89/4 51/93/4 52/94/4 56/90/4
f 49/88/5 53/87/5 54/82/5 50/81/5
f 58/95/1 62/96/1 64/97/1 60/98/1
f 59/99/6 63/100/6 61/101/6 57/102/6
f 61/101/2 63/103/2 64/104/2 62/96/2
f 59/105/3 57/102/3 58/95/3 60/106/3
f 63/103/4 59/107/4 60/108/4 64/104/4
f 57/102/5 61/101/5 62/96/5 58/95/5
f 66/109/1 70/110/1 72/111/1 68/112/1
f 67/113/6 71/114/6 69/115/6 65/116/6
f 69/115/2 71/117/2 72/118/2 70/110/2
f 67/119/3 65/116/3 66/109/3 68/120/3
f 71/117/4 67/121/4 68/122/4 72/118/4
f 65/116/5 69/115/5 70/110/5 66/109/5
f 74/123/1 78/124/1 80/125/1 76/126/1
f 75/127/6 79/128/6 77/129/6 73/130/6
f 77/129/2 79/131/2 80/132/2 78/124/2
f 75/133/3 73/130/3 74/123/3 76/134/3
f 79/131/4 75/135/4 76/136/4 80/132/4
f 73/130/5 77/129/5 78/124/5 74/123/5
f 82/137/1 86/138/1 88/139/1 84/140/1
f 83/141/6 87/142/6 85/143/6 81/144/6
f 85/143/2 87/145/2 88/146/2 86/138/2
f 83/147/3 81/144/3 82/137/3 84/148/3
f 87/145/4 83/149/4 84/150/4 88/146/4
f 81/144/5 85/143/5 86/138/5 82/137/5
f 90/151/1 94/152/1 96/153/1 92/154/1
f 91/155/6 95/156/6 93/157/6 89/158/6
f 93/157/2 95/159/2 96/160/2 94/152/2
f 91/161/3 89/158/3 90/151/3 92/162/3
f 95/159/4 91/163/4 92/164/4 96/160/4
f 89/158/5 93/157/5 94/152/5 90/151/5
f 98/165/1 102/166/1 104/167/1 100/168/1
f 99/169/6 103/170/6 101/171/6 97/172/6
f 101/171/2 103/173/2 104/174/2 102/166/2
f 99/175/3 97/172/3 98/165/3 100/176/3
f 103/173/4 99/177/4 100/178/4 104/174/4
f 97/172/5 101/171/5 102/166/5 98/165/5
f 106/179/1 110/180/1 112/181/1 108/182/1
f 107/183/6 111/184/6 109/185/6 105/186/6
f 109/185/2 111/187/2 112/188/2 110/180/2
f 107/189/3 105/186/3 106/179/3 108/190/3
f 111/187/4 107/191/4 108/192/4 112/188/4
f 105/186/5 109/185/5 110/180/5 106/179/5
f 114/193/1 118/194/1 120/195/1 116/196/1
f 115/197/6 119/198/6 117/199/6 113/200/6
f 117/199/2 119/201/2 120/202/2 118/194/2
f 115/203/3 113/200/3 114/193/3 116/204/3
f 119/201/4 115/205/4 116/206/4 120/202/4
f 113/200/5 117/199/5 118/194/5 114/193/5
f 121/207/5 122/208/5 124/209/5 123/210/5
