# Blender 5.1.1
# www.blender.org
mtllib Terminal.mtl
o Terminal
v -0.430000 0.000000 0.310000
v -0.430000 0.120000 0.310000
v -0.430000 0.000000 -0.310000
v -0.430000 0.120000 -0.310000
v 0.430000 0.000000 0.310000
v 0.430000 0.120000 0.310000
v 0.430000 0.000000 -0.310000
v 0.430000 0.120000 -0.310000
v -0.385000 0.120000 0.250000
v -0.385000 0.720000 0.250000
v -0.385000 0.120000 -0.250000
v -0.385000 0.720000 -0.250000
v -0.295000 0.120000 0.250000
v -0.295000 0.720000 0.250000
v -0.295000 0.120000 -0.250000
v -0.295000 0.720000 -0.250000
v 0.295000 0.120000 0.250000
v 0.295000 0.720000 0.250000
v 0.295000 0.120000 -0.250000
v 0.295000 0.720000 -0.250000
v 0.385000 0.120000 0.250000
v 0.385000 0.720000 0.250000
v 0.385000 0.120000 -0.250000
v 0.385000 0.720000 -0.250000
v -0.450000 0.710000 0.330000
v -0.450000 0.810000 0.330000
v -0.450000 0.710000 -0.330000
v -0.450000 0.810000 -0.330000
v 0.450000 0.710000 0.330000
v 0.450000 0.810000 0.330000
v 0.450000 0.710000 -0.330000
v 0.450000 0.810000 -0.330000
v -0.450000 0.800000 -0.170000
v -0.450000 1.000000 -0.170000
v -0.450000 0.800000 -0.310000
v -0.450000 1.000000 -0.310000
v 0.450000 0.800000 -0.170000
v 0.450000 1.000000 -0.170000
v 0.450000 0.800000 -0.310000
v 0.450000 1.000000 -0.310000
v -0.330000 0.820000 -0.140000
v -0.330000 0.980000 -0.140000
v -0.330000 0.820000 -0.160000
v -0.330000 0.980000 -0.160000
v 0.330000 0.820000 -0.140000
v 0.330000 0.980000 -0.140000
v 0.330000 0.820000 -0.160000
v 0.330000 0.980000 -0.160000
v -0.220000 0.810000 0.300000
v -0.220000 0.850000 0.300000
v -0.220000 0.810000 0.100000
v -0.220000 0.850000 0.100000
v 0.220000 0.810000 0.300000
v 0.220000 0.850000 0.300000
v 0.220000 0.810000 0.100000
v 0.220000 0.850000 0.100000
v -0.450000 0.760000 0.335000
v 0.450000 0.760000 0.335000
v -0.450000 0.820000 0.335000
v 0.450000 0.820000 0.335000
vn -0.0000 1.0000 -0.0000
vn 1.0000 -0.0000 -0.0000
vn -1.0000 -0.0000 -0.0000
vn -0.0000 -0.0000 -1.0000
vn -0.0000 -0.0000 1.0000
vn -0.0000 -1.0000 -0.0000
vt 0.125000 0.734375
vt 0.285156 0.734375
vt 0.285156 0.851562
vt 0.125000 0.851562
vt 0.285156 0.710938
vt 0.402344 0.710938
vt 0.402344 0.734375
vt 0.007812 0.710938
vt 0.125000 0.710938
vt 0.007812 0.734375
vt 0.562500 0.710938
vt 0.562500 0.734375
vt 0.101562 0.214844
vt 0.117188 0.214844
vt 0.117188 0.308594
vt 0.101562 0.308594
vt 0.101562 0.007812
vt 0.117188 0.007812
vt 0.117188 0.101562
vt 0.101562 0.101562
vt 0.210938 0.101562
vt 0.210938 0.214844
vt 0.007812 0.101562
vt 0.007812 0.214844
vt 0.226562 0.101562
vt 0.226562 0.214844
vt 0.328125 0.214844
vt 0.343750 0.214844
vt 0.343750 0.308594
vt 0.328125 0.308594
vt 0.328125 0.007812
vt 0.343750 0.007812
vt 0.343750 0.101562
vt 0.328125 0.101562
vt 0.437500 0.101562
vt 0.437500 0.214844
vt 0.234375 0.101562
vt 0.234375 0.214844
vt 0.453125 0.101562
vt 0.453125 0.214844
vt 0.132812 0.460938
vt 0.300781 0.460938
vt 0.300781 0.585938
vt 0.132812 0.585938
vt 0.132812 0.316406
vt 0.300781 0.316406
vt 0.300781 0.441406
vt 0.132812 0.441406
vt 0.425781 0.441406
vt 0.425781 0.460938
vt 0.007812 0.441406
vt 0.007812 0.460938
vt 0.593750 0.441406
vt 0.593750 0.460938
vt 0.597656 0.660156
vt 0.765625 0.660156
vt 0.765625 0.687500
vt 0.597656 0.687500
vt 0.597656 0.593750
vt 0.765625 0.593750
vt 0.765625 0.621094
vt 0.597656 0.621094
vt 0.792969 0.621094
vt 0.792969 0.660156
vt 0.570312 0.621094
vt 0.570312 0.660156
vt 0.960938 0.621094
vt 0.960938 0.660156
vt 0.261719 0.894531
vt 0.386719 0.894531
vt 0.386719 0.898438
vt 0.261719 0.898438
vt 0.261719 0.859375
vt 0.386719 0.859375
vt 0.386719 0.863281
vt 0.261719 0.863281
vt 0.390625 0.863281
vt 0.390625 0.894531
vt 0.257812 0.863281
vt 0.257812 0.894531
vt 0.515625 0.863281
vt 0.515625 0.894531
vt 0.046875 0.906250
vt 0.128906 0.906250
vt 0.128906 0.945312
vt 0.046875 0.945312
vt 0.046875 0.859375
vt 0.128906 0.859375
vt 0.128906 0.898438
vt 0.046875 0.898438
vt 0.167969 0.898438
vt 0.167969 0.906250
vt 0.007812 0.898438
vt 0.007812 0.906250
vt 0.250000 0.898438
vt 0.250000 0.906250
vt 0.523438 0.859375
vt 0.691406 0.859375
vt 0.691406 0.871094
vt 0.523438 0.871094
s 0
usemtl TerminalTex
f 2/1/1 6/2/1 8/3/1 4/4/1
f 5/5/2 7/6/2 8/7/2 6/2/2
f 3/8/3 1/9/3 2/1/3 4/10/3
f 7/6/4 3/11/4 4/12/4 8/7/4
f 1/9/5 5/5/5 6/2/5 2/1/5
f 10/13/1 14/14/1 16/15/1 12/16/1
f 11/17/6 15/18/6 13/19/6 9/20/6
f 13/19/2 15/21/2 16/22/2 14/14/2
f 11/23/3 9/20/3 10/13/3 12/24/3
f 15/21/4 11/25/4 12/26/4 16/22/4
f 9/20/5 13/19/5 14/14/5 10/13/5
f 18/27/1 22/28/1 24/29/1 20/30/1
f 19/31/6 23/32/6 21/33/6 17/34/6
f 21/33/2 23/35/2 24/36/2 22/28/2
f 19/37/3 17/34/3 18/27/3 20/38/3
f 23/35/4 19/39/4 20/40/4 24/36/4
f 17/34/5 21/33/5 22/28/5 18/27/5
f 26/41/1 30/42/1 32/43/1 28/44/1
f 27/45/6 31/46/6 29/47/6 25/48/6
f 29/47/2 31/49/2 32/50/2 30/42/2
f 27/51/3 25/48/3 26/41/3 28/52/3
f 31/49/4 27/53/4 28/54/4 32/50/4
f 25/48/5 29/47/5 30/42/5 26/41/5
f 34/55/1 38/56/1 40/57/1 36/58/1
f 35/59/6 39/60/6 37/61/6 33/62/6
f 37/61/2 39/63/2 40/64/2 38/56/2
f 35/65/3 33/62/3 34/55/3 36/66/3
f 39/63/4 35/67/4 36/68/4 40/64/4
f 33/62/5 37/61/5 38/56/5 34/55/5
f 42/69/1 46/70/1 48/71/1 44/72/1
f 43/73/6 47/74/6 45/75/6 41/76/6
f 45/75/2 47/77/2 48/78/2 46/70/2
f 43/79/3 41/76/3 42/69/3 44/80/3
f 47/77/4 43/81/4 44/82/4 48/78/4
f 41/76/5 45/75/5 46/70/5 42/69/5
f 50/83/1 54/84/1 56/85/1 52/86/1
f 51/87/6 55/88/6 53/89/6 49/90/6
f 53/89/2 55/91/2 56/92/2 54/84/2
f 51/93/3 49/90/3 50/83/3 52/94/3
f 55/91/4 51/95/4 52/96/4 56/92/4
f 49/90/5 53/89/5 54/84/5 50/83/5
f 57/97/5 58/98/5 60/99/5 59/100/5
