# Blender 5.1.1
# www.blender.org
mtllib WallPanelTile.mtl
o WallPanelTile
v -1.000000 0.000000 0.000000
v -1.000000 2.500000 0.000000
v -1.000000 0.000000 -0.100000
v -1.000000 2.500000 -0.100000
v 1.000000 0.000000 0.000000
v 1.000000 2.500000 0.000000
v 1.000000 0.000000 -0.100000
v 1.000000 2.500000 -0.100000
v -1.000000 0.000000 0.002000
v 1.000000 0.000000 0.002000
v -1.000000 2.500000 0.002000
v 1.000000 2.500000 0.002000
vn -0.0000 1.0000 -0.0000
vn -0.0000 -1.0000 -0.0000
vn 1.0000 -0.0000 -0.0000
vn -1.0000 -0.0000 -0.0000
vn -0.0000 -0.0000 -1.0000
vn -0.0000 -0.0000 1.0000
vt 0.019531 0.332031
vt 0.269531 0.332031
vt 0.269531 0.343750
vt 0.019531 0.343750
vt 0.019531 0.007812
vt 0.269531 0.007812
vt 0.269531 0.019531
vt 0.019531 0.019531
vt 0.281250 0.019531
vt 0.281250 0.332031
vt 0.007812 0.019531
vt 0.007812 0.332031
vt 0.531250 0.019531
vt 0.531250 0.332031
vt 0.539062 0.007812
vt 0.789062 0.007812
vt 0.789062 0.320312
vt 0.539062 0.320312
s 0
usemtl WallPanelTileTex
f 2/1/1 6/2/1 8/3/1 4/4/1
f 3/5/2 7/6/2 5/7/2 1/8/2
f 5/7/3 7/9/3 8/10/3 6/2/3
f 3/11/4 1/8/4 2/1/4 4/12/4
f 7/9/5 3/13/5 4/14/5 8/10/5
f 1/8/6 5/7/6 6/2/6 2/1/6
f 9/15/6 10/16/6 12/17/6 11/18/6
