{
	"asset":{
		"generator":"Khronos glTF Blender I/O v5.1.19",
		"version":"2.0"
	},
	"extensionsUsed":[
		"KHR_materials_emissive_strength"
	],
	"scene":0,
	"scenes":[
		{
			"name":"Scene",
			"nodes":[
				0,
				1,
				2,
				3
			]
		}
	],
	"nodes":[
		{
			"mesh":0,
			"name":"MonosRoomShell"
		},
		{
			"mesh":1,
			"name":"MonosPortal",
			"translation":[
				0,
				2.0999999046325684,
				-5.429999828338623
			]
		},
		{
			"mesh":2,
			"name":"MonosConsole",
			"rotation":[
				0,
				-0.9848078489303589,
				0,
				0.17364820837974548
			],
			"translation":[
				1.899999976158142,
				0,
				-4.5
			]
		},
		{
			"mesh":3,
			"name":"MonosShelf",
			"rotation":[
				0,
				0.7071068286895752,
				0,
				0.7071068286895752
			],
			"translation":[
				-2.950000047683716,
				0,
				-4.849999904632568
			]
		}
	],
	"materials":[
		{
			"doubleSided":true,
			"emissiveFactor":[
				1,
				1,
				1
			],
			"emissiveTexture":{
				"index":0
			},
			"extensions":{
				"KHR_materials_emissive_strength":{
					"emissiveStrength":1.600000023841858
				}
			},
			"name":"MonosRoomShellTex",
			"pbrMetallicRoughness":{
				"baseColorTexture":{
					"index":1
				},
				"metallicFactor":0,
				"roughnessFactor":0.8999999761581421
			}
		},
		{
			"doubleSided":true,
			"emissiveFactor":[
				1,
				1,
				1
			],
			"emissiveTexture":{
				"index":2
			},
			"extensions":{
				"KHR_materials_emissive_strength":{
					"emissiveStrength":1.600000023841858
				}
			},
			"name":"MonosPortalTex",
			"pbrMetallicRoughness":{
				"baseColorTexture":{
					"index":3
				},
				"metallicFactor":0,
				"roughnessFactor":0.8999999761581421
			}
		},
		{
			"doubleSided":true,
			"emissiveFactor":[
				1,
				1,
				1
			],
			"emissiveTexture":{
				"index":4
			},
			"extensions":{
				"KHR_materials_emissive_strength":{
					"emissiveStrength":2
				}
			},
			"name":"MonosConsoleTex",
			"pbrMetallicRoughness":{
				"baseColorTexture":{
					"index":5
				},
				"metallicFactor":0,
				"roughnessFactor":0.8999999761581421
			}
		},
		{
			"doubleSided":true,
			"name":"MonosShelfTex",
			"pbrMetallicRoughness":{
				"baseColorTexture":{
					"index":6
				},
				"metallicFactor":0,
				"roughnessFactor":0.8999999761581421
			}
		}
	],
	"meshes":[
		{
			"name":"MonosRoomShell",
			"primitives":[
				{
					"attributes":{
						"POSITION":0,
						"NORMAL":1,
						"TEXCOORD_0":2
					},
					"indices":3,
					"material":0
				}
			]
		},
		{
			"name":"MonosPortal",
			"primitives":[
				{
					"attributes":{
						"POSITION":4,
						"NORMAL":5,
						"TEXCOORD_0":6
					},
					"indices":7,
					"material":1
				}
			]
		},
		{
			"name":"Kiosk.001",
			"primitives":[
				{
					"attributes":{
						"POSITION":8,
						"NORMAL":9,
						"TEXCOORD_0":10
					},
					"indices":11,
					"material":2
				}
			]
		},
		{
			"name":"Bookshelf.001",
			"primitives":[
				{
					"attributes":{
						"POSITION":12,
						"NORMAL":13,
						"TEXCOORD_0":14
					},
					"indices":15,
					"material":3
				}
			]
		}
	],
	"textures":[
		{
			"sampler":0,
			"source":0
		},
		{
			"sampler":0,
			"source":1
		},
		{
			"sampler":0,
			"source":2
		},
		{
			"sampler":0,
			"source":3
		},
		{
			"sampler":0,
			"source":4
		},
		{
			"sampler":0,
			"source":5
		},
		{
			"sampler":0,
			"source":6
		}
	],
	"images":[
		{
			"mimeType":"image/png",
			"name":"MonosRoomShell_emissive",
			"uri":"MonosRoomShell_emissive.png"
		},
		{
			"mimeType":"image/png",
			"name":"MonosRoomShell_tex",
			"uri":"MonosRoomShell_tex.png"
		},
		{
			"mimeType":"image/png",
			"name":"MonosPortal_emissive",
			"uri":"MonosPortal_emissive.png"
		},
		{
			"mimeType":"image/png",
			"name":"MonosPortal_tex",
			"uri":"MonosPortal_tex.png"
		},
		{
			"mimeType":"image/png",
			"name":"MonosConsole_emissive",
			"uri":"MonosConsole_emissive.png"
		},
		{
			"mimeType":"image/png",
			"name":"MonosConsole_tex",
			"uri":"MonosConsole_tex.png"
		},
		{
			"mimeType":"image/png",
			"name":"MonosShelf_tex",
			"uri":"MonosShelf_tex.png"
		}
	],
	"accessors":[
		{
			"bufferView":0,
			"componentType":5126,
			"count":148,
			"max":[
				3.5,
				3.7200000286102295,
				0
			],
			"min":[
				-3.5,
				-0.11999999731779099,
				-5.599999904632568
			],
			"type":"VEC3"
		},
		{
			"bufferView":1,
			"componentType":5126,
			"count":148,
			"type":"VEC3"
		},
		{
			"bufferView":2,
			"componentType":5126,
			"count":148,
			"type":"VEC2"
		},
		{
			"bufferView":3,
			"componentType":5123,
			"count":222,
			"type":"SCALAR"
		},
		{
			"bufferView":4,
			"componentType":5126,
			"count":792,
			"max":[
				1.5,
				1.5,
				0
			],
			"min":[
				-1.5,
				-1.5,
				-0.18000000715255737
			],
			"type":"VEC3"
		},
		{
			"bufferView":5,
			"componentType":5126,
			"count":792,
			"type":"VEC3"
		},
		{
			"bufferView":6,
			"componentType":5126,
			"count":792,
			"type":"VEC2"
		},
		{
			"bufferView":7,
			"componentType":5123,
			"count":1218,
			"type":"SCALAR"
		},
		{
			"bufferView":8,
			"componentType":5126,
			"count":100,
			"max":[
				0.3499999940395355,
				1.440000057220459,
				0.4099999964237213
			],
			"min":[
				-0.3499999940395355,
				0,
				-0.2750000059604645
			],
			"type":"VEC3"
		},
		{
			"bufferView":9,
			"componentType":5126,
			"count":100,
			"type":"VEC3"
		},
		{
			"bufferView":10,
			"componentType":5126,
			"count":100,
			"type":"VEC2"
		},
		{
			"bufferView":11,
			"componentType":5123,
			"count":150,
			"type":"SCALAR"
		},
		{
			"bufferView":12,
			"componentType":5126,
			"count":168,
			"max":[
				0.6000000238418579,
				1.600000023841858,
				0.25
			],
			"min":[
				-0.6000000238418579,
				0,
				-0.25
			],
			"type":"VEC3"
		},
		{
			"bufferView":13,
			"componentType":5126,
			"count":168,
			"type":"VEC3"
		},
		{
			"bufferView":14,
			"componentType":5126,
			"count":168,
			"type":"VEC2"
		},
		{
			"bufferView":15,
			"componentType":5123,
			"count":252,
			"type":"SCALAR"
		}
	],
	"bufferViews":[
		{
			"buffer":0,
			"byteLength":1776,
			"byteOffset":0,
			"target":34962
		},
		{
			"buffer":0,
			"byteLength":1776,
			"byteOffset":1776,
			"target":34962
		},
		{
			"buffer":0,
			"byteLength":1184,
			"byteOffset":3552,
			"target":34962
		},
		{
			"buffer":0,
			"byteLength":444,
			"byteOffset":4736,
			"target":34963
		},
		{
			"buffer":0,
			"byteLength":9504,
			"byteOffset":5180,
			"target":34962
		},
		{
			"buffer":0,
			"byteLength":9504,
			"byteOffset":14684,
			"target":34962
		},
		{
			"buffer":0,
			"byteLength":6336,
			"byteOffset":24188,
			"target":34962
		},
		{
			"buffer":0,
			"byteLength":2436,
			"byteOffset":30524,
			"target":34963
		},
		{
			"buffer":0,
			"byteLength":1200,
			"byteOffset":32960,
			"target":34962
		},
		{
			"buffer":0,
			"byteLength":1200,
			"byteOffset":34160,
			"target":34962
		},
		{
			"buffer":0,
			"byteLength":800,
			"byteOffset":35360,
			"target":34962
		},
		{
			"buffer":0,
			"byteLength":300,
			"byteOffset":36160,
			"target":34963
		},
		{
			"buffer":0,
			"byteLength":2016,
			"byteOffset":36460,
			"target":34962
		},
		{
			"buffer":0,
			"byteLength":2016,
			"byteOffset":38476,
			"target":34962
		},
		{
			"buffer":0,
			"byteLength":1344,
			"byteOffset":40492,
			"target":34962
		},
		{
			"buffer":0,
			"byteLength":504,
			"byteOffset":41836,
			"target":34963
		}
	],
	"samplers":[
		{
			"magFilter":9728,
			"minFilter":9984
		}
	],
	"buffers":[
		{
			"byteLength":42340,
			"uri":"monos-room.bin"
		}
	]
}
