mtllib monos_portal_room_shell.mtl
usemtl baked
v -4.000000 0.000000 4.000000
v 4.000000 0.000000 4.000000
v -4.000000 -0.200000 4.000000
v 4.000000 0.000000 4.000000
v 4.000000 -0.200000 4.000000
v -4.000000 -0.200000 4.000000
v 4.000000 0.000000 -4.000000
v -4.000000 0.000000 -4.000000
v 4.000000 -0.200000 -4.000000
v -4.000000 0.000000 -4.000000
v -4.000000 -0.200000 -4.000000
v 4.000000 -0.200000 -4.000000
v 4.000000 0.000000 4.000000
v 4.000000 0.000000 -4.000000
v 4.000000 -0.200000 4.000000
v 4.000000 0.000000 -4.000000
v 4.000000 -0.200000 -4.000000
v 4.000000 -0.200000 4.000000
v -4.000000 0.000000 -4.000000
v -4.000000 0.000000 4.000000
v -4.000000 -0.200000 -4.000000
v -4.000000 0.000000 4.000000
v -4.000000 -0.200000 4.000000
v -4.000000 -0.200000 -4.000000
v 4.000000 0.000000 4.000000
v -4.000000 0.000000 4.000000
v 4.000000 0.000000 -4.000000
v -4.000000 0.000000 4.000000
v -4.000000 0.000000 -4.000000
v 4.000000 0.000000 -4.000000
v -4.000000 -0.200000 4.000000
v 4.000000 -0.200000 4.000000
v -4.000000 -0.200000 -4.000000
v 4.000000 -0.200000 4.000000
v 4.000000 -0.200000 -4.000000
v -4.000000 -0.200000 -4.000000
v -4.000000 3.600000 -3.500000
v 4.000000 3.600000 -3.500000
v -4.000000 0.000000 -3.500000
v 4.000000 3.600000 -3.500000
v 4.000000 0.000000 -3.500000
v -4.000000 0.000000 -3.500000
v 4.000000 3.600000 -3.700000
v -4.000000 3.600000 -3.700000
v 4.000000 0.000000 -3.700000
v -4.000000 3.600000 -3.700000
v -4.000000 0.000000 -3.700000
v 4.000000 0.000000 -3.700000
v 4.000000 3.600000 -3.500000
v 4.000000 3.600000 -3.700000
v 4.000000 0.000000 -3.500000
v 4.000000 3.600000 -3.700000
v 4.000000 0.000000 -3.700000
v 4.000000 0.000000 -3.500000
v -4.000000 3.600000 -3.700000
v -4.000000 3.600000 -3.500000
v -4.000000 0.000000 -3.700000
v -4.000000 3.600000 -3.500000
v -4.000000 0.000000 -3.500000
v -4.000000 0.000000 -3.700000
v 4.000000 3.600000 -3.500000
v -4.000000 3.600000 -3.500000
v 4.000000 3.600000 -3.700000
v -4.000000 3.600000 -3.500000
v -4.000000 3.600000 -3.700000
v 4.000000 3.600000 -3.700000
v -4.000000 0.000000 -3.500000
v 4.000000 0.000000 -3.500000
v -4.000000 0.000000 -3.700000
v 4.000000 0.000000 -3.500000
v 4.000000 0.000000 -3.700000
v -4.000000 0.000000 -3.700000
v -3.700000 3.600000 4.000000
v -3.500000 3.600000 4.000000
v -3.700000 0.000000 4.000000
v -3.500000 3.600000 4.000000
v -3.500000 0.000000 4.000000
v -3.700000 0.000000 4.000000
v -3.500000 3.600000 -4.000000
v -3.700000 3.600000 -4.000000
v -3.500000 0.000000 -4.000000
v -3.700000 3.600000 -4.000000
v -3.700000 0.000000 -4.000000
v -3.500000 0.000000 -4.000000
v -3.500000 3.600000 4.000000
v -3.500000 3.600000 -4.000000
v -3.500000 0.000000 4.000000
v -3.500000 3.600000 -4.000000
v -3.500000 0.000000 -4.000000
v -3.500000 0.000000 4.000000
v -3.700000 3.600000 -4.000000
v -3.700000 3.600000 4.000000
v -3.700000 0.000000 -4.000000
v -3.700000 3.600000 4.000000
v -3.700000 0.000000 4.000000
v -3.700000 0.000000 -4.000000
v -3.500000 3.600000 4.000000
v -3.700000 3.600000 4.000000
v -3.500000 3.600000 -4.000000
v -3.700000 3.600000 4.000000
v -3.700000 3.600000 -4.000000
v -3.500000 3.600000 -4.000000
v -3.700000 0.000000 4.000000
v -3.500000 0.000000 4.000000
v -3.700000 0.000000 -4.000000
v -3.500000 0.000000 4.000000
v -3.500000 0.000000 -4.000000
v -3.700000 0.000000 -4.000000
vt 0.769531 0.203125
vt 0.519531 0.203125
vt 0.769531 0.190625
vt 0.519531 0.203125
vt 0.519531 0.190625
vt 0.769531 0.190625
vt 0.511719 0.203125
vt 0.261719 0.203125
vt 0.511719 0.190625
vt 0.261719 0.203125
vt 0.261719 0.190625
vt 0.511719 0.190625
vt 0.253906 0.203125
vt 0.003906 0.203125
vt 0.253906 0.190625
vt 0.003906 0.203125
vt 0.003906 0.190625
vt 0.253906 0.190625
vt 0.769531 0.234375
vt 0.519531 0.234375
vt 0.769531 0.221875
vt 0.519531 0.234375
vt 0.519531 0.221875
vt 0.769531 0.221875
vt 0.285156 0.992188
vt 0.035156 0.992188
vt 0.285156 0.492188
vt 0.035156 0.992188
vt 0.035156 0.492188
vt 0.285156 0.492188
vt 0.292969 0.492188
vt 0.542969 0.492188
vt 0.292969 0.992188
vt 0.542969 0.492188
vt 0.542969 0.992188
vt 0.292969 0.992188
vt 0.832031 0.476563
vt 0.582031 0.476563
vt 0.832031 0.251562
vt 0.582031 0.476563
vt 0.582031 0.251562
vt 0.832031 0.251562
vt 0.574219 0.476563
vt 0.324219 0.476563
vt 0.574219 0.251562
vt 0.324219 0.476563
vt 0.324219 0.251562
vt 0.574219 0.251562
vt 0.314844 0.476563
vt 0.308594 0.476563
vt 0.314844 0.251562
vt 0.308594 0.476563
vt 0.308594 0.251562
vt 0.314844 0.251562
vt 0.299219 0.476563
vt 0.292969 0.476563
vt 0.299219 0.251562
vt 0.292969 0.476563
vt 0.292969 0.251562
vt 0.299219 0.251562
vt 0.253906 0.234375
vt 0.003906 0.234375
vt 0.253906 0.221875
vt 0.003906 0.234375
vt 0.003906 0.221875
vt 0.253906 0.221875
vt 0.261719 0.221875
vt 0.511719 0.221875
vt 0.261719 0.234375
vt 0.511719 0.221875
vt 0.511719 0.234375
vt 0.261719 0.234375
vt 0.283594 0.476563
vt 0.277344 0.476563
vt 0.283594 0.251562
vt 0.277344 0.476563
vt 0.277344 0.251562
vt 0.283594 0.251562
vt 0.267969 0.476563
vt 0.261719 0.476563
vt 0.267969 0.251562
vt 0.261719 0.476563
vt 0.261719 0.251562
vt 0.267969 0.251562
vt 0.253906 0.476563
vt 0.003906 0.476563
vt 0.253906 0.251562
vt 0.003906 0.476563
vt 0.003906 0.251562
vt 0.253906 0.251562
vt 0.800781 0.992188
vt 0.550781 0.992188
vt 0.800781 0.767188
vt 0.550781 0.992188
vt 0.550781 0.767188
vt 0.800781 0.767188
vt 0.025781 0.992188
vt 0.019531 0.992188
vt 0.025781 0.492188
vt 0.019531 0.992188
vt 0.019531 0.492188
vt 0.025781 0.492188
vt 0.003906 0.492188
vt 0.010156 0.492188
vt 0.003906 0.992188
vt 0.010156 0.492188
vt 0.010156 0.992188
vt 0.003906 0.992188
f 1/1 2/2 3/3
f 4/4 5/5 6/6
f 7/7 8/8 9/9
f 10/10 11/11 12/12
f 13/13 14/14 15/15
f 16/16 17/17 18/18
f 19/19 20/20 21/21
f 22/22 23/23 24/24
f 25/25 26/26 27/27
f 28/28 29/29 30/30
f 31/31 32/32 33/33
f 34/34 35/35 36/36
f 37/37 38/38 39/39
f 40/40 41/41 42/42
f 43/43 44/44 45/45
f 46/46 47/47 48/48
f 49/49 50/50 51/51
f 52/52 53/53 54/54
f 55/55 56/56 57/57
f 58/58 59/59 60/60
f 61/61 62/62 63/63
f 64/64 65/65 66/66
f 67/67 68/68 69/69
f 70/70 71/71 72/72
f 73/73 74/74 75/75
f 76/76 77/77 78/78
f 79/79 80/80 81/81
f 82/82 83/83 84/84
f 85/85 86/86 87/87
f 88/88 89/89 90/90
f 91/91 92/92 93/93
f 94/94 95/95 96/96
f 97/97 98/98 99/99
f 100/100 101/101 102/102
f 103/103 104/104 105/105
f 106/106 107/107 108/108
