{
	"asset":{
		"generator":"Khronos glTF Blender I/O v5.1.19",
		"version":"2.0"
	},
	"scene":0,
	"scenes":[
		{
			"name":"Scene",
			"nodes":[
				5
			]
		}
	],
	"nodes":[
		{
			"name":"colony_0"
		},
		{
			"name":"carpet_0",
			"translation":[
				0,
				0.029999999329447746,
				0
			]
		},
		{
			"name":"chain_0",
			"translation":[
				0,
				0.11999999731779099,
				0
			]
		},
		{
			"name":"canopy_0",
			"translation":[
				0,
				0.30000001192092896,
				0
			]
		},
		{
			"mesh":0,
			"name":"CandidRigged",
			"skin":0
		},
		{
			"children":[
				4,
				0,
				1,
				2,
				3
			],
			"name":"Candid_Armature"
		}
	],
	"animations":[
		{
			"channels":[
				{
					"sampler":0,
					"target":{
						"node":0,
						"path":"translation"
					}
				},
				{
					"sampler":1,
					"target":{
						"node":0,
						"path":"rotation"
					}
				},
				{
					"sampler":2,
					"target":{
						"node":0,
						"path":"scale"
					}
				},
				{
					"sampler":3,
					"target":{
						"node":1,
						"path":"translation"
					}
				},
				{
					"sampler":4,
					"target":{
						"node":1,
						"path":"rotation"
					}
				},
				{
					"sampler":5,
					"target":{
						"node":1,
						"path":"scale"
					}
				},
				{
					"sampler":6,
					"target":{
						"node":2,
						"path":"translation"
					}
				},
				{
					"sampler":7,
					"target":{
						"node":2,
						"path":"rotation"
					}
				},
				{
					"sampler":8,
					"target":{
						"node":2,
						"path":"scale"
					}
				},
				{
					"sampler":9,
					"target":{
						"node":3,
						"path":"translation"
					}
				},
				{
					"sampler":10,
					"target":{
						"node":3,
						"path":"rotation"
					}
				},
				{
					"sampler":11,
					"target":{
						"node":3,
						"path":"scale"
					}
				}
			],
			"name":"candid_burn_canopy",
			"samplers":[
				{
					"input":7,
					"interpolation":"STEP",
					"output":8
				},
				{
					"input":7,
					"interpolation":"STEP",
					"output":9
				},
				{
					"input":7,
					"interpolation":"STEP",
					"output":10
				},
				{
					"input":7,
					"interpolation":"STEP",
					"output":11
				},
				{
					"input":7,
					"interpolation":"STEP",
					"output":9
				},
				{
					"input":7,
					"interpolation":"STEP",
					"output":10
				},
				{
					"input":7,
					"interpolation":"STEP",
					"output":12
				},
				{
					"input":7,
					"interpolation":"STEP",
					"output":9
				},
				{
					"input":7,
					"interpolation":"STEP",
					"output":10
				},
				{
					"input":7,
					"interpolation":"STEP",
					"output":13
				},
				{
					"input":7,
					"interpolation":"STEP",
					"output":9
				},
				{
					"input":14,
					"interpolation":"LINEAR",
					"output":15
				}
			]
		},
		{
			"channels":[
				{
					"sampler":0,
					"target":{
						"node":0,
						"path":"translation"
					}
				},
				{
					"sampler":1,
					"target":{
						"node":0,
						"path":"rotation"
					}
				},
				{
					"sampler":2,
					"target":{
						"node":0,
						"path":"scale"
					}
				},
				{
					"sampler":3,
					"target":{
						"node":1,
						"path":"translation"
					}
				},
				{
					"sampler":4,
					"target":{
						"node":1,
						"path":"rotation"
					}
				},
				{
					"sampler":5,
					"target":{
						"node":1,
						"path":"scale"
					}
				},
				{
					"sampler":6,
					"target":{
						"node":2,
						"path":"translation"
					}
				},
				{
					"sampler":7,
					"target":{
						"node":2,
						"path":"rotation"
					}
				},
				{
					"sampler":8,
					"target":{
						"node":2,
						"path":"scale"
					}
				},
				{
					"sampler":9,
					"target":{
						"node":3,
						"path":"translation"
					}
				},
				{
					"sampler":10,
					"target":{
						"node":3,
						"path":"rotation"
					}
				},
				{
					"sampler":11,
					"target":{
						"node":3,
						"path":"scale"
					}
				}
			],
			"name":"candid_burn_chains",
			"samplers":[
				{
					"input":7,
					"interpolation":"STEP",
					"output":8
				},
				{
					"input":7,
					"interpolation":"STEP",
					"output":9
				},
				{
					"input":7,
					"interpolation":"STEP",
					"output":10
				},
				{
					"input":7,
					"interpolation":"STEP",
					"output":11
				},
				{
					"input":7,
					"interpolation":"STEP",
					"output":9
				},
				{
					"input":7,
					"interpolation":"STEP",
					"output":10
				},
				{
					"input":7,
					"interpolation":"STEP",
					"output":12
				},
				{
					"input":7,
					"interpolation":"STEP",
					"output":9
				},
				{
					"input":14,
					"interpolation":"LINEAR",
					"output":15
				},
				{
					"input":7,
					"interpolation":"STEP",
					"output":13
				},
				{
					"input":7,
					"interpolation":"STEP",
					"output":9
				},
				{
					"input":7,
					"interpolation":"STEP",
					"output":16
				}
			]
		},
		{
			"channels":[
				{
					"sampler":0,
					"target":{
						"node":0,
						"path":"translation"
					}
				},
				{
					"sampler":1,
					"target":{
						"node":0,
						"path":"rotation"
					}
				},
				{
					"sampler":2,
					"target":{
						"node":0,
						"path":"scale"
					}
				},
				{
					"sampler":3,
					"target":{
						"node":1,
						"path":"translation"
					}
				},
				{
					"sampler":4,
					"target":{
						"node":1,
						"path":"rotation"
					}
				},
				{
					"sampler":5,
					"target":{
						"node":1,
						"path":"scale"
					}
				},
				{
					"sampler":6,
					"target":{
						"node":2,
						"path":"translation"
					}
				},
				{
					"sampler":7,
					"target":{
						"node":2,
						"path":"rotation"
					}
				},
				{
					"sampler":8,
					"target":{
						"node":2,
						"path":"scale"
					}
				},
				{
					"sampler":9,
					"target":{
						"node":3,
						"path":"translation"
					}
				},
				{
					"sampler":10,
					"target":{
						"node":3,
						"path":"rotation"
					}
				},
				{
					"sampler":11,
					"target":{
						"node":3,
						"path":"scale"
					}
				}
			],
			"name":"candid_retreat",
			"samplers":[
				{
					"input":17,
					"interpolation":"STEP",
					"output":8
				},
				{
					"input":17,
					"interpolation":"STEP",
					"output":9
				},
				{
					"input":17,
					"interpolation":"STEP",
					"output":10
				},
				{
					"input":17,
					"interpolation":"STEP",
					"output":11
				},
				{
					"input":17,
					"interpolation":"STEP",
					"output":9
				},
				{
					"input":18,
					"interpolation":"LINEAR",
					"output":19
				},
				{
					"input":17,
					"interpolation":"STEP",
					"output":12
				},
				{
					"input":17,
					"interpolation":"STEP",
					"output":9
				},
				{
					"input":18,
					"interpolation":"LINEAR",
					"output":19
				},
				{
					"input":17,
					"interpolation":"STEP",
					"output":13
				},
				{
					"input":17,
					"interpolation":"STEP",
					"output":9
				},
				{
					"input":18,
					"interpolation":"LINEAR",
					"output":19
				}
			]
		},
		{
			"channels":[
				{
					"sampler":0,
					"target":{
						"node":0,
						"path":"translation"
					}
				},
				{
					"sampler":1,
					"target":{
						"node":0,
						"path":"rotation"
					}
				},
				{
					"sampler":2,
					"target":{
						"node":0,
						"path":"scale"
					}
				},
				{
					"sampler":3,
					"target":{
						"node":1,
						"path":"translation"
					}
				},
				{
					"sampler":4,
					"target":{
						"node":1,
						"path":"rotation"
					}
				},
				{
					"sampler":5,
					"target":{
						"node":1,
						"path":"scale"
					}
				},
				{
					"sampler":6,
					"target":{
						"node":2,
						"path":"translation"
					}
				},
				{
					"sampler":7,
					"target":{
						"node":2,
						"path":"rotation"
					}
				},
				{
					"sampler":8,
					"target":{
						"node":2,
						"path":"scale"
					}
				},
				{
					"sampler":9,
					"target":{
						"node":3,
						"path":"translation"
					}
				},
				{
					"sampler":10,
					"target":{
						"node":3,
						"path":"rotation"
					}
				},
				{
					"sampler":11,
					"target":{
						"node":3,
						"path":"scale"
					}
				}
			],
			"name":"candid_regrow",
			"samplers":[
				{
					"input":17,
					"interpolation":"STEP",
					"output":8
				},
				{
					"input":17,
					"interpolation":"STEP",
					"output":9
				},
				{
					"input":17,
					"interpolation":"STEP",
					"output":10
				},
				{
					"input":17,
					"interpolation":"STEP",
					"output":11
				},
				{
					"input":17,
					"interpolation":"STEP",
					"output":9
				},
				{
					"input":17,
					"interpolation":"STEP",
					"output":10
				},
				{
					"input":17,
					"interpolation":"STEP",
					"output":12
				},
				{
					"input":17,
					"interpolation":"STEP",
					"output":9
				},
				{
					"input":18,
					"interpolation":"LINEAR",
					"output":20
				},
				{
					"input":17,
					"interpolation":"STEP",
					"output":13
				},
				{
					"input":17,
					"interpolation":"STEP",
					"output":9
				},
				{
					"input":18,
					"interpolation":"LINEAR",
					"output":21
				}
			]
		}
	],
	"materials":[
		{
			"alphaMode":"MASK",
			"doubleSided":true,
			"name":"CandidRiggedTex",
			"pbrMetallicRoughness":{
				"baseColorTexture":{
					"index":0
				},
				"metallicFactor":0,
				"roughnessFactor":0.8999999761581421
			}
		}
	],
	"meshes":[
		{
			"name":"CandidRigged",
			"primitives":[
				{
					"attributes":{
						"POSITION":0,
						"NORMAL":1,
						"TEXCOORD_0":2,
						"JOINTS_0":3,
						"WEIGHTS_0":4
					},
					"indices":5,
					"material":0
				}
			]
		}
	],
	"textures":[
		{
			"sampler":0,
			"source":0
		}
	],
	"images":[
		{
			"mimeType":"image/png",
			"name":"CandidRigged_tex",
			"uri":"CandidRigged_tex.png"
		}
	],
	"skins":[
		{
			"inverseBindMatrices":6,
			"joints":[
				0,
				1,
				2,
				3
			],
			"name":"Candid_Armature"
		}
	],
	"accessors":[
		{
			"bufferView":0,
			"componentType":5126,
			"count":68,
			"max":[
				1.0625,
				0.4099999964237213,
				0.8924999833106995
			],
			"min":[
				-1.0625,
				0.004000000189989805,
				-0.8924999833106995
			],
			"type":"VEC3"
		},
		{
			"bufferView":1,
			"componentType":5126,
			"count":68,
			"type":"VEC3"
		},
		{
			"bufferView":2,
			"componentType":5126,
			"count":68,
			"type":"VEC2"
		},
		{
			"bufferView":3,
			"componentType":5121,
			"count":68,
			"type":"VEC4"
		},
		{
			"bufferView":4,
			"componentType":5126,
			"count":68,
			"type":"VEC4"
		},
		{
			"bufferView":5,
			"componentType":5123,
			"count":102,
			"type":"SCALAR"
		},
		{
			"bufferView":6,
			"componentType":5126,
			"count":4,
			"type":"MAT4"
		},
		{
			"bufferView":7,
			"componentType":5126,
			"count":2,
			"max":[
				0.5833333333333334
			],
			"min":[
				0.041666666666666664
			],
			"type":"SCALAR"
		},
		{
			"bufferView":8,
			"componentType":5126,
			"count":2,
			"type":"VEC3"
		},
		{
			"bufferView":9,
			"componentType":5126,
			"count":2,
			"type":"VEC4"
		},
		{
			"bufferView":10,
			"componentType":5126,
			"count":2,
			"type":"VEC3"
		},
		{
			"bufferView":11,
			"componentType":5126,
			"count":2,
			"type":"VEC3"
		},
		{
			"bufferView":12,
			"componentType":5126,
			"count":2,
			"type":"VEC3"
		},
		{
			"bufferView":13,
			"componentType":5126,
			"count":2,
			"type":"VEC3"
		},
		{
			"bufferView":14,
			"componentType":5126,
			"count":14,
			"max":[
				0.5833333333333334
			],
			"min":[
				0.041666666666666664
			],
			"type":"SCALAR"
		},
		{
			"bufferView":15,
			"componentType":5126,
			"count":14,
			"type":"VEC3"
		},
		{
			"bufferView":16,
			"componentType":5126,
			"count":2,
			"type":"VEC3"
		},
		{
			"bufferView":17,
			"componentType":5126,
			"count":2,
			"max":[
				2.2083333333333335
			],
			"min":[
				0.041666666666666664
			],
			"type":"SCALAR"
		},
		{
			"bufferView":18,
			"componentType":5126,
			"count":53,
			"max":[
				2.2083333333333335
			],
			"min":[
				0.041666666666666664
			],
			"type":"SCALAR"
		},
		{
			"bufferView":19,
			"componentType":5126,
			"count":53,
			"type":"VEC3"
		},
		{
			"bufferView":20,
			"componentType":5126,
			"count":53,
			"type":"VEC3"
		},
		{
			"bufferView":21,
			"componentType":5126,
			"count":53,
			"type":"VEC3"
		}
	],
	"bufferViews":[
		{
			"buffer":0,
			"byteLength":816,
			"byteOffset":0,
			"target":34962
		},
		{
			"buffer":0,
			"byteLength":816,
			"byteOffset":816,
			"target":34962
		},
		{
			"buffer":0,
			"byteLength":544,
			"byteOffset":1632,
			"target":34962
		},
		{
			"buffer":0,
			"byteLength":272,
			"byteOffset":2176,
			"target":34962
		},
		{
			"buffer":0,
			"byteLength":1088,
			"byteOffset":2448,
			"target":34962
		},
		{
			"buffer":0,
			"byteLength":204,
			"byteOffset":3536,
			"target":34963
		},
		{
			"buffer":0,
			"byteLength":256,
			"byteOffset":3740
		},
		{
			"buffer":0,
			"byteLength":8,
			"byteOffset":3996
		},
		{
			"buffer":0,
			"byteLength":24,
			"byteOffset":4004
		},
		{
			"buffer":0,
			"byteLength":32,
			"byteOffset":4028
		},
		{
			"buffer":0,
			"byteLength":24,
			"byteOffset":4060
		},
		{
			"buffer":0,
			"byteLength":24,
			"byteOffset":4084
		},
		{
			"buffer":0,
			"byteLength":24,
			"byteOffset":4108
		},
		{
			"buffer":0,
			"byteLength":24,
			"byteOffset":4132
		},
		{
			"buffer":0,
			"byteLength":56,
			"byteOffset":4156
		},
		{
			"buffer":0,
			"byteLength":168,
			"byteOffset":4212
		},
		{
			"buffer":0,
			"byteLength":24,
			"byteOffset":4380
		},
		{
			"buffer":0,
			"byteLength":8,
			"byteOffset":4404
		},
		{
			"buffer":0,
			"byteLength":212,
			"byteOffset":4412
		},
		{
			"buffer":0,
			"byteLength":636,
			"byteOffset":4624
		},
		{
			"buffer":0,
			"byteLength":636,
			"byteOffset":5260
		},
		{
			"buffer":0,
			"byteLength":636,
			"byteOffset":5896
		}
	],
	"samplers":[
		{
			"magFilter":9728,
			"minFilter":9984
		}
	],
	"buffers":[
		{
			"byteLength":6532,
			"uri":"candid.bin"
		}
	]
}
