{
	"asset":{
		"generator":"Khronos glTF Blender I/O v5.1.19",
		"version":"2.0"
	},
	"extensionsUsed":[
		"KHR_materials_emissive_strength"
	],
	"scene":0,
	"scenes":[
		{
			"name":"Scene",
			"nodes":[
				15
			]
		}
	],
	"nodes":[
		{
			"name":"puff0_0",
			"scale":[
				0.0010000000474974513,
				0.0010000000474974513,
				0.0010000000474974513
			],
			"translation":[
				0,
				0.10199999809265137,
				0
			]
		},
		{
			"children":[
				0
			],
			"name":"pore0_0",
			"scale":[
				0.30000001192092896,
				0.30000001192092896,
				0.30000001192092896
			],
			"translation":[
				0,
				0.05000000074505806,
				0
			]
		},
		{
			"name":"puff1_0",
			"scale":[
				0.0010000000474974513,
				0.0010000000474974513,
				0.0010000000474974513
			],
			"translation":[
				0,
				0.10199999809265137,
				0
			]
		},
		{
			"children":[
				2
			],
			"name":"pore1_0",
			"scale":[
				0.30000001192092896,
				0.30000001192092896,
				0.30000001192092896
			],
			"translation":[
				0.36000001430511475,
				0.05000000074505806,
				0.2078399956226349
			]
		},
		{
			"name":"puff2_0",
			"scale":[
				0.0010000000474974513,
				0.0010000000474974513,
				0.0010000000474974513
			],
			"translation":[
				0,
				0.10199999809265137,
				0
			]
		},
		{
			"children":[
				4
			],
			"name":"pore2_0",
			"scale":[
				0.30000001192092896,
				0.30000001192092896,
				0.30000001192092896
			],
			"translation":[
				-0.36000001430511475,
				0.05000000074505806,
				0.2078399956226349
			]
		},
		{
			"name":"puff3_0",
			"scale":[
				0.0010000000474974513,
				0.0010000000474974513,
				0.0010000000474974513
			],
			"translation":[
				0,
				0.10199999809265137,
				0
			]
		},
		{
			"children":[
				6
			],
			"name":"pore3_0",
			"scale":[
				0.30000001192092896,
				0.30000001192092896,
				0.30000001192092896
			],
			"translation":[
				0.36000001430511475,
				0.05000000074505806,
				-0.2078399956226349
			]
		},
		{
			"name":"puff4_0",
			"scale":[
				0.0010000000474974513,
				0.0010000000474974513,
				0.0010000000474974513
			],
			"translation":[
				0,
				0.10199999809265137,
				0
			]
		},
		{
			"children":[
				8
			],
			"name":"pore4_0",
			"scale":[
				0.30000001192092896,
				0.30000001192092896,
				0.30000001192092896
			],
			"translation":[
				-0.36000001430511475,
				0.05000000074505806,
				-0.2078399956226349
			]
		},
		{
			"name":"band_2",
			"scale":[
				0.0010000000474974513,
				0.0010000000474974513,
				0.0010000000474974513
			],
			"translation":[
				0,
				0.125,
				0
			]
		},
		{
			"children":[
				10
			],
			"name":"band_1",
			"rotation":[
				0,
				4.371138118131057e-08,
				0,
				1
			],
			"scale":[
				0.0010000000474974513,
				0.0010000000474974513,
				0.0010000000474974513
			],
			"translation":[
				1.8189894035458565e-12,
				0.139984130859375,
				3.0517578125e-05
			]
		},
		{
			"children":[
				11
			],
			"name":"band_0",
			"rotation":[
				3.0908616110991716e-08,
				0.7071067690849304,
				0.7071067690849304,
				3.0908616110991716e-08
			],
			"scale":[
				0.0010000000474974513,
				0.0010000000474974513,
				0.0010000000474974513
			],
			"translation":[
				0,
				0.30000001192092896,
				-0.20999999344348907
			]
		},
		{
			"children":[
				1,
				3,
				5,
				7,
				9,
				12
			],
			"name":"plate_0",
			"rotation":[
				0,
				0.7071067690849304,
				0.7071067690849304,
				0
			]
		},
		{
			"mesh":0,
			"name":"CrustRigged",
			"skin":0
		},
		{
			"children":[
				14,
				13
			],
			"name":"Crust_Armature"
		}
	],
	"animations":[
		{
			"channels":[
				{
					"sampler":0,
					"target":{
						"node":13,
						"path":"translation"
					}
				},
				{
					"sampler":1,
					"target":{
						"node":13,
						"path":"rotation"
					}
				},
				{
					"sampler":2,
					"target":{
						"node":13,
						"path":"scale"
					}
				},
				{
					"sampler":3,
					"target":{
						"node":1,
						"path":"translation"
					}
				},
				{
					"sampler":4,
					"target":{
						"node":1,
						"path":"rotation"
					}
				},
				{
					"sampler":5,
					"target":{
						"node":1,
						"path":"scale"
					}
				},
				{
					"sampler":6,
					"target":{
						"node":0,
						"path":"translation"
					}
				},
				{
					"sampler":7,
					"target":{
						"node":0,
						"path":"rotation"
					}
				},
				{
					"sampler":8,
					"target":{
						"node":0,
						"path":"scale"
					}
				},
				{
					"sampler":9,
					"target":{
						"node":3,
						"path":"translation"
					}
				},
				{
					"sampler":10,
					"target":{
						"node":3,
						"path":"rotation"
					}
				},
				{
					"sampler":11,
					"target":{
						"node":3,
						"path":"scale"
					}
				},
				{
					"sampler":12,
					"target":{
						"node":2,
						"path":"translation"
					}
				},
				{
					"sampler":13,
					"target":{
						"node":2,
						"path":"rotation"
					}
				},
				{
					"sampler":14,
					"target":{
						"node":2,
						"path":"scale"
					}
				},
				{
					"sampler":15,
					"target":{
						"node":5,
						"path":"translation"
					}
				},
				{
					"sampler":16,
					"target":{
						"node":5,
						"path":"rotation"
					}
				},
				{
					"sampler":17,
					"target":{
						"node":5,
						"path":"scale"
					}
				},
				{
					"sampler":18,
					"target":{
						"node":4,
						"path":"translation"
					}
				},
				{
					"sampler":19,
					"target":{
						"node":4,
						"path":"rotation"
					}
				},
				{
					"sampler":20,
					"target":{
						"node":4,
						"path":"scale"
					}
				},
				{
					"sampler":21,
					"target":{
						"node":7,
						"path":"translation"
					}
				},
				{
					"sampler":22,
					"target":{
						"node":7,
						"path":"rotation"
					}
				},
				{
					"sampler":23,
					"target":{
						"node":7,
						"path":"scale"
					}
				},
				{
					"sampler":24,
					"target":{
						"node":6,
						"path":"translation"
					}
				},
				{
					"sampler":25,
					"target":{
						"node":6,
						"path":"rotation"
					}
				},
				{
					"sampler":26,
					"target":{
						"node":6,
						"path":"scale"
					}
				},
				{
					"sampler":27,
					"target":{
						"node":9,
						"path":"translation"
					}
				},
				{
					"sampler":28,
					"target":{
						"node":9,
						"path":"rotation"
					}
				},
				{
					"sampler":29,
					"target":{
						"node":9,
						"path":"scale"
					}
				},
				{
					"sampler":30,
					"target":{
						"node":8,
						"path":"translation"
					}
				},
				{
					"sampler":31,
					"target":{
						"node":8,
						"path":"rotation"
					}
				},
				{
					"sampler":32,
					"target":{
						"node":8,
						"path":"scale"
					}
				},
				{
					"sampler":33,
					"target":{
						"node":12,
						"path":"translation"
					}
				},
				{
					"sampler":34,
					"target":{
						"node":12,
						"path":"rotation"
					}
				},
				{
					"sampler":35,
					"target":{
						"node":12,
						"path":"scale"
					}
				},
				{
					"sampler":36,
					"target":{
						"node":11,
						"path":"translation"
					}
				},
				{
					"sampler":37,
					"target":{
						"node":11,
						"path":"rotation"
					}
				},
				{
					"sampler":38,
					"target":{
						"node":11,
						"path":"scale"
					}
				},
				{
					"sampler":39,
					"target":{
						"node":10,
						"path":"translation"
					}
				},
				{
					"sampler":40,
					"target":{
						"node":10,
						"path":"rotation"
					}
				},
				{
					"sampler":41,
					"target":{
						"node":10,
						"path":"scale"
					}
				}
			],
			"name":"crust_dilate",
			"samplers":[
				{
					"input":7,
					"interpolation":"STEP",
					"output":8
				},
				{
					"input":7,
					"interpolation":"STEP",
					"output":9
				},
				{
					"input":7,
					"interpolation":"STEP",
					"output":10
				},
				{
					"input":7,
					"interpolation":"STEP",
					"output":11
				},
				{
					"input":7,
					"interpolation":"STEP",
					"output":12
				},
				{
					"input":13,
					"interpolation":"LINEAR",
					"output":14
				},
				{
					"input":7,
					"interpolation":"STEP",
					"output":15
				},
				{
					"input":7,
					"interpolation":"STEP",
					"output":12
				},
				{
					"input":13,
					"interpolation":"LINEAR",
					"output":16
				},
				{
					"input":7,
					"interpolation":"STEP",
					"output":17
				},
				{
					"input":7,
					"interpolation":"STEP",
					"output":12
				},
				{
					"input":13,
					"interpolation":"LINEAR",
					"output":14
				},
				{
					"input":7,
					"interpolation":"STEP",
					"output":15
				},
				{
					"input":7,
					"interpolation":"STEP",
					"output":12
				},
				{
					"input":13,
					"interpolation":"LINEAR",
					"output":16
				},
				{
					"input":7,
					"interpolation":"STEP",
					"output":18
				},
				{
					"input":7,
					"interpolation":"STEP",
					"output":12
				},
				{
					"input":13,
					"interpolation":"LINEAR",
					"output":14
				},
				{
					"input":7,
					"interpolation":"STEP",
					"output":15
				},
				{
					"input":7,
					"interpolation":"STEP",
					"output":12
				},
				{
					"input":13,
					"interpolation":"LINEAR",
					"output":16
				},
				{
					"input":7,
					"interpolation":"STEP",
					"output":19
				},
				{
					"input":7,
					"interpolation":"STEP",
					"output":12
				},
				{
					"input":13,
					"interpolation":"LINEAR",
					"output":14
				},
				{
					"input":7,
					"interpolation":"STEP",
					"output":15
				},
				{
					"input":7,
					"interpolation":"STEP",
					"output":12
				},
				{
					"input":13,
					"interpolation":"LINEAR",
					"output":16
				},
				{
					"input":7,
					"interpolation":"STEP",
					"output":20
				},
				{
					"input":7,
					"interpolation":"STEP",
					"output":12
				},
				{
					"input":13,
					"interpolation":"LINEAR",
					"output":14
				},
				{
					"input":7,
					"interpolation":"STEP",
					"output":15
				},
				{
					"input":7,
					"interpolation":"STEP",
					"output":12
				},
				{
					"input":13,
					"interpolation":"LINEAR",
					"output":16
				},
				{
					"input":7,
					"interpolation":"STEP",
					"output":21
				},
				{
					"input":7,
					"interpolation":"STEP",
					"output":22
				},
				{
					"input":13,
					"interpolation":"LINEAR",
					"output":23
				},
				{
					"input":7,
					"interpolation":"STEP",
					"output":24
				},
				{
					"input":7,
					"interpolation":"STEP",
					"output":25
				},
				{
					"input":13,
					"interpolation":"LINEAR",
					"output":26
				},
				{
					"input":13,
					"interpolation":"LINEAR",
					"output":27
				},
				{
					"input":7,
					"interpolation":"STEP",
					"output":12
				},
				{
					"input":13,
					"interpolation":"LINEAR",
					"output":28
				}
			]
		},
		{
			"channels":[
				{
					"sampler":0,
					"target":{
						"node":13,
						"path":"translation"
					}
				},
				{
					"sampler":1,
					"target":{
						"node":13,
						"path":"rotation"
					}
				},
				{
					"sampler":2,
					"target":{
						"node":13,
						"path":"scale"
					}
				},
				{
					"sampler":3,
					"target":{
						"node":1,
						"path":"translation"
					}
				},
				{
					"sampler":4,
					"target":{
						"node":1,
						"path":"rotation"
					}
				},
				{
					"sampler":5,
					"target":{
						"node":1,
						"path":"scale"
					}
				},
				{
					"sampler":6,
					"target":{
						"node":0,
						"path":"translation"
					}
				},
				{
					"sampler":7,
					"target":{
						"node":0,
						"path":"rotation"
					}
				},
				{
					"sampler":8,
					"target":{
						"node":0,
						"path":"scale"
					}
				},
				{
					"sampler":9,
					"target":{
						"node":3,
						"path":"translation"
					}
				},
				{
					"sampler":10,
					"target":{
						"node":3,
						"path":"rotation"
					}
				},
				{
					"sampler":11,
					"target":{
						"node":3,
						"path":"scale"
					}
				},
				{
					"sampler":12,
					"target":{
						"node":2,
						"path":"translation"
					}
				},
				{
					"sampler":13,
					"target":{
						"node":2,
						"path":"rotation"
					}
				},
				{
					"sampler":14,
					"target":{
						"node":2,
						"path":"scale"
					}
				},
				{
					"sampler":15,
					"target":{
						"node":5,
						"path":"translation"
					}
				},
				{
					"sampler":16,
					"target":{
						"node":5,
						"path":"rotation"
					}
				},
				{
					"sampler":17,
					"target":{
						"node":5,
						"path":"scale"
					}
				},
				{
					"sampler":18,
					"target":{
						"node":4,
						"path":"translation"
					}
				},
				{
					"sampler":19,
					"target":{
						"node":4,
						"path":"rotation"
					}
				},
				{
					"sampler":20,
					"target":{
						"node":4,
						"path":"scale"
					}
				},
				{
					"sampler":21,
					"target":{
						"node":7,
						"path":"translation"
					}
				},
				{
					"sampler":22,
					"target":{
						"node":7,
						"path":"rotation"
					}
				},
				{
					"sampler":23,
					"target":{
						"node":7,
						"path":"scale"
					}
				},
				{
					"sampler":24,
					"target":{
						"node":6,
						"path":"translation"
					}
				},
				{
					"sampler":25,
					"target":{
						"node":6,
						"path":"rotation"
					}
				},
				{
					"sampler":26,
					"target":{
						"node":6,
						"path":"scale"
					}
				},
				{
					"sampler":27,
					"target":{
						"node":9,
						"path":"translation"
					}
				},
				{
					"sampler":28,
					"target":{
						"node":9,
						"path":"rotation"
					}
				},
				{
					"sampler":29,
					"target":{
						"node":9,
						"path":"scale"
					}
				},
				{
					"sampler":30,
					"target":{
						"node":8,
						"path":"translation"
					}
				},
				{
					"sampler":31,
					"target":{
						"node":8,
						"path":"rotation"
					}
				},
				{
					"sampler":32,
					"target":{
						"node":8,
						"path":"scale"
					}
				},
				{
					"sampler":33,
					"target":{
						"node":12,
						"path":"translation"
					}
				},
				{
					"sampler":34,
					"target":{
						"node":12,
						"path":"rotation"
					}
				},
				{
					"sampler":35,
					"target":{
						"node":12,
						"path":"scale"
					}
				},
				{
					"sampler":36,
					"target":{
						"node":11,
						"path":"translation"
					}
				},
				{
					"sampler":37,
					"target":{
						"node":11,
						"path":"rotation"
					}
				},
				{
					"sampler":38,
					"target":{
						"node":11,
						"path":"scale"
					}
				},
				{
					"sampler":39,
					"target":{
						"node":10,
						"path":"translation"
					}
				},
				{
					"sampler":40,
					"target":{
						"node":10,
						"path":"rotation"
					}
				},
				{
					"sampler":41,
					"target":{
						"node":10,
						"path":"scale"
					}
				}
			],
			"name":"crust_burn",
			"samplers":[
				{
					"input":29,
					"interpolation":"STEP",
					"output":8
				},
				{
					"input":29,
					"interpolation":"STEP",
					"output":9
				},
				{
					"input":30,
					"interpolation":"LINEAR",
					"output":31
				},
				{
					"input":29,
					"interpolation":"STEP",
					"output":11
				},
				{
					"input":29,
					"interpolation":"STEP",
					"output":12
				},
				{
					"input":30,
					"interpolation":"LINEAR",
					"output":32
				},
				{
					"input":29,
					"interpolation":"STEP",
					"output":15
				},
				{
					"input":29,
					"interpolation":"STEP",
					"output":12
				},
				{
					"input":29,
					"interpolation":"STEP",
					"output":33
				},
				{
					"input":29,
					"interpolation":"STEP",
					"output":34
				},
				{
					"input":29,
					"interpolation":"STEP",
					"output":12
				},
				{
					"input":30,
					"interpolation":"LINEAR",
					"output":32
				},
				{
					"input":29,
					"interpolation":"STEP",
					"output":35
				},
				{
					"input":29,
					"interpolation":"STEP",
					"output":12
				},
				{
					"input":29,
					"interpolation":"STEP",
					"output":33
				},
				{
					"input":29,
					"interpolation":"STEP",
					"output":36
				},
				{
					"input":29,
					"interpolation":"STEP",
					"output":12
				},
				{
					"input":30,
					"interpolation":"LINEAR",
					"output":32
				},
				{
					"input":29,
					"interpolation":"STEP",
					"output":35
				},
				{
					"input":29,
					"interpolation":"STEP",
					"output":12
				},
				{
					"input":29,
					"interpolation":"STEP",
					"output":33
				},
				{
					"input":29,
					"interpolation":"STEP",
					"output":37
				},
				{
					"input":29,
					"interpolation":"STEP",
					"output":12
				},
				{
					"input":30,
					"interpolation":"LINEAR",
					"output":32
				},
				{
					"input":29,
					"interpolation":"STEP",
					"output":38
				},
				{
					"input":29,
					"interpolation":"STEP",
					"output":12
				},
				{
					"input":29,
					"interpolation":"STEP",
					"output":33
				},
				{
					"input":29,
					"interpolation":"STEP",
					"output":39
				},
				{
					"input":29,
					"interpolation":"STEP",
					"output":12
				},
				{
					"input":30,
					"interpolation":"LINEAR",
					"output":32
				},
				{
					"input":29,
					"interpolation":"STEP",
					"output":38
				},
				{
					"input":29,
					"interpolation":"STEP",
					"output":12
				},
				{
					"input":29,
					"interpolation":"STEP",
					"output":33
				},
				{
					"input":29,
					"interpolation":"STEP",
					"output":40
				},
				{
					"input":29,
					"interpolation":"STEP",
					"output":41
				},
				{
					"input":29,
					"interpolation":"STEP",
					"output":33
				},
				{
					"input":29,
					"interpolation":"STEP",
					"output":42
				},
				{
					"input":29,
					"interpolation":"STEP",
					"output":25
				},
				{
					"input":29,
					"interpolation":"STEP",
					"output":33
				},
				{
					"input":30,
					"interpolation":"LINEAR",
					"output":43
				},
				{
					"input":29,
					"interpolation":"STEP",
					"output":44
				},
				{
					"input":29,
					"interpolation":"STEP",
					"output":33
				}
			]
		}
	],
	"materials":[
		{
			"alphaMode":"MASK",
			"doubleSided":true,
			"emissiveFactor":[
				1,
				1,
				1
			],
			"emissiveTexture":{
				"index":0
			},
			"extensions":{
				"KHR_materials_emissive_strength":{
					"emissiveStrength":1.7999999523162842
				}
			},
			"name":"CrustRiggedTex",
			"pbrMetallicRoughness":{
				"baseColorTexture":{
					"index":1
				},
				"metallicFactor":0,
				"roughnessFactor":0.8999999761581421
			}
		}
	],
	"meshes":[
		{
			"name":"CrustRigged",
			"primitives":[
				{
					"attributes":{
						"POSITION":0,
						"NORMAL":1,
						"TEXCOORD_0":2,
						"JOINTS_0":3,
						"WEIGHTS_0":4
					},
					"indices":5,
					"material":0
				}
			]
		}
	],
	"textures":[
		{
			"sampler":0,
			"source":0
		},
		{
			"sampler":0,
			"source":1
		}
	],
	"images":[
		{
			"mimeType":"image/png",
			"name":"CrustRigged_emissive",
			"uri":"CrustRigged_emissive.png"
		},
		{
			"mimeType":"image/png",
			"name":"CrustRigged_tex",
			"uri":"CrustRigged_tex.png"
		}
	],
	"skins":[
		{
			"inverseBindMatrices":6,
			"joints":[
				13,
				1,
				0,
				3,
				2,
				5,
				4,
				7,
				6,
				9,
				8,
				12,
				11,
				10
			],
			"name":"Crust_Armature"
		}
	],
	"accessors":[
		{
			"bufferView":0,
			"componentType":5126,
			"count":452,
			"max":[
				0.6967999935150146,
				0.5099999904632568,
				0.30000001192092896
			],
			"min":[
				-0.6967999935150146,
				-0.5099999904632568,
				0
			],
			"type":"VEC3"
		},
		{
			"bufferView":1,
			"componentType":5126,
			"count":452,
			"type":"VEC3"
		},
		{
			"bufferView":2,
			"componentType":5126,
			"count":452,
			"type":"VEC2"
		},
		{
			"bufferView":3,
			"componentType":5121,
			"count":452,
			"type":"VEC4"
		},
		{
			"bufferView":4,
			"componentType":5126,
			"count":452,
			"type":"VEC4"
		},
		{
			"bufferView":5,
			"componentType":5123,
			"count":720,
			"type":"SCALAR"
		},
		{
			"bufferView":6,
			"componentType":5126,
			"count":14,
			"type":"MAT4"
		},
		{
			"bufferView":7,
			"componentType":5126,
			"count":2,
			"max":[
				1.5833333333333333
			],
			"min":[
				0.041666666666666664
			],
			"type":"SCALAR"
		},
		{
			"bufferView":8,
			"componentType":5126,
			"count":2,
			"type":"VEC3"
		},
		{
			"bufferView":9,
			"componentType":5126,
			"count":2,
			"type":"VEC4"
		},
		{
			"bufferView":10,
			"componentType":5126,
			"count":2,
			"type":"VEC3"
		},
		{
			"bufferView":11,
			"componentType":5126,
			"count":2,
			"type":"VEC3"
		},
		{
			"bufferView":12,
			"componentType":5126,
			"count":2,
			"type":"VEC4"
		},
		{
			"bufferView":13,
			"componentType":5126,
			"count":38,
			"max":[
				1.5833333333333333
			],
			"min":[
				0.041666666666666664
			],
			"type":"SCALAR"
		},
		{
			"bufferView":14,
			"componentType":5126,
			"count":38,
			"type":"VEC3"
		},
		{
			"bufferView":15,
			"componentType":5126,
			"count":2,
			"type":"VEC3"
		},
		{
			"bufferView":16,
			"componentType":5126,
			"count":38,
			"type":"VEC3"
		},
		{
			"bufferView":17,
			"componentType":5126,
			"count":2,
			"type":"VEC3"
		},
		{
			"bufferView":18,
			"componentType":5126,
			"count":2,
			"type":"VEC3"
		},
		{
			"bufferView":19,
			"componentType":5126,
			"count":2,
			"type":"VEC3"
		},
		{
			"bufferView":20,
			"componentType":5126,
			"count":2,
			"type":"VEC3"
		},
		{
			"bufferView":21,
			"componentType":5126,
			"count":2,
			"type":"VEC3"
		},
		{
			"bufferView":22,
			"componentType":5126,
			"count":2,
			"type":"VEC4"
		},
		{
			"bufferView":23,
			"componentType":5126,
			"count":38,
			"type":"VEC3"
		},
		{
			"bufferView":24,
			"componentType":5126,
			"count":2,
			"type":"VEC3"
		},
		{
			"bufferView":25,
			"componentType":5126,
			"count":2,
			"type":"VEC4"
		},
		{
			"bufferView":26,
			"componentType":5126,
			"count":38,
			"type":"VEC3"
		},
		{
			"bufferView":27,
			"componentType":5126,
			"count":38,
			"type":"VEC3"
		},
		{
			"bufferView":28,
			"componentType":5126,
			"count":38,
			"type":"VEC3"
		},
		{
			"bufferView":29,
			"componentType":5126,
			"count":2,
			"max":[
				1.0833333333333333
			],
			"min":[
				0.041666666666666664
			],
			"type":"SCALAR"
		},
		{
			"bufferView":30,
			"componentType":5126,
			"count":26,
			"max":[
				1.0833333333333333
			],
			"min":[
				0.041666666666666664
			],
			"type":"SCALAR"
		},
		{
			"bufferView":31,
			"componentType":5126,
			"count":26,
			"type":"VEC3"
		},
		{
			"bufferView":32,
			"componentType":5126,
			"count":26,
			"type":"VEC3"
		},
		{
			"bufferView":33,
			"componentType":5126,
			"count":2,
			"type":"VEC3"
		},
		{
			"bufferView":34,
			"componentType":5126,
			"count":2,
			"type":"VEC3"
		},
		{
			"bufferView":35,
			"componentType":5126,
			"count":2,
			"type":"VEC3"
		},
		{
			"bufferView":36,
			"componentType":5126,
			"count":2,
			"type":"VEC3"
		},
		{
			"bufferView":37,
			"componentType":5126,
			"count":2,
			"type":"VEC3"
		},
		{
			"bufferView":38,
			"componentType":5126,
			"count":2,
			"type":"VEC3"
		},
		{
			"bufferView":39,
			"componentType":5126,
			"count":2,
			"type":"VEC3"
		},
		{
			"bufferView":40,
			"componentType":5126,
			"count":2,
			"type":"VEC3"
		},
		{
			"bufferView":41,
			"componentType":5126,
			"count":2,
			"type":"VEC4"
		},
		{
			"bufferView":42,
			"componentType":5126,
			"count":2,
			"type":"VEC3"
		},
		{
			"bufferView":43,
			"componentType":5126,
			"count":26,
			"type":"VEC3"
		},
		{
			"bufferView":44,
			"componentType":5126,
			"count":2,
			"type":"VEC4"
		}
	],
	"bufferViews":[
		{
			"buffer":0,
			"byteLength":5424,
			"byteOffset":0,
			"target":34962
		},
		{
			"buffer":0,
			"byteLength":5424,
			"byteOffset":5424,
			"target":34962
		},
		{
			"buffer":0,
			"byteLength":3616,
			"byteOffset":10848,
			"target":34962
		},
		{
			"buffer":0,
			"byteLength":1808,
			"byteOffset":14464,
			"target":34962
		},
		{
			"buffer":0,
			"byteLength":7232,
			"byteOffset":16272,
			"target":34962
		},
		{
			"buffer":0,
			"byteLength":1440,
			"byteOffset":23504,
			"target":34963
		},
		{
			"buffer":0,
			"byteLength":896,
			"byteOffset":24944
		},
		{
			"buffer":0,
			"byteLength":8,
			"byteOffset":25840
		},
		{
			"buffer":0,
			"byteLength":24,
			"byteOffset":25848
		},
		{
			"buffer":0,
			"byteLength":32,
			"byteOffset":25872
		},
		{
			"buffer":0,
			"byteLength":24,
			"byteOffset":25904
		},
		{
			"buffer":0,
			"byteLength":24,
			"byteOffset":25928
		},
		{
			"buffer":0,
			"byteLength":32,
			"byteOffset":25952
		},
		{
			"buffer":0,
			"byteLength":152,
			"byteOffset":25984
		},
		{
			"buffer":0,
			"byteLength":456,
			"byteOffset":26136
		},
		{
			"buffer":0,
			"byteLength":24,
			"byteOffset":26592
		},
		{
			"buffer":0,
			"byteLength":456,
			"byteOffset":26616
		},
		{
			"buffer":0,
			"byteLength":24,
			"byteOffset":27072
		},
		{
			"buffer":0,
			"byteLength":24,
			"byteOffset":27096
		},
		{
			"buffer":0,
			"byteLength":24,
			"byteOffset":27120
		},
		{
			"buffer":0,
			"byteLength":24,
			"byteOffset":27144
		},
		{
			"buffer":0,
			"byteLength":24,
			"byteOffset":27168
		},
		{
			"buffer":0,
			"byteLength":32,
			"byteOffset":27192
		},
		{
			"buffer":0,
			"byteLength":456,
			"byteOffset":27224
		},
		{
			"buffer":0,
			"byteLength":24,
			"byteOffset":27680
		},
		{
			"buffer":0,
			"byteLength":32,
			"byteOffset":27704
		},
		{
			"buffer":0,
			"byteLength":456,
			"byteOffset":27736
		},
		{
			"buffer":0,
			"byteLength":456,
			"byteOffset":28192
		},
		{
			"buffer":0,
			"byteLength":456,
			"byteOffset":28648
		},
		{
			"buffer":0,
			"byteLength":8,
			"byteOffset":29104
		},
		{
			"buffer":0,
			"byteLength":104,
			"byteOffset":29112
		},
		{
			"buffer":0,
			"byteLength":312,
			"byteOffset":29216
		},
		{
			"buffer":0,
			"byteLength":312,
			"byteOffset":29528
		},
		{
			"buffer":0,
			"byteLength":24,
			"byteOffset":29840
		},
		{
			"buffer":0,
			"byteLength":24,
			"byteOffset":29864
		},
		{
			"buffer":0,
			"byteLength":24,
			"byteOffset":29888
		},
		{
			"buffer":0,
			"byteLength":24,
			"byteOffset":29912
		},
		{
			"buffer":0,
			"byteLength":24,
			"byteOffset":29936
		},
		{
			"buffer":0,
			"byteLength":24,
			"byteOffset":29960
		},
		{
			"buffer":0,
			"byteLength":24,
			"byteOffset":29984
		},
		{
			"buffer":0,
			"byteLength":24,
			"byteOffset":30008
		},
		{
			"buffer":0,
			"byteLength":32,
			"byteOffset":30032
		},
		{
			"buffer":0,
			"byteLength":24,
			"byteOffset":30064
		},
		{
			"buffer":0,
			"byteLength":312,
			"byteOffset":30088
		},
		{
			"buffer":0,
			"byteLength":32,
			"byteOffset":30400
		}
	],
	"samplers":[
		{
			"magFilter":9728,
			"minFilter":9984
		}
	],
	"buffers":[
		{
			"byteLength":30432,
			"uri":"crust.bin"
		}
	]
}
