{
	"asset":{
		"generator":"Khronos glTF Blender I/O v5.1.19",
		"version":"2.0"
	},
	"extensionsUsed":[
		"KHR_materials_emissive_strength"
	],
	"scene":0,
	"scenes":[
		{
			"name":"Scene",
			"nodes":[
				16
			]
		}
	],
	"nodes":[
		{
			"name":"core_0",
			"scale":[
				0.0010000000474974513,
				0.0010000000474974513,
				0.0010000000474974513
			]
		},
		{
			"children":[
				0
			],
			"name":"nuc_0",
			"translation":[
				0,
				0.2632000148296356,
				0
			]
		},
		{
			"name":"gran0_0_0",
			"rotation":[
				-0.9576826095581055,
				0.11997734010219574,
				0.11997756361961365,
				0.23249700665473938
			],
			"scale":[
				1.000000238418579,
				1.0000001192092896,
				1.0000004768371582
			],
			"translation":[
				0,
				0.2632000148296356,
				0
			]
		},
		{
			"name":"gran0_1_0",
			"rotation":[
				-0.6572191119194031,
				-0.22208887338638306,
				-0.22208888828754425,
				0.685139536857605
			],
			"scale":[
				1,
				0.9999999403953552,
				1
			],
			"translation":[
				0,
				0.2632000148296356,
				0
			]
		},
		{
			"name":"gran0_2_0",
			"rotation":[
				0.8549867272377014,
				-0.30215132236480713,
				-0.30215132236480713,
				0.29395052790641785
			],
			"scale":[
				0.9999999403953552,
				0.9999999403953552,
				1
			],
			"translation":[
				0,
				0.2632000148296356,
				0
			]
		},
		{
			"name":"gran0_3_0",
			"rotation":[
				0.8181933760643005,
				-0.3753034770488739,
				-0.3753035068511963,
				0.2210298478603363
			],
			"scale":[
				0.9999999403953552,
				1,
				0.9999999403953552
			],
			"translation":[
				0,
				0.2632000148296356,
				0
			]
		},
		{
			"name":"gran1_0_0",
			"rotation":[
				0.2947085499763489,
				0.05447037145495415,
				0.05447037145495415,
				0.952477216720581
			],
			"translation":[
				0,
				0.2632000148296356,
				0
			]
		},
		{
			"name":"gran1_1_0",
			"rotation":[
				-0.1553565263748169,
				0.2764652669429779,
				0.2764652967453003,
				0.9071925282478333
			],
			"scale":[
				1,
				0.9999999403953552,
				0.9999999403953552
			],
			"translation":[
				0,
				0.2632000148296356,
				0
			]
		},
		{
			"name":"gran1_2_0",
			"rotation":[
				-0.24335722625255585,
				0.4525797367095947,
				0.4525797367095947,
				0.7287801504135132
			],
			"scale":[
				1,
				0.9999999403953552,
				1
			],
			"translation":[
				0,
				0.2632000148296356,
				0
			]
		},
		{
			"name":"gran1_3_0",
			"rotation":[
				-0.1396314650774002,
				-0.5096213221549988,
				-0.5096213221549988,
				0.6790252327919006
			],
			"scale":[
				0.9999998807907104,
				0.9999998807907104,
				1
			],
			"translation":[
				0,
				0.2632000148296356,
				0
			]
		},
		{
			"name":"gran2_0_0",
			"rotation":[
				0.13596878945827484,
				-0.07620984315872192,
				-0.07620983570814133,
				0.984833300113678
			],
			"scale":[
				1,
				0.9999999403953552,
				0.9999999403953552
			],
			"translation":[
				0,
				0.2632000148296356,
				0
			]
		},
		{
			"name":"gran2_1_0",
			"rotation":[
				0.04762240871787071,
				-0.032132331281900406,
				-0.032132335007190704,
				0.9978312849998474
			],
			"scale":[
				1,
				0.9999999403953552,
				1
			],
			"translation":[
				0,
				0.2632000148296356,
				0
			]
		},
		{
			"name":"gran2_2_0",
			"rotation":[
				-0.9995954036712646,
				-0.00226498837582767,
				-0.002265111543238163,
				0.028264284133911133
			],
			"scale":[
				1,
				1,
				1.0000025033950806
			],
			"translation":[
				0,
				0.2632000148296356,
				0
			]
		},
		{
			"name":"gran2_3_0",
			"rotation":[
				-0.9926279187202454,
				0.024658773094415665,
				0.024659134447574615,
				0.11607653647661209
			],
			"scale":[
				1.0000001192092896,
				1,
				1.0000028610229492
			],
			"translation":[
				0,
				0.2632000148296356,
				0
			]
		},
		{
			"children":[
				1,
				2,
				3,
				4,
				5,
				6,
				7,
				8,
				9,
				10,
				11,
				12,
				13
			],
			"name":"memb_0"
		},
		{
			"mesh":0,
			"name":"FlareRigged",
			"skin":0
		},
		{
			"children":[
				15,
				14
			],
			"name":"Flare_Armature"
		}
	],
	"animations":[
		{
			"channels":[
				{
					"sampler":0,
					"target":{
						"node":14,
						"path":"translation"
					}
				},
				{
					"sampler":1,
					"target":{
						"node":14,
						"path":"rotation"
					}
				},
				{
					"sampler":2,
					"target":{
						"node":14,
						"path":"scale"
					}
				},
				{
					"sampler":3,
					"target":{
						"node":1,
						"path":"translation"
					}
				},
				{
					"sampler":4,
					"target":{
						"node":1,
						"path":"rotation"
					}
				},
				{
					"sampler":5,
					"target":{
						"node":1,
						"path":"scale"
					}
				},
				{
					"sampler":6,
					"target":{
						"node":0,
						"path":"translation"
					}
				},
				{
					"sampler":7,
					"target":{
						"node":0,
						"path":"rotation"
					}
				},
				{
					"sampler":8,
					"target":{
						"node":0,
						"path":"scale"
					}
				},
				{
					"sampler":9,
					"target":{
						"node":2,
						"path":"translation"
					}
				},
				{
					"sampler":10,
					"target":{
						"node":2,
						"path":"rotation"
					}
				},
				{
					"sampler":11,
					"target":{
						"node":2,
						"path":"scale"
					}
				},
				{
					"sampler":12,
					"target":{
						"node":3,
						"path":"translation"
					}
				},
				{
					"sampler":13,
					"target":{
						"node":3,
						"path":"rotation"
					}
				},
				{
					"sampler":14,
					"target":{
						"node":3,
						"path":"scale"
					}
				},
				{
					"sampler":15,
					"target":{
						"node":4,
						"path":"translation"
					}
				},
				{
					"sampler":16,
					"target":{
						"node":4,
						"path":"rotation"
					}
				},
				{
					"sampler":17,
					"target":{
						"node":4,
						"path":"scale"
					}
				},
				{
					"sampler":18,
					"target":{
						"node":5,
						"path":"translation"
					}
				},
				{
					"sampler":19,
					"target":{
						"node":5,
						"path":"rotation"
					}
				},
				{
					"sampler":20,
					"target":{
						"node":5,
						"path":"scale"
					}
				},
				{
					"sampler":21,
					"target":{
						"node":6,
						"path":"translation"
					}
				},
				{
					"sampler":22,
					"target":{
						"node":6,
						"path":"rotation"
					}
				},
				{
					"sampler":23,
					"target":{
						"node":6,
						"path":"scale"
					}
				},
				{
					"sampler":24,
					"target":{
						"node":7,
						"path":"translation"
					}
				},
				{
					"sampler":25,
					"target":{
						"node":7,
						"path":"rotation"
					}
				},
				{
					"sampler":26,
					"target":{
						"node":7,
						"path":"scale"
					}
				},
				{
					"sampler":27,
					"target":{
						"node":8,
						"path":"translation"
					}
				},
				{
					"sampler":28,
					"target":{
						"node":8,
						"path":"rotation"
					}
				},
				{
					"sampler":29,
					"target":{
						"node":8,
						"path":"scale"
					}
				},
				{
					"sampler":30,
					"target":{
						"node":9,
						"path":"translation"
					}
				},
				{
					"sampler":31,
					"target":{
						"node":9,
						"path":"rotation"
					}
				},
				{
					"sampler":32,
					"target":{
						"node":9,
						"path":"scale"
					}
				},
				{
					"sampler":33,
					"target":{
						"node":10,
						"path":"translation"
					}
				},
				{
					"sampler":34,
					"target":{
						"node":10,
						"path":"rotation"
					}
				},
				{
					"sampler":35,
					"target":{
						"node":10,
						"path":"scale"
					}
				},
				{
					"sampler":36,
					"target":{
						"node":11,
						"path":"translation"
					}
				},
				{
					"sampler":37,
					"target":{
						"node":11,
						"path":"rotation"
					}
				},
				{
					"sampler":38,
					"target":{
						"node":11,
						"path":"scale"
					}
				},
				{
					"sampler":39,
					"target":{
						"node":12,
						"path":"translation"
					}
				},
				{
					"sampler":40,
					"target":{
						"node":12,
						"path":"rotation"
					}
				},
				{
					"sampler":41,
					"target":{
						"node":12,
						"path":"scale"
					}
				},
				{
					"sampler":42,
					"target":{
						"node":13,
						"path":"translation"
					}
				},
				{
					"sampler":43,
					"target":{
						"node":13,
						"path":"rotation"
					}
				},
				{
					"sampler":44,
					"target":{
						"node":13,
						"path":"scale"
					}
				}
			],
			"name":"flare_prime",
			"samplers":[
				{
					"input":37,
					"interpolation":"STEP",
					"output":38
				},
				{
					"input":37,
					"interpolation":"STEP",
					"output":39
				},
				{
					"input":40,
					"interpolation":"LINEAR",
					"output":41
				},
				{
					"input":37,
					"interpolation":"STEP",
					"output":42
				},
				{
					"input":37,
					"interpolation":"STEP",
					"output":39
				},
				{
					"input":40,
					"interpolation":"LINEAR",
					"output":43
				},
				{
					"input":37,
					"interpolation":"STEP",
					"output":38
				},
				{
					"input":37,
					"interpolation":"STEP",
					"output":39
				},
				{
					"input":40,
					"interpolation":"LINEAR",
					"output":44
				},
				{
					"input":37,
					"interpolation":"STEP",
					"output":45
				},
				{
					"input":37,
					"interpolation":"STEP",
					"output":46
				},
				{
					"input":37,
					"interpolation":"STEP",
					"output":47
				},
				{
					"input":37,
					"interpolation":"STEP",
					"output":48
				},
				{
					"input":37,
					"interpolation":"STEP",
					"output":49
				},
				{
					"input":37,
					"interpolation":"STEP",
					"output":50
				},
				{
					"input":37,
					"interpolation":"STEP",
					"output":51
				},
				{
					"input":37,
					"interpolation":"STEP",
					"output":52
				},
				{
					"input":37,
					"interpolation":"STEP",
					"output":53
				},
				{
					"input":37,
					"interpolation":"STEP",
					"output":54
				},
				{
					"input":37,
					"interpolation":"STEP",
					"output":55
				},
				{
					"input":37,
					"interpolation":"STEP",
					"output":56
				},
				{
					"input":37,
					"interpolation":"STEP",
					"output":57
				},
				{
					"input":37,
					"interpolation":"STEP",
					"output":58
				},
				{
					"input":37,
					"interpolation":"STEP",
					"output":59
				},
				{
					"input":37,
					"interpolation":"STEP",
					"output":60
				},
				{
					"input":37,
					"interpolation":"STEP",
					"output":61
				},
				{
					"input":37,
					"interpolation":"STEP",
					"output":62
				},
				{
					"input":37,
					"interpolation":"STEP",
					"output":63
				},
				{
					"input":37,
					"interpolation":"STEP",
					"output":64
				},
				{
					"input":37,
					"interpolation":"STEP",
					"output":65
				},
				{
					"input":37,
					"interpolation":"STEP",
					"output":66
				},
				{
					"input":37,
					"interpolation":"STEP",
					"output":67
				},
				{
					"input":37,
					"interpolation":"STEP",
					"output":68
				},
				{
					"input":37,
					"interpolation":"STEP",
					"output":69
				},
				{
					"input":37,
					"interpolation":"STEP",
					"output":70
				},
				{
					"input":37,
					"interpolation":"STEP",
					"output":71
				},
				{
					"input":37,
					"interpolation":"STEP",
					"output":72
				},
				{
					"input":37,
					"interpolation":"STEP",
					"output":73
				},
				{
					"input":37,
					"interpolation":"STEP",
					"output":74
				},
				{
					"input":37,
					"interpolation":"STEP",
					"output":75
				},
				{
					"input":37,
					"interpolation":"STEP",
					"output":76
				},
				{
					"input":37,
					"interpolation":"STEP",
					"output":77
				},
				{
					"input":37,
					"interpolation":"STEP",
					"output":78
				},
				{
					"input":37,
					"interpolation":"STEP",
					"output":79
				},
				{
					"input":37,
					"interpolation":"STEP",
					"output":80
				}
			]
		},
		{
			"channels":[
				{
					"sampler":0,
					"target":{
						"node":14,
						"path":"translation"
					}
				},
				{
					"sampler":1,
					"target":{
						"node":14,
						"path":"rotation"
					}
				},
				{
					"sampler":2,
					"target":{
						"node":14,
						"path":"scale"
					}
				},
				{
					"sampler":3,
					"target":{
						"node":1,
						"path":"translation"
					}
				},
				{
					"sampler":4,
					"target":{
						"node":1,
						"path":"rotation"
					}
				},
				{
					"sampler":5,
					"target":{
						"node":1,
						"path":"scale"
					}
				},
				{
					"sampler":6,
					"target":{
						"node":0,
						"path":"translation"
					}
				},
				{
					"sampler":7,
					"target":{
						"node":0,
						"path":"rotation"
					}
				},
				{
					"sampler":8,
					"target":{
						"node":0,
						"path":"scale"
					}
				},
				{
					"sampler":9,
					"target":{
						"node":2,
						"path":"translation"
					}
				},
				{
					"sampler":10,
					"target":{
						"node":2,
						"path":"rotation"
					}
				},
				{
					"sampler":11,
					"target":{
						"node":2,
						"path":"scale"
					}
				},
				{
					"sampler":12,
					"target":{
						"node":3,
						"path":"translation"
					}
				},
				{
					"sampler":13,
					"target":{
						"node":3,
						"path":"rotation"
					}
				},
				{
					"sampler":14,
					"target":{
						"node":3,
						"path":"scale"
					}
				},
				{
					"sampler":15,
					"target":{
						"node":4,
						"path":"translation"
					}
				},
				{
					"sampler":16,
					"target":{
						"node":4,
						"path":"rotation"
					}
				},
				{
					"sampler":17,
					"target":{
						"node":4,
						"path":"scale"
					}
				},
				{
					"sampler":18,
					"target":{
						"node":5,
						"path":"translation"
					}
				},
				{
					"sampler":19,
					"target":{
						"node":5,
						"path":"rotation"
					}
				},
				{
					"sampler":20,
					"target":{
						"node":5,
						"path":"scale"
					}
				},
				{
					"sampler":21,
					"target":{
						"node":6,
						"path":"translation"
					}
				},
				{
					"sampler":22,
					"target":{
						"node":6,
						"path":"rotation"
					}
				},
				{
					"sampler":23,
					"target":{
						"node":6,
						"path":"scale"
					}
				},
				{
					"sampler":24,
					"target":{
						"node":7,
						"path":"translation"
					}
				},
				{
					"sampler":25,
					"target":{
						"node":7,
						"path":"rotation"
					}
				},
				{
					"sampler":26,
					"target":{
						"node":7,
						"path":"scale"
					}
				},
				{
					"sampler":27,
					"target":{
						"node":8,
						"path":"translation"
					}
				},
				{
					"sampler":28,
					"target":{
						"node":8,
						"path":"rotation"
					}
				},
				{
					"sampler":29,
					"target":{
						"node":8,
						"path":"scale"
					}
				},
				{
					"sampler":30,
					"target":{
						"node":9,
						"path":"translation"
					}
				},
				{
					"sampler":31,
					"target":{
						"node":9,
						"path":"rotation"
					}
				},
				{
					"sampler":32,
					"target":{
						"node":9,
						"path":"scale"
					}
				},
				{
					"sampler":33,
					"target":{
						"node":10,
						"path":"translation"
					}
				},
				{
					"sampler":34,
					"target":{
						"node":10,
						"path":"rotation"
					}
				},
				{
					"sampler":35,
					"target":{
						"node":10,
						"path":"scale"
					}
				},
				{
					"sampler":36,
					"target":{
						"node":11,
						"path":"translation"
					}
				},
				{
					"sampler":37,
					"target":{
						"node":11,
						"path":"rotation"
					}
				},
				{
					"sampler":38,
					"target":{
						"node":11,
						"path":"scale"
					}
				},
				{
					"sampler":39,
					"target":{
						"node":12,
						"path":"translation"
					}
				},
				{
					"sampler":40,
					"target":{
						"node":12,
						"path":"rotation"
					}
				},
				{
					"sampler":41,
					"target":{
						"node":12,
						"path":"scale"
					}
				},
				{
					"sampler":42,
					"target":{
						"node":13,
						"path":"translation"
					}
				},
				{
					"sampler":43,
					"target":{
						"node":13,
						"path":"rotation"
					}
				},
				{
					"sampler":44,
					"target":{
						"node":13,
						"path":"scale"
					}
				}
			],
			"name":"flare_burst",
			"samplers":[
				{
					"input":81,
					"interpolation":"STEP",
					"output":38
				},
				{
					"input":81,
					"interpolation":"STEP",
					"output":39
				},
				{
					"input":82,
					"interpolation":"LINEAR",
					"output":83
				},
				{
					"input":81,
					"interpolation":"STEP",
					"output":42
				},
				{
					"input":81,
					"interpolation":"STEP",
					"output":39
				},
				{
					"input":82,
					"interpolation":"LINEAR",
					"output":84
				},
				{
					"input":81,
					"interpolation":"STEP",
					"output":38
				},
				{
					"input":81,
					"interpolation":"STEP",
					"output":39
				},
				{
					"input":82,
					"interpolation":"LINEAR",
					"output":85
				},
				{
					"input":81,
					"interpolation":"STEP",
					"output":86
				},
				{
					"input":81,
					"interpolation":"STEP",
					"output":87
				},
				{
					"input":81,
					"interpolation":"STEP",
					"output":88
				},
				{
					"input":81,
					"interpolation":"STEP",
					"output":89
				},
				{
					"input":81,
					"interpolation":"STEP",
					"output":90
				},
				{
					"input":81,
					"interpolation":"STEP",
					"output":91
				},
				{
					"input":81,
					"interpolation":"STEP",
					"output":92
				},
				{
					"input":81,
					"interpolation":"STEP",
					"output":93
				},
				{
					"input":81,
					"interpolation":"STEP",
					"output":94
				},
				{
					"input":81,
					"interpolation":"STEP",
					"output":95
				},
				{
					"input":81,
					"interpolation":"STEP",
					"output":96
				},
				{
					"input":81,
					"interpolation":"STEP",
					"output":56
				},
				{
					"input":81,
					"interpolation":"STEP",
					"output":97
				},
				{
					"input":81,
					"interpolation":"STEP",
					"output":98
				},
				{
					"input":81,
					"interpolation":"STEP",
					"output":99
				},
				{
					"input":81,
					"interpolation":"STEP",
					"output":100
				},
				{
					"input":81,
					"interpolation":"STEP",
					"output":101
				},
				{
					"input":81,
					"interpolation":"STEP",
					"output":102
				},
				{
					"input":81,
					"interpolation":"STEP",
					"output":103
				},
				{
					"input":81,
					"interpolation":"STEP",
					"output":104
				},
				{
					"input":81,
					"interpolation":"STEP",
					"output":105
				},
				{
					"input":81,
					"interpolation":"STEP",
					"output":106
				},
				{
					"input":81,
					"interpolation":"STEP",
					"output":107
				},
				{
					"input":81,
					"interpolation":"STEP",
					"output":68
				},
				{
					"input":81,
					"interpolation":"STEP",
					"output":108
				},
				{
					"input":81,
					"interpolation":"STEP",
					"output":109
				},
				{
					"input":81,
					"interpolation":"STEP",
					"output":110
				},
				{
					"input":81,
					"interpolation":"STEP",
					"output":111
				},
				{
					"input":81,
					"interpolation":"STEP",
					"output":112
				},
				{
					"input":81,
					"interpolation":"STEP",
					"output":113
				},
				{
					"input":81,
					"interpolation":"STEP",
					"output":114
				},
				{
					"input":81,
					"interpolation":"STEP",
					"output":115
				},
				{
					"input":81,
					"interpolation":"STEP",
					"output":116
				},
				{
					"input":81,
					"interpolation":"STEP",
					"output":117
				},
				{
					"input":81,
					"interpolation":"STEP",
					"output":118
				},
				{
					"input":81,
					"interpolation":"STEP",
					"output":119
				}
			]
		},
		{
			"channels":[
				{
					"sampler":0,
					"target":{
						"node":14,
						"path":"translation"
					}
				},
				{
					"sampler":1,
					"target":{
						"node":14,
						"path":"rotation"
					}
				},
				{
					"sampler":2,
					"target":{
						"node":14,
						"path":"scale"
					}
				},
				{
					"sampler":3,
					"target":{
						"node":1,
						"path":"translation"
					}
				},
				{
					"sampler":4,
					"target":{
						"node":1,
						"path":"rotation"
					}
				},
				{
					"sampler":5,
					"target":{
						"node":1,
						"path":"scale"
					}
				},
				{
					"sampler":6,
					"target":{
						"node":0,
						"path":"translation"
					}
				},
				{
					"sampler":7,
					"target":{
						"node":0,
						"path":"rotation"
					}
				},
				{
					"sampler":8,
					"target":{
						"node":0,
						"path":"scale"
					}
				},
				{
					"sampler":9,
					"target":{
						"node":2,
						"path":"translation"
					}
				},
				{
					"sampler":10,
					"target":{
						"node":2,
						"path":"rotation"
					}
				},
				{
					"sampler":11,
					"target":{
						"node":2,
						"path":"scale"
					}
				},
				{
					"sampler":12,
					"target":{
						"node":3,
						"path":"translation"
					}
				},
				{
					"sampler":13,
					"target":{
						"node":3,
						"path":"rotation"
					}
				},
				{
					"sampler":14,
					"target":{
						"node":3,
						"path":"scale"
					}
				},
				{
					"sampler":15,
					"target":{
						"node":4,
						"path":"translation"
					}
				},
				{
					"sampler":16,
					"target":{
						"node":4,
						"path":"rotation"
					}
				},
				{
					"sampler":17,
					"target":{
						"node":4,
						"path":"scale"
					}
				},
				{
					"sampler":18,
					"target":{
						"node":5,
						"path":"translation"
					}
				},
				{
					"sampler":19,
					"target":{
						"node":5,
						"path":"rotation"
					}
				},
				{
					"sampler":20,
					"target":{
						"node":5,
						"path":"scale"
					}
				},
				{
					"sampler":21,
					"target":{
						"node":6,
						"path":"translation"
					}
				},
				{
					"sampler":22,
					"target":{
						"node":6,
						"path":"rotation"
					}
				},
				{
					"sampler":23,
					"target":{
						"node":6,
						"path":"scale"
					}
				},
				{
					"sampler":24,
					"target":{
						"node":7,
						"path":"translation"
					}
				},
				{
					"sampler":25,
					"target":{
						"node":7,
						"path":"rotation"
					}
				},
				{
					"sampler":26,
					"target":{
						"node":7,
						"path":"scale"
					}
				},
				{
					"sampler":27,
					"target":{
						"node":8,
						"path":"translation"
					}
				},
				{
					"sampler":28,
					"target":{
						"node":8,
						"path":"rotation"
					}
				},
				{
					"sampler":29,
					"target":{
						"node":8,
						"path":"scale"
					}
				},
				{
					"sampler":30,
					"target":{
						"node":9,
						"path":"translation"
					}
				},
				{
					"sampler":31,
					"target":{
						"node":9,
						"path":"rotation"
					}
				},
				{
					"sampler":32,
					"target":{
						"node":9,
						"path":"scale"
					}
				},
				{
					"sampler":33,
					"target":{
						"node":10,
						"path":"translation"
					}
				},
				{
					"sampler":34,
					"target":{
						"node":10,
						"path":"rotation"
					}
				},
				{
					"sampler":35,
					"target":{
						"node":10,
						"path":"scale"
					}
				},
				{
					"sampler":36,
					"target":{
						"node":11,
						"path":"translation"
					}
				},
				{
					"sampler":37,
					"target":{
						"node":11,
						"path":"rotation"
					}
				},
				{
					"sampler":38,
					"target":{
						"node":11,
						"path":"scale"
					}
				},
				{
					"sampler":39,
					"target":{
						"node":12,
						"path":"translation"
					}
				},
				{
					"sampler":40,
					"target":{
						"node":12,
						"path":"rotation"
					}
				},
				{
					"sampler":41,
					"target":{
						"node":12,
						"path":"scale"
					}
				},
				{
					"sampler":42,
					"target":{
						"node":13,
						"path":"translation"
					}
				},
				{
					"sampler":43,
					"target":{
						"node":13,
						"path":"rotation"
					}
				},
				{
					"sampler":44,
					"target":{
						"node":13,
						"path":"scale"
					}
				}
			],
			"name":"flare_spent",
			"samplers":[
				{
					"input":120,
					"interpolation":"STEP",
					"output":38
				},
				{
					"input":120,
					"interpolation":"STEP",
					"output":39
				},
				{
					"input":121,
					"interpolation":"LINEAR",
					"output":122
				},
				{
					"input":120,
					"interpolation":"STEP",
					"output":123
				},
				{
					"input":120,
					"interpolation":"STEP",
					"output":39
				},
				{
					"input":121,
					"interpolation":"LINEAR",
					"output":124
				},
				{
					"input":120,
					"interpolation":"STEP",
					"output":38
				},
				{
					"input":120,
					"interpolation":"STEP",
					"output":39
				},
				{
					"input":121,
					"interpolation":"LINEAR",
					"output":125
				},
				{
					"input":120,
					"interpolation":"STEP",
					"output":126
				},
				{
					"input":121,
					"interpolation":"LINEAR",
					"output":127
				},
				{
					"input":121,
					"interpolation":"LINEAR",
					"output":128
				},
				{
					"input":120,
					"interpolation":"STEP",
					"output":129
				},
				{
					"input":121,
					"interpolation":"LINEAR",
					"output":130
				},
				{
					"input":121,
					"interpolation":"LINEAR",
					"output":131
				},
				{
					"input":120,
					"interpolation":"STEP",
					"output":132
				},
				{
					"input":121,
					"interpolation":"LINEAR",
					"output":133
				},
				{
					"input":121,
					"interpolation":"LINEAR",
					"output":134
				},
				{
					"input":120,
					"interpolation":"STEP",
					"output":135
				},
				{
					"input":121,
					"interpolation":"LINEAR",
					"output":136
				},
				{
					"input":121,
					"interpolation":"LINEAR",
					"output":137
				},
				{
					"input":120,
					"interpolation":"STEP",
					"output":138
				},
				{
					"input":121,
					"interpolation":"LINEAR",
					"output":139
				},
				{
					"input":121,
					"interpolation":"LINEAR",
					"output":140
				},
				{
					"input":120,
					"interpolation":"STEP",
					"output":141
				},
				{
					"input":121,
					"interpolation":"LINEAR",
					"output":142
				},
				{
					"input":121,
					"interpolation":"LINEAR",
					"output":143
				},
				{
					"input":120,
					"interpolation":"STEP",
					"output":144
				},
				{
					"input":121,
					"interpolation":"LINEAR",
					"output":145
				},
				{
					"input":121,
					"interpolation":"LINEAR",
					"output":146
				},
				{
					"input":120,
					"interpolation":"STEP",
					"output":147
				},
				{
					"input":121,
					"interpolation":"LINEAR",
					"output":148
				},
				{
					"input":121,
					"interpolation":"LINEAR",
					"output":149
				},
				{
					"input":120,
					"interpolation":"STEP",
					"output":150
				},
				{
					"input":121,
					"interpolation":"LINEAR",
					"output":151
				},
				{
					"input":121,
					"interpolation":"LINEAR",
					"output":152
				},
				{
					"input":120,
					"interpolation":"STEP",
					"output":153
				},
				{
					"input":121,
					"interpolation":"LINEAR",
					"output":154
				},
				{
					"input":121,
					"interpolation":"LINEAR",
					"output":155
				},
				{
					"input":120,
					"interpolation":"STEP",
					"output":156
				},
				{
					"input":121,
					"interpolation":"LINEAR",
					"output":157
				},
				{
					"input":121,
					"interpolation":"LINEAR",
					"output":158
				},
				{
					"input":120,
					"interpolation":"STEP",
					"output":159
				},
				{
					"input":121,
					"interpolation":"LINEAR",
					"output":160
				},
				{
					"input":121,
					"interpolation":"LINEAR",
					"output":161
				}
			]
		},
		{
			"channels":[
				{
					"sampler":0,
					"target":{
						"node":14,
						"path":"translation"
					}
				},
				{
					"sampler":1,
					"target":{
						"node":14,
						"path":"rotation"
					}
				},
				{
					"sampler":2,
					"target":{
						"node":14,
						"path":"scale"
					}
				},
				{
					"sampler":3,
					"target":{
						"node":1,
						"path":"translation"
					}
				},
				{
					"sampler":4,
					"target":{
						"node":1,
						"path":"rotation"
					}
				},
				{
					"sampler":5,
					"target":{
						"node":1,
						"path":"scale"
					}
				},
				{
					"sampler":6,
					"target":{
						"node":0,
						"path":"translation"
					}
				},
				{
					"sampler":7,
					"target":{
						"node":0,
						"path":"rotation"
					}
				},
				{
					"sampler":8,
					"target":{
						"node":0,
						"path":"scale"
					}
				},
				{
					"sampler":9,
					"target":{
						"node":2,
						"path":"translation"
					}
				},
				{
					"sampler":10,
					"target":{
						"node":2,
						"path":"rotation"
					}
				},
				{
					"sampler":11,
					"target":{
						"node":2,
						"path":"scale"
					}
				},
				{
					"sampler":12,
					"target":{
						"node":3,
						"path":"translation"
					}
				},
				{
					"sampler":13,
					"target":{
						"node":3,
						"path":"rotation"
					}
				},
				{
					"sampler":14,
					"target":{
						"node":3,
						"path":"scale"
					}
				},
				{
					"sampler":15,
					"target":{
						"node":4,
						"path":"translation"
					}
				},
				{
					"sampler":16,
					"target":{
						"node":4,
						"path":"rotation"
					}
				},
				{
					"sampler":17,
					"target":{
						"node":4,
						"path":"scale"
					}
				},
				{
					"sampler":18,
					"target":{
						"node":5,
						"path":"translation"
					}
				},
				{
					"sampler":19,
					"target":{
						"node":5,
						"path":"rotation"
					}
				},
				{
					"sampler":20,
					"target":{
						"node":5,
						"path":"scale"
					}
				},
				{
					"sampler":21,
					"target":{
						"node":6,
						"path":"translation"
					}
				},
				{
					"sampler":22,
					"target":{
						"node":6,
						"path":"rotation"
					}
				},
				{
					"sampler":23,
					"target":{
						"node":6,
						"path":"scale"
					}
				},
				{
					"sampler":24,
					"target":{
						"node":7,
						"path":"translation"
					}
				},
				{
					"sampler":25,
					"target":{
						"node":7,
						"path":"rotation"
					}
				},
				{
					"sampler":26,
					"target":{
						"node":7,
						"path":"scale"
					}
				},
				{
					"sampler":27,
					"target":{
						"node":8,
						"path":"translation"
					}
				},
				{
					"sampler":28,
					"target":{
						"node":8,
						"path":"rotation"
					}
				},
				{
					"sampler":29,
					"target":{
						"node":8,
						"path":"scale"
					}
				},
				{
					"sampler":30,
					"target":{
						"node":9,
						"path":"translation"
					}
				},
				{
					"sampler":31,
					"target":{
						"node":9,
						"path":"rotation"
					}
				},
				{
					"sampler":32,
					"target":{
						"node":9,
						"path":"scale"
					}
				},
				{
					"sampler":33,
					"target":{
						"node":10,
						"path":"translation"
					}
				},
				{
					"sampler":34,
					"target":{
						"node":10,
						"path":"rotation"
					}
				},
				{
					"sampler":35,
					"target":{
						"node":10,
						"path":"scale"
					}
				},
				{
					"sampler":36,
					"target":{
						"node":11,
						"path":"translation"
					}
				},
				{
					"sampler":37,
					"target":{
						"node":11,
						"path":"rotation"
					}
				},
				{
					"sampler":38,
					"target":{
						"node":11,
						"path":"scale"
					}
				},
				{
					"sampler":39,
					"target":{
						"node":12,
						"path":"translation"
					}
				},
				{
					"sampler":40,
					"target":{
						"node":12,
						"path":"rotation"
					}
				},
				{
					"sampler":41,
					"target":{
						"node":12,
						"path":"scale"
					}
				},
				{
					"sampler":42,
					"target":{
						"node":13,
						"path":"translation"
					}
				},
				{
					"sampler":43,
					"target":{
						"node":13,
						"path":"rotation"
					}
				},
				{
					"sampler":44,
					"target":{
						"node":13,
						"path":"scale"
					}
				}
			],
			"name":"flare_recover",
			"samplers":[
				{
					"input":162,
					"interpolation":"STEP",
					"output":38
				},
				{
					"input":162,
					"interpolation":"STEP",
					"output":39
				},
				{
					"input":163,
					"interpolation":"LINEAR",
					"output":164
				},
				{
					"input":162,
					"interpolation":"STEP",
					"output":165
				},
				{
					"input":162,
					"interpolation":"STEP",
					"output":39
				},
				{
					"input":163,
					"interpolation":"LINEAR",
					"output":166
				},
				{
					"input":162,
					"interpolation":"STEP",
					"output":38
				},
				{
					"input":162,
					"interpolation":"STEP",
					"output":39
				},
				{
					"input":163,
					"interpolation":"LINEAR",
					"output":167
				},
				{
					"input":162,
					"interpolation":"STEP",
					"output":168
				},
				{
					"input":163,
					"interpolation":"LINEAR",
					"output":169
				},
				{
					"input":163,
					"interpolation":"LINEAR",
					"output":170
				},
				{
					"input":162,
					"interpolation":"STEP",
					"output":171
				},
				{
					"input":163,
					"interpolation":"LINEAR",
					"output":172
				},
				{
					"input":163,
					"interpolation":"LINEAR",
					"output":173
				},
				{
					"input":162,
					"interpolation":"STEP",
					"output":174
				},
				{
					"input":163,
					"interpolation":"LINEAR",
					"output":175
				},
				{
					"input":163,
					"interpolation":"LINEAR",
					"output":176
				},
				{
					"input":162,
					"interpolation":"STEP",
					"output":177
				},
				{
					"input":163,
					"interpolation":"LINEAR",
					"output":178
				},
				{
					"input":163,
					"interpolation":"LINEAR",
					"output":179
				},
				{
					"input":162,
					"interpolation":"STEP",
					"output":180
				},
				{
					"input":163,
					"interpolation":"LINEAR",
					"output":181
				},
				{
					"input":163,
					"interpolation":"LINEAR",
					"output":182
				},
				{
					"input":162,
					"interpolation":"STEP",
					"output":183
				},
				{
					"input":163,
					"interpolation":"LINEAR",
					"output":184
				},
				{
					"input":163,
					"interpolation":"LINEAR",
					"output":185
				},
				{
					"input":162,
					"interpolation":"STEP",
					"output":186
				},
				{
					"input":163,
					"interpolation":"LINEAR",
					"output":187
				},
				{
					"input":163,
					"interpolation":"LINEAR",
					"output":188
				},
				{
					"input":162,
					"interpolation":"STEP",
					"output":189
				},
				{
					"input":163,
					"interpolation":"LINEAR",
					"output":190
				},
				{
					"input":163,
					"interpolation":"LINEAR",
					"output":191
				},
				{
					"input":162,
					"interpolation":"STEP",
					"output":192
				},
				{
					"input":163,
					"interpolation":"LINEAR",
					"output":193
				},
				{
					"input":163,
					"interpolation":"LINEAR",
					"output":194
				},
				{
					"input":162,
					"interpolation":"STEP",
					"output":195
				},
				{
					"input":163,
					"interpolation":"LINEAR",
					"output":196
				},
				{
					"input":163,
					"interpolation":"LINEAR",
					"output":197
				},
				{
					"input":162,
					"interpolation":"STEP",
					"output":198
				},
				{
					"input":163,
					"interpolation":"LINEAR",
					"output":199
				},
				{
					"input":163,
					"interpolation":"LINEAR",
					"output":200
				},
				{
					"input":162,
					"interpolation":"STEP",
					"output":201
				},
				{
					"input":163,
					"interpolation":"LINEAR",
					"output":202
				},
				{
					"input":163,
					"interpolation":"LINEAR",
					"output":203
				}
			]
		},
		{
			"channels":[
				{
					"sampler":0,
					"target":{
						"node":14,
						"path":"translation"
					}
				},
				{
					"sampler":1,
					"target":{
						"node":14,
						"path":"rotation"
					}
				},
				{
					"sampler":2,
					"target":{
						"node":14,
						"path":"scale"
					}
				},
				{
					"sampler":3,
					"target":{
						"node":1,
						"path":"translation"
					}
				},
				{
					"sampler":4,
					"target":{
						"node":1,
						"path":"rotation"
					}
				},
				{
					"sampler":5,
					"target":{
						"node":1,
						"path":"scale"
					}
				},
				{
					"sampler":6,
					"target":{
						"node":0,
						"path":"translation"
					}
				},
				{
					"sampler":7,
					"target":{
						"node":0,
						"path":"rotation"
					}
				},
				{
					"sampler":8,
					"target":{
						"node":0,
						"path":"scale"
					}
				},
				{
					"sampler":9,
					"target":{
						"node":2,
						"path":"translation"
					}
				},
				{
					"sampler":10,
					"target":{
						"node":2,
						"path":"rotation"
					}
				},
				{
					"sampler":11,
					"target":{
						"node":2,
						"path":"scale"
					}
				},
				{
					"sampler":12,
					"target":{
						"node":3,
						"path":"translation"
					}
				},
				{
					"sampler":13,
					"target":{
						"node":3,
						"path":"rotation"
					}
				},
				{
					"sampler":14,
					"target":{
						"node":3,
						"path":"scale"
					}
				},
				{
					"sampler":15,
					"target":{
						"node":4,
						"path":"translation"
					}
				},
				{
					"sampler":16,
					"target":{
						"node":4,
						"path":"rotation"
					}
				},
				{
					"sampler":17,
					"target":{
						"node":4,
						"path":"scale"
					}
				},
				{
					"sampler":18,
					"target":{
						"node":5,
						"path":"translation"
					}
				},
				{
					"sampler":19,
					"target":{
						"node":5,
						"path":"rotation"
					}
				},
				{
					"sampler":20,
					"target":{
						"node":5,
						"path":"scale"
					}
				},
				{
					"sampler":21,
					"target":{
						"node":6,
						"path":"translation"
					}
				},
				{
					"sampler":22,
					"target":{
						"node":6,
						"path":"rotation"
					}
				},
				{
					"sampler":23,
					"target":{
						"node":6,
						"path":"scale"
					}
				},
				{
					"sampler":24,
					"target":{
						"node":7,
						"path":"translation"
					}
				},
				{
					"sampler":25,
					"target":{
						"node":7,
						"path":"rotation"
					}
				},
				{
					"sampler":26,
					"target":{
						"node":7,
						"path":"scale"
					}
				},
				{
					"sampler":27,
					"target":{
						"node":8,
						"path":"translation"
					}
				},
				{
					"sampler":28,
					"target":{
						"node":8,
						"path":"rotation"
					}
				},
				{
					"sampler":29,
					"target":{
						"node":8,
						"path":"scale"
					}
				},
				{
					"sampler":30,
					"target":{
						"node":9,
						"path":"translation"
					}
				},
				{
					"sampler":31,
					"target":{
						"node":9,
						"path":"rotation"
					}
				},
				{
					"sampler":32,
					"target":{
						"node":9,
						"path":"scale"
					}
				},
				{
					"sampler":33,
					"target":{
						"node":10,
						"path":"translation"
					}
				},
				{
					"sampler":34,
					"target":{
						"node":10,
						"path":"rotation"
					}
				},
				{
					"sampler":35,
					"target":{
						"node":10,
						"path":"scale"
					}
				},
				{
					"sampler":36,
					"target":{
						"node":11,
						"path":"translation"
					}
				},
				{
					"sampler":37,
					"target":{
						"node":11,
						"path":"rotation"
					}
				},
				{
					"sampler":38,
					"target":{
						"node":11,
						"path":"scale"
					}
				},
				{
					"sampler":39,
					"target":{
						"node":12,
						"path":"translation"
					}
				},
				{
					"sampler":40,
					"target":{
						"node":12,
						"path":"rotation"
					}
				},
				{
					"sampler":41,
					"target":{
						"node":12,
						"path":"scale"
					}
				},
				{
					"sampler":42,
					"target":{
						"node":13,
						"path":"translation"
					}
				},
				{
					"sampler":43,
					"target":{
						"node":13,
						"path":"rotation"
					}
				},
				{
					"sampler":44,
					"target":{
						"node":13,
						"path":"scale"
					}
				}
			],
			"name":"flare_settle",
			"samplers":[
				{
					"input":204,
					"interpolation":"STEP",
					"output":38
				},
				{
					"input":204,
					"interpolation":"STEP",
					"output":39
				},
				{
					"input":205,
					"interpolation":"LINEAR",
					"output":206
				},
				{
					"input":204,
					"interpolation":"STEP",
					"output":42
				},
				{
					"input":204,
					"interpolation":"STEP",
					"output":39
				},
				{
					"input":205,
					"interpolation":"LINEAR",
					"output":207
				},
				{
					"input":204,
					"interpolation":"STEP",
					"output":38
				},
				{
					"input":204,
					"interpolation":"STEP",
					"output":39
				},
				{
					"input":205,
					"interpolation":"LINEAR",
					"output":208
				},
				{
					"input":204,
					"interpolation":"STEP",
					"output":209
				},
				{
					"input":204,
					"interpolation":"STEP",
					"output":87
				},
				{
					"input":204,
					"interpolation":"STEP",
					"output":88
				},
				{
					"input":204,
					"interpolation":"STEP",
					"output":210
				},
				{
					"input":204,
					"interpolation":"STEP",
					"output":49
				},
				{
					"input":204,
					"interpolation":"STEP",
					"output":211
				},
				{
					"input":204,
					"interpolation":"STEP",
					"output":212
				},
				{
					"input":204,
					"interpolation":"STEP",
					"output":213
				},
				{
					"input":204,
					"interpolation":"STEP",
					"output":94
				},
				{
					"input":204,
					"interpolation":"STEP",
					"output":54
				},
				{
					"input":204,
					"interpolation":"STEP",
					"output":55
				},
				{
					"input":204,
					"interpolation":"STEP",
					"output":56
				},
				{
					"input":204,
					"interpolation":"STEP",
					"output":97
				},
				{
					"input":204,
					"interpolation":"STEP",
					"output":58
				},
				{
					"input":204,
					"interpolation":"STEP",
					"output":214
				},
				{
					"input":204,
					"interpolation":"STEP",
					"output":60
				},
				{
					"input":204,
					"interpolation":"STEP",
					"output":215
				},
				{
					"input":204,
					"interpolation":"STEP",
					"output":216
				},
				{
					"input":204,
					"interpolation":"STEP",
					"output":103
				},
				{
					"input":204,
					"interpolation":"STEP",
					"output":104
				},
				{
					"input":204,
					"interpolation":"STEP",
					"output":217
				},
				{
					"input":204,
					"interpolation":"STEP",
					"output":106
				},
				{
					"input":204,
					"interpolation":"STEP",
					"output":67
				},
				{
					"input":204,
					"interpolation":"STEP",
					"output":68
				},
				{
					"input":204,
					"interpolation":"STEP",
					"output":218
				},
				{
					"input":204,
					"interpolation":"STEP",
					"output":219
				},
				{
					"input":204,
					"interpolation":"STEP",
					"output":220
				},
				{
					"input":204,
					"interpolation":"STEP",
					"output":221
				},
				{
					"input":204,
					"interpolation":"STEP",
					"output":222
				},
				{
					"input":204,
					"interpolation":"STEP",
					"output":113
				},
				{
					"input":204,
					"interpolation":"STEP",
					"output":223
				},
				{
					"input":204,
					"interpolation":"STEP",
					"output":76
				},
				{
					"input":204,
					"interpolation":"STEP",
					"output":116
				},
				{
					"input":204,
					"interpolation":"STEP",
					"output":117
				},
				{
					"input":204,
					"interpolation":"STEP",
					"output":118
				},
				{
					"input":204,
					"interpolation":"STEP",
					"output":119
				}
			]
		}
	],
	"materials":[
		{
			"alphaMode":"BLEND",
			"doubleSided":true,
			"name":"FlareEnvelope",
			"pbrMetallicRoughness":{
				"baseColorTexture":{
					"index":0
				},
				"metallicFactor":0,
				"roughnessFactor":0.800000011920929
			}
		},
		{
			"doubleSided":true,
			"name":"FlareNucleus",
			"pbrMetallicRoughness":{
				"baseColorTexture":{
					"index":1
				},
				"metallicFactor":0,
				"roughnessFactor":0.800000011920929
			}
		},
		{
			"doubleSided":true,
			"emissiveFactor":[
				1,
				1,
				1
			],
			"emissiveTexture":{
				"index":2
			},
			"extensions":{
				"KHR_materials_emissive_strength":{
					"emissiveStrength":4
				}
			},
			"name":"FlareCore",
			"pbrMetallicRoughness":{
				"baseColorTexture":{
					"index":3
				},
				"metallicFactor":0,
				"roughnessFactor":0.800000011920929
			}
		},
		{
			"doubleSided":true,
			"name":"FlareGranuleA",
			"pbrMetallicRoughness":{
				"baseColorTexture":{
					"index":4
				},
				"metallicFactor":0,
				"roughnessFactor":0.800000011920929
			}
		},
		{
			"doubleSided":true,
			"name":"FlareGranuleB",
			"pbrMetallicRoughness":{
				"baseColorTexture":{
					"index":5
				},
				"metallicFactor":0,
				"roughnessFactor":0.800000011920929
			}
		},
		{
			"doubleSided":true,
			"name":"FlareGranuleC",
			"pbrMetallicRoughness":{
				"baseColorTexture":{
					"index":6
				},
				"metallicFactor":0,
				"roughnessFactor":0.800000011920929
			}
		}
	],
	"meshes":[
		{
			"name":"FlareRigged",
			"primitives":[
				{
					"attributes":{
						"POSITION":0,
						"NORMAL":1,
						"TEXCOORD_0":2,
						"JOINTS_0":3,
						"WEIGHTS_0":4
					},
					"indices":5,
					"material":0
				},
				{
					"attributes":{
						"POSITION":6,
						"NORMAL":7,
						"TEXCOORD_0":8,
						"JOINTS_0":9,
						"WEIGHTS_0":10
					},
					"indices":11,
					"material":1
				},
				{
					"attributes":{
						"POSITION":12,
						"NORMAL":13,
						"TEXCOORD_0":14,
						"JOINTS_0":15,
						"WEIGHTS_0":16
					},
					"indices":17,
					"material":2
				},
				{
					"attributes":{
						"POSITION":18,
						"NORMAL":19,
						"TEXCOORD_0":20,
						"JOINTS_0":21,
						"WEIGHTS_0":22
					},
					"indices":23,
					"material":3
				},
				{
					"attributes":{
						"POSITION":24,
						"NORMAL":25,
						"TEXCOORD_0":26,
						"JOINTS_0":27,
						"WEIGHTS_0":28
					},
					"indices":29,
					"material":4
				},
				{
					"attributes":{
						"POSITION":30,
						"NORMAL":31,
						"TEXCOORD_0":32,
						"JOINTS_0":33,
						"WEIGHTS_0":34
					},
					"indices":35,
					"material":5
				}
			]
		}
	],
	"textures":[
		{
			"sampler":0,
			"source":0
		},
		{
			"sampler":0,
			"source":1
		},
		{
			"sampler":0,
			"source":2
		},
		{
			"sampler":0,
			"source":2
		},
		{
			"sampler":0,
			"source":3
		},
		{
			"sampler":0,
			"source":4
		},
		{
			"sampler":0,
			"source":5
		}
	],
	"images":[
		{
			"mimeType":"image/png",
			"name":"flare_envelope",
			"uri":"flare_envelope.png"
		},
		{
			"mimeType":"image/png",
			"name":"flare_nucleus",
			"uri":"flare_nucleus.png"
		},
		{
			"mimeType":"image/png",
			"name":"flare_core",
			"uri":"flare_core.png"
		},
		{
			"mimeType":"image/png",
			"name":"flare_gran_a",
			"uri":"flare_gran_a.png"
		},
		{
			"mimeType":"image/png",
			"name":"flare_gran_b",
			"uri":"flare_gran_b.png"
		},
		{
			"mimeType":"image/png",
			"name":"flare_gran_c",
			"uri":"flare_gran_c.png"
		}
	],
	"skins":[
		{
			"inverseBindMatrices":36,
			"joints":[
				14,
				1,
				0,
				2,
				3,
				4,
				5,
				6,
				7,
				8,
				9,
				10,
				11,
				12,
				13
			],
			"name":"Flare_Armature"
		}
	],
	"accessors":[
		{
			"bufferView":0,
			"componentType":5126,
			"count":240,
			"max":[
				0.24929752945899963,
				0.5198525190353394,
				0.3047829270362854
			],
			"min":[
				-0.28396177291870117,
				-0.03540760278701782,
				-0.2550748884677887
			],
			"type":"VEC3"
		},
		{
			"bufferView":1,
			"componentType":5126,
			"count":240,
			"type":"VEC3"
		},
		{
			"bufferView":2,
			"componentType":5126,
			"count":240,
			"type":"VEC2"
		},
		{
			"bufferView":3,
			"componentType":5121,
			"count":240,
			"type":"VEC4"
		},
		{
			"bufferView":4,
			"componentType":5126,
			"count":240,
			"type":"VEC4"
		},
		{
			"bufferView":5,
			"componentType":5123,
			"count":240,
			"type":"SCALAR"
		},
		{
			"bufferView":6,
			"componentType":5126,
			"count":240,
			"max":[
				0.1138312965631485,
				0.3712514042854309,
				0.12164285778999329
			],
			"min":[
				-0.12290804833173752,
				0.157658189535141,
				-0.11902650445699692
			],
			"type":"VEC3"
		},
		{
			"bufferView":7,
			"componentType":5126,
			"count":240,
			"type":"VEC3"
		},
		{
			"bufferView":8,
			"componentType":5126,
			"count":240,
			"type":"VEC2"
		},
		{
			"bufferView":9,
			"componentType":5121,
			"count":240,
			"type":"VEC4"
		},
		{
			"bufferView":10,
			"componentType":5126,
			"count":240,
			"type":"VEC4"
		},
		{
			"bufferView":11,
			"componentType":5123,
			"count":240,
			"type":"SCALAR"
		},
		{
			"bufferView":12,
			"componentType":5126,
			"count":60,
			"max":[
				0.023744039237499237,
				0.2865158021450043,
				0.022352131083607674
			],
			"min":[
				-0.02211025170981884,
				0.23952871561050415,
				-0.01927049085497856
			],
			"type":"VEC3"
		},
		{
			"bufferView":13,
			"componentType":5126,
			"count":60,
			"type":"VEC3"
		},
		{
			"bufferView":14,
			"componentType":5126,
			"count":60,
			"type":"VEC2"
		},
		{
			"bufferView":15,
			"componentType":5121,
			"count":60,
			"type":"VEC4"
		},
		{
			"bufferView":16,
			"componentType":5126,
			"count":60,
			"type":"VEC4"
		},
		{
			"bufferView":17,
			"componentType":5123,
			"count":60,
			"type":"SCALAR"
		},
		{
			"bufferView":18,
			"componentType":5126,
			"count":240,
			"max":[
				0.14501535892486572,
				0.3091368079185486,
				0.13623695075511932
			],
			"min":[
				-0.10299760103225708,
				0.05604592338204384,
				-0.1850585639476776
			],
			"type":"VEC3"
		},
		{
			"bufferView":19,
			"componentType":5126,
			"count":240,
			"type":"VEC3"
		},
		{
			"bufferView":20,
			"componentType":5126,
			"count":240,
			"type":"VEC2"
		},
		{
			"bufferView":21,
			"componentType":5121,
			"count":240,
			"type":"VEC4"
		},
		{
			"bufferView":22,
			"componentType":5126,
			"count":240,
			"type":"VEC4"
		},
		{
			"bufferView":23,
			"componentType":5123,
			"count":240,
			"type":"SCALAR"
		},
		{
			"bufferView":24,
			"componentType":5126,
			"count":480,
			"max":[
				0.23574841022491455,
				0.503271758556366,
				0.17230433225631714
			],
			"min":[
				-0.19511675834655762,
				0.3127589523792267,
				-0.059296220541000366
			],
			"type":"VEC3"
		},
		{
			"bufferView":25,
			"componentType":5126,
			"count":480,
			"type":"VEC3"
		},
		{
			"bufferView":26,
			"componentType":5126,
			"count":480,
			"type":"VEC2"
		},
		{
			"bufferView":27,
			"componentType":5121,
			"count":480,
			"type":"VEC4"
		},
		{
			"bufferView":28,
			"componentType":5126,
			"count":480,
			"type":"VEC4"
		},
		{
			"bufferView":29,
			"componentType":5123,
			"count":480,
			"type":"SCALAR"
		},
		{
			"bufferView":30,
			"componentType":5126,
			"count":960,
			"max":[
				0.04528191313147545,
				0.5132591128349304,
				0.0783725306391716
			],
			"min":[
				-0.027906231582164764,
				-0.001152772456407547,
				-0.0731314867734909
			],
			"type":"VEC3"
		},
		{
			"bufferView":31,
			"componentType":5126,
			"count":960,
			"type":"VEC3"
		},
		{
			"bufferView":32,
			"componentType":5126,
			"count":960,
			"type":"VEC2"
		},
		{
			"bufferView":33,
			"componentType":5121,
			"count":960,
			"type":"VEC4"
		},
		{
			"bufferView":34,
			"componentType":5126,
			"count":960,
			"type":"VEC4"
		},
		{
			"bufferView":35,
			"componentType":5123,
			"count":960,
			"type":"SCALAR"
		},
		{
			"bufferView":36,
			"componentType":5126,
			"count":15,
			"type":"MAT4"
		},
		{
			"bufferView":37,
			"componentType":5126,
			"count":2,
			"max":[
				1
			],
			"min":[
				0.041666666666666664
			],
			"type":"SCALAR"
		},
		{
			"bufferView":38,
			"componentType":5126,
			"count":2,
			"type":"VEC3"
		},
		{
			"bufferView":39,
			"componentType":5126,
			"count":2,
			"type":"VEC4"
		},
		{
			"bufferView":40,
			"componentType":5126,
			"count":24,
			"max":[
				1
			],
			"min":[
				0.041666666666666664
			],
			"type":"SCALAR"
		},
		{
			"bufferView":41,
			"componentType":5126,
			"count":24,
			"type":"VEC3"
		},
		{
			"bufferView":42,
			"componentType":5126,
			"count":2,
			"type":"VEC3"
		},
		{
			"bufferView":43,
			"componentType":5126,
			"count":24,
			"type":"VEC3"
		},
		{
			"bufferView":44,
			"componentType":5126,
			"count":24,
			"type":"VEC3"
		},
		{
			"bufferView":45,
			"componentType":5126,
			"count":2,
			"type":"VEC3"
		},
		{
			"bufferView":46,
			"componentType":5126,
			"count":2,
			"type":"VEC4"
		},
		{
			"bufferView":47,
			"componentType":5126,
			"count":2,
			"type":"VEC3"
		},
		{
			"bufferView":48,
			"componentType":5126,
			"count":2,
			"type":"VEC3"
		},
		{
			"bufferView":49,
			"componentType":5126,
			"count":2,
			"type":"VEC4"
		},
		{
			"bufferView":50,
			"componentType":5126,
			"count":2,
			"type":"VEC3"
		},
		{
			"bufferView":51,
			"componentType":5126,
			"count":2,
			"type":"VEC3"
		},
		{
			"bufferView":52,
			"componentType":5126,
			"count":2,
			"type":"VEC4"
		},
		{
			"bufferView":53,
			"componentType":5126,
			"count":2,
			"type":"VEC3"
		},
		{
			"bufferView":54,
			"componentType":5126,
			"count":2,
			"type":"VEC3"
		},
		{
			"bufferView":55,
			"componentType":5126,
			"count":2,
			"type":"VEC4"
		},
		{
			"bufferView":56,
			"componentType":5126,
			"count":2,
			"type":"VEC3"
		},
		{
			"bufferView":57,
			"componentType":5126,
			"count":2,
			"type":"VEC3"
		},
		{
			"bufferView":58,
			"componentType":5126,
			"count":2,
			"type":"VEC4"
		},
		{
			"bufferView":59,
			"componentType":5126,
			"count":2,
			"type":"VEC3"
		},
		{
			"bufferView":60,
			"componentType":5126,
			"count":2,
			"type":"VEC3"
		},
		{
			"bufferView":61,
			"componentType":5126,
			"count":2,
			"type":"VEC4"
		},
		{
			"bufferView":62,
			"componentType":5126,
			"count":2,
			"type":"VEC3"
		},
		{
			"bufferView":63,
			"componentType":5126,
			"count":2,
			"type":"VEC3"
		},
		{
			"bufferView":64,
			"componentType":5126,
			"count":2,
			"type":"VEC4"
		},
		{
			"bufferView":65,
			"componentType":5126,
			"count":2,
			"type":"VEC3"
		},
		{
			"bufferView":66,
			"componentType":5126,
			"count":2,
			"type":"VEC3"
		},
		{
			"bufferView":67,
			"componentType":5126,
			"count":2,
			"type":"VEC4"
		},
		{
			"bufferView":68,
			"componentType":5126,
			"count":2,
			"type":"VEC3"
		},
		{
			"bufferView":69,
			"componentType":5126,
			"count":2,
			"type":"VEC3"
		},
		{
			"bufferView":70,
			"componentType":5126,
			"count":2,
			"type":"VEC4"
		},
		{
			"bufferView":71,
			"componentType":5126,
			"count":2,
			"type":"VEC3"
		},
		{
			"bufferView":72,
			"componentType":5126,
			"count":2,
			"type":"VEC3"
		},
		{
			"bufferView":73,
			"componentType":5126,
			"count":2,
			"type":"VEC4"
		},
		{
			"bufferView":74,
			"componentType":5126,
			"count":2,
			"type":"VEC3"
		},
		{
			"bufferView":75,
			"componentType":5126,
			"count":2,
			"type":"VEC3"
		},
		{
			"bufferView":76,
			"componentType":5126,
			"count":2,
			"type":"VEC4"
		},
		{
			"bufferView":77,
			"componentType":5126,
			"count":2,
			"type":"VEC3"
		},
		{
			"bufferView":78,
			"componentType":5126,
			"count":2,
			"type":"VEC3"
		},
		{
			"bufferView":79,
			"componentType":5126,
			"count":2,
			"type":"VEC4"
		},
		{
			"bufferView":80,
			"componentType":5126,
			"count":2,
			"type":"VEC3"
		},
		{
			"bufferView":81,
			"componentType":5126,
			"count":2,
			"max":[
				0.20833333333333334
			],
			"min":[
				0.041666666666666664
			],
			"type":"SCALAR"
		},
		{
			"bufferView":82,
			"componentType":5126,
			"count":5,
			"max":[
				0.20833333333333334
			],
			"min":[
				0.041666666666666664
			],
			"type":"SCALAR"
		},
		{
			"bufferView":83,
			"componentType":5126,
			"count":5,
			"type":"VEC3"
		},
		{
			"bufferView":84,
			"componentType":5126,
			"count":5,
			"type":"VEC3"
		},
		{
			"bufferView":85,
			"componentType":5126,
			"count":5,
			"type":"VEC3"
		},
		{
			"bufferView":86,
			"componentType":5126,
			"count":2,
			"type":"VEC3"
		},
		{
			"bufferView":87,
			"componentType":5126,
			"count":2,
			"type":"VEC4"
		},
		{
			"bufferView":88,
			"componentType":5126,
			"count":2,
			"type":"VEC3"
		},
		{
			"bufferView":89,
			"componentType":5126,
			"count":2,
			"type":"VEC3"
		},
		{
			"bufferView":90,
			"componentType":5126,
			"count":2,
			"type":"VEC4"
		},
		{
			"bufferView":91,
			"componentType":5126,
			"count":2,
			"type":"VEC3"
		},
		{
			"bufferView":92,
			"componentType":5126,
			"count":2,
			"type":"VEC3"
		},
		{
			"bufferView":93,
			"componentType":5126,
			"count":2,
			"type":"VEC4"
		},
		{
			"bufferView":94,
			"componentType":5126,
			"count":2,
			"type":"VEC3"
		},
		{
			"bufferView":95,
			"componentType":5126,
			"count":2,
			"type":"VEC3"
		},
		{
			"bufferView":96,
			"componentType":5126,
			"count":2,
			"type":"VEC4"
		},
		{
			"bufferView":97,
			"componentType":5126,
			"count":2,
			"type":"VEC3"
		},
		{
			"bufferView":98,
			"componentType":5126,
			"count":2,
			"type":"VEC4"
		},
		{
			"bufferView":99,
			"componentType":5126,
			"count":2,
			"type":"VEC3"
		},
		{
			"bufferView":100,
			"componentType":5126,
			"count":2,
			"type":"VEC3"
		},
		{
			"bufferView":101,
			"componentType":5126,
			"count":2,
			"type":"VEC4"
		},
		{
			"bufferView":102,
			"componentType":5126,
			"count":2,
			"type":"VEC3"
		},
		{
			"bufferView":103,
			"componentType":5126,
			"count":2,
			"type":"VEC3"
		},
		{
			"bufferView":104,
			"componentType":5126,
			"count":2,
			"type":"VEC4"
		},
		{
			"bufferView":105,
			"componentType":5126,
			"count":2,
			"type":"VEC3"
		},
		{
			"bufferView":106,
			"componentType":5126,
			"count":2,
			"type":"VEC3"
		},
		{
			"bufferView":107,
			"componentType":5126,
			"count":2,
			"type":"VEC4"
		},
		{
			"bufferView":108,
			"componentType":5126,
			"count":2,
			"type":"VEC3"
		},
		{
			"bufferView":109,
			"componentType":5126,
			"count":2,
			"type":"VEC4"
		},
		{
			"bufferView":110,
			"componentType":5126,
			"count":2,
			"type":"VEC3"
		},
		{
			"bufferView":111,
			"componentType":5126,
			"count":2,
			"type":"VEC3"
		},
		{
			"bufferView":112,
			"componentType":5126,
			"count":2,
			"type":"VEC4"
		},
		{
			"bufferView":113,
			"componentType":5126,
			"count":2,
			"type":"VEC3"
		},
		{
			"bufferView":114,
			"componentType":5126,
			"count":2,
			"type":"VEC3"
		},
		{
			"bufferView":115,
			"componentType":5126,
			"count":2,
			"type":"VEC4"
		},
		{
			"bufferView":116,
			"componentType":5126,
			"count":2,
			"type":"VEC3"
		},
		{
			"bufferView":117,
			"componentType":5126,
			"count":2,
			"type":"VEC3"
		},
		{
			"bufferView":118,
			"componentType":5126,
			"count":2,
			"type":"VEC4"
		},
		{
			"bufferView":119,
			"componentType":5126,
			"count":2,
			"type":"VEC3"
		},
		{
			"bufferView":120,
			"componentType":5126,
			"count":2,
			"max":[
				1.5
			],
			"min":[
				0.041666666666666664
			],
			"type":"SCALAR"
		},
		{
			"bufferView":121,
			"componentType":5126,
			"count":36,
			"max":[
				1.5
			],
			"min":[
				0.041666666666666664
			],
			"type":"SCALAR"
		},
		{
			"bufferView":122,
			"componentType":5126,
			"count":36,
			"type":"VEC3"
		},
		{
			"bufferView":123,
			"componentType":5126,
			"count":2,
			"type":"VEC3"
		},
		{
			"bufferView":124,
			"componentType":5126,
			"count":36,
			"type":"VEC3"
		},
		{
			"bufferView":125,
			"componentType":5126,
			"count":36,
			"type":"VEC3"
		},
		{
			"bufferView":126,
			"componentType":5126,
			"count":2,
			"type":"VEC3"
		},
		{
			"bufferView":127,
			"componentType":5126,
			"count":36,
			"type":"VEC4"
		},
		{
			"bufferView":128,
			"componentType":5126,
			"count":36,
			"type":"VEC3"
		},
		{
			"bufferView":129,
			"componentType":5126,
			"count":2,
			"type":"VEC3"
		},
		{
			"bufferView":130,
			"componentType":5126,
			"count":36,
			"type":"VEC4"
		},
		{
			"bufferView":131,
			"componentType":5126,
			"count":36,
			"type":"VEC3"
		},
		{
			"bufferView":132,
			"componentType":5126,
			"count":2,
			"type":"VEC3"
		},
		{
			"bufferView":133,
			"componentType":5126,
			"count":36,
			"type":"VEC4"
		},
		{
			"bufferView":134,
			"componentType":5126,
			"count":36,
			"type":"VEC3"
		},
		{
			"bufferView":135,
			"componentType":5126,
			"count":2,
			"type":"VEC3"
		},
		{
			"bufferView":136,
			"componentType":5126,
			"count":36,
			"type":"VEC4"
		},
		{
			"bufferView":137,
			"componentType":5126,
			"count":36,
			"type":"VEC3"
		},
		{
			"bufferView":138,
			"componentType":5126,
			"count":2,
			"type":"VEC3"
		},
		{
			"bufferView":139,
			"componentType":5126,
			"count":36,
			"type":"VEC4"
		},
		{
			"bufferView":140,
			"componentType":5126,
			"count":36,
			"type":"VEC3"
		},
		{
			"bufferView":141,
			"componentType":5126,
			"count":2,
			"type":"VEC3"
		},
		{
			"bufferView":142,
			"componentType":5126,
			"count":36,
			"type":"VEC4"
		},
		{
			"bufferView":143,
			"componentType":5126,
			"count":36,
			"type":"VEC3"
		},
		{
			"bufferView":144,
			"componentType":5126,
			"count":2,
			"type":"VEC3"
		},
		{
			"bufferView":145,
			"componentType":5126,
			"count":36,
			"type":"VEC4"
		},
		{
			"bufferView":146,
			"componentType":5126,
			"count":36,
			"type":"VEC3"
		},
		{
			"bufferView":147,
			"componentType":5126,
			"count":2,
			"type":"VEC3"
		},
		{
			"bufferView":148,
			"componentType":5126,
			"count":36,
			"type":"VEC4"
		},
		{
			"bufferView":149,
			"componentType":5126,
			"count":36,
			"type":"VEC3"
		},
		{
			"bufferView":150,
			"componentType":5126,
			"count":2,
			"type":"VEC3"
		},
		{
			"bufferView":151,
			"componentType":5126,
			"count":36,
			"type":"VEC4"
		},
		{
			"bufferView":152,
			"componentType":5126,
			"count":36,
			"type":"VEC3"
		},
		{
			"bufferView":153,
			"componentType":5126,
			"count":2,
			"type":"VEC3"
		},
		{
			"bufferView":154,
			"componentType":5126,
			"count":36,
			"type":"VEC4"
		},
		{
			"bufferView":155,
			"componentType":5126,
			"count":36,
			"type":"VEC3"
		},
		{
			"bufferView":156,
			"componentType":5126,
			"count":2,
			"type":"VEC3"
		},
		{
			"bufferView":157,
			"componentType":5126,
			"count":36,
			"type":"VEC4"
		},
		{
			"bufferView":158,
			"componentType":5126,
			"count":36,
			"type":"VEC3"
		},
		{
			"bufferView":159,
			"componentType":5126,
			"count":2,
			"type":"VEC3"
		},
		{
			"bufferView":160,
			"componentType":5126,
			"count":36,
			"type":"VEC4"
		},
		{
			"bufferView":161,
			"componentType":5126,
			"count":36,
			"type":"VEC3"
		},
		{
			"bufferView":162,
			"componentType":5126,
			"count":2,
			"max":[
				2.4166666666666665
			],
			"min":[
				0.041666666666666664
			],
			"type":"SCALAR"
		},
		{
			"bufferView":163,
			"componentType":5126,
			"count":58,
			"max":[
				2.4166666666666665
			],
			"min":[
				0.041666666666666664
			],
			"type":"SCALAR"
		},
		{
			"bufferView":164,
			"componentType":5126,
			"count":58,
			"type":"VEC3"
		},
		{
			"bufferView":165,
			"componentType":5126,
			"count":2,
			"type":"VEC3"
		},
		{
			"bufferView":166,
			"componentType":5126,
			"count":58,
			"type":"VEC3"
		},
		{
			"bufferView":167,
			"componentType":5126,
			"count":58,
			"type":"VEC3"
		},
		{
			"bufferView":168,
			"componentType":5126,
			"count":2,
			"type":"VEC3"
		},
		{
			"bufferView":169,
			"componentType":5126,
			"count":58,
			"type":"VEC4"
		},
		{
			"bufferView":170,
			"componentType":5126,
			"count":58,
			"type":"VEC3"
		},
		{
			"bufferView":171,
			"componentType":5126,
			"count":2,
			"type":"VEC3"
		},
		{
			"bufferView":172,
			"componentType":5126,
			"count":58,
			"type":"VEC4"
		},
		{
			"bufferView":173,
			"componentType":5126,
			"count":58,
			"type":"VEC3"
		},
		{
			"bufferView":174,
			"componentType":5126,
			"count":2,
			"type":"VEC3"
		},
		{
			"bufferView":175,
			"componentType":5126,
			"count":58,
			"type":"VEC4"
		},
		{
			"bufferView":176,
			"componentType":5126,
			"count":58,
			"type":"VEC3"
		},
		{
			"bufferView":177,
			"componentType":5126,
			"count":2,
			"type":"VEC3"
		},
		{
			"bufferView":178,
			"componentType":5126,
			"count":58,
			"type":"VEC4"
		},
		{
			"bufferView":179,
			"componentType":5126,
			"count":58,
			"type":"VEC3"
		},
		{
			"bufferView":180,
			"componentType":5126,
			"count":2,
			"type":"VEC3"
		},
		{
			"bufferView":181,
			"componentType":5126,
			"count":58,
			"type":"VEC4"
		},
		{
			"bufferView":182,
			"componentType":5126,
			"count":58,
			"type":"VEC3"
		},
		{
			"bufferView":183,
			"componentType":5126,
			"count":2,
			"type":"VEC3"
		},
		{
			"bufferView":184,
			"componentType":5126,
			"count":58,
			"type":"VEC4"
		},
		{
			"bufferView":185,
			"componentType":5126,
			"count":58,
			"type":"VEC3"
		},
		{
			"bufferView":186,
			"componentType":5126,
			"count":2,
			"type":"VEC3"
		},
		{
			"bufferView":187,
			"componentType":5126,
			"count":58,
			"type":"VEC4"
		},
		{
			"bufferView":188,
			"componentType":5126,
			"count":58,
			"type":"VEC3"
		},
		{
			"bufferView":189,
			"componentType":5126,
			"count":2,
			"type":"VEC3"
		},
		{
			"bufferView":190,
			"componentType":5126,
			"count":58,
			"type":"VEC4"
		},
		{
			"bufferView":191,
			"componentType":5126,
			"count":58,
			"type":"VEC3"
		},
		{
			"bufferView":192,
			"componentType":5126,
			"count":2,
			"type":"VEC3"
		},
		{
			"bufferView":193,
			"componentType":5126,
			"count":58,
			"type":"VEC4"
		},
		{
			"bufferView":194,
			"componentType":5126,
			"count":58,
			"type":"VEC3"
		},
		{
			"bufferView":195,
			"componentType":5126,
			"count":2,
			"type":"VEC3"
		},
		{
			"bufferView":196,
			"componentType":5126,
			"count":58,
			"type":"VEC4"
		},
		{
			"bufferView":197,
			"componentType":5126,
			"count":58,
			"type":"VEC3"
		},
		{
			"bufferView":198,
			"componentType":5126,
			"count":2,
			"type":"VEC3"
		},
		{
			"bufferView":199,
			"componentType":5126,
			"count":58,
			"type":"VEC4"
		},
		{
			"bufferView":200,
			"componentType":5126,
			"count":58,
			"type":"VEC3"
		},
		{
			"bufferView":201,
			"componentType":5126,
			"count":2,
			"type":"VEC3"
		},
		{
			"bufferView":202,
			"componentType":5126,
			"count":58,
			"type":"VEC4"
		},
		{
			"bufferView":203,
			"componentType":5126,
			"count":58,
			"type":"VEC3"
		},
		{
			"bufferView":204,
			"componentType":5126,
			"count":2,
			"max":[
				1.0833333333333333
			],
			"min":[
				0.041666666666666664
			],
			"type":"SCALAR"
		},
		{
			"bufferView":205,
			"componentType":5126,
			"count":26,
			"max":[
				1.0833333333333333
			],
			"min":[
				0.041666666666666664
			],
			"type":"SCALAR"
		},
		{
			"bufferView":206,
			"componentType":5126,
			"count":26,
			"type":"VEC3"
		},
		{
			"bufferView":207,
			"componentType":5126,
			"count":26,
			"type":"VEC3"
		},
		{
			"bufferView":208,
			"componentType":5126,
			"count":26,
			"type":"VEC3"
		},
		{
			"bufferView":209,
			"componentType":5126,
			"count":2,
			"type":"VEC3"
		},
		{
			"bufferView":210,
			"componentType":5126,
			"count":2,
			"type":"VEC3"
		},
		{
			"bufferView":211,
			"componentType":5126,
			"count":2,
			"type":"VEC3"
		},
		{
			"bufferView":212,
			"componentType":5126,
			"count":2,
			"type":"VEC3"
		},
		{
			"bufferView":213,
			"componentType":5126,
			"count":2,
			"type":"VEC4"
		},
		{
			"bufferView":214,
			"componentType":5126,
			"count":2,
			"type":"VEC3"
		},
		{
			"bufferView":215,
			"componentType":5126,
			"count":2,
			"type":"VEC4"
		},
		{
			"bufferView":216,
			"componentType":5126,
			"count":2,
			"type":"VEC3"
		},
		{
			"bufferView":217,
			"componentType":5126,
			"count":2,
			"type":"VEC3"
		},
		{
			"bufferView":218,
			"componentType":5126,
			"count":2,
			"type":"VEC3"
		},
		{
			"bufferView":219,
			"componentType":5126,
			"count":2,
			"type":"VEC4"
		},
		{
			"bufferView":220,
			"componentType":5126,
			"count":2,
			"type":"VEC3"
		},
		{
			"bufferView":221,
			"componentType":5126,
			"count":2,
			"type":"VEC3"
		},
		{
			"bufferView":222,
			"componentType":5126,
			"count":2,
			"type":"VEC4"
		},
		{
			"bufferView":223,
			"componentType":5126,
			"count":2,
			"type":"VEC3"
		}
	],
	"bufferViews":[
		{
			"buffer":0,
			"byteLength":2880,
			"byteOffset":0,
			"target":34962
		},
		{
			"buffer":0,
			"byteLength":2880,
			"byteOffset":2880,
			"target":34962
		},
		{
			"buffer":0,
			"byteLength":1920,
			"byteOffset":5760,
			"target":34962
		},
		{
			"buffer":0,
			"byteLength":960,
			"byteOffset":7680,
			"target":34962
		},
		{
			"buffer":0,
			"byteLength":3840,
			"byteOffset":8640,
			"target":34962
		},
		{
			"buffer":0,
			"byteLength":480,
			"byteOffset":12480,
			"target":34963
		},
		{
			"buffer":0,
			"byteLength":2880,
			"byteOffset":12960,
			"target":34962
		},
		{
			"buffer":0,
			"byteLength":2880,
			"byteOffset":15840,
			"target":34962
		},
		{
			"buffer":0,
			"byteLength":1920,
			"byteOffset":18720,
			"target":34962
		},
		{
			"buffer":0,
			"byteLength":960,
			"byteOffset":20640,
			"target":34962
		},
		{
			"buffer":0,
			"byteLength":3840,
			"byteOffset":21600,
			"target":34962
		},
		{
			"buffer":0,
			"byteLength":480,
			"byteOffset":25440,
			"target":34963
		},
		{
			"buffer":0,
			"byteLength":720,
			"byteOffset":25920,
			"target":34962
		},
		{
			"buffer":0,
			"byteLength":720,
			"byteOffset":26640,
			"target":34962
		},
		{
			"buffer":0,
			"byteLength":480,
			"byteOffset":27360,
			"target":34962
		},
		{
			"buffer":0,
			"byteLength":240,
			"byteOffset":27840,
			"target":34962
		},
		{
			"buffer":0,
			"byteLength":960,
			"byteOffset":28080,
			"target":34962
		},
		{
			"buffer":0,
			"byteLength":120,
			"byteOffset":29040,
			"target":34963
		},
		{
			"buffer":0,
			"byteLength":2880,
			"byteOffset":29160,
			"target":34962
		},
		{
			"buffer":0,
			"byteLength":2880,
			"byteOffset":32040,
			"target":34962
		},
		{
			"buffer":0,
			"byteLength":1920,
			"byteOffset":34920,
			"target":34962
		},
		{
			"buffer":0,
			"byteLength":960,
			"byteOffset":36840,
			"target":34962
		},
		{
			"buffer":0,
			"byteLength":3840,
			"byteOffset":37800,
			"target":34962
		},
		{
			"buffer":0,
			"byteLength":480,
			"byteOffset":41640,
			"target":34963
		},
		{
			"buffer":0,
			"byteLength":5760,
			"byteOffset":42120,
			"target":34962
		},
		{
			"buffer":0,
			"byteLength":5760,
			"byteOffset":47880,
			"target":34962
		},
		{
			"buffer":0,
			"byteLength":3840,
			"byteOffset":53640,
			"target":34962
		},
		{
			"buffer":0,
			"byteLength":1920,
			"byteOffset":57480,
			"target":34962
		},
		{
			"buffer":0,
			"byteLength":7680,
			"byteOffset":59400,
			"target":34962
		},
		{
			"buffer":0,
			"byteLength":960,
			"byteOffset":67080,
			"target":34963
		},
		{
			"buffer":0,
			"byteLength":11520,
			"byteOffset":68040,
			"target":34962
		},
		{
			"buffer":0,
			"byteLength":11520,
			"byteOffset":79560,
			"target":34962
		},
		{
			"buffer":0,
			"byteLength":7680,
			"byteOffset":91080,
			"target":34962
		},
		{
			"buffer":0,
			"byteLength":3840,
			"byteOffset":98760,
			"target":34962
		},
		{
			"buffer":0,
			"byteLength":15360,
			"byteOffset":102600,
			"target":34962
		},
		{
			"buffer":0,
			"byteLength":1920,
			"byteOffset":117960,
			"target":34963
		},
		{
			"buffer":0,
			"byteLength":960,
			"byteOffset":119880
		},
		{
			"buffer":0,
			"byteLength":8,
			"byteOffset":120840
		},
		{
			"buffer":0,
			"byteLength":24,
			"byteOffset":120848
		},
		{
			"buffer":0,
			"byteLength":32,
			"byteOffset":120872
		},
		{
			"buffer":0,
			"byteLength":96,
			"byteOffset":120904
		},
		{
			"buffer":0,
			"byteLength":288,
			"byteOffset":121000
		},
		{
			"buffer":0,
			"byteLength":24,
			"byteOffset":121288
		},
		{
			"buffer":0,
			"byteLength":288,
			"byteOffset":121312
		},
		{
			"buffer":0,
			"byteLength":288,
			"byteOffset":121600
		},
		{
			"buffer":0,
			"byteLength":24,
			"byteOffset":121888
		},
		{
			"buffer":0,
			"byteLength":32,
			"byteOffset":121912
		},
		{
			"buffer":0,
			"byteLength":24,
			"byteOffset":121944
		},
		{
			"buffer":0,
			"byteLength":24,
			"byteOffset":121968
		},
		{
			"buffer":0,
			"byteLength":32,
			"byteOffset":121992
		},
		{
			"buffer":0,
			"byteLength":24,
			"byteOffset":122024
		},
		{
			"buffer":0,
			"byteLength":24,
			"byteOffset":122048
		},
		{
			"buffer":0,
			"byteLength":32,
			"byteOffset":122072
		},
		{
			"buffer":0,
			"byteLength":24,
			"byteOffset":122104
		},
		{
			"buffer":0,
			"byteLength":24,
			"byteOffset":122128
		},
		{
			"buffer":0,
			"byteLength":32,
			"byteOffset":122152
		},
		{
			"buffer":0,
			"byteLength":24,
			"byteOffset":122184
		},
		{
			"buffer":0,
			"byteLength":24,
			"byteOffset":122208
		},
		{
			"buffer":0,
			"byteLength":32,
			"byteOffset":122232
		},
		{
			"buffer":0,
			"byteLength":24,
			"byteOffset":122264
		},
		{
			"buffer":0,
			"byteLength":24,
			"byteOffset":122288
		},
		{
			"buffer":0,
			"byteLength":32,
			"byteOffset":122312
		},
		{
			"buffer":0,
			"byteLength":24,
			"byteOffset":122344
		},
		{
			"buffer":0,
			"byteLength":24,
			"byteOffset":122368
		},
		{
			"buffer":0,
			"byteLength":32,
			"byteOffset":122392
		},
		{
			"buffer":0,
			"byteLength":24,
			"byteOffset":122424
		},
		{
			"buffer":0,
			"byteLength":24,
			"byteOffset":122448
		},
		{
			"buffer":0,
			"byteLength":32,
			"byteOffset":122472
		},
		{
			"buffer":0,
			"byteLength":24,
			"byteOffset":122504
		},
		{
			"buffer":0,
			"byteLength":24,
			"byteOffset":122528
		},
		{
			"buffer":0,
			"byteLength":32,
			"byteOffset":122552
		},
		{
			"buffer":0,
			"byteLength":24,
			"byteOffset":122584
		},
		{
			"buffer":0,
			"byteLength":24,
			"byteOffset":122608
		},
		{
			"buffer":0,
			"byteLength":32,
			"byteOffset":122632
		},
		{
			"buffer":0,
			"byteLength":24,
			"byteOffset":122664
		},
		{
			"buffer":0,
			"byteLength":24,
			"byteOffset":122688
		},
		{
			"buffer":0,
			"byteLength":32,
			"byteOffset":122712
		},
		{
			"buffer":0,
			"byteLength":24,
			"byteOffset":122744
		},
		{
			"buffer":0,
			"byteLength":24,
			"byteOffset":122768
		},
		{
			"buffer":0,
			"byteLength":32,
			"byteOffset":122792
		},
		{
			"buffer":0,
			"byteLength":24,
			"byteOffset":122824
		},
		{
			"buffer":0,
			"byteLength":8,
			"byteOffset":122848
		},
		{
			"buffer":0,
			"byteLength":20,
			"byteOffset":122856
		},
		{
			"buffer":0,
			"byteLength":60,
			"byteOffset":122876
		},
		{
			"buffer":0,
			"byteLength":60,
			"byteOffset":122936
		},
		{
			"buffer":0,
			"byteLength":60,
			"byteOffset":122996
		},
		{
			"buffer":0,
			"byteLength":24,
			"byteOffset":123056
		},
		{
			"buffer":0,
			"byteLength":32,
			"byteOffset":123080
		},
		{
			"buffer":0,
			"byteLength":24,
			"byteOffset":123112
		},
		{
			"buffer":0,
			"byteLength":24,
			"byteOffset":123136
		},
		{
			"buffer":0,
			"byteLength":32,
			"byteOffset":123160
		},
		{
			"buffer":0,
			"byteLength":24,
			"byteOffset":123192
		},
		{
			"buffer":0,
			"byteLength":24,
			"byteOffset":123216
		},
		{
			"buffer":0,
			"byteLength":32,
			"byteOffset":123240
		},
		{
			"buffer":0,
			"byteLength":24,
			"byteOffset":123272
		},
		{
			"buffer":0,
			"byteLength":24,
			"byteOffset":123296
		},
		{
			"buffer":0,
			"byteLength":32,
			"byteOffset":123320
		},
		{
			"buffer":0,
			"byteLength":24,
			"byteOffset":123352
		},
		{
			"buffer":0,
			"byteLength":32,
			"byteOffset":123376
		},
		{
			"buffer":0,
			"byteLength":24,
			"byteOffset":123408
		},
		{
			"buffer":0,
			"byteLength":24,
			"byteOffset":123432
		},
		{
			"buffer":0,
			"byteLength":32,
			"byteOffset":123456
		},
		{
			"buffer":0,
			"byteLength":24,
			"byteOffset":123488
		},
		{
			"buffer":0,
			"byteLength":24,
			"byteOffset":123512
		},
		{
			"buffer":0,
			"byteLength":32,
			"byteOffset":123536
		},
		{
			"buffer":0,
			"byteLength":24,
			"byteOffset":123568
		},
		{
			"buffer":0,
			"byteLength":24,
			"byteOffset":123592
		},
		{
			"buffer":0,
			"byteLength":32,
			"byteOffset":123616
		},
		{
			"buffer":0,
			"byteLength":24,
			"byteOffset":123648
		},
		{
			"buffer":0,
			"byteLength":32,
			"byteOffset":123672
		},
		{
			"buffer":0,
			"byteLength":24,
			"byteOffset":123704
		},
		{
			"buffer":0,
			"byteLength":24,
			"byteOffset":123728
		},
		{
			"buffer":0,
			"byteLength":32,
			"byteOffset":123752
		},
		{
			"buffer":0,
			"byteLength":24,
			"byteOffset":123784
		},
		{
			"buffer":0,
			"byteLength":24,
			"byteOffset":123808
		},
		{
			"buffer":0,
			"byteLength":32,
			"byteOffset":123832
		},
		{
			"buffer":0,
			"byteLength":24,
			"byteOffset":123864
		},
		{
			"buffer":0,
			"byteLength":24,
			"byteOffset":123888
		},
		{
			"buffer":0,
			"byteLength":32,
			"byteOffset":123912
		},
		{
			"buffer":0,
			"byteLength":24,
			"byteOffset":123944
		},
		{
			"buffer":0,
			"byteLength":8,
			"byteOffset":123968
		},
		{
			"buffer":0,
			"byteLength":144,
			"byteOffset":123976
		},
		{
			"buffer":0,
			"byteLength":432,
			"byteOffset":124120
		},
		{
			"buffer":0,
			"byteLength":24,
			"byteOffset":124552
		},
		{
			"buffer":0,
			"byteLength":432,
			"byteOffset":124576
		},
		{
			"buffer":0,
			"byteLength":432,
			"byteOffset":125008
		},
		{
			"buffer":0,
			"byteLength":24,
			"byteOffset":125440
		},
		{
			"buffer":0,
			"byteLength":576,
			"byteOffset":125464
		},
		{
			"buffer":0,
			"byteLength":432,
			"byteOffset":126040
		},
		{
			"buffer":0,
			"byteLength":24,
			"byteOffset":126472
		},
		{
			"buffer":0,
			"byteLength":576,
			"byteOffset":126496
		},
		{
			"buffer":0,
			"byteLength":432,
			"byteOffset":127072
		},
		{
			"buffer":0,
			"byteLength":24,
			"byteOffset":127504
		},
		{
			"buffer":0,
			"byteLength":576,
			"byteOffset":127528
		},
		{
			"buffer":0,
			"byteLength":432,
			"byteOffset":128104
		},
		{
			"buffer":0,
			"byteLength":24,
			"byteOffset":128536
		},
		{
			"buffer":0,
			"byteLength":576,
			"byteOffset":128560
		},
		{
			"buffer":0,
			"byteLength":432,
			"byteOffset":129136
		},
		{
			"buffer":0,
			"byteLength":24,
			"byteOffset":129568
		},
		{
			"buffer":0,
			"byteLength":576,
			"byteOffset":129592
		},
		{
			"buffer":0,
			"byteLength":432,
			"byteOffset":130168
		},
		{
			"buffer":0,
			"byteLength":24,
			"byteOffset":130600
		},
		{
			"buffer":0,
			"byteLength":576,
			"byteOffset":130624
		},
		{
			"buffer":0,
			"byteLength":432,
			"byteOffset":131200
		},
		{
			"buffer":0,
			"byteLength":24,
			"byteOffset":131632
		},
		{
			"buffer":0,
			"byteLength":576,
			"byteOffset":131656
		},
		{
			"buffer":0,
			"byteLength":432,
			"byteOffset":132232
		},
		{
			"buffer":0,
			"byteLength":24,
			"byteOffset":132664
		},
		{
			"buffer":0,
			"byteLength":576,
			"byteOffset":132688
		},
		{
			"buffer":0,
			"byteLength":432,
			"byteOffset":133264
		},
		{
			"buffer":0,
			"byteLength":24,
			"byteOffset":133696
		},
		{
			"buffer":0,
			"byteLength":576,
			"byteOffset":133720
		},
		{
			"buffer":0,
			"byteLength":432,
			"byteOffset":134296
		},
		{
			"buffer":0,
			"byteLength":24,
			"byteOffset":134728
		},
		{
			"buffer":0,
			"byteLength":576,
			"byteOffset":134752
		},
		{
			"buffer":0,
			"byteLength":432,
			"byteOffset":135328
		},
		{
			"buffer":0,
			"byteLength":24,
			"byteOffset":135760
		},
		{
			"buffer":0,
			"byteLength":576,
			"byteOffset":135784
		},
		{
			"buffer":0,
			"byteLength":432,
			"byteOffset":136360
		},
		{
			"buffer":0,
			"byteLength":24,
			"byteOffset":136792
		},
		{
			"buffer":0,
			"byteLength":576,
			"byteOffset":136816
		},
		{
			"buffer":0,
			"byteLength":432,
			"byteOffset":137392
		},
		{
			"buffer":0,
			"byteLength":8,
			"byteOffset":137824
		},
		{
			"buffer":0,
			"byteLength":232,
			"byteOffset":137832
		},
		{
			"buffer":0,
			"byteLength":696,
			"byteOffset":138064
		},
		{
			"buffer":0,
			"byteLength":24,
			"byteOffset":138760
		},
		{
			"buffer":0,
			"byteLength":696,
			"byteOffset":138784
		},
		{
			"buffer":0,
			"byteLength":696,
			"byteOffset":139480
		},
		{
			"buffer":0,
			"byteLength":24,
			"byteOffset":140176
		},
		{
			"buffer":0,
			"byteLength":928,
			"byteOffset":140200
		},
		{
			"buffer":0,
			"byteLength":696,
			"byteOffset":141128
		},
		{
			"buffer":0,
			"byteLength":24,
			"byteOffset":141824
		},
		{
			"buffer":0,
			"byteLength":928,
			"byteOffset":141848
		},
		{
			"buffer":0,
			"byteLength":696,
			"byteOffset":142776
		},
		{
			"buffer":0,
			"byteLength":24,
			"byteOffset":143472
		},
		{
			"buffer":0,
			"byteLength":928,
			"byteOffset":143496
		},
		{
			"buffer":0,
			"byteLength":696,
			"byteOffset":144424
		},
		{
			"buffer":0,
			"byteLength":24,
			"byteOffset":145120
		},
		{
			"buffer":0,
			"byteLength":928,
			"byteOffset":145144
		},
		{
			"buffer":0,
			"byteLength":696,
			"byteOffset":146072
		},
		{
			"buffer":0,
			"byteLength":24,
			"byteOffset":146768
		},
		{
			"buffer":0,
			"byteLength":928,
			"byteOffset":146792
		},
		{
			"buffer":0,
			"byteLength":696,
			"byteOffset":147720
		},
		{
			"buffer":0,
			"byteLength":24,
			"byteOffset":148416
		},
		{
			"buffer":0,
			"byteLength":928,
			"byteOffset":148440
		},
		{
			"buffer":0,
			"byteLength":696,
			"byteOffset":149368
		},
		{
			"buffer":0,
			"byteLength":24,
			"byteOffset":150064
		},
		{
			"buffer":0,
			"byteLength":928,
			"byteOffset":150088
		},
		{
			"buffer":0,
			"byteLength":696,
			"byteOffset":151016
		},
		{
			"buffer":0,
			"byteLength":24,
			"byteOffset":151712
		},
		{
			"buffer":0,
			"byteLength":928,
			"byteOffset":151736
		},
		{
			"buffer":0,
			"byteLength":696,
			"byteOffset":152664
		},
		{
			"buffer":0,
			"byteLength":24,
			"byteOffset":153360
		},
		{
			"buffer":0,
			"byteLength":928,
			"byteOffset":153384
		},
		{
			"buffer":0,
			"byteLength":696,
			"byteOffset":154312
		},
		{
			"buffer":0,
			"byteLength":24,
			"byteOffset":155008
		},
		{
			"buffer":0,
			"byteLength":928,
			"byteOffset":155032
		},
		{
			"buffer":0,
			"byteLength":696,
			"byteOffset":155960
		},
		{
			"buffer":0,
			"byteLength":24,
			"byteOffset":156656
		},
		{
			"buffer":0,
			"byteLength":928,
			"byteOffset":156680
		},
		{
			"buffer":0,
			"byteLength":696,
			"byteOffset":157608
		},
		{
			"buffer":0,
			"byteLength":24,
			"byteOffset":158304
		},
		{
			"buffer":0,
			"byteLength":928,
			"byteOffset":158328
		},
		{
			"buffer":0,
			"byteLength":696,
			"byteOffset":159256
		},
		{
			"buffer":0,
			"byteLength":8,
			"byteOffset":159952
		},
		{
			"buffer":0,
			"byteLength":104,
			"byteOffset":159960
		},
		{
			"buffer":0,
			"byteLength":312,
			"byteOffset":160064
		},
		{
			"buffer":0,
			"byteLength":312,
			"byteOffset":160376
		},
		{
			"buffer":0,
			"byteLength":312,
			"byteOffset":160688
		},
		{
			"buffer":0,
			"byteLength":24,
			"byteOffset":161000
		},
		{
			"buffer":0,
			"byteLength":24,
			"byteOffset":161024
		},
		{
			"buffer":0,
			"byteLength":24,
			"byteOffset":161048
		},
		{
			"buffer":0,
			"byteLength":24,
			"byteOffset":161072
		},
		{
			"buffer":0,
			"byteLength":32,
			"byteOffset":161096
		},
		{
			"buffer":0,
			"byteLength":24,
			"byteOffset":161128
		},
		{
			"buffer":0,
			"byteLength":32,
			"byteOffset":161152
		},
		{
			"buffer":0,
			"byteLength":24,
			"byteOffset":161184
		},
		{
			"buffer":0,
			"byteLength":24,
			"byteOffset":161208
		},
		{
			"buffer":0,
			"byteLength":24,
			"byteOffset":161232
		},
		{
			"buffer":0,
			"byteLength":32,
			"byteOffset":161256
		},
		{
			"buffer":0,
			"byteLength":24,
			"byteOffset":161288
		},
		{
			"buffer":0,
			"byteLength":24,
			"byteOffset":161312
		},
		{
			"buffer":0,
			"byteLength":32,
			"byteOffset":161336
		},
		{
			"buffer":0,
			"byteLength":24,
			"byteOffset":161368
		}
	],
	"samplers":[
		{
			"magFilter":9728,
			"minFilter":9984
		}
	],
	"buffers":[
		{
			"byteLength":161392,
			"uri":"flare.bin"
		}
	]
}
