{
	"asset":{
		"generator":"Khronos glTF Blender I/O v5.1.19",
		"version":"2.0"
	},
	"extensionsUsed":[
		"KHR_materials_emissive_strength"
	],
	"scene":0,
	"scenes":[
		{
			"name":"Scene",
			"nodes":[
				15
			]
		}
	],
	"nodes":[
		{
			"name":"jaw_0",
			"rotation":[
				0.40419116616249084,
				0,
				0,
				0.9146745204925537
			],
			"translation":[
				0,
				0.006064081564545631,
				0.06973686069250107
			]
		},
		{
			"name":"haze0_0",
			"rotation":[
				-1.895133383555958e-09,
				-0.9990597367286682,
				0.04335560277104378,
				4.367028338947421e-08
			],
			"scale":[
				0.0010000000474974513,
				0.0009999999310821295,
				0.0009999999310821295
			],
			"translation":[
				0,
				0.29367437958717346,
				-0.08576332032680511
			]
		},
		{
			"name":"haze1_0",
			"rotation":[
				-1.8951318292437236e-09,
				0.9990597367286682,
				-0.04335557296872139,
				4.367028338947421e-08
			],
			"scale":[
				0.0010000000474974513,
				0.0009999999310821295,
				0.0010000000474974513
			],
			"translation":[
				0,
				0.4530729353427887,
				-0.09962404519319534
			]
		},
		{
			"name":"haze2_0",
			"rotation":[
				-1.8951327174221433e-09,
				0.9990597367286682,
				-0.043355587869882584,
				4.3670286942187886e-08
			],
			"scale":[
				0.0010000000474974513,
				0.0010000001639127731,
				0.0010000000474974513
			],
			"translation":[
				0,
				0.6124712824821472,
				-0.11348479986190796
			]
		},
		{
			"children":[
				0,
				1,
				2,
				3
			],
			"name":"head_0",
			"rotation":[
				0.05672835931181908,
				0,
				0,
				0.9983896613121033
			],
			"scale":[
				1,
				1.0000001192092896,
				1.0000001192092896
			],
			"translation":[
				0,
				0.7201436161994934,
				0.004284161143004894
			]
		},
		{
			"name":"leg0_1",
			"rotation":[
				-0.5281747579574585,
				0.619635820388794,
				-0.3818301260471344,
				0.4373655915260315
			],
			"scale":[
				1,
				1.000000238418579,
				1.0000001192092896
			],
			"translation":[
				9.313225746154785e-09,
				0.21582627296447754,
				-9.313225746154785e-09
			]
		},
		{
			"children":[
				5
			],
			"name":"leg0_0",
			"rotation":[
				-0.6187549233436584,
				0.7811121940612793,
				0.01045945193618536,
				0.0830463320016861
			],
			"scale":[
				0.9999999403953552,
				0.9999998807907104,
				1
			],
			"translation":[
				-0.0949999988079071,
				0.5183409452438354,
				0.0689038559794426
			]
		},
		{
			"name":"leg1_1",
			"rotation":[
				-0.5281747579574585,
				-0.619635820388794,
				0.3818301260471344,
				0.4373655915260315
			],
			"scale":[
				1,
				1.000000238418579,
				1.0000001192092896
			],
			"translation":[
				-9.313225746154785e-09,
				0.21582627296447754,
				-9.313225746154785e-09
			]
		},
		{
			"children":[
				7
			],
			"name":"leg1_0",
			"rotation":[
				-0.6187549233436584,
				-0.7811121940612793,
				-0.01045945193618536,
				0.0830463320016861
			],
			"scale":[
				0.9999999403953552,
				0.9999998807907104,
				1
			],
			"translation":[
				0.0949999988079071,
				0.5183409452438354,
				0.0689038559794426
			]
		},
		{
			"name":"leg2_1",
			"rotation":[
				-0.6463412642478943,
				0.44619932770729065,
				-0.25500547885894775,
				0.5640225410461426
			],
			"scale":[
				1.0000001192092896,
				1.0000001192092896,
				1.0000001192092896
			],
			"translation":[
				-5.587935447692871e-09,
				0.22131647169589996,
				3.725290298461914e-09
			]
		},
		{
			"children":[
				9
			],
			"name":"leg2_0",
			"rotation":[
				-0.8104425668716431,
				0.5819731950759888,
				0.00779288774356246,
				0.06655333191156387
			],
			"scale":[
				1.000000238418579,
				1.0000004768371582,
				1
			],
			"translation":[
				-0.0949999988079071,
				0.07849859446287155,
				0.0571223646402359
			]
		},
		{
			"name":"leg3_1",
			"rotation":[
				-0.6463412642478943,
				-0.44619932770729065,
				0.25500547885894775,
				0.5640225410461426
			],
			"scale":[
				1.0000001192092896,
				1.0000001192092896,
				1.0000001192092896
			],
			"translation":[
				5.587935447692871e-09,
				0.22131647169589996,
				3.725290298461914e-09
			]
		},
		{
			"children":[
				11
			],
			"name":"leg3_0",
			"rotation":[
				-0.8104425668716431,
				-0.5819731950759888,
				-0.00779288774356246,
				0.06655333191156387
			],
			"scale":[
				1.000000238418579,
				1.0000004768371582,
				1
			],
			"translation":[
				0.0949999988079071,
				0.07849859446287155,
				0.0571223646402359
			]
		},
		{
			"children":[
				4,
				6,
				8,
				10,
				12
			],
			"name":"body_0",
			"rotation":[
				0.6975758075714111,
				0,
				0,
				0.7165110111236572
			],
			"scale":[
				1,
				0.9999999403953552,
				1
			],
			"translation":[
				0,
				0.30000001192092896,
				-0.3199999928474426
			]
		},
		{
			"mesh":0,
			"name":"GnawerRigged",
			"skin":0
		},
		{
			"children":[
				14,
				13
			],
			"name":"Gnawer_Armature"
		}
	],
	"animations":[
		{
			"channels":[
				{
					"sampler":0,
					"target":{
						"node":13,
						"path":"translation"
					}
				},
				{
					"sampler":1,
					"target":{
						"node":13,
						"path":"rotation"
					}
				},
				{
					"sampler":2,
					"target":{
						"node":13,
						"path":"scale"
					}
				},
				{
					"sampler":3,
					"target":{
						"node":4,
						"path":"translation"
					}
				},
				{
					"sampler":4,
					"target":{
						"node":4,
						"path":"rotation"
					}
				},
				{
					"sampler":5,
					"target":{
						"node":4,
						"path":"scale"
					}
				},
				{
					"sampler":6,
					"target":{
						"node":0,
						"path":"translation"
					}
				},
				{
					"sampler":7,
					"target":{
						"node":0,
						"path":"rotation"
					}
				},
				{
					"sampler":8,
					"target":{
						"node":0,
						"path":"scale"
					}
				},
				{
					"sampler":9,
					"target":{
						"node":1,
						"path":"translation"
					}
				},
				{
					"sampler":10,
					"target":{
						"node":1,
						"path":"rotation"
					}
				},
				{
					"sampler":11,
					"target":{
						"node":1,
						"path":"scale"
					}
				},
				{
					"sampler":12,
					"target":{
						"node":2,
						"path":"translation"
					}
				},
				{
					"sampler":13,
					"target":{
						"node":2,
						"path":"rotation"
					}
				},
				{
					"sampler":14,
					"target":{
						"node":2,
						"path":"scale"
					}
				},
				{
					"sampler":15,
					"target":{
						"node":3,
						"path":"translation"
					}
				},
				{
					"sampler":16,
					"target":{
						"node":3,
						"path":"rotation"
					}
				},
				{
					"sampler":17,
					"target":{
						"node":3,
						"path":"scale"
					}
				},
				{
					"sampler":18,
					"target":{
						"node":6,
						"path":"translation"
					}
				},
				{
					"sampler":19,
					"target":{
						"node":6,
						"path":"rotation"
					}
				},
				{
					"sampler":20,
					"target":{
						"node":6,
						"path":"scale"
					}
				},
				{
					"sampler":21,
					"target":{
						"node":5,
						"path":"translation"
					}
				},
				{
					"sampler":22,
					"target":{
						"node":5,
						"path":"rotation"
					}
				},
				{
					"sampler":23,
					"target":{
						"node":5,
						"path":"scale"
					}
				},
				{
					"sampler":24,
					"target":{
						"node":8,
						"path":"translation"
					}
				},
				{
					"sampler":25,
					"target":{
						"node":8,
						"path":"rotation"
					}
				},
				{
					"sampler":26,
					"target":{
						"node":8,
						"path":"scale"
					}
				},
				{
					"sampler":27,
					"target":{
						"node":7,
						"path":"translation"
					}
				},
				{
					"sampler":28,
					"target":{
						"node":7,
						"path":"rotation"
					}
				},
				{
					"sampler":29,
					"target":{
						"node":7,
						"path":"scale"
					}
				},
				{
					"sampler":30,
					"target":{
						"node":10,
						"path":"translation"
					}
				},
				{
					"sampler":31,
					"target":{
						"node":10,
						"path":"rotation"
					}
				},
				{
					"sampler":32,
					"target":{
						"node":10,
						"path":"scale"
					}
				},
				{
					"sampler":33,
					"target":{
						"node":9,
						"path":"translation"
					}
				},
				{
					"sampler":34,
					"target":{
						"node":9,
						"path":"rotation"
					}
				},
				{
					"sampler":35,
					"target":{
						"node":9,
						"path":"scale"
					}
				},
				{
					"sampler":36,
					"target":{
						"node":12,
						"path":"translation"
					}
				},
				{
					"sampler":37,
					"target":{
						"node":12,
						"path":"rotation"
					}
				},
				{
					"sampler":38,
					"target":{
						"node":12,
						"path":"scale"
					}
				},
				{
					"sampler":39,
					"target":{
						"node":11,
						"path":"translation"
					}
				},
				{
					"sampler":40,
					"target":{
						"node":11,
						"path":"rotation"
					}
				},
				{
					"sampler":41,
					"target":{
						"node":11,
						"path":"scale"
					}
				}
			],
			"name":"gnawer_haze",
			"samplers":[
				{
					"input":7,
					"interpolation":"STEP",
					"output":8
				},
				{
					"input":9,
					"interpolation":"LINEAR",
					"output":10
				},
				{
					"input":7,
					"interpolation":"STEP",
					"output":11
				},
				{
					"input":7,
					"interpolation":"STEP",
					"output":12
				},
				{
					"input":7,
					"interpolation":"STEP",
					"output":13
				},
				{
					"input":7,
					"interpolation":"STEP",
					"output":14
				},
				{
					"input":7,
					"interpolation":"STEP",
					"output":15
				},
				{
					"input":9,
					"interpolation":"LINEAR",
					"output":16
				},
				{
					"input":7,
					"interpolation":"STEP",
					"output":17
				},
				{
					"input":7,
					"interpolation":"STEP",
					"output":18
				},
				{
					"input":7,
					"interpolation":"STEP",
					"output":19
				},
				{
					"input":9,
					"interpolation":"LINEAR",
					"output":20
				},
				{
					"input":7,
					"interpolation":"STEP",
					"output":21
				},
				{
					"input":7,
					"interpolation":"STEP",
					"output":22
				},
				{
					"input":9,
					"interpolation":"LINEAR",
					"output":23
				},
				{
					"input":7,
					"interpolation":"STEP",
					"output":24
				},
				{
					"input":7,
					"interpolation":"STEP",
					"output":25
				},
				{
					"input":9,
					"interpolation":"LINEAR",
					"output":26
				},
				{
					"input":7,
					"interpolation":"STEP",
					"output":27
				},
				{
					"input":9,
					"interpolation":"LINEAR",
					"output":28
				},
				{
					"input":7,
					"interpolation":"STEP",
					"output":29
				},
				{
					"input":7,
					"interpolation":"STEP",
					"output":30
				},
				{
					"input":9,
					"interpolation":"LINEAR",
					"output":31
				},
				{
					"input":7,
					"interpolation":"STEP",
					"output":32
				},
				{
					"input":7,
					"interpolation":"STEP",
					"output":33
				},
				{
					"input":9,
					"interpolation":"LINEAR",
					"output":34
				},
				{
					"input":7,
					"interpolation":"STEP",
					"output":29
				},
				{
					"input":7,
					"interpolation":"STEP",
					"output":35
				},
				{
					"input":9,
					"interpolation":"LINEAR",
					"output":36
				},
				{
					"input":7,
					"interpolation":"STEP",
					"output":32
				},
				{
					"input":7,
					"interpolation":"STEP",
					"output":37
				},
				{
					"input":9,
					"interpolation":"LINEAR",
					"output":38
				},
				{
					"input":7,
					"interpolation":"STEP",
					"output":39
				},
				{
					"input":7,
					"interpolation":"STEP",
					"output":40
				},
				{
					"input":9,
					"interpolation":"LINEAR",
					"output":41
				},
				{
					"input":7,
					"interpolation":"STEP",
					"output":42
				},
				{
					"input":7,
					"interpolation":"STEP",
					"output":43
				},
				{
					"input":9,
					"interpolation":"LINEAR",
					"output":44
				},
				{
					"input":7,
					"interpolation":"STEP",
					"output":39
				},
				{
					"input":7,
					"interpolation":"STEP",
					"output":45
				},
				{
					"input":9,
					"interpolation":"LINEAR",
					"output":46
				},
				{
					"input":7,
					"interpolation":"STEP",
					"output":42
				}
			]
		},
		{
			"channels":[
				{
					"sampler":0,
					"target":{
						"node":13,
						"path":"translation"
					}
				},
				{
					"sampler":1,
					"target":{
						"node":13,
						"path":"rotation"
					}
				},
				{
					"sampler":2,
					"target":{
						"node":13,
						"path":"scale"
					}
				},
				{
					"sampler":3,
					"target":{
						"node":4,
						"path":"translation"
					}
				},
				{
					"sampler":4,
					"target":{
						"node":4,
						"path":"rotation"
					}
				},
				{
					"sampler":5,
					"target":{
						"node":4,
						"path":"scale"
					}
				},
				{
					"sampler":6,
					"target":{
						"node":0,
						"path":"translation"
					}
				},
				{
					"sampler":7,
					"target":{
						"node":0,
						"path":"rotation"
					}
				},
				{
					"sampler":8,
					"target":{
						"node":0,
						"path":"scale"
					}
				},
				{
					"sampler":9,
					"target":{
						"node":1,
						"path":"translation"
					}
				},
				{
					"sampler":10,
					"target":{
						"node":1,
						"path":"rotation"
					}
				},
				{
					"sampler":11,
					"target":{
						"node":1,
						"path":"scale"
					}
				},
				{
					"sampler":12,
					"target":{
						"node":2,
						"path":"translation"
					}
				},
				{
					"sampler":13,
					"target":{
						"node":2,
						"path":"rotation"
					}
				},
				{
					"sampler":14,
					"target":{
						"node":2,
						"path":"scale"
					}
				},
				{
					"sampler":15,
					"target":{
						"node":3,
						"path":"translation"
					}
				},
				{
					"sampler":16,
					"target":{
						"node":3,
						"path":"rotation"
					}
				},
				{
					"sampler":17,
					"target":{
						"node":3,
						"path":"scale"
					}
				},
				{
					"sampler":18,
					"target":{
						"node":6,
						"path":"translation"
					}
				},
				{
					"sampler":19,
					"target":{
						"node":6,
						"path":"rotation"
					}
				},
				{
					"sampler":20,
					"target":{
						"node":6,
						"path":"scale"
					}
				},
				{
					"sampler":21,
					"target":{
						"node":5,
						"path":"translation"
					}
				},
				{
					"sampler":22,
					"target":{
						"node":5,
						"path":"rotation"
					}
				},
				{
					"sampler":23,
					"target":{
						"node":5,
						"path":"scale"
					}
				},
				{
					"sampler":24,
					"target":{
						"node":8,
						"path":"translation"
					}
				},
				{
					"sampler":25,
					"target":{
						"node":8,
						"path":"rotation"
					}
				},
				{
					"sampler":26,
					"target":{
						"node":8,
						"path":"scale"
					}
				},
				{
					"sampler":27,
					"target":{
						"node":7,
						"path":"translation"
					}
				},
				{
					"sampler":28,
					"target":{
						"node":7,
						"path":"rotation"
					}
				},
				{
					"sampler":29,
					"target":{
						"node":7,
						"path":"scale"
					}
				},
				{
					"sampler":30,
					"target":{
						"node":10,
						"path":"translation"
					}
				},
				{
					"sampler":31,
					"target":{
						"node":10,
						"path":"rotation"
					}
				},
				{
					"sampler":32,
					"target":{
						"node":10,
						"path":"scale"
					}
				},
				{
					"sampler":33,
					"target":{
						"node":9,
						"path":"translation"
					}
				},
				{
					"sampler":34,
					"target":{
						"node":9,
						"path":"rotation"
					}
				},
				{
					"sampler":35,
					"target":{
						"node":9,
						"path":"scale"
					}
				},
				{
					"sampler":36,
					"target":{
						"node":12,
						"path":"translation"
					}
				},
				{
					"sampler":37,
					"target":{
						"node":12,
						"path":"rotation"
					}
				},
				{
					"sampler":38,
					"target":{
						"node":12,
						"path":"scale"
					}
				},
				{
					"sampler":39,
					"target":{
						"node":11,
						"path":"translation"
					}
				},
				{
					"sampler":40,
					"target":{
						"node":11,
						"path":"rotation"
					}
				},
				{
					"sampler":41,
					"target":{
						"node":11,
						"path":"scale"
					}
				}
			],
			"name":"gnawer_bite",
			"samplers":[
				{
					"input":47,
					"interpolation":"STEP",
					"output":8
				},
				{
					"input":48,
					"interpolation":"LINEAR",
					"output":49
				},
				{
					"input":47,
					"interpolation":"STEP",
					"output":11
				},
				{
					"input":47,
					"interpolation":"STEP",
					"output":50
				},
				{
					"input":47,
					"interpolation":"STEP",
					"output":51
				},
				{
					"input":47,
					"interpolation":"STEP",
					"output":52
				},
				{
					"input":47,
					"interpolation":"STEP",
					"output":53
				},
				{
					"input":48,
					"interpolation":"LINEAR",
					"output":54
				},
				{
					"input":47,
					"interpolation":"STEP",
					"output":55
				},
				{
					"input":47,
					"interpolation":"STEP",
					"output":56
				},
				{
					"input":47,
					"interpolation":"STEP",
					"output":57
				},
				{
					"input":48,
					"interpolation":"LINEAR",
					"output":58
				},
				{
					"input":47,
					"interpolation":"STEP",
					"output":59
				},
				{
					"input":47,
					"interpolation":"STEP",
					"output":22
				},
				{
					"input":48,
					"interpolation":"LINEAR",
					"output":60
				},
				{
					"input":47,
					"interpolation":"STEP",
					"output":61
				},
				{
					"input":47,
					"interpolation":"STEP",
					"output":62
				},
				{
					"input":48,
					"interpolation":"LINEAR",
					"output":63
				},
				{
					"input":47,
					"interpolation":"STEP",
					"output":64
				},
				{
					"input":48,
					"interpolation":"LINEAR",
					"output":65
				},
				{
					"input":47,
					"interpolation":"STEP",
					"output":29
				},
				{
					"input":47,
					"interpolation":"STEP",
					"output":66
				},
				{
					"input":48,
					"interpolation":"LINEAR",
					"output":67
				},
				{
					"input":47,
					"interpolation":"STEP",
					"output":68
				},
				{
					"input":47,
					"interpolation":"STEP",
					"output":69
				},
				{
					"input":48,
					"interpolation":"LINEAR",
					"output":70
				},
				{
					"input":47,
					"interpolation":"STEP",
					"output":29
				},
				{
					"input":47,
					"interpolation":"STEP",
					"output":71
				},
				{
					"input":48,
					"interpolation":"LINEAR",
					"output":72
				},
				{
					"input":47,
					"interpolation":"STEP",
					"output":68
				},
				{
					"input":47,
					"interpolation":"STEP",
					"output":73
				},
				{
					"input":48,
					"interpolation":"LINEAR",
					"output":74
				},
				{
					"input":47,
					"interpolation":"STEP",
					"output":39
				},
				{
					"input":47,
					"interpolation":"STEP",
					"output":75
				},
				{
					"input":48,
					"interpolation":"LINEAR",
					"output":76
				},
				{
					"input":47,
					"interpolation":"STEP",
					"output":42
				},
				{
					"input":47,
					"interpolation":"STEP",
					"output":77
				},
				{
					"input":48,
					"interpolation":"LINEAR",
					"output":78
				},
				{
					"input":47,
					"interpolation":"STEP",
					"output":39
				},
				{
					"input":47,
					"interpolation":"STEP",
					"output":79
				},
				{
					"input":48,
					"interpolation":"LINEAR",
					"output":80
				},
				{
					"input":47,
					"interpolation":"STEP",
					"output":42
				}
			]
		}
	],
	"materials":[
		{
			"alphaMode":"MASK",
			"doubleSided":true,
			"emissiveFactor":[
				1,
				1,
				1
			],
			"emissiveTexture":{
				"index":0
			},
			"extensions":{
				"KHR_materials_emissive_strength":{
					"emissiveStrength":1.7999999523162842
				}
			},
			"name":"GnawerRiggedTex",
			"pbrMetallicRoughness":{
				"baseColorTexture":{
					"index":1
				},
				"metallicFactor":0,
				"roughnessFactor":0.8999999761581421
			}
		}
	],
	"meshes":[
		{
			"name":"GnawerRigged",
			"primitives":[
				{
					"attributes":{
						"POSITION":0,
						"NORMAL":1,
						"TEXCOORD_0":2,
						"JOINTS_0":3,
						"WEIGHTS_0":4
					},
					"indices":5,
					"material":0
				}
			]
		}
	],
	"textures":[
		{
			"sampler":0,
			"source":0
		},
		{
			"sampler":0,
			"source":1
		}
	],
	"images":[
		{
			"mimeType":"image/png",
			"name":"GnawerRigged_emissive",
			"uri":"GnawerRigged_emissive.png"
		},
		{
			"mimeType":"image/png",
			"name":"GnawerRigged_tex",
			"uri":"GnawerRigged_tex.png"
		}
	],
	"skins":[
		{
			"inverseBindMatrices":6,
			"joints":[
				13,
				4,
				0,
				1,
				2,
				3,
				6,
				5,
				8,
				7,
				10,
				9,
				12,
				11
			],
			"name":"Gnawer_Armature"
		}
	],
	"accessors":[
		{
			"bufferView":0,
			"componentType":5126,
			"count":1184,
			"max":[
				0.4102533757686615,
				0.675000011920929,
				1.3200000524520874
			],
			"min":[
				-0.4102533757686615,
				-0.0038026701658964157,
				-0.46797096729278564
			],
			"type":"VEC3"
		},
		{
			"bufferView":1,
			"componentType":5126,
			"count":1184,
			"type":"VEC3"
		},
		{
			"bufferView":2,
			"componentType":5126,
			"count":1184,
			"type":"VEC2"
		},
		{
			"bufferView":3,
			"componentType":5121,
			"count":1184,
			"type":"VEC4"
		},
		{
			"bufferView":4,
			"componentType":5126,
			"count":1184,
			"type":"VEC4"
		},
		{
			"bufferView":5,
			"componentType":5123,
			"count":1884,
			"type":"SCALAR"
		},
		{
			"bufferView":6,
			"componentType":5126,
			"count":14,
			"type":"MAT4"
		},
		{
			"bufferView":7,
			"componentType":5126,
			"count":2,
			"max":[
				1.5416666666666667
			],
			"min":[
				0.041666666666666664
			],
			"type":"SCALAR"
		},
		{
			"bufferView":8,
			"componentType":5126,
			"count":2,
			"type":"VEC3"
		},
		{
			"bufferView":9,
			"componentType":5126,
			"count":37,
			"max":[
				1.5416666666666667
			],
			"min":[
				0.041666666666666664
			],
			"type":"SCALAR"
		},
		{
			"bufferView":10,
			"componentType":5126,
			"count":37,
			"type":"VEC4"
		},
		{
			"bufferView":11,
			"componentType":5126,
			"count":2,
			"type":"VEC3"
		},
		{
			"bufferView":12,
			"componentType":5126,
			"count":2,
			"type":"VEC3"
		},
		{
			"bufferView":13,
			"componentType":5126,
			"count":2,
			"type":"VEC4"
		},
		{
			"bufferView":14,
			"componentType":5126,
			"count":2,
			"type":"VEC3"
		},
		{
			"bufferView":15,
			"componentType":5126,
			"count":2,
			"type":"VEC3"
		},
		{
			"bufferView":16,
			"componentType":5126,
			"count":37,
			"type":"VEC4"
		},
		{
			"bufferView":17,
			"componentType":5126,
			"count":2,
			"type":"VEC3"
		},
		{
			"bufferView":18,
			"componentType":5126,
			"count":2,
			"type":"VEC3"
		},
		{
			"bufferView":19,
			"componentType":5126,
			"count":2,
			"type":"VEC4"
		},
		{
			"bufferView":20,
			"componentType":5126,
			"count":37,
			"type":"VEC3"
		},
		{
			"bufferView":21,
			"componentType":5126,
			"count":2,
			"type":"VEC3"
		},
		{
			"bufferView":22,
			"componentType":5126,
			"count":2,
			"type":"VEC4"
		},
		{
			"bufferView":23,
			"componentType":5126,
			"count":37,
			"type":"VEC3"
		},
		{
			"bufferView":24,
			"componentType":5126,
			"count":2,
			"type":"VEC3"
		},
		{
			"bufferView":25,
			"componentType":5126,
			"count":2,
			"type":"VEC4"
		},
		{
			"bufferView":26,
			"componentType":5126,
			"count":37,
			"type":"VEC3"
		},
		{
			"bufferView":27,
			"componentType":5126,
			"count":2,
			"type":"VEC3"
		},
		{
			"bufferView":28,
			"componentType":5126,
			"count":37,
			"type":"VEC4"
		},
		{
			"bufferView":29,
			"componentType":5126,
			"count":2,
			"type":"VEC3"
		},
		{
			"bufferView":30,
			"componentType":5126,
			"count":2,
			"type":"VEC3"
		},
		{
			"bufferView":31,
			"componentType":5126,
			"count":37,
			"type":"VEC4"
		},
		{
			"bufferView":32,
			"componentType":5126,
			"count":2,
			"type":"VEC3"
		},
		{
			"bufferView":33,
			"componentType":5126,
			"count":2,
			"type":"VEC3"
		},
		{
			"bufferView":34,
			"componentType":5126,
			"count":37,
			"type":"VEC4"
		},
		{
			"bufferView":35,
			"componentType":5126,
			"count":2,
			"type":"VEC3"
		},
		{
			"bufferView":36,
			"componentType":5126,
			"count":37,
			"type":"VEC4"
		},
		{
			"bufferView":37,
			"componentType":5126,
			"count":2,
			"type":"VEC3"
		},
		{
			"bufferView":38,
			"componentType":5126,
			"count":37,
			"type":"VEC4"
		},
		{
			"bufferView":39,
			"componentType":5126,
			"count":2,
			"type":"VEC3"
		},
		{
			"bufferView":40,
			"componentType":5126,
			"count":2,
			"type":"VEC3"
		},
		{
			"bufferView":41,
			"componentType":5126,
			"count":37,
			"type":"VEC4"
		},
		{
			"bufferView":42,
			"componentType":5126,
			"count":2,
			"type":"VEC3"
		},
		{
			"bufferView":43,
			"componentType":5126,
			"count":2,
			"type":"VEC3"
		},
		{
			"bufferView":44,
			"componentType":5126,
			"count":37,
			"type":"VEC4"
		},
		{
			"bufferView":45,
			"componentType":5126,
			"count":2,
			"type":"VEC3"
		},
		{
			"bufferView":46,
			"componentType":5126,
			"count":37,
			"type":"VEC4"
		},
		{
			"bufferView":47,
			"componentType":5126,
			"count":2,
			"max":[
				1
			],
			"min":[
				0.041666666666666664
			],
			"type":"SCALAR"
		},
		{
			"bufferView":48,
			"componentType":5126,
			"count":24,
			"max":[
				1
			],
			"min":[
				0.041666666666666664
			],
			"type":"SCALAR"
		},
		{
			"bufferView":49,
			"componentType":5126,
			"count":24,
			"type":"VEC4"
		},
		{
			"bufferView":50,
			"componentType":5126,
			"count":2,
			"type":"VEC3"
		},
		{
			"bufferView":51,
			"componentType":5126,
			"count":2,
			"type":"VEC4"
		},
		{
			"bufferView":52,
			"componentType":5126,
			"count":2,
			"type":"VEC3"
		},
		{
			"bufferView":53,
			"componentType":5126,
			"count":2,
			"type":"VEC3"
		},
		{
			"bufferView":54,
			"componentType":5126,
			"count":24,
			"type":"VEC4"
		},
		{
			"bufferView":55,
			"componentType":5126,
			"count":2,
			"type":"VEC3"
		},
		{
			"bufferView":56,
			"componentType":5126,
			"count":2,
			"type":"VEC3"
		},
		{
			"bufferView":57,
			"componentType":5126,
			"count":2,
			"type":"VEC4"
		},
		{
			"bufferView":58,
			"componentType":5126,
			"count":24,
			"type":"VEC3"
		},
		{
			"bufferView":59,
			"componentType":5126,
			"count":2,
			"type":"VEC3"
		},
		{
			"bufferView":60,
			"componentType":5126,
			"count":24,
			"type":"VEC3"
		},
		{
			"bufferView":61,
			"componentType":5126,
			"count":2,
			"type":"VEC3"
		},
		{
			"bufferView":62,
			"componentType":5126,
			"count":2,
			"type":"VEC4"
		},
		{
			"bufferView":63,
			"componentType":5126,
			"count":24,
			"type":"VEC3"
		},
		{
			"bufferView":64,
			"componentType":5126,
			"count":2,
			"type":"VEC3"
		},
		{
			"bufferView":65,
			"componentType":5126,
			"count":24,
			"type":"VEC4"
		},
		{
			"bufferView":66,
			"componentType":5126,
			"count":2,
			"type":"VEC3"
		},
		{
			"bufferView":67,
			"componentType":5126,
			"count":24,
			"type":"VEC4"
		},
		{
			"bufferView":68,
			"componentType":5126,
			"count":2,
			"type":"VEC3"
		},
		{
			"bufferView":69,
			"componentType":5126,
			"count":2,
			"type":"VEC3"
		},
		{
			"bufferView":70,
			"componentType":5126,
			"count":24,
			"type":"VEC4"
		},
		{
			"bufferView":71,
			"componentType":5126,
			"count":2,
			"type":"VEC3"
		},
		{
			"bufferView":72,
			"componentType":5126,
			"count":24,
			"type":"VEC4"
		},
		{
			"bufferView":73,
			"componentType":5126,
			"count":2,
			"type":"VEC3"
		},
		{
			"bufferView":74,
			"componentType":5126,
			"count":24,
			"type":"VEC4"
		},
		{
			"bufferView":75,
			"componentType":5126,
			"count":2,
			"type":"VEC3"
		},
		{
			"bufferView":76,
			"componentType":5126,
			"count":24,
			"type":"VEC4"
		},
		{
			"bufferView":77,
			"componentType":5126,
			"count":2,
			"type":"VEC3"
		},
		{
			"bufferView":78,
			"componentType":5126,
			"count":24,
			"type":"VEC4"
		},
		{
			"bufferView":79,
			"componentType":5126,
			"count":2,
			"type":"VEC3"
		},
		{
			"bufferView":80,
			"componentType":5126,
			"count":24,
			"type":"VEC4"
		}
	],
	"bufferViews":[
		{
			"buffer":0,
			"byteLength":14208,
			"byteOffset":0,
			"target":34962
		},
		{
			"buffer":0,
			"byteLength":14208,
			"byteOffset":14208,
			"target":34962
		},
		{
			"buffer":0,
			"byteLength":9472,
			"byteOffset":28416,
			"target":34962
		},
		{
			"buffer":0,
			"byteLength":4736,
			"byteOffset":37888,
			"target":34962
		},
		{
			"buffer":0,
			"byteLength":18944,
			"byteOffset":42624,
			"target":34962
		},
		{
			"buffer":0,
			"byteLength":3768,
			"byteOffset":61568,
			"target":34963
		},
		{
			"buffer":0,
			"byteLength":896,
			"byteOffset":65336
		},
		{
			"buffer":0,
			"byteLength":8,
			"byteOffset":66232
		},
		{
			"buffer":0,
			"byteLength":24,
			"byteOffset":66240
		},
		{
			"buffer":0,
			"byteLength":148,
			"byteOffset":66264
		},
		{
			"buffer":0,
			"byteLength":592,
			"byteOffset":66412
		},
		{
			"buffer":0,
			"byteLength":24,
			"byteOffset":67004
		},
		{
			"buffer":0,
			"byteLength":24,
			"byteOffset":67028
		},
		{
			"buffer":0,
			"byteLength":32,
			"byteOffset":67052
		},
		{
			"buffer":0,
			"byteLength":24,
			"byteOffset":67084
		},
		{
			"buffer":0,
			"byteLength":24,
			"byteOffset":67108
		},
		{
			"buffer":0,
			"byteLength":592,
			"byteOffset":67132
		},
		{
			"buffer":0,
			"byteLength":24,
			"byteOffset":67724
		},
		{
			"buffer":0,
			"byteLength":24,
			"byteOffset":67748
		},
		{
			"buffer":0,
			"byteLength":32,
			"byteOffset":67772
		},
		{
			"buffer":0,
			"byteLength":444,
			"byteOffset":67804
		},
		{
			"buffer":0,
			"byteLength":24,
			"byteOffset":68248
		},
		{
			"buffer":0,
			"byteLength":32,
			"byteOffset":68272
		},
		{
			"buffer":0,
			"byteLength":444,
			"byteOffset":68304
		},
		{
			"buffer":0,
			"byteLength":24,
			"byteOffset":68748
		},
		{
			"buffer":0,
			"byteLength":32,
			"byteOffset":68772
		},
		{
			"buffer":0,
			"byteLength":444,
			"byteOffset":68804
		},
		{
			"buffer":0,
			"byteLength":24,
			"byteOffset":69248
		},
		{
			"buffer":0,
			"byteLength":592,
			"byteOffset":69272
		},
		{
			"buffer":0,
			"byteLength":24,
			"byteOffset":69864
		},
		{
			"buffer":0,
			"byteLength":24,
			"byteOffset":69888
		},
		{
			"buffer":0,
			"byteLength":592,
			"byteOffset":69912
		},
		{
			"buffer":0,
			"byteLength":24,
			"byteOffset":70504
		},
		{
			"buffer":0,
			"byteLength":24,
			"byteOffset":70528
		},
		{
			"buffer":0,
			"byteLength":592,
			"byteOffset":70552
		},
		{
			"buffer":0,
			"byteLength":24,
			"byteOffset":71144
		},
		{
			"buffer":0,
			"byteLength":592,
			"byteOffset":71168
		},
		{
			"buffer":0,
			"byteLength":24,
			"byteOffset":71760
		},
		{
			"buffer":0,
			"byteLength":592,
			"byteOffset":71784
		},
		{
			"buffer":0,
			"byteLength":24,
			"byteOffset":72376
		},
		{
			"buffer":0,
			"byteLength":24,
			"byteOffset":72400
		},
		{
			"buffer":0,
			"byteLength":592,
			"byteOffset":72424
		},
		{
			"buffer":0,
			"byteLength":24,
			"byteOffset":73016
		},
		{
			"buffer":0,
			"byteLength":24,
			"byteOffset":73040
		},
		{
			"buffer":0,
			"byteLength":592,
			"byteOffset":73064
		},
		{
			"buffer":0,
			"byteLength":24,
			"byteOffset":73656
		},
		{
			"buffer":0,
			"byteLength":592,
			"byteOffset":73680
		},
		{
			"buffer":0,
			"byteLength":8,
			"byteOffset":74272
		},
		{
			"buffer":0,
			"byteLength":96,
			"byteOffset":74280
		},
		{
			"buffer":0,
			"byteLength":384,
			"byteOffset":74376
		},
		{
			"buffer":0,
			"byteLength":24,
			"byteOffset":74760
		},
		{
			"buffer":0,
			"byteLength":32,
			"byteOffset":74784
		},
		{
			"buffer":0,
			"byteLength":24,
			"byteOffset":74816
		},
		{
			"buffer":0,
			"byteLength":24,
			"byteOffset":74840
		},
		{
			"buffer":0,
			"byteLength":384,
			"byteOffset":74864
		},
		{
			"buffer":0,
			"byteLength":24,
			"byteOffset":75248
		},
		{
			"buffer":0,
			"byteLength":24,
			"byteOffset":75272
		},
		{
			"buffer":0,
			"byteLength":32,
			"byteOffset":75296
		},
		{
			"buffer":0,
			"byteLength":288,
			"byteOffset":75328
		},
		{
			"buffer":0,
			"byteLength":24,
			"byteOffset":75616
		},
		{
			"buffer":0,
			"byteLength":288,
			"byteOffset":75640
		},
		{
			"buffer":0,
			"byteLength":24,
			"byteOffset":75928
		},
		{
			"buffer":0,
			"byteLength":32,
			"byteOffset":75952
		},
		{
			"buffer":0,
			"byteLength":288,
			"byteOffset":75984
		},
		{
			"buffer":0,
			"byteLength":24,
			"byteOffset":76272
		},
		{
			"buffer":0,
			"byteLength":384,
			"byteOffset":76296
		},
		{
			"buffer":0,
			"byteLength":24,
			"byteOffset":76680
		},
		{
			"buffer":0,
			"byteLength":384,
			"byteOffset":76704
		},
		{
			"buffer":0,
			"byteLength":24,
			"byteOffset":77088
		},
		{
			"buffer":0,
			"byteLength":24,
			"byteOffset":77112
		},
		{
			"buffer":0,
			"byteLength":384,
			"byteOffset":77136
		},
		{
			"buffer":0,
			"byteLength":24,
			"byteOffset":77520
		},
		{
			"buffer":0,
			"byteLength":384,
			"byteOffset":77544
		},
		{
			"buffer":0,
			"byteLength":24,
			"byteOffset":77928
		},
		{
			"buffer":0,
			"byteLength":384,
			"byteOffset":77952
		},
		{
			"buffer":0,
			"byteLength":24,
			"byteOffset":78336
		},
		{
			"buffer":0,
			"byteLength":384,
			"byteOffset":78360
		},
		{
			"buffer":0,
			"byteLength":24,
			"byteOffset":78744
		},
		{
			"buffer":0,
			"byteLength":384,
			"byteOffset":78768
		},
		{
			"buffer":0,
			"byteLength":24,
			"byteOffset":79152
		},
		{
			"buffer":0,
			"byteLength":384,
			"byteOffset":79176
		}
	],
	"samplers":[
		{
			"magFilter":9728,
			"minFilter":9984
		}
	],
	"buffers":[
		{
			"byteLength":79560,
			"uri":"gnawer.bin"
		}
	]
}
