{
	"asset":{
		"generator":"Khronos glTF Blender I/O v5.1.19",
		"version":"2.0"
	},
	"extensionsUsed":[
		"KHR_materials_emissive_strength"
	],
	"scene":0,
	"scenes":[
		{
			"name":"Scene",
			"nodes":[
				11
			]
		}
	],
	"nodes":[
		{
			"name":"cut_0",
			"rotation":[
				1.3642419416370899e-09,
				-9.09494646261777e-10,
				4.092726157978177e-09,
				1
			],
			"scale":[
				0.0010000000474974513,
				0.0010000000474974513,
				0.0010000000474974513
			],
			"translation":[
				-1.4901161193847656e-08,
				0.05999995023012161,
				-5.21540641784668e-08
			]
		},
		{
			"children":[
				0
			],
			"name":"head_0",
			"rotation":[
				4.889688098863587e-10,
				3.91175003500166e-09,
				0.30505862832069397,
				0.9523335695266724
			],
			"scale":[
				0.9999999403953552,
				1,
				0.9999999403953552
			],
			"translation":[
				1.4901161193847656e-08,
				0.16999994218349457,
				-5.21540641784668e-08
			]
		},
		{
			"children":[
				1
			],
			"name":"helix_7",
			"rotation":[
				-0.021145327016711235,
				0.13244332373142242,
				0.39993008971214294,
				0.9066794514656067
			],
			"scale":[
				1,
				1.0000001192092896,
				0.9999999403953552
			],
			"translation":[
				4.6566128730773926e-09,
				0.1700000762939453,
				-5.7334545999765396e-08
			]
		},
		{
			"children":[
				2
			],
			"name":"helix_6",
			"rotation":[
				-0.021145323291420937,
				0.13244332373142242,
				0.39993008971214294,
				0.9066794514656067
			],
			"translation":[
				-1.6763806343078613e-08,
				0.16999994218349457,
				-7.450580596923828e-08
			]
		},
		{
			"children":[
				3
			],
			"name":"helix_5",
			"rotation":[
				-0.02114531770348549,
				0.13244330883026123,
				0.39993008971214294,
				0.9066794514656067
			],
			"scale":[
				0.9999998807907104,
				1,
				0.9999999403953552
			],
			"translation":[
				-3.725290298461914e-09,
				0.16999998688697815,
				6.705522537231445e-08
			]
		},
		{
			"children":[
				4
			],
			"name":"helix_4",
			"rotation":[
				-0.02114531397819519,
				0.13244332373142242,
				0.39993011951446533,
				0.9066794514656067
			],
			"scale":[
				1.0000001192092896,
				1,
				1.0000001192092896
			],
			"translation":[
				-2.561137080192566e-08,
				0.17000001668930054,
				-7.450580596923828e-09
			]
		},
		{
			"children":[
				5
			],
			"name":"helix_3",
			"rotation":[
				-0.021145325154066086,
				0.13244329392910004,
				0.39993008971214294,
				0.9066794514656067
			],
			"scale":[
				1.0000001192092896,
				1,
				1
			],
			"translation":[
				-3.259629011154175e-08,
				0.16999998688697815,
				1.862645149230957e-08
			]
		},
		{
			"children":[
				6
			],
			"name":"helix_2",
			"rotation":[
				-0.02114533819258213,
				0.13244332373142242,
				0.39993008971214294,
				0.9066794514656067
			],
			"scale":[
				0.9999998211860657,
				0.9999998211860657,
				0.9999997615814209
			],
			"translation":[
				-7.450580596923828e-09,
				0.17000000178813934,
				-3.725290298461914e-09
			]
		},
		{
			"children":[
				7
			],
			"name":"helix_1",
			"rotation":[
				-0.021145325154066086,
				0.13244332373142242,
				0.39993011951446533,
				0.9066794514656067
			],
			"scale":[
				1,
				1,
				0.9999999403953552
			],
			"translation":[
				-1.4901161193847656e-08,
				0.17000000178813934,
				-1.862645149230957e-09
			]
		},
		{
			"children":[
				8
			],
			"name":"helix_0",
			"rotation":[
				-0.6560711860656738,
				0.37644481658935547,
				0.18914170563220978,
				0.6261671781539917
			],
			"translation":[
				0,
				0.20000000298023224,
				0
			]
		},
		{
			"mesh":0,
			"name":"HidraRigged",
			"skin":0
		},
		{
			"children":[
				10,
				9
			],
			"name":"Hidra_Armature"
		}
	],
	"animations":[
		{
			"channels":[
				{
					"sampler":0,
					"target":{
						"node":9,
						"path":"translation"
					}
				},
				{
					"sampler":1,
					"target":{
						"node":9,
						"path":"rotation"
					}
				},
				{
					"sampler":2,
					"target":{
						"node":9,
						"path":"scale"
					}
				},
				{
					"sampler":3,
					"target":{
						"node":8,
						"path":"translation"
					}
				},
				{
					"sampler":4,
					"target":{
						"node":8,
						"path":"rotation"
					}
				},
				{
					"sampler":5,
					"target":{
						"node":8,
						"path":"scale"
					}
				},
				{
					"sampler":6,
					"target":{
						"node":7,
						"path":"translation"
					}
				},
				{
					"sampler":7,
					"target":{
						"node":7,
						"path":"rotation"
					}
				},
				{
					"sampler":8,
					"target":{
						"node":7,
						"path":"scale"
					}
				},
				{
					"sampler":9,
					"target":{
						"node":6,
						"path":"translation"
					}
				},
				{
					"sampler":10,
					"target":{
						"node":6,
						"path":"rotation"
					}
				},
				{
					"sampler":11,
					"target":{
						"node":6,
						"path":"scale"
					}
				},
				{
					"sampler":12,
					"target":{
						"node":5,
						"path":"translation"
					}
				},
				{
					"sampler":13,
					"target":{
						"node":5,
						"path":"rotation"
					}
				},
				{
					"sampler":14,
					"target":{
						"node":5,
						"path":"scale"
					}
				},
				{
					"sampler":15,
					"target":{
						"node":4,
						"path":"translation"
					}
				},
				{
					"sampler":16,
					"target":{
						"node":4,
						"path":"rotation"
					}
				},
				{
					"sampler":17,
					"target":{
						"node":4,
						"path":"scale"
					}
				},
				{
					"sampler":18,
					"target":{
						"node":3,
						"path":"translation"
					}
				},
				{
					"sampler":19,
					"target":{
						"node":3,
						"path":"rotation"
					}
				},
				{
					"sampler":20,
					"target":{
						"node":3,
						"path":"scale"
					}
				},
				{
					"sampler":21,
					"target":{
						"node":2,
						"path":"translation"
					}
				},
				{
					"sampler":22,
					"target":{
						"node":2,
						"path":"rotation"
					}
				},
				{
					"sampler":23,
					"target":{
						"node":2,
						"path":"scale"
					}
				},
				{
					"sampler":24,
					"target":{
						"node":1,
						"path":"translation"
					}
				},
				{
					"sampler":25,
					"target":{
						"node":1,
						"path":"rotation"
					}
				},
				{
					"sampler":26,
					"target":{
						"node":1,
						"path":"scale"
					}
				},
				{
					"sampler":27,
					"target":{
						"node":0,
						"path":"translation"
					}
				},
				{
					"sampler":28,
					"target":{
						"node":0,
						"path":"rotation"
					}
				},
				{
					"sampler":29,
					"target":{
						"node":0,
						"path":"scale"
					}
				}
			],
			"name":"hidra_unspool",
			"samplers":[
				{
					"input":7,
					"interpolation":"STEP",
					"output":8
				},
				{
					"input":9,
					"interpolation":"LINEAR",
					"output":10
				},
				{
					"input":7,
					"interpolation":"STEP",
					"output":11
				},
				{
					"input":7,
					"interpolation":"STEP",
					"output":12
				},
				{
					"input":9,
					"interpolation":"LINEAR",
					"output":13
				},
				{
					"input":7,
					"interpolation":"STEP",
					"output":11
				},
				{
					"input":7,
					"interpolation":"STEP",
					"output":14
				},
				{
					"input":9,
					"interpolation":"LINEAR",
					"output":15
				},
				{
					"input":7,
					"interpolation":"STEP",
					"output":16
				},
				{
					"input":7,
					"interpolation":"STEP",
					"output":17
				},
				{
					"input":9,
					"interpolation":"LINEAR",
					"output":18
				},
				{
					"input":7,
					"interpolation":"STEP",
					"output":19
				},
				{
					"input":7,
					"interpolation":"STEP",
					"output":20
				},
				{
					"input":9,
					"interpolation":"LINEAR",
					"output":21
				},
				{
					"input":7,
					"interpolation":"STEP",
					"output":22
				},
				{
					"input":7,
					"interpolation":"STEP",
					"output":23
				},
				{
					"input":9,
					"interpolation":"LINEAR",
					"output":24
				},
				{
					"input":7,
					"interpolation":"STEP",
					"output":25
				},
				{
					"input":7,
					"interpolation":"STEP",
					"output":26
				},
				{
					"input":9,
					"interpolation":"LINEAR",
					"output":27
				},
				{
					"input":7,
					"interpolation":"STEP",
					"output":28
				},
				{
					"input":7,
					"interpolation":"STEP",
					"output":29
				},
				{
					"input":9,
					"interpolation":"LINEAR",
					"output":30
				},
				{
					"input":7,
					"interpolation":"STEP",
					"output":31
				},
				{
					"input":7,
					"interpolation":"STEP",
					"output":32
				},
				{
					"input":9,
					"interpolation":"LINEAR",
					"output":33
				},
				{
					"input":7,
					"interpolation":"STEP",
					"output":34
				},
				{
					"input":7,
					"interpolation":"STEP",
					"output":35
				},
				{
					"input":7,
					"interpolation":"STEP",
					"output":36
				},
				{
					"input":9,
					"interpolation":"LINEAR",
					"output":37
				}
			]
		},
		{
			"channels":[
				{
					"sampler":0,
					"target":{
						"node":9,
						"path":"translation"
					}
				},
				{
					"sampler":1,
					"target":{
						"node":9,
						"path":"rotation"
					}
				},
				{
					"sampler":2,
					"target":{
						"node":9,
						"path":"scale"
					}
				},
				{
					"sampler":3,
					"target":{
						"node":8,
						"path":"translation"
					}
				},
				{
					"sampler":4,
					"target":{
						"node":8,
						"path":"rotation"
					}
				},
				{
					"sampler":5,
					"target":{
						"node":8,
						"path":"scale"
					}
				},
				{
					"sampler":6,
					"target":{
						"node":7,
						"path":"translation"
					}
				},
				{
					"sampler":7,
					"target":{
						"node":7,
						"path":"rotation"
					}
				},
				{
					"sampler":8,
					"target":{
						"node":7,
						"path":"scale"
					}
				},
				{
					"sampler":9,
					"target":{
						"node":6,
						"path":"translation"
					}
				},
				{
					"sampler":10,
					"target":{
						"node":6,
						"path":"rotation"
					}
				},
				{
					"sampler":11,
					"target":{
						"node":6,
						"path":"scale"
					}
				},
				{
					"sampler":12,
					"target":{
						"node":5,
						"path":"translation"
					}
				},
				{
					"sampler":13,
					"target":{
						"node":5,
						"path":"rotation"
					}
				},
				{
					"sampler":14,
					"target":{
						"node":5,
						"path":"scale"
					}
				},
				{
					"sampler":15,
					"target":{
						"node":4,
						"path":"translation"
					}
				},
				{
					"sampler":16,
					"target":{
						"node":4,
						"path":"rotation"
					}
				},
				{
					"sampler":17,
					"target":{
						"node":4,
						"path":"scale"
					}
				},
				{
					"sampler":18,
					"target":{
						"node":3,
						"path":"translation"
					}
				},
				{
					"sampler":19,
					"target":{
						"node":3,
						"path":"rotation"
					}
				},
				{
					"sampler":20,
					"target":{
						"node":3,
						"path":"scale"
					}
				},
				{
					"sampler":21,
					"target":{
						"node":2,
						"path":"translation"
					}
				},
				{
					"sampler":22,
					"target":{
						"node":2,
						"path":"rotation"
					}
				},
				{
					"sampler":23,
					"target":{
						"node":2,
						"path":"scale"
					}
				},
				{
					"sampler":24,
					"target":{
						"node":1,
						"path":"translation"
					}
				},
				{
					"sampler":25,
					"target":{
						"node":1,
						"path":"rotation"
					}
				},
				{
					"sampler":26,
					"target":{
						"node":1,
						"path":"scale"
					}
				},
				{
					"sampler":27,
					"target":{
						"node":0,
						"path":"translation"
					}
				},
				{
					"sampler":28,
					"target":{
						"node":0,
						"path":"rotation"
					}
				},
				{
					"sampler":29,
					"target":{
						"node":0,
						"path":"scale"
					}
				}
			],
			"name":"hidra_recoil",
			"samplers":[
				{
					"input":38,
					"interpolation":"STEP",
					"output":8
				},
				{
					"input":39,
					"interpolation":"LINEAR",
					"output":40
				},
				{
					"input":38,
					"interpolation":"STEP",
					"output":11
				},
				{
					"input":38,
					"interpolation":"STEP",
					"output":41
				},
				{
					"input":39,
					"interpolation":"LINEAR",
					"output":42
				},
				{
					"input":38,
					"interpolation":"STEP",
					"output":11
				},
				{
					"input":38,
					"interpolation":"STEP",
					"output":43
				},
				{
					"input":39,
					"interpolation":"LINEAR",
					"output":44
				},
				{
					"input":38,
					"interpolation":"STEP",
					"output":45
				},
				{
					"input":38,
					"interpolation":"STEP",
					"output":46
				},
				{
					"input":39,
					"interpolation":"LINEAR",
					"output":47
				},
				{
					"input":38,
					"interpolation":"STEP",
					"output":48
				},
				{
					"input":38,
					"interpolation":"STEP",
					"output":49
				},
				{
					"input":39,
					"interpolation":"LINEAR",
					"output":50
				},
				{
					"input":38,
					"interpolation":"STEP",
					"output":51
				},
				{
					"input":38,
					"interpolation":"STEP",
					"output":52
				},
				{
					"input":39,
					"interpolation":"LINEAR",
					"output":53
				},
				{
					"input":38,
					"interpolation":"STEP",
					"output":54
				},
				{
					"input":38,
					"interpolation":"STEP",
					"output":55
				},
				{
					"input":39,
					"interpolation":"LINEAR",
					"output":56
				},
				{
					"input":38,
					"interpolation":"STEP",
					"output":57
				},
				{
					"input":38,
					"interpolation":"STEP",
					"output":58
				},
				{
					"input":39,
					"interpolation":"LINEAR",
					"output":59
				},
				{
					"input":38,
					"interpolation":"STEP",
					"output":60
				},
				{
					"input":38,
					"interpolation":"STEP",
					"output":61
				},
				{
					"input":39,
					"interpolation":"LINEAR",
					"output":62
				},
				{
					"input":38,
					"interpolation":"STEP",
					"output":63
				},
				{
					"input":38,
					"interpolation":"STEP",
					"output":64
				},
				{
					"input":38,
					"interpolation":"STEP",
					"output":65
				},
				{
					"input":39,
					"interpolation":"LINEAR",
					"output":66
				}
			]
		}
	],
	"materials":[
		{
			"alphaMode":"MASK",
			"doubleSided":true,
			"emissiveFactor":[
				1,
				1,
				1
			],
			"emissiveTexture":{
				"index":0
			},
			"extensions":{
				"KHR_materials_emissive_strength":{
					"emissiveStrength":1.100000023841858
				}
			},
			"name":"HidraRiggedTex",
			"pbrMetallicRoughness":{
				"baseColorTexture":{
					"index":1
				},
				"metallicFactor":0,
				"roughnessFactor":0.8999999761581421
			}
		}
	],
	"meshes":[
		{
			"name":"HidraRigged",
			"primitives":[
				{
					"attributes":{
						"POSITION":0,
						"NORMAL":1,
						"TEXCOORD_0":2,
						"JOINTS_0":3,
						"WEIGHTS_0":4
					},
					"indices":5,
					"material":0
				}
			]
		}
	],
	"textures":[
		{
			"sampler":0,
			"source":0
		},
		{
			"sampler":0,
			"source":1
		}
	],
	"images":[
		{
			"mimeType":"image/png",
			"name":"HidraRigged_emissive",
			"uri":"HidraRigged_emissive.png"
		},
		{
			"mimeType":"image/png",
			"name":"HidraRigged_tex",
			"uri":"HidraRigged_tex.png"
		}
	],
	"skins":[
		{
			"inverseBindMatrices":6,
			"joints":[
				9,
				8,
				7,
				6,
				5,
				4,
				3,
				2,
				1,
				0
			],
			"name":"Hidra_Armature"
		}
	],
	"accessors":[
		{
			"bufferView":0,
			"componentType":5126,
			"count":762,
			"max":[
				0.20384326577186584,
				0.40357717871665955,
				7.1525572131747595e-09
			],
			"min":[
				-0.20112812519073486,
				-0.001923489267937839,
				-1.600000023841858
			],
			"type":"VEC3"
		},
		{
			"bufferView":1,
			"componentType":5126,
			"count":762,
			"type":"VEC3"
		},
		{
			"bufferView":2,
			"componentType":5126,
			"count":762,
			"type":"VEC2"
		},
		{
			"bufferView":3,
			"componentType":5121,
			"count":762,
			"type":"VEC4"
		},
		{
			"bufferView":4,
			"componentType":5126,
			"count":762,
			"type":"VEC4"
		},
		{
			"bufferView":5,
			"componentType":5123,
			"count":1170,
			"type":"SCALAR"
		},
		{
			"bufferView":6,
			"componentType":5126,
			"count":10,
			"type":"MAT4"
		},
		{
			"bufferView":7,
			"componentType":5126,
			"count":2,
			"max":[
				1.5
			],
			"min":[
				0.041666666666666664
			],
			"type":"SCALAR"
		},
		{
			"bufferView":8,
			"componentType":5126,
			"count":2,
			"type":"VEC3"
		},
		{
			"bufferView":9,
			"componentType":5126,
			"count":36,
			"max":[
				1.5
			],
			"min":[
				0.041666666666666664
			],
			"type":"SCALAR"
		},
		{
			"bufferView":10,
			"componentType":5126,
			"count":36,
			"type":"VEC4"
		},
		{
			"bufferView":11,
			"componentType":5126,
			"count":2,
			"type":"VEC3"
		},
		{
			"bufferView":12,
			"componentType":5126,
			"count":2,
			"type":"VEC3"
		},
		{
			"bufferView":13,
			"componentType":5126,
			"count":36,
			"type":"VEC4"
		},
		{
			"bufferView":14,
			"componentType":5126,
			"count":2,
			"type":"VEC3"
		},
		{
			"bufferView":15,
			"componentType":5126,
			"count":36,
			"type":"VEC4"
		},
		{
			"bufferView":16,
			"componentType":5126,
			"count":2,
			"type":"VEC3"
		},
		{
			"bufferView":17,
			"componentType":5126,
			"count":2,
			"type":"VEC3"
		},
		{
			"bufferView":18,
			"componentType":5126,
			"count":36,
			"type":"VEC4"
		},
		{
			"bufferView":19,
			"componentType":5126,
			"count":2,
			"type":"VEC3"
		},
		{
			"bufferView":20,
			"componentType":5126,
			"count":2,
			"type":"VEC3"
		},
		{
			"bufferView":21,
			"componentType":5126,
			"count":36,
			"type":"VEC4"
		},
		{
			"bufferView":22,
			"componentType":5126,
			"count":2,
			"type":"VEC3"
		},
		{
			"bufferView":23,
			"componentType":5126,
			"count":2,
			"type":"VEC3"
		},
		{
			"bufferView":24,
			"componentType":5126,
			"count":36,
			"type":"VEC4"
		},
		{
			"bufferView":25,
			"componentType":5126,
			"count":2,
			"type":"VEC3"
		},
		{
			"bufferView":26,
			"componentType":5126,
			"count":2,
			"type":"VEC3"
		},
		{
			"bufferView":27,
			"componentType":5126,
			"count":36,
			"type":"VEC4"
		},
		{
			"bufferView":28,
			"componentType":5126,
			"count":2,
			"type":"VEC3"
		},
		{
			"bufferView":29,
			"componentType":5126,
			"count":2,
			"type":"VEC3"
		},
		{
			"bufferView":30,
			"componentType":5126,
			"count":36,
			"type":"VEC4"
		},
		{
			"bufferView":31,
			"componentType":5126,
			"count":2,
			"type":"VEC3"
		},
		{
			"bufferView":32,
			"componentType":5126,
			"count":2,
			"type":"VEC3"
		},
		{
			"bufferView":33,
			"componentType":5126,
			"count":36,
			"type":"VEC4"
		},
		{
			"bufferView":34,
			"componentType":5126,
			"count":2,
			"type":"VEC3"
		},
		{
			"bufferView":35,
			"componentType":5126,
			"count":2,
			"type":"VEC3"
		},
		{
			"bufferView":36,
			"componentType":5126,
			"count":2,
			"type":"VEC4"
		},
		{
			"bufferView":37,
			"componentType":5126,
			"count":36,
			"type":"VEC3"
		},
		{
			"bufferView":38,
			"componentType":5126,
			"count":2,
			"max":[
				1.2916666666666667
			],
			"min":[
				0.041666666666666664
			],
			"type":"SCALAR"
		},
		{
			"bufferView":39,
			"componentType":5126,
			"count":31,
			"max":[
				1.2916666666666667
			],
			"min":[
				0.041666666666666664
			],
			"type":"SCALAR"
		},
		{
			"bufferView":40,
			"componentType":5126,
			"count":31,
			"type":"VEC4"
		},
		{
			"bufferView":41,
			"componentType":5126,
			"count":2,
			"type":"VEC3"
		},
		{
			"bufferView":42,
			"componentType":5126,
			"count":31,
			"type":"VEC4"
		},
		{
			"bufferView":43,
			"componentType":5126,
			"count":2,
			"type":"VEC3"
		},
		{
			"bufferView":44,
			"componentType":5126,
			"count":31,
			"type":"VEC4"
		},
		{
			"bufferView":45,
			"componentType":5126,
			"count":2,
			"type":"VEC3"
		},
		{
			"bufferView":46,
			"componentType":5126,
			"count":2,
			"type":"VEC3"
		},
		{
			"bufferView":47,
			"componentType":5126,
			"count":31,
			"type":"VEC4"
		},
		{
			"bufferView":48,
			"componentType":5126,
			"count":2,
			"type":"VEC3"
		},
		{
			"bufferView":49,
			"componentType":5126,
			"count":2,
			"type":"VEC3"
		},
		{
			"bufferView":50,
			"componentType":5126,
			"count":31,
			"type":"VEC4"
		},
		{
			"bufferView":51,
			"componentType":5126,
			"count":2,
			"type":"VEC3"
		},
		{
			"bufferView":52,
			"componentType":5126,
			"count":2,
			"type":"VEC3"
		},
		{
			"bufferView":53,
			"componentType":5126,
			"count":31,
			"type":"VEC4"
		},
		{
			"bufferView":54,
			"componentType":5126,
			"count":2,
			"type":"VEC3"
		},
		{
			"bufferView":55,
			"componentType":5126,
			"count":2,
			"type":"VEC3"
		},
		{
			"bufferView":56,
			"componentType":5126,
			"count":31,
			"type":"VEC4"
		},
		{
			"bufferView":57,
			"componentType":5126,
			"count":2,
			"type":"VEC3"
		},
		{
			"bufferView":58,
			"componentType":5126,
			"count":2,
			"type":"VEC3"
		},
		{
			"bufferView":59,
			"componentType":5126,
			"count":31,
			"type":"VEC4"
		},
		{
			"bufferView":60,
			"componentType":5126,
			"count":2,
			"type":"VEC3"
		},
		{
			"bufferView":61,
			"componentType":5126,
			"count":2,
			"type":"VEC3"
		},
		{
			"bufferView":62,
			"componentType":5126,
			"count":31,
			"type":"VEC4"
		},
		{
			"bufferView":63,
			"componentType":5126,
			"count":2,
			"type":"VEC3"
		},
		{
			"bufferView":64,
			"componentType":5126,
			"count":2,
			"type":"VEC3"
		},
		{
			"bufferView":65,
			"componentType":5126,
			"count":2,
			"type":"VEC4"
		},
		{
			"bufferView":66,
			"componentType":5126,
			"count":31,
			"type":"VEC3"
		}
	],
	"bufferViews":[
		{
			"buffer":0,
			"byteLength":9144,
			"byteOffset":0,
			"target":34962
		},
		{
			"buffer":0,
			"byteLength":9144,
			"byteOffset":9144,
			"target":34962
		},
		{
			"buffer":0,
			"byteLength":6096,
			"byteOffset":18288,
			"target":34962
		},
		{
			"buffer":0,
			"byteLength":3048,
			"byteOffset":24384,
			"target":34962
		},
		{
			"buffer":0,
			"byteLength":12192,
			"byteOffset":27432,
			"target":34962
		},
		{
			"buffer":0,
			"byteLength":2340,
			"byteOffset":39624,
			"target":34963
		},
		{
			"buffer":0,
			"byteLength":640,
			"byteOffset":41964
		},
		{
			"buffer":0,
			"byteLength":8,
			"byteOffset":42604
		},
		{
			"buffer":0,
			"byteLength":24,
			"byteOffset":42612
		},
		{
			"buffer":0,
			"byteLength":144,
			"byteOffset":42636
		},
		{
			"buffer":0,
			"byteLength":576,
			"byteOffset":42780
		},
		{
			"buffer":0,
			"byteLength":24,
			"byteOffset":43356
		},
		{
			"buffer":0,
			"byteLength":24,
			"byteOffset":43380
		},
		{
			"buffer":0,
			"byteLength":576,
			"byteOffset":43404
		},
		{
			"buffer":0,
			"byteLength":24,
			"byteOffset":43980
		},
		{
			"buffer":0,
			"byteLength":576,
			"byteOffset":44004
		},
		{
			"buffer":0,
			"byteLength":24,
			"byteOffset":44580
		},
		{
			"buffer":0,
			"byteLength":24,
			"byteOffset":44604
		},
		{
			"buffer":0,
			"byteLength":576,
			"byteOffset":44628
		},
		{
			"buffer":0,
			"byteLength":24,
			"byteOffset":45204
		},
		{
			"buffer":0,
			"byteLength":24,
			"byteOffset":45228
		},
		{
			"buffer":0,
			"byteLength":576,
			"byteOffset":45252
		},
		{
			"buffer":0,
			"byteLength":24,
			"byteOffset":45828
		},
		{
			"buffer":0,
			"byteLength":24,
			"byteOffset":45852
		},
		{
			"buffer":0,
			"byteLength":576,
			"byteOffset":45876
		},
		{
			"buffer":0,
			"byteLength":24,
			"byteOffset":46452
		},
		{
			"buffer":0,
			"byteLength":24,
			"byteOffset":46476
		},
		{
			"buffer":0,
			"byteLength":576,
			"byteOffset":46500
		},
		{
			"buffer":0,
			"byteLength":24,
			"byteOffset":47076
		},
		{
			"buffer":0,
			"byteLength":24,
			"byteOffset":47100
		},
		{
			"buffer":0,
			"byteLength":576,
			"byteOffset":47124
		},
		{
			"buffer":0,
			"byteLength":24,
			"byteOffset":47700
		},
		{
			"buffer":0,
			"byteLength":24,
			"byteOffset":47724
		},
		{
			"buffer":0,
			"byteLength":576,
			"byteOffset":47748
		},
		{
			"buffer":0,
			"byteLength":24,
			"byteOffset":48324
		},
		{
			"buffer":0,
			"byteLength":24,
			"byteOffset":48348
		},
		{
			"buffer":0,
			"byteLength":32,
			"byteOffset":48372
		},
		{
			"buffer":0,
			"byteLength":432,
			"byteOffset":48404
		},
		{
			"buffer":0,
			"byteLength":8,
			"byteOffset":48836
		},
		{
			"buffer":0,
			"byteLength":124,
			"byteOffset":48844
		},
		{
			"buffer":0,
			"byteLength":496,
			"byteOffset":48968
		},
		{
			"buffer":0,
			"byteLength":24,
			"byteOffset":49464
		},
		{
			"buffer":0,
			"byteLength":496,
			"byteOffset":49488
		},
		{
			"buffer":0,
			"byteLength":24,
			"byteOffset":49984
		},
		{
			"buffer":0,
			"byteLength":496,
			"byteOffset":50008
		},
		{
			"buffer":0,
			"byteLength":24,
			"byteOffset":50504
		},
		{
			"buffer":0,
			"byteLength":24,
			"byteOffset":50528
		},
		{
			"buffer":0,
			"byteLength":496,
			"byteOffset":50552
		},
		{
			"buffer":0,
			"byteLength":24,
			"byteOffset":51048
		},
		{
			"buffer":0,
			"byteLength":24,
			"byteOffset":51072
		},
		{
			"buffer":0,
			"byteLength":496,
			"byteOffset":51096
		},
		{
			"buffer":0,
			"byteLength":24,
			"byteOffset":51592
		},
		{
			"buffer":0,
			"byteLength":24,
			"byteOffset":51616
		},
		{
			"buffer":0,
			"byteLength":496,
			"byteOffset":51640
		},
		{
			"buffer":0,
			"byteLength":24,
			"byteOffset":52136
		},
		{
			"buffer":0,
			"byteLength":24,
			"byteOffset":52160
		},
		{
			"buffer":0,
			"byteLength":496,
			"byteOffset":52184
		},
		{
			"buffer":0,
			"byteLength":24,
			"byteOffset":52680
		},
		{
			"buffer":0,
			"byteLength":24,
			"byteOffset":52704
		},
		{
			"buffer":0,
			"byteLength":496,
			"byteOffset":52728
		},
		{
			"buffer":0,
			"byteLength":24,
			"byteOffset":53224
		},
		{
			"buffer":0,
			"byteLength":24,
			"byteOffset":53248
		},
		{
			"buffer":0,
			"byteLength":496,
			"byteOffset":53272
		},
		{
			"buffer":0,
			"byteLength":24,
			"byteOffset":53768
		},
		{
			"buffer":0,
			"byteLength":24,
			"byteOffset":53792
		},
		{
			"buffer":0,
			"byteLength":32,
			"byteOffset":53816
		},
		{
			"buffer":0,
			"byteLength":372,
			"byteOffset":53848
		}
	],
	"samplers":[
		{
			"magFilter":9728,
			"minFilter":9984
		}
	],
	"buffers":[
		{
			"byteLength":54220,
			"uri":"hidra.bin"
		}
	]
}
