{
	"asset":{
		"generator":"Khronos glTF Blender I/O v5.1.19",
		"version":"2.0"
	},
	"extensionsUsed":[
		"KHR_materials_emissive_strength"
	],
	"scene":0,
	"scenes":[
		{
			"name":"Scene",
			"nodes":[
				17
			]
		}
	],
	"nodes":[
		{
			"name":"leg0_1",
			"rotation":[
				-0.21761205792427063,
				-0.28001832962036133,
				0.1959875375032425,
				0.914233922958374
			],
			"scale":[
				0.9999999403953552,
				1,
				1
			],
			"translation":[
				0,
				0.21313433349132538,
				-1.4901161193847656e-08
			]
		},
		{
			"children":[
				0
			],
			"name":"leg0_0",
			"rotation":[
				-0.7111344337463379,
				-0.45323532819747925,
				-0.45323535799980164,
				0.2888655960559845
			],
			"scale":[
				0.9999998211860657,
				0.9999998807907104,
				0.9999999403953552
			],
			"translation":[
				0.36800000071525574,
				0.20999999344348907,
				-2.0280150859723865e-17
			]
		},
		{
			"name":"leg1_1",
			"rotation":[
				0.26154571771621704,
				-1.5444391125629046e-16,
				1.1466957339383347e-16,
				0.965191125869751
			],
			"scale":[
				1,
				0.9999999403953552,
				0.9999999403953552
			],
			"translation":[
				1.9852334701272664e-23,
				0.16475434601306915,
				-7.450580596923828e-09
			]
		},
		{
			"children":[
				2
			],
			"name":"leg1_0",
			"rotation":[
				0.8792802691459656,
				1.7818543743955065e-16,
				1.7818541096977105e-16,
				0.4763047397136688
			],
			"scale":[
				1,
				0.9999999403953552,
				0.9999998211860657
			],
			"translation":[
				4.506700338104079e-17,
				0.20999999344348907,
				0.3312000036239624
			]
		},
		{
			"name":"leg2_1",
			"rotation":[
				-0.21761205792427063,
				0.28001832962036133,
				-0.1959875375032425,
				0.914233922958374
			],
			"scale":[
				0.9999999403953552,
				1,
				1
			],
			"translation":[
				-5.551115123125783e-17,
				0.21313433349132538,
				-1.4901161193847656e-08
			]
		},
		{
			"children":[
				4
			],
			"name":"leg2_0",
			"rotation":[
				-0.7111344337463379,
				0.45323532819747925,
				0.45323535799980164,
				0.2888655960559845
			],
			"scale":[
				0.9999998211860657,
				0.9999998807907104,
				0.9999999403953552
			],
			"translation":[
				-0.36800000071525574,
				0.20999999344348907,
				6.084045092481037e-17
			]
		},
		{
			"name":"leg3_1",
			"rotation":[
				-0.26154571771621704,
				5.674990382939274e-17,
				-5.338725582068707e-17,
				0.965191125869751
			],
			"scale":[
				1,
				0.9999999403953552,
				0.9999999403953552
			],
			"translation":[
				2.481541837659083e-24,
				0.16475434601306915,
				7.450580596923828e-09
			]
		},
		{
			"children":[
				6
			],
			"name":"leg3_0",
			"rotation":[
				-0.8792802691459656,
				1.0593867541089136e-16,
				1.0593858938410765e-16,
				0.4763047397136688
			],
			"scale":[
				1,
				0.9999999403953552,
				0.9999998211860657
			],
			"translation":[
				-9.013400676208158e-17,
				0.20999999344348907,
				-0.3312000036239624
			]
		},
		{
			"name":"field0_0",
			"translation":[
				-0.1932000070810318,
				0.36000001430511475,
				0.24992266297340393
			]
		},
		{
			"name":"field1_0",
			"translation":[
				0.1932000070810318,
				0.36000001430511475,
				0.14517861604690552
			]
		},
		{
			"name":"field2_0",
			"translation":[
				-0.1932000070810318,
				0.36000001430511475,
				1.7463463561999122e-17
			]
		},
		{
			"name":"field3_0",
			"translation":[
				0.1932000070810318,
				0.36000001430511475,
				-0.14517861604690552
			]
		},
		{
			"name":"field4_0",
			"translation":[
				0,
				0.41499999165534973,
				-0.24992266297340393
			]
		},
		{
			"name":"tip_0",
			"rotation":[
				-0.5492480397224426,
				0,
				0,
				0.8356593251228333
			],
			"scale":[
				0.0010000000474974513,
				0.0010000001639127731,
				0.0010000000474974513
			],
			"translation":[
				0,
				0.35091567039489746,
				0.016828611493110657
			]
		},
		{
			"children":[
				13
			],
			"name":"snout_0",
			"rotation":[
				0.8272320032119751,
				0,
				0,
				0.5618604421615601
			],
			"translation":[
				0,
				0.33000001311302185,
				0.4399999976158142
			]
		},
		{
			"children":[
				1,
				3,
				5,
				7,
				8,
				9,
				10,
				11,
				12,
				14
			],
			"name":"body_0"
		},
		{
			"mesh":0,
			"name":"NaturalizerRigged",
			"skin":0
		},
		{
			"children":[
				16,
				15
			],
			"name":"Naturalizer_Armature"
		}
	],
	"animations":[
		{
			"channels":[
				{
					"sampler":0,
					"target":{
						"node":15,
						"path":"translation"
					}
				},
				{
					"sampler":1,
					"target":{
						"node":15,
						"path":"rotation"
					}
				},
				{
					"sampler":2,
					"target":{
						"node":15,
						"path":"scale"
					}
				},
				{
					"sampler":3,
					"target":{
						"node":1,
						"path":"translation"
					}
				},
				{
					"sampler":4,
					"target":{
						"node":1,
						"path":"rotation"
					}
				},
				{
					"sampler":5,
					"target":{
						"node":1,
						"path":"scale"
					}
				},
				{
					"sampler":6,
					"target":{
						"node":0,
						"path":"translation"
					}
				},
				{
					"sampler":7,
					"target":{
						"node":0,
						"path":"rotation"
					}
				},
				{
					"sampler":8,
					"target":{
						"node":0,
						"path":"scale"
					}
				},
				{
					"sampler":9,
					"target":{
						"node":3,
						"path":"translation"
					}
				},
				{
					"sampler":10,
					"target":{
						"node":3,
						"path":"rotation"
					}
				},
				{
					"sampler":11,
					"target":{
						"node":3,
						"path":"scale"
					}
				},
				{
					"sampler":12,
					"target":{
						"node":2,
						"path":"translation"
					}
				},
				{
					"sampler":13,
					"target":{
						"node":2,
						"path":"rotation"
					}
				},
				{
					"sampler":14,
					"target":{
						"node":2,
						"path":"scale"
					}
				},
				{
					"sampler":15,
					"target":{
						"node":5,
						"path":"translation"
					}
				},
				{
					"sampler":16,
					"target":{
						"node":5,
						"path":"rotation"
					}
				},
				{
					"sampler":17,
					"target":{
						"node":5,
						"path":"scale"
					}
				},
				{
					"sampler":18,
					"target":{
						"node":4,
						"path":"translation"
					}
				},
				{
					"sampler":19,
					"target":{
						"node":4,
						"path":"rotation"
					}
				},
				{
					"sampler":20,
					"target":{
						"node":4,
						"path":"scale"
					}
				},
				{
					"sampler":21,
					"target":{
						"node":7,
						"path":"translation"
					}
				},
				{
					"sampler":22,
					"target":{
						"node":7,
						"path":"rotation"
					}
				},
				{
					"sampler":23,
					"target":{
						"node":7,
						"path":"scale"
					}
				},
				{
					"sampler":24,
					"target":{
						"node":6,
						"path":"translation"
					}
				},
				{
					"sampler":25,
					"target":{
						"node":6,
						"path":"rotation"
					}
				},
				{
					"sampler":26,
					"target":{
						"node":6,
						"path":"scale"
					}
				},
				{
					"sampler":27,
					"target":{
						"node":8,
						"path":"translation"
					}
				},
				{
					"sampler":28,
					"target":{
						"node":8,
						"path":"rotation"
					}
				},
				{
					"sampler":29,
					"target":{
						"node":8,
						"path":"scale"
					}
				},
				{
					"sampler":30,
					"target":{
						"node":9,
						"path":"translation"
					}
				},
				{
					"sampler":31,
					"target":{
						"node":9,
						"path":"rotation"
					}
				},
				{
					"sampler":32,
					"target":{
						"node":9,
						"path":"scale"
					}
				},
				{
					"sampler":33,
					"target":{
						"node":10,
						"path":"translation"
					}
				},
				{
					"sampler":34,
					"target":{
						"node":10,
						"path":"rotation"
					}
				},
				{
					"sampler":35,
					"target":{
						"node":10,
						"path":"scale"
					}
				},
				{
					"sampler":36,
					"target":{
						"node":11,
						"path":"translation"
					}
				},
				{
					"sampler":37,
					"target":{
						"node":11,
						"path":"rotation"
					}
				},
				{
					"sampler":38,
					"target":{
						"node":11,
						"path":"scale"
					}
				},
				{
					"sampler":39,
					"target":{
						"node":12,
						"path":"translation"
					}
				},
				{
					"sampler":40,
					"target":{
						"node":12,
						"path":"rotation"
					}
				},
				{
					"sampler":41,
					"target":{
						"node":12,
						"path":"scale"
					}
				},
				{
					"sampler":42,
					"target":{
						"node":14,
						"path":"translation"
					}
				},
				{
					"sampler":43,
					"target":{
						"node":14,
						"path":"rotation"
					}
				},
				{
					"sampler":44,
					"target":{
						"node":14,
						"path":"scale"
					}
				},
				{
					"sampler":45,
					"target":{
						"node":13,
						"path":"translation"
					}
				},
				{
					"sampler":46,
					"target":{
						"node":13,
						"path":"rotation"
					}
				},
				{
					"sampler":47,
					"target":{
						"node":13,
						"path":"scale"
					}
				}
			],
			"name":"naturalizer_pack",
			"samplers":[
				{
					"input":7,
					"interpolation":"STEP",
					"output":8
				},
				{
					"input":7,
					"interpolation":"STEP",
					"output":9
				},
				{
					"input":7,
					"interpolation":"STEP",
					"output":10
				},
				{
					"input":7,
					"interpolation":"STEP",
					"output":11
				},
				{
					"input":7,
					"interpolation":"STEP",
					"output":12
				},
				{
					"input":7,
					"interpolation":"STEP",
					"output":13
				},
				{
					"input":7,
					"interpolation":"STEP",
					"output":14
				},
				{
					"input":7,
					"interpolation":"STEP",
					"output":15
				},
				{
					"input":7,
					"interpolation":"STEP",
					"output":16
				},
				{
					"input":7,
					"interpolation":"STEP",
					"output":17
				},
				{
					"input":7,
					"interpolation":"STEP",
					"output":18
				},
				{
					"input":7,
					"interpolation":"STEP",
					"output":19
				},
				{
					"input":7,
					"interpolation":"STEP",
					"output":20
				},
				{
					"input":7,
					"interpolation":"STEP",
					"output":21
				},
				{
					"input":7,
					"interpolation":"STEP",
					"output":22
				},
				{
					"input":7,
					"interpolation":"STEP",
					"output":23
				},
				{
					"input":7,
					"interpolation":"STEP",
					"output":24
				},
				{
					"input":7,
					"interpolation":"STEP",
					"output":13
				},
				{
					"input":7,
					"interpolation":"STEP",
					"output":25
				},
				{
					"input":7,
					"interpolation":"STEP",
					"output":26
				},
				{
					"input":7,
					"interpolation":"STEP",
					"output":16
				},
				{
					"input":7,
					"interpolation":"STEP",
					"output":27
				},
				{
					"input":7,
					"interpolation":"STEP",
					"output":28
				},
				{
					"input":7,
					"interpolation":"STEP",
					"output":19
				},
				{
					"input":7,
					"interpolation":"STEP",
					"output":29
				},
				{
					"input":7,
					"interpolation":"STEP",
					"output":30
				},
				{
					"input":7,
					"interpolation":"STEP",
					"output":22
				},
				{
					"input":7,
					"interpolation":"STEP",
					"output":31
				},
				{
					"input":7,
					"interpolation":"STEP",
					"output":9
				},
				{
					"input":32,
					"interpolation":"LINEAR",
					"output":33
				},
				{
					"input":7,
					"interpolation":"STEP",
					"output":34
				},
				{
					"input":7,
					"interpolation":"STEP",
					"output":9
				},
				{
					"input":32,
					"interpolation":"LINEAR",
					"output":33
				},
				{
					"input":7,
					"interpolation":"STEP",
					"output":35
				},
				{
					"input":7,
					"interpolation":"STEP",
					"output":9
				},
				{
					"input":32,
					"interpolation":"LINEAR",
					"output":36
				},
				{
					"input":7,
					"interpolation":"STEP",
					"output":37
				},
				{
					"input":7,
					"interpolation":"STEP",
					"output":9
				},
				{
					"input":32,
					"interpolation":"LINEAR",
					"output":36
				},
				{
					"input":7,
					"interpolation":"STEP",
					"output":38
				},
				{
					"input":7,
					"interpolation":"STEP",
					"output":9
				},
				{
					"input":32,
					"interpolation":"LINEAR",
					"output":39
				},
				{
					"input":7,
					"interpolation":"STEP",
					"output":40
				},
				{
					"input":7,
					"interpolation":"STEP",
					"output":41
				},
				{
					"input":7,
					"interpolation":"STEP",
					"output":10
				},
				{
					"input":7,
					"interpolation":"STEP",
					"output":42
				},
				{
					"input":7,
					"interpolation":"STEP",
					"output":43
				},
				{
					"input":32,
					"interpolation":"LINEAR",
					"output":44
				}
			]
		},
		{
			"channels":[
				{
					"sampler":0,
					"target":{
						"node":15,
						"path":"translation"
					}
				},
				{
					"sampler":1,
					"target":{
						"node":15,
						"path":"rotation"
					}
				},
				{
					"sampler":2,
					"target":{
						"node":15,
						"path":"scale"
					}
				},
				{
					"sampler":3,
					"target":{
						"node":1,
						"path":"translation"
					}
				},
				{
					"sampler":4,
					"target":{
						"node":1,
						"path":"rotation"
					}
				},
				{
					"sampler":5,
					"target":{
						"node":1,
						"path":"scale"
					}
				},
				{
					"sampler":6,
					"target":{
						"node":0,
						"path":"translation"
					}
				},
				{
					"sampler":7,
					"target":{
						"node":0,
						"path":"rotation"
					}
				},
				{
					"sampler":8,
					"target":{
						"node":0,
						"path":"scale"
					}
				},
				{
					"sampler":9,
					"target":{
						"node":3,
						"path":"translation"
					}
				},
				{
					"sampler":10,
					"target":{
						"node":3,
						"path":"rotation"
					}
				},
				{
					"sampler":11,
					"target":{
						"node":3,
						"path":"scale"
					}
				},
				{
					"sampler":12,
					"target":{
						"node":2,
						"path":"translation"
					}
				},
				{
					"sampler":13,
					"target":{
						"node":2,
						"path":"rotation"
					}
				},
				{
					"sampler":14,
					"target":{
						"node":2,
						"path":"scale"
					}
				},
				{
					"sampler":15,
					"target":{
						"node":5,
						"path":"translation"
					}
				},
				{
					"sampler":16,
					"target":{
						"node":5,
						"path":"rotation"
					}
				},
				{
					"sampler":17,
					"target":{
						"node":5,
						"path":"scale"
					}
				},
				{
					"sampler":18,
					"target":{
						"node":4,
						"path":"translation"
					}
				},
				{
					"sampler":19,
					"target":{
						"node":4,
						"path":"rotation"
					}
				},
				{
					"sampler":20,
					"target":{
						"node":4,
						"path":"scale"
					}
				},
				{
					"sampler":21,
					"target":{
						"node":7,
						"path":"translation"
					}
				},
				{
					"sampler":22,
					"target":{
						"node":7,
						"path":"rotation"
					}
				},
				{
					"sampler":23,
					"target":{
						"node":7,
						"path":"scale"
					}
				},
				{
					"sampler":24,
					"target":{
						"node":6,
						"path":"translation"
					}
				},
				{
					"sampler":25,
					"target":{
						"node":6,
						"path":"rotation"
					}
				},
				{
					"sampler":26,
					"target":{
						"node":6,
						"path":"scale"
					}
				},
				{
					"sampler":27,
					"target":{
						"node":8,
						"path":"translation"
					}
				},
				{
					"sampler":28,
					"target":{
						"node":8,
						"path":"rotation"
					}
				},
				{
					"sampler":29,
					"target":{
						"node":8,
						"path":"scale"
					}
				},
				{
					"sampler":30,
					"target":{
						"node":9,
						"path":"translation"
					}
				},
				{
					"sampler":31,
					"target":{
						"node":9,
						"path":"rotation"
					}
				},
				{
					"sampler":32,
					"target":{
						"node":9,
						"path":"scale"
					}
				},
				{
					"sampler":33,
					"target":{
						"node":10,
						"path":"translation"
					}
				},
				{
					"sampler":34,
					"target":{
						"node":10,
						"path":"rotation"
					}
				},
				{
					"sampler":35,
					"target":{
						"node":10,
						"path":"scale"
					}
				},
				{
					"sampler":36,
					"target":{
						"node":11,
						"path":"translation"
					}
				},
				{
					"sampler":37,
					"target":{
						"node":11,
						"path":"rotation"
					}
				},
				{
					"sampler":38,
					"target":{
						"node":11,
						"path":"scale"
					}
				},
				{
					"sampler":39,
					"target":{
						"node":12,
						"path":"translation"
					}
				},
				{
					"sampler":40,
					"target":{
						"node":12,
						"path":"rotation"
					}
				},
				{
					"sampler":41,
					"target":{
						"node":12,
						"path":"scale"
					}
				},
				{
					"sampler":42,
					"target":{
						"node":14,
						"path":"translation"
					}
				},
				{
					"sampler":43,
					"target":{
						"node":14,
						"path":"rotation"
					}
				},
				{
					"sampler":44,
					"target":{
						"node":14,
						"path":"scale"
					}
				},
				{
					"sampler":45,
					"target":{
						"node":13,
						"path":"translation"
					}
				},
				{
					"sampler":46,
					"target":{
						"node":13,
						"path":"rotation"
					}
				},
				{
					"sampler":47,
					"target":{
						"node":13,
						"path":"scale"
					}
				}
			],
			"name":"naturalizer_strike",
			"samplers":[
				{
					"input":45,
					"interpolation":"STEP",
					"output":8
				},
				{
					"input":45,
					"interpolation":"STEP",
					"output":9
				},
				{
					"input":45,
					"interpolation":"STEP",
					"output":10
				},
				{
					"input":45,
					"interpolation":"STEP",
					"output":11
				},
				{
					"input":45,
					"interpolation":"STEP",
					"output":12
				},
				{
					"input":45,
					"interpolation":"STEP",
					"output":13
				},
				{
					"input":45,
					"interpolation":"STEP",
					"output":14
				},
				{
					"input":45,
					"interpolation":"STEP",
					"output":15
				},
				{
					"input":45,
					"interpolation":"STEP",
					"output":16
				},
				{
					"input":45,
					"interpolation":"STEP",
					"output":17
				},
				{
					"input":45,
					"interpolation":"STEP",
					"output":18
				},
				{
					"input":45,
					"interpolation":"STEP",
					"output":19
				},
				{
					"input":45,
					"interpolation":"STEP",
					"output":20
				},
				{
					"input":45,
					"interpolation":"STEP",
					"output":21
				},
				{
					"input":45,
					"interpolation":"STEP",
					"output":22
				},
				{
					"input":45,
					"interpolation":"STEP",
					"output":23
				},
				{
					"input":45,
					"interpolation":"STEP",
					"output":24
				},
				{
					"input":45,
					"interpolation":"STEP",
					"output":13
				},
				{
					"input":45,
					"interpolation":"STEP",
					"output":25
				},
				{
					"input":45,
					"interpolation":"STEP",
					"output":26
				},
				{
					"input":45,
					"interpolation":"STEP",
					"output":16
				},
				{
					"input":45,
					"interpolation":"STEP",
					"output":27
				},
				{
					"input":45,
					"interpolation":"STEP",
					"output":28
				},
				{
					"input":45,
					"interpolation":"STEP",
					"output":19
				},
				{
					"input":45,
					"interpolation":"STEP",
					"output":29
				},
				{
					"input":45,
					"interpolation":"STEP",
					"output":30
				},
				{
					"input":45,
					"interpolation":"STEP",
					"output":22
				},
				{
					"input":45,
					"interpolation":"STEP",
					"output":31
				},
				{
					"input":45,
					"interpolation":"STEP",
					"output":9
				},
				{
					"input":46,
					"interpolation":"LINEAR",
					"output":47
				},
				{
					"input":45,
					"interpolation":"STEP",
					"output":34
				},
				{
					"input":45,
					"interpolation":"STEP",
					"output":9
				},
				{
					"input":46,
					"interpolation":"LINEAR",
					"output":47
				},
				{
					"input":45,
					"interpolation":"STEP",
					"output":35
				},
				{
					"input":45,
					"interpolation":"STEP",
					"output":9
				},
				{
					"input":46,
					"interpolation":"LINEAR",
					"output":47
				},
				{
					"input":45,
					"interpolation":"STEP",
					"output":37
				},
				{
					"input":45,
					"interpolation":"STEP",
					"output":9
				},
				{
					"input":46,
					"interpolation":"LINEAR",
					"output":47
				},
				{
					"input":45,
					"interpolation":"STEP",
					"output":38
				},
				{
					"input":45,
					"interpolation":"STEP",
					"output":9
				},
				{
					"input":46,
					"interpolation":"LINEAR",
					"output":47
				},
				{
					"input":45,
					"interpolation":"STEP",
					"output":40
				},
				{
					"input":45,
					"interpolation":"STEP",
					"output":41
				},
				{
					"input":45,
					"interpolation":"STEP",
					"output":10
				},
				{
					"input":45,
					"interpolation":"STEP",
					"output":42
				},
				{
					"input":45,
					"interpolation":"STEP",
					"output":43
				},
				{
					"input":46,
					"interpolation":"LINEAR",
					"output":48
				}
			]
		},
		{
			"channels":[
				{
					"sampler":0,
					"target":{
						"node":15,
						"path":"translation"
					}
				},
				{
					"sampler":1,
					"target":{
						"node":15,
						"path":"rotation"
					}
				},
				{
					"sampler":2,
					"target":{
						"node":15,
						"path":"scale"
					}
				},
				{
					"sampler":3,
					"target":{
						"node":1,
						"path":"translation"
					}
				},
				{
					"sampler":4,
					"target":{
						"node":1,
						"path":"rotation"
					}
				},
				{
					"sampler":5,
					"target":{
						"node":1,
						"path":"scale"
					}
				},
				{
					"sampler":6,
					"target":{
						"node":0,
						"path":"translation"
					}
				},
				{
					"sampler":7,
					"target":{
						"node":0,
						"path":"rotation"
					}
				},
				{
					"sampler":8,
					"target":{
						"node":0,
						"path":"scale"
					}
				},
				{
					"sampler":9,
					"target":{
						"node":3,
						"path":"translation"
					}
				},
				{
					"sampler":10,
					"target":{
						"node":3,
						"path":"rotation"
					}
				},
				{
					"sampler":11,
					"target":{
						"node":3,
						"path":"scale"
					}
				},
				{
					"sampler":12,
					"target":{
						"node":2,
						"path":"translation"
					}
				},
				{
					"sampler":13,
					"target":{
						"node":2,
						"path":"rotation"
					}
				},
				{
					"sampler":14,
					"target":{
						"node":2,
						"path":"scale"
					}
				},
				{
					"sampler":15,
					"target":{
						"node":5,
						"path":"translation"
					}
				},
				{
					"sampler":16,
					"target":{
						"node":5,
						"path":"rotation"
					}
				},
				{
					"sampler":17,
					"target":{
						"node":5,
						"path":"scale"
					}
				},
				{
					"sampler":18,
					"target":{
						"node":4,
						"path":"translation"
					}
				},
				{
					"sampler":19,
					"target":{
						"node":4,
						"path":"rotation"
					}
				},
				{
					"sampler":20,
					"target":{
						"node":4,
						"path":"scale"
					}
				},
				{
					"sampler":21,
					"target":{
						"node":7,
						"path":"translation"
					}
				},
				{
					"sampler":22,
					"target":{
						"node":7,
						"path":"rotation"
					}
				},
				{
					"sampler":23,
					"target":{
						"node":7,
						"path":"scale"
					}
				},
				{
					"sampler":24,
					"target":{
						"node":6,
						"path":"translation"
					}
				},
				{
					"sampler":25,
					"target":{
						"node":6,
						"path":"rotation"
					}
				},
				{
					"sampler":26,
					"target":{
						"node":6,
						"path":"scale"
					}
				},
				{
					"sampler":27,
					"target":{
						"node":8,
						"path":"translation"
					}
				},
				{
					"sampler":28,
					"target":{
						"node":8,
						"path":"rotation"
					}
				},
				{
					"sampler":29,
					"target":{
						"node":8,
						"path":"scale"
					}
				},
				{
					"sampler":30,
					"target":{
						"node":9,
						"path":"translation"
					}
				},
				{
					"sampler":31,
					"target":{
						"node":9,
						"path":"rotation"
					}
				},
				{
					"sampler":32,
					"target":{
						"node":9,
						"path":"scale"
					}
				},
				{
					"sampler":33,
					"target":{
						"node":10,
						"path":"translation"
					}
				},
				{
					"sampler":34,
					"target":{
						"node":10,
						"path":"rotation"
					}
				},
				{
					"sampler":35,
					"target":{
						"node":10,
						"path":"scale"
					}
				},
				{
					"sampler":36,
					"target":{
						"node":11,
						"path":"translation"
					}
				},
				{
					"sampler":37,
					"target":{
						"node":11,
						"path":"rotation"
					}
				},
				{
					"sampler":38,
					"target":{
						"node":11,
						"path":"scale"
					}
				},
				{
					"sampler":39,
					"target":{
						"node":12,
						"path":"translation"
					}
				},
				{
					"sampler":40,
					"target":{
						"node":12,
						"path":"rotation"
					}
				},
				{
					"sampler":41,
					"target":{
						"node":12,
						"path":"scale"
					}
				},
				{
					"sampler":42,
					"target":{
						"node":14,
						"path":"translation"
					}
				},
				{
					"sampler":43,
					"target":{
						"node":14,
						"path":"rotation"
					}
				},
				{
					"sampler":44,
					"target":{
						"node":14,
						"path":"scale"
					}
				},
				{
					"sampler":45,
					"target":{
						"node":13,
						"path":"translation"
					}
				},
				{
					"sampler":46,
					"target":{
						"node":13,
						"path":"rotation"
					}
				},
				{
					"sampler":47,
					"target":{
						"node":13,
						"path":"scale"
					}
				}
			],
			"name":"naturalizer_standdown",
			"samplers":[
				{
					"input":49,
					"interpolation":"STEP",
					"output":8
				},
				{
					"input":49,
					"interpolation":"STEP",
					"output":9
				},
				{
					"input":49,
					"interpolation":"STEP",
					"output":10
				},
				{
					"input":49,
					"interpolation":"STEP",
					"output":11
				},
				{
					"input":49,
					"interpolation":"STEP",
					"output":12
				},
				{
					"input":49,
					"interpolation":"STEP",
					"output":13
				},
				{
					"input":49,
					"interpolation":"STEP",
					"output":14
				},
				{
					"input":49,
					"interpolation":"STEP",
					"output":15
				},
				{
					"input":49,
					"interpolation":"STEP",
					"output":16
				},
				{
					"input":49,
					"interpolation":"STEP",
					"output":17
				},
				{
					"input":49,
					"interpolation":"STEP",
					"output":18
				},
				{
					"input":49,
					"interpolation":"STEP",
					"output":19
				},
				{
					"input":49,
					"interpolation":"STEP",
					"output":20
				},
				{
					"input":49,
					"interpolation":"STEP",
					"output":21
				},
				{
					"input":49,
					"interpolation":"STEP",
					"output":22
				},
				{
					"input":49,
					"interpolation":"STEP",
					"output":23
				},
				{
					"input":49,
					"interpolation":"STEP",
					"output":24
				},
				{
					"input":49,
					"interpolation":"STEP",
					"output":13
				},
				{
					"input":49,
					"interpolation":"STEP",
					"output":25
				},
				{
					"input":49,
					"interpolation":"STEP",
					"output":26
				},
				{
					"input":49,
					"interpolation":"STEP",
					"output":16
				},
				{
					"input":49,
					"interpolation":"STEP",
					"output":27
				},
				{
					"input":49,
					"interpolation":"STEP",
					"output":28
				},
				{
					"input":49,
					"interpolation":"STEP",
					"output":19
				},
				{
					"input":49,
					"interpolation":"STEP",
					"output":29
				},
				{
					"input":49,
					"interpolation":"STEP",
					"output":30
				},
				{
					"input":49,
					"interpolation":"STEP",
					"output":22
				},
				{
					"input":49,
					"interpolation":"STEP",
					"output":31
				},
				{
					"input":49,
					"interpolation":"STEP",
					"output":9
				},
				{
					"input":50,
					"interpolation":"LINEAR",
					"output":51
				},
				{
					"input":49,
					"interpolation":"STEP",
					"output":34
				},
				{
					"input":49,
					"interpolation":"STEP",
					"output":9
				},
				{
					"input":50,
					"interpolation":"LINEAR",
					"output":51
				},
				{
					"input":49,
					"interpolation":"STEP",
					"output":35
				},
				{
					"input":49,
					"interpolation":"STEP",
					"output":9
				},
				{
					"input":50,
					"interpolation":"LINEAR",
					"output":52
				},
				{
					"input":49,
					"interpolation":"STEP",
					"output":37
				},
				{
					"input":49,
					"interpolation":"STEP",
					"output":9
				},
				{
					"input":50,
					"interpolation":"LINEAR",
					"output":52
				},
				{
					"input":49,
					"interpolation":"STEP",
					"output":38
				},
				{
					"input":49,
					"interpolation":"STEP",
					"output":9
				},
				{
					"input":50,
					"interpolation":"LINEAR",
					"output":52
				},
				{
					"input":49,
					"interpolation":"STEP",
					"output":40
				},
				{
					"input":49,
					"interpolation":"STEP",
					"output":41
				},
				{
					"input":49,
					"interpolation":"STEP",
					"output":10
				},
				{
					"input":49,
					"interpolation":"STEP",
					"output":42
				},
				{
					"input":49,
					"interpolation":"STEP",
					"output":43
				},
				{
					"input":50,
					"interpolation":"LINEAR",
					"output":53
				}
			]
		}
	],
	"materials":[
		{
			"alphaMode":"MASK",
			"doubleSided":true,
			"emissiveFactor":[
				1,
				1,
				1
			],
			"emissiveTexture":{
				"index":0
			},
			"extensions":{
				"KHR_materials_emissive_strength":{
					"emissiveStrength":4
				}
			},
			"name":"NaturalizerRiggedTex",
			"pbrMetallicRoughness":{
				"baseColorTexture":{
					"index":1
				},
				"metallicFactor":0,
				"roughnessFactor":0.8999999761581421
			}
		}
	],
	"meshes":[
		{
			"name":"NaturalizerRigged",
			"primitives":[
				{
					"attributes":{
						"POSITION":0,
						"NORMAL":1,
						"TEXCOORD_0":2,
						"JOINTS_0":3,
						"WEIGHTS_0":4
					},
					"indices":5,
					"material":0
				}
			]
		}
	],
	"textures":[
		{
			"sampler":0,
			"source":0
		},
		{
			"sampler":0,
			"source":1
		}
	],
	"images":[
		{
			"mimeType":"image/png",
			"name":"NaturalizerRigged_emissive",
			"uri":"NaturalizerRigged_emissive.png"
		},
		{
			"mimeType":"image/png",
			"name":"NaturalizerRigged_tex",
			"uri":"NaturalizerRigged_tex.png"
		}
	],
	"skins":[
		{
			"inverseBindMatrices":6,
			"joints":[
				15,
				1,
				0,
				3,
				2,
				5,
				4,
				7,
				6,
				8,
				9,
				10,
				11,
				12,
				14,
				13
			],
			"name":"Naturalizer_Armature"
		}
	],
	"accessors":[
		{
			"bufferView":0,
			"componentType":5126,
			"count":957,
			"max":[
				0.7041172981262207,
				0.550000011920929,
				0.8229089379310608
			],
			"min":[
				-0.7041172981262207,
				-0.0056237466633319855,
				-0.6029173135757446
			],
			"type":"VEC3"
		},
		{
			"bufferView":1,
			"componentType":5126,
			"count":957,
			"type":"VEC3"
		},
		{
			"bufferView":2,
			"componentType":5126,
			"count":957,
			"type":"VEC2"
		},
		{
			"bufferView":3,
			"componentType":5121,
			"count":957,
			"type":"VEC4"
		},
		{
			"bufferView":4,
			"componentType":5126,
			"count":957,
			"type":"VEC4"
		},
		{
			"bufferView":5,
			"componentType":5123,
			"count":1533,
			"type":"SCALAR"
		},
		{
			"bufferView":6,
			"componentType":5126,
			"count":16,
			"type":"MAT4"
		},
		{
			"bufferView":7,
			"componentType":5126,
			"count":2,
			"max":[
				0.3333333333333333
			],
			"min":[
				0.041666666666666664
			],
			"type":"SCALAR"
		},
		{
			"bufferView":8,
			"componentType":5126,
			"count":2,
			"type":"VEC3"
		},
		{
			"bufferView":9,
			"componentType":5126,
			"count":2,
			"type":"VEC4"
		},
		{
			"bufferView":10,
			"componentType":5126,
			"count":2,
			"type":"VEC3"
		},
		{
			"bufferView":11,
			"componentType":5126,
			"count":2,
			"type":"VEC3"
		},
		{
			"bufferView":12,
			"componentType":5126,
			"count":2,
			"type":"VEC4"
		},
		{
			"bufferView":13,
			"componentType":5126,
			"count":2,
			"type":"VEC3"
		},
		{
			"bufferView":14,
			"componentType":5126,
			"count":2,
			"type":"VEC3"
		},
		{
			"bufferView":15,
			"componentType":5126,
			"count":2,
			"type":"VEC4"
		},
		{
			"bufferView":16,
			"componentType":5126,
			"count":2,
			"type":"VEC3"
		},
		{
			"bufferView":17,
			"componentType":5126,
			"count":2,
			"type":"VEC3"
		},
		{
			"bufferView":18,
			"componentType":5126,
			"count":2,
			"type":"VEC4"
		},
		{
			"bufferView":19,
			"componentType":5126,
			"count":2,
			"type":"VEC3"
		},
		{
			"bufferView":20,
			"componentType":5126,
			"count":2,
			"type":"VEC3"
		},
		{
			"bufferView":21,
			"componentType":5126,
			"count":2,
			"type":"VEC4"
		},
		{
			"bufferView":22,
			"componentType":5126,
			"count":2,
			"type":"VEC3"
		},
		{
			"bufferView":23,
			"componentType":5126,
			"count":2,
			"type":"VEC3"
		},
		{
			"bufferView":24,
			"componentType":5126,
			"count":2,
			"type":"VEC4"
		},
		{
			"bufferView":25,
			"componentType":5126,
			"count":2,
			"type":"VEC3"
		},
		{
			"bufferView":26,
			"componentType":5126,
			"count":2,
			"type":"VEC4"
		},
		{
			"bufferView":27,
			"componentType":5126,
			"count":2,
			"type":"VEC3"
		},
		{
			"bufferView":28,
			"componentType":5126,
			"count":2,
			"type":"VEC4"
		},
		{
			"bufferView":29,
			"componentType":5126,
			"count":2,
			"type":"VEC3"
		},
		{
			"bufferView":30,
			"componentType":5126,
			"count":2,
			"type":"VEC4"
		},
		{
			"bufferView":31,
			"componentType":5126,
			"count":2,
			"type":"VEC3"
		},
		{
			"bufferView":32,
			"componentType":5126,
			"count":8,
			"max":[
				0.3333333333333333
			],
			"min":[
				0.041666666666666664
			],
			"type":"SCALAR"
		},
		{
			"bufferView":33,
			"componentType":5126,
			"count":8,
			"type":"VEC3"
		},
		{
			"bufferView":34,
			"componentType":5126,
			"count":2,
			"type":"VEC3"
		},
		{
			"bufferView":35,
			"componentType":5126,
			"count":2,
			"type":"VEC3"
		},
		{
			"bufferView":36,
			"componentType":5126,
			"count":8,
			"type":"VEC3"
		},
		{
			"bufferView":37,
			"componentType":5126,
			"count":2,
			"type":"VEC3"
		},
		{
			"bufferView":38,
			"componentType":5126,
			"count":2,
			"type":"VEC3"
		},
		{
			"bufferView":39,
			"componentType":5126,
			"count":8,
			"type":"VEC3"
		},
		{
			"bufferView":40,
			"componentType":5126,
			"count":2,
			"type":"VEC3"
		},
		{
			"bufferView":41,
			"componentType":5126,
			"count":2,
			"type":"VEC4"
		},
		{
			"bufferView":42,
			"componentType":5126,
			"count":2,
			"type":"VEC3"
		},
		{
			"bufferView":43,
			"componentType":5126,
			"count":2,
			"type":"VEC4"
		},
		{
			"bufferView":44,
			"componentType":5126,
			"count":8,
			"type":"VEC3"
		},
		{
			"bufferView":45,
			"componentType":5126,
			"count":2,
			"max":[
				0.5
			],
			"min":[
				0.041666666666666664
			],
			"type":"SCALAR"
		},
		{
			"bufferView":46,
			"componentType":5126,
			"count":12,
			"max":[
				0.5
			],
			"min":[
				0.041666666666666664
			],
			"type":"SCALAR"
		},
		{
			"bufferView":47,
			"componentType":5126,
			"count":12,
			"type":"VEC3"
		},
		{
			"bufferView":48,
			"componentType":5126,
			"count":12,
			"type":"VEC3"
		},
		{
			"bufferView":49,
			"componentType":5126,
			"count":2,
			"max":[
				0.5833333333333334
			],
			"min":[
				0.041666666666666664
			],
			"type":"SCALAR"
		},
		{
			"bufferView":50,
			"componentType":5126,
			"count":14,
			"max":[
				0.5833333333333334
			],
			"min":[
				0.041666666666666664
			],
			"type":"SCALAR"
		},
		{
			"bufferView":51,
			"componentType":5126,
			"count":14,
			"type":"VEC3"
		},
		{
			"bufferView":52,
			"componentType":5126,
			"count":14,
			"type":"VEC3"
		},
		{
			"bufferView":53,
			"componentType":5126,
			"count":14,
			"type":"VEC3"
		}
	],
	"bufferViews":[
		{
			"buffer":0,
			"byteLength":11484,
			"byteOffset":0,
			"target":34962
		},
		{
			"buffer":0,
			"byteLength":11484,
			"byteOffset":11484,
			"target":34962
		},
		{
			"buffer":0,
			"byteLength":7656,
			"byteOffset":22968,
			"target":34962
		},
		{
			"buffer":0,
			"byteLength":3828,
			"byteOffset":30624,
			"target":34962
		},
		{
			"buffer":0,
			"byteLength":15312,
			"byteOffset":34452,
			"target":34962
		},
		{
			"buffer":0,
			"byteLength":3066,
			"byteOffset":49764,
			"target":34963
		},
		{
			"buffer":0,
			"byteLength":1024,
			"byteOffset":52832
		},
		{
			"buffer":0,
			"byteLength":8,
			"byteOffset":53856
		},
		{
			"buffer":0,
			"byteLength":24,
			"byteOffset":53864
		},
		{
			"buffer":0,
			"byteLength":32,
			"byteOffset":53888
		},
		{
			"buffer":0,
			"byteLength":24,
			"byteOffset":53920
		},
		{
			"buffer":0,
			"byteLength":24,
			"byteOffset":53944
		},
		{
			"buffer":0,
			"byteLength":32,
			"byteOffset":53968
		},
		{
			"buffer":0,
			"byteLength":24,
			"byteOffset":54000
		},
		{
			"buffer":0,
			"byteLength":24,
			"byteOffset":54024
		},
		{
			"buffer":0,
			"byteLength":32,
			"byteOffset":54048
		},
		{
			"buffer":0,
			"byteLength":24,
			"byteOffset":54080
		},
		{
			"buffer":0,
			"byteLength":24,
			"byteOffset":54104
		},
		{
			"buffer":0,
			"byteLength":32,
			"byteOffset":54128
		},
		{
			"buffer":0,
			"byteLength":24,
			"byteOffset":54160
		},
		{
			"buffer":0,
			"byteLength":24,
			"byteOffset":54184
		},
		{
			"buffer":0,
			"byteLength":32,
			"byteOffset":54208
		},
		{
			"buffer":0,
			"byteLength":24,
			"byteOffset":54240
		},
		{
			"buffer":0,
			"byteLength":24,
			"byteOffset":54264
		},
		{
			"buffer":0,
			"byteLength":32,
			"byteOffset":54288
		},
		{
			"buffer":0,
			"byteLength":24,
			"byteOffset":54320
		},
		{
			"buffer":0,
			"byteLength":32,
			"byteOffset":54344
		},
		{
			"buffer":0,
			"byteLength":24,
			"byteOffset":54376
		},
		{
			"buffer":0,
			"byteLength":32,
			"byteOffset":54400
		},
		{
			"buffer":0,
			"byteLength":24,
			"byteOffset":54432
		},
		{
			"buffer":0,
			"byteLength":32,
			"byteOffset":54456
		},
		{
			"buffer":0,
			"byteLength":24,
			"byteOffset":54488
		},
		{
			"buffer":0,
			"byteLength":32,
			"byteOffset":54512
		},
		{
			"buffer":0,
			"byteLength":96,
			"byteOffset":54544
		},
		{
			"buffer":0,
			"byteLength":24,
			"byteOffset":54640
		},
		{
			"buffer":0,
			"byteLength":24,
			"byteOffset":54664
		},
		{
			"buffer":0,
			"byteLength":96,
			"byteOffset":54688
		},
		{
			"buffer":0,
			"byteLength":24,
			"byteOffset":54784
		},
		{
			"buffer":0,
			"byteLength":24,
			"byteOffset":54808
		},
		{
			"buffer":0,
			"byteLength":96,
			"byteOffset":54832
		},
		{
			"buffer":0,
			"byteLength":24,
			"byteOffset":54928
		},
		{
			"buffer":0,
			"byteLength":32,
			"byteOffset":54952
		},
		{
			"buffer":0,
			"byteLength":24,
			"byteOffset":54984
		},
		{
			"buffer":0,
			"byteLength":32,
			"byteOffset":55008
		},
		{
			"buffer":0,
			"byteLength":96,
			"byteOffset":55040
		},
		{
			"buffer":0,
			"byteLength":8,
			"byteOffset":55136
		},
		{
			"buffer":0,
			"byteLength":48,
			"byteOffset":55144
		},
		{
			"buffer":0,
			"byteLength":144,
			"byteOffset":55192
		},
		{
			"buffer":0,
			"byteLength":144,
			"byteOffset":55336
		},
		{
			"buffer":0,
			"byteLength":8,
			"byteOffset":55480
		},
		{
			"buffer":0,
			"byteLength":56,
			"byteOffset":55488
		},
		{
			"buffer":0,
			"byteLength":168,
			"byteOffset":55544
		},
		{
			"buffer":0,
			"byteLength":168,
			"byteOffset":55712
		},
		{
			"buffer":0,
			"byteLength":168,
			"byteOffset":55880
		}
	],
	"samplers":[
		{
			"magFilter":9728,
			"minFilter":9984
		}
	],
	"buffers":[
		{
			"byteLength":56048,
			"uri":"naturalizer.bin"
		}
	]
}
