{
	"asset":{
		"generator":"Khronos glTF Blender I/O v5.1.19",
		"version":"2.0"
	},
	"extensionsUsed":[
		"KHR_materials_emissive_strength"
	],
	"scene":0,
	"scenes":[
		{
			"name":"Scene",
			"nodes":[
				33
			]
		}
	],
	"nodes":[
		{
			"name":"leg0_2",
			"rotation":[
				-0.10107894986867905,
				0.1060125082731247,
				-0.3831591010093689,
				0.9119942784309387
			],
			"scale":[
				1.0000001192092896,
				1.0000001192092896,
				0.9999999403953552
			],
			"translation":[
				-4.470348358154297e-08,
				0.28913643956184387,
				-8.940696716308594e-08
			]
		},
		{
			"children":[
				0
			],
			"name":"leg0_1",
			"rotation":[
				-0.8048690557479858,
				0.10550782829523087,
				-0.3572557270526886,
				0.46197643876075745
			],
			"scale":[
				1.0000001192092896,
				1.0000001192092896,
				1.0000001192092896
			],
			"translation":[
				-1.5366822481155396e-07,
				0.2714700400829315,
				1.0617077350616455e-07
			]
		},
		{
			"children":[
				1
			],
			"name":"leg0_0",
			"rotation":[
				-0.24657820165157318,
				0.23473459482192993,
				0.9257773160934448,
				0.16442374885082245
			],
			"scale":[
				0.3399999737739563,
				0.3399999737739563,
				0.3399999737739563
			],
			"translation":[
				0.07088001072406769,
				0.004999990109354258,
				9.313225746154785e-10
			]
		},
		{
			"name":"leg3_2",
			"rotation":[
				-0.10107895731925964,
				-0.10601255297660828,
				0.3831591010093689,
				0.9119942784309387
			],
			"scale":[
				1,
				1.0000001192092896,
				0.9999999403953552
			],
			"translation":[
				-5.960464477539063e-08,
				0.28913670778274536,
				4.470348358154297e-08
			]
		},
		{
			"children":[
				3
			],
			"name":"leg3_1",
			"rotation":[
				-0.8048690557479858,
				-0.10550782829523087,
				0.3572557866573334,
				0.46197646856307983
			],
			"scale":[
				1,
				1,
				0.9999999403953552
			],
			"translation":[
				-2.9802322387695312e-08,
				0.27147001028060913,
				4.470348358154297e-08
			]
		},
		{
			"children":[
				4
			],
			"name":"leg3_0",
			"rotation":[
				-0.2465781569480896,
				-0.23473455011844635,
				-0.9257773756980896,
				0.16442373394966125
			],
			"scale":[
				0.3399999737739563,
				0.3399999439716339,
				0.3399999737739563
			],
			"translation":[
				-0.0708799958229065,
				0.004999996162950993,
				3.585591912269592e-08
			]
		},
		{
			"name":"orb8_0",
			"rotation":[
				2.8136053487060053e-08,
				0.7071067690849304,
				0.7071067690849304,
				3.665725856194513e-08
			],
			"scale":[
				0.0010000000474974513,
				0.0010000000474974513,
				0.0010000000474974513
			],
			"translation":[
				4.6566128730773926e-09,
				0.02499997988343239,
				0.0349629670381546
			]
		},
		{
			"name":"tip_0",
			"rotation":[
				1.629623547216852e-08,
				0.9417954683303833,
				0.33618637919425964,
				4.2973780978172726e-08
			],
			"scale":[
				0.0010000000474974513,
				0.0010000001639127731,
				0.0010000000474974513
			],
			"translation":[
				3.725290298461914e-09,
				0.28999996185302734,
				-0.025000015273690224
			]
		},
		{
			"children":[
				2,
				5,
				6,
				7
			],
			"name":"cara_3",
			"rotation":[
				0.07988971471786499,
				0.0019976627081632614,
				0.024917449802160263,
				0.9964902400970459
			],
			"scale":[
				0.9999999403953552,
				0.9999998807907104,
				0.9999999403953552
			],
			"translation":[
				1.280568540096283e-09,
				0.26499998569488525,
				1.2165401130914688e-08
			]
		},
		{
			"name":"leg1_2",
			"rotation":[
				-0.10107892006635666,
				0.10601253062486649,
				-0.3831591308116913,
				0.9119942784309387
			],
			"scale":[
				1,
				0.9999999403953552,
				0.9999999403953552
			],
			"translation":[
				-2.2351741790771484e-08,
				0.28913676738739014,
				5.960464477539063e-08
			]
		},
		{
			"children":[
				9
			],
			"name":"leg1_1",
			"rotation":[
				-0.8183103799819946,
				0.09677577763795853,
				-0.33879950642585754,
				0.4541117250919342
			],
			"scale":[
				1,
				1.0000001192092896,
				1
			],
			"translation":[
				-8.195638656616211e-08,
				0.2558017373085022,
				-5.21540641784668e-08
			]
		},
		{
			"children":[
				10
			],
			"name":"leg1_0",
			"rotation":[
				-0.2606584429740906,
				0.24813856184482574,
				0.9158678650856018,
				0.17796218395233154
			],
			"scale":[
				0.3400000035762787,
				0.3400000035762787,
				0.3399999737739563
			],
			"translation":[
				0.0896800085902214,
				0.10999999195337296,
				2.293381839990616e-08
			]
		},
		{
			"name":"leg4_2",
			"rotation":[
				-0.10107890516519547,
				-0.10601254552602768,
				0.3831591010093689,
				0.9119942784309387
			],
			"scale":[
				1.0000001192092896,
				1,
				1
			],
			"translation":[
				-1.4901161193847656e-08,
				0.2891366481781006,
				1.4901161193847656e-08
			]
		},
		{
			"children":[
				12
			],
			"name":"leg4_1",
			"rotation":[
				-0.8183103799819946,
				-0.09677574783563614,
				0.33879953622817993,
				0.4541117548942566
			],
			"scale":[
				0.9999999403953552,
				1,
				1
			],
			"translation":[
				1.4901161193847656e-08,
				0.2558017373085022,
				8.940696716308594e-08
			]
		},
		{
			"children":[
				13
			],
			"name":"leg4_0",
			"rotation":[
				-0.2606584131717682,
				-0.24813856184482574,
				-0.9158678650856018,
				0.17796216905117035
			],
			"scale":[
				0.3400000035762787,
				0.3399999737739563,
				0.3400000035762787
			],
			"translation":[
				-0.08967999368906021,
				0.10999999940395355,
				-2.0256265997886658e-08
			]
		},
		{
			"name":"orb6_0",
			"rotation":[
				3.4768124379525034e-08,
				0.7071067690849304,
				0.7071067690849304,
				2.79551795046018e-08
			],
			"scale":[
				0.0010000000474974513,
				0.0010000000474974513,
				0.0010000000474974513
			],
			"translation":[
				0.0559999980032444,
				0.13999995589256287,
				0.05573331564664841
			]
		},
		{
			"name":"orb7_0",
			"rotation":[
				3.4768124379525034e-08,
				0.7071067690849304,
				0.7071067690849304,
				2.79551795046018e-08
			],
			"scale":[
				0.0010000000474974513,
				0.0010000000474974513,
				0.0010000000474974513
			],
			"translation":[
				-0.056000005453825,
				0.13999998569488525,
				0.05573330447077751
			]
		},
		{
			"children":[
				8,
				11,
				14,
				15,
				16
			],
			"name":"cara_2",
			"rotation":[
				0.07988972961902618,
				0.0019976599141955376,
				0.024917449802160263,
				0.9964902400970459
			],
			"scale":[
				1,
				0.9999999403953552,
				0.9999999403953552
			],
			"translation":[
				6.402842700481415e-10,
				0.26499998569488525,
				-3.247987478971481e-08
			]
		},
		{
			"name":"leg2_2",
			"rotation":[
				-0.10107889026403427,
				0.1060125008225441,
				-0.3831591010093689,
				0.9119942784309387
			],
			"scale":[
				1.0000001192092896,
				1,
				1.0000001192092896
			],
			"translation":[
				1.4901161193847656e-08,
				0.2891365587711334,
				4.470348358154297e-08
			]
		},
		{
			"children":[
				18
			],
			"name":"leg2_1",
			"rotation":[
				-0.8270192742347717,
				0.09065425395965576,
				-0.3260420262813568,
				0.4489069879055023
			],
			"scale":[
				1,
				1.0000001192092896,
				1
			],
			"translation":[
				2.2351741790771484e-08,
				0.24635261297225952,
				-1.4901161193847656e-08
			]
		},
		{
			"children":[
				19
			],
			"name":"leg2_0",
			"rotation":[
				-0.2699570059776306,
				0.2569904327392578,
				0.9088268876075745,
				0.1873839646577835
			],
			"scale":[
				0.3400000035762787,
				0.3400000035762787,
				0.3400000035762787
			],
			"translation":[
				0.10127999633550644,
				0.2149999886751175,
				-1.2980308383703232e-08
			]
		},
		{
			"name":"leg5_2",
			"rotation":[
				-0.10107887536287308,
				-0.10601247847080231,
				0.3831591308116913,
				0.9119942784309387
			],
			"scale":[
				1,
				1,
				1.0000001192092896
			],
			"translation":[
				0,
				0.2891365587711334,
				-7.450580596923828e-08
			]
		},
		{
			"children":[
				21
			],
			"name":"leg5_1",
			"rotation":[
				-0.8270193338394165,
				-0.09065429121255875,
				0.3260419964790344,
				0.4489069879055023
			],
			"translation":[
				2.2351741790771484e-08,
				0.2463526874780655,
				8.940696716308594e-08
			]
		},
		{
			"children":[
				22
			],
			"name":"leg5_0",
			"rotation":[
				-0.2699569761753082,
				-0.2569904327392578,
				-0.9088268876075745,
				0.1873839646577835
			],
			"scale":[
				0.3400000035762787,
				0.3400000035762787,
				0.3400000333786011
			],
			"translation":[
				-0.10128000378608704,
				0.2149999886751175,
				-4.336470738053322e-08
			]
		},
		{
			"name":"orb2_0",
			"rotation":[
				3.016586802573329e-08,
				0.7071067690849304,
				0.7071067690849304,
				3.057786202020907e-08
			],
			"scale":[
				0.0010000000474974513,
				0.0010000000474974513,
				0.0010000000474974513
			],
			"translation":[
				0.0820000022649765,
				0.07499998807907104,
				0.07659254968166351
			]
		},
		{
			"name":"orb3_0",
			"rotation":[
				3.016586802573329e-08,
				0.7071067690849304,
				0.7071067690849304,
				3.057786202020907e-08
			],
			"scale":[
				0.0010000000474974513,
				0.0010000000474974513,
				0.0010000000474974513
			],
			"translation":[
				-0.0820000097155571,
				0.07499998062849045,
				0.07659254968166351
			]
		},
		{
			"name":"orb4_0",
			"rotation":[
				3.016586802573329e-08,
				0.7071067690849304,
				0.7071067690849304,
				3.057786202020907e-08
			],
			"scale":[
				0.0010000000474974513,
				0.0010000000474974513,
				0.0010000000474974513
			],
			"translation":[
				0.07199999690055847,
				0.2449999749660492,
				0.07039996981620789
			]
		},
		{
			"name":"orb5_0",
			"rotation":[
				3.016586802573329e-08,
				0.7071067690849304,
				0.7071067690849304,
				3.057786202020907e-08
			],
			"scale":[
				0.0010000000474974513,
				0.0010000000474974513,
				0.0010000000474974513
			],
			"translation":[
				-0.07199998944997787,
				0.2449999749660492,
				0.07039998471736908
			]
		},
		{
			"children":[
				17,
				20,
				23,
				24,
				25,
				26,
				27
			],
			"name":"cara_1",
			"rotation":[
				0.07988972216844559,
				0.001997659681364894,
				0.024917447939515114,
				0.9964902400970459
			],
			"scale":[
				1,
				0.9999999403953552,
				0.9999998807907104
			],
			"translation":[
				0,
				0.26499995589256287,
				2.6891939342021942e-08
			]
		},
		{
			"name":"orb0_0",
			"rotation":[
				3.090861255827804e-08,
				0.7071067690849304,
				0.7071067690849304,
				3.0908619663705394e-08
			],
			"scale":[
				0.0010000000474974513,
				0.0009999999310821295,
				0.0009999999310821295
			],
			"translation":[
				0.07500000298023224,
				0.16999995708465576,
				0.06666666269302368
			]
		},
		{
			"name":"orb1_0",
			"rotation":[
				3.090861255827804e-08,
				0.7071067690849304,
				0.7071067690849304,
				3.0908619663705394e-08
			],
			"scale":[
				0.0010000000474974513,
				0.0009999999310821295,
				0.0009999999310821295
			],
			"translation":[
				-0.07500000298023224,
				0.16999995708465576,
				0.06666666269302368
			]
		},
		{
			"children":[
				28,
				29,
				30
			],
			"name":"cara_0",
			"rotation":[
				0,
				0.024599356576800346,
				-0.9996973872184753,
				0
			],
			"translation":[
				0,
				0.30000001192092896,
				-0.5
			]
		},
		{
			"mesh":0,
			"name":"RedactorRigged",
			"skin":0
		},
		{
			"children":[
				32,
				31
			],
			"name":"Redactor_Armature"
		}
	],
	"animations":[
		{
			"channels":[
				{
					"sampler":0,
					"target":{
						"node":31,
						"path":"translation"
					}
				},
				{
					"sampler":1,
					"target":{
						"node":31,
						"path":"rotation"
					}
				},
				{
					"sampler":2,
					"target":{
						"node":31,
						"path":"scale"
					}
				},
				{
					"sampler":3,
					"target":{
						"node":28,
						"path":"translation"
					}
				},
				{
					"sampler":4,
					"target":{
						"node":28,
						"path":"rotation"
					}
				},
				{
					"sampler":5,
					"target":{
						"node":28,
						"path":"scale"
					}
				},
				{
					"sampler":6,
					"target":{
						"node":17,
						"path":"translation"
					}
				},
				{
					"sampler":7,
					"target":{
						"node":17,
						"path":"rotation"
					}
				},
				{
					"sampler":8,
					"target":{
						"node":17,
						"path":"scale"
					}
				},
				{
					"sampler":9,
					"target":{
						"node":8,
						"path":"translation"
					}
				},
				{
					"sampler":10,
					"target":{
						"node":8,
						"path":"rotation"
					}
				},
				{
					"sampler":11,
					"target":{
						"node":8,
						"path":"scale"
					}
				},
				{
					"sampler":12,
					"target":{
						"node":2,
						"path":"translation"
					}
				},
				{
					"sampler":13,
					"target":{
						"node":2,
						"path":"rotation"
					}
				},
				{
					"sampler":14,
					"target":{
						"node":2,
						"path":"scale"
					}
				},
				{
					"sampler":15,
					"target":{
						"node":1,
						"path":"translation"
					}
				},
				{
					"sampler":16,
					"target":{
						"node":1,
						"path":"rotation"
					}
				},
				{
					"sampler":17,
					"target":{
						"node":1,
						"path":"scale"
					}
				},
				{
					"sampler":18,
					"target":{
						"node":0,
						"path":"translation"
					}
				},
				{
					"sampler":19,
					"target":{
						"node":0,
						"path":"rotation"
					}
				},
				{
					"sampler":20,
					"target":{
						"node":0,
						"path":"scale"
					}
				},
				{
					"sampler":21,
					"target":{
						"node":5,
						"path":"translation"
					}
				},
				{
					"sampler":22,
					"target":{
						"node":5,
						"path":"rotation"
					}
				},
				{
					"sampler":23,
					"target":{
						"node":5,
						"path":"scale"
					}
				},
				{
					"sampler":24,
					"target":{
						"node":4,
						"path":"translation"
					}
				},
				{
					"sampler":25,
					"target":{
						"node":4,
						"path":"rotation"
					}
				},
				{
					"sampler":26,
					"target":{
						"node":4,
						"path":"scale"
					}
				},
				{
					"sampler":27,
					"target":{
						"node":3,
						"path":"translation"
					}
				},
				{
					"sampler":28,
					"target":{
						"node":3,
						"path":"rotation"
					}
				},
				{
					"sampler":29,
					"target":{
						"node":3,
						"path":"scale"
					}
				},
				{
					"sampler":30,
					"target":{
						"node":6,
						"path":"translation"
					}
				},
				{
					"sampler":31,
					"target":{
						"node":6,
						"path":"rotation"
					}
				},
				{
					"sampler":32,
					"target":{
						"node":6,
						"path":"scale"
					}
				},
				{
					"sampler":33,
					"target":{
						"node":7,
						"path":"translation"
					}
				},
				{
					"sampler":34,
					"target":{
						"node":7,
						"path":"rotation"
					}
				},
				{
					"sampler":35,
					"target":{
						"node":7,
						"path":"scale"
					}
				},
				{
					"sampler":36,
					"target":{
						"node":11,
						"path":"translation"
					}
				},
				{
					"sampler":37,
					"target":{
						"node":11,
						"path":"rotation"
					}
				},
				{
					"sampler":38,
					"target":{
						"node":11,
						"path":"scale"
					}
				},
				{
					"sampler":39,
					"target":{
						"node":10,
						"path":"translation"
					}
				},
				{
					"sampler":40,
					"target":{
						"node":10,
						"path":"rotation"
					}
				},
				{
					"sampler":41,
					"target":{
						"node":10,
						"path":"scale"
					}
				},
				{
					"sampler":42,
					"target":{
						"node":9,
						"path":"translation"
					}
				},
				{
					"sampler":43,
					"target":{
						"node":9,
						"path":"rotation"
					}
				},
				{
					"sampler":44,
					"target":{
						"node":9,
						"path":"scale"
					}
				},
				{
					"sampler":45,
					"target":{
						"node":14,
						"path":"translation"
					}
				},
				{
					"sampler":46,
					"target":{
						"node":14,
						"path":"rotation"
					}
				},
				{
					"sampler":47,
					"target":{
						"node":14,
						"path":"scale"
					}
				},
				{
					"sampler":48,
					"target":{
						"node":13,
						"path":"translation"
					}
				},
				{
					"sampler":49,
					"target":{
						"node":13,
						"path":"rotation"
					}
				},
				{
					"sampler":50,
					"target":{
						"node":13,
						"path":"scale"
					}
				},
				{
					"sampler":51,
					"target":{
						"node":12,
						"path":"translation"
					}
				},
				{
					"sampler":52,
					"target":{
						"node":12,
						"path":"rotation"
					}
				},
				{
					"sampler":53,
					"target":{
						"node":12,
						"path":"scale"
					}
				},
				{
					"sampler":54,
					"target":{
						"node":15,
						"path":"translation"
					}
				},
				{
					"sampler":55,
					"target":{
						"node":15,
						"path":"rotation"
					}
				},
				{
					"sampler":56,
					"target":{
						"node":15,
						"path":"scale"
					}
				},
				{
					"sampler":57,
					"target":{
						"node":16,
						"path":"translation"
					}
				},
				{
					"sampler":58,
					"target":{
						"node":16,
						"path":"rotation"
					}
				},
				{
					"sampler":59,
					"target":{
						"node":16,
						"path":"scale"
					}
				},
				{
					"sampler":60,
					"target":{
						"node":20,
						"path":"translation"
					}
				},
				{
					"sampler":61,
					"target":{
						"node":20,
						"path":"rotation"
					}
				},
				{
					"sampler":62,
					"target":{
						"node":20,
						"path":"scale"
					}
				},
				{
					"sampler":63,
					"target":{
						"node":19,
						"path":"translation"
					}
				},
				{
					"sampler":64,
					"target":{
						"node":19,
						"path":"rotation"
					}
				},
				{
					"sampler":65,
					"target":{
						"node":19,
						"path":"scale"
					}
				},
				{
					"sampler":66,
					"target":{
						"node":18,
						"path":"translation"
					}
				},
				{
					"sampler":67,
					"target":{
						"node":18,
						"path":"rotation"
					}
				},
				{
					"sampler":68,
					"target":{
						"node":18,
						"path":"scale"
					}
				},
				{
					"sampler":69,
					"target":{
						"node":23,
						"path":"translation"
					}
				},
				{
					"sampler":70,
					"target":{
						"node":23,
						"path":"rotation"
					}
				},
				{
					"sampler":71,
					"target":{
						"node":23,
						"path":"scale"
					}
				},
				{
					"sampler":72,
					"target":{
						"node":22,
						"path":"translation"
					}
				},
				{
					"sampler":73,
					"target":{
						"node":22,
						"path":"rotation"
					}
				},
				{
					"sampler":74,
					"target":{
						"node":22,
						"path":"scale"
					}
				},
				{
					"sampler":75,
					"target":{
						"node":21,
						"path":"translation"
					}
				},
				{
					"sampler":76,
					"target":{
						"node":21,
						"path":"rotation"
					}
				},
				{
					"sampler":77,
					"target":{
						"node":21,
						"path":"scale"
					}
				},
				{
					"sampler":78,
					"target":{
						"node":24,
						"path":"translation"
					}
				},
				{
					"sampler":79,
					"target":{
						"node":24,
						"path":"rotation"
					}
				},
				{
					"sampler":80,
					"target":{
						"node":24,
						"path":"scale"
					}
				},
				{
					"sampler":81,
					"target":{
						"node":25,
						"path":"translation"
					}
				},
				{
					"sampler":82,
					"target":{
						"node":25,
						"path":"rotation"
					}
				},
				{
					"sampler":83,
					"target":{
						"node":25,
						"path":"scale"
					}
				},
				{
					"sampler":84,
					"target":{
						"node":26,
						"path":"translation"
					}
				},
				{
					"sampler":85,
					"target":{
						"node":26,
						"path":"rotation"
					}
				},
				{
					"sampler":86,
					"target":{
						"node":26,
						"path":"scale"
					}
				},
				{
					"sampler":87,
					"target":{
						"node":27,
						"path":"translation"
					}
				},
				{
					"sampler":88,
					"target":{
						"node":27,
						"path":"rotation"
					}
				},
				{
					"sampler":89,
					"target":{
						"node":27,
						"path":"scale"
					}
				},
				{
					"sampler":90,
					"target":{
						"node":29,
						"path":"translation"
					}
				},
				{
					"sampler":91,
					"target":{
						"node":29,
						"path":"rotation"
					}
				},
				{
					"sampler":92,
					"target":{
						"node":29,
						"path":"scale"
					}
				},
				{
					"sampler":93,
					"target":{
						"node":30,
						"path":"translation"
					}
				},
				{
					"sampler":94,
					"target":{
						"node":30,
						"path":"rotation"
					}
				},
				{
					"sampler":95,
					"target":{
						"node":30,
						"path":"scale"
					}
				}
			],
			"name":"redactor_reveal",
			"samplers":[
				{
					"input":7,
					"interpolation":"STEP",
					"output":8
				},
				{
					"input":9,
					"interpolation":"LINEAR",
					"output":10
				},
				{
					"input":7,
					"interpolation":"STEP",
					"output":11
				},
				{
					"input":7,
					"interpolation":"STEP",
					"output":12
				},
				{
					"input":9,
					"interpolation":"LINEAR",
					"output":13
				},
				{
					"input":7,
					"interpolation":"STEP",
					"output":14
				},
				{
					"input":7,
					"interpolation":"STEP",
					"output":15
				},
				{
					"input":9,
					"interpolation":"LINEAR",
					"output":16
				},
				{
					"input":7,
					"interpolation":"STEP",
					"output":17
				},
				{
					"input":7,
					"interpolation":"STEP",
					"output":18
				},
				{
					"input":9,
					"interpolation":"LINEAR",
					"output":19
				},
				{
					"input":7,
					"interpolation":"STEP",
					"output":20
				},
				{
					"input":7,
					"interpolation":"STEP",
					"output":21
				},
				{
					"input":9,
					"interpolation":"LINEAR",
					"output":22
				},
				{
					"input":9,
					"interpolation":"LINEAR",
					"output":23
				},
				{
					"input":7,
					"interpolation":"STEP",
					"output":24
				},
				{
					"input":9,
					"interpolation":"LINEAR",
					"output":25
				},
				{
					"input":7,
					"interpolation":"STEP",
					"output":26
				},
				{
					"input":7,
					"interpolation":"STEP",
					"output":27
				},
				{
					"input":9,
					"interpolation":"LINEAR",
					"output":28
				},
				{
					"input":7,
					"interpolation":"STEP",
					"output":29
				},
				{
					"input":7,
					"interpolation":"STEP",
					"output":30
				},
				{
					"input":9,
					"interpolation":"LINEAR",
					"output":31
				},
				{
					"input":9,
					"interpolation":"LINEAR",
					"output":32
				},
				{
					"input":7,
					"interpolation":"STEP",
					"output":33
				},
				{
					"input":9,
					"interpolation":"LINEAR",
					"output":34
				},
				{
					"input":7,
					"interpolation":"STEP",
					"output":35
				},
				{
					"input":7,
					"interpolation":"STEP",
					"output":36
				},
				{
					"input":9,
					"interpolation":"LINEAR",
					"output":37
				},
				{
					"input":7,
					"interpolation":"STEP",
					"output":38
				},
				{
					"input":7,
					"interpolation":"STEP",
					"output":39
				},
				{
					"input":7,
					"interpolation":"STEP",
					"output":40
				},
				{
					"input":9,
					"interpolation":"LINEAR",
					"output":41
				},
				{
					"input":7,
					"interpolation":"STEP",
					"output":42
				},
				{
					"input":7,
					"interpolation":"STEP",
					"output":43
				},
				{
					"input":9,
					"interpolation":"LINEAR",
					"output":44
				},
				{
					"input":7,
					"interpolation":"STEP",
					"output":45
				},
				{
					"input":9,
					"interpolation":"LINEAR",
					"output":46
				},
				{
					"input":9,
					"interpolation":"LINEAR",
					"output":47
				},
				{
					"input":7,
					"interpolation":"STEP",
					"output":48
				},
				{
					"input":9,
					"interpolation":"LINEAR",
					"output":49
				},
				{
					"input":7,
					"interpolation":"STEP",
					"output":50
				},
				{
					"input":7,
					"interpolation":"STEP",
					"output":51
				},
				{
					"input":9,
					"interpolation":"LINEAR",
					"output":52
				},
				{
					"input":7,
					"interpolation":"STEP",
					"output":53
				},
				{
					"input":7,
					"interpolation":"STEP",
					"output":54
				},
				{
					"input":9,
					"interpolation":"LINEAR",
					"output":55
				},
				{
					"input":9,
					"interpolation":"LINEAR",
					"output":56
				},
				{
					"input":7,
					"interpolation":"STEP",
					"output":57
				},
				{
					"input":9,
					"interpolation":"LINEAR",
					"output":58
				},
				{
					"input":7,
					"interpolation":"STEP",
					"output":59
				},
				{
					"input":7,
					"interpolation":"STEP",
					"output":60
				},
				{
					"input":9,
					"interpolation":"LINEAR",
					"output":61
				},
				{
					"input":7,
					"interpolation":"STEP",
					"output":62
				},
				{
					"input":7,
					"interpolation":"STEP",
					"output":63
				},
				{
					"input":7,
					"interpolation":"STEP",
					"output":64
				},
				{
					"input":9,
					"interpolation":"LINEAR",
					"output":65
				},
				{
					"input":7,
					"interpolation":"STEP",
					"output":66
				},
				{
					"input":7,
					"interpolation":"STEP",
					"output":64
				},
				{
					"input":9,
					"interpolation":"LINEAR",
					"output":67
				},
				{
					"input":7,
					"interpolation":"STEP",
					"output":68
				},
				{
					"input":9,
					"interpolation":"LINEAR",
					"output":69
				},
				{
					"input":9,
					"interpolation":"LINEAR",
					"output":70
				},
				{
					"input":7,
					"interpolation":"STEP",
					"output":71
				},
				{
					"input":9,
					"interpolation":"LINEAR",
					"output":72
				},
				{
					"input":7,
					"interpolation":"STEP",
					"output":73
				},
				{
					"input":7,
					"interpolation":"STEP",
					"output":74
				},
				{
					"input":9,
					"interpolation":"LINEAR",
					"output":75
				},
				{
					"input":7,
					"interpolation":"STEP",
					"output":76
				},
				{
					"input":7,
					"interpolation":"STEP",
					"output":77
				},
				{
					"input":9,
					"interpolation":"LINEAR",
					"output":78
				},
				{
					"input":9,
					"interpolation":"LINEAR",
					"output":79
				},
				{
					"input":7,
					"interpolation":"STEP",
					"output":80
				},
				{
					"input":9,
					"interpolation":"LINEAR",
					"output":81
				},
				{
					"input":7,
					"interpolation":"STEP",
					"output":82
				},
				{
					"input":7,
					"interpolation":"STEP",
					"output":83
				},
				{
					"input":9,
					"interpolation":"LINEAR",
					"output":84
				},
				{
					"input":7,
					"interpolation":"STEP",
					"output":85
				},
				{
					"input":7,
					"interpolation":"STEP",
					"output":86
				},
				{
					"input":7,
					"interpolation":"STEP",
					"output":87
				},
				{
					"input":9,
					"interpolation":"LINEAR",
					"output":88
				},
				{
					"input":7,
					"interpolation":"STEP",
					"output":89
				},
				{
					"input":7,
					"interpolation":"STEP",
					"output":87
				},
				{
					"input":9,
					"interpolation":"LINEAR",
					"output":90
				},
				{
					"input":7,
					"interpolation":"STEP",
					"output":91
				},
				{
					"input":7,
					"interpolation":"STEP",
					"output":87
				},
				{
					"input":9,
					"interpolation":"LINEAR",
					"output":88
				},
				{
					"input":7,
					"interpolation":"STEP",
					"output":92
				},
				{
					"input":7,
					"interpolation":"STEP",
					"output":87
				},
				{
					"input":9,
					"interpolation":"LINEAR",
					"output":88
				},
				{
					"input":7,
					"interpolation":"STEP",
					"output":93
				},
				{
					"input":7,
					"interpolation":"STEP",
					"output":94
				},
				{
					"input":9,
					"interpolation":"LINEAR",
					"output":95
				},
				{
					"input":7,
					"interpolation":"STEP",
					"output":96
				},
				{
					"input":7,
					"interpolation":"STEP",
					"output":94
				},
				{
					"input":9,
					"interpolation":"LINEAR",
					"output":95
				}
			]
		},
		{
			"channels":[
				{
					"sampler":0,
					"target":{
						"node":31,
						"path":"translation"
					}
				},
				{
					"sampler":1,
					"target":{
						"node":31,
						"path":"rotation"
					}
				},
				{
					"sampler":2,
					"target":{
						"node":31,
						"path":"scale"
					}
				},
				{
					"sampler":3,
					"target":{
						"node":28,
						"path":"translation"
					}
				},
				{
					"sampler":4,
					"target":{
						"node":28,
						"path":"rotation"
					}
				},
				{
					"sampler":5,
					"target":{
						"node":28,
						"path":"scale"
					}
				},
				{
					"sampler":6,
					"target":{
						"node":17,
						"path":"translation"
					}
				},
				{
					"sampler":7,
					"target":{
						"node":17,
						"path":"rotation"
					}
				},
				{
					"sampler":8,
					"target":{
						"node":17,
						"path":"scale"
					}
				},
				{
					"sampler":9,
					"target":{
						"node":8,
						"path":"translation"
					}
				},
				{
					"sampler":10,
					"target":{
						"node":8,
						"path":"rotation"
					}
				},
				{
					"sampler":11,
					"target":{
						"node":8,
						"path":"scale"
					}
				},
				{
					"sampler":12,
					"target":{
						"node":2,
						"path":"translation"
					}
				},
				{
					"sampler":13,
					"target":{
						"node":2,
						"path":"rotation"
					}
				},
				{
					"sampler":14,
					"target":{
						"node":2,
						"path":"scale"
					}
				},
				{
					"sampler":15,
					"target":{
						"node":1,
						"path":"translation"
					}
				},
				{
					"sampler":16,
					"target":{
						"node":1,
						"path":"rotation"
					}
				},
				{
					"sampler":17,
					"target":{
						"node":1,
						"path":"scale"
					}
				},
				{
					"sampler":18,
					"target":{
						"node":0,
						"path":"translation"
					}
				},
				{
					"sampler":19,
					"target":{
						"node":0,
						"path":"rotation"
					}
				},
				{
					"sampler":20,
					"target":{
						"node":0,
						"path":"scale"
					}
				},
				{
					"sampler":21,
					"target":{
						"node":5,
						"path":"translation"
					}
				},
				{
					"sampler":22,
					"target":{
						"node":5,
						"path":"rotation"
					}
				},
				{
					"sampler":23,
					"target":{
						"node":5,
						"path":"scale"
					}
				},
				{
					"sampler":24,
					"target":{
						"node":4,
						"path":"translation"
					}
				},
				{
					"sampler":25,
					"target":{
						"node":4,
						"path":"rotation"
					}
				},
				{
					"sampler":26,
					"target":{
						"node":4,
						"path":"scale"
					}
				},
				{
					"sampler":27,
					"target":{
						"node":3,
						"path":"translation"
					}
				},
				{
					"sampler":28,
					"target":{
						"node":3,
						"path":"rotation"
					}
				},
				{
					"sampler":29,
					"target":{
						"node":3,
						"path":"scale"
					}
				},
				{
					"sampler":30,
					"target":{
						"node":6,
						"path":"translation"
					}
				},
				{
					"sampler":31,
					"target":{
						"node":6,
						"path":"rotation"
					}
				},
				{
					"sampler":32,
					"target":{
						"node":6,
						"path":"scale"
					}
				},
				{
					"sampler":33,
					"target":{
						"node":7,
						"path":"translation"
					}
				},
				{
					"sampler":34,
					"target":{
						"node":7,
						"path":"rotation"
					}
				},
				{
					"sampler":35,
					"target":{
						"node":7,
						"path":"scale"
					}
				},
				{
					"sampler":36,
					"target":{
						"node":11,
						"path":"translation"
					}
				},
				{
					"sampler":37,
					"target":{
						"node":11,
						"path":"rotation"
					}
				},
				{
					"sampler":38,
					"target":{
						"node":11,
						"path":"scale"
					}
				},
				{
					"sampler":39,
					"target":{
						"node":10,
						"path":"translation"
					}
				},
				{
					"sampler":40,
					"target":{
						"node":10,
						"path":"rotation"
					}
				},
				{
					"sampler":41,
					"target":{
						"node":10,
						"path":"scale"
					}
				},
				{
					"sampler":42,
					"target":{
						"node":9,
						"path":"translation"
					}
				},
				{
					"sampler":43,
					"target":{
						"node":9,
						"path":"rotation"
					}
				},
				{
					"sampler":44,
					"target":{
						"node":9,
						"path":"scale"
					}
				},
				{
					"sampler":45,
					"target":{
						"node":14,
						"path":"translation"
					}
				},
				{
					"sampler":46,
					"target":{
						"node":14,
						"path":"rotation"
					}
				},
				{
					"sampler":47,
					"target":{
						"node":14,
						"path":"scale"
					}
				},
				{
					"sampler":48,
					"target":{
						"node":13,
						"path":"translation"
					}
				},
				{
					"sampler":49,
					"target":{
						"node":13,
						"path":"rotation"
					}
				},
				{
					"sampler":50,
					"target":{
						"node":13,
						"path":"scale"
					}
				},
				{
					"sampler":51,
					"target":{
						"node":12,
						"path":"translation"
					}
				},
				{
					"sampler":52,
					"target":{
						"node":12,
						"path":"rotation"
					}
				},
				{
					"sampler":53,
					"target":{
						"node":12,
						"path":"scale"
					}
				},
				{
					"sampler":54,
					"target":{
						"node":15,
						"path":"translation"
					}
				},
				{
					"sampler":55,
					"target":{
						"node":15,
						"path":"rotation"
					}
				},
				{
					"sampler":56,
					"target":{
						"node":15,
						"path":"scale"
					}
				},
				{
					"sampler":57,
					"target":{
						"node":16,
						"path":"translation"
					}
				},
				{
					"sampler":58,
					"target":{
						"node":16,
						"path":"rotation"
					}
				},
				{
					"sampler":59,
					"target":{
						"node":16,
						"path":"scale"
					}
				},
				{
					"sampler":60,
					"target":{
						"node":20,
						"path":"translation"
					}
				},
				{
					"sampler":61,
					"target":{
						"node":20,
						"path":"rotation"
					}
				},
				{
					"sampler":62,
					"target":{
						"node":20,
						"path":"scale"
					}
				},
				{
					"sampler":63,
					"target":{
						"node":19,
						"path":"translation"
					}
				},
				{
					"sampler":64,
					"target":{
						"node":19,
						"path":"rotation"
					}
				},
				{
					"sampler":65,
					"target":{
						"node":19,
						"path":"scale"
					}
				},
				{
					"sampler":66,
					"target":{
						"node":18,
						"path":"translation"
					}
				},
				{
					"sampler":67,
					"target":{
						"node":18,
						"path":"rotation"
					}
				},
				{
					"sampler":68,
					"target":{
						"node":18,
						"path":"scale"
					}
				},
				{
					"sampler":69,
					"target":{
						"node":23,
						"path":"translation"
					}
				},
				{
					"sampler":70,
					"target":{
						"node":23,
						"path":"rotation"
					}
				},
				{
					"sampler":71,
					"target":{
						"node":23,
						"path":"scale"
					}
				},
				{
					"sampler":72,
					"target":{
						"node":22,
						"path":"translation"
					}
				},
				{
					"sampler":73,
					"target":{
						"node":22,
						"path":"rotation"
					}
				},
				{
					"sampler":74,
					"target":{
						"node":22,
						"path":"scale"
					}
				},
				{
					"sampler":75,
					"target":{
						"node":21,
						"path":"translation"
					}
				},
				{
					"sampler":76,
					"target":{
						"node":21,
						"path":"rotation"
					}
				},
				{
					"sampler":77,
					"target":{
						"node":21,
						"path":"scale"
					}
				},
				{
					"sampler":78,
					"target":{
						"node":24,
						"path":"translation"
					}
				},
				{
					"sampler":79,
					"target":{
						"node":24,
						"path":"rotation"
					}
				},
				{
					"sampler":80,
					"target":{
						"node":24,
						"path":"scale"
					}
				},
				{
					"sampler":81,
					"target":{
						"node":25,
						"path":"translation"
					}
				},
				{
					"sampler":82,
					"target":{
						"node":25,
						"path":"rotation"
					}
				},
				{
					"sampler":83,
					"target":{
						"node":25,
						"path":"scale"
					}
				},
				{
					"sampler":84,
					"target":{
						"node":26,
						"path":"translation"
					}
				},
				{
					"sampler":85,
					"target":{
						"node":26,
						"path":"rotation"
					}
				},
				{
					"sampler":86,
					"target":{
						"node":26,
						"path":"scale"
					}
				},
				{
					"sampler":87,
					"target":{
						"node":27,
						"path":"translation"
					}
				},
				{
					"sampler":88,
					"target":{
						"node":27,
						"path":"rotation"
					}
				},
				{
					"sampler":89,
					"target":{
						"node":27,
						"path":"scale"
					}
				},
				{
					"sampler":90,
					"target":{
						"node":29,
						"path":"translation"
					}
				},
				{
					"sampler":91,
					"target":{
						"node":29,
						"path":"rotation"
					}
				},
				{
					"sampler":92,
					"target":{
						"node":29,
						"path":"scale"
					}
				},
				{
					"sampler":93,
					"target":{
						"node":30,
						"path":"translation"
					}
				},
				{
					"sampler":94,
					"target":{
						"node":30,
						"path":"rotation"
					}
				},
				{
					"sampler":95,
					"target":{
						"node":30,
						"path":"scale"
					}
				}
			],
			"name":"redactor_cloak",
			"samplers":[
				{
					"input":97,
					"interpolation":"STEP",
					"output":8
				},
				{
					"input":98,
					"interpolation":"LINEAR",
					"output":99
				},
				{
					"input":97,
					"interpolation":"STEP",
					"output":11
				},
				{
					"input":97,
					"interpolation":"STEP",
					"output":100
				},
				{
					"input":98,
					"interpolation":"LINEAR",
					"output":101
				},
				{
					"input":97,
					"interpolation":"STEP",
					"output":102
				},
				{
					"input":97,
					"interpolation":"STEP",
					"output":103
				},
				{
					"input":98,
					"interpolation":"LINEAR",
					"output":104
				},
				{
					"input":97,
					"interpolation":"STEP",
					"output":105
				},
				{
					"input":97,
					"interpolation":"STEP",
					"output":106
				},
				{
					"input":98,
					"interpolation":"LINEAR",
					"output":107
				},
				{
					"input":97,
					"interpolation":"STEP",
					"output":108
				},
				{
					"input":97,
					"interpolation":"STEP",
					"output":109
				},
				{
					"input":98,
					"interpolation":"LINEAR",
					"output":110
				},
				{
					"input":98,
					"interpolation":"LINEAR",
					"output":111
				},
				{
					"input":97,
					"interpolation":"STEP",
					"output":112
				},
				{
					"input":98,
					"interpolation":"LINEAR",
					"output":113
				},
				{
					"input":97,
					"interpolation":"STEP",
					"output":114
				},
				{
					"input":97,
					"interpolation":"STEP",
					"output":115
				},
				{
					"input":98,
					"interpolation":"LINEAR",
					"output":116
				},
				{
					"input":97,
					"interpolation":"STEP",
					"output":117
				},
				{
					"input":97,
					"interpolation":"STEP",
					"output":118
				},
				{
					"input":98,
					"interpolation":"LINEAR",
					"output":119
				},
				{
					"input":98,
					"interpolation":"LINEAR",
					"output":120
				},
				{
					"input":97,
					"interpolation":"STEP",
					"output":121
				},
				{
					"input":98,
					"interpolation":"LINEAR",
					"output":122
				},
				{
					"input":97,
					"interpolation":"STEP",
					"output":123
				},
				{
					"input":97,
					"interpolation":"STEP",
					"output":124
				},
				{
					"input":98,
					"interpolation":"LINEAR",
					"output":125
				},
				{
					"input":97,
					"interpolation":"STEP",
					"output":126
				},
				{
					"input":97,
					"interpolation":"STEP",
					"output":127
				},
				{
					"input":97,
					"interpolation":"STEP",
					"output":128
				},
				{
					"input":98,
					"interpolation":"LINEAR",
					"output":129
				},
				{
					"input":97,
					"interpolation":"STEP",
					"output":130
				},
				{
					"input":97,
					"interpolation":"STEP",
					"output":131
				},
				{
					"input":98,
					"interpolation":"LINEAR",
					"output":132
				},
				{
					"input":97,
					"interpolation":"STEP",
					"output":133
				},
				{
					"input":98,
					"interpolation":"LINEAR",
					"output":134
				},
				{
					"input":98,
					"interpolation":"LINEAR",
					"output":135
				},
				{
					"input":97,
					"interpolation":"STEP",
					"output":136
				},
				{
					"input":98,
					"interpolation":"LINEAR",
					"output":137
				},
				{
					"input":97,
					"interpolation":"STEP",
					"output":11
				},
				{
					"input":97,
					"interpolation":"STEP",
					"output":138
				},
				{
					"input":98,
					"interpolation":"LINEAR",
					"output":139
				},
				{
					"input":97,
					"interpolation":"STEP",
					"output":140
				},
				{
					"input":97,
					"interpolation":"STEP",
					"output":141
				},
				{
					"input":98,
					"interpolation":"LINEAR",
					"output":142
				},
				{
					"input":98,
					"interpolation":"LINEAR",
					"output":143
				},
				{
					"input":97,
					"interpolation":"STEP",
					"output":144
				},
				{
					"input":98,
					"interpolation":"LINEAR",
					"output":145
				},
				{
					"input":97,
					"interpolation":"STEP",
					"output":146
				},
				{
					"input":97,
					"interpolation":"STEP",
					"output":147
				},
				{
					"input":98,
					"interpolation":"LINEAR",
					"output":148
				},
				{
					"input":97,
					"interpolation":"STEP",
					"output":149
				},
				{
					"input":97,
					"interpolation":"STEP",
					"output":150
				},
				{
					"input":97,
					"interpolation":"STEP",
					"output":151
				},
				{
					"input":98,
					"interpolation":"LINEAR",
					"output":152
				},
				{
					"input":97,
					"interpolation":"STEP",
					"output":153
				},
				{
					"input":97,
					"interpolation":"STEP",
					"output":151
				},
				{
					"input":98,
					"interpolation":"LINEAR",
					"output":152
				},
				{
					"input":97,
					"interpolation":"STEP",
					"output":154
				},
				{
					"input":98,
					"interpolation":"LINEAR",
					"output":155
				},
				{
					"input":98,
					"interpolation":"LINEAR",
					"output":156
				},
				{
					"input":97,
					"interpolation":"STEP",
					"output":157
				},
				{
					"input":98,
					"interpolation":"LINEAR",
					"output":158
				},
				{
					"input":97,
					"interpolation":"STEP",
					"output":159
				},
				{
					"input":97,
					"interpolation":"STEP",
					"output":160
				},
				{
					"input":98,
					"interpolation":"LINEAR",
					"output":161
				},
				{
					"input":97,
					"interpolation":"STEP",
					"output":162
				},
				{
					"input":97,
					"interpolation":"STEP",
					"output":163
				},
				{
					"input":98,
					"interpolation":"LINEAR",
					"output":164
				},
				{
					"input":98,
					"interpolation":"LINEAR",
					"output":165
				},
				{
					"input":97,
					"interpolation":"STEP",
					"output":166
				},
				{
					"input":98,
					"interpolation":"LINEAR",
					"output":167
				},
				{
					"input":97,
					"interpolation":"STEP",
					"output":168
				},
				{
					"input":97,
					"interpolation":"STEP",
					"output":169
				},
				{
					"input":98,
					"interpolation":"LINEAR",
					"output":170
				},
				{
					"input":97,
					"interpolation":"STEP",
					"output":171
				},
				{
					"input":97,
					"interpolation":"STEP",
					"output":172
				},
				{
					"input":97,
					"interpolation":"STEP",
					"output":173
				},
				{
					"input":98,
					"interpolation":"LINEAR",
					"output":174
				},
				{
					"input":97,
					"interpolation":"STEP",
					"output":175
				},
				{
					"input":97,
					"interpolation":"STEP",
					"output":173
				},
				{
					"input":98,
					"interpolation":"LINEAR",
					"output":174
				},
				{
					"input":97,
					"interpolation":"STEP",
					"output":176
				},
				{
					"input":97,
					"interpolation":"STEP",
					"output":173
				},
				{
					"input":98,
					"interpolation":"LINEAR",
					"output":177
				},
				{
					"input":97,
					"interpolation":"STEP",
					"output":178
				},
				{
					"input":97,
					"interpolation":"STEP",
					"output":173
				},
				{
					"input":98,
					"interpolation":"LINEAR",
					"output":174
				},
				{
					"input":97,
					"interpolation":"STEP",
					"output":93
				},
				{
					"input":97,
					"interpolation":"STEP",
					"output":94
				},
				{
					"input":98,
					"interpolation":"LINEAR",
					"output":179
				},
				{
					"input":97,
					"interpolation":"STEP",
					"output":180
				},
				{
					"input":97,
					"interpolation":"STEP",
					"output":94
				},
				{
					"input":98,
					"interpolation":"LINEAR",
					"output":179
				}
			]
		}
	],
	"materials":[
		{
			"alphaMode":"MASK",
			"doubleSided":true,
			"emissiveFactor":[
				1,
				1,
				1
			],
			"emissiveTexture":{
				"index":0
			},
			"extensions":{
				"KHR_materials_emissive_strength":{
					"emissiveStrength":3.5999999046325684
				}
			},
			"name":"RedactorRiggedTex",
			"pbrMetallicRoughness":{
				"baseColorTexture":{
					"index":1
				},
				"metallicFactor":0,
				"roughnessFactor":0.8999999761581421
			}
		}
	],
	"meshes":[
		{
			"name":"RedactorRigged",
			"primitives":[
				{
					"attributes":{
						"POSITION":0,
						"NORMAL":1,
						"TEXCOORD_0":2,
						"JOINTS_0":3,
						"WEIGHTS_0":4
					},
					"indices":5,
					"material":0
				}
			]
		}
	],
	"textures":[
		{
			"sampler":0,
			"source":0
		},
		{
			"sampler":0,
			"source":1
		}
	],
	"images":[
		{
			"mimeType":"image/png",
			"name":"RedactorRigged_emissive",
			"uri":"RedactorRigged_emissive.png"
		},
		{
			"mimeType":"image/png",
			"name":"RedactorRigged_tex",
			"uri":"RedactorRigged_tex.png"
		}
	],
	"skins":[
		{
			"inverseBindMatrices":6,
			"joints":[
				31,
				28,
				17,
				8,
				2,
				1,
				0,
				5,
				4,
				3,
				6,
				7,
				11,
				10,
				9,
				14,
				13,
				12,
				15,
				16,
				20,
				19,
				18,
				23,
				22,
				21,
				24,
				25,
				26,
				27,
				29,
				30
			],
			"name":"Redactor_Armature"
		}
	],
	"accessors":[
		{
			"bufferView":0,
			"componentType":5126,
			"count":1084,
			"max":[
				0.5257148146629333,
				0.4682433009147644,
				0.610980749130249
			],
			"min":[
				-0.5257148146629333,
				0.010159236378967762,
				-0.5
			],
			"type":"VEC3"
		},
		{
			"bufferView":1,
			"componentType":5126,
			"count":1084,
			"type":"VEC3"
		},
		{
			"bufferView":2,
			"componentType":5126,
			"count":1084,
			"type":"VEC2"
		},
		{
			"bufferView":3,
			"componentType":5121,
			"count":1084,
			"type":"VEC4"
		},
		{
			"bufferView":4,
			"componentType":5126,
			"count":1084,
			"type":"VEC4"
		},
		{
			"bufferView":5,
			"componentType":5123,
			"count":1662,
			"type":"SCALAR"
		},
		{
			"bufferView":6,
			"componentType":5126,
			"count":32,
			"type":"MAT4"
		},
		{
			"bufferView":7,
			"componentType":5126,
			"count":2,
			"max":[
				0.8333333333333334
			],
			"min":[
				0.041666666666666664
			],
			"type":"SCALAR"
		},
		{
			"bufferView":8,
			"componentType":5126,
			"count":2,
			"type":"VEC3"
		},
		{
			"bufferView":9,
			"componentType":5126,
			"count":20,
			"max":[
				0.8333333333333334
			],
			"min":[
				0.041666666666666664
			],
			"type":"SCALAR"
		},
		{
			"bufferView":10,
			"componentType":5126,
			"count":20,
			"type":"VEC4"
		},
		{
			"bufferView":11,
			"componentType":5126,
			"count":2,
			"type":"VEC3"
		},
		{
			"bufferView":12,
			"componentType":5126,
			"count":2,
			"type":"VEC3"
		},
		{
			"bufferView":13,
			"componentType":5126,
			"count":20,
			"type":"VEC4"
		},
		{
			"bufferView":14,
			"componentType":5126,
			"count":2,
			"type":"VEC3"
		},
		{
			"bufferView":15,
			"componentType":5126,
			"count":2,
			"type":"VEC3"
		},
		{
			"bufferView":16,
			"componentType":5126,
			"count":20,
			"type":"VEC4"
		},
		{
			"bufferView":17,
			"componentType":5126,
			"count":2,
			"type":"VEC3"
		},
		{
			"bufferView":18,
			"componentType":5126,
			"count":2,
			"type":"VEC3"
		},
		{
			"bufferView":19,
			"componentType":5126,
			"count":20,
			"type":"VEC4"
		},
		{
			"bufferView":20,
			"componentType":5126,
			"count":2,
			"type":"VEC3"
		},
		{
			"bufferView":21,
			"componentType":5126,
			"count":2,
			"type":"VEC3"
		},
		{
			"bufferView":22,
			"componentType":5126,
			"count":20,
			"type":"VEC4"
		},
		{
			"bufferView":23,
			"componentType":5126,
			"count":20,
			"type":"VEC3"
		},
		{
			"bufferView":24,
			"componentType":5126,
			"count":2,
			"type":"VEC3"
		},
		{
			"bufferView":25,
			"componentType":5126,
			"count":20,
			"type":"VEC4"
		},
		{
			"bufferView":26,
			"componentType":5126,
			"count":2,
			"type":"VEC3"
		},
		{
			"bufferView":27,
			"componentType":5126,
			"count":2,
			"type":"VEC3"
		},
		{
			"bufferView":28,
			"componentType":5126,
			"count":20,
			"type":"VEC4"
		},
		{
			"bufferView":29,
			"componentType":5126,
			"count":2,
			"type":"VEC3"
		},
		{
			"bufferView":30,
			"componentType":5126,
			"count":2,
			"type":"VEC3"
		},
		{
			"bufferView":31,
			"componentType":5126,
			"count":20,
			"type":"VEC4"
		},
		{
			"bufferView":32,
			"componentType":5126,
			"count":20,
			"type":"VEC3"
		},
		{
			"bufferView":33,
			"componentType":5126,
			"count":2,
			"type":"VEC3"
		},
		{
			"bufferView":34,
			"componentType":5126,
			"count":20,
			"type":"VEC4"
		},
		{
			"bufferView":35,
			"componentType":5126,
			"count":2,
			"type":"VEC3"
		},
		{
			"bufferView":36,
			"componentType":5126,
			"count":2,
			"type":"VEC3"
		},
		{
			"bufferView":37,
			"componentType":5126,
			"count":20,
			"type":"VEC4"
		},
		{
			"bufferView":38,
			"componentType":5126,
			"count":2,
			"type":"VEC3"
		},
		{
			"bufferView":39,
			"componentType":5126,
			"count":2,
			"type":"VEC3"
		},
		{
			"bufferView":40,
			"componentType":5126,
			"count":2,
			"type":"VEC4"
		},
		{
			"bufferView":41,
			"componentType":5126,
			"count":20,
			"type":"VEC3"
		},
		{
			"bufferView":42,
			"componentType":5126,
			"count":2,
			"type":"VEC3"
		},
		{
			"bufferView":43,
			"componentType":5126,
			"count":2,
			"type":"VEC4"
		},
		{
			"bufferView":44,
			"componentType":5126,
			"count":20,
			"type":"VEC3"
		},
		{
			"bufferView":45,
			"componentType":5126,
			"count":2,
			"type":"VEC3"
		},
		{
			"bufferView":46,
			"componentType":5126,
			"count":20,
			"type":"VEC4"
		},
		{
			"bufferView":47,
			"componentType":5126,
			"count":20,
			"type":"VEC3"
		},
		{
			"bufferView":48,
			"componentType":5126,
			"count":2,
			"type":"VEC3"
		},
		{
			"bufferView":49,
			"componentType":5126,
			"count":20,
			"type":"VEC4"
		},
		{
			"bufferView":50,
			"componentType":5126,
			"count":2,
			"type":"VEC3"
		},
		{
			"bufferView":51,
			"componentType":5126,
			"count":2,
			"type":"VEC3"
		},
		{
			"bufferView":52,
			"componentType":5126,
			"count":20,
			"type":"VEC4"
		},
		{
			"bufferView":53,
			"componentType":5126,
			"count":2,
			"type":"VEC3"
		},
		{
			"bufferView":54,
			"componentType":5126,
			"count":2,
			"type":"VEC3"
		},
		{
			"bufferView":55,
			"componentType":5126,
			"count":20,
			"type":"VEC4"
		},
		{
			"bufferView":56,
			"componentType":5126,
			"count":20,
			"type":"VEC3"
		},
		{
			"bufferView":57,
			"componentType":5126,
			"count":2,
			"type":"VEC3"
		},
		{
			"bufferView":58,
			"componentType":5126,
			"count":20,
			"type":"VEC4"
		},
		{
			"bufferView":59,
			"componentType":5126,
			"count":2,
			"type":"VEC3"
		},
		{
			"bufferView":60,
			"componentType":5126,
			"count":2,
			"type":"VEC3"
		},
		{
			"bufferView":61,
			"componentType":5126,
			"count":20,
			"type":"VEC4"
		},
		{
			"bufferView":62,
			"componentType":5126,
			"count":2,
			"type":"VEC3"
		},
		{
			"bufferView":63,
			"componentType":5126,
			"count":2,
			"type":"VEC3"
		},
		{
			"bufferView":64,
			"componentType":5126,
			"count":2,
			"type":"VEC4"
		},
		{
			"bufferView":65,
			"componentType":5126,
			"count":20,
			"type":"VEC3"
		},
		{
			"bufferView":66,
			"componentType":5126,
			"count":2,
			"type":"VEC3"
		},
		{
			"bufferView":67,
			"componentType":5126,
			"count":20,
			"type":"VEC3"
		},
		{
			"bufferView":68,
			"componentType":5126,
			"count":2,
			"type":"VEC3"
		},
		{
			"bufferView":69,
			"componentType":5126,
			"count":20,
			"type":"VEC4"
		},
		{
			"bufferView":70,
			"componentType":5126,
			"count":20,
			"type":"VEC3"
		},
		{
			"bufferView":71,
			"componentType":5126,
			"count":2,
			"type":"VEC3"
		},
		{
			"bufferView":72,
			"componentType":5126,
			"count":20,
			"type":"VEC4"
		},
		{
			"bufferView":73,
			"componentType":5126,
			"count":2,
			"type":"VEC3"
		},
		{
			"bufferView":74,
			"componentType":5126,
			"count":2,
			"type":"VEC3"
		},
		{
			"bufferView":75,
			"componentType":5126,
			"count":20,
			"type":"VEC4"
		},
		{
			"bufferView":76,
			"componentType":5126,
			"count":2,
			"type":"VEC3"
		},
		{
			"bufferView":77,
			"componentType":5126,
			"count":2,
			"type":"VEC3"
		},
		{
			"bufferView":78,
			"componentType":5126,
			"count":20,
			"type":"VEC4"
		},
		{
			"bufferView":79,
			"componentType":5126,
			"count":20,
			"type":"VEC3"
		},
		{
			"bufferView":80,
			"componentType":5126,
			"count":2,
			"type":"VEC3"
		},
		{
			"bufferView":81,
			"componentType":5126,
			"count":20,
			"type":"VEC4"
		},
		{
			"bufferView":82,
			"componentType":5126,
			"count":2,
			"type":"VEC3"
		},
		{
			"bufferView":83,
			"componentType":5126,
			"count":2,
			"type":"VEC3"
		},
		{
			"bufferView":84,
			"componentType":5126,
			"count":20,
			"type":"VEC4"
		},
		{
			"bufferView":85,
			"componentType":5126,
			"count":2,
			"type":"VEC3"
		},
		{
			"bufferView":86,
			"componentType":5126,
			"count":2,
			"type":"VEC3"
		},
		{
			"bufferView":87,
			"componentType":5126,
			"count":2,
			"type":"VEC4"
		},
		{
			"bufferView":88,
			"componentType":5126,
			"count":20,
			"type":"VEC3"
		},
		{
			"bufferView":89,
			"componentType":5126,
			"count":2,
			"type":"VEC3"
		},
		{
			"bufferView":90,
			"componentType":5126,
			"count":20,
			"type":"VEC3"
		},
		{
			"bufferView":91,
			"componentType":5126,
			"count":2,
			"type":"VEC3"
		},
		{
			"bufferView":92,
			"componentType":5126,
			"count":2,
			"type":"VEC3"
		},
		{
			"bufferView":93,
			"componentType":5126,
			"count":2,
			"type":"VEC3"
		},
		{
			"bufferView":94,
			"componentType":5126,
			"count":2,
			"type":"VEC4"
		},
		{
			"bufferView":95,
			"componentType":5126,
			"count":20,
			"type":"VEC3"
		},
		{
			"bufferView":96,
			"componentType":5126,
			"count":2,
			"type":"VEC3"
		},
		{
			"bufferView":97,
			"componentType":5126,
			"count":2,
			"max":[
				0.9583333333333334
			],
			"min":[
				0.041666666666666664
			],
			"type":"SCALAR"
		},
		{
			"bufferView":98,
			"componentType":5126,
			"count":23,
			"max":[
				0.9583333333333334
			],
			"min":[
				0.041666666666666664
			],
			"type":"SCALAR"
		},
		{
			"bufferView":99,
			"componentType":5126,
			"count":23,
			"type":"VEC4"
		},
		{
			"bufferView":100,
			"componentType":5126,
			"count":2,
			"type":"VEC3"
		},
		{
			"bufferView":101,
			"componentType":5126,
			"count":23,
			"type":"VEC4"
		},
		{
			"bufferView":102,
			"componentType":5126,
			"count":2,
			"type":"VEC3"
		},
		{
			"bufferView":103,
			"componentType":5126,
			"count":2,
			"type":"VEC3"
		},
		{
			"bufferView":104,
			"componentType":5126,
			"count":23,
			"type":"VEC4"
		},
		{
			"bufferView":105,
			"componentType":5126,
			"count":2,
			"type":"VEC3"
		},
		{
			"bufferView":106,
			"componentType":5126,
			"count":2,
			"type":"VEC3"
		},
		{
			"bufferView":107,
			"componentType":5126,
			"count":23,
			"type":"VEC4"
		},
		{
			"bufferView":108,
			"componentType":5126,
			"count":2,
			"type":"VEC3"
		},
		{
			"bufferView":109,
			"componentType":5126,
			"count":2,
			"type":"VEC3"
		},
		{
			"bufferView":110,
			"componentType":5126,
			"count":23,
			"type":"VEC4"
		},
		{
			"bufferView":111,
			"componentType":5126,
			"count":23,
			"type":"VEC3"
		},
		{
			"bufferView":112,
			"componentType":5126,
			"count":2,
			"type":"VEC3"
		},
		{
			"bufferView":113,
			"componentType":5126,
			"count":23,
			"type":"VEC4"
		},
		{
			"bufferView":114,
			"componentType":5126,
			"count":2,
			"type":"VEC3"
		},
		{
			"bufferView":115,
			"componentType":5126,
			"count":2,
			"type":"VEC3"
		},
		{
			"bufferView":116,
			"componentType":5126,
			"count":23,
			"type":"VEC4"
		},
		{
			"bufferView":117,
			"componentType":5126,
			"count":2,
			"type":"VEC3"
		},
		{
			"bufferView":118,
			"componentType":5126,
			"count":2,
			"type":"VEC3"
		},
		{
			"bufferView":119,
			"componentType":5126,
			"count":23,
			"type":"VEC4"
		},
		{
			"bufferView":120,
			"componentType":5126,
			"count":23,
			"type":"VEC3"
		},
		{
			"bufferView":121,
			"componentType":5126,
			"count":2,
			"type":"VEC3"
		},
		{
			"bufferView":122,
			"componentType":5126,
			"count":23,
			"type":"VEC4"
		},
		{
			"bufferView":123,
			"componentType":5126,
			"count":2,
			"type":"VEC3"
		},
		{
			"bufferView":124,
			"componentType":5126,
			"count":2,
			"type":"VEC3"
		},
		{
			"bufferView":125,
			"componentType":5126,
			"count":23,
			"type":"VEC4"
		},
		{
			"bufferView":126,
			"componentType":5126,
			"count":2,
			"type":"VEC3"
		},
		{
			"bufferView":127,
			"componentType":5126,
			"count":2,
			"type":"VEC3"
		},
		{
			"bufferView":128,
			"componentType":5126,
			"count":2,
			"type":"VEC4"
		},
		{
			"bufferView":129,
			"componentType":5126,
			"count":23,
			"type":"VEC3"
		},
		{
			"bufferView":130,
			"componentType":5126,
			"count":2,
			"type":"VEC3"
		},
		{
			"bufferView":131,
			"componentType":5126,
			"count":2,
			"type":"VEC4"
		},
		{
			"bufferView":132,
			"componentType":5126,
			"count":23,
			"type":"VEC3"
		},
		{
			"bufferView":133,
			"componentType":5126,
			"count":2,
			"type":"VEC3"
		},
		{
			"bufferView":134,
			"componentType":5126,
			"count":23,
			"type":"VEC4"
		},
		{
			"bufferView":135,
			"componentType":5126,
			"count":23,
			"type":"VEC3"
		},
		{
			"bufferView":136,
			"componentType":5126,
			"count":2,
			"type":"VEC3"
		},
		{
			"bufferView":137,
			"componentType":5126,
			"count":23,
			"type":"VEC4"
		},
		{
			"bufferView":138,
			"componentType":5126,
			"count":2,
			"type":"VEC3"
		},
		{
			"bufferView":139,
			"componentType":5126,
			"count":23,
			"type":"VEC4"
		},
		{
			"bufferView":140,
			"componentType":5126,
			"count":2,
			"type":"VEC3"
		},
		{
			"bufferView":141,
			"componentType":5126,
			"count":2,
			"type":"VEC3"
		},
		{
			"bufferView":142,
			"componentType":5126,
			"count":23,
			"type":"VEC4"
		},
		{
			"bufferView":143,
			"componentType":5126,
			"count":23,
			"type":"VEC3"
		},
		{
			"bufferView":144,
			"componentType":5126,
			"count":2,
			"type":"VEC3"
		},
		{
			"bufferView":145,
			"componentType":5126,
			"count":23,
			"type":"VEC4"
		},
		{
			"bufferView":146,
			"componentType":5126,
			"count":2,
			"type":"VEC3"
		},
		{
			"bufferView":147,
			"componentType":5126,
			"count":2,
			"type":"VEC3"
		},
		{
			"bufferView":148,
			"componentType":5126,
			"count":23,
			"type":"VEC4"
		},
		{
			"bufferView":149,
			"componentType":5126,
			"count":2,
			"type":"VEC3"
		},
		{
			"bufferView":150,
			"componentType":5126,
			"count":2,
			"type":"VEC3"
		},
		{
			"bufferView":151,
			"componentType":5126,
			"count":2,
			"type":"VEC4"
		},
		{
			"bufferView":152,
			"componentType":5126,
			"count":23,
			"type":"VEC3"
		},
		{
			"bufferView":153,
			"componentType":5126,
			"count":2,
			"type":"VEC3"
		},
		{
			"bufferView":154,
			"componentType":5126,
			"count":2,
			"type":"VEC3"
		},
		{
			"bufferView":155,
			"componentType":5126,
			"count":23,
			"type":"VEC4"
		},
		{
			"bufferView":156,
			"componentType":5126,
			"count":23,
			"type":"VEC3"
		},
		{
			"bufferView":157,
			"componentType":5126,
			"count":2,
			"type":"VEC3"
		},
		{
			"bufferView":158,
			"componentType":5126,
			"count":23,
			"type":"VEC4"
		},
		{
			"bufferView":159,
			"componentType":5126,
			"count":2,
			"type":"VEC3"
		},
		{
			"bufferView":160,
			"componentType":5126,
			"count":2,
			"type":"VEC3"
		},
		{
			"bufferView":161,
			"componentType":5126,
			"count":23,
			"type":"VEC4"
		},
		{
			"bufferView":162,
			"componentType":5126,
			"count":2,
			"type":"VEC3"
		},
		{
			"bufferView":163,
			"componentType":5126,
			"count":2,
			"type":"VEC3"
		},
		{
			"bufferView":164,
			"componentType":5126,
			"count":23,
			"type":"VEC4"
		},
		{
			"bufferView":165,
			"componentType":5126,
			"count":23,
			"type":"VEC3"
		},
		{
			"bufferView":166,
			"componentType":5126,
			"count":2,
			"type":"VEC3"
		},
		{
			"bufferView":167,
			"componentType":5126,
			"count":23,
			"type":"VEC4"
		},
		{
			"bufferView":168,
			"componentType":5126,
			"count":2,
			"type":"VEC3"
		},
		{
			"bufferView":169,
			"componentType":5126,
			"count":2,
			"type":"VEC3"
		},
		{
			"bufferView":170,
			"componentType":5126,
			"count":23,
			"type":"VEC4"
		},
		{
			"bufferView":171,
			"componentType":5126,
			"count":2,
			"type":"VEC3"
		},
		{
			"bufferView":172,
			"componentType":5126,
			"count":2,
			"type":"VEC3"
		},
		{
			"bufferView":173,
			"componentType":5126,
			"count":2,
			"type":"VEC4"
		},
		{
			"bufferView":174,
			"componentType":5126,
			"count":23,
			"type":"VEC3"
		},
		{
			"bufferView":175,
			"componentType":5126,
			"count":2,
			"type":"VEC3"
		},
		{
			"bufferView":176,
			"componentType":5126,
			"count":2,
			"type":"VEC3"
		},
		{
			"bufferView":177,
			"componentType":5126,
			"count":23,
			"type":"VEC3"
		},
		{
			"bufferView":178,
			"componentType":5126,
			"count":2,
			"type":"VEC3"
		},
		{
			"bufferView":179,
			"componentType":5126,
			"count":23,
			"type":"VEC3"
		},
		{
			"bufferView":180,
			"componentType":5126,
			"count":2,
			"type":"VEC3"
		}
	],
	"bufferViews":[
		{
			"buffer":0,
			"byteLength":13008,
			"byteOffset":0,
			"target":34962
		},
		{
			"buffer":0,
			"byteLength":13008,
			"byteOffset":13008,
			"target":34962
		},
		{
			"buffer":0,
			"byteLength":8672,
			"byteOffset":26016,
			"target":34962
		},
		{
			"buffer":0,
			"byteLength":4336,
			"byteOffset":34688,
			"target":34962
		},
		{
			"buffer":0,
			"byteLength":17344,
			"byteOffset":39024,
			"target":34962
		},
		{
			"buffer":0,
			"byteLength":3324,
			"byteOffset":56368,
			"target":34963
		},
		{
			"buffer":0,
			"byteLength":2048,
			"byteOffset":59692
		},
		{
			"buffer":0,
			"byteLength":8,
			"byteOffset":61740
		},
		{
			"buffer":0,
			"byteLength":24,
			"byteOffset":61748
		},
		{
			"buffer":0,
			"byteLength":80,
			"byteOffset":61772
		},
		{
			"buffer":0,
			"byteLength":320,
			"byteOffset":61852
		},
		{
			"buffer":0,
			"byteLength":24,
			"byteOffset":62172
		},
		{
			"buffer":0,
			"byteLength":24,
			"byteOffset":62196
		},
		{
			"buffer":0,
			"byteLength":320,
			"byteOffset":62220
		},
		{
			"buffer":0,
			"byteLength":24,
			"byteOffset":62540
		},
		{
			"buffer":0,
			"byteLength":24,
			"byteOffset":62564
		},
		{
			"buffer":0,
			"byteLength":320,
			"byteOffset":62588
		},
		{
			"buffer":0,
			"byteLength":24,
			"byteOffset":62908
		},
		{
			"buffer":0,
			"byteLength":24,
			"byteOffset":62932
		},
		{
			"buffer":0,
			"byteLength":320,
			"byteOffset":62956
		},
		{
			"buffer":0,
			"byteLength":24,
			"byteOffset":63276
		},
		{
			"buffer":0,
			"byteLength":24,
			"byteOffset":63300
		},
		{
			"buffer":0,
			"byteLength":320,
			"byteOffset":63324
		},
		{
			"buffer":0,
			"byteLength":240,
			"byteOffset":63644
		},
		{
			"buffer":0,
			"byteLength":24,
			"byteOffset":63884
		},
		{
			"buffer":0,
			"byteLength":320,
			"byteOffset":63908
		},
		{
			"buffer":0,
			"byteLength":24,
			"byteOffset":64228
		},
		{
			"buffer":0,
			"byteLength":24,
			"byteOffset":64252
		},
		{
			"buffer":0,
			"byteLength":320,
			"byteOffset":64276
		},
		{
			"buffer":0,
			"byteLength":24,
			"byteOffset":64596
		},
		{
			"buffer":0,
			"byteLength":24,
			"byteOffset":64620
		},
		{
			"buffer":0,
			"byteLength":320,
			"byteOffset":64644
		},
		{
			"buffer":0,
			"byteLength":240,
			"byteOffset":64964
		},
		{
			"buffer":0,
			"byteLength":24,
			"byteOffset":65204
		},
		{
			"buffer":0,
			"byteLength":320,
			"byteOffset":65228
		},
		{
			"buffer":0,
			"byteLength":24,
			"byteOffset":65548
		},
		{
			"buffer":0,
			"byteLength":24,
			"byteOffset":65572
		},
		{
			"buffer":0,
			"byteLength":320,
			"byteOffset":65596
		},
		{
			"buffer":0,
			"byteLength":24,
			"byteOffset":65916
		},
		{
			"buffer":0,
			"byteLength":24,
			"byteOffset":65940
		},
		{
			"buffer":0,
			"byteLength":32,
			"byteOffset":65964
		},
		{
			"buffer":0,
			"byteLength":240,
			"byteOffset":65996
		},
		{
			"buffer":0,
			"byteLength":24,
			"byteOffset":66236
		},
		{
			"buffer":0,
			"byteLength":32,
			"byteOffset":66260
		},
		{
			"buffer":0,
			"byteLength":240,
			"byteOffset":66292
		},
		{
			"buffer":0,
			"byteLength":24,
			"byteOffset":66532
		},
		{
			"buffer":0,
			"byteLength":320,
			"byteOffset":66556
		},
		{
			"buffer":0,
			"byteLength":240,
			"byteOffset":66876
		},
		{
			"buffer":0,
			"byteLength":24,
			"byteOffset":67116
		},
		{
			"buffer":0,
			"byteLength":320,
			"byteOffset":67140
		},
		{
			"buffer":0,
			"byteLength":24,
			"byteOffset":67460
		},
		{
			"buffer":0,
			"byteLength":24,
			"byteOffset":67484
		},
		{
			"buffer":0,
			"byteLength":320,
			"byteOffset":67508
		},
		{
			"buffer":0,
			"byteLength":24,
			"byteOffset":67828
		},
		{
			"buffer":0,
			"byteLength":24,
			"byteOffset":67852
		},
		{
			"buffer":0,
			"byteLength":320,
			"byteOffset":67876
		},
		{
			"buffer":0,
			"byteLength":240,
			"byteOffset":68196
		},
		{
			"buffer":0,
			"byteLength":24,
			"byteOffset":68436
		},
		{
			"buffer":0,
			"byteLength":320,
			"byteOffset":68460
		},
		{
			"buffer":0,
			"byteLength":24,
			"byteOffset":68780
		},
		{
			"buffer":0,
			"byteLength":24,
			"byteOffset":68804
		},
		{
			"buffer":0,
			"byteLength":320,
			"byteOffset":68828
		},
		{
			"buffer":0,
			"byteLength":24,
			"byteOffset":69148
		},
		{
			"buffer":0,
			"byteLength":24,
			"byteOffset":69172
		},
		{
			"buffer":0,
			"byteLength":32,
			"byteOffset":69196
		},
		{
			"buffer":0,
			"byteLength":240,
			"byteOffset":69228
		},
		{
			"buffer":0,
			"byteLength":24,
			"byteOffset":69468
		},
		{
			"buffer":0,
			"byteLength":240,
			"byteOffset":69492
		},
		{
			"buffer":0,
			"byteLength":24,
			"byteOffset":69732
		},
		{
			"buffer":0,
			"byteLength":320,
			"byteOffset":69756
		},
		{
			"buffer":0,
			"byteLength":240,
			"byteOffset":70076
		},
		{
			"buffer":0,
			"byteLength":24,
			"byteOffset":70316
		},
		{
			"buffer":0,
			"byteLength":320,
			"byteOffset":70340
		},
		{
			"buffer":0,
			"byteLength":24,
			"byteOffset":70660
		},
		{
			"buffer":0,
			"byteLength":24,
			"byteOffset":70684
		},
		{
			"buffer":0,
			"byteLength":320,
			"byteOffset":70708
		},
		{
			"buffer":0,
			"byteLength":24,
			"byteOffset":71028
		},
		{
			"buffer":0,
			"byteLength":24,
			"byteOffset":71052
		},
		{
			"buffer":0,
			"byteLength":320,
			"byteOffset":71076
		},
		{
			"buffer":0,
			"byteLength":240,
			"byteOffset":71396
		},
		{
			"buffer":0,
			"byteLength":24,
			"byteOffset":71636
		},
		{
			"buffer":0,
			"byteLength":320,
			"byteOffset":71660
		},
		{
			"buffer":0,
			"byteLength":24,
			"byteOffset":71980
		},
		{
			"buffer":0,
			"byteLength":24,
			"byteOffset":72004
		},
		{
			"buffer":0,
			"byteLength":320,
			"byteOffset":72028
		},
		{
			"buffer":0,
			"byteLength":24,
			"byteOffset":72348
		},
		{
			"buffer":0,
			"byteLength":24,
			"byteOffset":72372
		},
		{
			"buffer":0,
			"byteLength":32,
			"byteOffset":72396
		},
		{
			"buffer":0,
			"byteLength":240,
			"byteOffset":72428
		},
		{
			"buffer":0,
			"byteLength":24,
			"byteOffset":72668
		},
		{
			"buffer":0,
			"byteLength":240,
			"byteOffset":72692
		},
		{
			"buffer":0,
			"byteLength":24,
			"byteOffset":72932
		},
		{
			"buffer":0,
			"byteLength":24,
			"byteOffset":72956
		},
		{
			"buffer":0,
			"byteLength":24,
			"byteOffset":72980
		},
		{
			"buffer":0,
			"byteLength":32,
			"byteOffset":73004
		},
		{
			"buffer":0,
			"byteLength":240,
			"byteOffset":73036
		},
		{
			"buffer":0,
			"byteLength":24,
			"byteOffset":73276
		},
		{
			"buffer":0,
			"byteLength":8,
			"byteOffset":73300
		},
		{
			"buffer":0,
			"byteLength":92,
			"byteOffset":73308
		},
		{
			"buffer":0,
			"byteLength":368,
			"byteOffset":73400
		},
		{
			"buffer":0,
			"byteLength":24,
			"byteOffset":73768
		},
		{
			"buffer":0,
			"byteLength":368,
			"byteOffset":73792
		},
		{
			"buffer":0,
			"byteLength":24,
			"byteOffset":74160
		},
		{
			"buffer":0,
			"byteLength":24,
			"byteOffset":74184
		},
		{
			"buffer":0,
			"byteLength":368,
			"byteOffset":74208
		},
		{
			"buffer":0,
			"byteLength":24,
			"byteOffset":74576
		},
		{
			"buffer":0,
			"byteLength":24,
			"byteOffset":74600
		},
		{
			"buffer":0,
			"byteLength":368,
			"byteOffset":74624
		},
		{
			"buffer":0,
			"byteLength":24,
			"byteOffset":74992
		},
		{
			"buffer":0,
			"byteLength":24,
			"byteOffset":75016
		},
		{
			"buffer":0,
			"byteLength":368,
			"byteOffset":75040
		},
		{
			"buffer":0,
			"byteLength":276,
			"byteOffset":75408
		},
		{
			"buffer":0,
			"byteLength":24,
			"byteOffset":75684
		},
		{
			"buffer":0,
			"byteLength":368,
			"byteOffset":75708
		},
		{
			"buffer":0,
			"byteLength":24,
			"byteOffset":76076
		},
		{
			"buffer":0,
			"byteLength":24,
			"byteOffset":76100
		},
		{
			"buffer":0,
			"byteLength":368,
			"byteOffset":76124
		},
		{
			"buffer":0,
			"byteLength":24,
			"byteOffset":76492
		},
		{
			"buffer":0,
			"byteLength":24,
			"byteOffset":76516
		},
		{
			"buffer":0,
			"byteLength":368,
			"byteOffset":76540
		},
		{
			"buffer":0,
			"byteLength":276,
			"byteOffset":76908
		},
		{
			"buffer":0,
			"byteLength":24,
			"byteOffset":77184
		},
		{
			"buffer":0,
			"byteLength":368,
			"byteOffset":77208
		},
		{
			"buffer":0,
			"byteLength":24,
			"byteOffset":77576
		},
		{
			"buffer":0,
			"byteLength":24,
			"byteOffset":77600
		},
		{
			"buffer":0,
			"byteLength":368,
			"byteOffset":77624
		},
		{
			"buffer":0,
			"byteLength":24,
			"byteOffset":77992
		},
		{
			"buffer":0,
			"byteLength":24,
			"byteOffset":78016
		},
		{
			"buffer":0,
			"byteLength":32,
			"byteOffset":78040
		},
		{
			"buffer":0,
			"byteLength":276,
			"byteOffset":78072
		},
		{
			"buffer":0,
			"byteLength":24,
			"byteOffset":78348
		},
		{
			"buffer":0,
			"byteLength":32,
			"byteOffset":78372
		},
		{
			"buffer":0,
			"byteLength":276,
			"byteOffset":78404
		},
		{
			"buffer":0,
			"byteLength":24,
			"byteOffset":78680
		},
		{
			"buffer":0,
			"byteLength":368,
			"byteOffset":78704
		},
		{
			"buffer":0,
			"byteLength":276,
			"byteOffset":79072
		},
		{
			"buffer":0,
			"byteLength":24,
			"byteOffset":79348
		},
		{
			"buffer":0,
			"byteLength":368,
			"byteOffset":79372
		},
		{
			"buffer":0,
			"byteLength":24,
			"byteOffset":79740
		},
		{
			"buffer":0,
			"byteLength":368,
			"byteOffset":79764
		},
		{
			"buffer":0,
			"byteLength":24,
			"byteOffset":80132
		},
		{
			"buffer":0,
			"byteLength":24,
			"byteOffset":80156
		},
		{
			"buffer":0,
			"byteLength":368,
			"byteOffset":80180
		},
		{
			"buffer":0,
			"byteLength":276,
			"byteOffset":80548
		},
		{
			"buffer":0,
			"byteLength":24,
			"byteOffset":80824
		},
		{
			"buffer":0,
			"byteLength":368,
			"byteOffset":80848
		},
		{
			"buffer":0,
			"byteLength":24,
			"byteOffset":81216
		},
		{
			"buffer":0,
			"byteLength":24,
			"byteOffset":81240
		},
		{
			"buffer":0,
			"byteLength":368,
			"byteOffset":81264
		},
		{
			"buffer":0,
			"byteLength":24,
			"byteOffset":81632
		},
		{
			"buffer":0,
			"byteLength":24,
			"byteOffset":81656
		},
		{
			"buffer":0,
			"byteLength":32,
			"byteOffset":81680
		},
		{
			"buffer":0,
			"byteLength":276,
			"byteOffset":81712
		},
		{
			"buffer":0,
			"byteLength":24,
			"byteOffset":81988
		},
		{
			"buffer":0,
			"byteLength":24,
			"byteOffset":82012
		},
		{
			"buffer":0,
			"byteLength":368,
			"byteOffset":82036
		},
		{
			"buffer":0,
			"byteLength":276,
			"byteOffset":82404
		},
		{
			"buffer":0,
			"byteLength":24,
			"byteOffset":82680
		},
		{
			"buffer":0,
			"byteLength":368,
			"byteOffset":82704
		},
		{
			"buffer":0,
			"byteLength":24,
			"byteOffset":83072
		},
		{
			"buffer":0,
			"byteLength":24,
			"byteOffset":83096
		},
		{
			"buffer":0,
			"byteLength":368,
			"byteOffset":83120
		},
		{
			"buffer":0,
			"byteLength":24,
			"byteOffset":83488
		},
		{
			"buffer":0,
			"byteLength":24,
			"byteOffset":83512
		},
		{
			"buffer":0,
			"byteLength":368,
			"byteOffset":83536
		},
		{
			"buffer":0,
			"byteLength":276,
			"byteOffset":83904
		},
		{
			"buffer":0,
			"byteLength":24,
			"byteOffset":84180
		},
		{
			"buffer":0,
			"byteLength":368,
			"byteOffset":84204
		},
		{
			"buffer":0,
			"byteLength":24,
			"byteOffset":84572
		},
		{
			"buffer":0,
			"byteLength":24,
			"byteOffset":84596
		},
		{
			"buffer":0,
			"byteLength":368,
			"byteOffset":84620
		},
		{
			"buffer":0,
			"byteLength":24,
			"byteOffset":84988
		},
		{
			"buffer":0,
			"byteLength":24,
			"byteOffset":85012
		},
		{
			"buffer":0,
			"byteLength":32,
			"byteOffset":85036
		},
		{
			"buffer":0,
			"byteLength":276,
			"byteOffset":85068
		},
		{
			"buffer":0,
			"byteLength":24,
			"byteOffset":85344
		},
		{
			"buffer":0,
			"byteLength":24,
			"byteOffset":85368
		},
		{
			"buffer":0,
			"byteLength":276,
			"byteOffset":85392
		},
		{
			"buffer":0,
			"byteLength":24,
			"byteOffset":85668
		},
		{
			"buffer":0,
			"byteLength":276,
			"byteOffset":85692
		},
		{
			"buffer":0,
			"byteLength":24,
			"byteOffset":85968
		}
	],
	"samplers":[
		{
			"magFilter":9728,
			"minFilter":9984
		}
	],
	"buffers":[
		{
			"byteLength":85992,
			"uri":"redactor.bin"
		}
	]
}
