{
	"asset":{
		"generator":"Khronos glTF Blender I/O v5.1.19",
		"version":"2.0"
	},
	"extensionsUsed":[
		"KHR_materials_emissive_strength"
	],
	"scene":0,
	"scenes":[
		{
			"name":"Scene",
			"nodes":[
				21
			]
		}
	],
	"nodes":[
		{
			"name":"bead2_0",
			"rotation":[
				0.16165825724601746,
				0.04989270493388176,
				0.04989270120859146,
				0.984321117401123
			],
			"scale":[
				0.0009999999310821295,
				0.0010000001639127731,
				0.0010000000474974513
			],
			"translation":[
				0.0012313444167375565,
				0.02745858207345009,
				-0.004848407581448555
			]
		},
		{
			"name":"bead3_0",
			"rotation":[
				0.16165825724601746,
				0.04989270493388176,
				0.04989270120859146,
				0.984321117401123
			],
			"scale":[
				0.0009999999310821295,
				0.0010000001639127731,
				0.0010000000474974513
			],
			"translation":[
				0.0012313518673181534,
				0.19905860722064972,
				-0.004848378244787455
			]
		},
		{
			"name":"tip_0",
			"rotation":[
				0.16165825724601746,
				0.04989270865917206,
				0.04989269748330116,
				0.984321117401123
			],
			"scale":[
				0.0009999999310821295,
				0.0010000001639127731,
				0.0010000000474974513
			],
			"translation":[
				0.0016417894512414932,
				0.2411447912454605,
				-0.006464529316872358
			]
		},
		{
			"children":[
				0,
				1,
				2
			],
			"name":"br0_2",
			"rotation":[
				-2.2351741790771484e-08,
				-8.847564458847046e-09,
				-1.0244548320770264e-08,
				1
			],
			"translation":[
				-3.725290298461914e-09,
				0.2600000500679016,
				-2.6542693376541138e-08
			]
		},
		{
			"name":"bead1_0",
			"rotation":[
				0.16165825724601746,
				0.049892690032720566,
				0.04989268630743027,
				0.984321117401123
			],
			"scale":[
				0.0009999999310821295,
				0.0009999999310821295,
				0.0010000000474974513
			],
			"translation":[
				0.0012313425540924072,
				0.11585870385169983,
				-0.0048483991995453835
			]
		},
		{
			"children":[
				3,
				4
			],
			"name":"br0_1",
			"rotation":[
				-7.2177499532699585e-09,
				4.6566128730773926e-09,
				1.0244548320770264e-08,
				1
			],
			"translation":[
				0,
				0.25999999046325684,
				-6.28642737865448e-09
			]
		},
		{
			"name":"bead0_0",
			"rotation":[
				0.16165821254253387,
				0.04989269748330116,
				0.049892690032720566,
				0.984321117401123
			],
			"scale":[
				0.0009999999310821295,
				0.0010000000474974513,
				0.0010000000474974513
			],
			"translation":[
				0.0012313425540924072,
				0.20425869524478912,
				-0.004848392214626074
			]
		},
		{
			"children":[
				5,
				6
			],
			"name":"br0_0",
			"rotation":[
				-0.16165825724601746,
				-0.04989269748330116,
				-0.04989269748330116,
				0.984321117401123
			],
			"scale":[
				0.9999999403953552,
				1,
				1
			],
			"translation":[
				0,
				0.3400000035762787,
				0
			]
		},
		{
			"name":"br1_2",
			"rotation":[
				1.7695128917694092e-08,
				3.725290298461914e-09,
				3.725290298461914e-08,
				1
			],
			"translation":[
				2.60770320892334e-08,
				0.20666664838790894,
				4.6566128730773926e-09
			]
		},
		{
			"children":[
				8
			],
			"name":"br1_1",
			"rotation":[
				4.190951585769653e-09,
				7.450580152834618e-09,
				1.1641532182693481e-09,
				1
			],
			"scale":[
				0.9999999403953552,
				1,
				1
			],
			"translation":[
				4.889443516731262e-09,
				0.20666669309139252,
				-9.546056389808655e-09
			]
		},
		{
			"children":[
				9
			],
			"name":"br1_0",
			"rotation":[
				-0.08352474123239517,
				-0.29340142011642456,
				-0.29340142011642456,
				0.9060103893280029
			],
			"scale":[
				1,
				0.9999999403953552,
				1
			],
			"translation":[
				0,
				0.3400000035762787,
				0
			]
		},
		{
			"name":"br2_2",
			"rotation":[
				-2.7939681679356454e-09,
				3.725290742551124e-09,
				-1.862645593320167e-09,
				1
			],
			"scale":[
				0.9999999403953552,
				0.9999999403953552,
				0.9999998807907104
			],
			"translation":[
				0,
				0.2066667228937149,
				2.2351741790771484e-08
			]
		},
		{
			"children":[
				11
			],
			"name":"br2_1",
			"rotation":[
				-5.3085386753082275e-08,
				2.9802322387695312e-08,
				2.7939677238464355e-08,
				1
			],
			"translation":[
				-3.725290298461914e-09,
				0.20666666328907013,
				8.381903171539307e-09
			]
		},
		{
			"children":[
				12
			],
			"name":"br2_0",
			"rotation":[
				0.28040215373039246,
				-0.1201474517583847,
				-0.1201474517583847,
				0.9447242021560669
			],
			"scale":[
				1,
				1,
				1.0000001192092896
			],
			"translation":[
				0,
				0.3400000035762787,
				0
			]
		},
		{
			"name":"br3_2",
			"rotation":[
				-1.5832481992106295e-08,
				1.4901159417490817e-08,
				0,
				1
			],
			"scale":[
				1.0000001192092896,
				1.0000001192092896,
				1
			],
			"translation":[
				-1.4901161193847656e-08,
				0.2066667228937149,
				3.725290298461914e-09
			]
		},
		{
			"children":[
				14
			],
			"name":"br3_1",
			"rotation":[
				4.6566133171666024e-09,
				-3.585591912269592e-08,
				-5.587935802964239e-08,
				1
			],
			"scale":[
				1,
				0.9999998807907104,
				0.9999999403953552
			],
			"translation":[
				-7.450580596923828e-09,
				0.20666661858558655,
				-9.313225746154785e-09
			]
		},
		{
			"children":[
				15
			],
			"name":"br3_0",
			"rotation":[
				0.08415688574314117,
				0.2932208180427551,
				0.2932208180427551,
				0.9060688614845276
			],
			"translation":[
				0,
				0.3400000035762787,
				0
			]
		},
		{
			"name":"br4_2",
			"rotation":[
				-2.9802322387695312e-08,
				7.450580596923828e-09,
				2.60770320892334e-08,
				1
			],
			"translation":[
				-3.725290298461914e-08,
				0.20666667819023132,
				3.725290298461914e-09
			]
		},
		{
			"children":[
				17
			],
			"name":"br4_1",
			"rotation":[
				3.3527616238870905e-08,
				-4.440892098500626e-16,
				4.440892098500626e-16,
				1
			],
			"scale":[
				1,
				0.9999999403953552,
				0.9999999403953552
			],
			"translation":[
				-1.1175870895385742e-08,
				0.20666664838790894,
				-2.2351741790771484e-08
			]
		},
		{
			"children":[
				18
			],
			"name":"br4_0",
			"rotation":[
				-0.23351287841796875,
				0.19629697501659393,
				0.19629697501659393,
				0.9318834543228149
			],
			"translation":[
				0,
				0.3400000035762787,
				0
			]
		},
		{
			"mesh":0,
			"name":"SpikerRigged",
			"skin":0
		},
		{
			"children":[
				20,
				7,
				10,
				13,
				16,
				19
			],
			"name":"Spiker_Armature"
		}
	],
	"animations":[
		{
			"channels":[
				{
					"sampler":0,
					"target":{
						"node":7,
						"path":"translation"
					}
				},
				{
					"sampler":1,
					"target":{
						"node":7,
						"path":"rotation"
					}
				},
				{
					"sampler":2,
					"target":{
						"node":7,
						"path":"scale"
					}
				},
				{
					"sampler":3,
					"target":{
						"node":5,
						"path":"translation"
					}
				},
				{
					"sampler":4,
					"target":{
						"node":5,
						"path":"rotation"
					}
				},
				{
					"sampler":5,
					"target":{
						"node":5,
						"path":"scale"
					}
				},
				{
					"sampler":6,
					"target":{
						"node":3,
						"path":"translation"
					}
				},
				{
					"sampler":7,
					"target":{
						"node":3,
						"path":"rotation"
					}
				},
				{
					"sampler":8,
					"target":{
						"node":3,
						"path":"scale"
					}
				},
				{
					"sampler":9,
					"target":{
						"node":0,
						"path":"translation"
					}
				},
				{
					"sampler":10,
					"target":{
						"node":0,
						"path":"rotation"
					}
				},
				{
					"sampler":11,
					"target":{
						"node":0,
						"path":"scale"
					}
				},
				{
					"sampler":12,
					"target":{
						"node":1,
						"path":"translation"
					}
				},
				{
					"sampler":13,
					"target":{
						"node":1,
						"path":"rotation"
					}
				},
				{
					"sampler":14,
					"target":{
						"node":1,
						"path":"scale"
					}
				},
				{
					"sampler":15,
					"target":{
						"node":2,
						"path":"translation"
					}
				},
				{
					"sampler":16,
					"target":{
						"node":2,
						"path":"rotation"
					}
				},
				{
					"sampler":17,
					"target":{
						"node":2,
						"path":"scale"
					}
				},
				{
					"sampler":18,
					"target":{
						"node":4,
						"path":"translation"
					}
				},
				{
					"sampler":19,
					"target":{
						"node":4,
						"path":"rotation"
					}
				},
				{
					"sampler":20,
					"target":{
						"node":4,
						"path":"scale"
					}
				},
				{
					"sampler":21,
					"target":{
						"node":6,
						"path":"translation"
					}
				},
				{
					"sampler":22,
					"target":{
						"node":6,
						"path":"rotation"
					}
				},
				{
					"sampler":23,
					"target":{
						"node":6,
						"path":"scale"
					}
				},
				{
					"sampler":24,
					"target":{
						"node":10,
						"path":"translation"
					}
				},
				{
					"sampler":25,
					"target":{
						"node":10,
						"path":"rotation"
					}
				},
				{
					"sampler":26,
					"target":{
						"node":10,
						"path":"scale"
					}
				},
				{
					"sampler":27,
					"target":{
						"node":9,
						"path":"translation"
					}
				},
				{
					"sampler":28,
					"target":{
						"node":9,
						"path":"rotation"
					}
				},
				{
					"sampler":29,
					"target":{
						"node":9,
						"path":"scale"
					}
				},
				{
					"sampler":30,
					"target":{
						"node":8,
						"path":"translation"
					}
				},
				{
					"sampler":31,
					"target":{
						"node":8,
						"path":"rotation"
					}
				},
				{
					"sampler":32,
					"target":{
						"node":8,
						"path":"scale"
					}
				},
				{
					"sampler":33,
					"target":{
						"node":13,
						"path":"translation"
					}
				},
				{
					"sampler":34,
					"target":{
						"node":13,
						"path":"rotation"
					}
				},
				{
					"sampler":35,
					"target":{
						"node":13,
						"path":"scale"
					}
				},
				{
					"sampler":36,
					"target":{
						"node":12,
						"path":"translation"
					}
				},
				{
					"sampler":37,
					"target":{
						"node":12,
						"path":"rotation"
					}
				},
				{
					"sampler":38,
					"target":{
						"node":12,
						"path":"scale"
					}
				},
				{
					"sampler":39,
					"target":{
						"node":11,
						"path":"translation"
					}
				},
				{
					"sampler":40,
					"target":{
						"node":11,
						"path":"rotation"
					}
				},
				{
					"sampler":41,
					"target":{
						"node":11,
						"path":"scale"
					}
				},
				{
					"sampler":42,
					"target":{
						"node":16,
						"path":"translation"
					}
				},
				{
					"sampler":43,
					"target":{
						"node":16,
						"path":"rotation"
					}
				},
				{
					"sampler":44,
					"target":{
						"node":16,
						"path":"scale"
					}
				},
				{
					"sampler":45,
					"target":{
						"node":15,
						"path":"translation"
					}
				},
				{
					"sampler":46,
					"target":{
						"node":15,
						"path":"rotation"
					}
				},
				{
					"sampler":47,
					"target":{
						"node":15,
						"path":"scale"
					}
				},
				{
					"sampler":48,
					"target":{
						"node":14,
						"path":"translation"
					}
				},
				{
					"sampler":49,
					"target":{
						"node":14,
						"path":"rotation"
					}
				},
				{
					"sampler":50,
					"target":{
						"node":14,
						"path":"scale"
					}
				},
				{
					"sampler":51,
					"target":{
						"node":19,
						"path":"translation"
					}
				},
				{
					"sampler":52,
					"target":{
						"node":19,
						"path":"rotation"
					}
				},
				{
					"sampler":53,
					"target":{
						"node":19,
						"path":"scale"
					}
				},
				{
					"sampler":54,
					"target":{
						"node":18,
						"path":"translation"
					}
				},
				{
					"sampler":55,
					"target":{
						"node":18,
						"path":"rotation"
					}
				},
				{
					"sampler":56,
					"target":{
						"node":18,
						"path":"scale"
					}
				},
				{
					"sampler":57,
					"target":{
						"node":17,
						"path":"translation"
					}
				},
				{
					"sampler":58,
					"target":{
						"node":17,
						"path":"rotation"
					}
				},
				{
					"sampler":59,
					"target":{
						"node":17,
						"path":"scale"
					}
				}
			],
			"name":"spiker_lock",
			"samplers":[
				{
					"input":7,
					"interpolation":"STEP",
					"output":8
				},
				{
					"input":9,
					"interpolation":"LINEAR",
					"output":10
				},
				{
					"input":7,
					"interpolation":"STEP",
					"output":11
				},
				{
					"input":7,
					"interpolation":"STEP",
					"output":12
				},
				{
					"input":9,
					"interpolation":"LINEAR",
					"output":13
				},
				{
					"input":7,
					"interpolation":"STEP",
					"output":14
				},
				{
					"input":7,
					"interpolation":"STEP",
					"output":15
				},
				{
					"input":9,
					"interpolation":"LINEAR",
					"output":16
				},
				{
					"input":7,
					"interpolation":"STEP",
					"output":17
				},
				{
					"input":7,
					"interpolation":"STEP",
					"output":18
				},
				{
					"input":7,
					"interpolation":"STEP",
					"output":19
				},
				{
					"input":7,
					"interpolation":"STEP",
					"output":20
				},
				{
					"input":7,
					"interpolation":"STEP",
					"output":21
				},
				{
					"input":7,
					"interpolation":"STEP",
					"output":19
				},
				{
					"input":7,
					"interpolation":"STEP",
					"output":20
				},
				{
					"input":7,
					"interpolation":"STEP",
					"output":22
				},
				{
					"input":7,
					"interpolation":"STEP",
					"output":23
				},
				{
					"input":9,
					"interpolation":"LINEAR",
					"output":24
				},
				{
					"input":7,
					"interpolation":"STEP",
					"output":25
				},
				{
					"input":7,
					"interpolation":"STEP",
					"output":26
				},
				{
					"input":7,
					"interpolation":"STEP",
					"output":27
				},
				{
					"input":7,
					"interpolation":"STEP",
					"output":28
				},
				{
					"input":7,
					"interpolation":"STEP",
					"output":29
				},
				{
					"input":7,
					"interpolation":"STEP",
					"output":30
				},
				{
					"input":7,
					"interpolation":"STEP",
					"output":31
				},
				{
					"input":7,
					"interpolation":"STEP",
					"output":32
				},
				{
					"input":7,
					"interpolation":"STEP",
					"output":33
				},
				{
					"input":7,
					"interpolation":"STEP",
					"output":34
				},
				{
					"input":7,
					"interpolation":"STEP",
					"output":35
				},
				{
					"input":7,
					"interpolation":"STEP",
					"output":36
				},
				{
					"input":7,
					"interpolation":"STEP",
					"output":37
				},
				{
					"input":7,
					"interpolation":"STEP",
					"output":38
				},
				{
					"input":7,
					"interpolation":"STEP",
					"output":14
				},
				{
					"input":7,
					"interpolation":"STEP",
					"output":39
				},
				{
					"input":7,
					"interpolation":"STEP",
					"output":40
				},
				{
					"input":7,
					"interpolation":"STEP",
					"output":41
				},
				{
					"input":7,
					"interpolation":"STEP",
					"output":42
				},
				{
					"input":7,
					"interpolation":"STEP",
					"output":43
				},
				{
					"input":7,
					"interpolation":"STEP",
					"output":14
				},
				{
					"input":7,
					"interpolation":"STEP",
					"output":44
				},
				{
					"input":7,
					"interpolation":"STEP",
					"output":45
				},
				{
					"input":7,
					"interpolation":"STEP",
					"output":36
				},
				{
					"input":7,
					"interpolation":"STEP",
					"output":46
				},
				{
					"input":7,
					"interpolation":"STEP",
					"output":47
				},
				{
					"input":7,
					"interpolation":"STEP",
					"output":48
				},
				{
					"input":7,
					"interpolation":"STEP",
					"output":49
				},
				{
					"input":7,
					"interpolation":"STEP",
					"output":50
				},
				{
					"input":7,
					"interpolation":"STEP",
					"output":51
				},
				{
					"input":7,
					"interpolation":"STEP",
					"output":52
				},
				{
					"input":7,
					"interpolation":"STEP",
					"output":53
				},
				{
					"input":7,
					"interpolation":"STEP",
					"output":54
				},
				{
					"input":7,
					"interpolation":"STEP",
					"output":55
				},
				{
					"input":7,
					"interpolation":"STEP",
					"output":56
				},
				{
					"input":7,
					"interpolation":"STEP",
					"output":14
				},
				{
					"input":7,
					"interpolation":"STEP",
					"output":57
				},
				{
					"input":7,
					"interpolation":"STEP",
					"output":58
				},
				{
					"input":7,
					"interpolation":"STEP",
					"output":14
				},
				{
					"input":7,
					"interpolation":"STEP",
					"output":59
				},
				{
					"input":7,
					"interpolation":"STEP",
					"output":60
				},
				{
					"input":7,
					"interpolation":"STEP",
					"output":14
				}
			]
		},
		{
			"channels":[
				{
					"sampler":0,
					"target":{
						"node":7,
						"path":"translation"
					}
				},
				{
					"sampler":1,
					"target":{
						"node":7,
						"path":"rotation"
					}
				},
				{
					"sampler":2,
					"target":{
						"node":7,
						"path":"scale"
					}
				},
				{
					"sampler":3,
					"target":{
						"node":5,
						"path":"translation"
					}
				},
				{
					"sampler":4,
					"target":{
						"node":5,
						"path":"rotation"
					}
				},
				{
					"sampler":5,
					"target":{
						"node":5,
						"path":"scale"
					}
				},
				{
					"sampler":6,
					"target":{
						"node":3,
						"path":"translation"
					}
				},
				{
					"sampler":7,
					"target":{
						"node":3,
						"path":"rotation"
					}
				},
				{
					"sampler":8,
					"target":{
						"node":3,
						"path":"scale"
					}
				},
				{
					"sampler":9,
					"target":{
						"node":0,
						"path":"translation"
					}
				},
				{
					"sampler":10,
					"target":{
						"node":0,
						"path":"rotation"
					}
				},
				{
					"sampler":11,
					"target":{
						"node":0,
						"path":"scale"
					}
				},
				{
					"sampler":12,
					"target":{
						"node":1,
						"path":"translation"
					}
				},
				{
					"sampler":13,
					"target":{
						"node":1,
						"path":"rotation"
					}
				},
				{
					"sampler":14,
					"target":{
						"node":1,
						"path":"scale"
					}
				},
				{
					"sampler":15,
					"target":{
						"node":2,
						"path":"translation"
					}
				},
				{
					"sampler":16,
					"target":{
						"node":2,
						"path":"rotation"
					}
				},
				{
					"sampler":17,
					"target":{
						"node":2,
						"path":"scale"
					}
				},
				{
					"sampler":18,
					"target":{
						"node":4,
						"path":"translation"
					}
				},
				{
					"sampler":19,
					"target":{
						"node":4,
						"path":"rotation"
					}
				},
				{
					"sampler":20,
					"target":{
						"node":4,
						"path":"scale"
					}
				},
				{
					"sampler":21,
					"target":{
						"node":6,
						"path":"translation"
					}
				},
				{
					"sampler":22,
					"target":{
						"node":6,
						"path":"rotation"
					}
				},
				{
					"sampler":23,
					"target":{
						"node":6,
						"path":"scale"
					}
				},
				{
					"sampler":24,
					"target":{
						"node":10,
						"path":"translation"
					}
				},
				{
					"sampler":25,
					"target":{
						"node":10,
						"path":"rotation"
					}
				},
				{
					"sampler":26,
					"target":{
						"node":10,
						"path":"scale"
					}
				},
				{
					"sampler":27,
					"target":{
						"node":9,
						"path":"translation"
					}
				},
				{
					"sampler":28,
					"target":{
						"node":9,
						"path":"rotation"
					}
				},
				{
					"sampler":29,
					"target":{
						"node":9,
						"path":"scale"
					}
				},
				{
					"sampler":30,
					"target":{
						"node":8,
						"path":"translation"
					}
				},
				{
					"sampler":31,
					"target":{
						"node":8,
						"path":"rotation"
					}
				},
				{
					"sampler":32,
					"target":{
						"node":8,
						"path":"scale"
					}
				},
				{
					"sampler":33,
					"target":{
						"node":13,
						"path":"translation"
					}
				},
				{
					"sampler":34,
					"target":{
						"node":13,
						"path":"rotation"
					}
				},
				{
					"sampler":35,
					"target":{
						"node":13,
						"path":"scale"
					}
				},
				{
					"sampler":36,
					"target":{
						"node":12,
						"path":"translation"
					}
				},
				{
					"sampler":37,
					"target":{
						"node":12,
						"path":"rotation"
					}
				},
				{
					"sampler":38,
					"target":{
						"node":12,
						"path":"scale"
					}
				},
				{
					"sampler":39,
					"target":{
						"node":11,
						"path":"translation"
					}
				},
				{
					"sampler":40,
					"target":{
						"node":11,
						"path":"rotation"
					}
				},
				{
					"sampler":41,
					"target":{
						"node":11,
						"path":"scale"
					}
				},
				{
					"sampler":42,
					"target":{
						"node":16,
						"path":"translation"
					}
				},
				{
					"sampler":43,
					"target":{
						"node":16,
						"path":"rotation"
					}
				},
				{
					"sampler":44,
					"target":{
						"node":16,
						"path":"scale"
					}
				},
				{
					"sampler":45,
					"target":{
						"node":15,
						"path":"translation"
					}
				},
				{
					"sampler":46,
					"target":{
						"node":15,
						"path":"rotation"
					}
				},
				{
					"sampler":47,
					"target":{
						"node":15,
						"path":"scale"
					}
				},
				{
					"sampler":48,
					"target":{
						"node":14,
						"path":"translation"
					}
				},
				{
					"sampler":49,
					"target":{
						"node":14,
						"path":"rotation"
					}
				},
				{
					"sampler":50,
					"target":{
						"node":14,
						"path":"scale"
					}
				},
				{
					"sampler":51,
					"target":{
						"node":19,
						"path":"translation"
					}
				},
				{
					"sampler":52,
					"target":{
						"node":19,
						"path":"rotation"
					}
				},
				{
					"sampler":53,
					"target":{
						"node":19,
						"path":"scale"
					}
				},
				{
					"sampler":54,
					"target":{
						"node":18,
						"path":"translation"
					}
				},
				{
					"sampler":55,
					"target":{
						"node":18,
						"path":"rotation"
					}
				},
				{
					"sampler":56,
					"target":{
						"node":18,
						"path":"scale"
					}
				},
				{
					"sampler":57,
					"target":{
						"node":17,
						"path":"translation"
					}
				},
				{
					"sampler":58,
					"target":{
						"node":17,
						"path":"rotation"
					}
				},
				{
					"sampler":59,
					"target":{
						"node":17,
						"path":"scale"
					}
				}
			],
			"name":"spiker_charge",
			"samplers":[
				{
					"input":61,
					"interpolation":"STEP",
					"output":8
				},
				{
					"input":61,
					"interpolation":"STEP",
					"output":62
				},
				{
					"input":61,
					"interpolation":"STEP",
					"output":63
				},
				{
					"input":61,
					"interpolation":"STEP",
					"output":64
				},
				{
					"input":61,
					"interpolation":"STEP",
					"output":65
				},
				{
					"input":61,
					"interpolation":"STEP",
					"output":14
				},
				{
					"input":61,
					"interpolation":"STEP",
					"output":66
				},
				{
					"input":61,
					"interpolation":"STEP",
					"output":67
				},
				{
					"input":61,
					"interpolation":"STEP",
					"output":68
				},
				{
					"input":61,
					"interpolation":"STEP",
					"output":69
				},
				{
					"input":61,
					"interpolation":"STEP",
					"output":70
				},
				{
					"input":71,
					"interpolation":"LINEAR",
					"output":72
				},
				{
					"input":61,
					"interpolation":"STEP",
					"output":73
				},
				{
					"input":61,
					"interpolation":"STEP",
					"output":70
				},
				{
					"input":71,
					"interpolation":"LINEAR",
					"output":74
				},
				{
					"input":61,
					"interpolation":"STEP",
					"output":75
				},
				{
					"input":61,
					"interpolation":"STEP",
					"output":76
				},
				{
					"input":61,
					"interpolation":"STEP",
					"output":77
				},
				{
					"input":61,
					"interpolation":"STEP",
					"output":78
				},
				{
					"input":61,
					"interpolation":"STEP",
					"output":79
				},
				{
					"input":71,
					"interpolation":"LINEAR",
					"output":80
				},
				{
					"input":61,
					"interpolation":"STEP",
					"output":81
				},
				{
					"input":61,
					"interpolation":"STEP",
					"output":82
				},
				{
					"input":71,
					"interpolation":"LINEAR",
					"output":83
				},
				{
					"input":61,
					"interpolation":"STEP",
					"output":31
				},
				{
					"input":61,
					"interpolation":"STEP",
					"output":32
				},
				{
					"input":61,
					"interpolation":"STEP",
					"output":33
				},
				{
					"input":61,
					"interpolation":"STEP",
					"output":34
				},
				{
					"input":61,
					"interpolation":"STEP",
					"output":35
				},
				{
					"input":61,
					"interpolation":"STEP",
					"output":36
				},
				{
					"input":61,
					"interpolation":"STEP",
					"output":37
				},
				{
					"input":61,
					"interpolation":"STEP",
					"output":38
				},
				{
					"input":61,
					"interpolation":"STEP",
					"output":14
				},
				{
					"input":61,
					"interpolation":"STEP",
					"output":39
				},
				{
					"input":61,
					"interpolation":"STEP",
					"output":40
				},
				{
					"input":61,
					"interpolation":"STEP",
					"output":41
				},
				{
					"input":61,
					"interpolation":"STEP",
					"output":42
				},
				{
					"input":61,
					"interpolation":"STEP",
					"output":43
				},
				{
					"input":61,
					"interpolation":"STEP",
					"output":14
				},
				{
					"input":61,
					"interpolation":"STEP",
					"output":44
				},
				{
					"input":61,
					"interpolation":"STEP",
					"output":45
				},
				{
					"input":61,
					"interpolation":"STEP",
					"output":36
				},
				{
					"input":61,
					"interpolation":"STEP",
					"output":46
				},
				{
					"input":61,
					"interpolation":"STEP",
					"output":47
				},
				{
					"input":61,
					"interpolation":"STEP",
					"output":48
				},
				{
					"input":61,
					"interpolation":"STEP",
					"output":49
				},
				{
					"input":61,
					"interpolation":"STEP",
					"output":50
				},
				{
					"input":61,
					"interpolation":"STEP",
					"output":51
				},
				{
					"input":61,
					"interpolation":"STEP",
					"output":52
				},
				{
					"input":61,
					"interpolation":"STEP",
					"output":53
				},
				{
					"input":61,
					"interpolation":"STEP",
					"output":54
				},
				{
					"input":61,
					"interpolation":"STEP",
					"output":55
				},
				{
					"input":61,
					"interpolation":"STEP",
					"output":56
				},
				{
					"input":61,
					"interpolation":"STEP",
					"output":14
				},
				{
					"input":61,
					"interpolation":"STEP",
					"output":57
				},
				{
					"input":61,
					"interpolation":"STEP",
					"output":58
				},
				{
					"input":61,
					"interpolation":"STEP",
					"output":14
				},
				{
					"input":61,
					"interpolation":"STEP",
					"output":59
				},
				{
					"input":61,
					"interpolation":"STEP",
					"output":60
				},
				{
					"input":61,
					"interpolation":"STEP",
					"output":14
				}
			]
		},
		{
			"channels":[
				{
					"sampler":0,
					"target":{
						"node":7,
						"path":"translation"
					}
				},
				{
					"sampler":1,
					"target":{
						"node":7,
						"path":"rotation"
					}
				},
				{
					"sampler":2,
					"target":{
						"node":7,
						"path":"scale"
					}
				},
				{
					"sampler":3,
					"target":{
						"node":5,
						"path":"translation"
					}
				},
				{
					"sampler":4,
					"target":{
						"node":5,
						"path":"rotation"
					}
				},
				{
					"sampler":5,
					"target":{
						"node":5,
						"path":"scale"
					}
				},
				{
					"sampler":6,
					"target":{
						"node":3,
						"path":"translation"
					}
				},
				{
					"sampler":7,
					"target":{
						"node":3,
						"path":"rotation"
					}
				},
				{
					"sampler":8,
					"target":{
						"node":3,
						"path":"scale"
					}
				},
				{
					"sampler":9,
					"target":{
						"node":0,
						"path":"translation"
					}
				},
				{
					"sampler":10,
					"target":{
						"node":0,
						"path":"rotation"
					}
				},
				{
					"sampler":11,
					"target":{
						"node":0,
						"path":"scale"
					}
				},
				{
					"sampler":12,
					"target":{
						"node":1,
						"path":"translation"
					}
				},
				{
					"sampler":13,
					"target":{
						"node":1,
						"path":"rotation"
					}
				},
				{
					"sampler":14,
					"target":{
						"node":1,
						"path":"scale"
					}
				},
				{
					"sampler":15,
					"target":{
						"node":2,
						"path":"translation"
					}
				},
				{
					"sampler":16,
					"target":{
						"node":2,
						"path":"rotation"
					}
				},
				{
					"sampler":17,
					"target":{
						"node":2,
						"path":"scale"
					}
				},
				{
					"sampler":18,
					"target":{
						"node":4,
						"path":"translation"
					}
				},
				{
					"sampler":19,
					"target":{
						"node":4,
						"path":"rotation"
					}
				},
				{
					"sampler":20,
					"target":{
						"node":4,
						"path":"scale"
					}
				},
				{
					"sampler":21,
					"target":{
						"node":6,
						"path":"translation"
					}
				},
				{
					"sampler":22,
					"target":{
						"node":6,
						"path":"rotation"
					}
				},
				{
					"sampler":23,
					"target":{
						"node":6,
						"path":"scale"
					}
				},
				{
					"sampler":24,
					"target":{
						"node":10,
						"path":"translation"
					}
				},
				{
					"sampler":25,
					"target":{
						"node":10,
						"path":"rotation"
					}
				},
				{
					"sampler":26,
					"target":{
						"node":10,
						"path":"scale"
					}
				},
				{
					"sampler":27,
					"target":{
						"node":9,
						"path":"translation"
					}
				},
				{
					"sampler":28,
					"target":{
						"node":9,
						"path":"rotation"
					}
				},
				{
					"sampler":29,
					"target":{
						"node":9,
						"path":"scale"
					}
				},
				{
					"sampler":30,
					"target":{
						"node":8,
						"path":"translation"
					}
				},
				{
					"sampler":31,
					"target":{
						"node":8,
						"path":"rotation"
					}
				},
				{
					"sampler":32,
					"target":{
						"node":8,
						"path":"scale"
					}
				},
				{
					"sampler":33,
					"target":{
						"node":13,
						"path":"translation"
					}
				},
				{
					"sampler":34,
					"target":{
						"node":13,
						"path":"rotation"
					}
				},
				{
					"sampler":35,
					"target":{
						"node":13,
						"path":"scale"
					}
				},
				{
					"sampler":36,
					"target":{
						"node":12,
						"path":"translation"
					}
				},
				{
					"sampler":37,
					"target":{
						"node":12,
						"path":"rotation"
					}
				},
				{
					"sampler":38,
					"target":{
						"node":12,
						"path":"scale"
					}
				},
				{
					"sampler":39,
					"target":{
						"node":11,
						"path":"translation"
					}
				},
				{
					"sampler":40,
					"target":{
						"node":11,
						"path":"rotation"
					}
				},
				{
					"sampler":41,
					"target":{
						"node":11,
						"path":"scale"
					}
				},
				{
					"sampler":42,
					"target":{
						"node":16,
						"path":"translation"
					}
				},
				{
					"sampler":43,
					"target":{
						"node":16,
						"path":"rotation"
					}
				},
				{
					"sampler":44,
					"target":{
						"node":16,
						"path":"scale"
					}
				},
				{
					"sampler":45,
					"target":{
						"node":15,
						"path":"translation"
					}
				},
				{
					"sampler":46,
					"target":{
						"node":15,
						"path":"rotation"
					}
				},
				{
					"sampler":47,
					"target":{
						"node":15,
						"path":"scale"
					}
				},
				{
					"sampler":48,
					"target":{
						"node":14,
						"path":"translation"
					}
				},
				{
					"sampler":49,
					"target":{
						"node":14,
						"path":"rotation"
					}
				},
				{
					"sampler":50,
					"target":{
						"node":14,
						"path":"scale"
					}
				},
				{
					"sampler":51,
					"target":{
						"node":19,
						"path":"translation"
					}
				},
				{
					"sampler":52,
					"target":{
						"node":19,
						"path":"rotation"
					}
				},
				{
					"sampler":53,
					"target":{
						"node":19,
						"path":"scale"
					}
				},
				{
					"sampler":54,
					"target":{
						"node":18,
						"path":"translation"
					}
				},
				{
					"sampler":55,
					"target":{
						"node":18,
						"path":"rotation"
					}
				},
				{
					"sampler":56,
					"target":{
						"node":18,
						"path":"scale"
					}
				},
				{
					"sampler":57,
					"target":{
						"node":17,
						"path":"translation"
					}
				},
				{
					"sampler":58,
					"target":{
						"node":17,
						"path":"rotation"
					}
				},
				{
					"sampler":59,
					"target":{
						"node":17,
						"path":"scale"
					}
				}
			],
			"name":"spiker_discharge",
			"samplers":[
				{
					"input":7,
					"interpolation":"STEP",
					"output":8
				},
				{
					"input":7,
					"interpolation":"STEP",
					"output":62
				},
				{
					"input":7,
					"interpolation":"STEP",
					"output":63
				},
				{
					"input":7,
					"interpolation":"STEP",
					"output":64
				},
				{
					"input":7,
					"interpolation":"STEP",
					"output":65
				},
				{
					"input":7,
					"interpolation":"STEP",
					"output":14
				},
				{
					"input":7,
					"interpolation":"STEP",
					"output":66
				},
				{
					"input":7,
					"interpolation":"STEP",
					"output":67
				},
				{
					"input":7,
					"interpolation":"STEP",
					"output":68
				},
				{
					"input":7,
					"interpolation":"STEP",
					"output":69
				},
				{
					"input":7,
					"interpolation":"STEP",
					"output":84
				},
				{
					"input":9,
					"interpolation":"LINEAR",
					"output":85
				},
				{
					"input":7,
					"interpolation":"STEP",
					"output":73
				},
				{
					"input":7,
					"interpolation":"STEP",
					"output":84
				},
				{
					"input":9,
					"interpolation":"LINEAR",
					"output":85
				},
				{
					"input":7,
					"interpolation":"STEP",
					"output":75
				},
				{
					"input":7,
					"interpolation":"STEP",
					"output":86
				},
				{
					"input":9,
					"interpolation":"LINEAR",
					"output":87
				},
				{
					"input":7,
					"interpolation":"STEP",
					"output":78
				},
				{
					"input":7,
					"interpolation":"STEP",
					"output":79
				},
				{
					"input":9,
					"interpolation":"LINEAR",
					"output":88
				},
				{
					"input":7,
					"interpolation":"STEP",
					"output":81
				},
				{
					"input":7,
					"interpolation":"STEP",
					"output":29
				},
				{
					"input":9,
					"interpolation":"LINEAR",
					"output":89
				},
				{
					"input":7,
					"interpolation":"STEP",
					"output":31
				},
				{
					"input":7,
					"interpolation":"STEP",
					"output":32
				},
				{
					"input":7,
					"interpolation":"STEP",
					"output":33
				},
				{
					"input":7,
					"interpolation":"STEP",
					"output":34
				},
				{
					"input":7,
					"interpolation":"STEP",
					"output":35
				},
				{
					"input":7,
					"interpolation":"STEP",
					"output":36
				},
				{
					"input":7,
					"interpolation":"STEP",
					"output":37
				},
				{
					"input":7,
					"interpolation":"STEP",
					"output":38
				},
				{
					"input":7,
					"interpolation":"STEP",
					"output":14
				},
				{
					"input":7,
					"interpolation":"STEP",
					"output":39
				},
				{
					"input":7,
					"interpolation":"STEP",
					"output":40
				},
				{
					"input":7,
					"interpolation":"STEP",
					"output":41
				},
				{
					"input":7,
					"interpolation":"STEP",
					"output":42
				},
				{
					"input":7,
					"interpolation":"STEP",
					"output":43
				},
				{
					"input":7,
					"interpolation":"STEP",
					"output":14
				},
				{
					"input":7,
					"interpolation":"STEP",
					"output":44
				},
				{
					"input":7,
					"interpolation":"STEP",
					"output":45
				},
				{
					"input":7,
					"interpolation":"STEP",
					"output":36
				},
				{
					"input":7,
					"interpolation":"STEP",
					"output":46
				},
				{
					"input":7,
					"interpolation":"STEP",
					"output":47
				},
				{
					"input":7,
					"interpolation":"STEP",
					"output":48
				},
				{
					"input":7,
					"interpolation":"STEP",
					"output":49
				},
				{
					"input":7,
					"interpolation":"STEP",
					"output":50
				},
				{
					"input":7,
					"interpolation":"STEP",
					"output":51
				},
				{
					"input":7,
					"interpolation":"STEP",
					"output":52
				},
				{
					"input":7,
					"interpolation":"STEP",
					"output":53
				},
				{
					"input":7,
					"interpolation":"STEP",
					"output":54
				},
				{
					"input":7,
					"interpolation":"STEP",
					"output":55
				},
				{
					"input":7,
					"interpolation":"STEP",
					"output":56
				},
				{
					"input":7,
					"interpolation":"STEP",
					"output":14
				},
				{
					"input":7,
					"interpolation":"STEP",
					"output":57
				},
				{
					"input":7,
					"interpolation":"STEP",
					"output":58
				},
				{
					"input":7,
					"interpolation":"STEP",
					"output":14
				},
				{
					"input":7,
					"interpolation":"STEP",
					"output":59
				},
				{
					"input":7,
					"interpolation":"STEP",
					"output":60
				},
				{
					"input":7,
					"interpolation":"STEP",
					"output":14
				}
			]
		},
		{
			"channels":[
				{
					"sampler":0,
					"target":{
						"node":7,
						"path":"translation"
					}
				},
				{
					"sampler":1,
					"target":{
						"node":7,
						"path":"rotation"
					}
				},
				{
					"sampler":2,
					"target":{
						"node":7,
						"path":"scale"
					}
				},
				{
					"sampler":3,
					"target":{
						"node":5,
						"path":"translation"
					}
				},
				{
					"sampler":4,
					"target":{
						"node":5,
						"path":"rotation"
					}
				},
				{
					"sampler":5,
					"target":{
						"node":5,
						"path":"scale"
					}
				},
				{
					"sampler":6,
					"target":{
						"node":3,
						"path":"translation"
					}
				},
				{
					"sampler":7,
					"target":{
						"node":3,
						"path":"rotation"
					}
				},
				{
					"sampler":8,
					"target":{
						"node":3,
						"path":"scale"
					}
				},
				{
					"sampler":9,
					"target":{
						"node":0,
						"path":"translation"
					}
				},
				{
					"sampler":10,
					"target":{
						"node":0,
						"path":"rotation"
					}
				},
				{
					"sampler":11,
					"target":{
						"node":0,
						"path":"scale"
					}
				},
				{
					"sampler":12,
					"target":{
						"node":1,
						"path":"translation"
					}
				},
				{
					"sampler":13,
					"target":{
						"node":1,
						"path":"rotation"
					}
				},
				{
					"sampler":14,
					"target":{
						"node":1,
						"path":"scale"
					}
				},
				{
					"sampler":15,
					"target":{
						"node":2,
						"path":"translation"
					}
				},
				{
					"sampler":16,
					"target":{
						"node":2,
						"path":"rotation"
					}
				},
				{
					"sampler":17,
					"target":{
						"node":2,
						"path":"scale"
					}
				},
				{
					"sampler":18,
					"target":{
						"node":4,
						"path":"translation"
					}
				},
				{
					"sampler":19,
					"target":{
						"node":4,
						"path":"rotation"
					}
				},
				{
					"sampler":20,
					"target":{
						"node":4,
						"path":"scale"
					}
				},
				{
					"sampler":21,
					"target":{
						"node":6,
						"path":"translation"
					}
				},
				{
					"sampler":22,
					"target":{
						"node":6,
						"path":"rotation"
					}
				},
				{
					"sampler":23,
					"target":{
						"node":6,
						"path":"scale"
					}
				},
				{
					"sampler":24,
					"target":{
						"node":10,
						"path":"translation"
					}
				},
				{
					"sampler":25,
					"target":{
						"node":10,
						"path":"rotation"
					}
				},
				{
					"sampler":26,
					"target":{
						"node":10,
						"path":"scale"
					}
				},
				{
					"sampler":27,
					"target":{
						"node":9,
						"path":"translation"
					}
				},
				{
					"sampler":28,
					"target":{
						"node":9,
						"path":"rotation"
					}
				},
				{
					"sampler":29,
					"target":{
						"node":9,
						"path":"scale"
					}
				},
				{
					"sampler":30,
					"target":{
						"node":8,
						"path":"translation"
					}
				},
				{
					"sampler":31,
					"target":{
						"node":8,
						"path":"rotation"
					}
				},
				{
					"sampler":32,
					"target":{
						"node":8,
						"path":"scale"
					}
				},
				{
					"sampler":33,
					"target":{
						"node":13,
						"path":"translation"
					}
				},
				{
					"sampler":34,
					"target":{
						"node":13,
						"path":"rotation"
					}
				},
				{
					"sampler":35,
					"target":{
						"node":13,
						"path":"scale"
					}
				},
				{
					"sampler":36,
					"target":{
						"node":12,
						"path":"translation"
					}
				},
				{
					"sampler":37,
					"target":{
						"node":12,
						"path":"rotation"
					}
				},
				{
					"sampler":38,
					"target":{
						"node":12,
						"path":"scale"
					}
				},
				{
					"sampler":39,
					"target":{
						"node":11,
						"path":"translation"
					}
				},
				{
					"sampler":40,
					"target":{
						"node":11,
						"path":"rotation"
					}
				},
				{
					"sampler":41,
					"target":{
						"node":11,
						"path":"scale"
					}
				},
				{
					"sampler":42,
					"target":{
						"node":16,
						"path":"translation"
					}
				},
				{
					"sampler":43,
					"target":{
						"node":16,
						"path":"rotation"
					}
				},
				{
					"sampler":44,
					"target":{
						"node":16,
						"path":"scale"
					}
				},
				{
					"sampler":45,
					"target":{
						"node":15,
						"path":"translation"
					}
				},
				{
					"sampler":46,
					"target":{
						"node":15,
						"path":"rotation"
					}
				},
				{
					"sampler":47,
					"target":{
						"node":15,
						"path":"scale"
					}
				},
				{
					"sampler":48,
					"target":{
						"node":14,
						"path":"translation"
					}
				},
				{
					"sampler":49,
					"target":{
						"node":14,
						"path":"rotation"
					}
				},
				{
					"sampler":50,
					"target":{
						"node":14,
						"path":"scale"
					}
				},
				{
					"sampler":51,
					"target":{
						"node":19,
						"path":"translation"
					}
				},
				{
					"sampler":52,
					"target":{
						"node":19,
						"path":"rotation"
					}
				},
				{
					"sampler":53,
					"target":{
						"node":19,
						"path":"scale"
					}
				},
				{
					"sampler":54,
					"target":{
						"node":18,
						"path":"translation"
					}
				},
				{
					"sampler":55,
					"target":{
						"node":18,
						"path":"rotation"
					}
				},
				{
					"sampler":56,
					"target":{
						"node":18,
						"path":"scale"
					}
				},
				{
					"sampler":57,
					"target":{
						"node":17,
						"path":"translation"
					}
				},
				{
					"sampler":58,
					"target":{
						"node":17,
						"path":"rotation"
					}
				},
				{
					"sampler":59,
					"target":{
						"node":17,
						"path":"scale"
					}
				}
			],
			"name":"spiker_sever",
			"samplers":[
				{
					"input":90,
					"interpolation":"STEP",
					"output":8
				},
				{
					"input":90,
					"interpolation":"STEP",
					"output":62
				},
				{
					"input":90,
					"interpolation":"STEP",
					"output":63
				},
				{
					"input":90,
					"interpolation":"STEP",
					"output":64
				},
				{
					"input":90,
					"interpolation":"STEP",
					"output":65
				},
				{
					"input":90,
					"interpolation":"STEP",
					"output":14
				},
				{
					"input":90,
					"interpolation":"STEP",
					"output":66
				},
				{
					"input":90,
					"interpolation":"STEP",
					"output":67
				},
				{
					"input":90,
					"interpolation":"STEP",
					"output":68
				},
				{
					"input":90,
					"interpolation":"STEP",
					"output":69
				},
				{
					"input":90,
					"interpolation":"STEP",
					"output":91
				},
				{
					"input":90,
					"interpolation":"STEP",
					"output":92
				},
				{
					"input":90,
					"interpolation":"STEP",
					"output":73
				},
				{
					"input":90,
					"interpolation":"STEP",
					"output":91
				},
				{
					"input":90,
					"interpolation":"STEP",
					"output":92
				},
				{
					"input":90,
					"interpolation":"STEP",
					"output":75
				},
				{
					"input":90,
					"interpolation":"STEP",
					"output":86
				},
				{
					"input":93,
					"interpolation":"LINEAR",
					"output":94
				},
				{
					"input":90,
					"interpolation":"STEP",
					"output":78
				},
				{
					"input":90,
					"interpolation":"STEP",
					"output":79
				},
				{
					"input":90,
					"interpolation":"STEP",
					"output":95
				},
				{
					"input":90,
					"interpolation":"STEP",
					"output":81
				},
				{
					"input":90,
					"interpolation":"STEP",
					"output":96
				},
				{
					"input":90,
					"interpolation":"STEP",
					"output":95
				},
				{
					"input":90,
					"interpolation":"STEP",
					"output":31
				},
				{
					"input":90,
					"interpolation":"STEP",
					"output":32
				},
				{
					"input":90,
					"interpolation":"STEP",
					"output":33
				},
				{
					"input":90,
					"interpolation":"STEP",
					"output":34
				},
				{
					"input":90,
					"interpolation":"STEP",
					"output":35
				},
				{
					"input":90,
					"interpolation":"STEP",
					"output":36
				},
				{
					"input":90,
					"interpolation":"STEP",
					"output":37
				},
				{
					"input":90,
					"interpolation":"STEP",
					"output":38
				},
				{
					"input":90,
					"interpolation":"STEP",
					"output":14
				},
				{
					"input":90,
					"interpolation":"STEP",
					"output":39
				},
				{
					"input":90,
					"interpolation":"STEP",
					"output":40
				},
				{
					"input":90,
					"interpolation":"STEP",
					"output":41
				},
				{
					"input":90,
					"interpolation":"STEP",
					"output":42
				},
				{
					"input":90,
					"interpolation":"STEP",
					"output":43
				},
				{
					"input":90,
					"interpolation":"STEP",
					"output":14
				},
				{
					"input":90,
					"interpolation":"STEP",
					"output":44
				},
				{
					"input":90,
					"interpolation":"STEP",
					"output":45
				},
				{
					"input":90,
					"interpolation":"STEP",
					"output":36
				},
				{
					"input":90,
					"interpolation":"STEP",
					"output":46
				},
				{
					"input":90,
					"interpolation":"STEP",
					"output":47
				},
				{
					"input":90,
					"interpolation":"STEP",
					"output":48
				},
				{
					"input":90,
					"interpolation":"STEP",
					"output":49
				},
				{
					"input":90,
					"interpolation":"STEP",
					"output":50
				},
				{
					"input":90,
					"interpolation":"STEP",
					"output":51
				},
				{
					"input":90,
					"interpolation":"STEP",
					"output":52
				},
				{
					"input":90,
					"interpolation":"STEP",
					"output":53
				},
				{
					"input":90,
					"interpolation":"STEP",
					"output":54
				},
				{
					"input":90,
					"interpolation":"STEP",
					"output":55
				},
				{
					"input":90,
					"interpolation":"STEP",
					"output":56
				},
				{
					"input":90,
					"interpolation":"STEP",
					"output":14
				},
				{
					"input":90,
					"interpolation":"STEP",
					"output":57
				},
				{
					"input":90,
					"interpolation":"STEP",
					"output":58
				},
				{
					"input":90,
					"interpolation":"STEP",
					"output":14
				},
				{
					"input":90,
					"interpolation":"STEP",
					"output":59
				},
				{
					"input":90,
					"interpolation":"STEP",
					"output":60
				},
				{
					"input":90,
					"interpolation":"STEP",
					"output":14
				}
			]
		}
	],
	"materials":[
		{
			"doubleSided":true,
			"emissiveFactor":[
				1,
				1,
				1
			],
			"emissiveTexture":{
				"index":0
			},
			"extensions":{
				"KHR_materials_emissive_strength":{
					"emissiveStrength":4
				}
			},
			"name":"SpikerRiggedTex",
			"pbrMetallicRoughness":{
				"baseColorTexture":{
					"index":1
				},
				"metallicFactor":0,
				"roughnessFactor":0.8999999761581421
			}
		}
	],
	"meshes":[
		{
			"name":"SpikerRigged",
			"primitives":[
				{
					"attributes":{
						"POSITION":0,
						"NORMAL":1,
						"TEXCOORD_0":2,
						"JOINTS_0":3,
						"WEIGHTS_0":4
					},
					"indices":5,
					"material":0
				}
			]
		}
	],
	"textures":[
		{
			"sampler":0,
			"source":0
		},
		{
			"sampler":0,
			"source":1
		}
	],
	"images":[
		{
			"mimeType":"image/png",
			"name":"SpikerRigged_emissive",
			"uri":"SpikerRigged_emissive.png"
		},
		{
			"mimeType":"image/png",
			"name":"SpikerRigged_tex",
			"uri":"SpikerRigged_tex.png"
		}
	],
	"skins":[
		{
			"inverseBindMatrices":6,
			"joints":[
				7,
				5,
				3,
				0,
				1,
				2,
				4,
				6,
				10,
				9,
				8,
				13,
				12,
				11,
				16,
				15,
				14,
				19,
				18,
				17
			],
			"name":"Spiker_Armature"
		}
	],
	"accessors":[
		{
			"bufferView":0,
			"componentType":5126,
			"count":776,
			"max":[
				0.3723682165145874,
				1.1153486967086792,
				0.3571246266365051
			],
			"min":[
				-0.31220778822898865,
				0,
				-0.2954423129558563
			],
			"type":"VEC3"
		},
		{
			"bufferView":1,
			"componentType":5126,
			"count":776,
			"type":"VEC3"
		},
		{
			"bufferView":2,
			"componentType":5126,
			"count":776,
			"type":"VEC2"
		},
		{
			"bufferView":3,
			"componentType":5121,
			"count":776,
			"type":"VEC4"
		},
		{
			"bufferView":4,
			"componentType":5126,
			"count":776,
			"type":"VEC4"
		},
		{
			"bufferView":5,
			"componentType":5123,
			"count":1224,
			"type":"SCALAR"
		},
		{
			"bufferView":6,
			"componentType":5126,
			"count":20,
			"type":"MAT4"
		},
		{
			"bufferView":7,
			"componentType":5126,
			"count":2,
			"max":[
				0.5
			],
			"min":[
				0.041666666666666664
			],
			"type":"SCALAR"
		},
		{
			"bufferView":8,
			"componentType":5126,
			"count":2,
			"type":"VEC3"
		},
		{
			"bufferView":9,
			"componentType":5126,
			"count":12,
			"max":[
				0.5
			],
			"min":[
				0.041666666666666664
			],
			"type":"SCALAR"
		},
		{
			"bufferView":10,
			"componentType":5126,
			"count":12,
			"type":"VEC4"
		},
		{
			"bufferView":11,
			"componentType":5126,
			"count":2,
			"type":"VEC3"
		},
		{
			"bufferView":12,
			"componentType":5126,
			"count":2,
			"type":"VEC3"
		},
		{
			"bufferView":13,
			"componentType":5126,
			"count":12,
			"type":"VEC4"
		},
		{
			"bufferView":14,
			"componentType":5126,
			"count":2,
			"type":"VEC3"
		},
		{
			"bufferView":15,
			"componentType":5126,
			"count":2,
			"type":"VEC3"
		},
		{
			"bufferView":16,
			"componentType":5126,
			"count":12,
			"type":"VEC4"
		},
		{
			"bufferView":17,
			"componentType":5126,
			"count":2,
			"type":"VEC3"
		},
		{
			"bufferView":18,
			"componentType":5126,
			"count":2,
			"type":"VEC3"
		},
		{
			"bufferView":19,
			"componentType":5126,
			"count":2,
			"type":"VEC4"
		},
		{
			"bufferView":20,
			"componentType":5126,
			"count":2,
			"type":"VEC3"
		},
		{
			"bufferView":21,
			"componentType":5126,
			"count":2,
			"type":"VEC3"
		},
		{
			"bufferView":22,
			"componentType":5126,
			"count":2,
			"type":"VEC3"
		},
		{
			"bufferView":23,
			"componentType":5126,
			"count":2,
			"type":"VEC4"
		},
		{
			"bufferView":24,
			"componentType":5126,
			"count":12,
			"type":"VEC3"
		},
		{
			"bufferView":25,
			"componentType":5126,
			"count":2,
			"type":"VEC3"
		},
		{
			"bufferView":26,
			"componentType":5126,
			"count":2,
			"type":"VEC4"
		},
		{
			"bufferView":27,
			"componentType":5126,
			"count":2,
			"type":"VEC3"
		},
		{
			"bufferView":28,
			"componentType":5126,
			"count":2,
			"type":"VEC3"
		},
		{
			"bufferView":29,
			"componentType":5126,
			"count":2,
			"type":"VEC4"
		},
		{
			"bufferView":30,
			"componentType":5126,
			"count":2,
			"type":"VEC3"
		},
		{
			"bufferView":31,
			"componentType":5126,
			"count":2,
			"type":"VEC3"
		},
		{
			"bufferView":32,
			"componentType":5126,
			"count":2,
			"type":"VEC4"
		},
		{
			"bufferView":33,
			"componentType":5126,
			"count":2,
			"type":"VEC3"
		},
		{
			"bufferView":34,
			"componentType":5126,
			"count":2,
			"type":"VEC3"
		},
		{
			"bufferView":35,
			"componentType":5126,
			"count":2,
			"type":"VEC4"
		},
		{
			"bufferView":36,
			"componentType":5126,
			"count":2,
			"type":"VEC3"
		},
		{
			"bufferView":37,
			"componentType":5126,
			"count":2,
			"type":"VEC3"
		},
		{
			"bufferView":38,
			"componentType":5126,
			"count":2,
			"type":"VEC4"
		},
		{
			"bufferView":39,
			"componentType":5126,
			"count":2,
			"type":"VEC3"
		},
		{
			"bufferView":40,
			"componentType":5126,
			"count":2,
			"type":"VEC4"
		},
		{
			"bufferView":41,
			"componentType":5126,
			"count":2,
			"type":"VEC3"
		},
		{
			"bufferView":42,
			"componentType":5126,
			"count":2,
			"type":"VEC3"
		},
		{
			"bufferView":43,
			"componentType":5126,
			"count":2,
			"type":"VEC4"
		},
		{
			"bufferView":44,
			"componentType":5126,
			"count":2,
			"type":"VEC3"
		},
		{
			"bufferView":45,
			"componentType":5126,
			"count":2,
			"type":"VEC4"
		},
		{
			"bufferView":46,
			"componentType":5126,
			"count":2,
			"type":"VEC3"
		},
		{
			"bufferView":47,
			"componentType":5126,
			"count":2,
			"type":"VEC4"
		},
		{
			"bufferView":48,
			"componentType":5126,
			"count":2,
			"type":"VEC3"
		},
		{
			"bufferView":49,
			"componentType":5126,
			"count":2,
			"type":"VEC3"
		},
		{
			"bufferView":50,
			"componentType":5126,
			"count":2,
			"type":"VEC4"
		},
		{
			"bufferView":51,
			"componentType":5126,
			"count":2,
			"type":"VEC3"
		},
		{
			"bufferView":52,
			"componentType":5126,
			"count":2,
			"type":"VEC3"
		},
		{
			"bufferView":53,
			"componentType":5126,
			"count":2,
			"type":"VEC4"
		},
		{
			"bufferView":54,
			"componentType":5126,
			"count":2,
			"type":"VEC3"
		},
		{
			"bufferView":55,
			"componentType":5126,
			"count":2,
			"type":"VEC3"
		},
		{
			"bufferView":56,
			"componentType":5126,
			"count":2,
			"type":"VEC4"
		},
		{
			"bufferView":57,
			"componentType":5126,
			"count":2,
			"type":"VEC3"
		},
		{
			"bufferView":58,
			"componentType":5126,
			"count":2,
			"type":"VEC4"
		},
		{
			"bufferView":59,
			"componentType":5126,
			"count":2,
			"type":"VEC3"
		},
		{
			"bufferView":60,
			"componentType":5126,
			"count":2,
			"type":"VEC4"
		},
		{
			"bufferView":61,
			"componentType":5126,
			"count":2,
			"max":[
				1.6666666666666667
			],
			"min":[
				0.041666666666666664
			],
			"type":"SCALAR"
		},
		{
			"bufferView":62,
			"componentType":5126,
			"count":2,
			"type":"VEC4"
		},
		{
			"bufferView":63,
			"componentType":5126,
			"count":2,
			"type":"VEC3"
		},
		{
			"bufferView":64,
			"componentType":5126,
			"count":2,
			"type":"VEC3"
		},
		{
			"bufferView":65,
			"componentType":5126,
			"count":2,
			"type":"VEC4"
		},
		{
			"bufferView":66,
			"componentType":5126,
			"count":2,
			"type":"VEC3"
		},
		{
			"bufferView":67,
			"componentType":5126,
			"count":2,
			"type":"VEC4"
		},
		{
			"bufferView":68,
			"componentType":5126,
			"count":2,
			"type":"VEC3"
		},
		{
			"bufferView":69,
			"componentType":5126,
			"count":2,
			"type":"VEC3"
		},
		{
			"bufferView":70,
			"componentType":5126,
			"count":2,
			"type":"VEC4"
		},
		{
			"bufferView":71,
			"componentType":5126,
			"count":40,
			"max":[
				1.6666666666666667
			],
			"min":[
				0.041666666666666664
			],
			"type":"SCALAR"
		},
		{
			"bufferView":72,
			"componentType":5126,
			"count":40,
			"type":"VEC3"
		},
		{
			"bufferView":73,
			"componentType":5126,
			"count":2,
			"type":"VEC3"
		},
		{
			"bufferView":74,
			"componentType":5126,
			"count":40,
			"type":"VEC3"
		},
		{
			"bufferView":75,
			"componentType":5126,
			"count":2,
			"type":"VEC3"
		},
		{
			"bufferView":76,
			"componentType":5126,
			"count":2,
			"type":"VEC4"
		},
		{
			"bufferView":77,
			"componentType":5126,
			"count":2,
			"type":"VEC3"
		},
		{
			"bufferView":78,
			"componentType":5126,
			"count":2,
			"type":"VEC3"
		},
		{
			"bufferView":79,
			"componentType":5126,
			"count":2,
			"type":"VEC4"
		},
		{
			"bufferView":80,
			"componentType":5126,
			"count":40,
			"type":"VEC3"
		},
		{
			"bufferView":81,
			"componentType":5126,
			"count":2,
			"type":"VEC3"
		},
		{
			"bufferView":82,
			"componentType":5126,
			"count":2,
			"type":"VEC4"
		},
		{
			"bufferView":83,
			"componentType":5126,
			"count":40,
			"type":"VEC3"
		},
		{
			"bufferView":84,
			"componentType":5126,
			"count":2,
			"type":"VEC4"
		},
		{
			"bufferView":85,
			"componentType":5126,
			"count":12,
			"type":"VEC3"
		},
		{
			"bufferView":86,
			"componentType":5126,
			"count":2,
			"type":"VEC4"
		},
		{
			"bufferView":87,
			"componentType":5126,
			"count":12,
			"type":"VEC3"
		},
		{
			"bufferView":88,
			"componentType":5126,
			"count":12,
			"type":"VEC3"
		},
		{
			"bufferView":89,
			"componentType":5126,
			"count":12,
			"type":"VEC3"
		},
		{
			"bufferView":90,
			"componentType":5126,
			"count":2,
			"max":[
				0.2916666666666667
			],
			"min":[
				0.041666666666666664
			],
			"type":"SCALAR"
		},
		{
			"bufferView":91,
			"componentType":5126,
			"count":2,
			"type":"VEC4"
		},
		{
			"bufferView":92,
			"componentType":5126,
			"count":2,
			"type":"VEC3"
		},
		{
			"bufferView":93,
			"componentType":5126,
			"count":7,
			"max":[
				0.2916666666666667
			],
			"min":[
				0.041666666666666664
			],
			"type":"SCALAR"
		},
		{
			"bufferView":94,
			"componentType":5126,
			"count":7,
			"type":"VEC3"
		},
		{
			"bufferView":95,
			"componentType":5126,
			"count":2,
			"type":"VEC3"
		},
		{
			"bufferView":96,
			"componentType":5126,
			"count":2,
			"type":"VEC4"
		}
	],
	"bufferViews":[
		{
			"buffer":0,
			"byteLength":9312,
			"byteOffset":0,
			"target":34962
		},
		{
			"buffer":0,
			"byteLength":9312,
			"byteOffset":9312,
			"target":34962
		},
		{
			"buffer":0,
			"byteLength":6208,
			"byteOffset":18624,
			"target":34962
		},
		{
			"buffer":0,
			"byteLength":3104,
			"byteOffset":24832,
			"target":34962
		},
		{
			"buffer":0,
			"byteLength":12416,
			"byteOffset":27936,
			"target":34962
		},
		{
			"buffer":0,
			"byteLength":2448,
			"byteOffset":40352,
			"target":34963
		},
		{
			"buffer":0,
			"byteLength":1280,
			"byteOffset":42800
		},
		{
			"buffer":0,
			"byteLength":8,
			"byteOffset":44080
		},
		{
			"buffer":0,
			"byteLength":24,
			"byteOffset":44088
		},
		{
			"buffer":0,
			"byteLength":48,
			"byteOffset":44112
		},
		{
			"buffer":0,
			"byteLength":192,
			"byteOffset":44160
		},
		{
			"buffer":0,
			"byteLength":24,
			"byteOffset":44352
		},
		{
			"buffer":0,
			"byteLength":24,
			"byteOffset":44376
		},
		{
			"buffer":0,
			"byteLength":192,
			"byteOffset":44400
		},
		{
			"buffer":0,
			"byteLength":24,
			"byteOffset":44592
		},
		{
			"buffer":0,
			"byteLength":24,
			"byteOffset":44616
		},
		{
			"buffer":0,
			"byteLength":192,
			"byteOffset":44640
		},
		{
			"buffer":0,
			"byteLength":24,
			"byteOffset":44832
		},
		{
			"buffer":0,
			"byteLength":24,
			"byteOffset":44856
		},
		{
			"buffer":0,
			"byteLength":32,
			"byteOffset":44880
		},
		{
			"buffer":0,
			"byteLength":24,
			"byteOffset":44912
		},
		{
			"buffer":0,
			"byteLength":24,
			"byteOffset":44936
		},
		{
			"buffer":0,
			"byteLength":24,
			"byteOffset":44960
		},
		{
			"buffer":0,
			"byteLength":32,
			"byteOffset":44984
		},
		{
			"buffer":0,
			"byteLength":144,
			"byteOffset":45016
		},
		{
			"buffer":0,
			"byteLength":24,
			"byteOffset":45160
		},
		{
			"buffer":0,
			"byteLength":32,
			"byteOffset":45184
		},
		{
			"buffer":0,
			"byteLength":24,
			"byteOffset":45216
		},
		{
			"buffer":0,
			"byteLength":24,
			"byteOffset":45240
		},
		{
			"buffer":0,
			"byteLength":32,
			"byteOffset":45264
		},
		{
			"buffer":0,
			"byteLength":24,
			"byteOffset":45296
		},
		{
			"buffer":0,
			"byteLength":24,
			"byteOffset":45320
		},
		{
			"buffer":0,
			"byteLength":32,
			"byteOffset":45344
		},
		{
			"buffer":0,
			"byteLength":24,
			"byteOffset":45376
		},
		{
			"buffer":0,
			"byteLength":24,
			"byteOffset":45400
		},
		{
			"buffer":0,
			"byteLength":32,
			"byteOffset":45424
		},
		{
			"buffer":0,
			"byteLength":24,
			"byteOffset":45456
		},
		{
			"buffer":0,
			"byteLength":24,
			"byteOffset":45480
		},
		{
			"buffer":0,
			"byteLength":32,
			"byteOffset":45504
		},
		{
			"buffer":0,
			"byteLength":24,
			"byteOffset":45536
		},
		{
			"buffer":0,
			"byteLength":32,
			"byteOffset":45560
		},
		{
			"buffer":0,
			"byteLength":24,
			"byteOffset":45592
		},
		{
			"buffer":0,
			"byteLength":24,
			"byteOffset":45616
		},
		{
			"buffer":0,
			"byteLength":32,
			"byteOffset":45640
		},
		{
			"buffer":0,
			"byteLength":24,
			"byteOffset":45672
		},
		{
			"buffer":0,
			"byteLength":32,
			"byteOffset":45696
		},
		{
			"buffer":0,
			"byteLength":24,
			"byteOffset":45728
		},
		{
			"buffer":0,
			"byteLength":32,
			"byteOffset":45752
		},
		{
			"buffer":0,
			"byteLength":24,
			"byteOffset":45784
		},
		{
			"buffer":0,
			"byteLength":24,
			"byteOffset":45808
		},
		{
			"buffer":0,
			"byteLength":32,
			"byteOffset":45832
		},
		{
			"buffer":0,
			"byteLength":24,
			"byteOffset":45864
		},
		{
			"buffer":0,
			"byteLength":24,
			"byteOffset":45888
		},
		{
			"buffer":0,
			"byteLength":32,
			"byteOffset":45912
		},
		{
			"buffer":0,
			"byteLength":24,
			"byteOffset":45944
		},
		{
			"buffer":0,
			"byteLength":24,
			"byteOffset":45968
		},
		{
			"buffer":0,
			"byteLength":32,
			"byteOffset":45992
		},
		{
			"buffer":0,
			"byteLength":24,
			"byteOffset":46024
		},
		{
			"buffer":0,
			"byteLength":32,
			"byteOffset":46048
		},
		{
			"buffer":0,
			"byteLength":24,
			"byteOffset":46080
		},
		{
			"buffer":0,
			"byteLength":32,
			"byteOffset":46104
		},
		{
			"buffer":0,
			"byteLength":8,
			"byteOffset":46136
		},
		{
			"buffer":0,
			"byteLength":32,
			"byteOffset":46144
		},
		{
			"buffer":0,
			"byteLength":24,
			"byteOffset":46176
		},
		{
			"buffer":0,
			"byteLength":24,
			"byteOffset":46200
		},
		{
			"buffer":0,
			"byteLength":32,
			"byteOffset":46224
		},
		{
			"buffer":0,
			"byteLength":24,
			"byteOffset":46256
		},
		{
			"buffer":0,
			"byteLength":32,
			"byteOffset":46280
		},
		{
			"buffer":0,
			"byteLength":24,
			"byteOffset":46312
		},
		{
			"buffer":0,
			"byteLength":24,
			"byteOffset":46336
		},
		{
			"buffer":0,
			"byteLength":32,
			"byteOffset":46360
		},
		{
			"buffer":0,
			"byteLength":160,
			"byteOffset":46392
		},
		{
			"buffer":0,
			"byteLength":480,
			"byteOffset":46552
		},
		{
			"buffer":0,
			"byteLength":24,
			"byteOffset":47032
		},
		{
			"buffer":0,
			"byteLength":480,
			"byteOffset":47056
		},
		{
			"buffer":0,
			"byteLength":24,
			"byteOffset":47536
		},
		{
			"buffer":0,
			"byteLength":32,
			"byteOffset":47560
		},
		{
			"buffer":0,
			"byteLength":24,
			"byteOffset":47592
		},
		{
			"buffer":0,
			"byteLength":24,
			"byteOffset":47616
		},
		{
			"buffer":0,
			"byteLength":32,
			"byteOffset":47640
		},
		{
			"buffer":0,
			"byteLength":480,
			"byteOffset":47672
		},
		{
			"buffer":0,
			"byteLength":24,
			"byteOffset":48152
		},
		{
			"buffer":0,
			"byteLength":32,
			"byteOffset":48176
		},
		{
			"buffer":0,
			"byteLength":480,
			"byteOffset":48208
		},
		{
			"buffer":0,
			"byteLength":32,
			"byteOffset":48688
		},
		{
			"buffer":0,
			"byteLength":144,
			"byteOffset":48720
		},
		{
			"buffer":0,
			"byteLength":32,
			"byteOffset":48864
		},
		{
			"buffer":0,
			"byteLength":144,
			"byteOffset":48896
		},
		{
			"buffer":0,
			"byteLength":144,
			"byteOffset":49040
		},
		{
			"buffer":0,
			"byteLength":144,
			"byteOffset":49184
		},
		{
			"buffer":0,
			"byteLength":8,
			"byteOffset":49328
		},
		{
			"buffer":0,
			"byteLength":32,
			"byteOffset":49336
		},
		{
			"buffer":0,
			"byteLength":24,
			"byteOffset":49368
		},
		{
			"buffer":0,
			"byteLength":28,
			"byteOffset":49392
		},
		{
			"buffer":0,
			"byteLength":84,
			"byteOffset":49420
		},
		{
			"buffer":0,
			"byteLength":24,
			"byteOffset":49504
		},
		{
			"buffer":0,
			"byteLength":32,
			"byteOffset":49528
		}
	],
	"samplers":[
		{
			"magFilter":9728,
			"minFilter":9984
		}
	],
	"buffers":[
		{
			"byteLength":49560,
			"uri":"spiker.bin"
		}
	]
}
