{
	"asset":{
		"generator":"Khronos glTF Blender I/O v5.1.19",
		"version":"2.0"
	},
	"extensionsUsed":[
		"KHR_materials_emissive_strength"
	],
	"scene":0,
	"scenes":[
		{
			"name":"Scene",
			"nodes":[
				17
			]
		}
	],
	"nodes":[
		{
			"name":"fil0_3",
			"rotation":[
				0.21822962164878845,
				-1.9849943555527716e-07,
				-8.398052386837662e-08,
				0.975897490978241
			],
			"translation":[
				-1.0593794286251068e-08,
				0.10042866319417953,
				-3.166496753692627e-08
			]
		},
		{
			"children":[
				0
			],
			"name":"fil0_2",
			"rotation":[
				0.2182297259569168,
				1.7177837818849184e-08,
				8.111756599760156e-09,
				0.9758974313735962
			],
			"scale":[
				0.9999999403953552,
				1,
				1
			],
			"translation":[
				-2.6542693376541138e-08,
				0.10042868554592133,
				-1.210719347000122e-08
			]
		},
		{
			"children":[
				1
			],
			"name":"fil0_1",
			"rotation":[
				0.21822954714298248,
				3.120640030829236e-07,
				4.294462563336765e-09,
				0.975897490978241
			],
			"scale":[
				0.9999999403953552,
				1,
				1
			],
			"translation":[
				-2.1420419216156006e-08,
				0.10042870044708252,
				3.725290298461914e-09
			]
		},
		{
			"children":[
				2
			],
			"name":"fil0_0",
			"rotation":[
				0.3043065369129181,
				0.5959222912788391,
				0.4394421875476837,
				0.5993037223815918
			],
			"scale":[
				1.0000003576278687,
				1,
				1.000000238418579
			],
			"translation":[
				-0.06232532113790512,
				0.17000000178813934,
				0.11408573389053345
			]
		},
		{
			"name":"fil1_3",
			"rotation":[
				0.21822981536388397,
				-2.3291477191378362e-08,
				3.387851066349867e-08,
				0.9758974313735962
			],
			"scale":[
				1,
				0.9999999403953552,
				1
			],
			"translation":[
				-1.30385160446167e-08,
				0.10042864084243774,
				-8.847564458847046e-09
			]
		},
		{
			"children":[
				4
			],
			"name":"fil1_2",
			"rotation":[
				0.21822965145111084,
				-7.753883757288804e-09,
				-4.986343782320546e-08,
				0.975897490978241
			],
			"scale":[
				1,
				1,
				0.9999999403953552
			],
			"translation":[
				-1.0244548320770264e-08,
				0.10042871534824371,
				7.450580596923828e-09
			]
		},
		{
			"children":[
				5
			],
			"name":"fil1_1",
			"rotation":[
				0.2182295173406601,
				1.7177832489778666e-08,
				9.543239976039786e-09,
				0.975897490978241
			],
			"scale":[
				1.0000001192092896,
				1.0000001192092896,
				1.0000001192092896
			],
			"translation":[
				5.587935447692871e-09,
				0.10042870789766312,
				-1.862645149230957e-09
			]
		},
		{
			"children":[
				6
			],
			"name":"fil1_0",
			"rotation":[
				-0.4128507971763611,
				0.18860146403312683,
				0.1390775889158249,
				0.880137026309967
			],
			"scale":[
				0.9999999403953552,
				1.0000001192092896,
				1.0000001192092896
			],
			"translation":[
				-0.06232532113790512,
				0.17000000178813934,
				-0.11408573389053345
			]
		},
		{
			"name":"fil2_3",
			"rotation":[
				0.21822962164878845,
				1.9849943555527716e-07,
				8.398052386837662e-08,
				0.975897490978241
			],
			"translation":[
				1.0593794286251068e-08,
				0.10042866319417953,
				-3.166496753692627e-08
			]
		},
		{
			"children":[
				8
			],
			"name":"fil2_2",
			"rotation":[
				0.2182297259569168,
				-1.7177837818849184e-08,
				-8.111756599760156e-09,
				0.9758974313735962
			],
			"scale":[
				0.9999999403953552,
				1,
				1
			],
			"translation":[
				2.6542693376541138e-08,
				0.10042868554592133,
				-1.210719347000122e-08
			]
		},
		{
			"children":[
				9
			],
			"name":"fil2_1",
			"rotation":[
				0.21822954714298248,
				-3.120640030829236e-07,
				-4.294462563336765e-09,
				0.975897490978241
			],
			"scale":[
				0.9999999403953552,
				1,
				1
			],
			"translation":[
				2.1420419216156006e-08,
				0.10042870044708252,
				3.725290298461914e-09
			]
		},
		{
			"children":[
				10
			],
			"name":"fil2_0",
			"rotation":[
				0.3043065369129181,
				-0.5959222912788391,
				-0.4394421875476837,
				0.5993037223815918
			],
			"scale":[
				1.0000003576278687,
				1,
				1.000000238418579
			],
			"translation":[
				0.06232532113790512,
				0.17000000178813934,
				0.11408573389053345
			]
		},
		{
			"name":"fil3_3",
			"rotation":[
				0.21822981536388397,
				2.3291477191378362e-08,
				-3.387851066349867e-08,
				0.9758974313735962
			],
			"scale":[
				1,
				0.9999999403953552,
				1
			],
			"translation":[
				1.30385160446167e-08,
				0.10042864084243774,
				-8.847564458847046e-09
			]
		},
		{
			"children":[
				12
			],
			"name":"fil3_2",
			"rotation":[
				0.21822965145111084,
				7.753883757288804e-09,
				4.986343782320546e-08,
				0.975897490978241
			],
			"scale":[
				1,
				1,
				0.9999999403953552
			],
			"translation":[
				1.0244548320770264e-08,
				0.10042871534824371,
				7.450580596923828e-09
			]
		},
		{
			"children":[
				13
			],
			"name":"fil3_1",
			"rotation":[
				0.2182295173406601,
				-1.7177832489778666e-08,
				-9.543239976039786e-09,
				0.975897490978241
			],
			"scale":[
				1.0000001192092896,
				1.0000001192092896,
				1.0000001192092896
			],
			"translation":[
				-5.587935447692871e-09,
				0.10042870789766312,
				-1.862645149230957e-09
			]
		},
		{
			"children":[
				14
			],
			"name":"fil3_0",
			"rotation":[
				-0.4128507971763611,
				-0.18860146403312683,
				-0.1390775889158249,
				0.880137026309967
			],
			"scale":[
				0.9999999403953552,
				1.0000001192092896,
				1.0000001192092896
			],
			"translation":[
				0.06232532113790512,
				0.17000000178813934,
				-0.11408573389053345
			]
		},
		{
			"mesh":0,
			"name":"TanglerRigged",
			"skin":0
		},
		{
			"children":[
				16,
				3,
				7,
				11,
				15
			],
			"name":"Tangler_Armature"
		}
	],
	"animations":[
		{
			"channels":[
				{
					"sampler":0,
					"target":{
						"node":3,
						"path":"translation"
					}
				},
				{
					"sampler":1,
					"target":{
						"node":3,
						"path":"rotation"
					}
				},
				{
					"sampler":2,
					"target":{
						"node":3,
						"path":"scale"
					}
				},
				{
					"sampler":3,
					"target":{
						"node":2,
						"path":"translation"
					}
				},
				{
					"sampler":4,
					"target":{
						"node":2,
						"path":"rotation"
					}
				},
				{
					"sampler":5,
					"target":{
						"node":2,
						"path":"scale"
					}
				},
				{
					"sampler":6,
					"target":{
						"node":1,
						"path":"translation"
					}
				},
				{
					"sampler":7,
					"target":{
						"node":1,
						"path":"rotation"
					}
				},
				{
					"sampler":8,
					"target":{
						"node":1,
						"path":"scale"
					}
				},
				{
					"sampler":9,
					"target":{
						"node":0,
						"path":"translation"
					}
				},
				{
					"sampler":10,
					"target":{
						"node":0,
						"path":"rotation"
					}
				},
				{
					"sampler":11,
					"target":{
						"node":0,
						"path":"scale"
					}
				},
				{
					"sampler":12,
					"target":{
						"node":7,
						"path":"translation"
					}
				},
				{
					"sampler":13,
					"target":{
						"node":7,
						"path":"rotation"
					}
				},
				{
					"sampler":14,
					"target":{
						"node":7,
						"path":"scale"
					}
				},
				{
					"sampler":15,
					"target":{
						"node":6,
						"path":"translation"
					}
				},
				{
					"sampler":16,
					"target":{
						"node":6,
						"path":"rotation"
					}
				},
				{
					"sampler":17,
					"target":{
						"node":6,
						"path":"scale"
					}
				},
				{
					"sampler":18,
					"target":{
						"node":5,
						"path":"translation"
					}
				},
				{
					"sampler":19,
					"target":{
						"node":5,
						"path":"rotation"
					}
				},
				{
					"sampler":20,
					"target":{
						"node":5,
						"path":"scale"
					}
				},
				{
					"sampler":21,
					"target":{
						"node":4,
						"path":"translation"
					}
				},
				{
					"sampler":22,
					"target":{
						"node":4,
						"path":"rotation"
					}
				},
				{
					"sampler":23,
					"target":{
						"node":4,
						"path":"scale"
					}
				},
				{
					"sampler":24,
					"target":{
						"node":11,
						"path":"translation"
					}
				},
				{
					"sampler":25,
					"target":{
						"node":11,
						"path":"rotation"
					}
				},
				{
					"sampler":26,
					"target":{
						"node":11,
						"path":"scale"
					}
				},
				{
					"sampler":27,
					"target":{
						"node":10,
						"path":"translation"
					}
				},
				{
					"sampler":28,
					"target":{
						"node":10,
						"path":"rotation"
					}
				},
				{
					"sampler":29,
					"target":{
						"node":10,
						"path":"scale"
					}
				},
				{
					"sampler":30,
					"target":{
						"node":9,
						"path":"translation"
					}
				},
				{
					"sampler":31,
					"target":{
						"node":9,
						"path":"rotation"
					}
				},
				{
					"sampler":32,
					"target":{
						"node":9,
						"path":"scale"
					}
				},
				{
					"sampler":33,
					"target":{
						"node":8,
						"path":"translation"
					}
				},
				{
					"sampler":34,
					"target":{
						"node":8,
						"path":"rotation"
					}
				},
				{
					"sampler":35,
					"target":{
						"node":8,
						"path":"scale"
					}
				},
				{
					"sampler":36,
					"target":{
						"node":15,
						"path":"translation"
					}
				},
				{
					"sampler":37,
					"target":{
						"node":15,
						"path":"rotation"
					}
				},
				{
					"sampler":38,
					"target":{
						"node":15,
						"path":"scale"
					}
				},
				{
					"sampler":39,
					"target":{
						"node":14,
						"path":"translation"
					}
				},
				{
					"sampler":40,
					"target":{
						"node":14,
						"path":"rotation"
					}
				},
				{
					"sampler":41,
					"target":{
						"node":14,
						"path":"scale"
					}
				},
				{
					"sampler":42,
					"target":{
						"node":13,
						"path":"translation"
					}
				},
				{
					"sampler":43,
					"target":{
						"node":13,
						"path":"rotation"
					}
				},
				{
					"sampler":44,
					"target":{
						"node":13,
						"path":"scale"
					}
				},
				{
					"sampler":45,
					"target":{
						"node":12,
						"path":"translation"
					}
				},
				{
					"sampler":46,
					"target":{
						"node":12,
						"path":"rotation"
					}
				},
				{
					"sampler":47,
					"target":{
						"node":12,
						"path":"scale"
					}
				}
			],
			"name":"tangler_uncoil",
			"samplers":[
				{
					"input":7,
					"interpolation":"STEP",
					"output":8
				},
				{
					"input":9,
					"interpolation":"LINEAR",
					"output":10
				},
				{
					"input":7,
					"interpolation":"STEP",
					"output":11
				},
				{
					"input":7,
					"interpolation":"STEP",
					"output":12
				},
				{
					"input":9,
					"interpolation":"LINEAR",
					"output":13
				},
				{
					"input":7,
					"interpolation":"STEP",
					"output":14
				},
				{
					"input":7,
					"interpolation":"STEP",
					"output":15
				},
				{
					"input":9,
					"interpolation":"LINEAR",
					"output":16
				},
				{
					"input":7,
					"interpolation":"STEP",
					"output":17
				},
				{
					"input":7,
					"interpolation":"STEP",
					"output":18
				},
				{
					"input":9,
					"interpolation":"LINEAR",
					"output":19
				},
				{
					"input":7,
					"interpolation":"STEP",
					"output":20
				},
				{
					"input":7,
					"interpolation":"STEP",
					"output":21
				},
				{
					"input":9,
					"interpolation":"LINEAR",
					"output":22
				},
				{
					"input":7,
					"interpolation":"STEP",
					"output":23
				},
				{
					"input":7,
					"interpolation":"STEP",
					"output":24
				},
				{
					"input":9,
					"interpolation":"LINEAR",
					"output":25
				},
				{
					"input":7,
					"interpolation":"STEP",
					"output":26
				},
				{
					"input":7,
					"interpolation":"STEP",
					"output":27
				},
				{
					"input":9,
					"interpolation":"LINEAR",
					"output":28
				},
				{
					"input":7,
					"interpolation":"STEP",
					"output":29
				},
				{
					"input":7,
					"interpolation":"STEP",
					"output":30
				},
				{
					"input":9,
					"interpolation":"LINEAR",
					"output":31
				},
				{
					"input":7,
					"interpolation":"STEP",
					"output":32
				},
				{
					"input":7,
					"interpolation":"STEP",
					"output":33
				},
				{
					"input":9,
					"interpolation":"LINEAR",
					"output":34
				},
				{
					"input":7,
					"interpolation":"STEP",
					"output":11
				},
				{
					"input":7,
					"interpolation":"STEP",
					"output":35
				},
				{
					"input":9,
					"interpolation":"LINEAR",
					"output":36
				},
				{
					"input":7,
					"interpolation":"STEP",
					"output":14
				},
				{
					"input":7,
					"interpolation":"STEP",
					"output":37
				},
				{
					"input":9,
					"interpolation":"LINEAR",
					"output":38
				},
				{
					"input":7,
					"interpolation":"STEP",
					"output":17
				},
				{
					"input":7,
					"interpolation":"STEP",
					"output":39
				},
				{
					"input":9,
					"interpolation":"LINEAR",
					"output":40
				},
				{
					"input":7,
					"interpolation":"STEP",
					"output":20
				},
				{
					"input":7,
					"interpolation":"STEP",
					"output":41
				},
				{
					"input":9,
					"interpolation":"LINEAR",
					"output":42
				},
				{
					"input":7,
					"interpolation":"STEP",
					"output":23
				},
				{
					"input":7,
					"interpolation":"STEP",
					"output":43
				},
				{
					"input":9,
					"interpolation":"LINEAR",
					"output":44
				},
				{
					"input":7,
					"interpolation":"STEP",
					"output":26
				},
				{
					"input":7,
					"interpolation":"STEP",
					"output":45
				},
				{
					"input":9,
					"interpolation":"LINEAR",
					"output":46
				},
				{
					"input":7,
					"interpolation":"STEP",
					"output":29
				},
				{
					"input":7,
					"interpolation":"STEP",
					"output":47
				},
				{
					"input":9,
					"interpolation":"LINEAR",
					"output":48
				},
				{
					"input":7,
					"interpolation":"STEP",
					"output":32
				}
			]
		},
		{
			"channels":[
				{
					"sampler":0,
					"target":{
						"node":3,
						"path":"translation"
					}
				},
				{
					"sampler":1,
					"target":{
						"node":3,
						"path":"rotation"
					}
				},
				{
					"sampler":2,
					"target":{
						"node":3,
						"path":"scale"
					}
				},
				{
					"sampler":3,
					"target":{
						"node":2,
						"path":"translation"
					}
				},
				{
					"sampler":4,
					"target":{
						"node":2,
						"path":"rotation"
					}
				},
				{
					"sampler":5,
					"target":{
						"node":2,
						"path":"scale"
					}
				},
				{
					"sampler":6,
					"target":{
						"node":1,
						"path":"translation"
					}
				},
				{
					"sampler":7,
					"target":{
						"node":1,
						"path":"rotation"
					}
				},
				{
					"sampler":8,
					"target":{
						"node":1,
						"path":"scale"
					}
				},
				{
					"sampler":9,
					"target":{
						"node":0,
						"path":"translation"
					}
				},
				{
					"sampler":10,
					"target":{
						"node":0,
						"path":"rotation"
					}
				},
				{
					"sampler":11,
					"target":{
						"node":0,
						"path":"scale"
					}
				},
				{
					"sampler":12,
					"target":{
						"node":7,
						"path":"translation"
					}
				},
				{
					"sampler":13,
					"target":{
						"node":7,
						"path":"rotation"
					}
				},
				{
					"sampler":14,
					"target":{
						"node":7,
						"path":"scale"
					}
				},
				{
					"sampler":15,
					"target":{
						"node":6,
						"path":"translation"
					}
				},
				{
					"sampler":16,
					"target":{
						"node":6,
						"path":"rotation"
					}
				},
				{
					"sampler":17,
					"target":{
						"node":6,
						"path":"scale"
					}
				},
				{
					"sampler":18,
					"target":{
						"node":5,
						"path":"translation"
					}
				},
				{
					"sampler":19,
					"target":{
						"node":5,
						"path":"rotation"
					}
				},
				{
					"sampler":20,
					"target":{
						"node":5,
						"path":"scale"
					}
				},
				{
					"sampler":21,
					"target":{
						"node":4,
						"path":"translation"
					}
				},
				{
					"sampler":22,
					"target":{
						"node":4,
						"path":"rotation"
					}
				},
				{
					"sampler":23,
					"target":{
						"node":4,
						"path":"scale"
					}
				},
				{
					"sampler":24,
					"target":{
						"node":11,
						"path":"translation"
					}
				},
				{
					"sampler":25,
					"target":{
						"node":11,
						"path":"rotation"
					}
				},
				{
					"sampler":26,
					"target":{
						"node":11,
						"path":"scale"
					}
				},
				{
					"sampler":27,
					"target":{
						"node":10,
						"path":"translation"
					}
				},
				{
					"sampler":28,
					"target":{
						"node":10,
						"path":"rotation"
					}
				},
				{
					"sampler":29,
					"target":{
						"node":10,
						"path":"scale"
					}
				},
				{
					"sampler":30,
					"target":{
						"node":9,
						"path":"translation"
					}
				},
				{
					"sampler":31,
					"target":{
						"node":9,
						"path":"rotation"
					}
				},
				{
					"sampler":32,
					"target":{
						"node":9,
						"path":"scale"
					}
				},
				{
					"sampler":33,
					"target":{
						"node":8,
						"path":"translation"
					}
				},
				{
					"sampler":34,
					"target":{
						"node":8,
						"path":"rotation"
					}
				},
				{
					"sampler":35,
					"target":{
						"node":8,
						"path":"scale"
					}
				},
				{
					"sampler":36,
					"target":{
						"node":15,
						"path":"translation"
					}
				},
				{
					"sampler":37,
					"target":{
						"node":15,
						"path":"rotation"
					}
				},
				{
					"sampler":38,
					"target":{
						"node":15,
						"path":"scale"
					}
				},
				{
					"sampler":39,
					"target":{
						"node":14,
						"path":"translation"
					}
				},
				{
					"sampler":40,
					"target":{
						"node":14,
						"path":"rotation"
					}
				},
				{
					"sampler":41,
					"target":{
						"node":14,
						"path":"scale"
					}
				},
				{
					"sampler":42,
					"target":{
						"node":13,
						"path":"translation"
					}
				},
				{
					"sampler":43,
					"target":{
						"node":13,
						"path":"rotation"
					}
				},
				{
					"sampler":44,
					"target":{
						"node":13,
						"path":"scale"
					}
				},
				{
					"sampler":45,
					"target":{
						"node":12,
						"path":"translation"
					}
				},
				{
					"sampler":46,
					"target":{
						"node":12,
						"path":"rotation"
					}
				},
				{
					"sampler":47,
					"target":{
						"node":12,
						"path":"scale"
					}
				}
			],
			"name":"tangler_snap",
			"samplers":[
				{
					"input":49,
					"interpolation":"STEP",
					"output":8
				},
				{
					"input":50,
					"interpolation":"LINEAR",
					"output":51
				},
				{
					"input":49,
					"interpolation":"STEP",
					"output":52
				},
				{
					"input":49,
					"interpolation":"STEP",
					"output":53
				},
				{
					"input":50,
					"interpolation":"LINEAR",
					"output":54
				},
				{
					"input":49,
					"interpolation":"STEP",
					"output":55
				},
				{
					"input":49,
					"interpolation":"STEP",
					"output":56
				},
				{
					"input":50,
					"interpolation":"LINEAR",
					"output":57
				},
				{
					"input":49,
					"interpolation":"STEP",
					"output":58
				},
				{
					"input":49,
					"interpolation":"STEP",
					"output":59
				},
				{
					"input":50,
					"interpolation":"LINEAR",
					"output":60
				},
				{
					"input":49,
					"interpolation":"STEP",
					"output":61
				},
				{
					"input":49,
					"interpolation":"STEP",
					"output":21
				},
				{
					"input":50,
					"interpolation":"LINEAR",
					"output":62
				},
				{
					"input":49,
					"interpolation":"STEP",
					"output":23
				},
				{
					"input":49,
					"interpolation":"STEP",
					"output":63
				},
				{
					"input":50,
					"interpolation":"LINEAR",
					"output":64
				},
				{
					"input":49,
					"interpolation":"STEP",
					"output":65
				},
				{
					"input":49,
					"interpolation":"STEP",
					"output":66
				},
				{
					"input":50,
					"interpolation":"LINEAR",
					"output":67
				},
				{
					"input":49,
					"interpolation":"STEP",
					"output":68
				},
				{
					"input":49,
					"interpolation":"STEP",
					"output":69
				},
				{
					"input":50,
					"interpolation":"LINEAR",
					"output":70
				},
				{
					"input":49,
					"interpolation":"STEP",
					"output":71
				},
				{
					"input":49,
					"interpolation":"STEP",
					"output":33
				},
				{
					"input":50,
					"interpolation":"LINEAR",
					"output":72
				},
				{
					"input":49,
					"interpolation":"STEP",
					"output":52
				},
				{
					"input":49,
					"interpolation":"STEP",
					"output":73
				},
				{
					"input":50,
					"interpolation":"LINEAR",
					"output":74
				},
				{
					"input":49,
					"interpolation":"STEP",
					"output":55
				},
				{
					"input":49,
					"interpolation":"STEP",
					"output":75
				},
				{
					"input":50,
					"interpolation":"LINEAR",
					"output":76
				},
				{
					"input":49,
					"interpolation":"STEP",
					"output":58
				},
				{
					"input":49,
					"interpolation":"STEP",
					"output":77
				},
				{
					"input":50,
					"interpolation":"LINEAR",
					"output":78
				},
				{
					"input":49,
					"interpolation":"STEP",
					"output":61
				},
				{
					"input":49,
					"interpolation":"STEP",
					"output":41
				},
				{
					"input":50,
					"interpolation":"LINEAR",
					"output":79
				},
				{
					"input":49,
					"interpolation":"STEP",
					"output":23
				},
				{
					"input":49,
					"interpolation":"STEP",
					"output":80
				},
				{
					"input":50,
					"interpolation":"LINEAR",
					"output":81
				},
				{
					"input":49,
					"interpolation":"STEP",
					"output":65
				},
				{
					"input":49,
					"interpolation":"STEP",
					"output":82
				},
				{
					"input":50,
					"interpolation":"LINEAR",
					"output":83
				},
				{
					"input":49,
					"interpolation":"STEP",
					"output":68
				},
				{
					"input":49,
					"interpolation":"STEP",
					"output":84
				},
				{
					"input":50,
					"interpolation":"LINEAR",
					"output":85
				},
				{
					"input":49,
					"interpolation":"STEP",
					"output":71
				}
			]
		},
		{
			"channels":[
				{
					"sampler":0,
					"target":{
						"node":3,
						"path":"translation"
					}
				},
				{
					"sampler":1,
					"target":{
						"node":3,
						"path":"rotation"
					}
				},
				{
					"sampler":2,
					"target":{
						"node":3,
						"path":"scale"
					}
				},
				{
					"sampler":3,
					"target":{
						"node":2,
						"path":"translation"
					}
				},
				{
					"sampler":4,
					"target":{
						"node":2,
						"path":"rotation"
					}
				},
				{
					"sampler":5,
					"target":{
						"node":2,
						"path":"scale"
					}
				},
				{
					"sampler":6,
					"target":{
						"node":1,
						"path":"translation"
					}
				},
				{
					"sampler":7,
					"target":{
						"node":1,
						"path":"rotation"
					}
				},
				{
					"sampler":8,
					"target":{
						"node":1,
						"path":"scale"
					}
				},
				{
					"sampler":9,
					"target":{
						"node":0,
						"path":"translation"
					}
				},
				{
					"sampler":10,
					"target":{
						"node":0,
						"path":"rotation"
					}
				},
				{
					"sampler":11,
					"target":{
						"node":0,
						"path":"scale"
					}
				},
				{
					"sampler":12,
					"target":{
						"node":7,
						"path":"translation"
					}
				},
				{
					"sampler":13,
					"target":{
						"node":7,
						"path":"rotation"
					}
				},
				{
					"sampler":14,
					"target":{
						"node":7,
						"path":"scale"
					}
				},
				{
					"sampler":15,
					"target":{
						"node":6,
						"path":"translation"
					}
				},
				{
					"sampler":16,
					"target":{
						"node":6,
						"path":"rotation"
					}
				},
				{
					"sampler":17,
					"target":{
						"node":6,
						"path":"scale"
					}
				},
				{
					"sampler":18,
					"target":{
						"node":5,
						"path":"translation"
					}
				},
				{
					"sampler":19,
					"target":{
						"node":5,
						"path":"rotation"
					}
				},
				{
					"sampler":20,
					"target":{
						"node":5,
						"path":"scale"
					}
				},
				{
					"sampler":21,
					"target":{
						"node":4,
						"path":"translation"
					}
				},
				{
					"sampler":22,
					"target":{
						"node":4,
						"path":"rotation"
					}
				},
				{
					"sampler":23,
					"target":{
						"node":4,
						"path":"scale"
					}
				},
				{
					"sampler":24,
					"target":{
						"node":11,
						"path":"translation"
					}
				},
				{
					"sampler":25,
					"target":{
						"node":11,
						"path":"rotation"
					}
				},
				{
					"sampler":26,
					"target":{
						"node":11,
						"path":"scale"
					}
				},
				{
					"sampler":27,
					"target":{
						"node":10,
						"path":"translation"
					}
				},
				{
					"sampler":28,
					"target":{
						"node":10,
						"path":"rotation"
					}
				},
				{
					"sampler":29,
					"target":{
						"node":10,
						"path":"scale"
					}
				},
				{
					"sampler":30,
					"target":{
						"node":9,
						"path":"translation"
					}
				},
				{
					"sampler":31,
					"target":{
						"node":9,
						"path":"rotation"
					}
				},
				{
					"sampler":32,
					"target":{
						"node":9,
						"path":"scale"
					}
				},
				{
					"sampler":33,
					"target":{
						"node":8,
						"path":"translation"
					}
				},
				{
					"sampler":34,
					"target":{
						"node":8,
						"path":"rotation"
					}
				},
				{
					"sampler":35,
					"target":{
						"node":8,
						"path":"scale"
					}
				},
				{
					"sampler":36,
					"target":{
						"node":15,
						"path":"translation"
					}
				},
				{
					"sampler":37,
					"target":{
						"node":15,
						"path":"rotation"
					}
				},
				{
					"sampler":38,
					"target":{
						"node":15,
						"path":"scale"
					}
				},
				{
					"sampler":39,
					"target":{
						"node":14,
						"path":"translation"
					}
				},
				{
					"sampler":40,
					"target":{
						"node":14,
						"path":"rotation"
					}
				},
				{
					"sampler":41,
					"target":{
						"node":14,
						"path":"scale"
					}
				},
				{
					"sampler":42,
					"target":{
						"node":13,
						"path":"translation"
					}
				},
				{
					"sampler":43,
					"target":{
						"node":13,
						"path":"rotation"
					}
				},
				{
					"sampler":44,
					"target":{
						"node":13,
						"path":"scale"
					}
				},
				{
					"sampler":45,
					"target":{
						"node":12,
						"path":"translation"
					}
				},
				{
					"sampler":46,
					"target":{
						"node":12,
						"path":"rotation"
					}
				},
				{
					"sampler":47,
					"target":{
						"node":12,
						"path":"scale"
					}
				}
			],
			"name":"tangler_recoil",
			"samplers":[
				{
					"input":86,
					"interpolation":"STEP",
					"output":8
				},
				{
					"input":87,
					"interpolation":"LINEAR",
					"output":88
				},
				{
					"input":86,
					"interpolation":"STEP",
					"output":52
				},
				{
					"input":86,
					"interpolation":"STEP",
					"output":53
				},
				{
					"input":87,
					"interpolation":"LINEAR",
					"output":89
				},
				{
					"input":86,
					"interpolation":"STEP",
					"output":55
				},
				{
					"input":86,
					"interpolation":"STEP",
					"output":56
				},
				{
					"input":87,
					"interpolation":"LINEAR",
					"output":90
				},
				{
					"input":86,
					"interpolation":"STEP",
					"output":58
				},
				{
					"input":86,
					"interpolation":"STEP",
					"output":59
				},
				{
					"input":87,
					"interpolation":"LINEAR",
					"output":91
				},
				{
					"input":86,
					"interpolation":"STEP",
					"output":61
				},
				{
					"input":86,
					"interpolation":"STEP",
					"output":21
				},
				{
					"input":87,
					"interpolation":"LINEAR",
					"output":92
				},
				{
					"input":86,
					"interpolation":"STEP",
					"output":23
				},
				{
					"input":86,
					"interpolation":"STEP",
					"output":63
				},
				{
					"input":87,
					"interpolation":"LINEAR",
					"output":93
				},
				{
					"input":86,
					"interpolation":"STEP",
					"output":65
				},
				{
					"input":86,
					"interpolation":"STEP",
					"output":66
				},
				{
					"input":87,
					"interpolation":"LINEAR",
					"output":94
				},
				{
					"input":86,
					"interpolation":"STEP",
					"output":68
				},
				{
					"input":86,
					"interpolation":"STEP",
					"output":69
				},
				{
					"input":87,
					"interpolation":"LINEAR",
					"output":95
				},
				{
					"input":86,
					"interpolation":"STEP",
					"output":71
				},
				{
					"input":86,
					"interpolation":"STEP",
					"output":33
				},
				{
					"input":87,
					"interpolation":"LINEAR",
					"output":96
				},
				{
					"input":86,
					"interpolation":"STEP",
					"output":52
				},
				{
					"input":86,
					"interpolation":"STEP",
					"output":73
				},
				{
					"input":87,
					"interpolation":"LINEAR",
					"output":97
				},
				{
					"input":86,
					"interpolation":"STEP",
					"output":55
				},
				{
					"input":86,
					"interpolation":"STEP",
					"output":75
				},
				{
					"input":87,
					"interpolation":"LINEAR",
					"output":98
				},
				{
					"input":86,
					"interpolation":"STEP",
					"output":58
				},
				{
					"input":86,
					"interpolation":"STEP",
					"output":77
				},
				{
					"input":87,
					"interpolation":"LINEAR",
					"output":99
				},
				{
					"input":86,
					"interpolation":"STEP",
					"output":61
				},
				{
					"input":86,
					"interpolation":"STEP",
					"output":41
				},
				{
					"input":87,
					"interpolation":"LINEAR",
					"output":100
				},
				{
					"input":86,
					"interpolation":"STEP",
					"output":23
				},
				{
					"input":86,
					"interpolation":"STEP",
					"output":80
				},
				{
					"input":87,
					"interpolation":"LINEAR",
					"output":101
				},
				{
					"input":86,
					"interpolation":"STEP",
					"output":65
				},
				{
					"input":86,
					"interpolation":"STEP",
					"output":82
				},
				{
					"input":87,
					"interpolation":"LINEAR",
					"output":102
				},
				{
					"input":86,
					"interpolation":"STEP",
					"output":68
				},
				{
					"input":86,
					"interpolation":"STEP",
					"output":84
				},
				{
					"input":87,
					"interpolation":"LINEAR",
					"output":103
				},
				{
					"input":86,
					"interpolation":"STEP",
					"output":71
				}
			]
		}
	],
	"materials":[
		{
			"doubleSided":true,
			"emissiveFactor":[
				1,
				1,
				1
			],
			"emissiveTexture":{
				"index":0
			},
			"extensions":{
				"KHR_materials_emissive_strength":{
					"emissiveStrength":1.2000000476837158
				}
			},
			"name":"TanglerRiggedTex",
			"pbrMetallicRoughness":{
				"baseColorTexture":{
					"index":1
				},
				"metallicFactor":0,
				"roughnessFactor":0.8999999761581421
			}
		}
	],
	"meshes":[
		{
			"name":"TanglerRigged",
			"primitives":[
				{
					"attributes":{
						"POSITION":0,
						"NORMAL":1,
						"TEXCOORD_0":2,
						"JOINTS_0":3,
						"WEIGHTS_0":4
					},
					"indices":5,
					"material":0
				}
			]
		}
	],
	"textures":[
		{
			"sampler":0,
			"source":0
		},
		{
			"sampler":0,
			"source":1
		}
	],
	"images":[
		{
			"mimeType":"image/png",
			"name":"TanglerRigged_emissive",
			"uri":"TanglerRigged_emissive.png"
		},
		{
			"mimeType":"image/png",
			"name":"TanglerRigged_tex",
			"uri":"TanglerRigged_tex.png"
		}
	],
	"skins":[
		{
			"inverseBindMatrices":6,
			"joints":[
				3,
				2,
				1,
				0,
				7,
				6,
				5,
				4,
				11,
				10,
				9,
				8,
				15,
				14,
				13,
				12
			],
			"name":"Tangler_Armature"
		}
	],
	"accessors":[
		{
			"bufferView":0,
			"componentType":5126,
			"count":624,
			"max":[
				0.2596206068992615,
				0.36559998989105225,
				0.46357589960098267
			],
			"min":[
				-0.2638222575187683,
				0,
				-0.46357589960098267
			],
			"type":"VEC3"
		},
		{
			"bufferView":1,
			"componentType":5126,
			"count":624,
			"type":"VEC3"
		},
		{
			"bufferView":2,
			"componentType":5126,
			"count":624,
			"type":"VEC2"
		},
		{
			"bufferView":3,
			"componentType":5121,
			"count":624,
			"type":"VEC4"
		},
		{
			"bufferView":4,
			"componentType":5126,
			"count":624,
			"type":"VEC4"
		},
		{
			"bufferView":5,
			"componentType":5123,
			"count":984,
			"type":"SCALAR"
		},
		{
			"bufferView":6,
			"componentType":5126,
			"count":16,
			"type":"MAT4"
		},
		{
			"bufferView":7,
			"componentType":5126,
			"count":2,
			"max":[
				1.5416666666666667
			],
			"min":[
				0.041666666666666664
			],
			"type":"SCALAR"
		},
		{
			"bufferView":8,
			"componentType":5126,
			"count":2,
			"type":"VEC3"
		},
		{
			"bufferView":9,
			"componentType":5126,
			"count":37,
			"max":[
				1.5416666666666667
			],
			"min":[
				0.041666666666666664
			],
			"type":"SCALAR"
		},
		{
			"bufferView":10,
			"componentType":5126,
			"count":37,
			"type":"VEC4"
		},
		{
			"bufferView":11,
			"componentType":5126,
			"count":2,
			"type":"VEC3"
		},
		{
			"bufferView":12,
			"componentType":5126,
			"count":2,
			"type":"VEC3"
		},
		{
			"bufferView":13,
			"componentType":5126,
			"count":37,
			"type":"VEC4"
		},
		{
			"bufferView":14,
			"componentType":5126,
			"count":2,
			"type":"VEC3"
		},
		{
			"bufferView":15,
			"componentType":5126,
			"count":2,
			"type":"VEC3"
		},
		{
			"bufferView":16,
			"componentType":5126,
			"count":37,
			"type":"VEC4"
		},
		{
			"bufferView":17,
			"componentType":5126,
			"count":2,
			"type":"VEC3"
		},
		{
			"bufferView":18,
			"componentType":5126,
			"count":2,
			"type":"VEC3"
		},
		{
			"bufferView":19,
			"componentType":5126,
			"count":37,
			"type":"VEC4"
		},
		{
			"bufferView":20,
			"componentType":5126,
			"count":2,
			"type":"VEC3"
		},
		{
			"bufferView":21,
			"componentType":5126,
			"count":2,
			"type":"VEC3"
		},
		{
			"bufferView":22,
			"componentType":5126,
			"count":37,
			"type":"VEC4"
		},
		{
			"bufferView":23,
			"componentType":5126,
			"count":2,
			"type":"VEC3"
		},
		{
			"bufferView":24,
			"componentType":5126,
			"count":2,
			"type":"VEC3"
		},
		{
			"bufferView":25,
			"componentType":5126,
			"count":37,
			"type":"VEC4"
		},
		{
			"bufferView":26,
			"componentType":5126,
			"count":2,
			"type":"VEC3"
		},
		{
			"bufferView":27,
			"componentType":5126,
			"count":2,
			"type":"VEC3"
		},
		{
			"bufferView":28,
			"componentType":5126,
			"count":37,
			"type":"VEC4"
		},
		{
			"bufferView":29,
			"componentType":5126,
			"count":2,
			"type":"VEC3"
		},
		{
			"bufferView":30,
			"componentType":5126,
			"count":2,
			"type":"VEC3"
		},
		{
			"bufferView":31,
			"componentType":5126,
			"count":37,
			"type":"VEC4"
		},
		{
			"bufferView":32,
			"componentType":5126,
			"count":2,
			"type":"VEC3"
		},
		{
			"bufferView":33,
			"componentType":5126,
			"count":2,
			"type":"VEC3"
		},
		{
			"bufferView":34,
			"componentType":5126,
			"count":37,
			"type":"VEC4"
		},
		{
			"bufferView":35,
			"componentType":5126,
			"count":2,
			"type":"VEC3"
		},
		{
			"bufferView":36,
			"componentType":5126,
			"count":37,
			"type":"VEC4"
		},
		{
			"bufferView":37,
			"componentType":5126,
			"count":2,
			"type":"VEC3"
		},
		{
			"bufferView":38,
			"componentType":5126,
			"count":37,
			"type":"VEC4"
		},
		{
			"bufferView":39,
			"componentType":5126,
			"count":2,
			"type":"VEC3"
		},
		{
			"bufferView":40,
			"componentType":5126,
			"count":37,
			"type":"VEC4"
		},
		{
			"bufferView":41,
			"componentType":5126,
			"count":2,
			"type":"VEC3"
		},
		{
			"bufferView":42,
			"componentType":5126,
			"count":37,
			"type":"VEC4"
		},
		{
			"bufferView":43,
			"componentType":5126,
			"count":2,
			"type":"VEC3"
		},
		{
			"bufferView":44,
			"componentType":5126,
			"count":37,
			"type":"VEC4"
		},
		{
			"bufferView":45,
			"componentType":5126,
			"count":2,
			"type":"VEC3"
		},
		{
			"bufferView":46,
			"componentType":5126,
			"count":37,
			"type":"VEC4"
		},
		{
			"bufferView":47,
			"componentType":5126,
			"count":2,
			"type":"VEC3"
		},
		{
			"bufferView":48,
			"componentType":5126,
			"count":37,
			"type":"VEC4"
		},
		{
			"bufferView":49,
			"componentType":5126,
			"count":2,
			"max":[
				0.4166666666666667
			],
			"min":[
				0.041666666666666664
			],
			"type":"SCALAR"
		},
		{
			"bufferView":50,
			"componentType":5126,
			"count":10,
			"max":[
				0.4166666666666667
			],
			"min":[
				0.041666666666666664
			],
			"type":"SCALAR"
		},
		{
			"bufferView":51,
			"componentType":5126,
			"count":10,
			"type":"VEC4"
		},
		{
			"bufferView":52,
			"componentType":5126,
			"count":2,
			"type":"VEC3"
		},
		{
			"bufferView":53,
			"componentType":5126,
			"count":2,
			"type":"VEC3"
		},
		{
			"bufferView":54,
			"componentType":5126,
			"count":10,
			"type":"VEC4"
		},
		{
			"bufferView":55,
			"componentType":5126,
			"count":2,
			"type":"VEC3"
		},
		{
			"bufferView":56,
			"componentType":5126,
			"count":2,
			"type":"VEC3"
		},
		{
			"bufferView":57,
			"componentType":5126,
			"count":10,
			"type":"VEC4"
		},
		{
			"bufferView":58,
			"componentType":5126,
			"count":2,
			"type":"VEC3"
		},
		{
			"bufferView":59,
			"componentType":5126,
			"count":2,
			"type":"VEC3"
		},
		{
			"bufferView":60,
			"componentType":5126,
			"count":10,
			"type":"VEC4"
		},
		{
			"bufferView":61,
			"componentType":5126,
			"count":2,
			"type":"VEC3"
		},
		{
			"bufferView":62,
			"componentType":5126,
			"count":10,
			"type":"VEC4"
		},
		{
			"bufferView":63,
			"componentType":5126,
			"count":2,
			"type":"VEC3"
		},
		{
			"bufferView":64,
			"componentType":5126,
			"count":10,
			"type":"VEC4"
		},
		{
			"bufferView":65,
			"componentType":5126,
			"count":2,
			"type":"VEC3"
		},
		{
			"bufferView":66,
			"componentType":5126,
			"count":2,
			"type":"VEC3"
		},
		{
			"bufferView":67,
			"componentType":5126,
			"count":10,
			"type":"VEC4"
		},
		{
			"bufferView":68,
			"componentType":5126,
			"count":2,
			"type":"VEC3"
		},
		{
			"bufferView":69,
			"componentType":5126,
			"count":2,
			"type":"VEC3"
		},
		{
			"bufferView":70,
			"componentType":5126,
			"count":10,
			"type":"VEC4"
		},
		{
			"bufferView":71,
			"componentType":5126,
			"count":2,
			"type":"VEC3"
		},
		{
			"bufferView":72,
			"componentType":5126,
			"count":10,
			"type":"VEC4"
		},
		{
			"bufferView":73,
			"componentType":5126,
			"count":2,
			"type":"VEC3"
		},
		{
			"bufferView":74,
			"componentType":5126,
			"count":10,
			"type":"VEC4"
		},
		{
			"bufferView":75,
			"componentType":5126,
			"count":2,
			"type":"VEC3"
		},
		{
			"bufferView":76,
			"componentType":5126,
			"count":10,
			"type":"VEC4"
		},
		{
			"bufferView":77,
			"componentType":5126,
			"count":2,
			"type":"VEC3"
		},
		{
			"bufferView":78,
			"componentType":5126,
			"count":10,
			"type":"VEC4"
		},
		{
			"bufferView":79,
			"componentType":5126,
			"count":10,
			"type":"VEC4"
		},
		{
			"bufferView":80,
			"componentType":5126,
			"count":2,
			"type":"VEC3"
		},
		{
			"bufferView":81,
			"componentType":5126,
			"count":10,
			"type":"VEC4"
		},
		{
			"bufferView":82,
			"componentType":5126,
			"count":2,
			"type":"VEC3"
		},
		{
			"bufferView":83,
			"componentType":5126,
			"count":10,
			"type":"VEC4"
		},
		{
			"bufferView":84,
			"componentType":5126,
			"count":2,
			"type":"VEC3"
		},
		{
			"bufferView":85,
			"componentType":5126,
			"count":10,
			"type":"VEC4"
		},
		{
			"bufferView":86,
			"componentType":5126,
			"count":2,
			"max":[
				0.7083333333333334
			],
			"min":[
				0.041666666666666664
			],
			"type":"SCALAR"
		},
		{
			"bufferView":87,
			"componentType":5126,
			"count":17,
			"max":[
				0.7083333333333334
			],
			"min":[
				0.041666666666666664
			],
			"type":"SCALAR"
		},
		{
			"bufferView":88,
			"componentType":5126,
			"count":17,
			"type":"VEC4"
		},
		{
			"bufferView":89,
			"componentType":5126,
			"count":17,
			"type":"VEC4"
		},
		{
			"bufferView":90,
			"componentType":5126,
			"count":17,
			"type":"VEC4"
		},
		{
			"bufferView":91,
			"componentType":5126,
			"count":17,
			"type":"VEC4"
		},
		{
			"bufferView":92,
			"componentType":5126,
			"count":17,
			"type":"VEC4"
		},
		{
			"bufferView":93,
			"componentType":5126,
			"count":17,
			"type":"VEC4"
		},
		{
			"bufferView":94,
			"componentType":5126,
			"count":17,
			"type":"VEC4"
		},
		{
			"bufferView":95,
			"componentType":5126,
			"count":17,
			"type":"VEC4"
		},
		{
			"bufferView":96,
			"componentType":5126,
			"count":17,
			"type":"VEC4"
		},
		{
			"bufferView":97,
			"componentType":5126,
			"count":17,
			"type":"VEC4"
		},
		{
			"bufferView":98,
			"componentType":5126,
			"count":17,
			"type":"VEC4"
		},
		{
			"bufferView":99,
			"componentType":5126,
			"count":17,
			"type":"VEC4"
		},
		{
			"bufferView":100,
			"componentType":5126,
			"count":17,
			"type":"VEC4"
		},
		{
			"bufferView":101,
			"componentType":5126,
			"count":17,
			"type":"VEC4"
		},
		{
			"bufferView":102,
			"componentType":5126,
			"count":17,
			"type":"VEC4"
		},
		{
			"bufferView":103,
			"componentType":5126,
			"count":17,
			"type":"VEC4"
		}
	],
	"bufferViews":[
		{
			"buffer":0,
			"byteLength":7488,
			"byteOffset":0,
			"target":34962
		},
		{
			"buffer":0,
			"byteLength":7488,
			"byteOffset":7488,
			"target":34962
		},
		{
			"buffer":0,
			"byteLength":4992,
			"byteOffset":14976,
			"target":34962
		},
		{
			"buffer":0,
			"byteLength":2496,
			"byteOffset":19968,
			"target":34962
		},
		{
			"buffer":0,
			"byteLength":9984,
			"byteOffset":22464,
			"target":34962
		},
		{
			"buffer":0,
			"byteLength":1968,
			"byteOffset":32448,
			"target":34963
		},
		{
			"buffer":0,
			"byteLength":1024,
			"byteOffset":34416
		},
		{
			"buffer":0,
			"byteLength":8,
			"byteOffset":35440
		},
		{
			"buffer":0,
			"byteLength":24,
			"byteOffset":35448
		},
		{
			"buffer":0,
			"byteLength":148,
			"byteOffset":35472
		},
		{
			"buffer":0,
			"byteLength":592,
			"byteOffset":35620
		},
		{
			"buffer":0,
			"byteLength":24,
			"byteOffset":36212
		},
		{
			"buffer":0,
			"byteLength":24,
			"byteOffset":36236
		},
		{
			"buffer":0,
			"byteLength":592,
			"byteOffset":36260
		},
		{
			"buffer":0,
			"byteLength":24,
			"byteOffset":36852
		},
		{
			"buffer":0,
			"byteLength":24,
			"byteOffset":36876
		},
		{
			"buffer":0,
			"byteLength":592,
			"byteOffset":36900
		},
		{
			"buffer":0,
			"byteLength":24,
			"byteOffset":37492
		},
		{
			"buffer":0,
			"byteLength":24,
			"byteOffset":37516
		},
		{
			"buffer":0,
			"byteLength":592,
			"byteOffset":37540
		},
		{
			"buffer":0,
			"byteLength":24,
			"byteOffset":38132
		},
		{
			"buffer":0,
			"byteLength":24,
			"byteOffset":38156
		},
		{
			"buffer":0,
			"byteLength":592,
			"byteOffset":38180
		},
		{
			"buffer":0,
			"byteLength":24,
			"byteOffset":38772
		},
		{
			"buffer":0,
			"byteLength":24,
			"byteOffset":38796
		},
		{
			"buffer":0,
			"byteLength":592,
			"byteOffset":38820
		},
		{
			"buffer":0,
			"byteLength":24,
			"byteOffset":39412
		},
		{
			"buffer":0,
			"byteLength":24,
			"byteOffset":39436
		},
		{
			"buffer":0,
			"byteLength":592,
			"byteOffset":39460
		},
		{
			"buffer":0,
			"byteLength":24,
			"byteOffset":40052
		},
		{
			"buffer":0,
			"byteLength":24,
			"byteOffset":40076
		},
		{
			"buffer":0,
			"byteLength":592,
			"byteOffset":40100
		},
		{
			"buffer":0,
			"byteLength":24,
			"byteOffset":40692
		},
		{
			"buffer":0,
			"byteLength":24,
			"byteOffset":40716
		},
		{
			"buffer":0,
			"byteLength":592,
			"byteOffset":40740
		},
		{
			"buffer":0,
			"byteLength":24,
			"byteOffset":41332
		},
		{
			"buffer":0,
			"byteLength":592,
			"byteOffset":41356
		},
		{
			"buffer":0,
			"byteLength":24,
			"byteOffset":41948
		},
		{
			"buffer":0,
			"byteLength":592,
			"byteOffset":41972
		},
		{
			"buffer":0,
			"byteLength":24,
			"byteOffset":42564
		},
		{
			"buffer":0,
			"byteLength":592,
			"byteOffset":42588
		},
		{
			"buffer":0,
			"byteLength":24,
			"byteOffset":43180
		},
		{
			"buffer":0,
			"byteLength":592,
			"byteOffset":43204
		},
		{
			"buffer":0,
			"byteLength":24,
			"byteOffset":43796
		},
		{
			"buffer":0,
			"byteLength":592,
			"byteOffset":43820
		},
		{
			"buffer":0,
			"byteLength":24,
			"byteOffset":44412
		},
		{
			"buffer":0,
			"byteLength":592,
			"byteOffset":44436
		},
		{
			"buffer":0,
			"byteLength":24,
			"byteOffset":45028
		},
		{
			"buffer":0,
			"byteLength":592,
			"byteOffset":45052
		},
		{
			"buffer":0,
			"byteLength":8,
			"byteOffset":45644
		},
		{
			"buffer":0,
			"byteLength":40,
			"byteOffset":45652
		},
		{
			"buffer":0,
			"byteLength":160,
			"byteOffset":45692
		},
		{
			"buffer":0,
			"byteLength":24,
			"byteOffset":45852
		},
		{
			"buffer":0,
			"byteLength":24,
			"byteOffset":45876
		},
		{
			"buffer":0,
			"byteLength":160,
			"byteOffset":45900
		},
		{
			"buffer":0,
			"byteLength":24,
			"byteOffset":46060
		},
		{
			"buffer":0,
			"byteLength":24,
			"byteOffset":46084
		},
		{
			"buffer":0,
			"byteLength":160,
			"byteOffset":46108
		},
		{
			"buffer":0,
			"byteLength":24,
			"byteOffset":46268
		},
		{
			"buffer":0,
			"byteLength":24,
			"byteOffset":46292
		},
		{
			"buffer":0,
			"byteLength":160,
			"byteOffset":46316
		},
		{
			"buffer":0,
			"byteLength":24,
			"byteOffset":46476
		},
		{
			"buffer":0,
			"byteLength":160,
			"byteOffset":46500
		},
		{
			"buffer":0,
			"byteLength":24,
			"byteOffset":46660
		},
		{
			"buffer":0,
			"byteLength":160,
			"byteOffset":46684
		},
		{
			"buffer":0,
			"byteLength":24,
			"byteOffset":46844
		},
		{
			"buffer":0,
			"byteLength":24,
			"byteOffset":46868
		},
		{
			"buffer":0,
			"byteLength":160,
			"byteOffset":46892
		},
		{
			"buffer":0,
			"byteLength":24,
			"byteOffset":47052
		},
		{
			"buffer":0,
			"byteLength":24,
			"byteOffset":47076
		},
		{
			"buffer":0,
			"byteLength":160,
			"byteOffset":47100
		},
		{
			"buffer":0,
			"byteLength":24,
			"byteOffset":47260
		},
		{
			"buffer":0,
			"byteLength":160,
			"byteOffset":47284
		},
		{
			"buffer":0,
			"byteLength":24,
			"byteOffset":47444
		},
		{
			"buffer":0,
			"byteLength":160,
			"byteOffset":47468
		},
		{
			"buffer":0,
			"byteLength":24,
			"byteOffset":47628
		},
		{
			"buffer":0,
			"byteLength":160,
			"byteOffset":47652
		},
		{
			"buffer":0,
			"byteLength":24,
			"byteOffset":47812
		},
		{
			"buffer":0,
			"byteLength":160,
			"byteOffset":47836
		},
		{
			"buffer":0,
			"byteLength":160,
			"byteOffset":47996
		},
		{
			"buffer":0,
			"byteLength":24,
			"byteOffset":48156
		},
		{
			"buffer":0,
			"byteLength":160,
			"byteOffset":48180
		},
		{
			"buffer":0,
			"byteLength":24,
			"byteOffset":48340
		},
		{
			"buffer":0,
			"byteLength":160,
			"byteOffset":48364
		},
		{
			"buffer":0,
			"byteLength":24,
			"byteOffset":48524
		},
		{
			"buffer":0,
			"byteLength":160,
			"byteOffset":48548
		},
		{
			"buffer":0,
			"byteLength":8,
			"byteOffset":48708
		},
		{
			"buffer":0,
			"byteLength":68,
			"byteOffset":48716
		},
		{
			"buffer":0,
			"byteLength":272,
			"byteOffset":48784
		},
		{
			"buffer":0,
			"byteLength":272,
			"byteOffset":49056
		},
		{
			"buffer":0,
			"byteLength":272,
			"byteOffset":49328
		},
		{
			"buffer":0,
			"byteLength":272,
			"byteOffset":49600
		},
		{
			"buffer":0,
			"byteLength":272,
			"byteOffset":49872
		},
		{
			"buffer":0,
			"byteLength":272,
			"byteOffset":50144
		},
		{
			"buffer":0,
			"byteLength":272,
			"byteOffset":50416
		},
		{
			"buffer":0,
			"byteLength":272,
			"byteOffset":50688
		},
		{
			"buffer":0,
			"byteLength":272,
			"byteOffset":50960
		},
		{
			"buffer":0,
			"byteLength":272,
			"byteOffset":51232
		},
		{
			"buffer":0,
			"byteLength":272,
			"byteOffset":51504
		},
		{
			"buffer":0,
			"byteLength":272,
			"byteOffset":51776
		},
		{
			"buffer":0,
			"byteLength":272,
			"byteOffset":52048
		},
		{
			"buffer":0,
			"byteLength":272,
			"byteOffset":52320
		},
		{
			"buffer":0,
			"byteLength":272,
			"byteOffset":52592
		},
		{
			"buffer":0,
			"byteLength":272,
			"byteOffset":52864
		}
	],
	"samplers":[
		{
			"magFilter":9728,
			"minFilter":9984
		}
	],
	"buffers":[
		{
			"byteLength":53136,
			"uri":"tangler.bin"
		}
	]
}
