{
	"asset":{
		"generator":"Khronos glTF Blender I/O v5.1.19",
		"version":"2.0"
	},
	"extensionsUsed":[
		"KHR_materials_emissive_strength"
	],
	"scene":0,
	"scenes":[
		{
			"name":"Scene",
			"nodes":[
				14
			]
		}
	],
	"nodes":[
		{
			"name":"pierce_0",
			"rotation":[
				-1.8189894035458565e-08,
				-3.637979251180923e-09,
				-1.0732037480920553e-07,
				1
			],
			"scale":[
				0.0009999999310821295,
				0.0010000000474974513,
				0.0009999999310821295
			],
			"translation":[
				3.166496753692627e-08,
				0.1950000524520874,
				-1.4901161193847656e-08
			]
		},
		{
			"children":[
				0
			],
			"name":"conoid_1",
			"rotation":[
				1.862644793959589e-08,
				-7.450580596923828e-09,
				8.754431490842762e-08,
				1
			],
			"scale":[
				1,
				1.0000001192092896,
				1.0000001192092896
			],
			"translation":[
				-2.2351741790771484e-08,
				0.04500001668930054,
				1.1175870895385742e-08
			]
		},
		{
			"children":[
				1
			],
			"name":"conoid_0",
			"rotation":[
				-0.12613089382648468,
				0.03528481349349022,
				0.005330429412424564,
				0.9913715720176697
			],
			"scale":[
				1,
				0.9999999403953552,
				0.9999999403953552
			],
			"translation":[
				1.862645149230957e-09,
				0.07510584592819214,
				0
			]
		},
		{
			"children":[
				2
			],
			"name":"body_8",
			"rotation":[
				0.13633112609386444,
				0.003208141541108489,
				0.025779424235224724,
				0.9903226494789124
			],
			"scale":[
				1,
				0.9999999403953552,
				1
			],
			"translation":[
				4.190951585769653e-09,
				0.07238665968179703,
				-5.587935447692871e-09
			]
		},
		{
			"children":[
				3
			],
			"name":"body_7",
			"rotation":[
				0.15514878928661346,
				0.006944104563444853,
				0.053544625639915466,
				0.9864144921302795
			],
			"scale":[
				1,
				1,
				0.9999998807907104
			],
			"translation":[
				1.0011717677116394e-08,
				0.06800999492406845,
				4.656612873077393e-10
			]
		},
		{
			"children":[
				4
			],
			"name":"body_6",
			"rotation":[
				0.17407819628715515,
				0.011044412851333618,
				0.08184859156608582,
				0.9812622666358948
			],
			"scale":[
				1,
				0.9999998807907104,
				1
			],
			"translation":[
				1.1641532182693481e-10,
				0.06391403079032898,
				6.606569513678551e-09
			]
		},
		{
			"children":[
				5
			],
			"name":"body_5",
			"rotation":[
				0.18886521458625793,
				0.014286070130765438,
				0.10190249979496002,
				0.976597011089325
			],
			"scale":[
				1.0000001192092896,
				1,
				1.0000001192092896
			],
			"translation":[
				4.957882993039675e-10,
				0.062222227454185486,
				5.122274160385132e-09
			]
		},
		{
			"children":[
				6
			],
			"name":"body_4",
			"rotation":[
				0.19390065968036652,
				0.014811569824814796,
				0.10182745009660721,
				0.9756097197532654
			],
			"scale":[
				1.0000001192092896,
				1,
				1
			],
			"translation":[
				-2.3283064365386963e-09,
				0.06391405314207077,
				-2.3283064365386963e-09
			]
		},
		{
			"children":[
				7
			],
			"name":"body_3",
			"rotation":[
				0.18924292922019958,
				0.012309757061302662,
				0.08166789263486862,
				0.9784508347511292
			],
			"scale":[
				0.9999999403953552,
				0.9999999403953552,
				0.9999999403953552
			],
			"translation":[
				-9.313225746154785e-10,
				0.06801000982522964,
				2.6775524020195007e-09
			]
		},
		{
			"children":[
				8
			],
			"name":"body_2",
			"rotation":[
				0.180537611246109,
				0.00832275114953518,
				0.05334775149822235,
				0.9820849895477295
			],
			"scale":[
				0.9999998807907104,
				0.9999999403953552,
				1
			],
			"translation":[
				1.1641532182693481e-09,
				0.07238667458295822,
				9.89530235528946e-10
			]
		},
		{
			"children":[
				9
			],
			"name":"body_1",
			"rotation":[
				0.1719961017370224,
				0.004136772360652685,
				0.0256467554718256,
				0.9847550392150879
			],
			"translation":[
				-1.862645149230957e-09,
				0.07510585337877274,
				4.190951585769653e-09
			]
		},
		{
			"name":"drop_0",
			"rotation":[
				0.7687147855758667,
				0.1852242648601532,
				0.18522413074970245,
				0.5834908485412598
			],
			"scale":[
				0.0009999999310821295,
				0.0009999999310821295,
				0.0010000000474974513
			],
			"translation":[
				-0.10234364122152328,
				0.29433363676071167,
				-0.060328159481287
			]
		},
		{
			"children":[
				10,
				11
			],
			"name":"body_0",
			"rotation":[
				-0.8513256311416626,
				-0.14197677373886108,
				-0.19694632291793823,
				0.46508005261421204
			],
			"scale":[
				1,
				1.0000001192092896,
				1
			],
			"translation":[
				-0.054999999701976776,
				0.14300000667572021,
				0.2800000011920929
			]
		},
		{
			"mesh":0,
			"name":"ToxoRigged",
			"skin":0
		},
		{
			"children":[
				13,
				12
			],
			"name":"Toxo_Armature"
		}
	],
	"animations":[
		{
			"channels":[
				{
					"sampler":0,
					"target":{
						"node":12,
						"path":"translation"
					}
				},
				{
					"sampler":1,
					"target":{
						"node":12,
						"path":"rotation"
					}
				},
				{
					"sampler":2,
					"target":{
						"node":12,
						"path":"scale"
					}
				},
				{
					"sampler":3,
					"target":{
						"node":10,
						"path":"translation"
					}
				},
				{
					"sampler":4,
					"target":{
						"node":10,
						"path":"rotation"
					}
				},
				{
					"sampler":5,
					"target":{
						"node":10,
						"path":"scale"
					}
				},
				{
					"sampler":6,
					"target":{
						"node":9,
						"path":"translation"
					}
				},
				{
					"sampler":7,
					"target":{
						"node":9,
						"path":"rotation"
					}
				},
				{
					"sampler":8,
					"target":{
						"node":9,
						"path":"scale"
					}
				},
				{
					"sampler":9,
					"target":{
						"node":8,
						"path":"translation"
					}
				},
				{
					"sampler":10,
					"target":{
						"node":8,
						"path":"rotation"
					}
				},
				{
					"sampler":11,
					"target":{
						"node":8,
						"path":"scale"
					}
				},
				{
					"sampler":12,
					"target":{
						"node":7,
						"path":"translation"
					}
				},
				{
					"sampler":13,
					"target":{
						"node":7,
						"path":"rotation"
					}
				},
				{
					"sampler":14,
					"target":{
						"node":7,
						"path":"scale"
					}
				},
				{
					"sampler":15,
					"target":{
						"node":6,
						"path":"translation"
					}
				},
				{
					"sampler":16,
					"target":{
						"node":6,
						"path":"rotation"
					}
				},
				{
					"sampler":17,
					"target":{
						"node":6,
						"path":"scale"
					}
				},
				{
					"sampler":18,
					"target":{
						"node":5,
						"path":"translation"
					}
				},
				{
					"sampler":19,
					"target":{
						"node":5,
						"path":"rotation"
					}
				},
				{
					"sampler":20,
					"target":{
						"node":5,
						"path":"scale"
					}
				},
				{
					"sampler":21,
					"target":{
						"node":4,
						"path":"translation"
					}
				},
				{
					"sampler":22,
					"target":{
						"node":4,
						"path":"rotation"
					}
				},
				{
					"sampler":23,
					"target":{
						"node":4,
						"path":"scale"
					}
				},
				{
					"sampler":24,
					"target":{
						"node":3,
						"path":"translation"
					}
				},
				{
					"sampler":25,
					"target":{
						"node":3,
						"path":"rotation"
					}
				},
				{
					"sampler":26,
					"target":{
						"node":3,
						"path":"scale"
					}
				},
				{
					"sampler":27,
					"target":{
						"node":2,
						"path":"translation"
					}
				},
				{
					"sampler":28,
					"target":{
						"node":2,
						"path":"rotation"
					}
				},
				{
					"sampler":29,
					"target":{
						"node":2,
						"path":"scale"
					}
				},
				{
					"sampler":30,
					"target":{
						"node":1,
						"path":"translation"
					}
				},
				{
					"sampler":31,
					"target":{
						"node":1,
						"path":"rotation"
					}
				},
				{
					"sampler":32,
					"target":{
						"node":1,
						"path":"scale"
					}
				},
				{
					"sampler":33,
					"target":{
						"node":0,
						"path":"translation"
					}
				},
				{
					"sampler":34,
					"target":{
						"node":0,
						"path":"rotation"
					}
				},
				{
					"sampler":35,
					"target":{
						"node":0,
						"path":"scale"
					}
				},
				{
					"sampler":36,
					"target":{
						"node":11,
						"path":"translation"
					}
				},
				{
					"sampler":37,
					"target":{
						"node":11,
						"path":"rotation"
					}
				},
				{
					"sampler":38,
					"target":{
						"node":11,
						"path":"scale"
					}
				}
			],
			"name":"toxo_extend",
			"samplers":[
				{
					"input":7,
					"interpolation":"STEP",
					"output":8
				},
				{
					"input":9,
					"interpolation":"LINEAR",
					"output":10
				},
				{
					"input":7,
					"interpolation":"STEP",
					"output":11
				},
				{
					"input":7,
					"interpolation":"STEP",
					"output":12
				},
				{
					"input":9,
					"interpolation":"LINEAR",
					"output":13
				},
				{
					"input":7,
					"interpolation":"STEP",
					"output":14
				},
				{
					"input":7,
					"interpolation":"STEP",
					"output":15
				},
				{
					"input":9,
					"interpolation":"LINEAR",
					"output":16
				},
				{
					"input":7,
					"interpolation":"STEP",
					"output":17
				},
				{
					"input":7,
					"interpolation":"STEP",
					"output":18
				},
				{
					"input":9,
					"interpolation":"LINEAR",
					"output":19
				},
				{
					"input":7,
					"interpolation":"STEP",
					"output":20
				},
				{
					"input":7,
					"interpolation":"STEP",
					"output":21
				},
				{
					"input":9,
					"interpolation":"LINEAR",
					"output":22
				},
				{
					"input":7,
					"interpolation":"STEP",
					"output":23
				},
				{
					"input":7,
					"interpolation":"STEP",
					"output":24
				},
				{
					"input":9,
					"interpolation":"LINEAR",
					"output":25
				},
				{
					"input":7,
					"interpolation":"STEP",
					"output":26
				},
				{
					"input":7,
					"interpolation":"STEP",
					"output":27
				},
				{
					"input":9,
					"interpolation":"LINEAR",
					"output":28
				},
				{
					"input":7,
					"interpolation":"STEP",
					"output":29
				},
				{
					"input":7,
					"interpolation":"STEP",
					"output":30
				},
				{
					"input":9,
					"interpolation":"LINEAR",
					"output":31
				},
				{
					"input":7,
					"interpolation":"STEP",
					"output":32
				},
				{
					"input":7,
					"interpolation":"STEP",
					"output":33
				},
				{
					"input":9,
					"interpolation":"LINEAR",
					"output":34
				},
				{
					"input":7,
					"interpolation":"STEP",
					"output":35
				},
				{
					"input":7,
					"interpolation":"STEP",
					"output":36
				},
				{
					"input":7,
					"interpolation":"STEP",
					"output":37
				},
				{
					"input":9,
					"interpolation":"LINEAR",
					"output":38
				},
				{
					"input":7,
					"interpolation":"STEP",
					"output":39
				},
				{
					"input":7,
					"interpolation":"STEP",
					"output":40
				},
				{
					"input":7,
					"interpolation":"STEP",
					"output":41
				},
				{
					"input":7,
					"interpolation":"STEP",
					"output":42
				},
				{
					"input":7,
					"interpolation":"STEP",
					"output":43
				},
				{
					"input":7,
					"interpolation":"STEP",
					"output":44
				},
				{
					"input":7,
					"interpolation":"STEP",
					"output":45
				},
				{
					"input":7,
					"interpolation":"STEP",
					"output":46
				},
				{
					"input":7,
					"interpolation":"STEP",
					"output":47
				}
			]
		},
		{
			"channels":[
				{
					"sampler":0,
					"target":{
						"node":12,
						"path":"translation"
					}
				},
				{
					"sampler":1,
					"target":{
						"node":12,
						"path":"rotation"
					}
				},
				{
					"sampler":2,
					"target":{
						"node":12,
						"path":"scale"
					}
				},
				{
					"sampler":3,
					"target":{
						"node":10,
						"path":"translation"
					}
				},
				{
					"sampler":4,
					"target":{
						"node":10,
						"path":"rotation"
					}
				},
				{
					"sampler":5,
					"target":{
						"node":10,
						"path":"scale"
					}
				},
				{
					"sampler":6,
					"target":{
						"node":9,
						"path":"translation"
					}
				},
				{
					"sampler":7,
					"target":{
						"node":9,
						"path":"rotation"
					}
				},
				{
					"sampler":8,
					"target":{
						"node":9,
						"path":"scale"
					}
				},
				{
					"sampler":9,
					"target":{
						"node":8,
						"path":"translation"
					}
				},
				{
					"sampler":10,
					"target":{
						"node":8,
						"path":"rotation"
					}
				},
				{
					"sampler":11,
					"target":{
						"node":8,
						"path":"scale"
					}
				},
				{
					"sampler":12,
					"target":{
						"node":7,
						"path":"translation"
					}
				},
				{
					"sampler":13,
					"target":{
						"node":7,
						"path":"rotation"
					}
				},
				{
					"sampler":14,
					"target":{
						"node":7,
						"path":"scale"
					}
				},
				{
					"sampler":15,
					"target":{
						"node":6,
						"path":"translation"
					}
				},
				{
					"sampler":16,
					"target":{
						"node":6,
						"path":"rotation"
					}
				},
				{
					"sampler":17,
					"target":{
						"node":6,
						"path":"scale"
					}
				},
				{
					"sampler":18,
					"target":{
						"node":5,
						"path":"translation"
					}
				},
				{
					"sampler":19,
					"target":{
						"node":5,
						"path":"rotation"
					}
				},
				{
					"sampler":20,
					"target":{
						"node":5,
						"path":"scale"
					}
				},
				{
					"sampler":21,
					"target":{
						"node":4,
						"path":"translation"
					}
				},
				{
					"sampler":22,
					"target":{
						"node":4,
						"path":"rotation"
					}
				},
				{
					"sampler":23,
					"target":{
						"node":4,
						"path":"scale"
					}
				},
				{
					"sampler":24,
					"target":{
						"node":3,
						"path":"translation"
					}
				},
				{
					"sampler":25,
					"target":{
						"node":3,
						"path":"rotation"
					}
				},
				{
					"sampler":26,
					"target":{
						"node":3,
						"path":"scale"
					}
				},
				{
					"sampler":27,
					"target":{
						"node":2,
						"path":"translation"
					}
				},
				{
					"sampler":28,
					"target":{
						"node":2,
						"path":"rotation"
					}
				},
				{
					"sampler":29,
					"target":{
						"node":2,
						"path":"scale"
					}
				},
				{
					"sampler":30,
					"target":{
						"node":1,
						"path":"translation"
					}
				},
				{
					"sampler":31,
					"target":{
						"node":1,
						"path":"rotation"
					}
				},
				{
					"sampler":32,
					"target":{
						"node":1,
						"path":"scale"
					}
				},
				{
					"sampler":33,
					"target":{
						"node":0,
						"path":"translation"
					}
				},
				{
					"sampler":34,
					"target":{
						"node":0,
						"path":"rotation"
					}
				},
				{
					"sampler":35,
					"target":{
						"node":0,
						"path":"scale"
					}
				},
				{
					"sampler":36,
					"target":{
						"node":11,
						"path":"translation"
					}
				},
				{
					"sampler":37,
					"target":{
						"node":11,
						"path":"rotation"
					}
				},
				{
					"sampler":38,
					"target":{
						"node":11,
						"path":"scale"
					}
				}
			],
			"name":"toxo_pierce",
			"samplers":[
				{
					"input":48,
					"interpolation":"STEP",
					"output":8
				},
				{
					"input":49,
					"interpolation":"LINEAR",
					"output":50
				},
				{
					"input":48,
					"interpolation":"STEP",
					"output":51
				},
				{
					"input":48,
					"interpolation":"STEP",
					"output":52
				},
				{
					"input":49,
					"interpolation":"LINEAR",
					"output":53
				},
				{
					"input":48,
					"interpolation":"STEP",
					"output":54
				},
				{
					"input":48,
					"interpolation":"STEP",
					"output":55
				},
				{
					"input":49,
					"interpolation":"LINEAR",
					"output":56
				},
				{
					"input":48,
					"interpolation":"STEP",
					"output":17
				},
				{
					"input":48,
					"interpolation":"STEP",
					"output":57
				},
				{
					"input":49,
					"interpolation":"LINEAR",
					"output":58
				},
				{
					"input":48,
					"interpolation":"STEP",
					"output":59
				},
				{
					"input":48,
					"interpolation":"STEP",
					"output":60
				},
				{
					"input":49,
					"interpolation":"LINEAR",
					"output":61
				},
				{
					"input":48,
					"interpolation":"STEP",
					"output":62
				},
				{
					"input":48,
					"interpolation":"STEP",
					"output":63
				},
				{
					"input":49,
					"interpolation":"LINEAR",
					"output":64
				},
				{
					"input":48,
					"interpolation":"STEP",
					"output":65
				},
				{
					"input":48,
					"interpolation":"STEP",
					"output":66
				},
				{
					"input":49,
					"interpolation":"LINEAR",
					"output":67
				},
				{
					"input":48,
					"interpolation":"STEP",
					"output":68
				},
				{
					"input":48,
					"interpolation":"STEP",
					"output":69
				},
				{
					"input":49,
					"interpolation":"LINEAR",
					"output":70
				},
				{
					"input":48,
					"interpolation":"STEP",
					"output":71
				},
				{
					"input":48,
					"interpolation":"STEP",
					"output":72
				},
				{
					"input":49,
					"interpolation":"LINEAR",
					"output":73
				},
				{
					"input":48,
					"interpolation":"STEP",
					"output":74
				},
				{
					"input":48,
					"interpolation":"STEP",
					"output":75
				},
				{
					"input":48,
					"interpolation":"STEP",
					"output":76
				},
				{
					"input":49,
					"interpolation":"LINEAR",
					"output":77
				},
				{
					"input":48,
					"interpolation":"STEP",
					"output":78
				},
				{
					"input":48,
					"interpolation":"STEP",
					"output":79
				},
				{
					"input":49,
					"interpolation":"LINEAR",
					"output":80
				},
				{
					"input":48,
					"interpolation":"STEP",
					"output":81
				},
				{
					"input":48,
					"interpolation":"STEP",
					"output":82
				},
				{
					"input":49,
					"interpolation":"LINEAR",
					"output":83
				},
				{
					"input":48,
					"interpolation":"STEP",
					"output":84
				},
				{
					"input":48,
					"interpolation":"STEP",
					"output":85
				},
				{
					"input":48,
					"interpolation":"STEP",
					"output":86
				}
			]
		},
		{
			"channels":[
				{
					"sampler":0,
					"target":{
						"node":12,
						"path":"translation"
					}
				},
				{
					"sampler":1,
					"target":{
						"node":12,
						"path":"rotation"
					}
				},
				{
					"sampler":2,
					"target":{
						"node":12,
						"path":"scale"
					}
				},
				{
					"sampler":3,
					"target":{
						"node":10,
						"path":"translation"
					}
				},
				{
					"sampler":4,
					"target":{
						"node":10,
						"path":"rotation"
					}
				},
				{
					"sampler":5,
					"target":{
						"node":10,
						"path":"scale"
					}
				},
				{
					"sampler":6,
					"target":{
						"node":9,
						"path":"translation"
					}
				},
				{
					"sampler":7,
					"target":{
						"node":9,
						"path":"rotation"
					}
				},
				{
					"sampler":8,
					"target":{
						"node":9,
						"path":"scale"
					}
				},
				{
					"sampler":9,
					"target":{
						"node":8,
						"path":"translation"
					}
				},
				{
					"sampler":10,
					"target":{
						"node":8,
						"path":"rotation"
					}
				},
				{
					"sampler":11,
					"target":{
						"node":8,
						"path":"scale"
					}
				},
				{
					"sampler":12,
					"target":{
						"node":7,
						"path":"translation"
					}
				},
				{
					"sampler":13,
					"target":{
						"node":7,
						"path":"rotation"
					}
				},
				{
					"sampler":14,
					"target":{
						"node":7,
						"path":"scale"
					}
				},
				{
					"sampler":15,
					"target":{
						"node":6,
						"path":"translation"
					}
				},
				{
					"sampler":16,
					"target":{
						"node":6,
						"path":"rotation"
					}
				},
				{
					"sampler":17,
					"target":{
						"node":6,
						"path":"scale"
					}
				},
				{
					"sampler":18,
					"target":{
						"node":5,
						"path":"translation"
					}
				},
				{
					"sampler":19,
					"target":{
						"node":5,
						"path":"rotation"
					}
				},
				{
					"sampler":20,
					"target":{
						"node":5,
						"path":"scale"
					}
				},
				{
					"sampler":21,
					"target":{
						"node":4,
						"path":"translation"
					}
				},
				{
					"sampler":22,
					"target":{
						"node":4,
						"path":"rotation"
					}
				},
				{
					"sampler":23,
					"target":{
						"node":4,
						"path":"scale"
					}
				},
				{
					"sampler":24,
					"target":{
						"node":3,
						"path":"translation"
					}
				},
				{
					"sampler":25,
					"target":{
						"node":3,
						"path":"rotation"
					}
				},
				{
					"sampler":26,
					"target":{
						"node":3,
						"path":"scale"
					}
				},
				{
					"sampler":27,
					"target":{
						"node":2,
						"path":"translation"
					}
				},
				{
					"sampler":28,
					"target":{
						"node":2,
						"path":"rotation"
					}
				},
				{
					"sampler":29,
					"target":{
						"node":2,
						"path":"scale"
					}
				},
				{
					"sampler":30,
					"target":{
						"node":1,
						"path":"translation"
					}
				},
				{
					"sampler":31,
					"target":{
						"node":1,
						"path":"rotation"
					}
				},
				{
					"sampler":32,
					"target":{
						"node":1,
						"path":"scale"
					}
				},
				{
					"sampler":33,
					"target":{
						"node":0,
						"path":"translation"
					}
				},
				{
					"sampler":34,
					"target":{
						"node":0,
						"path":"rotation"
					}
				},
				{
					"sampler":35,
					"target":{
						"node":0,
						"path":"scale"
					}
				},
				{
					"sampler":36,
					"target":{
						"node":11,
						"path":"translation"
					}
				},
				{
					"sampler":37,
					"target":{
						"node":11,
						"path":"rotation"
					}
				},
				{
					"sampler":38,
					"target":{
						"node":11,
						"path":"scale"
					}
				}
			],
			"name":"toxo_retract",
			"samplers":[
				{
					"input":87,
					"interpolation":"STEP",
					"output":8
				},
				{
					"input":88,
					"interpolation":"LINEAR",
					"output":89
				},
				{
					"input":87,
					"interpolation":"STEP",
					"output":51
				},
				{
					"input":87,
					"interpolation":"STEP",
					"output":52
				},
				{
					"input":88,
					"interpolation":"LINEAR",
					"output":90
				},
				{
					"input":87,
					"interpolation":"STEP",
					"output":54
				},
				{
					"input":87,
					"interpolation":"STEP",
					"output":55
				},
				{
					"input":88,
					"interpolation":"LINEAR",
					"output":91
				},
				{
					"input":87,
					"interpolation":"STEP",
					"output":17
				},
				{
					"input":87,
					"interpolation":"STEP",
					"output":57
				},
				{
					"input":88,
					"interpolation":"LINEAR",
					"output":92
				},
				{
					"input":87,
					"interpolation":"STEP",
					"output":59
				},
				{
					"input":87,
					"interpolation":"STEP",
					"output":60
				},
				{
					"input":88,
					"interpolation":"LINEAR",
					"output":93
				},
				{
					"input":87,
					"interpolation":"STEP",
					"output":62
				},
				{
					"input":87,
					"interpolation":"STEP",
					"output":63
				},
				{
					"input":88,
					"interpolation":"LINEAR",
					"output":94
				},
				{
					"input":87,
					"interpolation":"STEP",
					"output":65
				},
				{
					"input":87,
					"interpolation":"STEP",
					"output":66
				},
				{
					"input":88,
					"interpolation":"LINEAR",
					"output":95
				},
				{
					"input":87,
					"interpolation":"STEP",
					"output":68
				},
				{
					"input":87,
					"interpolation":"STEP",
					"output":69
				},
				{
					"input":88,
					"interpolation":"LINEAR",
					"output":96
				},
				{
					"input":87,
					"interpolation":"STEP",
					"output":71
				},
				{
					"input":87,
					"interpolation":"STEP",
					"output":72
				},
				{
					"input":88,
					"interpolation":"LINEAR",
					"output":97
				},
				{
					"input":87,
					"interpolation":"STEP",
					"output":74
				},
				{
					"input":87,
					"interpolation":"STEP",
					"output":75
				},
				{
					"input":87,
					"interpolation":"STEP",
					"output":76
				},
				{
					"input":88,
					"interpolation":"LINEAR",
					"output":98
				},
				{
					"input":87,
					"interpolation":"STEP",
					"output":78
				},
				{
					"input":87,
					"interpolation":"STEP",
					"output":79
				},
				{
					"input":87,
					"interpolation":"STEP",
					"output":99
				},
				{
					"input":87,
					"interpolation":"STEP",
					"output":81
				},
				{
					"input":87,
					"interpolation":"STEP",
					"output":82
				},
				{
					"input":87,
					"interpolation":"STEP",
					"output":100
				},
				{
					"input":87,
					"interpolation":"STEP",
					"output":84
				},
				{
					"input":87,
					"interpolation":"STEP",
					"output":85
				},
				{
					"input":87,
					"interpolation":"STEP",
					"output":86
				}
			]
		},
		{
			"channels":[
				{
					"sampler":0,
					"target":{
						"node":12,
						"path":"translation"
					}
				},
				{
					"sampler":1,
					"target":{
						"node":12,
						"path":"rotation"
					}
				},
				{
					"sampler":2,
					"target":{
						"node":12,
						"path":"scale"
					}
				},
				{
					"sampler":3,
					"target":{
						"node":10,
						"path":"translation"
					}
				},
				{
					"sampler":4,
					"target":{
						"node":10,
						"path":"rotation"
					}
				},
				{
					"sampler":5,
					"target":{
						"node":10,
						"path":"scale"
					}
				},
				{
					"sampler":6,
					"target":{
						"node":9,
						"path":"translation"
					}
				},
				{
					"sampler":7,
					"target":{
						"node":9,
						"path":"rotation"
					}
				},
				{
					"sampler":8,
					"target":{
						"node":9,
						"path":"scale"
					}
				},
				{
					"sampler":9,
					"target":{
						"node":8,
						"path":"translation"
					}
				},
				{
					"sampler":10,
					"target":{
						"node":8,
						"path":"rotation"
					}
				},
				{
					"sampler":11,
					"target":{
						"node":8,
						"path":"scale"
					}
				},
				{
					"sampler":12,
					"target":{
						"node":7,
						"path":"translation"
					}
				},
				{
					"sampler":13,
					"target":{
						"node":7,
						"path":"rotation"
					}
				},
				{
					"sampler":14,
					"target":{
						"node":7,
						"path":"scale"
					}
				},
				{
					"sampler":15,
					"target":{
						"node":6,
						"path":"translation"
					}
				},
				{
					"sampler":16,
					"target":{
						"node":6,
						"path":"rotation"
					}
				},
				{
					"sampler":17,
					"target":{
						"node":6,
						"path":"scale"
					}
				},
				{
					"sampler":18,
					"target":{
						"node":5,
						"path":"translation"
					}
				},
				{
					"sampler":19,
					"target":{
						"node":5,
						"path":"rotation"
					}
				},
				{
					"sampler":20,
					"target":{
						"node":5,
						"path":"scale"
					}
				},
				{
					"sampler":21,
					"target":{
						"node":4,
						"path":"translation"
					}
				},
				{
					"sampler":22,
					"target":{
						"node":4,
						"path":"rotation"
					}
				},
				{
					"sampler":23,
					"target":{
						"node":4,
						"path":"scale"
					}
				},
				{
					"sampler":24,
					"target":{
						"node":3,
						"path":"translation"
					}
				},
				{
					"sampler":25,
					"target":{
						"node":3,
						"path":"rotation"
					}
				},
				{
					"sampler":26,
					"target":{
						"node":3,
						"path":"scale"
					}
				},
				{
					"sampler":27,
					"target":{
						"node":2,
						"path":"translation"
					}
				},
				{
					"sampler":28,
					"target":{
						"node":2,
						"path":"rotation"
					}
				},
				{
					"sampler":29,
					"target":{
						"node":2,
						"path":"scale"
					}
				},
				{
					"sampler":30,
					"target":{
						"node":1,
						"path":"translation"
					}
				},
				{
					"sampler":31,
					"target":{
						"node":1,
						"path":"rotation"
					}
				},
				{
					"sampler":32,
					"target":{
						"node":1,
						"path":"scale"
					}
				},
				{
					"sampler":33,
					"target":{
						"node":0,
						"path":"translation"
					}
				},
				{
					"sampler":34,
					"target":{
						"node":0,
						"path":"rotation"
					}
				},
				{
					"sampler":35,
					"target":{
						"node":0,
						"path":"scale"
					}
				},
				{
					"sampler":36,
					"target":{
						"node":11,
						"path":"translation"
					}
				},
				{
					"sampler":37,
					"target":{
						"node":11,
						"path":"rotation"
					}
				},
				{
					"sampler":38,
					"target":{
						"node":11,
						"path":"scale"
					}
				}
			],
			"name":"toxo_curl",
			"samplers":[
				{
					"input":101,
					"interpolation":"STEP",
					"output":8
				},
				{
					"input":102,
					"interpolation":"LINEAR",
					"output":103
				},
				{
					"input":101,
					"interpolation":"STEP",
					"output":104
				},
				{
					"input":101,
					"interpolation":"STEP",
					"output":105
				},
				{
					"input":102,
					"interpolation":"LINEAR",
					"output":106
				},
				{
					"input":101,
					"interpolation":"STEP",
					"output":107
				},
				{
					"input":101,
					"interpolation":"STEP",
					"output":108
				},
				{
					"input":102,
					"interpolation":"LINEAR",
					"output":109
				},
				{
					"input":101,
					"interpolation":"STEP",
					"output":110
				},
				{
					"input":101,
					"interpolation":"STEP",
					"output":111
				},
				{
					"input":102,
					"interpolation":"LINEAR",
					"output":112
				},
				{
					"input":101,
					"interpolation":"STEP",
					"output":113
				},
				{
					"input":101,
					"interpolation":"STEP",
					"output":114
				},
				{
					"input":102,
					"interpolation":"LINEAR",
					"output":115
				},
				{
					"input":101,
					"interpolation":"STEP",
					"output":116
				},
				{
					"input":101,
					"interpolation":"STEP",
					"output":117
				},
				{
					"input":102,
					"interpolation":"LINEAR",
					"output":118
				},
				{
					"input":101,
					"interpolation":"STEP",
					"output":119
				},
				{
					"input":101,
					"interpolation":"STEP",
					"output":120
				},
				{
					"input":102,
					"interpolation":"LINEAR",
					"output":121
				},
				{
					"input":101,
					"interpolation":"STEP",
					"output":122
				},
				{
					"input":101,
					"interpolation":"STEP",
					"output":123
				},
				{
					"input":102,
					"interpolation":"LINEAR",
					"output":124
				},
				{
					"input":101,
					"interpolation":"STEP",
					"output":125
				},
				{
					"input":101,
					"interpolation":"STEP",
					"output":126
				},
				{
					"input":102,
					"interpolation":"LINEAR",
					"output":127
				},
				{
					"input":101,
					"interpolation":"STEP",
					"output":128
				},
				{
					"input":101,
					"interpolation":"STEP",
					"output":129
				},
				{
					"input":101,
					"interpolation":"STEP",
					"output":130
				},
				{
					"input":102,
					"interpolation":"LINEAR",
					"output":131
				},
				{
					"input":101,
					"interpolation":"STEP",
					"output":132
				},
				{
					"input":101,
					"interpolation":"STEP",
					"output":133
				},
				{
					"input":102,
					"interpolation":"LINEAR",
					"output":134
				},
				{
					"input":101,
					"interpolation":"STEP",
					"output":135
				},
				{
					"input":101,
					"interpolation":"STEP",
					"output":136
				},
				{
					"input":101,
					"interpolation":"STEP",
					"output":137
				},
				{
					"input":101,
					"interpolation":"STEP",
					"output":138
				},
				{
					"input":101,
					"interpolation":"STEP",
					"output":139
				},
				{
					"input":101,
					"interpolation":"STEP",
					"output":140
				}
			]
		},
		{
			"channels":[
				{
					"sampler":0,
					"target":{
						"node":12,
						"path":"translation"
					}
				},
				{
					"sampler":1,
					"target":{
						"node":12,
						"path":"rotation"
					}
				},
				{
					"sampler":2,
					"target":{
						"node":12,
						"path":"scale"
					}
				},
				{
					"sampler":3,
					"target":{
						"node":10,
						"path":"translation"
					}
				},
				{
					"sampler":4,
					"target":{
						"node":10,
						"path":"rotation"
					}
				},
				{
					"sampler":5,
					"target":{
						"node":10,
						"path":"scale"
					}
				},
				{
					"sampler":6,
					"target":{
						"node":9,
						"path":"translation"
					}
				},
				{
					"sampler":7,
					"target":{
						"node":9,
						"path":"rotation"
					}
				},
				{
					"sampler":8,
					"target":{
						"node":9,
						"path":"scale"
					}
				},
				{
					"sampler":9,
					"target":{
						"node":8,
						"path":"translation"
					}
				},
				{
					"sampler":10,
					"target":{
						"node":8,
						"path":"rotation"
					}
				},
				{
					"sampler":11,
					"target":{
						"node":8,
						"path":"scale"
					}
				},
				{
					"sampler":12,
					"target":{
						"node":7,
						"path":"translation"
					}
				},
				{
					"sampler":13,
					"target":{
						"node":7,
						"path":"rotation"
					}
				},
				{
					"sampler":14,
					"target":{
						"node":7,
						"path":"scale"
					}
				},
				{
					"sampler":15,
					"target":{
						"node":6,
						"path":"translation"
					}
				},
				{
					"sampler":16,
					"target":{
						"node":6,
						"path":"rotation"
					}
				},
				{
					"sampler":17,
					"target":{
						"node":6,
						"path":"scale"
					}
				},
				{
					"sampler":18,
					"target":{
						"node":5,
						"path":"translation"
					}
				},
				{
					"sampler":19,
					"target":{
						"node":5,
						"path":"rotation"
					}
				},
				{
					"sampler":20,
					"target":{
						"node":5,
						"path":"scale"
					}
				},
				{
					"sampler":21,
					"target":{
						"node":4,
						"path":"translation"
					}
				},
				{
					"sampler":22,
					"target":{
						"node":4,
						"path":"rotation"
					}
				},
				{
					"sampler":23,
					"target":{
						"node":4,
						"path":"scale"
					}
				},
				{
					"sampler":24,
					"target":{
						"node":3,
						"path":"translation"
					}
				},
				{
					"sampler":25,
					"target":{
						"node":3,
						"path":"rotation"
					}
				},
				{
					"sampler":26,
					"target":{
						"node":3,
						"path":"scale"
					}
				},
				{
					"sampler":27,
					"target":{
						"node":2,
						"path":"translation"
					}
				},
				{
					"sampler":28,
					"target":{
						"node":2,
						"path":"rotation"
					}
				},
				{
					"sampler":29,
					"target":{
						"node":2,
						"path":"scale"
					}
				},
				{
					"sampler":30,
					"target":{
						"node":1,
						"path":"translation"
					}
				},
				{
					"sampler":31,
					"target":{
						"node":1,
						"path":"rotation"
					}
				},
				{
					"sampler":32,
					"target":{
						"node":1,
						"path":"scale"
					}
				},
				{
					"sampler":33,
					"target":{
						"node":0,
						"path":"translation"
					}
				},
				{
					"sampler":34,
					"target":{
						"node":0,
						"path":"rotation"
					}
				},
				{
					"sampler":35,
					"target":{
						"node":0,
						"path":"scale"
					}
				},
				{
					"sampler":36,
					"target":{
						"node":11,
						"path":"translation"
					}
				},
				{
					"sampler":37,
					"target":{
						"node":11,
						"path":"rotation"
					}
				},
				{
					"sampler":38,
					"target":{
						"node":11,
						"path":"scale"
					}
				}
			],
			"name":"toxo_tuck",
			"samplers":[
				{
					"input":141,
					"interpolation":"STEP",
					"output":8
				},
				{
					"input":142,
					"interpolation":"LINEAR",
					"output":143
				},
				{
					"input":141,
					"interpolation":"STEP",
					"output":144
				},
				{
					"input":141,
					"interpolation":"STEP",
					"output":145
				},
				{
					"input":142,
					"interpolation":"LINEAR",
					"output":146
				},
				{
					"input":141,
					"interpolation":"STEP",
					"output":147
				},
				{
					"input":141,
					"interpolation":"STEP",
					"output":148
				},
				{
					"input":142,
					"interpolation":"LINEAR",
					"output":149
				},
				{
					"input":141,
					"interpolation":"STEP",
					"output":150
				},
				{
					"input":141,
					"interpolation":"STEP",
					"output":151
				},
				{
					"input":142,
					"interpolation":"LINEAR",
					"output":152
				},
				{
					"input":141,
					"interpolation":"STEP",
					"output":153
				},
				{
					"input":141,
					"interpolation":"STEP",
					"output":154
				},
				{
					"input":142,
					"interpolation":"LINEAR",
					"output":155
				},
				{
					"input":141,
					"interpolation":"STEP",
					"output":156
				},
				{
					"input":141,
					"interpolation":"STEP",
					"output":157
				},
				{
					"input":142,
					"interpolation":"LINEAR",
					"output":158
				},
				{
					"input":141,
					"interpolation":"STEP",
					"output":159
				},
				{
					"input":141,
					"interpolation":"STEP",
					"output":160
				},
				{
					"input":142,
					"interpolation":"LINEAR",
					"output":161
				},
				{
					"input":141,
					"interpolation":"STEP",
					"output":162
				},
				{
					"input":141,
					"interpolation":"STEP",
					"output":163
				},
				{
					"input":142,
					"interpolation":"LINEAR",
					"output":164
				},
				{
					"input":141,
					"interpolation":"STEP",
					"output":165
				},
				{
					"input":141,
					"interpolation":"STEP",
					"output":166
				},
				{
					"input":142,
					"interpolation":"LINEAR",
					"output":167
				},
				{
					"input":141,
					"interpolation":"STEP",
					"output":168
				},
				{
					"input":141,
					"interpolation":"STEP",
					"output":169
				},
				{
					"input":141,
					"interpolation":"STEP",
					"output":170
				},
				{
					"input":142,
					"interpolation":"LINEAR",
					"output":171
				},
				{
					"input":141,
					"interpolation":"STEP",
					"output":172
				},
				{
					"input":141,
					"interpolation":"STEP",
					"output":173
				},
				{
					"input":142,
					"interpolation":"LINEAR",
					"output":174
				},
				{
					"input":141,
					"interpolation":"STEP",
					"output":175
				},
				{
					"input":141,
					"interpolation":"STEP",
					"output":176
				},
				{
					"input":141,
					"interpolation":"STEP",
					"output":177
				},
				{
					"input":141,
					"interpolation":"STEP",
					"output":178
				},
				{
					"input":141,
					"interpolation":"STEP",
					"output":139
				},
				{
					"input":141,
					"interpolation":"STEP",
					"output":179
				}
			]
		},
		{
			"channels":[
				{
					"sampler":0,
					"target":{
						"node":12,
						"path":"translation"
					}
				},
				{
					"sampler":1,
					"target":{
						"node":12,
						"path":"rotation"
					}
				},
				{
					"sampler":2,
					"target":{
						"node":12,
						"path":"scale"
					}
				},
				{
					"sampler":3,
					"target":{
						"node":10,
						"path":"translation"
					}
				},
				{
					"sampler":4,
					"target":{
						"node":10,
						"path":"rotation"
					}
				},
				{
					"sampler":5,
					"target":{
						"node":10,
						"path":"scale"
					}
				},
				{
					"sampler":6,
					"target":{
						"node":9,
						"path":"translation"
					}
				},
				{
					"sampler":7,
					"target":{
						"node":9,
						"path":"rotation"
					}
				},
				{
					"sampler":8,
					"target":{
						"node":9,
						"path":"scale"
					}
				},
				{
					"sampler":9,
					"target":{
						"node":8,
						"path":"translation"
					}
				},
				{
					"sampler":10,
					"target":{
						"node":8,
						"path":"rotation"
					}
				},
				{
					"sampler":11,
					"target":{
						"node":8,
						"path":"scale"
					}
				},
				{
					"sampler":12,
					"target":{
						"node":7,
						"path":"translation"
					}
				},
				{
					"sampler":13,
					"target":{
						"node":7,
						"path":"rotation"
					}
				},
				{
					"sampler":14,
					"target":{
						"node":7,
						"path":"scale"
					}
				},
				{
					"sampler":15,
					"target":{
						"node":6,
						"path":"translation"
					}
				},
				{
					"sampler":16,
					"target":{
						"node":6,
						"path":"rotation"
					}
				},
				{
					"sampler":17,
					"target":{
						"node":6,
						"path":"scale"
					}
				},
				{
					"sampler":18,
					"target":{
						"node":5,
						"path":"translation"
					}
				},
				{
					"sampler":19,
					"target":{
						"node":5,
						"path":"rotation"
					}
				},
				{
					"sampler":20,
					"target":{
						"node":5,
						"path":"scale"
					}
				},
				{
					"sampler":21,
					"target":{
						"node":4,
						"path":"translation"
					}
				},
				{
					"sampler":22,
					"target":{
						"node":4,
						"path":"rotation"
					}
				},
				{
					"sampler":23,
					"target":{
						"node":4,
						"path":"scale"
					}
				},
				{
					"sampler":24,
					"target":{
						"node":3,
						"path":"translation"
					}
				},
				{
					"sampler":25,
					"target":{
						"node":3,
						"path":"rotation"
					}
				},
				{
					"sampler":26,
					"target":{
						"node":3,
						"path":"scale"
					}
				},
				{
					"sampler":27,
					"target":{
						"node":2,
						"path":"translation"
					}
				},
				{
					"sampler":28,
					"target":{
						"node":2,
						"path":"rotation"
					}
				},
				{
					"sampler":29,
					"target":{
						"node":2,
						"path":"scale"
					}
				},
				{
					"sampler":30,
					"target":{
						"node":1,
						"path":"translation"
					}
				},
				{
					"sampler":31,
					"target":{
						"node":1,
						"path":"rotation"
					}
				},
				{
					"sampler":32,
					"target":{
						"node":1,
						"path":"scale"
					}
				},
				{
					"sampler":33,
					"target":{
						"node":0,
						"path":"translation"
					}
				},
				{
					"sampler":34,
					"target":{
						"node":0,
						"path":"rotation"
					}
				},
				{
					"sampler":35,
					"target":{
						"node":0,
						"path":"scale"
					}
				},
				{
					"sampler":36,
					"target":{
						"node":11,
						"path":"translation"
					}
				},
				{
					"sampler":37,
					"target":{
						"node":11,
						"path":"rotation"
					}
				},
				{
					"sampler":38,
					"target":{
						"node":11,
						"path":"scale"
					}
				}
			],
			"name":"toxo_melt",
			"samplers":[
				{
					"input":180,
					"interpolation":"STEP",
					"output":8
				},
				{
					"input":181,
					"interpolation":"LINEAR",
					"output":182
				},
				{
					"input":181,
					"interpolation":"LINEAR",
					"output":183
				},
				{
					"input":180,
					"interpolation":"STEP",
					"output":184
				},
				{
					"input":181,
					"interpolation":"LINEAR",
					"output":185
				},
				{
					"input":181,
					"interpolation":"LINEAR",
					"output":186
				},
				{
					"input":180,
					"interpolation":"STEP",
					"output":187
				},
				{
					"input":181,
					"interpolation":"LINEAR",
					"output":188
				},
				{
					"input":181,
					"interpolation":"LINEAR",
					"output":189
				},
				{
					"input":180,
					"interpolation":"STEP",
					"output":190
				},
				{
					"input":181,
					"interpolation":"LINEAR",
					"output":191
				},
				{
					"input":181,
					"interpolation":"LINEAR",
					"output":192
				},
				{
					"input":180,
					"interpolation":"STEP",
					"output":193
				},
				{
					"input":181,
					"interpolation":"LINEAR",
					"output":194
				},
				{
					"input":181,
					"interpolation":"LINEAR",
					"output":195
				},
				{
					"input":180,
					"interpolation":"STEP",
					"output":196
				},
				{
					"input":181,
					"interpolation":"LINEAR",
					"output":197
				},
				{
					"input":181,
					"interpolation":"LINEAR",
					"output":198
				},
				{
					"input":180,
					"interpolation":"STEP",
					"output":199
				},
				{
					"input":181,
					"interpolation":"LINEAR",
					"output":200
				},
				{
					"input":181,
					"interpolation":"LINEAR",
					"output":201
				},
				{
					"input":180,
					"interpolation":"STEP",
					"output":202
				},
				{
					"input":181,
					"interpolation":"LINEAR",
					"output":203
				},
				{
					"input":181,
					"interpolation":"LINEAR",
					"output":204
				},
				{
					"input":180,
					"interpolation":"STEP",
					"output":205
				},
				{
					"input":181,
					"interpolation":"LINEAR",
					"output":206
				},
				{
					"input":181,
					"interpolation":"LINEAR",
					"output":207
				},
				{
					"input":180,
					"interpolation":"STEP",
					"output":208
				},
				{
					"input":180,
					"interpolation":"STEP",
					"output":209
				},
				{
					"input":181,
					"interpolation":"LINEAR",
					"output":210
				},
				{
					"input":180,
					"interpolation":"STEP",
					"output":211
				},
				{
					"input":180,
					"interpolation":"STEP",
					"output":212
				},
				{
					"input":181,
					"interpolation":"LINEAR",
					"output":213
				},
				{
					"input":180,
					"interpolation":"STEP",
					"output":214
				},
				{
					"input":180,
					"interpolation":"STEP",
					"output":215
				},
				{
					"input":180,
					"interpolation":"STEP",
					"output":216
				},
				{
					"input":180,
					"interpolation":"STEP",
					"output":217
				},
				{
					"input":180,
					"interpolation":"STEP",
					"output":139
				},
				{
					"input":181,
					"interpolation":"LINEAR",
					"output":218
				}
			]
		}
	],
	"materials":[
		{
			"alphaMode":"MASK",
			"doubleSided":true,
			"emissiveFactor":[
				1,
				1,
				1
			],
			"emissiveTexture":{
				"index":0
			},
			"extensions":{
				"KHR_materials_emissive_strength":{
					"emissiveStrength":1.600000023841858
				}
			},
			"name":"ToxoRiggedTex",
			"pbrMetallicRoughness":{
				"baseColorTexture":{
					"index":1
				},
				"metallicFactor":0,
				"roughnessFactor":0.8999999761581421
			}
		}
	],
	"meshes":[
		{
			"name":"ToxoRigged",
			"primitives":[
				{
					"attributes":{
						"POSITION":0,
						"NORMAL":1,
						"TEXCOORD_0":2,
						"JOINTS_0":3,
						"WEIGHTS_0":4
					},
					"indices":5,
					"material":0
				}
			]
		}
	],
	"textures":[
		{
			"sampler":0,
			"source":0
		},
		{
			"sampler":0,
			"source":1
		}
	],
	"images":[
		{
			"mimeType":"image/png",
			"name":"ToxoRigged_emissive",
			"uri":"ToxoRigged_emissive.png"
		},
		{
			"mimeType":"image/png",
			"name":"ToxoRigged_tex",
			"uri":"ToxoRigged_tex.png"
		}
	],
	"skins":[
		{
			"inverseBindMatrices":6,
			"joints":[
				12,
				10,
				9,
				8,
				7,
				6,
				5,
				4,
				3,
				2,
				1,
				0,
				11
			],
			"name":"Toxo_Armature"
		}
	],
	"accessors":[
		{
			"bufferView":0,
			"componentType":5126,
			"count":598,
			"max":[
				0.452055960893631,
				0.28299999237060547,
				0.5134027600288391
			],
			"min":[
				-0.4374106526374817,
				0.002999999327585101,
				-0.6337106227874756
			],
			"type":"VEC3"
		},
		{
			"bufferView":1,
			"componentType":5126,
			"count":598,
			"type":"VEC3"
		},
		{
			"bufferView":2,
			"componentType":5126,
			"count":598,
			"type":"VEC2"
		},
		{
			"bufferView":3,
			"componentType":5121,
			"count":598,
			"type":"VEC4"
		},
		{
			"bufferView":4,
			"componentType":5126,
			"count":598,
			"type":"VEC4"
		},
		{
			"bufferView":5,
			"componentType":5123,
			"count":966,
			"type":"SCALAR"
		},
		{
			"bufferView":6,
			"componentType":5126,
			"count":13,
			"type":"MAT4"
		},
		{
			"bufferView":7,
			"componentType":5126,
			"count":2,
			"max":[
				1
			],
			"min":[
				0.041666666666666664
			],
			"type":"SCALAR"
		},
		{
			"bufferView":8,
			"componentType":5126,
			"count":2,
			"type":"VEC3"
		},
		{
			"bufferView":9,
			"componentType":5126,
			"count":24,
			"max":[
				1
			],
			"min":[
				0.041666666666666664
			],
			"type":"SCALAR"
		},
		{
			"bufferView":10,
			"componentType":5126,
			"count":24,
			"type":"VEC4"
		},
		{
			"bufferView":11,
			"componentType":5126,
			"count":2,
			"type":"VEC3"
		},
		{
			"bufferView":12,
			"componentType":5126,
			"count":2,
			"type":"VEC3"
		},
		{
			"bufferView":13,
			"componentType":5126,
			"count":24,
			"type":"VEC4"
		},
		{
			"bufferView":14,
			"componentType":5126,
			"count":2,
			"type":"VEC3"
		},
		{
			"bufferView":15,
			"componentType":5126,
			"count":2,
			"type":"VEC3"
		},
		{
			"bufferView":16,
			"componentType":5126,
			"count":24,
			"type":"VEC4"
		},
		{
			"bufferView":17,
			"componentType":5126,
			"count":2,
			"type":"VEC3"
		},
		{
			"bufferView":18,
			"componentType":5126,
			"count":2,
			"type":"VEC3"
		},
		{
			"bufferView":19,
			"componentType":5126,
			"count":24,
			"type":"VEC4"
		},
		{
			"bufferView":20,
			"componentType":5126,
			"count":2,
			"type":"VEC3"
		},
		{
			"bufferView":21,
			"componentType":5126,
			"count":2,
			"type":"VEC3"
		},
		{
			"bufferView":22,
			"componentType":5126,
			"count":24,
			"type":"VEC4"
		},
		{
			"bufferView":23,
			"componentType":5126,
			"count":2,
			"type":"VEC3"
		},
		{
			"bufferView":24,
			"componentType":5126,
			"count":2,
			"type":"VEC3"
		},
		{
			"bufferView":25,
			"componentType":5126,
			"count":24,
			"type":"VEC4"
		},
		{
			"bufferView":26,
			"componentType":5126,
			"count":2,
			"type":"VEC3"
		},
		{
			"bufferView":27,
			"componentType":5126,
			"count":2,
			"type":"VEC3"
		},
		{
			"bufferView":28,
			"componentType":5126,
			"count":24,
			"type":"VEC4"
		},
		{
			"bufferView":29,
			"componentType":5126,
			"count":2,
			"type":"VEC3"
		},
		{
			"bufferView":30,
			"componentType":5126,
			"count":2,
			"type":"VEC3"
		},
		{
			"bufferView":31,
			"componentType":5126,
			"count":24,
			"type":"VEC4"
		},
		{
			"bufferView":32,
			"componentType":5126,
			"count":2,
			"type":"VEC3"
		},
		{
			"bufferView":33,
			"componentType":5126,
			"count":2,
			"type":"VEC3"
		},
		{
			"bufferView":34,
			"componentType":5126,
			"count":24,
			"type":"VEC4"
		},
		{
			"bufferView":35,
			"componentType":5126,
			"count":2,
			"type":"VEC3"
		},
		{
			"bufferView":36,
			"componentType":5126,
			"count":2,
			"type":"VEC3"
		},
		{
			"bufferView":37,
			"componentType":5126,
			"count":2,
			"type":"VEC4"
		},
		{
			"bufferView":38,
			"componentType":5126,
			"count":24,
			"type":"VEC3"
		},
		{
			"bufferView":39,
			"componentType":5126,
			"count":2,
			"type":"VEC3"
		},
		{
			"bufferView":40,
			"componentType":5126,
			"count":2,
			"type":"VEC4"
		},
		{
			"bufferView":41,
			"componentType":5126,
			"count":2,
			"type":"VEC3"
		},
		{
			"bufferView":42,
			"componentType":5126,
			"count":2,
			"type":"VEC3"
		},
		{
			"bufferView":43,
			"componentType":5126,
			"count":2,
			"type":"VEC4"
		},
		{
			"bufferView":44,
			"componentType":5126,
			"count":2,
			"type":"VEC3"
		},
		{
			"bufferView":45,
			"componentType":5126,
			"count":2,
			"type":"VEC3"
		},
		{
			"bufferView":46,
			"componentType":5126,
			"count":2,
			"type":"VEC4"
		},
		{
			"bufferView":47,
			"componentType":5126,
			"count":2,
			"type":"VEC3"
		},
		{
			"bufferView":48,
			"componentType":5126,
			"count":2,
			"max":[
				0.75
			],
			"min":[
				0.041666666666666664
			],
			"type":"SCALAR"
		},
		{
			"bufferView":49,
			"componentType":5126,
			"count":18,
			"max":[
				0.75
			],
			"min":[
				0.041666666666666664
			],
			"type":"SCALAR"
		},
		{
			"bufferView":50,
			"componentType":5126,
			"count":18,
			"type":"VEC4"
		},
		{
			"bufferView":51,
			"componentType":5126,
			"count":2,
			"type":"VEC3"
		},
		{
			"bufferView":52,
			"componentType":5126,
			"count":2,
			"type":"VEC3"
		},
		{
			"bufferView":53,
			"componentType":5126,
			"count":18,
			"type":"VEC4"
		},
		{
			"bufferView":54,
			"componentType":5126,
			"count":2,
			"type":"VEC3"
		},
		{
			"bufferView":55,
			"componentType":5126,
			"count":2,
			"type":"VEC3"
		},
		{
			"bufferView":56,
			"componentType":5126,
			"count":18,
			"type":"VEC4"
		},
		{
			"bufferView":57,
			"componentType":5126,
			"count":2,
			"type":"VEC3"
		},
		{
			"bufferView":58,
			"componentType":5126,
			"count":18,
			"type":"VEC4"
		},
		{
			"bufferView":59,
			"componentType":5126,
			"count":2,
			"type":"VEC3"
		},
		{
			"bufferView":60,
			"componentType":5126,
			"count":2,
			"type":"VEC3"
		},
		{
			"bufferView":61,
			"componentType":5126,
			"count":18,
			"type":"VEC4"
		},
		{
			"bufferView":62,
			"componentType":5126,
			"count":2,
			"type":"VEC3"
		},
		{
			"bufferView":63,
			"componentType":5126,
			"count":2,
			"type":"VEC3"
		},
		{
			"bufferView":64,
			"componentType":5126,
			"count":18,
			"type":"VEC4"
		},
		{
			"bufferView":65,
			"componentType":5126,
			"count":2,
			"type":"VEC3"
		},
		{
			"bufferView":66,
			"componentType":5126,
			"count":2,
			"type":"VEC3"
		},
		{
			"bufferView":67,
			"componentType":5126,
			"count":18,
			"type":"VEC4"
		},
		{
			"bufferView":68,
			"componentType":5126,
			"count":2,
			"type":"VEC3"
		},
		{
			"bufferView":69,
			"componentType":5126,
			"count":2,
			"type":"VEC3"
		},
		{
			"bufferView":70,
			"componentType":5126,
			"count":18,
			"type":"VEC4"
		},
		{
			"bufferView":71,
			"componentType":5126,
			"count":2,
			"type":"VEC3"
		},
		{
			"bufferView":72,
			"componentType":5126,
			"count":2,
			"type":"VEC3"
		},
		{
			"bufferView":73,
			"componentType":5126,
			"count":18,
			"type":"VEC4"
		},
		{
			"bufferView":74,
			"componentType":5126,
			"count":2,
			"type":"VEC3"
		},
		{
			"bufferView":75,
			"componentType":5126,
			"count":2,
			"type":"VEC3"
		},
		{
			"bufferView":76,
			"componentType":5126,
			"count":2,
			"type":"VEC4"
		},
		{
			"bufferView":77,
			"componentType":5126,
			"count":18,
			"type":"VEC3"
		},
		{
			"bufferView":78,
			"componentType":5126,
			"count":2,
			"type":"VEC3"
		},
		{
			"bufferView":79,
			"componentType":5126,
			"count":2,
			"type":"VEC4"
		},
		{
			"bufferView":80,
			"componentType":5126,
			"count":18,
			"type":"VEC3"
		},
		{
			"bufferView":81,
			"componentType":5126,
			"count":2,
			"type":"VEC3"
		},
		{
			"bufferView":82,
			"componentType":5126,
			"count":2,
			"type":"VEC4"
		},
		{
			"bufferView":83,
			"componentType":5126,
			"count":18,
			"type":"VEC3"
		},
		{
			"bufferView":84,
			"componentType":5126,
			"count":2,
			"type":"VEC3"
		},
		{
			"bufferView":85,
			"componentType":5126,
			"count":2,
			"type":"VEC4"
		},
		{
			"bufferView":86,
			"componentType":5126,
			"count":2,
			"type":"VEC3"
		},
		{
			"bufferView":87,
			"componentType":5126,
			"count":2,
			"max":[
				0.5833333333333334
			],
			"min":[
				0.041666666666666664
			],
			"type":"SCALAR"
		},
		{
			"bufferView":88,
			"componentType":5126,
			"count":14,
			"max":[
				0.5833333333333334
			],
			"min":[
				0.041666666666666664
			],
			"type":"SCALAR"
		},
		{
			"bufferView":89,
			"componentType":5126,
			"count":14,
			"type":"VEC4"
		},
		{
			"bufferView":90,
			"componentType":5126,
			"count":14,
			"type":"VEC4"
		},
		{
			"bufferView":91,
			"componentType":5126,
			"count":14,
			"type":"VEC4"
		},
		{
			"bufferView":92,
			"componentType":5126,
			"count":14,
			"type":"VEC4"
		},
		{
			"bufferView":93,
			"componentType":5126,
			"count":14,
			"type":"VEC4"
		},
		{
			"bufferView":94,
			"componentType":5126,
			"count":14,
			"type":"VEC4"
		},
		{
			"bufferView":95,
			"componentType":5126,
			"count":14,
			"type":"VEC4"
		},
		{
			"bufferView":96,
			"componentType":5126,
			"count":14,
			"type":"VEC4"
		},
		{
			"bufferView":97,
			"componentType":5126,
			"count":14,
			"type":"VEC4"
		},
		{
			"bufferView":98,
			"componentType":5126,
			"count":14,
			"type":"VEC3"
		},
		{
			"bufferView":99,
			"componentType":5126,
			"count":2,
			"type":"VEC3"
		},
		{
			"bufferView":100,
			"componentType":5126,
			"count":2,
			"type":"VEC3"
		},
		{
			"bufferView":101,
			"componentType":5126,
			"count":2,
			"max":[
				1.3333333333333333
			],
			"min":[
				0.041666666666666664
			],
			"type":"SCALAR"
		},
		{
			"bufferView":102,
			"componentType":5126,
			"count":32,
			"max":[
				1.3333333333333333
			],
			"min":[
				0.041666666666666664
			],
			"type":"SCALAR"
		},
		{
			"bufferView":103,
			"componentType":5126,
			"count":32,
			"type":"VEC4"
		},
		{
			"bufferView":104,
			"componentType":5126,
			"count":2,
			"type":"VEC3"
		},
		{
			"bufferView":105,
			"componentType":5126,
			"count":2,
			"type":"VEC3"
		},
		{
			"bufferView":106,
			"componentType":5126,
			"count":32,
			"type":"VEC4"
		},
		{
			"bufferView":107,
			"componentType":5126,
			"count":2,
			"type":"VEC3"
		},
		{
			"bufferView":108,
			"componentType":5126,
			"count":2,
			"type":"VEC3"
		},
		{
			"bufferView":109,
			"componentType":5126,
			"count":32,
			"type":"VEC4"
		},
		{
			"bufferView":110,
			"componentType":5126,
			"count":2,
			"type":"VEC3"
		},
		{
			"bufferView":111,
			"componentType":5126,
			"count":2,
			"type":"VEC3"
		},
		{
			"bufferView":112,
			"componentType":5126,
			"count":32,
			"type":"VEC4"
		},
		{
			"bufferView":113,
			"componentType":5126,
			"count":2,
			"type":"VEC3"
		},
		{
			"bufferView":114,
			"componentType":5126,
			"count":2,
			"type":"VEC3"
		},
		{
			"bufferView":115,
			"componentType":5126,
			"count":32,
			"type":"VEC4"
		},
		{
			"bufferView":116,
			"componentType":5126,
			"count":2,
			"type":"VEC3"
		},
		{
			"bufferView":117,
			"componentType":5126,
			"count":2,
			"type":"VEC3"
		},
		{
			"bufferView":118,
			"componentType":5126,
			"count":32,
			"type":"VEC4"
		},
		{
			"bufferView":119,
			"componentType":5126,
			"count":2,
			"type":"VEC3"
		},
		{
			"bufferView":120,
			"componentType":5126,
			"count":2,
			"type":"VEC3"
		},
		{
			"bufferView":121,
			"componentType":5126,
			"count":32,
			"type":"VEC4"
		},
		{
			"bufferView":122,
			"componentType":5126,
			"count":2,
			"type":"VEC3"
		},
		{
			"bufferView":123,
			"componentType":5126,
			"count":2,
			"type":"VEC3"
		},
		{
			"bufferView":124,
			"componentType":5126,
			"count":32,
			"type":"VEC4"
		},
		{
			"bufferView":125,
			"componentType":5126,
			"count":2,
			"type":"VEC3"
		},
		{
			"bufferView":126,
			"componentType":5126,
			"count":2,
			"type":"VEC3"
		},
		{
			"bufferView":127,
			"componentType":5126,
			"count":32,
			"type":"VEC4"
		},
		{
			"bufferView":128,
			"componentType":5126,
			"count":2,
			"type":"VEC3"
		},
		{
			"bufferView":129,
			"componentType":5126,
			"count":2,
			"type":"VEC3"
		},
		{
			"bufferView":130,
			"componentType":5126,
			"count":2,
			"type":"VEC4"
		},
		{
			"bufferView":131,
			"componentType":5126,
			"count":32,
			"type":"VEC3"
		},
		{
			"bufferView":132,
			"componentType":5126,
			"count":2,
			"type":"VEC3"
		},
		{
			"bufferView":133,
			"componentType":5126,
			"count":2,
			"type":"VEC4"
		},
		{
			"bufferView":134,
			"componentType":5126,
			"count":32,
			"type":"VEC3"
		},
		{
			"bufferView":135,
			"componentType":5126,
			"count":2,
			"type":"VEC3"
		},
		{
			"bufferView":136,
			"componentType":5126,
			"count":2,
			"type":"VEC4"
		},
		{
			"bufferView":137,
			"componentType":5126,
			"count":2,
			"type":"VEC3"
		},
		{
			"bufferView":138,
			"componentType":5126,
			"count":2,
			"type":"VEC3"
		},
		{
			"bufferView":139,
			"componentType":5126,
			"count":2,
			"type":"VEC4"
		},
		{
			"bufferView":140,
			"componentType":5126,
			"count":2,
			"type":"VEC3"
		},
		{
			"bufferView":141,
			"componentType":5126,
			"count":2,
			"max":[
				2.4166666666666665
			],
			"min":[
				0.041666666666666664
			],
			"type":"SCALAR"
		},
		{
			"bufferView":142,
			"componentType":5126,
			"count":58,
			"max":[
				2.4166666666666665
			],
			"min":[
				0.041666666666666664
			],
			"type":"SCALAR"
		},
		{
			"bufferView":143,
			"componentType":5126,
			"count":58,
			"type":"VEC4"
		},
		{
			"bufferView":144,
			"componentType":5126,
			"count":2,
			"type":"VEC3"
		},
		{
			"bufferView":145,
			"componentType":5126,
			"count":2,
			"type":"VEC3"
		},
		{
			"bufferView":146,
			"componentType":5126,
			"count":58,
			"type":"VEC4"
		},
		{
			"bufferView":147,
			"componentType":5126,
			"count":2,
			"type":"VEC3"
		},
		{
			"bufferView":148,
			"componentType":5126,
			"count":2,
			"type":"VEC3"
		},
		{
			"bufferView":149,
			"componentType":5126,
			"count":58,
			"type":"VEC4"
		},
		{
			"bufferView":150,
			"componentType":5126,
			"count":2,
			"type":"VEC3"
		},
		{
			"bufferView":151,
			"componentType":5126,
			"count":2,
			"type":"VEC3"
		},
		{
			"bufferView":152,
			"componentType":5126,
			"count":58,
			"type":"VEC4"
		},
		{
			"bufferView":153,
			"componentType":5126,
			"count":2,
			"type":"VEC3"
		},
		{
			"bufferView":154,
			"componentType":5126,
			"count":2,
			"type":"VEC3"
		},
		{
			"bufferView":155,
			"componentType":5126,
			"count":58,
			"type":"VEC4"
		},
		{
			"bufferView":156,
			"componentType":5126,
			"count":2,
			"type":"VEC3"
		},
		{
			"bufferView":157,
			"componentType":5126,
			"count":2,
			"type":"VEC3"
		},
		{
			"bufferView":158,
			"componentType":5126,
			"count":58,
			"type":"VEC4"
		},
		{
			"bufferView":159,
			"componentType":5126,
			"count":2,
			"type":"VEC3"
		},
		{
			"bufferView":160,
			"componentType":5126,
			"count":2,
			"type":"VEC3"
		},
		{
			"bufferView":161,
			"componentType":5126,
			"count":58,
			"type":"VEC4"
		},
		{
			"bufferView":162,
			"componentType":5126,
			"count":2,
			"type":"VEC3"
		},
		{
			"bufferView":163,
			"componentType":5126,
			"count":2,
			"type":"VEC3"
		},
		{
			"bufferView":164,
			"componentType":5126,
			"count":58,
			"type":"VEC4"
		},
		{
			"bufferView":165,
			"componentType":5126,
			"count":2,
			"type":"VEC3"
		},
		{
			"bufferView":166,
			"componentType":5126,
			"count":2,
			"type":"VEC3"
		},
		{
			"bufferView":167,
			"componentType":5126,
			"count":58,
			"type":"VEC4"
		},
		{
			"bufferView":168,
			"componentType":5126,
			"count":2,
			"type":"VEC3"
		},
		{
			"bufferView":169,
			"componentType":5126,
			"count":2,
			"type":"VEC3"
		},
		{
			"bufferView":170,
			"componentType":5126,
			"count":2,
			"type":"VEC4"
		},
		{
			"bufferView":171,
			"componentType":5126,
			"count":58,
			"type":"VEC3"
		},
		{
			"bufferView":172,
			"componentType":5126,
			"count":2,
			"type":"VEC3"
		},
		{
			"bufferView":173,
			"componentType":5126,
			"count":2,
			"type":"VEC4"
		},
		{
			"bufferView":174,
			"componentType":5126,
			"count":58,
			"type":"VEC3"
		},
		{
			"bufferView":175,
			"componentType":5126,
			"count":2,
			"type":"VEC3"
		},
		{
			"bufferView":176,
			"componentType":5126,
			"count":2,
			"type":"VEC4"
		},
		{
			"bufferView":177,
			"componentType":5126,
			"count":2,
			"type":"VEC3"
		},
		{
			"bufferView":178,
			"componentType":5126,
			"count":2,
			"type":"VEC3"
		},
		{
			"bufferView":179,
			"componentType":5126,
			"count":2,
			"type":"VEC3"
		},
		{
			"bufferView":180,
			"componentType":5126,
			"count":2,
			"max":[
				2.5
			],
			"min":[
				0.041666666666666664
			],
			"type":"SCALAR"
		},
		{
			"bufferView":181,
			"componentType":5126,
			"count":60,
			"max":[
				2.5
			],
			"min":[
				0.041666666666666664
			],
			"type":"SCALAR"
		},
		{
			"bufferView":182,
			"componentType":5126,
			"count":60,
			"type":"VEC4"
		},
		{
			"bufferView":183,
			"componentType":5126,
			"count":60,
			"type":"VEC3"
		},
		{
			"bufferView":184,
			"componentType":5126,
			"count":2,
			"type":"VEC3"
		},
		{
			"bufferView":185,
			"componentType":5126,
			"count":60,
			"type":"VEC4"
		},
		{
			"bufferView":186,
			"componentType":5126,
			"count":60,
			"type":"VEC3"
		},
		{
			"bufferView":187,
			"componentType":5126,
			"count":2,
			"type":"VEC3"
		},
		{
			"bufferView":188,
			"componentType":5126,
			"count":60,
			"type":"VEC4"
		},
		{
			"bufferView":189,
			"componentType":5126,
			"count":60,
			"type":"VEC3"
		},
		{
			"bufferView":190,
			"componentType":5126,
			"count":2,
			"type":"VEC3"
		},
		{
			"bufferView":191,
			"componentType":5126,
			"count":60,
			"type":"VEC4"
		},
		{
			"bufferView":192,
			"componentType":5126,
			"count":60,
			"type":"VEC3"
		},
		{
			"bufferView":193,
			"componentType":5126,
			"count":2,
			"type":"VEC3"
		},
		{
			"bufferView":194,
			"componentType":5126,
			"count":60,
			"type":"VEC4"
		},
		{
			"bufferView":195,
			"componentType":5126,
			"count":60,
			"type":"VEC3"
		},
		{
			"bufferView":196,
			"componentType":5126,
			"count":2,
			"type":"VEC3"
		},
		{
			"bufferView":197,
			"componentType":5126,
			"count":60,
			"type":"VEC4"
		},
		{
			"bufferView":198,
			"componentType":5126,
			"count":60,
			"type":"VEC3"
		},
		{
			"bufferView":199,
			"componentType":5126,
			"count":2,
			"type":"VEC3"
		},
		{
			"bufferView":200,
			"componentType":5126,
			"count":60,
			"type":"VEC4"
		},
		{
			"bufferView":201,
			"componentType":5126,
			"count":60,
			"type":"VEC3"
		},
		{
			"bufferView":202,
			"componentType":5126,
			"count":2,
			"type":"VEC3"
		},
		{
			"bufferView":203,
			"componentType":5126,
			"count":60,
			"type":"VEC4"
		},
		{
			"bufferView":204,
			"componentType":5126,
			"count":60,
			"type":"VEC3"
		},
		{
			"bufferView":205,
			"componentType":5126,
			"count":2,
			"type":"VEC3"
		},
		{
			"bufferView":206,
			"componentType":5126,
			"count":60,
			"type":"VEC4"
		},
		{
			"bufferView":207,
			"componentType":5126,
			"count":60,
			"type":"VEC3"
		},
		{
			"bufferView":208,
			"componentType":5126,
			"count":2,
			"type":"VEC3"
		},
		{
			"bufferView":209,
			"componentType":5126,
			"count":2,
			"type":"VEC4"
		},
		{
			"bufferView":210,
			"componentType":5126,
			"count":60,
			"type":"VEC3"
		},
		{
			"bufferView":211,
			"componentType":5126,
			"count":2,
			"type":"VEC3"
		},
		{
			"bufferView":212,
			"componentType":5126,
			"count":2,
			"type":"VEC4"
		},
		{
			"bufferView":213,
			"componentType":5126,
			"count":60,
			"type":"VEC3"
		},
		{
			"bufferView":214,
			"componentType":5126,
			"count":2,
			"type":"VEC3"
		},
		{
			"bufferView":215,
			"componentType":5126,
			"count":2,
			"type":"VEC4"
		},
		{
			"bufferView":216,
			"componentType":5126,
			"count":2,
			"type":"VEC3"
		},
		{
			"bufferView":217,
			"componentType":5126,
			"count":2,
			"type":"VEC3"
		},
		{
			"bufferView":218,
			"componentType":5126,
			"count":60,
			"type":"VEC3"
		}
	],
	"bufferViews":[
		{
			"buffer":0,
			"byteLength":7176,
			"byteOffset":0,
			"target":34962
		},
		{
			"buffer":0,
			"byteLength":7176,
			"byteOffset":7176,
			"target":34962
		},
		{
			"buffer":0,
			"byteLength":4784,
			"byteOffset":14352,
			"target":34962
		},
		{
			"buffer":0,
			"byteLength":2392,
			"byteOffset":19136,
			"target":34962
		},
		{
			"buffer":0,
			"byteLength":9568,
			"byteOffset":21528,
			"target":34962
		},
		{
			"buffer":0,
			"byteLength":1932,
			"byteOffset":31096,
			"target":34963
		},
		{
			"buffer":0,
			"byteLength":832,
			"byteOffset":33028
		},
		{
			"buffer":0,
			"byteLength":8,
			"byteOffset":33860
		},
		{
			"buffer":0,
			"byteLength":24,
			"byteOffset":33868
		},
		{
			"buffer":0,
			"byteLength":96,
			"byteOffset":33892
		},
		{
			"buffer":0,
			"byteLength":384,
			"byteOffset":33988
		},
		{
			"buffer":0,
			"byteLength":24,
			"byteOffset":34372
		},
		{
			"buffer":0,
			"byteLength":24,
			"byteOffset":34396
		},
		{
			"buffer":0,
			"byteLength":384,
			"byteOffset":34420
		},
		{
			"buffer":0,
			"byteLength":24,
			"byteOffset":34804
		},
		{
			"buffer":0,
			"byteLength":24,
			"byteOffset":34828
		},
		{
			"buffer":0,
			"byteLength":384,
			"byteOffset":34852
		},
		{
			"buffer":0,
			"byteLength":24,
			"byteOffset":35236
		},
		{
			"buffer":0,
			"byteLength":24,
			"byteOffset":35260
		},
		{
			"buffer":0,
			"byteLength":384,
			"byteOffset":35284
		},
		{
			"buffer":0,
			"byteLength":24,
			"byteOffset":35668
		},
		{
			"buffer":0,
			"byteLength":24,
			"byteOffset":35692
		},
		{
			"buffer":0,
			"byteLength":384,
			"byteOffset":35716
		},
		{
			"buffer":0,
			"byteLength":24,
			"byteOffset":36100
		},
		{
			"buffer":0,
			"byteLength":24,
			"byteOffset":36124
		},
		{
			"buffer":0,
			"byteLength":384,
			"byteOffset":36148
		},
		{
			"buffer":0,
			"byteLength":24,
			"byteOffset":36532
		},
		{
			"buffer":0,
			"byteLength":24,
			"byteOffset":36556
		},
		{
			"buffer":0,
			"byteLength":384,
			"byteOffset":36580
		},
		{
			"buffer":0,
			"byteLength":24,
			"byteOffset":36964
		},
		{
			"buffer":0,
			"byteLength":24,
			"byteOffset":36988
		},
		{
			"buffer":0,
			"byteLength":384,
			"byteOffset":37012
		},
		{
			"buffer":0,
			"byteLength":24,
			"byteOffset":37396
		},
		{
			"buffer":0,
			"byteLength":24,
			"byteOffset":37420
		},
		{
			"buffer":0,
			"byteLength":384,
			"byteOffset":37444
		},
		{
			"buffer":0,
			"byteLength":24,
			"byteOffset":37828
		},
		{
			"buffer":0,
			"byteLength":24,
			"byteOffset":37852
		},
		{
			"buffer":0,
			"byteLength":32,
			"byteOffset":37876
		},
		{
			"buffer":0,
			"byteLength":288,
			"byteOffset":37908
		},
		{
			"buffer":0,
			"byteLength":24,
			"byteOffset":38196
		},
		{
			"buffer":0,
			"byteLength":32,
			"byteOffset":38220
		},
		{
			"buffer":0,
			"byteLength":24,
			"byteOffset":38252
		},
		{
			"buffer":0,
			"byteLength":24,
			"byteOffset":38276
		},
		{
			"buffer":0,
			"byteLength":32,
			"byteOffset":38300
		},
		{
			"buffer":0,
			"byteLength":24,
			"byteOffset":38332
		},
		{
			"buffer":0,
			"byteLength":24,
			"byteOffset":38356
		},
		{
			"buffer":0,
			"byteLength":32,
			"byteOffset":38380
		},
		{
			"buffer":0,
			"byteLength":24,
			"byteOffset":38412
		},
		{
			"buffer":0,
			"byteLength":8,
			"byteOffset":38436
		},
		{
			"buffer":0,
			"byteLength":72,
			"byteOffset":38444
		},
		{
			"buffer":0,
			"byteLength":288,
			"byteOffset":38516
		},
		{
			"buffer":0,
			"byteLength":24,
			"byteOffset":38804
		},
		{
			"buffer":0,
			"byteLength":24,
			"byteOffset":38828
		},
		{
			"buffer":0,
			"byteLength":288,
			"byteOffset":38852
		},
		{
			"buffer":0,
			"byteLength":24,
			"byteOffset":39140
		},
		{
			"buffer":0,
			"byteLength":24,
			"byteOffset":39164
		},
		{
			"buffer":0,
			"byteLength":288,
			"byteOffset":39188
		},
		{
			"buffer":0,
			"byteLength":24,
			"byteOffset":39476
		},
		{
			"buffer":0,
			"byteLength":288,
			"byteOffset":39500
		},
		{
			"buffer":0,
			"byteLength":24,
			"byteOffset":39788
		},
		{
			"buffer":0,
			"byteLength":24,
			"byteOffset":39812
		},
		{
			"buffer":0,
			"byteLength":288,
			"byteOffset":39836
		},
		{
			"buffer":0,
			"byteLength":24,
			"byteOffset":40124
		},
		{
			"buffer":0,
			"byteLength":24,
			"byteOffset":40148
		},
		{
			"buffer":0,
			"byteLength":288,
			"byteOffset":40172
		},
		{
			"buffer":0,
			"byteLength":24,
			"byteOffset":40460
		},
		{
			"buffer":0,
			"byteLength":24,
			"byteOffset":40484
		},
		{
			"buffer":0,
			"byteLength":288,
			"byteOffset":40508
		},
		{
			"buffer":0,
			"byteLength":24,
			"byteOffset":40796
		},
		{
			"buffer":0,
			"byteLength":24,
			"byteOffset":40820
		},
		{
			"buffer":0,
			"byteLength":288,
			"byteOffset":40844
		},
		{
			"buffer":0,
			"byteLength":24,
			"byteOffset":41132
		},
		{
			"buffer":0,
			"byteLength":24,
			"byteOffset":41156
		},
		{
			"buffer":0,
			"byteLength":288,
			"byteOffset":41180
		},
		{
			"buffer":0,
			"byteLength":24,
			"byteOffset":41468
		},
		{
			"buffer":0,
			"byteLength":24,
			"byteOffset":41492
		},
		{
			"buffer":0,
			"byteLength":32,
			"byteOffset":41516
		},
		{
			"buffer":0,
			"byteLength":216,
			"byteOffset":41548
		},
		{
			"buffer":0,
			"byteLength":24,
			"byteOffset":41764
		},
		{
			"buffer":0,
			"byteLength":32,
			"byteOffset":41788
		},
		{
			"buffer":0,
			"byteLength":216,
			"byteOffset":41820
		},
		{
			"buffer":0,
			"byteLength":24,
			"byteOffset":42036
		},
		{
			"buffer":0,
			"byteLength":32,
			"byteOffset":42060
		},
		{
			"buffer":0,
			"byteLength":216,
			"byteOffset":42092
		},
		{
			"buffer":0,
			"byteLength":24,
			"byteOffset":42308
		},
		{
			"buffer":0,
			"byteLength":32,
			"byteOffset":42332
		},
		{
			"buffer":0,
			"byteLength":24,
			"byteOffset":42364
		},
		{
			"buffer":0,
			"byteLength":8,
			"byteOffset":42388
		},
		{
			"buffer":0,
			"byteLength":56,
			"byteOffset":42396
		},
		{
			"buffer":0,
			"byteLength":224,
			"byteOffset":42452
		},
		{
			"buffer":0,
			"byteLength":224,
			"byteOffset":42676
		},
		{
			"buffer":0,
			"byteLength":224,
			"byteOffset":42900
		},
		{
			"buffer":0,
			"byteLength":224,
			"byteOffset":43124
		},
		{
			"buffer":0,
			"byteLength":224,
			"byteOffset":43348
		},
		{
			"buffer":0,
			"byteLength":224,
			"byteOffset":43572
		},
		{
			"buffer":0,
			"byteLength":224,
			"byteOffset":43796
		},
		{
			"buffer":0,
			"byteLength":224,
			"byteOffset":44020
		},
		{
			"buffer":0,
			"byteLength":224,
			"byteOffset":44244
		},
		{
			"buffer":0,
			"byteLength":168,
			"byteOffset":44468
		},
		{
			"buffer":0,
			"byteLength":24,
			"byteOffset":44636
		},
		{
			"buffer":0,
			"byteLength":24,
			"byteOffset":44660
		},
		{
			"buffer":0,
			"byteLength":8,
			"byteOffset":44684
		},
		{
			"buffer":0,
			"byteLength":128,
			"byteOffset":44692
		},
		{
			"buffer":0,
			"byteLength":512,
			"byteOffset":44820
		},
		{
			"buffer":0,
			"byteLength":24,
			"byteOffset":45332
		},
		{
			"buffer":0,
			"byteLength":24,
			"byteOffset":45356
		},
		{
			"buffer":0,
			"byteLength":512,
			"byteOffset":45380
		},
		{
			"buffer":0,
			"byteLength":24,
			"byteOffset":45892
		},
		{
			"buffer":0,
			"byteLength":24,
			"byteOffset":45916
		},
		{
			"buffer":0,
			"byteLength":512,
			"byteOffset":45940
		},
		{
			"buffer":0,
			"byteLength":24,
			"byteOffset":46452
		},
		{
			"buffer":0,
			"byteLength":24,
			"byteOffset":46476
		},
		{
			"buffer":0,
			"byteLength":512,
			"byteOffset":46500
		},
		{
			"buffer":0,
			"byteLength":24,
			"byteOffset":47012
		},
		{
			"buffer":0,
			"byteLength":24,
			"byteOffset":47036
		},
		{
			"buffer":0,
			"byteLength":512,
			"byteOffset":47060
		},
		{
			"buffer":0,
			"byteLength":24,
			"byteOffset":47572
		},
		{
			"buffer":0,
			"byteLength":24,
			"byteOffset":47596
		},
		{
			"buffer":0,
			"byteLength":512,
			"byteOffset":47620
		},
		{
			"buffer":0,
			"byteLength":24,
			"byteOffset":48132
		},
		{
			"buffer":0,
			"byteLength":24,
			"byteOffset":48156
		},
		{
			"buffer":0,
			"byteLength":512,
			"byteOffset":48180
		},
		{
			"buffer":0,
			"byteLength":24,
			"byteOffset":48692
		},
		{
			"buffer":0,
			"byteLength":24,
			"byteOffset":48716
		},
		{
			"buffer":0,
			"byteLength":512,
			"byteOffset":48740
		},
		{
			"buffer":0,
			"byteLength":24,
			"byteOffset":49252
		},
		{
			"buffer":0,
			"byteLength":24,
			"byteOffset":49276
		},
		{
			"buffer":0,
			"byteLength":512,
			"byteOffset":49300
		},
		{
			"buffer":0,
			"byteLength":24,
			"byteOffset":49812
		},
		{
			"buffer":0,
			"byteLength":24,
			"byteOffset":49836
		},
		{
			"buffer":0,
			"byteLength":32,
			"byteOffset":49860
		},
		{
			"buffer":0,
			"byteLength":384,
			"byteOffset":49892
		},
		{
			"buffer":0,
			"byteLength":24,
			"byteOffset":50276
		},
		{
			"buffer":0,
			"byteLength":32,
			"byteOffset":50300
		},
		{
			"buffer":0,
			"byteLength":384,
			"byteOffset":50332
		},
		{
			"buffer":0,
			"byteLength":24,
			"byteOffset":50716
		},
		{
			"buffer":0,
			"byteLength":32,
			"byteOffset":50740
		},
		{
			"buffer":0,
			"byteLength":24,
			"byteOffset":50772
		},
		{
			"buffer":0,
			"byteLength":24,
			"byteOffset":50796
		},
		{
			"buffer":0,
			"byteLength":32,
			"byteOffset":50820
		},
		{
			"buffer":0,
			"byteLength":24,
			"byteOffset":50852
		},
		{
			"buffer":0,
			"byteLength":8,
			"byteOffset":50876
		},
		{
			"buffer":0,
			"byteLength":232,
			"byteOffset":50884
		},
		{
			"buffer":0,
			"byteLength":928,
			"byteOffset":51116
		},
		{
			"buffer":0,
			"byteLength":24,
			"byteOffset":52044
		},
		{
			"buffer":0,
			"byteLength":24,
			"byteOffset":52068
		},
		{
			"buffer":0,
			"byteLength":928,
			"byteOffset":52092
		},
		{
			"buffer":0,
			"byteLength":24,
			"byteOffset":53020
		},
		{
			"buffer":0,
			"byteLength":24,
			"byteOffset":53044
		},
		{
			"buffer":0,
			"byteLength":928,
			"byteOffset":53068
		},
		{
			"buffer":0,
			"byteLength":24,
			"byteOffset":53996
		},
		{
			"buffer":0,
			"byteLength":24,
			"byteOffset":54020
		},
		{
			"buffer":0,
			"byteLength":928,
			"byteOffset":54044
		},
		{
			"buffer":0,
			"byteLength":24,
			"byteOffset":54972
		},
		{
			"buffer":0,
			"byteLength":24,
			"byteOffset":54996
		},
		{
			"buffer":0,
			"byteLength":928,
			"byteOffset":55020
		},
		{
			"buffer":0,
			"byteLength":24,
			"byteOffset":55948
		},
		{
			"buffer":0,
			"byteLength":24,
			"byteOffset":55972
		},
		{
			"buffer":0,
			"byteLength":928,
			"byteOffset":55996
		},
		{
			"buffer":0,
			"byteLength":24,
			"byteOffset":56924
		},
		{
			"buffer":0,
			"byteLength":24,
			"byteOffset":56948
		},
		{
			"buffer":0,
			"byteLength":928,
			"byteOffset":56972
		},
		{
			"buffer":0,
			"byteLength":24,
			"byteOffset":57900
		},
		{
			"buffer":0,
			"byteLength":24,
			"byteOffset":57924
		},
		{
			"buffer":0,
			"byteLength":928,
			"byteOffset":57948
		},
		{
			"buffer":0,
			"byteLength":24,
			"byteOffset":58876
		},
		{
			"buffer":0,
			"byteLength":24,
			"byteOffset":58900
		},
		{
			"buffer":0,
			"byteLength":928,
			"byteOffset":58924
		},
		{
			"buffer":0,
			"byteLength":24,
			"byteOffset":59852
		},
		{
			"buffer":0,
			"byteLength":24,
			"byteOffset":59876
		},
		{
			"buffer":0,
			"byteLength":32,
			"byteOffset":59900
		},
		{
			"buffer":0,
			"byteLength":696,
			"byteOffset":59932
		},
		{
			"buffer":0,
			"byteLength":24,
			"byteOffset":60628
		},
		{
			"buffer":0,
			"byteLength":32,
			"byteOffset":60652
		},
		{
			"buffer":0,
			"byteLength":696,
			"byteOffset":60684
		},
		{
			"buffer":0,
			"byteLength":24,
			"byteOffset":61380
		},
		{
			"buffer":0,
			"byteLength":32,
			"byteOffset":61404
		},
		{
			"buffer":0,
			"byteLength":24,
			"byteOffset":61436
		},
		{
			"buffer":0,
			"byteLength":24,
			"byteOffset":61460
		},
		{
			"buffer":0,
			"byteLength":24,
			"byteOffset":61484
		},
		{
			"buffer":0,
			"byteLength":8,
			"byteOffset":61508
		},
		{
			"buffer":0,
			"byteLength":240,
			"byteOffset":61516
		},
		{
			"buffer":0,
			"byteLength":960,
			"byteOffset":61756
		},
		{
			"buffer":0,
			"byteLength":720,
			"byteOffset":62716
		},
		{
			"buffer":0,
			"byteLength":24,
			"byteOffset":63436
		},
		{
			"buffer":0,
			"byteLength":960,
			"byteOffset":63460
		},
		{
			"buffer":0,
			"byteLength":720,
			"byteOffset":64420
		},
		{
			"buffer":0,
			"byteLength":24,
			"byteOffset":65140
		},
		{
			"buffer":0,
			"byteLength":960,
			"byteOffset":65164
		},
		{
			"buffer":0,
			"byteLength":720,
			"byteOffset":66124
		},
		{
			"buffer":0,
			"byteLength":24,
			"byteOffset":66844
		},
		{
			"buffer":0,
			"byteLength":960,
			"byteOffset":66868
		},
		{
			"buffer":0,
			"byteLength":720,
			"byteOffset":67828
		},
		{
			"buffer":0,
			"byteLength":24,
			"byteOffset":68548
		},
		{
			"buffer":0,
			"byteLength":960,
			"byteOffset":68572
		},
		{
			"buffer":0,
			"byteLength":720,
			"byteOffset":69532
		},
		{
			"buffer":0,
			"byteLength":24,
			"byteOffset":70252
		},
		{
			"buffer":0,
			"byteLength":960,
			"byteOffset":70276
		},
		{
			"buffer":0,
			"byteLength":720,
			"byteOffset":71236
		},
		{
			"buffer":0,
			"byteLength":24,
			"byteOffset":71956
		},
		{
			"buffer":0,
			"byteLength":960,
			"byteOffset":71980
		},
		{
			"buffer":0,
			"byteLength":720,
			"byteOffset":72940
		},
		{
			"buffer":0,
			"byteLength":24,
			"byteOffset":73660
		},
		{
			"buffer":0,
			"byteLength":960,
			"byteOffset":73684
		},
		{
			"buffer":0,
			"byteLength":720,
			"byteOffset":74644
		},
		{
			"buffer":0,
			"byteLength":24,
			"byteOffset":75364
		},
		{
			"buffer":0,
			"byteLength":960,
			"byteOffset":75388
		},
		{
			"buffer":0,
			"byteLength":720,
			"byteOffset":76348
		},
		{
			"buffer":0,
			"byteLength":24,
			"byteOffset":77068
		},
		{
			"buffer":0,
			"byteLength":32,
			"byteOffset":77092
		},
		{
			"buffer":0,
			"byteLength":720,
			"byteOffset":77124
		},
		{
			"buffer":0,
			"byteLength":24,
			"byteOffset":77844
		},
		{
			"buffer":0,
			"byteLength":32,
			"byteOffset":77868
		},
		{
			"buffer":0,
			"byteLength":720,
			"byteOffset":77900
		},
		{
			"buffer":0,
			"byteLength":24,
			"byteOffset":78620
		},
		{
			"buffer":0,
			"byteLength":32,
			"byteOffset":78644
		},
		{
			"buffer":0,
			"byteLength":24,
			"byteOffset":78676
		},
		{
			"buffer":0,
			"byteLength":24,
			"byteOffset":78700
		},
		{
			"buffer":0,
			"byteLength":720,
			"byteOffset":78724
		}
	],
	"samplers":[
		{
			"magFilter":9728,
			"minFilter":9984
		}
	],
	"buffers":[
		{
			"byteLength":79444,
			"uri":"toxo.bin"
		}
	]
}
