{
	"asset":{
		"generator":"Khronos glTF Blender I/O v5.1.19",
		"version":"2.0"
	},
	"extensionsUsed":[
		"KHR_materials_emissive_strength"
	],
	"scene":0,
	"scenes":[
		{
			"name":"Scene",
			"nodes":[
				28
			]
		}
	],
	"nodes":[
		{
			"name":"FacingSocket",
			"rotation":[
				0.7071068286895752,
				0,
				0,
				0.7071068286895752
			],
			"translation":[
				0,
				0.5400000214576721,
				-2.380000114440918
			]
		},
		{
			"name":"segment_01",
			"translation":[
				0,
				0.471388041973114,
				-0.9068679809570312
			]
		},
		{
			"name":"segment_02",
			"translation":[
				0,
				0.5840780138969421,
				-1.862297773361206
			]
		},
		{
			"name":"segment_03",
			"translation":[
				0,
				0.5193290114402771,
				-2.706088066101074
			]
		},
		{
			"name":"segment_04",
			"translation":[
				0,
				0.1698945164680481,
				-3.3248801231384277
			]
		},
		{
			"name":"segment_05",
			"translation":[
				0,
				-0.17715245485305786,
				-3.6676297187805176
			]
		},
		{
			"name":"mouth",
			"translation":[
				0,
				-0.33549147844314575,
				-3.454139471054077
			]
		},
		{
			"children":[
				1,
				2,
				3,
				4,
				5,
				6
			],
			"name":"root",
			"translation":[
				0,
				0.5352297425270081,
				1.7603037357330322
			]
		},
		{
			"mesh":0,
			"name":"Ferrule_Anchor",
			"skin":0
		},
		{
			"mesh":1,
			"name":"Ferrule_CaptureVoid",
			"skin":0
		},
		{
			"mesh":2,
			"name":"Ferrule_ChelationShaft_A",
			"skin":0
		},
		{
			"mesh":3,
			"name":"Ferrule_ChelationShaft_B",
			"skin":0
		},
		{
			"mesh":4,
			"name":"Ferrule_ChelationShaft_C",
			"skin":0
		},
		{
			"mesh":5,
			"name":"Ferrule_ChelationTip_A",
			"skin":0
		},
		{
			"mesh":6,
			"name":"Ferrule_ChelationTip_B",
			"skin":0
		},
		{
			"mesh":7,
			"name":"Ferrule_ChelationTip_C",
			"skin":0
		},
		{
			"mesh":8,
			"name":"Ferrule_MouthCore",
			"skin":0
		},
		{
			"mesh":9,
			"name":"Ferrule_MouthNeck",
			"skin":0
		},
		{
			"mesh":10,
			"name":"Ferrule_Segment_01",
			"skin":0
		},
		{
			"mesh":11,
			"name":"Ferrule_Segment_02",
			"skin":0
		},
		{
			"mesh":12,
			"name":"Ferrule_Segment_03",
			"skin":0
		},
		{
			"mesh":13,
			"name":"Ferrule_Segment_04",
			"skin":0
		},
		{
			"mesh":14,
			"name":"Ferrule_Segment_05",
			"skin":0
		},
		{
			"mesh":15,
			"name":"Ferrule_SignalSeam_L",
			"skin":0
		},
		{
			"mesh":16,
			"name":"Ferrule_SignalSeam_R",
			"skin":0
		},
		{
			"children":[
				8,
				9,
				10,
				11,
				12,
				13,
				14,
				15,
				16,
				17,
				18,
				19,
				20,
				21,
				22,
				23,
				24,
				7
			],
			"name":"FerruleRig"
		},
		{
			"name":"LatchSocket",
			"translation":[
				0,
				0.5199999809265137,
				-2.240000009536743
			]
		},
		{
			"children":[
				0,
				25,
				26
			],
			"name":"FerruleFacingBasis",
			"rotation":[
				0,
				-1,
				0,
				4.371138828673793e-08
			]
		},
		{
			"children":[
				27
			],
			"name":"FerruleRoot"
		}
	],
	"animations":[
		{
			"channels":[
				{
					"sampler":0,
					"target":{
						"node":7,
						"path":"translation"
					}
				},
				{
					"sampler":1,
					"target":{
						"node":7,
						"path":"rotation"
					}
				},
				{
					"sampler":2,
					"target":{
						"node":7,
						"path":"scale"
					}
				},
				{
					"sampler":3,
					"target":{
						"node":1,
						"path":"translation"
					}
				},
				{
					"sampler":4,
					"target":{
						"node":1,
						"path":"rotation"
					}
				},
				{
					"sampler":5,
					"target":{
						"node":1,
						"path":"scale"
					}
				},
				{
					"sampler":6,
					"target":{
						"node":2,
						"path":"translation"
					}
				},
				{
					"sampler":7,
					"target":{
						"node":2,
						"path":"rotation"
					}
				},
				{
					"sampler":8,
					"target":{
						"node":2,
						"path":"scale"
					}
				},
				{
					"sampler":9,
					"target":{
						"node":3,
						"path":"translation"
					}
				},
				{
					"sampler":10,
					"target":{
						"node":3,
						"path":"rotation"
					}
				},
				{
					"sampler":11,
					"target":{
						"node":3,
						"path":"scale"
					}
				},
				{
					"sampler":12,
					"target":{
						"node":4,
						"path":"translation"
					}
				},
				{
					"sampler":13,
					"target":{
						"node":4,
						"path":"rotation"
					}
				},
				{
					"sampler":14,
					"target":{
						"node":4,
						"path":"scale"
					}
				},
				{
					"sampler":15,
					"target":{
						"node":5,
						"path":"translation"
					}
				},
				{
					"sampler":16,
					"target":{
						"node":5,
						"path":"rotation"
					}
				},
				{
					"sampler":17,
					"target":{
						"node":5,
						"path":"scale"
					}
				},
				{
					"sampler":18,
					"target":{
						"node":6,
						"path":"translation"
					}
				},
				{
					"sampler":19,
					"target":{
						"node":6,
						"path":"rotation"
					}
				},
				{
					"sampler":20,
					"target":{
						"node":6,
						"path":"scale"
					}
				}
			],
			"name":"Ferrule_Compress",
			"samplers":[
				{
					"input":99,
					"interpolation":"LINEAR",
					"output":100
				},
				{
					"input":101,
					"interpolation":"STEP",
					"output":102
				},
				{
					"input":101,
					"interpolation":"STEP",
					"output":103
				},
				{
					"input":99,
					"interpolation":"LINEAR",
					"output":104
				},
				{
					"input":99,
					"interpolation":"LINEAR",
					"output":105
				},
				{
					"input":101,
					"interpolation":"STEP",
					"output":103
				},
				{
					"input":99,
					"interpolation":"LINEAR",
					"output":106
				},
				{
					"input":99,
					"interpolation":"LINEAR",
					"output":107
				},
				{
					"input":101,
					"interpolation":"STEP",
					"output":108
				},
				{
					"input":99,
					"interpolation":"LINEAR",
					"output":109
				},
				{
					"input":99,
					"interpolation":"LINEAR",
					"output":110
				},
				{
					"input":101,
					"interpolation":"STEP",
					"output":103
				},
				{
					"input":99,
					"interpolation":"LINEAR",
					"output":111
				},
				{
					"input":99,
					"interpolation":"LINEAR",
					"output":112
				},
				{
					"input":101,
					"interpolation":"STEP",
					"output":103
				},
				{
					"input":99,
					"interpolation":"LINEAR",
					"output":113
				},
				{
					"input":99,
					"interpolation":"LINEAR",
					"output":114
				},
				{
					"input":101,
					"interpolation":"STEP",
					"output":108
				},
				{
					"input":99,
					"interpolation":"LINEAR",
					"output":115
				},
				{
					"input":99,
					"interpolation":"LINEAR",
					"output":116
				},
				{
					"input":101,
					"interpolation":"STEP",
					"output":103
				}
			]
		},
		{
			"channels":[
				{
					"sampler":0,
					"target":{
						"node":7,
						"path":"translation"
					}
				},
				{
					"sampler":1,
					"target":{
						"node":7,
						"path":"rotation"
					}
				},
				{
					"sampler":2,
					"target":{
						"node":7,
						"path":"scale"
					}
				},
				{
					"sampler":3,
					"target":{
						"node":1,
						"path":"translation"
					}
				},
				{
					"sampler":4,
					"target":{
						"node":1,
						"path":"rotation"
					}
				},
				{
					"sampler":5,
					"target":{
						"node":1,
						"path":"scale"
					}
				},
				{
					"sampler":6,
					"target":{
						"node":2,
						"path":"translation"
					}
				},
				{
					"sampler":7,
					"target":{
						"node":2,
						"path":"rotation"
					}
				},
				{
					"sampler":8,
					"target":{
						"node":2,
						"path":"scale"
					}
				},
				{
					"sampler":9,
					"target":{
						"node":3,
						"path":"translation"
					}
				},
				{
					"sampler":10,
					"target":{
						"node":3,
						"path":"rotation"
					}
				},
				{
					"sampler":11,
					"target":{
						"node":3,
						"path":"scale"
					}
				},
				{
					"sampler":12,
					"target":{
						"node":4,
						"path":"translation"
					}
				},
				{
					"sampler":13,
					"target":{
						"node":4,
						"path":"rotation"
					}
				},
				{
					"sampler":14,
					"target":{
						"node":4,
						"path":"scale"
					}
				},
				{
					"sampler":15,
					"target":{
						"node":5,
						"path":"translation"
					}
				},
				{
					"sampler":16,
					"target":{
						"node":5,
						"path":"rotation"
					}
				},
				{
					"sampler":17,
					"target":{
						"node":5,
						"path":"scale"
					}
				},
				{
					"sampler":18,
					"target":{
						"node":6,
						"path":"translation"
					}
				},
				{
					"sampler":19,
					"target":{
						"node":6,
						"path":"rotation"
					}
				},
				{
					"sampler":20,
					"target":{
						"node":6,
						"path":"scale"
					}
				}
			],
			"name":"Ferrule_Idle",
			"samplers":[
				{
					"input":117,
					"interpolation":"STEP",
					"output":118
				},
				{
					"input":117,
					"interpolation":"STEP",
					"output":102
				},
				{
					"input":117,
					"interpolation":"STEP",
					"output":103
				},
				{
					"input":119,
					"interpolation":"LINEAR",
					"output":120
				},
				{
					"input":119,
					"interpolation":"LINEAR",
					"output":121
				},
				{
					"input":117,
					"interpolation":"STEP",
					"output":103
				},
				{
					"input":119,
					"interpolation":"LINEAR",
					"output":122
				},
				{
					"input":119,
					"interpolation":"LINEAR",
					"output":123
				},
				{
					"input":117,
					"interpolation":"STEP",
					"output":103
				},
				{
					"input":119,
					"interpolation":"LINEAR",
					"output":124
				},
				{
					"input":119,
					"interpolation":"LINEAR",
					"output":125
				},
				{
					"input":117,
					"interpolation":"STEP",
					"output":103
				},
				{
					"input":119,
					"interpolation":"LINEAR",
					"output":126
				},
				{
					"input":119,
					"interpolation":"LINEAR",
					"output":123
				},
				{
					"input":117,
					"interpolation":"STEP",
					"output":103
				},
				{
					"input":119,
					"interpolation":"LINEAR",
					"output":127
				},
				{
					"input":119,
					"interpolation":"LINEAR",
					"output":128
				},
				{
					"input":117,
					"interpolation":"STEP",
					"output":103
				},
				{
					"input":117,
					"interpolation":"STEP",
					"output":129
				},
				{
					"input":117,
					"interpolation":"STEP",
					"output":102
				},
				{
					"input":117,
					"interpolation":"STEP",
					"output":103
				}
			]
		},
		{
			"channels":[
				{
					"sampler":0,
					"target":{
						"node":7,
						"path":"translation"
					}
				},
				{
					"sampler":1,
					"target":{
						"node":7,
						"path":"rotation"
					}
				},
				{
					"sampler":2,
					"target":{
						"node":7,
						"path":"scale"
					}
				},
				{
					"sampler":3,
					"target":{
						"node":1,
						"path":"translation"
					}
				},
				{
					"sampler":4,
					"target":{
						"node":1,
						"path":"rotation"
					}
				},
				{
					"sampler":5,
					"target":{
						"node":1,
						"path":"scale"
					}
				},
				{
					"sampler":6,
					"target":{
						"node":2,
						"path":"translation"
					}
				},
				{
					"sampler":7,
					"target":{
						"node":2,
						"path":"rotation"
					}
				},
				{
					"sampler":8,
					"target":{
						"node":2,
						"path":"scale"
					}
				},
				{
					"sampler":9,
					"target":{
						"node":3,
						"path":"translation"
					}
				},
				{
					"sampler":10,
					"target":{
						"node":3,
						"path":"rotation"
					}
				},
				{
					"sampler":11,
					"target":{
						"node":3,
						"path":"scale"
					}
				},
				{
					"sampler":12,
					"target":{
						"node":4,
						"path":"translation"
					}
				},
				{
					"sampler":13,
					"target":{
						"node":4,
						"path":"rotation"
					}
				},
				{
					"sampler":14,
					"target":{
						"node":4,
						"path":"scale"
					}
				},
				{
					"sampler":15,
					"target":{
						"node":5,
						"path":"translation"
					}
				},
				{
					"sampler":16,
					"target":{
						"node":5,
						"path":"rotation"
					}
				},
				{
					"sampler":17,
					"target":{
						"node":5,
						"path":"scale"
					}
				},
				{
					"sampler":18,
					"target":{
						"node":6,
						"path":"translation"
					}
				},
				{
					"sampler":19,
					"target":{
						"node":6,
						"path":"rotation"
					}
				},
				{
					"sampler":20,
					"target":{
						"node":6,
						"path":"scale"
					}
				}
			],
			"name":"Ferrule_Latch",
			"samplers":[
				{
					"input":99,
					"interpolation":"LINEAR",
					"output":130
				},
				{
					"input":99,
					"interpolation":"LINEAR",
					"output":131
				},
				{
					"input":101,
					"interpolation":"STEP",
					"output":103
				},
				{
					"input":99,
					"interpolation":"LINEAR",
					"output":132
				},
				{
					"input":99,
					"interpolation":"LINEAR",
					"output":133
				},
				{
					"input":101,
					"interpolation":"STEP",
					"output":134
				},
				{
					"input":99,
					"interpolation":"LINEAR",
					"output":135
				},
				{
					"input":99,
					"interpolation":"LINEAR",
					"output":136
				},
				{
					"input":101,
					"interpolation":"STEP",
					"output":108
				},
				{
					"input":99,
					"interpolation":"LINEAR",
					"output":137
				},
				{
					"input":99,
					"interpolation":"LINEAR",
					"output":138
				},
				{
					"input":101,
					"interpolation":"STEP",
					"output":139
				},
				{
					"input":99,
					"interpolation":"LINEAR",
					"output":140
				},
				{
					"input":99,
					"interpolation":"LINEAR",
					"output":141
				},
				{
					"input":101,
					"interpolation":"STEP",
					"output":108
				},
				{
					"input":99,
					"interpolation":"LINEAR",
					"output":142
				},
				{
					"input":99,
					"interpolation":"LINEAR",
					"output":143
				},
				{
					"input":101,
					"interpolation":"STEP",
					"output":103
				},
				{
					"input":99,
					"interpolation":"LINEAR",
					"output":144
				},
				{
					"input":99,
					"interpolation":"LINEAR",
					"output":145
				},
				{
					"input":101,
					"interpolation":"STEP",
					"output":108
				}
			]
		},
		{
			"channels":[
				{
					"sampler":0,
					"target":{
						"node":7,
						"path":"translation"
					}
				},
				{
					"sampler":1,
					"target":{
						"node":7,
						"path":"rotation"
					}
				},
				{
					"sampler":2,
					"target":{
						"node":7,
						"path":"scale"
					}
				},
				{
					"sampler":3,
					"target":{
						"node":1,
						"path":"translation"
					}
				},
				{
					"sampler":4,
					"target":{
						"node":1,
						"path":"rotation"
					}
				},
				{
					"sampler":5,
					"target":{
						"node":1,
						"path":"scale"
					}
				},
				{
					"sampler":6,
					"target":{
						"node":2,
						"path":"translation"
					}
				},
				{
					"sampler":7,
					"target":{
						"node":2,
						"path":"rotation"
					}
				},
				{
					"sampler":8,
					"target":{
						"node":2,
						"path":"scale"
					}
				},
				{
					"sampler":9,
					"target":{
						"node":3,
						"path":"translation"
					}
				},
				{
					"sampler":10,
					"target":{
						"node":3,
						"path":"rotation"
					}
				},
				{
					"sampler":11,
					"target":{
						"node":3,
						"path":"scale"
					}
				},
				{
					"sampler":12,
					"target":{
						"node":4,
						"path":"translation"
					}
				},
				{
					"sampler":13,
					"target":{
						"node":4,
						"path":"rotation"
					}
				},
				{
					"sampler":14,
					"target":{
						"node":4,
						"path":"scale"
					}
				},
				{
					"sampler":15,
					"target":{
						"node":5,
						"path":"translation"
					}
				},
				{
					"sampler":16,
					"target":{
						"node":5,
						"path":"rotation"
					}
				},
				{
					"sampler":17,
					"target":{
						"node":5,
						"path":"scale"
					}
				},
				{
					"sampler":18,
					"target":{
						"node":6,
						"path":"translation"
					}
				},
				{
					"sampler":19,
					"target":{
						"node":6,
						"path":"rotation"
					}
				},
				{
					"sampler":20,
					"target":{
						"node":6,
						"path":"scale"
					}
				}
			],
			"name":"Ferrule_Spring",
			"samplers":[
				{
					"input":146,
					"interpolation":"LINEAR",
					"output":147
				},
				{
					"input":146,
					"interpolation":"LINEAR",
					"output":148
				},
				{
					"input":149,
					"interpolation":"STEP",
					"output":103
				},
				{
					"input":146,
					"interpolation":"LINEAR",
					"output":150
				},
				{
					"input":146,
					"interpolation":"LINEAR",
					"output":151
				},
				{
					"input":149,
					"interpolation":"STEP",
					"output":152
				},
				{
					"input":146,
					"interpolation":"LINEAR",
					"output":153
				},
				{
					"input":146,
					"interpolation":"LINEAR",
					"output":154
				},
				{
					"input":149,
					"interpolation":"STEP",
					"output":139
				},
				{
					"input":146,
					"interpolation":"LINEAR",
					"output":155
				},
				{
					"input":146,
					"interpolation":"LINEAR",
					"output":156
				},
				{
					"input":149,
					"interpolation":"STEP",
					"output":108
				},
				{
					"input":146,
					"interpolation":"LINEAR",
					"output":157
				},
				{
					"input":146,
					"interpolation":"LINEAR",
					"output":158
				},
				{
					"input":149,
					"interpolation":"STEP",
					"output":103
				},
				{
					"input":146,
					"interpolation":"LINEAR",
					"output":159
				},
				{
					"input":146,
					"interpolation":"LINEAR",
					"output":160
				},
				{
					"input":149,
					"interpolation":"STEP",
					"output":139
				},
				{
					"input":146,
					"interpolation":"LINEAR",
					"output":161
				},
				{
					"input":146,
					"interpolation":"LINEAR",
					"output":162
				},
				{
					"input":149,
					"interpolation":"STEP",
					"output":103
				}
			]
		}
	],
	"materials":[
		{
			"doubleSided":true,
			"name":"FerruleBody",
			"pbrMetallicRoughness":{
				"baseColorTexture":{
					"index":0
				},
				"metallicFactor":0.11999999731779099,
				"roughnessFactor":0.8199999928474426
			}
		},
		{
			"doubleSided":true,
			"name":"FerruleMouthVoid",
			"pbrMetallicRoughness":{
				"baseColorTexture":{
					"index":1
				},
				"metallicFactor":0
			}
		},
		{
			"doubleSided":true,
			"emissiveFactor":[
				1,
				1,
				1
			],
			"emissiveTexture":{
				"index":2
			},
			"extensions":{
				"KHR_materials_emissive_strength":{
					"emissiveStrength":2.299999952316284
				}
			},
			"name":"FerruleSignal",
			"pbrMetallicRoughness":{
				"baseColorTexture":{
					"index":3
				},
				"metallicFactor":0,
				"roughnessFactor":0.41999998688697815
			}
		}
	],
	"meshes":[
		{
			"name":"Ferrule_AnchorMesh.001",
			"primitives":[
				{
					"attributes":{
						"POSITION":0,
						"NORMAL":1,
						"TEXCOORD_0":2,
						"JOINTS_0":3,
						"WEIGHTS_0":4
					},
					"indices":5,
					"material":0
				}
			]
		},
		{
			"name":"Ferrule_CaptureVoidMesh.001",
			"primitives":[
				{
					"attributes":{
						"POSITION":7,
						"NORMAL":8,
						"TEXCOORD_0":9,
						"JOINTS_0":10,
						"WEIGHTS_0":11
					},
					"indices":12,
					"material":1
				}
			]
		},
		{
			"name":"Ferrule_ChelationShaft_AMesh",
			"primitives":[
				{
					"attributes":{
						"POSITION":13,
						"NORMAL":14,
						"TEXCOORD_0":15,
						"JOINTS_0":16,
						"WEIGHTS_0":17
					},
					"indices":18,
					"material":0
				}
			]
		},
		{
			"name":"Ferrule_ChelationShaft_BMesh",
			"primitives":[
				{
					"attributes":{
						"POSITION":19,
						"NORMAL":20,
						"TEXCOORD_0":21,
						"JOINTS_0":22,
						"WEIGHTS_0":23
					},
					"indices":18,
					"material":0
				}
			]
		},
		{
			"name":"Ferrule_ChelationShaft_CMesh",
			"primitives":[
				{
					"attributes":{
						"POSITION":24,
						"NORMAL":25,
						"TEXCOORD_0":26,
						"JOINTS_0":27,
						"WEIGHTS_0":28
					},
					"indices":18,
					"material":0
				}
			]
		},
		{
			"name":"Ferrule_ChelationTip_AMesh.001",
			"primitives":[
				{
					"attributes":{
						"POSITION":29,
						"NORMAL":30,
						"TEXCOORD_0":31,
						"JOINTS_0":32,
						"WEIGHTS_0":33
					},
					"indices":34,
					"material":2
				}
			]
		},
		{
			"name":"Ferrule_ChelationTip_BMesh",
			"primitives":[
				{
					"attributes":{
						"POSITION":35,
						"NORMAL":36,
						"TEXCOORD_0":37,
						"JOINTS_0":38,
						"WEIGHTS_0":39
					},
					"indices":34,
					"material":2
				}
			]
		},
		{
			"name":"Ferrule_ChelationTip_CMesh",
			"primitives":[
				{
					"attributes":{
						"POSITION":40,
						"NORMAL":41,
						"TEXCOORD_0":42,
						"JOINTS_0":43,
						"WEIGHTS_0":44
					},
					"indices":34,
					"material":2
				}
			]
		},
		{
			"name":"Ferrule_MouthCoreMesh.001",
			"primitives":[
				{
					"attributes":{
						"POSITION":45,
						"NORMAL":46,
						"TEXCOORD_0":47,
						"JOINTS_0":48,
						"WEIGHTS_0":49
					},
					"indices":50,
					"material":0
				}
			]
		},
		{
			"name":"Ferrule_MouthNeckMesh.001",
			"primitives":[
				{
					"attributes":{
						"POSITION":51,
						"NORMAL":52,
						"TEXCOORD_0":53,
						"JOINTS_0":54,
						"WEIGHTS_0":55
					},
					"indices":56,
					"material":0
				}
			]
		},
		{
			"name":"Ferrule_Segment_01Mesh",
			"primitives":[
				{
					"attributes":{
						"POSITION":57,
						"NORMAL":58,
						"TEXCOORD_0":59,
						"JOINTS_0":60,
						"WEIGHTS_0":61
					},
					"indices":62,
					"material":0
				}
			]
		},
		{
			"name":"Ferrule_Segment_02Mesh",
			"primitives":[
				{
					"attributes":{
						"POSITION":63,
						"NORMAL":64,
						"TEXCOORD_0":65,
						"JOINTS_0":66,
						"WEIGHTS_0":67
					},
					"indices":68,
					"material":0
				}
			]
		},
		{
			"name":"Ferrule_Segment_03Mesh",
			"primitives":[
				{
					"attributes":{
						"POSITION":69,
						"NORMAL":70,
						"TEXCOORD_0":71,
						"JOINTS_0":72,
						"WEIGHTS_0":73
					},
					"indices":74,
					"material":0
				}
			]
		},
		{
			"name":"Ferrule_Segment_04Mesh",
			"primitives":[
				{
					"attributes":{
						"POSITION":75,
						"NORMAL":76,
						"TEXCOORD_0":77,
						"JOINTS_0":78,
						"WEIGHTS_0":79
					},
					"indices":80,
					"material":0
				}
			]
		},
		{
			"name":"Ferrule_Segment_05Mesh",
			"primitives":[
				{
					"attributes":{
						"POSITION":81,
						"NORMAL":82,
						"TEXCOORD_0":83,
						"JOINTS_0":84,
						"WEIGHTS_0":85
					},
					"indices":86,
					"material":0
				}
			]
		},
		{
			"name":"Ferrule_SignalSeam_LMesh",
			"primitives":[
				{
					"attributes":{
						"POSITION":87,
						"NORMAL":88,
						"TEXCOORD_0":89,
						"JOINTS_0":90,
						"WEIGHTS_0":91
					},
					"indices":92,
					"material":2
				}
			]
		},
		{
			"name":"Ferrule_SignalSeam_RMesh",
			"primitives":[
				{
					"attributes":{
						"POSITION":93,
						"NORMAL":94,
						"TEXCOORD_0":95,
						"JOINTS_0":96,
						"WEIGHTS_0":97
					},
					"indices":98,
					"material":2
				}
			]
		}
	],
	"textures":[
		{
			"sampler":0,
			"source":0
		},
		{
			"sampler":0,
			"source":1
		},
		{
			"sampler":0,
			"source":2
		},
		{
			"sampler":0,
			"source":3
		}
	],
	"images":[
		{
			"mimeType":"image/png",
			"name":"FerruleBodyAlbedo",
			"uri":"ferrule_body.png"
		},
		{
			"mimeType":"image/png",
			"name":"FerruleMouthAlbedo",
			"uri":"ferrule_mouth.png"
		},
		{
			"mimeType":"image/png",
			"name":"FerruleSignalEmissive",
			"uri":"ferrule_signal_emissive.png"
		},
		{
			"mimeType":"image/png",
			"name":"FerruleSignalAlbedo",
			"uri":"ferrule_signal.png"
		}
	],
	"skins":[
		{
			"inverseBindMatrices":6,
			"joints":[
				7,
				1,
				2,
				3,
				4,
				5,
				6
			],
			"name":"FerruleRig"
		}
	],
	"accessors":[
		{
			"bufferView":0,
			"componentType":5126,
			"count":2345,
			"max":[
				0.7799999713897705,
				1.05160391330719,
				0.775160551071167
			],
			"min":[
				-0.7799999713897705,
				0.03610000014305115,
				-0.9468334913253784
			],
			"type":"VEC3"
		},
		{
			"bufferView":1,
			"componentType":5126,
			"count":2345,
			"type":"VEC3"
		},
		{
			"bufferView":2,
			"componentType":5126,
			"count":2345,
			"type":"VEC2"
		},
		{
			"bufferView":3,
			"componentType":5121,
			"count":2345,
			"type":"VEC4"
		},
		{
			"bufferView":4,
			"componentType":5126,
			"count":2345,
			"type":"VEC4"
		},
		{
			"bufferView":5,
			"componentType":5123,
			"count":3696,
			"type":"SCALAR"
		},
		{
			"bufferView":6,
			"componentType":5126,
			"count":7,
			"type":"MAT4"
		},
		{
			"bufferView":7,
			"componentType":5126,
			"count":58,
			"max":[
				0.10200020670890808,
				0.2061132788658142,
				2.2839999198913574
			],
			"min":[
				-0.10199981927871704,
				0.08111327886581421,
				2.1549999713897705
			],
			"type":"VEC3"
		},
		{
			"bufferView":8,
			"componentType":5126,
			"count":58,
			"type":"VEC3"
		},
		{
			"bufferView":9,
			"componentType":5126,
			"count":58,
			"type":"VEC2"
		},
		{
			"bufferView":10,
			"componentType":5121,
			"count":58,
			"type":"VEC4"
		},
		{
			"bufferView":11,
			"componentType":5126,
			"count":58,
			"type":"VEC4"
		},
		{
			"bufferView":12,
			"componentType":5123,
			"count":108,
			"type":"SCALAR"
		},
		{
			"bufferView":13,
			"componentType":5126,
			"count":48,
			"max":[
				0.08724421262741089,
				0.21611326932907104,
				2.3299999237060547
			],
			"min":[
				-0.08724379539489746,
				0.15211325883865356,
				2.2149999141693115
			],
			"type":"VEC3"
		},
		{
			"bufferView":14,
			"componentType":5126,
			"count":48,
			"type":"VEC3"
		},
		{
			"bufferView":15,
			"componentType":5126,
			"count":48,
			"type":"VEC2"
		},
		{
			"bufferView":16,
			"componentType":5121,
			"count":48,
			"type":"VEC4"
		},
		{
			"bufferView":17,
			"componentType":5126,
			"count":48,
			"type":"VEC4"
		},
		{
			"bufferView":18,
			"componentType":5123,
			"count":72,
			"type":"SCALAR"
		},
		{
			"bufferView":19,
			"componentType":5126,
			"count":48,
			"max":[
				0.13888424634933472,
				0.20611326396465302,
				2.309999942779541
			],
			"min":[
				-0.1388837993144989,
				0.15511326491832733,
				2.2079999446868896
			],
			"type":"VEC3"
		},
		{
			"bufferView":20,
			"componentType":5126,
			"count":48,
			"type":"VEC3"
		},
		{
			"bufferView":21,
			"componentType":5126,
			"count":48,
			"type":"VEC2"
		},
		{
			"bufferView":22,
			"componentType":5121,
			"count":48,
			"type":"VEC4"
		},
		{
			"bufferView":23,
			"componentType":5126,
			"count":48,
			"type":"VEC4"
		},
		{
			"bufferView":24,
			"componentType":5126,
			"count":48,
			"max":[
				0.1953922063112259,
				0.2061132788658142,
				2.2899999618530273
			],
			"min":[
				-0.19539181888103485,
				0.1581132411956787,
				2.194999933242798
			],
			"type":"VEC3"
		},
		{
			"bufferView":25,
			"componentType":5126,
			"count":48,
			"type":"VEC3"
		},
		{
			"bufferView":26,
			"componentType":5126,
			"count":48,
			"type":"VEC2"
		},
		{
			"bufferView":27,
			"componentType":5121,
			"count":48,
			"type":"VEC4"
		},
		{
			"bufferView":28,
			"componentType":5126,
			"count":48,
			"type":"VEC4"
		},
		{
			"bufferView":29,
			"componentType":5126,
			"count":72,
			"max":[
				0.09200021624565125,
				0.1581132560968399,
				2.369999885559082
			],
			"min":[
				-0.0919998288154602,
				0.07211326062679291,
				2.244999885559082
			],
			"type":"VEC3"
		},
		{
			"bufferView":30,
			"componentType":5126,
			"count":72,
			"type":"VEC3"
		},
		{
			"bufferView":31,
			"componentType":5126,
			"count":72,
			"type":"VEC2"
		},
		{
			"bufferView":32,
			"componentType":5121,
			"count":72,
			"type":"VEC4"
		},
		{
			"bufferView":33,
			"componentType":5126,
			"count":72,
			"type":"VEC4"
		},
		{
			"bufferView":34,
			"componentType":5123,
			"count":120,
			"type":"SCALAR"
		},
		{
			"bufferView":35,
			"componentType":5126,
			"count":72,
			"max":[
				0.1420001983642578,
				0.16111326217651367,
				2.3499999046325684
			],
			"min":[
				-0.14199984073638916,
				0.08811326324939728,
				2.23799991607666
			],
			"type":"VEC3"
		},
		{
			"bufferView":36,
			"componentType":5126,
			"count":72,
			"type":"VEC3"
		},
		{
			"bufferView":37,
			"componentType":5126,
			"count":72,
			"type":"VEC2"
		},
		{
			"bufferView":38,
			"componentType":5121,
			"count":72,
			"type":"VEC4"
		},
		{
			"bufferView":39,
			"componentType":5126,
			"count":72,
			"type":"VEC4"
		},
		{
			"bufferView":40,
			"componentType":5126,
			"count":72,
			"max":[
				0.19900020956993103,
				0.16411328315734863,
				2.3299999237060547
			],
			"min":[
				-0.1989998072385788,
				0.10011327266693115,
				2.2249999046325684
			],
			"type":"VEC3"
		},
		{
			"bufferView":41,
			"componentType":5126,
			"count":72,
			"type":"VEC3"
		},
		{
			"bufferView":42,
			"componentType":5126,
			"count":72,
			"type":"VEC2"
		},
		{
			"bufferView":43,
			"componentType":5121,
			"count":72,
			"type":"VEC4"
		},
		{
			"bufferView":44,
			"componentType":5126,
			"count":72,
			"type":"VEC4"
		},
		{
			"bufferView":45,
			"componentType":5126,
			"count":1737,
			"max":[
				0.42430850863456726,
				0.8999999761581421,
				2.3694117069244385
			],
			"min":[
				-0.424308180809021,
				0.03610000014305115,
				1.3305882215499878
			],
			"type":"VEC3"
		},
		{
			"bufferView":46,
			"componentType":5126,
			"count":1737,
			"type":"VEC3"
		},
		{
			"bufferView":47,
			"componentType":5126,
			"count":1737,
			"type":"VEC2"
		},
		{
			"bufferView":48,
			"componentType":5121,
			"count":1737,
			"type":"VEC4"
		},
		{
			"bufferView":49,
			"componentType":5126,
			"count":1737,
			"type":"VEC4"
		},
		{
			"bufferView":50,
			"componentType":5123,
			"count":3342,
			"type":"SCALAR"
		},
		{
			"bufferView":51,
			"componentType":5126,
			"count":132,
			"max":[
				0.17800019681453705,
				0.2961132526397705,
				2.265000104904175
			],
			"min":[
				-0.1779998242855072,
				0.09111326932907104,
				2.1050000190734863
			],
			"type":"VEC3"
		},
		{
			"bufferView":52,
			"componentType":5126,
			"count":132,
			"type":"VEC3"
		},
		{
			"bufferView":53,
			"componentType":5126,
			"count":132,
			"type":"VEC2"
		},
		{
			"bufferView":54,
			"componentType":5121,
			"count":132,
			"type":"VEC4"
		},
		{
			"bufferView":55,
			"componentType":5126,
			"count":132,
			"type":"VEC4"
		},
		{
			"bufferView":56,
			"componentType":5123,
			"count":228,
			"type":"SCALAR"
		},
		{
			"bufferView":57,
			"componentType":5126,
			"count":524,
			"max":[
				0.7540755867958069,
				1.6568000316619873,
				0.7807880640029907
			],
			"min":[
				-0.7540755867958069,
				0.03610000014305115,
				-0.46850207448005676
			],
			"type":"VEC3"
		},
		{
			"bufferView":58,
			"componentType":5126,
			"count":524,
			"type":"VEC3"
		},
		{
			"bufferView":59,
			"componentType":5126,
			"count":524,
			"type":"VEC2"
		},
		{
			"bufferView":60,
			"componentType":5121,
			"count":524,
			"type":"VEC4"
		},
		{
			"bufferView":61,
			"componentType":5126,
			"count":524,
			"type":"VEC4"
		},
		{
			"bufferView":62,
			"componentType":5123,
			"count":1074,
			"type":"SCALAR"
		},
		{
			"bufferView":63,
			"componentType":5126,
			"count":446,
			"max":[
				0.6246451139450073,
				1.3923109769821167,
				1.3885505199432373
			],
			"min":[
				-0.624644935131073,
				0.03610000014305115,
				0.3531034588813782
			],
			"type":"VEC3"
		},
		{
			"bufferView":64,
			"componentType":5126,
			"count":446,
			"type":"VEC3"
		},
		{
			"bufferView":65,
			"componentType":5126,
			"count":446,
			"type":"VEC2"
		},
		{
			"bufferView":66,
			"componentType":5121,
			"count":446,
			"type":"VEC4"
		},
		{
			"bufferView":67,
			"componentType":5126,
			"count":446,
			"type":"VEC4"
		},
		{
			"bufferView":68,
			"componentType":5123,
			"count":906,
			"type":"SCALAR"
		},
		{
			"bufferView":69,
			"componentType":5126,
			"count":432,
			"max":[
				0.5543020963668823,
				1.1503310203552246,
				1.6417850255966187
			],
			"min":[
				-0.554301917552948,
				0.03610000014305115,
				0.6513569355010986
			],
			"type":"VEC3"
		},
		{
			"bufferView":70,
			"componentType":5126,
			"count":432,
			"type":"VEC3"
		},
		{
			"bufferView":71,
			"componentType":5126,
			"count":432,
			"type":"VEC2"
		},
		{
			"bufferView":72,
			"componentType":5121,
			"count":432,
			"type":"VEC4"
		},
		{
			"bufferView":73,
			"componentType":5126,
			"count":432,
			"type":"VEC4"
		},
		{
			"bufferView":74,
			"componentType":5123,
			"count":924,
			"type":"SCALAR"
		},
		{
			"bufferView":75,
			"componentType":5126,
			"count":431,
			"max":[
				0.4952141344547272,
				1.0096449851989746,
				1.7430795431137085
			],
			"min":[
				-0.49521389603614807,
				0.03610000014305115,
				0.8595724701881409
			],
			"type":"VEC3"
		},
		{
			"bufferView":76,
			"componentType":5126,
			"count":431,
			"type":"VEC3"
		},
		{
			"bufferView":77,
			"componentType":5126,
			"count":431,
			"type":"VEC2"
		},
		{
			"bufferView":78,
			"componentType":5121,
			"count":431,
			"type":"VEC4"
		},
		{
			"bufferView":79,
			"componentType":5126,
			"count":431,
			"type":"VEC4"
		},
		{
			"bufferView":80,
			"componentType":5123,
			"count":906,
			"type":"SCALAR"
		},
		{
			"bufferView":81,
			"componentType":5126,
			"count":355,
			"max":[
				0.43612614274024963,
				0.7789210081100464,
				1.9512939453125
			],
			"min":[
				-0.43612587451934814,
				0.04172699898481369,
				1.2985119819641113
			],
			"type":"VEC3"
		},
		{
			"bufferView":82,
			"componentType":5126,
			"count":355,
			"type":"VEC3"
		},
		{
			"bufferView":83,
			"componentType":5126,
			"count":355,
			"type":"VEC2"
		},
		{
			"bufferView":84,
			"componentType":5121,
			"count":355,
			"type":"VEC4"
		},
		{
			"bufferView":85,
			"componentType":5126,
			"count":355,
			"type":"VEC4"
		},
		{
			"bufferView":86,
			"componentType":5123,
			"count":732,
			"type":"SCALAR"
		},
		{
			"bufferView":87,
			"componentType":5126,
			"count":24,
			"max":[
				0.4454690217971802,
				0.3400000035762787,
				-0.453369140625
			],
			"min":[
				0.25048619508743286,
				0.2800000011920929,
				-0.5933692455291748
			],
			"type":"VEC3"
		},
		{
			"bufferView":88,
			"componentType":5126,
			"count":24,
			"type":"VEC3"
		},
		{
			"bufferView":89,
			"componentType":5126,
			"count":24,
			"type":"VEC2"
		},
		{
			"bufferView":90,
			"componentType":5121,
			"count":24,
			"type":"VEC4"
		},
		{
			"bufferView":91,
			"componentType":5126,
			"count":24,
			"type":"VEC4"
		},
		{
			"bufferView":92,
			"componentType":5123,
			"count":36,
			"type":"SCALAR"
		},
		{
			"bufferView":93,
			"componentType":5126,
			"count":24,
			"max":[
				-0.25048625469207764,
				0.3400000035762787,
				-0.453369140625
			],
			"min":[
				-0.44546908140182495,
				0.2800000011920929,
				-0.5933692455291748
			],
			"type":"VEC3"
		},
		{
			"bufferView":94,
			"componentType":5126,
			"count":24,
			"type":"VEC3"
		},
		{
			"bufferView":95,
			"componentType":5126,
			"count":24,
			"type":"VEC2"
		},
		{
			"bufferView":96,
			"componentType":5121,
			"count":24,
			"type":"VEC4"
		},
		{
			"bufferView":97,
			"componentType":5126,
			"count":24,
			"type":"VEC4"
		},
		{
			"bufferView":98,
			"componentType":5123,
			"count":36,
			"type":"SCALAR"
		},
		{
			"bufferView":99,
			"componentType":5126,
			"count":18,
			"max":[
				0.6
			],
			"min":[
				0.03333333333333333
			],
			"type":"SCALAR"
		},
		{
			"bufferView":100,
			"componentType":5126,
			"count":18,
			"type":"VEC3"
		},
		{
			"bufferView":101,
			"componentType":5126,
			"count":2,
			"max":[
				0.6
			],
			"min":[
				0.03333333333333333
			],
			"type":"SCALAR"
		},
		{
			"bufferView":102,
			"componentType":5126,
			"count":2,
			"type":"VEC4"
		},
		{
			"bufferView":103,
			"componentType":5126,
			"count":2,
			"type":"VEC3"
		},
		{
			"bufferView":104,
			"componentType":5126,
			"count":18,
			"type":"VEC3"
		},
		{
			"bufferView":105,
			"componentType":5126,
			"count":18,
			"type":"VEC4"
		},
		{
			"bufferView":106,
			"componentType":5126,
			"count":18,
			"type":"VEC3"
		},
		{
			"bufferView":107,
			"componentType":5126,
			"count":18,
			"type":"VEC4"
		},
		{
			"bufferView":108,
			"componentType":5126,
			"count":2,
			"type":"VEC3"
		},
		{
			"bufferView":109,
			"componentType":5126,
			"count":18,
			"type":"VEC3"
		},
		{
			"bufferView":110,
			"componentType":5126,
			"count":18,
			"type":"VEC4"
		},
		{
			"bufferView":111,
			"componentType":5126,
			"count":18,
			"type":"VEC3"
		},
		{
			"bufferView":112,
			"componentType":5126,
			"count":18,
			"type":"VEC4"
		},
		{
			"bufferView":113,
			"componentType":5126,
			"count":18,
			"type":"VEC3"
		},
		{
			"bufferView":114,
			"componentType":5126,
			"count":18,
			"type":"VEC4"
		},
		{
			"bufferView":115,
			"componentType":5126,
			"count":18,
			"type":"VEC3"
		},
		{
			"bufferView":116,
			"componentType":5126,
			"count":18,
			"type":"VEC4"
		},
		{
			"bufferView":117,
			"componentType":5126,
			"count":2,
			"max":[
				1.0666666666666667
			],
			"min":[
				0.03333333333333333
			],
			"type":"SCALAR"
		},
		{
			"bufferView":118,
			"componentType":5126,
			"count":2,
			"type":"VEC3"
		},
		{
			"bufferView":119,
			"componentType":5126,
			"count":32,
			"max":[
				1.0666666666666667
			],
			"min":[
				0.03333333333333333
			],
			"type":"SCALAR"
		},
		{
			"bufferView":120,
			"componentType":5126,
			"count":32,
			"type":"VEC3"
		},
		{
			"bufferView":121,
			"componentType":5126,
			"count":32,
			"type":"VEC4"
		},
		{
			"bufferView":122,
			"componentType":5126,
			"count":32,
			"type":"VEC3"
		},
		{
			"bufferView":123,
			"componentType":5126,
			"count":32,
			"type":"VEC4"
		},
		{
			"bufferView":124,
			"componentType":5126,
			"count":32,
			"type":"VEC3"
		},
		{
			"bufferView":125,
			"componentType":5126,
			"count":32,
			"type":"VEC4"
		},
		{
			"bufferView":126,
			"componentType":5126,
			"count":32,
			"type":"VEC3"
		},
		{
			"bufferView":127,
			"componentType":5126,
			"count":32,
			"type":"VEC3"
		},
		{
			"bufferView":128,
			"componentType":5126,
			"count":32,
			"type":"VEC4"
		},
		{
			"bufferView":129,
			"componentType":5126,
			"count":2,
			"type":"VEC3"
		},
		{
			"bufferView":130,
			"componentType":5126,
			"count":18,
			"type":"VEC3"
		},
		{
			"bufferView":131,
			"componentType":5126,
			"count":18,
			"type":"VEC4"
		},
		{
			"bufferView":132,
			"componentType":5126,
			"count":18,
			"type":"VEC3"
		},
		{
			"bufferView":133,
			"componentType":5126,
			"count":18,
			"type":"VEC4"
		},
		{
			"bufferView":134,
			"componentType":5126,
			"count":2,
			"type":"VEC3"
		},
		{
			"bufferView":135,
			"componentType":5126,
			"count":18,
			"type":"VEC3"
		},
		{
			"bufferView":136,
			"componentType":5126,
			"count":18,
			"type":"VEC4"
		},
		{
			"bufferView":137,
			"componentType":5126,
			"count":18,
			"type":"VEC3"
		},
		{
			"bufferView":138,
			"componentType":5126,
			"count":18,
			"type":"VEC4"
		},
		{
			"bufferView":139,
			"componentType":5126,
			"count":2,
			"type":"VEC3"
		},
		{
			"bufferView":140,
			"componentType":5126,
			"count":18,
			"type":"VEC3"
		},
		{
			"bufferView":141,
			"componentType":5126,
			"count":18,
			"type":"VEC4"
		},
		{
			"bufferView":142,
			"componentType":5126,
			"count":18,
			"type":"VEC3"
		},
		{
			"bufferView":143,
			"componentType":5126,
			"count":18,
			"type":"VEC4"
		},
		{
			"bufferView":144,
			"componentType":5126,
			"count":18,
			"type":"VEC3"
		},
		{
			"bufferView":145,
			"componentType":5126,
			"count":18,
			"type":"VEC4"
		},
		{
			"bufferView":146,
			"componentType":5126,
			"count":16,
			"max":[
				0.5333333333333333
			],
			"min":[
				0.03333333333333333
			],
			"type":"SCALAR"
		},
		{
			"bufferView":147,
			"componentType":5126,
			"count":16,
			"type":"VEC3"
		},
		{
			"bufferView":148,
			"componentType":5126,
			"count":16,
			"type":"VEC4"
		},
		{
			"bufferView":149,
			"componentType":5126,
			"count":2,
			"max":[
				0.5333333333333333
			],
			"min":[
				0.03333333333333333
			],
			"type":"SCALAR"
		},
		{
			"bufferView":150,
			"componentType":5126,
			"count":16,
			"type":"VEC3"
		},
		{
			"bufferView":151,
			"componentType":5126,
			"count":16,
			"type":"VEC4"
		},
		{
			"bufferView":152,
			"componentType":5126,
			"count":2,
			"type":"VEC3"
		},
		{
			"bufferView":153,
			"componentType":5126,
			"count":16,
			"type":"VEC3"
		},
		{
			"bufferView":154,
			"componentType":5126,
			"count":16,
			"type":"VEC4"
		},
		{
			"bufferView":155,
			"componentType":5126,
			"count":16,
			"type":"VEC3"
		},
		{
			"bufferView":156,
			"componentType":5126,
			"count":16,
			"type":"VEC4"
		},
		{
			"bufferView":157,
			"componentType":5126,
			"count":16,
			"type":"VEC3"
		},
		{
			"bufferView":158,
			"componentType":5126,
			"count":16,
			"type":"VEC4"
		},
		{
			"bufferView":159,
			"componentType":5126,
			"count":16,
			"type":"VEC3"
		},
		{
			"bufferView":160,
			"componentType":5126,
			"count":16,
			"type":"VEC4"
		},
		{
			"bufferView":161,
			"componentType":5126,
			"count":16,
			"type":"VEC3"
		},
		{
			"bufferView":162,
			"componentType":5126,
			"count":16,
			"type":"VEC4"
		}
	],
	"bufferViews":[
		{
			"buffer":0,
			"byteLength":28140,
			"byteOffset":0,
			"target":34962
		},
		{
			"buffer":0,
			"byteLength":28140,
			"byteOffset":28140,
			"target":34962
		},
		{
			"buffer":0,
			"byteLength":18760,
			"byteOffset":56280,
			"target":34962
		},
		{
			"buffer":0,
			"byteLength":9380,
			"byteOffset":75040,
			"target":34962
		},
		{
			"buffer":0,
			"byteLength":37520,
			"byteOffset":84420,
			"target":34962
		},
		{
			"buffer":0,
			"byteLength":7392,
			"byteOffset":121940,
			"target":34963
		},
		{
			"buffer":0,
			"byteLength":448,
			"byteOffset":129332
		},
		{
			"buffer":0,
			"byteLength":696,
			"byteOffset":129780,
			"target":34962
		},
		{
			"buffer":0,
			"byteLength":696,
			"byteOffset":130476,
			"target":34962
		},
		{
			"buffer":0,
			"byteLength":464,
			"byteOffset":131172,
			"target":34962
		},
		{
			"buffer":0,
			"byteLength":232,
			"byteOffset":131636,
			"target":34962
		},
		{
			"buffer":0,
			"byteLength":928,
			"byteOffset":131868,
			"target":34962
		},
		{
			"buffer":0,
			"byteLength":216,
			"byteOffset":132796,
			"target":34963
		},
		{
			"buffer":0,
			"byteLength":576,
			"byteOffset":133012,
			"target":34962
		},
		{
			"buffer":0,
			"byteLength":576,
			"byteOffset":133588,
			"target":34962
		},
		{
			"buffer":0,
			"byteLength":384,
			"byteOffset":134164,
			"target":34962
		},
		{
			"buffer":0,
			"byteLength":192,
			"byteOffset":134548,
			"target":34962
		},
		{
			"buffer":0,
			"byteLength":768,
			"byteOffset":134740,
			"target":34962
		},
		{
			"buffer":0,
			"byteLength":144,
			"byteOffset":135508,
			"target":34963
		},
		{
			"buffer":0,
			"byteLength":576,
			"byteOffset":135652,
			"target":34962
		},
		{
			"buffer":0,
			"byteLength":576,
			"byteOffset":136228,
			"target":34962
		},
		{
			"buffer":0,
			"byteLength":384,
			"byteOffset":136804,
			"target":34962
		},
		{
			"buffer":0,
			"byteLength":192,
			"byteOffset":137188,
			"target":34962
		},
		{
			"buffer":0,
			"byteLength":768,
			"byteOffset":137380,
			"target":34962
		},
		{
			"buffer":0,
			"byteLength":576,
			"byteOffset":138148,
			"target":34962
		},
		{
			"buffer":0,
			"byteLength":576,
			"byteOffset":138724,
			"target":34962
		},
		{
			"buffer":0,
			"byteLength":384,
			"byteOffset":139300,
			"target":34962
		},
		{
			"buffer":0,
			"byteLength":192,
			"byteOffset":139684,
			"target":34962
		},
		{
			"buffer":0,
			"byteLength":768,
			"byteOffset":139876,
			"target":34962
		},
		{
			"buffer":0,
			"byteLength":864,
			"byteOffset":140644,
			"target":34962
		},
		{
			"buffer":0,
			"byteLength":864,
			"byteOffset":141508,
			"target":34962
		},
		{
			"buffer":0,
			"byteLength":576,
			"byteOffset":142372,
			"target":34962
		},
		{
			"buffer":0,
			"byteLength":288,
			"byteOffset":142948,
			"target":34962
		},
		{
			"buffer":0,
			"byteLength":1152,
			"byteOffset":143236,
			"target":34962
		},
		{
			"buffer":0,
			"byteLength":240,
			"byteOffset":144388,
			"target":34963
		},
		{
			"buffer":0,
			"byteLength":864,
			"byteOffset":144628,
			"target":34962
		},
		{
			"buffer":0,
			"byteLength":864,
			"byteOffset":145492,
			"target":34962
		},
		{
			"buffer":0,
			"byteLength":576,
			"byteOffset":146356,
			"target":34962
		},
		{
			"buffer":0,
			"byteLength":288,
			"byteOffset":146932,
			"target":34962
		},
		{
			"buffer":0,
			"byteLength":1152,
			"byteOffset":147220,
			"target":34962
		},
		{
			"buffer":0,
			"byteLength":864,
			"byteOffset":148372,
			"target":34962
		},
		{
			"buffer":0,
			"byteLength":864,
			"byteOffset":149236,
			"target":34962
		},
		{
			"buffer":0,
			"byteLength":576,
			"byteOffset":150100,
			"target":34962
		},
		{
			"buffer":0,
			"byteLength":288,
			"byteOffset":150676,
			"target":34962
		},
		{
			"buffer":0,
			"byteLength":1152,
			"byteOffset":150964,
			"target":34962
		},
		{
			"buffer":0,
			"byteLength":20844,
			"byteOffset":152116,
			"target":34962
		},
		{
			"buffer":0,
			"byteLength":20844,
			"byteOffset":172960,
			"target":34962
		},
		{
			"buffer":0,
			"byteLength":13896,
			"byteOffset":193804,
			"target":34962
		},
		{
			"buffer":0,
			"byteLength":6948,
			"byteOffset":207700,
			"target":34962
		},
		{
			"buffer":0,
			"byteLength":27792,
			"byteOffset":214648,
			"target":34962
		},
		{
			"buffer":0,
			"byteLength":6684,
			"byteOffset":242440,
			"target":34963
		},
		{
			"buffer":0,
			"byteLength":1584,
			"byteOffset":249124,
			"target":34962
		},
		{
			"buffer":0,
			"byteLength":1584,
			"byteOffset":250708,
			"target":34962
		},
		{
			"buffer":0,
			"byteLength":1056,
			"byteOffset":252292,
			"target":34962
		},
		{
			"buffer":0,
			"byteLength":528,
			"byteOffset":253348,
			"target":34962
		},
		{
			"buffer":0,
			"byteLength":2112,
			"byteOffset":253876,
			"target":34962
		},
		{
			"buffer":0,
			"byteLength":456,
			"byteOffset":255988,
			"target":34963
		},
		{
			"buffer":0,
			"byteLength":6288,
			"byteOffset":256444,
			"target":34962
		},
		{
			"buffer":0,
			"byteLength":6288,
			"byteOffset":262732,
			"target":34962
		},
		{
			"buffer":0,
			"byteLength":4192,
			"byteOffset":269020,
			"target":34962
		},
		{
			"buffer":0,
			"byteLength":2096,
			"byteOffset":273212,
			"target":34962
		},
		{
			"buffer":0,
			"byteLength":8384,
			"byteOffset":275308,
			"target":34962
		},
		{
			"buffer":0,
			"byteLength":2148,
			"byteOffset":283692,
			"target":34963
		},
		{
			"buffer":0,
			"byteLength":5352,
			"byteOffset":285840,
			"target":34962
		},
		{
			"buffer":0,
			"byteLength":5352,
			"byteOffset":291192,
			"target":34962
		},
		{
			"buffer":0,
			"byteLength":3568,
			"byteOffset":296544,
			"target":34962
		},
		{
			"buffer":0,
			"byteLength":1784,
			"byteOffset":300112,
			"target":34962
		},
		{
			"buffer":0,
			"byteLength":7136,
			"byteOffset":301896,
			"target":34962
		},
		{
			"buffer":0,
			"byteLength":1812,
			"byteOffset":309032,
			"target":34963
		},
		{
			"buffer":0,
			"byteLength":5184,
			"byteOffset":310844,
			"target":34962
		},
		{
			"buffer":0,
			"byteLength":5184,
			"byteOffset":316028,
			"target":34962
		},
		{
			"buffer":0,
			"byteLength":3456,
			"byteOffset":321212,
			"target":34962
		},
		{
			"buffer":0,
			"byteLength":1728,
			"byteOffset":324668,
			"target":34962
		},
		{
			"buffer":0,
			"byteLength":6912,
			"byteOffset":326396,
			"target":34962
		},
		{
			"buffer":0,
			"byteLength":1848,
			"byteOffset":333308,
			"target":34963
		},
		{
			"buffer":0,
			"byteLength":5172,
			"byteOffset":335156,
			"target":34962
		},
		{
			"buffer":0,
			"byteLength":5172,
			"byteOffset":340328,
			"target":34962
		},
		{
			"buffer":0,
			"byteLength":3448,
			"byteOffset":345500,
			"target":34962
		},
		{
			"buffer":0,
			"byteLength":1724,
			"byteOffset":348948,
			"target":34962
		},
		{
			"buffer":0,
			"byteLength":6896,
			"byteOffset":350672,
			"target":34962
		},
		{
			"buffer":0,
			"byteLength":1812,
			"byteOffset":357568,
			"target":34963
		},
		{
			"buffer":0,
			"byteLength":4260,
			"byteOffset":359380,
			"target":34962
		},
		{
			"buffer":0,
			"byteLength":4260,
			"byteOffset":363640,
			"target":34962
		},
		{
			"buffer":0,
			"byteLength":2840,
			"byteOffset":367900,
			"target":34962
		},
		{
			"buffer":0,
			"byteLength":1420,
			"byteOffset":370740,
			"target":34962
		},
		{
			"buffer":0,
			"byteLength":5680,
			"byteOffset":372160,
			"target":34962
		},
		{
			"buffer":0,
			"byteLength":1464,
			"byteOffset":377840,
			"target":34963
		},
		{
			"buffer":0,
			"byteLength":288,
			"byteOffset":379304,
			"target":34962
		},
		{
			"buffer":0,
			"byteLength":288,
			"byteOffset":379592,
			"target":34962
		},
		{
			"buffer":0,
			"byteLength":192,
			"byteOffset":379880,
			"target":34962
		},
		{
			"buffer":0,
			"byteLength":96,
			"byteOffset":380072,
			"target":34962
		},
		{
			"buffer":0,
			"byteLength":384,
			"byteOffset":380168,
			"target":34962
		},
		{
			"buffer":0,
			"byteLength":72,
			"byteOffset":380552,
			"target":34963
		},
		{
			"buffer":0,
			"byteLength":288,
			"byteOffset":380624,
			"target":34962
		},
		{
			"buffer":0,
			"byteLength":288,
			"byteOffset":380912,
			"target":34962
		},
		{
			"buffer":0,
			"byteLength":192,
			"byteOffset":381200,
			"target":34962
		},
		{
			"buffer":0,
			"byteLength":96,
			"byteOffset":381392,
			"target":34962
		},
		{
			"buffer":0,
			"byteLength":384,
			"byteOffset":381488,
			"target":34962
		},
		{
			"buffer":0,
			"byteLength":72,
			"byteOffset":381872,
			"target":34963
		},
		{
			"buffer":0,
			"byteLength":72,
			"byteOffset":381944
		},
		{
			"buffer":0,
			"byteLength":216,
			"byteOffset":382016
		},
		{
			"buffer":0,
			"byteLength":8,
			"byteOffset":382232
		},
		{
			"buffer":0,
			"byteLength":32,
			"byteOffset":382240
		},
		{
			"buffer":0,
			"byteLength":24,
			"byteOffset":382272
		},
		{
			"buffer":0,
			"byteLength":216,
			"byteOffset":382296
		},
		{
			"buffer":0,
			"byteLength":288,
			"byteOffset":382512
		},
		{
			"buffer":0,
			"byteLength":216,
			"byteOffset":382800
		},
		{
			"buffer":0,
			"byteLength":288,
			"byteOffset":383016
		},
		{
			"buffer":0,
			"byteLength":24,
			"byteOffset":383304
		},
		{
			"buffer":0,
			"byteLength":216,
			"byteOffset":383328
		},
		{
			"buffer":0,
			"byteLength":288,
			"byteOffset":383544
		},
		{
			"buffer":0,
			"byteLength":216,
			"byteOffset":383832
		},
		{
			"buffer":0,
			"byteLength":288,
			"byteOffset":384048
		},
		{
			"buffer":0,
			"byteLength":216,
			"byteOffset":384336
		},
		{
			"buffer":0,
			"byteLength":288,
			"byteOffset":384552
		},
		{
			"buffer":0,
			"byteLength":216,
			"byteOffset":384840
		},
		{
			"buffer":0,
			"byteLength":288,
			"byteOffset":385056
		},
		{
			"buffer":0,
			"byteLength":8,
			"byteOffset":385344
		},
		{
			"buffer":0,
			"byteLength":24,
			"byteOffset":385352
		},
		{
			"buffer":0,
			"byteLength":128,
			"byteOffset":385376
		},
		{
			"buffer":0,
			"byteLength":384,
			"byteOffset":385504
		},
		{
			"buffer":0,
			"byteLength":512,
			"byteOffset":385888
		},
		{
			"buffer":0,
			"byteLength":384,
			"byteOffset":386400
		},
		{
			"buffer":0,
			"byteLength":512,
			"byteOffset":386784
		},
		{
			"buffer":0,
			"byteLength":384,
			"byteOffset":387296
		},
		{
			"buffer":0,
			"byteLength":512,
			"byteOffset":387680
		},
		{
			"buffer":0,
			"byteLength":384,
			"byteOffset":388192
		},
		{
			"buffer":0,
			"byteLength":384,
			"byteOffset":388576
		},
		{
			"buffer":0,
			"byteLength":512,
			"byteOffset":388960
		},
		{
			"buffer":0,
			"byteLength":24,
			"byteOffset":389472
		},
		{
			"buffer":0,
			"byteLength":216,
			"byteOffset":389496
		},
		{
			"buffer":0,
			"byteLength":288,
			"byteOffset":389712
		},
		{
			"buffer":0,
			"byteLength":216,
			"byteOffset":390000
		},
		{
			"buffer":0,
			"byteLength":288,
			"byteOffset":390216
		},
		{
			"buffer":0,
			"byteLength":24,
			"byteOffset":390504
		},
		{
			"buffer":0,
			"byteLength":216,
			"byteOffset":390528
		},
		{
			"buffer":0,
			"byteLength":288,
			"byteOffset":390744
		},
		{
			"buffer":0,
			"byteLength":216,
			"byteOffset":391032
		},
		{
			"buffer":0,
			"byteLength":288,
			"byteOffset":391248
		},
		{
			"buffer":0,
			"byteLength":24,
			"byteOffset":391536
		},
		{
			"buffer":0,
			"byteLength":216,
			"byteOffset":391560
		},
		{
			"buffer":0,
			"byteLength":288,
			"byteOffset":391776
		},
		{
			"buffer":0,
			"byteLength":216,
			"byteOffset":392064
		},
		{
			"buffer":0,
			"byteLength":288,
			"byteOffset":392280
		},
		{
			"buffer":0,
			"byteLength":216,
			"byteOffset":392568
		},
		{
			"buffer":0,
			"byteLength":288,
			"byteOffset":392784
		},
		{
			"buffer":0,
			"byteLength":64,
			"byteOffset":393072
		},
		{
			"buffer":0,
			"byteLength":192,
			"byteOffset":393136
		},
		{
			"buffer":0,
			"byteLength":256,
			"byteOffset":393328
		},
		{
			"buffer":0,
			"byteLength":8,
			"byteOffset":393584
		},
		{
			"buffer":0,
			"byteLength":192,
			"byteOffset":393592
		},
		{
			"buffer":0,
			"byteLength":256,
			"byteOffset":393784
		},
		{
			"buffer":0,
			"byteLength":24,
			"byteOffset":394040
		},
		{
			"buffer":0,
			"byteLength":192,
			"byteOffset":394064
		},
		{
			"buffer":0,
			"byteLength":256,
			"byteOffset":394256
		},
		{
			"buffer":0,
			"byteLength":192,
			"byteOffset":394512
		},
		{
			"buffer":0,
			"byteLength":256,
			"byteOffset":394704
		},
		{
			"buffer":0,
			"byteLength":192,
			"byteOffset":394960
		},
		{
			"buffer":0,
			"byteLength":256,
			"byteOffset":395152
		},
		{
			"buffer":0,
			"byteLength":192,
			"byteOffset":395408
		},
		{
			"buffer":0,
			"byteLength":256,
			"byteOffset":395600
		},
		{
			"buffer":0,
			"byteLength":192,
			"byteOffset":395856
		},
		{
			"buffer":0,
			"byteLength":256,
			"byteOffset":396048
		}
	],
	"samplers":[
		{
			"magFilter":9728,
			"minFilter":9984
		}
	],
	"buffers":[
		{
			"byteLength":396304,
			"uri":"ferrule.bin"
		}
	]
}
