{"asset":{"version":"2.0","generator":"THREE.GLTFExporter"},"scenes":[{"name":"default","nodes":[0]}],"scene":0,"nodes":[{"mesh":0}],"bufferViews":[{"buffer":0,"byteOffset":0,"byteLength":150048,"target":34962,"byteStride":12},{"buffer":0,"byteOffset":150048,"byteLength":150048,"target":34962,"byteStride":12},{"buffer":0,"byteOffset":300096,"byteLength":100032,"target":34962,"byteStride":8},{"buffer":0,"byteOffset":400128,"byteLength":5568,"target":34963},{"buffer":0,"byteOffset":405696,"byteLength":36,"target":34963},{"buffer":0,"byteOffset":405732,"byteLength":1836,"target":34963},{"buffer":0,"byteOffset":407568,"byteLength":384,"target":34963},{"buffer":0,"byteOffset":407952,"byteLength":2880,"target":34963},{"buffer":0,"byteOffset":410832,"byteLength":384,"target":34963},{"buffer":0,"byteOffset":411216,"byteLength":960,"target":34963},{"buffer":0,"byteOffset":412176,"byteLength":8208,"target":34963},{"buffer":0,"byteOffset":420384,"byteLength":4752,"target":34963}],"buffers":[{"byteLength":425136,"uri":"data:application/octet-stream;base64,"}],"accessors":[{"bufferView":0,"componentType":5126,"count":12504,"max":[7,5.0625,12.125],"min":[-8.881784197001252e-16,0,0],"type":"VEC3"},{"bufferView":1,"componentType":5126,"count":12504,"max":[1,1,1],"min":[-1,-1,-1],"type":"VEC3"},{"bufferView":2,"componentType":5126,"count":12504,"max":[2.125,1.9375],"min":[0,0],"type":"VEC2"},{"bufferView":3,"componentType":5123,"count":2784,"max":[2783],"min":[0],"type":"SCALAR"},{"bufferView":4,"componentType":5123,"count":18,"max":[2801],"min":[2784],"type":"SCALAR"},{"bufferView":5,"componentType":5123,"count":918,"max":[3719],"min":[2802],"type":"SCALAR"},{"bufferView":6,"componentType":5123,"count":192,"max":[3911],"min":[3720],"type":"SCALAR"},{"bufferView":7,"componentType":5123,"count":1440,"max":[5351],"min":[3912],"type":"SCALAR"},{"bufferView":8,"componentType":5123,"count":192,"max":[5543],"min":[5352],"type":"SCALAR"},{"bufferView":9,"componentType":5123,"count":480,"max":[6023],"min":[5544],"type":"SCALAR"},{"bufferView":10,"componentType":5123,"count":4104,"max":[10127],"min":[6024],"type":"SCALAR"},{"bufferView":11,"componentType":5123,"count":2376,"max":[12503],"min":[10128],"type":"SCALAR"}],"materials":[{"pbrMetallicRoughness":{"metallicFactor":0,"roughnessFactor":1,"baseColorTexture":{"index":0}},"alphaMode":"MASK","alphaCutoff":0.01,"doubleSided":true,"name":"aster-sim-room-hi-res_1","emissiveTexture":{"index":9},"emissiveFactor":[0.6078431372549019,0.8431372549019608,1.0],"extensions":{"KHR_materials_emissive_strength":{"emissiveStrength":2.5}},"normalTexture":{"index":11,"scale":1.0}},{"pbrMetallicRoughness":{"metallicFactor":0,"roughnessFactor":1,"baseColorTexture":{"index":1}},"alphaMode":"MASK","alphaCutoff":0.01,"name":"aster-sim-room-hi-res_scale_model"},{"pbrMetallicRoughness":{"metallicFactor":0,"roughnessFactor":1,"baseColorTexture":{"index":2}},"alphaMode":"MASK","alphaCutoff":0.01,"name":"aster-sim-room-hi-res_6"},{"pbrMetallicRoughness":{"metallicFactor":0,"roughnessFactor":1,"baseColorTexture":{"index":3}},"alphaMode":"MASK","alphaCutoff":0.01,"name":"aster-sim-room-hi-res_2"},{"pbrMetallicRoughness":{"metallicFactor":0,"roughnessFactor":1,"baseColorTexture":{"index":4}},"alphaMode":"BLEND","name":"aster-sim-room-hi-res_3"},{"pbrMetallicRoughness":{"metallicFactor":0,"roughnessFactor":1,"baseColorTexture":{"index":5}},"alphaMode":"MASK","alphaCutoff":0.01,"name":"aster-sim-room-hi-res_4"},{"pbrMetallicRoughness":{"metallicFactor":0,"roughnessFactor":1,"baseColorTexture":{"index":6}},"alphaMode":"MASK","alphaCutoff":0.01,"name":"aster-sim-room-hi-res_5"},{"pbrMetallicRoughness":{"metallicFactor":0,"roughnessFactor":1,"baseColorTexture":{"index":7}},"alphaMode":"MASK","alphaCutoff":0.01,"name":"aster-sim-room-hi-res_7"},{"pbrMetallicRoughness":{"metallicFactor":0,"roughnessFactor":1,"baseColorTexture":{"index":8}},"alphaMode":"MASK","alphaCutoff":0.01,"name":"aster-sim-room-hi-res_8","emissiveTexture":{"index":10},"emissiveFactor":[0.6078431372549019,0.8431372549019608,1.0],"extensions":{"KHR_materials_emissive_strength":{"emissiveStrength":2.5}}}],"textures":[{"sampler":0,"source":0,"name":"aster-sim-room-hi-res_1"},{"sampler":1,"source":1,"name":"aster-sim-room-hi-res_scale_model"},{"sampler":2,"source":2,"name":"aster-sim-room-hi-res_6"},{"sampler":3,"source":3,"name":"aster-sim-room-hi-res_2"},{"sampler":4,"source":4,"name":"aster-sim-room-hi-res_3"},{"sampler":5,"source":5,"name":"aster-sim-room-hi-res_4"},{"sampler":6,"source":6,"name":"aster-sim-room-hi-res_5"},{"sampler":7,"source":7,"name":"aster-sim-room-hi-res_7"},{"sampler":8,"source":8,"name":"aster-sim-room-hi-res_8"},{"sampler":0,"source":9,"name":"aster-sim-room-hi-res_1_emissive"},{"sampler":8,"source":10,"name":"aster-sim-room-hi-res_8_emissive"},{"sampler":0,"source":11,"name":"aster-sim-room-hi-res_1_normals"}],"samplers":[{"magFilter":9728,"minFilter":9728,"wrapS":10497,"wrapT":10497},{"magFilter":9728,"minFilter":9728,"wrapS":33071,"wrapT":33071},{"magFilter":9728,"minFilter":9728,"wrapS":33071,"wrapT":33071},{"magFilter":9728,"minFilter":9728,"wrapS":33071,"wrapT":33071},{"magFilter":9728,"minFilter":9728,"wrapS":33071,"wrapT":33071},{"magFilter":9728,"minFilter":9728,"wrapS":33071,"wrapT":33071},{"magFilter":9728,"minFilter":9728,"wrapS":33071,"wrapT":33071},{"magFilter":9728,"minFilter":9728,"wrapS":33071,"wrapT":33071},{"magFilter":9728,"minFilter":9728,"wrapS":33071,"wrapT":33071}],"images":[{"mimeType":"image/png","uri":"aster-sim-room-hi-res_1.png"},{"mimeType":"image/png","uri":"aster-sim-room-hi-res_scale_model.png"},{"mimeType":"image/png","uri":"aster-sim-room-hi-res_6.png"},{"mimeType":"image/png","uri":"aster-sim-room-hi-res_2.png"},{"mimeType":"image/png","uri":"aster-sim-room-hi-res_3.png"},{"mimeType":"image/png","uri":"aster-sim-room-hi-res_4.png"},{"mimeType":"image/png","uri":"aster-sim-room-hi-res_5.png"},{"mimeType":"image/png","uri":"aster-sim-room-hi-res_7.png"},{"mimeType":"image/png","uri":"aster-sim-room-hi-res_8.png"},{"mimeType":"image/png","uri":"aster-sim-room-hi-res_1_emissive.png"},{"mimeType":"image/png","uri":"aster-sim-room-hi-res_8_emissive.png"},{"mimeType":"image/png","uri":"aster-sim-room-hi-res_1_normals.png"}],"meshes":[{"primitives":[{"mode":4,"attributes":{"POSITION":0,"NORMAL":1,"TEXCOORD_0":2},"indices":3,"material":0},{"mode":4,"attributes":{"POSITION":0,"NORMAL":1,"TEXCOORD_0":2},"indices":4,"material":1},{"mode":4,"attributes":{"POSITION":0,"NORMAL":1,"TEXCOORD_0":2},"indices":5,"material":2},{"mode":4,"attributes":{"POSITION":0,"NORMAL":1,"TEXCOORD_0":2},"indices":6,"material":3},{"mode":4,"attributes":{"POSITION":0,"NORMAL":1,"TEXCOORD_0":2},"indices":7,"material":4},{"mode":4,"attributes":{"POSITION":0,"NORMAL":1,"TEXCOORD_0":2},"indices":8,"material":5},{"mode":4,"attributes":{"POSITION":0,"NORMAL":1,"TEXCOORD_0":2},"indices":9,"material":6},{"mode":4,"attributes":{"POSITION":0,"NORMAL":1,"TEXCOORD_0":2},"indices":10,"material":7},{"mode":4,"attributes":{"POSITION":0,"NORMAL":1,"TEXCOORD_0":2},"indices":11,"material":8}]}],"extensionsUsed":["KHR_materials_emissive_strength"]}