{"asset":{"version":"2.0","generator":"THREE.GLTFExporter"},"scenes":[{"name":"default","nodes":[0]}],"scene":0,"nodes":[{"name":"chair","extras":{"data":{"name":"chair","points":[{"name":"Origin","pos":{"x":0,"y":0,"z":0}}],"billboard":{"enabled":false,"y":false,"snap":false,"snapAngle":45},"directional":{"enabled":false,"mode":"cameraAngle","angles":[]},"custom":[],"instances":[]}},"mesh":0}],"bufferViews":[{"buffer":0,"byteOffset":0,"byteLength":936,"target":34962,"byteStride":12},{"buffer":0,"byteOffset":936,"byteLength":936,"target":34962,"byteStride":12},{"buffer":0,"byteOffset":1872,"byteLength":624,"target":34962,"byteStride":8},{"buffer":0,"byteOffset":2496,"byteLength":156,"target":34963}],"buffers":[{"byteLength":2652,"uri":"data:application/octet-stream;base64,"}],"accessors":[{"bufferView":0,"componentType":5126,"count":78,"max":[1.25,0.6875,1],"min":[-0.1875,-1.4375,-1],"type":"VEC3"},{"bufferView":1,"componentType":5126,"count":78,"max":[0.9497519731521606,1,0.9906113147735596],"min":[-0.9497519731521606,-1,-0.4740998148918152],"type":"VEC3"},{"bufferView":2,"componentType":5126,"count":78,"max":[0.3125,0.75],"min":[0.0625,0.5625],"type":"VEC2"},{"bufferView":3,"componentType":5123,"count":78,"max":[77],"min":[0],"type":"SCALAR"}],"materials":[{"pbrMetallicRoughness":{"metallicFactor":0,"roughnessFactor":1,"baseColorTexture":{"index":0}},"alphaMode":"MASK","alphaCutoff":0.01,"doubleSided":true,"name":"aster-sim-room-hi-res_1","emissiveTexture":{"index":1},"emissiveFactor":[0.6078431372549019,0.8431372549019608,1.0],"extensions":{"KHR_materials_emissive_strength":{"emissiveStrength":2.5}},"normalTexture":{"index":2,"scale":1.0}}],"textures":[{"sampler":0,"source":0,"name":"aster-sim-room-hi-res_1"},{"sampler":0,"source":1,"name":"aster-sim-room-hi-res_1_emissive"},{"sampler":0,"source":2,"name":"aster-sim-room-hi-res_1_normal"}],"samplers":[{"magFilter":9728,"minFilter":9728,"wrapS":10497,"wrapT":10497}],"images":[{"mimeType":"image/png","uri":"aster-sim-room-hi-res_1.png"},{"mimeType":"image/png","uri":"aster-sim-room-hi-res_1_emissive.png"},{"mimeType":"image/png","uri":"aster-sim-room-hi-res_1_normals.png"}],"meshes":[{"primitives":[{"mode":4,"attributes":{"POSITION":0,"NORMAL":1,"TEXCOORD_0":2},"indices":3,"material":0}]}],"extensionsUsed":["KHR_materials_emissive_strength"]}