{"asset":{"version":"2.0","generator":"THREE.GLTFExporter"},"scenes":[{"name":"default","nodes":[0]}],"scene":0,"nodes":[{"name":"glass_bead_game","extras":{"data":{"name":"glass_bead_game","points":[{"name":"Origin","pos":{"x":0,"y":0,"z":0}}],"billboard":{"enabled":false,"y":false,"snap":false,"snapAngle":45},"directional":{"enabled":false,"mode":"cameraAngle","angles":[]},"custom":[],"instances":[{"name":"glass_bead_game","uuid":"845D6779-78BA-42CB-A14A-7D98B6D3FCD7","parent":null,"pos":{"x":6.125,"y":0.19,"z":9.5},"rot":{"x":0,"y":0,"z":0,"order":"XYZ"},"sca":{"x":1,"y":1,"z":1},"custom":[]}]}},"mesh":0}],"bufferViews":[{"buffer":0,"byteOffset":0,"byteLength":38664,"target":34962,"byteStride":12},{"buffer":0,"byteOffset":38664,"byteLength":38664,"target":34962,"byteStride":12},{"buffer":0,"byteOffset":77328,"byteLength":25776,"target":34962,"byteStride":8},{"buffer":0,"byteOffset":103104,"byteLength":1836,"target":34963},{"buffer":0,"byteOffset":104940,"byteLength":960,"target":34963},{"buffer":0,"byteOffset":105900,"byteLength":384,"target":34963},{"buffer":0,"byteOffset":106284,"byteLength":2880,"target":34963},{"buffer":0,"byteOffset":109164,"byteLength":384,"target":34963}],"buffers":[{"byteLength":109548,"uri":"data:application/octet-stream;base64,"}],"accessors":[{"bufferView":0,"componentType":5126,"count":3222,"max":[0.5,1.2312500476837158,0.5],"min":[-0.5,0,-0.5],"type":"VEC3"},{"bufferView":1,"componentType":5126,"count":3222,"max":[1,1,1],"min":[-1,-1,-1],"type":"VEC3"},{"bufferView":2,"componentType":5126,"count":3222,"max":[2.125,1.9375],"min":[0,0],"type":"VEC2"},{"bufferView":3,"componentType":5123,"count":918,"max":[917],"min":[0],"type":"SCALAR"},{"bufferView":4,"componentType":5123,"count":480,"max":[1397],"min":[918],"type":"SCALAR"},{"bufferView":5,"componentType":5123,"count":192,"max":[1589],"min":[1398],"type":"SCALAR"},{"bufferView":6,"componentType":5123,"count":1440,"max":[3029],"min":[1590],"type":"SCALAR"},{"bufferView":7,"componentType":5123,"count":192,"max":[3221],"min":[3030],"type":"SCALAR"}],"materials":[{"pbrMetallicRoughness":{"metallicFactor":0,"roughnessFactor":1,"baseColorTexture":{"index":0}},"alphaMode":"MASK","alphaCutoff":0.01,"name":"aster-sim-room-hi-res_6"},{"pbrMetallicRoughness":{"metallicFactor":0,"roughnessFactor":1,"baseColorTexture":{"index":1}},"alphaMode":"MASK","alphaCutoff":0.01,"name":"aster-sim-room-hi-res_5"},{"pbrMetallicRoughness":{"metallicFactor":0,"roughnessFactor":1,"baseColorTexture":{"index":2}},"alphaMode":"MASK","alphaCutoff":0.01,"name":"aster-sim-room-hi-res_4"},{"pbrMetallicRoughness":{"metallicFactor":0,"roughnessFactor":1,"baseColorTexture":{"index":3}},"alphaMode":"BLEND","name":"aster-sim-room-hi-res_3"},{"pbrMetallicRoughness":{"metallicFactor":0,"roughnessFactor":1,"baseColorTexture":{"index":4}},"alphaMode":"MASK","alphaCutoff":0.01,"name":"aster-sim-room-hi-res_2"}],"textures":[{"sampler":0,"source":0,"name":"aster-sim-room-hi-res_6"},{"sampler":1,"source":1,"name":"aster-sim-room-hi-res_5"},{"sampler":2,"source":2,"name":"aster-sim-room-hi-res_4"},{"sampler":3,"source":3,"name":"aster-sim-room-hi-res_3"},{"sampler":4,"source":4,"name":"aster-sim-room-hi-res_2"}],"samplers":[{"magFilter":9728,"minFilter":9728,"wrapS":33071,"wrapT":33071},{"magFilter":9728,"minFilter":9728,"wrapS":33071,"wrapT":33071},{"magFilter":9728,"minFilter":9728,"wrapS":33071,"wrapT":33071},{"magFilter":9728,"minFilter":9728,"wrapS":33071,"wrapT":33071},{"magFilter":9728,"minFilter":9728,"wrapS":33071,"wrapT":33071}],"images":[{"mimeType":"image/png","uri":"aster-sim-room-hi-res_6.png"},{"mimeType":"image/png","uri":"aster-sim-room-hi-res_5.png"},{"mimeType":"image/png","uri":"aster-sim-room-hi-res_4.png"},{"mimeType":"image/png","uri":"aster-sim-room-hi-res_3.png"},{"mimeType":"image/png","uri":"aster-sim-room-hi-res_2.png"}],"meshes":[{"primitives":[{"mode":4,"attributes":{"POSITION":0,"NORMAL":1,"TEXCOORD_0":2},"indices":3,"material":0},{"mode":4,"attributes":{"POSITION":0,"NORMAL":1,"TEXCOORD_0":2},"indices":4,"material":1},{"mode":4,"attributes":{"POSITION":0,"NORMAL":1,"TEXCOORD_0":2},"indices":5,"material":2},{"mode":4,"attributes":{"POSITION":0,"NORMAL":1,"TEXCOORD_0":2},"indices":6,"material":3},{"mode":4,"attributes":{"POSITION":0,"NORMAL":1,"TEXCOORD_0":2},"indices":7,"material":4}]}]}