{"asset":{"version":"2.0","generator":"THREE.GLTFExporter"},"scenes":[{"name":"default","nodes":[0]}],"scene":0,"nodes":[{"name":"j-store","extras":{"data":{"name":"j-store","points":[{"name":"Origin","pos":{"x":0,"y":0,"z":0}}],"billboard":{"enabled":false,"y":false,"snap":false,"snapAngle":45},"directional":{"enabled":false,"mode":"cameraAngle","angles":[]},"custom":[],"instances":[{"name":"j-store","uuid":"188363B1-E625-4090-87E1-259586DB85F5","parent":null,"pos":{"x":1.935,"y":1.065,"z":0.5650000000000001},"rot":{"x":-3.141592653589793,"y":1.2246467991473532e-16,"z":-3.141592653589793,"order":"XYZ"},"sca":{"x":1,"y":1,"z":1},"custom":[]},{"name":"j-store","uuid":"F0FC1008-3FE1-46FE-8BAF-4CAE56A3AA40","parent":null,"pos":{"x":1.625,"y":1.065,"z":0.5650000000000001},"rot":{"x":-3.141592653589793,"y":-0.261799387799149,"z":-3.141592653589793,"order":"XYZ"},"sca":{"x":1,"y":1,"z":1},"custom":[]},{"name":"j-store","uuid":"E467CAA5-5B19-4BC9-AD7B-0827A8BD20BC","parent":null,"pos":{"x":1.375,"y":1.25,"z":0.6900000000000001},"rot":{"x":-3.141592653589793,"y":0.2617993877991495,"z":1.5707963267948963,"order":"XYZ"},"sca":{"x":1,"y":1,"z":1},"custom":[]},{"name":"j-store","uuid":"FA141913-0270-4C1D-A589-1D5B647EA1AC","parent":null,"pos":{"x":2.31,"y":1.065,"z":0.5650000000000001},"rot":{"x":3.0723531592578976,"y":-0.25268025514207887,"z":2.870995238467567,"order":"XYZ"},"sca":{"x":1,"y":1,"z":1},"custom":[]},{"name":"j-store","uuid":"76445248-5F3B-4D39-AF27-29A7D41F4703","parent":null,"pos":{"x":2.06,"y":0.25,"z":0.5},"rot":{"x":3.141592653589793,"y":-0.5235987755982991,"z":1.5707963267948966,"order":"XYZ"},"sca":{"x":1,"y":1,"z":1},"custom":[]},{"name":"j-store","uuid":"D67240C0-3B30-4468-9B53-3EBF8D7A1035","parent":null,"pos":{"x":2.38,"y":0.105,"z":0.5650000000000001},"rot":{"x":-3.0723531592578976,"y":-0.252680255142078,"z":-2.8709952384675668,"order":"XYZ"},"sca":{"x":1,"y":1,"z":1},"custom":[]},{"name":"j-store","uuid":"0651A5DD-B3E5-439B-9617-62262E1C3CDC","parent":null,"pos":{"x":2.68,"y":0.085,"z":0.6900000000000001},"rot":{"x":3.0723531592578976,"y":0.25268025514207887,"z":-2.8709952384675668,"order":"XYZ"},"sca":{"x":1,"y":1,"z":1},"custom":[]},{"name":"j-store","uuid":"B056DAC0-FA22-4C3E-B5B0-2E80D7A4A3A3","parent":null,"pos":{"x":3.125,"y":0.25,"z":0.75},"rot":{"x":3.141592653589793,"y":0.785398163397448,"z":1.5707963267948966,"order":"XYZ"},"sca":{"x":1,"y":1,"z":1},"custom":[]}]}},"mesh":0}],"bufferViews":[{"buffer":0,"byteOffset":0,"byteLength":3168,"target":34962,"byteStride":12},{"buffer":0,"byteOffset":3168,"byteLength":3168,"target":34962,"byteStride":12},{"buffer":0,"byteOffset":6336,"byteLength":2112,"target":34962,"byteStride":8},{"buffer":0,"byteOffset":8448,"byteLength":528,"target":34963}],"buffers":[{"byteLength":8976,"uri":"data:application/octet-stream;base64,"}],"accessors":[{"bufferView":0,"componentType":5126,"count":264,"max":[0.125,0.5,0.25],"min":[-0.125,0,-0.25],"type":"VEC3"},{"bufferView":1,"componentType":5126,"count":264,"max":[1,1,1],"min":[-1,-1,-1],"type":"VEC3"},{"bufferView":2,"componentType":5126,"count":264,"max":[0.5505625009536743,0.5625],"min":[0,0],"type":"VEC2"},{"bufferView":3,"componentType":5123,"count":264,"max":[263],"min":[0],"type":"SCALAR"}],"materials":[{"pbrMetallicRoughness":{"metallicFactor":0,"roughnessFactor":1,"baseColorTexture":{"index":0}},"alphaMode":"MASK","alphaCutoff":0.01,"name":"aster-sim-room-hi-res_8","emissiveTexture":{"index":1},"emissiveFactor":[0.6078431372549019,0.8431372549019608,1.0],"extensions":{"KHR_materials_emissive_strength":{"emissiveStrength":2.5}}}],"textures":[{"sampler":0,"source":0,"name":"aster-sim-room-hi-res_8"},{"sampler":0,"source":1,"name":"aster-sim-room-hi-res_8_emissive"}],"samplers":[{"magFilter":9728,"minFilter":9728,"wrapS":33071,"wrapT":33071}],"images":[{"mimeType":"image/png","uri":"aster-sim-room-hi-res_8.png"},{"mimeType":"image/png","uri":"aster-sim-room-hi-res_8_emissive.png"}],"meshes":[{"primitives":[{"mode":4,"attributes":{"POSITION":0,"NORMAL":1,"TEXCOORD_0":2},"indices":3,"material":0}]}],"extensionsUsed":["KHR_materials_emissive_strength"]}