{"asset":{"version":"2.0","generator":"THREE.GLTFExporter"},"scenes":[{"name":"default","nodes":[0]}],"scene":0,"nodes":[{"name":"mug","extras":{"data":{"name":"mug","points":[{"name":"Origin","pos":{"x":0,"y":0,"z":0}}],"billboard":{"enabled":false,"y":false,"snap":false,"snapAngle":45},"directional":{"enabled":false,"mode":"cameraAngle","angles":[]},"custom":[],"instances":[{"name":"mug","uuid":"0A31A6D0-3353-4842-A294-DDAF7A0424D0","parent":null,"pos":{"x":2.94,"y":2,"z":0.5},"rot":{"x":-1.7319121124709878e-16,"y":0.7853981633974485,"z":2.449293598294707e-16,"order":"XYZ"},"sca":{"x":1,"y":1,"z":1},"custom":[]},{"name":"mug","uuid":"BEE0B73A-0124-42DB-8BE8-8CB0E986FA8F","parent":null,"pos":{"x":2.5,"y":2,"z":0.75},"rot":{"x":-3.141592653589793,"y":-0.7853981633974484,"z":-3.141592653589793,"order":"XYZ"},"sca":{"x":1,"y":1,"z":1},"custom":[]},{"name":"mug","uuid":"384C5952-A150-4926-AE27-67F307340661","parent":null,"pos":{"x":2.1350000000000002,"y":2.125,"z":0.55},"rot":{"x":2.186276035465284,"y":0.5235987755982986,"z":2.1862760354652844,"order":"XYZ"},"sca":{"x":1,"y":1,"z":1},"custom":[]}]}},"mesh":0}],"bufferViews":[{"buffer":0,"byteOffset":0,"byteLength":16416,"target":34962,"byteStride":12},{"buffer":0,"byteOffset":16416,"byteLength":16416,"target":34962,"byteStride":12},{"buffer":0,"byteOffset":32832,"byteLength":10944,"target":34962,"byteStride":8},{"buffer":0,"byteOffset":43776,"byteLength":2736,"target":34963}],"buffers":[{"byteLength":46512,"uri":"data:application/octet-stream;base64,"}],"accessors":[{"bufferView":0,"componentType":5126,"count":1368,"max":[0.125,0.25,0.125],"min":[-0.125,0,-0.21875],"type":"VEC3"},{"bufferView":1,"componentType":5126,"count":1368,"max":[1,1,1],"min":[-1,-1,-1],"type":"VEC3"},{"bufferView":2,"componentType":5126,"count":1368,"max":[0.71875,0.7208249568939209],"min":[0,0],"type":"VEC2"},{"bufferView":3,"componentType":5123,"count":1368,"max":[1367],"min":[0],"type":"SCALAR"}],"materials":[{"pbrMetallicRoughness":{"metallicFactor":0,"roughnessFactor":1,"baseColorTexture":{"index":0}},"alphaMode":"MASK","alphaCutoff":0.01,"name":"aster-sim-room-hi-res_7"}],"textures":[{"sampler":0,"source":0,"name":"aster-sim-room-hi-res_7"}],"samplers":[{"magFilter":9728,"minFilter":9728,"wrapS":33071,"wrapT":33071}],"images":[{"mimeType":"image/png","uri":"aster-sim-room-hi-res_7.png"}],"meshes":[{"primitives":[{"mode":4,"attributes":{"POSITION":0,"NORMAL":1,"TEXCOORD_0":2},"indices":3,"material":0}]}]}