{"asset":{"version":"2.0","generator":"THREE.GLTFExporter"},"scenes":[{"name":"default","nodes":[0]}],"scene":0,"nodes":[{"name":"Painting 1","extras":{"data":{"name":"Painting 1","points":[{"name":"Origin","pos":{"x":0,"y":0,"z":0}}],"billboard":{"enabled":false,"y":false,"snap":false,"snapAngle":45},"directional":{"enabled":false,"mode":"cameraAngle","angles":[]},"custom":[],"instances":[{"name":"Painting 1","uuid":"ACDB41A1-E44B-4996-A802-20336C1391F8","parent":null,"pos":{"x":6.94,"y":0.315,"z":0.935},"rot":{"x":0,"y":0,"z":0,"order":"XYZ"},"sca":{"x":1,"y":1,"z":1},"custom":[]}]}},"mesh":0}],"bufferViews":[{"buffer":0,"byteOffset":0,"byteLength":288,"target":34962,"byteStride":12},{"buffer":0,"byteOffset":288,"byteLength":288,"target":34962,"byteStride":12},{"buffer":0,"byteOffset":576,"byteLength":192,"target":34962,"byteStride":8},{"buffer":0,"byteOffset":768,"byteLength":48,"target":34963}],"buffers":[{"byteLength":816,"uri":"data:application/octet-stream;base64,"}],"accessors":[{"bufferView":0,"componentType":5126,"count":24,"max":[0,3,3],"min":[0,1,1],"type":"VEC3"},{"bufferView":1,"componentType":5126,"count":24,"max":[-1,0,0],"min":[-1,0,0],"type":"VEC3"},{"bufferView":2,"componentType":5126,"count":24,"max":[0.375,0.125],"min":[0.25,0],"type":"VEC2"},{"bufferView":3,"componentType":5123,"count":24,"max":[23],"min":[0],"type":"SCALAR"}],"materials":[{"pbrMetallicRoughness":{"metallicFactor":0,"roughnessFactor":1,"baseColorTexture":{"index":0}},"alphaMode":"MASK","alphaCutoff":0.01,"doubleSided":true,"name":"aster-sim-room-hi-res_1","emissiveTexture":{"index":1},"emissiveFactor":[0.6078431372549019,0.8431372549019608,1.0],"extensions":{"KHR_materials_emissive_strength":{"emissiveStrength":2.5}},"normalTexture":{"index":2,"scale":1.0}}],"textures":[{"sampler":0,"source":0,"name":"aster-sim-room-hi-res_1"},{"sampler":0,"source":1,"name":"aster-sim-room-hi-res_1_emissive"},{"sampler":0,"source":2,"name":"aster-sim-room-hi-res_1_normal"}],"samplers":[{"magFilter":9728,"minFilter":9728,"wrapS":10497,"wrapT":10497}],"images":[{"mimeType":"image/png","uri":"aster-sim-room-hi-res_1.png"},{"mimeType":"image/png","uri":"aster-sim-room-hi-res_1_emissive.png"},{"mimeType":"image/png","uri":"aster-sim-room-hi-res_1_normals.png"}],"meshes":[{"primitives":[{"mode":4,"attributes":{"POSITION":0,"NORMAL":1,"TEXCOORD_0":2},"indices":3,"material":0}]}],"extensionsUsed":["KHR_materials_emissive_strength"]}