{"asset":{"version":"2.0","generator":"THREE.GLTFExporter"},"scenes":[{"name":"default","nodes":[0]}],"scene":0,"nodes":[{"name":"Room","extras":{"data":{"name":"Room","points":[{"name":"Origin","pos":{"x":0,"y":0,"z":0}}],"billboard":{"enabled":false,"y":false,"snap":false,"snapAngle":45},"directional":{"enabled":false,"mode":"cameraAngle","angles":[{"suffix":"_S","angle":0,"enabled":true,"min":-22.5,"max":22.5},{"suffix":"_SW","angle":45,"enabled":true,"min":22.5,"max":67.5},{"suffix":"_W","angle":90,"enabled":true,"min":67.5,"max":112.5},{"suffix":"_NW","angle":135,"enabled":true,"min":112.5,"max":157.5},{"suffix":"_N","angle":180,"enabled":true,"min":157.5,"max":202.5},{"suffix":"_NE","angle":225,"enabled":true,"min":202.5,"max":247.5},{"suffix":"_E","angle":270,"enabled":true,"min":247.5,"max":292.5},{"suffix":"_SE","angle":315,"enabled":true,"min":292.5,"max":337.5}]},"custom":[],"instances":[{"name":"Room","uuid":"A8A7F76B-E8E2-406D-85A5-0C690CF07EF2","parent":null,"pos":{"x":6.25,"y":3.065,"z":0},"rot":{"x":0,"y":0,"z":0,"order":"XYZ"},"sca":{"x":1,"y":1,"z":1},"custom":[]}]}},"mesh":0}],"bufferViews":[{"buffer":0,"byteOffset":0,"byteLength":18288,"target":34962,"byteStride":12},{"buffer":0,"byteOffset":18288,"byteLength":18288,"target":34962,"byteStride":12},{"buffer":0,"byteOffset":36576,"byteLength":12192,"target":34962,"byteStride":8},{"buffer":0,"byteOffset":48768,"byteLength":3048,"target":34963}],"buffers":[{"byteLength":51816,"uri":"data:application/octet-stream;base64,"}],"accessors":[{"bufferView":0,"componentType":5126,"count":1524,"max":[0.75,2,14.125],"min":[-6.25,-3,0],"type":"VEC3"},{"bufferView":1,"componentType":5126,"count":1524,"max":[0,1,1],"min":[-1,-0.7071067690849304,-1],"type":"VEC3"},{"bufferView":2,"componentType":5126,"count":1524,"max":[1,1],"min":[0,0],"type":"VEC2"},{"bufferView":3,"componentType":5123,"count":1524,"max":[1523],"min":[0],"type":"SCALAR"}],"materials":[{"pbrMetallicRoughness":{"metallicFactor":0,"roughnessFactor":1,"baseColorTexture":{"index":0}},"alphaMode":"MASK","alphaCutoff":0.01,"doubleSided":true,"name":"aster-sim-room-hi-res_1","emissiveTexture":{"index":1},"emissiveFactor":[0.6078431372549019,0.8431372549019608,1.0],"extensions":{"KHR_materials_emissive_strength":{"emissiveStrength":2.5}},"normalTexture":{"index":2,"scale":1.0}}],"textures":[{"sampler":0,"source":0,"name":"aster-sim-room-hi-res_1"},{"sampler":0,"source":1,"name":"aster-sim-room-hi-res_1_emissive"},{"sampler":0,"source":2,"name":"aster-sim-room-hi-res_1_normal"}],"samplers":[{"magFilter":9728,"minFilter":9728,"wrapS":10497,"wrapT":10497}],"images":[{"mimeType":"image/png","uri":"aster-sim-room-hi-res_1.png"},{"mimeType":"image/png","uri":"aster-sim-room-hi-res_1_emissive.png"},{"mimeType":"image/png","uri":"aster-sim-room-hi-res_1_normals.png"}],"meshes":[{"primitives":[{"mode":4,"attributes":{"POSITION":0,"NORMAL":1,"TEXCOORD_0":2},"indices":3,"material":0}]}],"extensionsUsed":["KHR_materials_emissive_strength"]}