{
	"asset":{
		"generator":"Khronos glTF Blender I/O v5.1.19",
		"version":"2.0"
	},
	"extensionsUsed":[
		"KHR_materials_emissive_strength"
	],
	"scene":0,
	"scenes":[
		{
			"name":"Scene",
			"nodes":[
				5,
				12,
				18,
				21,
				24,
				27,
				32,
				35,
				38,
				44,
				48,
				58,
				68,
				75,
				76,
				77,
				78
			]
		}
	],
	"nodes":[
		{
			"mesh":0,
			"name":"PC_body",
			"translation":[
				0,
				0.11000001430511475,
				0
			]
		},
		{
			"mesh":1,
			"name":"PC_ear",
			"rotation":[
				0,
				0,
				-0.3826834559440613,
				0.9238795638084412
			],
			"translation":[
				-0.059999942779541016,
				0.3199999928474426,
				0.019999980926513672
			]
		},
		{
			"mesh":2,
			"name":"PC_ear.001",
			"rotation":[
				0,
				0,
				-0.3826834559440613,
				0.9238795638084412
			],
			"translation":[
				0.060000061988830566,
				0.3199999928474426,
				0.019999980926513672
			]
		},
		{
			"mesh":3,
			"name":"PC_head",
			"translation":[
				0,
				0.2500000596046448,
				0.019999980926513672
			]
		},
		{
			"mesh":4,
			"name":"PC_tail",
			"rotation":[
				0.7071068286895752,
				0,
				0,
				0.7071068286895752
			],
			"translation":[
				0.10000002384185791,
				0.10000002384185791,
				-0.059999942779541016
			]
		},
		{
			"children":[
				0,
				1,
				2,
				3,
				4
			],
			"name":"Plush_Cat",
			"scale":[
				1.75,
				1.75,
				1.75
			],
			"translation":[
				3,
				1.0199999809265137,
				4.050000190734863
			]
		},
		{
			"mesh":5,
			"name":"PB_body",
			"translation":[
				0,
				0.12000006437301636,
				0
			]
		},
		{
			"mesh":6,
			"name":"PB_ear",
			"translation":[
				-0.06999969482421875,
				0.34000009298324585,
				0.020000040531158447
			]
		},
		{
			"mesh":7,
			"name":"PB_ear.001",
			"translation":[
				0.07000112533569336,
				0.34000009298324585,
				0.020000040531158447
			]
		},
		{
			"mesh":8,
			"name":"PB_foot",
			"translation":[
				-0.06999969482421875,
				0.04000002145767212,
				0.07999998331069946
			]
		},
		{
			"mesh":9,
			"name":"PB_foot.001",
			"translation":[
				0.07000112533569336,
				0.04000002145767212,
				0.07999998331069946
			]
		},
		{
			"mesh":10,
			"name":"PB_head",
			"translation":[
				0,
				0.2700001001358032,
				0.020000040531158447
			]
		},
		{
			"children":[
				6,
				7,
				8,
				9,
				10,
				11
			],
			"name":"Plush_Bear",
			"scale":[
				1.75,
				1.75,
				1.75
			],
			"translation":[
				9.300000190734863,
				0.949999988079071,
				0.8500000238418579
			]
		},
		{
			"mesh":11,
			"name":"PS_leg",
			"rotation":[
				0,
				0,
				0.07845910638570786,
				0.9969174265861511
			],
			"translation":[
				0.2200002670288086,
				0.30000004172325134,
				0
			]
		},
		{
			"mesh":12,
			"name":"PS_leg.001",
			"rotation":[
				0.06791264563798904,
				-0.002668295055627823,
				-0.03916904330253601,
				0.9969185590744019
			],
			"translation":[
				-0.1099996566772461,
				0.30000004172325134,
				-0.19052553176879883
			]
		},
		{
			"mesh":13,
			"name":"PS_leg.002",
			"rotation":[
				-0.06791264563798904,
				0.002668295055627823,
				-0.03916904330253601,
				0.9969185590744019
			],
			"translation":[
				-0.1099996566772461,
				0.30000004172325134,
				0.19052577018737793
			]
		},
		{
			"mesh":14,
			"name":"PS_ring",
			"translation":[
				0,
				0.6899999976158142,
				0
			]
		},
		{
			"mesh":15,
			"name":"PS_top",
			"translation":[
				0,
				0.6200000643730164,
				0
			]
		},
		{
			"children":[
				13,
				14,
				15,
				16,
				17
			],
			"name":"PlantStand",
			"scale":[
				1.75,
				1.75,
				1.75
			],
			"translation":[
				11.399999618530273,
				0,
				4.400000095367432
			]
		},
		{
			"mesh":16,
			"name":"PH_frame",
			"rotation":[
				0.10452847182750702,
				0,
				0,
				0.994521975517273
			],
			"translation":[
				0,
				0.09000003337860107,
				0
			]
		},
		{
			"mesh":17,
			"name":"PH_pic",
			"rotation":[
				0.10452847182750702,
				0,
				0,
				0.994521975517273
			],
			"translation":[
				0,
				0.09000003337860107,
				0.020000040531158447
			]
		},
		{
			"children":[
				19,
				20
			],
			"name":"Photo",
			"scale":[
				1.75,
				1.75,
				1.75
			],
			"translation":[
				12,
				2.059999942779541,
				0.949999988079071
			]
		},
		{
			"mesh":18,
			"name":"MT_body"
		},
		{
			"mesh":19,
			"name":"MT_handle",
			"rotation":[
				0,
				0,
				-0.7071068286895752,
				0.7071068286895752
			],
			"translation":[
				0.05500030517578125,
				0.04999998211860657,
				0
			]
		},
		{
			"children":[
				22,
				23
			],
			"name":"Mug_Teal",
			"scale":[
				1.75,
				1.75,
				1.75
			],
			"translation":[
				7.099999904632568,
				0.8100000023841858,
				2.75
			]
		},
		{
			"mesh":20,
			"name":"MC_body"
		},
		{
			"mesh":21,
			"name":"MC_handle",
			"rotation":[
				0,
				0,
				-0.7071068286895752,
				0.7071068286895752
			],
			"translation":[
				0.05499982833862305,
				0.045000046491622925,
				0
			]
		},
		{
			"children":[
				25,
				26
			],
			"name":"Mug_Cream",
			"scale":[
				1.75,
				1.75,
				1.75
			],
			"translation":[
				7.949999809265137,
				0.8100000023841858,
				3.1500000953674316
			]
		},
		{
			"mesh":22,
			"name":"KT_base",
			"translation":[
				0,
				0.5,
				0
			]
		},
		{
			"mesh":23,
			"name":"KT_glass",
			"rotation":[
				-0.15643447637557983,
				0,
				0,
				0.987688422203064
			],
			"translation":[
				0,
				1.1799999475479126,
				0.12999999523162842
			]
		},
		{
			"mesh":24,
			"name":"KT_screen",
			"rotation":[
				-0.15643447637557983,
				0,
				0,
				0.987688422203064
			],
			"translation":[
				0,
				1.1799999475479126,
				0.05000007152557373
			]
		},
		{
			"mesh":25,
			"name":"KT_tray",
			"rotation":[
				0.06975649297237396,
				0,
				0,
				0.9975641369819641
			],
			"translation":[
				0,
				0.9200000762939453,
				0.18000006675720215
			]
		},
		{
			"children":[
				28,
				29,
				30,
				31
			],
			"name":"Kiosk",
			"scale":[
				1.75,
				1.75,
				1.75
			],
			"translation":[
				2.200000047683716,
				0,
				2.200000047683716
			]
		},
		{
			"mesh":26,
			"name":"JR_body"
		},
		{
			"mesh":27,
			"name":"JR_lid",
			"translation":[
				0,
				0.08000004291534424,
				0
			]
		},
		{
			"children":[
				33,
				34
			],
			"name":"Jar",
			"scale":[
				1.75,
				1.75,
				1.75
			],
			"translation":[
				12.399999618530273,
				1.2999999523162842,
				0.949999988079071
			]
		},
		{
			"mesh":28,
			"name":"CS_cup",
			"translation":[
				0,
				0.009999990463256836,
				0
			]
		},
		{
			"mesh":29,
			"name":"CS_saucer"
		},
		{
			"children":[
				36,
				37
			],
			"name":"CupSaucer",
			"scale":[
				1.75,
				1.75,
				1.75
			],
			"translation":[
				7.400000095367432,
				0.8100000023841858,
				3.3499999046325684
			]
		},
		{
			"mesh":30,
			"name":"CT_leg",
			"translation":[
				-0.4199998378753662,
				0.1899999976158142,
				0.24000012874603271
			]
		},
		{
			"mesh":31,
			"name":"CT_leg.001",
			"translation":[
				-0.4199998378753662,
				0.1899999976158142,
				-0.24000000953674316
			]
		},
		{
			"mesh":32,
			"name":"CT_leg.002",
			"translation":[
				0.4200000762939453,
				0.1899999976158142,
				0.24000012874603271
			]
		},
		{
			"mesh":33,
			"name":"CT_leg.003",
			"translation":[
				0.4200000762939453,
				0.1899999976158142,
				-0.24000000953674316
			]
		},
		{
			"mesh":34,
			"name":"CT_top",
			"translation":[
				0,
				0.41999998688697815,
				0
			]
		},
		{
			"children":[
				39,
				40,
				41,
				42,
				43
			],
			"name":"CoffeeTable",
			"scale":[
				1.75,
				1.75,
				1.75
			],
			"translation":[
				7.5,
				0,
				3
			]
		},
		{
			"mesh":35,
			"name":"BK1",
			"translation":[
				0,
				0.020000040531158447,
				0
			]
		},
		{
			"mesh":36,
			"name":"BK2",
			"translation":[
				0.010000228881835938,
				0.060000061988830566,
				-0.00999993085861206
			]
		},
		{
			"mesh":37,
			"name":"BK3",
			"translation":[
				-0.009999752044677734,
				0.09500002861022949,
				0
			]
		},
		{
			"children":[
				45,
				46,
				47
			],
			"name":"BookStack",
			"scale":[
				1.75,
				1.75,
				1.75
			],
			"translation":[
				11.600000381469727,
				1.2999999523162842,
				0.949999988079071
			]
		},
		{
			"mesh":38,
			"name":"BS_back",
			"translation":[
				0,
				1,
				-0.19999992847442627
			]
		},
		{
			"mesh":39,
			"name":"BS_cab",
			"translation":[
				0,
				0.36000001430511475,
				0.010000050067901611
			]
		},
		{
			"mesh":40,
			"name":"BS_left",
			"translation":[
				-0.570000171661377,
				1,
				0
			]
		},
		{
			"mesh":41,
			"name":"BS_right",
			"translation":[
				0.5700006484985352,
				1,
				0
			]
		},
		{
			"mesh":42,
			"name":"BS_shelf",
			"translation":[
				0,
				0.05000000074505806,
				0
			]
		},
		{
			"mesh":43,
			"name":"BS_shelf.001",
			"translation":[
				0,
				0.7000000476837158,
				0
			]
		},
		{
			"mesh":44,
			"name":"BS_shelf.002",
			"translation":[
				0,
				1.1500000953674316,
				0
			]
		},
		{
			"mesh":45,
			"name":"BS_shelf.003",
			"translation":[
				0,
				1.600000023841858,
				0
			]
		},
		{
			"mesh":46,
			"name":"BS_shelf.004",
			"translation":[
				0,
				1.9800001382827759,
				0
			]
		},
		{
			"children":[
				49,
				50,
				51,
				52,
				53,
				54,
				55,
				56,
				57
			],
			"name":"Bookshelf",
			"scale":[
				1.75,
				1.75,
				1.75
			],
			"translation":[
				12,
				0,
				0.949999988079071
			]
		},
		{
			"mesh":47,
			"name":"AC_arm",
			"translation":[
				-0.4499998092651367,
				0.6600000858306885,
				0
			]
		},
		{
			"mesh":48,
			"name":"AC_arm.001",
			"translation":[
				0.4500001072883606,
				0.6600000858306885,
				0
			]
		},
		{
			"mesh":49,
			"name":"AC_back",
			"translation":[
				0,
				0.7800000309944153,
				-0.34000009298324585
			]
		},
		{
			"mesh":50,
			"name":"AC_cush",
			"translation":[
				0,
				0.6200000643730164,
				0
			]
		},
		{
			"mesh":51,
			"name":"AC_leg",
			"translation":[
				-0.37999987602233887,
				0.12999999523162842,
				0.3399999737739563
			]
		},
		{
			"mesh":52,
			"name":"AC_leg.001",
			"translation":[
				-0.37999987602233887,
				0.12999999523162842,
				-0.34000009298324585
			]
		},
		{
			"mesh":53,
			"name":"AC_leg.002",
			"translation":[
				0.38000017404556274,
				0.12999999523162842,
				0.3399999141693115
			]
		},
		{
			"mesh":54,
			"name":"AC_leg.003",
			"translation":[
				0.38000017404556274,
				0.12999999523162842,
				-0.3400001525878906
			]
		},
		{
			"mesh":55,
			"name":"AC_seat",
			"translation":[
				0,
				0.41999998688697815,
				0
			]
		},
		{
			"children":[
				59,
				60,
				61,
				62,
				63,
				64,
				65,
				66,
				67
			],
			"name":"Armchair",
			"rotation":[
				0,
				-0.537299633026123,
				0,
				0.8433914184570312
			],
			"scale":[
				1.7500001192092896,
				1.75,
				1.7500001192092896
			],
			"translation":[
				3,
				0,
				4.199999809265137
			]
		},
		{
			"mesh":56,
			"name":"Portal_AccentRing"
		},
		{
			"mesh":57,
			"name":"Portal_Frame"
		},
		{
			"mesh":58,
			"name":"Portal_Node0",
			"translation":[
				0,
				1.5499999523162842,
				0.05000004172325134
			]
		},
		{
			"mesh":59,
			"name":"Portal_Node1",
			"translation":[
				-1.3423395156860352,
				-0.774999737739563,
				0.05000004172325134
			]
		},
		{
			"mesh":60,
			"name":"Portal_Node2",
			"translation":[
				1.342339277267456,
				-0.774999737739563,
				0.05000004172325134
			]
		},
		{
			"mesh":61,
			"name":"Portal_Surface"
		},
		{
			"children":[
				69,
				70,
				71,
				72,
				73,
				74
			],
			"name":"Portal",
			"scale":[
				1.149999976158142,
				1.149999976158142,
				1.149999976158142
			],
			"translation":[
				2,
				2.4000000953674316,
				0.30000001192092896
			]
		},
		{
			"mesh":62,
			"name":"WallArtFrame",
			"translation":[
				8.5,
				3.299999952316284,
				0.10000000149011612
			]
		},
		{
			"mesh":63,
			"name":"WallArt",
			"translation":[
				8.5,
				3.299999952316284,
				0.1599999964237213
			]
		},
		{
			"mesh":64,
			"name":"Rug",
			"translation":[
				7,
				0.029999999329447746,
				3.200000047683716
			]
		}
	],
	"materials":[
		{
			"doubleSided":true,
			"name":"PlushPeach.001",
			"pbrMetallicRoughness":{
				"baseColorFactor":[
					0.8999999761581421,
					0.6600000262260437,
					0.550000011920929,
					1
				],
				"metallicFactor":0,
				"roughnessFactor":0.800000011920929
			}
		},
		{
			"doubleSided":true,
			"name":"PlushBlue.001",
			"pbrMetallicRoughness":{
				"baseColorFactor":[
					0.550000011920929,
					0.699999988079071,
					0.8199999928474426,
					1
				],
				"metallicFactor":0,
				"roughnessFactor":0.800000011920929
			}
		},
		{
			"doubleSided":true,
			"name":"Wood.001",
			"pbrMetallicRoughness":{
				"baseColorFactor":[
					0.6000000238418579,
					0.41999998688697815,
					0.25,
					1
				],
				"metallicFactor":0,
				"roughnessFactor":0.75
			}
		},
		{
			"doubleSided":true,
			"name":"WoodLight.001",
			"pbrMetallicRoughness":{
				"baseColorFactor":[
					0.800000011920929,
					0.6200000047683716,
					0.4000000059604645,
					1
				],
				"metallicFactor":0,
				"roughnessFactor":0.75
			}
		},
		{
			"doubleSided":true,
			"name":"PhotoPic.001",
			"pbrMetallicRoughness":{
				"baseColorFactor":[
					0.7799999713897705,
					0.7200000286102295,
					0.6200000047683716,
					1
				],
				"metallicFactor":0,
				"roughnessFactor":0.800000011920929
			}
		},
		{
			"doubleSided":true,
			"name":"MugTeal.001",
			"pbrMetallicRoughness":{
				"baseColorFactor":[
					0.30000001192092896,
					0.6200000047683716,
					0.6000000238418579,
					1
				],
				"metallicFactor":0,
				"roughnessFactor":0.800000011920929
			}
		},
		{
			"doubleSided":true,
			"name":"Cushion.001",
			"pbrMetallicRoughness":{
				"baseColorFactor":[
					0.9300000071525574,
					0.8799999952316284,
					0.7799999713897705,
					1
				],
				"metallicFactor":0,
				"roughnessFactor":0.75
			}
		},
		{
			"doubleSided":true,
			"emissiveFactor":[
				0.3956043999230511,
				1,
				0.5494505336154795
			],
			"extensions":{
				"KHR_materials_emissive_strength":{
					"emissiveStrength":1.4560000636577612
				}
			},
			"name":"Screen.001",
			"pbrMetallicRoughness":{
				"baseColorFactor":[
					0,
					0,
					0,
					1
				]
			}
		},
		{
			"doubleSided":true,
			"name":"Dark.001",
			"pbrMetallicRoughness":{
				"baseColorFactor":[
					0.18000000715255737,
					0.18000000715255737,
					0.20000000298023224,
					1
				],
				"metallicFactor":0,
				"roughnessFactor":0.75
			}
		},
		{
			"doubleSided":true,
			"name":"Ceramic.001",
			"pbrMetallicRoughness":{
				"baseColorFactor":[
					0.8999999761581421,
					0.8999999761581421,
					0.8799999952316284,
					1
				],
				"metallicFactor":0,
				"roughnessFactor":0.800000011920929
			}
		},
		{
			"doubleSided":true,
			"name":"BookRed.001",
			"pbrMetallicRoughness":{
				"baseColorFactor":[
					0.7200000286102295,
					0.3400000035762787,
					0.30000001192092896,
					1
				],
				"metallicFactor":0,
				"roughnessFactor":0.800000011920929
			}
		},
		{
			"doubleSided":true,
			"name":"BookGrn.001",
			"pbrMetallicRoughness":{
				"baseColorFactor":[
					0.41999998688697815,
					0.550000011920929,
					0.3799999952316284,
					1
				],
				"metallicFactor":0,
				"roughnessFactor":0.800000011920929
			}
		},
		{
			"doubleSided":true,
			"name":"BookMust.001",
			"pbrMetallicRoughness":{
				"baseColorFactor":[
					0.800000011920929,
					0.6600000262260437,
					0.3400000035762787,
					1
				],
				"metallicFactor":0,
				"roughnessFactor":0.800000011920929
			}
		},
		{
			"doubleSided":true,
			"name":"ChairPink.001",
			"pbrMetallicRoughness":{
				"baseColorFactor":[
					0.8600000143051147,
					0.5600000023841858,
					0.550000011920929,
					1
				],
				"metallicFactor":0,
				"roughnessFactor":0.75
			}
		},
		{
			"doubleSided":true,
			"emissiveFactor":[
				0.44999998807907104,
				0.9200000166893005,
				1
			],
			"extensions":{
				"KHR_materials_emissive_strength":{
					"emissiveStrength":7
				}
			},
			"name":"PortalRim.001",
			"pbrMetallicRoughness":{
				"baseColorFactor":[
					0,
					0,
					0,
					1
				]
			}
		},
		{
			"doubleSided":true,
			"name":"PortalFrame.001",
			"pbrMetallicRoughness":{
				"baseColorFactor":[
					0.18000000715255737,
					0.1899999976158142,
					0.2199999988079071,
					1
				],
				"metallicFactor":0.800000011920929,
				"roughnessFactor":0.4000000059604645
			}
		},
		{
			"doubleSided":true,
			"emissiveFactor":[
				0.550000011920929,
				0.949999988079071,
				1
			],
			"extensions":{
				"KHR_materials_emissive_strength":{
					"emissiveStrength":5
				}
			},
			"name":"PortalNode.001",
			"pbrMetallicRoughness":{
				"baseColorFactor":[
					0,
					0,
					0,
					1
				]
			}
		},
		{
			"doubleSided":true,
			"emissiveFactor":[
				0.11764705727669611,
				0.7647058328542756,
				1
			],
			"extensions":{
				"KHR_materials_emissive_strength":{
					"emissiveStrength":1.870000092983247
				}
			},
			"name":"PortalSurface.001",
			"pbrMetallicRoughness":{
				"baseColorFactor":[
					0,
					0,
					0,
					1
				]
			}
		},
		{
			"doubleSided":true,
			"name":"Wood",
			"pbrMetallicRoughness":{
				"baseColorFactor":[
					0.6000000238418579,
					0.41999998688697815,
					0.25,
					1
				],
				"metallicFactor":0,
				"roughnessFactor":0.8500000238418579
			}
		},
		{
			"doubleSided":true,
			"name":"WallArtMat",
			"pbrMetallicRoughness":{
				"baseColorFactor":[
					0.8600000143051147,
					0.7799999713897705,
					0.6600000262260437,
					1
				],
				"metallicFactor":0,
				"roughnessFactor":0.8500000238418579
			}
		},
		{
			"doubleSided":true,
			"name":"Rug",
			"pbrMetallicRoughness":{
				"baseColorFactor":[
					0.8399999737739563,
					0.7400000095367432,
					0.550000011920929,
					1
				],
				"metallicFactor":0,
				"roughnessFactor":0.8500000238418579
			}
		}
	],
	"meshes":[
		{
			"name":"PC_body.001",
			"primitives":[
				{
					"attributes":{
						"POSITION":0,
						"NORMAL":1
					},
					"indices":2,
					"material":0
				}
			]
		},
		{
			"name":"PC_ear.003",
			"primitives":[
				{
					"attributes":{
						"POSITION":3,
						"NORMAL":4
					},
					"indices":5,
					"material":0
				}
			]
		},
		{
			"name":"PC_ear.002",
			"primitives":[
				{
					"attributes":{
						"POSITION":6,
						"NORMAL":7
					},
					"indices":5,
					"material":0
				}
			]
		},
		{
			"name":"PC_head.001",
			"primitives":[
				{
					"attributes":{
						"POSITION":8,
						"NORMAL":9
					},
					"indices":10,
					"material":0
				}
			]
		},
		{
			"name":"PC_tail.001",
			"primitives":[
				{
					"attributes":{
						"POSITION":11,
						"NORMAL":12
					},
					"indices":13,
					"material":0
				}
			]
		},
		{
			"name":"PB_body.001",
			"primitives":[
				{
					"attributes":{
						"POSITION":14,
						"NORMAL":15
					},
					"indices":2,
					"material":1
				}
			]
		},
		{
			"name":"PB_ear.003",
			"primitives":[
				{
					"attributes":{
						"POSITION":16,
						"NORMAL":17
					},
					"indices":2,
					"material":1
				}
			]
		},
		{
			"name":"PB_ear.002",
			"primitives":[
				{
					"attributes":{
						"POSITION":18,
						"NORMAL":19
					},
					"indices":2,
					"material":1
				}
			]
		},
		{
			"name":"PB_foot.003",
			"primitives":[
				{
					"attributes":{
						"POSITION":20,
						"NORMAL":21
					},
					"indices":22,
					"material":1
				}
			]
		},
		{
			"name":"PB_foot.002",
			"primitives":[
				{
					"attributes":{
						"POSITION":23,
						"NORMAL":24
					},
					"indices":22,
					"material":1
				}
			]
		},
		{
			"name":"PB_head.001",
			"primitives":[
				{
					"attributes":{
						"POSITION":25,
						"NORMAL":26
					},
					"indices":10,
					"material":1
				}
			]
		},
		{
			"name":"PS_leg.005",
			"primitives":[
				{
					"attributes":{
						"POSITION":27,
						"NORMAL":28
					},
					"indices":5,
					"material":2
				}
			]
		},
		{
			"name":"PS_leg.004",
			"primitives":[
				{
					"attributes":{
						"POSITION":29,
						"NORMAL":30
					},
					"indices":5,
					"material":2
				}
			]
		},
		{
			"name":"PS_leg.003",
			"primitives":[
				{
					"attributes":{
						"POSITION":31,
						"NORMAL":32
					},
					"indices":5,
					"material":2
				}
			]
		},
		{
			"name":"PS_ring.001",
			"primitives":[
				{
					"attributes":{
						"POSITION":33,
						"NORMAL":34
					},
					"indices":5,
					"material":3
				}
			]
		},
		{
			"name":"PS_top.001",
			"primitives":[
				{
					"attributes":{
						"POSITION":35,
						"NORMAL":36
					},
					"indices":5,
					"material":2
				}
			]
		},
		{
			"name":"PH_frame.001",
			"primitives":[
				{
					"attributes":{
						"POSITION":37,
						"NORMAL":38
					},
					"indices":5,
					"material":2
				}
			]
		},
		{
			"name":"PH_pic.001",
			"primitives":[
				{
					"attributes":{
						"POSITION":39,
						"NORMAL":40
					},
					"indices":5,
					"material":4
				}
			]
		},
		{
			"name":"MT_body.001",
			"primitives":[
				{
					"attributes":{
						"POSITION":41,
						"NORMAL":42
					},
					"indices":43,
					"material":5
				}
			]
		},
		{
			"name":"MT_handle.001",
			"primitives":[
				{
					"attributes":{
						"POSITION":44,
						"NORMAL":45
					},
					"indices":13,
					"material":5
				}
			]
		},
		{
			"name":"MC_body.001",
			"primitives":[
				{
					"attributes":{
						"POSITION":46,
						"NORMAL":47
					},
					"indices":43,
					"material":6
				}
			]
		},
		{
			"name":"MC_handle.001",
			"primitives":[
				{
					"attributes":{
						"POSITION":48,
						"NORMAL":49
					},
					"indices":13,
					"material":6
				}
			]
		},
		{
			"name":"KT_base.001",
			"primitives":[
				{
					"attributes":{
						"POSITION":50,
						"NORMAL":51
					},
					"indices":5,
					"material":2
				}
			]
		},
		{
			"name":"KT_glass.001",
			"primitives":[
				{
					"attributes":{
						"POSITION":52,
						"NORMAL":53
					},
					"indices":5,
					"material":7
				}
			]
		},
		{
			"name":"KT_screen.001",
			"primitives":[
				{
					"attributes":{
						"POSITION":54,
						"NORMAL":55
					},
					"indices":5,
					"material":8
				}
			]
		},
		{
			"name":"KT_tray.001",
			"primitives":[
				{
					"attributes":{
						"POSITION":56,
						"NORMAL":57
					},
					"indices":5,
					"material":3
				}
			]
		},
		{
			"name":"JR_body.001",
			"primitives":[
				{
					"attributes":{
						"POSITION":58,
						"NORMAL":59
					},
					"indices":43,
					"material":3
				}
			]
		},
		{
			"name":"JR_lid.001",
			"primitives":[
				{
					"attributes":{
						"POSITION":60,
						"NORMAL":61
					},
					"indices":43,
					"material":2
				}
			]
		},
		{
			"name":"CS_cup.001",
			"primitives":[
				{
					"attributes":{
						"POSITION":62,
						"NORMAL":63
					},
					"indices":43,
					"material":9
				}
			]
		},
		{
			"name":"CS_saucer.001",
			"primitives":[
				{
					"attributes":{
						"POSITION":64,
						"NORMAL":65
					},
					"indices":66,
					"material":9
				}
			]
		},
		{
			"name":"CT_leg.007",
			"primitives":[
				{
					"attributes":{
						"POSITION":67,
						"NORMAL":68
					},
					"indices":5,
					"material":2
				}
			]
		},
		{
			"name":"CT_leg.006",
			"primitives":[
				{
					"attributes":{
						"POSITION":69,
						"NORMAL":70
					},
					"indices":5,
					"material":2
				}
			]
		},
		{
			"name":"CT_leg.005",
			"primitives":[
				{
					"attributes":{
						"POSITION":71,
						"NORMAL":72
					},
					"indices":5,
					"material":2
				}
			]
		},
		{
			"name":"CT_leg.004",
			"primitives":[
				{
					"attributes":{
						"POSITION":73,
						"NORMAL":74
					},
					"indices":5,
					"material":2
				}
			]
		},
		{
			"name":"CT_top.001",
			"primitives":[
				{
					"attributes":{
						"POSITION":75,
						"NORMAL":76
					},
					"indices":5,
					"material":3
				}
			]
		},
		{
			"name":"BK1.001",
			"primitives":[
				{
					"attributes":{
						"POSITION":77,
						"NORMAL":78
					},
					"indices":5,
					"material":10
				}
			]
		},
		{
			"name":"BK2.001",
			"primitives":[
				{
					"attributes":{
						"POSITION":79,
						"NORMAL":80
					},
					"indices":5,
					"material":11
				}
			]
		},
		{
			"name":"BK3.001",
			"primitives":[
				{
					"attributes":{
						"POSITION":81,
						"NORMAL":82
					},
					"indices":5,
					"material":12
				}
			]
		},
		{
			"name":"BS_back.001",
			"primitives":[
				{
					"attributes":{
						"POSITION":83,
						"NORMAL":84
					},
					"indices":5,
					"material":3
				}
			]
		},
		{
			"name":"BS_cab.001",
			"primitives":[
				{
					"attributes":{
						"POSITION":85,
						"NORMAL":86
					},
					"indices":5,
					"material":3
				}
			]
		},
		{
			"name":"BS_left.001",
			"primitives":[
				{
					"attributes":{
						"POSITION":87,
						"NORMAL":88
					},
					"indices":5,
					"material":2
				}
			]
		},
		{
			"name":"BS_right.001",
			"primitives":[
				{
					"attributes":{
						"POSITION":89,
						"NORMAL":90
					},
					"indices":5,
					"material":2
				}
			]
		},
		{
			"name":"BS_shelf.009",
			"primitives":[
				{
					"attributes":{
						"POSITION":91,
						"NORMAL":92
					},
					"indices":5,
					"material":2
				}
			]
		},
		{
			"name":"BS_shelf.008",
			"primitives":[
				{
					"attributes":{
						"POSITION":93,
						"NORMAL":94
					},
					"indices":5,
					"material":2
				}
			]
		},
		{
			"name":"BS_shelf.007",
			"primitives":[
				{
					"attributes":{
						"POSITION":95,
						"NORMAL":96
					},
					"indices":5,
					"material":2
				}
			]
		},
		{
			"name":"BS_shelf.006",
			"primitives":[
				{
					"attributes":{
						"POSITION":97,
						"NORMAL":98
					},
					"indices":5,
					"material":2
				}
			]
		},
		{
			"name":"BS_shelf.005",
			"primitives":[
				{
					"attributes":{
						"POSITION":99,
						"NORMAL":100
					},
					"indices":5,
					"material":2
				}
			]
		},
		{
			"name":"AC_arm.003",
			"primitives":[
				{
					"attributes":{
						"POSITION":101,
						"NORMAL":102
					},
					"indices":5,
					"material":13
				}
			]
		},
		{
			"name":"AC_arm.002",
			"primitives":[
				{
					"attributes":{
						"POSITION":103,
						"NORMAL":104
					},
					"indices":5,
					"material":13
				}
			]
		},
		{
			"name":"AC_back.001",
			"primitives":[
				{
					"attributes":{
						"POSITION":105,
						"NORMAL":106
					},
					"indices":5,
					"material":13
				}
			]
		},
		{
			"name":"AC_cush.001",
			"primitives":[
				{
					"attributes":{
						"POSITION":107,
						"NORMAL":108
					},
					"indices":5,
					"material":6
				}
			]
		},
		{
			"name":"AC_leg.007",
			"primitives":[
				{
					"attributes":{
						"POSITION":109,
						"NORMAL":110
					},
					"indices":5,
					"material":2
				}
			]
		},
		{
			"name":"AC_leg.006",
			"primitives":[
				{
					"attributes":{
						"POSITION":111,
						"NORMAL":112
					},
					"indices":5,
					"material":2
				}
			]
		},
		{
			"name":"AC_leg.005",
			"primitives":[
				{
					"attributes":{
						"POSITION":113,
						"NORMAL":114
					},
					"indices":5,
					"material":2
				}
			]
		},
		{
			"name":"AC_leg.004",
			"primitives":[
				{
					"attributes":{
						"POSITION":115,
						"NORMAL":116
					},
					"indices":5,
					"material":2
				}
			]
		},
		{
			"name":"AC_seat.001",
			"primitives":[
				{
					"attributes":{
						"POSITION":117,
						"NORMAL":118
					},
					"indices":5,
					"material":13
				}
			]
		},
		{
			"name":"Portal_AccentRing.001",
			"primitives":[
				{
					"attributes":{
						"POSITION":119,
						"NORMAL":120
					},
					"indices":121,
					"material":14
				}
			]
		},
		{
			"name":"Portal_Frame.001",
			"primitives":[
				{
					"attributes":{
						"POSITION":122,
						"NORMAL":123
					},
					"indices":121,
					"material":15
				}
			]
		},
		{
			"name":"Portal_Node0.001",
			"primitives":[
				{
					"attributes":{
						"POSITION":124,
						"NORMAL":125
					},
					"indices":126,
					"material":16
				}
			]
		},
		{
			"name":"Portal_Node1.001",
			"primitives":[
				{
					"attributes":{
						"POSITION":127,
						"NORMAL":128
					},
					"indices":126,
					"material":16
				}
			]
		},
		{
			"name":"Portal_Node2.001",
			"primitives":[
				{
					"attributes":{
						"POSITION":129,
						"NORMAL":130
					},
					"indices":126,
					"material":16
				}
			]
		},
		{
			"name":"Portal_Surface.001",
			"primitives":[
				{
					"attributes":{
						"POSITION":131,
						"NORMAL":132
					},
					"indices":133,
					"material":17
				}
			]
		},
		{
			"name":"WallArtFrame",
			"primitives":[
				{
					"attributes":{
						"POSITION":134,
						"NORMAL":135
					},
					"indices":5,
					"material":18
				}
			]
		},
		{
			"name":"WallArt",
			"primitives":[
				{
					"attributes":{
						"POSITION":136,
						"NORMAL":137
					},
					"indices":5,
					"material":19
				}
			]
		},
		{
			"name":"Rug",
			"primitives":[
				{
					"attributes":{
						"POSITION":138,
						"NORMAL":139
					},
					"indices":5,
					"material":20
				}
			]
		}
	],
	"accessors":[
		{
			"bufferView":0,
			"componentType":5126,
			"count":216,
			"max":[
				0.10854408144950867,
				0.10854408144950867,
				0.09045340120792389
			],
			"min":[
				-0.10854408144950867,
				-0.10854408144950867,
				-0.09045340120792389
			],
			"type":"VEC3"
		},
		{
			"bufferView":1,
			"componentType":5126,
			"count":216,
			"type":"VEC3"
		},
		{
			"bufferView":2,
			"componentType":5123,
			"count":324,
			"type":"SCALAR"
		},
		{
			"bufferView":3,
			"componentType":5126,
			"count":24,
			"max":[
				0.02500000037252903,
				0.029999999329447746,
				0.02500000037252903
			],
			"min":[
				-0.02500000037252903,
				-0.029999999329447746,
				-0.02500000037252903
			],
			"type":"VEC3"
		},
		{
			"bufferView":4,
			"componentType":5126,
			"count":24,
			"type":"VEC3"
		},
		{
			"bufferView":5,
			"componentType":5123,
			"count":36,
			"type":"SCALAR"
		},
		{
			"bufferView":6,
			"componentType":5126,
			"count":24,
			"max":[
				0.02500000037252903,
				0.029999999329447746,
				0.02500000037252903
			],
			"min":[
				-0.02500000037252903,
				-0.029999999329447746,
				-0.02500000037252903
			],
			"type":"VEC3"
		},
		{
			"bufferView":7,
			"componentType":5126,
			"count":24,
			"type":"VEC3"
		},
		{
			"bufferView":8,
			"componentType":5126,
			"count":216,
			"max":[
				0.09045340120792389,
				0.0814080610871315,
				0.0814080610871315
			],
			"min":[
				-0.09045340120792389,
				-0.0814080610871315,
				-0.0814080610871315
			],
			"type":"VEC3"
		},
		{
			"bufferView":9,
			"componentType":5126,
			"count":216,
			"type":"VEC3"
		},
		{
			"bufferView":10,
			"componentType":5123,
			"count":324,
			"type":"SCALAR"
		},
		{
			"bufferView":11,
			"componentType":5126,
			"count":160,
			"max":[
				0.07800000160932541,
				0.017119016498327255,
				0.07800000160932541
			],
			"min":[
				-0.07800000160932541,
				-0.017119016498327255,
				-0.07800000160932541
			],
			"type":"VEC3"
		},
		{
			"bufferView":12,
			"componentType":5126,
			"count":160,
			"type":"VEC3"
		},
		{
			"bufferView":13,
			"componentType":5123,
			"count":240,
			"type":"SCALAR"
		},
		{
			"bufferView":14,
			"componentType":5126,
			"count":216,
			"max":[
				0.11758942902088165,
				0.11758942902088165,
				0.09045340120792389
			],
			"min":[
				-0.11758942902088165,
				-0.11758942902088165,
				-0.09045340120792389
			],
			"type":"VEC3"
		},
		{
			"bufferView":15,
			"componentType":5126,
			"count":216,
			"type":"VEC3"
		},
		{
			"bufferView":16,
			"componentType":5126,
			"count":216,
			"max":[
				0.036181360483169556,
				0.036181360483169556,
				0.027136020362377167
			],
			"min":[
				-0.036181360483169556,
				-0.036181360483169556,
				-0.027136020362377167
			],
			"type":"VEC3"
		},
		{
			"bufferView":17,
			"componentType":5126,
			"count":216,
			"type":"VEC3"
		},
		{
			"bufferView":18,
			"componentType":5126,
			"count":216,
			"max":[
				0.036181360483169556,
				0.036181360483169556,
				0.027136020362377167
			],
			"min":[
				-0.036181360483169556,
				-0.036181360483169556,
				-0.027136020362377167
			],
			"type":"VEC3"
		},
		{
			"bufferView":19,
			"componentType":5126,
			"count":216,
			"type":"VEC3"
		},
		{
			"bufferView":20,
			"componentType":5126,
			"count":216,
			"max":[
				0.045226700603961945,
				0.036181360483169556,
				0.045226700603961945
			],
			"min":[
				-0.045226700603961945,
				-0.036181360483169556,
				-0.045226700603961945
			],
			"type":"VEC3"
		},
		{
			"bufferView":21,
			"componentType":5126,
			"count":216,
			"type":"VEC3"
		},
		{
			"bufferView":22,
			"componentType":5123,
			"count":324,
			"type":"SCALAR"
		},
		{
			"bufferView":23,
			"componentType":5126,
			"count":216,
			"max":[
				0.045226700603961945,
				0.036181360483169556,
				0.045226700603961945
			],
			"min":[
				-0.045226700603961945,
				-0.036181360483169556,
				-0.045226700603961945
			],
			"type":"VEC3"
		},
		{
			"bufferView":24,
			"componentType":5126,
			"count":216,
			"type":"VEC3"
		},
		{
			"bufferView":25,
			"componentType":5126,
			"count":216,
			"max":[
				0.09045340120792389,
				0.0814080610871315,
				0.0814080610871315
			],
			"min":[
				-0.09045340120792389,
				-0.0814080610871315,
				-0.0814080610871315
			],
			"type":"VEC3"
		},
		{
			"bufferView":26,
			"componentType":5126,
			"count":216,
			"type":"VEC3"
		},
		{
			"bufferView":27,
			"componentType":5126,
			"count":24,
			"max":[
				0.02500000037252903,
				0.3100000023841858,
				0.02500000037252903
			],
			"min":[
				-0.02500000037252903,
				-0.3100000023841858,
				-0.02500000037252903
			],
			"type":"VEC3"
		},
		{
			"bufferView":28,
			"componentType":5126,
			"count":24,
			"type":"VEC3"
		},
		{
			"bufferView":29,
			"componentType":5126,
			"count":24,
			"max":[
				0.02500000037252903,
				0.3100000023841858,
				0.02500000037252903
			],
			"min":[
				-0.02500000037252903,
				-0.3100000023841858,
				-0.02500000037252903
			],
			"type":"VEC3"
		},
		{
			"bufferView":30,
			"componentType":5126,
			"count":24,
			"type":"VEC3"
		},
		{
			"bufferView":31,
			"componentType":5126,
			"count":24,
			"max":[
				0.02500000037252903,
				0.3100000023841858,
				0.02500000037252903
			],
			"min":[
				-0.02500000037252903,
				-0.3100000023841858,
				-0.02500000037252903
			],
			"type":"VEC3"
		},
		{
			"bufferView":32,
			"componentType":5126,
			"count":24,
			"type":"VEC3"
		},
		{
			"bufferView":33,
			"componentType":5126,
			"count":24,
			"max":[
				0.17000000178813934,
				0.05000000074505806,
				0.17000000178813934
			],
			"min":[
				-0.17000000178813934,
				-0.05000000074505806,
				-0.17000000178813934
			],
			"type":"VEC3"
		},
		{
			"bufferView":34,
			"componentType":5126,
			"count":24,
			"type":"VEC3"
		},
		{
			"bufferView":35,
			"componentType":5126,
			"count":24,
			"max":[
				0.20999999344348907,
				0.02500000037252903,
				0.20999999344348907
			],
			"min":[
				-0.20999999344348907,
				-0.02500000037252903,
				-0.20999999344348907
			],
			"type":"VEC3"
		},
		{
			"bufferView":36,
			"componentType":5126,
			"count":24,
			"type":"VEC3"
		},
		{
			"bufferView":37,
			"componentType":5126,
			"count":24,
			"max":[
				0.10999999940395355,
				0.09000000357627869,
				0.014999999664723873
			],
			"min":[
				-0.10999999940395355,
				-0.09000000357627869,
				-0.014999999664723873
			],
			"type":"VEC3"
		},
		{
			"bufferView":38,
			"componentType":5126,
			"count":24,
			"type":"VEC3"
		},
		{
			"bufferView":39,
			"componentType":5126,
			"count":24,
			"max":[
				0.08500000089406967,
				0.06499999761581421,
				0.004999999888241291
			],
			"min":[
				-0.08500000089406967,
				-0.06499999761581421,
				-0.004999999888241291
			],
			"type":"VEC3"
		},
		{
			"bufferView":40,
			"componentType":5126,
			"count":24,
			"type":"VEC3"
		},
		{
			"bufferView":41,
			"componentType":5126,
			"count":48,
			"max":[
				0.05000000074505806,
				0.10000000149011612,
				0.05000000074505806
			],
			"min":[
				-0.05000000074505806,
				0,
				-0.05000000074505806
			],
			"type":"VEC3"
		},
		{
			"bufferView":42,
			"componentType":5126,
			"count":48,
			"type":"VEC3"
		},
		{
			"bufferView":43,
			"componentType":5123,
			"count":84,
			"type":"SCALAR"
		},
		{
			"bufferView":44,
			"componentType":5126,
			"count":160,
			"max":[
				0.05700000002980232,
				0.01141267828643322,
				0.05700000002980232
			],
			"min":[
				-0.05700000002980232,
				-0.01141267828643322,
				-0.05700000002980232
			],
			"type":"VEC3"
		},
		{
			"bufferView":45,
			"componentType":5126,
			"count":160,
			"type":"VEC3"
		},
		{
			"bufferView":46,
			"componentType":5126,
			"count":48,
			"max":[
				0.05000000074505806,
				0.09000000357627869,
				0.05000000074505806
			],
			"min":[
				-0.05000000074505806,
				0,
				-0.05000000074505806
			],
			"type":"VEC3"
		},
		{
			"bufferView":47,
			"componentType":5126,
			"count":48,
			"type":"VEC3"
		},
		{
			"bufferView":48,
			"componentType":5126,
			"count":160,
			"max":[
				0.05700000002980232,
				0.01141267828643322,
				0.05700000002980232
			],
			"min":[
				-0.05700000002980232,
				-0.01141267828643322,
				-0.05700000002980232
			],
			"type":"VEC3"
		},
		{
			"bufferView":49,
			"componentType":5126,
			"count":160,
			"type":"VEC3"
		},
		{
			"bufferView":50,
			"componentType":5126,
			"count":24,
			"max":[
				0.3100000023841858,
				0.5,
				0.25
			],
			"min":[
				-0.3100000023841858,
				-0.5,
				-0.25
			],
			"type":"VEC3"
		},
		{
			"bufferView":51,
			"componentType":5126,
			"count":24,
			"type":"VEC3"
		},
		{
			"bufferView":52,
			"componentType":5126,
			"count":24,
			"max":[
				0.30000001192092896,
				0.20000000298023224,
				0.019999999552965164
			],
			"min":[
				-0.30000001192092896,
				-0.20000000298023224,
				-0.019999999552965164
			],
			"type":"VEC3"
		},
		{
			"bufferView":53,
			"componentType":5126,
			"count":24,
			"type":"VEC3"
		},
		{
			"bufferView":54,
			"componentType":5126,
			"count":24,
			"max":[
				0.3499999940395355,
				0.25,
				0.05000000074505806
			],
			"min":[
				-0.3499999940395355,
				-0.25,
				-0.05000000074505806
			],
			"type":"VEC3"
		},
		{
			"bufferView":55,
			"componentType":5126,
			"count":24,
			"type":"VEC3"
		},
		{
			"bufferView":56,
			"componentType":5126,
			"count":24,
			"max":[
				0.33000001311302185,
				0.02500000037252903,
				0.17000000178813934
			],
			"min":[
				-0.33000001311302185,
				-0.02500000037252903,
				-0.17000000178813934
			],
			"type":"VEC3"
		},
		{
			"bufferView":57,
			"componentType":5126,
			"count":24,
			"type":"VEC3"
		},
		{
			"bufferView":58,
			"componentType":5126,
			"count":48,
			"max":[
				0.04500000178813934,
				0.07999999821186066,
				0.04500000178813934
			],
			"min":[
				-0.04500000178813934,
				0,
				-0.04500000178813934
			],
			"type":"VEC3"
		},
		{
			"bufferView":59,
			"componentType":5126,
			"count":48,
			"type":"VEC3"
		},
		{
			"bufferView":60,
			"componentType":5126,
			"count":48,
			"max":[
				0.05000000074505806,
				0.019999999552965164,
				0.05000000074505806
			],
			"min":[
				-0.05000000074505806,
				0,
				-0.05000000074505806
			],
			"type":"VEC3"
		},
		{
			"bufferView":61,
			"componentType":5126,
			"count":48,
			"type":"VEC3"
		},
		{
			"bufferView":62,
			"componentType":5126,
			"count":48,
			"max":[
				0.03999999910593033,
				0.05000000074505806,
				0.03999999910593033
			],
			"min":[
				-0.03999999910593033,
				0,
				-0.03999999910593033
			],
			"type":"VEC3"
		},
		{
			"bufferView":63,
			"componentType":5126,
			"count":48,
			"type":"VEC3"
		},
		{
			"bufferView":64,
			"componentType":5126,
			"count":60,
			"max":[
				0.07999999821186066,
				0.012000000104308128,
				0.07608452439308167
			],
			"min":[
				-0.07999999821186066,
				0,
				-0.07608452439308167
			],
			"type":"VEC3"
		},
		{
			"bufferView":65,
			"componentType":5126,
			"count":60,
			"type":"VEC3"
		},
		{
			"bufferView":66,
			"componentType":5123,
			"count":108,
			"type":"SCALAR"
		},
		{
			"bufferView":67,
			"componentType":5126,
			"count":24,
			"max":[
				0.03500000014901161,
				0.20999999344348907,
				0.03500000014901161
			],
			"min":[
				-0.03500000014901161,
				-0.20999999344348907,
				-0.03500000014901161
			],
			"type":"VEC3"
		},
		{
			"bufferView":68,
			"componentType":5126,
			"count":24,
			"type":"VEC3"
		},
		{
			"bufferView":69,
			"componentType":5126,
			"count":24,
			"max":[
				0.03500000014901161,
				0.20999999344348907,
				0.03500000014901161
			],
			"min":[
				-0.03500000014901161,
				-0.20999999344348907,
				-0.03500000014901161
			],
			"type":"VEC3"
		},
		{
			"bufferView":70,
			"componentType":5126,
			"count":24,
			"type":"VEC3"
		},
		{
			"bufferView":71,
			"componentType":5126,
			"count":24,
			"max":[
				0.03500000014901161,
				0.20999999344348907,
				0.03500000014901161
			],
			"min":[
				-0.03500000014901161,
				-0.20999999344348907,
				-0.03500000014901161
			],
			"type":"VEC3"
		},
		{
			"bufferView":72,
			"componentType":5126,
			"count":24,
			"type":"VEC3"
		},
		{
			"bufferView":73,
			"componentType":5126,
			"count":24,
			"max":[
				0.03500000014901161,
				0.20999999344348907,
				0.03500000014901161
			],
			"min":[
				-0.03500000014901161,
				-0.20999999344348907,
				-0.03500000014901161
			],
			"type":"VEC3"
		},
		{
			"bufferView":74,
			"componentType":5126,
			"count":24,
			"type":"VEC3"
		},
		{
			"bufferView":75,
			"componentType":5126,
			"count":24,
			"max":[
				0.5,
				0.03999999910593033,
				0.30000001192092896
			],
			"min":[
				-0.5,
				-0.03999999910593033,
				-0.30000001192092896
			],
			"type":"VEC3"
		},
		{
			"bufferView":76,
			"componentType":5126,
			"count":24,
			"type":"VEC3"
		},
		{
			"bufferView":77,
			"componentType":5126,
			"count":24,
			"max":[
				0.10000000149011612,
				0.019999999552965164,
				0.07000000029802322
			],
			"min":[
				-0.10000000149011612,
				-0.019999999552965164,
				-0.07000000029802322
			],
			"type":"VEC3"
		},
		{
			"bufferView":78,
			"componentType":5126,
			"count":24,
			"type":"VEC3"
		},
		{
			"bufferView":79,
			"componentType":5126,
			"count":24,
			"max":[
				0.0949999988079071,
				0.019999999552965164,
				0.06499999761581421
			],
			"min":[
				-0.0949999988079071,
				-0.019999999552965164,
				-0.06499999761581421
			],
			"type":"VEC3"
		},
		{
			"bufferView":80,
			"componentType":5126,
			"count":24,
			"type":"VEC3"
		},
		{
			"bufferView":81,
			"componentType":5126,
			"count":24,
			"max":[
				0.09000000357627869,
				0.017500000074505806,
				0.06750000268220901
			],
			"min":[
				-0.09000000357627869,
				-0.017500000074505806,
				-0.06750000268220901
			],
			"type":"VEC3"
		},
		{
			"bufferView":82,
			"componentType":5126,
			"count":24,
			"type":"VEC3"
		},
		{
			"bufferView":83,
			"componentType":5126,
			"count":24,
			"max":[
				0.5699999928474426,
				1,
				0.02500000037252903
			],
			"min":[
				-0.5699999928474426,
				-1,
				-0.02500000037252903
			],
			"type":"VEC3"
		},
		{
			"bufferView":84,
			"componentType":5126,
			"count":24,
			"type":"VEC3"
		},
		{
			"bufferView":85,
			"componentType":5126,
			"count":24,
			"max":[
				0.550000011920929,
				0.2750000059604645,
				0.20000000298023224
			],
			"min":[
				-0.550000011920929,
				-0.2750000059604645,
				-0.20000000298023224
			],
			"type":"VEC3"
		},
		{
			"bufferView":86,
			"componentType":5126,
			"count":24,
			"type":"VEC3"
		},
		{
			"bufferView":87,
			"componentType":5126,
			"count":24,
			"max":[
				0.029999999329447746,
				1,
				0.20999999344348907
			],
			"min":[
				-0.029999999329447746,
				-1,
				-0.20999999344348907
			],
			"type":"VEC3"
		},
		{
			"bufferView":88,
			"componentType":5126,
			"count":24,
			"type":"VEC3"
		},
		{
			"bufferView":89,
			"componentType":5126,
			"count":24,
			"max":[
				0.029999999329447746,
				1,
				0.20999999344348907
			],
			"min":[
				-0.029999999329447746,
				-1,
				-0.20999999344348907
			],
			"type":"VEC3"
		},
		{
			"bufferView":90,
			"componentType":5126,
			"count":24,
			"type":"VEC3"
		},
		{
			"bufferView":91,
			"componentType":5126,
			"count":24,
			"max":[
				0.5699999928474426,
				0.02500000037252903,
				0.20000000298023224
			],
			"min":[
				-0.5699999928474426,
				-0.02500000037252903,
				-0.20000000298023224
			],
			"type":"VEC3"
		},
		{
			"bufferView":92,
			"componentType":5126,
			"count":24,
			"type":"VEC3"
		},
		{
			"bufferView":93,
			"componentType":5126,
			"count":24,
			"max":[
				0.5699999928474426,
				0.02500000037252903,
				0.20000000298023224
			],
			"min":[
				-0.5699999928474426,
				-0.02500000037252903,
				-0.20000000298023224
			],
			"type":"VEC3"
		},
		{
			"bufferView":94,
			"componentType":5126,
			"count":24,
			"type":"VEC3"
		},
		{
			"bufferView":95,
			"componentType":5126,
			"count":24,
			"max":[
				0.5699999928474426,
				0.02500000037252903,
				0.20000000298023224
			],
			"min":[
				-0.5699999928474426,
				-0.02500000037252903,
				-0.20000000298023224
			],
			"type":"VEC3"
		},
		{
			"bufferView":96,
			"componentType":5126,
			"count":24,
			"type":"VEC3"
		},
		{
			"bufferView":97,
			"componentType":5126,
			"count":24,
			"max":[
				0.5699999928474426,
				0.02500000037252903,
				0.20000000298023224
			],
			"min":[
				-0.5699999928474426,
				-0.02500000037252903,
				-0.20000000298023224
			],
			"type":"VEC3"
		},
		{
			"bufferView":98,
			"componentType":5126,
			"count":24,
			"type":"VEC3"
		},
		{
			"bufferView":99,
			"componentType":5126,
			"count":24,
			"max":[
				0.5699999928474426,
				0.02500000037252903,
				0.20000000298023224
			],
			"min":[
				-0.5699999928474426,
				-0.02500000037252903,
				-0.20000000298023224
			],
			"type":"VEC3"
		},
		{
			"bufferView":100,
			"componentType":5126,
			"count":24,
			"type":"VEC3"
		},
		{
			"bufferView":101,
			"componentType":5126,
			"count":24,
			"max":[
				0.07000000029802322,
				0.17000000178813934,
				0.42500001192092896
			],
			"min":[
				-0.07000000029802322,
				-0.17000000178813934,
				-0.42500001192092896
			],
			"type":"VEC3"
		},
		{
			"bufferView":102,
			"componentType":5126,
			"count":24,
			"type":"VEC3"
		},
		{
			"bufferView":103,
			"componentType":5126,
			"count":24,
			"max":[
				0.07000000029802322,
				0.17000000178813934,
				0.42500001192092896
			],
			"min":[
				-0.07000000029802322,
				-0.17000000178813934,
				-0.42500001192092896
			],
			"type":"VEC3"
		},
		{
			"bufferView":104,
			"componentType":5126,
			"count":24,
			"type":"VEC3"
		},
		{
			"bufferView":105,
			"componentType":5126,
			"count":24,
			"max":[
				0.44999998807907104,
				0.375,
				0.09000000357627869
			],
			"min":[
				-0.44999998807907104,
				-0.375,
				-0.09000000357627869
			],
			"type":"VEC3"
		},
		{
			"bufferView":106,
			"componentType":5126,
			"count":24,
			"type":"VEC3"
		},
		{
			"bufferView":107,
			"componentType":5126,
			"count":24,
			"max":[
				0.4000000059604645,
				0.07000000029802322,
				0.375
			],
			"min":[
				-0.4000000059604645,
				-0.07000000029802322,
				-0.375
			],
			"type":"VEC3"
		},
		{
			"bufferView":108,
			"componentType":5126,
			"count":24,
			"type":"VEC3"
		},
		{
			"bufferView":109,
			"componentType":5126,
			"count":24,
			"max":[
				0.03500000014901161,
				0.14000000059604645,
				0.03500000014901161
			],
			"min":[
				-0.03500000014901161,
				-0.14000000059604645,
				-0.03500000014901161
			],
			"type":"VEC3"
		},
		{
			"bufferView":110,
			"componentType":5126,
			"count":24,
			"type":"VEC3"
		},
		{
			"bufferView":111,
			"componentType":5126,
			"count":24,
			"max":[
				0.03500000014901161,
				0.14000000059604645,
				0.03500000014901161
			],
			"min":[
				-0.03500000014901161,
				-0.14000000059604645,
				-0.03500000014901161
			],
			"type":"VEC3"
		},
		{
			"bufferView":112,
			"componentType":5126,
			"count":24,
			"type":"VEC3"
		},
		{
			"bufferView":113,
			"componentType":5126,
			"count":24,
			"max":[
				0.03500000014901161,
				0.14000000059604645,
				0.03500000014901161
			],
			"min":[
				-0.03500000014901161,
				-0.14000000059604645,
				-0.03500000014901161
			],
			"type":"VEC3"
		},
		{
			"bufferView":114,
			"componentType":5126,
			"count":24,
			"type":"VEC3"
		},
		{
			"bufferView":115,
			"componentType":5126,
			"count":24,
			"max":[
				0.03500000014901161,
				0.14000000059604645,
				0.03500000014901161
			],
			"min":[
				-0.03500000014901161,
				-0.14000000059604645,
				-0.03500000014901161
			],
			"type":"VEC3"
		},
		{
			"bufferView":116,
			"componentType":5126,
			"count":24,
			"type":"VEC3"
		},
		{
			"bufferView":117,
			"componentType":5126,
			"count":24,
			"max":[
				0.44999998807907104,
				0.15000000596046448,
				0.42500001192092896
			],
			"min":[
				-0.44999998807907104,
				-0.15000000596046448,
				-0.42500001192092896
			],
			"type":"VEC3"
		},
		{
			"bufferView":118,
			"componentType":5126,
			"count":24,
			"type":"VEC3"
		},
		{
			"bufferView":119,
			"componentType":5126,
			"count":288,
			"max":[
				1.0199999809265137,
				1.0199999809265137,
				0
			],
			"min":[
				-1.0199999809265137,
				-1.0199999809265137,
				-0.05999999865889549
			],
			"type":"VEC3"
		},
		{
			"bufferView":120,
			"componentType":5126,
			"count":288,
			"type":"VEC3"
		},
		{
			"bufferView":121,
			"componentType":5123,
			"count":576,
			"type":"SCALAR"
		},
		{
			"bufferView":122,
			"componentType":5126,
			"count":288,
			"max":[
				1.2999999523162842,
				1.2999999523162842,
				0
			],
			"min":[
				-1.2999999523162842,
				-1.2999999523162842,
				-0.20000000298023224
			],
			"type":"VEC3"
		},
		{
			"bufferView":123,
			"componentType":5126,
			"count":288,
			"type":"VEC3"
		},
		{
			"bufferView":124,
			"componentType":5126,
			"count":24,
			"max":[
				0.10000000149011612,
				0.10000000149011612,
				0.10000000149011612
			],
			"min":[
				-0.10000000149011612,
				-0.10000000149011612,
				-0.10000000149011612
			],
			"type":"VEC3"
		},
		{
			"bufferView":125,
			"componentType":5126,
			"count":24,
			"type":"VEC3"
		},
		{
			"bufferView":126,
			"componentType":5123,
			"count":24,
			"type":"SCALAR"
		},
		{
			"bufferView":127,
			"componentType":5126,
			"count":24,
			"max":[
				0.10000000149011612,
				0.10000000149011612,
				0.10000000149011612
			],
			"min":[
				-0.10000000149011612,
				-0.10000000149011612,
				-0.10000000149011612
			],
			"type":"VEC3"
		},
		{
			"bufferView":128,
			"componentType":5126,
			"count":24,
			"type":"VEC3"
		},
		{
			"bufferView":129,
			"componentType":5126,
			"count":24,
			"max":[
				0.10000000149011612,
				0.10000000149011612,
				0.10000000149011612
			],
			"min":[
				-0.10000000149011612,
				-0.10000000149011612,
				-0.10000000149011612
			],
			"type":"VEC3"
		},
		{
			"bufferView":130,
			"componentType":5126,
			"count":24,
			"type":"VEC3"
		},
		{
			"bufferView":131,
			"componentType":5126,
			"count":24,
			"max":[
				0.9900000095367432,
				0.9900000095367432,
				-0.11999999731779099
			],
			"min":[
				-0.9900000095367432,
				-0.9900000095367432,
				-0.11999999731779099
			],
			"type":"VEC3"
		},
		{
			"bufferView":132,
			"componentType":5126,
			"count":24,
			"type":"VEC3"
		},
		{
			"bufferView":133,
			"componentType":5123,
			"count":66,
			"type":"SCALAR"
		},
		{
			"bufferView":134,
			"componentType":5126,
			"count":24,
			"max":[
				1.600000023841858,
				0.949999988079071,
				0.07999999821186066
			],
			"min":[
				-1.600000023841858,
				-0.949999988079071,
				-0.07999999821186066
			],
			"type":"VEC3"
		},
		{
			"bufferView":135,
			"componentType":5126,
			"count":24,
			"type":"VEC3"
		},
		{
			"bufferView":136,
			"componentType":5126,
			"count":24,
			"max":[
				1.5,
				0.8500000238418579,
				0.05999999865889549
			],
			"min":[
				-1.5,
				-0.8500000238418579,
				-0.05999999865889549
			],
			"type":"VEC3"
		},
		{
			"bufferView":137,
			"componentType":5126,
			"count":24,
			"type":"VEC3"
		},
		{
			"bufferView":138,
			"componentType":5126,
			"count":24,
			"max":[
				3,
				0.019999999552965164,
				2.0999999046325684
			],
			"min":[
				-3,
				-0.019999999552965164,
				-2.0999999046325684
			],
			"type":"VEC3"
		},
		{
			"bufferView":139,
			"componentType":5126,
			"count":24,
			"type":"VEC3"
		}
	],
	"bufferViews":[
		{
			"buffer":0,
			"byteLength":2592,
			"byteOffset":0,
			"target":34962
		},
		{
			"buffer":0,
			"byteLength":2592,
			"byteOffset":2592,
			"target":34962
		},
		{
			"buffer":0,
			"byteLength":648,
			"byteOffset":5184,
			"target":34963
		},
		{
			"buffer":0,
			"byteLength":288,
			"byteOffset":5832,
			"target":34962
		},
		{
			"buffer":0,
			"byteLength":288,
			"byteOffset":6120,
			"target":34962
		},
		{
			"buffer":0,
			"byteLength":72,
			"byteOffset":6408,
			"target":34963
		},
		{
			"buffer":0,
			"byteLength":288,
			"byteOffset":6480,
			"target":34962
		},
		{
			"buffer":0,
			"byteLength":288,
			"byteOffset":6768,
			"target":34962
		},
		{
			"buffer":0,
			"byteLength":2592,
			"byteOffset":7056,
			"target":34962
		},
		{
			"buffer":0,
			"byteLength":2592,
			"byteOffset":9648,
			"target":34962
		},
		{
			"buffer":0,
			"byteLength":648,
			"byteOffset":12240,
			"target":34963
		},
		{
			"buffer":0,
			"byteLength":1920,
			"byteOffset":12888,
			"target":34962
		},
		{
			"buffer":0,
			"byteLength":1920,
			"byteOffset":14808,
			"target":34962
		},
		{
			"buffer":0,
			"byteLength":480,
			"byteOffset":16728,
			"target":34963
		},
		{
			"buffer":0,
			"byteLength":2592,
			"byteOffset":17208,
			"target":34962
		},
		{
			"buffer":0,
			"byteLength":2592,
			"byteOffset":19800,
			"target":34962
		},
		{
			"buffer":0,
			"byteLength":2592,
			"byteOffset":22392,
			"target":34962
		},
		{
			"buffer":0,
			"byteLength":2592,
			"byteOffset":24984,
			"target":34962
		},
		{
			"buffer":0,
			"byteLength":2592,
			"byteOffset":27576,
			"target":34962
		},
		{
			"buffer":0,
			"byteLength":2592,
			"byteOffset":30168,
			"target":34962
		},
		{
			"buffer":0,
			"byteLength":2592,
			"byteOffset":32760,
			"target":34962
		},
		{
			"buffer":0,
			"byteLength":2592,
			"byteOffset":35352,
			"target":34962
		},
		{
			"buffer":0,
			"byteLength":648,
			"byteOffset":37944,
			"target":34963
		},
		{
			"buffer":0,
			"byteLength":2592,
			"byteOffset":38592,
			"target":34962
		},
		{
			"buffer":0,
			"byteLength":2592,
			"byteOffset":41184,
			"target":34962
		},
		{
			"buffer":0,
			"byteLength":2592,
			"byteOffset":43776,
			"target":34962
		},
		{
			"buffer":0,
			"byteLength":2592,
			"byteOffset":46368,
			"target":34962
		},
		{
			"buffer":0,
			"byteLength":288,
			"byteOffset":48960,
			"target":34962
		},
		{
			"buffer":0,
			"byteLength":288,
			"byteOffset":49248,
			"target":34962
		},
		{
			"buffer":0,
			"byteLength":288,
			"byteOffset":49536,
			"target":34962
		},
		{
			"buffer":0,
			"byteLength":288,
			"byteOffset":49824,
			"target":34962
		},
		{
			"buffer":0,
			"byteLength":288,
			"byteOffset":50112,
			"target":34962
		},
		{
			"buffer":0,
			"byteLength":288,
			"byteOffset":50400,
			"target":34962
		},
		{
			"buffer":0,
			"byteLength":288,
			"byteOffset":50688,
			"target":34962
		},
		{
			"buffer":0,
			"byteLength":288,
			"byteOffset":50976,
			"target":34962
		},
		{
			"buffer":0,
			"byteLength":288,
			"byteOffset":51264,
			"target":34962
		},
		{
			"buffer":0,
			"byteLength":288,
			"byteOffset":51552,
			"target":34962
		},
		{
			"buffer":0,
			"byteLength":288,
			"byteOffset":51840,
			"target":34962
		},
		{
			"buffer":0,
			"byteLength":288,
			"byteOffset":52128,
			"target":34962
		},
		{
			"buffer":0,
			"byteLength":288,
			"byteOffset":52416,
			"target":34962
		},
		{
			"buffer":0,
			"byteLength":288,
			"byteOffset":52704,
			"target":34962
		},
		{
			"buffer":0,
			"byteLength":576,
			"byteOffset":52992,
			"target":34962
		},
		{
			"buffer":0,
			"byteLength":576,
			"byteOffset":53568,
			"target":34962
		},
		{
			"buffer":0,
			"byteLength":168,
			"byteOffset":54144,
			"target":34963
		},
		{
			"buffer":0,
			"byteLength":1920,
			"byteOffset":54312,
			"target":34962
		},
		{
			"buffer":0,
			"byteLength":1920,
			"byteOffset":56232,
			"target":34962
		},
		{
			"buffer":0,
			"byteLength":576,
			"byteOffset":58152,
			"target":34962
		},
		{
			"buffer":0,
			"byteLength":576,
			"byteOffset":58728,
			"target":34962
		},
		{
			"buffer":0,
			"byteLength":1920,
			"byteOffset":59304,
			"target":34962
		},
		{
			"buffer":0,
			"byteLength":1920,
			"byteOffset":61224,
			"target":34962
		},
		{
			"buffer":0,
			"byteLength":288,
			"byteOffset":63144,
			"target":34962
		},
		{
			"buffer":0,
			"byteLength":288,
			"byteOffset":63432,
			"target":34962
		},
		{
			"buffer":0,
			"byteLength":288,
			"byteOffset":63720,
			"target":34962
		},
		{
			"buffer":0,
			"byteLength":288,
			"byteOffset":64008,
			"target":34962
		},
		{
			"buffer":0,
			"byteLength":288,
			"byteOffset":64296,
			"target":34962
		},
		{
			"buffer":0,
			"byteLength":288,
			"byteOffset":64584,
			"target":34962
		},
		{
			"buffer":0,
			"byteLength":288,
			"byteOffset":64872,
			"target":34962
		},
		{
			"buffer":0,
			"byteLength":288,
			"byteOffset":65160,
			"target":34962
		},
		{
			"buffer":0,
			"byteLength":576,
			"byteOffset":65448,
			"target":34962
		},
		{
			"buffer":0,
			"byteLength":576,
			"byteOffset":66024,
			"target":34962
		},
		{
			"buffer":0,
			"byteLength":576,
			"byteOffset":66600,
			"target":34962
		},
		{
			"buffer":0,
			"byteLength":576,
			"byteOffset":67176,
			"target":34962
		},
		{
			"buffer":0,
			"byteLength":576,
			"byteOffset":67752,
			"target":34962
		},
		{
			"buffer":0,
			"byteLength":576,
			"byteOffset":68328,
			"target":34962
		},
		{
			"buffer":0,
			"byteLength":720,
			"byteOffset":68904,
			"target":34962
		},
		{
			"buffer":0,
			"byteLength":720,
			"byteOffset":69624,
			"target":34962
		},
		{
			"buffer":0,
			"byteLength":216,
			"byteOffset":70344,
			"target":34963
		},
		{
			"buffer":0,
			"byteLength":288,
			"byteOffset":70560,
			"target":34962
		},
		{
			"buffer":0,
			"byteLength":288,
			"byteOffset":70848,
			"target":34962
		},
		{
			"buffer":0,
			"byteLength":288,
			"byteOffset":71136,
			"target":34962
		},
		{
			"buffer":0,
			"byteLength":288,
			"byteOffset":71424,
			"target":34962
		},
		{
			"buffer":0,
			"byteLength":288,
			"byteOffset":71712,
			"target":34962
		},
		{
			"buffer":0,
			"byteLength":288,
			"byteOffset":72000,
			"target":34962
		},
		{
			"buffer":0,
			"byteLength":288,
			"byteOffset":72288,
			"target":34962
		},
		{
			"buffer":0,
			"byteLength":288,
			"byteOffset":72576,
			"target":34962
		},
		{
			"buffer":0,
			"byteLength":288,
			"byteOffset":72864,
			"target":34962
		},
		{
			"buffer":0,
			"byteLength":288,
			"byteOffset":73152,
			"target":34962
		},
		{
			"buffer":0,
			"byteLength":288,
			"byteOffset":73440,
			"target":34962
		},
		{
			"buffer":0,
			"byteLength":288,
			"byteOffset":73728,
			"target":34962
		},
		{
			"buffer":0,
			"byteLength":288,
			"byteOffset":74016,
			"target":34962
		},
		{
			"buffer":0,
			"byteLength":288,
			"byteOffset":74304,
			"target":34962
		},
		{
			"buffer":0,
			"byteLength":288,
			"byteOffset":74592,
			"target":34962
		},
		{
			"buffer":0,
			"byteLength":288,
			"byteOffset":74880,
			"target":34962
		},
		{
			"buffer":0,
			"byteLength":288,
			"byteOffset":75168,
			"target":34962
		},
		{
			"buffer":0,
			"byteLength":288,
			"byteOffset":75456,
			"target":34962
		},
		{
			"buffer":0,
			"byteLength":288,
			"byteOffset":75744,
			"target":34962
		},
		{
			"buffer":0,
			"byteLength":288,
			"byteOffset":76032,
			"target":34962
		},
		{
			"buffer":0,
			"byteLength":288,
			"byteOffset":76320,
			"target":34962
		},
		{
			"buffer":0,
			"byteLength":288,
			"byteOffset":76608,
			"target":34962
		},
		{
			"buffer":0,
			"byteLength":288,
			"byteOffset":76896,
			"target":34962
		},
		{
			"buffer":0,
			"byteLength":288,
			"byteOffset":77184,
			"target":34962
		},
		{
			"buffer":0,
			"byteLength":288,
			"byteOffset":77472,
			"target":34962
		},
		{
			"buffer":0,
			"byteLength":288,
			"byteOffset":77760,
			"target":34962
		},
		{
			"buffer":0,
			"byteLength":288,
			"byteOffset":78048,
			"target":34962
		},
		{
			"buffer":0,
			"byteLength":288,
			"byteOffset":78336,
			"target":34962
		},
		{
			"buffer":0,
			"byteLength":288,
			"byteOffset":78624,
			"target":34962
		},
		{
			"buffer":0,
			"byteLength":288,
			"byteOffset":78912,
			"target":34962
		},
		{
			"buffer":0,
			"byteLength":288,
			"byteOffset":79200,
			"target":34962
		},
		{
			"buffer":0,
			"byteLength":288,
			"byteOffset":79488,
			"target":34962
		},
		{
			"buffer":0,
			"byteLength":288,
			"byteOffset":79776,
			"target":34962
		},
		{
			"buffer":0,
			"byteLength":288,
			"byteOffset":80064,
			"target":34962
		},
		{
			"buffer":0,
			"byteLength":288,
			"byteOffset":80352,
			"target":34962
		},
		{
			"buffer":0,
			"byteLength":288,
			"byteOffset":80640,
			"target":34962
		},
		{
			"buffer":0,
			"byteLength":288,
			"byteOffset":80928,
			"target":34962
		},
		{
			"buffer":0,
			"byteLength":288,
			"byteOffset":81216,
			"target":34962
		},
		{
			"buffer":0,
			"byteLength":288,
			"byteOffset":81504,
			"target":34962
		},
		{
			"buffer":0,
			"byteLength":288,
			"byteOffset":81792,
			"target":34962
		},
		{
			"buffer":0,
			"byteLength":288,
			"byteOffset":82080,
			"target":34962
		},
		{
			"buffer":0,
			"byteLength":288,
			"byteOffset":82368,
			"target":34962
		},
		{
			"buffer":0,
			"byteLength":288,
			"byteOffset":82656,
			"target":34962
		},
		{
			"buffer":0,
			"byteLength":288,
			"byteOffset":82944,
			"target":34962
		},
		{
			"buffer":0,
			"byteLength":288,
			"byteOffset":83232,
			"target":34962
		},
		{
			"buffer":0,
			"byteLength":288,
			"byteOffset":83520,
			"target":34962
		},
		{
			"buffer":0,
			"byteLength":288,
			"byteOffset":83808,
			"target":34962
		},
		{
			"buffer":0,
			"byteLength":288,
			"byteOffset":84096,
			"target":34962
		},
		{
			"buffer":0,
			"byteLength":288,
			"byteOffset":84384,
			"target":34962
		},
		{
			"buffer":0,
			"byteLength":288,
			"byteOffset":84672,
			"target":34962
		},
		{
			"buffer":0,
			"byteLength":288,
			"byteOffset":84960,
			"target":34962
		},
		{
			"buffer":0,
			"byteLength":288,
			"byteOffset":85248,
			"target":34962
		},
		{
			"buffer":0,
			"byteLength":3456,
			"byteOffset":85536,
			"target":34962
		},
		{
			"buffer":0,
			"byteLength":3456,
			"byteOffset":88992,
			"target":34962
		},
		{
			"buffer":0,
			"byteLength":1152,
			"byteOffset":92448,
			"target":34963
		},
		{
			"buffer":0,
			"byteLength":3456,
			"byteOffset":93600,
			"target":34962
		},
		{
			"buffer":0,
			"byteLength":3456,
			"byteOffset":97056,
			"target":34962
		},
		{
			"buffer":0,
			"byteLength":288,
			"byteOffset":100512,
			"target":34962
		},
		{
			"buffer":0,
			"byteLength":288,
			"byteOffset":100800,
			"target":34962
		},
		{
			"buffer":0,
			"byteLength":48,
			"byteOffset":101088,
			"target":34963
		},
		{
			"buffer":0,
			"byteLength":288,
			"byteOffset":101136,
			"target":34962
		},
		{
			"buffer":0,
			"byteLength":288,
			"byteOffset":101424,
			"target":34962
		},
		{
			"buffer":0,
			"byteLength":288,
			"byteOffset":101712,
			"target":34962
		},
		{
			"buffer":0,
			"byteLength":288,
			"byteOffset":102000,
			"target":34962
		},
		{
			"buffer":0,
			"byteLength":288,
			"byteOffset":102288,
			"target":34962
		},
		{
			"buffer":0,
			"byteLength":288,
			"byteOffset":102576,
			"target":34962
		},
		{
			"buffer":0,
			"byteLength":132,
			"byteOffset":102864,
			"target":34963
		},
		{
			"buffer":0,
			"byteLength":288,
			"byteOffset":102996,
			"target":34962
		},
		{
			"buffer":0,
			"byteLength":288,
			"byteOffset":103284,
			"target":34962
		},
		{
			"buffer":0,
			"byteLength":288,
			"byteOffset":103572,
			"target":34962
		},
		{
			"buffer":0,
			"byteLength":288,
			"byteOffset":103860,
			"target":34962
		},
		{
			"buffer":0,
			"byteLength":288,
			"byteOffset":104148,
			"target":34962
		},
		{
			"buffer":0,
			"byteLength":288,
			"byteOffset":104436,
			"target":34962
		}
	],
	"buffers":[
		{
			"byteLength":104724,
			"uri":"peris-furniture.bin"
		}
	]
}
