{"asset":{"version":"2.0","generator":"THREE.GLTFExporter"},"scenes":[{"name":"default","nodes":[0]}],"scene":0,"nodes":[{"mesh":0}],"bufferViews":[{"buffer":0,"byteOffset":0,"byteLength":7488,"target":34962,"byteStride":12},{"buffer":0,"byteOffset":7488,"byteLength":7488,"target":34962,"byteStride":12},{"buffer":0,"byteOffset":14976,"byteLength":4992,"target":34962,"byteStride":8},{"buffer":0,"byteOffset":19968,"byteLength":1248,"target":34963}],"buffers":[{"byteLength":21216,"uri":"data:application/octet-stream;base64,"}],"accessors":[{"bufferView":0,"componentType":5126,"count":624,"max":[16,8,12],"min":[0,0,0],"type":"VEC3"},{"bufferView":1,"componentType":5126,"count":624,"max":[1,1,1],"min":[0,0,0],"type":"VEC3"},{"bufferView":2,"componentType":5126,"count":624,"max":[0.25,0.5],"min":[0,0],"type":"VEC2"},{"bufferView":3,"componentType":5123,"count":624,"max":[623],"min":[0],"type":"SCALAR"}],"materials":[{"pbrMetallicRoughness":{"metallicFactor":0,"roughnessFactor":1,"baseColorTexture":{"index":0}},"alphaMode":"MASK","alphaCutoff":0.01,"name":"peris-sim_peris-sim"}],"textures":[{"sampler":0,"source":0,"name":"peris-sim_peris-sim"}],"samplers":[{"magFilter":9728,"minFilter":9728,"wrapS":33071,"wrapT":33071}],"images":[{"mimeType":"image/png","uri":"peris-sim_peris-sim.png"}],"meshes":[{"primitives":[{"mode":4,"attributes":{"POSITION":0,"NORMAL":1,"TEXCOORD_0":2},"indices":3,"material":0}]}]}