{"asset":{"version":"2.0","generator":"THREE.GLTFExporter"},"scenes":[{"name":"default","nodes":[0,1,2]}],"scene":0,"nodes":[{"matrix":[0.5,0,0,0,0,0.5,0,0,0,0,0.5,0,0,0,0,1],"name":"Room","extras":{"data":{"name":"Room","points":[{"name":"Origin","pos":{"x":0,"y":0,"z":0}}],"billboard":{"enabled":false,"y":false,"snap":false,"snapAngle":45},"directional":{"enabled":false,"mode":"cameraAngle","angles":[{"suffix":"_S","angle":0,"enabled":true,"min":-22.5,"max":22.5},{"suffix":"_SW","angle":45,"enabled":true,"min":22.5,"max":67.5},{"suffix":"_W","angle":90,"enabled":true,"min":67.5,"max":112.5},{"suffix":"_NW","angle":135,"enabled":true,"min":112.5,"max":157.5},{"suffix":"_N","angle":180,"enabled":true,"min":157.5,"max":202.5},{"suffix":"_NE","angle":225,"enabled":true,"min":202.5,"max":247.5},{"suffix":"_E","angle":270,"enabled":true,"min":247.5,"max":292.5},{"suffix":"_SE","angle":315,"enabled":true,"min":292.5,"max":337.5}]},"custom":[],"instance":{"name":"Room","uuid":"5D6E0987-59BE-4069-BCD7-C76A65941E36","parent":null,"pos":{"x":0,"y":0,"z":0},"rot":{"x":0,"y":0,"z":0,"order":"XYZ"},"sca":{"x":0.5,"y":0.5,"z":0.5},"custom":[]}}},"mesh":0},{"matrix":[2.220446049250313e-16,0,-1,0,0,1,0,0,1,0,2.220446049250313e-16,0,5.625,0.375,0.75,1],"name":"bench","extras":{"data":{"name":"bench","points":[{"name":"Origin","pos":{"x":0,"y":0,"z":0}}],"billboard":{"enabled":false,"y":false,"snap":false,"snapAngle":45},"directional":{"enabled":false,"mode":"cameraAngle","angles":[]},"custom":[],"instance":{"name":"bench","uuid":"986656B7-5F49-47B3-94C7-97C8DA976B10","parent":null,"pos":{"x":5.625,"y":0.375,"z":0.75},"rot":{"x":0,"y":1.5707963267948966,"z":0,"order":"XYZ"},"sca":{"x":1,"y":1,"z":1},"custom":[]}}},"mesh":1},{"matrix":[2.220446049250313e-16,0,-1,0,0,1,0,0,1,0,2.220446049250313e-16,0,9.25,0.5,0.75,1],"name":"couch","extras":{"data":{"name":"couch","points":[{"name":"Origin","pos":{"x":0,"y":0,"z":0}}],"billboard":{"enabled":false,"y":false,"snap":false,"snapAngle":45},"directional":{"enabled":false,"mode":"cameraAngle","angles":[]},"custom":[],"instance":{"name":"couch","uuid":"2C2028F9-A8BE-4B64-95F5-653868EC8961","parent":null,"pos":{"x":9.25,"y":0.5,"z":0.75},"rot":{"x":0,"y":1.5707963267948966,"z":0,"order":"XYZ"},"sca":{"x":1,"y":1,"z":1},"custom":[]}}},"mesh":2}],"bufferViews":[{"buffer":0,"byteOffset":0,"byteLength":15408,"target":34962,"byteStride":12},{"buffer":0,"byteOffset":15408,"byteLength":15408,"target":34962,"byteStride":12},{"buffer":0,"byteOffset":30816,"byteLength":10272,"target":34962,"byteStride":8},{"buffer":0,"byteOffset":41088,"byteLength":2568,"target":34963},{"buffer":0,"byteOffset":43656,"byteLength":36288,"target":34962,"byteStride":12},{"buffer":0,"byteOffset":79944,"byteLength":36288,"target":34962,"byteStride":12},{"buffer":0,"byteOffset":116232,"byteLength":24192,"target":34962,"byteStride":8},{"buffer":0,"byteOffset":140424,"byteLength":1296,"target":34963},{"buffer":0,"byteOffset":141720,"byteLength":288,"target":34963},{"buffer":0,"byteOffset":142008,"byteLength":4464,"target":34963},{"buffer":0,"byteOffset":146472,"byteLength":17568,"target":34962,"byteStride":12},{"buffer":0,"byteOffset":164040,"byteLength":17568,"target":34962,"byteStride":12},{"buffer":0,"byteOffset":181608,"byteLength":11712,"target":34962,"byteStride":8},{"buffer":0,"byteOffset":193320,"byteLength":1488,"target":34963},{"buffer":0,"byteOffset":194808,"byteLength":576,"target":34963},{"buffer":0,"byteOffset":195384,"byteLength":864,"target":34963}],"buffers":[{"byteLength":196248,"uri":"data:application/octet-stream;base64,"}],"accessors":[{"bufferView":0,"componentType":5126,"count":1284,"max":[28,10,12],"min":[0,0,0],"type":"VEC3"},{"bufferView":1,"componentType":5126,"count":1284,"max":[1,1,1],"min":[-1,0,0],"type":"VEC3"},{"bufferView":2,"componentType":5126,"count":1284,"max":[0.25,0.5],"min":[0,0],"type":"VEC2"},{"bufferView":3,"componentType":5123,"count":1284,"max":[1283],"min":[0],"type":"SCALAR"},{"bufferView":4,"componentType":5126,"count":3024,"max":[0.75,1.4174139499664307,1.6919739246368408],"min":[-0.796875,-0.4375,-1.6875],"type":"VEC3"},{"bufferView":5,"componentType":5126,"count":3024,"max":[1,1,1],"min":[-1,-1,-1],"type":"VEC3"},{"bufferView":6,"componentType":5126,"count":3024,"max":[0.796875,0.6640625],"min":[0,0],"type":"VEC2"},{"bufferView":7,"componentType":5123,"count":648,"max":[647],"min":[0],"type":"SCALAR"},{"bufferView":8,"componentType":5123,"count":144,"max":[791],"min":[648],"type":"SCALAR"},{"bufferView":9,"componentType":5123,"count":2232,"max":[3023],"min":[792],"type":"SCALAR"},{"bufferView":10,"componentType":5126,"count":1464,"max":[0.765625,1.4915363788604736,0.875],"min":[-0.7968749403953552,-0.515625,-0.875],"type":"VEC3"},{"bufferView":11,"componentType":5126,"count":1464,"max":[1,1,1],"min":[-1,-1,-1],"type":"VEC3"},{"bufferView":12,"componentType":5126,"count":1464,"max":[0.921875,0.984375],"min":[0,0],"type":"VEC2"},{"bufferView":13,"componentType":5123,"count":744,"max":[743],"min":[0],"type":"SCALAR"},{"bufferView":14,"componentType":5123,"count":288,"max":[1031],"min":[744],"type":"SCALAR"},{"bufferView":15,"componentType":5123,"count":432,"max":[1463],"min":[1032],"type":"SCALAR"}],"materials":[{"pbrMetallicRoughness":{"metallicFactor":0,"roughnessFactor":1,"baseColorTexture":{"index":0}},"alphaMode":"MASK","alphaCutoff":0.01,"name":"peris-sim_peris-sim"},{"pbrMetallicRoughness":{"metallicFactor":0,"roughnessFactor":1,"baseColorTexture":{"index":1}},"alphaMode":"MASK","alphaCutoff":0.01,"doubleSided":true,"name":"peris-sim_9"},{"pbrMetallicRoughness":{"metallicFactor":0,"roughnessFactor":1,"baseColorTexture":{"index":2}},"alphaMode":"MASK","alphaCutoff":0.01,"name":"peris-sim_7"},{"pbrMetallicRoughness":{"metallicFactor":0,"roughnessFactor":1,"baseColorTexture":{"index":3}},"alphaMode":"MASK","alphaCutoff":0.01,"name":"peris-sim_8"},{"pbrMetallicRoughness":{"metallicFactor":0,"roughnessFactor":1,"baseColorTexture":{"index":4}},"alphaMode":"MASK","alphaCutoff":0.01,"name":"peris-sim_10"},{"pbrMetallicRoughness":{"metallicFactor":0,"roughnessFactor":1,"baseColorTexture":{"index":5}},"alphaMode":"MASK","alphaCutoff":0.01,"name":"peris-sim_11"},{"pbrMetallicRoughness":{"metallicFactor":0,"roughnessFactor":1,"baseColorTexture":{"index":6}},"alphaMode":"MASK","alphaCutoff":0.01,"name":"peris-sim_12"}],"textures":[{"sampler":0,"source":0,"name":"peris-sim_peris-sim"},{"sampler":1,"source":1,"name":"peris-sim_9"},{"sampler":2,"source":2,"name":"peris-sim_7"},{"sampler":3,"source":3,"name":"peris-sim_8"},{"sampler":4,"source":4,"name":"peris-sim_10"},{"sampler":5,"source":5,"name":"peris-sim_11"},{"sampler":6,"source":6,"name":"peris-sim_12"}],"samplers":[{"magFilter":9728,"minFilter":9728,"wrapS":33071,"wrapT":33071},{"magFilter":9728,"minFilter":9728,"wrapS":33071,"wrapT":33071},{"magFilter":9728,"minFilter":9728,"wrapS":33071,"wrapT":33071},{"magFilter":9728,"minFilter":9728,"wrapS":33071,"wrapT":33071},{"magFilter":9728,"minFilter":9728,"wrapS":33071,"wrapT":33071},{"magFilter":9728,"minFilter":9728,"wrapS":33071,"wrapT":33071},{"magFilter":9728,"minFilter":9728,"wrapS":33071,"wrapT":33071}],"images":[{"mimeType":"image/png","uri":"peris-sim_peris-sim.png"},{"mimeType":"image/png","uri":"peris-sim_9.png"},{"mimeType":"image/png","uri":"peris-sim_7.png"},{"mimeType":"image/png","uri":"peris-sim_8.png"},{"mimeType":"image/png","uri":"peris-sim_10.png"},{"mimeType":"image/png","uri":"peris-sim_11.png"},{"mimeType":"image/png","uri":"peris-sim_12.png"}],"meshes":[{"primitives":[{"mode":4,"attributes":{"POSITION":0,"NORMAL":1,"TEXCOORD_0":2},"indices":3,"material":0}]},{"primitives":[{"mode":4,"attributes":{"POSITION":4,"NORMAL":5,"TEXCOORD_0":6},"indices":7,"material":1},{"mode":4,"attributes":{"POSITION":4,"NORMAL":5,"TEXCOORD_0":6},"indices":8,"material":2},{"mode":4,"attributes":{"POSITION":4,"NORMAL":5,"TEXCOORD_0":6},"indices":9,"material":3}]},{"primitives":[{"mode":4,"attributes":{"POSITION":10,"NORMAL":11,"TEXCOORD_0":12},"indices":13,"material":4},{"mode":4,"attributes":{"POSITION":10,"NORMAL":11,"TEXCOORD_0":12},"indices":14,"material":5},{"mode":4,"attributes":{"POSITION":10,"NORMAL":11,"TEXCOORD_0":12},"indices":15,"material":6}]}]}