mtllib cleanstreets_spike_lane_curbs.mtl
usemtl baked
v -0.460000 0.158087 -0.273356
v 0.460000 0.158087 -0.273356
v -0.460000 0.048516 -0.322288
v 0.460000 0.158087 -0.273356
v 0.460000 0.048516 -0.322288
v -0.460000 0.048516 -0.322288
v 0.460000 0.231484 -0.437712
v -0.460000 0.231484 -0.437712
v 0.460000 0.121913 -0.486644
v -0.460000 0.231484 -0.437712
v -0.460000 0.121913 -0.486644
v 0.460000 0.121913 -0.486644
v 0.460000 0.158087 -0.273356
v 0.460000 0.231484 -0.437712
v 0.460000 0.048516 -0.322288
v 0.460000 0.231484 -0.437712
v 0.460000 0.121913 -0.486644
v 0.460000 0.048516 -0.322288
v -0.460000 0.231484 -0.437712
v -0.460000 0.158087 -0.273356
v -0.460000 0.121913 -0.486644
v -0.460000 0.158087 -0.273356
v -0.460000 0.048516 -0.322288
v -0.460000 0.121913 -0.486644
v 0.460000 0.158087 -0.273356
v -0.460000 0.158087 -0.273356
v 0.460000 0.231484 -0.437712
v -0.460000 0.158087 -0.273356
v -0.460000 0.231484 -0.437712
v 0.460000 0.231484 -0.437712
v -0.460000 0.048516 -0.322288
v 0.460000 0.048516 -0.322288
v -0.460000 0.121913 -0.486644
v 0.460000 0.048516 -0.322288
v 0.460000 0.121913 -0.486644
v -0.460000 0.121913 -0.486644
v -0.460000 0.231484 0.437712
v 0.460000 0.231484 0.437712
v -0.460000 0.121913 0.486644
v 0.460000 0.231484 0.437712
v 0.460000 0.121913 0.486644
v -0.460000 0.121913 0.486644
v 0.460000 0.158087 0.273356
v -0.460000 0.158087 0.273356
v 0.460000 0.048516 0.322288
v -0.460000 0.158087 0.273356
v -0.460000 0.048516 0.322288
v 0.460000 0.048516 0.322288
v 0.460000 0.231484 0.437712
v 0.460000 0.158087 0.273356
v 0.460000 0.121913 0.486644
v 0.460000 0.158087 0.273356
v 0.460000 0.048516 0.322288
v 0.460000 0.121913 0.486644
v -0.460000 0.158087 0.273356
v -0.460000 0.231484 0.437712
v -0.460000 0.048516 0.322288
v -0.460000 0.231484 0.437712
v -0.460000 0.121913 0.486644
v -0.460000 0.048516 0.322288
v 0.460000 0.231484 0.437712
v -0.460000 0.231484 0.437712
v 0.460000 0.158087 0.273356
v -0.460000 0.231484 0.437712
v -0.460000 0.158087 0.273356
v 0.460000 0.158087 0.273356
v -0.460000 0.121913 0.486644
v 0.460000 0.121913 0.486644
v -0.460000 0.048516 0.322288
v 0.460000 0.121913 0.486644
v 0.460000 0.048516 0.322288
v -0.460000 0.048516 0.322288
vt 0.776875 0.812500
vt 0.546875 0.812500
vt 0.776875 0.757715
vt 0.546875 0.812500
vt 0.546875 0.757715
vt 0.776875 0.757715
vt 0.245625 0.656250
vt 0.015625 0.656250
vt 0.245625 0.601465
vt 0.015625 0.656250
vt 0.015625 0.601465
vt 0.245625 0.601465
vt 0.068947 0.932052
vt 0.027858 0.968750
vt 0.056714 0.877266
vt 0.027858 0.968750
vt 0.015625 0.913965
vt 0.056714 0.877266
vt 0.142651 0.968750
vt 0.101563 0.932052
vt 0.154884 0.913965
vt 0.101563 0.932052
vt 0.113795 0.877266
vt 0.154884 0.913965
vt 0.417500 0.968750
vt 0.187500 0.968750
vt 0.417500 0.886572
vt 0.187500 0.968750
vt 0.187500 0.886572
vt 0.417500 0.886572
vt 0.453125 0.886572
vt 0.683125 0.886572
vt 0.453125 0.968750
vt 0.683125 0.886572
vt 0.683125 0.968750
vt 0.453125 0.968750
vt 0.511250 0.656250
vt 0.281250 0.656250
vt 0.511250 0.601465
vt 0.281250 0.656250
vt 0.281250 0.601465
vt 0.511250 0.601465
vt 0.776875 0.656250
vt 0.546875 0.656250
vt 0.776875 0.601465
vt 0.546875 0.656250
vt 0.546875 0.601465
vt 0.776875 0.601465
vt 0.759839 0.968750
vt 0.718750 0.932052
vt 0.772072 0.913965
vt 0.718750 0.932052
vt 0.730983 0.877266
vt 0.772072 0.913965
vt 0.858009 0.932052
vt 0.816920 0.968750
vt 0.845776 0.877266
vt 0.816920 0.968750
vt 0.804688 0.913965
vt 0.845776 0.877266
vt 0.245625 0.812500
vt 0.015625 0.812500
vt 0.245625 0.730322
vt 0.015625 0.812500
vt 0.015625 0.730322
vt 0.245625 0.730322
vt 0.281250 0.730322
vt 0.511250 0.730322
vt 0.281250 0.812500
vt 0.511250 0.730322
vt 0.511250 0.812500
vt 0.281250 0.812500
f 1/1 2/2 3/3
f 4/4 5/5 6/6
f 7/7 8/8 9/9
f 10/10 11/11 12/12
f 13/13 14/14 15/15
f 16/16 17/17 18/18
f 19/19 20/20 21/21
f 22/22 23/23 24/24
f 25/25 26/26 27/27
f 28/28 29/29 30/30
f 31/31 32/32 33/33
f 34/34 35/35 36/36
f 37/37 38/38 39/39
f 40/40 41/41 42/42
f 43/43 44/44 45/45
f 46/46 47/47 48/48
f 49/49 50/50 51/51
f 52/52 53/53 54/54
f 55/55 56/56 57/57
f 58/58 59/59 60/60
f 61/61 62/62 63/63
f 64/64 65/65 66/66
f 67/67 68/68 69/69
f 70/70 71/71 72/72
