# Blender 5.1.1
# www.blender.org
mtllib elevator_car.mtl
o ElevatorCar
v -4.000000 4.031250 4.000000
v -4.000000 4.031250 4.000000
v -4.000000 4.031250 4.000000
v 4.000000 4.031250 4.000000
v 4.000000 4.031250 4.000000
v 4.000000 4.031250 4.000000
v 4.000000 4.031250 -4.000000
v 4.000000 4.031250 -4.000000
v 4.000000 4.031250 -4.000000
v -4.000000 4.031250 -4.000000
v -4.000000 4.031250 -4.000000
v -4.000000 4.031250 -4.000000
v -4.000000 4.218750 4.000000
v -4.000000 4.218750 4.000000
v -4.000000 4.218750 4.000000
v 4.000000 4.218750 4.000000
v 4.000000 4.218750 4.000000
v 4.000000 4.218750 4.000000
v 4.000000 4.218750 -4.000000
v 4.000000 4.218750 -4.000000
v 4.000000 4.218750 -4.000000
v -4.000000 4.218750 -4.000000
v -4.000000 4.218750 -4.000000
v -4.000000 4.218750 -4.000000
v -4.000000 -0.250000 4.000000
v -4.000000 -0.250000 4.000000
v -4.000000 -0.250000 4.000000
v 4.000000 -0.250000 4.000000
v 4.000000 -0.250000 4.000000
v 4.000000 -0.250000 4.000000
v 4.000000 -0.250000 -4.000000
v 4.000000 -0.250000 -4.000000
v 4.000000 -0.250000 -4.000000
v -4.000000 -0.250000 -4.000000
v -4.000000 -0.250000 -4.000000
v -4.000000 -0.250000 -4.000000
v -4.000000 0.000000 4.000000
v -4.000000 0.000000 4.000000
v -4.000000 0.000000 4.000000
v 4.000000 0.000000 4.000000
v 4.000000 0.000000 4.000000
v 4.000000 0.000000 4.000000
v 4.000000 0.000000 -4.000000
v 4.000000 0.000000 -4.000000
v 4.000000 0.000000 -4.000000
v -4.000000 0.000000 -4.000000
v -4.000000 0.000000 -4.000000
v -4.000000 0.000000 -4.000000
v -3.906250 -0.031250 3.906250
v -3.906250 -0.031250 3.906250
v -3.906250 -0.031250 3.906250
v 3.906250 -0.031250 3.906250
v 3.906250 -0.031250 3.906250
v 3.906250 -0.031250 3.906250
v 3.906250 -0.031250 -3.906250
v 3.906250 -0.031250 -3.906250
v 3.906250 -0.031250 -3.906250
v -3.906250 -0.031250 -3.906250
v -3.906250 -0.031250 -3.906250
v -3.906250 -0.031250 -3.906250
v -3.906250 0.031250 3.906250
v -3.906250 0.031250 3.906250
v -3.906250 0.031250 3.906250
v 3.906250 0.031250 3.906250
v 3.906250 0.031250 3.906250
v 3.906250 0.031250 3.906250
v 3.906250 0.031250 -3.906250
v 3.906250 0.031250 -3.906250
v 3.906250 0.031250 -3.906250
v -3.906250 0.031250 -3.906250
v -3.906250 0.031250 -3.906250
v -3.906250 0.031250 -3.906250
v -1.500000 3.812500 1.500000
v -1.500000 3.812500 1.500000
v -1.500000 3.812500 1.500000
v 1.500000 3.812500 1.500000
v 1.500000 3.812500 1.500000
v 1.500000 3.812500 1.500000
v 1.500000 3.812500 -1.500000
v 1.500000 3.812500 -1.500000
v 1.500000 3.812500 -1.500000
v -1.500000 3.812500 -1.500000
v -1.500000 3.812500 -1.500000
v -1.500000 3.812500 -1.500000
v -1.500000 3.937500 1.500000
v -1.500000 3.937500 1.500000
v -1.500000 3.937500 1.500000
v 1.500000 3.937500 1.500000
v 1.500000 3.937500 1.500000
v 1.500000 3.937500 1.500000
v 1.500000 3.937500 -1.500000
v 1.500000 3.937500 -1.500000
v 1.500000 3.937500 -1.500000
v -1.500000 3.937500 -1.500000
v -1.500000 3.937500 -1.500000
v -1.500000 3.937500 -1.500000
v -1.187500 3.781250 1.187500
v -1.187500 3.781250 1.187500
v -1.187500 3.781250 1.187500
v 1.187500 3.781250 1.187500
v 1.187500 3.781250 1.187500
v 1.187500 3.781250 1.187500
v 1.187500 3.781250 -1.187500
v 1.187500 3.781250 -1.187500
v 1.187500 3.781250 -1.187500
v -1.187500 3.781250 -1.187500
v -1.187500 3.781250 -1.187500
v -1.187500 3.781250 -1.187500
v -1.187500 3.843750 1.187500
v -1.187500 3.843750 1.187500
v -1.187500 3.843750 1.187500
v 1.187500 3.843750 1.187500
v 1.187500 3.843750 1.187500
v 1.187500 3.843750 1.187500
v 1.187500 3.843750 -1.187500
v 1.187500 3.843750 -1.187500
v 1.187500 3.843750 -1.187500
v -1.187500 3.843750 -1.187500
v -1.187500 3.843750 -1.187500
v -1.187500 3.843750 -1.187500
v -4.125000 0.000000 4.000000
v -4.125000 0.000000 4.000000
v -4.125000 0.000000 4.000000
v -3.875000 0.000000 4.000000
v -3.875000 0.000000 4.000000
v -3.875000 0.000000 4.000000
v -3.875000 0.000000 -4.000000
v -3.875000 0.000000 -4.000000
v -3.875000 0.000000 -4.000000
v -4.125000 0.000000 -4.000000
v -4.125000 0.000000 -4.000000
v -4.125000 0.000000 -4.000000
v -4.125000 4.000000 4.000000
v -4.125000 4.000000 4.000000
v -4.125000 4.000000 4.000000
v -3.875000 4.000000 4.000000
v -3.875000 4.000000 4.000000
v -3.875000 4.000000 4.000000
v -3.875000 4.000000 -4.000000
v -3.875000 4.000000 -4.000000
v -3.875000 4.000000 -4.000000
v -4.125000 4.000000 -4.000000
v -4.125000 4.000000 -4.000000
v -4.125000 4.000000 -4.000000
v -4.000000 0.000000 4.125000
v -4.000000 0.000000 4.125000
v -4.000000 0.000000 4.125000
v 4.000000 0.000000 4.125000
v 4.000000 0.000000 4.125000
v 4.000000 0.000000 4.125000
v 4.000000 0.000000 3.875000
v 4.000000 0.000000 3.875000
v 4.000000 0.000000 3.875000
v -4.000000 0.000000 3.875000
v -4.000000 0.000000 3.875000
v -4.000000 0.000000 3.875000
v -4.000000 4.000000 4.125000
v -4.000000 4.000000 4.125000
v -4.000000 4.000000 4.125000
v 4.000000 4.000000 4.125000
v 4.000000 4.000000 4.125000
v 4.000000 4.000000 4.125000
v 4.000000 4.000000 3.875000
v 4.000000 4.000000 3.875000
v 4.000000 4.000000 3.875000
v -4.000000 4.000000 3.875000
v -4.000000 4.000000 3.875000
v -4.000000 4.000000 3.875000
v -4.000000 0.000000 -3.875000
v -4.000000 0.000000 -3.875000
v -4.000000 0.000000 -3.875000
v 4.000000 0.000000 -3.875000
v 4.000000 0.000000 -3.875000
v 4.000000 0.000000 -3.875000
v 4.000000 0.000000 -4.125000
v 4.000000 0.000000 -4.125000
v 4.000000 0.000000 -4.125000
v -4.000000 0.000000 -4.125000
v -4.000000 0.000000 -4.125000
v -4.000000 0.000000 -4.125000
v -4.000000 4.000000 -3.875000
v -4.000000 4.000000 -3.875000
v -4.000000 4.000000 -3.875000
v 4.000000 4.000000 -3.875000
v 4.000000 4.000000 -3.875000
v 4.000000 4.000000 -3.875000
v 4.000000 4.000000 -4.125000
v 4.000000 4.000000 -4.125000
v 4.000000 4.000000 -4.125000
v -4.000000 4.000000 -4.125000
v -4.000000 4.000000 -4.125000
v -4.000000 4.000000 -4.125000
v 3.875000 0.000000 -1.000000
v 3.875000 0.000000 -1.000000
v 3.875000 0.000000 -1.000000
v 4.125000 0.000000 -1.000000
v 4.125000 0.000000 -1.000000
v 4.125000 0.000000 -1.000000
v 4.125000 0.000000 -4.000000
v 4.125000 0.000000 -4.000000
v 4.125000 0.000000 -4.000000
v 3.875000 0.000000 -4.000000
v 3.875000 0.000000 -4.000000
v 3.875000 0.000000 -4.000000
v 3.875000 4.000000 -1.000000
v 3.875000 4.000000 -1.000000
v 3.875000 4.000000 -1.000000
v 4.125000 4.000000 -1.000000
v 4.125000 4.000000 -1.000000
v 4.125000 4.000000 -1.000000
v 4.125000 4.000000 -4.000000
v 4.125000 4.000000 -4.000000
v 4.125000 4.000000 -4.000000
v 3.875000 4.000000 -4.000000
v 3.875000 4.000000 -4.000000
v 3.875000 4.000000 -4.000000
v 3.875000 0.000000 4.000000
v 3.875000 0.000000 4.000000
v 3.875000 0.000000 4.000000
v 4.125000 0.000000 4.000000
v 4.125000 0.000000 4.000000
v 4.125000 0.000000 4.000000
v 4.125000 0.000000 1.000000
v 4.125000 0.000000 1.000000
v 4.125000 0.000000 1.000000
v 3.875000 0.000000 1.000000
v 3.875000 0.000000 1.000000
v 3.875000 0.000000 1.000000
v 3.875000 4.000000 4.000000
v 3.875000 4.000000 4.000000
v 3.875000 4.000000 4.000000
v 4.125000 4.000000 4.000000
v 4.125000 4.000000 4.000000
v 4.125000 4.000000 4.000000
v 4.125000 4.000000 1.000000
v 4.125000 4.000000 1.000000
v 4.125000 4.000000 1.000000
v 3.875000 4.000000 1.000000
v 3.875000 4.000000 1.000000
v 3.875000 4.000000 1.000000
v 3.875000 3.000000 1.000000
v 3.875000 3.000000 1.000000
v 3.875000 3.000000 1.000000
v 4.125000 3.000000 1.000000
v 4.125000 3.000000 1.000000
v 4.125000 3.000000 1.000000
v 4.125000 3.000000 -1.000000
v 4.125000 3.000000 -1.000000
v 4.125000 3.000000 -1.000000
v 3.875000 3.000000 -1.000000
v 3.875000 3.000000 -1.000000
v 3.875000 3.000000 -1.000000
v 3.875000 4.000000 1.000000
v 3.875000 4.000000 1.000000
v 3.875000 4.000000 1.000000
v 4.125000 4.000000 1.000000
v 4.125000 4.000000 1.000000
v 4.125000 4.000000 1.000000
v 4.125000 4.000000 -1.000000
v 4.125000 4.000000 -1.000000
v 4.125000 4.000000 -1.000000
v 3.875000 4.000000 -1.000000
v 3.875000 4.000000 -1.000000
v 3.875000 4.000000 -1.000000
v 3.750000 0.000000 -1.031250
v 3.750000 0.000000 -1.031250
v 3.750000 0.000000 -1.031250
v 4.125000 0.000000 -1.031250
v 4.125000 0.000000 -1.031250
v 4.125000 0.000000 -1.031250
v 4.125000 0.000000 -1.218750
v 4.125000 0.000000 -1.218750
v 4.125000 0.000000 -1.218750
v 3.750000 0.000000 -1.218750
v 3.750000 0.000000 -1.218750
v 3.750000 0.000000 -1.218750
v 3.750000 3.000000 -1.031250
v 3.750000 3.000000 -1.031250
v 3.750000 3.000000 -1.031250
v 4.125000 3.000000 -1.031250
v 4.125000 3.000000 -1.031250
v 4.125000 3.000000 -1.031250
v 4.125000 3.000000 -1.218750
v 4.125000 3.000000 -1.218750
v 4.125000 3.000000 -1.218750
v 3.750000 3.000000 -1.218750
v 3.750000 3.000000 -1.218750
v 3.750000 3.000000 -1.218750
v 3.750000 0.000000 1.218750
v 3.750000 0.000000 1.218750
v 3.750000 0.000000 1.218750
v 4.125000 0.000000 1.218750
v 4.125000 0.000000 1.218750
v 4.125000 0.000000 1.218750
v 4.125000 0.000000 1.031250
v 4.125000 0.000000 1.031250
v 4.125000 0.000000 1.031250
v 3.750000 0.000000 1.031250
v 3.750000 0.000000 1.031250
v 3.750000 0.000000 1.031250
v 3.750000 3.000000 1.218750
v 3.750000 3.000000 1.218750
v 3.750000 3.000000 1.218750
v 4.125000 3.000000 1.218750
v 4.125000 3.000000 1.218750
v 4.125000 3.000000 1.218750
v 4.125000 3.000000 1.031250
v 4.125000 3.000000 1.031250
v 4.125000 3.000000 1.031250
v 3.750000 3.000000 1.031250
v 3.750000 3.000000 1.031250
v 3.750000 3.000000 1.031250
v 3.718750 -0.031250 1.093750
v 3.718750 -0.031250 1.093750
v 3.718750 -0.031250 1.093750
v 4.031250 -0.031250 1.093750
v 4.031250 -0.031250 1.093750
v 4.031250 -0.031250 1.093750
v 4.031250 -0.031250 -1.093750
v 4.031250 -0.031250 -1.093750
v 4.031250 -0.031250 -1.093750
v 3.718750 -0.031250 -1.093750
v 3.718750 -0.031250 -1.093750
v 3.718750 -0.031250 -1.093750
v 3.718750 0.031250 1.093750
v 3.718750 0.031250 1.093750
v 3.718750 0.031250 1.093750
v 4.031250 0.031250 1.093750
v 4.031250 0.031250 1.093750
v 4.031250 0.031250 1.093750
v 4.031250 0.031250 -1.093750
v 4.031250 0.031250 -1.093750
v 4.031250 0.031250 -1.093750
v 3.718750 0.031250 -1.093750
v 3.718750 0.031250 -1.093750
v 3.718750 0.031250 -1.093750
v -4.031250 0.000000 4.031250
v -4.031250 0.000000 4.031250
v -4.031250 0.000000 4.031250
v -3.718750 0.000000 4.031250
v -3.718750 0.000000 4.031250
v -3.718750 0.000000 4.031250
v -3.718750 0.000000 3.718750
v -3.718750 0.000000 3.718750
v -3.718750 0.000000 3.718750
v -4.031250 0.000000 3.718750
v -4.031250 0.000000 3.718750
v -4.031250 0.000000 3.718750
v -4.031250 4.000000 4.031250
v -4.031250 4.000000 4.031250
v -4.031250 4.000000 4.031250
v -3.718750 4.000000 4.031250
v -3.718750 4.000000 4.031250
v -3.718750 4.000000 4.031250
v -3.718750 4.000000 3.718750
v -3.718750 4.000000 3.718750
v -3.718750 4.000000 3.718750
v -4.031250 4.000000 3.718750
v -4.031250 4.000000 3.718750
v -4.031250 4.000000 3.718750
v -4.031250 0.000000 -3.718750
v -4.031250 0.000000 -3.718750
v -4.031250 0.000000 -3.718750
v -3.718750 0.000000 -3.718750
v -3.718750 0.000000 -3.718750
v -3.718750 0.000000 -3.718750
v -3.718750 0.000000 -4.031250
v -3.718750 0.000000 -4.031250
v -3.718750 0.000000 -4.031250
v -4.031250 0.000000 -4.031250
v -4.031250 0.000000 -4.031250
v -4.031250 0.000000 -4.031250
v -4.031250 4.000000 -3.718750
v -4.031250 4.000000 -3.718750
v -4.031250 4.000000 -3.718750
v -3.718750 4.000000 -3.718750
v -3.718750 4.000000 -3.718750
v -3.718750 4.000000 -3.718750
v -3.718750 4.000000 -4.031250
v -3.718750 4.000000 -4.031250
v -3.718750 4.000000 -4.031250
v -4.031250 4.000000 -4.031250
v -4.031250 4.000000 -4.031250
v -4.031250 4.000000 -4.031250
v 3.718750 0.000000 4.031250
v 3.718750 0.000000 4.031250
v 3.718750 0.000000 4.031250
v 4.031250 0.000000 4.031250
v 4.031250 0.000000 4.031250
v 4.031250 0.000000 4.031250
v 4.031250 0.000000 3.718750
v 4.031250 0.000000 3.718750
v 4.031250 0.000000 3.718750
v 3.718750 0.000000 3.718750
v 3.718750 0.000000 3.718750
v 3.718750 0.000000 3.718750
v 3.718750 4.000000 4.031250
v 3.718750 4.000000 4.031250
v 3.718750 4.000000 4.031250
v 4.031250 4.000000 4.031250
v 4.031250 4.000000 4.031250
v 4.031250 4.000000 4.031250
v 4.031250 4.000000 3.718750
v 4.031250 4.000000 3.718750
v 4.031250 4.000000 3.718750
v 3.718750 4.000000 3.718750
v 3.718750 4.000000 3.718750
v 3.718750 4.000000 3.718750
v 3.718750 0.000000 -3.718750
v 3.718750 0.000000 -3.718750
v 3.718750 0.000000 -3.718750
v 4.031250 0.000000 -3.718750
v 4.031250 0.000000 -3.718750
v 4.031250 0.000000 -3.718750
v 4.031250 0.000000 -4.031250
v 4.031250 0.000000 -4.031250
v 4.031250 0.000000 -4.031250
v 3.718750 0.000000 -4.031250
v 3.718750 0.000000 -4.031250
v 3.718750 0.000000 -4.031250
v 3.718750 4.000000 -3.718750
v 3.718750 4.000000 -3.718750
v 3.718750 4.000000 -3.718750
v 4.031250 4.000000 -3.718750
v 4.031250 4.000000 -3.718750
v 4.031250 4.000000 -3.718750
v 4.031250 4.000000 -4.031250
v 4.031250 4.000000 -4.031250
v 4.031250 4.000000 -4.031250
v 3.718750 4.000000 -4.031250
v 3.718750 4.000000 -4.031250
v 3.718750 4.000000 -4.031250
v 3.375000 0.500000 -1.562500
v 3.375000 0.500000 -1.562500
v 3.375000 0.500000 -1.562500
v 3.875000 0.500000 -1.562500
v 3.875000 0.500000 -1.562500
v 3.875000 0.500000 -1.562500
v 3.875000 0.500000 -2.437500
v 3.875000 0.500000 -2.437500
v 3.875000 0.500000 -2.437500
v 3.375000 0.500000 -2.437500
v 3.375000 0.500000 -2.437500
v 3.375000 0.500000 -2.437500
v 3.375000 1.875000 -1.562500
v 3.375000 1.875000 -1.562500
v 3.375000 1.875000 -1.562500
v 3.875000 1.875000 -1.562500
v 3.875000 1.875000 -1.562500
v 3.875000 1.875000 -1.562500
v 3.875000 1.875000 -2.437500
v 3.875000 1.875000 -2.437500
v 3.875000 1.875000 -2.437500
v 3.375000 1.875000 -2.437500
v 3.375000 1.875000 -2.437500
v 3.375000 1.875000 -2.437500
v 3.343750 0.625000 -1.656250
v 3.343750 0.625000 -1.656250
v 3.343750 0.625000 -1.656250
v 3.406250 0.625000 -1.656250
v 3.406250 0.625000 -1.656250
v 3.406250 0.625000 -1.656250
v 3.406250 0.625000 -2.343750
v 3.406250 0.625000 -2.343750
v 3.406250 0.625000 -2.343750
v 3.343750 0.625000 -2.343750
v 3.343750 0.625000 -2.343750
v 3.343750 0.625000 -2.343750
v 3.343750 1.750000 -1.656250
v 3.343750 1.750000 -1.656250
v 3.343750 1.750000 -1.656250
v 3.406250 1.750000 -1.656250
v 3.406250 1.750000 -1.656250
v 3.406250 1.750000 -1.656250
v 3.406250 1.750000 -2.343750
v 3.406250 1.750000 -2.343750
v 3.406250 1.750000 -2.343750
v 3.343750 1.750000 -2.343750
v 3.343750 1.750000 -2.343750
v 3.343750 1.750000 -2.343750
vn -0.0000 1.0000 -0.0000
vn -0.0000 -1.0000 -0.0000
vn -0.0000 -0.0000 -1.0000
vn -1.0000 -0.0000 -0.0000
vn -0.0000 -0.0000 1.0000
vn 1.0000 -0.0000 -0.0000
vt 0.003758 0.267548
vt 0.003758 0.003758
vt 0.267548 0.003758
vt 0.267548 0.267548
vt 0.003758 0.275064
vt 0.267548 0.275064
vt 0.267548 0.538853
vt 0.003758 0.538853
vt 0.969329 0.803976
vt 0.963147 0.803976
vt 0.963147 0.540187
vt 0.969329 0.540187
vt 0.970784 0.532671
vt 0.964602 0.532671
vt 0.964602 0.268881
vt 0.970784 0.268881
vt 0.983028 0.803976
vt 0.976845 0.803976
vt 0.976846 0.540187
vt 0.983028 0.540187
vt 0.984483 0.532671
vt 0.978300 0.532671
vt 0.978300 0.268881
vt 0.984483 0.268881
vt 0.275064 0.267548
vt 0.275064 0.003758
vt 0.538853 0.003758
vt 0.538853 0.267548
vt 0.275064 0.275064
vt 0.538853 0.275064
vt 0.538853 0.538853
vt 0.275064 0.538853
vt 0.522972 0.810159
vt 0.514729 0.810159
vt 0.514729 0.546369
vt 0.522972 0.546369
vt 0.538732 0.810159
vt 0.530488 0.810159
vt 0.530488 0.546369
vt 0.538732 0.546369
vt 0.939871 0.803976
vt 0.931628 0.803976
vt 0.931628 0.540187
vt 0.939871 0.540187
vt 0.833434 0.943387
vt 0.825191 0.943387
vt 0.825191 0.679597
vt 0.833434 0.679597
vt 0.003758 0.803976
vt 0.003758 0.546369
vt 0.261365 0.546369
vt 0.261365 0.803976
vt 0.546369 0.003758
vt 0.803976 0.003758
vt 0.803976 0.261365
vt 0.546369 0.261365
vt 0.919990 0.261365
vt 0.917929 0.261365
vt 0.917929 0.003758
vt 0.919990 0.003758
vt 0.929567 0.261365
vt 0.927506 0.261365
vt 0.927506 0.003758
vt 0.929567 0.003758
vt 0.921808 0.937204
vt 0.919748 0.937204
vt 0.919748 0.679597
vt 0.921808 0.679597
vt 0.939144 0.261365
vt 0.937083 0.261365
vt 0.937083 0.003758
vt 0.939144 0.003758
vt 0.003758 0.910413
vt 0.003758 0.811492
vt 0.102679 0.811492
vt 0.102679 0.910413
vt 0.110195 0.811492
vt 0.209116 0.811492
vt 0.209116 0.910413
vt 0.110195 0.910413
vt 0.506970 0.924112
vt 0.502848 0.924112
vt 0.502848 0.825191
vt 0.506970 0.825191
vt 0.994666 0.639108
vt 0.990544 0.639108
vt 0.990544 0.540187
vt 0.994666 0.540187
vt 0.994666 0.745545
vt 0.990544 0.745545
vt 0.990544 0.646624
vt 0.994666 0.646624
vt 0.996121 0.367802
vt 0.991999 0.367802
vt 0.991999 0.268881
vt 0.996121 0.268881
vt 0.811492 0.221481
vt 0.811492 0.143169
vt 0.889805 0.143169
vt 0.889805 0.221481
vt 0.546369 0.811492
vt 0.624682 0.811492
vt 0.624682 0.889805
vt 0.546369 0.889805
vt 0.817311 0.889805
vt 0.815250 0.889805
vt 0.815250 0.811492
vt 0.817311 0.811492
vt 0.817311 0.975633
vt 0.815250 0.975633
vt 0.815250 0.897321
vt 0.817311 0.897321
vt 0.994060 0.453631
vt 0.991999 0.453631
vt 0.991999 0.375318
vt 0.994060 0.375318
vt 0.129955 0.996242
vt 0.127894 0.996242
vt 0.127894 0.917929
vt 0.129955 0.917929
vt 0.903988 0.679597
vt 0.912232 0.679597
vt 0.912232 0.943387
vt 0.903988 0.943387
vt 0.955631 0.540187
vt 0.955631 0.803976
vt 0.947387 0.803976
vt 0.947387 0.540187
vt 0.514729 0.949570
vt 0.514729 0.817675
vt 0.522972 0.817675
vt 0.522972 0.949570
vt 0.678264 0.532671
vt 0.546369 0.532671
vt 0.546369 0.268881
vt 0.678264 0.268881
vt 0.530488 0.949570
vt 0.530488 0.817675
vt 0.538732 0.817675
vt 0.538732 0.949570
vt 0.678264 0.803976
vt 0.546369 0.803976
vt 0.546369 0.540187
vt 0.678264 0.540187
vt 0.840950 0.943387
vt 0.840950 0.679597
vt 0.849194 0.679597
vt 0.849194 0.943387
vt 0.856710 0.679597
vt 0.864953 0.679597
vt 0.864953 0.943387
vt 0.856710 0.943387
vt 0.400776 0.810159
vt 0.268881 0.810159
vt 0.268881 0.546369
vt 0.400776 0.546369
vt 0.946660 0.135653
vt 0.946660 0.003758
vt 0.954903 0.003758
vt 0.954903 0.135653
vt 0.817675 0.532671
vt 0.685780 0.532671
vt 0.685780 0.268881
vt 0.817675 0.268881
vt 0.408292 0.957086
vt 0.408292 0.825191
vt 0.416535 0.825191
vt 0.416535 0.957086
vt 0.872469 0.943387
vt 0.872469 0.679597
vt 0.880713 0.679597
vt 0.880713 0.943387
vt 0.888229 0.679597
vt 0.896472 0.679597
vt 0.896472 0.943387
vt 0.888229 0.943387
vt 0.817675 0.803976
vt 0.685780 0.803976
vt 0.685780 0.540187
vt 0.817675 0.540187
vt 0.424051 0.957086
vt 0.424051 0.825191
vt 0.432295 0.825191
vt 0.432295 0.957086
vt 0.957086 0.532671
vt 0.825191 0.532671
vt 0.825191 0.268881
vt 0.957086 0.268881
vt 0.439811 0.957086
vt 0.439811 0.825191
vt 0.448054 0.825191
vt 0.448054 0.957086
vt 0.966541 0.143169
vt 0.974785 0.143169
vt 0.974785 0.242090
vt 0.966541 0.242090
vt 0.261244 0.884956
vt 0.261244 0.983877
vt 0.253000 0.983877
vt 0.253000 0.884956
vt 0.455570 0.957086
vt 0.455570 0.825191
vt 0.463814 0.825191
vt 0.463814 0.957086
vt 0.408292 0.678264
vt 0.408292 0.546369
vt 0.507213 0.546369
vt 0.507213 0.678264
vt 0.471330 0.957086
vt 0.471330 0.825191
vt 0.479573 0.825191
vt 0.479573 0.957086
vt 0.408292 0.817675
vt 0.408292 0.685780
vt 0.507213 0.685780
vt 0.507213 0.817675
vt 0.982301 0.003758
vt 0.990544 0.003758
vt 0.990544 0.102679
vt 0.982301 0.102679
vt 0.990544 0.110195
vt 0.990544 0.209116
vt 0.982301 0.209116
vt 0.982301 0.110195
vt 0.487089 0.957086
vt 0.487089 0.825191
vt 0.495332 0.825191
vt 0.495332 0.957086
vt 0.811492 0.135653
vt 0.811492 0.003758
vt 0.910413 0.003758
vt 0.910413 0.135653
vt 0.949448 0.943387
vt 0.949448 0.811492
vt 0.957692 0.811492
vt 0.957692 0.943387
vt 0.825191 0.672081
vt 0.825191 0.540187
vt 0.924112 0.540187
vt 0.924112 0.672081
vt 0.609407 0.897321
vt 0.617650 0.897321
vt 0.617650 0.963268
vt 0.609407 0.963268
vt 0.120378 0.917929
vt 0.120378 0.983877
vt 0.112135 0.983877
vt 0.112135 0.917929
vt 0.156625 0.950903
vt 0.156625 0.917929
vt 0.164868 0.917929
vt 0.164868 0.950903
vt 0.249606 0.877440
vt 0.216632 0.877440
vt 0.216632 0.811492
vt 0.249606 0.811492
vt 0.172384 0.950903
vt 0.172384 0.917929
vt 0.180627 0.917929
vt 0.180627 0.950903
vt 0.665172 0.877440
vt 0.632198 0.877440
vt 0.632198 0.811492
vt 0.665172 0.811492
vt 0.234453 0.950176
vt 0.234453 0.937811
vt 0.240635 0.937811
vt 0.240635 0.950176
vt 0.632198 0.937810
vt 0.638380 0.937810
vt 0.638380 0.950176
vt 0.632198 0.950176
vt 0.897321 0.242090
vt 0.897321 0.143169
vt 0.909686 0.143169
vt 0.909686 0.242090
vt 0.393623 0.916596
vt 0.393623 0.817675
vt 0.399806 0.817675
vt 0.399806 0.916596
vt 0.946660 0.242090
vt 0.946660 0.143169
vt 0.959025 0.143169
vt 0.959025 0.242090
vt 0.985089 0.910413
vt 0.985089 0.811492
vt 0.991271 0.811492
vt 0.991271 0.910413
vt 0.645896 0.950176
vt 0.645896 0.937810
vt 0.652079 0.937810
vt 0.652079 0.950176
vt 0.672688 0.950903
vt 0.678870 0.950903
vt 0.678870 0.963268
vt 0.672688 0.963268
vt 0.962419 0.102679
vt 0.962419 0.003758
vt 0.974785 0.003758
vt 0.974785 0.102679
vt 0.546369 0.996242
vt 0.546369 0.897321
vt 0.552552 0.897321
vt 0.552552 0.996242
vt 0.965208 0.910413
vt 0.965208 0.811492
vt 0.977573 0.811492
vt 0.977573 0.910413
vt 0.560068 0.996242
vt 0.560068 0.897321
vt 0.566250 0.897321
vt 0.566250 0.996242
vt 0.573766 0.897321
vt 0.584071 0.897321
vt 0.584071 0.969451
vt 0.573766 0.969451
vt 0.601891 0.897321
vt 0.601891 0.969451
vt 0.591587 0.969451
vt 0.591587 0.897321
vt 0.259183 0.866408
vt 0.257122 0.866408
vt 0.257122 0.856104
vt 0.259183 0.856104
vt 0.139532 0.990059
vt 0.137471 0.990059
vt 0.137471 0.917929
vt 0.139532 0.917929
vt 0.661656 0.948115
vt 0.659595 0.948115
vt 0.659595 0.937810
vt 0.661656 0.937810
vt 0.149109 0.990059
vt 0.147048 0.990059
vt 0.147048 0.917929
vt 0.149109 0.917929
vt 0.859498 0.239302
vt 0.859498 0.228997
vt 0.869802 0.228997
vt 0.869802 0.239302
vt 0.859498 0.246818
vt 0.869802 0.246818
vt 0.869802 0.257122
vt 0.859498 0.257122
vt 0.672688 0.943387
vt 0.672688 0.811492
vt 0.682992 0.811492
vt 0.682992 0.943387
vt 0.690508 0.943387
vt 0.690508 0.811492
vt 0.700812 0.811492
vt 0.700812 0.943387
vt 0.708328 0.943387
vt 0.708328 0.811492
vt 0.718632 0.811492
vt 0.718632 0.943387
vt 0.726148 0.943387
vt 0.726148 0.811492
vt 0.736453 0.811492
vt 0.736453 0.943387
vt 0.877318 0.239302
vt 0.877318 0.228997
vt 0.887623 0.228997
vt 0.887623 0.239302
vt 0.877318 0.246818
vt 0.887623 0.246818
vt 0.887623 0.257122
vt 0.877318 0.257122
vt 0.743969 0.943387
vt 0.743969 0.811492
vt 0.754273 0.811492
vt 0.754273 0.943387
vt 0.761789 0.943387
vt 0.761789 0.811492
vt 0.772093 0.811492
vt 0.772093 0.943387
vt 0.779609 0.943387
vt 0.779609 0.811492
vt 0.789914 0.811492
vt 0.789914 0.943387
vt 0.797430 0.943387
vt 0.797430 0.811492
vt 0.807734 0.811492
vt 0.807734 0.943387
vt 0.897321 0.259910
vt 0.897321 0.249606
vt 0.907625 0.249606
vt 0.907625 0.259910
vt 0.197720 0.917929
vt 0.208025 0.917929
vt 0.208025 0.928234
vt 0.197720 0.928234
vt 0.931628 0.943387
vt 0.931628 0.811492
vt 0.941932 0.811492
vt 0.941932 0.943387
vt 0.268881 0.949570
vt 0.268881 0.817675
vt 0.279185 0.817675
vt 0.279185 0.949570
vt 0.286701 0.949570
vt 0.286701 0.817675
vt 0.297006 0.817675
vt 0.297006 0.949570
vt 0.304522 0.949570
vt 0.304522 0.817675
vt 0.314826 0.817675
vt 0.314826 0.949570
vt 0.197720 0.946054
vt 0.197720 0.935750
vt 0.208025 0.935750
vt 0.208025 0.946054
vt 0.216632 0.937811
vt 0.226937 0.937811
vt 0.226937 0.948115
vt 0.216632 0.948115
vt 0.322342 0.949570
vt 0.322342 0.817675
vt 0.332646 0.817675
vt 0.332646 0.949570
vt 0.340162 0.949570
vt 0.340162 0.817675
vt 0.350466 0.817675
vt 0.350466 0.949570
vt 0.357983 0.949570
vt 0.357983 0.817675
vt 0.368287 0.817675
vt 0.368287 0.949570
vt 0.375803 0.949570
vt 0.375803 0.817675
vt 0.386107 0.817675
vt 0.386107 0.949570
vt 0.811492 0.228997
vt 0.827979 0.228997
vt 0.827979 0.257849
vt 0.811492 0.257849
vt 0.851982 0.228997
vt 0.851982 0.257849
vt 0.835495 0.257849
vt 0.835495 0.228997
vt 0.064129 0.963268
vt 0.064129 0.917929
vt 0.080616 0.917929
vt 0.080616 0.963268
vt 0.216632 0.930295
vt 0.216632 0.884956
vt 0.245484 0.884956
vt 0.245484 0.930295
vt 0.088132 0.963268
vt 0.088132 0.917929
vt 0.104619 0.917929
vt 0.104619 0.963268
vt 0.632198 0.930295
vt 0.632198 0.884956
vt 0.661050 0.884956
vt 0.661050 0.930295
vt 0.393623 0.924112
vt 0.395684 0.924112
vt 0.395684 0.946781
vt 0.393623 0.946781
vt 0.504909 0.931628
vt 0.504909 0.954297
vt 0.502848 0.954297
vt 0.502848 0.931628
vt 0.257122 0.848588
vt 0.257122 0.811492
vt 0.259183 0.811492
vt 0.259183 0.848588
vt 0.003758 0.955025
vt 0.003758 0.917929
vt 0.026427 0.917929
vt 0.026427 0.955025
vt 0.188143 0.955025
vt 0.188143 0.917929
vt 0.190204 0.917929
vt 0.190204 0.955025
vt 0.033943 0.955025
vt 0.033943 0.917929
vt 0.056613 0.917929
vt 0.056613 0.955025
s 0
usemtl ElevPanel.001
f 2/1/1 5/2/1 8/3/1
f 2/1/1 8/3/1 11/4/1
f 14/5/2 23/6/2 20/7/2
f 14/5/2 20/7/2 17/8/2
f 1/9/3 13/10/3 16/11/3
f 1/9/3 16/11/3 4/12/3
f 6/13/4 18/14/4 21/15/4
f 6/13/4 21/15/4 9/16/4
f 7/17/5 19/18/5 22/19/5
f 7/17/5 22/19/5 10/20/5
f 12/21/6 24/22/6 15/23/6
f 12/21/6 15/23/6 3/24/6
f 458/457/1 461/458/1 464/459/1
f 458/457/1 464/459/1 467/460/1
f 470/461/2 479/462/2 476/463/2
f 470/461/2 476/463/2 473/464/2
f 457/465/3 469/466/3 472/467/3
f 457/465/3 472/467/3 460/468/3
f 462/469/4 474/470/4 477/471/4
f 462/469/4 477/471/4 465/472/4
f 463/473/5 475/474/5 478/475/5
f 463/473/5 478/475/5 466/476/5
f 468/477/6 480/478/6 471/479/6
f 468/477/6 471/479/6 459/480/6
usemtl ElevFloor.001
f 26/25/1 29/26/1 32/27/1
f 26/25/1 32/27/1 35/28/1
f 38/29/2 47/30/2 44/31/2
f 38/29/2 44/31/2 41/32/2
f 25/33/3 37/34/3 40/35/3
f 25/33/3 40/35/3 28/36/3
f 30/37/4 42/38/4 45/39/4
f 30/37/4 45/39/4 33/40/4
f 31/41/5 43/42/5 46/43/5
f 31/41/5 46/43/5 34/44/5
f 36/45/6 48/46/6 39/47/6
f 36/45/6 39/47/6 27/48/6
usemtl ElevDark.001
f 50/49/1 53/50/1 56/51/1
f 50/49/1 56/51/1 59/52/1
f 62/53/2 71/54/2 68/55/2
f 62/53/2 68/55/2 65/56/2
f 49/57/3 61/58/3 64/59/3
f 49/57/3 64/59/3 52/60/3
f 54/61/4 66/62/4 69/63/4
f 54/61/4 69/63/4 57/64/4
f 55/65/5 67/66/5 70/67/5
f 55/65/5 70/67/5 58/68/5
f 60/69/6 72/70/6 63/71/6
f 60/69/6 63/71/6 51/72/6
f 74/73/1 77/74/1 80/75/1
f 74/73/1 80/75/1 83/76/1
f 86/77/2 95/78/2 92/79/2
f 86/77/2 92/79/2 89/80/2
f 73/81/3 85/82/3 88/83/3
f 73/81/3 88/83/3 76/84/3
f 78/85/4 90/86/4 93/87/4
f 78/85/4 93/87/4 81/88/4
f 79/89/5 91/90/5 94/91/5
f 79/89/5 94/91/5 82/92/5
f 84/93/6 96/94/6 87/95/6
f 84/93/6 87/95/6 75/96/6
f 338/337/1 341/338/1 344/339/1
f 338/337/1 344/339/1 347/340/1
f 350/341/2 359/342/2 356/343/2
f 350/341/2 356/343/2 353/344/2
f 337/345/3 349/346/3 352/347/3
f 337/345/3 352/347/3 340/348/3
f 342/349/4 354/350/4 357/351/4
f 342/349/4 357/351/4 345/352/4
f 343/353/5 355/354/5 358/355/5
f 343/353/5 358/355/5 346/356/5
f 348/357/6 360/358/6 351/359/6
f 348/357/6 351/359/6 339/360/6
f 362/361/1 365/362/1 368/363/1
f 362/361/1 368/363/1 371/364/1
f 374/365/2 383/366/2 380/367/2
f 374/365/2 380/367/2 377/368/2
f 361/369/3 373/370/3 376/371/3
f 361/369/3 376/371/3 364/372/3
f 366/373/4 378/374/4 381/375/4
f 366/373/4 381/375/4 369/376/4
f 367/377/5 379/378/5 382/379/5
f 367/377/5 382/379/5 370/380/5
f 372/381/6 384/382/6 375/383/6
f 372/381/6 375/383/6 363/384/6
f 386/385/1 389/386/1 392/387/1
f 386/385/1 392/387/1 395/388/1
f 398/389/2 407/390/2 404/391/2
f 398/389/2 404/391/2 401/392/2
f 385/393/3 397/394/3 400/395/3
f 385/393/3 400/395/3 388/396/3
f 390/397/4 402/398/4 405/399/4
f 390/397/4 405/399/4 393/400/4
f 391/401/5 403/402/5 406/403/5
f 391/401/5 406/403/5 394/404/5
f 396/405/6 408/406/6 399/407/6
f 396/405/6 399/407/6 387/408/6
f 410/409/1 413/410/1 416/411/1
f 410/409/1 416/411/1 419/412/1
f 422/413/2 431/414/2 428/415/2
f 422/413/2 428/415/2 425/416/2
f 409/417/3 421/418/3 424/419/3
f 409/417/3 424/419/3 412/420/3
f 414/421/4 426/422/4 429/423/4
f 414/421/4 429/423/4 417/424/4
f 415/425/5 427/426/5 430/427/5
f 415/425/5 430/427/5 418/428/5
f 420/429/6 432/430/6 423/431/6
f 420/429/6 423/431/6 411/432/6
f 434/433/1 437/434/1 440/435/1
f 434/433/1 440/435/1 443/436/1
f 446/437/2 455/438/2 452/439/2
f 446/437/2 452/439/2 449/440/2
f 433/441/3 445/442/3 448/443/3
f 433/441/3 448/443/3 436/444/3
f 438/445/4 450/446/4 453/447/4
f 438/445/4 453/447/4 441/448/4
f 439/449/5 451/450/5 454/451/5
f 439/449/5 454/451/5 442/452/5
f 444/453/6 456/454/6 447/455/6
f 444/453/6 447/455/6 435/456/6
usemtl ElevLight.001
f 98/97/1 101/98/1 104/99/1
f 98/97/1 104/99/1 107/100/1
f 110/101/2 119/102/2 116/103/2
f 110/101/2 116/103/2 113/104/2
f 97/105/3 109/106/3 112/107/3
f 97/105/3 112/107/3 100/108/3
f 102/109/4 114/110/4 117/111/4
f 102/109/4 117/111/4 105/112/4
f 103/113/5 115/114/5 118/115/5
f 103/113/5 118/115/5 106/116/5
f 108/117/6 120/118/6 111/119/6
f 108/117/6 111/119/6 99/120/6
usemtl ElevWall.001
f 122/121/1 125/122/1 128/123/1
f 122/121/1 128/123/1 131/124/1
f 134/125/2 143/126/2 140/127/2
f 134/125/2 140/127/2 137/128/2
f 121/129/3 133/130/3 136/131/3
f 121/129/3 136/131/3 124/132/3
f 126/133/4 138/134/4 141/135/4
f 126/133/4 141/135/4 129/136/4
f 127/137/5 139/138/5 142/139/5
f 127/137/5 142/139/5 130/140/5
f 132/141/6 144/142/6 135/143/6
f 132/141/6 135/143/6 123/144/6
f 146/145/1 149/146/1 152/147/1
f 146/145/1 152/147/1 155/148/1
f 158/149/2 167/150/2 164/151/2
f 158/149/2 164/151/2 161/152/2
f 145/153/3 157/154/3 160/155/3
f 145/153/3 160/155/3 148/156/3
f 150/157/4 162/158/4 165/159/4
f 150/157/4 165/159/4 153/160/4
f 151/161/5 163/162/5 166/163/5
f 151/161/5 166/163/5 154/164/5
f 156/165/6 168/166/6 159/167/6
f 156/165/6 159/167/6 147/168/6
f 170/169/1 173/170/1 176/171/1
f 170/169/1 176/171/1 179/172/1
f 182/173/2 191/174/2 188/175/2
f 182/173/2 188/175/2 185/176/2
f 169/177/3 181/178/3 184/179/3
f 169/177/3 184/179/3 172/180/3
f 174/181/4 186/182/4 189/183/4
f 174/181/4 189/183/4 177/184/4
f 175/185/5 187/186/5 190/187/5
f 175/185/5 190/187/5 178/188/5
f 180/189/6 192/190/6 183/191/6
f 180/189/6 183/191/6 171/192/6
f 194/193/1 197/194/1 200/195/1
f 194/193/1 200/195/1 203/196/1
f 206/197/2 215/198/2 212/199/2
f 206/197/2 212/199/2 209/200/2
f 193/201/3 205/202/3 208/203/3
f 193/201/3 208/203/3 196/204/3
f 198/205/4 210/206/4 213/207/4
f 198/205/4 213/207/4 201/208/4
f 199/209/5 211/210/5 214/211/5
f 199/209/5 214/211/5 202/212/5
f 204/213/6 216/214/6 207/215/6
f 204/213/6 207/215/6 195/216/6
f 218/217/1 221/218/1 224/219/1
f 218/217/1 224/219/1 227/220/1
f 230/221/2 239/222/2 236/223/2
f 230/221/2 236/223/2 233/224/2
f 217/225/3 229/226/3 232/227/3
f 217/225/3 232/227/3 220/228/3
f 222/229/4 234/230/4 237/231/4
f 222/229/4 237/231/4 225/232/4
f 223/233/5 235/234/5 238/235/5
f 223/233/5 238/235/5 226/236/5
f 228/237/6 240/238/6 231/239/6
f 228/237/6 231/239/6 219/240/6
f 242/241/1 245/242/1 248/243/1
f 242/241/1 248/243/1 251/244/1
f 254/245/2 263/246/2 260/247/2
f 254/245/2 260/247/2 257/248/2
f 241/249/3 253/250/3 256/251/3
f 241/249/3 256/251/3 244/252/3
f 246/253/4 258/254/4 261/255/4
f 246/253/4 261/255/4 249/256/4
f 247/257/5 259/258/5 262/259/5
f 247/257/5 262/259/5 250/260/5
f 252/261/6 264/262/6 255/263/6
f 252/261/6 255/263/6 243/264/6
usemtl ElevTrim.001
f 266/265/1 269/266/1 272/267/1
f 266/265/1 272/267/1 275/268/1
f 278/269/2 287/270/2 284/271/2
f 278/269/2 284/271/2 281/272/2
f 265/273/3 277/274/3 280/275/3
f 265/273/3 280/275/3 268/276/3
f 270/277/4 282/278/4 285/279/4
f 270/277/4 285/279/4 273/280/4
f 271/281/5 283/282/5 286/283/5
f 271/281/5 286/283/5 274/284/5
f 276/285/6 288/286/6 279/287/6
f 276/285/6 279/287/6 267/288/6
f 290/289/1 293/290/1 296/291/1
f 290/289/1 296/291/1 299/292/1
f 302/293/2 311/294/2 308/295/2
f 302/293/2 308/295/2 305/296/2
f 289/297/3 301/298/3 304/299/3
f 289/297/3 304/299/3 292/300/3
f 294/301/4 306/302/4 309/303/4
f 294/301/4 309/303/4 297/304/4
f 295/305/5 307/306/5 310/307/5
f 295/305/5 310/307/5 298/308/5
f 300/309/6 312/310/6 303/311/6
f 300/309/6 303/311/6 291/312/6
f 314/313/1 317/314/1 320/315/1
f 314/313/1 320/315/1 323/316/1
f 326/317/2 335/318/2 332/319/2
f 326/317/2 332/319/2 329/320/2
f 313/321/3 325/322/3 328/323/3
f 313/321/3 328/323/3 316/324/3
f 318/325/4 330/326/4 333/327/4
f 318/325/4 333/327/4 321/328/4
f 319/329/5 331/330/5 334/331/5
f 319/329/5 334/331/5 322/332/5
f 324/333/6 336/334/6 327/335/6
f 324/333/6 327/335/6 315/336/6
