mtllib sapscrap_signal.mtl
usemtl baked
v -0.935308 0.590000 -0.540000
v -0.935308 0.590000 -0.540000
v -0.953079 0.586382 -0.550260
v -0.935308 0.590000 -0.540000
v -0.955653 0.586382 -0.542678
v -0.953079 0.586382 -0.550260
v -0.935308 0.590000 -0.540000
v -0.935308 0.590000 -0.540000
v -0.955653 0.586382 -0.542678
v -0.935308 0.590000 -0.540000
v -0.955130 0.586382 -0.534689
v -0.955653 0.586382 -0.542678
v -0.935308 0.590000 -0.540000
v -0.935308 0.590000 -0.540000
v -0.955130 0.586382 -0.534689
v -0.935308 0.590000 -0.540000
v -0.951588 0.586382 -0.527507
v -0.955130 0.586382 -0.534689
v -0.935308 0.590000 -0.540000
v -0.935308 0.590000 -0.540000
v -0.951588 0.586382 -0.527507
v -0.935308 0.590000 -0.540000
v -0.945568 0.586382 -0.522228
v -0.951588 0.586382 -0.527507
v -0.935308 0.590000 -0.540000
v -0.935308 0.590000 -0.540000
v -0.945568 0.586382 -0.522228
v -0.935308 0.590000 -0.540000
v -0.937986 0.586382 -0.519654
v -0.945568 0.586382 -0.522228
v -0.935308 0.590000 -0.540000
v -0.935308 0.590000 -0.540000
v -0.937986 0.586382 -0.519654
v -0.935308 0.590000 -0.540000
v -0.929996 0.586382 -0.520178
v -0.937986 0.586382 -0.519654
v -0.935308 0.590000 -0.540000
v -0.935308 0.590000 -0.540000
v -0.929996 0.586382 -0.520178
v -0.935308 0.590000 -0.540000
v -0.922815 0.586382 -0.523719
v -0.929996 0.586382 -0.520178
v -0.935308 0.590000 -0.540000
v -0.935308 0.590000 -0.540000
v -0.922815 0.586382 -0.523719
v -0.935308 0.590000 -0.540000
v -0.917536 0.586382 -0.529739
v -0.922815 0.586382 -0.523719
v -0.935308 0.590000 -0.540000
v -0.935308 0.590000 -0.540000
v -0.917536 0.586382 -0.529739
v -0.935308 0.590000 -0.540000
v -0.914962 0.586382 -0.537321
v -0.917536 0.586382 -0.529739
v -0.935308 0.590000 -0.540000
v -0.935308 0.590000 -0.540000
v -0.914962 0.586382 -0.537321
v -0.935308 0.590000 -0.540000
v -0.915486 0.586382 -0.545311
v -0.914962 0.586382 -0.537321
v -0.935308 0.590000 -0.540000
v -0.935308 0.590000 -0.540000
v -0.915486 0.586382 -0.545311
v -0.935308 0.590000 -0.540000
v -0.919027 0.586382 -0.552492
v -0.915486 0.586382 -0.545311
v -0.935308 0.590000 -0.540000
v -0.935308 0.590000 -0.540000
v -0.919027 0.586382 -0.552492
v -0.935308 0.590000 -0.540000
v -0.925047 0.586382 -0.557772
v -0.919027 0.586382 -0.552492
v -0.935308 0.590000 -0.540000
v -0.935308 0.590000 -0.540000
v -0.925047 0.586382 -0.557772
v -0.935308 0.590000 -0.540000
v -0.932629 0.586382 -0.560345
v -0.925047 0.586382 -0.557772
v -0.935308 0.590000 -0.540000
v -0.935308 0.590000 -0.540000
v -0.932629 0.586382 -0.560345
v -0.935308 0.590000 -0.540000
v -0.940619 0.586382 -0.559822
v -0.932629 0.586382 -0.560345
v -0.935308 0.590000 -0.540000
v -0.935308 0.590000 -0.540000
v -0.940619 0.586382 -0.559822
v -0.935308 0.590000 -0.540000
v -0.947800 0.586382 -0.556280
v -0.940619 0.586382 -0.559822
v -0.935308 0.590000 -0.540000
v -0.935308 0.590000 -0.540000
v -0.947800 0.586382 -0.556280
v -0.935308 0.590000 -0.540000
v -0.953079 0.586382 -0.550260
v -0.947800 0.586382 -0.556280
v -0.953079 0.586382 -0.550260
v -0.955653 0.586382 -0.542678
v -0.968708 0.575963 -0.559283
v -0.955653 0.586382 -0.542678
v -0.973545 0.575963 -0.545034
v -0.968708 0.575963 -0.559283
v -0.955653 0.586382 -0.542678
v -0.955130 0.586382 -0.534689
v -0.973545 0.575963 -0.545034
v -0.955130 0.586382 -0.534689
v -0.972561 0.575963 -0.530018
v -0.973545 0.575963 -0.545034
v -0.955130 0.586382 -0.534689
v -0.951588 0.586382 -0.527507
v -0.972561 0.575963 -0.530018
v -0.951588 0.586382 -0.527507
v -0.965905 0.575963 -0.516522
v -0.972561 0.575963 -0.530018
v -0.951588 0.586382 -0.527507
v -0.945568 0.586382 -0.522228
v -0.965905 0.575963 -0.516522
v -0.945568 0.586382 -0.522228
v -0.954591 0.575963 -0.506600
v -0.965905 0.575963 -0.516522
v -0.945568 0.586382 -0.522228
v -0.937986 0.586382 -0.519654
v -0.954591 0.575963 -0.506600
v -0.937986 0.586382 -0.519654
v -0.940342 0.575963 -0.501763
v -0.954591 0.575963 -0.506600
v -0.937986 0.586382 -0.519654
v -0.929996 0.586382 -0.520178
v -0.940342 0.575963 -0.501763
v -0.929996 0.586382 -0.520178
v -0.925326 0.575963 -0.502747
v -0.940342 0.575963 -0.501763
v -0.929996 0.586382 -0.520178
v -0.922815 0.586382 -0.523719
v -0.925326 0.575963 -0.502747
v -0.922815 0.586382 -0.523719
v -0.911829 0.575963 -0.509402
v -0.925326 0.575963 -0.502747
v -0.922815 0.586382 -0.523719
v -0.917536 0.586382 -0.529739
v -0.911829 0.575963 -0.509402
v -0.917536 0.586382 -0.529739
v -0.901907 0.575963 -0.520716
v -0.911829 0.575963 -0.509402
v -0.917536 0.586382 -0.529739
v -0.914962 0.586382 -0.537321
v -0.901907 0.575963 -0.520716
v -0.914962 0.586382 -0.537321
v -0.897070 0.575963 -0.534966
v -0.901907 0.575963 -0.520716
v -0.914962 0.586382 -0.537321
v -0.915486 0.586382 -0.545311
v -0.897070 0.575963 -0.534966
v -0.915486 0.586382 -0.545311
v -0.898054 0.575963 -0.549982
v -0.897070 0.575963 -0.534966
v -0.915486 0.586382 -0.545311
v -0.919027 0.586382 -0.552492
v -0.898054 0.575963 -0.549982
v -0.919027 0.586382 -0.552492
v -0.904710 0.575963 -0.563478
v -0.898054 0.575963 -0.549982
v -0.919027 0.586382 -0.552492
v -0.925047 0.586382 -0.557772
v -0.904710 0.575963 -0.563478
v -0.925047 0.586382 -0.557772
v -0.916024 0.575963 -0.573400
v -0.904710 0.575963 -0.563478
v -0.925047 0.586382 -0.557772
v -0.932629 0.586382 -0.560345
v -0.916024 0.575963 -0.573400
v -0.932629 0.586382 -0.560345
v -0.930274 0.575963 -0.578237
v -0.916024 0.575963 -0.573400
v -0.932629 0.586382 -0.560345
v -0.940619 0.586382 -0.559822
v -0.930274 0.575963 -0.578237
v -0.940619 0.586382 -0.559822
v -0.945289 0.575963 -0.577253
v -0.930274 0.575963 -0.578237
v -0.940619 0.586382 -0.559822
v -0.947800 0.586382 -0.556280
v -0.945289 0.575963 -0.577253
v -0.947800 0.586382 -0.556280
v -0.958786 0.575963 -0.570597
v -0.945289 0.575963 -0.577253
v -0.947800 0.586382 -0.556280
v -0.953079 0.586382 -0.550260
v -0.958786 0.575963 -0.570597
v -0.953079 0.586382 -0.550260
v -0.968708 0.575963 -0.559283
v -0.958786 0.575963 -0.570597
v -0.968708 0.575963 -0.559283
v -0.973545 0.575963 -0.545034
v -0.980308 0.560000 -0.565981
v -0.973545 0.575963 -0.545034
v -0.986825 0.560000 -0.546782
v -0.980308 0.560000 -0.565981
v -0.973545 0.575963 -0.545034
v -0.972561 0.575963 -0.530018
v -0.986825 0.560000 -0.546782
v -0.972561 0.575963 -0.530018
v -0.985499 0.560000 -0.526551
v -0.986825 0.560000 -0.546782
v -0.972561 0.575963 -0.530018
v -0.965905 0.575963 -0.516522
v -0.985499 0.560000 -0.526551
v -0.965905 0.575963 -0.516522
v -0.976531 0.560000 -0.508368
v -0.985499 0.560000 -0.526551
v -0.965905 0.575963 -0.516522
v -0.954591 0.575963 -0.506600
v -0.976531 0.560000 -0.508368
v -0.954591 0.575963 -0.506600
v -0.961288 0.560000 -0.495000
v -0.976531 0.560000 -0.508368
v -0.954591 0.575963 -0.506600
v -0.940342 0.575963 -0.501763
v -0.961288 0.560000 -0.495000
v -0.940342 0.575963 -0.501763
v -0.942090 0.560000 -0.488483
v -0.961288 0.560000 -0.495000
v -0.940342 0.575963 -0.501763
v -0.925326 0.575963 -0.502747
v -0.942090 0.560000 -0.488483
v -0.925326 0.575963 -0.502747
v -0.921859 0.560000 -0.489809
v -0.942090 0.560000 -0.488483
v -0.925326 0.575963 -0.502747
v -0.911829 0.575963 -0.509402
v -0.921859 0.560000 -0.489809
v -0.911829 0.575963 -0.509402
v -0.903675 0.560000 -0.498776
v -0.921859 0.560000 -0.489809
v -0.911829 0.575963 -0.509402
v -0.901907 0.575963 -0.520716
v -0.903675 0.560000 -0.498776
v -0.901907 0.575963 -0.520716
v -0.890308 0.560000 -0.514019
v -0.903675 0.560000 -0.498776
v -0.901907 0.575963 -0.520716
v -0.897070 0.575963 -0.534966
v -0.890308 0.560000 -0.514019
v -0.897070 0.575963 -0.534966
v -0.883791 0.560000 -0.533217
v -0.890308 0.560000 -0.514019
v -0.897070 0.575963 -0.534966
v -0.898054 0.575963 -0.549982
v -0.883791 0.560000 -0.533217
v -0.898054 0.575963 -0.549982
v -0.885117 0.560000 -0.553448
v -0.883791 0.560000 -0.533217
v -0.898054 0.575963 -0.549982
v -0.904710 0.575963 -0.563478
v -0.885117 0.560000 -0.553448
v -0.904710 0.575963 -0.563478
v -0.894084 0.560000 -0.571632
v -0.885117 0.560000 -0.553448
v -0.904710 0.575963 -0.563478
v -0.916024 0.575963 -0.573400
v -0.894084 0.560000 -0.571632
v -0.916024 0.575963 -0.573400
v -0.909327 0.560000 -0.585000
v -0.894084 0.560000 -0.571632
v -0.916024 0.575963 -0.573400
v -0.930274 0.575963 -0.578237
v -0.909327 0.560000 -0.585000
v -0.930274 0.575963 -0.578237
v -0.928525 0.560000 -0.591517
v -0.909327 0.560000 -0.585000
v -0.930274 0.575963 -0.578237
v -0.945289 0.575963 -0.577253
v -0.928525 0.560000 -0.591517
v -0.945289 0.575963 -0.577253
v -0.948756 0.560000 -0.590191
v -0.928525 0.560000 -0.591517
v -0.945289 0.575963 -0.577253
v -0.958786 0.575963 -0.570597
v -0.948756 0.560000 -0.590191
v -0.958786 0.575963 -0.570597
v -0.966940 0.560000 -0.581224
v -0.948756 0.560000 -0.590191
v -0.958786 0.575963 -0.570597
v -0.968708 0.575963 -0.559283
v -0.966940 0.560000 -0.581224
v -0.968708 0.575963 -0.559283
v -0.980308 0.560000 -0.565981
v -0.966940 0.560000 -0.581224
v -0.980308 0.560000 -0.565981
v -0.986825 0.560000 -0.546782
v -0.986480 0.540419 -0.569544
v -0.986825 0.560000 -0.546782
v -0.993891 0.540419 -0.547712
v -0.986480 0.540419 -0.569544
v -0.986825 0.560000 -0.546782
v -0.985499 0.560000 -0.526551
v -0.993891 0.540419 -0.547712
v -0.985499 0.560000 -0.526551
v -0.992383 0.540419 -0.524707
v -0.993891 0.540419 -0.547712
v -0.985499 0.560000 -0.526551
v -0.976531 0.560000 -0.508368
v -0.992383 0.540419 -0.524707
v -0.976531 0.560000 -0.508368
v -0.982186 0.540419 -0.504029
v -0.992383 0.540419 -0.524707
v -0.976531 0.560000 -0.508368
v -0.961288 0.560000 -0.495000
v -0.982186 0.540419 -0.504029
v -0.961288 0.560000 -0.495000
v -0.964852 0.540419 -0.488828
v -0.982186 0.540419 -0.504029
v -0.961288 0.560000 -0.495000
v -0.942090 0.560000 -0.488483
v -0.964852 0.540419 -0.488828
v -0.942090 0.560000 -0.488483
v -0.943020 0.540419 -0.481417
v -0.964852 0.540419 -0.488828
v -0.942090 0.560000 -0.488483
v -0.921859 0.560000 -0.489809
v -0.943020 0.540419 -0.481417
v -0.921859 0.560000 -0.489809
v -0.920014 0.540419 -0.482925
v -0.943020 0.540419 -0.481417
v -0.921859 0.560000 -0.489809
v -0.903675 0.560000 -0.498776
v -0.920014 0.540419 -0.482925
v -0.903675 0.560000 -0.498776
v -0.899337 0.540419 -0.493122
v -0.920014 0.540419 -0.482925
v -0.903675 0.560000 -0.498776
v -0.890308 0.560000 -0.514019
v -0.899337 0.540419 -0.493122
v -0.890308 0.560000 -0.514019
v -0.884135 0.540419 -0.510456
v -0.899337 0.540419 -0.493122
v -0.890308 0.560000 -0.514019
v -0.883791 0.560000 -0.533217
v -0.884135 0.540419 -0.510456
v -0.883791 0.560000 -0.533217
v -0.876725 0.540419 -0.532287
v -0.884135 0.540419 -0.510456
v -0.883791 0.560000 -0.533217
v -0.885117 0.560000 -0.553448
v -0.876725 0.540419 -0.532287
v -0.885117 0.560000 -0.553448
v -0.878232 0.540419 -0.555293
v -0.876725 0.540419 -0.532287
v -0.885117 0.560000 -0.553448
v -0.894084 0.560000 -0.571632
v -0.878232 0.540419 -0.555293
v -0.894084 0.560000 -0.571632
v -0.888430 0.540419 -0.575971
v -0.878232 0.540419 -0.555293
v -0.894084 0.560000 -0.571632
v -0.909327 0.560000 -0.585000
v -0.888430 0.540419 -0.575971
v -0.909327 0.560000 -0.585000
v -0.905763 0.540419 -0.591172
v -0.888430 0.540419 -0.575971
v -0.909327 0.560000 -0.585000
v -0.928525 0.560000 -0.591517
v -0.905763 0.540419 -0.591172
v -0.928525 0.560000 -0.591517
v -0.927595 0.540419 -0.598583
v -0.905763 0.540419 -0.591172
v -0.928525 0.560000 -0.591517
v -0.948756 0.560000 -0.590191
v -0.927595 0.540419 -0.598583
v -0.948756 0.560000 -0.590191
v -0.950601 0.540419 -0.597075
v -0.927595 0.540419 -0.598583
v -0.948756 0.560000 -0.590191
v -0.966940 0.560000 -0.581224
v -0.950601 0.540419 -0.597075
v -0.966940 0.560000 -0.581224
v -0.971278 0.540419 -0.586878
v -0.950601 0.540419 -0.597075
v -0.966940 0.560000 -0.581224
v -0.980308 0.560000 -0.565981
v -0.971278 0.540419 -0.586878
v -0.980308 0.560000 -0.565981
v -0.986480 0.540419 -0.569544
v -0.971278 0.540419 -0.586878
v -0.986480 0.540419 -0.569544
v -0.993891 0.540419 -0.547712
v -0.986480 0.519581 -0.569544
v -0.993891 0.540419 -0.547712
v -0.993891 0.519581 -0.547712
v -0.986480 0.519581 -0.569544
v -0.993891 0.540419 -0.547712
v -0.992383 0.540419 -0.524707
v -0.993891 0.519581 -0.547712
v -0.992383 0.540419 -0.524707
v -0.992383 0.519581 -0.524707
v -0.993891 0.519581 -0.547712
v -0.992383 0.540419 -0.524707
v -0.982186 0.540419 -0.504029
v -0.992383 0.519581 -0.524707
v -0.982186 0.540419 -0.504029
v -0.982186 0.519581 -0.504029
v -0.992383 0.519581 -0.524707
v -0.982186 0.540419 -0.504029
v -0.964852 0.540419 -0.488828
v -0.982186 0.519581 -0.504029
v -0.964852 0.540419 -0.488828
v -0.964852 0.519581 -0.488828
v -0.982186 0.519581 -0.504029
v -0.964852 0.540419 -0.488828
v -0.943020 0.540419 -0.481417
v -0.964852 0.519581 -0.488828
v -0.943020 0.540419 -0.481417
v -0.943020 0.519581 -0.481417
v -0.964852 0.519581 -0.488828
v -0.943020 0.540419 -0.481417
v -0.920014 0.540419 -0.482925
v -0.943020 0.519581 -0.481417
v -0.920014 0.540419 -0.482925
v -0.920014 0.519581 -0.482925
v -0.943020 0.519581 -0.481417
v -0.920014 0.540419 -0.482925
v -0.899337 0.540419 -0.493122
v -0.920014 0.519581 -0.482925
v -0.899337 0.540419 -0.493122
v -0.899337 0.519581 -0.493122
v -0.920014 0.519581 -0.482925
v -0.899337 0.540419 -0.493122
v -0.884135 0.540419 -0.510456
v -0.899337 0.519581 -0.493122
v -0.884135 0.540419 -0.510456
v -0.884135 0.519581 -0.510456
v -0.899337 0.519581 -0.493122
v -0.884135 0.540419 -0.510456
v -0.876725 0.540419 -0.532287
v -0.884135 0.519581 -0.510456
v -0.876725 0.540419 -0.532287
v -0.876725 0.519581 -0.532287
v -0.884135 0.519581 -0.510456
v -0.876725 0.540419 -0.532287
v -0.878232 0.540419 -0.555293
v -0.876725 0.519581 -0.532287
v -0.878232 0.540419 -0.555293
v -0.878232 0.519581 -0.555293
v -0.876725 0.519581 -0.532287
v -0.878232 0.540419 -0.555293
v -0.888430 0.540419 -0.575971
v -0.878232 0.519581 -0.555293
v -0.888430 0.540419 -0.575971
v -0.888430 0.519581 -0.575971
v -0.878232 0.519581 -0.555293
v -0.888430 0.540419 -0.575971
v -0.905763 0.540419 -0.591172
v -0.888430 0.519581 -0.575971
v -0.905763 0.540419 -0.591172
v -0.905763 0.519581 -0.591172
v -0.888430 0.519581 -0.575971
v -0.905763 0.540419 -0.591172
v -0.927595 0.540419 -0.598583
v -0.905763 0.519581 -0.591172
v -0.927595 0.540419 -0.598583
v -0.927595 0.519581 -0.598583
v -0.905763 0.519581 -0.591172
v -0.927595 0.540419 -0.598583
v -0.950601 0.540419 -0.597075
v -0.927595 0.519581 -0.598583
v -0.950601 0.540419 -0.597075
v -0.950601 0.519581 -0.597075
v -0.927595 0.519581 -0.598583
v -0.950601 0.540419 -0.597075
v -0.971278 0.540419 -0.586878
v -0.950601 0.519581 -0.597075
v -0.971278 0.540419 -0.586878
v -0.971278 0.519581 -0.586878
v -0.950601 0.519581 -0.597075
v -0.971278 0.540419 -0.586878
v -0.986480 0.540419 -0.569544
v -0.971278 0.519581 -0.586878
v -0.986480 0.540419 -0.569544
v -0.986480 0.519581 -0.569544
v -0.971278 0.519581 -0.586878
v -0.986480 0.519581 -0.569544
v -0.993891 0.519581 -0.547712
v -0.980308 0.500000 -0.565981
v -0.993891 0.519581 -0.547712
v -0.986825 0.500000 -0.546782
v -0.980308 0.500000 -0.565981
v -0.993891 0.519581 -0.547712
v -0.992383 0.519581 -0.524707
v -0.986825 0.500000 -0.546782
v -0.992383 0.519581 -0.524707
v -0.985499 0.500000 -0.526551
v -0.986825 0.500000 -0.546782
v -0.992383 0.519581 -0.524707
v -0.982186 0.519581 -0.504029
v -0.985499 0.500000 -0.526551
v -0.982186 0.519581 -0.504029
v -0.976531 0.500000 -0.508368
v -0.985499 0.500000 -0.526551
v -0.982186 0.519581 -0.504029
v -0.964852 0.519581 -0.488828
v -0.976531 0.500000 -0.508368
v -0.964852 0.519581 -0.488828
v -0.961288 0.500000 -0.495000
v -0.976531 0.500000 -0.508368
v -0.964852 0.519581 -0.488828
v -0.943020 0.519581 -0.481417
v -0.961288 0.500000 -0.495000
v -0.943020 0.519581 -0.481417
v -0.942090 0.500000 -0.488483
v -0.961288 0.500000 -0.495000
v -0.943020 0.519581 -0.481417
v -0.920014 0.519581 -0.482925
v -0.942090 0.500000 -0.488483
v -0.920014 0.519581 -0.482925
v -0.921859 0.500000 -0.489809
v -0.942090 0.500000 -0.488483
v -0.920014 0.519581 -0.482925
v -0.899337 0.519581 -0.493122
v -0.921859 0.500000 -0.489809
v -0.899337 0.519581 -0.493122
v -0.903675 0.500000 -0.498776
v -0.921859 0.500000 -0.489809
v -0.899337 0.519581 -0.493122
v -0.884135 0.519581 -0.510456
v -0.903675 0.500000 -0.498776
v -0.884135 0.519581 -0.510456
v -0.890308 0.500000 -0.514019
v -0.903675 0.500000 -0.498776
v -0.884135 0.519581 -0.510456
v -0.876725 0.519581 -0.532287
v -0.890308 0.500000 -0.514019
v -0.876725 0.519581 -0.532287
v -0.883791 0.500000 -0.533217
v -0.890308 0.500000 -0.514019
v -0.876725 0.519581 -0.532287
v -0.878232 0.519581 -0.555293
v -0.883791 0.500000 -0.533217
v -0.878232 0.519581 -0.555293
v -0.885117 0.500000 -0.553448
v -0.883791 0.500000 -0.533217
v -0.878232 0.519581 -0.555293
v -0.888430 0.519581 -0.575971
v -0.885117 0.500000 -0.553448
v -0.888430 0.519581 -0.575971
v -0.894084 0.500000 -0.571632
v -0.885117 0.500000 -0.553448
v -0.888430 0.519581 -0.575971
v -0.905763 0.519581 -0.591172
v -0.894084 0.500000 -0.571632
v -0.905763 0.519581 -0.591172
v -0.909327 0.500000 -0.585000
v -0.894084 0.500000 -0.571632
v -0.905763 0.519581 -0.591172
v -0.927595 0.519581 -0.598583
v -0.909327 0.500000 -0.585000
v -0.927595 0.519581 -0.598583
v -0.928525 0.500000 -0.591517
v -0.909327 0.500000 -0.585000
v -0.927595 0.519581 -0.598583
v -0.950601 0.519581 -0.597075
v -0.928525 0.500000 -0.591517
v -0.950601 0.519581 -0.597075
v -0.948756 0.500000 -0.590191
v -0.928525 0.500000 -0.591517
v -0.950601 0.519581 -0.597075
v -0.971278 0.519581 -0.586878
v -0.948756 0.500000 -0.590191
v -0.971278 0.519581 -0.586878
v -0.966940 0.500000 -0.581224
v -0.948756 0.500000 -0.590191
v -0.971278 0.519581 -0.586878
v -0.986480 0.519581 -0.569544
v -0.966940 0.500000 -0.581224
v -0.986480 0.519581 -0.569544
v -0.980308 0.500000 -0.565981
v -0.966940 0.500000 -0.581224
v -0.980308 0.500000 -0.565981
v -0.986825 0.500000 -0.546782
v -0.968708 0.484037 -0.559283
v -0.986825 0.500000 -0.546782
v -0.973545 0.484037 -0.545034
v -0.968708 0.484037 -0.559283
v -0.986825 0.500000 -0.546782
v -0.985499 0.500000 -0.526551
v -0.973545 0.484037 -0.545034
v -0.985499 0.500000 -0.526551
v -0.972561 0.484037 -0.530018
v -0.973545 0.484037 -0.545034
v -0.985499 0.500000 -0.526551
v -0.976531 0.500000 -0.508368
v -0.972561 0.484037 -0.530018
v -0.976531 0.500000 -0.508368
v -0.965905 0.484037 -0.516522
v -0.972561 0.484037 -0.530018
v -0.976531 0.500000 -0.508368
v -0.961288 0.500000 -0.495000
v -0.965905 0.484037 -0.516522
v -0.961288 0.500000 -0.495000
v -0.954591 0.484037 -0.506600
v -0.965905 0.484037 -0.516522
v -0.961288 0.500000 -0.495000
v -0.942090 0.500000 -0.488483
v -0.954591 0.484037 -0.506600
v -0.942090 0.500000 -0.488483
v -0.940342 0.484037 -0.501763
v -0.954591 0.484037 -0.506600
v -0.942090 0.500000 -0.488483
v -0.921859 0.500000 -0.489809
v -0.940342 0.484037 -0.501763
v -0.921859 0.500000 -0.489809
v -0.925326 0.484037 -0.502747
v -0.940342 0.484037 -0.501763
v -0.921859 0.500000 -0.489809
v -0.903675 0.500000 -0.498776
v -0.925326 0.484037 -0.502747
v -0.903675 0.500000 -0.498776
v -0.911829 0.484037 -0.509402
v -0.925326 0.484037 -0.502747
v -0.903675 0.500000 -0.498776
v -0.890308 0.500000 -0.514019
v -0.911829 0.484037 -0.509402
v -0.890308 0.500000 -0.514019
v -0.901907 0.484037 -0.520716
v -0.911829 0.484037 -0.509402
v -0.890308 0.500000 -0.514019
v -0.883791 0.500000 -0.533217
v -0.901907 0.484037 -0.520716
v -0.883791 0.500000 -0.533217
v -0.897070 0.484037 -0.534966
v -0.901907 0.484037 -0.520716
v -0.883791 0.500000 -0.533217
v -0.885117 0.500000 -0.553448
v -0.897070 0.484037 -0.534966
v -0.885117 0.500000 -0.553448
v -0.898054 0.484037 -0.549982
v -0.897070 0.484037 -0.534966
v -0.885117 0.500000 -0.553448
v -0.894084 0.500000 -0.571632
v -0.898054 0.484037 -0.549982
v -0.894084 0.500000 -0.571632
v -0.904710 0.484037 -0.563478
v -0.898054 0.484037 -0.549982
v -0.894084 0.500000 -0.571632
v -0.909327 0.500000 -0.585000
v -0.904710 0.484037 -0.563478
v -0.909327 0.500000 -0.585000
v -0.916024 0.484037 -0.573400
v -0.904710 0.484037 -0.563478
v -0.909327 0.500000 -0.585000
v -0.928525 0.500000 -0.591517
v -0.916024 0.484037 -0.573400
v -0.928525 0.500000 -0.591517
v -0.930274 0.484037 -0.578237
v -0.916024 0.484037 -0.573400
v -0.928525 0.500000 -0.591517
v -0.948756 0.500000 -0.590191
v -0.930274 0.484037 -0.578237
v -0.948756 0.500000 -0.590191
v -0.945289 0.484037 -0.577253
v -0.930274 0.484037 -0.578237
v -0.948756 0.500000 -0.590191
v -0.966940 0.500000 -0.581224
v -0.945289 0.484037 -0.577253
v -0.966940 0.500000 -0.581224
v -0.958786 0.484037 -0.570597
v -0.945289 0.484037 -0.577253
v -0.966940 0.500000 -0.581224
v -0.980308 0.500000 -0.565981
v -0.958786 0.484037 -0.570597
v -0.980308 0.500000 -0.565981
v -0.968708 0.484037 -0.559283
v -0.958786 0.484037 -0.570597
v -0.968708 0.484037 -0.559283
v -0.973545 0.484037 -0.545034
v -0.953079 0.473618 -0.550260
v -0.973545 0.484037 -0.545034
v -0.955653 0.473618 -0.542678
v -0.953079 0.473618 -0.550260
v -0.973545 0.484037 -0.545034
v -0.972561 0.484037 -0.530018
v -0.955653 0.473618 -0.542678
v -0.972561 0.484037 -0.530018
v -0.955130 0.473618 -0.534689
v -0.955653 0.473618 -0.542678
v -0.972561 0.484037 -0.530018
v -0.965905 0.484037 -0.516522
v -0.955130 0.473618 -0.534689
v -0.965905 0.484037 -0.516522
v -0.951588 0.473618 -0.527507
v -0.955130 0.473618 -0.534689
v -0.965905 0.484037 -0.516522
v -0.954591 0.484037 -0.506600
v -0.951588 0.473618 -0.527507
v -0.954591 0.484037 -0.506600
v -0.945568 0.473618 -0.522228
v -0.951588 0.473618 -0.527507
v -0.954591 0.484037 -0.506600
v -0.940342 0.484037 -0.501763
v -0.945568 0.473618 -0.522228
v -0.940342 0.484037 -0.501763
v -0.937986 0.473618 -0.519654
v -0.945568 0.473618 -0.522228
v -0.940342 0.484037 -0.501763
v -0.925326 0.484037 -0.502747
v -0.937986 0.473618 -0.519654
v -0.925326 0.484037 -0.502747
v -0.929996 0.473618 -0.520178
v -0.937986 0.473618 -0.519654
v -0.925326 0.484037 -0.502747
v -0.911829 0.484037 -0.509402
v -0.929996 0.473618 -0.520178
v -0.911829 0.484037 -0.509402
v -0.922815 0.473618 -0.523719
v -0.929996 0.473618 -0.520178
v -0.911829 0.484037 -0.509402
v -0.901907 0.484037 -0.520716
v -0.922815 0.473618 -0.523719
v -0.901907 0.484037 -0.520716
v -0.917536 0.473618 -0.529739
v -0.922815 0.473618 -0.523719
v -0.901907 0.484037 -0.520716
v -0.897070 0.484037 -0.534966
v -0.917536 0.473618 -0.529739
v -0.897070 0.484037 -0.534966
v -0.914962 0.473618 -0.537321
v -0.917536 0.473618 -0.529739
v -0.897070 0.484037 -0.534966
v -0.898054 0.484037 -0.549982
v -0.914962 0.473618 -0.537321
v -0.898054 0.484037 -0.549982
v -0.915486 0.473618 -0.545311
v -0.914962 0.473618 -0.537321
v -0.898054 0.484037 -0.549982
v -0.904710 0.484037 -0.563478
v -0.915486 0.473618 -0.545311
v -0.904710 0.484037 -0.563478
v -0.919027 0.473618 -0.552492
v -0.915486 0.473618 -0.545311
v -0.904710 0.484037 -0.563478
v -0.916024 0.484037 -0.573400
v -0.919027 0.473618 -0.552492
v -0.916024 0.484037 -0.573400
v -0.925047 0.473618 -0.557772
v -0.919027 0.473618 -0.552492
v -0.916024 0.484037 -0.573400
v -0.930274 0.484037 -0.578237
v -0.925047 0.473618 -0.557772
v -0.930274 0.484037 -0.578237
v -0.932629 0.473618 -0.560345
v -0.925047 0.473618 -0.557772
v -0.930274 0.484037 -0.578237
v -0.945289 0.484037 -0.577253
v -0.932629 0.473618 -0.560345
v -0.945289 0.484037 -0.577253
v -0.940619 0.473618 -0.559822
v -0.932629 0.473618 -0.560345
v -0.945289 0.484037 -0.577253
v -0.958786 0.484037 -0.570597
v -0.940619 0.473618 -0.559822
v -0.958786 0.484037 -0.570597
v -0.947800 0.473618 -0.556280
v -0.940619 0.473618 -0.559822
v -0.958786 0.484037 -0.570597
v -0.968708 0.484037 -0.559283
v -0.947800 0.473618 -0.556280
v -0.968708 0.484037 -0.559283
v -0.953079 0.473618 -0.550260
v -0.947800 0.473618 -0.556280
v -0.953079 0.473618 -0.550260
v -0.955653 0.473618 -0.542678
v -0.935308 0.470000 -0.540000
v -0.955653 0.473618 -0.542678
v -0.935308 0.470000 -0.540000
v -0.935308 0.470000 -0.540000
v -0.955653 0.473618 -0.542678
v -0.955130 0.473618 -0.534689
v -0.935308 0.470000 -0.540000
v -0.955130 0.473618 -0.534689
v -0.935308 0.470000 -0.540000
v -0.935308 0.470000 -0.540000
v -0.955130 0.473618 -0.534689
v -0.951588 0.473618 -0.527507
v -0.935308 0.470000 -0.540000
v -0.951588 0.473618 -0.527507
v -0.935308 0.470000 -0.540000
v -0.935308 0.470000 -0.540000
v -0.951588 0.473618 -0.527507
v -0.945568 0.473618 -0.522228
v -0.935308 0.470000 -0.540000
v -0.945568 0.473618 -0.522228
v -0.935308 0.470000 -0.540000
v -0.935308 0.470000 -0.540000
v -0.945568 0.473618 -0.522228
v -0.937986 0.473618 -0.519654
v -0.935308 0.470000 -0.540000
v -0.937986 0.473618 -0.519654
v -0.935308 0.470000 -0.540000
v -0.935308 0.470000 -0.540000
v -0.937986 0.473618 -0.519654
v -0.929996 0.473618 -0.520178
v -0.935308 0.470000 -0.540000
v -0.929996 0.473618 -0.520178
v -0.935308 0.470000 -0.540000
v -0.935308 0.470000 -0.540000
v -0.929996 0.473618 -0.520178
v -0.922815 0.473618 -0.523719
v -0.935308 0.470000 -0.540000
v -0.922815 0.473618 -0.523719
v -0.935308 0.470000 -0.540000
v -0.935308 0.470000 -0.540000
v -0.922815 0.473618 -0.523719
v -0.917536 0.473618 -0.529739
v -0.935308 0.470000 -0.540000
v -0.917536 0.473618 -0.529739
v -0.935308 0.470000 -0.540000
v -0.935308 0.470000 -0.540000
v -0.917536 0.473618 -0.529739
v -0.914962 0.473618 -0.537321
v -0.935308 0.470000 -0.540000
v -0.914962 0.473618 -0.537321
v -0.935308 0.470000 -0.540000
v -0.935308 0.470000 -0.540000
v -0.914962 0.473618 -0.537321
v -0.915486 0.473618 -0.545311
v -0.935308 0.470000 -0.540000
v -0.915486 0.473618 -0.545311
v -0.935308 0.470000 -0.540000
v -0.935308 0.470000 -0.540000
v -0.915486 0.473618 -0.545311
v -0.919027 0.473618 -0.552492
v -0.935308 0.470000 -0.540000
v -0.919027 0.473618 -0.552492
v -0.935308 0.470000 -0.540000
v -0.935308 0.470000 -0.540000
v -0.919027 0.473618 -0.552492
v -0.925047 0.473618 -0.557772
v -0.935308 0.470000 -0.540000
v -0.925047 0.473618 -0.557772
v -0.935308 0.470000 -0.540000
v -0.935308 0.470000 -0.540000
v -0.925047 0.473618 -0.557772
v -0.932629 0.473618 -0.560345
v -0.935308 0.470000 -0.540000
v -0.932629 0.473618 -0.560345
v -0.935308 0.470000 -0.540000
v -0.935308 0.470000 -0.540000
v -0.932629 0.473618 -0.560345
v -0.940619 0.473618 -0.559822
v -0.935308 0.470000 -0.540000
v -0.940619 0.473618 -0.559822
v -0.935308 0.470000 -0.540000
v -0.935308 0.470000 -0.540000
v -0.940619 0.473618 -0.559822
v -0.947800 0.473618 -0.556280
v -0.935308 0.470000 -0.540000
v -0.947800 0.473618 -0.556280
v -0.935308 0.470000 -0.540000
v -0.935308 0.470000 -0.540000
v -0.947800 0.473618 -0.556280
v -0.953079 0.473618 -0.550260
v -0.935308 0.470000 -0.540000
v -0.953079 0.473618 -0.550260
v -0.935308 0.470000 -0.540000
v -0.935308 0.470000 -0.540000
vt 0.051596 0.792154
vt 0.051596 0.792154
vt 0.033824 0.802415
vt 0.076250 0.923750
vt 0.055904 0.921071
vt 0.058478 0.913489
vt 0.051596 0.792154
vt 0.051596 0.792154
vt 0.031250 0.794833
vt 0.076250 0.923750
vt 0.056428 0.929061
vt 0.055904 0.921071
vt 0.051596 0.792154
vt 0.051596 0.792154
vt 0.031774 0.786843
vt 0.076250 0.923750
vt 0.059969 0.936243
vt 0.056428 0.929061
vt 0.051596 0.792154
vt 0.051596 0.792154
vt 0.035315 0.779662
vt 0.076250 0.923750
vt 0.065989 0.941522
vt 0.059969 0.936243
vt 0.051596 0.792154
vt 0.051596 0.792154
vt 0.041335 0.774382
vt 0.076250 0.923750
vt 0.073571 0.944096
vt 0.065989 0.941522
vt 0.051596 0.792154
vt 0.051596 0.792154
vt 0.048917 0.771809
vt 0.076250 0.923750
vt 0.081561 0.943572
vt 0.073571 0.944096
vt 0.051596 0.792154
vt 0.051596 0.792154
vt 0.056907 0.772332
vt 0.076250 0.923750
vt 0.088743 0.940031
vt 0.081561 0.943572
vt 0.051596 0.792154
vt 0.051596 0.792154
vt 0.064088 0.775874
vt 0.076250 0.923750
vt 0.094022 0.934011
vt 0.088743 0.940031
vt 0.051596 0.792154
vt 0.051596 0.792154
vt 0.069368 0.781894
vt 0.076250 0.923750
vt 0.096596 0.926429
vt 0.094022 0.934011
vt 0.051596 0.792154
vt 0.051596 0.792154
vt 0.071941 0.789476
vt 0.076250 0.923750
vt 0.096072 0.918439
vt 0.096596 0.926429
vt 0.051596 0.792154
vt 0.051596 0.792154
vt 0.071418 0.797466
vt 0.076250 0.923750
vt 0.092531 0.911257
vt 0.096072 0.918439
vt 0.051596 0.792154
vt 0.051596 0.792154
vt 0.067876 0.804647
vt 0.076250 0.923750
vt 0.086511 0.905978
vt 0.092531 0.911257
vt 0.051596 0.792154
vt 0.051596 0.792154
vt 0.061856 0.809926
vt 0.076250 0.923750
vt 0.078929 0.903404
vt 0.086511 0.905978
vt 0.051596 0.792154
vt 0.051596 0.792154
vt 0.054274 0.812500
vt 0.076250 0.923750
vt 0.070939 0.903928
vt 0.078929 0.903404
vt 0.051596 0.792154
vt 0.051596 0.792154
vt 0.046284 0.811976
vt 0.076250 0.923750
vt 0.063757 0.907469
vt 0.070939 0.903928
vt 0.051596 0.792154
vt 0.051596 0.792154
vt 0.039103 0.808435
vt 0.076250 0.923750
vt 0.058478 0.913489
vt 0.063757 0.907469
vt 0.058478 0.913489
vt 0.055904 0.921071
vt 0.042850 0.904466
vt 0.055904 0.921071
vt 0.038013 0.918716
vt 0.042850 0.904466
vt 0.055904 0.921071
vt 0.056428 0.929061
vt 0.038013 0.918716
vt 0.056428 0.929061
vt 0.038997 0.933732
vt 0.038013 0.918716
vt 0.056428 0.929061
vt 0.059969 0.936243
vt 0.038997 0.933732
vt 0.059969 0.936243
vt 0.045653 0.947228
vt 0.038997 0.933732
vt 0.059969 0.936243
vt 0.065989 0.941522
vt 0.045653 0.947228
vt 0.065989 0.941522
vt 0.056966 0.957150
vt 0.045653 0.947228
vt 0.065989 0.941522
vt 0.073571 0.944096
vt 0.056966 0.957150
vt 0.073571 0.944096
vt 0.071216 0.961987
vt 0.056966 0.957150
vt 0.073571 0.944096
vt 0.081561 0.943572
vt 0.071216 0.961987
vt 0.081561 0.943572
vt 0.086232 0.961003
vt 0.071216 0.961987
vt 0.081561 0.943572
vt 0.088743 0.940031
vt 0.086232 0.961003
vt 0.088743 0.940031
vt 0.099728 0.954347
vt 0.086232 0.961003
vt 0.088743 0.940031
vt 0.094022 0.934011
vt 0.099728 0.954347
vt 0.094022 0.934011
vt 0.109650 0.943034
vt 0.099728 0.954347
vt 0.094022 0.934011
vt 0.096596 0.926429
vt 0.109650 0.943034
vt 0.096596 0.926429
vt 0.114487 0.928784
vt 0.109650 0.943034
vt 0.096596 0.926429
vt 0.096072 0.918439
vt 0.114487 0.928784
vt 0.096072 0.918439
vt 0.113503 0.913768
vt 0.114487 0.928784
vt 0.096072 0.918439
vt 0.092531 0.911257
vt 0.113503 0.913768
vt 0.092531 0.911257
vt 0.106847 0.900272
vt 0.113503 0.913768
vt 0.092531 0.911257
vt 0.086511 0.905978
vt 0.106847 0.900272
vt 0.086511 0.905978
vt 0.095534 0.890350
vt 0.106847 0.900272
vt 0.086511 0.905978
vt 0.078929 0.903404
vt 0.095534 0.890350
vt 0.078929 0.903404
vt 0.081284 0.885513
vt 0.095534 0.890350
vt 0.078929 0.903404
vt 0.070939 0.903928
vt 0.081284 0.885513
vt 0.070939 0.903928
vt 0.066268 0.886497
vt 0.081284 0.885513
vt 0.070939 0.903928
vt 0.063757 0.907469
vt 0.066268 0.886497
vt 0.063757 0.907469
vt 0.052772 0.893153
vt 0.066268 0.886497
vt 0.063757 0.907469
vt 0.058478 0.913489
vt 0.052772 0.893153
vt 0.058478 0.913489
vt 0.042850 0.904466
vt 0.052772 0.893153
vt 0.242754 0.968750
vt 0.228505 0.968750
vt 0.249452 0.952787
vt 0.228505 0.968750
vt 0.230253 0.952787
vt 0.249452 0.952787
vt 0.228505 0.968750
vt 0.213489 0.968750
vt 0.230253 0.952787
vt 0.213489 0.968750
vt 0.210022 0.952787
vt 0.230253 0.952787
vt 0.213489 0.968750
vt 0.199993 0.968750
vt 0.210022 0.952787
vt 0.199993 0.968750
vt 0.191839 0.952787
vt 0.210022 0.952787
vt 0.045653 0.947228
vt 0.056966 0.957150
vt 0.035026 0.955382
vt 0.056966 0.957150
vt 0.050269 0.968750
vt 0.035026 0.955382
vt 0.399004 0.968750
vt 0.384755 0.968750
vt 0.405702 0.952787
vt 0.384755 0.968750
vt 0.386503 0.952787
vt 0.405702 0.952787
vt 0.384755 0.968750
vt 0.369739 0.968750
vt 0.386503 0.952787
vt 0.369739 0.968750
vt 0.366272 0.952787
vt 0.386503 0.952787
vt 0.369739 0.968750
vt 0.356243 0.968750
vt 0.366272 0.952787
vt 0.356243 0.968750
vt 0.348089 0.952787
vt 0.366272 0.952787
vt 0.099728 0.954347
vt 0.109650 0.943034
vt 0.107882 0.964974
vt 0.109650 0.943034
vt 0.121250 0.949731
vt 0.107882 0.964974
vt 0.555254 0.968750
vt 0.541005 0.968750
vt 0.561952 0.952787
vt 0.541005 0.968750
vt 0.542753 0.952787
vt 0.561952 0.952787
vt 0.541005 0.968750
vt 0.525989 0.968750
vt 0.542753 0.952787
vt 0.525989 0.968750
vt 0.522522 0.952787
vt 0.542753 0.952787
vt 0.525989 0.968750
vt 0.512493 0.968750
vt 0.522522 0.952787
vt 0.512493 0.968750
vt 0.504339 0.952787
vt 0.522522 0.952787
vt 0.106847 0.900272
vt 0.095534 0.890350
vt 0.117474 0.892118
vt 0.095534 0.890350
vt 0.102231 0.878750
vt 0.117474 0.892118
vt 0.711504 0.968750
vt 0.697255 0.968750
vt 0.718202 0.952787
vt 0.697255 0.968750
vt 0.699003 0.952787
vt 0.718202 0.952787
vt 0.697255 0.968750
vt 0.682239 0.968750
vt 0.699003 0.952787
vt 0.682239 0.968750
vt 0.678772 0.952787
vt 0.699003 0.952787
vt 0.682239 0.968750
vt 0.668743 0.968750
vt 0.678772 0.952787
vt 0.668743 0.968750
vt 0.660589 0.952787
vt 0.678772 0.952787
vt 0.052772 0.893153
vt 0.042850 0.904466
vt 0.044618 0.882526
vt 0.042850 0.904466
vt 0.031250 0.897769
vt 0.044618 0.882526
vt 0.249452 0.952787
vt 0.230253 0.952787
vt 0.253015 0.933206
vt 0.230253 0.952787
vt 0.231183 0.933206
vt 0.253015 0.933206
vt 0.230253 0.952787
vt 0.210022 0.952787
vt 0.231183 0.933206
vt 0.210022 0.952787
vt 0.208178 0.933206
vt 0.231183 0.933206
vt 0.210022 0.952787
vt 0.191839 0.952787
vt 0.208178 0.933206
vt 0.191839 0.952787
vt 0.187500 0.933206
vt 0.208178 0.933206
vt 0.420945 0.952787
vt 0.405702 0.952787
vt 0.426599 0.933206
vt 0.405702 0.952787
vt 0.409265 0.933206
vt 0.426599 0.933206
vt 0.405702 0.952787
vt 0.386503 0.952787
vt 0.409265 0.933206
vt 0.386503 0.952787
vt 0.387433 0.933206
vt 0.409265 0.933206
vt 0.386503 0.952787
vt 0.366272 0.952787
vt 0.387433 0.933206
vt 0.366272 0.952787
vt 0.364428 0.933206
vt 0.387433 0.933206
vt 0.366272 0.952787
vt 0.348089 0.952787
vt 0.364428 0.933206
vt 0.348089 0.952787
vt 0.343750 0.933206
vt 0.364428 0.933206
vt 0.577195 0.952787
vt 0.561952 0.952787
vt 0.582849 0.933206
vt 0.561952 0.952787
vt 0.565515 0.933206
vt 0.582849 0.933206
vt 0.561952 0.952787
vt 0.542753 0.952787
vt 0.565515 0.933206
vt 0.542753 0.952787
vt 0.543683 0.933206
vt 0.565515 0.933206
vt 0.542753 0.952787
vt 0.522522 0.952787
vt 0.543683 0.933206
vt 0.522522 0.952787
vt 0.520678 0.933206
vt 0.543683 0.933206
vt 0.522522 0.952787
vt 0.504339 0.952787
vt 0.520678 0.933206
vt 0.504339 0.952787
vt 0.500000 0.933206
vt 0.520678 0.933206
vt 0.733445 0.952787
vt 0.718202 0.952787
vt 0.739099 0.933206
vt 0.718202 0.952787
vt 0.721765 0.933206
vt 0.739099 0.933206
vt 0.718202 0.952787
vt 0.699003 0.952787
vt 0.721765 0.933206
vt 0.699003 0.952787
vt 0.699933 0.933206
vt 0.721765 0.933206
vt 0.699003 0.952787
vt 0.678772 0.952787
vt 0.699933 0.933206
vt 0.678772 0.952787
vt 0.676928 0.933206
vt 0.699933 0.933206
vt 0.678772 0.952787
vt 0.660589 0.952787
vt 0.676928 0.933206
vt 0.660589 0.952787
vt 0.656250 0.933206
vt 0.676928 0.933206
vt 0.264695 0.952787
vt 0.249452 0.952787
vt 0.270349 0.933206
vt 0.249452 0.952787
vt 0.253015 0.933206
vt 0.270349 0.933206
vt 0.253015 0.933206
vt 0.231183 0.933206
vt 0.253015 0.912368
vt 0.231183 0.933206
vt 0.231183 0.912368
vt 0.253015 0.912368
vt 0.231183 0.933206
vt 0.208178 0.933206
vt 0.231183 0.912368
vt 0.208178 0.933206
vt 0.208178 0.912368
vt 0.231183 0.912368
vt 0.208178 0.933206
vt 0.187500 0.933206
vt 0.208178 0.912368
vt 0.187500 0.933206
vt 0.187500 0.912368
vt 0.208178 0.912368
vt 0.426599 0.933206
vt 0.409265 0.933206
vt 0.426599 0.912368
vt 0.409265 0.933206
vt 0.409265 0.912368
vt 0.426599 0.912368
vt 0.409265 0.933206
vt 0.387433 0.933206
vt 0.409265 0.912368
vt 0.387433 0.933206
vt 0.387433 0.912368
vt 0.409265 0.912368
vt 0.387433 0.933206
vt 0.364428 0.933206
vt 0.387433 0.912368
vt 0.364428 0.933206
vt 0.364428 0.912368
vt 0.387433 0.912368
vt 0.364428 0.933206
vt 0.343750 0.933206
vt 0.364428 0.912368
vt 0.343750 0.933206
vt 0.343750 0.912368
vt 0.364428 0.912368
vt 0.582849 0.933206
vt 0.565515 0.933206
vt 0.582849 0.912368
vt 0.565515 0.933206
vt 0.565515 0.912368
vt 0.582849 0.912368
vt 0.565515 0.933206
vt 0.543683 0.933206
vt 0.565515 0.912368
vt 0.543683 0.933206
vt 0.543683 0.912368
vt 0.565515 0.912368
vt 0.543683 0.933206
vt 0.520678 0.933206
vt 0.543683 0.912368
vt 0.520678 0.933206
vt 0.520678 0.912368
vt 0.543683 0.912368
vt 0.520678 0.933206
vt 0.500000 0.933206
vt 0.520678 0.912368
vt 0.500000 0.933206
vt 0.500000 0.912368
vt 0.520678 0.912368
vt 0.739099 0.933206
vt 0.721765 0.933206
vt 0.739099 0.912368
vt 0.721765 0.933206
vt 0.721765 0.912368
vt 0.739099 0.912368
vt 0.721765 0.933206
vt 0.699933 0.933206
vt 0.721765 0.912368
vt 0.699933 0.933206
vt 0.699933 0.912368
vt 0.721765 0.912368
vt 0.699933 0.933206
vt 0.676928 0.933206
vt 0.699933 0.912368
vt 0.676928 0.933206
vt 0.676928 0.912368
vt 0.699933 0.912368
vt 0.676928 0.933206
vt 0.656250 0.933206
vt 0.676928 0.912368
vt 0.656250 0.933206
vt 0.656250 0.912368
vt 0.676928 0.912368
vt 0.270349 0.933206
vt 0.253015 0.933206
vt 0.270349 0.912368
vt 0.253015 0.933206
vt 0.253015 0.912368
vt 0.270349 0.912368
vt 0.253015 0.912368
vt 0.231183 0.912368
vt 0.249452 0.892787
vt 0.231183 0.912368
vt 0.230253 0.892787
vt 0.249452 0.892787
vt 0.231183 0.912368
vt 0.208178 0.912368
vt 0.230253 0.892787
vt 0.208178 0.912368
vt 0.210022 0.892787
vt 0.230253 0.892787
vt 0.208178 0.912368
vt 0.187500 0.912368
vt 0.210022 0.892787
vt 0.187500 0.912368
vt 0.191839 0.892787
vt 0.210022 0.892787
vt 0.426599 0.912368
vt 0.409265 0.912368
vt 0.420945 0.892787
vt 0.409265 0.912368
vt 0.405702 0.892787
vt 0.420945 0.892787
vt 0.409265 0.912368
vt 0.387433 0.912368
vt 0.405702 0.892787
vt 0.387433 0.912368
vt 0.386503 0.892787
vt 0.405702 0.892787
vt 0.387433 0.912368
vt 0.364428 0.912368
vt 0.386503 0.892787
vt 0.364428 0.912368
vt 0.366272 0.892787
vt 0.386503 0.892787
vt 0.364428 0.912368
vt 0.343750 0.912368
vt 0.366272 0.892787
vt 0.343750 0.912368
vt 0.348089 0.892787
vt 0.366272 0.892787
vt 0.582849 0.912368
vt 0.565515 0.912368
vt 0.577195 0.892787
vt 0.565515 0.912368
vt 0.561952 0.892787
vt 0.577195 0.892787
vt 0.565515 0.912368
vt 0.543683 0.912368
vt 0.561952 0.892787
vt 0.543683 0.912368
vt 0.542753 0.892787
vt 0.561952 0.892787
vt 0.543683 0.912368
vt 0.520678 0.912368
vt 0.542753 0.892787
vt 0.520678 0.912368
vt 0.522522 0.892787
vt 0.542753 0.892787
vt 0.520678 0.912368
vt 0.500000 0.912368
vt 0.522522 0.892787
vt 0.500000 0.912368
vt 0.504339 0.892787
vt 0.522522 0.892787
vt 0.739099 0.912368
vt 0.721765 0.912368
vt 0.733445 0.892787
vt 0.721765 0.912368
vt 0.718202 0.892787
vt 0.733445 0.892787
vt 0.721765 0.912368
vt 0.699933 0.912368
vt 0.718202 0.892787
vt 0.699933 0.912368
vt 0.699003 0.892787
vt 0.718202 0.892787
vt 0.699933 0.912368
vt 0.676928 0.912368
vt 0.699003 0.892787
vt 0.676928 0.912368
vt 0.678772 0.892787
vt 0.699003 0.892787
vt 0.676928 0.912368
vt 0.656250 0.912368
vt 0.678772 0.892787
vt 0.656250 0.912368
vt 0.660589 0.892787
vt 0.678772 0.892787
vt 0.270349 0.912368
vt 0.253015 0.912368
vt 0.264695 0.892787
vt 0.253015 0.912368
vt 0.249452 0.892787
vt 0.264695 0.892787
vt 0.249452 0.892787
vt 0.230253 0.892787
vt 0.242754 0.876825
vt 0.230253 0.892787
vt 0.228505 0.876825
vt 0.242754 0.876825
vt 0.230253 0.892787
vt 0.210022 0.892787
vt 0.228505 0.876825
vt 0.210022 0.892787
vt 0.213489 0.876825
vt 0.228505 0.876825
vt 0.210022 0.892787
vt 0.191839 0.892787
vt 0.213489 0.876825
vt 0.191839 0.892787
vt 0.199993 0.876825
vt 0.213489 0.876825
vt 0.816276 0.892118
vt 0.831519 0.878750
vt 0.826903 0.900272
vt 0.831519 0.878750
vt 0.838216 0.890350
vt 0.826903 0.900272
vt 0.405702 0.892787
vt 0.386503 0.892787
vt 0.399004 0.876825
vt 0.386503 0.892787
vt 0.384755 0.876825
vt 0.399004 0.876825
vt 0.386503 0.892787
vt 0.366272 0.892787
vt 0.384755 0.876825
vt 0.366272 0.892787
vt 0.369739 0.876825
vt 0.384755 0.876825
vt 0.366272 0.892787
vt 0.348089 0.892787
vt 0.369739 0.876825
vt 0.348089 0.892787
vt 0.356243 0.876825
vt 0.369739 0.876825
vt 0.889132 0.882526
vt 0.902500 0.897769
vt 0.880978 0.893153
vt 0.902500 0.897769
vt 0.890900 0.904466
vt 0.880978 0.893153
vt 0.561952 0.892787
vt 0.542753 0.892787
vt 0.555254 0.876825
vt 0.542753 0.892787
vt 0.541005 0.876825
vt 0.555254 0.876825
vt 0.542753 0.892787
vt 0.522522 0.892787
vt 0.541005 0.876825
vt 0.522522 0.892787
vt 0.525989 0.876825
vt 0.541005 0.876825
vt 0.522522 0.892787
vt 0.504339 0.892787
vt 0.525989 0.876825
vt 0.504339 0.892787
vt 0.512493 0.876825
vt 0.525989 0.876825
vt 0.898724 0.955382
vt 0.883481 0.968750
vt 0.888097 0.947228
vt 0.883481 0.968750
vt 0.876784 0.957150
vt 0.888097 0.947228
vt 0.718202 0.892787
vt 0.699003 0.892787
vt 0.711504 0.876825
vt 0.699003 0.892787
vt 0.697255 0.876825
vt 0.711504 0.876825
vt 0.699003 0.892787
vt 0.678772 0.892787
vt 0.697255 0.876825
vt 0.678772 0.892787
vt 0.682239 0.876825
vt 0.697255 0.876825
vt 0.678772 0.892787
vt 0.660589 0.892787
vt 0.682239 0.876825
vt 0.660589 0.892787
vt 0.668743 0.876825
vt 0.682239 0.876825
vt 0.825868 0.964974
vt 0.812500 0.949731
vt 0.834022 0.954347
vt 0.812500 0.949731
vt 0.824100 0.943034
vt 0.834022 0.954347
vt 0.824100 0.943034
vt 0.819263 0.928784
vt 0.839728 0.934011
vt 0.819263 0.928784
vt 0.837154 0.926429
vt 0.839728 0.934011
vt 0.819263 0.928784
vt 0.820247 0.913768
vt 0.837154 0.926429
vt 0.820247 0.913768
vt 0.837678 0.918439
vt 0.837154 0.926429
vt 0.820247 0.913768
vt 0.826903 0.900272
vt 0.837678 0.918439
vt 0.826903 0.900272
vt 0.841219 0.911257
vt 0.837678 0.918439
vt 0.826903 0.900272
vt 0.838216 0.890350
vt 0.841219 0.911257
vt 0.838216 0.890350
vt 0.847239 0.905978
vt 0.841219 0.911257
vt 0.838216 0.890350
vt 0.852466 0.885513
vt 0.847239 0.905978
vt 0.852466 0.885513
vt 0.854821 0.903404
vt 0.847239 0.905978
vt 0.852466 0.885513
vt 0.867482 0.886497
vt 0.854821 0.903404
vt 0.867482 0.886497
vt 0.862811 0.903928
vt 0.854821 0.903404
vt 0.867482 0.886497
vt 0.880978 0.893153
vt 0.862811 0.903928
vt 0.880978 0.893153
vt 0.869993 0.907469
vt 0.862811 0.903928
vt 0.880978 0.893153
vt 0.890900 0.904466
vt 0.869993 0.907469
vt 0.890900 0.904466
vt 0.875272 0.913489
vt 0.869993 0.907469
vt 0.890900 0.904466
vt 0.895737 0.918716
vt 0.875272 0.913489
vt 0.895737 0.918716
vt 0.877846 0.921071
vt 0.875272 0.913489
vt 0.895737 0.918716
vt 0.894753 0.933732
vt 0.877846 0.921071
vt 0.894753 0.933732
vt 0.877322 0.929061
vt 0.877846 0.921071
vt 0.894753 0.933732
vt 0.888097 0.947228
vt 0.877322 0.929061
vt 0.888097 0.947228
vt 0.873781 0.936243
vt 0.877322 0.929061
vt 0.888097 0.947228
vt 0.876784 0.957150
vt 0.873781 0.936243
vt 0.876784 0.957150
vt 0.867761 0.941522
vt 0.873781 0.936243
vt 0.876784 0.957150
vt 0.862534 0.961987
vt 0.867761 0.941522
vt 0.862534 0.961987
vt 0.860179 0.944096
vt 0.867761 0.941522
vt 0.862534 0.961987
vt 0.847518 0.961003
vt 0.860179 0.944096
vt 0.847518 0.961003
vt 0.852189 0.943572
vt 0.860179 0.944096
vt 0.847518 0.961003
vt 0.834022 0.954347
vt 0.852189 0.943572
vt 0.834022 0.954347
vt 0.845007 0.940031
vt 0.852189 0.943572
vt 0.834022 0.954347
vt 0.824100 0.943034
vt 0.845007 0.940031
vt 0.824100 0.943034
vt 0.839728 0.934011
vt 0.845007 0.940031
vt 0.839728 0.934011
vt 0.837154 0.926429
vt 0.857500 0.923750
vt 0.837154 0.926429
vt 0.857500 0.923750
vt 0.857500 0.923750
vt 0.837154 0.926429
vt 0.837678 0.918439
vt 0.857500 0.923750
vt 0.837678 0.918439
vt 0.857500 0.923750
vt 0.857500 0.923750
vt 0.837678 0.918439
vt 0.841219 0.911257
vt 0.857500 0.923750
vt 0.841219 0.911257
vt 0.857500 0.923750
vt 0.857500 0.923750
vt 0.841219 0.911257
vt 0.847239 0.905978
vt 0.857500 0.923750
vt 0.847239 0.905978
vt 0.857500 0.923750
vt 0.857500 0.923750
vt 0.847239 0.905978
vt 0.854821 0.903404
vt 0.857500 0.923750
vt 0.854821 0.903404
vt 0.857500 0.923750
vt 0.857500 0.923750
vt 0.854821 0.903404
vt 0.862811 0.903928
vt 0.857500 0.923750
vt 0.862811 0.903928
vt 0.857500 0.923750
vt 0.857500 0.923750
vt 0.862811 0.903928
vt 0.869993 0.907469
vt 0.857500 0.923750
vt 0.869993 0.907469
vt 0.857500 0.923750
vt 0.857500 0.923750
vt 0.869993 0.907469
vt 0.875272 0.913489
vt 0.857500 0.923750
vt 0.875272 0.913489
vt 0.857500 0.923750
vt 0.857500 0.923750
vt 0.875272 0.913489
vt 0.877846 0.921071
vt 0.857500 0.923750
vt 0.877846 0.921071
vt 0.857500 0.923750
vt 0.857500 0.923750
vt 0.877846 0.921071
vt 0.877322 0.929061
vt 0.857500 0.923750
vt 0.877322 0.929061
vt 0.857500 0.923750
vt 0.857500 0.923750
vt 0.877322 0.929061
vt 0.873781 0.936243
vt 0.857500 0.923750
vt 0.873781 0.936243
vt 0.857500 0.923750
vt 0.857500 0.923750
vt 0.873781 0.936243
vt 0.867761 0.941522
vt 0.857500 0.923750
vt 0.867761 0.941522
vt 0.857500 0.923750
vt 0.857500 0.923750
vt 0.867761 0.941522
vt 0.860179 0.944096
vt 0.857500 0.923750
vt 0.860179 0.944096
vt 0.857500 0.923750
vt 0.857500 0.923750
vt 0.860179 0.944096
vt 0.852189 0.943572
vt 0.857500 0.923750
vt 0.852189 0.943572
vt 0.857500 0.923750
vt 0.857500 0.923750
vt 0.852189 0.943572
vt 0.845007 0.940031
vt 0.857500 0.923750
vt 0.845007 0.940031
vt 0.857500 0.923750
vt 0.857500 0.923750
vt 0.845007 0.940031
vt 0.839728 0.934011
vt 0.857500 0.923750
vt 0.839728 0.934011
vt 0.857500 0.923750
vt 0.857500 0.923750
f 1/1 2/2 3/3
f 4/4 5/5 6/6
f 7/7 8/8 9/9
f 10/10 11/11 12/12
f 13/13 14/14 15/15
f 16/16 17/17 18/18
f 19/19 20/20 21/21
f 22/22 23/23 24/24
f 25/25 26/26 27/27
f 28/28 29/29 30/30
f 31/31 32/32 33/33
f 34/34 35/35 36/36
f 37/37 38/38 39/39
f 40/40 41/41 42/42
f 43/43 44/44 45/45
f 46/46 47/47 48/48
f 49/49 50/50 51/51
f 52/52 53/53 54/54
f 55/55 56/56 57/57
f 58/58 59/59 60/60
f 61/61 62/62 63/63
f 64/64 65/65 66/66
f 67/67 68/68 69/69
f 70/70 71/71 72/72
f 73/73 74/74 75/75
f 76/76 77/77 78/78
f 79/79 80/80 81/81
f 82/82 83/83 84/84
f 85/85 86/86 87/87
f 88/88 89/89 90/90
f 91/91 92/92 93/93
f 94/94 95/95 96/96
f 97/97 98/98 99/99
f 100/100 101/101 102/102
f 103/103 104/104 105/105
f 106/106 107/107 108/108
f 109/109 110/110 111/111
f 112/112 113/113 114/114
f 115/115 116/116 117/117
f 118/118 119/119 120/120
f 121/121 122/122 123/123
f 124/124 125/125 126/126
f 127/127 128/128 129/129
f 130/130 131/131 132/132
f 133/133 134/134 135/135
f 136/136 137/137 138/138
f 139/139 140/140 141/141
f 142/142 143/143 144/144
f 145/145 146/146 147/147
f 148/148 149/149 150/150
f 151/151 152/152 153/153
f 154/154 155/155 156/156
f 157/157 158/158 159/159
f 160/160 161/161 162/162
f 163/163 164/164 165/165
f 166/166 167/167 168/168
f 169/169 170/170 171/171
f 172/172 173/173 174/174
f 175/175 176/176 177/177
f 178/178 179/179 180/180
f 181/181 182/182 183/183
f 184/184 185/185 186/186
f 187/187 188/188 189/189
f 190/190 191/191 192/192
f 193/193 194/194 195/195
f 196/196 197/197 198/198
f 199/199 200/200 201/201
f 202/202 203/203 204/204
f 205/205 206/206 207/207
f 208/208 209/209 210/210
f 211/211 212/212 213/213
f 214/214 215/215 216/216
f 217/217 218/218 219/219
f 220/220 221/221 222/222
f 223/223 224/224 225/225
f 226/226 227/227 228/228
f 229/229 230/230 231/231
f 232/232 233/233 234/234
f 235/235 236/236 237/237
f 238/238 239/239 240/240
f 241/241 242/242 243/243
f 244/244 245/245 246/246
f 247/247 248/248 249/249
f 250/250 251/251 252/252
f 253/253 254/254 255/255
f 256/256 257/257 258/258
f 259/259 260/260 261/261
f 262/262 263/263 264/264
f 265/265 266/266 267/267
f 268/268 269/269 270/270
f 271/271 272/272 273/273
f 274/274 275/275 276/276
f 277/277 278/278 279/279
f 280/280 281/281 282/282
f 283/283 284/284 285/285
f 286/286 287/287 288/288
f 289/289 290/290 291/291
f 292/292 293/293 294/294
f 295/295 296/296 297/297
f 298/298 299/299 300/300
f 301/301 302/302 303/303
f 304/304 305/305 306/306
f 307/307 308/308 309/309
f 310/310 311/311 312/312
f 313/313 314/314 315/315
f 316/316 317/317 318/318
f 319/319 320/320 321/321
f 322/322 323/323 324/324
f 325/325 326/326 327/327
f 328/328 329/329 330/330
f 331/331 332/332 333/333
f 334/334 335/335 336/336
f 337/337 338/338 339/339
f 340/340 341/341 342/342
f 343/343 344/344 345/345
f 346/346 347/347 348/348
f 349/349 350/350 351/351
f 352/352 353/353 354/354
f 355/355 356/356 357/357
f 358/358 359/359 360/360
f 361/361 362/362 363/363
f 364/364 365/365 366/366
f 367/367 368/368 369/369
f 370/370 371/371 372/372
f 373/373 374/374 375/375
f 376/376 377/377 378/378
f 379/379 380/380 381/381
f 382/382 383/383 384/384
f 385/385 386/386 387/387
f 388/388 389/389 390/390
f 391/391 392/392 393/393
f 394/394 395/395 396/396
f 397/397 398/398 399/399
f 400/400 401/401 402/402
f 403/403 404/404 405/405
f 406/406 407/407 408/408
f 409/409 410/410 411/411
f 412/412 413/413 414/414
f 415/415 416/416 417/417
f 418/418 419/419 420/420
f 421/421 422/422 423/423
f 424/424 425/425 426/426
f 427/427 428/428 429/429
f 430/430 431/431 432/432
f 433/433 434/434 435/435
f 436/436 437/437 438/438
f 439/439 440/440 441/441
f 442/442 443/443 444/444
f 445/445 446/446 447/447
f 448/448 449/449 450/450
f 451/451 452/452 453/453
f 454/454 455/455 456/456
f 457/457 458/458 459/459
f 460/460 461/461 462/462
f 463/463 464/464 465/465
f 466/466 467/467 468/468
f 469/469 470/470 471/471
f 472/472 473/473 474/474
f 475/475 476/476 477/477
f 478/478 479/479 480/480
f 481/481 482/482 483/483
f 484/484 485/485 486/486
f 487/487 488/488 489/489
f 490/490 491/491 492/492
f 493/493 494/494 495/495
f 496/496 497/497 498/498
f 499/499 500/500 501/501
f 502/502 503/503 504/504
f 505/505 506/506 507/507
f 508/508 509/509 510/510
f 511/511 512/512 513/513
f 514/514 515/515 516/516
f 517/517 518/518 519/519
f 520/520 521/521 522/522
f 523/523 524/524 525/525
f 526/526 527/527 528/528
f 529/529 530/530 531/531
f 532/532 533/533 534/534
f 535/535 536/536 537/537
f 538/538 539/539 540/540
f 541/541 542/542 543/543
f 544/544 545/545 546/546
f 547/547 548/548 549/549
f 550/550 551/551 552/552
f 553/553 554/554 555/555
f 556/556 557/557 558/558
f 559/559 560/560 561/561
f 562/562 563/563 564/564
f 565/565 566/566 567/567
f 568/568 569/569 570/570
f 571/571 572/572 573/573
f 574/574 575/575 576/576
f 577/577 578/578 579/579
f 580/580 581/581 582/582
f 583/583 584/584 585/585
f 586/586 587/587 588/588
f 589/589 590/590 591/591
f 592/592 593/593 594/594
f 595/595 596/596 597/597
f 598/598 599/599 600/600
f 601/601 602/602 603/603
f 604/604 605/605 606/606
f 607/607 608/608 609/609
f 610/610 611/611 612/612
f 613/613 614/614 615/615
f 616/616 617/617 618/618
f 619/619 620/620 621/621
f 622/622 623/623 624/624
f 625/625 626/626 627/627
f 628/628 629/629 630/630
f 631/631 632/632 633/633
f 634/634 635/635 636/636
f 637/637 638/638 639/639
f 640/640 641/641 642/642
f 643/643 644/644 645/645
f 646/646 647/647 648/648
f 649/649 650/650 651/651
f 652/652 653/653 654/654
f 655/655 656/656 657/657
f 658/658 659/659 660/660
f 661/661 662/662 663/663
f 664/664 665/665 666/666
f 667/667 668/668 669/669
f 670/670 671/671 672/672
f 673/673 674/674 675/675
f 676/676 677/677 678/678
f 679/679 680/680 681/681
f 682/682 683/683 684/684
f 685/685 686/686 687/687
f 688/688 689/689 690/690
f 691/691 692/692 693/693
f 694/694 695/695 696/696
f 697/697 698/698 699/699
f 700/700 701/701 702/702
f 703/703 704/704 705/705
f 706/706 707/707 708/708
f 709/709 710/710 711/711
f 712/712 713/713 714/714
f 715/715 716/716 717/717
f 718/718 719/719 720/720
f 721/721 722/722 723/723
f 724/724 725/725 726/726
f 727/727 728/728 729/729
f 730/730 731/731 732/732
f 733/733 734/734 735/735
f 736/736 737/737 738/738
f 739/739 740/740 741/741
f 742/742 743/743 744/744
f 745/745 746/746 747/747
f 748/748 749/749 750/750
f 751/751 752/752 753/753
f 754/754 755/755 756/756
f 757/757 758/758 759/759
f 760/760 761/761 762/762
f 763/763 764/764 765/765
f 766/766 767/767 768/768
f 769/769 770/770 771/771
f 772/772 773/773 774/774
f 775/775 776/776 777/777
f 778/778 779/779 780/780
f 781/781 782/782 783/783
f 784/784 785/785 786/786
f 787/787 788/788 789/789
f 790/790 791/791 792/792
f 793/793 794/794 795/795
f 796/796 797/797 798/798
f 799/799 800/800 801/801
f 802/802 803/803 804/804
f 805/805 806/806 807/807
f 808/808 809/809 810/810
f 811/811 812/812 813/813
f 814/814 815/815 816/816
f 817/817 818/818 819/819
f 820/820 821/821 822/822
f 823/823 824/824 825/825
f 826/826 827/827 828/828
f 829/829 830/830 831/831
f 832/832 833/833 834/834
f 835/835 836/836 837/837
f 838/838 839/839 840/840
f 841/841 842/842 843/843
f 844/844 845/845 846/846
f 847/847 848/848 849/849
f 850/850 851/851 852/852
f 853/853 854/854 855/855
f 856/856 857/857 858/858
f 859/859 860/860 861/861
f 862/862 863/863 864/864
