mtllib strike_notice_warning.mtl
usemtl baked
v -0.023500 0.280000 0.200000
v 0.021500 0.280000 0.200000
v -0.023500 0.200000 0.200000
v 0.021500 0.280000 0.200000
v 0.021500 0.200000 0.200000
v -0.023500 0.200000 0.200000
v 0.021500 0.280000 -0.200000
v -0.023500 0.280000 -0.200000
v 0.021500 0.200000 -0.200000
v -0.023500 0.280000 -0.200000
v -0.023500 0.200000 -0.200000
v 0.021500 0.200000 -0.200000
v 0.021500 0.280000 0.200000
v 0.021500 0.280000 -0.200000
v 0.021500 0.200000 0.200000
v 0.021500 0.280000 -0.200000
v 0.021500 0.200000 -0.200000
v 0.021500 0.200000 0.200000
v -0.023500 0.280000 -0.200000
v -0.023500 0.280000 0.200000
v -0.023500 0.200000 -0.200000
v -0.023500 0.280000 0.200000
v -0.023500 0.200000 0.200000
v -0.023500 0.200000 -0.200000
v 0.021500 0.280000 0.200000
v -0.023500 0.280000 0.200000
v 0.021500 0.280000 -0.200000
v -0.023500 0.280000 0.200000
v -0.023500 0.280000 -0.200000
v 0.021500 0.280000 -0.200000
v -0.023500 0.200000 0.200000
v 0.021500 0.200000 0.200000
v -0.023500 0.200000 -0.200000
v 0.021500 0.200000 0.200000
v 0.021500 0.200000 -0.200000
v -0.023500 0.200000 -0.200000
vt 0.241250 0.968750
vt 0.218750 0.968750
vt 0.241250 0.928750
vt 0.218750 0.968750
vt 0.218750 0.928750
vt 0.241250 0.928750
vt 0.335000 0.968750
vt 0.312500 0.968750
vt 0.335000 0.928750
vt 0.312500 0.968750
vt 0.312500 0.928750
vt 0.335000 0.928750
vt 0.606250 0.968750
vt 0.406250 0.968750
vt 0.606250 0.928750
vt 0.406250 0.968750
vt 0.406250 0.928750
vt 0.606250 0.928750
vt 0.871875 0.968750
vt 0.671875 0.968750
vt 0.871875 0.928750
vt 0.671875 0.968750
vt 0.671875 0.928750
vt 0.871875 0.928750
vt 0.053750 0.968750
vt 0.031250 0.968750
vt 0.053750 0.768750
vt 0.031250 0.968750
vt 0.031250 0.768750
vt 0.053750 0.768750
vt 0.125000 0.768750
vt 0.147500 0.768750
vt 0.125000 0.968750
vt 0.147500 0.768750
vt 0.147500 0.968750
vt 0.125000 0.968750
f 1/1 2/2 3/3
f 4/4 5/5 6/6
f 7/7 8/8 9/9
f 10/10 11/11 12/12
f 13/13 14/14 15/15
f 16/16 17/17 18/18
f 19/19 20/20 21/21
f 22/22 23/23 24/24
f 25/25 26/26 27/27
f 28/28 29/29 30/30
f 31/31 32/32 33/33
f 34/34 35/35 36/36
