mtllib weak_wall_slab.mtl
o weak_wall_slab
usemtl weak_wall_panel
s off

# Bottom-pivoted 0.9 m x 2.8 m breakaway facade slab. Y up; metres.
v -0.450000 0.000000 0.090000
v 0.450000 0.000000 0.090000
v 0.410000 2.800000 0.090000
v -0.430000 2.800000 0.090000
v -0.450000 0.000000 -0.090000
v 0.450000 0.000000 -0.090000
v 0.410000 2.800000 -0.090000
v -0.430000 2.800000 -0.090000

vt 0.000000 0.000000
vt 1.000000 0.000000
vt 1.000000 1.000000
vt 0.000000 1.000000

vn 0.000000 0.000000 1.000000
vn 0.000000 0.000000 -1.000000
vn -1.000000 0.000000 0.000000
vn 1.000000 0.000000 0.000000
vn 0.000000 1.000000 0.000000
vn 0.000000 -1.000000 0.000000

f 1/1/1 2/2/1 3/3/1
f 1/1/1 3/3/1 4/4/1
f 6/1/2 5/2/2 8/3/2
f 6/1/2 8/3/2 7/4/2
f 5/1/3 1/2/3 4/3/3
f 5/1/3 4/3/3 8/4/3
f 2/1/4 6/2/4 7/3/4
f 2/1/4 7/3/4 3/4/4
f 4/1/5 3/2/5 7/3/5
f 4/1/5 7/3/5 8/4/5
f 5/1/6 6/2/6 2/3/6
f 5/1/6 2/3/6 1/4/6
